<svg xmlns="http://www.w3.org/2000/svg" width="800" height="600" viewBox="0 0 800 600"><rect x="0.0" y="0.0" width="800.0" height="600.0" fill="#ffffff" fill-opacity="1.0" stroke="none"/><line x1="165.2979020979021" y1="27.0" x2="165.2979020979021" y2="563.8" stroke="#dddddd" stroke-width="0.5"/><line x1="354.1340659340659" y1="27.0" x2="354.1340659340659" y2="563.8" stroke="#dddddd" stroke-width="0.5"/><line x1="542.9702297702298" y1="27.0" x2="542.9702297702298" y2="563.8" stroke="#dddddd" stroke-width="0.5"/><line x1="731.8063936063936" y1="27.0" x2="731.8063936063936" y2="563.8" stroke="#dddddd" stroke-width="0.5"/><line x1="70.87982017982017" y1="27.0" x2="70.87982017982017" y2="563.8" stroke="#dddddd" stroke-width="1.0"/><line x1="259.715984015984" y1="27.0" x2="259.715984015984" y2="563.8" stroke="#dddddd" stroke-width="1.0"/><line x1="448.5521478521478" y1="27.0" x2="448.5521478521478" y2="563.8" stroke="#dddddd" stroke-width="1.0"/><line x1="637.3883116883117" y1="27.0" x2="637.3883116883117" y2="563.8" stroke="#dddddd" stroke-width="1.0"/><line x1="38.4" y1="526.5578947368421" x2="794.5" y2="526.5578947368421" stroke="#dddddd" stroke-width="0.5"/><line x1="38.4" y1="398.13684210526316" x2="794.5" y2="398.13684210526316" stroke="#dddddd" stroke-width="0.5"/><line x1="38.4" y1="269.71578947368425" x2="794.5" y2="269.71578947368425" stroke="#dddddd" stroke-width="0.5"/><line x1="38.4" y1="141.29473684210535" x2="794.5" y2="141.29473684210535" stroke="#dddddd" stroke-width="0.5"/><line x1="38.4" y1="462.34736842105264" x2="794.5" y2="462.34736842105264" stroke="#dddddd" stroke-width="1.0"/><line x1="38.4" y1="333.92631578947373" x2="794.5" y2="333.92631578947373" stroke="#dddddd" stroke-width="1.0"/><line x1="38.4" y1="205.50526315789477" x2="794.5" y2="205.50526315789477" stroke="#dddddd" stroke-width="1.0"/><line x1="38.4" y1="77.08421052631581" x2="794.5" y2="77.08421052631581" stroke="#dddddd" stroke-width="1.0"/><rect x="38.4" y="27.0" width="756.1" height="536.8" fill="#ffffff" fill-opacity="0.0" stroke="#444444" stroke-width="1.0"/><line x1="70.87982017982017" y1="563.8" x2="70.87982017982017" y2="566.55" stroke="#444444" stroke-width="1.0"/><text x="70.87982017982017" y="577.55" fill="#333333" font-size="11.0" font-family="sans-serif" text-anchor="middle">0</text><line x1="259.715984015984" y1="563.8" x2="259.715984015984" y2="566.55" stroke="#444444" stroke-width="1.0"/><text x="259.715984015984" y="577.55" fill="#333333" font-size="11.0" font-family="sans-serif" text-anchor="middle">100</text><line x1="448.5521478521478" y1="563.8" x2="448.5521478521478" y2="566.55" stroke="#444444" stroke-width="1.0"/><text x="448.5521478521478" y="577.55" fill="#333333" font-size="11.0" font-family="sans-serif" text-anchor="middle">200</text><line x1="637.3883116883117" y1="563.8" x2="637.3883116883117" y2="566.55" stroke="#444444" stroke-width="1.0"/><text x="637.3883116883117" y="577.55" fill="#333333" font-size="11.0" font-family="sans-serif" text-anchor="middle">300</text><line x1="38.4" y1="462.34736842105264" x2="35.65" y2="462.34736842105264" stroke="#444444" stroke-width="1.0"/><text x="33.449999999999996" y="466.19736842105266" fill="#333333" font-size="11.0" font-family="sans-serif" text-anchor="end">35</text><line x1="38.4" y1="333.92631578947373" x2="35.65" y2="333.92631578947373" stroke="#444444" stroke-width="1.0"/><text x="33.449999999999996" y="337.77631578947376" fill="#333333" font-size="11.0" font-family="sans-serif" text-anchor="end">40</text><line x1="38.4" y1="205.50526315789477" x2="35.65" y2="205.50526315789477" stroke="#444444" stroke-width="1.0"/><text x="33.449999999999996" y="209.35526315789477" fill="#333333" font-size="11.0" font-family="sans-serif" text-anchor="end">45</text><line x1="38.4" y1="77.08421052631581" x2="35.65" y2="77.08421052631581" stroke="#444444" stroke-width="1.0"/><text x="33.449999999999996" y="80.93421052631581" fill="#333333" font-size="11.0" font-family="sans-serif" text-anchor="end">50</text><text x="416.45" y="18.3" fill="#333333" font-size="16.0" font-family="sans-serif" text-anchor="middle">便数の年内推移 (1 日ごと)</text><text x="416.45" y="592.1" fill="#333333" font-size="12.0" font-family="sans-serif" text-anchor="middle">day of year</text><text x="13.899999999999999" y="295.4" fill="#333333" font-size="12.0" font-family="sans-serif" text-anchor="middle" transform="rotate(-90.0 13.899999999999999 295.4)">便数</text><line x1="72.76818181818182" y1="256.87368421052633" x2="74.65654345654346" y2="154.1368421052632" stroke="#2c7fb8" stroke-width="1.5"/><line x1="74.65654345654346" y1="154.1368421052632" x2="76.54490509490509" y2="205.50526315789477" stroke="#2c7fb8" stroke-width="1.5"/><line x1="76.54490509490509" y1="205.50526315789477" x2="78.43326673326673" y2="179.821052631579" stroke="#2c7fb8" stroke-width="1.5"/><line x1="78.43326673326673" y1="179.821052631579" x2="80.32162837162838" y2="436.66315789473686" stroke="#2c7fb8" stroke-width="1.5"/><line x1="80.32162837162838" y1="436.66315789473686" x2="82.20999000999001" y2="282.5578947368421" stroke="#2c7fb8" stroke-width="1.5"/><line x1="82.20999000999001" y1="282.5578947368421" x2="84.09835164835164" y2="179.821052631579" stroke="#2c7fb8" stroke-width="1.5"/><line x1="84.09835164835164" y1="179.821052631579" x2="85.9867132867133" y2="205.50526315789477" stroke="#2c7fb8" stroke-width="1.5"/><line x1="85.9867132867133" y1="205.50526315789477" x2="87.87507492507493" y2="205.50526315789477" stroke="#2c7fb8" stroke-width="1.5"/><line x1="87.87507492507493" y1="205.50526315789477" x2="89.76343656343656" y2="154.1368421052632" stroke="#2c7fb8" stroke-width="1.5"/><line x1="89.76343656343656" y1="154.1368421052632" x2="91.6517982017982" y2="154.1368421052632" stroke="#2c7fb8" stroke-width="1.5"/><line x1="91.6517982017982" y1="154.1368421052632" x2="93.54015984015984" y2="488.0315789473684" stroke="#2c7fb8" stroke-width="1.5"/><line x1="93.54015984015984" y1="488.0315789473684" x2="95.42852147852147" y2="308.2421052631579" stroke="#2c7fb8" stroke-width="1.5"/><line x1="95.42852147852147" y1="308.2421052631579" x2="97.31688311688312" y2="154.1368421052632" stroke="#2c7fb8" stroke-width="1.5"/><line x1="97.31688311688312" y1="154.1368421052632" x2="99.20524475524476" y2="205.50526315789477" stroke="#2c7fb8" stroke-width="1.5"/><line x1="99.20524475524476" y1="205.50526315789477" x2="101.0936063936064" y2="205.50526315789477" stroke="#2c7fb8" stroke-width="1.5"/><line x1="101.0936063936064" y1="205.50526315789477" x2="102.98196803196805" y2="179.821052631579" stroke="#2c7fb8" stroke-width="1.5"/><line x1="102.98196803196805" y1="179.821052631579" x2="104.87032967032968" y2="179.821052631579" stroke="#2c7fb8" stroke-width="1.5"/><line x1="104.87032967032968" y1="179.821052631579" x2="106.75869130869131" y2="488.0315789473684" stroke="#2c7fb8" stroke-width="1.5"/><line x1="106.75869130869131" y1="488.0315789473684" x2="108.64705294705297" y2="359.61052631578946" stroke="#2c7fb8" stroke-width="1.5"/><line x1="108.64705294705297" y1="359.61052631578946" x2="110.5354145854146" y2="179.821052631579" stroke="#2c7fb8" stroke-width="1.5"/><line x1="110.5354145854146" y1="179.821052631579" x2="112.42377622377623" y2="231.18947368421055" stroke="#2c7fb8" stroke-width="1.5"/><line x1="112.42377622377623" y1="231.18947368421055" x2="114.31213786213786" y2="205.50526315789477" stroke="#2c7fb8" stroke-width="1.5"/><line x1="114.31213786213786" y1="205.50526315789477" x2="116.20049950049952" y2="179.821052631579" stroke="#2c7fb8" stroke-width="1.5"/><line x1="116.20049950049952" y1="179.821052631579" x2="118.08886113886115" y2="179.821052631579" stroke="#2c7fb8" stroke-width="1.5"/><line x1="118.08886113886115" y1="179.821052631579" x2="119.97722277722278" y2="488.0315789473684" stroke="#2c7fb8" stroke-width="1.5"/><line x1="119.97722277722278" y1="488.0315789473684" x2="121.86558441558444" y2="282.5578947368421" stroke="#2c7fb8" stroke-width="1.5"/><line x1="121.86558441558444" y1="282.5578947368421" x2="123.75394605394607" y2="179.821052631579" stroke="#2c7fb8" stroke-width="1.5"/><line x1="123.75394605394607" y1="179.821052631579" x2="125.6423076923077" y2="231.18947368421055" stroke="#2c7fb8" stroke-width="1.5"/><line x1="125.6423076923077" y1="231.18947368421055" x2="127.53066933066935" y2="205.50526315789477" stroke="#2c7fb8" stroke-width="1.5"/><line x1="127.53066933066935" y1="205.50526315789477" x2="129.41903096903098" y2="154.1368421052632" stroke="#2c7fb8" stroke-width="1.5"/><line x1="129.41903096903098" y1="154.1368421052632" x2="131.30739260739261" y2="154.1368421052632" stroke="#2c7fb8" stroke-width="1.5"/><line x1="131.30739260739261" y1="154.1368421052632" x2="133.19575424575424" y2="488.0315789473684" stroke="#2c7fb8" stroke-width="1.5"/><line x1="133.19575424575424" y1="488.0315789473684" x2="135.0841158841159" y2="333.92631578947373" stroke="#2c7fb8" stroke-width="1.5"/><line x1="135.0841158841159" y1="333.92631578947373" x2="136.97247752247753" y2="154.1368421052632" stroke="#2c7fb8" stroke-width="1.5"/><line x1="136.97247752247753" y1="154.1368421052632" x2="138.8608391608392" y2="205.50526315789477" stroke="#2c7fb8" stroke-width="1.5"/><line x1="138.8608391608392" y1="205.50526315789477" x2="140.74920079920082" y2="205.50526315789477" stroke="#2c7fb8" stroke-width="1.5"/><line x1="140.74920079920082" y1="205.50526315789477" x2="142.63756243756245" y2="179.821052631579" stroke="#2c7fb8" stroke-width="1.5"/><line x1="142.63756243756245" y1="179.821052631579" x2="144.52592407592408" y2="154.1368421052632" stroke="#2c7fb8" stroke-width="1.5"/><line x1="144.52592407592408" y1="154.1368421052632" x2="146.41428571428574" y2="488.0315789473684" stroke="#2c7fb8" stroke-width="1.5"/><line x1="146.41428571428574" y1="488.0315789473684" x2="148.30264735264737" y2="282.5578947368421" stroke="#2c7fb8" stroke-width="1.5"/><line x1="148.30264735264737" y1="282.5578947368421" x2="150.191008991009" y2="179.821052631579" stroke="#2c7fb8" stroke-width="1.5"/><line x1="150.191008991009" y1="179.821052631579" x2="152.07937062937063" y2="205.50526315789477" stroke="#2c7fb8" stroke-width="1.5"/><line x1="152.07937062937063" y1="205.50526315789477" x2="153.9677322677323" y2="179.821052631579" stroke="#2c7fb8" stroke-width="1.5"/><line x1="153.9677322677323" y1="179.821052631579" x2="155.85609390609392" y2="154.1368421052632" stroke="#2c7fb8" stroke-width="1.5"/><line x1="155.85609390609392" y1="154.1368421052632" x2="157.74445554445555" y2="128.45263157894743" stroke="#2c7fb8" stroke-width="1.5"/><line x1="157.74445554445555" y1="128.45263157894743" x2="159.6328171828172" y2="410.978947368421" stroke="#2c7fb8" stroke-width="1.5"/><line x1="159.6328171828172" y1="410.978947368421" x2="161.52117882117884" y2="282.5578947368421" stroke="#2c7fb8" stroke-width="1.5"/><line x1="161.52117882117884" y1="282.5578947368421" x2="163.40954045954047" y2="128.45263157894743" stroke="#2c7fb8" stroke-width="1.5"/><line x1="163.40954045954047" y1="128.45263157894743" x2="165.2979020979021" y2="154.1368421052632" stroke="#2c7fb8" stroke-width="1.5"/><line x1="165.2979020979021" y1="154.1368421052632" x2="167.18626373626375" y2="154.1368421052632" stroke="#2c7fb8" stroke-width="1.5"/><line x1="167.18626373626375" y1="154.1368421052632" x2="169.07462537462538" y2="128.45263157894743" stroke="#2c7fb8" stroke-width="1.5"/><line x1="169.07462537462538" y1="128.45263157894743" x2="170.96298701298704" y2="128.45263157894743" stroke="#2c7fb8" stroke-width="1.5"/><line x1="170.96298701298704" y1="128.45263157894743" x2="172.85134865134867" y2="410.978947368421" stroke="#2c7fb8" stroke-width="1.5"/><line x1="172.85134865134867" y1="410.978947368421" x2="174.73971028971033" y2="231.18947368421055" stroke="#2c7fb8" stroke-width="1.5"/><line x1="174.73971028971033" y1="231.18947368421055" x2="176.62807192807196" y2="128.45263157894743" stroke="#2c7fb8" stroke-width="1.5"/><line x1="176.62807192807196" y1="128.45263157894743" x2="178.5164335664336" y2="154.1368421052632" stroke="#2c7fb8" stroke-width="1.5"/><line x1="178.5164335664336" y1="154.1368421052632" x2="180.40479520479522" y2="128.45263157894743" stroke="#2c7fb8" stroke-width="1.5"/><line x1="180.40479520479522" y1="128.45263157894743" x2="182.29315684315688" y2="128.45263157894743" stroke="#2c7fb8" stroke-width="1.5"/><line x1="182.29315684315688" y1="128.45263157894743" x2="184.1815184815185" y2="128.45263157894743" stroke="#2c7fb8" stroke-width="1.5"/><line x1="184.1815184815185" y1="128.45263157894743" x2="186.06988011988014" y2="385.2947368421053" stroke="#2c7fb8" stroke-width="1.5"/><line x1="186.06988011988014" y1="385.2947368421053" x2="187.95824175824177" y2="179.821052631579" stroke="#2c7fb8" stroke-width="1.5"/><line x1="187.95824175824177" y1="179.821052631579" x2="189.84660339660343" y2="128.45263157894743" stroke="#2c7fb8" stroke-width="1.5"/><line x1="189.84660339660343" y1="128.45263157894743" x2="191.73496503496506" y2="102.76842105263165" stroke="#2c7fb8" stroke-width="1.5"/><line x1="191.73496503496506" y1="102.76842105263165" x2="193.6233266733267" y2="128.45263157894743" stroke="#2c7fb8" stroke-width="1.5"/><line x1="193.6233266733267" y1="128.45263157894743" x2="195.51168831168835" y2="102.76842105263165" stroke="#2c7fb8" stroke-width="1.5"/><line x1="195.51168831168835" y1="102.76842105263165" x2="197.40004995004998" y2="102.76842105263165" stroke="#2c7fb8" stroke-width="1.5"/><line x1="197.40004995004998" y1="102.76842105263165" x2="199.2884115884116" y2="359.61052631578946" stroke="#2c7fb8" stroke-width="1.5"/><line x1="199.2884115884116" y1="359.61052631578946" x2="201.17677322677324" y2="205.50526315789477" stroke="#2c7fb8" stroke-width="1.5"/><line x1="201.17677322677324" y1="205.50526315789477" x2="203.0651348651349" y2="102.76842105263165" stroke="#2c7fb8" stroke-width="1.5"/><line x1="203.0651348651349" y1="102.76842105263165" x2="204.95349650349652" y2="128.45263157894743" stroke="#2c7fb8" stroke-width="1.5"/><line x1="204.95349650349652" y1="128.45263157894743" x2="206.84185814185815" y2="102.76842105263165" stroke="#2c7fb8" stroke-width="1.5"/><line x1="206.84185814185815" y1="102.76842105263165" x2="208.7302197802198" y2="102.76842105263165" stroke="#2c7fb8" stroke-width="1.5"/><line x1="208.7302197802198" y1="102.76842105263165" x2="210.61858141858144" y2="102.76842105263165" stroke="#2c7fb8" stroke-width="1.5"/><line x1="210.61858141858144" y1="102.76842105263165" x2="212.5069430569431" y2="385.2947368421053" stroke="#2c7fb8" stroke-width="1.5"/><line x1="212.5069430569431" y1="385.2947368421053" x2="214.39530469530473" y2="179.821052631579" stroke="#2c7fb8" stroke-width="1.5"/><line x1="214.39530469530473" y1="179.821052631579" x2="216.28366633366636" y2="102.76842105263165" stroke="#2c7fb8" stroke-width="1.5"/><line x1="216.28366633366636" y1="102.76842105263165" x2="218.172027972028" y2="128.45263157894743" stroke="#2c7fb8" stroke-width="1.5"/><line x1="218.172027972028" y1="128.45263157894743" x2="220.06038961038965" y2="102.76842105263165" stroke="#2c7fb8" stroke-width="1.5"/><line x1="220.06038961038965" y1="102.76842105263165" x2="221.94875124875128" y2="102.76842105263165" stroke="#2c7fb8" stroke-width="1.5"/><line x1="221.94875124875128" y1="102.76842105263165" x2="223.8371128871129" y2="128.45263157894743" stroke="#2c7fb8" stroke-width="1.5"/><line x1="223.8371128871129" y1="128.45263157894743" x2="225.72547452547454" y2="359.61052631578946" stroke="#2c7fb8" stroke-width="1.5"/><line x1="225.72547452547454" y1="359.61052631578946" x2="227.6138361638362" y2="205.50526315789477" stroke="#2c7fb8" stroke-width="1.5"/><line x1="227.6138361638362" y1="205.50526315789477" x2="229.50219780219786" y2="102.76842105263165" stroke="#2c7fb8" stroke-width="1.5"/><line x1="229.50219780219786" y1="102.76842105263165" x2="231.39055944055946" y2="102.76842105263165" stroke="#2c7fb8" stroke-width="1.5"/><line x1="231.39055944055946" y1="102.76842105263165" x2="233.27892107892112" y2="128.45263157894743" stroke="#2c7fb8" stroke-width="1.5"/><line x1="233.27892107892112" y1="128.45263157894743" x2="235.16728271728275" y2="77.08421052631581" stroke="#2c7fb8" stroke-width="1.5"/><line x1="235.16728271728275" y1="77.08421052631581" x2="237.0556443556444" y2="128.45263157894743" stroke="#2c7fb8" stroke-width="1.5"/><line x1="237.0556443556444" y1="128.45263157894743" x2="238.944005994006" y2="359.61052631578946" stroke="#2c7fb8" stroke-width="1.5"/><line x1="238.944005994006" y1="359.61052631578946" x2="240.83236763236766" y2="205.50526315789477" stroke="#2c7fb8" stroke-width="1.5"/><line x1="240.83236763236766" y1="205.50526315789477" x2="242.7207292707293" y2="128.45263157894743" stroke="#2c7fb8" stroke-width="1.5"/><line x1="242.7207292707293" y1="128.45263157894743" x2="244.60909090909095" y2="102.76842105263165" stroke="#2c7fb8" stroke-width="1.5"/><line x1="244.60909090909095" y1="102.76842105263165" x2="246.49745254745255" y2="77.08421052631581" stroke="#2c7fb8" stroke-width="1.5"/><line x1="246.49745254745255" y1="77.08421052631581" x2="248.3858141858142" y2="102.76842105263165" stroke="#2c7fb8" stroke-width="1.5"/><line x1="248.3858141858142" y1="102.76842105263165" x2="250.27417582417584" y2="102.76842105263165" stroke="#2c7fb8" stroke-width="1.5"/><line x1="250.27417582417584" y1="102.76842105263165" x2="252.1625374625375" y2="359.61052631578946" stroke="#2c7fb8" stroke-width="1.5"/><line x1="252.1625374625375" y1="359.61052631578946" x2="254.0508991008991" y2="205.50526315789477" stroke="#2c7fb8" stroke-width="1.5"/><line x1="254.0508991008991" y1="205.50526315789477" x2="255.93926073926076" y2="102.76842105263165" stroke="#2c7fb8" stroke-width="1.5"/><line x1="255.93926073926076" y1="102.76842105263165" x2="257.8276223776224" y2="102.76842105263165" stroke="#2c7fb8" stroke-width="1.5"/><line x1="257.8276223776224" y1="102.76842105263165" x2="259.715984015984" y2="102.76842105263165" stroke="#2c7fb8" stroke-width="1.5"/><line x1="259.715984015984" y1="102.76842105263165" x2="261.6043456543457" y2="77.08421052631581" stroke="#2c7fb8" stroke-width="1.5"/><line x1="261.6043456543457" y1="77.08421052631581" x2="263.4927072927073" y2="102.76842105263165" stroke="#2c7fb8" stroke-width="1.5"/><line x1="263.4927072927073" y1="102.76842105263165" x2="265.38106893106897" y2="359.61052631578946" stroke="#2c7fb8" stroke-width="1.5"/><line x1="265.38106893106897" y1="359.61052631578946" x2="267.2694305694306" y2="179.821052631579" stroke="#2c7fb8" stroke-width="1.5"/><line x1="267.2694305694306" y1="179.821052631579" x2="269.1577922077922" y2="77.08421052631581" stroke="#2c7fb8" stroke-width="1.5"/><line x1="269.1577922077922" y1="77.08421052631581" x2="271.04615384615386" y2="128.45263157894743" stroke="#2c7fb8" stroke-width="1.5"/><line x1="271.04615384615386" y1="128.45263157894743" x2="272.93451548451554" y2="77.08421052631581" stroke="#2c7fb8" stroke-width="1.5"/><line x1="272.93451548451554" y1="77.08421052631581" x2="274.8228771228771" y2="102.76842105263165" stroke="#2c7fb8" stroke-width="1.5"/><line x1="274.8228771228771" y1="102.76842105263165" x2="276.7112387612388" y2="77.08421052631581" stroke="#2c7fb8" stroke-width="1.5"/><line x1="276.7112387612388" y1="77.08421052631581" x2="278.59960039960043" y2="385.2947368421053" stroke="#2c7fb8" stroke-width="1.5"/><line x1="278.59960039960043" y1="385.2947368421053" x2="280.487962037962" y2="179.821052631579" stroke="#2c7fb8" stroke-width="1.5"/><line x1="280.487962037962" y1="179.821052631579" x2="282.3763236763237" y2="102.76842105263165" stroke="#2c7fb8" stroke-width="1.5"/><line x1="282.3763236763237" y1="102.76842105263165" x2="284.2646853146853" y2="128.45263157894743" stroke="#2c7fb8" stroke-width="1.5"/><line x1="284.2646853146853" y1="128.45263157894743" x2="286.15304695304695" y2="102.76842105263165" stroke="#2c7fb8" stroke-width="1.5"/><line x1="286.15304695304695" y1="102.76842105263165" x2="288.0414085914086" y2="102.76842105263165" stroke="#2c7fb8" stroke-width="1.5"/><line x1="288.0414085914086" y1="102.76842105263165" x2="289.9297702297702" y2="102.76842105263165" stroke="#2c7fb8" stroke-width="1.5"/><line x1="289.9297702297702" y1="102.76842105263165" x2="291.81813186813184" y2="385.2947368421053" stroke="#2c7fb8" stroke-width="1.5"/><line x1="291.81813186813184" y1="385.2947368421053" x2="293.70649350649353" y2="179.821052631579" stroke="#2c7fb8" stroke-width="1.5"/><line x1="293.70649350649353" y1="179.821052631579" x2="295.5948551448551" y2="102.76842105263165" stroke="#2c7fb8" stroke-width="1.5"/><line x1="295.5948551448551" y1="102.76842105263165" x2="297.4832167832168" y2="128.45263157894743" stroke="#2c7fb8" stroke-width="1.5"/><line x1="297.4832167832168" y1="128.45263157894743" x2="299.37157842157836" y2="128.45263157894743" stroke="#2c7fb8" stroke-width="1.5"/><line x1="299.37157842157836" y1="128.45263157894743" x2="301.25994005994005" y2="102.76842105263165" stroke="#2c7fb8" stroke-width="1.5"/><line x1="301.25994005994005" y1="102.76842105263165" x2="303.1483016983017" y2="102.76842105263165" stroke="#2c7fb8" stroke-width="1.5"/><line x1="303.1483016983017" y1="102.76842105263165" x2="305.0366633366633" y2="385.2947368421053" stroke="#2c7fb8" stroke-width="1.5"/><line x1="305.0366633366633" y1="385.2947368421053" x2="306.92502497502494" y2="205.50526315789477" stroke="#2c7fb8" stroke-width="1.5"/><line x1="306.92502497502494" y1="205.50526315789477" x2="308.81338661338657" y2="102.76842105263165" stroke="#2c7fb8" stroke-width="1.5"/><line x1="308.81338661338657" y1="102.76842105263165" x2="310.70174825174826" y2="128.45263157894743" stroke="#2c7fb8" stroke-width="1.5"/><line x1="310.70174825174826" y1="128.45263157894743" x2="312.5901098901099" y2="128.45263157894743" stroke="#2c7fb8" stroke-width="1.5"/><line x1="312.5901098901099" y1="128.45263157894743" x2="314.4784715284715" y2="102.76842105263165" stroke="#2c7fb8" stroke-width="1.5"/><line x1="314.4784715284715" y1="102.76842105263165" x2="316.36683316683315" y2="102.76842105263165" stroke="#2c7fb8" stroke-width="1.5"/><line x1="316.36683316683315" y1="102.76842105263165" x2="318.2551948051948" y2="410.978947368421" stroke="#2c7fb8" stroke-width="1.5"/><line x1="318.2551948051948" y1="410.978947368421" x2="320.1435564435564" y2="205.50526315789477" stroke="#2c7fb8" stroke-width="1.5"/><line x1="320.1435564435564" y1="205.50526315789477" x2="322.0319180819181" y2="102.76842105263165" stroke="#2c7fb8" stroke-width="1.5"/><line x1="322.0319180819181" y1="102.76842105263165" x2="323.92027972027967" y2="154.1368421052632" stroke="#2c7fb8" stroke-width="1.5"/><line x1="323.92027972027967" y1="154.1368421052632" x2="325.80864135864135" y2="102.76842105263165" stroke="#2c7fb8" stroke-width="1.5"/><line x1="325.80864135864135" y1="102.76842105263165" x2="327.697002997003" y2="102.76842105263165" stroke="#2c7fb8" stroke-width="1.5"/><line x1="327.697002997003" y1="102.76842105263165" x2="329.5853646353646" y2="102.76842105263165" stroke="#2c7fb8" stroke-width="1.5"/><line x1="329.5853646353646" y1="102.76842105263165" x2="331.47372627372624" y2="410.978947368421" stroke="#2c7fb8" stroke-width="1.5"/><line x1="331.47372627372624" y1="410.978947368421" x2="333.3620879120879" y2="179.821052631579" stroke="#2c7fb8" stroke-width="1.5"/><line x1="333.3620879120879" y1="179.821052631579" x2="335.2504495504495" y2="102.76842105263165" stroke="#2c7fb8" stroke-width="1.5"/><line x1="335.2504495504495" y1="102.76842105263165" x2="337.1388111888112" y2="128.45263157894743" stroke="#2c7fb8" stroke-width="1.5"/><line x1="337.1388111888112" y1="128.45263157894743" x2="339.0271728271728" y2="102.76842105263165" stroke="#2c7fb8" stroke-width="1.5"/><line x1="339.0271728271728" y1="102.76842105263165" x2="340.91553446553445" y2="102.76842105263165" stroke="#2c7fb8" stroke-width="1.5"/><line x1="340.91553446553445" y1="102.76842105263165" x2="342.8038961038961" y2="102.76842105263165" stroke="#2c7fb8" stroke-width="1.5"/><line x1="342.8038961038961" y1="102.76842105263165" x2="344.6922577422577" y2="436.66315789473686" stroke="#2c7fb8" stroke-width="1.5"/><line x1="344.6922577422577" y1="436.66315789473686" x2="346.5806193806194" y2="410.978947368421" stroke="#2c7fb8" stroke-width="1.5"/><line x1="346.5806193806194" y1="410.978947368421" x2="348.468981018981" y2="179.821052631579" stroke="#2c7fb8" stroke-width="1.5"/><line x1="348.468981018981" y1="179.821052631579" x2="350.35734265734266" y2="102.76842105263165" stroke="#2c7fb8" stroke-width="1.5"/><line x1="350.35734265734266" y1="102.76842105263165" x2="352.2457042957043" y2="102.76842105263165" stroke="#2c7fb8" stroke-width="1.5"/><line x1="352.2457042957043" y1="102.76842105263165" x2="354.1340659340659" y2="77.08421052631581" stroke="#2c7fb8" stroke-width="1.5"/><line x1="354.1340659340659" y1="77.08421052631581" x2="356.02242757242755" y2="102.76842105263165" stroke="#2c7fb8" stroke-width="1.5"/><line x1="356.02242757242755" y1="102.76842105263165" x2="357.91078921078923" y2="385.2947368421053" stroke="#2c7fb8" stroke-width="1.5"/><line x1="357.91078921078923" y1="385.2947368421053" x2="359.7991508491508" y2="205.50526315789477" stroke="#2c7fb8" stroke-width="1.5"/><line x1="359.7991508491508" y1="205.50526315789477" x2="361.6875124875125" y2="102.76842105263165" stroke="#2c7fb8" stroke-width="1.5"/><line x1="361.6875124875125" y1="102.76842105263165" x2="363.5758741258741" y2="128.45263157894743" stroke="#2c7fb8" stroke-width="1.5"/><line x1="363.5758741258741" y1="128.45263157894743" x2="365.46423576423575" y2="102.76842105263165" stroke="#2c7fb8" stroke-width="1.5"/><line x1="365.46423576423575" y1="102.76842105263165" x2="367.3525974025974" y2="128.45263157894743" stroke="#2c7fb8" stroke-width="1.5"/><line x1="367.3525974025974" y1="128.45263157894743" x2="369.240959040959" y2="102.76842105263165" stroke="#2c7fb8" stroke-width="1.5"/><line x1="369.240959040959" y1="102.76842105263165" x2="371.12932067932064" y2="359.61052631578946" stroke="#2c7fb8" stroke-width="1.5"/><line x1="371.12932067932064" y1="359.61052631578946" x2="373.01768231768233" y2="179.821052631579" stroke="#2c7fb8" stroke-width="1.5"/><line x1="373.01768231768233" y1="179.821052631579" x2="374.9060439560439" y2="102.76842105263165" stroke="#2c7fb8" stroke-width="1.5"/><line x1="374.9060439560439" y1="102.76842105263165" x2="376.7944055944056" y2="102.76842105263165" stroke="#2c7fb8" stroke-width="1.5"/><line x1="376.7944055944056" y1="102.76842105263165" x2="378.6827672327672" y2="102.76842105263165" stroke="#2c7fb8" stroke-width="1.5"/><line x1="378.6827672327672" y1="102.76842105263165" x2="380.57112887112885" y2="77.08421052631581" stroke="#2c7fb8" stroke-width="1.5"/><line x1="380.57112887112885" y1="77.08421052631581" x2="382.45949050949054" y2="102.76842105263165" stroke="#2c7fb8" stroke-width="1.5"/><line x1="382.45949050949054" y1="102.76842105263165" x2="384.3478521478521" y2="333.92631578947373" stroke="#2c7fb8" stroke-width="1.5"/><line x1="384.3478521478521" y1="333.92631578947373" x2="386.2362137862138" y2="179.821052631579" stroke="#2c7fb8" stroke-width="1.5"/><line x1="386.2362137862138" y1="179.821052631579" x2="388.1245754245754" y2="102.76842105263165" stroke="#2c7fb8" stroke-width="1.5"/><line x1="388.1245754245754" y1="102.76842105263165" x2="390.01293706293706" y2="77.08421052631581" stroke="#2c7fb8" stroke-width="1.5"/><line x1="390.01293706293706" y1="77.08421052631581" x2="391.9012987012987" y2="102.76842105263165" stroke="#2c7fb8" stroke-width="1.5"/><line x1="391.9012987012987" y1="102.76842105263165" x2="393.7896603396603" y2="77.08421052631581" stroke="#2c7fb8" stroke-width="1.5"/><line x1="393.7896603396603" y1="77.08421052631581" x2="395.67802197802195" y2="102.76842105263165" stroke="#2c7fb8" stroke-width="1.5"/><line x1="395.67802197802195" y1="102.76842105263165" x2="397.56638361638363" y2="308.2421052631579" stroke="#2c7fb8" stroke-width="1.5"/><line x1="397.56638361638363" y1="308.2421052631579" x2="399.4547452547452" y2="179.821052631579" stroke="#2c7fb8" stroke-width="1.5"/><line x1="399.4547452547452" y1="179.821052631579" x2="401.3431068931069" y2="77.08421052631581" stroke="#2c7fb8" stroke-width="1.5"/><line x1="401.3431068931069" y1="77.08421052631581" x2="403.2314685314685" y2="102.76842105263165" stroke="#2c7fb8" stroke-width="1.5"/><line x1="403.2314685314685" y1="102.76842105263165" x2="405.11983016983015" y2="77.08421052631581" stroke="#2c7fb8" stroke-width="1.5"/><line x1="405.11983016983015" y1="77.08421052631581" x2="407.0081918081918" y2="77.08421052631581" stroke="#2c7fb8" stroke-width="1.5"/><line x1="407.0081918081918" y1="77.08421052631581" x2="408.8965534465534" y2="102.76842105263165" stroke="#2c7fb8" stroke-width="1.5"/><line x1="408.8965534465534" y1="102.76842105263165" x2="410.78491508491504" y2="308.2421052631579" stroke="#2c7fb8" stroke-width="1.5"/><line x1="410.78491508491504" y1="308.2421052631579" x2="412.67327672327673" y2="179.821052631579" stroke="#2c7fb8" stroke-width="1.5"/><line x1="412.67327672327673" y1="179.821052631579" x2="414.5616383616383" y2="128.45263157894743" stroke="#2c7fb8" stroke-width="1.5"/><line x1="414.5616383616383" y1="128.45263157894743" x2="416.45" y2="128.45263157894743" stroke="#2c7fb8" stroke-width="1.5"/><line x1="416.45" y1="128.45263157894743" x2="418.3383616383616" y2="102.76842105263165" stroke="#2c7fb8" stroke-width="1.5"/><line x1="418.3383616383616" y1="102.76842105263165" x2="420.2267232767233" y2="410.978947368421" stroke="#2c7fb8" stroke-width="1.5"/><line x1="420.2267232767233" y1="410.978947368421" x2="422.11508491508494" y2="308.2421052631579" stroke="#2c7fb8" stroke-width="1.5"/><line x1="422.11508491508494" y1="308.2421052631579" x2="424.00344655344657" y2="333.92631578947373" stroke="#2c7fb8" stroke-width="1.5"/><line x1="424.00344655344657" y1="333.92631578947373" x2="425.89180819180814" y2="154.1368421052632" stroke="#2c7fb8" stroke-width="1.5"/><line x1="425.89180819180814" y1="154.1368421052632" x2="427.7801698301699" y2="77.08421052631581" stroke="#2c7fb8" stroke-width="1.5"/><line x1="427.7801698301699" y1="77.08421052631581" x2="429.66853146853146" y2="77.08421052631581" stroke="#2c7fb8" stroke-width="1.5"/><line x1="429.66853146853146" y1="77.08421052631581" x2="431.5568931068931" y2="77.08421052631581" stroke="#2c7fb8" stroke-width="1.5"/><line x1="431.5568931068931" y1="77.08421052631581" x2="433.4452547452547" y2="77.08421052631581" stroke="#2c7fb8" stroke-width="1.5"/><line x1="433.4452547452547" y1="77.08421052631581" x2="435.3336163836164" y2="77.08421052631581" stroke="#2c7fb8" stroke-width="1.5"/><line x1="435.3336163836164" y1="77.08421052631581" x2="437.22197802197803" y2="308.2421052631579" stroke="#2c7fb8" stroke-width="1.5"/><line x1="437.22197802197803" y1="308.2421052631579" x2="439.11033966033966" y2="154.1368421052632" stroke="#2c7fb8" stroke-width="1.5"/><line x1="439.11033966033966" y1="154.1368421052632" x2="440.99870129870123" y2="102.76842105263165" stroke="#2c7fb8" stroke-width="1.5"/><line x1="440.99870129870123" y1="102.76842105263165" x2="442.887062937063" y2="77.08421052631581" stroke="#2c7fb8" stroke-width="1.5"/><line x1="442.887062937063" y1="77.08421052631581" x2="444.77542457542455" y2="77.08421052631581" stroke="#2c7fb8" stroke-width="1.5"/><line x1="444.77542457542455" y1="77.08421052631581" x2="446.6637862137862" y2="77.08421052631581" stroke="#2c7fb8" stroke-width="1.5"/><line x1="446.6637862137862" y1="77.08421052631581" x2="448.5521478521478" y2="77.08421052631581" stroke="#2c7fb8" stroke-width="1.5"/><line x1="448.5521478521478" y1="77.08421052631581" x2="450.4405094905095" y2="308.2421052631579" stroke="#2c7fb8" stroke-width="1.5"/><line x1="450.4405094905095" y1="308.2421052631579" x2="452.3288711288711" y2="179.821052631579" stroke="#2c7fb8" stroke-width="1.5"/><line x1="452.3288711288711" y1="179.821052631579" x2="454.21723276723276" y2="77.08421052631581" stroke="#2c7fb8" stroke-width="1.5"/><line x1="454.21723276723276" y1="77.08421052631581" x2="456.10559440559445" y2="77.08421052631581" stroke="#2c7fb8" stroke-width="1.5"/><line x1="456.10559440559445" y1="77.08421052631581" x2="457.9939560439561" y2="77.08421052631581" stroke="#2c7fb8" stroke-width="1.5"/><line x1="457.9939560439561" y1="77.08421052631581" x2="459.88231768231765" y2="77.08421052631581" stroke="#2c7fb8" stroke-width="1.5"/><line x1="459.88231768231765" y1="77.08421052631581" x2="461.7706793206793" y2="77.08421052631581" stroke="#2c7fb8" stroke-width="1.5"/><line x1="461.7706793206793" y1="77.08421052631581" x2="463.65904095904096" y2="308.2421052631579" stroke="#2c7fb8" stroke-width="1.5"/><line x1="463.65904095904096" y1="308.2421052631579" x2="465.5474025974026" y2="179.821052631579" stroke="#2c7fb8" stroke-width="1.5"/><line x1="465.5474025974026" y1="179.821052631579" x2="467.4357642357642" y2="77.08421052631581" stroke="#2c7fb8" stroke-width="1.5"/><line x1="467.4357642357642" y1="77.08421052631581" x2="469.32412587412585" y2="77.08421052631581" stroke="#2c7fb8" stroke-width="1.5"/><line x1="469.32412587412585" y1="77.08421052631581" x2="471.21248751248754" y2="77.08421052631581" stroke="#2c7fb8" stroke-width="1.5"/><line x1="471.21248751248754" y1="77.08421052631581" x2="473.10084915084917" y2="77.08421052631581" stroke="#2c7fb8" stroke-width="1.5"/><line x1="473.10084915084917" y1="77.08421052631581" x2="474.98921078921074" y2="77.08421052631581" stroke="#2c7fb8" stroke-width="1.5"/><line x1="474.98921078921074" y1="77.08421052631581" x2="476.8775724275724" y2="308.2421052631579" stroke="#2c7fb8" stroke-width="1.5"/><line x1="476.8775724275724" y1="308.2421052631579" x2="478.76593406593406" y2="179.821052631579" stroke="#2c7fb8" stroke-width="1.5"/><line x1="478.76593406593406" y1="179.821052631579" x2="480.6542957042957" y2="77.08421052631581" stroke="#2c7fb8" stroke-width="1.5"/><line x1="480.6542957042957" y1="77.08421052631581" x2="482.5426573426573" y2="77.08421052631581" stroke="#2c7fb8" stroke-width="1.5"/><line x1="482.5426573426573" y1="77.08421052631581" x2="484.43101898101895" y2="77.08421052631581" stroke="#2c7fb8" stroke-width="1.5"/><line x1="484.43101898101895" y1="77.08421052631581" x2="486.31938061938064" y2="77.08421052631581" stroke="#2c7fb8" stroke-width="1.5"/><line x1="486.31938061938064" y1="77.08421052631581" x2="488.20774225774227" y2="77.08421052631581" stroke="#2c7fb8" stroke-width="1.5"/><line x1="488.20774225774227" y1="77.08421052631581" x2="490.09610389610384" y2="333.92631578947373" stroke="#2c7fb8" stroke-width="1.5"/><line x1="490.09610389610384" y1="333.92631578947373" x2="491.9844655344656" y2="154.1368421052632" stroke="#2c7fb8" stroke-width="1.5"/><line x1="491.9844655344656" y1="154.1368421052632" x2="493.87282717282716" y2="77.08421052631581" stroke="#2c7fb8" stroke-width="1.5"/><line x1="493.87282717282716" y1="77.08421052631581" x2="495.7611888111888" y2="77.08421052631581" stroke="#2c7fb8" stroke-width="1.5"/><line x1="495.7611888111888" y1="77.08421052631581" x2="497.6495504495504" y2="102.76842105263165" stroke="#2c7fb8" stroke-width="1.5"/><line x1="497.6495504495504" y1="102.76842105263165" x2="499.5379120879121" y2="77.08421052631581" stroke="#2c7fb8" stroke-width="1.5"/><line x1="499.5379120879121" y1="77.08421052631581" x2="501.42627372627373" y2="77.08421052631581" stroke="#2c7fb8" stroke-width="1.5"/><line x1="501.42627372627373" y1="77.08421052631581" x2="503.31463536463536" y2="359.61052631578946" stroke="#2c7fb8" stroke-width="1.5"/><line x1="503.31463536463536" y1="359.61052631578946" x2="505.202997002997" y2="179.821052631579" stroke="#2c7fb8" stroke-width="1.5"/><line x1="505.202997002997" y1="179.821052631579" x2="507.0913586413587" y2="77.08421052631581" stroke="#2c7fb8" stroke-width="1.5"/><line x1="507.0913586413587" y1="77.08421052631581" x2="508.9797202797203" y2="102.76842105263165" stroke="#2c7fb8" stroke-width="1.5"/><line x1="508.9797202797203" y1="102.76842105263165" x2="510.8680819180819" y2="77.08421052631581" stroke="#2c7fb8" stroke-width="1.5"/><line x1="510.8680819180819" y1="77.08421052631581" x2="512.7564435564435" y2="102.76842105263165" stroke="#2c7fb8" stroke-width="1.5"/><line x1="512.7564435564435" y1="102.76842105263165" x2="514.6448051948053" y2="77.08421052631581" stroke="#2c7fb8" stroke-width="1.5"/><line x1="514.6448051948053" y1="77.08421052631581" x2="516.5331668331669" y2="385.2947368421053" stroke="#2c7fb8" stroke-width="1.5"/><line x1="516.5331668331669" y1="385.2947368421053" x2="518.4215284715285" y2="205.50526315789477" stroke="#2c7fb8" stroke-width="1.5"/><line x1="518.4215284715285" y1="205.50526315789477" x2="520.3098901098901" y2="102.76842105263165" stroke="#2c7fb8" stroke-width="1.5"/><line x1="520.3098901098901" y1="102.76842105263165" x2="522.1982517482518" y2="102.76842105263165" stroke="#2c7fb8" stroke-width="1.5"/><line x1="522.1982517482518" y1="102.76842105263165" x2="524.0866133866134" y2="128.45263157894743" stroke="#2c7fb8" stroke-width="1.5"/><line x1="524.0866133866134" y1="128.45263157894743" x2="525.974975024975" y2="102.76842105263165" stroke="#2c7fb8" stroke-width="1.5"/><line x1="525.974975024975" y1="102.76842105263165" x2="527.8633366633368" y2="102.76842105263165" stroke="#2c7fb8" stroke-width="1.5"/><line x1="527.8633366633368" y1="102.76842105263165" x2="529.7516983016983" y2="488.0315789473684" stroke="#2c7fb8" stroke-width="1.5"/><line x1="529.7516983016983" y1="488.0315789473684" x2="531.6400599400599" y2="462.34736842105264" stroke="#2c7fb8" stroke-width="1.5"/><line x1="531.6400599400599" y1="462.34736842105264" x2="533.5284215784216" y2="154.1368421052632" stroke="#2c7fb8" stroke-width="1.5"/><line x1="533.5284215784216" y1="154.1368421052632" x2="535.4167832167833" y2="128.45263157894743" stroke="#2c7fb8" stroke-width="1.5"/><line x1="535.4167832167833" y1="128.45263157894743" x2="537.3051448551449" y2="154.1368421052632" stroke="#2c7fb8" stroke-width="1.5"/><line x1="537.3051448551449" y1="154.1368421052632" x2="539.1935064935066" y2="102.76842105263165" stroke="#2c7fb8" stroke-width="1.5"/><line x1="539.1935064935066" y1="102.76842105263165" x2="541.0818681318681" y2="128.45263157894743" stroke="#2c7fb8" stroke-width="1.5"/><line x1="541.0818681318681" y1="128.45263157894743" x2="542.9702297702298" y2="488.0315789473684" stroke="#2c7fb8" stroke-width="1.5"/><line x1="542.9702297702298" y1="488.0315789473684" x2="544.8585914085915" y2="179.821052631579" stroke="#2c7fb8" stroke-width="1.5"/><line x1="544.8585914085915" y1="179.821052631579" x2="546.7469530469531" y2="102.76842105263165" stroke="#2c7fb8" stroke-width="1.5"/><line x1="546.7469530469531" y1="102.76842105263165" x2="548.6353146853147" y2="128.45263157894743" stroke="#2c7fb8" stroke-width="1.5"/><line x1="548.6353146853147" y1="128.45263157894743" x2="550.5236763236763" y2="128.45263157894743" stroke="#2c7fb8" stroke-width="1.5"/><line x1="550.5236763236763" y1="128.45263157894743" x2="552.412037962038" y2="102.76842105263165" stroke="#2c7fb8" stroke-width="1.5"/><line x1="552.412037962038" y1="102.76842105263165" x2="554.3003996003996" y2="77.08421052631581" stroke="#2c7fb8" stroke-width="1.5"/><line x1="554.3003996003996" y1="77.08421052631581" x2="556.1887612387612" y2="488.0315789473684" stroke="#2c7fb8" stroke-width="1.5"/><line x1="556.1887612387612" y1="488.0315789473684" x2="558.0771228771229" y2="205.50526315789477" stroke="#2c7fb8" stroke-width="1.5"/><line x1="558.0771228771229" y1="205.50526315789477" x2="559.9654845154845" y2="77.08421052631581" stroke="#2c7fb8" stroke-width="1.5"/><line x1="559.9654845154845" y1="77.08421052631581" x2="561.8538461538461" y2="128.45263157894743" stroke="#2c7fb8" stroke-width="1.5"/><line x1="561.8538461538461" y1="128.45263157894743" x2="563.7422077922079" y2="102.76842105263165" stroke="#2c7fb8" stroke-width="1.5"/><line x1="563.7422077922079" y1="102.76842105263165" x2="565.6305694305695" y2="102.76842105263165" stroke="#2c7fb8" stroke-width="1.5"/><line x1="565.6305694305695" y1="102.76842105263165" x2="567.518931068931" y2="77.08421052631581" stroke="#2c7fb8" stroke-width="1.5"/><line x1="567.518931068931" y1="77.08421052631581" x2="569.4072927072926" y2="462.34736842105264" stroke="#2c7fb8" stroke-width="1.5"/><line x1="569.4072927072926" y1="462.34736842105264" x2="571.2956543456544" y2="205.50526315789477" stroke="#2c7fb8" stroke-width="1.5"/><line x1="571.2956543456544" y1="205.50526315789477" x2="573.184015984016" y2="102.76842105263165" stroke="#2c7fb8" stroke-width="1.5"/><line x1="573.184015984016" y1="102.76842105263165" x2="575.0723776223776" y2="128.45263157894743" stroke="#2c7fb8" stroke-width="1.5"/><line x1="575.0723776223776" y1="128.45263157894743" x2="576.9607392607393" y2="102.76842105263165" stroke="#2c7fb8" stroke-width="1.5"/><line x1="576.9607392607393" y1="102.76842105263165" x2="578.8491008991009" y2="77.08421052631581" stroke="#2c7fb8" stroke-width="1.5"/><line x1="578.8491008991009" y1="77.08421052631581" x2="580.7374625374625" y2="77.08421052631581" stroke="#2c7fb8" stroke-width="1.5"/><line x1="580.7374625374625" y1="77.08421052631581" x2="582.6258241758242" y2="488.0315789473684" stroke="#2c7fb8" stroke-width="1.5"/><line x1="582.6258241758242" y1="488.0315789473684" x2="584.5141858141858" y2="179.821052631579" stroke="#2c7fb8" stroke-width="1.5"/><line x1="584.5141858141858" y1="179.821052631579" x2="586.4025474525475" y2="102.76842105263165" stroke="#2c7fb8" stroke-width="1.5"/><line x1="586.4025474525475" y1="102.76842105263165" x2="588.290909090909" y2="128.45263157894743" stroke="#2c7fb8" stroke-width="1.5"/><line x1="588.290909090909" y1="128.45263157894743" x2="590.1792707292707" y2="102.76842105263165" stroke="#2c7fb8" stroke-width="1.5"/><line x1="590.1792707292707" y1="102.76842105263165" x2="592.0676323676323" y2="102.76842105263165" stroke="#2c7fb8" stroke-width="1.5"/><line x1="592.0676323676323" y1="102.76842105263165" x2="593.9559940059941" y2="77.08421052631581" stroke="#2c7fb8" stroke-width="1.5"/><line x1="593.9559940059941" y1="77.08421052631581" x2="595.8443556443557" y2="462.34736842105264" stroke="#2c7fb8" stroke-width="1.5"/><line x1="595.8443556443557" y1="462.34736842105264" x2="597.7327172827173" y2="205.50526315789477" stroke="#2c7fb8" stroke-width="1.5"/><line x1="597.7327172827173" y1="205.50526315789477" x2="599.621078921079" y2="77.08421052631581" stroke="#2c7fb8" stroke-width="1.5"/><line x1="599.621078921079" y1="77.08421052631581" x2="601.5094405594406" y2="128.45263157894743" stroke="#2c7fb8" stroke-width="1.5"/><line x1="601.5094405594406" y1="128.45263157894743" x2="603.3978021978022" y2="102.76842105263165" stroke="#2c7fb8" stroke-width="1.5"/><line x1="603.3978021978022" y1="102.76842105263165" x2="605.2861638361638" y2="77.08421052631581" stroke="#2c7fb8" stroke-width="1.5"/><line x1="605.2861638361638" y1="77.08421052631581" x2="607.1745254745255" y2="102.76842105263165" stroke="#2c7fb8" stroke-width="1.5"/><line x1="607.1745254745255" y1="102.76842105263165" x2="609.0628871128871" y2="488.0315789473684" stroke="#2c7fb8" stroke-width="1.5"/><line x1="609.0628871128871" y1="488.0315789473684" x2="610.9512487512487" y2="205.50526315789477" stroke="#2c7fb8" stroke-width="1.5"/><line x1="610.9512487512487" y1="205.50526315789477" x2="612.8396103896104" y2="102.76842105263165" stroke="#2c7fb8" stroke-width="1.5"/><line x1="612.8396103896104" y1="102.76842105263165" x2="614.7279720279721" y2="102.76842105263165" stroke="#2c7fb8" stroke-width="1.5"/><line x1="614.7279720279721" y1="102.76842105263165" x2="616.6163336663337" y2="128.45263157894743" stroke="#2c7fb8" stroke-width="1.5"/><line x1="616.6163336663337" y1="128.45263157894743" x2="618.5046953046952" y2="77.08421052631581" stroke="#2c7fb8" stroke-width="1.5"/><line x1="618.5046953046952" y1="77.08421052631581" x2="620.3930569430569" y2="77.08421052631581" stroke="#2c7fb8" stroke-width="1.5"/><line x1="620.3930569430569" y1="77.08421052631581" x2="622.2814185814186" y2="488.0315789473684" stroke="#2c7fb8" stroke-width="1.5"/><line x1="622.2814185814186" y1="488.0315789473684" x2="624.1697802197803" y2="179.821052631579" stroke="#2c7fb8" stroke-width="1.5"/><line x1="624.1697802197803" y1="179.821052631579" x2="626.0581418581419" y2="102.76842105263165" stroke="#2c7fb8" stroke-width="1.5"/><line x1="626.0581418581419" y1="102.76842105263165" x2="627.9465034965035" y2="128.45263157894743" stroke="#2c7fb8" stroke-width="1.5"/><line x1="627.9465034965035" y1="128.45263157894743" x2="629.8348651348651" y2="102.76842105263165" stroke="#2c7fb8" stroke-width="1.5"/><line x1="629.8348651348651" y1="102.76842105263165" x2="631.7232267732268" y2="77.08421052631581" stroke="#2c7fb8" stroke-width="1.5"/><line x1="631.7232267732268" y1="77.08421052631581" x2="633.6115884115884" y2="102.76842105263165" stroke="#2c7fb8" stroke-width="1.5"/><line x1="633.6115884115884" y1="102.76842105263165" x2="635.4999500499501" y2="488.0315789473684" stroke="#2c7fb8" stroke-width="1.5"/><line x1="635.4999500499501" y1="488.0315789473684" x2="637.3883116883117" y2="179.821052631579" stroke="#2c7fb8" stroke-width="1.5"/><line x1="637.3883116883117" y1="179.821052631579" x2="639.2766733266733" y2="102.76842105263165" stroke="#2c7fb8" stroke-width="1.5"/><line x1="639.2766733266733" y1="102.76842105263165" x2="641.1650349650349" y2="128.45263157894743" stroke="#2c7fb8" stroke-width="1.5"/><line x1="641.1650349650349" y1="128.45263157894743" x2="643.0533966033967" y2="102.76842105263165" stroke="#2c7fb8" stroke-width="1.5"/><line x1="643.0533966033967" y1="102.76842105263165" x2="644.9417582417583" y2="179.821052631579" stroke="#2c7fb8" stroke-width="1.5"/><line x1="644.9417582417583" y1="179.821052631579" x2="646.8301198801199" y2="102.76842105263165" stroke="#2c7fb8" stroke-width="1.5"/><line x1="646.8301198801199" y1="102.76842105263165" x2="648.7184815184816" y2="462.34736842105264" stroke="#2c7fb8" stroke-width="1.5"/><line x1="648.7184815184816" y1="462.34736842105264" x2="650.6068431568432" y2="205.50526315789477" stroke="#2c7fb8" stroke-width="1.5"/><line x1="650.6068431568432" y1="205.50526315789477" x2="652.4952047952048" y2="102.76842105263165" stroke="#2c7fb8" stroke-width="1.5"/><line x1="652.4952047952048" y1="102.76842105263165" x2="654.3835664335664" y2="128.45263157894743" stroke="#2c7fb8" stroke-width="1.5"/><line x1="654.3835664335664" y1="128.45263157894743" x2="656.2719280719281" y2="102.76842105263165" stroke="#2c7fb8" stroke-width="1.5"/><line x1="656.2719280719281" y1="102.76842105263165" x2="658.1602897102897" y2="102.76842105263165" stroke="#2c7fb8" stroke-width="1.5"/><line x1="658.1602897102897" y1="102.76842105263165" x2="660.0486513486513" y2="77.08421052631581" stroke="#2c7fb8" stroke-width="1.5"/><line x1="660.0486513486513" y1="77.08421052631581" x2="661.937012987013" y2="462.34736842105264" stroke="#2c7fb8" stroke-width="1.5"/><line x1="661.937012987013" y1="462.34736842105264" x2="663.8253746253746" y2="205.50526315789477" stroke="#2c7fb8" stroke-width="1.5"/><line x1="663.8253746253746" y1="205.50526315789477" x2="665.7137362637363" y2="102.76842105263165" stroke="#2c7fb8" stroke-width="1.5"/><line x1="665.7137362637363" y1="102.76842105263165" x2="667.602097902098" y2="102.76842105263165" stroke="#2c7fb8" stroke-width="1.5"/><line x1="667.602097902098" y1="102.76842105263165" x2="669.4904595404595" y2="102.76842105263165" stroke="#2c7fb8" stroke-width="1.5"/><line x1="669.4904595404595" y1="102.76842105263165" x2="671.3788211788212" y2="102.76842105263165" stroke="#2c7fb8" stroke-width="1.5"/><line x1="671.3788211788212" y1="102.76842105263165" x2="673.2671828171829" y2="102.76842105263165" stroke="#2c7fb8" stroke-width="1.5"/><line x1="673.2671828171829" y1="102.76842105263165" x2="675.1555444555445" y2="436.66315789473686" stroke="#2c7fb8" stroke-width="1.5"/><line x1="675.1555444555445" y1="436.66315789473686" x2="677.0439060939061" y2="205.50526315789477" stroke="#2c7fb8" stroke-width="1.5"/><line x1="677.0439060939061" y1="205.50526315789477" x2="678.9322677322677" y2="102.76842105263165" stroke="#2c7fb8" stroke-width="1.5"/><line x1="678.9322677322677" y1="102.76842105263165" x2="680.8206293706294" y2="102.76842105263165" stroke="#2c7fb8" stroke-width="1.5"/><line x1="680.8206293706294" y1="102.76842105263165" x2="682.708991008991" y2="102.76842105263165" stroke="#2c7fb8" stroke-width="1.5"/><line x1="682.708991008991" y1="102.76842105263165" x2="684.5973526473526" y2="77.08421052631581" stroke="#2c7fb8" stroke-width="1.5"/><line x1="684.5973526473526" y1="77.08421052631581" x2="686.4857142857144" y2="77.08421052631581" stroke="#2c7fb8" stroke-width="1.5"/><line x1="686.4857142857144" y1="77.08421052631581" x2="688.3740759240759" y2="410.978947368421" stroke="#2c7fb8" stroke-width="1.5"/><line x1="688.3740759240759" y1="410.978947368421" x2="690.2624375624375" y2="205.50526315789477" stroke="#2c7fb8" stroke-width="1.5"/><line x1="690.2624375624375" y1="205.50526315789477" x2="692.1507992007992" y2="154.1368421052632" stroke="#2c7fb8" stroke-width="1.5"/><line x1="692.1507992007992" y1="154.1368421052632" x2="694.0391608391609" y2="102.76842105263165" stroke="#2c7fb8" stroke-width="1.5"/><line x1="694.0391608391609" y1="102.76842105263165" x2="695.9275224775225" y2="51.40000000000009" stroke="#2c7fb8" stroke-width="1.5"/><line x1="695.9275224775225" y1="51.40000000000009" x2="697.8158841158842" y2="539.4" stroke="#2c7fb8" stroke-width="1.5"/><line x1="697.8158841158842" y1="539.4" x2="699.7042457542457" y2="513.7157894736841" stroke="#2c7fb8" stroke-width="1.5"/><line x1="699.7042457542457" y1="513.7157894736841" x2="701.5926073926074" y2="256.87368421052633" stroke="#2c7fb8" stroke-width="1.5"/><line x1="701.5926073926074" y1="256.87368421052633" x2="703.480969030969" y2="102.76842105263165" stroke="#2c7fb8" stroke-width="1.5"/><line x1="703.480969030969" y1="102.76842105263165" x2="705.3693306693307" y2="77.08421052631581" stroke="#2c7fb8" stroke-width="1.5"/><line x1="705.3693306693307" y1="77.08421052631581" x2="707.2576923076923" y2="102.76842105263165" stroke="#2c7fb8" stroke-width="1.5"/><line x1="707.2576923076923" y1="102.76842105263165" x2="709.1460539460539" y2="128.45263157894743" stroke="#2c7fb8" stroke-width="1.5"/><line x1="709.1460539460539" y1="128.45263157894743" x2="711.0344155844156" y2="128.45263157894743" stroke="#2c7fb8" stroke-width="1.5"/><line x1="711.0344155844156" y1="128.45263157894743" x2="712.9227772227772" y2="102.76842105263165" stroke="#2c7fb8" stroke-width="1.5"/><line x1="712.9227772227772" y1="102.76842105263165" x2="714.8111388611389" y2="488.0315789473684" stroke="#2c7fb8" stroke-width="1.5"/><line x1="714.8111388611389" y1="488.0315789473684" x2="716.6995004995006" y2="231.18947368421055" stroke="#2c7fb8" stroke-width="1.5"/><line x1="716.6995004995006" y1="231.18947368421055" x2="718.5878621378621" y2="128.45263157894743" stroke="#2c7fb8" stroke-width="1.5"/><line x1="718.5878621378621" y1="128.45263157894743" x2="720.4762237762237" y2="154.1368421052632" stroke="#2c7fb8" stroke-width="1.5"/><line x1="720.4762237762237" y1="154.1368421052632" x2="722.3645854145855" y2="128.45263157894743" stroke="#2c7fb8" stroke-width="1.5"/><line x1="722.3645854145855" y1="128.45263157894743" x2="724.2529470529471" y2="128.45263157894743" stroke="#2c7fb8" stroke-width="1.5"/><line x1="724.2529470529471" y1="128.45263157894743" x2="726.1413086913087" y2="102.76842105263165" stroke="#2c7fb8" stroke-width="1.5"/><line x1="726.1413086913087" y1="102.76842105263165" x2="728.0296703296704" y2="488.0315789473684" stroke="#2c7fb8" stroke-width="1.5"/><line x1="728.0296703296704" y1="488.0315789473684" x2="729.918031968032" y2="231.18947368421055" stroke="#2c7fb8" stroke-width="1.5"/><line x1="729.918031968032" y1="231.18947368421055" x2="731.8063936063936" y2="102.76842105263165" stroke="#2c7fb8" stroke-width="1.5"/><line x1="731.8063936063936" y1="102.76842105263165" x2="733.6947552447552" y2="154.1368421052632" stroke="#2c7fb8" stroke-width="1.5"/><line x1="733.6947552447552" y1="154.1368421052632" x2="735.5831168831169" y2="128.45263157894743" stroke="#2c7fb8" stroke-width="1.5"/><line x1="735.5831168831169" y1="128.45263157894743" x2="737.4714785214786" y2="128.45263157894743" stroke="#2c7fb8" stroke-width="1.5"/><line x1="737.4714785214786" y1="128.45263157894743" x2="739.3598401598401" y2="102.76842105263165" stroke="#2c7fb8" stroke-width="1.5"/><line x1="739.3598401598401" y1="102.76842105263165" x2="741.2482017982018" y2="308.2421052631579" stroke="#2c7fb8" stroke-width="1.5"/><line x1="741.2482017982018" y1="308.2421052631579" x2="743.1365634365635" y2="205.50526315789477" stroke="#2c7fb8" stroke-width="1.5"/><line x1="743.1365634365635" y1="205.50526315789477" x2="745.0249250749251" y2="102.76842105263165" stroke="#2c7fb8" stroke-width="1.5"/><line x1="745.0249250749251" y1="102.76842105263165" x2="746.9132867132868" y2="385.2947368421053" stroke="#2c7fb8" stroke-width="1.5"/><line x1="746.9132867132868" y1="385.2947368421053" x2="748.8016483516484" y2="436.66315789473686" stroke="#2c7fb8" stroke-width="1.5"/><line x1="748.8016483516484" y1="436.66315789473686" x2="750.69000999001" y2="154.1368421052632" stroke="#2c7fb8" stroke-width="1.5"/><line x1="750.69000999001" y1="154.1368421052632" x2="752.5783716283717" y2="128.45263157894743" stroke="#2c7fb8" stroke-width="1.5"/><line x1="752.5783716283717" y1="128.45263157894743" x2="754.4667332667333" y2="308.2421052631579" stroke="#2c7fb8" stroke-width="1.5"/><line x1="754.4667332667333" y1="308.2421052631579" x2="756.3550949050949" y2="231.18947368421055" stroke="#2c7fb8" stroke-width="1.5"/><line x1="756.3550949050949" y1="231.18947368421055" x2="758.2434565434565" y2="128.45263157894743" stroke="#2c7fb8" stroke-width="1.5"/><line x1="758.2434565434565" y1="128.45263157894743" x2="760.1318181818182" y2="359.61052631578946" stroke="#2c7fb8" stroke-width="1.5"/></svg>