<svg xmlns="http://www.w3.org/2000/svg" width="800" height="600" viewBox="0 0 800 600"><rect x="0.0" y="0.0" width="800.0" height="600.0" fill="#ffffff" fill-opacity="1.0" stroke="none"/><line x1="158.77727272727276" y1="27.0" x2="158.77727272727276" y2="563.8" stroke="#dddddd" stroke-width="0.5"/><line x1="305.5954545454546" y1="27.0" x2="305.5954545454546" y2="563.8" stroke="#dddddd" stroke-width="0.5"/><line x1="452.41363636363644" y1="27.0" x2="452.41363636363644" y2="563.8" stroke="#dddddd" stroke-width="0.5"/><line x1="599.2318181818182" y1="27.0" x2="599.2318181818182" y2="563.8" stroke="#dddddd" stroke-width="0.5"/><line x1="746.0500000000001" y1="27.0" x2="746.0500000000001" y2="563.8" stroke="#dddddd" stroke-width="0.5"/><line x1="85.36818181818182" y1="27.0" x2="85.36818181818182" y2="563.8" stroke="#dddddd" stroke-width="1.0"/><line x1="232.18636363636367" y1="27.0" x2="232.18636363636367" y2="563.8" stroke="#dddddd" stroke-width="1.0"/><line x1="379.00454545454545" y1="27.0" x2="379.00454545454545" y2="563.8" stroke="#dddddd" stroke-width="1.0"/><line x1="525.8227272727272" y1="27.0" x2="525.8227272727272" y2="563.8" stroke="#dddddd" stroke-width="1.0"/><line x1="672.6409090909092" y1="27.0" x2="672.6409090909092" y2="563.8" stroke="#dddddd" stroke-width="1.0"/><line x1="51.599999999999994" y1="494.2285280728376" x2="794.5" y2="494.2285280728376" stroke="#dddddd" stroke-width="0.5"/><line x1="51.599999999999994" y1="401.6640364188164" x2="794.5" y2="401.6640364188164" stroke="#dddddd" stroke-width="0.5"/><line x1="51.599999999999994" y1="309.09954476479516" x2="794.5" y2="309.09954476479516" stroke="#dddddd" stroke-width="0.5"/><line x1="51.599999999999994" y1="216.53505311077396" x2="794.5" y2="216.53505311077396" stroke="#dddddd" stroke-width="0.5"/><line x1="51.599999999999994" y1="123.97056145675265" x2="794.5" y2="123.97056145675265" stroke="#dddddd" stroke-width="0.5"/><line x1="51.599999999999994" y1="31.406069802731395" x2="794.5" y2="31.406069802731395" stroke="#dddddd" stroke-width="0.5"/><line x1="51.599999999999994" y1="540.5107738998482" x2="794.5" y2="540.5107738998482" stroke="#dddddd" stroke-width="1.0"/><line x1="51.599999999999994" y1="447.946282245827" x2="794.5" y2="447.946282245827" stroke="#dddddd" stroke-width="1.0"/><line x1="51.599999999999994" y1="355.3817905918058" x2="794.5" y2="355.3817905918058" stroke="#dddddd" stroke-width="1.0"/><line x1="51.599999999999994" y1="262.8172989377845" x2="794.5" y2="262.8172989377845" stroke="#dddddd" stroke-width="1.0"/><line x1="51.599999999999994" y1="170.25280728376327" x2="794.5" y2="170.25280728376327" stroke="#dddddd" stroke-width="1.0"/><line x1="51.599999999999994" y1="77.68831562974208" x2="794.5" y2="77.68831562974208" stroke="#dddddd" stroke-width="1.0"/><rect x="51.599999999999994" y="27.0" width="742.9" height="536.8" fill="#ffffff" fill-opacity="0.0" stroke="#444444" stroke-width="1.0"/><line x1="85.36818181818182" y1="563.8" x2="85.36818181818182" y2="566.55" stroke="#444444" stroke-width="1.0"/><text x="85.36818181818182" y="577.55" fill="#333333" font-size="11.0" font-family="sans-serif" text-anchor="middle">0</text><line x1="232.18636363636367" y1="563.8" x2="232.18636363636367" y2="566.55" stroke="#444444" stroke-width="1.0"/><text x="232.18636363636367" y="577.55" fill="#333333" font-size="11.0" font-family="sans-serif" text-anchor="middle">5</text><line x1="379.00454545454545" y1="563.8" x2="379.00454545454545" y2="566.55" stroke="#444444" stroke-width="1.0"/><text x="379.00454545454545" y="577.55" fill="#333333" font-size="11.0" font-family="sans-serif" text-anchor="middle">10</text><line x1="525.8227272727272" y1="563.8" x2="525.8227272727272" y2="566.55" stroke="#444444" stroke-width="1.0"/><text x="525.8227272727272" y="577.55" fill="#333333" font-size="11.0" font-family="sans-serif" text-anchor="middle">15</text><line x1="672.6409090909092" y1="563.8" x2="672.6409090909092" y2="566.55" stroke="#444444" stroke-width="1.0"/><text x="672.6409090909092" y="577.55" fill="#333333" font-size="11.0" font-family="sans-serif" text-anchor="middle">20</text><line x1="51.599999999999994" y1="540.5107738998482" x2="48.849999999999994" y2="540.5107738998482" stroke="#444444" stroke-width="1.0"/><text x="46.64999999999999" y="544.3607738998483" fill="#333333" font-size="11.0" font-family="sans-serif" text-anchor="end">0</text><line x1="51.599999999999994" y1="447.946282245827" x2="48.849999999999994" y2="447.946282245827" stroke="#444444" stroke-width="1.0"/><text x="46.64999999999999" y="451.796282245827" fill="#333333" font-size="11.0" font-family="sans-serif" text-anchor="end">250</text><line x1="51.599999999999994" y1="355.3817905918058" x2="48.849999999999994" y2="355.3817905918058" stroke="#444444" stroke-width="1.0"/><text x="46.64999999999999" y="359.2317905918058" fill="#333333" font-size="11.0" font-family="sans-serif" text-anchor="end">500</text><line x1="51.599999999999994" y1="262.8172989377845" x2="48.849999999999994" y2="262.8172989377845" stroke="#444444" stroke-width="1.0"/><text x="46.64999999999999" y="266.66729893778455" fill="#333333" font-size="11.0" font-family="sans-serif" text-anchor="end">750</text><line x1="51.599999999999994" y1="170.25280728376327" x2="48.849999999999994" y2="170.25280728376327" stroke="#444444" stroke-width="1.0"/><text x="46.64999999999999" y="174.10280728376327" fill="#333333" font-size="11.0" font-family="sans-serif" text-anchor="end">1000</text><line x1="51.599999999999994" y1="77.68831562974208" x2="48.849999999999994" y2="77.68831562974208" stroke="#444444" stroke-width="1.0"/><text x="46.64999999999999" y="81.53831562974207" fill="#333333" font-size="11.0" font-family="sans-serif" text-anchor="end">1250</text><text x="423.04999999999995" y="18.3" fill="#333333" font-size="16.0" font-family="sans-serif" text-anchor="middle">出発時刻の時間帯分布</text><text x="423.04999999999995" y="592.1" fill="#333333" font-size="12.0" font-family="sans-serif" text-anchor="middle">hour of day</text><text x="13.899999999999999" y="295.4" fill="#333333" font-size="12.0" font-family="sans-serif" text-anchor="middle" transform="rotate(-90.0 13.899999999999999 295.4)">便数</text><line x1="85.36818181818182" y1="520.5168437025796" x2="114.7318181818182" y2="535.6974203338391" stroke="#2c7fb8" stroke-width="1.5"/><line x1="114.7318181818182" y1="535.6974203338391" x2="144.09545454545457" y2="539.4" stroke="#2c7fb8" stroke-width="1.5"/><line x1="144.09545454545457" y1="539.4" x2="202.8227272727273" y2="535.6974203338391" stroke="#2c7fb8" stroke-width="1.5"/><line x1="202.8227272727273" y1="535.6974203338391" x2="232.18636363636367" y2="406.1071320182094" stroke="#2c7fb8" stroke-width="1.5"/><line x1="232.18636363636367" y1="406.1071320182094" x2="261.55" y2="122.11927162367226" stroke="#2c7fb8" stroke-width="1.5"/><line x1="261.55" y1="122.11927162367226" x2="290.9136363636364" y2="142.85371775417298" stroke="#2c7fb8" stroke-width="1.5"/><line x1="290.9136363636364" y1="142.85371775417298" x2="320.2772727272728" y2="51.40000000000009" stroke="#2c7fb8" stroke-width="1.5"/><line x1="320.2772727272728" y1="51.40000000000009" x2="349.6409090909091" y2="189.13596358118366" stroke="#2c7fb8" stroke-width="1.5"/><line x1="349.6409090909091" y1="189.13596358118366" x2="379.00454545454545" y2="244.30440060698027" stroke="#2c7fb8" stroke-width="1.5"/><line x1="379.00454545454545" y1="244.30440060698027" x2="408.3681818181818" y2="229.12382397572082" stroke="#2c7fb8" stroke-width="1.5"/><line x1="408.3681818181818" y1="229.12382397572082" x2="437.7318181818182" y2="242.823368740516" stroke="#2c7fb8" stroke-width="1.5"/><line x1="437.7318181818182" y1="242.823368740516" x2="467.0954545454546" y2="226.16176024279218" stroke="#2c7fb8" stroke-width="1.5"/><line x1="467.0954545454546" y1="226.16176024279218" x2="496.45909090909095" y2="163.21790591805762" stroke="#2c7fb8" stroke-width="1.5"/><line x1="496.45909090909095" y1="163.21790591805762" x2="525.8227272727272" y2="117.30591805766318" stroke="#2c7fb8" stroke-width="1.5"/><line x1="525.8227272727272" y1="117.30591805766318" x2="555.1863636363636" y2="129.89468892261004" stroke="#2c7fb8" stroke-width="1.5"/><line x1="555.1863636363636" y1="129.89468892261004" x2="584.5500000000001" y2="131.37572078907442" stroke="#2c7fb8" stroke-width="1.5"/><line x1="584.5500000000001" y1="131.37572078907442" x2="613.9136363636364" y2="133.96752655538694" stroke="#2c7fb8" stroke-width="1.5"/><line x1="613.9136363636364" y1="133.96752655538694" x2="643.2772727272728" y2="176.9174506828528" stroke="#2c7fb8" stroke-width="1.5"/><line x1="643.2772727272728" y1="176.9174506828528" x2="672.6409090909092" y2="240.23156297420337" stroke="#2c7fb8" stroke-width="1.5"/><line x1="672.6409090909092" y1="240.23156297420337" x2="702.0045454545455" y2="340.9417298937785" stroke="#2c7fb8" stroke-width="1.5"/><line x1="702.0045454545455" y1="340.9417298937785" x2="731.3681818181818" y2="437.5790591805766" stroke="#2c7fb8" stroke-width="1.5"/><line x1="731.3681818181818" y1="437.5790591805766" x2="760.7318181818182" y2="492.37723823975716" stroke="#2c7fb8" stroke-width="1.5"/></svg>