<svg xmlns="http://www.w3.org/2000/svg" width="800" height="600" viewBox="0 0 800 600"><rect x="0.0" y="0.0" width="800.0" height="600.0" fill="#ffffff" fill-opacity="1.0" stroke="none"/><line x1="113.50833333333333" y1="27.0" x2="113.50833333333333" y2="563.8" stroke="#dddddd" stroke-width="1.0"/><line x1="216.6888888888889" y1="27.0" x2="216.6888888888889" y2="563.8" stroke="#dddddd" stroke-width="1.0"/><line x1="319.8694444444444" y1="27.0" x2="319.8694444444444" y2="563.8" stroke="#dddddd" stroke-width="1.0"/><line x1="423.05000000000007" y1="27.0" x2="423.05000000000007" y2="563.8" stroke="#dddddd" stroke-width="1.0"/><line x1="526.2305555555556" y1="27.0" x2="526.2305555555556" y2="563.8" stroke="#dddddd" stroke-width="1.0"/><line x1="629.4111111111112" y1="27.0" x2="629.4111111111112" y2="563.8" stroke="#dddddd" stroke-width="1.0"/><line x1="732.5916666666667" y1="27.0" x2="732.5916666666667" y2="563.8" stroke="#dddddd" stroke-width="1.0"/><line x1="51.599999999999994" y1="513.2624263307537" x2="794.5" y2="513.2624263307537" stroke="#dddddd" stroke-width="0.5"/><line x1="51.599999999999994" y1="412.18727899226116" x2="794.5" y2="412.18727899226116" stroke="#dddddd" stroke-width="0.5"/><line x1="51.599999999999994" y1="311.11213165376864" x2="794.5" y2="311.11213165376864" stroke="#dddddd" stroke-width="0.5"/><line x1="51.599999999999994" y1="210.03698431527607" x2="794.5" y2="210.03698431527607" stroke="#dddddd" stroke-width="0.5"/><line x1="51.599999999999994" y1="108.96183697678356" x2="794.5" y2="108.96183697678356" stroke="#dddddd" stroke-width="0.5"/><line x1="51.599999999999994" y1="563.8" x2="794.5" y2="563.8" stroke="#dddddd" stroke-width="1.0"/><line x1="51.599999999999994" y1="462.72485266150744" x2="794.5" y2="462.72485266150744" stroke="#dddddd" stroke-width="1.0"/><line x1="51.599999999999994" y1="361.6497053230149" x2="794.5" y2="361.6497053230149" stroke="#dddddd" stroke-width="1.0"/><line x1="51.599999999999994" y1="260.57455798452236" x2="794.5" y2="260.57455798452236" stroke="#dddddd" stroke-width="1.0"/><line x1="51.599999999999994" y1="159.49941064602984" x2="794.5" y2="159.49941064602984" stroke="#dddddd" stroke-width="1.0"/><line x1="51.599999999999994" y1="58.424263307537274" x2="794.5" y2="58.424263307537274" stroke="#dddddd" stroke-width="1.0"/><rect x="51.599999999999994" y="27.0" width="742.9" height="536.8" fill="#ffffff" fill-opacity="0.0" stroke="#444444" stroke-width="1.0"/><line x1="113.50833333333333" y1="563.8" x2="113.50833333333333" y2="566.55" stroke="#444444" stroke-width="1.0"/><text x="113.50833333333333" y="577.55" fill="#333333" font-size="11.0" font-family="sans-serif" text-anchor="middle">Mon</text><line x1="216.6888888888889" y1="563.8" x2="216.6888888888889" y2="566.55" stroke="#444444" stroke-width="1.0"/><text x="216.6888888888889" y="577.55" fill="#333333" font-size="11.0" font-family="sans-serif" text-anchor="middle">Tue</text><line x1="319.8694444444444" y1="563.8" x2="319.8694444444444" y2="566.55" stroke="#444444" stroke-width="1.0"/><text x="319.8694444444444" y="577.55" fill="#333333" font-size="11.0" font-family="sans-serif" text-anchor="middle">Wed</text><line x1="423.05000000000007" y1="563.8" x2="423.05000000000007" y2="566.55" stroke="#444444" stroke-width="1.0"/><text x="423.05000000000007" y="577.55" fill="#333333" font-size="11.0" font-family="sans-serif" text-anchor="middle">Thu</text><line x1="526.2305555555556" y1="563.8" x2="526.2305555555556" y2="566.55" stroke="#444444" stroke-width="1.0"/><text x="526.2305555555556" y="577.55" fill="#333333" font-size="11.0" font-family="sans-serif" text-anchor="middle">Fri</text><line x1="629.4111111111112" y1="563.8" x2="629.4111111111112" y2="566.55" stroke="#444444" stroke-width="1.0"/><text x="629.4111111111112" y="577.55" fill="#333333" font-size="11.0" font-family="sans-serif" text-anchor="middle">Sat</text><line x1="732.5916666666667" y1="563.8" x2="732.5916666666667" y2="566.55" stroke="#444444" stroke-width="1.0"/><text x="732.5916666666667" y="577.55" fill="#333333" font-size="11.0" font-family="sans-serif" text-anchor="middle">Sun</text><line x1="51.599999999999994" y1="563.8" x2="48.849999999999994" y2="563.8" stroke="#444444" stroke-width="1.0"/><text x="46.64999999999999" y="567.65" fill="#333333" font-size="11.0" font-family="sans-serif" text-anchor="end">0</text><line x1="51.599999999999994" y1="462.72485266150744" x2="48.849999999999994" y2="462.72485266150744" stroke="#444444" stroke-width="1.0"/><text x="46.64999999999999" y="466.57485266150746" fill="#333333" font-size="11.0" font-family="sans-serif" text-anchor="end">500</text><line x1="51.599999999999994" y1="361.6497053230149" x2="48.849999999999994" y2="361.6497053230149" stroke="#444444" stroke-width="1.0"/><text x="46.64999999999999" y="365.49970532301495" fill="#333333" font-size="11.0" font-family="sans-serif" text-anchor="end">1000</text><line x1="51.599999999999994" y1="260.57455798452236" x2="48.849999999999994" y2="260.57455798452236" stroke="#444444" stroke-width="1.0"/><text x="46.64999999999999" y="264.4245579845224" fill="#333333" font-size="11.0" font-family="sans-serif" text-anchor="end">1500</text><line x1="51.599999999999994" y1="159.49941064602984" x2="48.849999999999994" y2="159.49941064602984" stroke="#444444" stroke-width="1.0"/><text x="46.64999999999999" y="163.34941064602984" fill="#333333" font-size="11.0" font-family="sans-serif" text-anchor="end">2000</text><line x1="51.599999999999994" y1="58.424263307537274" x2="48.849999999999994" y2="58.424263307537274" stroke="#444444" stroke-width="1.0"/><text x="46.64999999999999" y="62.274263307537275" fill="#333333" font-size="11.0" font-family="sans-serif" text-anchor="end">2500</text><text x="423.04999999999995" y="18.3" fill="#333333" font-size="16.0" font-family="sans-serif" text-anchor="middle">曜日ごとの便数 (週末は少ない)</text><text x="423.04999999999995" y="592.1" fill="#333333" font-size="12.0" font-family="sans-serif" text-anchor="middle">weekday</text><text x="13.899999999999999" y="295.4" fill="#333333" font-size="12.0" font-family="sans-serif" text-anchor="middle" transform="rotate(-90.0 13.899999999999999 295.4)">便数</text><rect x="67.07708333333332" y="52.561904761904714" width="92.86250000000001" height="511.23809523809524" fill="#2c7fb8" fill-opacity="0.85" stroke="none"/><rect x="170.2576388888889" y="53.77480652996661" width="92.86250000000001" height="510.02519347003334" fill="#2c7fb8" fill-opacity="0.85" stroke="none"/><rect x="273.43819444444443" y="57.21136153947538" width="92.86250000000001" height="506.5886384605246" fill="#2c7fb8" fill-opacity="0.85" stroke="none"/><rect x="376.6187500000001" y="57.21136153947538" width="92.86250000000001" height="506.5886384605246" fill="#2c7fb8" fill-opacity="0.85" stroke="none"/><rect x="479.79930555555563" y="54.987708298028565" width="92.86250000000001" height="508.8122917019714" fill="#2c7fb8" fill-opacity="0.85" stroke="none"/><rect x="582.9798611111112" y="171.8305786213259" width="92.86250000000001" height="391.96942137867404" fill="#2c7fb8" fill-opacity="0.85" stroke="none"/><rect x="686.1604166666667" y="95.01346664407163" width="92.86250000000001" height="468.7865333559283" fill="#2c7fb8" fill-opacity="0.85" stroke="none"/></svg>