<svg xmlns="http://www.w3.org/2000/svg" width="800" height="600" viewBox="0 0 800 600"><rect x="0.0" y="0.0" width="800.0" height="600.0" fill="#ffffff" fill-opacity="1.0" stroke="none"/><line x1="142.6023882896764" y1="27.0" x2="142.6023882896764" y2="563.8" stroke="#dddddd" stroke-width="0.5"/><line x1="257.0708012326656" y1="27.0" x2="257.0708012326656" y2="563.8" stroke="#dddddd" stroke-width="0.5"/><line x1="371.5392141756548" y1="27.0" x2="371.5392141756548" y2="563.8" stroke="#dddddd" stroke-width="0.5"/><line x1="486.007627118644" y1="27.0" x2="486.007627118644" y2="563.8" stroke="#dddddd" stroke-width="0.5"/><line x1="600.4760400616333" y1="27.0" x2="600.4760400616333" y2="563.8" stroke="#dddddd" stroke-width="0.5"/><line x1="714.9444530046225" y1="27.0" x2="714.9444530046225" y2="563.8" stroke="#dddddd" stroke-width="0.5"/><line x1="85.36818181818181" y1="27.0" x2="85.36818181818181" y2="563.8" stroke="#dddddd" stroke-width="1.0"/><line x1="199.836594761171" y1="27.0" x2="199.836594761171" y2="563.8" stroke="#dddddd" stroke-width="1.0"/><line x1="314.3050077041602" y1="27.0" x2="314.3050077041602" y2="563.8" stroke="#dddddd" stroke-width="1.0"/><line x1="428.77342064714946" y1="27.0" x2="428.77342064714946" y2="563.8" stroke="#dddddd" stroke-width="1.0"/><line x1="543.2418335901386" y1="27.0" x2="543.2418335901386" y2="563.8" stroke="#dddddd" stroke-width="1.0"/><line x1="657.7102465331279" y1="27.0" x2="657.7102465331279" y2="563.8" stroke="#dddddd" stroke-width="1.0"/><line x1="772.1786594761171" y1="27.0" x2="772.1786594761171" y2="563.8" stroke="#dddddd" stroke-width="1.0"/><line x1="51.599999999999994" y1="464.45771111835666" x2="794.5" y2="464.45771111835666" stroke="#dddddd" stroke-width="0.5"/><line x1="51.599999999999994" y1="305.3445712422563" x2="794.5" y2="305.3445712422563" stroke="#dddddd" stroke-width="0.5"/><line x1="51.599999999999994" y1="146.23143136615585" x2="794.5" y2="146.23143136615585" stroke="#dddddd" stroke-width="0.5"/><line x1="51.599999999999994" y1="544.0142810564068" x2="794.5" y2="544.0142810564068" stroke="#dddddd" stroke-width="1.0"/><line x1="51.599999999999994" y1="384.90114118030647" x2="794.5" y2="384.90114118030647" stroke="#dddddd" stroke-width="1.0"/><line x1="51.599999999999994" y1="225.78800130420603" x2="794.5" y2="225.78800130420603" stroke="#dddddd" stroke-width="1.0"/><line x1="51.599999999999994" y1="66.6748614281056" x2="794.5" y2="66.6748614281056" stroke="#dddddd" stroke-width="1.0"/><rect x="51.599999999999994" y="27.0" width="742.9" height="536.8" fill="#ffffff" fill-opacity="0.0" stroke="#444444" stroke-width="1.0"/><line x1="85.36818181818181" y1="563.8" x2="85.36818181818181" y2="566.55" stroke="#444444" stroke-width="1.0"/><text x="85.36818181818181" y="577.55" fill="#333333" font-size="11.0" font-family="sans-serif" text-anchor="middle">0</text><line x1="199.836594761171" y1="563.8" x2="199.836594761171" y2="566.55" stroke="#444444" stroke-width="1.0"/><text x="199.836594761171" y="577.55" fill="#333333" font-size="11.0" font-family="sans-serif" text-anchor="middle">10</text><line x1="314.3050077041602" y1="563.8" x2="314.3050077041602" y2="566.55" stroke="#444444" stroke-width="1.0"/><text x="314.3050077041602" y="577.55" fill="#333333" font-size="11.0" font-family="sans-serif" text-anchor="middle">20</text><line x1="428.77342064714946" y1="563.8" x2="428.77342064714946" y2="566.55" stroke="#444444" stroke-width="1.0"/><text x="428.77342064714946" y="577.55" fill="#333333" font-size="11.0" font-family="sans-serif" text-anchor="middle">30</text><line x1="543.2418335901386" y1="563.8" x2="543.2418335901386" y2="566.55" stroke="#444444" stroke-width="1.0"/><text x="543.2418335901386" y="577.55" fill="#333333" font-size="11.0" font-family="sans-serif" text-anchor="middle">40</text><line x1="657.7102465331279" y1="563.8" x2="657.7102465331279" y2="566.55" stroke="#444444" stroke-width="1.0"/><text x="657.7102465331279" y="577.55" fill="#333333" font-size="11.0" font-family="sans-serif" text-anchor="middle">50</text><line x1="772.1786594761171" y1="563.8" x2="772.1786594761171" y2="566.55" stroke="#444444" stroke-width="1.0"/><text x="772.1786594761171" y="577.55" fill="#333333" font-size="11.0" font-family="sans-serif" text-anchor="middle">60</text><line x1="51.599999999999994" y1="544.0142810564068" x2="48.849999999999994" y2="544.0142810564068" stroke="#444444" stroke-width="1.0"/><text x="46.64999999999999" y="547.8642810564069" fill="#333333" font-size="11.0" font-family="sans-serif" text-anchor="end">0</text><line x1="51.599999999999994" y1="384.90114118030647" x2="48.849999999999994" y2="384.90114118030647" stroke="#444444" stroke-width="1.0"/><text x="46.64999999999999" y="388.7511411803065" fill="#333333" font-size="11.0" font-family="sans-serif" text-anchor="end">1000</text><line x1="51.599999999999994" y1="225.78800130420603" x2="48.849999999999994" y2="225.78800130420603" stroke="#444444" stroke-width="1.0"/><text x="46.64999999999999" y="229.63800130420603" fill="#333333" font-size="11.0" font-family="sans-serif" text-anchor="end">2000</text><line x1="51.599999999999994" y1="66.6748614281056" x2="48.849999999999994" y2="66.6748614281056" stroke="#444444" stroke-width="1.0"/><text x="46.64999999999999" y="70.5248614281056" fill="#333333" font-size="11.0" font-family="sans-serif" text-anchor="end">3000</text><text x="423.04999999999995" y="18.3" fill="#333333" font-size="16.0" font-family="sans-serif" text-anchor="middle">予定出発「分」 の頻度 (0/30/5 の倍数に集中)</text><text x="423.04999999999995" y="592.1" fill="#333333" font-size="12.0" font-family="sans-serif" text-anchor="middle">minute (0-59)</text><text x="13.899999999999999" y="295.4" fill="#333333" font-size="12.0" font-family="sans-serif" text-anchor="middle" transform="rotate(-90.0 13.899999999999999 295.4)">便数</text><line x1="85.36818181818181" y1="51.39999999999998" x2="96.81502311248073" y2="526.0344962504075" stroke="#2c7fb8" stroke-width="1.5"/><line x1="96.81502311248073" y1="526.0344962504075" x2="108.26186440677964" y2="539.4" stroke="#2c7fb8" stroke-width="1.5"/><line x1="108.26186440677964" y1="539.4" x2="119.70870570107857" y2="533.8310401043365" stroke="#2c7fb8" stroke-width="1.5"/><line x1="119.70870570107857" y1="533.8310401043365" x2="131.1555469953775" y2="534.3083795239647" stroke="#2c7fb8" stroke-width="1.5"/><line x1="131.1555469953775" y1="534.3083795239647" x2="142.6023882896764" y2="435.4991196609064" stroke="#2c7fb8" stroke-width="1.5"/><line x1="142.6023882896764" y1="435.4991196609064" x2="154.04922958397532" y2="533.6719269644603" stroke="#2c7fb8" stroke-width="1.5"/><line x1="154.04922958397532" y1="533.6719269644603" x2="165.49607087827422" y2="536.6950766221063" stroke="#2c7fb8" stroke-width="1.5"/><line x1="165.49607087827422" y1="536.6950766221063" x2="176.94291217257316" y2="531.4443430061949" stroke="#2c7fb8" stroke-width="1.5"/><line x1="176.94291217257316" y1="531.4443430061949" x2="188.3897534668721" y2="531.9216824258233" stroke="#2c7fb8" stroke-width="1.5"/><line x1="188.3897534668721" y1="531.9216824258233" x2="199.836594761171" y2="428.3390283664819" stroke="#2c7fb8" stroke-width="1.5"/><line x1="199.836594761171" y1="428.3390283664819" x2="211.28343605546993" y2="532.2399087055754" stroke="#2c7fb8" stroke-width="1.5"/><line x1="211.28343605546993" y1="532.2399087055754" x2="222.73027734976884" y2="533.1945875448321" stroke="#2c7fb8" stroke-width="1.5"/><line x1="222.73027734976884" y1="533.1945875448321" x2="234.17711864406775" y2="538.9226605803717" stroke="#2c7fb8" stroke-width="1.5"/><line x1="234.17711864406775" y1="538.9226605803717" x2="245.62395993836668" y2="531.2852298663188" stroke="#2c7fb8" stroke-width="1.5"/><line x1="245.62395993836668" y1="531.2852298663188" x2="257.0708012326656" y2="395.0843821323769" stroke="#2c7fb8" stroke-width="1.5"/><line x1="257.0708012326656" y1="395.0843821323769" x2="268.51764252696455" y2="536.5359634822302" stroke="#2c7fb8" stroke-width="1.5"/><line x1="268.51764252696455" y1="536.5359634822302" x2="279.96448382126346" y2="535.4221715030974" stroke="#2c7fb8" stroke-width="1.5"/><line x1="279.96448382126346" y1="535.4221715030974" x2="291.41132511556236" y2="538.6044343006195" stroke="#2c7fb8" stroke-width="1.5"/><line x1="291.41132511556236" y1="538.6044343006195" x2="302.85816640986127" y2="529.5349853276817" stroke="#2c7fb8" stroke-width="1.5"/><line x1="302.85816640986127" y1="529.5349853276817" x2="314.3050077041602" y2="450.773981089012" stroke="#2c7fb8" stroke-width="1.5"/><line x1="314.3050077041602" y1="450.773981089012" x2="325.7518489984591" y2="533.035474404956" stroke="#2c7fb8" stroke-width="1.5"/><line x1="325.7518489984591" y1="533.035474404956" x2="337.198690292758" y2="533.035474404956" stroke="#2c7fb8" stroke-width="1.5"/><line x1="337.198690292758" y1="533.035474404956" x2="348.645531587057" y2="536.6950766221063" stroke="#2c7fb8" stroke-width="1.5"/><line x1="348.645531587057" y1="536.6950766221063" x2="360.0923728813559" y2="533.9901532442126" stroke="#2c7fb8" stroke-width="1.5"/><line x1="360.0923728813559" y1="533.9901532442126" x2="371.5392141756548" y2="423.0882947505705" stroke="#2c7fb8" stroke-width="1.5"/><line x1="371.5392141756548" y1="423.0882947505705" x2="382.9860554699537" y2="536.5359634822302" stroke="#2c7fb8" stroke-width="1.5"/><line x1="382.9860554699537" y1="536.5359634822302" x2="394.43289676425263" y2="534.4674926638409" stroke="#2c7fb8" stroke-width="1.5"/><line x1="394.43289676425263" y1="534.4674926638409" x2="405.87973805855154" y2="533.1945875448321" stroke="#2c7fb8" stroke-width="1.5"/><line x1="405.87973805855154" y1="533.1945875448321" x2="417.32657935285044" y2="432.79419628301264" stroke="#2c7fb8" stroke-width="1.5"/><line x1="417.32657935285044" y1="432.79419628301264" x2="428.77342064714946" y2="271.7716987283991" stroke="#2c7fb8" stroke-width="1.5"/><line x1="428.77342064714946" y1="271.7716987283991" x2="440.22026194144837" y2="533.6719269644603" stroke="#2c7fb8" stroke-width="1.5"/><line x1="440.22026194144837" y1="533.6719269644603" x2="451.6671032357473" y2="535.4221715030974" stroke="#2c7fb8" stroke-width="1.5"/><line x1="451.6671032357473" y1="535.4221715030974" x2="463.1139445300463" y2="538.4453211607433" stroke="#2c7fb8" stroke-width="1.5"/><line x1="463.1139445300463" y1="538.4453211607433" x2="474.5607858243451" y2="534.3083795239647" stroke="#2c7fb8" stroke-width="1.5"/><line x1="474.5607858243451" y1="534.3083795239647" x2="486.007627118644" y2="438.9996087381806" stroke="#2c7fb8" stroke-width="1.5"/><line x1="486.007627118644" y1="438.9996087381806" x2="497.454468412943" y2="529.6940984675579" stroke="#2c7fb8" stroke-width="1.5"/><line x1="497.454468412943" y1="529.6940984675579" x2="508.9013097072418" y2="536.376850342354" stroke="#2c7fb8" stroke-width="1.5"/><line x1="508.9013097072418" y1="536.376850342354" x2="520.3481510015408" y2="535.1039452233452" stroke="#2c7fb8" stroke-width="1.5"/><line x1="520.3481510015408" y1="535.1039452233452" x2="531.7949922958397" y2="530.9670035865666" stroke="#2c7fb8" stroke-width="1.5"/><line x1="531.7949922958397" y1="530.9670035865666" x2="543.2418335901386" y2="441.22719269644597" stroke="#2c7fb8" stroke-width="1.5"/><line x1="543.2418335901386" y1="441.22719269644597" x2="554.6886748844375" y2="536.6950766221063" stroke="#2c7fb8" stroke-width="1.5"/><line x1="554.6886748844375" y1="536.6950766221063" x2="566.1355161787366" y2="535.4221715030974" stroke="#2c7fb8" stroke-width="1.5"/><line x1="566.1355161787366" y1="535.4221715030974" x2="577.5823574730355" y2="534.785718943593" stroke="#2c7fb8" stroke-width="1.5"/><line x1="577.5823574730355" y1="534.785718943593" x2="589.0291987673343" y2="530.01232474731" stroke="#2c7fb8" stroke-width="1.5"/><line x1="589.0291987673343" y1="530.01232474731" x2="600.4760400616333" y2="373.76322138897945" stroke="#2c7fb8" stroke-width="1.5"/><line x1="600.4760400616333" y1="373.76322138897945" x2="611.9228813559322" y2="529.0576459080535" stroke="#2c7fb8" stroke-width="1.5"/><line x1="611.9228813559322" y1="529.0576459080535" x2="623.3697226502311" y2="532.0807955656993" stroke="#2c7fb8" stroke-width="1.5"/><line x1="623.3697226502311" y1="532.0807955656993" x2="634.81656394453" y2="533.9901532442126" stroke="#2c7fb8" stroke-width="1.5"/><line x1="634.81656394453" y1="533.9901532442126" x2="646.2634052388289" y2="529.5349853276817" stroke="#2c7fb8" stroke-width="1.5"/><line x1="646.2634052388289" y1="529.5349853276817" x2="657.7102465331279" y2="448.7055102706227" stroke="#2c7fb8" stroke-width="1.5"/><line x1="657.7102465331279" y1="448.7055102706227" x2="669.1570878274268" y2="536.376850342354" stroke="#2c7fb8" stroke-width="1.5"/><line x1="669.1570878274268" y1="536.376850342354" x2="680.6039291217257" y2="535.8995109227258" stroke="#2c7fb8" stroke-width="1.5"/><line x1="680.6039291217257" y1="535.8995109227258" x2="692.0507704160246" y2="534.3083795239647" stroke="#2c7fb8" stroke-width="1.5"/><line x1="692.0507704160246" y1="534.3083795239647" x2="703.4976117103236" y2="534.626605803717" stroke="#2c7fb8" stroke-width="1.5"/><line x1="703.4976117103236" y1="534.626605803717" x2="714.9444530046225" y2="394.6070427127486" stroke="#2c7fb8" stroke-width="1.5"/><line x1="714.9444530046225" y1="394.6070427127486" x2="726.3912942989214" y2="531.4443430061949" stroke="#2c7fb8" stroke-width="1.5"/><line x1="726.3912942989214" y1="531.4443430061949" x2="737.8381355932203" y2="534.3083795239647" stroke="#2c7fb8" stroke-width="1.5"/><line x1="737.8381355932203" y1="534.3083795239647" x2="749.2849768875193" y2="533.9901532442126" stroke="#2c7fb8" stroke-width="1.5"/><line x1="749.2849768875193" y1="533.9901532442126" x2="760.7318181818181" y2="414.97352461688945" stroke="#2c7fb8" stroke-width="1.5"/></svg>