<svg xmlns="http://www.w3.org/2000/svg" width="624" height="384" viewBox="0 0 624 384"><rect x="0.0" y="0.0" width="624.0" height="384.0" fill="#ffffff" fill-opacity="1.0" stroke="none"/><rect x="46.346666666666664" y="54.266666666666666" width="451.37392" height="266.4" fill="#ebebeb" fill-opacity="1.0" stroke="none"/><line x1="59.26477548821548" y1="54.266666666666666" x2="59.26477548821548" y2="320.66666666666663" stroke="#ffffff" stroke-width="0.6666666666666666"/><line x1="135.2536509090909" y1="54.266666666666666" x2="135.2536509090909" y2="320.66666666666663" stroke="#ffffff" stroke-width="0.6666666666666666"/><line x1="211.24252632996632" y1="54.266666666666666" x2="211.24252632996632" y2="320.66666666666663" stroke="#ffffff" stroke-width="0.6666666666666666"/><line x1="287.23140175084177" y1="54.266666666666666" x2="287.23140175084177" y2="320.66666666666663" stroke="#ffffff" stroke-width="0.6666666666666666"/><line x1="363.22027717171716" y1="54.266666666666666" x2="363.22027717171716" y2="320.66666666666663" stroke="#ffffff" stroke-width="0.6666666666666666"/><line x1="439.2091525925926" y1="54.266666666666666" x2="439.2091525925926" y2="320.66666666666663" stroke="#ffffff" stroke-width="0.6666666666666666"/><line x1="97.2592131986532" y1="54.266666666666666" x2="97.2592131986532" y2="320.66666666666663" stroke="#ffffff" stroke-width="1.3333333333333333"/><line x1="173.24808861952863" y1="54.266666666666666" x2="173.24808861952863" y2="320.66666666666663" stroke="#ffffff" stroke-width="1.3333333333333333"/><line x1="249.23696404040402" y1="54.266666666666666" x2="249.23696404040402" y2="320.66666666666663" stroke="#ffffff" stroke-width="1.3333333333333333"/><line x1="325.2258394612794" y1="54.266666666666666" x2="325.2258394612794" y2="320.66666666666663" stroke="#ffffff" stroke-width="1.3333333333333333"/><line x1="401.21471488215485" y1="54.266666666666666" x2="401.21471488215485" y2="320.66666666666663" stroke="#ffffff" stroke-width="1.3333333333333333"/><line x1="477.2035903030303" y1="54.266666666666666" x2="477.2035903030303" y2="320.66666666666663" stroke="#ffffff" stroke-width="1.3333333333333333"/><line x1="46.346666666666664" y1="285.8530303030303" x2="497.72058666666663" y2="285.8530303030303" stroke="#ffffff" stroke-width="0.6666666666666666"/><line x1="46.346666666666664" y1="210.1712121212121" x2="497.72058666666663" y2="210.1712121212121" stroke="#ffffff" stroke-width="0.6666666666666666"/><line x1="46.346666666666664" y1="134.48939393939395" x2="497.72058666666663" y2="134.48939393939395" stroke="#ffffff" stroke-width="0.6666666666666666"/><line x1="46.346666666666664" y1="58.80757575757574" x2="497.72058666666663" y2="58.80757575757574" stroke="#ffffff" stroke-width="0.6666666666666666"/><line x1="46.346666666666664" y1="248.0121212121212" x2="497.72058666666663" y2="248.0121212121212" stroke="#ffffff" stroke-width="1.3333333333333333"/><line x1="46.346666666666664" y1="172.330303030303" x2="497.72058666666663" y2="172.330303030303" stroke="#ffffff" stroke-width="1.3333333333333333"/><line x1="46.346666666666664" y1="96.64848484848486" x2="497.72058666666663" y2="96.64848484848486" stroke="#ffffff" stroke-width="1.3333333333333333"/><line x1="97.2592131986532" y1="320.66666666666663" x2="97.2592131986532" y2="324.3333333333333" stroke="#333333" stroke-width="1.3333333333333333"/><text x="97.2592131986532" y="336.6533333333333" fill="#4d4d4d" font-size="11.733333333333334" font-family="sans-serif" text-anchor="middle">2</text><line x1="173.24808861952863" y1="320.66666666666663" x2="173.24808861952863" y2="324.3333333333333" stroke="#333333" stroke-width="1.3333333333333333"/><text x="173.24808861952863" y="336.6533333333333" fill="#4d4d4d" font-size="11.733333333333334" font-family="sans-serif" text-anchor="middle">3</text><line x1="249.23696404040402" y1="320.66666666666663" x2="249.23696404040402" y2="324.3333333333333" stroke="#333333" stroke-width="1.3333333333333333"/><text x="249.23696404040402" y="336.6533333333333" fill="#4d4d4d" font-size="11.733333333333334" font-family="sans-serif" text-anchor="middle">4</text><line x1="325.2258394612794" y1="320.66666666666663" x2="325.2258394612794" y2="324.3333333333333" stroke="#333333" stroke-width="1.3333333333333333"/><text x="325.2258394612794" y="336.6533333333333" fill="#4d4d4d" font-size="11.733333333333334" font-family="sans-serif" text-anchor="middle">5</text><line x1="401.21471488215485" y1="320.66666666666663" x2="401.21471488215485" y2="324.3333333333333" stroke="#333333" stroke-width="1.3333333333333333"/><text x="401.21471488215485" y="336.6533333333333" fill="#4d4d4d" font-size="11.733333333333334" font-family="sans-serif" text-anchor="middle">6</text><line x1="477.2035903030303" y1="320.66666666666663" x2="477.2035903030303" y2="324.3333333333333" stroke="#333333" stroke-width="1.3333333333333333"/><text x="477.2035903030303" y="336.6533333333333" fill="#4d4d4d" font-size="11.733333333333334" font-family="sans-serif" text-anchor="middle">7</text><line x1="46.346666666666664" y1="248.0121212121212" x2="42.67999999999999" y2="248.0121212121212" stroke="#333333" stroke-width="1.3333333333333333"/><text x="39.74666666666666" y="252.11878787878788" fill="#4d4d4d" font-size="11.733333333333334" font-family="sans-serif" text-anchor="end">20</text><line x1="46.346666666666664" y1="172.330303030303" x2="42.67999999999999" y2="172.330303030303" stroke="#333333" stroke-width="1.3333333333333333"/><text x="39.74666666666666" y="176.4369696969697" fill="#4d4d4d" font-size="11.733333333333334" font-family="sans-serif" text-anchor="end">30</text><line x1="46.346666666666664" y1="96.64848484848486" x2="42.67999999999999" y2="96.64848484848486" stroke="#333333" stroke-width="1.3333333333333333"/><text x="39.74666666666666" y="100.75515151515152" fill="#4d4d4d" font-size="11.733333333333334" font-family="sans-serif" text-anchor="end">40</text><text x="46.346666666666664" y="21.413333333333334" fill="#000000" font-size="17.599999999999998" font-family="sans-serif" text-anchor="start">排気量が大きいほど燃費は下がる傾向</text><text x="46.346666666666664" y="40.480000000000004" fill="#000000" font-size="14.666666666666666" font-family="sans-serif" text-anchor="start">2 シーター (スポーツカー) は軽量ゆえ例外</text><text x="272.03362666666663" y="373.73333333333335" fill="#000000" font-size="14.666666666666666" font-family="sans-serif" text-anchor="middle">Engine displacement (L)</text><text x="17.599999999999998" y="187.4666666666667" fill="#000000" font-size="14.666666666666666" font-family="sans-serif" text-anchor="middle" transform="rotate(-90.0 17.599999999999998 187.4666666666667)">Highway fuel economy (mpg)</text><text x="497.72058666666663" y="376.66666666666663" fill="#000000" font-size="12.0" font-family="sans-serif" text-anchor="end">Data from fueleconomy.gov</text><circle cx="82.06143811447811" cy="179.89848484848483" r="3.1181102362204727" fill="#E69F00" fill-opacity="0.85" stroke="none"><title>(1.8, 29)</title></circle><circle cx="82.06143811447811" cy="179.89848484848483" r="3.1181102362204727" fill="#E69F00" fill-opacity="0.85" stroke="none"><title>(1.8, 29)</title></circle><circle cx="97.2592131986532" cy="164.7621212121212" r="3.1181102362204727" fill="#E69F00" fill-opacity="0.85" stroke="none"><title>(2, 31)</title></circle><circle cx="97.2592131986532" cy="172.330303030303" r="3.1181102362204727" fill="#E69F00" fill-opacity="0.85" stroke="none"><title>(2, 30)</title></circle><circle cx="158.0503135353535" cy="202.60303030303027" r="3.1181102362204727" fill="#E69F00" fill-opacity="0.85" stroke="none"><title>(2.8, 26)</title></circle><circle cx="158.0503135353535" cy="202.60303030303027" r="3.1181102362204727" fill="#E69F00" fill-opacity="0.85" stroke="none"><title>(2.8, 26)</title></circle><circle cx="180.84697616161617" cy="195.03484848484845" r="3.1181102362204727" fill="#E69F00" fill-opacity="0.85" stroke="none"><title>(3.1, 27)</title></circle><circle cx="82.06143811447811" cy="202.60303030303027" r="3.1181102362204727" fill="#E69F00" fill-opacity="0.85" stroke="none"><title>(1.8, 26)</title></circle><circle cx="82.06143811447811" cy="210.1712121212121" r="3.1181102362204727" fill="#E69F00" fill-opacity="0.85" stroke="none"><title>(1.8, 25)</title></circle><circle cx="97.2592131986532" cy="187.46666666666664" r="3.1181102362204727" fill="#E69F00" fill-opacity="0.85" stroke="none"><title>(2, 28)</title></circle><circle cx="97.2592131986532" cy="195.03484848484845" r="3.1181102362204727" fill="#E69F00" fill-opacity="0.85" stroke="none"><title>(2, 27)</title></circle><circle cx="158.0503135353535" cy="210.1712121212121" r="3.1181102362204727" fill="#E69F00" fill-opacity="0.85" stroke="none"><title>(2.8, 25)</title></circle><circle cx="158.0503135353535" cy="210.1712121212121" r="3.1181102362204727" fill="#E69F00" fill-opacity="0.85" stroke="none"><title>(2.8, 25)</title></circle><circle cx="180.84697616161617" cy="210.1712121212121" r="3.1181102362204727" fill="#E69F00" fill-opacity="0.85" stroke="none"><title>(3.1, 25)</title></circle><circle cx="180.84697616161617" cy="210.1712121212121" r="3.1181102362204727" fill="#E69F00" fill-opacity="0.85" stroke="none"><title>(3.1, 25)</title></circle><circle cx="158.0503135353535" cy="217.73939393939395" r="3.1181102362204727" fill="#56B4E9" fill-opacity="0.85" stroke="none"><title>(2.8, 24)</title></circle><circle cx="180.84697616161617" cy="210.1712121212121" r="3.1181102362204727" fill="#56B4E9" fill-opacity="0.85" stroke="none"><title>(3.1, 25)</title></circle><circle cx="264.4347391245791" cy="225.30757575757576" r="3.1181102362204727" fill="#56B4E9" fill-opacity="0.85" stroke="none"><title>(4.2, 23)</title></circle><circle cx="348.0225020875421" cy="248.0121212121212" r="3.1181102362204727" fill="#D55E00" fill-opacity="0.85" stroke="none"><title>(5.3, 20)</title></circle><circle cx="348.0225020875421" cy="285.8530303030303" r="3.1181102362204727" fill="#D55E00" fill-opacity="0.85" stroke="none"><title>(5.3, 15)</title></circle><circle cx="348.0225020875421" cy="248.0121212121212" r="3.1181102362204727" fill="#D55E00" fill-opacity="0.85" stroke="none"><title>(5.3, 20)</title></circle><circle cx="378.4180522558923" cy="270.71666666666664" r="3.1181102362204727" fill="#D55E00" fill-opacity="0.85" stroke="none"><title>(5.7, 17)</title></circle><circle cx="401.21471488215485" cy="270.71666666666664" r="3.1181102362204727" fill="#D55E00" fill-opacity="0.85" stroke="none"><title>(6, 17)</title></circle><circle cx="378.4180522558923" cy="202.60303030303027" r="3.1181102362204727" fill="#000000" fill-opacity="0.85" stroke="none"><title>(5.7, 26)</title></circle><circle cx="378.4180522558923" cy="225.30757575757576" r="3.1181102362204727" fill="#000000" fill-opacity="0.85" stroke="none"><title>(5.7, 23)</title></circle><circle cx="416.41248996633" cy="202.60303030303027" r="3.1181102362204727" fill="#000000" fill-opacity="0.85" stroke="none"><title>(6.2, 26)</title></circle><circle cx="416.41248996633" cy="210.1712121212121" r="3.1181102362204727" fill="#000000" fill-opacity="0.85" stroke="none"><title>(6.2, 25)</title></circle><circle cx="477.2035903030303" cy="217.73939393939395" r="3.1181102362204727" fill="#000000" fill-opacity="0.85" stroke="none"><title>(7, 24)</title></circle><circle cx="348.0225020875421" cy="255.580303030303" r="3.1181102362204727" fill="#D55E00" fill-opacity="0.85" stroke="none"><title>(5.3, 19)</title></circle><circle cx="348.0225020875421" cy="293.4212121212121" r="3.1181102362204727" fill="#D55E00" fill-opacity="0.85" stroke="none"><title>(5.3, 14)</title></circle><circle cx="378.4180522558923" cy="285.8530303030303" r="3.1181102362204727" fill="#D55E00" fill-opacity="0.85" stroke="none"><title>(5.7, 15)</title></circle><circle cx="439.2091525925926" cy="270.71666666666664" r="3.1181102362204727" fill="#D55E00" fill-opacity="0.85" stroke="none"><title>(6.5, 17)</title></circle><circle cx="127.65476336700335" cy="195.03484848484845" r="3.1181102362204727" fill="#56B4E9" fill-opacity="0.85" stroke="none"><title>(2.4, 27)</title></circle><circle cx="127.65476336700335" cy="172.330303030303" r="3.1181102362204727" fill="#56B4E9" fill-opacity="0.85" stroke="none"><title>(2.4, 30)</title></circle><circle cx="180.84697616161617" cy="202.60303030303027" r="3.1181102362204727" fill="#56B4E9" fill-opacity="0.85" stroke="none"><title>(3.1, 26)</title></circle><circle cx="211.24252632996632" cy="179.89848484848483" r="3.1181102362204727" fill="#56B4E9" fill-opacity="0.85" stroke="none"><title>(3.5, 29)</title></circle><circle cx="218.84141387205386" cy="202.60303030303027" r="3.1181102362204727" fill="#56B4E9" fill-opacity="0.85" stroke="none"><title>(3.6, 26)</title></circle><circle cx="127.65476336700335" cy="217.73939393939395" r="3.1181102362204727" fill="#009E73" fill-opacity="0.85" stroke="none"><title>(2.4, 24)</title></circle><circle cx="173.24808861952863" cy="217.73939393939395" r="3.1181102362204727" fill="#009E73" fill-opacity="0.85" stroke="none"><title>(3, 24)</title></circle><circle cx="196.04475124579122" cy="232.87575757575758" r="3.1181102362204727" fill="#009E73" fill-opacity="0.85" stroke="none"><title>(3.3, 22)</title></circle><circle cx="196.04475124579122" cy="232.87575757575758" r="3.1181102362204727" fill="#009E73" fill-opacity="0.85" stroke="none"><title>(3.3, 22)</title></circle><circle cx="196.04475124579122" cy="217.73939393939395" r="3.1181102362204727" fill="#009E73" fill-opacity="0.85" stroke="none"><title>(3.3, 24)</title></circle><circle cx="196.04475124579122" cy="217.73939393939395" r="3.1181102362204727" fill="#009E73" fill-opacity="0.85" stroke="none"><title>(3.3, 24)</title></circle><circle cx="196.04475124579122" cy="270.71666666666664" r="3.1181102362204727" fill="#009E73" fill-opacity="0.85" stroke="none"><title>(3.3, 17)</title></circle><circle cx="234.03918895622894" cy="232.87575757575758" r="3.1181102362204727" fill="#009E73" fill-opacity="0.85" stroke="none"><title>(3.8, 22)</title></circle><circle cx="234.03918895622894" cy="240.4439393939394" r="3.1181102362204727" fill="#009E73" fill-opacity="0.85" stroke="none"><title>(3.8, 21)</title></circle><circle cx="234.03918895622894" cy="225.30757575757576" r="3.1181102362204727" fill="#009E73" fill-opacity="0.85" stroke="none"><title>(3.8, 23)</title></circle><circle cx="249.23696404040402" cy="225.30757575757576" r="3.1181102362204727" fill="#009E73" fill-opacity="0.85" stroke="none"><title>(4, 23)</title></circle><circle cx="226.4403014141414" cy="255.580303030303" r="3.1181102362204727" fill="#F0E442" fill-opacity="0.85" stroke="none"><title>(3.7, 19)</title></circle><circle cx="226.4403014141414" cy="263.1484848484848" r="3.1181102362204727" fill="#F0E442" fill-opacity="0.85" stroke="none"><title>(3.7, 18)</title></circle><circle cx="241.63807649831648" cy="270.71666666666664" r="3.1181102362204727" fill="#F0E442" fill-opacity="0.85" stroke="none"><title>(3.9, 17)</title></circle><circle cx="241.63807649831648" cy="270.71666666666664" r="3.1181102362204727" fill="#F0E442" fill-opacity="0.85" stroke="none"><title>(3.9, 17)</title></circle><circle cx="302.42917683501685" cy="255.580303030303" r="3.1181102362204727" fill="#F0E442" fill-opacity="0.85" stroke="none"><title>(4.7, 19)</title></circle><circle cx="302.42917683501685" cy="255.580303030303" r="3.1181102362204727" fill="#F0E442" fill-opacity="0.85" stroke="none"><title>(4.7, 19)</title></circle><circle cx="302.42917683501685" cy="308.5575757575757" r="3.1181102362204727" fill="#F0E442" fill-opacity="0.85" stroke="none"><title>(4.7, 12)</title></circle><circle cx="340.42361454545454" cy="270.71666666666664" r="3.1181102362204727" fill="#F0E442" fill-opacity="0.85" stroke="none"><title>(5.2, 17)</title></circle><circle cx="340.42361454545454" cy="285.8530303030303" r="3.1181102362204727" fill="#F0E442" fill-opacity="0.85" stroke="none"><title>(5.2, 15)</title></circle><circle cx="241.63807649831648" cy="270.71666666666664" r="3.1181102362204727" fill="#D55E00" fill-opacity="0.85" stroke="none"><title>(3.9, 17)</title></circle><circle cx="302.42917683501685" cy="270.71666666666664" r="3.1181102362204727" fill="#D55E00" fill-opacity="0.85" stroke="none"><title>(4.7, 17)</title></circle><circle cx="302.42917683501685" cy="308.5575757575757" r="3.1181102362204727" fill="#D55E00" fill-opacity="0.85" stroke="none"><title>(4.7, 12)</title></circle><circle cx="302.42917683501685" cy="270.71666666666664" r="3.1181102362204727" fill="#D55E00" fill-opacity="0.85" stroke="none"><title>(4.7, 17)</title></circle><circle cx="340.42361454545454" cy="278.28484848484845" r="3.1181102362204727" fill="#D55E00" fill-opacity="0.85" stroke="none"><title>(5.2, 16)</title></circle><circle cx="378.4180522558923" cy="263.1484848484848" r="3.1181102362204727" fill="#D55E00" fill-opacity="0.85" stroke="none"><title>(5.7, 18)</title></circle><circle cx="393.6158273400673" cy="285.8530303030303" r="3.1181102362204727" fill="#D55E00" fill-opacity="0.85" stroke="none"><title>(5.9, 15)</title></circle><circle cx="302.42917683501685" cy="278.28484848484845" r="3.1181102362204727" fill="#F0E442" fill-opacity="0.85" stroke="none"><title>(4.7, 16)</title></circle><circle cx="302.42917683501685" cy="308.5575757575757" r="3.1181102362204727" fill="#F0E442" fill-opacity="0.85" stroke="none"><title>(4.7, 12)</title></circle><circle cx="302.42917683501685" cy="270.71666666666664" r="3.1181102362204727" fill="#F0E442" fill-opacity="0.85" stroke="none"><title>(4.7, 17)</title></circle><circle cx="302.42917683501685" cy="270.71666666666664" r="3.1181102362204727" fill="#F0E442" fill-opacity="0.85" stroke="none"><title>(4.7, 17)</title></circle><circle cx="302.42917683501685" cy="278.28484848484845" r="3.1181102362204727" fill="#F0E442" fill-opacity="0.85" stroke="none"><title>(4.7, 16)</title></circle><circle cx="302.42917683501685" cy="308.5575757575757" r="3.1181102362204727" fill="#F0E442" fill-opacity="0.85" stroke="none"><title>(4.7, 12)</title></circle><circle cx="340.42361454545454" cy="285.8530303030303" r="3.1181102362204727" fill="#F0E442" fill-opacity="0.85" stroke="none"><title>(5.2, 15)</title></circle><circle cx="340.42361454545454" cy="278.28484848484845" r="3.1181102362204727" fill="#F0E442" fill-opacity="0.85" stroke="none"><title>(5.2, 16)</title></circle><circle cx="378.4180522558923" cy="270.71666666666664" r="3.1181102362204727" fill="#F0E442" fill-opacity="0.85" stroke="none"><title>(5.7, 17)</title></circle><circle cx="393.6158273400673" cy="285.8530303030303" r="3.1181102362204727" fill="#F0E442" fill-opacity="0.85" stroke="none"><title>(5.9, 15)</title></circle><circle cx="294.83028929292925" cy="270.71666666666664" r="3.1181102362204727" fill="#D55E00" fill-opacity="0.85" stroke="none"><title>(4.6, 17)</title></circle><circle cx="355.6213896296297" cy="270.71666666666664" r="3.1181102362204727" fill="#D55E00" fill-opacity="0.85" stroke="none"><title>(5.4, 17)</title></circle><circle cx="355.6213896296297" cy="263.1484848484848" r="3.1181102362204727" fill="#D55E00" fill-opacity="0.85" stroke="none"><title>(5.4, 18)</title></circle><circle cx="249.23696404040402" cy="270.71666666666664" r="3.1181102362204727" fill="#D55E00" fill-opacity="0.85" stroke="none"><title>(4, 17)</title></circle><circle cx="249.23696404040402" cy="255.580303030303" r="3.1181102362204727" fill="#D55E00" fill-opacity="0.85" stroke="none"><title>(4, 19)</title></circle><circle cx="249.23696404040402" cy="270.71666666666664" r="3.1181102362204727" fill="#D55E00" fill-opacity="0.85" stroke="none"><title>(4, 17)</title></circle><circle cx="249.23696404040402" cy="255.580303030303" r="3.1181102362204727" fill="#D55E00" fill-opacity="0.85" stroke="none"><title>(4, 19)</title></circle><circle cx="294.83028929292925" cy="255.580303030303" r="3.1181102362204727" fill="#D55E00" fill-opacity="0.85" stroke="none"><title>(4.6, 19)</title></circle><circle cx="325.2258394612794" cy="270.71666666666664" r="3.1181102362204727" fill="#D55E00" fill-opacity="0.85" stroke="none"><title>(5, 17)</title></circle><circle cx="264.4347391245791" cy="270.71666666666664" r="3.1181102362204727" fill="#F0E442" fill-opacity="0.85" stroke="none"><title>(4.2, 17)</title></circle><circle cx="264.4347391245791" cy="270.71666666666664" r="3.1181102362204727" fill="#F0E442" fill-opacity="0.85" stroke="none"><title>(4.2, 17)</title></circle><circle cx="294.83028929292925" cy="278.28484848484845" r="3.1181102362204727" fill="#F0E442" fill-opacity="0.85" stroke="none"><title>(4.6, 16)</title></circle><circle cx="294.83028929292925" cy="278.28484848484845" r="3.1181102362204727" fill="#F0E442" fill-opacity="0.85" stroke="none"><title>(4.6, 16)</title></circle><circle cx="294.83028929292925" cy="270.71666666666664" r="3.1181102362204727" fill="#F0E442" fill-opacity="0.85" stroke="none"><title>(4.6, 17)</title></circle><circle cx="355.6213896296297" cy="285.8530303030303" r="3.1181102362204727" fill="#F0E442" fill-opacity="0.85" stroke="none"><title>(5.4, 15)</title></circle><circle cx="355.6213896296297" cy="270.71666666666664" r="3.1181102362204727" fill="#F0E442" fill-opacity="0.85" stroke="none"><title>(5.4, 17)</title></circle><circle cx="234.03918895622894" cy="202.60303030303027" r="3.1181102362204727" fill="#0072B2" fill-opacity="0.85" stroke="none"><title>(3.8, 26)</title></circle><circle cx="234.03918895622894" cy="210.1712121212121" r="3.1181102362204727" fill="#0072B2" fill-opacity="0.85" stroke="none"><title>(3.8, 25)</title></circle><circle cx="249.23696404040402" cy="202.60303030303027" r="3.1181102362204727" fill="#0072B2" fill-opacity="0.85" stroke="none"><title>(4, 26)</title></circle><circle cx="249.23696404040402" cy="217.73939393939395" r="3.1181102362204727" fill="#0072B2" fill-opacity="0.85" stroke="none"><title>(4, 24)</title></circle><circle cx="294.83028929292925" cy="240.4439393939394" r="3.1181102362204727" fill="#0072B2" fill-opacity="0.85" stroke="none"><title>(4.6, 21)</title></circle><circle cx="294.83028929292925" cy="232.87575757575758" r="3.1181102362204727" fill="#0072B2" fill-opacity="0.85" stroke="none"><title>(4.6, 22)</title></circle><circle cx="294.83028929292925" cy="225.30757575757576" r="3.1181102362204727" fill="#0072B2" fill-opacity="0.85" stroke="none"><title>(4.6, 23)</title></circle><circle cx="294.83028929292925" cy="232.87575757575758" r="3.1181102362204727" fill="#0072B2" fill-opacity="0.85" stroke="none"><title>(4.6, 22)</title></circle><circle cx="355.6213896296297" cy="248.0121212121212" r="3.1181102362204727" fill="#0072B2" fill-opacity="0.85" stroke="none"><title>(5.4, 20)</title></circle><circle cx="66.86366303030303" cy="149.62575757575752" r="3.1181102362204727" fill="#0072B2" fill-opacity="0.85" stroke="none"><title>(1.6, 33)</title></circle><circle cx="66.86366303030303" cy="157.1939393939394" r="3.1181102362204727" fill="#0072B2" fill-opacity="0.85" stroke="none"><title>(1.6, 32)</title></circle><circle cx="66.86366303030303" cy="157.1939393939394" r="3.1181102362204727" fill="#0072B2" fill-opacity="0.85" stroke="none"><title>(1.6, 32)</title></circle><circle cx="66.86366303030303" cy="179.89848484848483" r="3.1181102362204727" fill="#0072B2" fill-opacity="0.85" stroke="none"><title>(1.6, 29)</title></circle><circle cx="66.86366303030303" cy="157.1939393939394" r="3.1181102362204727" fill="#0072B2" fill-opacity="0.85" stroke="none"><title>(1.6, 32)</title></circle><circle cx="82.06143811447811" cy="142.05757575757573" r="3.1181102362204727" fill="#0072B2" fill-opacity="0.85" stroke="none"><title>(1.8, 34)</title></circle><circle cx="82.06143811447811" cy="126.92121212121211" r="3.1181102362204727" fill="#0072B2" fill-opacity="0.85" stroke="none"><title>(1.8, 36)</title></circle><circle cx="82.06143811447811" cy="126.92121212121211" r="3.1181102362204727" fill="#0072B2" fill-opacity="0.85" stroke="none"><title>(1.8, 36)</title></circle><circle cx="97.2592131986532" cy="179.89848484848483" r="3.1181102362204727" fill="#0072B2" fill-opacity="0.85" stroke="none"><title>(2, 29)</title></circle><circle cx="127.65476336700335" cy="202.60303030303027" r="3.1181102362204727" fill="#56B4E9" fill-opacity="0.85" stroke="none"><title>(2.4, 26)</title></circle><circle cx="127.65476336700335" cy="195.03484848484845" r="3.1181102362204727" fill="#56B4E9" fill-opacity="0.85" stroke="none"><title>(2.4, 27)</title></circle><circle cx="127.65476336700335" cy="172.330303030303" r="3.1181102362204727" fill="#56B4E9" fill-opacity="0.85" stroke="none"><title>(2.4, 30)</title></circle><circle cx="127.65476336700335" cy="164.7621212121212" r="3.1181102362204727" fill="#56B4E9" fill-opacity="0.85" stroke="none"><title>(2.4, 31)</title></circle><circle cx="135.2536509090909" cy="202.60303030303027" r="3.1181102362204727" fill="#56B4E9" fill-opacity="0.85" stroke="none"><title>(2.5, 26)</title></circle><circle cx="135.2536509090909" cy="202.60303030303027" r="3.1181102362204727" fill="#56B4E9" fill-opacity="0.85" stroke="none"><title>(2.5, 26)</title></circle><circle cx="196.04475124579122" cy="187.46666666666664" r="3.1181102362204727" fill="#56B4E9" fill-opacity="0.85" stroke="none"><title>(3.3, 28)</title></circle><circle cx="97.2592131986532" cy="202.60303030303027" r="3.1181102362204727" fill="#0072B2" fill-opacity="0.85" stroke="none"><title>(2, 26)</title></circle><circle cx="97.2592131986532" cy="179.89848484848483" r="3.1181102362204727" fill="#0072B2" fill-opacity="0.85" stroke="none"><title>(2, 29)</title></circle><circle cx="97.2592131986532" cy="187.46666666666664" r="3.1181102362204727" fill="#0072B2" fill-opacity="0.85" stroke="none"><title>(2, 28)</title></circle><circle cx="97.2592131986532" cy="195.03484848484845" r="3.1181102362204727" fill="#0072B2" fill-opacity="0.85" stroke="none"><title>(2, 27)</title></circle><circle cx="150.45142599326599" cy="217.73939393939395" r="3.1181102362204727" fill="#0072B2" fill-opacity="0.85" stroke="none"><title>(2.7, 24)</title></circle><circle cx="150.45142599326599" cy="217.73939393939395" r="3.1181102362204727" fill="#0072B2" fill-opacity="0.85" stroke="none"><title>(2.7, 24)</title></circle><circle cx="150.45142599326599" cy="217.73939393939395" r="3.1181102362204727" fill="#0072B2" fill-opacity="0.85" stroke="none"><title>(2.7, 24)</title></circle><circle cx="173.24808861952863" cy="232.87575757575758" r="3.1181102362204727" fill="#D55E00" fill-opacity="0.85" stroke="none"><title>(3, 22)</title></circle><circle cx="226.4403014141414" cy="255.580303030303" r="3.1181102362204727" fill="#D55E00" fill-opacity="0.85" stroke="none"><title>(3.7, 19)</title></circle><circle cx="249.23696404040402" cy="248.0121212121212" r="3.1181102362204727" fill="#D55E00" fill-opacity="0.85" stroke="none"><title>(4, 20)</title></circle><circle cx="302.42917683501685" cy="270.71666666666664" r="3.1181102362204727" fill="#D55E00" fill-opacity="0.85" stroke="none"><title>(4.7, 17)</title></circle><circle cx="302.42917683501685" cy="308.5575757575757" r="3.1181102362204727" fill="#D55E00" fill-opacity="0.85" stroke="none"><title>(4.7, 12)</title></circle><circle cx="302.42917683501685" cy="255.580303030303" r="3.1181102362204727" fill="#D55E00" fill-opacity="0.85" stroke="none"><title>(4.7, 19)</title></circle><circle cx="378.4180522558923" cy="263.1484848484848" r="3.1181102362204727" fill="#D55E00" fill-opacity="0.85" stroke="none"><title>(5.7, 18)</title></circle><circle cx="408.8136024242424" cy="293.4212121212121" r="3.1181102362204727" fill="#D55E00" fill-opacity="0.85" stroke="none"><title>(6.1, 14)</title></circle><circle cx="249.23696404040402" cy="285.8530303030303" r="3.1181102362204727" fill="#D55E00" fill-opacity="0.85" stroke="none"><title>(4, 15)</title></circle><circle cx="264.4347391245791" cy="263.1484848484848" r="3.1181102362204727" fill="#D55E00" fill-opacity="0.85" stroke="none"><title>(4.2, 18)</title></circle><circle cx="279.63251420875423" cy="263.1484848484848" r="3.1181102362204727" fill="#D55E00" fill-opacity="0.85" stroke="none"><title>(4.4, 18)</title></circle><circle cx="294.83028929292925" cy="285.8530303030303" r="3.1181102362204727" fill="#D55E00" fill-opacity="0.85" stroke="none"><title>(4.6, 15)</title></circle><circle cx="355.6213896296297" cy="270.71666666666664" r="3.1181102362204727" fill="#D55E00" fill-opacity="0.85" stroke="none"><title>(5.4, 17)</title></circle><circle cx="355.6213896296297" cy="278.28484848484845" r="3.1181102362204727" fill="#D55E00" fill-opacity="0.85" stroke="none"><title>(5.4, 16)</title></circle><circle cx="355.6213896296297" cy="263.1484848484848" r="3.1181102362204727" fill="#D55E00" fill-opacity="0.85" stroke="none"><title>(5.4, 18)</title></circle><circle cx="249.23696404040402" cy="270.71666666666664" r="3.1181102362204727" fill="#D55E00" fill-opacity="0.85" stroke="none"><title>(4, 17)</title></circle><circle cx="249.23696404040402" cy="255.580303030303" r="3.1181102362204727" fill="#D55E00" fill-opacity="0.85" stroke="none"><title>(4, 19)</title></circle><circle cx="294.83028929292925" cy="255.580303030303" r="3.1181102362204727" fill="#D55E00" fill-opacity="0.85" stroke="none"><title>(4.6, 19)</title></circle><circle cx="325.2258394612794" cy="270.71666666666664" r="3.1181102362204727" fill="#D55E00" fill-opacity="0.85" stroke="none"><title>(5, 17)</title></circle><circle cx="127.65476336700335" cy="179.89848484848483" r="3.1181102362204727" fill="#E69F00" fill-opacity="0.85" stroke="none"><title>(2.4, 29)</title></circle><circle cx="127.65476336700335" cy="195.03484848484845" r="3.1181102362204727" fill="#E69F00" fill-opacity="0.85" stroke="none"><title>(2.4, 27)</title></circle><circle cx="135.2536509090909" cy="164.7621212121212" r="3.1181102362204727" fill="#56B4E9" fill-opacity="0.85" stroke="none"><title>(2.5, 31)</title></circle><circle cx="135.2536509090909" cy="157.1939393939394" r="3.1181102362204727" fill="#56B4E9" fill-opacity="0.85" stroke="none"><title>(2.5, 32)</title></circle><circle cx="211.24252632996632" cy="195.03484848484845" r="3.1181102362204727" fill="#56B4E9" fill-opacity="0.85" stroke="none"><title>(3.5, 27)</title></circle><circle cx="211.24252632996632" cy="202.60303030303027" r="3.1181102362204727" fill="#56B4E9" fill-opacity="0.85" stroke="none"><title>(3.5, 26)</title></circle><circle cx="173.24808861952863" cy="202.60303030303027" r="3.1181102362204727" fill="#56B4E9" fill-opacity="0.85" stroke="none"><title>(3, 26)</title></circle><circle cx="173.24808861952863" cy="210.1712121212121" r="3.1181102362204727" fill="#56B4E9" fill-opacity="0.85" stroke="none"><title>(3, 25)</title></circle><circle cx="211.24252632996632" cy="210.1712121212121" r="3.1181102362204727" fill="#56B4E9" fill-opacity="0.85" stroke="none"><title>(3.5, 25)</title></circle><circle cx="196.04475124579122" cy="270.71666666666664" r="3.1181102362204727" fill="#D55E00" fill-opacity="0.85" stroke="none"><title>(3.3, 17)</title></circle><circle cx="196.04475124579122" cy="270.71666666666664" r="3.1181102362204727" fill="#D55E00" fill-opacity="0.85" stroke="none"><title>(3.3, 17)</title></circle><circle cx="249.23696404040402" cy="248.0121212121212" r="3.1181102362204727" fill="#D55E00" fill-opacity="0.85" stroke="none"><title>(4, 20)</title></circle><circle cx="370.8191647138047" cy="263.1484848484848" r="3.1181102362204727" fill="#D55E00" fill-opacity="0.85" stroke="none"><title>(5.6, 18)</title></circle><circle cx="180.84697616161617" cy="202.60303030303027" r="3.1181102362204727" fill="#56B4E9" fill-opacity="0.85" stroke="none"><title>(3.1, 26)</title></circle><circle cx="234.03918895622894" cy="202.60303030303027" r="3.1181102362204727" fill="#56B4E9" fill-opacity="0.85" stroke="none"><title>(3.8, 26)</title></circle><circle cx="234.03918895622894" cy="195.03484848484845" r="3.1181102362204727" fill="#56B4E9" fill-opacity="0.85" stroke="none"><title>(3.8, 27)</title></circle><circle cx="234.03918895622894" cy="187.46666666666664" r="3.1181102362204727" fill="#56B4E9" fill-opacity="0.85" stroke="none"><title>(3.8, 28)</title></circle><circle cx="348.0225020875421" cy="210.1712121212121" r="3.1181102362204727" fill="#56B4E9" fill-opacity="0.85" stroke="none"><title>(5.3, 25)</title></circle><circle cx="135.2536509090909" cy="210.1712121212121" r="3.1181102362204727" fill="#D55E00" fill-opacity="0.85" stroke="none"><title>(2.5, 25)</title></circle><circle cx="135.2536509090909" cy="217.73939393939395" r="3.1181102362204727" fill="#D55E00" fill-opacity="0.85" stroke="none"><title>(2.5, 24)</title></circle><circle cx="135.2536509090909" cy="195.03484848484845" r="3.1181102362204727" fill="#D55E00" fill-opacity="0.85" stroke="none"><title>(2.5, 27)</title></circle><circle cx="135.2536509090909" cy="210.1712121212121" r="3.1181102362204727" fill="#D55E00" fill-opacity="0.85" stroke="none"><title>(2.5, 25)</title></circle><circle cx="135.2536509090909" cy="202.60303030303027" r="3.1181102362204727" fill="#D55E00" fill-opacity="0.85" stroke="none"><title>(2.5, 26)</title></circle><circle cx="135.2536509090909" cy="225.30757575757576" r="3.1181102362204727" fill="#D55E00" fill-opacity="0.85" stroke="none"><title>(2.5, 23)</title></circle><circle cx="112.45698828282828" cy="202.60303030303027" r="3.1181102362204727" fill="#0072B2" fill-opacity="0.85" stroke="none"><title>(2.2, 26)</title></circle><circle cx="112.45698828282828" cy="202.60303030303027" r="3.1181102362204727" fill="#0072B2" fill-opacity="0.85" stroke="none"><title>(2.2, 26)</title></circle><circle cx="135.2536509090909" cy="202.60303030303027" r="3.1181102362204727" fill="#0072B2" fill-opacity="0.85" stroke="none"><title>(2.5, 26)</title></circle><circle cx="135.2536509090909" cy="202.60303030303027" r="3.1181102362204727" fill="#0072B2" fill-opacity="0.85" stroke="none"><title>(2.5, 26)</title></circle><circle cx="135.2536509090909" cy="210.1712121212121" r="3.1181102362204727" fill="#E69F00" fill-opacity="0.85" stroke="none"><title>(2.5, 25)</title></circle><circle cx="135.2536509090909" cy="195.03484848484845" r="3.1181102362204727" fill="#E69F00" fill-opacity="0.85" stroke="none"><title>(2.5, 27)</title></circle><circle cx="135.2536509090909" cy="210.1712121212121" r="3.1181102362204727" fill="#E69F00" fill-opacity="0.85" stroke="none"><title>(2.5, 25)</title></circle><circle cx="135.2536509090909" cy="195.03484848484845" r="3.1181102362204727" fill="#E69F00" fill-opacity="0.85" stroke="none"><title>(2.5, 27)</title></circle><circle cx="150.45142599326599" cy="248.0121212121212" r="3.1181102362204727" fill="#D55E00" fill-opacity="0.85" stroke="none"><title>(2.7, 20)</title></circle><circle cx="150.45142599326599" cy="248.0121212121212" r="3.1181102362204727" fill="#D55E00" fill-opacity="0.85" stroke="none"><title>(2.7, 20)</title></circle><circle cx="203.64363878787879" cy="255.580303030303" r="3.1181102362204727" fill="#D55E00" fill-opacity="0.85" stroke="none"><title>(3.4, 19)</title></circle><circle cx="203.64363878787879" cy="270.71666666666664" r="3.1181102362204727" fill="#D55E00" fill-opacity="0.85" stroke="none"><title>(3.4, 17)</title></circle><circle cx="249.23696404040402" cy="248.0121212121212" r="3.1181102362204727" fill="#D55E00" fill-opacity="0.85" stroke="none"><title>(4, 20)</title></circle><circle cx="302.42917683501685" cy="270.71666666666664" r="3.1181102362204727" fill="#D55E00" fill-opacity="0.85" stroke="none"><title>(4.7, 17)</title></circle><circle cx="112.45698828282828" cy="179.89848484848483" r="3.1181102362204727" fill="#56B4E9" fill-opacity="0.85" stroke="none"><title>(2.2, 29)</title></circle><circle cx="112.45698828282828" cy="195.03484848484845" r="3.1181102362204727" fill="#56B4E9" fill-opacity="0.85" stroke="none"><title>(2.2, 27)</title></circle><circle cx="127.65476336700335" cy="164.7621212121212" r="3.1181102362204727" fill="#56B4E9" fill-opacity="0.85" stroke="none"><title>(2.4, 31)</title></circle><circle cx="127.65476336700335" cy="164.7621212121212" r="3.1181102362204727" fill="#56B4E9" fill-opacity="0.85" stroke="none"><title>(2.4, 31)</title></circle><circle cx="173.24808861952863" cy="202.60303030303027" r="3.1181102362204727" fill="#56B4E9" fill-opacity="0.85" stroke="none"><title>(3, 26)</title></circle><circle cx="173.24808861952863" cy="202.60303030303027" r="3.1181102362204727" fill="#56B4E9" fill-opacity="0.85" stroke="none"><title>(3, 26)</title></circle><circle cx="211.24252632996632" cy="187.46666666666664" r="3.1181102362204727" fill="#56B4E9" fill-opacity="0.85" stroke="none"><title>(3.5, 28)</title></circle><circle cx="112.45698828282828" cy="195.03484848484845" r="3.1181102362204727" fill="#E69F00" fill-opacity="0.85" stroke="none"><title>(2.2, 27)</title></circle><circle cx="112.45698828282828" cy="179.89848484848483" r="3.1181102362204727" fill="#E69F00" fill-opacity="0.85" stroke="none"><title>(2.2, 29)</title></circle><circle cx="127.65476336700335" cy="164.7621212121212" r="3.1181102362204727" fill="#E69F00" fill-opacity="0.85" stroke="none"><title>(2.4, 31)</title></circle><circle cx="127.65476336700335" cy="164.7621212121212" r="3.1181102362204727" fill="#E69F00" fill-opacity="0.85" stroke="none"><title>(2.4, 31)</title></circle><circle cx="173.24808861952863" cy="202.60303030303027" r="3.1181102362204727" fill="#E69F00" fill-opacity="0.85" stroke="none"><title>(3, 26)</title></circle><circle cx="173.24808861952863" cy="202.60303030303027" r="3.1181102362204727" fill="#E69F00" fill-opacity="0.85" stroke="none"><title>(3, 26)</title></circle><circle cx="196.04475124579122" cy="195.03484848484845" r="3.1181102362204727" fill="#E69F00" fill-opacity="0.85" stroke="none"><title>(3.3, 27)</title></circle><circle cx="82.06143811447811" cy="172.330303030303" r="3.1181102362204727" fill="#E69F00" fill-opacity="0.85" stroke="none"><title>(1.8, 30)</title></circle><circle cx="82.06143811447811" cy="149.62575757575752" r="3.1181102362204727" fill="#E69F00" fill-opacity="0.85" stroke="none"><title>(1.8, 33)</title></circle><circle cx="82.06143811447811" cy="134.48939393939395" r="3.1181102362204727" fill="#E69F00" fill-opacity="0.85" stroke="none"><title>(1.8, 35)</title></circle><circle cx="82.06143811447811" cy="119.35303030303032" r="3.1181102362204727" fill="#E69F00" fill-opacity="0.85" stroke="none"><title>(1.8, 37)</title></circle><circle cx="82.06143811447811" cy="134.48939393939395" r="3.1181102362204727" fill="#E69F00" fill-opacity="0.85" stroke="none"><title>(1.8, 35)</title></circle><circle cx="302.42917683501685" cy="285.8530303030303" r="3.1181102362204727" fill="#D55E00" fill-opacity="0.85" stroke="none"><title>(4.7, 15)</title></circle><circle cx="378.4180522558923" cy="263.1484848484848" r="3.1181102362204727" fill="#D55E00" fill-opacity="0.85" stroke="none"><title>(5.7, 18)</title></circle><circle cx="150.45142599326599" cy="248.0121212121212" r="3.1181102362204727" fill="#F0E442" fill-opacity="0.85" stroke="none"><title>(2.7, 20)</title></circle><circle cx="150.45142599326599" cy="248.0121212121212" r="3.1181102362204727" fill="#F0E442" fill-opacity="0.85" stroke="none"><title>(2.7, 20)</title></circle><circle cx="150.45142599326599" cy="232.87575757575758" r="3.1181102362204727" fill="#F0E442" fill-opacity="0.85" stroke="none"><title>(2.7, 22)</title></circle><circle cx="203.64363878787879" cy="270.71666666666664" r="3.1181102362204727" fill="#F0E442" fill-opacity="0.85" stroke="none"><title>(3.4, 17)</title></circle><circle cx="203.64363878787879" cy="255.580303030303" r="3.1181102362204727" fill="#F0E442" fill-opacity="0.85" stroke="none"><title>(3.4, 19)</title></circle><circle cx="249.23696404040402" cy="263.1484848484848" r="3.1181102362204727" fill="#F0E442" fill-opacity="0.85" stroke="none"><title>(4, 18)</title></circle><circle cx="249.23696404040402" cy="248.0121212121212" r="3.1181102362204727" fill="#F0E442" fill-opacity="0.85" stroke="none"><title>(4, 20)</title></circle><circle cx="97.2592131986532" cy="179.89848484848483" r="3.1181102362204727" fill="#E69F00" fill-opacity="0.85" stroke="none"><title>(2, 29)</title></circle><circle cx="97.2592131986532" cy="202.60303030303027" r="3.1181102362204727" fill="#E69F00" fill-opacity="0.85" stroke="none"><title>(2, 26)</title></circle><circle cx="97.2592131986532" cy="179.89848484848483" r="3.1181102362204727" fill="#E69F00" fill-opacity="0.85" stroke="none"><title>(2, 29)</title></circle><circle cx="97.2592131986532" cy="179.89848484848483" r="3.1181102362204727" fill="#E69F00" fill-opacity="0.85" stroke="none"><title>(2, 29)</title></circle><circle cx="158.0503135353535" cy="217.73939393939395" r="3.1181102362204727" fill="#E69F00" fill-opacity="0.85" stroke="none"><title>(2.8, 24)</title></circle><circle cx="89.66032565656565" cy="66.37575757575758" r="3.1181102362204727" fill="#E69F00" fill-opacity="0.85" stroke="none"><title>(1.9, 44)</title></circle><circle cx="97.2592131986532" cy="179.89848484848483" r="3.1181102362204727" fill="#E69F00" fill-opacity="0.85" stroke="none"><title>(2, 29)</title></circle><circle cx="97.2592131986532" cy="202.60303030303027" r="3.1181102362204727" fill="#E69F00" fill-opacity="0.85" stroke="none"><title>(2, 26)</title></circle><circle cx="97.2592131986532" cy="179.89848484848483" r="3.1181102362204727" fill="#E69F00" fill-opacity="0.85" stroke="none"><title>(2, 29)</title></circle><circle cx="97.2592131986532" cy="179.89848484848483" r="3.1181102362204727" fill="#E69F00" fill-opacity="0.85" stroke="none"><title>(2, 29)</title></circle><circle cx="135.2536509090909" cy="179.89848484848483" r="3.1181102362204727" fill="#E69F00" fill-opacity="0.85" stroke="none"><title>(2.5, 29)</title></circle><circle cx="135.2536509090909" cy="179.89848484848483" r="3.1181102362204727" fill="#E69F00" fill-opacity="0.85" stroke="none"><title>(2.5, 29)</title></circle><circle cx="158.0503135353535" cy="225.30757575757576" r="3.1181102362204727" fill="#E69F00" fill-opacity="0.85" stroke="none"><title>(2.8, 23)</title></circle><circle cx="158.0503135353535" cy="217.73939393939395" r="3.1181102362204727" fill="#E69F00" fill-opacity="0.85" stroke="none"><title>(2.8, 24)</title></circle><circle cx="89.66032565656565" cy="66.37575757575758" r="3.1181102362204727" fill="#0072B2" fill-opacity="0.85" stroke="none"><title>(1.9, 44)</title></circle><circle cx="89.66032565656565" cy="89.08030303030303" r="3.1181102362204727" fill="#0072B2" fill-opacity="0.85" stroke="none"><title>(1.9, 41)</title></circle><circle cx="97.2592131986532" cy="179.89848484848483" r="3.1181102362204727" fill="#0072B2" fill-opacity="0.85" stroke="none"><title>(2, 29)</title></circle><circle cx="97.2592131986532" cy="202.60303030303027" r="3.1181102362204727" fill="#0072B2" fill-opacity="0.85" stroke="none"><title>(2, 26)</title></circle><circle cx="135.2536509090909" cy="187.46666666666664" r="3.1181102362204727" fill="#0072B2" fill-opacity="0.85" stroke="none"><title>(2.5, 28)</title></circle><circle cx="135.2536509090909" cy="179.89848484848483" r="3.1181102362204727" fill="#0072B2" fill-opacity="0.85" stroke="none"><title>(2.5, 29)</title></circle><circle cx="82.06143811447811" cy="179.89848484848483" r="3.1181102362204727" fill="#56B4E9" fill-opacity="0.85" stroke="none"><title>(1.8, 29)</title></circle><circle cx="82.06143811447811" cy="179.89848484848483" r="3.1181102362204727" fill="#56B4E9" fill-opacity="0.85" stroke="none"><title>(1.8, 29)</title></circle><circle cx="97.2592131986532" cy="187.46666666666664" r="3.1181102362204727" fill="#56B4E9" fill-opacity="0.85" stroke="none"><title>(2, 28)</title></circle><circle cx="97.2592131986532" cy="179.89848484848483" r="3.1181102362204727" fill="#56B4E9" fill-opacity="0.85" stroke="none"><title>(2, 29)</title></circle><circle cx="158.0503135353535" cy="202.60303030303027" r="3.1181102362204727" fill="#56B4E9" fill-opacity="0.85" stroke="none"><title>(2.8, 26)</title></circle><circle cx="158.0503135353535" cy="202.60303030303027" r="3.1181102362204727" fill="#56B4E9" fill-opacity="0.85" stroke="none"><title>(2.8, 26)</title></circle><circle cx="218.84141387205386" cy="202.60303030303027" r="3.1181102362204727" fill="#56B4E9" fill-opacity="0.85" stroke="none"><title>(3.6, 26)</title></circle><line x1="66.86366303030303" y1="155.9807742033782" x2="66.86366303030303" y2="155.9807742033782" stroke="#3366ff" stroke-width="2.8459842519685044"/><line x1="66.86366303030303" y1="155.9807742033782" x2="66.86366303030303" y2="155.9807742033782" stroke="#3366ff" stroke-width="2.8459842519685044"/><line x1="66.86366303030303" y1="155.9807742033782" x2="66.86366303030303" y2="155.9807742033782" stroke="#3366ff" stroke-width="2.8459842519685044"/><line x1="66.86366303030303" y1="155.9807742033782" x2="66.86366303030303" y2="155.9807742033782" stroke="#3366ff" stroke-width="2.8459842519685044"/><line x1="66.86366303030303" y1="155.9807742033782" x2="82.06143811447811" y2="159.61203458714243" stroke="#3366ff" stroke-width="2.8459842519685044"/><line x1="82.06143811447811" y1="159.61203458714243" x2="82.06143811447811" y2="159.61203458714243" stroke="#3366ff" stroke-width="2.8459842519685044"/><line x1="82.06143811447811" y1="159.61203458714243" x2="82.06143811447811" y2="159.61203458714243" stroke="#3366ff" stroke-width="2.8459842519685044"/><line x1="82.06143811447811" y1="159.61203458714243" x2="82.06143811447811" y2="159.61203458714243" stroke="#3366ff" stroke-width="2.8459842519685044"/><line x1="82.06143811447811" y1="159.61203458714243" x2="82.06143811447811" y2="159.61203458714243" stroke="#3366ff" stroke-width="2.8459842519685044"/><line x1="82.06143811447811" y1="159.61203458714243" x2="82.06143811447811" y2="159.61203458714243" stroke="#3366ff" stroke-width="2.8459842519685044"/><line x1="82.06143811447811" y1="159.61203458714243" x2="82.06143811447811" y2="159.61203458714243" stroke="#3366ff" stroke-width="2.8459842519685044"/><line x1="82.06143811447811" y1="159.61203458714243" x2="82.06143811447811" y2="159.61203458714243" stroke="#3366ff" stroke-width="2.8459842519685044"/><line x1="82.06143811447811" y1="159.61203458714243" x2="82.06143811447811" y2="159.61203458714243" stroke="#3366ff" stroke-width="2.8459842519685044"/><line x1="82.06143811447811" y1="159.61203458714243" x2="82.06143811447811" y2="159.61203458714243" stroke="#3366ff" stroke-width="2.8459842519685044"/><line x1="82.06143811447811" y1="159.61203458714243" x2="82.06143811447811" y2="159.61203458714243" stroke="#3366ff" stroke-width="2.8459842519685044"/><line x1="82.06143811447811" y1="159.61203458714243" x2="82.06143811447811" y2="159.61203458714243" stroke="#3366ff" stroke-width="2.8459842519685044"/><line x1="82.06143811447811" y1="159.61203458714243" x2="82.06143811447811" y2="159.61203458714243" stroke="#3366ff" stroke-width="2.8459842519685044"/><line x1="82.06143811447811" y1="159.61203458714243" x2="82.06143811447811" y2="159.61203458714243" stroke="#3366ff" stroke-width="2.8459842519685044"/><line x1="82.06143811447811" y1="159.61203458714243" x2="89.66032565656565" y2="164.57120386154247" stroke="#3366ff" stroke-width="2.8459842519685044"/><line x1="89.66032565656565" y1="164.57120386154247" x2="89.66032565656565" y2="164.57120386154247" stroke="#3366ff" stroke-width="2.8459842519685044"/><line x1="89.66032565656565" y1="164.57120386154247" x2="89.66032565656565" y2="164.57120386154247" stroke="#3366ff" stroke-width="2.8459842519685044"/><line x1="89.66032565656565" y1="164.57120386154247" x2="97.2592131986532" y2="170.74846515098534" stroke="#3366ff" stroke-width="2.8459842519685044"/><line x1="97.2592131986532" y1="170.74846515098534" x2="97.2592131986532" y2="170.74846515098534" stroke="#3366ff" stroke-width="2.8459842519685044"/><line x1="97.2592131986532" y1="170.74846515098534" x2="97.2592131986532" y2="170.74846515098534" stroke="#3366ff" stroke-width="2.8459842519685044"/><line x1="97.2592131986532" y1="170.74846515098534" x2="97.2592131986532" y2="170.74846515098534" stroke="#3366ff" stroke-width="2.8459842519685044"/><line x1="97.2592131986532" y1="170.74846515098534" x2="97.2592131986532" y2="170.74846515098534" stroke="#3366ff" stroke-width="2.8459842519685044"/><line x1="97.2592131986532" y1="170.74846515098534" x2="97.2592131986532" y2="170.74846515098534" stroke="#3366ff" stroke-width="2.8459842519685044"/><line x1="97.2592131986532" y1="170.74846515098534" x2="97.2592131986532" y2="170.74846515098534" stroke="#3366ff" stroke-width="2.8459842519685044"/><line x1="97.2592131986532" y1="170.74846515098534" x2="97.2592131986532" y2="170.74846515098534" stroke="#3366ff" stroke-width="2.8459842519685044"/><line x1="97.2592131986532" y1="170.74846515098534" x2="97.2592131986532" y2="170.74846515098534" stroke="#3366ff" stroke-width="2.8459842519685044"/><line x1="97.2592131986532" y1="170.74846515098534" x2="97.2592131986532" y2="170.74846515098534" stroke="#3366ff" stroke-width="2.8459842519685044"/><line x1="97.2592131986532" y1="170.74846515098534" x2="97.2592131986532" y2="170.74846515098534" stroke="#3366ff" stroke-width="2.8459842519685044"/><line x1="97.2592131986532" y1="170.74846515098534" x2="97.2592131986532" y2="170.74846515098534" stroke="#3366ff" stroke-width="2.8459842519685044"/><line x1="97.2592131986532" y1="170.74846515098534" x2="97.2592131986532" y2="170.74846515098534" stroke="#3366ff" stroke-width="2.8459842519685044"/><line x1="97.2592131986532" y1="170.74846515098534" x2="97.2592131986532" y2="170.74846515098534" stroke="#3366ff" stroke-width="2.8459842519685044"/><line x1="97.2592131986532" y1="170.74846515098534" x2="97.2592131986532" y2="170.74846515098534" stroke="#3366ff" stroke-width="2.8459842519685044"/><line x1="97.2592131986532" y1="170.74846515098534" x2="97.2592131986532" y2="170.74846515098534" stroke="#3366ff" stroke-width="2.8459842519685044"/><line x1="97.2592131986532" y1="170.74846515098534" x2="97.2592131986532" y2="170.74846515098534" stroke="#3366ff" stroke-width="2.8459842519685044"/><line x1="97.2592131986532" y1="170.74846515098534" x2="97.2592131986532" y2="170.74846515098534" stroke="#3366ff" stroke-width="2.8459842519685044"/><line x1="97.2592131986532" y1="170.74846515098534" x2="97.2592131986532" y2="170.74846515098534" stroke="#3366ff" stroke-width="2.8459842519685044"/><line x1="97.2592131986532" y1="170.74846515098534" x2="97.2592131986532" y2="170.74846515098534" stroke="#3366ff" stroke-width="2.8459842519685044"/><line x1="97.2592131986532" y1="170.74846515098534" x2="97.2592131986532" y2="170.74846515098534" stroke="#3366ff" stroke-width="2.8459842519685044"/><line x1="97.2592131986532" y1="170.74846515098534" x2="112.45698828282828" y2="184.12446165509132" stroke="#3366ff" stroke-width="2.8459842519685044"/><line x1="112.45698828282828" y1="184.12446165509132" x2="112.45698828282828" y2="184.12446165509132" stroke="#3366ff" stroke-width="2.8459842519685044"/><line x1="112.45698828282828" y1="184.12446165509132" x2="112.45698828282828" y2="184.12446165509132" stroke="#3366ff" stroke-width="2.8459842519685044"/><line x1="112.45698828282828" y1="184.12446165509132" x2="112.45698828282828" y2="184.12446165509132" stroke="#3366ff" stroke-width="2.8459842519685044"/><line x1="112.45698828282828" y1="184.12446165509132" x2="112.45698828282828" y2="184.12446165509132" stroke="#3366ff" stroke-width="2.8459842519685044"/><line x1="112.45698828282828" y1="184.12446165509132" x2="112.45698828282828" y2="184.12446165509132" stroke="#3366ff" stroke-width="2.8459842519685044"/><line x1="112.45698828282828" y1="184.12446165509132" x2="127.65476336700335" y2="195.4376082181223" stroke="#3366ff" stroke-width="2.8459842519685044"/><line x1="127.65476336700335" y1="195.4376082181223" x2="127.65476336700335" y2="195.4376082181223" stroke="#3366ff" stroke-width="2.8459842519685044"/><line x1="127.65476336700335" y1="195.4376082181223" x2="127.65476336700335" y2="195.4376082181223" stroke="#3366ff" stroke-width="2.8459842519685044"/><line x1="127.65476336700335" y1="195.4376082181223" x2="127.65476336700335" y2="195.4376082181223" stroke="#3366ff" stroke-width="2.8459842519685044"/><line x1="127.65476336700335" y1="195.4376082181223" x2="127.65476336700335" y2="195.4376082181223" stroke="#3366ff" stroke-width="2.8459842519685044"/><line x1="127.65476336700335" y1="195.4376082181223" x2="127.65476336700335" y2="195.4376082181223" stroke="#3366ff" stroke-width="2.8459842519685044"/><line x1="127.65476336700335" y1="195.4376082181223" x2="127.65476336700335" y2="195.4376082181223" stroke="#3366ff" stroke-width="2.8459842519685044"/><line x1="127.65476336700335" y1="195.4376082181223" x2="127.65476336700335" y2="195.4376082181223" stroke="#3366ff" stroke-width="2.8459842519685044"/><line x1="127.65476336700335" y1="195.4376082181223" x2="127.65476336700335" y2="195.4376082181223" stroke="#3366ff" stroke-width="2.8459842519685044"/><line x1="127.65476336700335" y1="195.4376082181223" x2="127.65476336700335" y2="195.4376082181223" stroke="#3366ff" stroke-width="2.8459842519685044"/><line x1="127.65476336700335" y1="195.4376082181223" x2="127.65476336700335" y2="195.4376082181223" stroke="#3366ff" stroke-width="2.8459842519685044"/><line x1="127.65476336700335" y1="195.4376082181223" x2="127.65476336700335" y2="195.4376082181223" stroke="#3366ff" stroke-width="2.8459842519685044"/><line x1="127.65476336700335" y1="195.4376082181223" x2="127.65476336700335" y2="195.4376082181223" stroke="#3366ff" stroke-width="2.8459842519685044"/><line x1="127.65476336700335" y1="195.4376082181223" x2="135.2536509090909" y2="200.11989398450788" stroke="#3366ff" stroke-width="2.8459842519685044"/><line x1="135.2536509090909" y1="200.11989398450788" x2="135.2536509090909" y2="200.11989398450788" stroke="#3366ff" stroke-width="2.8459842519685044"/><line x1="135.2536509090909" y1="200.11989398450788" x2="135.2536509090909" y2="200.11989398450788" stroke="#3366ff" stroke-width="2.8459842519685044"/><line x1="135.2536509090909" y1="200.11989398450788" x2="135.2536509090909" y2="200.11989398450788" stroke="#3366ff" stroke-width="2.8459842519685044"/><line x1="135.2536509090909" y1="200.11989398450788" x2="135.2536509090909" y2="200.11989398450788" stroke="#3366ff" stroke-width="2.8459842519685044"/><line x1="135.2536509090909" y1="200.11989398450788" x2="135.2536509090909" y2="200.11989398450788" stroke="#3366ff" stroke-width="2.8459842519685044"/><line x1="135.2536509090909" y1="200.11989398450788" x2="135.2536509090909" y2="200.11989398450788" stroke="#3366ff" stroke-width="2.8459842519685044"/><line x1="135.2536509090909" y1="200.11989398450788" x2="135.2536509090909" y2="200.11989398450788" stroke="#3366ff" stroke-width="2.8459842519685044"/><line x1="135.2536509090909" y1="200.11989398450788" x2="135.2536509090909" y2="200.11989398450788" stroke="#3366ff" stroke-width="2.8459842519685044"/><line x1="135.2536509090909" y1="200.11989398450788" x2="135.2536509090909" y2="200.11989398450788" stroke="#3366ff" stroke-width="2.8459842519685044"/><line x1="135.2536509090909" y1="200.11989398450788" x2="135.2536509090909" y2="200.11989398450788" stroke="#3366ff" stroke-width="2.8459842519685044"/><line x1="135.2536509090909" y1="200.11989398450788" x2="135.2536509090909" y2="200.11989398450788" stroke="#3366ff" stroke-width="2.8459842519685044"/><line x1="135.2536509090909" y1="200.11989398450788" x2="135.2536509090909" y2="200.11989398450788" stroke="#3366ff" stroke-width="2.8459842519685044"/><line x1="135.2536509090909" y1="200.11989398450788" x2="135.2536509090909" y2="200.11989398450788" stroke="#3366ff" stroke-width="2.8459842519685044"/><line x1="135.2536509090909" y1="200.11989398450788" x2="135.2536509090909" y2="200.11989398450788" stroke="#3366ff" stroke-width="2.8459842519685044"/><line x1="135.2536509090909" y1="200.11989398450788" x2="135.2536509090909" y2="200.11989398450788" stroke="#3366ff" stroke-width="2.8459842519685044"/><line x1="135.2536509090909" y1="200.11989398450788" x2="135.2536509090909" y2="200.11989398450788" stroke="#3366ff" stroke-width="2.8459842519685044"/><line x1="135.2536509090909" y1="200.11989398450788" x2="135.2536509090909" y2="200.11989398450788" stroke="#3366ff" stroke-width="2.8459842519685044"/><line x1="135.2536509090909" y1="200.11989398450788" x2="135.2536509090909" y2="200.11989398450788" stroke="#3366ff" stroke-width="2.8459842519685044"/><line x1="135.2536509090909" y1="200.11989398450788" x2="135.2536509090909" y2="200.11989398450788" stroke="#3366ff" stroke-width="2.8459842519685044"/><line x1="135.2536509090909" y1="200.11989398450788" x2="150.45142599326599" y2="207.8568441814231" stroke="#3366ff" stroke-width="2.8459842519685044"/><line x1="150.45142599326599" y1="207.8568441814231" x2="150.45142599326599" y2="207.8568441814231" stroke="#3366ff" stroke-width="2.8459842519685044"/><line x1="150.45142599326599" y1="207.8568441814231" x2="150.45142599326599" y2="207.8568441814231" stroke="#3366ff" stroke-width="2.8459842519685044"/><line x1="150.45142599326599" y1="207.8568441814231" x2="150.45142599326599" y2="207.8568441814231" stroke="#3366ff" stroke-width="2.8459842519685044"/><line x1="150.45142599326599" y1="207.8568441814231" x2="150.45142599326599" y2="207.8568441814231" stroke="#3366ff" stroke-width="2.8459842519685044"/><line x1="150.45142599326599" y1="207.8568441814231" x2="150.45142599326599" y2="207.8568441814231" stroke="#3366ff" stroke-width="2.8459842519685044"/><line x1="150.45142599326599" y1="207.8568441814231" x2="150.45142599326599" y2="207.8568441814231" stroke="#3366ff" stroke-width="2.8459842519685044"/><line x1="150.45142599326599" y1="207.8568441814231" x2="150.45142599326599" y2="207.8568441814231" stroke="#3366ff" stroke-width="2.8459842519685044"/><line x1="150.45142599326599" y1="207.8568441814231" x2="158.0503135353535" y2="211.03989008971453" stroke="#3366ff" stroke-width="2.8459842519685044"/><line x1="158.0503135353535" y1="211.03989008971453" x2="158.0503135353535" y2="211.03989008971453" stroke="#3366ff" stroke-width="2.8459842519685044"/><line x1="158.0503135353535" y1="211.03989008971453" x2="158.0503135353535" y2="211.03989008971453" stroke="#3366ff" stroke-width="2.8459842519685044"/><line x1="158.0503135353535" y1="211.03989008971453" x2="158.0503135353535" y2="211.03989008971453" stroke="#3366ff" stroke-width="2.8459842519685044"/><line x1="158.0503135353535" y1="211.03989008971453" x2="158.0503135353535" y2="211.03989008971453" stroke="#3366ff" stroke-width="2.8459842519685044"/><line x1="158.0503135353535" y1="211.03989008971453" x2="158.0503135353535" y2="211.03989008971453" stroke="#3366ff" stroke-width="2.8459842519685044"/><line x1="158.0503135353535" y1="211.03989008971453" x2="158.0503135353535" y2="211.03989008971453" stroke="#3366ff" stroke-width="2.8459842519685044"/><line x1="158.0503135353535" y1="211.03989008971453" x2="158.0503135353535" y2="211.03989008971453" stroke="#3366ff" stroke-width="2.8459842519685044"/><line x1="158.0503135353535" y1="211.03989008971453" x2="158.0503135353535" y2="211.03989008971453" stroke="#3366ff" stroke-width="2.8459842519685044"/><line x1="158.0503135353535" y1="211.03989008971453" x2="158.0503135353535" y2="211.03989008971453" stroke="#3366ff" stroke-width="2.8459842519685044"/><line x1="158.0503135353535" y1="211.03989008971453" x2="173.24808861952863" y2="216.38670113201954" stroke="#3366ff" stroke-width="2.8459842519685044"/><line x1="173.24808861952863" y1="216.38670113201954" x2="173.24808861952863" y2="216.38670113201954" stroke="#3366ff" stroke-width="2.8459842519685044"/><line x1="173.24808861952863" y1="216.38670113201954" x2="173.24808861952863" y2="216.38670113201954" stroke="#3366ff" stroke-width="2.8459842519685044"/><line x1="173.24808861952863" y1="216.38670113201954" x2="173.24808861952863" y2="216.38670113201954" stroke="#3366ff" stroke-width="2.8459842519685044"/><line x1="173.24808861952863" y1="216.38670113201954" x2="173.24808861952863" y2="216.38670113201954" stroke="#3366ff" stroke-width="2.8459842519685044"/><line x1="173.24808861952863" y1="216.38670113201954" x2="173.24808861952863" y2="216.38670113201954" stroke="#3366ff" stroke-width="2.8459842519685044"/><line x1="173.24808861952863" y1="216.38670113201954" x2="173.24808861952863" y2="216.38670113201954" stroke="#3366ff" stroke-width="2.8459842519685044"/><line x1="173.24808861952863" y1="216.38670113201954" x2="173.24808861952863" y2="216.38670113201954" stroke="#3366ff" stroke-width="2.8459842519685044"/><line x1="173.24808861952863" y1="216.38670113201954" x2="180.84697616161617" y2="218.72095562231416" stroke="#3366ff" stroke-width="2.8459842519685044"/><line x1="180.84697616161617" y1="218.72095562231416" x2="180.84697616161617" y2="218.72095562231416" stroke="#3366ff" stroke-width="2.8459842519685044"/><line x1="180.84697616161617" y1="218.72095562231416" x2="180.84697616161617" y2="218.72095562231416" stroke="#3366ff" stroke-width="2.8459842519685044"/><line x1="180.84697616161617" y1="218.72095562231416" x2="180.84697616161617" y2="218.72095562231416" stroke="#3366ff" stroke-width="2.8459842519685044"/><line x1="180.84697616161617" y1="218.72095562231416" x2="180.84697616161617" y2="218.72095562231416" stroke="#3366ff" stroke-width="2.8459842519685044"/><line x1="180.84697616161617" y1="218.72095562231416" x2="180.84697616161617" y2="218.72095562231416" stroke="#3366ff" stroke-width="2.8459842519685044"/><line x1="180.84697616161617" y1="218.72095562231416" x2="196.04475124579122" y2="223.14695590428087" stroke="#3366ff" stroke-width="2.8459842519685044"/><line x1="196.04475124579122" y1="223.14695590428087" x2="196.04475124579122" y2="223.14695590428087" stroke="#3366ff" stroke-width="2.8459842519685044"/><line x1="196.04475124579122" y1="223.14695590428087" x2="196.04475124579122" y2="223.14695590428087" stroke="#3366ff" stroke-width="2.8459842519685044"/><line x1="196.04475124579122" y1="223.14695590428087" x2="196.04475124579122" y2="223.14695590428087" stroke="#3366ff" stroke-width="2.8459842519685044"/><line x1="196.04475124579122" y1="223.14695590428087" x2="196.04475124579122" y2="223.14695590428087" stroke="#3366ff" stroke-width="2.8459842519685044"/><line x1="196.04475124579122" y1="223.14695590428087" x2="196.04475124579122" y2="223.14695590428087" stroke="#3366ff" stroke-width="2.8459842519685044"/><line x1="196.04475124579122" y1="223.14695590428087" x2="196.04475124579122" y2="223.14695590428087" stroke="#3366ff" stroke-width="2.8459842519685044"/><line x1="196.04475124579122" y1="223.14695590428087" x2="196.04475124579122" y2="223.14695590428087" stroke="#3366ff" stroke-width="2.8459842519685044"/><line x1="196.04475124579122" y1="223.14695590428087" x2="196.04475124579122" y2="223.14695590428087" stroke="#3366ff" stroke-width="2.8459842519685044"/><line x1="196.04475124579122" y1="223.14695590428087" x2="203.64363878787879" y2="225.41301904119032" stroke="#3366ff" stroke-width="2.8459842519685044"/><line x1="203.64363878787879" y1="225.41301904119032" x2="203.64363878787879" y2="225.41301904119032" stroke="#3366ff" stroke-width="2.8459842519685044"/><line x1="203.64363878787879" y1="225.41301904119032" x2="203.64363878787879" y2="225.41301904119032" stroke="#3366ff" stroke-width="2.8459842519685044"/><line x1="203.64363878787879" y1="225.41301904119032" x2="203.64363878787879" y2="225.41301904119032" stroke="#3366ff" stroke-width="2.8459842519685044"/><line x1="203.64363878787879" y1="225.41301904119032" x2="211.24252632996632" y2="227.83066907220874" stroke="#3366ff" stroke-width="2.8459842519685044"/><line x1="211.24252632996632" y1="227.83066907220874" x2="211.24252632996632" y2="227.83066907220874" stroke="#3366ff" stroke-width="2.8459842519685044"/><line x1="211.24252632996632" y1="227.83066907220874" x2="211.24252632996632" y2="227.83066907220874" stroke="#3366ff" stroke-width="2.8459842519685044"/><line x1="211.24252632996632" y1="227.83066907220874" x2="211.24252632996632" y2="227.83066907220874" stroke="#3366ff" stroke-width="2.8459842519685044"/><line x1="211.24252632996632" y1="227.83066907220874" x2="211.24252632996632" y2="227.83066907220874" stroke="#3366ff" stroke-width="2.8459842519685044"/><line x1="211.24252632996632" y1="227.83066907220874" x2="218.84141387205386" y2="230.4870646699547" stroke="#3366ff" stroke-width="2.8459842519685044"/><line x1="218.84141387205386" y1="230.4870646699547" x2="218.84141387205386" y2="230.4870646699547" stroke="#3366ff" stroke-width="2.8459842519685044"/><line x1="218.84141387205386" y1="230.4870646699547" x2="226.4403014141414" y2="233.46936450704692" stroke="#3366ff" stroke-width="2.8459842519685044"/><line x1="226.4403014141414" y1="233.46936450704692" x2="226.4403014141414" y2="233.46936450704692" stroke="#3366ff" stroke-width="2.8459842519685044"/><line x1="226.4403014141414" y1="233.46936450704692" x2="226.4403014141414" y2="233.46936450704692" stroke="#3366ff" stroke-width="2.8459842519685044"/><line x1="226.4403014141414" y1="233.46936450704692" x2="234.03918895622894" y2="236.86472725610406" stroke="#3366ff" stroke-width="2.8459842519685044"/><line x1="234.03918895622894" y1="236.86472725610406" x2="234.03918895622894" y2="236.86472725610406" stroke="#3366ff" stroke-width="2.8459842519685044"/><line x1="234.03918895622894" y1="236.86472725610406" x2="234.03918895622894" y2="236.86472725610406" stroke="#3366ff" stroke-width="2.8459842519685044"/><line x1="234.03918895622894" y1="236.86472725610406" x2="234.03918895622894" y2="236.86472725610406" stroke="#3366ff" stroke-width="2.8459842519685044"/><line x1="234.03918895622894" y1="236.86472725610406" x2="234.03918895622894" y2="236.86472725610406" stroke="#3366ff" stroke-width="2.8459842519685044"/><line x1="234.03918895622894" y1="236.86472725610406" x2="234.03918895622894" y2="236.86472725610406" stroke="#3366ff" stroke-width="2.8459842519685044"/><line x1="234.03918895622894" y1="236.86472725610406" x2="234.03918895622894" y2="236.86472725610406" stroke="#3366ff" stroke-width="2.8459842519685044"/><line x1="234.03918895622894" y1="236.86472725610406" x2="234.03918895622894" y2="236.86472725610406" stroke="#3366ff" stroke-width="2.8459842519685044"/><line x1="234.03918895622894" y1="236.86472725610406" x2="241.63807649831648" y2="240.7209725347082" stroke="#3366ff" stroke-width="2.8459842519685044"/><line x1="241.63807649831648" y1="240.7209725347082" x2="241.63807649831648" y2="240.7209725347082" stroke="#3366ff" stroke-width="2.8459842519685044"/><line x1="241.63807649831648" y1="240.7209725347082" x2="241.63807649831648" y2="240.7209725347082" stroke="#3366ff" stroke-width="2.8459842519685044"/><line x1="241.63807649831648" y1="240.7209725347082" x2="249.23696404040402" y2="244.92856374029554" stroke="#3366ff" stroke-width="2.8459842519685044"/><line x1="249.23696404040402" y1="244.92856374029554" x2="249.23696404040402" y2="244.92856374029554" stroke="#3366ff" stroke-width="2.8459842519685044"/><line x1="249.23696404040402" y1="244.92856374029554" x2="249.23696404040402" y2="244.92856374029554" stroke="#3366ff" stroke-width="2.8459842519685044"/><line x1="249.23696404040402" y1="244.92856374029554" x2="249.23696404040402" y2="244.92856374029554" stroke="#3366ff" stroke-width="2.8459842519685044"/><line x1="249.23696404040402" y1="244.92856374029554" x2="249.23696404040402" y2="244.92856374029554" stroke="#3366ff" stroke-width="2.8459842519685044"/><line x1="249.23696404040402" y1="244.92856374029554" x2="249.23696404040402" y2="244.92856374029554" stroke="#3366ff" stroke-width="2.8459842519685044"/><line x1="249.23696404040402" y1="244.92856374029554" x2="249.23696404040402" y2="244.92856374029554" stroke="#3366ff" stroke-width="2.8459842519685044"/><line x1="249.23696404040402" y1="244.92856374029554" x2="249.23696404040402" y2="244.92856374029554" stroke="#3366ff" stroke-width="2.8459842519685044"/><line x1="249.23696404040402" y1="244.92856374029554" x2="249.23696404040402" y2="244.92856374029554" stroke="#3366ff" stroke-width="2.8459842519685044"/><line x1="249.23696404040402" y1="244.92856374029554" x2="249.23696404040402" y2="244.92856374029554" stroke="#3366ff" stroke-width="2.8459842519685044"/><line x1="249.23696404040402" y1="244.92856374029554" x2="249.23696404040402" y2="244.92856374029554" stroke="#3366ff" stroke-width="2.8459842519685044"/><line x1="249.23696404040402" y1="244.92856374029554" x2="249.23696404040402" y2="244.92856374029554" stroke="#3366ff" stroke-width="2.8459842519685044"/><line x1="249.23696404040402" y1="244.92856374029554" x2="249.23696404040402" y2="244.92856374029554" stroke="#3366ff" stroke-width="2.8459842519685044"/><line x1="249.23696404040402" y1="244.92856374029554" x2="249.23696404040402" y2="244.92856374029554" stroke="#3366ff" stroke-width="2.8459842519685044"/><line x1="249.23696404040402" y1="244.92856374029554" x2="249.23696404040402" y2="244.92856374029554" stroke="#3366ff" stroke-width="2.8459842519685044"/><line x1="249.23696404040402" y1="244.92856374029554" x2="264.4347391245791" y2="253.80228130201786" stroke="#3366ff" stroke-width="2.8459842519685044"/><line x1="264.4347391245791" y1="253.80228130201786" x2="264.4347391245791" y2="253.80228130201786" stroke="#3366ff" stroke-width="2.8459842519685044"/><line x1="264.4347391245791" y1="253.80228130201786" x2="264.4347391245791" y2="253.80228130201786" stroke="#3366ff" stroke-width="2.8459842519685044"/><line x1="264.4347391245791" y1="253.80228130201786" x2="264.4347391245791" y2="253.80228130201786" stroke="#3366ff" stroke-width="2.8459842519685044"/><line x1="264.4347391245791" y1="253.80228130201786" x2="279.63251420875423" y2="262.2948746804676" stroke="#3366ff" stroke-width="2.8459842519685044"/><line x1="279.63251420875423" y1="262.2948746804676" x2="294.83028929292925" y2="269.21533861484124" stroke="#3366ff" stroke-width="2.8459842519685044"/><line x1="294.83028929292925" y1="269.21533861484124" x2="294.83028929292925" y2="269.21533861484124" stroke="#3366ff" stroke-width="2.8459842519685044"/><line x1="294.83028929292925" y1="269.21533861484124" x2="294.83028929292925" y2="269.21533861484124" stroke="#3366ff" stroke-width="2.8459842519685044"/><line x1="294.83028929292925" y1="269.21533861484124" x2="294.83028929292925" y2="269.21533861484124" stroke="#3366ff" stroke-width="2.8459842519685044"/><line x1="294.83028929292925" y1="269.21533861484124" x2="294.83028929292925" y2="269.21533861484124" stroke="#3366ff" stroke-width="2.8459842519685044"/><line x1="294.83028929292925" y1="269.21533861484124" x2="294.83028929292925" y2="269.21533861484124" stroke="#3366ff" stroke-width="2.8459842519685044"/><line x1="294.83028929292925" y1="269.21533861484124" x2="294.83028929292925" y2="269.21533861484124" stroke="#3366ff" stroke-width="2.8459842519685044"/><line x1="294.83028929292925" y1="269.21533861484124" x2="294.83028929292925" y2="269.21533861484124" stroke="#3366ff" stroke-width="2.8459842519685044"/><line x1="294.83028929292925" y1="269.21533861484124" x2="294.83028929292925" y2="269.21533861484124" stroke="#3366ff" stroke-width="2.8459842519685044"/><line x1="294.83028929292925" y1="269.21533861484124" x2="294.83028929292925" y2="269.21533861484124" stroke="#3366ff" stroke-width="2.8459842519685044"/><line x1="294.83028929292925" y1="269.21533861484124" x2="294.83028929292925" y2="269.21533861484124" stroke="#3366ff" stroke-width="2.8459842519685044"/><line x1="294.83028929292925" y1="269.21533861484124" x2="302.42917683501685" y2="271.7138328964985" stroke="#3366ff" stroke-width="2.8459842519685044"/><line x1="302.42917683501685" y1="271.7138328964985" x2="302.42917683501685" y2="271.7138328964985" stroke="#3366ff" stroke-width="2.8459842519685044"/><line x1="302.42917683501685" y1="271.7138328964985" x2="302.42917683501685" y2="271.7138328964985" stroke="#3366ff" stroke-width="2.8459842519685044"/><line x1="302.42917683501685" y1="271.7138328964985" x2="302.42917683501685" y2="271.7138328964985" stroke="#3366ff" stroke-width="2.8459842519685044"/><line x1="302.42917683501685" y1="271.7138328964985" x2="302.42917683501685" y2="271.7138328964985" stroke="#3366ff" stroke-width="2.8459842519685044"/><line x1="302.42917683501685" y1="271.7138328964985" x2="302.42917683501685" y2="271.7138328964985" stroke="#3366ff" stroke-width="2.8459842519685044"/><line x1="302.42917683501685" y1="271.7138328964985" x2="302.42917683501685" y2="271.7138328964985" stroke="#3366ff" stroke-width="2.8459842519685044"/><line x1="302.42917683501685" y1="271.7138328964985" x2="302.42917683501685" y2="271.7138328964985" stroke="#3366ff" stroke-width="2.8459842519685044"/><line x1="302.42917683501685" y1="271.7138328964985" x2="302.42917683501685" y2="271.7138328964985" stroke="#3366ff" stroke-width="2.8459842519685044"/><line x1="302.42917683501685" y1="271.7138328964985" x2="302.42917683501685" y2="271.7138328964985" stroke="#3366ff" stroke-width="2.8459842519685044"/><line x1="302.42917683501685" y1="271.7138328964985" x2="302.42917683501685" y2="271.7138328964985" stroke="#3366ff" stroke-width="2.8459842519685044"/><line x1="302.42917683501685" y1="271.7138328964985" x2="302.42917683501685" y2="271.7138328964985" stroke="#3366ff" stroke-width="2.8459842519685044"/><line x1="302.42917683501685" y1="271.7138328964985" x2="302.42917683501685" y2="271.7138328964985" stroke="#3366ff" stroke-width="2.8459842519685044"/><line x1="302.42917683501685" y1="271.7138328964985" x2="302.42917683501685" y2="271.7138328964985" stroke="#3366ff" stroke-width="2.8459842519685044"/><line x1="302.42917683501685" y1="271.7138328964985" x2="302.42917683501685" y2="271.7138328964985" stroke="#3366ff" stroke-width="2.8459842519685044"/><line x1="302.42917683501685" y1="271.7138328964985" x2="302.42917683501685" y2="271.7138328964985" stroke="#3366ff" stroke-width="2.8459842519685044"/><line x1="302.42917683501685" y1="271.7138328964985" x2="302.42917683501685" y2="271.7138328964985" stroke="#3366ff" stroke-width="2.8459842519685044"/><line x1="302.42917683501685" y1="271.7138328964985" x2="325.2258394612794" y2="274.53737380319535" stroke="#3366ff" stroke-width="2.8459842519685044"/><line x1="325.2258394612794" y1="274.53737380319535" x2="325.2258394612794" y2="274.53737380319535" stroke="#3366ff" stroke-width="2.8459842519685044"/><line x1="325.2258394612794" y1="274.53737380319535" x2="340.42361454545454" y2="273.08536732625225" stroke="#3366ff" stroke-width="2.8459842519685044"/><line x1="340.42361454545454" y1="273.08536732625225" x2="340.42361454545454" y2="273.08536732625225" stroke="#3366ff" stroke-width="2.8459842519685044"/><line x1="340.42361454545454" y1="273.08536732625225" x2="340.42361454545454" y2="273.08536732625225" stroke="#3366ff" stroke-width="2.8459842519685044"/><line x1="340.42361454545454" y1="273.08536732625225" x2="340.42361454545454" y2="273.08536732625225" stroke="#3366ff" stroke-width="2.8459842519685044"/><line x1="340.42361454545454" y1="273.08536732625225" x2="340.42361454545454" y2="273.08536732625225" stroke="#3366ff" stroke-width="2.8459842519685044"/><line x1="340.42361454545454" y1="273.08536732625225" x2="348.0225020875421" y2="271.5534381205895" stroke="#3366ff" stroke-width="2.8459842519685044"/><line x1="348.0225020875421" y1="271.5534381205895" x2="348.0225020875421" y2="271.5534381205895" stroke="#3366ff" stroke-width="2.8459842519685044"/><line x1="348.0225020875421" y1="271.5534381205895" x2="348.0225020875421" y2="271.5534381205895" stroke="#3366ff" stroke-width="2.8459842519685044"/><line x1="348.0225020875421" y1="271.5534381205895" x2="348.0225020875421" y2="271.5534381205895" stroke="#3366ff" stroke-width="2.8459842519685044"/><line x1="348.0225020875421" y1="271.5534381205895" x2="348.0225020875421" y2="271.5534381205895" stroke="#3366ff" stroke-width="2.8459842519685044"/><line x1="348.0225020875421" y1="271.5534381205895" x2="348.0225020875421" y2="271.5534381205895" stroke="#3366ff" stroke-width="2.8459842519685044"/><line x1="348.0225020875421" y1="271.5534381205895" x2="355.6213896296297" y2="269.5706178955687" stroke="#3366ff" stroke-width="2.8459842519685044"/><line x1="355.6213896296297" y1="269.5706178955687" x2="355.6213896296297" y2="269.5706178955687" stroke="#3366ff" stroke-width="2.8459842519685044"/><line x1="355.6213896296297" y1="269.5706178955687" x2="355.6213896296297" y2="269.5706178955687" stroke="#3366ff" stroke-width="2.8459842519685044"/><line x1="355.6213896296297" y1="269.5706178955687" x2="355.6213896296297" y2="269.5706178955687" stroke="#3366ff" stroke-width="2.8459842519685044"/><line x1="355.6213896296297" y1="269.5706178955687" x2="355.6213896296297" y2="269.5706178955687" stroke="#3366ff" stroke-width="2.8459842519685044"/><line x1="355.6213896296297" y1="269.5706178955687" x2="355.6213896296297" y2="269.5706178955687" stroke="#3366ff" stroke-width="2.8459842519685044"/><line x1="355.6213896296297" y1="269.5706178955687" x2="355.6213896296297" y2="269.5706178955687" stroke="#3366ff" stroke-width="2.8459842519685044"/><line x1="355.6213896296297" y1="269.5706178955687" x2="355.6213896296297" y2="269.5706178955687" stroke="#3366ff" stroke-width="2.8459842519685044"/><line x1="355.6213896296297" y1="269.5706178955687" x2="370.8191647138047" y2="264.51148326376114" stroke="#3366ff" stroke-width="2.8459842519685044"/><line x1="370.8191647138047" y1="264.51148326376114" x2="378.4180522558923" y2="261.5647582951284" stroke="#3366ff" stroke-width="2.8459842519685044"/><line x1="378.4180522558923" y1="261.5647582951284" x2="378.4180522558923" y2="261.5647582951284" stroke="#3366ff" stroke-width="2.8459842519685044"/><line x1="378.4180522558923" y1="261.5647582951284" x2="378.4180522558923" y2="261.5647582951284" stroke="#3366ff" stroke-width="2.8459842519685044"/><line x1="378.4180522558923" y1="261.5647582951284" x2="378.4180522558923" y2="261.5647582951284" stroke="#3366ff" stroke-width="2.8459842519685044"/><line x1="378.4180522558923" y1="261.5647582951284" x2="378.4180522558923" y2="261.5647582951284" stroke="#3366ff" stroke-width="2.8459842519685044"/><line x1="378.4180522558923" y1="261.5647582951284" x2="378.4180522558923" y2="261.5647582951284" stroke="#3366ff" stroke-width="2.8459842519685044"/><line x1="378.4180522558923" y1="261.5647582951284" x2="378.4180522558923" y2="261.5647582951284" stroke="#3366ff" stroke-width="2.8459842519685044"/><line x1="378.4180522558923" y1="261.5647582951284" x2="378.4180522558923" y2="261.5647582951284" stroke="#3366ff" stroke-width="2.8459842519685044"/><line x1="378.4180522558923" y1="261.5647582951284" x2="393.6158273400673" y2="255.16096664779036" stroke="#3366ff" stroke-width="2.8459842519685044"/><line x1="393.6158273400673" y1="255.16096664779036" x2="393.6158273400673" y2="255.16096664779036" stroke="#3366ff" stroke-width="2.8459842519685044"/><line x1="393.6158273400673" y1="255.16096664779036" x2="401.21471488215485" y2="251.83348940723914" stroke="#3366ff" stroke-width="2.8459842519685044"/><line x1="401.21471488215485" y1="251.83348940723914" x2="408.8136024242424" y2="248.50868418086907" stroke="#3366ff" stroke-width="2.8459842519685044"/><line x1="408.8136024242424" y1="248.50868418086907" x2="416.41248996633" y2="245.25134568775735" stroke="#3366ff" stroke-width="2.8459842519685044"/><line x1="416.41248996633" y1="245.25134568775735" x2="416.41248996633" y2="245.25134568775735" stroke="#3366ff" stroke-width="2.8459842519685044"/><line x1="416.41248996633" y1="245.25134568775735" x2="439.2091525925926" y2="236.5320777987422" stroke="#3366ff" stroke-width="2.8459842519685044"/><line x1="439.2091525925926" y1="236.5320777987422" x2="477.2035903030303" y2="229.3968064294063" stroke="#3366ff" stroke-width="2.8459842519685044"/><text x="512.3872533333333" y="110.23405333333336" fill="#4d4d4d" font-size="14.666666666666666" font-family="sans-serif" text-anchor="start">Car type</text><rect x="512.3872533333333" y="117.56738666666669" width="23.114079999999994" height="161.79855999999995" fill="#ebebeb" fill-opacity="1.0" stroke="none"/><rect x="512.3872533333333" y="117.56738666666669" width="23.114079999999994" height="23.114079999999994" fill="#f2f2f2" fill-opacity="1.0" stroke="none"/><circle cx="523.9442933333332" cy="129.1244266666667" r="3.1181102362204727" fill="#000000" fill-opacity="1.0" stroke="none"/><text x="539.1679999999999" y="132.87909333333334" fill="#4d4d4d" font-size="11.733333333333334" font-family="sans-serif" text-anchor="start">2seater</text><rect x="512.3872533333333" y="140.6814666666667" width="23.114079999999994" height="23.114079999999994" fill="#f2f2f2" fill-opacity="1.0" stroke="none"/><circle cx="523.9442933333332" cy="152.2385066666667" r="3.1181102362204727" fill="#E69F00" fill-opacity="1.0" stroke="none"/><text x="539.1679999999999" y="155.99317333333335" fill="#4d4d4d" font-size="11.733333333333334" font-family="sans-serif" text-anchor="start">compact</text><rect x="512.3872533333333" y="163.79554666666667" width="23.114079999999994" height="23.114079999999994" fill="#f2f2f2" fill-opacity="1.0" stroke="none"/><circle cx="523.9442933333332" cy="175.35258666666667" r="3.1181102362204727" fill="#56B4E9" fill-opacity="1.0" stroke="none"/><text x="539.1679999999999" y="179.10725333333335" fill="#4d4d4d" font-size="11.733333333333334" font-family="sans-serif" text-anchor="start">midsize</text><rect x="512.3872533333333" y="186.9096266666667" width="23.114079999999994" height="23.114079999999994" fill="#f2f2f2" fill-opacity="1.0" stroke="none"/><circle cx="523.9442933333332" cy="198.4666666666667" r="3.1181102362204727" fill="#009E73" fill-opacity="1.0" stroke="none"/><text x="539.1679999999999" y="202.22133333333335" fill="#4d4d4d" font-size="11.733333333333334" font-family="sans-serif" text-anchor="start">minivan</text><rect x="512.3872533333333" y="210.02370666666667" width="23.114079999999994" height="23.114079999999994" fill="#f2f2f2" fill-opacity="1.0" stroke="none"/><circle cx="523.9442933333332" cy="221.58074666666667" r="3.1181102362204727" fill="#F0E442" fill-opacity="1.0" stroke="none"/><text x="539.1679999999999" y="225.33541333333335" fill="#4d4d4d" font-size="11.733333333333334" font-family="sans-serif" text-anchor="start">pickup</text><rect x="512.3872533333333" y="233.13778666666667" width="23.114079999999994" height="23.114079999999994" fill="#f2f2f2" fill-opacity="1.0" stroke="none"/><circle cx="523.9442933333332" cy="244.69482666666664" r="3.1181102362204727" fill="#0072B2" fill-opacity="1.0" stroke="none"/><text x="539.1679999999999" y="248.44949333333332" fill="#4d4d4d" font-size="11.733333333333334" font-family="sans-serif" text-anchor="start">subcompact</text><rect x="512.3872533333333" y="256.2518666666666" width="23.114079999999994" height="23.114079999999994" fill="#f2f2f2" fill-opacity="1.0" stroke="none"/><circle cx="523.9442933333332" cy="267.80890666666664" r="3.1181102362204727" fill="#D55E00" fill-opacity="1.0" stroke="none"/><text x="539.1679999999999" y="271.5635733333333" fill="#4d4d4d" font-size="11.733333333333334" font-family="sans-serif" text-anchor="start">suv</text></svg>