<svg xmlns="http://www.w3.org/2000/svg" width="624" height="384" viewBox="0 0 624 384"><rect x="0.0" y="0.0" width="624.0" height="384.0" fill="#ffffff" fill-opacity="1.0" stroke="none"/><rect x="46.346666666666664" y="32.266666666666666" width="514.7339199999999" height="307.73333333333335" fill="#ebebeb" fill-opacity="1.0" stroke="none"/><line x1="61.07810882154881" y1="32.266666666666666" x2="61.07810882154881" y2="340.0" stroke="#ffffff" stroke-width="0.6666666666666666"/><line x1="147.7336509090909" y1="32.266666666666666" x2="147.7336509090909" y2="340.0" stroke="#ffffff" stroke-width="0.6666666666666666"/><line x1="234.38919299663297" y1="32.266666666666666" x2="234.38919299663297" y2="340.0" stroke="#ffffff" stroke-width="0.6666666666666666"/><line x1="321.04473508417504" y1="32.266666666666666" x2="321.04473508417504" y2="340.0" stroke="#ffffff" stroke-width="0.6666666666666666"/><line x1="407.7002771717172" y1="32.266666666666666" x2="407.7002771717172" y2="340.0" stroke="#ffffff" stroke-width="0.6666666666666666"/><line x1="494.3558192592593" y1="32.266666666666666" x2="494.3558192592593" y2="340.0" stroke="#ffffff" stroke-width="0.6666666666666666"/><line x1="104.40587986531985" y1="32.266666666666666" x2="104.40587986531985" y2="340.0" stroke="#ffffff" stroke-width="1.3333333333333333"/><line x1="191.06142195286193" y1="32.266666666666666" x2="191.06142195286193" y2="340.0" stroke="#ffffff" stroke-width="1.3333333333333333"/><line x1="277.71696404040404" y1="32.266666666666666" x2="277.71696404040404" y2="340.0" stroke="#ffffff" stroke-width="1.3333333333333333"/><line x1="364.3725061279461" y1="32.266666666666666" x2="364.3725061279461" y2="340.0" stroke="#ffffff" stroke-width="1.3333333333333333"/><line x1="451.0280482154882" y1="32.266666666666666" x2="451.0280482154882" y2="340.0" stroke="#ffffff" stroke-width="1.3333333333333333"/><line x1="537.6835903030303" y1="32.266666666666666" x2="537.6835903030303" y2="340.0" stroke="#ffffff" stroke-width="1.3333333333333333"/><line x1="46.346666666666664" y1="299.78484848484845" x2="561.0805866666666" y2="299.78484848484845" stroke="#ffffff" stroke-width="0.6666666666666666"/><line x1="46.346666666666664" y1="212.36060606060607" x2="561.0805866666666" y2="212.36060606060607" stroke="#ffffff" stroke-width="0.6666666666666666"/><line x1="46.346666666666664" y1="124.93636363636361" x2="561.0805866666666" y2="124.93636363636361" stroke="#ffffff" stroke-width="0.6666666666666666"/><line x1="46.346666666666664" y1="37.5121212121212" x2="561.0805866666666" y2="37.5121212121212" stroke="#ffffff" stroke-width="0.6666666666666666"/><line x1="46.346666666666664" y1="256.07272727272726" x2="561.0805866666666" y2="256.07272727272726" stroke="#ffffff" stroke-width="1.3333333333333333"/><line x1="46.346666666666664" y1="168.64848484848486" x2="561.0805866666666" y2="168.64848484848486" stroke="#ffffff" stroke-width="1.3333333333333333"/><line x1="46.346666666666664" y1="81.22424242424245" x2="561.0805866666666" y2="81.22424242424245" stroke="#ffffff" stroke-width="1.3333333333333333"/><line x1="104.40587986531985" y1="340.0" x2="104.40587986531985" y2="343.66666666666663" stroke="#333333" stroke-width="1.3333333333333333"/><text x="104.40587986531985" y="355.9866666666667" fill="#4d4d4d" font-size="11.733333333333334" font-family="sans-serif" text-anchor="middle">2</text><line x1="191.06142195286193" y1="340.0" x2="191.06142195286193" y2="343.66666666666663" stroke="#333333" stroke-width="1.3333333333333333"/><text x="191.06142195286193" y="355.9866666666667" fill="#4d4d4d" font-size="11.733333333333334" font-family="sans-serif" text-anchor="middle">3</text><line x1="277.71696404040404" y1="340.0" x2="277.71696404040404" y2="343.66666666666663" stroke="#333333" stroke-width="1.3333333333333333"/><text x="277.71696404040404" y="355.9866666666667" fill="#4d4d4d" font-size="11.733333333333334" font-family="sans-serif" text-anchor="middle">4</text><line x1="364.3725061279461" y1="340.0" x2="364.3725061279461" y2="343.66666666666663" stroke="#333333" stroke-width="1.3333333333333333"/><text x="364.3725061279461" y="355.9866666666667" fill="#4d4d4d" font-size="11.733333333333334" font-family="sans-serif" text-anchor="middle">5</text><line x1="451.0280482154882" y1="340.0" x2="451.0280482154882" y2="343.66666666666663" stroke="#333333" stroke-width="1.3333333333333333"/><text x="451.0280482154882" y="355.9866666666667" fill="#4d4d4d" font-size="11.733333333333334" font-family="sans-serif" text-anchor="middle">6</text><line x1="537.6835903030303" y1="340.0" x2="537.6835903030303" y2="343.66666666666663" stroke="#333333" stroke-width="1.3333333333333333"/><text x="537.6835903030303" y="355.9866666666667" fill="#4d4d4d" font-size="11.733333333333334" font-family="sans-serif" text-anchor="middle">7</text><line x1="46.346666666666664" y1="256.07272727272726" x2="42.67999999999999" y2="256.07272727272726" stroke="#333333" stroke-width="1.3333333333333333"/><text x="39.74666666666666" y="260.17939393939395" fill="#4d4d4d" font-size="11.733333333333334" font-family="sans-serif" text-anchor="end">20</text><line x1="46.346666666666664" y1="168.64848484848486" x2="42.67999999999999" y2="168.64848484848486" stroke="#333333" stroke-width="1.3333333333333333"/><text x="39.74666666666666" y="172.75515151515154" fill="#4d4d4d" font-size="11.733333333333334" font-family="sans-serif" text-anchor="end">30</text><line x1="46.346666666666664" y1="81.22424242424245" x2="42.67999999999999" y2="81.22424242424245" stroke="#333333" stroke-width="1.3333333333333333"/><text x="39.74666666666666" y="85.3309090909091" fill="#4d4d4d" font-size="11.733333333333334" font-family="sans-serif" text-anchor="end">40</text><text x="46.346666666666664" y="21.413333333333334" fill="#000000" font-size="17.599999999999998" font-family="sans-serif" text-anchor="start">色 + 形で冗長に符号化 (色覚配慮)</text><text x="303.71362666666664" y="373.73333333333335" fill="#000000" font-size="14.666666666666666" font-family="sans-serif" text-anchor="middle">displ</text><text x="17.599999999999998" y="186.13333333333333" fill="#000000" font-size="14.666666666666666" font-family="sans-serif" text-anchor="middle" transform="rotate(-90.0 17.599999999999998 186.13333333333333)">hwy</text><path d="M 83.95666121159097 174.27279885468857 L 90.1928816840319 174.27279885468857 L 90.1928816840319 180.50901932712955 L 83.95666121159097 180.50901932712955 Z" fill="#EE6677" fill-opacity="0.85" stroke="none"/><path d="M 83.95666121159097 174.27279885468857 L 90.1928816840319 174.27279885468857 L 90.1928816840319 180.50901932712955 L 83.95666121159097 180.50901932712955 Z" fill="#EE6677" fill-opacity="0.85" stroke="none"/><path d="M 101.28776962909939 156.78795036984013 L 107.5239901015403 156.78795036984013 L 107.5239901015403 163.02417084228108 L 101.28776962909939 163.02417084228108 Z" fill="#EE6677" fill-opacity="0.85" stroke="none"/><path d="M 101.28776962909939 165.53037461226438 L 107.5239901015403 165.53037461226438 L 107.5239901015403 171.76659508470533 L 101.28776962909939 171.76659508470533 Z" fill="#EE6677" fill-opacity="0.85" stroke="none"/><path d="M 170.61220329913303 200.50007158196132 L 176.84842377157398 200.50007158196132 L 176.84842377157398 206.7362920544023 L 170.61220329913303 206.7362920544023 Z" fill="#EE6677" fill-opacity="0.85" stroke="none"/><path d="M 170.61220329913303 200.50007158196132 L 176.84842377157398 200.50007158196132 L 176.84842377157398 206.7362920544023 L 170.61220329913303 206.7362920544023 Z" fill="#EE6677" fill-opacity="0.85" stroke="none"/><path d="M 196.6088659253957 191.75764733953704 L 202.84508639783667 191.75764733953704 L 202.84508639783667 197.99386781197802 L 196.6088659253957 197.99386781197802 Z" fill="#EE6677" fill-opacity="0.85" stroke="none"/><circle cx="87.07477144781144" cy="203.61818181818182" r="3.1181102362204727" fill="#4477AA" fill-opacity="0.85" stroke="none"><title>(1.8, 26)</title></circle><circle cx="87.07477144781144" cy="212.36060606060607" r="3.1181102362204727" fill="#4477AA" fill-opacity="0.85" stroke="none"><title>(1.8, 25)</title></circle><circle cx="104.40587986531985" cy="186.13333333333333" r="3.1181102362204727" fill="#4477AA" fill-opacity="0.85" stroke="none"><title>(2, 28)</title></circle><circle cx="104.40587986531985" cy="194.87575757575752" r="3.1181102362204727" fill="#4477AA" fill-opacity="0.85" stroke="none"><title>(2, 27)</title></circle><circle cx="173.7303135353535" cy="212.36060606060607" r="3.1181102362204727" fill="#4477AA" fill-opacity="0.85" stroke="none"><title>(2.8, 25)</title></circle><circle cx="173.7303135353535" cy="212.36060606060607" r="3.1181102362204727" fill="#4477AA" fill-opacity="0.85" stroke="none"><title>(2.8, 25)</title></circle><circle cx="199.72697616161616" cy="212.36060606060607" r="3.1181102362204727" fill="#4477AA" fill-opacity="0.85" stroke="none"><title>(3.1, 25)</title></circle><circle cx="199.72697616161616" cy="212.36060606060607" r="3.1181102362204727" fill="#4477AA" fill-opacity="0.85" stroke="none"><title>(3.1, 25)</title></circle><circle cx="173.7303135353535" cy="221.10303030303032" r="3.1181102362204727" fill="#4477AA" fill-opacity="0.85" stroke="none"><title>(2.8, 24)</title></circle><circle cx="199.72697616161616" cy="212.36060606060607" r="3.1181102362204727" fill="#4477AA" fill-opacity="0.85" stroke="none"><title>(3.1, 25)</title></circle><circle cx="295.04807245791244" cy="229.84545454545452" r="3.1181102362204727" fill="#4477AA" fill-opacity="0.85" stroke="none"><title>(4.2, 23)</title></circle><path d="M 390.3691687542087 252.9546170365068 L 393.48727899042916 259.19083750894777 L 387.25105851798827 259.19083750894777 Z" fill="#228833" fill-opacity="0.85" stroke="none"/><path d="M 390.3691687542087 296.666738248628 L 393.48727899042916 302.90295872106896 L 387.25105851798827 302.90295872106896 Z" fill="#228833" fill-opacity="0.85" stroke="none"/><path d="M 390.3691687542087 252.9546170365068 L 393.48727899042916 259.19083750894777 L 387.25105851798827 259.19083750894777 Z" fill="#228833" fill-opacity="0.85" stroke="none"/><path d="M 425.0313855892255 279.1818897637795 L 428.14949582544597 285.41811023622046 L 421.9132753530051 285.41811023622046 Z" fill="#228833" fill-opacity="0.85" stroke="none"/><path d="M 451.0280482154882 279.1818897637795 L 454.14615845170863 285.41811023622046 L 447.90993797926774 285.41811023622046 Z" fill="#228833" fill-opacity="0.85" stroke="none"/><path d="M 425.0313855892255 200.50007158196132 L 428.14949582544597 206.7362920544023 L 421.9132753530051 206.7362920544023 Z" fill="#228833" fill-opacity="0.85" stroke="none"/><path d="M 425.0313855892255 226.72734430923404 L 428.14949582544597 232.96356478167502 L 421.9132753530051 232.96356478167502 Z" fill="#228833" fill-opacity="0.85" stroke="none"/><path d="M 468.3591566329966 200.50007158196132 L 471.47726686921703 206.7362920544023 L 465.24104639677614 206.7362920544023 Z" fill="#228833" fill-opacity="0.85" stroke="none"/><path d="M 468.3591566329966 209.24249582438557 L 471.47726686921703 215.47871629682655 L 465.24104639677614 215.47871629682655 Z" fill="#228833" fill-opacity="0.85" stroke="none"/><path d="M 537.6835903030303 217.98492006680982 L 540.8017005392508 224.2211405392508 L 534.5654800668099 224.2211405392508 Z" fill="#228833" fill-opacity="0.85" stroke="none"/><circle cx="390.3691687542087" cy="264.8151515151515" r="3.1181102362204727" fill="#4477AA" fill-opacity="0.85" stroke="none"><title>(5.3, 19)</title></circle><circle cx="390.3691687542087" cy="308.5272727272727" r="3.1181102362204727" fill="#4477AA" fill-opacity="0.85" stroke="none"><title>(5.3, 14)</title></circle><circle cx="425.0313855892255" cy="299.78484848484845" r="3.1181102362204727" fill="#4477AA" fill-opacity="0.85" stroke="none"><title>(5.7, 15)</title></circle><circle cx="494.3558192592593" cy="282.29999999999995" r="3.1181102362204727" fill="#4477AA" fill-opacity="0.85" stroke="none"><title>(6.5, 17)</title></circle><path d="M 135.94998646411622 191.75764733953704 L 142.18620693655714 191.75764733953704 L 142.18620693655714 197.99386781197802 L 135.94998646411622 197.99386781197802 Z" fill="#EE6677" fill-opacity="0.85" stroke="none"/><path d="M 135.94998646411622 165.53037461226438 L 142.18620693655714 165.53037461226438 L 142.18620693655714 171.76659508470533 L 135.94998646411622 171.76659508470533 Z" fill="#EE6677" fill-opacity="0.85" stroke="none"/><path d="M 196.6088659253957 200.50007158196132 L 202.84508639783667 200.50007158196132 L 202.84508639783667 206.7362920544023 L 196.6088659253957 206.7362920544023 Z" fill="#EE6677" fill-opacity="0.85" stroke="none"/><path d="M 231.2710827604125 174.27279885468857 L 237.50730323285347 174.27279885468857 L 237.50730323285347 180.50901932712955 L 231.2710827604125 180.50901932712955 Z" fill="#EE6677" fill-opacity="0.85" stroke="none"/><path d="M 239.9366369691667 200.50007158196132 L 246.17285744160768 200.50007158196132 L 246.17285744160768 206.7362920544023 L 239.9366369691667 206.7362920544023 Z" fill="#EE6677" fill-opacity="0.85" stroke="none"/><path d="M 135.94998646411622 217.98492006680982 L 142.18620693655714 217.98492006680982 L 142.18620693655714 224.2211405392508 L 135.94998646411622 224.2211405392508 Z" fill="#EE6677" fill-opacity="0.85" stroke="none"/><path d="M 187.94331171664146 217.98492006680982 L 194.1795321890824 217.98492006680982 L 194.1795321890824 224.2211405392508 L 187.94331171664146 224.2211405392508 Z" fill="#EE6677" fill-opacity="0.85" stroke="none"/><path d="M 213.93997434290407 235.4697685516583 L 220.176194815345 235.4697685516583 L 220.176194815345 241.70598902409927 L 213.93997434290407 241.70598902409927 Z" fill="#EE6677" fill-opacity="0.85" stroke="none"/><path d="M 213.93997434290407 235.4697685516583 L 220.176194815345 235.4697685516583 L 220.176194815345 241.70598902409927 L 213.93997434290407 241.70598902409927 Z" fill="#EE6677" fill-opacity="0.85" stroke="none"/><path d="M 213.93997434290407 217.98492006680982 L 220.176194815345 217.98492006680982 L 220.176194815345 224.2211405392508 L 213.93997434290407 224.2211405392508 Z" fill="#EE6677" fill-opacity="0.85" stroke="none"/><path d="M 213.93997434290407 217.98492006680982 L 220.176194815345 217.98492006680982 L 220.176194815345 224.2211405392508 L 213.93997434290407 224.2211405392508 Z" fill="#EE6677" fill-opacity="0.85" stroke="none"/><path d="M 213.93997434290407 279.1818897637795 L 220.176194815345 279.1818897637795 L 220.176194815345 285.41811023622046 L 213.93997434290407 285.41811023622046 Z" fill="#EE6677" fill-opacity="0.85" stroke="none"/><path d="M 257.2677453866751 235.4697685516583 L 263.5039658591161 235.4697685516583 L 263.5039658591161 241.70598902409927 L 257.2677453866751 241.70598902409927 Z" fill="#EE6677" fill-opacity="0.85" stroke="none"/><path d="M 257.2677453866751 244.21219279408254 L 263.5039658591161 244.21219279408254 L 263.5039658591161 250.44841326652352 L 257.2677453866751 250.44841326652352 Z" fill="#EE6677" fill-opacity="0.85" stroke="none"/><path d="M 257.2677453866751 226.72734430923404 L 263.5039658591161 226.72734430923404 L 263.5039658591161 232.96356478167502 L 257.2677453866751 232.96356478167502 Z" fill="#EE6677" fill-opacity="0.85" stroke="none"/><path d="M 274.59885380418353 226.72734430923404 L 280.8350742766245 226.72734430923404 L 280.8350742766245 232.96356478167502 L 274.59885380418353 232.96356478167502 Z" fill="#EE6677" fill-opacity="0.85" stroke="none"/><circle cx="251.72030141414143" cy="264.8151515151515" r="3.1181102362204727" fill="#4477AA" fill-opacity="0.85" stroke="none"><title>(3.7, 19)</title></circle><circle cx="251.72030141414143" cy="273.55757575757576" r="3.1181102362204727" fill="#4477AA" fill-opacity="0.85" stroke="none"><title>(3.7, 18)</title></circle><circle cx="269.05140983164983" cy="282.29999999999995" r="3.1181102362204727" fill="#4477AA" fill-opacity="0.85" stroke="none"><title>(3.9, 17)</title></circle><circle cx="269.05140983164983" cy="282.29999999999995" r="3.1181102362204727" fill="#4477AA" fill-opacity="0.85" stroke="none"><title>(3.9, 17)</title></circle><circle cx="338.37584350168345" cy="264.8151515151515" r="3.1181102362204727" fill="#4477AA" fill-opacity="0.85" stroke="none"><title>(4.7, 19)</title></circle><circle cx="338.37584350168345" cy="264.8151515151515" r="3.1181102362204727" fill="#4477AA" fill-opacity="0.85" stroke="none"><title>(4.7, 19)</title></circle><circle cx="338.37584350168345" cy="326.0121212121212" r="3.1181102362204727" fill="#4477AA" fill-opacity="0.85" stroke="none"><title>(4.7, 12)</title></circle><circle cx="381.70361454545457" cy="282.29999999999995" r="3.1181102362204727" fill="#4477AA" fill-opacity="0.85" stroke="none"><title>(5.2, 17)</title></circle><circle cx="381.70361454545457" cy="299.78484848484845" r="3.1181102362204727" fill="#4477AA" fill-opacity="0.85" stroke="none"><title>(5.2, 15)</title></circle><circle cx="269.05140983164983" cy="282.29999999999995" r="3.1181102362204727" fill="#4477AA" fill-opacity="0.85" stroke="none"><title>(3.9, 17)</title></circle><circle cx="338.37584350168345" cy="282.29999999999995" r="3.1181102362204727" fill="#4477AA" fill-opacity="0.85" stroke="none"><title>(4.7, 17)</title></circle><circle cx="338.37584350168345" cy="326.0121212121212" r="3.1181102362204727" fill="#4477AA" fill-opacity="0.85" stroke="none"><title>(4.7, 12)</title></circle><circle cx="338.37584350168345" cy="282.29999999999995" r="3.1181102362204727" fill="#4477AA" fill-opacity="0.85" stroke="none"><title>(4.7, 17)</title></circle><circle cx="381.70361454545457" cy="291.0424242424242" r="3.1181102362204727" fill="#4477AA" fill-opacity="0.85" stroke="none"><title>(5.2, 16)</title></circle><circle cx="425.0313855892255" cy="273.55757575757576" r="3.1181102362204727" fill="#4477AA" fill-opacity="0.85" stroke="none"><title>(5.7, 18)</title></circle><circle cx="442.362494006734" cy="299.78484848484845" r="3.1181102362204727" fill="#4477AA" fill-opacity="0.85" stroke="none"><title>(5.9, 15)</title></circle><circle cx="338.37584350168345" cy="291.0424242424242" r="3.1181102362204727" fill="#4477AA" fill-opacity="0.85" stroke="none"><title>(4.7, 16)</title></circle><circle cx="338.37584350168345" cy="326.0121212121212" r="3.1181102362204727" fill="#4477AA" fill-opacity="0.85" stroke="none"><title>(4.7, 12)</title></circle><circle cx="338.37584350168345" cy="282.29999999999995" r="3.1181102362204727" fill="#4477AA" fill-opacity="0.85" stroke="none"><title>(4.7, 17)</title></circle><circle cx="338.37584350168345" cy="282.29999999999995" r="3.1181102362204727" fill="#4477AA" fill-opacity="0.85" stroke="none"><title>(4.7, 17)</title></circle><circle cx="338.37584350168345" cy="291.0424242424242" r="3.1181102362204727" fill="#4477AA" fill-opacity="0.85" stroke="none"><title>(4.7, 16)</title></circle><circle cx="338.37584350168345" cy="326.0121212121212" r="3.1181102362204727" fill="#4477AA" fill-opacity="0.85" stroke="none"><title>(4.7, 12)</title></circle><circle cx="381.70361454545457" cy="299.78484848484845" r="3.1181102362204727" fill="#4477AA" fill-opacity="0.85" stroke="none"><title>(5.2, 15)</title></circle><circle cx="381.70361454545457" cy="291.0424242424242" r="3.1181102362204727" fill="#4477AA" fill-opacity="0.85" stroke="none"><title>(5.2, 16)</title></circle><circle cx="425.0313855892255" cy="282.29999999999995" r="3.1181102362204727" fill="#4477AA" fill-opacity="0.85" stroke="none"><title>(5.7, 17)</title></circle><circle cx="442.362494006734" cy="299.78484848484845" r="3.1181102362204727" fill="#4477AA" fill-opacity="0.85" stroke="none"><title>(5.9, 15)</title></circle><path d="M 329.71028929292925 279.1818897637795 L 332.8283995291497 285.41811023622046 L 326.59217905670874 285.41811023622046 Z" fill="#228833" fill-opacity="0.85" stroke="none"/><path d="M 399.034722962963 279.1818897637795 L 402.1528331991834 285.41811023622046 L 395.9166127267425 285.41811023622046 Z" fill="#228833" fill-opacity="0.85" stroke="none"/><path d="M 399.034722962963 270.43946552135526 L 402.1528331991834 276.67568599379626 L 395.9166127267425 276.67568599379626 Z" fill="#228833" fill-opacity="0.85" stroke="none"/><circle cx="277.71696404040404" cy="282.29999999999995" r="3.1181102362204727" fill="#4477AA" fill-opacity="0.85" stroke="none"><title>(4, 17)</title></circle><circle cx="277.71696404040404" cy="264.8151515151515" r="3.1181102362204727" fill="#4477AA" fill-opacity="0.85" stroke="none"><title>(4, 19)</title></circle><circle cx="277.71696404040404" cy="282.29999999999995" r="3.1181102362204727" fill="#4477AA" fill-opacity="0.85" stroke="none"><title>(4, 17)</title></circle><circle cx="277.71696404040404" cy="264.8151515151515" r="3.1181102362204727" fill="#4477AA" fill-opacity="0.85" stroke="none"><title>(4, 19)</title></circle><circle cx="329.71028929292925" cy="264.8151515151515" r="3.1181102362204727" fill="#4477AA" fill-opacity="0.85" stroke="none"><title>(4.6, 19)</title></circle><circle cx="364.3725061279461" cy="282.29999999999995" r="3.1181102362204727" fill="#4477AA" fill-opacity="0.85" stroke="none"><title>(5, 17)</title></circle><circle cx="295.04807245791244" cy="282.29999999999995" r="3.1181102362204727" fill="#4477AA" fill-opacity="0.85" stroke="none"><title>(4.2, 17)</title></circle><circle cx="295.04807245791244" cy="282.29999999999995" r="3.1181102362204727" fill="#4477AA" fill-opacity="0.85" stroke="none"><title>(4.2, 17)</title></circle><circle cx="329.71028929292925" cy="291.0424242424242" r="3.1181102362204727" fill="#4477AA" fill-opacity="0.85" stroke="none"><title>(4.6, 16)</title></circle><circle cx="329.71028929292925" cy="291.0424242424242" r="3.1181102362204727" fill="#4477AA" fill-opacity="0.85" stroke="none"><title>(4.6, 16)</title></circle><circle cx="329.71028929292925" cy="282.29999999999995" r="3.1181102362204727" fill="#4477AA" fill-opacity="0.85" stroke="none"><title>(4.6, 17)</title></circle><circle cx="399.034722962963" cy="299.78484848484845" r="3.1181102362204727" fill="#4477AA" fill-opacity="0.85" stroke="none"><title>(5.4, 15)</title></circle><circle cx="399.034722962963" cy="282.29999999999995" r="3.1181102362204727" fill="#4477AA" fill-opacity="0.85" stroke="none"><title>(5.4, 17)</title></circle><path d="M 260.3858556228956 200.50007158196132 L 263.5039658591161 206.7362920544023 L 257.2677453866751 206.7362920544023 Z" fill="#228833" fill-opacity="0.85" stroke="none"/><path d="M 260.3858556228956 209.24249582438557 L 263.5039658591161 215.47871629682655 L 257.2677453866751 215.47871629682655 Z" fill="#228833" fill-opacity="0.85" stroke="none"/><path d="M 277.71696404040404 200.50007158196132 L 280.8350742766245 206.7362920544023 L 274.59885380418353 206.7362920544023 Z" fill="#228833" fill-opacity="0.85" stroke="none"/><path d="M 277.71696404040404 217.98492006680982 L 280.8350742766245 224.2211405392508 L 274.59885380418353 224.2211405392508 Z" fill="#228833" fill-opacity="0.85" stroke="none"/><path d="M 329.71028929292925 244.21219279408254 L 332.8283995291497 250.44841326652352 L 326.59217905670874 250.44841326652352 Z" fill="#228833" fill-opacity="0.85" stroke="none"/><path d="M 329.71028929292925 235.4697685516583 L 332.8283995291497 241.70598902409927 L 326.59217905670874 241.70598902409927 Z" fill="#228833" fill-opacity="0.85" stroke="none"/><path d="M 329.71028929292925 226.72734430923404 L 332.8283995291497 232.96356478167502 L 326.59217905670874 232.96356478167502 Z" fill="#228833" fill-opacity="0.85" stroke="none"/><path d="M 329.71028929292925 235.4697685516583 L 332.8283995291497 241.70598902409927 L 326.59217905670874 241.70598902409927 Z" fill="#228833" fill-opacity="0.85" stroke="none"/><path d="M 399.034722962963 252.9546170365068 L 402.1528331991834 259.19083750894777 L 395.9166127267425 259.19083750894777 Z" fill="#228833" fill-opacity="0.85" stroke="none"/><path d="M 66.62555279408255 139.30310188499163 L 72.8617732665235 139.30310188499163 L 72.8617732665235 145.53932235743258 L 66.62555279408255 145.53932235743258 Z" fill="#EE6677" fill-opacity="0.85" stroke="none"/><path d="M 66.62555279408255 148.04552612741588 L 72.8617732665235 148.04552612741588 L 72.8617732665235 154.28174659985683 L 66.62555279408255 154.28174659985683 Z" fill="#EE6677" fill-opacity="0.85" stroke="none"/><path d="M 66.62555279408255 148.04552612741588 L 72.8617732665235 148.04552612741588 L 72.8617732665235 154.28174659985683 L 66.62555279408255 154.28174659985683 Z" fill="#EE6677" fill-opacity="0.85" stroke="none"/><path d="M 66.62555279408255 174.27279885468857 L 72.8617732665235 174.27279885468857 L 72.8617732665235 180.50901932712955 L 66.62555279408255 180.50901932712955 Z" fill="#EE6677" fill-opacity="0.85" stroke="none"/><path d="M 66.62555279408255 148.04552612741588 L 72.8617732665235 148.04552612741588 L 72.8617732665235 154.28174659985683 L 66.62555279408255 154.28174659985683 Z" fill="#EE6677" fill-opacity="0.85" stroke="none"/><path d="M 83.95666121159097 130.56067764256738 L 90.1928816840319 130.56067764256738 L 90.1928816840319 136.79689811500833 L 83.95666121159097 136.79689811500833 Z" fill="#EE6677" fill-opacity="0.85" stroke="none"/><path d="M 83.95666121159097 113.0758291577189 L 90.1928816840319 113.0758291577189 L 90.1928816840319 119.31204963015983 L 83.95666121159097 119.31204963015983 Z" fill="#EE6677" fill-opacity="0.85" stroke="none"/><path d="M 83.95666121159097 113.0758291577189 L 90.1928816840319 113.0758291577189 L 90.1928816840319 119.31204963015983 L 83.95666121159097 119.31204963015983 Z" fill="#EE6677" fill-opacity="0.85" stroke="none"/><path d="M 101.28776962909939 174.27279885468857 L 107.5239901015403 174.27279885468857 L 107.5239901015403 180.50901932712955 L 101.28776962909939 180.50901932712955 Z" fill="#EE6677" fill-opacity="0.85" stroke="none"/><path d="M 135.94998646411622 200.50007158196132 L 142.18620693655714 200.50007158196132 L 142.18620693655714 206.7362920544023 L 135.94998646411622 206.7362920544023 Z" fill="#EE6677" fill-opacity="0.85" stroke="none"/><path d="M 135.94998646411622 191.75764733953704 L 142.18620693655714 191.75764733953704 L 142.18620693655714 197.99386781197802 L 135.94998646411622 197.99386781197802 Z" fill="#EE6677" fill-opacity="0.85" stroke="none"/><path d="M 135.94998646411622 165.53037461226438 L 142.18620693655714 165.53037461226438 L 142.18620693655714 171.76659508470533 L 135.94998646411622 171.76659508470533 Z" fill="#EE6677" fill-opacity="0.85" stroke="none"/><path d="M 135.94998646411622 156.78795036984013 L 142.18620693655714 156.78795036984013 L 142.18620693655714 163.02417084228108 L 135.94998646411622 163.02417084228108 Z" fill="#EE6677" fill-opacity="0.85" stroke="none"/><path d="M 144.61554067287042 200.50007158196132 L 150.85176114531134 200.50007158196132 L 150.85176114531134 206.7362920544023 L 144.61554067287042 206.7362920544023 Z" fill="#EE6677" fill-opacity="0.85" stroke="none"/><path d="M 144.61554067287042 200.50007158196132 L 150.85176114531134 200.50007158196132 L 150.85176114531134 206.7362920544023 L 144.61554067287042 206.7362920544023 Z" fill="#EE6677" fill-opacity="0.85" stroke="none"/><path d="M 213.93997434290407 183.01522309711282 L 220.176194815345 183.01522309711282 L 220.176194815345 189.2514435695538 L 213.93997434290407 189.2514435695538 Z" fill="#EE6677" fill-opacity="0.85" stroke="none"/><path d="M 101.28776962909939 200.50007158196132 L 107.5239901015403 200.50007158196132 L 107.5239901015403 206.7362920544023 L 101.28776962909939 206.7362920544023 Z" fill="#EE6677" fill-opacity="0.85" stroke="none"/><path d="M 101.28776962909939 174.27279885468857 L 107.5239901015403 174.27279885468857 L 107.5239901015403 180.50901932712955 L 101.28776962909939 180.50901932712955 Z" fill="#EE6677" fill-opacity="0.85" stroke="none"/><path d="M 101.28776962909939 183.01522309711282 L 107.5239901015403 183.01522309711282 L 107.5239901015403 189.2514435695538 L 101.28776962909939 189.2514435695538 Z" fill="#EE6677" fill-opacity="0.85" stroke="none"/><path d="M 101.28776962909939 191.75764733953704 L 107.5239901015403 191.75764733953704 L 107.5239901015403 197.99386781197802 L 101.28776962909939 197.99386781197802 Z" fill="#EE6677" fill-opacity="0.85" stroke="none"/><path d="M 161.94664909037886 217.98492006680982 L 168.1828695628198 217.98492006680982 L 168.1828695628198 224.2211405392508 L 161.94664909037886 224.2211405392508 Z" fill="#EE6677" fill-opacity="0.85" stroke="none"/><path d="M 161.94664909037886 217.98492006680982 L 168.1828695628198 217.98492006680982 L 168.1828695628198 224.2211405392508 L 161.94664909037886 224.2211405392508 Z" fill="#EE6677" fill-opacity="0.85" stroke="none"/><path d="M 161.94664909037886 217.98492006680982 L 168.1828695628198 217.98492006680982 L 168.1828695628198 224.2211405392508 L 161.94664909037886 224.2211405392508 Z" fill="#EE6677" fill-opacity="0.85" stroke="none"/><circle cx="191.06142195286193" cy="238.58787878787876" r="3.1181102362204727" fill="#4477AA" fill-opacity="0.85" stroke="none"><title>(3, 22)</title></circle><circle cx="251.72030141414143" cy="264.8151515151515" r="3.1181102362204727" fill="#4477AA" fill-opacity="0.85" stroke="none"><title>(3.7, 19)</title></circle><circle cx="277.71696404040404" cy="256.07272727272726" r="3.1181102362204727" fill="#4477AA" fill-opacity="0.85" stroke="none"><title>(4, 20)</title></circle><circle cx="338.37584350168345" cy="282.29999999999995" r="3.1181102362204727" fill="#4477AA" fill-opacity="0.85" stroke="none"><title>(4.7, 17)</title></circle><circle cx="338.37584350168345" cy="326.0121212121212" r="3.1181102362204727" fill="#4477AA" fill-opacity="0.85" stroke="none"><title>(4.7, 12)</title></circle><circle cx="338.37584350168345" cy="264.8151515151515" r="3.1181102362204727" fill="#4477AA" fill-opacity="0.85" stroke="none"><title>(4.7, 19)</title></circle><circle cx="425.0313855892255" cy="273.55757575757576" r="3.1181102362204727" fill="#4477AA" fill-opacity="0.85" stroke="none"><title>(5.7, 18)</title></circle><circle cx="459.69360242424233" cy="308.5272727272727" r="3.1181102362204727" fill="#4477AA" fill-opacity="0.85" stroke="none"><title>(6.1, 14)</title></circle><circle cx="277.71696404040404" cy="299.78484848484845" r="3.1181102362204727" fill="#4477AA" fill-opacity="0.85" stroke="none"><title>(4, 15)</title></circle><circle cx="295.04807245791244" cy="273.55757575757576" r="3.1181102362204727" fill="#4477AA" fill-opacity="0.85" stroke="none"><title>(4.2, 18)</title></circle><circle cx="312.3791808754209" cy="273.55757575757576" r="3.1181102362204727" fill="#4477AA" fill-opacity="0.85" stroke="none"><title>(4.4, 18)</title></circle><circle cx="329.71028929292925" cy="299.78484848484845" r="3.1181102362204727" fill="#4477AA" fill-opacity="0.85" stroke="none"><title>(4.6, 15)</title></circle><path d="M 399.034722962963 279.1818897637795 L 402.1528331991834 285.41811023622046 L 395.9166127267425 285.41811023622046 Z" fill="#228833" fill-opacity="0.85" stroke="none"/><path d="M 399.034722962963 287.92431400620376 L 402.1528331991834 294.1605344786447 L 395.9166127267425 294.1605344786447 Z" fill="#228833" fill-opacity="0.85" stroke="none"/><path d="M 399.034722962963 270.43946552135526 L 402.1528331991834 276.67568599379626 L 395.9166127267425 276.67568599379626 Z" fill="#228833" fill-opacity="0.85" stroke="none"/><circle cx="277.71696404040404" cy="282.29999999999995" r="3.1181102362204727" fill="#4477AA" fill-opacity="0.85" stroke="none"><title>(4, 17)</title></circle><circle cx="277.71696404040404" cy="264.8151515151515" r="3.1181102362204727" fill="#4477AA" fill-opacity="0.85" stroke="none"><title>(4, 19)</title></circle><circle cx="329.71028929292925" cy="264.8151515151515" r="3.1181102362204727" fill="#4477AA" fill-opacity="0.85" stroke="none"><title>(4.6, 19)</title></circle><circle cx="364.3725061279461" cy="282.29999999999995" r="3.1181102362204727" fill="#4477AA" fill-opacity="0.85" stroke="none"><title>(5, 17)</title></circle><path d="M 135.94998646411622 174.27279885468857 L 142.18620693655714 174.27279885468857 L 142.18620693655714 180.50901932712955 L 135.94998646411622 180.50901932712955 Z" fill="#EE6677" fill-opacity="0.85" stroke="none"/><path d="M 135.94998646411622 191.75764733953704 L 142.18620693655714 191.75764733953704 L 142.18620693655714 197.99386781197802 L 135.94998646411622 197.99386781197802 Z" fill="#EE6677" fill-opacity="0.85" stroke="none"/><path d="M 144.61554067287042 156.78795036984013 L 150.85176114531134 156.78795036984013 L 150.85176114531134 163.02417084228108 L 144.61554067287042 163.02417084228108 Z" fill="#EE6677" fill-opacity="0.85" stroke="none"/><path d="M 144.61554067287042 148.04552612741588 L 150.85176114531134 148.04552612741588 L 150.85176114531134 154.28174659985683 L 144.61554067287042 154.28174659985683 Z" fill="#EE6677" fill-opacity="0.85" stroke="none"/><path d="M 231.2710827604125 191.75764733953704 L 237.50730323285347 191.75764733953704 L 237.50730323285347 197.99386781197802 L 231.2710827604125 197.99386781197802 Z" fill="#EE6677" fill-opacity="0.85" stroke="none"/><path d="M 231.2710827604125 200.50007158196132 L 237.50730323285347 200.50007158196132 L 237.50730323285347 206.7362920544023 L 231.2710827604125 206.7362920544023 Z" fill="#EE6677" fill-opacity="0.85" stroke="none"/><path d="M 187.94331171664146 200.50007158196132 L 194.1795321890824 200.50007158196132 L 194.1795321890824 206.7362920544023 L 187.94331171664146 206.7362920544023 Z" fill="#EE6677" fill-opacity="0.85" stroke="none"/><path d="M 187.94331171664146 209.24249582438557 L 194.1795321890824 209.24249582438557 L 194.1795321890824 215.47871629682655 L 187.94331171664146 215.47871629682655 Z" fill="#EE6677" fill-opacity="0.85" stroke="none"/><path d="M 231.2710827604125 209.24249582438557 L 237.50730323285347 209.24249582438557 L 237.50730323285347 215.47871629682655 L 231.2710827604125 215.47871629682655 Z" fill="#EE6677" fill-opacity="0.85" stroke="none"/><circle cx="217.05808457912454" cy="282.29999999999995" r="3.1181102362204727" fill="#4477AA" fill-opacity="0.85" stroke="none"><title>(3.3, 17)</title></circle><circle cx="217.05808457912454" cy="282.29999999999995" r="3.1181102362204727" fill="#4477AA" fill-opacity="0.85" stroke="none"><title>(3.3, 17)</title></circle><circle cx="277.71696404040404" cy="256.07272727272726" r="3.1181102362204727" fill="#4477AA" fill-opacity="0.85" stroke="none"><title>(4, 20)</title></circle><circle cx="416.3658313804713" cy="273.55757575757576" r="3.1181102362204727" fill="#4477AA" fill-opacity="0.85" stroke="none"><title>(5.6, 18)</title></circle><path d="M 196.6088659253957 200.50007158196132 L 202.84508639783667 200.50007158196132 L 202.84508639783667 206.7362920544023 L 196.6088659253957 206.7362920544023 Z" fill="#EE6677" fill-opacity="0.85" stroke="none"/><path d="M 257.2677453866751 200.50007158196132 L 263.5039658591161 200.50007158196132 L 263.5039658591161 206.7362920544023 L 257.2677453866751 206.7362920544023 Z" fill="#EE6677" fill-opacity="0.85" stroke="none"/><path d="M 257.2677453866751 191.75764733953704 L 263.5039658591161 191.75764733953704 L 263.5039658591161 197.99386781197802 L 257.2677453866751 197.99386781197802 Z" fill="#EE6677" fill-opacity="0.85" stroke="none"/><path d="M 257.2677453866751 183.01522309711282 L 263.5039658591161 183.01522309711282 L 263.5039658591161 189.2514435695538 L 257.2677453866751 189.2514435695538 Z" fill="#EE6677" fill-opacity="0.85" stroke="none"/><path d="M 387.25105851798827 209.24249582438557 L 393.48727899042916 209.24249582438557 L 393.48727899042916 215.47871629682655 L 387.25105851798827 215.47871629682655 Z" fill="#EE6677" fill-opacity="0.85" stroke="none"/><circle cx="147.7336509090909" cy="212.36060606060607" r="3.1181102362204727" fill="#4477AA" fill-opacity="0.85" stroke="none"><title>(2.5, 25)</title></circle><circle cx="147.7336509090909" cy="221.10303030303032" r="3.1181102362204727" fill="#4477AA" fill-opacity="0.85" stroke="none"><title>(2.5, 24)</title></circle><circle cx="147.7336509090909" cy="194.87575757575752" r="3.1181102362204727" fill="#4477AA" fill-opacity="0.85" stroke="none"><title>(2.5, 27)</title></circle><circle cx="147.7336509090909" cy="212.36060606060607" r="3.1181102362204727" fill="#4477AA" fill-opacity="0.85" stroke="none"><title>(2.5, 25)</title></circle><circle cx="147.7336509090909" cy="203.61818181818182" r="3.1181102362204727" fill="#4477AA" fill-opacity="0.85" stroke="none"><title>(2.5, 26)</title></circle><circle cx="147.7336509090909" cy="229.84545454545452" r="3.1181102362204727" fill="#4477AA" fill-opacity="0.85" stroke="none"><title>(2.5, 23)</title></circle><circle cx="121.73698828282829" cy="203.61818181818182" r="3.1181102362204727" fill="#4477AA" fill-opacity="0.85" stroke="none"><title>(2.2, 26)</title></circle><circle cx="121.73698828282829" cy="203.61818181818182" r="3.1181102362204727" fill="#4477AA" fill-opacity="0.85" stroke="none"><title>(2.2, 26)</title></circle><circle cx="147.7336509090909" cy="203.61818181818182" r="3.1181102362204727" fill="#4477AA" fill-opacity="0.85" stroke="none"><title>(2.5, 26)</title></circle><circle cx="147.7336509090909" cy="203.61818181818182" r="3.1181102362204727" fill="#4477AA" fill-opacity="0.85" stroke="none"><title>(2.5, 26)</title></circle><circle cx="147.7336509090909" cy="212.36060606060607" r="3.1181102362204727" fill="#4477AA" fill-opacity="0.85" stroke="none"><title>(2.5, 25)</title></circle><circle cx="147.7336509090909" cy="194.87575757575752" r="3.1181102362204727" fill="#4477AA" fill-opacity="0.85" stroke="none"><title>(2.5, 27)</title></circle><circle cx="147.7336509090909" cy="212.36060606060607" r="3.1181102362204727" fill="#4477AA" fill-opacity="0.85" stroke="none"><title>(2.5, 25)</title></circle><circle cx="147.7336509090909" cy="194.87575757575752" r="3.1181102362204727" fill="#4477AA" fill-opacity="0.85" stroke="none"><title>(2.5, 27)</title></circle><circle cx="165.06475932659933" cy="256.07272727272726" r="3.1181102362204727" fill="#4477AA" fill-opacity="0.85" stroke="none"><title>(2.7, 20)</title></circle><circle cx="165.06475932659933" cy="256.07272727272726" r="3.1181102362204727" fill="#4477AA" fill-opacity="0.85" stroke="none"><title>(2.7, 20)</title></circle><circle cx="225.72363878787877" cy="264.8151515151515" r="3.1181102362204727" fill="#4477AA" fill-opacity="0.85" stroke="none"><title>(3.4, 19)</title></circle><circle cx="225.72363878787877" cy="282.29999999999995" r="3.1181102362204727" fill="#4477AA" fill-opacity="0.85" stroke="none"><title>(3.4, 17)</title></circle><circle cx="277.71696404040404" cy="256.07272727272726" r="3.1181102362204727" fill="#4477AA" fill-opacity="0.85" stroke="none"><title>(4, 20)</title></circle><circle cx="338.37584350168345" cy="282.29999999999995" r="3.1181102362204727" fill="#4477AA" fill-opacity="0.85" stroke="none"><title>(4.7, 17)</title></circle><path d="M 118.61887804660782 174.27279885468857 L 124.85509851904875 174.27279885468857 L 124.85509851904875 180.50901932712955 L 118.61887804660782 180.50901932712955 Z" fill="#EE6677" fill-opacity="0.85" stroke="none"/><path d="M 118.61887804660782 191.75764733953704 L 124.85509851904875 191.75764733953704 L 124.85509851904875 197.99386781197802 L 118.61887804660782 197.99386781197802 Z" fill="#EE6677" fill-opacity="0.85" stroke="none"/><path d="M 135.94998646411622 156.78795036984013 L 142.18620693655714 156.78795036984013 L 142.18620693655714 163.02417084228108 L 135.94998646411622 163.02417084228108 Z" fill="#EE6677" fill-opacity="0.85" stroke="none"/><path d="M 135.94998646411622 156.78795036984013 L 142.18620693655714 156.78795036984013 L 142.18620693655714 163.02417084228108 L 135.94998646411622 163.02417084228108 Z" fill="#EE6677" fill-opacity="0.85" stroke="none"/><path d="M 187.94331171664146 200.50007158196132 L 194.1795321890824 200.50007158196132 L 194.1795321890824 206.7362920544023 L 187.94331171664146 206.7362920544023 Z" fill="#EE6677" fill-opacity="0.85" stroke="none"/><path d="M 187.94331171664146 200.50007158196132 L 194.1795321890824 200.50007158196132 L 194.1795321890824 206.7362920544023 L 187.94331171664146 206.7362920544023 Z" fill="#EE6677" fill-opacity="0.85" stroke="none"/><path d="M 231.2710827604125 183.01522309711282 L 237.50730323285347 183.01522309711282 L 237.50730323285347 189.2514435695538 L 231.2710827604125 189.2514435695538 Z" fill="#EE6677" fill-opacity="0.85" stroke="none"/><path d="M 118.61887804660782 191.75764733953704 L 124.85509851904875 191.75764733953704 L 124.85509851904875 197.99386781197802 L 118.61887804660782 197.99386781197802 Z" fill="#EE6677" fill-opacity="0.85" stroke="none"/><path d="M 118.61887804660782 174.27279885468857 L 124.85509851904875 174.27279885468857 L 124.85509851904875 180.50901932712955 L 118.61887804660782 180.50901932712955 Z" fill="#EE6677" fill-opacity="0.85" stroke="none"/><path d="M 135.94998646411622 156.78795036984013 L 142.18620693655714 156.78795036984013 L 142.18620693655714 163.02417084228108 L 135.94998646411622 163.02417084228108 Z" fill="#EE6677" fill-opacity="0.85" stroke="none"/><path d="M 135.94998646411622 156.78795036984013 L 142.18620693655714 156.78795036984013 L 142.18620693655714 163.02417084228108 L 135.94998646411622 163.02417084228108 Z" fill="#EE6677" fill-opacity="0.85" stroke="none"/><path d="M 187.94331171664146 200.50007158196132 L 194.1795321890824 200.50007158196132 L 194.1795321890824 206.7362920544023 L 187.94331171664146 206.7362920544023 Z" fill="#EE6677" fill-opacity="0.85" stroke="none"/><path d="M 187.94331171664146 200.50007158196132 L 194.1795321890824 200.50007158196132 L 194.1795321890824 206.7362920544023 L 187.94331171664146 206.7362920544023 Z" fill="#EE6677" fill-opacity="0.85" stroke="none"/><path d="M 213.93997434290407 191.75764733953704 L 220.176194815345 191.75764733953704 L 220.176194815345 197.99386781197802 L 213.93997434290407 197.99386781197802 Z" fill="#EE6677" fill-opacity="0.85" stroke="none"/><path d="M 83.95666121159097 165.53037461226438 L 90.1928816840319 165.53037461226438 L 90.1928816840319 171.76659508470533 L 83.95666121159097 171.76659508470533 Z" fill="#EE6677" fill-opacity="0.85" stroke="none"/><path d="M 83.95666121159097 139.30310188499163 L 90.1928816840319 139.30310188499163 L 90.1928816840319 145.53932235743258 L 83.95666121159097 145.53932235743258 Z" fill="#EE6677" fill-opacity="0.85" stroke="none"/><path d="M 83.95666121159097 121.81825340014315 L 90.1928816840319 121.81825340014315 L 90.1928816840319 128.05447387258408 L 83.95666121159097 128.05447387258408 Z" fill="#EE6677" fill-opacity="0.85" stroke="none"/><path d="M 83.95666121159097 104.3334049152947 L 90.1928816840319 104.3334049152947 L 90.1928816840319 110.56962538773561 L 83.95666121159097 110.56962538773561 Z" fill="#EE6677" fill-opacity="0.85" stroke="none"/><path d="M 83.95666121159097 121.81825340014315 L 90.1928816840319 121.81825340014315 L 90.1928816840319 128.05447387258408 L 83.95666121159097 128.05447387258408 Z" fill="#EE6677" fill-opacity="0.85" stroke="none"/><circle cx="338.37584350168345" cy="299.78484848484845" r="3.1181102362204727" fill="#4477AA" fill-opacity="0.85" stroke="none"><title>(4.7, 15)</title></circle><circle cx="425.0313855892255" cy="273.55757575757576" r="3.1181102362204727" fill="#4477AA" fill-opacity="0.85" stroke="none"><title>(5.7, 18)</title></circle><circle cx="165.06475932659933" cy="256.07272727272726" r="3.1181102362204727" fill="#4477AA" fill-opacity="0.85" stroke="none"><title>(2.7, 20)</title></circle><circle cx="165.06475932659933" cy="256.07272727272726" r="3.1181102362204727" fill="#4477AA" fill-opacity="0.85" stroke="none"><title>(2.7, 20)</title></circle><circle cx="165.06475932659933" cy="238.58787878787876" r="3.1181102362204727" fill="#4477AA" fill-opacity="0.85" stroke="none"><title>(2.7, 22)</title></circle><circle cx="225.72363878787877" cy="282.29999999999995" r="3.1181102362204727" fill="#4477AA" fill-opacity="0.85" stroke="none"><title>(3.4, 17)</title></circle><circle cx="225.72363878787877" cy="264.8151515151515" r="3.1181102362204727" fill="#4477AA" fill-opacity="0.85" stroke="none"><title>(3.4, 19)</title></circle><circle cx="277.71696404040404" cy="273.55757575757576" r="3.1181102362204727" fill="#4477AA" fill-opacity="0.85" stroke="none"><title>(4, 18)</title></circle><circle cx="277.71696404040404" cy="256.07272727272726" r="3.1181102362204727" fill="#4477AA" fill-opacity="0.85" stroke="none"><title>(4, 20)</title></circle><path d="M 101.28776962909939 174.27279885468857 L 107.5239901015403 174.27279885468857 L 107.5239901015403 180.50901932712955 L 101.28776962909939 180.50901932712955 Z" fill="#EE6677" fill-opacity="0.85" stroke="none"/><path d="M 101.28776962909939 200.50007158196132 L 107.5239901015403 200.50007158196132 L 107.5239901015403 206.7362920544023 L 101.28776962909939 206.7362920544023 Z" fill="#EE6677" fill-opacity="0.85" stroke="none"/><path d="M 101.28776962909939 174.27279885468857 L 107.5239901015403 174.27279885468857 L 107.5239901015403 180.50901932712955 L 101.28776962909939 180.50901932712955 Z" fill="#EE6677" fill-opacity="0.85" stroke="none"/><path d="M 101.28776962909939 174.27279885468857 L 107.5239901015403 174.27279885468857 L 107.5239901015403 180.50901932712955 L 101.28776962909939 180.50901932712955 Z" fill="#EE6677" fill-opacity="0.85" stroke="none"/><path d="M 170.61220329913303 217.98492006680982 L 176.84842377157398 217.98492006680982 L 176.84842377157398 224.2211405392508 L 170.61220329913303 224.2211405392508 Z" fill="#EE6677" fill-opacity="0.85" stroke="none"/><path d="M 92.62221542034519 43.136435218324976 L 98.8584358927861 43.136435218324976 L 98.8584358927861 49.372655690765924 L 92.62221542034519 49.372655690765924 Z" fill="#EE6677" fill-opacity="0.85" stroke="none"/><path d="M 101.28776962909939 174.27279885468857 L 107.5239901015403 174.27279885468857 L 107.5239901015403 180.50901932712955 L 101.28776962909939 180.50901932712955 Z" fill="#EE6677" fill-opacity="0.85" stroke="none"/><path d="M 101.28776962909939 200.50007158196132 L 107.5239901015403 200.50007158196132 L 107.5239901015403 206.7362920544023 L 101.28776962909939 206.7362920544023 Z" fill="#EE6677" fill-opacity="0.85" stroke="none"/><path d="M 101.28776962909939 174.27279885468857 L 107.5239901015403 174.27279885468857 L 107.5239901015403 180.50901932712955 L 101.28776962909939 180.50901932712955 Z" fill="#EE6677" fill-opacity="0.85" stroke="none"/><path d="M 101.28776962909939 174.27279885468857 L 107.5239901015403 174.27279885468857 L 107.5239901015403 180.50901932712955 L 101.28776962909939 180.50901932712955 Z" fill="#EE6677" fill-opacity="0.85" stroke="none"/><path d="M 144.61554067287042 174.27279885468857 L 150.85176114531134 174.27279885468857 L 150.85176114531134 180.50901932712955 L 144.61554067287042 180.50901932712955 Z" fill="#EE6677" fill-opacity="0.85" stroke="none"/><path d="M 144.61554067287042 174.27279885468857 L 150.85176114531134 174.27279885468857 L 150.85176114531134 180.50901932712955 L 144.61554067287042 180.50901932712955 Z" fill="#EE6677" fill-opacity="0.85" stroke="none"/><path d="M 170.61220329913303 226.72734430923404 L 176.84842377157398 226.72734430923404 L 176.84842377157398 232.96356478167502 L 170.61220329913303 232.96356478167502 Z" fill="#EE6677" fill-opacity="0.85" stroke="none"/><path d="M 170.61220329913303 217.98492006680982 L 176.84842377157398 217.98492006680982 L 176.84842377157398 224.2211405392508 L 170.61220329913303 224.2211405392508 Z" fill="#EE6677" fill-opacity="0.85" stroke="none"/><path d="M 92.62221542034519 43.136435218324976 L 98.8584358927861 43.136435218324976 L 98.8584358927861 49.372655690765924 L 92.62221542034519 49.372655690765924 Z" fill="#EE6677" fill-opacity="0.85" stroke="none"/><path d="M 92.62221542034519 69.36370794559772 L 98.8584358927861 69.36370794559772 L 98.8584358927861 75.59992841803867 L 92.62221542034519 75.59992841803867 Z" fill="#EE6677" fill-opacity="0.85" stroke="none"/><path d="M 101.28776962909939 174.27279885468857 L 107.5239901015403 174.27279885468857 L 107.5239901015403 180.50901932712955 L 101.28776962909939 180.50901932712955 Z" fill="#EE6677" fill-opacity="0.85" stroke="none"/><path d="M 101.28776962909939 200.50007158196132 L 107.5239901015403 200.50007158196132 L 107.5239901015403 206.7362920544023 L 101.28776962909939 206.7362920544023 Z" fill="#EE6677" fill-opacity="0.85" stroke="none"/><path d="M 144.61554067287042 183.01522309711282 L 150.85176114531134 183.01522309711282 L 150.85176114531134 189.2514435695538 L 144.61554067287042 189.2514435695538 Z" fill="#EE6677" fill-opacity="0.85" stroke="none"/><path d="M 144.61554067287042 174.27279885468857 L 150.85176114531134 174.27279885468857 L 150.85176114531134 180.50901932712955 L 144.61554067287042 180.50901932712955 Z" fill="#EE6677" fill-opacity="0.85" stroke="none"/><path d="M 83.95666121159097 174.27279885468857 L 90.1928816840319 174.27279885468857 L 90.1928816840319 180.50901932712955 L 83.95666121159097 180.50901932712955 Z" fill="#EE6677" fill-opacity="0.85" stroke="none"/><path d="M 83.95666121159097 174.27279885468857 L 90.1928816840319 174.27279885468857 L 90.1928816840319 180.50901932712955 L 83.95666121159097 180.50901932712955 Z" fill="#EE6677" fill-opacity="0.85" stroke="none"/><path d="M 101.28776962909939 183.01522309711282 L 107.5239901015403 183.01522309711282 L 107.5239901015403 189.2514435695538 L 101.28776962909939 189.2514435695538 Z" fill="#EE6677" fill-opacity="0.85" stroke="none"/><path d="M 101.28776962909939 174.27279885468857 L 107.5239901015403 174.27279885468857 L 107.5239901015403 180.50901932712955 L 101.28776962909939 180.50901932712955 Z" fill="#EE6677" fill-opacity="0.85" stroke="none"/><path d="M 170.61220329913303 200.50007158196132 L 176.84842377157398 200.50007158196132 L 176.84842377157398 206.7362920544023 L 170.61220329913303 206.7362920544023 Z" fill="#EE6677" fill-opacity="0.85" stroke="none"/><path d="M 170.61220329913303 200.50007158196132 L 176.84842377157398 200.50007158196132 L 176.84842377157398 206.7362920544023 L 170.61220329913303 206.7362920544023 Z" fill="#EE6677" fill-opacity="0.85" stroke="none"/><path d="M 239.9366369691667 200.50007158196132 L 246.17285744160768 200.50007158196132 L 246.17285744160768 206.7362920544023 L 239.9366369691667 206.7362920544023 Z" fill="#EE6677" fill-opacity="0.85" stroke="none"/><text x="575.7472533333332" y="155.12888" fill="#4d4d4d" font-size="14.666666666666666" font-family="sans-serif" text-anchor="start">drive</text><rect x="575.7472533333332" y="162.46221333333335" width="23.114079999999994" height="69.34223999999998" fill="#ebebeb" fill-opacity="1.0" stroke="none"/><rect x="575.7472533333332" y="162.46221333333335" width="23.114079999999994" height="23.114079999999994" fill="#f2f2f2" fill-opacity="1.0" stroke="none"/><circle cx="587.3042933333332" cy="174.01925333333332" r="3.1181102362204727" fill="#4477AA" fill-opacity="1.0" stroke="none"/><text x="602.5279999999999" y="177.77392" fill="#4d4d4d" font-size="11.733333333333334" font-family="sans-serif" text-anchor="start">4</text><rect x="575.7472533333332" y="185.57629333333333" width="23.114079999999994" height="23.114079999999994" fill="#f2f2f2" fill-opacity="1.0" stroke="none"/><path d="M 584.1861830971128 194.01522309711282 L 590.4224035695537 194.01522309711282 L 590.4224035695537 200.2514435695538 L 584.1861830971128 200.2514435695538 Z" fill="#EE6677" fill-opacity="1.0" stroke="none"/><text x="602.5279999999999" y="200.88799999999998" fill="#4d4d4d" font-size="11.733333333333334" font-family="sans-serif" text-anchor="start">f</text><rect x="575.7472533333332" y="208.69037333333335" width="23.114079999999994" height="23.114079999999994" fill="#f2f2f2" fill-opacity="1.0" stroke="none"/><path d="M 587.3042933333332 217.12930309711285 L 590.4224035695537 223.36552356955383 L 584.1861830971128 223.36552356955383 Z" fill="#228833" fill-opacity="1.0" stroke="none"/><text x="602.5279999999999" y="224.00208" fill="#4d4d4d" font-size="11.733333333333334" font-family="sans-serif" text-anchor="start">r</text></svg>