<svg xmlns="http://www.w3.org/2000/svg" width="624" height="384" viewBox="0 0 624 384"><rect x="0.0" y="0.0" width="624.0" height="384.0" fill="#ffffff" fill-opacity="1.0" stroke="none"/><rect x="46.346666666666664" y="32.266666666666666" width="514.7339199999999" height="307.73333333333335" fill="#ebebeb" fill-opacity="1.0" stroke="none"/><line x1="110.68840666666665" y1="32.266666666666666" x2="110.68840666666665" y2="340.0" stroke="#ffffff" stroke-width="0.6666666666666666"/><line x1="239.37188666666663" y1="32.266666666666666" x2="239.37188666666663" y2="340.0" stroke="#ffffff" stroke-width="0.6666666666666666"/><line x1="368.0553666666666" y1="32.266666666666666" x2="368.0553666666666" y2="340.0" stroke="#ffffff" stroke-width="0.6666666666666666"/><line x1="496.73884666666663" y1="32.266666666666666" x2="496.73884666666663" y2="340.0" stroke="#ffffff" stroke-width="0.6666666666666666"/><line x1="46.346666666666664" y1="32.266666666666666" x2="46.346666666666664" y2="340.0" stroke="#ffffff" stroke-width="1.3333333333333333"/><line x1="175.03014666666664" y1="32.266666666666666" x2="175.03014666666664" y2="340.0" stroke="#ffffff" stroke-width="1.3333333333333333"/><line x1="303.71362666666664" y1="32.266666666666666" x2="303.71362666666664" y2="340.0" stroke="#ffffff" stroke-width="1.3333333333333333"/><line x1="432.3971066666666" y1="32.266666666666666" x2="432.3971066666666" y2="340.0" stroke="#ffffff" stroke-width="1.3333333333333333"/><line x1="561.0805866666666" y1="32.266666666666666" x2="561.0805866666666" y2="340.0" stroke="#ffffff" stroke-width="1.3333333333333333"/><line x1="46.346666666666664" y1="288.7111111111111" x2="561.0805866666666" y2="288.7111111111111" stroke="#ffffff" stroke-width="0.6666666666666666"/><line x1="46.346666666666664" y1="186.13333333333333" x2="561.0805866666666" y2="186.13333333333333" stroke="#ffffff" stroke-width="0.6666666666666666"/><line x1="46.346666666666664" y1="83.55555555555554" x2="561.0805866666666" y2="83.55555555555554" stroke="#ffffff" stroke-width="0.6666666666666666"/><line x1="46.346666666666664" y1="340.0" x2="561.0805866666666" y2="340.0" stroke="#ffffff" stroke-width="1.3333333333333333"/><line x1="46.346666666666664" y1="237.42222222222222" x2="561.0805866666666" y2="237.42222222222222" stroke="#ffffff" stroke-width="1.3333333333333333"/><line x1="46.346666666666664" y1="134.84444444444443" x2="561.0805866666666" y2="134.84444444444443" stroke="#ffffff" stroke-width="1.3333333333333333"/><line x1="46.346666666666664" y1="32.26666666666665" x2="561.0805866666666" y2="32.26666666666665" stroke="#ffffff" stroke-width="1.3333333333333333"/><line x1="46.346666666666664" y1="340.0" x2="46.346666666666664" y2="343.66666666666663" stroke="#333333" stroke-width="1.3333333333333333"/><text x="46.346666666666664" y="355.9866666666667" fill="#4d4d4d" font-size="11.733333333333334" font-family="sans-serif" text-anchor="middle">5.0</text><line x1="175.03014666666664" y1="340.0" x2="175.03014666666664" y2="343.66666666666663" stroke="#333333" stroke-width="1.3333333333333333"/><text x="175.03014666666664" y="355.9866666666667" fill="#4d4d4d" font-size="11.733333333333334" font-family="sans-serif" text-anchor="middle">5.5</text><line x1="303.71362666666664" y1="340.0" x2="303.71362666666664" y2="343.66666666666663" stroke="#333333" stroke-width="1.3333333333333333"/><text x="303.71362666666664" y="355.9866666666667" fill="#4d4d4d" font-size="11.733333333333334" font-family="sans-serif" text-anchor="middle">6.0</text><line x1="432.3971066666666" y1="340.0" x2="432.3971066666666" y2="343.66666666666663" stroke="#333333" stroke-width="1.3333333333333333"/><text x="432.3971066666666" y="355.9866666666667" fill="#4d4d4d" font-size="11.733333333333334" font-family="sans-serif" text-anchor="middle">6.5</text><line x1="561.0805866666666" y1="340.0" x2="561.0805866666666" y2="343.66666666666663" stroke="#333333" stroke-width="1.3333333333333333"/><text x="561.0805866666666" y="355.9866666666667" fill="#4d4d4d" font-size="11.733333333333334" font-family="sans-serif" text-anchor="middle">7.0</text><line x1="46.346666666666664" y1="340.0" x2="42.67999999999999" y2="340.0" stroke="#333333" stroke-width="1.3333333333333333"/><text x="39.74666666666666" y="344.1066666666666" fill="#4d4d4d" font-size="11.733333333333334" font-family="sans-serif" text-anchor="end">10</text><line x1="46.346666666666664" y1="237.42222222222222" x2="42.67999999999999" y2="237.42222222222222" stroke="#333333" stroke-width="1.3333333333333333"/><text x="39.74666666666666" y="241.5288888888889" fill="#4d4d4d" font-size="11.733333333333334" font-family="sans-serif" text-anchor="end">15</text><line x1="46.346666666666664" y1="134.84444444444443" x2="42.67999999999999" y2="134.84444444444443" stroke="#333333" stroke-width="1.3333333333333333"/><text x="39.74666666666666" y="138.9511111111111" fill="#4d4d4d" font-size="11.733333333333334" font-family="sans-serif" text-anchor="end">20</text><line x1="46.346666666666664" y1="32.26666666666665" x2="42.67999999999999" y2="32.26666666666665" stroke="#333333" stroke-width="1.3333333333333333"/><text x="39.74666666666666" y="36.37333333333331" fill="#4d4d4d" font-size="11.733333333333334" font-family="sans-serif" text-anchor="end">25</text><text x="46.346666666666664" y="21.413333333333334" fill="#000000" font-size="17.599999999999998" font-family="sans-serif" text-anchor="start">coord_cartesian で拡大 (平滑線は全データのまま)</text><text x="303.71362666666664" y="373.73333333333335" fill="#000000" font-size="14.666666666666666" font-family="sans-serif" text-anchor="middle">displ</text><text x="17.599999999999998" y="186.13333333333333" fill="#000000" font-size="14.666666666666666" font-family="sans-serif" text-anchor="middle" transform="rotate(-90.0 17.599999999999998 186.13333333333333)">hwy</text><clipPath id="clip0"><rect x="46.346666666666664" y="32.266666666666666" width="514.7339199999999" height="307.73333333333335"/></clipPath><g clip-path="url(#clip0)"><circle cx="-777.2276053333333" cy="-49.79555555555559" r="3.1181102362204727" fill="#E69F00" fill-opacity="0.8" stroke="none"><title>(1.8, 29)</title></circle><circle cx="-777.2276053333333" cy="-49.79555555555559" r="3.1181102362204727" fill="#E69F00" fill-opacity="0.8" stroke="none"><title>(1.8, 29)</title></circle><circle cx="-725.7542133333333" cy="-90.82666666666667" r="3.1181102362204727" fill="#E69F00" fill-opacity="0.8" stroke="none"><title>(2, 31)</title></circle><circle cx="-725.7542133333333" cy="-70.31111111111113" r="3.1181102362204727" fill="#E69F00" fill-opacity="0.8" stroke="none"><title>(2, 30)</title></circle><circle cx="-519.8606453333333" cy="11.75111111111111" r="3.1181102362204727" fill="#E69F00" fill-opacity="0.8" stroke="none"><title>(2.8, 26)</title></circle><circle cx="-519.8606453333333" cy="11.75111111111111" r="3.1181102362204727" fill="#E69F00" fill-opacity="0.8" stroke="none"><title>(2.8, 26)</title></circle><circle cx="-442.65055733333327" cy="-8.76444444444443" r="3.1181102362204727" fill="#E69F00" fill-opacity="0.8" stroke="none"><title>(3.1, 27)</title></circle><circle cx="-777.2276053333333" cy="11.75111111111111" r="3.1181102362204727" fill="#000000" fill-opacity="0.8" stroke="none"><title>(1.8, 26)</title></circle><circle cx="-777.2276053333333" cy="32.26666666666665" r="3.1181102362204727" fill="#000000" fill-opacity="0.8" stroke="none"><title>(1.8, 25)</title></circle><circle cx="-725.7542133333333" cy="-29.279999999999973" r="3.1181102362204727" fill="#000000" fill-opacity="0.8" stroke="none"><title>(2, 28)</title></circle><circle cx="-725.7542133333333" cy="-8.76444444444443" r="3.1181102362204727" fill="#000000" fill-opacity="0.8" stroke="none"><title>(2, 27)</title></circle><circle cx="-519.8606453333333" cy="32.26666666666665" r="3.1181102362204727" fill="#000000" fill-opacity="0.8" stroke="none"><title>(2.8, 25)</title></circle><circle cx="-519.8606453333333" cy="32.26666666666665" r="3.1181102362204727" fill="#000000" fill-opacity="0.8" stroke="none"><title>(2.8, 25)</title></circle><circle cx="-442.65055733333327" cy="32.26666666666665" r="3.1181102362204727" fill="#000000" fill-opacity="0.8" stroke="none"><title>(3.1, 25)</title></circle><circle cx="-442.65055733333327" cy="32.26666666666665" r="3.1181102362204727" fill="#000000" fill-opacity="0.8" stroke="none"><title>(3.1, 25)</title></circle><circle cx="-519.8606453333333" cy="52.78222222222219" r="3.1181102362204727" fill="#000000" fill-opacity="0.8" stroke="none"><title>(2.8, 24)</title></circle><circle cx="-442.65055733333327" cy="32.26666666666665" r="3.1181102362204727" fill="#000000" fill-opacity="0.8" stroke="none"><title>(3.1, 25)</title></circle><circle cx="-159.5469013333333" cy="73.29777777777777" r="3.1181102362204727" fill="#000000" fill-opacity="0.8" stroke="none"><title>(4.2, 23)</title></circle><circle cx="123.55675466666662" cy="134.84444444444443" r="3.1181102362204727" fill="#56B4E9" fill-opacity="0.8" stroke="none"><title>(5.3, 20)</title></circle><circle cx="123.55675466666662" cy="237.42222222222222" r="3.1181102362204727" fill="#56B4E9" fill-opacity="0.8" stroke="none"><title>(5.3, 15)</title></circle><circle cx="123.55675466666662" cy="134.84444444444443" r="3.1181102362204727" fill="#56B4E9" fill-opacity="0.8" stroke="none"><title>(5.3, 20)</title></circle><circle cx="226.50353866666666" cy="196.3911111111111" r="3.1181102362204727" fill="#56B4E9" fill-opacity="0.8" stroke="none"><title>(5.7, 17)</title></circle><circle cx="303.71362666666664" cy="196.3911111111111" r="3.1181102362204727" fill="#56B4E9" fill-opacity="0.8" stroke="none"><title>(6, 17)</title></circle><circle cx="226.50353866666666" cy="11.75111111111111" r="3.1181102362204727" fill="#56B4E9" fill-opacity="0.8" stroke="none"><title>(5.7, 26)</title></circle><circle cx="226.50353866666666" cy="73.29777777777777" r="3.1181102362204727" fill="#56B4E9" fill-opacity="0.8" stroke="none"><title>(5.7, 23)</title></circle><circle cx="355.18701866666663" cy="11.75111111111111" r="3.1181102362204727" fill="#56B4E9" fill-opacity="0.8" stroke="none"><title>(6.2, 26)</title></circle><circle cx="355.18701866666663" cy="32.26666666666665" r="3.1181102362204727" fill="#56B4E9" fill-opacity="0.8" stroke="none"><title>(6.2, 25)</title></circle><circle cx="561.0805866666666" cy="52.78222222222219" r="3.1181102362204727" fill="#56B4E9" fill-opacity="0.8" stroke="none"><title>(7, 24)</title></circle><circle cx="123.55675466666662" cy="155.36" r="3.1181102362204727" fill="#000000" fill-opacity="0.8" stroke="none"><title>(5.3, 19)</title></circle><circle cx="123.55675466666662" cy="257.93777777777774" r="3.1181102362204727" fill="#000000" fill-opacity="0.8" stroke="none"><title>(5.3, 14)</title></circle><circle cx="226.50353866666666" cy="237.42222222222222" r="3.1181102362204727" fill="#000000" fill-opacity="0.8" stroke="none"><title>(5.7, 15)</title></circle><circle cx="432.3971066666666" cy="196.3911111111111" r="3.1181102362204727" fill="#000000" fill-opacity="0.8" stroke="none"><title>(6.5, 17)</title></circle><circle cx="-622.8074293333333" cy="-8.76444444444443" r="3.1181102362204727" fill="#E69F00" fill-opacity="0.8" stroke="none"><title>(2.4, 27)</title></circle><circle cx="-622.8074293333333" cy="-70.31111111111113" r="3.1181102362204727" fill="#E69F00" fill-opacity="0.8" stroke="none"><title>(2.4, 30)</title></circle><circle cx="-442.65055733333327" cy="11.75111111111111" r="3.1181102362204727" fill="#E69F00" fill-opacity="0.8" stroke="none"><title>(3.1, 26)</title></circle><circle cx="-339.7037733333333" cy="-49.79555555555559" r="3.1181102362204727" fill="#E69F00" fill-opacity="0.8" stroke="none"><title>(3.5, 29)</title></circle><circle cx="-313.9670773333333" cy="11.75111111111111" r="3.1181102362204727" fill="#E69F00" fill-opacity="0.8" stroke="none"><title>(3.6, 26)</title></circle><circle cx="-622.8074293333333" cy="52.78222222222219" r="3.1181102362204727" fill="#E69F00" fill-opacity="0.8" stroke="none"><title>(2.4, 24)</title></circle><circle cx="-468.3872533333333" cy="52.78222222222219" r="3.1181102362204727" fill="#E69F00" fill-opacity="0.8" stroke="none"><title>(3, 24)</title></circle><circle cx="-391.17716533333333" cy="93.8133333333333" r="3.1181102362204727" fill="#E69F00" fill-opacity="0.8" stroke="none"><title>(3.3, 22)</title></circle><circle cx="-391.17716533333333" cy="93.8133333333333" r="3.1181102362204727" fill="#E69F00" fill-opacity="0.8" stroke="none"><title>(3.3, 22)</title></circle><circle cx="-391.17716533333333" cy="52.78222222222219" r="3.1181102362204727" fill="#E69F00" fill-opacity="0.8" stroke="none"><title>(3.3, 24)</title></circle><circle cx="-391.17716533333333" cy="52.78222222222219" r="3.1181102362204727" fill="#E69F00" fill-opacity="0.8" stroke="none"><title>(3.3, 24)</title></circle><circle cx="-391.17716533333333" cy="196.3911111111111" r="3.1181102362204727" fill="#E69F00" fill-opacity="0.8" stroke="none"><title>(3.3, 17)</title></circle><circle cx="-262.49368533333336" cy="93.8133333333333" r="3.1181102362204727" fill="#E69F00" fill-opacity="0.8" stroke="none"><title>(3.8, 22)</title></circle><circle cx="-262.49368533333336" cy="114.32888888888888" r="3.1181102362204727" fill="#E69F00" fill-opacity="0.8" stroke="none"><title>(3.8, 21)</title></circle><circle cx="-262.49368533333336" cy="73.29777777777777" r="3.1181102362204727" fill="#E69F00" fill-opacity="0.8" stroke="none"><title>(3.8, 23)</title></circle><circle cx="-211.0202933333333" cy="73.29777777777777" r="3.1181102362204727" fill="#E69F00" fill-opacity="0.8" stroke="none"><title>(4, 23)</title></circle><circle cx="-288.2303813333333" cy="155.36" r="3.1181102362204727" fill="#000000" fill-opacity="0.8" stroke="none"><title>(3.7, 19)</title></circle><circle cx="-288.2303813333333" cy="175.87555555555554" r="3.1181102362204727" fill="#000000" fill-opacity="0.8" stroke="none"><title>(3.7, 18)</title></circle><circle cx="-236.75698933333334" cy="196.3911111111111" r="3.1181102362204727" fill="#000000" fill-opacity="0.8" stroke="none"><title>(3.9, 17)</title></circle><circle cx="-236.75698933333334" cy="196.3911111111111" r="3.1181102362204727" fill="#000000" fill-opacity="0.8" stroke="none"><title>(3.9, 17)</title></circle><circle cx="-30.86342133333328" cy="155.36" r="3.1181102362204727" fill="#000000" fill-opacity="0.8" stroke="none"><title>(4.7, 19)</title></circle><circle cx="-30.86342133333328" cy="155.36" r="3.1181102362204727" fill="#000000" fill-opacity="0.8" stroke="none"><title>(4.7, 19)</title></circle><circle cx="-30.86342133333328" cy="298.96888888888884" r="3.1181102362204727" fill="#000000" fill-opacity="0.8" stroke="none"><title>(4.7, 12)</title></circle><circle cx="97.82005866666671" cy="196.3911111111111" r="3.1181102362204727" fill="#000000" fill-opacity="0.8" stroke="none"><title>(5.2, 17)</title></circle><circle cx="97.82005866666671" cy="237.42222222222222" r="3.1181102362204727" fill="#000000" fill-opacity="0.8" stroke="none"><title>(5.2, 15)</title></circle><circle cx="-236.75698933333334" cy="196.3911111111111" r="3.1181102362204727" fill="#000000" fill-opacity="0.8" stroke="none"><title>(3.9, 17)</title></circle><circle cx="-30.86342133333328" cy="196.3911111111111" r="3.1181102362204727" fill="#000000" fill-opacity="0.8" stroke="none"><title>(4.7, 17)</title></circle><circle cx="-30.86342133333328" cy="298.96888888888884" r="3.1181102362204727" fill="#000000" fill-opacity="0.8" stroke="none"><title>(4.7, 12)</title></circle><circle cx="-30.86342133333328" cy="196.3911111111111" r="3.1181102362204727" fill="#000000" fill-opacity="0.8" stroke="none"><title>(4.7, 17)</title></circle><circle cx="97.82005866666671" cy="216.90666666666667" r="3.1181102362204727" fill="#000000" fill-opacity="0.8" stroke="none"><title>(5.2, 16)</title></circle><circle cx="226.50353866666666" cy="175.87555555555554" r="3.1181102362204727" fill="#000000" fill-opacity="0.8" stroke="none"><title>(5.7, 18)</title></circle><circle cx="277.9769306666667" cy="237.42222222222222" r="3.1181102362204727" fill="#000000" fill-opacity="0.8" stroke="none"><title>(5.9, 15)</title></circle><circle cx="-30.86342133333328" cy="216.90666666666667" r="3.1181102362204727" fill="#000000" fill-opacity="0.8" stroke="none"><title>(4.7, 16)</title></circle><circle cx="-30.86342133333328" cy="298.96888888888884" r="3.1181102362204727" fill="#000000" fill-opacity="0.8" stroke="none"><title>(4.7, 12)</title></circle><circle cx="-30.86342133333328" cy="196.3911111111111" r="3.1181102362204727" fill="#000000" fill-opacity="0.8" stroke="none"><title>(4.7, 17)</title></circle><circle cx="-30.86342133333328" cy="196.3911111111111" r="3.1181102362204727" fill="#000000" fill-opacity="0.8" stroke="none"><title>(4.7, 17)</title></circle><circle cx="-30.86342133333328" cy="216.90666666666667" r="3.1181102362204727" fill="#000000" fill-opacity="0.8" stroke="none"><title>(4.7, 16)</title></circle><circle cx="-30.86342133333328" cy="298.96888888888884" r="3.1181102362204727" fill="#000000" fill-opacity="0.8" stroke="none"><title>(4.7, 12)</title></circle><circle cx="97.82005866666671" cy="237.42222222222222" r="3.1181102362204727" fill="#000000" fill-opacity="0.8" stroke="none"><title>(5.2, 15)</title></circle><circle cx="97.82005866666671" cy="216.90666666666667" r="3.1181102362204727" fill="#000000" fill-opacity="0.8" stroke="none"><title>(5.2, 16)</title></circle><circle cx="226.50353866666666" cy="196.3911111111111" r="3.1181102362204727" fill="#000000" fill-opacity="0.8" stroke="none"><title>(5.7, 17)</title></circle><circle cx="277.9769306666667" cy="237.42222222222222" r="3.1181102362204727" fill="#000000" fill-opacity="0.8" stroke="none"><title>(5.9, 15)</title></circle><circle cx="-56.60011733333343" cy="196.3911111111111" r="3.1181102362204727" fill="#56B4E9" fill-opacity="0.8" stroke="none"><title>(4.6, 17)</title></circle><circle cx="149.29345066666673" cy="196.3911111111111" r="3.1181102362204727" fill="#56B4E9" fill-opacity="0.8" stroke="none"><title>(5.4, 17)</title></circle><circle cx="149.29345066666673" cy="175.87555555555554" r="3.1181102362204727" fill="#56B4E9" fill-opacity="0.8" stroke="none"><title>(5.4, 18)</title></circle><circle cx="-211.0202933333333" cy="196.3911111111111" r="3.1181102362204727" fill="#000000" fill-opacity="0.8" stroke="none"><title>(4, 17)</title></circle><circle cx="-211.0202933333333" cy="155.36" r="3.1181102362204727" fill="#000000" fill-opacity="0.8" stroke="none"><title>(4, 19)</title></circle><circle cx="-211.0202933333333" cy="196.3911111111111" r="3.1181102362204727" fill="#000000" fill-opacity="0.8" stroke="none"><title>(4, 17)</title></circle><circle cx="-211.0202933333333" cy="155.36" r="3.1181102362204727" fill="#000000" fill-opacity="0.8" stroke="none"><title>(4, 19)</title></circle><circle cx="-56.60011733333343" cy="155.36" r="3.1181102362204727" fill="#000000" fill-opacity="0.8" stroke="none"><title>(4.6, 19)</title></circle><circle cx="46.346666666666664" cy="196.3911111111111" r="3.1181102362204727" fill="#000000" fill-opacity="0.8" stroke="none"><title>(5, 17)</title></circle><circle cx="-159.5469013333333" cy="196.3911111111111" r="3.1181102362204727" fill="#000000" fill-opacity="0.8" stroke="none"><title>(4.2, 17)</title></circle><circle cx="-159.5469013333333" cy="196.3911111111111" r="3.1181102362204727" fill="#000000" fill-opacity="0.8" stroke="none"><title>(4.2, 17)</title></circle><circle cx="-56.60011733333343" cy="216.90666666666667" r="3.1181102362204727" fill="#000000" fill-opacity="0.8" stroke="none"><title>(4.6, 16)</title></circle><circle cx="-56.60011733333343" cy="216.90666666666667" r="3.1181102362204727" fill="#000000" fill-opacity="0.8" stroke="none"><title>(4.6, 16)</title></circle><circle cx="-56.60011733333343" cy="196.3911111111111" r="3.1181102362204727" fill="#000000" fill-opacity="0.8" stroke="none"><title>(4.6, 17)</title></circle><circle cx="149.29345066666673" cy="237.42222222222222" r="3.1181102362204727" fill="#000000" fill-opacity="0.8" stroke="none"><title>(5.4, 15)</title></circle><circle cx="149.29345066666673" cy="196.3911111111111" r="3.1181102362204727" fill="#000000" fill-opacity="0.8" stroke="none"><title>(5.4, 17)</title></circle><circle cx="-262.49368533333336" cy="11.75111111111111" r="3.1181102362204727" fill="#56B4E9" fill-opacity="0.8" stroke="none"><title>(3.8, 26)</title></circle><circle cx="-262.49368533333336" cy="32.26666666666665" r="3.1181102362204727" fill="#56B4E9" fill-opacity="0.8" stroke="none"><title>(3.8, 25)</title></circle><circle cx="-211.0202933333333" cy="11.75111111111111" r="3.1181102362204727" fill="#56B4E9" fill-opacity="0.8" stroke="none"><title>(4, 26)</title></circle><circle cx="-211.0202933333333" cy="52.78222222222219" r="3.1181102362204727" fill="#56B4E9" fill-opacity="0.8" stroke="none"><title>(4, 24)</title></circle><circle cx="-56.60011733333343" cy="114.32888888888888" r="3.1181102362204727" fill="#56B4E9" fill-opacity="0.8" stroke="none"><title>(4.6, 21)</title></circle><circle cx="-56.60011733333343" cy="93.8133333333333" r="3.1181102362204727" fill="#56B4E9" fill-opacity="0.8" stroke="none"><title>(4.6, 22)</title></circle><circle cx="-56.60011733333343" cy="73.29777777777777" r="3.1181102362204727" fill="#56B4E9" fill-opacity="0.8" stroke="none"><title>(4.6, 23)</title></circle><circle cx="-56.60011733333343" cy="93.8133333333333" r="3.1181102362204727" fill="#56B4E9" fill-opacity="0.8" stroke="none"><title>(4.6, 22)</title></circle><circle cx="149.29345066666673" cy="134.84444444444443" r="3.1181102362204727" fill="#56B4E9" fill-opacity="0.8" stroke="none"><title>(5.4, 20)</title></circle><circle cx="-828.7009973333331" cy="-131.8577777777778" r="3.1181102362204727" fill="#E69F00" fill-opacity="0.8" stroke="none"><title>(1.6, 33)</title></circle><circle cx="-828.7009973333331" cy="-111.3422222222222" r="3.1181102362204727" fill="#E69F00" fill-opacity="0.8" stroke="none"><title>(1.6, 32)</title></circle><circle cx="-828.7009973333331" cy="-111.3422222222222" r="3.1181102362204727" fill="#E69F00" fill-opacity="0.8" stroke="none"><title>(1.6, 32)</title></circle><circle cx="-828.7009973333331" cy="-49.79555555555559" r="3.1181102362204727" fill="#E69F00" fill-opacity="0.8" stroke="none"><title>(1.6, 29)</title></circle><circle cx="-828.7009973333331" cy="-111.3422222222222" r="3.1181102362204727" fill="#E69F00" fill-opacity="0.8" stroke="none"><title>(1.6, 32)</title></circle><circle cx="-777.2276053333333" cy="-152.37333333333336" r="3.1181102362204727" fill="#E69F00" fill-opacity="0.8" stroke="none"><title>(1.8, 34)</title></circle><circle cx="-777.2276053333333" cy="-193.40444444444444" r="3.1181102362204727" fill="#E69F00" fill-opacity="0.8" stroke="none"><title>(1.8, 36)</title></circle><circle cx="-777.2276053333333" cy="-193.40444444444444" r="3.1181102362204727" fill="#E69F00" fill-opacity="0.8" stroke="none"><title>(1.8, 36)</title></circle><circle cx="-725.7542133333333" cy="-49.79555555555559" r="3.1181102362204727" fill="#E69F00" fill-opacity="0.8" stroke="none"><title>(2, 29)</title></circle><circle cx="-622.8074293333333" cy="11.75111111111111" r="3.1181102362204727" fill="#E69F00" fill-opacity="0.8" stroke="none"><title>(2.4, 26)</title></circle><circle cx="-622.8074293333333" cy="-8.76444444444443" r="3.1181102362204727" fill="#E69F00" fill-opacity="0.8" stroke="none"><title>(2.4, 27)</title></circle><circle cx="-622.8074293333333" cy="-70.31111111111113" r="3.1181102362204727" fill="#E69F00" fill-opacity="0.8" stroke="none"><title>(2.4, 30)</title></circle><circle cx="-622.8074293333333" cy="-90.82666666666667" r="3.1181102362204727" fill="#E69F00" fill-opacity="0.8" stroke="none"><title>(2.4, 31)</title></circle><circle cx="-597.0707333333332" cy="11.75111111111111" r="3.1181102362204727" fill="#E69F00" fill-opacity="0.8" stroke="none"><title>(2.5, 26)</title></circle><circle cx="-597.0707333333332" cy="11.75111111111111" r="3.1181102362204727" fill="#E69F00" fill-opacity="0.8" stroke="none"><title>(2.5, 26)</title></circle><circle cx="-391.17716533333333" cy="-29.279999999999973" r="3.1181102362204727" fill="#E69F00" fill-opacity="0.8" stroke="none"><title>(3.3, 28)</title></circle><circle cx="-725.7542133333333" cy="11.75111111111111" r="3.1181102362204727" fill="#E69F00" fill-opacity="0.8" stroke="none"><title>(2, 26)</title></circle><circle cx="-725.7542133333333" cy="-49.79555555555559" r="3.1181102362204727" fill="#E69F00" fill-opacity="0.8" stroke="none"><title>(2, 29)</title></circle><circle cx="-725.7542133333333" cy="-29.279999999999973" r="3.1181102362204727" fill="#E69F00" fill-opacity="0.8" stroke="none"><title>(2, 28)</title></circle><circle cx="-725.7542133333333" cy="-8.76444444444443" r="3.1181102362204727" fill="#E69F00" fill-opacity="0.8" stroke="none"><title>(2, 27)</title></circle><circle cx="-545.5973413333332" cy="52.78222222222219" r="3.1181102362204727" fill="#E69F00" fill-opacity="0.8" stroke="none"><title>(2.7, 24)</title></circle><circle cx="-545.5973413333332" cy="52.78222222222219" r="3.1181102362204727" fill="#E69F00" fill-opacity="0.8" stroke="none"><title>(2.7, 24)</title></circle><circle cx="-545.5973413333332" cy="52.78222222222219" r="3.1181102362204727" fill="#E69F00" fill-opacity="0.8" stroke="none"><title>(2.7, 24)</title></circle><circle cx="-468.3872533333333" cy="93.8133333333333" r="3.1181102362204727" fill="#000000" fill-opacity="0.8" stroke="none"><title>(3, 22)</title></circle><circle cx="-288.2303813333333" cy="155.36" r="3.1181102362204727" fill="#000000" fill-opacity="0.8" stroke="none"><title>(3.7, 19)</title></circle><circle cx="-211.0202933333333" cy="134.84444444444443" r="3.1181102362204727" fill="#000000" fill-opacity="0.8" stroke="none"><title>(4, 20)</title></circle><circle cx="-30.86342133333328" cy="196.3911111111111" r="3.1181102362204727" fill="#000000" fill-opacity="0.8" stroke="none"><title>(4.7, 17)</title></circle><circle cx="-30.86342133333328" cy="298.96888888888884" r="3.1181102362204727" fill="#000000" fill-opacity="0.8" stroke="none"><title>(4.7, 12)</title></circle><circle cx="-30.86342133333328" cy="155.36" r="3.1181102362204727" fill="#000000" fill-opacity="0.8" stroke="none"><title>(4.7, 19)</title></circle><circle cx="226.50353866666666" cy="175.87555555555554" r="3.1181102362204727" fill="#000000" fill-opacity="0.8" stroke="none"><title>(5.7, 18)</title></circle><circle cx="329.4503226666665" cy="257.93777777777774" r="3.1181102362204727" fill="#000000" fill-opacity="0.8" stroke="none"><title>(6.1, 14)</title></circle><circle cx="-211.0202933333333" cy="237.42222222222222" r="3.1181102362204727" fill="#000000" fill-opacity="0.8" stroke="none"><title>(4, 15)</title></circle><circle cx="-159.5469013333333" cy="175.87555555555554" r="3.1181102362204727" fill="#000000" fill-opacity="0.8" stroke="none"><title>(4.2, 18)</title></circle><circle cx="-108.07350933333323" cy="175.87555555555554" r="3.1181102362204727" fill="#000000" fill-opacity="0.8" stroke="none"><title>(4.4, 18)</title></circle><circle cx="-56.60011733333343" cy="237.42222222222222" r="3.1181102362204727" fill="#000000" fill-opacity="0.8" stroke="none"><title>(4.6, 15)</title></circle><circle cx="149.29345066666673" cy="196.3911111111111" r="3.1181102362204727" fill="#56B4E9" fill-opacity="0.8" stroke="none"><title>(5.4, 17)</title></circle><circle cx="149.29345066666673" cy="216.90666666666667" r="3.1181102362204727" fill="#56B4E9" fill-opacity="0.8" stroke="none"><title>(5.4, 16)</title></circle><circle cx="149.29345066666673" cy="175.87555555555554" r="3.1181102362204727" fill="#56B4E9" fill-opacity="0.8" stroke="none"><title>(5.4, 18)</title></circle><circle cx="-211.0202933333333" cy="196.3911111111111" r="3.1181102362204727" fill="#000000" fill-opacity="0.8" stroke="none"><title>(4, 17)</title></circle><circle cx="-211.0202933333333" cy="155.36" r="3.1181102362204727" fill="#000000" fill-opacity="0.8" stroke="none"><title>(4, 19)</title></circle><circle cx="-56.60011733333343" cy="155.36" r="3.1181102362204727" fill="#000000" fill-opacity="0.8" stroke="none"><title>(4.6, 19)</title></circle><circle cx="46.346666666666664" cy="196.3911111111111" r="3.1181102362204727" fill="#000000" fill-opacity="0.8" stroke="none"><title>(5, 17)</title></circle><circle cx="-622.8074293333333" cy="-49.79555555555559" r="3.1181102362204727" fill="#E69F00" fill-opacity="0.8" stroke="none"><title>(2.4, 29)</title></circle><circle cx="-622.8074293333333" cy="-8.76444444444443" r="3.1181102362204727" fill="#E69F00" fill-opacity="0.8" stroke="none"><title>(2.4, 27)</title></circle><circle cx="-597.0707333333332" cy="-90.82666666666667" r="3.1181102362204727" fill="#E69F00" fill-opacity="0.8" stroke="none"><title>(2.5, 31)</title></circle><circle cx="-597.0707333333332" cy="-111.3422222222222" r="3.1181102362204727" fill="#E69F00" fill-opacity="0.8" stroke="none"><title>(2.5, 32)</title></circle><circle cx="-339.7037733333333" cy="-8.76444444444443" r="3.1181102362204727" fill="#E69F00" fill-opacity="0.8" stroke="none"><title>(3.5, 27)</title></circle><circle cx="-339.7037733333333" cy="11.75111111111111" r="3.1181102362204727" fill="#E69F00" fill-opacity="0.8" stroke="none"><title>(3.5, 26)</title></circle><circle cx="-468.3872533333333" cy="11.75111111111111" r="3.1181102362204727" fill="#E69F00" fill-opacity="0.8" stroke="none"><title>(3, 26)</title></circle><circle cx="-468.3872533333333" cy="32.26666666666665" r="3.1181102362204727" fill="#E69F00" fill-opacity="0.8" stroke="none"><title>(3, 25)</title></circle><circle cx="-339.7037733333333" cy="32.26666666666665" r="3.1181102362204727" fill="#E69F00" fill-opacity="0.8" stroke="none"><title>(3.5, 25)</title></circle><circle cx="-391.17716533333333" cy="196.3911111111111" r="3.1181102362204727" fill="#000000" fill-opacity="0.8" stroke="none"><title>(3.3, 17)</title></circle><circle cx="-391.17716533333333" cy="196.3911111111111" r="3.1181102362204727" fill="#000000" fill-opacity="0.8" stroke="none"><title>(3.3, 17)</title></circle><circle cx="-211.0202933333333" cy="134.84444444444443" r="3.1181102362204727" fill="#000000" fill-opacity="0.8" stroke="none"><title>(4, 20)</title></circle><circle cx="200.76684266666655" cy="175.87555555555554" r="3.1181102362204727" fill="#000000" fill-opacity="0.8" stroke="none"><title>(5.6, 18)</title></circle><circle cx="-442.65055733333327" cy="11.75111111111111" r="3.1181102362204727" fill="#E69F00" fill-opacity="0.8" stroke="none"><title>(3.1, 26)</title></circle><circle cx="-262.49368533333336" cy="11.75111111111111" r="3.1181102362204727" fill="#E69F00" fill-opacity="0.8" stroke="none"><title>(3.8, 26)</title></circle><circle cx="-262.49368533333336" cy="-8.76444444444443" r="3.1181102362204727" fill="#E69F00" fill-opacity="0.8" stroke="none"><title>(3.8, 27)</title></circle><circle cx="-262.49368533333336" cy="-29.279999999999973" r="3.1181102362204727" fill="#E69F00" fill-opacity="0.8" stroke="none"><title>(3.8, 28)</title></circle><circle cx="123.55675466666662" cy="32.26666666666665" r="3.1181102362204727" fill="#E69F00" fill-opacity="0.8" stroke="none"><title>(5.3, 25)</title></circle><circle cx="-597.0707333333332" cy="32.26666666666665" r="3.1181102362204727" fill="#000000" fill-opacity="0.8" stroke="none"><title>(2.5, 25)</title></circle><circle cx="-597.0707333333332" cy="52.78222222222219" r="3.1181102362204727" fill="#000000" fill-opacity="0.8" stroke="none"><title>(2.5, 24)</title></circle><circle cx="-597.0707333333332" cy="-8.76444444444443" r="3.1181102362204727" fill="#000000" fill-opacity="0.8" stroke="none"><title>(2.5, 27)</title></circle><circle cx="-597.0707333333332" cy="32.26666666666665" r="3.1181102362204727" fill="#000000" fill-opacity="0.8" stroke="none"><title>(2.5, 25)</title></circle><circle cx="-597.0707333333332" cy="11.75111111111111" r="3.1181102362204727" fill="#000000" fill-opacity="0.8" stroke="none"><title>(2.5, 26)</title></circle><circle cx="-597.0707333333332" cy="73.29777777777777" r="3.1181102362204727" fill="#000000" fill-opacity="0.8" stroke="none"><title>(2.5, 23)</title></circle><circle cx="-674.2808213333333" cy="11.75111111111111" r="3.1181102362204727" fill="#000000" fill-opacity="0.8" stroke="none"><title>(2.2, 26)</title></circle><circle cx="-674.2808213333333" cy="11.75111111111111" r="3.1181102362204727" fill="#000000" fill-opacity="0.8" stroke="none"><title>(2.2, 26)</title></circle><circle cx="-597.0707333333332" cy="11.75111111111111" r="3.1181102362204727" fill="#000000" fill-opacity="0.8" stroke="none"><title>(2.5, 26)</title></circle><circle cx="-597.0707333333332" cy="11.75111111111111" r="3.1181102362204727" fill="#000000" fill-opacity="0.8" stroke="none"><title>(2.5, 26)</title></circle><circle cx="-597.0707333333332" cy="32.26666666666665" r="3.1181102362204727" fill="#000000" fill-opacity="0.8" stroke="none"><title>(2.5, 25)</title></circle><circle cx="-597.0707333333332" cy="-8.76444444444443" r="3.1181102362204727" fill="#000000" fill-opacity="0.8" stroke="none"><title>(2.5, 27)</title></circle><circle cx="-597.0707333333332" cy="32.26666666666665" r="3.1181102362204727" fill="#000000" fill-opacity="0.8" stroke="none"><title>(2.5, 25)</title></circle><circle cx="-597.0707333333332" cy="-8.76444444444443" r="3.1181102362204727" fill="#000000" fill-opacity="0.8" stroke="none"><title>(2.5, 27)</title></circle><circle cx="-545.5973413333332" cy="134.84444444444443" r="3.1181102362204727" fill="#000000" fill-opacity="0.8" stroke="none"><title>(2.7, 20)</title></circle><circle cx="-545.5973413333332" cy="134.84444444444443" r="3.1181102362204727" fill="#000000" fill-opacity="0.8" stroke="none"><title>(2.7, 20)</title></circle><circle cx="-365.44046933333334" cy="155.36" r="3.1181102362204727" fill="#000000" fill-opacity="0.8" stroke="none"><title>(3.4, 19)</title></circle><circle cx="-365.44046933333334" cy="196.3911111111111" r="3.1181102362204727" fill="#000000" fill-opacity="0.8" stroke="none"><title>(3.4, 17)</title></circle><circle cx="-211.0202933333333" cy="134.84444444444443" r="3.1181102362204727" fill="#000000" fill-opacity="0.8" stroke="none"><title>(4, 20)</title></circle><circle cx="-30.86342133333328" cy="196.3911111111111" r="3.1181102362204727" fill="#000000" fill-opacity="0.8" stroke="none"><title>(4.7, 17)</title></circle><circle cx="-674.2808213333333" cy="-49.79555555555559" r="3.1181102362204727" fill="#E69F00" fill-opacity="0.8" stroke="none"><title>(2.2, 29)</title></circle><circle cx="-674.2808213333333" cy="-8.76444444444443" r="3.1181102362204727" fill="#E69F00" fill-opacity="0.8" stroke="none"><title>(2.2, 27)</title></circle><circle cx="-622.8074293333333" cy="-90.82666666666667" r="3.1181102362204727" fill="#E69F00" fill-opacity="0.8" stroke="none"><title>(2.4, 31)</title></circle><circle cx="-622.8074293333333" cy="-90.82666666666667" r="3.1181102362204727" fill="#E69F00" fill-opacity="0.8" stroke="none"><title>(2.4, 31)</title></circle><circle cx="-468.3872533333333" cy="11.75111111111111" r="3.1181102362204727" fill="#E69F00" fill-opacity="0.8" stroke="none"><title>(3, 26)</title></circle><circle cx="-468.3872533333333" cy="11.75111111111111" r="3.1181102362204727" fill="#E69F00" fill-opacity="0.8" stroke="none"><title>(3, 26)</title></circle><circle cx="-339.7037733333333" cy="-29.279999999999973" r="3.1181102362204727" fill="#E69F00" fill-opacity="0.8" stroke="none"><title>(3.5, 28)</title></circle><circle cx="-674.2808213333333" cy="-8.76444444444443" r="3.1181102362204727" fill="#E69F00" fill-opacity="0.8" stroke="none"><title>(2.2, 27)</title></circle><circle cx="-674.2808213333333" cy="-49.79555555555559" r="3.1181102362204727" fill="#E69F00" fill-opacity="0.8" stroke="none"><title>(2.2, 29)</title></circle><circle cx="-622.8074293333333" cy="-90.82666666666667" r="3.1181102362204727" fill="#E69F00" fill-opacity="0.8" stroke="none"><title>(2.4, 31)</title></circle><circle cx="-622.8074293333333" cy="-90.82666666666667" r="3.1181102362204727" fill="#E69F00" fill-opacity="0.8" stroke="none"><title>(2.4, 31)</title></circle><circle cx="-468.3872533333333" cy="11.75111111111111" r="3.1181102362204727" fill="#E69F00" fill-opacity="0.8" stroke="none"><title>(3, 26)</title></circle><circle cx="-468.3872533333333" cy="11.75111111111111" r="3.1181102362204727" fill="#E69F00" fill-opacity="0.8" stroke="none"><title>(3, 26)</title></circle><circle cx="-391.17716533333333" cy="-8.76444444444443" r="3.1181102362204727" fill="#E69F00" fill-opacity="0.8" stroke="none"><title>(3.3, 27)</title></circle><circle cx="-777.2276053333333" cy="-70.31111111111113" r="3.1181102362204727" fill="#E69F00" fill-opacity="0.8" stroke="none"><title>(1.8, 30)</title></circle><circle cx="-777.2276053333333" cy="-131.8577777777778" r="3.1181102362204727" fill="#E69F00" fill-opacity="0.8" stroke="none"><title>(1.8, 33)</title></circle><circle cx="-777.2276053333333" cy="-172.8888888888889" r="3.1181102362204727" fill="#E69F00" fill-opacity="0.8" stroke="none"><title>(1.8, 35)</title></circle><circle cx="-777.2276053333333" cy="-213.92000000000007" r="3.1181102362204727" fill="#E69F00" fill-opacity="0.8" stroke="none"><title>(1.8, 37)</title></circle><circle cx="-777.2276053333333" cy="-172.8888888888889" r="3.1181102362204727" fill="#E69F00" fill-opacity="0.8" stroke="none"><title>(1.8, 35)</title></circle><circle cx="-30.86342133333328" cy="237.42222222222222" r="3.1181102362204727" fill="#000000" fill-opacity="0.8" stroke="none"><title>(4.7, 15)</title></circle><circle cx="226.50353866666666" cy="175.87555555555554" r="3.1181102362204727" fill="#000000" fill-opacity="0.8" stroke="none"><title>(5.7, 18)</title></circle><circle cx="-545.5973413333332" cy="134.84444444444443" r="3.1181102362204727" fill="#000000" fill-opacity="0.8" stroke="none"><title>(2.7, 20)</title></circle><circle cx="-545.5973413333332" cy="134.84444444444443" r="3.1181102362204727" fill="#000000" fill-opacity="0.8" stroke="none"><title>(2.7, 20)</title></circle><circle cx="-545.5973413333332" cy="93.8133333333333" r="3.1181102362204727" fill="#000000" fill-opacity="0.8" stroke="none"><title>(2.7, 22)</title></circle><circle cx="-365.44046933333334" cy="196.3911111111111" r="3.1181102362204727" fill="#000000" fill-opacity="0.8" stroke="none"><title>(3.4, 17)</title></circle><circle cx="-365.44046933333334" cy="155.36" r="3.1181102362204727" fill="#000000" fill-opacity="0.8" stroke="none"><title>(3.4, 19)</title></circle><circle cx="-211.0202933333333" cy="175.87555555555554" r="3.1181102362204727" fill="#000000" fill-opacity="0.8" stroke="none"><title>(4, 18)</title></circle><circle cx="-211.0202933333333" cy="134.84444444444443" r="3.1181102362204727" fill="#000000" fill-opacity="0.8" stroke="none"><title>(4, 20)</title></circle><circle cx="-725.7542133333333" cy="-49.79555555555559" r="3.1181102362204727" fill="#E69F00" fill-opacity="0.8" stroke="none"><title>(2, 29)</title></circle><circle cx="-725.7542133333333" cy="11.75111111111111" r="3.1181102362204727" fill="#E69F00" fill-opacity="0.8" stroke="none"><title>(2, 26)</title></circle><circle cx="-725.7542133333333" cy="-49.79555555555559" r="3.1181102362204727" fill="#E69F00" fill-opacity="0.8" stroke="none"><title>(2, 29)</title></circle><circle cx="-725.7542133333333" cy="-49.79555555555559" r="3.1181102362204727" fill="#E69F00" fill-opacity="0.8" stroke="none"><title>(2, 29)</title></circle><circle cx="-519.8606453333333" cy="52.78222222222219" r="3.1181102362204727" fill="#E69F00" fill-opacity="0.8" stroke="none"><title>(2.8, 24)</title></circle><circle cx="-751.4909093333333" cy="-357.52888888888884" r="3.1181102362204727" fill="#E69F00" fill-opacity="0.8" stroke="none"><title>(1.9, 44)</title></circle><circle cx="-725.7542133333333" cy="-49.79555555555559" r="3.1181102362204727" fill="#E69F00" fill-opacity="0.8" stroke="none"><title>(2, 29)</title></circle><circle cx="-725.7542133333333" cy="11.75111111111111" r="3.1181102362204727" fill="#E69F00" fill-opacity="0.8" stroke="none"><title>(2, 26)</title></circle><circle cx="-725.7542133333333" cy="-49.79555555555559" r="3.1181102362204727" fill="#E69F00" fill-opacity="0.8" stroke="none"><title>(2, 29)</title></circle><circle cx="-725.7542133333333" cy="-49.79555555555559" r="3.1181102362204727" fill="#E69F00" fill-opacity="0.8" stroke="none"><title>(2, 29)</title></circle><circle cx="-597.0707333333332" cy="-49.79555555555559" r="3.1181102362204727" fill="#E69F00" fill-opacity="0.8" stroke="none"><title>(2.5, 29)</title></circle><circle cx="-597.0707333333332" cy="-49.79555555555559" r="3.1181102362204727" fill="#E69F00" fill-opacity="0.8" stroke="none"><title>(2.5, 29)</title></circle><circle cx="-519.8606453333333" cy="73.29777777777777" r="3.1181102362204727" fill="#E69F00" fill-opacity="0.8" stroke="none"><title>(2.8, 23)</title></circle><circle cx="-519.8606453333333" cy="52.78222222222219" r="3.1181102362204727" fill="#E69F00" fill-opacity="0.8" stroke="none"><title>(2.8, 24)</title></circle><circle cx="-751.4909093333333" cy="-357.52888888888884" r="3.1181102362204727" fill="#E69F00" fill-opacity="0.8" stroke="none"><title>(1.9, 44)</title></circle><circle cx="-751.4909093333333" cy="-295.9822222222223" r="3.1181102362204727" fill="#E69F00" fill-opacity="0.8" stroke="none"><title>(1.9, 41)</title></circle><circle cx="-725.7542133333333" cy="-49.79555555555559" r="3.1181102362204727" fill="#E69F00" fill-opacity="0.8" stroke="none"><title>(2, 29)</title></circle><circle cx="-725.7542133333333" cy="11.75111111111111" r="3.1181102362204727" fill="#E69F00" fill-opacity="0.8" stroke="none"><title>(2, 26)</title></circle><circle cx="-597.0707333333332" cy="-29.279999999999973" r="3.1181102362204727" fill="#E69F00" fill-opacity="0.8" stroke="none"><title>(2.5, 28)</title></circle><circle cx="-597.0707333333332" cy="-49.79555555555559" r="3.1181102362204727" fill="#E69F00" fill-opacity="0.8" stroke="none"><title>(2.5, 29)</title></circle><circle cx="-777.2276053333333" cy="-49.79555555555559" r="3.1181102362204727" fill="#E69F00" fill-opacity="0.8" stroke="none"><title>(1.8, 29)</title></circle><circle cx="-777.2276053333333" cy="-49.79555555555559" r="3.1181102362204727" fill="#E69F00" fill-opacity="0.8" stroke="none"><title>(1.8, 29)</title></circle><circle cx="-725.7542133333333" cy="-29.279999999999973" r="3.1181102362204727" fill="#E69F00" fill-opacity="0.8" stroke="none"><title>(2, 28)</title></circle><circle cx="-725.7542133333333" cy="-49.79555555555559" r="3.1181102362204727" fill="#E69F00" fill-opacity="0.8" stroke="none"><title>(2, 29)</title></circle><circle cx="-519.8606453333333" cy="11.75111111111111" r="3.1181102362204727" fill="#E69F00" fill-opacity="0.8" stroke="none"><title>(2.8, 26)</title></circle><circle cx="-519.8606453333333" cy="11.75111111111111" r="3.1181102362204727" fill="#E69F00" fill-opacity="0.8" stroke="none"><title>(2.8, 26)</title></circle><circle cx="-313.9670773333333" cy="11.75111111111111" r="3.1181102362204727" fill="#E69F00" fill-opacity="0.8" stroke="none"><title>(3.6, 26)</title></circle><line x1="-828.7009973333331" y1="-114.63082686504822" x2="-828.7009973333331" y2="-114.63082686504822" stroke="#3366ff" stroke-width="2.8459842519685044"/><line x1="-828.7009973333331" y1="-114.63082686504822" x2="-828.7009973333331" y2="-114.63082686504822" stroke="#3366ff" stroke-width="2.8459842519685044"/><line x1="-828.7009973333331" y1="-114.63082686504822" x2="-828.7009973333331" y2="-114.63082686504822" stroke="#3366ff" stroke-width="2.8459842519685044"/><line x1="-828.7009973333331" y1="-114.63082686504822" x2="-828.7009973333331" y2="-114.63082686504822" stroke="#3366ff" stroke-width="2.8459842519685044"/><line x1="-828.7009973333331" y1="-114.63082686504822" x2="-777.2276053333333" y2="-104.7873365883175" stroke="#3366ff" stroke-width="2.8459842519685044"/><line x1="-777.2276053333333" y1="-104.7873365883175" x2="-777.2276053333333" y2="-104.7873365883175" stroke="#3366ff" stroke-width="2.8459842519685044"/><line x1="-777.2276053333333" y1="-104.7873365883175" x2="-777.2276053333333" y2="-104.7873365883175" stroke="#3366ff" stroke-width="2.8459842519685044"/><line x1="-777.2276053333333" y1="-104.7873365883175" x2="-777.2276053333333" y2="-104.7873365883175" stroke="#3366ff" stroke-width="2.8459842519685044"/><line x1="-777.2276053333333" y1="-104.7873365883175" x2="-777.2276053333333" y2="-104.7873365883175" stroke="#3366ff" stroke-width="2.8459842519685044"/><line x1="-777.2276053333333" y1="-104.7873365883175" x2="-777.2276053333333" y2="-104.7873365883175" stroke="#3366ff" stroke-width="2.8459842519685044"/><line x1="-777.2276053333333" y1="-104.7873365883175" x2="-777.2276053333333" y2="-104.7873365883175" stroke="#3366ff" stroke-width="2.8459842519685044"/><line x1="-777.2276053333333" y1="-104.7873365883175" x2="-777.2276053333333" y2="-104.7873365883175" stroke="#3366ff" stroke-width="2.8459842519685044"/><line x1="-777.2276053333333" y1="-104.7873365883175" x2="-777.2276053333333" y2="-104.7873365883175" stroke="#3366ff" stroke-width="2.8459842519685044"/><line x1="-777.2276053333333" y1="-104.7873365883175" x2="-777.2276053333333" y2="-104.7873365883175" stroke="#3366ff" stroke-width="2.8459842519685044"/><line x1="-777.2276053333333" y1="-104.7873365883175" x2="-777.2276053333333" y2="-104.7873365883175" stroke="#3366ff" stroke-width="2.8459842519685044"/><line x1="-777.2276053333333" y1="-104.7873365883175" x2="-777.2276053333333" y2="-104.7873365883175" stroke="#3366ff" stroke-width="2.8459842519685044"/><line x1="-777.2276053333333" y1="-104.7873365883175" x2="-777.2276053333333" y2="-104.7873365883175" stroke="#3366ff" stroke-width="2.8459842519685044"/><line x1="-777.2276053333333" y1="-104.7873365883175" x2="-777.2276053333333" y2="-104.7873365883175" stroke="#3366ff" stroke-width="2.8459842519685044"/><line x1="-777.2276053333333" y1="-104.7873365883175" x2="-751.4909093333333" y2="-91.34419856619213" stroke="#3366ff" stroke-width="2.8459842519685044"/><line x1="-751.4909093333333" y1="-91.34419856619213" x2="-751.4909093333333" y2="-91.34419856619213" stroke="#3366ff" stroke-width="2.8459842519685044"/><line x1="-751.4909093333333" y1="-91.34419856619213" x2="-751.4909093333333" y2="-91.34419856619213" stroke="#3366ff" stroke-width="2.8459842519685044"/><line x1="-751.4909093333333" y1="-91.34419856619213" x2="-725.7542133333333" y2="-74.59910044232166" stroke="#3366ff" stroke-width="2.8459842519685044"/><line x1="-725.7542133333333" y1="-74.59910044232166" x2="-725.7542133333333" y2="-74.59910044232166" stroke="#3366ff" stroke-width="2.8459842519685044"/><line x1="-725.7542133333333" y1="-74.59910044232166" x2="-725.7542133333333" y2="-74.59910044232166" stroke="#3366ff" stroke-width="2.8459842519685044"/><line x1="-725.7542133333333" y1="-74.59910044232166" x2="-725.7542133333333" y2="-74.59910044232166" stroke="#3366ff" stroke-width="2.8459842519685044"/><line x1="-725.7542133333333" y1="-74.59910044232166" x2="-725.7542133333333" y2="-74.59910044232166" stroke="#3366ff" stroke-width="2.8459842519685044"/><line x1="-725.7542133333333" y1="-74.59910044232166" x2="-725.7542133333333" y2="-74.59910044232166" stroke="#3366ff" stroke-width="2.8459842519685044"/><line x1="-725.7542133333333" y1="-74.59910044232166" x2="-725.7542133333333" y2="-74.59910044232166" stroke="#3366ff" stroke-width="2.8459842519685044"/><line x1="-725.7542133333333" y1="-74.59910044232166" x2="-725.7542133333333" y2="-74.59910044232166" stroke="#3366ff" stroke-width="2.8459842519685044"/><line x1="-725.7542133333333" y1="-74.59910044232166" x2="-725.7542133333333" y2="-74.59910044232166" stroke="#3366ff" stroke-width="2.8459842519685044"/><line x1="-725.7542133333333" y1="-74.59910044232166" x2="-725.7542133333333" y2="-74.59910044232166" stroke="#3366ff" stroke-width="2.8459842519685044"/><line x1="-725.7542133333333" y1="-74.59910044232166" x2="-725.7542133333333" y2="-74.59910044232166" stroke="#3366ff" stroke-width="2.8459842519685044"/><line x1="-725.7542133333333" y1="-74.59910044232166" x2="-725.7542133333333" y2="-74.59910044232166" stroke="#3366ff" stroke-width="2.8459842519685044"/><line x1="-725.7542133333333" y1="-74.59910044232166" x2="-725.7542133333333" y2="-74.59910044232166" stroke="#3366ff" stroke-width="2.8459842519685044"/><line x1="-725.7542133333333" y1="-74.59910044232166" x2="-725.7542133333333" y2="-74.59910044232166" stroke="#3366ff" stroke-width="2.8459842519685044"/><line x1="-725.7542133333333" y1="-74.59910044232166" x2="-725.7542133333333" y2="-74.59910044232166" stroke="#3366ff" stroke-width="2.8459842519685044"/><line x1="-725.7542133333333" y1="-74.59910044232166" x2="-725.7542133333333" y2="-74.59910044232166" stroke="#3366ff" stroke-width="2.8459842519685044"/><line x1="-725.7542133333333" y1="-74.59910044232166" x2="-725.7542133333333" y2="-74.59910044232166" stroke="#3366ff" stroke-width="2.8459842519685044"/><line x1="-725.7542133333333" y1="-74.59910044232166" x2="-725.7542133333333" y2="-74.59910044232166" stroke="#3366ff" stroke-width="2.8459842519685044"/><line x1="-725.7542133333333" y1="-74.59910044232166" x2="-725.7542133333333" y2="-74.59910044232166" stroke="#3366ff" stroke-width="2.8459842519685044"/><line x1="-725.7542133333333" y1="-74.59910044232166" x2="-725.7542133333333" y2="-74.59910044232166" stroke="#3366ff" stroke-width="2.8459842519685044"/><line x1="-725.7542133333333" y1="-74.59910044232166" x2="-725.7542133333333" y2="-74.59910044232166" stroke="#3366ff" stroke-width="2.8459842519685044"/><line x1="-725.7542133333333" y1="-74.59910044232166" x2="-674.2808213333333" y2="-38.339929351631476" stroke="#3366ff" stroke-width="2.8459842519685044"/><line x1="-674.2808213333333" y1="-38.339929351631476" x2="-674.2808213333333" y2="-38.339929351631476" stroke="#3366ff" stroke-width="2.8459842519685044"/><line x1="-674.2808213333333" y1="-38.339929351631476" x2="-674.2808213333333" y2="-38.339929351631476" stroke="#3366ff" stroke-width="2.8459842519685044"/><line x1="-674.2808213333333" y1="-38.339929351631476" x2="-674.2808213333333" y2="-38.339929351631476" stroke="#3366ff" stroke-width="2.8459842519685044"/><line x1="-674.2808213333333" y1="-38.339929351631476" x2="-674.2808213333333" y2="-38.339929351631476" stroke="#3366ff" stroke-width="2.8459842519685044"/><line x1="-674.2808213333333" y1="-38.339929351631476" x2="-674.2808213333333" y2="-38.339929351631476" stroke="#3366ff" stroke-width="2.8459842519685044"/><line x1="-674.2808213333333" y1="-38.339929351631476" x2="-622.8074293333333" y2="-7.6726578195950115" stroke="#3366ff" stroke-width="2.8459842519685044"/><line x1="-622.8074293333333" y1="-7.6726578195950115" x2="-622.8074293333333" y2="-7.6726578195950115" stroke="#3366ff" stroke-width="2.8459842519685044"/><line x1="-622.8074293333333" y1="-7.6726578195950115" x2="-622.8074293333333" y2="-7.6726578195950115" stroke="#3366ff" stroke-width="2.8459842519685044"/><line x1="-622.8074293333333" y1="-7.6726578195950115" x2="-622.8074293333333" y2="-7.6726578195950115" stroke="#3366ff" stroke-width="2.8459842519685044"/><line x1="-622.8074293333333" y1="-7.6726578195950115" x2="-622.8074293333333" y2="-7.6726578195950115" stroke="#3366ff" stroke-width="2.8459842519685044"/><line x1="-622.8074293333333" y1="-7.6726578195950115" x2="-622.8074293333333" y2="-7.6726578195950115" stroke="#3366ff" stroke-width="2.8459842519685044"/><line x1="-622.8074293333333" y1="-7.6726578195950115" x2="-622.8074293333333" y2="-7.6726578195950115" stroke="#3366ff" stroke-width="2.8459842519685044"/><line x1="-622.8074293333333" y1="-7.6726578195950115" x2="-622.8074293333333" y2="-7.6726578195950115" stroke="#3366ff" stroke-width="2.8459842519685044"/><line x1="-622.8074293333333" y1="-7.6726578195950115" x2="-622.8074293333333" y2="-7.6726578195950115" stroke="#3366ff" stroke-width="2.8459842519685044"/><line x1="-622.8074293333333" y1="-7.6726578195950115" x2="-622.8074293333333" y2="-7.6726578195950115" stroke="#3366ff" stroke-width="2.8459842519685044"/><line x1="-622.8074293333333" y1="-7.6726578195950115" x2="-622.8074293333333" y2="-7.6726578195950115" stroke="#3366ff" stroke-width="2.8459842519685044"/><line x1="-622.8074293333333" y1="-7.6726578195950115" x2="-622.8074293333333" y2="-7.6726578195950115" stroke="#3366ff" stroke-width="2.8459842519685044"/><line x1="-622.8074293333333" y1="-7.6726578195950115" x2="-622.8074293333333" y2="-7.6726578195950115" stroke="#3366ff" stroke-width="2.8459842519685044"/><line x1="-622.8074293333333" y1="-7.6726578195950115" x2="-597.0707333333332" y2="5.019914329834099" stroke="#3366ff" stroke-width="2.8459842519685044"/><line x1="-597.0707333333332" y1="5.019914329834099" x2="-597.0707333333332" y2="5.019914329834099" stroke="#3366ff" stroke-width="2.8459842519685044"/><line x1="-597.0707333333332" y1="5.019914329834099" x2="-597.0707333333332" y2="5.019914329834099" stroke="#3366ff" stroke-width="2.8459842519685044"/><line x1="-597.0707333333332" y1="5.019914329834099" x2="-597.0707333333332" y2="5.019914329834099" stroke="#3366ff" stroke-width="2.8459842519685044"/><line x1="-597.0707333333332" y1="5.019914329834099" x2="-597.0707333333332" y2="5.019914329834099" stroke="#3366ff" stroke-width="2.8459842519685044"/><line x1="-597.0707333333332" y1="5.019914329834099" x2="-597.0707333333332" y2="5.019914329834099" stroke="#3366ff" stroke-width="2.8459842519685044"/><line x1="-597.0707333333332" y1="5.019914329834099" x2="-597.0707333333332" y2="5.019914329834099" stroke="#3366ff" stroke-width="2.8459842519685044"/><line x1="-597.0707333333332" y1="5.019914329834099" x2="-597.0707333333332" y2="5.019914329834099" stroke="#3366ff" stroke-width="2.8459842519685044"/><line x1="-597.0707333333332" y1="5.019914329834099" x2="-597.0707333333332" y2="5.019914329834099" stroke="#3366ff" stroke-width="2.8459842519685044"/><line x1="-597.0707333333332" y1="5.019914329834099" x2="-597.0707333333332" y2="5.019914329834099" stroke="#3366ff" stroke-width="2.8459842519685044"/><line x1="-597.0707333333332" y1="5.019914329834099" x2="-597.0707333333332" y2="5.019914329834099" stroke="#3366ff" stroke-width="2.8459842519685044"/><line x1="-597.0707333333332" y1="5.019914329834099" x2="-597.0707333333332" y2="5.019914329834099" stroke="#3366ff" stroke-width="2.8459842519685044"/><line x1="-597.0707333333332" y1="5.019914329834099" x2="-597.0707333333332" y2="5.019914329834099" stroke="#3366ff" stroke-width="2.8459842519685044"/><line x1="-597.0707333333332" y1="5.019914329834099" x2="-597.0707333333332" y2="5.019914329834099" stroke="#3366ff" stroke-width="2.8459842519685044"/><line x1="-597.0707333333332" y1="5.019914329834099" x2="-597.0707333333332" y2="5.019914329834099" stroke="#3366ff" stroke-width="2.8459842519685044"/><line x1="-597.0707333333332" y1="5.019914329834099" x2="-597.0707333333332" y2="5.019914329834099" stroke="#3366ff" stroke-width="2.8459842519685044"/><line x1="-597.0707333333332" y1="5.019914329834099" x2="-597.0707333333332" y2="5.019914329834099" stroke="#3366ff" stroke-width="2.8459842519685044"/><line x1="-597.0707333333332" y1="5.019914329834099" x2="-597.0707333333332" y2="5.019914329834099" stroke="#3366ff" stroke-width="2.8459842519685044"/><line x1="-597.0707333333332" y1="5.019914329834099" x2="-597.0707333333332" y2="5.019914329834099" stroke="#3366ff" stroke-width="2.8459842519685044"/><line x1="-597.0707333333332" y1="5.019914329834099" x2="-597.0707333333332" y2="5.019914329834099" stroke="#3366ff" stroke-width="2.8459842519685044"/><line x1="-597.0707333333332" y1="5.019914329834099" x2="-545.5973413333332" y2="25.992961147241772" stroke="#3366ff" stroke-width="2.8459842519685044"/><line x1="-545.5973413333332" y1="25.992961147241772" x2="-545.5973413333332" y2="25.992961147241772" stroke="#3366ff" stroke-width="2.8459842519685044"/><line x1="-545.5973413333332" y1="25.992961147241772" x2="-545.5973413333332" y2="25.992961147241772" stroke="#3366ff" stroke-width="2.8459842519685044"/><line x1="-545.5973413333332" y1="25.992961147241772" x2="-545.5973413333332" y2="25.992961147241772" stroke="#3366ff" stroke-width="2.8459842519685044"/><line x1="-545.5973413333332" y1="25.992961147241772" x2="-545.5973413333332" y2="25.992961147241772" stroke="#3366ff" stroke-width="2.8459842519685044"/><line x1="-545.5973413333332" y1="25.992961147241772" x2="-545.5973413333332" y2="25.992961147241772" stroke="#3366ff" stroke-width="2.8459842519685044"/><line x1="-545.5973413333332" y1="25.992961147241772" x2="-545.5973413333332" y2="25.992961147241772" stroke="#3366ff" stroke-width="2.8459842519685044"/><line x1="-545.5973413333332" y1="25.992961147241772" x2="-545.5973413333332" y2="25.992961147241772" stroke="#3366ff" stroke-width="2.8459842519685044"/><line x1="-545.5973413333332" y1="25.992961147241772" x2="-519.8606453333333" y2="34.62144771591204" stroke="#3366ff" stroke-width="2.8459842519685044"/><line x1="-519.8606453333333" y1="34.62144771591204" x2="-519.8606453333333" y2="34.62144771591204" stroke="#3366ff" stroke-width="2.8459842519685044"/><line x1="-519.8606453333333" y1="34.62144771591204" x2="-519.8606453333333" y2="34.62144771591204" stroke="#3366ff" stroke-width="2.8459842519685044"/><line x1="-519.8606453333333" y1="34.62144771591204" x2="-519.8606453333333" y2="34.62144771591204" stroke="#3366ff" stroke-width="2.8459842519685044"/><line x1="-519.8606453333333" y1="34.62144771591204" x2="-519.8606453333333" y2="34.62144771591204" stroke="#3366ff" stroke-width="2.8459842519685044"/><line x1="-519.8606453333333" y1="34.62144771591204" x2="-519.8606453333333" y2="34.62144771591204" stroke="#3366ff" stroke-width="2.8459842519685044"/><line x1="-519.8606453333333" y1="34.62144771591204" x2="-519.8606453333333" y2="34.62144771591204" stroke="#3366ff" stroke-width="2.8459842519685044"/><line x1="-519.8606453333333" y1="34.62144771591204" x2="-519.8606453333333" y2="34.62144771591204" stroke="#3366ff" stroke-width="2.8459842519685044"/><line x1="-519.8606453333333" y1="34.62144771591204" x2="-519.8606453333333" y2="34.62144771591204" stroke="#3366ff" stroke-width="2.8459842519685044"/><line x1="-519.8606453333333" y1="34.62144771591204" x2="-519.8606453333333" y2="34.62144771591204" stroke="#3366ff" stroke-width="2.8459842519685044"/><line x1="-519.8606453333333" y1="34.62144771591204" x2="-468.3872533333333" y2="49.11539112513882" stroke="#3366ff" stroke-width="2.8459842519685044"/><line x1="-468.3872533333333" y1="49.11539112513882" x2="-468.3872533333333" y2="49.11539112513882" stroke="#3366ff" stroke-width="2.8459842519685044"/><line x1="-468.3872533333333" y1="49.11539112513882" x2="-468.3872533333333" y2="49.11539112513882" stroke="#3366ff" stroke-width="2.8459842519685044"/><line x1="-468.3872533333333" y1="49.11539112513882" x2="-468.3872533333333" y2="49.11539112513882" stroke="#3366ff" stroke-width="2.8459842519685044"/><line x1="-468.3872533333333" y1="49.11539112513882" x2="-468.3872533333333" y2="49.11539112513882" stroke="#3366ff" stroke-width="2.8459842519685044"/><line x1="-468.3872533333333" y1="49.11539112513882" x2="-468.3872533333333" y2="49.11539112513882" stroke="#3366ff" stroke-width="2.8459842519685044"/><line x1="-468.3872533333333" y1="49.11539112513882" x2="-468.3872533333333" y2="49.11539112513882" stroke="#3366ff" stroke-width="2.8459842519685044"/><line x1="-468.3872533333333" y1="49.11539112513882" x2="-468.3872533333333" y2="49.11539112513882" stroke="#3366ff" stroke-width="2.8459842519685044"/><line x1="-468.3872533333333" y1="49.11539112513882" x2="-442.65055733333327" y2="55.44300439169611" stroke="#3366ff" stroke-width="2.8459842519685044"/><line x1="-442.65055733333327" y1="55.44300439169611" x2="-442.65055733333327" y2="55.44300439169611" stroke="#3366ff" stroke-width="2.8459842519685044"/><line x1="-442.65055733333327" y1="55.44300439169611" x2="-442.65055733333327" y2="55.44300439169611" stroke="#3366ff" stroke-width="2.8459842519685044"/><line x1="-442.65055733333327" y1="55.44300439169611" x2="-442.65055733333327" y2="55.44300439169611" stroke="#3366ff" stroke-width="2.8459842519685044"/><line x1="-442.65055733333327" y1="55.44300439169611" x2="-442.65055733333327" y2="55.44300439169611" stroke="#3366ff" stroke-width="2.8459842519685044"/><line x1="-442.65055733333327" y1="55.44300439169611" x2="-442.65055733333327" y2="55.44300439169611" stroke="#3366ff" stroke-width="2.8459842519685044"/><line x1="-442.65055733333327" y1="55.44300439169611" x2="-391.17716533333333" y2="67.44084705126991" stroke="#3366ff" stroke-width="2.8459842519685044"/><line x1="-391.17716533333333" y1="67.44084705126991" x2="-391.17716533333333" y2="67.44084705126991" stroke="#3366ff" stroke-width="2.8459842519685044"/><line x1="-391.17716533333333" y1="67.44084705126991" x2="-391.17716533333333" y2="67.44084705126991" stroke="#3366ff" stroke-width="2.8459842519685044"/><line x1="-391.17716533333333" y1="67.44084705126991" x2="-391.17716533333333" y2="67.44084705126991" stroke="#3366ff" stroke-width="2.8459842519685044"/><line x1="-391.17716533333333" y1="67.44084705126991" x2="-391.17716533333333" y2="67.44084705126991" stroke="#3366ff" stroke-width="2.8459842519685044"/><line x1="-391.17716533333333" y1="67.44084705126991" x2="-391.17716533333333" y2="67.44084705126991" stroke="#3366ff" stroke-width="2.8459842519685044"/><line x1="-391.17716533333333" y1="67.44084705126991" x2="-391.17716533333333" y2="67.44084705126991" stroke="#3366ff" stroke-width="2.8459842519685044"/><line x1="-391.17716533333333" y1="67.44084705126991" x2="-391.17716533333333" y2="67.44084705126991" stroke="#3366ff" stroke-width="2.8459842519685044"/><line x1="-391.17716533333333" y1="67.44084705126991" x2="-391.17716533333333" y2="67.44084705126991" stroke="#3366ff" stroke-width="2.8459842519685044"/><line x1="-391.17716533333333" y1="67.44084705126991" x2="-365.44046933333334" y2="73.58360964531539" stroke="#3366ff" stroke-width="2.8459842519685044"/><line x1="-365.44046933333334" y1="73.58360964531539" x2="-365.44046933333334" y2="73.58360964531539" stroke="#3366ff" stroke-width="2.8459842519685044"/><line x1="-365.44046933333334" y1="73.58360964531539" x2="-365.44046933333334" y2="73.58360964531539" stroke="#3366ff" stroke-width="2.8459842519685044"/><line x1="-365.44046933333334" y1="73.58360964531539" x2="-365.44046933333334" y2="73.58360964531539" stroke="#3366ff" stroke-width="2.8459842519685044"/><line x1="-365.44046933333334" y1="73.58360964531539" x2="-339.7037733333333" y2="80.13728854955237" stroke="#3366ff" stroke-width="2.8459842519685044"/><line x1="-339.7037733333333" y1="80.13728854955237" x2="-339.7037733333333" y2="80.13728854955237" stroke="#3366ff" stroke-width="2.8459842519685044"/><line x1="-339.7037733333333" y1="80.13728854955237" x2="-339.7037733333333" y2="80.13728854955237" stroke="#3366ff" stroke-width="2.8459842519685044"/><line x1="-339.7037733333333" y1="80.13728854955237" x2="-339.7037733333333" y2="80.13728854955237" stroke="#3366ff" stroke-width="2.8459842519685044"/><line x1="-339.7037733333333" y1="80.13728854955237" x2="-339.7037733333333" y2="80.13728854955237" stroke="#3366ff" stroke-width="2.8459842519685044"/><line x1="-339.7037733333333" y1="80.13728854955237" x2="-313.9670773333333" y2="87.33815036449539" stroke="#3366ff" stroke-width="2.8459842519685044"/><line x1="-313.9670773333333" y1="87.33815036449539" x2="-313.9670773333333" y2="87.33815036449539" stroke="#3366ff" stroke-width="2.8459842519685044"/><line x1="-313.9670773333333" y1="87.33815036449539" x2="-288.2303813333333" y2="95.42246169065852" stroke="#3366ff" stroke-width="2.8459842519685044"/><line x1="-288.2303813333333" y1="95.42246169065852" x2="-288.2303813333333" y2="95.42246169065852" stroke="#3366ff" stroke-width="2.8459842519685044"/><line x1="-288.2303813333333" y1="95.42246169065852" x2="-288.2303813333333" y2="95.42246169065852" stroke="#3366ff" stroke-width="2.8459842519685044"/><line x1="-288.2303813333333" y1="95.42246169065852" x2="-262.49368533333336" y2="104.62648912855639" stroke="#3366ff" stroke-width="2.8459842519685044"/><line x1="-262.49368533333336" y1="104.62648912855639" x2="-262.49368533333336" y2="104.62648912855639" stroke="#3366ff" stroke-width="2.8459842519685044"/><line x1="-262.49368533333336" y1="104.62648912855639" x2="-262.49368533333336" y2="104.62648912855639" stroke="#3366ff" stroke-width="2.8459842519685044"/><line x1="-262.49368533333336" y1="104.62648912855639" x2="-262.49368533333336" y2="104.62648912855639" stroke="#3366ff" stroke-width="2.8459842519685044"/><line x1="-262.49368533333336" y1="104.62648912855639" x2="-262.49368533333336" y2="104.62648912855639" stroke="#3366ff" stroke-width="2.8459842519685044"/><line x1="-262.49368533333336" y1="104.62648912855639" x2="-262.49368533333336" y2="104.62648912855639" stroke="#3366ff" stroke-width="2.8459842519685044"/><line x1="-262.49368533333336" y1="104.62648912855639" x2="-262.49368533333336" y2="104.62648912855639" stroke="#3366ff" stroke-width="2.8459842519685044"/><line x1="-262.49368533333336" y1="104.62648912855639" x2="-262.49368533333336" y2="104.62648912855639" stroke="#3366ff" stroke-width="2.8459842519685044"/><line x1="-262.49368533333336" y1="104.62648912855639" x2="-236.75698933333334" y2="115.07986038068353" stroke="#3366ff" stroke-width="2.8459842519685044"/><line x1="-236.75698933333334" y1="115.07986038068353" x2="-236.75698933333334" y2="115.07986038068353" stroke="#3366ff" stroke-width="2.8459842519685044"/><line x1="-236.75698933333334" y1="115.07986038068353" x2="-236.75698933333334" y2="115.07986038068353" stroke="#3366ff" stroke-width="2.8459842519685044"/><line x1="-236.75698933333334" y1="115.07986038068353" x2="-211.0202933333333" y2="126.48564755745504" stroke="#3366ff" stroke-width="2.8459842519685044"/><line x1="-211.0202933333333" y1="126.48564755745504" x2="-211.0202933333333" y2="126.48564755745504" stroke="#3366ff" stroke-width="2.8459842519685044"/><line x1="-211.0202933333333" y1="126.48564755745504" x2="-211.0202933333333" y2="126.48564755745504" stroke="#3366ff" stroke-width="2.8459842519685044"/><line x1="-211.0202933333333" y1="126.48564755745504" x2="-211.0202933333333" y2="126.48564755745504" stroke="#3366ff" stroke-width="2.8459842519685044"/><line x1="-211.0202933333333" y1="126.48564755745504" x2="-211.0202933333333" y2="126.48564755745504" stroke="#3366ff" stroke-width="2.8459842519685044"/><line x1="-211.0202933333333" y1="126.48564755745504" x2="-211.0202933333333" y2="126.48564755745504" stroke="#3366ff" stroke-width="2.8459842519685044"/><line x1="-211.0202933333333" y1="126.48564755745504" x2="-211.0202933333333" y2="126.48564755745504" stroke="#3366ff" stroke-width="2.8459842519685044"/><line x1="-211.0202933333333" y1="126.48564755745504" x2="-211.0202933333333" y2="126.48564755745504" stroke="#3366ff" stroke-width="2.8459842519685044"/><line x1="-211.0202933333333" y1="126.48564755745504" x2="-211.0202933333333" y2="126.48564755745504" stroke="#3366ff" stroke-width="2.8459842519685044"/><line x1="-211.0202933333333" y1="126.48564755745504" x2="-211.0202933333333" y2="126.48564755745504" stroke="#3366ff" stroke-width="2.8459842519685044"/><line x1="-211.0202933333333" y1="126.48564755745504" x2="-211.0202933333333" y2="126.48564755745504" stroke="#3366ff" stroke-width="2.8459842519685044"/><line x1="-211.0202933333333" y1="126.48564755745504" x2="-211.0202933333333" y2="126.48564755745504" stroke="#3366ff" stroke-width="2.8459842519685044"/><line x1="-211.0202933333333" y1="126.48564755745504" x2="-211.0202933333333" y2="126.48564755745504" stroke="#3366ff" stroke-width="2.8459842519685044"/><line x1="-211.0202933333333" y1="126.48564755745504" x2="-211.0202933333333" y2="126.48564755745504" stroke="#3366ff" stroke-width="2.8459842519685044"/><line x1="-211.0202933333333" y1="126.48564755745504" x2="-211.0202933333333" y2="126.48564755745504" stroke="#3366ff" stroke-width="2.8459842519685044"/><line x1="-211.0202933333333" y1="126.48564755745504" x2="-159.5469013333333" y2="150.54020253451282" stroke="#3366ff" stroke-width="2.8459842519685044"/><line x1="-159.5469013333333" y1="150.54020253451282" x2="-159.5469013333333" y2="150.54020253451282" stroke="#3366ff" stroke-width="2.8459842519685044"/><line x1="-159.5469013333333" y1="150.54020253451282" x2="-159.5469013333333" y2="150.54020253451282" stroke="#3366ff" stroke-width="2.8459842519685044"/><line x1="-159.5469013333333" y1="150.54020253451282" x2="-159.5469013333333" y2="150.54020253451282" stroke="#3366ff" stroke-width="2.8459842519685044"/><line x1="-159.5469013333333" y1="150.54020253451282" x2="-108.07350933333323" y2="173.56161975889268" stroke="#3366ff" stroke-width="2.8459842519685044"/><line x1="-108.07350933333323" y1="173.56161975889268" x2="-56.60011733333343" y2="192.32136492975715" stroke="#3366ff" stroke-width="2.8459842519685044"/><line x1="-56.60011733333343" y1="192.32136492975715" x2="-56.60011733333343" y2="192.32136492975715" stroke="#3366ff" stroke-width="2.8459842519685044"/><line x1="-56.60011733333343" y1="192.32136492975715" x2="-56.60011733333343" y2="192.32136492975715" stroke="#3366ff" stroke-width="2.8459842519685044"/><line x1="-56.60011733333343" y1="192.32136492975715" x2="-56.60011733333343" y2="192.32136492975715" stroke="#3366ff" stroke-width="2.8459842519685044"/><line x1="-56.60011733333343" y1="192.32136492975715" x2="-56.60011733333343" y2="192.32136492975715" stroke="#3366ff" stroke-width="2.8459842519685044"/><line x1="-56.60011733333343" y1="192.32136492975715" x2="-56.60011733333343" y2="192.32136492975715" stroke="#3366ff" stroke-width="2.8459842519685044"/><line x1="-56.60011733333343" y1="192.32136492975715" x2="-56.60011733333343" y2="192.32136492975715" stroke="#3366ff" stroke-width="2.8459842519685044"/><line x1="-56.60011733333343" y1="192.32136492975715" x2="-56.60011733333343" y2="192.32136492975715" stroke="#3366ff" stroke-width="2.8459842519685044"/><line x1="-56.60011733333343" y1="192.32136492975715" x2="-56.60011733333343" y2="192.32136492975715" stroke="#3366ff" stroke-width="2.8459842519685044"/><line x1="-56.60011733333343" y1="192.32136492975715" x2="-56.60011733333343" y2="192.32136492975715" stroke="#3366ff" stroke-width="2.8459842519685044"/><line x1="-56.60011733333343" y1="192.32136492975715" x2="-56.60011733333343" y2="192.32136492975715" stroke="#3366ff" stroke-width="2.8459842519685044"/><line x1="-56.60011733333343" y1="192.32136492975715" x2="-30.86342133333328" y2="199.09419352610973" stroke="#3366ff" stroke-width="2.8459842519685044"/><line x1="-30.86342133333328" y1="199.09419352610973" x2="-30.86342133333328" y2="199.09419352610973" stroke="#3366ff" stroke-width="2.8459842519685044"/><line x1="-30.86342133333328" y1="199.09419352610973" x2="-30.86342133333328" y2="199.09419352610973" stroke="#3366ff" stroke-width="2.8459842519685044"/><line x1="-30.86342133333328" y1="199.09419352610973" x2="-30.86342133333328" y2="199.09419352610973" stroke="#3366ff" stroke-width="2.8459842519685044"/><line x1="-30.86342133333328" y1="199.09419352610973" x2="-30.86342133333328" y2="199.09419352610973" stroke="#3366ff" stroke-width="2.8459842519685044"/><line x1="-30.86342133333328" y1="199.09419352610973" x2="-30.86342133333328" y2="199.09419352610973" stroke="#3366ff" stroke-width="2.8459842519685044"/><line x1="-30.86342133333328" y1="199.09419352610973" x2="-30.86342133333328" y2="199.09419352610973" stroke="#3366ff" stroke-width="2.8459842519685044"/><line x1="-30.86342133333328" y1="199.09419352610973" x2="-30.86342133333328" y2="199.09419352610973" stroke="#3366ff" stroke-width="2.8459842519685044"/><line x1="-30.86342133333328" y1="199.09419352610973" x2="-30.86342133333328" y2="199.09419352610973" stroke="#3366ff" stroke-width="2.8459842519685044"/><line x1="-30.86342133333328" y1="199.09419352610973" x2="-30.86342133333328" y2="199.09419352610973" stroke="#3366ff" stroke-width="2.8459842519685044"/><line x1="-30.86342133333328" y1="199.09419352610973" x2="-30.86342133333328" y2="199.09419352610973" stroke="#3366ff" stroke-width="2.8459842519685044"/><line x1="-30.86342133333328" y1="199.09419352610973" x2="-30.86342133333328" y2="199.09419352610973" stroke="#3366ff" stroke-width="2.8459842519685044"/><line x1="-30.86342133333328" y1="199.09419352610973" x2="-30.86342133333328" y2="199.09419352610973" stroke="#3366ff" stroke-width="2.8459842519685044"/><line x1="-30.86342133333328" y1="199.09419352610973" x2="-30.86342133333328" y2="199.09419352610973" stroke="#3366ff" stroke-width="2.8459842519685044"/><line x1="-30.86342133333328" y1="199.09419352610973" x2="-30.86342133333328" y2="199.09419352610973" stroke="#3366ff" stroke-width="2.8459842519685044"/><line x1="-30.86342133333328" y1="199.09419352610973" x2="-30.86342133333328" y2="199.09419352610973" stroke="#3366ff" stroke-width="2.8459842519685044"/><line x1="-30.86342133333328" y1="199.09419352610973" x2="-30.86342133333328" y2="199.09419352610973" stroke="#3366ff" stroke-width="2.8459842519685044"/><line x1="-30.86342133333328" y1="199.09419352610973" x2="46.346666666666664" y2="206.7481468436105" stroke="#3366ff" stroke-width="2.8459842519685044"/><line x1="46.346666666666664" y1="206.7481468436105" x2="46.346666666666664" y2="206.7481468436105" stroke="#3366ff" stroke-width="2.8459842519685044"/><line x1="46.346666666666664" y1="206.7481468436105" x2="97.82005866666671" y2="202.8120998166762" stroke="#3366ff" stroke-width="2.8459842519685044"/><line x1="97.82005866666671" y1="202.8120998166762" x2="97.82005866666671" y2="202.8120998166762" stroke="#3366ff" stroke-width="2.8459842519685044"/><line x1="97.82005866666671" y1="202.8120998166762" x2="97.82005866666671" y2="202.8120998166762" stroke="#3366ff" stroke-width="2.8459842519685044"/><line x1="97.82005866666671" y1="202.8120998166762" x2="97.82005866666671" y2="202.8120998166762" stroke="#3366ff" stroke-width="2.8459842519685044"/><line x1="97.82005866666671" y1="202.8120998166762" x2="97.82005866666671" y2="202.8120998166762" stroke="#3366ff" stroke-width="2.8459842519685044"/><line x1="97.82005866666671" y1="202.8120998166762" x2="123.55675466666662" y2="198.65940112616013" stroke="#3366ff" stroke-width="2.8459842519685044"/><line x1="123.55675466666662" y1="198.65940112616013" x2="123.55675466666662" y2="198.65940112616013" stroke="#3366ff" stroke-width="2.8459842519685044"/><line x1="123.55675466666662" y1="198.65940112616013" x2="123.55675466666662" y2="198.65940112616013" stroke="#3366ff" stroke-width="2.8459842519685044"/><line x1="123.55675466666662" y1="198.65940112616013" x2="123.55675466666662" y2="198.65940112616013" stroke="#3366ff" stroke-width="2.8459842519685044"/><line x1="123.55675466666662" y1="198.65940112616013" x2="123.55675466666662" y2="198.65940112616013" stroke="#3366ff" stroke-width="2.8459842519685044"/><line x1="123.55675466666662" y1="198.65940112616013" x2="123.55675466666662" y2="198.65940112616013" stroke="#3366ff" stroke-width="2.8459842519685044"/><line x1="123.55675466666662" y1="198.65940112616013" x2="149.29345066666673" y2="193.28444324851412" stroke="#3366ff" stroke-width="2.8459842519685044"/><line x1="149.29345066666673" y1="193.28444324851412" x2="149.29345066666673" y2="193.28444324851412" stroke="#3366ff" stroke-width="2.8459842519685044"/><line x1="149.29345066666673" y1="193.28444324851412" x2="149.29345066666673" y2="193.28444324851412" stroke="#3366ff" stroke-width="2.8459842519685044"/><line x1="149.29345066666673" y1="193.28444324851412" x2="149.29345066666673" y2="193.28444324851412" stroke="#3366ff" stroke-width="2.8459842519685044"/><line x1="149.29345066666673" y1="193.28444324851412" x2="149.29345066666673" y2="193.28444324851412" stroke="#3366ff" stroke-width="2.8459842519685044"/><line x1="149.29345066666673" y1="193.28444324851412" x2="149.29345066666673" y2="193.28444324851412" stroke="#3366ff" stroke-width="2.8459842519685044"/><line x1="149.29345066666673" y1="193.28444324851412" x2="149.29345066666673" y2="193.28444324851412" stroke="#3366ff" stroke-width="2.8459842519685044"/><line x1="149.29345066666673" y1="193.28444324851412" x2="149.29345066666673" y2="193.28444324851412" stroke="#3366ff" stroke-width="2.8459842519685044"/><line x1="149.29345066666673" y1="193.28444324851412" x2="200.76684266666655" y2="179.57032272454154" stroke="#3366ff" stroke-width="2.8459842519685044"/><line x1="200.76684266666655" y1="179.57032272454154" x2="226.50353866666666" y2="171.58244647456922" stroke="#3366ff" stroke-width="2.8459842519685044"/><line x1="226.50353866666666" y1="171.58244647456922" x2="226.50353866666666" y2="171.58244647456922" stroke="#3366ff" stroke-width="2.8459842519685044"/><line x1="226.50353866666666" y1="171.58244647456922" x2="226.50353866666666" y2="171.58244647456922" stroke="#3366ff" stroke-width="2.8459842519685044"/><line x1="226.50353866666666" y1="171.58244647456922" x2="226.50353866666666" y2="171.58244647456922" stroke="#3366ff" stroke-width="2.8459842519685044"/><line x1="226.50353866666666" y1="171.58244647456922" x2="226.50353866666666" y2="171.58244647456922" stroke="#3366ff" stroke-width="2.8459842519685044"/><line x1="226.50353866666666" y1="171.58244647456922" x2="226.50353866666666" y2="171.58244647456922" stroke="#3366ff" stroke-width="2.8459842519685044"/><line x1="226.50353866666666" y1="171.58244647456922" x2="226.50353866666666" y2="171.58244647456922" stroke="#3366ff" stroke-width="2.8459842519685044"/><line x1="226.50353866666666" y1="171.58244647456922" x2="226.50353866666666" y2="171.58244647456922" stroke="#3366ff" stroke-width="2.8459842519685044"/><line x1="226.50353866666666" y1="171.58244647456922" x2="277.9769306666667" y2="154.22327798953813" stroke="#3366ff" stroke-width="2.8459842519685044"/><line x1="277.9769306666667" y1="154.22327798953813" x2="277.9769306666667" y2="154.22327798953813" stroke="#3366ff" stroke-width="2.8459842519685044"/><line x1="277.9769306666667" y1="154.22327798953813" x2="303.71362666666664" y2="145.20327215083393" stroke="#3366ff" stroke-width="2.8459842519685044"/><line x1="303.71362666666664" y1="145.20327215083393" x2="329.4503226666665" y2="136.19050951223977" stroke="#3366ff" stroke-width="2.8459842519685044"/><line x1="329.4503226666665" y1="136.19050951223977" x2="355.18701866666663" y2="127.36063327193335" stroke="#3366ff" stroke-width="2.8459842519685044"/><line x1="355.18701866666663" y1="127.36063327193335" x2="355.18701866666663" y2="127.36063327193335" stroke="#3366ff" stroke-width="2.8459842519685044"/><line x1="355.18701866666663" y1="127.36063327193335" x2="432.3971066666666" y2="103.72475492251006" stroke="#3366ff" stroke-width="2.8459842519685044"/><line x1="432.3971066666666" y1="103.72475492251006" x2="561.0805866666666" y2="84.38271746908856" stroke="#3366ff" stroke-width="2.8459842519685044"/></g><rect x="575.7472533333332" y="151.46221333333335" width="23.114079999999994" height="69.34223999999998" fill="#ebebeb" fill-opacity="1.0" stroke="none"/><rect x="575.7472533333332" y="151.46221333333335" width="23.114079999999994" height="23.114079999999994" fill="#f2f2f2" fill-opacity="1.0" stroke="none"/><circle cx="587.3042933333332" cy="163.01925333333332" r="3.1181102362204727" fill="#000000" fill-opacity="1.0" stroke="none"/><text x="602.5279999999999" y="166.77392" fill="#4d4d4d" font-size="11.733333333333334" font-family="sans-serif" text-anchor="start">4</text><rect x="575.7472533333332" y="174.57629333333333" width="23.114079999999994" height="23.114079999999994" fill="#f2f2f2" fill-opacity="1.0" stroke="none"/><circle cx="587.3042933333332" cy="186.13333333333333" r="3.1181102362204727" fill="#E69F00" fill-opacity="1.0" stroke="none"/><text x="602.5279999999999" y="189.88799999999998" fill="#4d4d4d" font-size="11.733333333333334" font-family="sans-serif" text-anchor="start">f</text><rect x="575.7472533333332" y="197.69037333333335" width="23.114079999999994" height="23.114079999999994" fill="#f2f2f2" fill-opacity="1.0" stroke="none"/><circle cx="587.3042933333332" cy="209.24741333333333" r="3.1181102362204727" fill="#56B4E9" fill-opacity="1.0" stroke="none"/><text x="602.5279999999999" y="213.00208" fill="#4d4d4d" font-size="11.733333333333334" font-family="sans-serif" text-anchor="start">r</text></svg>