<svg xmlns="http://www.w3.org/2000/svg" width="800" height="600" viewBox="0 0 800 600"><rect x="0.0" y="0.0" width="800.0" height="600.0" fill="#ffffff" fill-opacity="1.0" stroke="none"/><line x1="125.6423076923077" y1="27.0" x2="125.6423076923077" y2="563.8" stroke="#dddddd" stroke-width="1.0"/><line x1="271.0461538461539" y1="27.0" x2="271.0461538461539" y2="563.8" stroke="#dddddd" stroke-width="1.0"/><line x1="416.45000000000005" y1="27.0" x2="416.45000000000005" y2="563.8" stroke="#dddddd" stroke-width="1.0"/><line x1="561.8538461538462" y1="27.0" x2="561.8538461538462" y2="563.8" stroke="#dddddd" stroke-width="1.0"/><line x1="707.2576923076923" y1="27.0" x2="707.2576923076923" y2="563.8" stroke="#dddddd" stroke-width="1.0"/><line x1="38.4" y1="493.574986917844" x2="794.5" y2="493.574986917844" stroke="#dddddd" stroke-width="0.5"/><line x1="38.4" y1="353.12496075353215" x2="794.5" y2="353.12496075353215" stroke="#dddddd" stroke-width="0.5"/><line x1="38.4" y1="212.6749345892203" x2="794.5" y2="212.6749345892203" stroke="#dddddd" stroke-width="0.5"/><line x1="38.4" y1="72.22490842490839" x2="794.5" y2="72.22490842490839" stroke="#dddddd" stroke-width="0.5"/><line x1="38.4" y1="563.8" x2="794.5" y2="563.8" stroke="#dddddd" stroke-width="1.0"/><line x1="38.4" y1="423.34997383568805" x2="794.5" y2="423.34997383568805" stroke="#dddddd" stroke-width="1.0"/><line x1="38.4" y1="282.8999476713762" x2="794.5" y2="282.8999476713762" stroke="#dddddd" stroke-width="1.0"/><line x1="38.4" y1="142.44992150706435" x2="794.5" y2="142.44992150706435" stroke="#dddddd" stroke-width="1.0"/><rect x="38.4" y="27.0" width="756.1" height="536.8" fill="#ffffff" fill-opacity="0.0" stroke="#444444" stroke-width="1.0"/><line x1="125.6423076923077" y1="563.8" x2="125.6423076923077" y2="566.55" stroke="#444444" stroke-width="1.0"/><text x="125.6423076923077" y="577.55" fill="#333333" font-size="11.0" font-family="sans-serif" text-anchor="middle">A</text><line x1="271.0461538461539" y1="563.8" x2="271.0461538461539" y2="566.55" stroke="#444444" stroke-width="1.0"/><text x="271.0461538461539" y="577.55" fill="#333333" font-size="11.0" font-family="sans-serif" text-anchor="middle">B</text><line x1="416.45000000000005" y1="563.8" x2="416.45000000000005" y2="566.55" stroke="#444444" stroke-width="1.0"/><text x="416.45000000000005" y="577.55" fill="#333333" font-size="11.0" font-family="sans-serif" text-anchor="middle">C</text><line x1="561.8538461538462" y1="563.8" x2="561.8538461538462" y2="566.55" stroke="#444444" stroke-width="1.0"/><text x="561.8538461538462" y="577.55" fill="#333333" font-size="11.0" font-family="sans-serif" text-anchor="middle">D</text><line x1="707.2576923076923" y1="563.8" x2="707.2576923076923" y2="566.55" stroke="#444444" stroke-width="1.0"/><text x="707.2576923076923" y="577.55" fill="#333333" font-size="11.0" font-family="sans-serif" text-anchor="middle">E</text><line x1="38.4" y1="563.8" x2="35.65" y2="563.8" stroke="#444444" stroke-width="1.0"/><text x="33.449999999999996" y="567.65" fill="#333333" font-size="11.0" font-family="sans-serif" text-anchor="end">0</text><line x1="38.4" y1="423.34997383568805" x2="35.65" y2="423.34997383568805" stroke="#444444" stroke-width="1.0"/><text x="33.449999999999996" y="427.19997383568807" fill="#333333" font-size="11.0" font-family="sans-serif" text-anchor="end">25</text><line x1="38.4" y1="282.8999476713762" x2="35.65" y2="282.8999476713762" stroke="#444444" stroke-width="1.0"/><text x="33.449999999999996" y="286.7499476713762" fill="#333333" font-size="11.0" font-family="sans-serif" text-anchor="end">50</text><line x1="38.4" y1="142.44992150706435" x2="35.65" y2="142.44992150706435" stroke="#444444" stroke-width="1.0"/><text x="33.449999999999996" y="146.29992150706434" fill="#333333" font-size="11.0" font-family="sans-serif" text-anchor="end">75</text><text x="416.45" y="18.3" fill="#333333" font-size="16.0" font-family="sans-serif" text-anchor="middle">Simple Bar Chart</text><text x="416.45" y="592.1" fill="#333333" font-size="12.0" font-family="sans-serif" text-anchor="middle">category</text><text x="13.899999999999999" y="295.4" fill="#333333" font-size="12.0" font-family="sans-serif" text-anchor="middle" transform="rotate(-90.0 13.899999999999999 295.4)">value</text><rect x="60.2105769230769" y="406.49597069597064" width="130.8634615384616" height="157.3040293040293" fill="#1f77b4" fill-opacity="0.85" stroke="none"/><rect x="205.61442307692312" y="254.80994243851381" width="130.8634615384616" height="308.99005756148614" fill="#1f77b4" fill-opacity="0.85" stroke="none"/><rect x="351.01826923076925" y="322.22595499738355" width="130.8634615384616" height="241.5740450026164" fill="#1f77b4" fill-opacity="0.85" stroke="none"/><rect x="496.42211538461544" y="52.561904761904714" width="130.8634615384616" height="511.23809523809524" fill="#1f77b4" fill-opacity="0.85" stroke="none"/><rect x="641.8259615384616" y="108.74191522762953" width="130.8634615384616" height="455.0580847723704" fill="#1f77b4" fill-opacity="0.85" stroke="none"/></svg>