<svg xmlns="http://www.w3.org/2000/svg" width="800" height="600" viewBox="0 0 800 600"><rect x="0.0" y="0.0" width="800.0" height="600.0" fill="#ffffff" fill-opacity="1.0" stroke="none"/><line x1="159.80624999999998" y1="27.0" x2="159.80624999999998" y2="563.8" stroke="#dddddd" stroke-width="1.0"/><line x1="373.15000000000003" y1="27.0" x2="373.15000000000003" y2="563.8" stroke="#dddddd" stroke-width="1.0"/><line x1="586.49375" y1="27.0" x2="586.49375" y2="563.8" stroke="#dddddd" stroke-width="1.0"/><line x1="31.799999999999997" y1="521.1968253968254" x2="714.5" y2="521.1968253968254" stroke="#dddddd" stroke-width="0.5"/><line x1="31.799999999999997" y1="435.99047619047616" x2="714.5" y2="435.99047619047616" stroke="#dddddd" stroke-width="0.5"/><line x1="31.799999999999997" y1="350.78412698412694" x2="714.5" y2="350.78412698412694" stroke="#dddddd" stroke-width="0.5"/><line x1="31.799999999999997" y1="265.5777777777777" x2="714.5" y2="265.5777777777777" stroke="#dddddd" stroke-width="0.5"/><line x1="31.799999999999997" y1="180.37142857142857" x2="714.5" y2="180.37142857142857" stroke="#dddddd" stroke-width="0.5"/><line x1="31.799999999999997" y1="95.16507936507935" x2="714.5" y2="95.16507936507935" stroke="#dddddd" stroke-width="0.5"/><line x1="31.799999999999997" y1="563.8" x2="714.5" y2="563.8" stroke="#dddddd" stroke-width="1.0"/><line x1="31.799999999999997" y1="478.5936507936508" x2="714.5" y2="478.5936507936508" stroke="#dddddd" stroke-width="1.0"/><line x1="31.799999999999997" y1="393.3873015873016" x2="714.5" y2="393.3873015873016" stroke="#dddddd" stroke-width="1.0"/><line x1="31.799999999999997" y1="308.18095238095236" x2="714.5" y2="308.18095238095236" stroke="#dddddd" stroke-width="1.0"/><line x1="31.799999999999997" y1="222.9746031746032" x2="714.5" y2="222.9746031746032" stroke="#dddddd" stroke-width="1.0"/><line x1="31.799999999999997" y1="137.76825396825393" x2="714.5" y2="137.76825396825393" stroke="#dddddd" stroke-width="1.0"/><line x1="31.799999999999997" y1="52.561904761904714" x2="714.5" y2="52.561904761904714" stroke="#dddddd" stroke-width="1.0"/><rect x="31.799999999999997" y="27.0" width="682.7" height="536.8" fill="#ffffff" fill-opacity="0.0" stroke="#444444" stroke-width="1.0"/><line x1="159.80624999999998" y1="563.8" x2="159.80624999999998" y2="566.55" stroke="#444444" stroke-width="1.0"/><text x="159.80624999999998" y="577.55" fill="#333333" font-size="11.0" font-family="sans-serif" text-anchor="middle">A</text><line x1="373.15000000000003" y1="563.8" x2="373.15000000000003" y2="566.55" stroke="#444444" stroke-width="1.0"/><text x="373.15000000000003" y="577.55" fill="#333333" font-size="11.0" font-family="sans-serif" text-anchor="middle">B</text><line x1="586.49375" y1="563.8" x2="586.49375" y2="566.55" stroke="#444444" stroke-width="1.0"/><text x="586.49375" y="577.55" fill="#333333" font-size="11.0" font-family="sans-serif" text-anchor="middle">C</text><line x1="31.799999999999997" y1="563.8" x2="29.049999999999997" y2="563.8" stroke="#444444" stroke-width="1.0"/><text x="26.849999999999998" y="567.65" fill="#333333" font-size="11.0" font-family="sans-serif" text-anchor="end">0</text><line x1="31.799999999999997" y1="478.5936507936508" x2="29.049999999999997" y2="478.5936507936508" stroke="#444444" stroke-width="1.0"/><text x="26.849999999999998" y="482.4436507936508" fill="#333333" font-size="11.0" font-family="sans-serif" text-anchor="end">1</text><line x1="31.799999999999997" y1="393.3873015873016" x2="29.049999999999997" y2="393.3873015873016" stroke="#444444" stroke-width="1.0"/><text x="26.849999999999998" y="397.2373015873016" fill="#333333" font-size="11.0" font-family="sans-serif" text-anchor="end">2</text><line x1="31.799999999999997" y1="308.18095238095236" x2="29.049999999999997" y2="308.18095238095236" stroke="#444444" stroke-width="1.0"/><text x="26.849999999999998" y="312.0309523809524" fill="#333333" font-size="11.0" font-family="sans-serif" text-anchor="end">3</text><line x1="31.799999999999997" y1="222.9746031746032" x2="29.049999999999997" y2="222.9746031746032" stroke="#444444" stroke-width="1.0"/><text x="26.849999999999998" y="226.8246031746032" fill="#333333" font-size="11.0" font-family="sans-serif" text-anchor="end">4</text><line x1="31.799999999999997" y1="137.76825396825393" x2="29.049999999999997" y2="137.76825396825393" stroke="#444444" stroke-width="1.0"/><text x="26.849999999999998" y="141.61825396825392" fill="#333333" font-size="11.0" font-family="sans-serif" text-anchor="end">5</text><line x1="31.799999999999997" y1="52.561904761904714" x2="29.049999999999997" y2="52.561904761904714" stroke="#444444" stroke-width="1.0"/><text x="26.849999999999998" y="56.411904761904715" fill="#333333" font-size="11.0" font-family="sans-serif" text-anchor="end">6</text><text x="373.15000000000003" y="18.3" fill="#333333" font-size="16.0" font-family="sans-serif" text-anchor="middle">Grouped Bar Chart (dodge)</text><text x="373.15000000000003" y="592.1" fill="#333333" font-size="12.0" font-family="sans-serif" text-anchor="middle">category</text><text x="13.899999999999999" y="295.4" fill="#333333" font-size="12.0" font-family="sans-serif" text-anchor="middle" transform="rotate(-90.0 13.899999999999999 295.4)">value</text><rect x="63.80156249999997" y="308.18095238095236" width="64.00312500000003" height="255.6190476190476" fill="#F8766D" fill-opacity="0.85" stroke="none"/><rect x="127.80468749999997" y="137.76825396825393" width="64.00312500000003" height="426.031746031746" fill="#C49A00" fill-opacity="0.85" stroke="none"/><rect x="191.80781249999998" y="393.3873015873016" width="64.00312500000003" height="170.41269841269838" fill="#53B400" fill-opacity="0.85" stroke="none"/><rect x="277.1453125" y="222.9746031746032" width="64.00312500000003" height="340.82539682539675" fill="#F8766D" fill-opacity="0.85" stroke="none"/><rect x="341.1484375" y="478.5936507936508" width="64.00312500000003" height="85.20634920634916" fill="#C49A00" fill-opacity="0.85" stroke="none"/><rect x="405.15156249999995" y="52.561904761904714" width="64.00312500000003" height="511.23809523809524" fill="#53B400" fill-opacity="0.85" stroke="none"/><rect x="490.4890624999999" y="393.3873015873016" width="64.00312500000003" height="170.41269841269838" fill="#F8766D" fill-opacity="0.85" stroke="none"/><rect x="554.4921875" y="308.18095238095236" width="64.00312500000003" height="255.6190476190476" fill="#C49A00" fill-opacity="0.85" stroke="none"/><rect x="618.4953125" y="222.9746031746032" width="64.00312500000003" height="340.82539682539675" fill="#53B400" fill-opacity="0.85" stroke="none"/><rect x="724.5" y="40.0" width="10.0" height="10.0" fill="#F8766D" fill-opacity="1.0" stroke="#444444" stroke-width="0.5"/><text x="738.5" y="49.0" fill="#333333" font-size="10.0" font-family="sans-serif" text-anchor="start">x</text><rect x="724.5" y="56.0" width="10.0" height="10.0" fill="#C49A00" fill-opacity="1.0" stroke="#444444" stroke-width="0.5"/><text x="738.5" y="65.0" fill="#333333" font-size="10.0" font-family="sans-serif" text-anchor="start">y</text><rect x="724.5" y="72.0" width="10.0" height="10.0" fill="#53B400" fill-opacity="1.0" stroke="#444444" stroke-width="0.5"/><text x="738.5" y="81.0" fill="#333333" font-size="10.0" font-family="sans-serif" text-anchor="start">z</text></svg>