<svg xmlns="http://www.w3.org/2000/svg" width="800" height="600" viewBox="0 0 800 600"><rect x="0.0" y="0.0" width="800.0" height="600.0" fill="#ffffff" fill-opacity="1.0" stroke="none"/><line x1="170.53125" y1="27.0" x2="170.53125" y2="563.8" stroke="#dddddd" stroke-width="1.0"/><line x1="379.75" y1="27.0" x2="379.75" y2="563.8" stroke="#dddddd" stroke-width="1.0"/><line x1="588.96875" y1="27.0" x2="588.96875" y2="563.8" stroke="#dddddd" stroke-width="1.0"/><line x1="45.0" y1="505.7047619047619" x2="714.5" y2="505.7047619047619" stroke="#dddddd" stroke-width="0.5"/><line x1="45.0" y1="389.5142857142857" x2="714.5" y2="389.5142857142857" stroke="#dddddd" stroke-width="0.5"/><line x1="45.0" y1="273.32380952380953" x2="714.5" y2="273.32380952380953" stroke="#dddddd" stroke-width="0.5"/><line x1="45.0" y1="157.13333333333333" x2="714.5" y2="157.13333333333333" stroke="#dddddd" stroke-width="0.5"/><line x1="45.0" y1="40.94285714285718" x2="714.5" y2="40.94285714285718" stroke="#dddddd" stroke-width="0.5"/><line x1="45.0" y1="563.8" x2="714.5" y2="563.8" stroke="#dddddd" stroke-width="1.0"/><line x1="45.0" y1="447.6095238095238" x2="714.5" y2="447.6095238095238" stroke="#dddddd" stroke-width="1.0"/><line x1="45.0" y1="331.4190476190476" x2="714.5" y2="331.4190476190476" stroke="#dddddd" stroke-width="1.0"/><line x1="45.0" y1="215.2285714285714" x2="714.5" y2="215.2285714285714" stroke="#dddddd" stroke-width="1.0"/><line x1="45.0" y1="99.03809523809525" x2="714.5" y2="99.03809523809525" stroke="#dddddd" stroke-width="1.0"/><rect x="45.0" y="27.0" width="669.5" height="536.8" fill="#ffffff" fill-opacity="0.0" stroke="#444444" stroke-width="1.0"/><line x1="170.53125" y1="563.8" x2="170.53125" y2="566.55" stroke="#444444" stroke-width="1.0"/><text x="170.53125" y="577.55" fill="#333333" font-size="11.0" font-family="sans-serif" text-anchor="middle">A</text><line x1="379.75" y1="563.8" x2="379.75" y2="566.55" stroke="#444444" stroke-width="1.0"/><text x="379.75" y="577.55" fill="#333333" font-size="11.0" font-family="sans-serif" text-anchor="middle">B</text><line x1="588.96875" y1="563.8" x2="588.96875" y2="566.55" stroke="#444444" stroke-width="1.0"/><text x="588.96875" y="577.55" fill="#333333" font-size="11.0" font-family="sans-serif" text-anchor="middle">C</text><line x1="45.0" y1="563.8" x2="42.25" y2="563.8" stroke="#444444" stroke-width="1.0"/><text x="40.05" y="567.65" fill="#333333" font-size="11.0" font-family="sans-serif" text-anchor="end">0</text><line x1="45.0" y1="447.6095238095238" x2="42.25" y2="447.6095238095238" stroke="#444444" stroke-width="1.0"/><text x="40.05" y="451.45952380952383" fill="#333333" font-size="11.0" font-family="sans-serif" text-anchor="end">2.5</text><line x1="45.0" y1="331.4190476190476" x2="42.25" y2="331.4190476190476" stroke="#444444" stroke-width="1.0"/><text x="40.05" y="335.2690476190476" fill="#333333" font-size="11.0" font-family="sans-serif" text-anchor="end">5</text><line x1="45.0" y1="215.2285714285714" x2="42.25" y2="215.2285714285714" stroke="#444444" stroke-width="1.0"/><text x="40.05" y="219.0785714285714" fill="#333333" font-size="11.0" font-family="sans-serif" text-anchor="end">7.5</text><line x1="45.0" y1="99.03809523809525" x2="42.25" y2="99.03809523809525" stroke="#444444" stroke-width="1.0"/><text x="40.05" y="102.88809523809525" fill="#333333" font-size="11.0" font-family="sans-serif" text-anchor="end">10</text><text x="379.75" y="18.3" fill="#333333" font-size="16.0" font-family="sans-serif" text-anchor="middle">Stacked Bar Chart</text><text x="379.75" y="592.1" fill="#333333" font-size="12.0" font-family="sans-serif" text-anchor="middle">category</text><text x="13.899999999999999" y="295.4" fill="#333333" font-size="12.0" font-family="sans-serif" text-anchor="middle" transform="rotate(-90.0 13.899999999999999 295.4)">value</text><rect x="76.3828125" y="424.3714285714285" width="188.296875" height="139.42857142857144" fill="#F8766D" fill-opacity="0.85" stroke="none"/><rect x="76.3828125" y="191.99047619047622" width="188.296875" height="232.3809523809523" fill="#C49A00" fill-opacity="0.85" stroke="none"/><rect x="76.3828125" y="99.03809523809525" width="188.296875" height="92.95238095238096" fill="#53B400" fill-opacity="0.85" stroke="none"/><rect x="285.6015625" y="377.8952380952381" width="188.296875" height="185.90476190476187" fill="#F8766D" fill-opacity="0.85" stroke="none"/><rect x="285.6015625" y="331.4190476190476" width="188.296875" height="46.47619047619048" fill="#C49A00" fill-opacity="0.85" stroke="none"/><rect x="285.6015625" y="52.56190476190477" width="188.296875" height="278.85714285714283" fill="#53B400" fill-opacity="0.85" stroke="none"/><rect x="494.8203125" y="470.847619047619" width="188.296875" height="92.95238095238096" fill="#F8766D" fill-opacity="0.85" stroke="none"/><rect x="494.8203125" y="331.4190476190476" width="188.296875" height="139.4285714285714" fill="#C49A00" fill-opacity="0.85" stroke="none"/><rect x="494.8203125" y="145.51428571428573" width="188.296875" height="185.90476190476187" fill="#53B400" fill-opacity="0.85" stroke="none"/><rect x="724.5" y="40.0" width="10.0" height="10.0" fill="#F8766D" fill-opacity="1.0" stroke="#444444" stroke-width="0.5"/><text x="738.5" y="49.0" fill="#333333" font-size="10.0" font-family="sans-serif" text-anchor="start">x</text><rect x="724.5" y="56.0" width="10.0" height="10.0" fill="#C49A00" fill-opacity="1.0" stroke="#444444" stroke-width="0.5"/><text x="738.5" y="65.0" fill="#333333" font-size="10.0" font-family="sans-serif" text-anchor="start">y</text><rect x="724.5" y="72.0" width="10.0" height="10.0" fill="#53B400" fill-opacity="1.0" stroke="#444444" stroke-width="0.5"/><text x="738.5" y="81.0" fill="#333333" font-size="10.0" font-family="sans-serif" text-anchor="start">z</text></svg>