<svg xmlns="http://www.w3.org/2000/svg" width="800" height="600" viewBox="0 0 800 600"><rect x="0.0" y="0.0" width="800.0" height="600.0" fill="#ffffff" fill-opacity="1.0" stroke="none"/><line x1="163.90937499999995" y1="27.0" x2="163.90937499999995" y2="578.55" stroke="#dddddd" stroke-width="1.0"/><line x1="375.67499999999995" y1="27.0" x2="375.67499999999995" y2="578.55" stroke="#dddddd" stroke-width="1.0"/><line x1="587.440625" y1="27.0" x2="587.440625" y2="578.55" stroke="#dddddd" stroke-width="1.0"/><line x1="36.849999999999994" y1="512.8892857142857" x2="714.5" y2="512.8892857142857" stroke="#dddddd" stroke-width="0.5"/><line x1="36.849999999999994" y1="381.5678571428571" x2="714.5" y2="381.5678571428571" stroke="#dddddd" stroke-width="0.5"/><line x1="36.849999999999994" y1="250.24642857142857" x2="714.5" y2="250.24642857142857" stroke="#dddddd" stroke-width="0.5"/><line x1="36.849999999999994" y1="118.92500000000001" x2="714.5" y2="118.92500000000001" stroke="#dddddd" stroke-width="0.5"/><line x1="36.849999999999994" y1="578.55" x2="714.5" y2="578.55" stroke="#dddddd" stroke-width="1.0"/><line x1="36.849999999999994" y1="447.2285714285714" x2="714.5" y2="447.2285714285714" stroke="#dddddd" stroke-width="1.0"/><line x1="36.849999999999994" y1="315.90714285714284" x2="714.5" y2="315.90714285714284" stroke="#dddddd" stroke-width="1.0"/><line x1="36.849999999999994" y1="184.5857142857143" x2="714.5" y2="184.5857142857143" stroke="#dddddd" stroke-width="1.0"/><line x1="36.849999999999994" y1="53.264285714285734" x2="714.5" y2="53.264285714285734" stroke="#dddddd" stroke-width="1.0"/><rect x="36.849999999999994" y="27.0" width="677.65" height="551.55" fill="#ffffff" fill-opacity="0.0" stroke="#444444" stroke-width="1.0"/><line x1="163.90937499999995" y1="578.55" x2="163.90937499999995" y2="581.3" stroke="#444444" stroke-width="1.0"/><text x="163.90937499999995" y="592.3" fill="#333333" font-size="11.0" font-family="sans-serif" text-anchor="middle">A</text><line x1="375.67499999999995" y1="578.55" x2="375.67499999999995" y2="581.3" stroke="#444444" stroke-width="1.0"/><text x="375.67499999999995" y="592.3" fill="#333333" font-size="11.0" font-family="sans-serif" text-anchor="middle">B</text><line x1="587.440625" y1="578.55" x2="587.440625" y2="581.3" stroke="#444444" stroke-width="1.0"/><text x="587.440625" y="592.3" fill="#333333" font-size="11.0" font-family="sans-serif" text-anchor="middle">C</text><line x1="36.849999999999994" y1="578.55" x2="34.099999999999994" y2="578.55" stroke="#444444" stroke-width="1.0"/><text x="31.899999999999995" y="582.4" fill="#333333" font-size="11.0" font-family="sans-serif" text-anchor="end">0</text><line x1="36.849999999999994" y1="447.2285714285714" x2="34.099999999999994" y2="447.2285714285714" stroke="#444444" stroke-width="1.0"/><text x="31.899999999999995" y="451.0785714285714" fill="#333333" font-size="11.0" font-family="sans-serif" text-anchor="end">0.25</text><line x1="36.849999999999994" y1="315.90714285714284" x2="34.099999999999994" y2="315.90714285714284" stroke="#444444" stroke-width="1.0"/><text x="31.899999999999995" y="319.75714285714287" fill="#333333" font-size="11.0" font-family="sans-serif" text-anchor="end">0.5</text><line x1="36.849999999999994" y1="184.5857142857143" x2="34.099999999999994" y2="184.5857142857143" stroke="#444444" stroke-width="1.0"/><text x="31.899999999999995" y="188.43571428571428" fill="#333333" font-size="11.0" font-family="sans-serif" text-anchor="end">0.75</text><line x1="36.849999999999994" y1="53.264285714285734" x2="34.099999999999994" y2="53.264285714285734" stroke="#444444" stroke-width="1.0"/><text x="31.899999999999995" y="57.114285714285735" fill="#333333" font-size="11.0" font-family="sans-serif" text-anchor="end">1</text><text x="375.67499999999995" y="18.3" fill="#333333" font-size="16.0" font-family="sans-serif" text-anchor="middle">Normalized (Percentage) Stacked Bar Chart</text><rect x="68.61484374999995" y="420.96428571428567" width="190.5890625" height="157.5857142857143" fill="#F8766D" fill-opacity="0.85" stroke="none"/><rect x="68.61484374999995" y="158.3214285714286" width="190.5890625" height="262.64285714285705" fill="#C49A00" fill-opacity="0.85" stroke="none"/><rect x="68.61484374999995" y="53.264285714285734" width="190.5890625" height="105.05714285714288" fill="#53B400" fill-opacity="0.85" stroke="none"/><rect x="280.38046875" y="387.537012987013" width="190.5890625" height="191.01298701298697" fill="#F8766D" fill-opacity="0.85" stroke="none"/><rect x="280.38046875" y="339.7837662337662" width="190.5890625" height="47.7532467532468" fill="#C49A00" fill-opacity="0.85" stroke="none"/><rect x="280.38046875" y="53.264285714285734" width="190.5890625" height="286.51948051948045" fill="#53B400" fill-opacity="0.85" stroke="none"/><rect x="492.14609375" y="461.8198412698412" width="190.5890625" height="116.73015873015873" fill="#F8766D" fill-opacity="0.85" stroke="none"/><rect x="492.14609375" y="286.72460317460315" width="190.5890625" height="175.09523809523807" fill="#C49A00" fill-opacity="0.85" stroke="none"/><rect x="492.14609375" y="53.264285714285734" width="190.5890625" height="233.4603174603174" fill="#53B400" fill-opacity="0.85" stroke="none"/><rect x="724.5" y="40.0" width="10.0" height="10.0" fill="#F8766D" fill-opacity="1.0" stroke="#444444" stroke-width="0.5"/><text x="738.5" y="49.0" fill="#333333" font-size="10.0" font-family="sans-serif" text-anchor="start">x</text><rect x="724.5" y="56.0" width="10.0" height="10.0" fill="#C49A00" fill-opacity="1.0" stroke="#444444" stroke-width="0.5"/><text x="738.5" y="65.0" fill="#333333" font-size="10.0" font-family="sans-serif" text-anchor="start">y</text><rect x="724.5" y="72.0" width="10.0" height="10.0" fill="#53B400" fill-opacity="1.0" stroke="#444444" stroke-width="0.5"/><text x="738.5" y="81.0" fill="#333333" font-size="10.0" font-family="sans-serif" text-anchor="start">z</text></svg>