<svg xmlns="http://www.w3.org/2000/svg" width="624" height="384" viewBox="0 0 624 384"><rect x="0.0" y="0.0" width="624.0" height="384.0" fill="#ffffff" fill-opacity="1.0" stroke="none"/><line x1="109.28969696969699" y1="32.266666666666666" x2="109.28969696969699" y2="340.0" stroke="#dddddd" stroke-width="0.6666666666666666"/><line x1="255.08767676767678" y1="32.266666666666666" x2="255.08767676767678" y2="340.0" stroke="#dddddd" stroke-width="0.6666666666666666"/><line x1="400.88565656565663" y1="32.266666666666666" x2="400.88565656565663" y2="340.0" stroke="#dddddd" stroke-width="0.6666666666666666"/><line x1="546.6836363636364" y1="32.266666666666666" x2="546.6836363636364" y2="340.0" stroke="#dddddd" stroke-width="0.6666666666666666"/><line x1="182.1886868686869" y1="32.266666666666666" x2="182.1886868686869" y2="340.0" stroke="#dddddd" stroke-width="1.3333333333333333"/><line x1="327.9866666666667" y1="32.266666666666666" x2="327.9866666666667" y2="340.0" stroke="#dddddd" stroke-width="1.3333333333333333"/><line x1="473.78464646464647" y1="32.266666666666666" x2="473.78464646464647" y2="340.0" stroke="#dddddd" stroke-width="1.3333333333333333"/><line x1="39.306666666666665" y1="303.36507936507934" x2="616.6666666666666" y2="303.36507936507934" stroke="#dddddd" stroke-width="0.6666666666666666"/><line x1="39.306666666666665" y1="230.09523809523807" x2="616.6666666666666" y2="230.09523809523807" stroke="#dddddd" stroke-width="0.6666666666666666"/><line x1="39.306666666666665" y1="156.8253968253968" x2="616.6666666666666" y2="156.8253968253968" stroke="#dddddd" stroke-width="0.6666666666666666"/><line x1="39.306666666666665" y1="83.55555555555557" x2="616.6666666666666" y2="83.55555555555557" stroke="#dddddd" stroke-width="0.6666666666666666"/><line x1="39.306666666666665" y1="340.0" x2="616.6666666666666" y2="340.0" stroke="#dddddd" stroke-width="1.3333333333333333"/><line x1="39.306666666666665" y1="266.7301587301587" x2="616.6666666666666" y2="266.7301587301587" stroke="#dddddd" stroke-width="1.3333333333333333"/><line x1="39.306666666666665" y1="193.46031746031747" x2="616.6666666666666" y2="193.46031746031747" stroke="#dddddd" stroke-width="1.3333333333333333"/><line x1="39.306666666666665" y1="120.19047619047618" x2="616.6666666666666" y2="120.19047619047618" stroke="#dddddd" stroke-width="1.3333333333333333"/><line x1="39.306666666666665" y1="46.92063492063494" x2="616.6666666666666" y2="46.92063492063494" stroke="#dddddd" stroke-width="1.3333333333333333"/><rect x="39.306666666666665" y="32.266666666666666" width="577.3599999999999" height="307.73333333333335" fill="#ffffff" fill-opacity="0.0" stroke="#444444" stroke-width="1.3333333333333333"/><line x1="182.1886868686869" y1="340.0" x2="182.1886868686869" y2="343.66666666666663" stroke="#444444" stroke-width="1.3333333333333333"/><text x="182.1886868686869" y="355.9866666666667" fill="#333333" font-size="11.733333333333334" font-family="sans-serif" text-anchor="middle">5.0</text><line x1="327.9866666666667" y1="340.0" x2="327.9866666666667" y2="343.66666666666663" stroke="#444444" stroke-width="1.3333333333333333"/><text x="327.9866666666667" y="355.9866666666667" fill="#333333" font-size="11.733333333333334" font-family="sans-serif" text-anchor="middle">7.5</text><line x1="473.78464646464647" y1="340.0" x2="473.78464646464647" y2="343.66666666666663" stroke="#444444" stroke-width="1.3333333333333333"/><text x="473.78464646464647" y="355.9866666666667" fill="#333333" font-size="11.733333333333334" font-family="sans-serif" text-anchor="middle">10.0</text><line x1="39.306666666666665" y1="340.0" x2="35.64" y2="340.0" stroke="#444444" stroke-width="1.3333333333333333"/><text x="32.70666666666666" y="344.1066666666666" fill="#333333" font-size="11.733333333333334" font-family="sans-serif" text-anchor="end">0</text><line x1="39.306666666666665" y1="266.7301587301587" x2="35.64" y2="266.7301587301587" stroke="#444444" stroke-width="1.3333333333333333"/><text x="32.70666666666666" y="270.83682539682536" fill="#333333" font-size="11.733333333333334" font-family="sans-serif" text-anchor="end">1</text><line x1="39.306666666666665" y1="193.46031746031747" x2="35.64" y2="193.46031746031747" stroke="#444444" stroke-width="1.3333333333333333"/><text x="32.70666666666666" y="197.56698412698415" fill="#333333" font-size="11.733333333333334" font-family="sans-serif" text-anchor="end">2</text><line x1="39.306666666666665" y1="120.19047619047618" x2="35.64" y2="120.19047619047618" stroke="#444444" stroke-width="1.3333333333333333"/><text x="32.70666666666666" y="124.29714285714284" fill="#333333" font-size="11.733333333333334" font-family="sans-serif" text-anchor="end">3</text><line x1="39.306666666666665" y1="46.92063492063494" x2="35.64" y2="46.92063492063494" stroke="#444444" stroke-width="1.3333333333333333"/><text x="32.70666666666666" y="51.0273015873016" fill="#333333" font-size="11.733333333333334" font-family="sans-serif" text-anchor="end">4</text><text x="39.306666666666665" y="21.413333333333334" fill="#333333" font-size="17.599999999999998" font-family="sans-serif" text-anchor="start">Histogram</text><text x="327.9866666666666" y="373.73333333333335" fill="#333333" font-size="14.666666666666666" font-family="sans-serif" text-anchor="middle">x</text><text x="17.599999999999998" y="186.13333333333333" fill="#333333" font-size="14.666666666666666" font-family="sans-serif" text-anchor="middle" transform="rotate(-90.0 17.599999999999998 186.13333333333333)">count</text><rect x="65.55030303030304" y="266.7301587301587" width="17.49575757575758" height="73.26984126984128" fill="#1f77b4" fill-opacity="1.0" stroke="none"/><rect x="118.03757575757575" y="266.7301587301587" width="17.495757575757597" height="73.26984126984128" fill="#1f77b4" fill-opacity="1.0" stroke="none"/><rect x="135.53333333333336" y="266.7301587301587" width="17.49575757575758" height="73.26984126984128" fill="#1f77b4" fill-opacity="1.0" stroke="none"/><rect x="153.02909090909094" y="266.7301587301587" width="17.49575757575756" height="73.26984126984128" fill="#1f77b4" fill-opacity="1.0" stroke="none"/><rect x="170.5248484848485" y="46.92063492063494" width="17.49575757575754" height="293.07936507936506" fill="#1f77b4" fill-opacity="1.0" stroke="none"/><rect x="188.02060606060604" y="193.46031746031747" width="17.495757575757615" height="146.53968253968253" fill="#1f77b4" fill-opacity="1.0" stroke="none"/><rect x="205.51636363636365" y="193.46031746031747" width="17.49575757575754" height="146.53968253968253" fill="#1f77b4" fill-opacity="1.0" stroke="none"/><rect x="223.0121212121212" y="266.7301587301587" width="17.495757575757615" height="73.26984126984128" fill="#1f77b4" fill-opacity="1.0" stroke="none"/><rect x="240.5078787878788" y="120.19047619047618" width="17.49575757575754" height="219.8095238095238" fill="#1f77b4" fill-opacity="1.0" stroke="none"/><rect x="258.00363636363636" y="266.7301587301587" width="17.49575757575758" height="73.26984126984128" fill="#1f77b4" fill-opacity="1.0" stroke="none"/><rect x="275.49939393939394" y="266.7301587301587" width="17.495757575757615" height="73.26984126984128" fill="#1f77b4" fill-opacity="1.0" stroke="none"/><rect x="292.9951515151515" y="266.7301587301587" width="17.49575757575754" height="73.26984126984128" fill="#1f77b4" fill-opacity="1.0" stroke="none"/><rect x="327.9866666666667" y="266.7301587301587" width="17.49575757575754" height="73.26984126984128" fill="#1f77b4" fill-opacity="1.0" stroke="none"/><rect x="345.48242424242426" y="266.7301587301587" width="17.49575757575758" height="73.26984126984128" fill="#1f77b4" fill-opacity="1.0" stroke="none"/><rect x="572.9272727272727" y="266.7301587301587" width="17.49575757575758" height="73.26984126984128" fill="#1f77b4" fill-opacity="1.0" stroke="none"/></svg>