<svg xmlns="http://www.w3.org/2000/svg" width="800" height="600" viewBox="0 0 800 600"><rect x="0.0" y="0.0" width="800.0" height="600.0" fill="#ffffff" fill-opacity="1.0" stroke="none"/><line x1="124.24848484848488" y1="27.0" x2="124.24848484848488" y2="563.8" stroke="#dddddd" stroke-width="0.5"/><line x1="316.849494949495" y1="27.0" x2="316.849494949495" y2="563.8" stroke="#dddddd" stroke-width="0.5"/><line x1="509.4505050505052" y1="27.0" x2="509.4505050505052" y2="563.8" stroke="#dddddd" stroke-width="0.5"/><line x1="702.0515151515152" y1="27.0" x2="702.0515151515152" y2="563.8" stroke="#dddddd" stroke-width="0.5"/><line x1="220.54898989898993" y1="27.0" x2="220.54898989898993" y2="563.8" stroke="#dddddd" stroke-width="1.0"/><line x1="413.1500000000001" y1="27.0" x2="413.1500000000001" y2="563.8" stroke="#dddddd" stroke-width="1.0"/><line x1="605.7510101010101" y1="27.0" x2="605.7510101010101" y2="563.8" stroke="#dddddd" stroke-width="1.0"/><line x1="31.799999999999997" y1="499.895238095238" x2="794.5" y2="499.895238095238" stroke="#dddddd" stroke-width="0.5"/><line x1="31.799999999999997" y1="372.0857142857143" x2="794.5" y2="372.0857142857143" stroke="#dddddd" stroke-width="0.5"/><line x1="31.799999999999997" y1="244.27619047619044" x2="794.5" y2="244.27619047619044" stroke="#dddddd" stroke-width="0.5"/><line x1="31.799999999999997" y1="116.4666666666667" x2="794.5" y2="116.4666666666667" stroke="#dddddd" stroke-width="0.5"/><line x1="31.799999999999997" y1="563.8" x2="794.5" y2="563.8" stroke="#dddddd" stroke-width="1.0"/><line x1="31.799999999999997" y1="435.99047619047616" x2="794.5" y2="435.99047619047616" stroke="#dddddd" stroke-width="1.0"/><line x1="31.799999999999997" y1="308.18095238095236" x2="794.5" y2="308.18095238095236" stroke="#dddddd" stroke-width="1.0"/><line x1="31.799999999999997" y1="180.37142857142857" x2="794.5" y2="180.37142857142857" stroke="#dddddd" stroke-width="1.0"/><line x1="31.799999999999997" y1="52.56190476190477" x2="794.5" y2="52.56190476190477" stroke="#dddddd" stroke-width="1.0"/><rect x="31.799999999999997" y="27.0" width="762.7" height="536.8" fill="#ffffff" fill-opacity="0.0" stroke="#444444" stroke-width="1.0"/><line x1="220.54898989898993" y1="563.8" x2="220.54898989898993" y2="566.55" stroke="#444444" stroke-width="1.0"/><text x="220.54898989898993" y="577.55" fill="#333333" font-size="11.0" font-family="sans-serif" text-anchor="middle">5</text><line x1="413.1500000000001" y1="563.8" x2="413.1500000000001" y2="566.55" stroke="#444444" stroke-width="1.0"/><text x="413.1500000000001" y="577.55" fill="#333333" font-size="11.0" font-family="sans-serif" text-anchor="middle">7.5</text><line x1="605.7510101010101" y1="563.8" x2="605.7510101010101" y2="566.55" stroke="#444444" stroke-width="1.0"/><text x="605.7510101010101" y="577.55" fill="#333333" font-size="11.0" font-family="sans-serif" text-anchor="middle">10</text><line x1="31.799999999999997" y1="563.8" x2="29.049999999999997" y2="563.8" stroke="#444444" stroke-width="1.0"/><text x="26.849999999999998" y="567.65" fill="#333333" font-size="11.0" font-family="sans-serif" text-anchor="end">0</text><line x1="31.799999999999997" y1="435.99047619047616" x2="29.049999999999997" y2="435.99047619047616" stroke="#444444" stroke-width="1.0"/><text x="26.849999999999998" y="439.8404761904762" fill="#333333" font-size="11.0" font-family="sans-serif" text-anchor="end">1</text><line x1="31.799999999999997" y1="308.18095238095236" x2="29.049999999999997" y2="308.18095238095236" stroke="#444444" stroke-width="1.0"/><text x="26.849999999999998" y="312.0309523809524" fill="#333333" font-size="11.0" font-family="sans-serif" text-anchor="end">2</text><line x1="31.799999999999997" y1="180.37142857142857" x2="29.049999999999997" y2="180.37142857142857" stroke="#444444" stroke-width="1.0"/><text x="26.849999999999998" y="184.22142857142856" fill="#333333" font-size="11.0" font-family="sans-serif" text-anchor="end">3</text><line x1="31.799999999999997" y1="52.56190476190477" x2="29.049999999999997" y2="52.56190476190477" stroke="#444444" stroke-width="1.0"/><text x="26.849999999999998" y="56.41190476190477" fill="#333333" font-size="11.0" font-family="sans-serif" text-anchor="end">4</text><text x="413.15000000000003" y="18.3" fill="#333333" font-size="16.0" font-family="sans-serif" text-anchor="middle">Histogram</text><text x="413.15000000000003" y="592.1" fill="#333333" font-size="12.0" font-family="sans-serif" text-anchor="middle">x</text><text x="13.899999999999999" y="295.4" fill="#333333" font-size="12.0" font-family="sans-serif" text-anchor="middle" transform="rotate(-90.0 13.899999999999999 295.4)">count</text><rect x="66.46818181818183" y="435.99047619047616" width="23.11212121212121" height="127.8095238095238" fill="#1f77b4" fill-opacity="0.7" stroke="none"/><rect x="135.80454545454546" y="435.99047619047616" width="23.112121212121224" height="127.8095238095238" fill="#1f77b4" fill-opacity="0.7" stroke="none"/><rect x="158.91666666666669" y="435.99047619047616" width="23.112121212121224" height="127.8095238095238" fill="#1f77b4" fill-opacity="0.7" stroke="none"/><rect x="182.0287878787879" y="435.99047619047616" width="23.112121212121224" height="127.8095238095238" fill="#1f77b4" fill-opacity="0.7" stroke="none"/><rect x="205.14090909090913" y="52.56190476190477" width="23.112121212121167" height="511.2380952380952" fill="#1f77b4" fill-opacity="0.7" stroke="none"/><rect x="228.2530303030303" y="308.18095238095236" width="23.11212121212128" height="255.6190476190476" fill="#1f77b4" fill-opacity="0.7" stroke="none"/><rect x="251.36515151515158" y="308.18095238095236" width="23.112121212121167" height="255.6190476190476" fill="#1f77b4" fill-opacity="0.7" stroke="none"/><rect x="274.47727272727275" y="435.99047619047616" width="23.11212121212128" height="127.8095238095238" fill="#1f77b4" fill-opacity="0.7" stroke="none"/><rect x="297.58939393939403" y="180.37142857142857" width="23.112121212121167" height="383.4285714285714" fill="#1f77b4" fill-opacity="0.7" stroke="none"/><rect x="320.7015151515152" y="435.99047619047616" width="23.112121212121224" height="127.8095238095238" fill="#1f77b4" fill-opacity="0.7" stroke="none"/><rect x="343.8136363636364" y="435.99047619047616" width="23.11212121212128" height="127.8095238095238" fill="#1f77b4" fill-opacity="0.7" stroke="none"/><rect x="366.9257575757577" y="435.99047619047616" width="23.112121212121167" height="127.8095238095238" fill="#1f77b4" fill-opacity="0.7" stroke="none"/><rect x="413.1500000000001" y="435.99047619047616" width="23.112121212121224" height="127.8095238095238" fill="#1f77b4" fill-opacity="0.7" stroke="none"/><rect x="436.2621212121213" y="435.99047619047616" width="23.112121212121167" height="127.8095238095238" fill="#1f77b4" fill-opacity="0.7" stroke="none"/><rect x="736.7196969696969" y="435.99047619047616" width="23.112121212121338" height="127.8095238095238" fill="#1f77b4" fill-opacity="0.7" stroke="none"/></svg>