<svg xmlns="http://www.w3.org/2000/svg" width="624" height="384" viewBox="0 0 624 384"><rect x="0.0" y="0.0" width="624.0" height="384.0" fill="#ffffff" fill-opacity="1.0" stroke="none"/><line x1="127.84969696969699" y1="32.266666666666666" x2="127.84969696969699" y2="340.0" stroke="#dddddd" stroke-width="0.6666666666666666"/><line x1="268.3143434343434" y1="32.266666666666666" x2="268.3143434343434" y2="340.0" stroke="#dddddd" stroke-width="0.6666666666666666"/><line x1="408.77898989898995" y1="32.266666666666666" x2="408.77898989898995" y2="340.0" stroke="#dddddd" stroke-width="0.6666666666666666"/><line x1="549.2436363636364" y1="32.266666666666666" x2="549.2436363636364" y2="340.0" stroke="#dddddd" stroke-width="0.6666666666666666"/><line x1="198.08202020202023" y1="32.266666666666666" x2="198.08202020202023" y2="340.0" stroke="#dddddd" stroke-width="1.3333333333333333"/><line x1="338.54666666666674" y1="32.266666666666666" x2="338.54666666666674" y2="340.0" stroke="#dddddd" stroke-width="1.3333333333333333"/><line x1="479.01131313131316" y1="32.266666666666666" x2="479.01131313131316" y2="340.0" stroke="#dddddd" stroke-width="1.3333333333333333"/><line x1="60.42666666666666" y1="310.22575400929816" x2="616.6666666666666" y2="310.22575400929816" stroke="#dddddd" stroke-width="0.6666666666666666"/><line x1="60.42666666666666" y1="250.67726202789441" x2="616.6666666666666" y2="250.67726202789441" stroke="#dddddd" stroke-width="0.6666666666666666"/><line x1="60.42666666666666" y1="191.1287700464907" x2="616.6666666666666" y2="191.1287700464907" stroke="#dddddd" stroke-width="0.6666666666666666"/><line x1="60.42666666666666" y1="131.580278065087" x2="616.6666666666666" y2="131.580278065087" stroke="#dddddd" stroke-width="0.6666666666666666"/><line x1="60.42666666666666" y1="72.03178608368333" x2="616.6666666666666" y2="72.03178608368333" stroke="#dddddd" stroke-width="0.6666666666666666"/><line x1="60.42666666666666" y1="340.0" x2="616.6666666666666" y2="340.0" stroke="#dddddd" stroke-width="1.3333333333333333"/><line x1="60.42666666666666" y1="280.4515080185963" x2="616.6666666666666" y2="280.4515080185963" stroke="#dddddd" stroke-width="1.3333333333333333"/><line x1="60.42666666666666" y1="220.90301603719257" x2="616.6666666666666" y2="220.90301603719257" stroke="#dddddd" stroke-width="1.3333333333333333"/><line x1="60.42666666666666" y1="161.35452405578886" x2="616.6666666666666" y2="161.35452405578886" stroke="#dddddd" stroke-width="1.3333333333333333"/><line x1="60.42666666666666" y1="101.80603207438517" x2="616.6666666666666" y2="101.80603207438517" stroke="#dddddd" stroke-width="1.3333333333333333"/><line x1="60.42666666666666" y1="42.25754009298149" x2="616.6666666666666" y2="42.25754009298149" stroke="#dddddd" stroke-width="1.3333333333333333"/><rect x="60.42666666666666" y="32.266666666666666" width="556.24" height="307.73333333333335" fill="#ffffff" fill-opacity="0.0" stroke="#444444" stroke-width="1.3333333333333333"/><line x1="198.08202020202023" y1="340.0" x2="198.08202020202023" y2="343.66666666666663" stroke="#444444" stroke-width="1.3333333333333333"/><text x="198.08202020202023" y="355.9866666666667" fill="#333333" font-size="11.733333333333334" font-family="sans-serif" text-anchor="middle">5.0</text><line x1="338.54666666666674" y1="340.0" x2="338.54666666666674" y2="343.66666666666663" stroke="#444444" stroke-width="1.3333333333333333"/><text x="338.54666666666674" y="355.9866666666667" fill="#333333" font-size="11.733333333333334" font-family="sans-serif" text-anchor="middle">7.5</text><line x1="479.01131313131316" y1="340.0" x2="479.01131313131316" y2="343.66666666666663" stroke="#444444" stroke-width="1.3333333333333333"/><text x="479.01131313131316" y="355.9866666666667" fill="#333333" font-size="11.733333333333334" font-family="sans-serif" text-anchor="middle">10.0</text><line x1="60.42666666666666" y1="340.0" x2="56.76" y2="340.0" stroke="#444444" stroke-width="1.3333333333333333"/><text x="53.82666666666666" y="344.1066666666666" fill="#333333" font-size="11.733333333333334" font-family="sans-serif" text-anchor="end">0.00</text><line x1="60.42666666666666" y1="280.4515080185963" x2="56.76" y2="280.4515080185963" stroke="#444444" stroke-width="1.3333333333333333"/><text x="53.82666666666666" y="284.558174685263" fill="#333333" font-size="11.733333333333334" font-family="sans-serif" text-anchor="end">0.05</text><line x1="60.42666666666666" y1="220.90301603719257" x2="56.76" y2="220.90301603719257" stroke="#444444" stroke-width="1.3333333333333333"/><text x="53.82666666666666" y="225.00968270385926" fill="#333333" font-size="11.733333333333334" font-family="sans-serif" text-anchor="end">0.10</text><line x1="60.42666666666666" y1="161.35452405578886" x2="56.76" y2="161.35452405578886" stroke="#444444" stroke-width="1.3333333333333333"/><text x="53.82666666666666" y="165.4611907224555" fill="#333333" font-size="11.733333333333334" font-family="sans-serif" text-anchor="end">0.15</text><line x1="60.42666666666666" y1="101.80603207438517" x2="56.76" y2="101.80603207438517" stroke="#444444" stroke-width="1.3333333333333333"/><text x="53.82666666666666" y="105.91269874105184" fill="#333333" font-size="11.733333333333334" font-family="sans-serif" text-anchor="end">0.20</text><line x1="60.42666666666666" y1="42.25754009298149" x2="56.76" y2="42.25754009298149" stroke="#444444" stroke-width="1.3333333333333333"/><text x="53.82666666666666" y="46.364206759648155" fill="#333333" font-size="11.733333333333334" font-family="sans-serif" text-anchor="end">0.25</text><text x="60.42666666666666" y="21.413333333333334" fill="#333333" font-size="17.599999999999998" font-family="sans-serif" text-anchor="start">Density Plot</text><text x="338.5466666666666" y="373.73333333333335" fill="#333333" font-size="14.666666666666666" font-family="sans-serif" text-anchor="middle">x</text><text x="17.599999999999998" y="186.13333333333333" fill="#333333" font-size="14.666666666666666" font-family="sans-serif" text-anchor="middle" transform="rotate(-90.0 17.599999999999998 186.13333333333333)">density</text><path d="M 60.42666666666666 296.25630653471796 L 66.04525252525252 290.7706664535329 L 71.6638383838384 284.7903848008351 L 77.28242424242423 278.29195084690616 L 82.90101010101009 271.2546885301633 L 88.51959595959596 263.66214034381983 L 94.13818181818182 255.50363248491752 L 99.75676767676768 246.77596259456283 L 105.37535353535353 237.48513239558196 L 110.9939393939394 227.64803187560824 L 116.61252525252526 217.29397098409154 L 122.23111111111109 206.46595043406128 L 127.84969696969699 195.22156602200948 L 133.46828282828284 183.63345127465647 L 139.08686868686868 171.7891809888403 L 144.70545454545456 159.79058254723265 L 150.3240404040404 147.75243141415038 L 155.94262626262628 135.80054012727857 L 161.56121212121212 124.06928425689492 L 167.17979797979797 112.69864188965471 L 172.79838383838387 101.83085290592896 L 178.4169696969697 91.60682854961456 L 184.0355555555556 82.16245879489493 L 189.6541414141414 73.62497356299714 L 195.27272727272725 66.10951331314826 L 200.89131313131315 59.71605496836162 L 206.509898989899 54.52682123748165 L 212.12848484848487 50.604276451305395 L 217.74707070707075 47.98978180959864 L 223.36565656565656 46.702949523598285 L 228.98424242424238 46.74170095962817 L 234.60282828282828 48.08300072068679 L 240.22141414141416 50.684208602126354 L 245.84000000000003 54.484966123835264 L 251.45858585858585 59.40951501961672 L 257.07717171717167 65.36933230180075 L 262.69575757575757 72.26596047206115 L 268.3143434343434 79.99391183558217 L 273.9329292929293 88.44353205827913 L 279.5515151515151 97.50371919629181 L 285.170101010101 107.06440938581545 L 290.78868686868685 117.01875811711037 L 296.4072727272727 127.26496545517978 L 302.0258585858586 137.707713704099 L 307.64444444444445 148.2592059273514 L 313.2630303030303 158.839812616691 L 318.8816161616162 169.37835092633827 L 324.500202020202 179.81203562742058 L 330.1187878787879 190.08615275057346 L 335.73737373737373 200.15351533636886 L 341.35595959595963 209.97376549321976 L 346.9745454545455 219.5125879166441 L 352.5931313131314 228.7408971877549 L 358.21171717171717 237.63405479398116 L 363.83030303030307 246.17116238073822 L 369.4488888888889 254.3344659470631 L 375.06747474747476 262.1088924236451 L 380.6860606060607 269.48172632651233 L 386.30464646464657 276.4424210191504 L 391.92323232323236 282.9825275513828 L 397.5418181818182 289.09571494969674 L 403.16040404040405 294.7778498659371 L 408.77898989898995 300.02710102134074 L 414.39757575757574 304.8440349639093 L 420.01616161616164 309.23167401984375 L 425.6347474747475 313.1954944012974 L 431.25333333333333 316.74335143421183 L 436.87191919191923 319.8853288362663 L 442.49050505050513 322.63351888698537 L 448.1090909090909 325.0017492025165 L 453.72767676767677 327.0052787900888 L 459.3462626262626 328.66049044083053 L 464.9648484848486 329.9846079037502 L 470.5834343434344 330.9954645289167 L 476.2020202020202 331.7113453231505 L 481.82060606060605 332.1509170479882 L 487.4391919191919 332.3332517638862 L 493.05777777777786 332.2779389248494 L 498.6763636363636 332.00527070680357 L 504.2949494949495 331.53647570256686 L 509.91353535353534 330.8939683855482 L 515.5321212121212 330.1015766599 L 521.1507070707071 329.1847080053176 L 526.7692929292928 328.17041655635285 L 532.3878787878788 327.0873389860785 L 538.0064646464647 325.96547601596933 L 543.6250505050505 324.8358081421559 L 549.2436363636364 323.7297478520044 L 554.862222222222 322.67844507419125 L 560.4808080808081 321.7119765941105 L 566.099393939394 320.85846238696394 L 571.7179797979798 320.1431610887015 L 577.3365656565657 319.5876021807878 L 582.9551515151513 319.2088132802377 L 588.5737373737373 319.0186969801132 L 594.1923232323234 319.02360319910184 L 599.810909090909 319.2241306253303 L 605.4294949494949 319.6151756069761 L 611.0480808080806 320.18623005297735 L 616.6666666666666 320.9219130078184" fill="" fill-opacity="0.0" stroke="#1f77b4" stroke-width="1.8897637795275593"/></svg>