<svg xmlns="http://www.w3.org/2000/svg" width="800" height="600" viewBox="0 0 800 600"><rect x="0.0" y="0.0" width="800.0" height="600.0" fill="#ffffff" fill-opacity="1.0" stroke="none"/><line x1="141.64848484848488" y1="27.0" x2="141.64848484848488" y2="563.8" stroke="#dddddd" stroke-width="0.5"/><line x1="329.249494949495" y1="27.0" x2="329.249494949495" y2="563.8" stroke="#dddddd" stroke-width="0.5"/><line x1="516.8505050505051" y1="27.0" x2="516.8505050505051" y2="563.8" stroke="#dddddd" stroke-width="0.5"/><line x1="704.4515151515152" y1="27.0" x2="704.4515151515152" y2="563.8" stroke="#dddddd" stroke-width="0.5"/><line x1="235.44898989898994" y1="27.0" x2="235.44898989898994" y2="563.8" stroke="#dddddd" stroke-width="1.0"/><line x1="423.05000000000007" y1="27.0" x2="423.05000000000007" y2="563.8" stroke="#dddddd" stroke-width="1.0"/><line x1="610.6510101010101" y1="27.0" x2="610.6510101010101" y2="563.8" stroke="#dddddd" stroke-width="1.0"/><line x1="51.599999999999994" y1="511.8627754079005" x2="794.5" y2="511.8627754079005" stroke="#dddddd" stroke-width="0.5"/><line x1="51.599999999999994" y1="407.98832622370145" x2="794.5" y2="407.98832622370145" stroke="#dddddd" stroke-width="0.5"/><line x1="51.599999999999994" y1="304.1138770395024" x2="794.5" y2="304.1138770395024" stroke="#dddddd" stroke-width="0.5"/><line x1="51.599999999999994" y1="200.2394278553034" x2="794.5" y2="200.2394278553034" stroke="#dddddd" stroke-width="0.5"/><line x1="51.599999999999994" y1="96.3649786711045" x2="794.5" y2="96.3649786711045" stroke="#dddddd" stroke-width="0.5"/><line x1="51.599999999999994" y1="563.8" x2="794.5" y2="563.8" stroke="#dddddd" stroke-width="1.0"/><line x1="51.599999999999994" y1="459.92555081580093" x2="794.5" y2="459.92555081580093" stroke="#dddddd" stroke-width="1.0"/><line x1="51.599999999999994" y1="356.0511016316019" x2="794.5" y2="356.0511016316019" stroke="#dddddd" stroke-width="1.0"/><line x1="51.599999999999994" y1="252.17665244740294" x2="794.5" y2="252.17665244740294" stroke="#dddddd" stroke-width="1.0"/><line x1="51.599999999999994" y1="148.30220326320392" x2="794.5" y2="148.30220326320392" stroke="#dddddd" stroke-width="1.0"/><line x1="51.599999999999994" y1="44.42775407900501" x2="794.5" y2="44.42775407900501" stroke="#dddddd" stroke-width="1.0"/><rect x="51.599999999999994" y="27.0" width="742.9" height="536.8" fill="#ffffff" fill-opacity="0.0" stroke="#444444" stroke-width="1.0"/><line x1="235.44898989898994" y1="563.8" x2="235.44898989898994" y2="566.55" stroke="#444444" stroke-width="1.0"/><text x="235.44898989898994" y="577.55" fill="#333333" font-size="11.0" font-family="sans-serif" text-anchor="middle">5</text><line x1="423.05000000000007" y1="563.8" x2="423.05000000000007" y2="566.55" stroke="#444444" stroke-width="1.0"/><text x="423.05000000000007" y="577.55" fill="#333333" font-size="11.0" font-family="sans-serif" text-anchor="middle">7.5</text><line x1="610.6510101010101" y1="563.8" x2="610.6510101010101" y2="566.55" stroke="#444444" stroke-width="1.0"/><text x="610.6510101010101" y="577.55" fill="#333333" font-size="11.0" font-family="sans-serif" text-anchor="middle">10</text><line x1="51.599999999999994" y1="563.8" x2="48.849999999999994" y2="563.8" stroke="#444444" stroke-width="1.0"/><text x="46.64999999999999" y="567.65" fill="#333333" font-size="11.0" font-family="sans-serif" text-anchor="end">0</text><line x1="51.599999999999994" y1="459.92555081580093" x2="48.849999999999994" y2="459.92555081580093" stroke="#444444" stroke-width="1.0"/><text x="46.64999999999999" y="463.77555081580095" fill="#333333" font-size="11.0" font-family="sans-serif" text-anchor="end">0.05</text><line x1="51.599999999999994" y1="356.0511016316019" x2="48.849999999999994" y2="356.0511016316019" stroke="#444444" stroke-width="1.0"/><text x="46.64999999999999" y="359.90110163160193" fill="#333333" font-size="11.0" font-family="sans-serif" text-anchor="end">0.1</text><line x1="51.599999999999994" y1="252.17665244740294" x2="48.849999999999994" y2="252.17665244740294" stroke="#444444" stroke-width="1.0"/><text x="46.64999999999999" y="256.02665244740297" fill="#333333" font-size="11.0" font-family="sans-serif" text-anchor="end">0.15</text><line x1="51.599999999999994" y1="148.30220326320392" x2="48.849999999999994" y2="148.30220326320392" stroke="#444444" stroke-width="1.0"/><text x="46.64999999999999" y="152.15220326320392" fill="#333333" font-size="11.0" font-family="sans-serif" text-anchor="end">0.2</text><line x1="51.599999999999994" y1="44.42775407900501" x2="48.849999999999994" y2="44.42775407900501" stroke="#444444" stroke-width="1.0"/><text x="46.64999999999999" y="48.277754079005014" fill="#333333" font-size="11.0" font-family="sans-serif" text-anchor="end">0.25</text><text x="423.04999999999995" y="18.3" fill="#333333" font-size="16.0" font-family="sans-serif" text-anchor="middle">Density Plot</text><text x="423.04999999999995" y="592.1" fill="#333333" font-size="12.0" font-family="sans-serif" text-anchor="middle">x</text><text x="13.899999999999999" y="295.4" fill="#333333" font-size="12.0" font-family="sans-serif" text-anchor="middle" transform="rotate(-90.0 13.899999999999999 295.4)">density</text><path d="M 51.599999999999994 487.4949263902835 L 59.104040404040404 477.9259545675578 L 66.60808080808081 467.4941461040564 L 74.1121212121212 456.15848964889267 L 81.6161616161616 443.8829185539157 L 89.12020202020202 430.6387248805107 L 96.62424242424242 416.4072895945745 L 104.12828282828283 401.18302660559357 L 111.63232323232322 384.9764051233158 L 119.13636363636363 367.81688749185383 L 126.64040404040404 349.7556010320418 L 134.14444444444442 330.8675547866251 L 141.64848484848488 311.2532169863995 L 149.15252525252527 291.0392871888071 L 156.65656565656565 270.378528016062 L 164.16060606060609 249.4485638367239 L 171.66464646464644 228.44960523109597 L 179.1686868686869 207.60111549065147 L 186.67272727272726 187.13749498191464 L 194.17676767676767 167.30291691843587 L 201.68080808080808 148.34549991302856 L 209.1848484848485 130.51104494833118 L 216.6888888888889 114.03659406769805 L 224.1929292929293 99.14408300027151 L 231.69696969696966 86.0343590115836 L 239.2010101010101 74.88181858865858 L 246.7050505050505 65.82988834579771 L 254.20909090909092 58.987529026410584 L 261.7131313131313 54.42688975972453 L 269.2171717171717 52.18218144800983 L 276.72121212121203 52.24977819040862 L 284.22525252525253 54.58949779093808 L 291.72929292929297 59.12696006592756 L 299.23333333333335 65.75687764928983 L 306.73737373737373 74.34710028985137 L 314.2414141414141 84.74321137220534 L 321.74545454545455 96.77346484424538 L 329.249494949495 110.25385140816894 L 336.7535353535353 124.99309361639166 L 344.25757575757575 140.79738885800293 L 351.7616161616162 157.4747453151183 L 359.2656565656565 174.83878690618997 L 366.76969696969695 192.71193714148774 L 374.2737373737374 210.9279269379128 L 381.7777777777778 229.33360618003326 L 389.28181818181815 247.79007174817934 L 396.7858585858586 266.1731546054757 L 404.28989898989903 284.3733342443654 L 411.79393939393947 302.2951693993972 L 419.2979797979798 319.85634867600567 L 426.80202020202023 336.9864730830601 L 434.30606060606056 353.62568412149443 L 441.810101010101 369.7232461342727 L 449.31414141414143 385.23618050284585 L 456.81818181818187 400.1280328183934 L 464.3222222222222 414.3678335801023 L 471.82626262626263 427.9292898169823 L 479.33030303030307 440.790221053093 L 486.8343434343435 452.9322300793326 L 494.33838383838383 464.3405788222995 L 501.8424242424243 475.0042237380759 L 509.3464646464646 484.915954748814 L 516.8505050505051 494.07257743150683 L 524.3545454545455 502.4750800540289 L 531.8585858585859 510.1287346637309 L 539.3626262626262 517.0430937866653 L 546.8666666666667 523.2318599974595 L 554.3707070707071 528.7126230046829 L 561.8747474747476 533.5064761867432 L 569.3787878787879 537.6375399867121 L 576.8828282828283 541.1324317196264 L 584.3868686868686 544.0197289925405 L 591.8909090909092 546.3294763520357 L 599.3949494949495 548.0927817129196 L 606.89898989899 549.3415408453224 L 614.4030303030303 550.1083154398616 L 621.9070707070707 550.4263741773856 L 629.4111111111112 550.3298882631905 L 636.9151515151515 549.8542547077951 L 644.4191919191919 549.0365039768345 L 651.9232323232324 547.9157351474078 L 659.4272727272727 546.5335128391496 L 666.9313131313131 544.9341570318062 L 674.4353535353534 543.164860076203 L 681.939393939394 541.275574851799 L 689.4434343434344 539.3186336396415 L 696.9474747474746 537.3480778077642 L 704.4515151515152 535.4187022756367 L 711.9555555555554 533.5848439639055 L 719.459595959596 531.8989678370402 L 726.9636363636364 530.4101254635688 L 734.4676767676767 529.1623771850573 L 741.9717171717173 528.1932783274921 L 749.4757575757575 527.5325313111945 L 756.979797979798 527.2008986316879 L 764.4838383838385 527.2094568802357 L 771.9878787878787 527.5592503888994 L 779.4919191919192 528.2413765137287 L 786.9959595959594 529.2375052830532 L 794.5 530.5208066592187" fill="" fill-opacity="0.0" stroke="#1f77b4" stroke-width="1.5"/></svg>