<svg xmlns="http://www.w3.org/2000/svg" width="800" height="600" viewBox="0 0 800 600"><rect x="0.0" y="0.0" width="800.0" height="600.0" fill="#ffffff" fill-opacity="1.0" stroke="none"/><line x1="141.64848484848488" y1="27.0" x2="141.64848484848488" y2="563.8" stroke="#dddddd" stroke-width="0.5"/><line x1="329.249494949495" y1="27.0" x2="329.249494949495" y2="563.8" stroke="#dddddd" stroke-width="0.5"/><line x1="516.8505050505051" y1="27.0" x2="516.8505050505051" y2="563.8" stroke="#dddddd" stroke-width="0.5"/><line x1="704.4515151515152" y1="27.0" x2="704.4515151515152" y2="563.8" stroke="#dddddd" stroke-width="0.5"/><line x1="235.44898989898994" y1="27.0" x2="235.44898989898994" y2="563.8" stroke="#dddddd" stroke-width="1.0"/><line x1="423.05000000000007" y1="27.0" x2="423.05000000000007" y2="563.8" stroke="#dddddd" stroke-width="1.0"/><line x1="610.6510101010101" y1="27.0" x2="610.6510101010101" y2="563.8" stroke="#dddddd" stroke-width="1.0"/><line x1="51.599999999999994" y1="478.4" x2="794.5" y2="478.4" stroke="#dddddd" stroke-width="0.5"/><line x1="51.599999999999994" y1="356.4" x2="794.5" y2="356.4" stroke="#dddddd" stroke-width="0.5"/><line x1="51.599999999999994" y1="234.39999999999998" x2="794.5" y2="234.39999999999998" stroke="#dddddd" stroke-width="0.5"/><line x1="51.599999999999994" y1="112.40000000000003" x2="794.5" y2="112.40000000000003" stroke="#dddddd" stroke-width="0.5"/><line x1="51.599999999999994" y1="539.4" x2="794.5" y2="539.4" stroke="#dddddd" stroke-width="1.0"/><line x1="51.599999999999994" y1="417.4" x2="794.5" y2="417.4" stroke="#dddddd" stroke-width="1.0"/><line x1="51.599999999999994" y1="295.4" x2="794.5" y2="295.4" stroke="#dddddd" stroke-width="1.0"/><line x1="51.599999999999994" y1="173.39999999999998" x2="794.5" y2="173.39999999999998" stroke="#dddddd" stroke-width="1.0"/><line x1="51.599999999999994" y1="51.40000000000009" x2="794.5" y2="51.40000000000009" stroke="#dddddd" stroke-width="1.0"/><rect x="51.599999999999994" y="27.0" width="742.9" height="536.8" fill="#ffffff" fill-opacity="0.0" stroke="#444444" stroke-width="1.0"/><line x1="235.44898989898994" y1="563.8" x2="235.44898989898994" y2="566.55" stroke="#444444" stroke-width="1.0"/><text x="235.44898989898994" y="577.55" fill="#333333" font-size="11.0" font-family="sans-serif" text-anchor="middle">5</text><line x1="423.05000000000007" y1="563.8" x2="423.05000000000007" y2="566.55" stroke="#444444" stroke-width="1.0"/><text x="423.05000000000007" y="577.55" fill="#333333" font-size="11.0" font-family="sans-serif" text-anchor="middle">7.5</text><line x1="610.6510101010101" y1="563.8" x2="610.6510101010101" y2="566.55" stroke="#444444" stroke-width="1.0"/><text x="610.6510101010101" y="577.55" fill="#333333" font-size="11.0" font-family="sans-serif" text-anchor="middle">10</text><line x1="51.599999999999994" y1="539.4" x2="48.849999999999994" y2="539.4" stroke="#444444" stroke-width="1.0"/><text x="46.64999999999999" y="543.25" fill="#333333" font-size="11.0" font-family="sans-serif" text-anchor="end">0</text><line x1="51.599999999999994" y1="417.4" x2="48.849999999999994" y2="417.4" stroke="#444444" stroke-width="1.0"/><text x="46.64999999999999" y="421.25" fill="#333333" font-size="11.0" font-family="sans-serif" text-anchor="end">0.25</text><line x1="51.599999999999994" y1="295.4" x2="48.849999999999994" y2="295.4" stroke="#444444" stroke-width="1.0"/><text x="46.64999999999999" y="299.25" fill="#333333" font-size="11.0" font-family="sans-serif" text-anchor="end">0.5</text><line x1="51.599999999999994" y1="173.39999999999998" x2="48.849999999999994" y2="173.39999999999998" stroke="#444444" stroke-width="1.0"/><text x="46.64999999999999" y="177.24999999999997" fill="#333333" font-size="11.0" font-family="sans-serif" text-anchor="end">0.75</text><line x1="51.599999999999994" y1="51.40000000000009" x2="48.849999999999994" y2="51.40000000000009" stroke="#444444" stroke-width="1.0"/><text x="46.64999999999999" y="55.25000000000009" fill="#333333" font-size="11.0" font-family="sans-serif" text-anchor="end">1</text><text x="423.04999999999995" y="18.3" fill="#333333" font-size="16.0" font-family="sans-serif" text-anchor="middle">Cumulative Frequency Distribution (ECDF)</text><text x="423.04999999999995" y="592.1" fill="#333333" font-size="12.0" font-family="sans-serif" text-anchor="middle">x</text><text x="13.899999999999999" y="295.4" fill="#333333" font-size="12.0" font-family="sans-serif" text-anchor="middle" transform="rotate(-90.0 13.899999999999999 295.4)">F(x)</text><line x1="85.36818181818182" y1="539.4" x2="85.36818181818182" y2="517.2181818181817" stroke="#1f77b4" stroke-width="1.5"/><line x1="85.36818181818182" y1="517.2181818181817" x2="160.40858585858587" y2="517.2181818181817" stroke="#1f77b4" stroke-width="1.5"/><line x1="160.40858585858587" y1="517.2181818181817" x2="160.40858585858587" y2="495.0363636363636" stroke="#1f77b4" stroke-width="1.5"/><line x1="160.40858585858587" y1="495.0363636363636" x2="175.41666666666669" y2="495.0363636363636" stroke="#1f77b4" stroke-width="1.5"/><line x1="175.41666666666669" y1="495.0363636363636" x2="175.41666666666669" y2="472.8545454545454" stroke="#1f77b4" stroke-width="1.5"/><line x1="175.41666666666669" y1="472.8545454545454" x2="197.92878787878792" y2="472.8545454545454" stroke="#1f77b4" stroke-width="1.5"/><line x1="197.92878787878792" y1="472.8545454545454" x2="197.92878787878792" y2="450.67272727272723" stroke="#1f77b4" stroke-width="1.5"/><line x1="197.92878787878792" y1="450.67272727272723" x2="220.4409090909091" y2="450.67272727272723" stroke="#1f77b4" stroke-width="1.5"/><line x1="220.4409090909091" y1="450.67272727272723" x2="220.4409090909091" y2="428.4909090909091" stroke="#1f77b4" stroke-width="1.5"/><line x1="220.4409090909091" y1="428.4909090909091" x2="235.44898989898994" y2="428.4909090909091" stroke="#1f77b4" stroke-width="1.5"/><line x1="235.44898989898994" y1="428.4909090909091" x2="235.44898989898994" y2="406.30909090909086" stroke="#1f77b4" stroke-width="1.5"/><line x1="235.44898989898994" y1="406.30909090909086" x2="235.44898989898994" y2="406.30909090909086" stroke="#1f77b4" stroke-width="1.5"/><line x1="235.44898989898994" y1="406.30909090909086" x2="235.44898989898994" y2="384.1272727272727" stroke="#1f77b4" stroke-width="1.5"/><line x1="235.44898989898994" y1="384.1272727272727" x2="242.9530303030303" y2="384.1272727272727" stroke="#1f77b4" stroke-width="1.5"/><line x1="242.9530303030303" y1="384.1272727272727" x2="242.9530303030303" y2="361.94545454545454" stroke="#1f77b4" stroke-width="1.5"/><line x1="242.9530303030303" y1="361.94545454545454" x2="250.45707070707073" y2="361.94545454545454" stroke="#1f77b4" stroke-width="1.5"/><line x1="250.45707070707073" y1="361.94545454545454" x2="250.45707070707073" y2="339.76363636363635" stroke="#1f77b4" stroke-width="1.5"/><line x1="250.45707070707073" y1="339.76363636363635" x2="257.9611111111111" y2="339.76363636363635" stroke="#1f77b4" stroke-width="1.5"/><line x1="257.9611111111111" y1="339.76363636363635" x2="257.9611111111111" y2="317.5818181818182" stroke="#1f77b4" stroke-width="1.5"/><line x1="257.9611111111111" y1="317.5818181818182" x2="272.969191919192" y2="317.5818181818182" stroke="#1f77b4" stroke-width="1.5"/><line x1="272.969191919192" y1="317.5818181818182" x2="272.969191919192" y2="295.4" stroke="#1f77b4" stroke-width="1.5"/><line x1="272.969191919192" y1="295.4" x2="280.4732323232323" y2="295.4" stroke="#1f77b4" stroke-width="1.5"/><line x1="280.4732323232323" y1="295.4" x2="280.4732323232323" y2="273.2181818181818" stroke="#1f77b4" stroke-width="1.5"/><line x1="280.4732323232323" y1="273.2181818181818" x2="302.9853535353536" y2="273.2181818181818" stroke="#1f77b4" stroke-width="1.5"/><line x1="302.9853535353536" y1="273.2181818181818" x2="302.9853535353536" y2="251.0363636363636" stroke="#1f77b4" stroke-width="1.5"/><line x1="302.9853535353536" y1="251.0363636363636" x2="310.48939393939395" y2="251.0363636363636" stroke="#1f77b4" stroke-width="1.5"/><line x1="310.48939393939395" y1="251.0363636363636" x2="310.48939393939395" y2="228.85454545454542" stroke="#1f77b4" stroke-width="1.5"/><line x1="310.48939393939395" y1="228.85454545454542" x2="317.9934343434344" y2="228.85454545454542" stroke="#1f77b4" stroke-width="1.5"/><line x1="317.9934343434344" y1="228.85454545454542" x2="317.9934343434344" y2="206.67272727272734" stroke="#1f77b4" stroke-width="1.5"/><line x1="317.9934343434344" y1="206.67272727272734" x2="325.4974747474748" y2="206.67272727272734" stroke="#1f77b4" stroke-width="1.5"/><line x1="325.4974747474748" y1="206.67272727272734" x2="325.4974747474748" y2="184.4909090909091" stroke="#1f77b4" stroke-width="1.5"/><line x1="325.4974747474748" y1="184.4909090909091" x2="348.009595959596" y2="184.4909090909091" stroke="#1f77b4" stroke-width="1.5"/><line x1="348.009595959596" y1="184.4909090909091" x2="348.009595959596" y2="162.3090909090909" stroke="#1f77b4" stroke-width="1.5"/><line x1="348.009595959596" y1="162.3090909090909" x2="370.5217171717172" y2="162.3090909090909" stroke="#1f77b4" stroke-width="1.5"/><line x1="370.5217171717172" y1="162.3090909090909" x2="370.5217171717172" y2="140.12727272727273" stroke="#1f77b4" stroke-width="1.5"/><line x1="370.5217171717172" y1="140.12727272727273" x2="385.529797979798" y2="140.12727272727273" stroke="#1f77b4" stroke-width="1.5"/><line x1="385.529797979798" y1="140.12727272727273" x2="385.529797979798" y2="117.94545454545454" stroke="#1f77b4" stroke-width="1.5"/><line x1="385.529797979798" y1="117.94545454545454" x2="423.05000000000007" y2="117.94545454545454" stroke="#1f77b4" stroke-width="1.5"/><line x1="423.05000000000007" y1="117.94545454545454" x2="423.05000000000007" y2="95.76363636363635" stroke="#1f77b4" stroke-width="1.5"/><line x1="423.05000000000007" y1="95.76363636363635" x2="460.57020202020203" y2="95.76363636363635" stroke="#1f77b4" stroke-width="1.5"/><line x1="460.57020202020203" y1="95.76363636363635" x2="460.57020202020203" y2="73.58181818181822" stroke="#1f77b4" stroke-width="1.5"/><line x1="460.57020202020203" y1="73.58181818181822" x2="760.7318181818182" y2="73.58181818181822" stroke="#1f77b4" stroke-width="1.5"/><line x1="760.7318181818182" y1="73.58181818181822" x2="760.7318181818182" y2="51.40000000000009" stroke="#1f77b4" stroke-width="1.5"/></svg>