<svg xmlns="http://www.w3.org/2000/svg" width="624" height="384" viewBox="0 0 624 384"><rect x="0.0" y="0.0" width="624.0" height="384.0" fill="#ffffff" fill-opacity="1.0" stroke="none"/><line x1="127.84969696969699" y1="32.266666666666666" x2="127.84969696969699" y2="340.0" stroke="#dddddd" stroke-width="0.6666666666666666"/><line x1="268.3143434343434" y1="32.266666666666666" x2="268.3143434343434" y2="340.0" stroke="#dddddd" stroke-width="0.6666666666666666"/><line x1="408.77898989898995" y1="32.266666666666666" x2="408.77898989898995" y2="340.0" stroke="#dddddd" stroke-width="0.6666666666666666"/><line x1="549.2436363636364" y1="32.266666666666666" x2="549.2436363636364" y2="340.0" stroke="#dddddd" stroke-width="0.6666666666666666"/><line x1="198.08202020202023" y1="32.266666666666666" x2="198.08202020202023" y2="340.0" stroke="#dddddd" stroke-width="1.3333333333333333"/><line x1="338.54666666666674" y1="32.266666666666666" x2="338.54666666666674" y2="340.0" stroke="#dddddd" stroke-width="1.3333333333333333"/><line x1="479.01131313131316" y1="32.266666666666666" x2="479.01131313131316" y2="340.0" stroke="#dddddd" stroke-width="1.3333333333333333"/><line x1="60.42666666666666" y1="291.0424242424242" x2="616.6666666666666" y2="291.0424242424242" stroke="#dddddd" stroke-width="0.6666666666666666"/><line x1="60.42666666666666" y1="221.10303030303032" x2="616.6666666666666" y2="221.10303030303032" stroke="#dddddd" stroke-width="0.6666666666666666"/><line x1="60.42666666666666" y1="151.16363636363636" x2="616.6666666666666" y2="151.16363636363636" stroke="#dddddd" stroke-width="0.6666666666666666"/><line x1="60.42666666666666" y1="81.22424242424245" x2="616.6666666666666" y2="81.22424242424245" stroke="#dddddd" stroke-width="0.6666666666666666"/><line x1="60.42666666666666" y1="326.0121212121212" x2="616.6666666666666" y2="326.0121212121212" stroke="#dddddd" stroke-width="1.3333333333333333"/><line x1="60.42666666666666" y1="256.07272727272726" x2="616.6666666666666" y2="256.07272727272726" stroke="#dddddd" stroke-width="1.3333333333333333"/><line x1="60.42666666666666" y1="186.13333333333333" x2="616.6666666666666" y2="186.13333333333333" stroke="#dddddd" stroke-width="1.3333333333333333"/><line x1="60.42666666666666" y1="116.19393939393936" x2="616.6666666666666" y2="116.19393939393936" stroke="#dddddd" stroke-width="1.3333333333333333"/><line x1="60.42666666666666" y1="46.25454545454545" x2="616.6666666666666" y2="46.25454545454545" stroke="#dddddd" stroke-width="1.3333333333333333"/><rect x="60.42666666666666" y="32.266666666666666" width="556.24" height="307.73333333333335" fill="#ffffff" fill-opacity="0.0" stroke="#444444" stroke-width="1.3333333333333333"/><line x1="198.08202020202023" y1="340.0" x2="198.08202020202023" y2="343.66666666666663" stroke="#444444" stroke-width="1.3333333333333333"/><text x="198.08202020202023" y="355.9866666666667" fill="#333333" font-size="11.733333333333334" font-family="sans-serif" text-anchor="middle">5.0</text><line x1="338.54666666666674" y1="340.0" x2="338.54666666666674" y2="343.66666666666663" stroke="#444444" stroke-width="1.3333333333333333"/><text x="338.54666666666674" y="355.9866666666667" fill="#333333" font-size="11.733333333333334" font-family="sans-serif" text-anchor="middle">7.5</text><line x1="479.01131313131316" y1="340.0" x2="479.01131313131316" y2="343.66666666666663" stroke="#444444" stroke-width="1.3333333333333333"/><text x="479.01131313131316" y="355.9866666666667" fill="#333333" font-size="11.733333333333334" font-family="sans-serif" text-anchor="middle">10.0</text><line x1="60.42666666666666" y1="326.0121212121212" x2="56.76" y2="326.0121212121212" stroke="#444444" stroke-width="1.3333333333333333"/><text x="53.82666666666666" y="330.1187878787879" fill="#333333" font-size="11.733333333333334" font-family="sans-serif" text-anchor="end">0.00</text><line x1="60.42666666666666" y1="256.07272727272726" x2="56.76" y2="256.07272727272726" stroke="#444444" stroke-width="1.3333333333333333"/><text x="53.82666666666666" y="260.17939393939395" fill="#333333" font-size="11.733333333333334" font-family="sans-serif" text-anchor="end">0.25</text><line x1="60.42666666666666" y1="186.13333333333333" x2="56.76" y2="186.13333333333333" stroke="#444444" stroke-width="1.3333333333333333"/><text x="53.82666666666666" y="190.24" fill="#333333" font-size="11.733333333333334" font-family="sans-serif" text-anchor="end">0.50</text><line x1="60.42666666666666" y1="116.19393939393936" x2="56.76" y2="116.19393939393936" stroke="#444444" stroke-width="1.3333333333333333"/><text x="53.82666666666666" y="120.30060606060603" fill="#333333" font-size="11.733333333333334" font-family="sans-serif" text-anchor="end">0.75</text><line x1="60.42666666666666" y1="46.25454545454545" x2="56.76" y2="46.25454545454545" stroke="#444444" stroke-width="1.3333333333333333"/><text x="53.82666666666666" y="50.36121212121211" fill="#333333" font-size="11.733333333333334" font-family="sans-serif" text-anchor="end">1.00</text><text x="60.42666666666666" y="21.413333333333334" fill="#333333" font-size="17.599999999999998" font-family="sans-serif" text-anchor="start">Cumulative Frequency Distribution (ECDF)</text><text x="338.5466666666666" y="373.73333333333335" fill="#333333" font-size="14.666666666666666" font-family="sans-serif" text-anchor="middle">x</text><text x="17.599999999999998" y="186.13333333333333" fill="#333333" font-size="14.666666666666666" font-family="sans-serif" text-anchor="middle" transform="rotate(-90.0 17.599999999999998 186.13333333333333)">F(x)</text><line x1="85.71030303030304" y1="326.0121212121212" x2="85.71030303030304" y2="313.29586776859503" stroke="#1f77b4" stroke-width="1.8897637795275593"/><line x1="85.71030303030304" y1="313.29586776859503" x2="141.89616161616163" y2="313.29586776859503" stroke="#1f77b4" stroke-width="1.8897637795275593"/><line x1="141.89616161616163" y1="313.29586776859503" x2="141.89616161616163" y2="300.57961432506886" stroke="#1f77b4" stroke-width="1.8897637795275593"/><line x1="141.89616161616163" y1="300.57961432506886" x2="153.13333333333335" y2="300.57961432506886" stroke="#1f77b4" stroke-width="1.8897637795275593"/><line x1="153.13333333333335" y1="300.57961432506886" x2="153.13333333333335" y2="287.8633608815427" stroke="#1f77b4" stroke-width="1.8897637795275593"/><line x1="153.13333333333335" y1="287.8633608815427" x2="169.98909090909092" y2="287.8633608815427" stroke="#1f77b4" stroke-width="1.8897637795275593"/><line x1="169.98909090909092" y1="287.8633608815427" x2="169.98909090909092" y2="275.1471074380165" stroke="#1f77b4" stroke-width="1.8897637795275593"/><line x1="169.98909090909092" y1="275.1471074380165" x2="186.8448484848485" y2="275.1471074380165" stroke="#1f77b4" stroke-width="1.8897637795275593"/><line x1="186.8448484848485" y1="275.1471074380165" x2="186.8448484848485" y2="262.43085399449035" stroke="#1f77b4" stroke-width="1.8897637795275593"/><line x1="186.8448484848485" y1="262.43085399449035" x2="198.08202020202023" y2="262.43085399449035" stroke="#1f77b4" stroke-width="1.8897637795275593"/><line x1="198.08202020202023" y1="262.43085399449035" x2="198.08202020202023" y2="249.71460055096418" stroke="#1f77b4" stroke-width="1.8897637795275593"/><line x1="198.08202020202023" y1="249.71460055096418" x2="198.08202020202023" y2="249.71460055096418" stroke="#1f77b4" stroke-width="1.8897637795275593"/><line x1="198.08202020202023" y1="249.71460055096418" x2="198.08202020202023" y2="236.99834710743804" stroke="#1f77b4" stroke-width="1.8897637795275593"/><line x1="198.08202020202023" y1="236.99834710743804" x2="203.70060606060605" y2="236.99834710743804" stroke="#1f77b4" stroke-width="1.8897637795275593"/><line x1="203.70060606060605" y1="236.99834710743804" x2="203.70060606060605" y2="224.28209366391184" stroke="#1f77b4" stroke-width="1.8897637795275593"/><line x1="203.70060606060605" y1="224.28209366391184" x2="209.31919191919195" y2="224.28209366391184" stroke="#1f77b4" stroke-width="1.8897637795275593"/><line x1="209.31919191919195" y1="224.28209366391184" x2="209.31919191919195" y2="211.56584022038567" stroke="#1f77b4" stroke-width="1.8897637795275593"/><line x1="209.31919191919195" y1="211.56584022038567" x2="214.9377777777778" y2="211.56584022038567" stroke="#1f77b4" stroke-width="1.8897637795275593"/><line x1="214.9377777777778" y1="211.56584022038567" x2="214.9377777777778" y2="198.8495867768595" stroke="#1f77b4" stroke-width="1.8897637795275593"/><line x1="214.9377777777778" y1="198.8495867768595" x2="226.17494949494954" y2="198.8495867768595" stroke="#1f77b4" stroke-width="1.8897637795275593"/><line x1="226.17494949494954" y1="198.8495867768595" x2="226.17494949494954" y2="186.13333333333333" stroke="#1f77b4" stroke-width="1.8897637795275593"/><line x1="226.17494949494954" y1="186.13333333333333" x2="231.79353535353533" y2="186.13333333333333" stroke="#1f77b4" stroke-width="1.8897637795275593"/><line x1="231.79353535353533" y1="186.13333333333333" x2="231.79353535353533" y2="173.41707988980716" stroke="#1f77b4" stroke-width="1.8897637795275593"/><line x1="231.79353535353533" y1="173.41707988980716" x2="248.64929292929298" y2="173.41707988980716" stroke="#1f77b4" stroke-width="1.8897637795275593"/><line x1="248.64929292929298" y1="173.41707988980716" x2="248.64929292929298" y2="160.70082644628093" stroke="#1f77b4" stroke-width="1.8897637795275593"/><line x1="248.64929292929298" y1="160.70082644628093" x2="254.2678787878788" y2="160.70082644628093" stroke="#1f77b4" stroke-width="1.8897637795275593"/><line x1="254.2678787878788" y1="160.70082644628093" x2="254.2678787878788" y2="147.98457300275481" stroke="#1f77b4" stroke-width="1.8897637795275593"/><line x1="254.2678787878788" y1="147.98457300275481" x2="259.8864646464647" y2="147.98457300275481" stroke="#1f77b4" stroke-width="1.8897637795275593"/><line x1="259.8864646464647" y1="147.98457300275481" x2="259.8864646464647" y2="135.26831955922867" stroke="#1f77b4" stroke-width="1.8897637795275593"/><line x1="259.8864646464647" y1="135.26831955922867" x2="265.5050505050505" y2="135.26831955922867" stroke="#1f77b4" stroke-width="1.8897637795275593"/><line x1="265.5050505050505" y1="135.26831955922867" x2="265.5050505050505" y2="122.55206611570247" stroke="#1f77b4" stroke-width="1.8897637795275593"/><line x1="265.5050505050505" y1="122.55206611570247" x2="282.3608080808081" y2="122.55206611570247" stroke="#1f77b4" stroke-width="1.8897637795275593"/><line x1="282.3608080808081" y1="122.55206611570247" x2="282.3608080808081" y2="109.8358126721763" stroke="#1f77b4" stroke-width="1.8897637795275593"/><line x1="282.3608080808081" y1="109.8358126721763" x2="299.21656565656565" y2="109.8358126721763" stroke="#1f77b4" stroke-width="1.8897637795275593"/><line x1="299.21656565656565" y1="109.8358126721763" x2="299.21656565656565" y2="97.11955922865013" stroke="#1f77b4" stroke-width="1.8897637795275593"/><line x1="299.21656565656565" y1="97.11955922865013" x2="310.4537373737374" y2="97.11955922865013" stroke="#1f77b4" stroke-width="1.8897637795275593"/><line x1="310.4537373737374" y1="97.11955922865013" x2="310.4537373737374" y2="84.40330578512396" stroke="#1f77b4" stroke-width="1.8897637795275593"/><line x1="310.4537373737374" y1="84.40330578512396" x2="338.54666666666674" y2="84.40330578512396" stroke="#1f77b4" stroke-width="1.8897637795275593"/><line x1="338.54666666666674" y1="84.40330578512396" x2="338.54666666666674" y2="71.68705234159779" stroke="#1f77b4" stroke-width="1.8897637795275593"/><line x1="338.54666666666674" y1="71.68705234159779" x2="366.639595959596" y2="71.68705234159779" stroke="#1f77b4" stroke-width="1.8897637795275593"/><line x1="366.639595959596" y1="71.68705234159779" x2="366.639595959596" y2="58.97079889807162" stroke="#1f77b4" stroke-width="1.8897637795275593"/><line x1="366.639595959596" y1="58.97079889807162" x2="591.3830303030303" y2="58.97079889807162" stroke="#1f77b4" stroke-width="1.8897637795275593"/><line x1="591.3830303030303" y1="58.97079889807162" x2="591.3830303030303" y2="46.25454545454545" stroke="#1f77b4" stroke-width="1.8897637795275593"/></svg>