<svg xmlns="http://www.w3.org/2000/svg" width="800" height="600" viewBox="0 0 800 600"><rect x="0.0" y="0.0" width="800.0" height="600.0" fill="#ffffff" fill-opacity="1.0" stroke="none"/><line x1="86.20505050505051" y1="27.0" x2="86.20505050505051" y2="563.8" stroke="#dddddd" stroke-width="0.5"/><line x1="256.9373737373738" y1="27.0" x2="256.9373737373738" y2="563.8" stroke="#dddddd" stroke-width="0.5"/><line x1="427.66969696969704" y1="27.0" x2="427.66969696969704" y2="563.8" stroke="#dddddd" stroke-width="0.5"/><line x1="598.4020202020203" y1="27.0" x2="598.4020202020203" y2="563.8" stroke="#dddddd" stroke-width="0.5"/><line x1="171.57121212121214" y1="27.0" x2="171.57121212121214" y2="563.8" stroke="#dddddd" stroke-width="1.0"/><line x1="342.3035353535354" y1="27.0" x2="342.3035353535354" y2="563.8" stroke="#dddddd" stroke-width="1.0"/><line x1="513.0358585858587" y1="27.0" x2="513.0358585858587" y2="563.8" stroke="#dddddd" stroke-width="1.0"/><line x1="683.7681818181818" y1="27.0" x2="683.7681818181818" y2="563.8" stroke="#dddddd" stroke-width="1.0"/><line x1="38.4" y1="528.494972067039" x2="714.5" y2="528.494972067039" stroke="#dddddd" stroke-width="0.5"/><line x1="38.4" y1="392.1821229050279" x2="714.5" y2="392.1821229050279" stroke="#dddddd" stroke-width="0.5"/><line x1="38.4" y1="255.86927374301666" x2="714.5" y2="255.86927374301666" stroke="#dddddd" stroke-width="0.5"/><line x1="38.4" y1="119.5564245810055" x2="714.5" y2="119.5564245810055" stroke="#dddddd" stroke-width="0.5"/><line x1="38.4" y1="460.33854748603346" x2="714.5" y2="460.33854748603346" stroke="#dddddd" stroke-width="1.0"/><line x1="38.4" y1="324.0256983240223" x2="714.5" y2="324.0256983240223" stroke="#dddddd" stroke-width="1.0"/><line x1="38.4" y1="187.71284916201108" x2="714.5" y2="187.71284916201108" stroke="#dddddd" stroke-width="1.0"/><line x1="38.4" y1="51.399999999999864" x2="714.5" y2="51.399999999999864" stroke="#dddddd" stroke-width="1.0"/><rect x="38.4" y="27.0" width="676.1" height="536.8" fill="#ffffff" fill-opacity="0.0" stroke="#444444" stroke-width="1.0"/><line x1="171.57121212121214" y1="563.8" x2="171.57121212121214" y2="566.55" stroke="#444444" stroke-width="1.0"/><text x="171.57121212121214" y="577.55" fill="#333333" font-size="11.0" font-family="sans-serif" text-anchor="middle">2.5</text><line x1="342.3035353535354" y1="563.8" x2="342.3035353535354" y2="566.55" stroke="#444444" stroke-width="1.0"/><text x="342.3035353535354" y="577.55" fill="#333333" font-size="11.0" font-family="sans-serif" text-anchor="middle">5</text><line x1="513.0358585858587" y1="563.8" x2="513.0358585858587" y2="566.55" stroke="#444444" stroke-width="1.0"/><text x="513.0358585858587" y="577.55" fill="#333333" font-size="11.0" font-family="sans-serif" text-anchor="middle">7.5</text><line x1="683.7681818181818" y1="563.8" x2="683.7681818181818" y2="566.55" stroke="#444444" stroke-width="1.0"/><text x="683.7681818181818" y="577.55" fill="#333333" font-size="11.0" font-family="sans-serif" text-anchor="middle">10</text><line x1="38.4" y1="460.33854748603346" x2="35.65" y2="460.33854748603346" stroke="#444444" stroke-width="1.0"/><text x="33.449999999999996" y="464.1885474860335" fill="#333333" font-size="11.0" font-family="sans-serif" text-anchor="end">5</text><line x1="38.4" y1="324.0256983240223" x2="35.65" y2="324.0256983240223" stroke="#444444" stroke-width="1.0"/><text x="33.449999999999996" y="327.8756983240223" fill="#333333" font-size="11.0" font-family="sans-serif" text-anchor="end">10</text><line x1="38.4" y1="187.71284916201108" x2="35.65" y2="187.71284916201108" stroke="#444444" stroke-width="1.0"/><text x="33.449999999999996" y="191.56284916201108" fill="#333333" font-size="11.0" font-family="sans-serif" text-anchor="end">15</text><line x1="38.4" y1="51.399999999999864" x2="35.65" y2="51.399999999999864" stroke="#444444" stroke-width="1.0"/><text x="33.449999999999996" y="55.249999999999865" fill="#333333" font-size="11.0" font-family="sans-serif" text-anchor="end">20</text><text x="376.45" y="18.3" fill="#333333" font-size="16.0" font-family="sans-serif" text-anchor="middle">Bubble Plot</text><text x="376.45" y="592.1" fill="#333333" font-size="12.0" font-family="sans-serif" text-anchor="middle">x</text><text x="13.899999999999999" y="295.4" fill="#333333" font-size="12.0" font-family="sans-serif" text-anchor="middle" transform="rotate(-90.0 13.899999999999999 295.4)">y</text><circle cx="69.13181818181818" cy="539.4" r="3.0" fill="#F8766D" fill-opacity="0.8" stroke="#F8766D" stroke-width="1.0"><title>(1, 2.1)</title></circle><circle cx="137.4247474747475" cy="490.32737430167595" r="9.0" fill="#C49A00" fill-opacity="0.8" stroke="#C49A00" stroke-width="1.0"><title>(2, 3.9)</title></circle><circle cx="205.71767676767683" cy="433.07597765363124" r="4.0" fill="#F8766D" fill-opacity="0.8" stroke="#F8766D" stroke-width="1.0"><title>(3, 6)</title></circle><circle cx="274.0106060606061" cy="386.72960893854747" r="10.0" fill="#C49A00" fill-opacity="0.8" stroke="#C49A00" stroke-width="1.0"><title>(4, 7.7)</title></circle><circle cx="342.3035353535354" cy="318.5731843575419" r="5.0" fill="#F8766D" fill-opacity="0.8" stroke="#F8766D" stroke-width="1.0"><title>(5, 10.2)</title></circle><circle cx="410.5964646464647" cy="274.95307262569827" r="8.0" fill="#C49A00" fill-opacity="0.8" stroke="#C49A00" stroke-width="1.0"><title>(6, 11.8)</title></circle><circle cx="478.889393939394" cy="212.24916201117315" r="6.0" fill="#F8766D" fill-opacity="0.8" stroke="#F8766D" stroke-width="1.0"><title>(7, 14.1)</title></circle><circle cx="547.1823232323233" cy="163.17653631284912" r="7.0" fill="#C49A00" fill-opacity="0.8" stroke="#C49A00" stroke-width="1.0"><title>(8, 15.9)</title></circle><circle cx="615.4752525252526" cy="100.47262569832401" r="4.0" fill="#F8766D" fill-opacity="0.8" stroke="#F8766D" stroke-width="1.0"><title>(9, 18.2)</title></circle><circle cx="683.7681818181818" cy="51.399999999999864" r="9.0" fill="#C49A00" fill-opacity="0.8" stroke="#C49A00" stroke-width="1.0"><title>(10, 20)</title></circle><circle cx="729.5" cy="45.0" r="5.0" fill="#F8766D" fill-opacity="1.0" stroke="#F8766D" stroke-width="1.0"/><text x="738.5" y="49.0" fill="#333333" font-size="10.0" font-family="sans-serif" text-anchor="start">A</text><circle cx="729.5" cy="61.0" r="5.0" fill="#C49A00" fill-opacity="1.0" stroke="#C49A00" stroke-width="1.0"/><text x="738.5" y="65.0" fill="#333333" font-size="10.0" font-family="sans-serif" text-anchor="start">B</text></svg>