<svg xmlns="http://www.w3.org/2000/svg" width="624" height="384" viewBox="0 0 624 384"><rect x="0.0" y="0.0" width="624.0" height="384.0" fill="#ffffff" fill-opacity="1.0" stroke="none"/><line x1="338.5466666666666" y1="32.266666666666666" x2="338.5466666666666" y2="358.3333333333333" stroke="#dddddd" stroke-width="1.3333333333333333"/><line x1="60.42666666666666" y1="318.810101010101" x2="616.6666666666666" y2="318.810101010101" stroke="#dddddd" stroke-width="0.6666666666666666"/><line x1="60.42666666666666" y1="236.47003367003362" x2="616.6666666666666" y2="236.47003367003362" stroke="#dddddd" stroke-width="0.6666666666666666"/><line x1="60.42666666666666" y1="154.12996632996627" x2="616.6666666666666" y2="154.12996632996627" stroke="#dddddd" stroke-width="0.6666666666666666"/><line x1="60.42666666666666" y1="71.78989898989894" x2="616.6666666666666" y2="71.78989898989894" stroke="#dddddd" stroke-width="0.6666666666666666"/><line x1="60.42666666666666" y1="277.6400673400673" x2="616.6666666666666" y2="277.6400673400673" stroke="#dddddd" stroke-width="1.3333333333333333"/><line x1="60.42666666666666" y1="195.29999999999995" x2="616.6666666666666" y2="195.29999999999995" stroke="#dddddd" stroke-width="1.3333333333333333"/><line x1="60.42666666666666" y1="112.95993265993263" x2="616.6666666666666" y2="112.95993265993263" stroke="#dddddd" stroke-width="1.3333333333333333"/><rect x="60.42666666666666" y="32.266666666666666" width="556.24" height="326.06666666666666" fill="#ffffff" fill-opacity="0.0" stroke="#444444" stroke-width="1.3333333333333333"/><line x1="338.5466666666666" y1="358.3333333333333" x2="338.5466666666666" y2="362.0" stroke="#444444" stroke-width="1.3333333333333333"/><text x="338.5466666666666" y="374.32" fill="#333333" font-size="11.733333333333334" font-family="sans-serif" text-anchor="middle">v</text><line x1="60.42666666666666" y1="277.6400673400673" x2="56.76" y2="277.6400673400673" stroke="#444444" stroke-width="1.3333333333333333"/><text x="53.82666666666666" y="281.74673400673396" fill="#333333" font-size="11.733333333333334" font-family="sans-serif" text-anchor="end">5.0</text><line x1="60.42666666666666" y1="195.29999999999995" x2="56.76" y2="195.29999999999995" stroke="#444444" stroke-width="1.3333333333333333"/><text x="53.82666666666666" y="199.40666666666664" fill="#333333" font-size="11.733333333333334" font-family="sans-serif" text-anchor="end">7.5</text><line x1="60.42666666666666" y1="112.95993265993263" x2="56.76" y2="112.95993265993263" stroke="#444444" stroke-width="1.3333333333333333"/><text x="53.82666666666666" y="117.06659932659929" fill="#333333" font-size="11.733333333333334" font-family="sans-serif" text-anchor="end">10.0</text><text x="60.42666666666666" y="21.413333333333334" fill="#333333" font-size="17.599999999999998" font-family="sans-serif" text-anchor="start">Strip Plot</text><text x="17.599999999999998" y="195.29999999999998" fill="#333333" font-size="14.666666666666666" font-family="sans-serif" text-anchor="middle" transform="rotate(-90.0 17.599999999999998 195.29999999999998)">value</text><circle cx="245.83999999999992" cy="343.5121212121212" r="2.362204724409449" fill="#F8766D" fill-opacity="0.7" stroke="none"/><circle cx="339.91209707498626" cy="310.57609427609424" r="2.362204724409449" fill="#F8766D" fill-opacity="0.7" stroke="none"/><circle cx="388.51431996374373" cy="294.1080808080808" r="2.362204724409449" fill="#F8766D" fill-opacity="0.7" stroke="none"/><circle cx="393.6694213192877" cy="277.6400673400673" r="2.362204724409449" fill="#F8766D" fill-opacity="0.7" stroke="none"/><circle cx="312.46274631983715" cy="277.6400673400673" r="2.362204724409449" fill="#F8766D" fill-opacity="0.7" stroke="none"/><circle cx="327.04800536576124" cy="271.0528619528619" r="2.362204724409449" fill="#F8766D" fill-opacity="0.7" stroke="none"/><circle cx="358.2585069407319" cy="261.1720538720538" r="2.362204724409449" fill="#F8766D" fill-opacity="0.7" stroke="none"/><circle cx="351.75463692711276" cy="244.70404040404037" r="2.362204724409449" fill="#F8766D" fill-opacity="0.7" stroke="none"/><circle cx="274.41625209678597" cy="228.2360269360269" r="2.362204724409449" fill="#F8766D" fill-opacity="0.7" stroke="none"/><circle cx="390.9162726560231" cy="211.7680134680134" r="2.362204724409449" fill="#F8766D" fill-opacity="0.7" stroke="none"/><circle cx="404.26393593014745" cy="178.83198653198647" r="2.362204724409449" fill="#F8766D" fill-opacity="0.7" stroke="none"/><circle cx="263.56312807923894" cy="47.08787878787874" r="2.362204724409449" fill="#F8766D" fill-opacity="0.7" stroke="none"/><circle cx="395.3139524423585" cy="284.2272727272727" r="2.362204724409449" fill="#F8766D" fill-opacity="0.7" stroke="none"/><circle cx="365.05152029506746" cy="274.3464646464646" r="2.362204724409449" fill="#F8766D" fill-opacity="0.7" stroke="none"/><circle cx="277.12549402563565" cy="267.75925925925924" r="2.362204724409449" fill="#F8766D" fill-opacity="0.7" stroke="none"/><circle cx="296.04256922477214" cy="247.99764309764305" r="2.362204724409449" fill="#F8766D" fill-opacity="0.7" stroke="none"/><circle cx="385.28830683711874" cy="238.11683501683495" r="2.362204724409449" fill="#F8766D" fill-opacity="0.7" stroke="none"/><circle cx="327.8739127924838" cy="218.35521885521885" r="2.362204724409449" fill="#F8766D" fill-opacity="0.7" stroke="none"/><circle cx="359.45036717544696" cy="195.29999999999995" r="2.362204724409449" fill="#F8766D" fill-opacity="0.7" stroke="none"/><circle cx="420.73742808274767" cy="303.9888888888888" r="2.362204724409449" fill="#F8766D" fill-opacity="0.7" stroke="none"/><circle cx="401.3161109944924" cy="257.87845117845114" r="2.362204724409449" fill="#F8766D" fill-opacity="0.7" stroke="none"/><circle cx="333.8766831306468" cy="241.4104377104377" r="2.362204724409449" fill="#F8766D" fill-opacity="0.7" stroke="none"/></svg>