<svg xmlns="http://www.w3.org/2000/svg" width="800" height="600" viewBox="0 0 800 600"><rect x="0.0" y="0.0" width="800.0" height="600.0" fill="#ffffff" fill-opacity="1.0" stroke="none"/><line x1="419.75" y1="27.0" x2="419.75" y2="578.55" stroke="#dddddd" stroke-width="1.0"/><line x1="45.0" y1="511.6954545454545" x2="794.5" y2="511.6954545454545" stroke="#dddddd" stroke-width="0.5"/><line x1="45.0" y1="372.4151515151515" x2="794.5" y2="372.4151515151515" stroke="#dddddd" stroke-width="0.5"/><line x1="45.0" y1="233.13484848484836" x2="794.5" y2="233.13484848484836" stroke="#dddddd" stroke-width="0.5"/><line x1="45.0" y1="93.85454545454542" x2="794.5" y2="93.85454545454542" stroke="#dddddd" stroke-width="0.5"/><line x1="45.0" y1="442.055303030303" x2="794.5" y2="442.055303030303" stroke="#dddddd" stroke-width="1.0"/><line x1="45.0" y1="302.7749999999999" x2="794.5" y2="302.7749999999999" stroke="#dddddd" stroke-width="1.0"/><line x1="45.0" y1="163.49469696969692" x2="794.5" y2="163.49469696969692" stroke="#dddddd" stroke-width="1.0"/><rect x="45.0" y="27.0" width="749.5" height="551.55" fill="#ffffff" fill-opacity="0.0" stroke="#444444" stroke-width="1.0"/><line x1="419.75" y1="578.55" x2="419.75" y2="581.3" stroke="#444444" stroke-width="1.0"/><text x="419.75" y="592.3" fill="#333333" font-size="11.0" font-family="sans-serif" text-anchor="middle">v</text><line x1="45.0" y1="442.055303030303" x2="42.25" y2="442.055303030303" stroke="#444444" stroke-width="1.0"/><text x="40.05" y="445.905303030303" fill="#333333" font-size="11.0" font-family="sans-serif" text-anchor="end">5</text><line x1="45.0" y1="302.7749999999999" x2="42.25" y2="302.7749999999999" stroke="#444444" stroke-width="1.0"/><text x="40.05" y="306.62499999999994" fill="#333333" font-size="11.0" font-family="sans-serif" text-anchor="end">7.5</text><line x1="45.0" y1="163.49469696969692" x2="42.25" y2="163.49469696969692" stroke="#444444" stroke-width="1.0"/><text x="40.05" y="167.3446969696969" fill="#333333" font-size="11.0" font-family="sans-serif" text-anchor="end">10</text><text x="419.75" y="18.3" fill="#333333" font-size="16.0" font-family="sans-serif" text-anchor="middle">Strip Plot</text><text x="13.899999999999999" y="302.775" fill="#333333" font-size="12.0" font-family="sans-serif" text-anchor="middle" transform="rotate(-90.0 13.899999999999999 302.775)">value</text><circle cx="294.8333333333333" cy="553.4795454545454" r="2.5" fill="#F8766D" fill-opacity="0.7" stroke="none"/><circle cx="421.5898354865446" cy="497.76742424242417" r="2.5" fill="#F8766D" fill-opacity="0.7" stroke="none"/><circle cx="487.07841245893724" cy="469.9113636363636" r="2.5" fill="#F8766D" fill-opacity="0.7" stroke="none"/><circle cx="494.02460199219666" cy="442.055303030303" r="2.5" fill="#F8766D" fill-opacity="0.7" stroke="none"/><circle cx="384.6034835683361" cy="442.055303030303" r="2.5" fill="#F8766D" fill-opacity="0.7" stroke="none"/><circle cx="404.25624434591435" cy="430.91287878787875" r="2.5" fill="#F8766D" fill-opacity="0.7" stroke="none"/><circle cx="446.3105211516825" cy="414.19924242424236" r="2.5" fill="#F8766D" fill-opacity="0.7" stroke="none"/><circle cx="437.54694683986116" cy="386.34318181818173" r="2.5" fill="#F8766D" fill-opacity="0.7" stroke="none"/><circle cx="333.3381171434533" cy="358.4871212121211" r="2.5" fill="#F8766D" fill-opacity="0.7" stroke="none"/><circle cx="490.3148994840764" cy="330.63106060606054" r="2.5" fill="#F8766D" fill-opacity="0.7" stroke="none"/><circle cx="508.300074271859" cy="274.9189393939393" r="2.5" fill="#F8766D" fill-opacity="0.7" stroke="none"/><circle cx="318.7141842167463" cy="52.07045454545448" r="2.5" fill="#F8766D" fill-opacity="0.7" stroke="none"/><circle cx="496.24050893298045" cy="453.1977272727272" r="2.5" fill="#F8766D" fill-opacity="0.7" stroke="none"/><circle cx="455.4636987532116" cy="436.48409090909087" r="2.5" fill="#F8766D" fill-opacity="0.7" stroke="none"/><circle cx="336.98865796337424" cy="425.34166666666664" r="2.5" fill="#F8766D" fill-opacity="0.7" stroke="none"/><circle cx="362.47828089907244" cy="391.91439393939385" r="2.5" fill="#F8766D" fill-opacity="0.7" stroke="none"/><circle cx="482.73155348006946" cy="375.2007575757575" r="2.5" fill="#F8766D" fill-opacity="0.7" stroke="none"/><circle cx="405.36910501096645" cy="341.7734848484848" r="2.5" fill="#F8766D" fill-opacity="0.7" stroke="none"/><circle cx="447.9164812514937" cy="302.7749999999999" r="2.5" fill="#F8766D" fill-opacity="0.7" stroke="none"/><circle cx="530.4971157797943" cy="486.62499999999994" r="2.5" fill="#F8766D" fill-opacity="0.7" stroke="none"/><circle cx="504.3280571762286" cy="408.62803030303024" r="2.5" fill="#F8766D" fill-opacity="0.7" stroke="none"/><circle cx="413.4574775991535" cy="380.7719696969697" r="2.5" fill="#F8766D" fill-opacity="0.7" stroke="none"/></svg>