<svg xmlns="http://www.w3.org/2000/svg" width="800" height="600" viewBox="0 0 800 600"><rect x="0.0" y="0.0" width="800.0" height="600.0" fill="#ffffff" fill-opacity="1.0" stroke="none"/><line x1="179.16868686868688" y1="27.0" x2="179.16868686868688" y2="563.8" stroke="#dddddd" stroke-width="0.5"/><line x1="366.76969696969695" y1="27.0" x2="366.76969696969695" y2="563.8" stroke="#dddddd" stroke-width="0.5"/><line x1="554.3707070707071" y1="27.0" x2="554.3707070707071" y2="563.8" stroke="#dddddd" stroke-width="0.5"/><line x1="741.9717171717173" y1="27.0" x2="741.9717171717173" y2="563.8" stroke="#dddddd" stroke-width="0.5"/><line x1="85.36818181818182" y1="27.0" x2="85.36818181818182" y2="563.8" stroke="#dddddd" stroke-width="1.0"/><line x1="272.969191919192" y1="27.0" x2="272.969191919192" y2="563.8" stroke="#dddddd" stroke-width="1.0"/><line x1="460.57020202020203" y1="27.0" x2="460.57020202020203" y2="563.8" stroke="#dddddd" stroke-width="1.0"/><line x1="648.1712121212123" y1="27.0" x2="648.1712121212123" y2="563.8" stroke="#dddddd" stroke-width="1.0"/><line x1="51.599999999999994" y1="483.1806146460831" x2="794.5" y2="483.1806146460831" stroke="#dddddd" stroke-width="0.5"/><line x1="51.599999999999994" y1="359.63788120306134" x2="794.5" y2="359.63788120306134" stroke="#dddddd" stroke-width="0.5"/><line x1="51.599999999999994" y1="236.0951477600396" x2="794.5" y2="236.0951477600396" stroke="#dddddd" stroke-width="0.5"/><line x1="51.599999999999994" y1="112.5524143170179" x2="794.5" y2="112.5524143170179" stroke="#dddddd" stroke-width="0.5"/><line x1="51.599999999999994" y1="544.9519813675939" x2="794.5" y2="544.9519813675939" stroke="#dddddd" stroke-width="1.0"/><line x1="51.599999999999994" y1="421.40924792457224" x2="794.5" y2="421.40924792457224" stroke="#dddddd" stroke-width="1.0"/><line x1="51.599999999999994" y1="297.8665144815505" x2="794.5" y2="297.8665144815505" stroke="#dddddd" stroke-width="1.0"/><line x1="51.599999999999994" y1="174.3237810385288" x2="794.5" y2="174.3237810385288" stroke="#dddddd" stroke-width="1.0"/><line x1="51.599999999999994" y1="50.78104759550706" x2="794.5" y2="50.78104759550706" stroke="#dddddd" stroke-width="1.0"/><rect x="51.599999999999994" y="27.0" width="742.9" height="536.8" fill="#ffffff" fill-opacity="0.0" stroke="#444444" stroke-width="1.0"/><line x1="85.36818181818182" y1="563.8" x2="85.36818181818182" y2="566.55" stroke="#444444" stroke-width="1.0"/><text x="85.36818181818182" y="577.55" fill="#333333" font-size="11.0" font-family="sans-serif" text-anchor="middle">0</text><line x1="272.969191919192" y1="563.8" x2="272.969191919192" y2="566.55" stroke="#444444" stroke-width="1.0"/><text x="272.969191919192" y="577.55" fill="#333333" font-size="11.0" font-family="sans-serif" text-anchor="middle">2.5</text><line x1="460.57020202020203" y1="563.8" x2="460.57020202020203" y2="566.55" stroke="#444444" stroke-width="1.0"/><text x="460.57020202020203" y="577.55" fill="#333333" font-size="11.0" font-family="sans-serif" text-anchor="middle">5</text><line x1="648.1712121212123" y1="563.8" x2="648.1712121212123" y2="566.55" stroke="#444444" stroke-width="1.0"/><text x="648.1712121212123" y="577.55" fill="#333333" font-size="11.0" font-family="sans-serif" text-anchor="middle">7.5</text><line x1="51.599999999999994" y1="544.9519813675939" x2="48.849999999999994" y2="544.9519813675939" stroke="#444444" stroke-width="1.0"/><text x="46.64999999999999" y="548.801981367594" fill="#333333" font-size="11.0" font-family="sans-serif" text-anchor="end">5</text><line x1="51.599999999999994" y1="421.40924792457224" x2="48.849999999999994" y2="421.40924792457224" stroke="#444444" stroke-width="1.0"/><text x="46.64999999999999" y="425.25924792457226" fill="#333333" font-size="11.0" font-family="sans-serif" text-anchor="end">7.5</text><line x1="51.599999999999994" y1="297.8665144815505" x2="48.849999999999994" y2="297.8665144815505" stroke="#444444" stroke-width="1.0"/><text x="46.64999999999999" y="301.7165144815505" fill="#333333" font-size="11.0" font-family="sans-serif" text-anchor="end">10</text><line x1="51.599999999999994" y1="174.3237810385288" x2="48.849999999999994" y2="174.3237810385288" stroke="#444444" stroke-width="1.0"/><text x="46.64999999999999" y="178.1737810385288" fill="#333333" font-size="11.0" font-family="sans-serif" text-anchor="end">12.5</text><line x1="51.599999999999994" y1="50.78104759550706" x2="48.849999999999994" y2="50.78104759550706" stroke="#444444" stroke-width="1.0"/><text x="46.64999999999999" y="54.63104759550706" fill="#333333" font-size="11.0" font-family="sans-serif" text-anchor="end">15</text><text x="423.04999999999995" y="18.3" fill="#333333" font-size="16.0" font-family="sans-serif" text-anchor="middle">Line Chart</text><text x="423.04999999999995" y="592.1" fill="#333333" font-size="12.0" font-family="sans-serif" text-anchor="middle">t</text><text x="13.899999999999999" y="295.4" fill="#333333" font-size="12.0" font-family="sans-serif" text-anchor="middle" transform="rotate(-90.0 13.899999999999999 295.4)">f(t)</text><line x1="85.36818181818182" y1="297.8665144815505" x2="160.40858585858587" y2="179.40743143843804" stroke="#1f77b4" stroke-width="2.0"/><line x1="160.40858585858587" y1="179.40743143843804" x2="235.44898989898994" y2="89.95126332923263" stroke="#1f77b4" stroke-width="2.0"/><line x1="235.44898989898994" y1="89.95126332923263" x2="310.48939393939395" y2="51.39999999999998" stroke="#1f77b4" stroke-width="2.0"/><line x1="310.48939393939395" y1="51.39999999999998" x2="385.529797979798" y2="73.19233523604902" stroke="#1f77b4" stroke-width="2.0"/><line x1="385.529797979798" y1="73.19233523604902" x2="460.57020202020203" y2="149.99274533733296" stroke="#1f77b4" stroke-width="2.0"/><line x1="460.57020202020203" y1="149.99274533733296" x2="535.6106060606061" y2="262.997811403116" stroke="#1f77b4" stroke-width="2.0"/><line x1="535.6106060606061" y1="262.997811403116" x2="610.6510101010101" y2="384.53995207103355" stroke="#1f77b4" stroke-width="2.0"/><line x1="610.6510101010101" y1="384.53995207103355" x2="685.6914141414142" y2="484.86141237523265" stroke="#1f77b4" stroke-width="2.0"/><line x1="685.6914141414142" y1="484.86141237523265" x2="760.7318181818182" y2="539.4" stroke="#1f77b4" stroke-width="2.0"/></svg>