<svg xmlns="http://www.w3.org/2000/svg" width="624" height="384" viewBox="0 0 624 384"><rect x="0.0" y="0.0" width="624.0" height="384.0" fill="#ffffff" fill-opacity="1.0" stroke="none"/><line x1="155.94262626262628" y1="32.266666666666666" x2="155.94262626262628" y2="340.0" stroke="#dddddd" stroke-width="0.6666666666666666"/><line x1="296.40727272727275" y1="32.266666666666666" x2="296.40727272727275" y2="340.0" stroke="#dddddd" stroke-width="0.6666666666666666"/><line x1="436.87191919191923" y1="32.266666666666666" x2="436.87191919191923" y2="340.0" stroke="#dddddd" stroke-width="0.6666666666666666"/><line x1="577.3365656565657" y1="32.266666666666666" x2="577.3365656565657" y2="340.0" stroke="#dddddd" stroke-width="0.6666666666666666"/><line x1="85.71030303030302" y1="32.266666666666666" x2="85.71030303030302" y2="340.0" stroke="#dddddd" stroke-width="1.3333333333333333"/><line x1="226.17494949494954" y1="32.266666666666666" x2="226.17494949494954" y2="340.0" stroke="#dddddd" stroke-width="1.3333333333333333"/><line x1="366.639595959596" y1="32.266666666666666" x2="366.639595959596" y2="340.0" stroke="#dddddd" stroke-width="1.3333333333333333"/><line x1="507.10424242424256" y1="32.266666666666666" x2="507.10424242424256" y2="340.0" stroke="#dddddd" stroke-width="1.3333333333333333"/><line x1="60.42666666666666" y1="292.27344171275354" x2="616.6666666666666" y2="292.27344171275354" stroke="#dddddd" stroke-width="0.6666666666666666"/><line x1="60.42666666666666" y1="221.98232849612265" x2="616.6666666666666" y2="221.98232849612265" stroke="#dddddd" stroke-width="0.6666666666666666"/><line x1="60.42666666666666" y1="151.6912152794918" x2="616.6666666666666" y2="151.6912152794918" stroke="#dddddd" stroke-width="0.6666666666666666"/><line x1="60.42666666666666" y1="81.40010206286088" x2="616.6666666666666" y2="81.40010206286088" stroke="#dddddd" stroke-width="0.6666666666666666"/><line x1="60.42666666666666" y1="327.418998321069" x2="616.6666666666666" y2="327.418998321069" stroke="#dddddd" stroke-width="1.3333333333333333"/><line x1="60.42666666666666" y1="257.1278851044381" x2="616.6666666666666" y2="257.1278851044381" stroke="#dddddd" stroke-width="1.3333333333333333"/><line x1="60.42666666666666" y1="186.83677188780723" x2="616.6666666666666" y2="186.83677188780723" stroke="#dddddd" stroke-width="1.3333333333333333"/><line x1="60.42666666666666" y1="116.54565867117631" x2="616.6666666666666" y2="116.54565867117631" stroke="#dddddd" stroke-width="1.3333333333333333"/><line x1="60.42666666666666" y1="46.25454545454541" x2="616.6666666666666" y2="46.25454545454541" stroke="#dddddd" stroke-width="1.3333333333333333"/><rect x="60.42666666666666" y="32.266666666666666" width="556.24" height="307.73333333333335" fill="#ffffff" fill-opacity="0.0" stroke="#444444" stroke-width="1.3333333333333333"/><line x1="85.71030303030302" y1="340.0" x2="85.71030303030302" y2="343.66666666666663" stroke="#444444" stroke-width="1.3333333333333333"/><text x="85.71030303030302" y="355.9866666666667" fill="#333333" font-size="11.733333333333334" font-family="sans-serif" text-anchor="middle">0.0</text><line x1="226.17494949494954" y1="340.0" x2="226.17494949494954" y2="343.66666666666663" stroke="#444444" stroke-width="1.3333333333333333"/><text x="226.17494949494954" y="355.9866666666667" fill="#333333" font-size="11.733333333333334" font-family="sans-serif" text-anchor="middle">2.5</text><line x1="366.639595959596" y1="340.0" x2="366.639595959596" y2="343.66666666666663" stroke="#444444" stroke-width="1.3333333333333333"/><text x="366.639595959596" y="355.9866666666667" fill="#333333" font-size="11.733333333333334" font-family="sans-serif" text-anchor="middle">5.0</text><line x1="507.10424242424256" y1="340.0" x2="507.10424242424256" y2="343.66666666666663" stroke="#444444" stroke-width="1.3333333333333333"/><text x="507.10424242424256" y="355.9866666666667" fill="#333333" font-size="11.733333333333334" font-family="sans-serif" text-anchor="middle">7.5</text><line x1="60.42666666666666" y1="327.418998321069" x2="56.76" y2="327.418998321069" stroke="#444444" stroke-width="1.3333333333333333"/><text x="53.82666666666666" y="331.5256649877357" fill="#333333" font-size="11.733333333333334" font-family="sans-serif" text-anchor="end">5.0</text><line x1="60.42666666666666" y1="257.1278851044381" x2="56.76" y2="257.1278851044381" stroke="#444444" stroke-width="1.3333333333333333"/><text x="53.82666666666666" y="261.2345517711048" fill="#333333" font-size="11.733333333333334" font-family="sans-serif" text-anchor="end">7.5</text><line x1="60.42666666666666" y1="186.83677188780723" x2="56.76" y2="186.83677188780723" stroke="#444444" stroke-width="1.3333333333333333"/><text x="53.82666666666666" y="190.94343855447391" fill="#333333" font-size="11.733333333333334" font-family="sans-serif" text-anchor="end">10.0</text><line x1="60.42666666666666" y1="116.54565867117631" x2="56.76" y2="116.54565867117631" stroke="#444444" stroke-width="1.3333333333333333"/><text x="53.82666666666666" y="120.65232533784298" fill="#333333" font-size="11.733333333333334" font-family="sans-serif" text-anchor="end">12.5</text><line x1="60.42666666666666" y1="46.25454545454541" x2="56.76" y2="46.25454545454541" stroke="#444444" stroke-width="1.3333333333333333"/><text x="53.82666666666666" y="50.36121212121208" fill="#333333" font-size="11.733333333333334" font-family="sans-serif" text-anchor="end">15.0</text><text x="60.42666666666666" y="21.413333333333334" fill="#333333" font-size="17.599999999999998" font-family="sans-serif" text-anchor="start">Multi Series Line Chart</text><text x="338.5466666666666" y="373.73333333333335" fill="#333333" font-size="14.666666666666666" font-family="sans-serif" text-anchor="middle">t</text><text x="17.599999999999998" y="186.13333333333333" fill="#333333" font-size="14.666666666666666" font-family="sans-serif" text-anchor="middle" transform="rotate(-90.0 17.599999999999998 186.13333333333333)">f(t)</text><line x1="85.71030303030302" y1="186.83677188780723" x2="141.89616161616163" y2="119.43806226186264" stroke="#1f77b4" stroke-width="2.6666666666666665"/><line x1="141.89616161616163" y1="119.43806226186264" x2="198.08202020202023" y2="68.54090736452375" stroke="#1f77b4" stroke-width="2.6666666666666665"/><line x1="198.08202020202023" y1="68.54090736452375" x2="254.2678787878788" y2="46.60670581499259" stroke="#1f77b4" stroke-width="2.6666666666666665"/><line x1="254.2678787878788" y1="46.60670581499259" x2="310.4537373737374" y2="59.005715134616935" stroke="#1f77b4" stroke-width="2.6666666666666665"/><line x1="310.4537373737374" y1="59.005715134616935" x2="366.639595959596" y2="102.70222541138514" stroke="#1f77b4" stroke-width="2.6666666666666665"/><line x1="366.639595959596" y1="102.70222541138514" x2="422.8254545454546" y2="166.99780696047122" stroke="#1f77b4" stroke-width="2.6666666666666665"/><line x1="422.8254545454546" y1="166.99780696047122" x2="479.01131313131316" y2="236.1506590318598" stroke="#1f77b4" stroke-width="2.6666666666666665"/><line x1="479.01131313131316" y1="236.1506590318598" x2="535.1971717171717" y2="293.22975164844394" stroke="#1f77b4" stroke-width="2.6666666666666665"/><line x1="535.1971717171717" y1="293.22975164844394" x2="591.3830303030303" y2="324.2601322347349" stroke="#1f77b4" stroke-width="2.6666666666666665"/><line x1="85.71030303030302" y1="46.25454545454541" x2="141.89616161616163" y2="63.46426145825285" stroke="#d62728" stroke-width="2.6666666666666665"/><line x1="141.89616161616163" y1="63.46426145825285" x2="198.08202020202023" y2="110.87987078183892" stroke="#d62728" stroke-width="2.6666666666666665"/><line x1="198.08202020202023" y1="110.87987078183892" x2="254.2678787878788" y2="176.89237858570291" stroke="#d62728" stroke-width="2.6666666666666665"/><line x1="254.2678787878788" y1="176.89237858570291" x2="310.4537373737374" y2="245.33962069276322" stroke="#d62728" stroke-width="2.6666666666666665"/><line x1="310.4537373737374" y1="245.33962069276322" x2="366.639595959596" y2="299.46332505418826" stroke="#d62728" stroke-width="2.6666666666666665"/><line x1="366.639595959596" y1="299.46332505418826" x2="422.8254545454546" y2="326.0121212121212" stroke="#d62728" stroke-width="2.6666666666666665"/><line x1="422.8254545454546" y1="326.0121212121212" x2="479.01131313131316" y2="318.4859379454642" stroke="#d62728" stroke-width="2.6666666666666665"/><line x1="479.01131313131316" y1="318.4859379454642" x2="535.1971717171717" y2="278.72744740271264" stroke="#d62728" stroke-width="2.6666666666666665"/><line x1="535.1971717171717" y1="278.72744740271264" x2="591.3830303030303" y2="216.47091469456552" stroke="#d62728" stroke-width="2.6666666666666665"/></svg>