<svg xmlns="http://www.w3.org/2000/svg" width="624" height="384" viewBox="0 0 624 384"><rect x="0.0" y="0.0" width="624.0" height="384.0" fill="#ffffff" fill-opacity="1.0" stroke="none"/><line x1="138.44929292929294" y1="32.266666666666666" x2="138.44929292929294" y2="340.0" stroke="#dddddd" stroke-width="0.6666666666666666"/><line x1="284.24727272727273" y1="32.266666666666666" x2="284.24727272727273" y2="340.0" stroke="#dddddd" stroke-width="0.6666666666666666"/><line x1="430.04525252525264" y1="32.266666666666666" x2="430.04525252525264" y2="340.0" stroke="#dddddd" stroke-width="0.6666666666666666"/><line x1="575.8432323232323" y1="32.266666666666666" x2="575.8432323232323" y2="340.0" stroke="#dddddd" stroke-width="0.6666666666666666"/><line x1="65.55030303030304" y1="32.266666666666666" x2="65.55030303030304" y2="340.0" stroke="#dddddd" stroke-width="1.3333333333333333"/><line x1="211.34828282828283" y1="32.266666666666666" x2="211.34828282828283" y2="340.0" stroke="#dddddd" stroke-width="1.3333333333333333"/><line x1="357.1462626262626" y1="32.266666666666666" x2="357.1462626262626" y2="340.0" stroke="#dddddd" stroke-width="1.3333333333333333"/><line x1="502.94424242424253" y1="32.266666666666666" x2="502.94424242424253" y2="340.0" stroke="#dddddd" stroke-width="1.3333333333333333"/><line x1="39.306666666666665" y1="291.0424242424242" x2="616.6666666666666" y2="291.0424242424242" stroke="#dddddd" stroke-width="0.6666666666666666"/><line x1="39.306666666666665" y1="221.10303030303032" x2="616.6666666666666" y2="221.10303030303032" stroke="#dddddd" stroke-width="0.6666666666666666"/><line x1="39.306666666666665" y1="151.16363636363636" x2="616.6666666666666" y2="151.16363636363636" stroke="#dddddd" stroke-width="0.6666666666666666"/><line x1="39.306666666666665" y1="81.22424242424245" x2="616.6666666666666" y2="81.22424242424245" stroke="#dddddd" stroke-width="0.6666666666666666"/><line x1="39.306666666666665" y1="326.0121212121212" x2="616.6666666666666" y2="326.0121212121212" stroke="#dddddd" stroke-width="1.3333333333333333"/><line x1="39.306666666666665" y1="256.07272727272726" x2="616.6666666666666" y2="256.07272727272726" stroke="#dddddd" stroke-width="1.3333333333333333"/><line x1="39.306666666666665" y1="186.13333333333333" x2="616.6666666666666" y2="186.13333333333333" stroke="#dddddd" stroke-width="1.3333333333333333"/><line x1="39.306666666666665" y1="116.19393939393936" x2="616.6666666666666" y2="116.19393939393936" stroke="#dddddd" stroke-width="1.3333333333333333"/><line x1="39.306666666666665" y1="46.25454545454545" x2="616.6666666666666" y2="46.25454545454545" stroke="#dddddd" stroke-width="1.3333333333333333"/><rect x="39.306666666666665" y="32.266666666666666" width="577.3599999999999" height="307.73333333333335" fill="#ffffff" fill-opacity="0.0" stroke="#444444" stroke-width="1.3333333333333333"/><line x1="65.55030303030304" y1="340.0" x2="65.55030303030304" y2="343.66666666666663" stroke="#444444" stroke-width="1.3333333333333333"/><text x="65.55030303030304" y="355.9866666666667" fill="#333333" font-size="11.733333333333334" font-family="sans-serif" text-anchor="middle">0.0</text><line x1="211.34828282828283" y1="340.0" x2="211.34828282828283" y2="343.66666666666663" stroke="#444444" stroke-width="1.3333333333333333"/><text x="211.34828282828283" y="355.9866666666667" fill="#333333" font-size="11.733333333333334" font-family="sans-serif" text-anchor="middle">2.5</text><line x1="357.1462626262626" y1="340.0" x2="357.1462626262626" y2="343.66666666666663" stroke="#444444" stroke-width="1.3333333333333333"/><text x="357.1462626262626" y="355.9866666666667" fill="#333333" font-size="11.733333333333334" font-family="sans-serif" text-anchor="middle">5.0</text><line x1="502.94424242424253" y1="340.0" x2="502.94424242424253" y2="343.66666666666663" stroke="#444444" stroke-width="1.3333333333333333"/><text x="502.94424242424253" y="355.9866666666667" fill="#333333" font-size="11.733333333333334" font-family="sans-serif" text-anchor="middle">7.5</text><line x1="39.306666666666665" y1="326.0121212121212" x2="35.64" y2="326.0121212121212" stroke="#444444" stroke-width="1.3333333333333333"/><text x="32.70666666666666" y="330.1187878787879" fill="#333333" font-size="11.733333333333334" font-family="sans-serif" text-anchor="end">0</text><line x1="39.306666666666665" y1="256.07272727272726" x2="35.64" y2="256.07272727272726" stroke="#444444" stroke-width="1.3333333333333333"/><text x="32.70666666666666" y="260.17939393939395" fill="#333333" font-size="11.733333333333334" font-family="sans-serif" text-anchor="end">1</text><line x1="39.306666666666665" y1="186.13333333333333" x2="35.64" y2="186.13333333333333" stroke="#444444" stroke-width="1.3333333333333333"/><text x="32.70666666666666" y="190.24" fill="#333333" font-size="11.733333333333334" font-family="sans-serif" text-anchor="end">2</text><line x1="39.306666666666665" y1="116.19393939393936" x2="35.64" y2="116.19393939393936" stroke="#444444" stroke-width="1.3333333333333333"/><text x="32.70666666666666" y="120.30060606060603" fill="#333333" font-size="11.733333333333334" font-family="sans-serif" text-anchor="end">3</text><line x1="39.306666666666665" y1="46.25454545454545" x2="35.64" y2="46.25454545454545" stroke="#444444" stroke-width="1.3333333333333333"/><text x="32.70666666666666" y="50.36121212121211" fill="#333333" font-size="11.733333333333334" font-family="sans-serif" text-anchor="end">4</text><text x="39.306666666666665" y="21.413333333333334" fill="#333333" font-size="17.599999999999998" font-family="sans-serif" text-anchor="start">Step Chart</text><text x="327.9866666666666" y="373.73333333333335" fill="#333333" font-size="14.666666666666666" font-family="sans-serif" text-anchor="middle">t</text><text x="17.599999999999998" y="186.13333333333333" fill="#333333" font-size="14.666666666666666" font-family="sans-serif" text-anchor="middle" transform="rotate(-90.0 17.599999999999998 186.13333333333333)">v</text><line x1="65.55030303030304" y1="326.0121212121212" x2="123.86949494949495" y2="326.0121212121212" stroke="#1f77b4" stroke-width="2.6666666666666665"/><line x1="123.86949494949495" y1="326.0121212121212" x2="123.86949494949495" y2="326.0121212121212" stroke="#1f77b4" stroke-width="2.6666666666666665"/><line x1="123.86949494949495" y1="326.0121212121212" x2="182.1886868686869" y2="326.0121212121212" stroke="#1f77b4" stroke-width="2.6666666666666665"/><line x1="182.1886868686869" y1="326.0121212121212" x2="182.1886868686869" y2="256.07272727272726" stroke="#1f77b4" stroke-width="2.6666666666666665"/><line x1="182.1886868686869" y1="256.07272727272726" x2="240.5078787878788" y2="256.07272727272726" stroke="#1f77b4" stroke-width="2.6666666666666665"/><line x1="240.5078787878788" y1="256.07272727272726" x2="240.5078787878788" y2="256.07272727272726" stroke="#1f77b4" stroke-width="2.6666666666666665"/><line x1="240.5078787878788" y1="256.07272727272726" x2="298.8270707070707" y2="256.07272727272726" stroke="#1f77b4" stroke-width="2.6666666666666665"/><line x1="298.8270707070707" y1="256.07272727272726" x2="298.8270707070707" y2="116.19393939393936" stroke="#1f77b4" stroke-width="2.6666666666666665"/><line x1="298.8270707070707" y1="116.19393939393936" x2="357.1462626262626" y2="116.19393939393936" stroke="#1f77b4" stroke-width="2.6666666666666665"/><line x1="357.1462626262626" y1="116.19393939393936" x2="357.1462626262626" y2="116.19393939393936" stroke="#1f77b4" stroke-width="2.6666666666666665"/><line x1="357.1462626262626" y1="116.19393939393936" x2="415.4654545454546" y2="116.19393939393936" stroke="#1f77b4" stroke-width="2.6666666666666665"/><line x1="415.4654545454546" y1="116.19393939393936" x2="415.4654545454546" y2="186.13333333333333" stroke="#1f77b4" stroke-width="2.6666666666666665"/><line x1="415.4654545454546" y1="186.13333333333333" x2="473.78464646464647" y2="186.13333333333333" stroke="#1f77b4" stroke-width="2.6666666666666665"/><line x1="473.78464646464647" y1="186.13333333333333" x2="473.78464646464647" y2="186.13333333333333" stroke="#1f77b4" stroke-width="2.6666666666666665"/><line x1="473.78464646464647" y1="186.13333333333333" x2="532.1038383838384" y2="186.13333333333333" stroke="#1f77b4" stroke-width="2.6666666666666665"/><line x1="532.1038383838384" y1="186.13333333333333" x2="532.1038383838384" y2="46.25454545454545" stroke="#1f77b4" stroke-width="2.6666666666666665"/><line x1="532.1038383838384" y1="46.25454545454545" x2="590.4230303030303" y2="46.25454545454545" stroke="#1f77b4" stroke-width="2.6666666666666665"/><line x1="590.4230303030303" y1="46.25454545454545" x2="590.4230303030303" y2="46.25454545454545" stroke="#1f77b4" stroke-width="2.6666666666666665"/></svg>