<svg xmlns="http://www.w3.org/2000/svg" width="624" height="384" viewBox="0 0 624 384"><rect x="0.0" y="0.0" width="624.0" height="384.0" fill="#ffffff" fill-opacity="1.0" stroke="none"/><line x1="135.20327666666665" y1="32.266666666666666" x2="135.20327666666665" y2="340.0" stroke="#dddddd" stroke-width="1.3333333333333333"/><line x1="295.03095999999994" y1="32.266666666666666" x2="295.03095999999994" y2="340.0" stroke="#dddddd" stroke-width="1.3333333333333333"/><line x1="454.8586433333333" y1="32.266666666666666" x2="454.8586433333333" y2="340.0" stroke="#dddddd" stroke-width="1.3333333333333333"/><line x1="39.306666666666665" y1="282.29999999999995" x2="550.7552533333333" y2="282.29999999999995" stroke="#dddddd" stroke-width="1.3333333333333333"/><line x1="39.306666666666665" y1="186.13333333333333" x2="550.7552533333333" y2="186.13333333333333" stroke="#dddddd" stroke-width="1.3333333333333333"/><line x1="39.306666666666665" y1="89.96666666666665" x2="550.7552533333333" y2="89.96666666666665" stroke="#dddddd" stroke-width="1.3333333333333333"/><rect x="39.306666666666665" y="32.266666666666666" width="511.44858666666664" height="307.73333333333335" fill="#ffffff" fill-opacity="0.0" stroke="#444444" stroke-width="1.3333333333333333"/><line x1="135.20327666666665" y1="340.0" x2="135.20327666666665" y2="343.66666666666663" stroke="#444444" stroke-width="1.3333333333333333"/><text x="135.20327666666665" y="355.9866666666667" fill="#333333" font-size="11.733333333333334" font-family="sans-serif" text-anchor="middle">A</text><line x1="295.03095999999994" y1="340.0" x2="295.03095999999994" y2="343.66666666666663" stroke="#444444" stroke-width="1.3333333333333333"/><text x="295.03095999999994" y="355.9866666666667" fill="#333333" font-size="11.733333333333334" font-family="sans-serif" text-anchor="middle">B</text><line x1="454.8586433333333" y1="340.0" x2="454.8586433333333" y2="343.66666666666663" stroke="#444444" stroke-width="1.3333333333333333"/><text x="454.8586433333333" y="355.9866666666667" fill="#333333" font-size="11.733333333333334" font-family="sans-serif" text-anchor="middle">C</text><line x1="39.306666666666665" y1="282.29999999999995" x2="35.64" y2="282.29999999999995" stroke="#444444" stroke-width="1.3333333333333333"/><text x="32.70666666666666" y="286.40666666666664" fill="#333333" font-size="11.733333333333334" font-family="sans-serif" text-anchor="end">P</text><line x1="39.306666666666665" y1="186.13333333333333" x2="35.64" y2="186.13333333333333" stroke="#444444" stroke-width="1.3333333333333333"/><text x="32.70666666666666" y="190.24" fill="#333333" font-size="11.733333333333334" font-family="sans-serif" text-anchor="end">Q</text><line x1="39.306666666666665" y1="89.96666666666665" x2="35.64" y2="89.96666666666665" stroke="#444444" stroke-width="1.3333333333333333"/><text x="32.70666666666666" y="94.07333333333332" fill="#333333" font-size="11.733333333333334" font-family="sans-serif" text-anchor="end">R</text><text x="39.306666666666665" y="21.413333333333334" fill="#333333" font-size="17.599999999999998" font-family="sans-serif" text-anchor="start">Table Heatmap</text><text x="295.03095999999994" y="373.73333333333335" fill="#333333" font-size="14.666666666666666" font-family="sans-serif" text-anchor="middle">col</text><text x="17.599999999999998" y="186.13333333333333" fill="#333333" font-size="14.666666666666666" font-family="sans-serif" text-anchor="middle" transform="rotate(-90.0 17.599999999999998 186.13333333333333)">row</text><rect x="55.289435" y="234.21666666666664" width="159.8276833333333" height="96.16666666666666" fill="#440154" fill-opacity="1.0" stroke="#ffffff" stroke-width="1.3333333333333333"/><rect x="55.289435" y="138.04999999999998" width="159.8276833333333" height="96.16666666666666" fill="#21918c" fill-opacity="1.0" stroke="#ffffff" stroke-width="1.3333333333333333"/><rect x="55.289435" y="41.883333333333326" width="159.8276833333333" height="96.16666666666666" fill="#fde725" fill-opacity="1.0" stroke="#ffffff" stroke-width="1.3333333333333333"/><rect x="215.11711833333328" y="234.21666666666664" width="159.82768333333337" height="96.16666666666666" fill="#3b528b" fill-opacity="1.0" stroke="#ffffff" stroke-width="1.3333333333333333"/><rect x="215.11711833333328" y="138.04999999999998" width="159.82768333333337" height="96.16666666666666" fill="#5ec962" fill-opacity="1.0" stroke="#ffffff" stroke-width="1.3333333333333333"/><rect x="215.11711833333328" y="41.883333333333326" width="159.82768333333337" height="96.16666666666666" fill="#402a70" fill-opacity="1.0" stroke="#ffffff" stroke-width="1.3333333333333333"/><rect x="374.94480166666665" y="234.21666666666664" width="159.82768333333334" height="96.16666666666666" fill="#aed844" fill-opacity="1.0" stroke="#ffffff" stroke-width="1.3333333333333333"/><rect x="374.94480166666665" y="138.04999999999998" width="159.82768333333334" height="96.16666666666666" fill="#2e728c" fill-opacity="1.0" stroke="#ffffff" stroke-width="1.3333333333333333"/><rect x="374.94480166666665" y="41.883333333333326" width="159.82768333333334" height="96.16666666666666" fill="#40ad77" fill-opacity="1.0" stroke="#ffffff" stroke-width="1.3333333333333333"/><rect x="565.42192" y="262.76666666666665" width="23.114079999999994" height="4.699999999999999" fill="#440154" fill-opacity="1.0" stroke="none"/><rect x="565.42192" y="258.73333333333335" width="23.114079999999994" height="4.699999999999999" fill="#43095a" fill-opacity="1.0" stroke="none"/><rect x="565.42192" y="254.7" width="23.114079999999994" height="4.699999999999999" fill="#42125f" fill-opacity="1.0" stroke="none"/><rect x="565.42192" y="250.66666666666669" width="23.114079999999994" height="4.699999999999999" fill="#411a65" fill-opacity="1.0" stroke="none"/><rect x="565.42192" y="246.63333333333335" width="23.114079999999994" height="4.699999999999999" fill="#40226b" fill-opacity="1.0" stroke="none"/><rect x="565.42192" y="242.60000000000002" width="23.114079999999994" height="4.699999999999999" fill="#3f2b70" fill-opacity="1.0" stroke="none"/><rect x="565.42192" y="238.56666666666666" width="23.114079999999994" height="4.699999999999999" fill="#3e3376" fill-opacity="1.0" stroke="none"/><rect x="565.42192" y="234.53333333333333" width="23.114079999999994" height="4.699999999999999" fill="#3e3b7b" fill-opacity="1.0" stroke="none"/><rect x="565.42192" y="230.50000000000003" width="23.114079999999994" height="4.699999999999999" fill="#3d4381" fill-opacity="1.0" stroke="none"/><rect x="565.42192" y="226.4666666666667" width="23.114079999999994" height="4.699999999999999" fill="#3c4c87" fill-opacity="1.0" stroke="none"/><rect x="565.42192" y="222.43333333333334" width="23.114079999999994" height="4.699999999999999" fill="#3a548b" fill-opacity="1.0" stroke="none"/><rect x="565.42192" y="218.4" width="23.114079999999994" height="4.699999999999999" fill="#385a8b" fill-opacity="1.0" stroke="none"/><rect x="565.42192" y="214.36666666666667" width="23.114079999999994" height="4.699999999999999" fill="#35618b" fill-opacity="1.0" stroke="none"/><rect x="565.42192" y="210.33333333333337" width="23.114079999999994" height="4.699999999999999" fill="#32678b" fill-opacity="1.0" stroke="none"/><rect x="565.42192" y="206.3" width="23.114079999999994" height="4.699999999999999" fill="#306d8b" fill-opacity="1.0" stroke="none"/><rect x="565.42192" y="202.26666666666668" width="23.114079999999994" height="4.699999999999999" fill="#2d748c" fill-opacity="1.0" stroke="none"/><rect x="565.42192" y="198.23333333333335" width="23.114079999999994" height="4.699999999999999" fill="#2a7a8c" fill-opacity="1.0" stroke="none"/><rect x="565.42192" y="194.2" width="23.114079999999994" height="4.699999999999999" fill="#28818c" fill-opacity="1.0" stroke="none"/><rect x="565.42192" y="190.16666666666669" width="23.114079999999994" height="4.699999999999999" fill="#25878c" fill-opacity="1.0" stroke="none"/><rect x="565.42192" y="186.13333333333335" width="23.114079999999994" height="4.699999999999999" fill="#228e8c" fill-opacity="1.0" stroke="none"/><rect x="565.42192" y="182.10000000000002" width="23.114079999999994" height="4.699999999999999" fill="#24948a" fill-opacity="1.0" stroke="none"/><rect x="565.42192" y="178.06666666666666" width="23.114079999999994" height="4.699999999999999" fill="#2a9a86" fill-opacity="1.0" stroke="none"/><rect x="565.42192" y="174.03333333333333" width="23.114079999999994" height="4.699999999999999" fill="#319f81" fill-opacity="1.0" stroke="none"/><rect x="565.42192" y="170.00000000000003" width="23.114079999999994" height="4.699999999999999" fill="#37a57d" fill-opacity="1.0" stroke="none"/><rect x="565.42192" y="165.9666666666667" width="23.114079999999994" height="4.699999999999999" fill="#3dab79" fill-opacity="1.0" stroke="none"/><rect x="565.42192" y="161.93333333333334" width="23.114079999999994" height="4.699999999999999" fill="#43b174" fill-opacity="1.0" stroke="none"/><rect x="565.42192" y="157.90000000000003" width="23.114079999999994" height="4.699999999999999" fill="#4ab670" fill-opacity="1.0" stroke="none"/><rect x="565.42192" y="153.86666666666667" width="23.114079999999994" height="4.699999999999999" fill="#50bc6c" fill-opacity="1.0" stroke="none"/><rect x="565.42192" y="149.83333333333334" width="23.114079999999994" height="4.699999999999999" fill="#56c267" fill-opacity="1.0" stroke="none"/><rect x="565.42192" y="145.8" width="23.114079999999994" height="4.699999999999999" fill="#5cc863" fill-opacity="1.0" stroke="none"/><rect x="565.42192" y="141.76666666666668" width="23.114079999999994" height="4.699999999999999" fill="#6acb5d" fill-opacity="1.0" stroke="none"/><rect x="565.42192" y="137.73333333333335" width="23.114079999999994" height="4.699999999999999" fill="#7bce57" fill-opacity="1.0" stroke="none"/><rect x="565.42192" y="133.70000000000002" width="23.114079999999994" height="4.699999999999999" fill="#8bd151" fill-opacity="1.0" stroke="none"/><rect x="565.42192" y="129.66666666666669" width="23.114079999999994" height="4.699999999999999" fill="#9bd54b" fill-opacity="1.0" stroke="none"/><rect x="565.42192" y="125.63333333333335" width="23.114079999999994" height="4.699999999999999" fill="#abd844" fill-opacity="1.0" stroke="none"/><rect x="565.42192" y="121.60000000000002" width="23.114079999999994" height="4.699999999999999" fill="#bcdb3e" fill-opacity="1.0" stroke="none"/><rect x="565.42192" y="117.56666666666669" width="23.114079999999994" height="4.699999999999999" fill="#ccde38" fill-opacity="1.0" stroke="none"/><rect x="565.42192" y="113.53333333333336" width="23.114079999999994" height="4.699999999999999" fill="#dce132" fill-opacity="1.0" stroke="none"/><rect x="565.42192" y="109.50000000000001" width="23.114079999999994" height="4.699999999999999" fill="#ede42b" fill-opacity="1.0" stroke="none"/><rect x="565.42192" y="105.4666666666667" width="23.114079999999994" height="4.699999999999999" fill="#fde725" fill-opacity="1.0" stroke="none"/><text x="592.2026666666666" y="240.3046666666667" fill="#333333" font-size="11.733333333333334" font-family="sans-serif" text-anchor="start">2.5</text><text x="592.2026666666666" y="189.88800000000003" fill="#333333" font-size="11.733333333333334" font-family="sans-serif" text-anchor="start">5</text><text x="592.2026666666666" y="139.47133333333335" fill="#333333" font-size="11.733333333333334" font-family="sans-serif" text-anchor="start">7.5</text></svg>