<svg xmlns="http://www.w3.org/2000/svg" width="800" height="600" viewBox="0 0 800 600"><rect x="0.0" y="0.0" width="800.0" height="600.0" fill="#ffffff" fill-opacity="1.0" stroke="none"/><line x1="159.80624999999998" y1="27.0" x2="159.80624999999998" y2="563.8" stroke="#dddddd" stroke-width="1.0"/><line x1="373.15000000000003" y1="27.0" x2="373.15000000000003" y2="563.8" stroke="#dddddd" stroke-width="1.0"/><line x1="586.49375" y1="27.0" x2="586.49375" y2="563.8" stroke="#dddddd" stroke-width="1.0"/><line x1="31.799999999999997" y1="463.15" x2="714.5" y2="463.15" stroke="#dddddd" stroke-width="1.0"/><line x1="31.799999999999997" y1="295.4" x2="714.5" y2="295.4" stroke="#dddddd" stroke-width="1.0"/><line x1="31.799999999999997" y1="127.64999999999998" x2="714.5" y2="127.64999999999998" stroke="#dddddd" stroke-width="1.0"/><rect x="31.799999999999997" y="27.0" width="682.7" height="536.8" fill="#ffffff" fill-opacity="0.0" stroke="#444444" stroke-width="1.0"/><line x1="159.80624999999998" y1="563.8" x2="159.80624999999998" y2="566.55" stroke="#444444" stroke-width="1.0"/><text x="159.80624999999998" y="577.55" fill="#333333" font-size="11.0" font-family="sans-serif" text-anchor="middle">A</text><line x1="373.15000000000003" y1="563.8" x2="373.15000000000003" y2="566.55" stroke="#444444" stroke-width="1.0"/><text x="373.15000000000003" y="577.55" fill="#333333" font-size="11.0" font-family="sans-serif" text-anchor="middle">B</text><line x1="586.49375" y1="563.8" x2="586.49375" y2="566.55" stroke="#444444" stroke-width="1.0"/><text x="586.49375" y="577.55" fill="#333333" font-size="11.0" font-family="sans-serif" text-anchor="middle">C</text><line x1="31.799999999999997" y1="463.15" x2="29.049999999999997" y2="463.15" stroke="#444444" stroke-width="1.0"/><text x="26.849999999999998" y="467.0" fill="#333333" font-size="11.0" font-family="sans-serif" text-anchor="end">P</text><line x1="31.799999999999997" y1="295.4" x2="29.049999999999997" y2="295.4" stroke="#444444" stroke-width="1.0"/><text x="26.849999999999998" y="299.25" fill="#333333" font-size="11.0" font-family="sans-serif" text-anchor="end">Q</text><line x1="31.799999999999997" y1="127.64999999999998" x2="29.049999999999997" y2="127.64999999999998" stroke="#444444" stroke-width="1.0"/><text x="26.849999999999998" y="131.49999999999997" fill="#333333" font-size="11.0" font-family="sans-serif" text-anchor="end">R</text><text x="373.15000000000003" y="18.3" fill="#333333" font-size="16.0" font-family="sans-serif" text-anchor="middle">Table Heatmap</text><text x="373.15000000000003" y="592.1" fill="#333333" font-size="12.0" font-family="sans-serif" text-anchor="middle">col</text><text x="13.899999999999999" y="295.4" fill="#333333" font-size="12.0" font-family="sans-serif" text-anchor="middle" transform="rotate(-90.0 13.899999999999999 295.4)">row</text><rect x="53.13437499999999" y="379.275" width="213.34375000000006" height="167.75" fill="#440154" fill-opacity="1.0" stroke="#ffffff" stroke-width="1.0"/><rect x="53.13437499999999" y="211.52499999999998" width="213.34375000000006" height="167.75" fill="#21918c" fill-opacity="1.0" stroke="#ffffff" stroke-width="1.0"/><rect x="53.13437499999999" y="43.77499999999998" width="213.34375000000006" height="167.75" fill="#fde725" fill-opacity="1.0" stroke="#ffffff" stroke-width="1.0"/><rect x="266.47812500000003" y="379.275" width="213.34375" height="167.75" fill="#3b528b" fill-opacity="1.0" stroke="#ffffff" stroke-width="1.0"/><rect x="266.47812500000003" y="211.52499999999998" width="213.34375" height="167.75" fill="#5ec962" fill-opacity="1.0" stroke="#ffffff" stroke-width="1.0"/><rect x="266.47812500000003" y="43.77499999999998" width="213.34375" height="167.75" fill="#402a70" fill-opacity="1.0" stroke="#ffffff" stroke-width="1.0"/><rect x="479.82187500000003" y="379.275" width="213.34374999999994" height="167.75" fill="#aed844" fill-opacity="1.0" stroke="#ffffff" stroke-width="1.0"/><rect x="479.82187500000003" y="211.52499999999998" width="213.34374999999994" height="167.75" fill="#2e728c" fill-opacity="1.0" stroke="#ffffff" stroke-width="1.0"/><rect x="479.82187500000003" y="43.77499999999998" width="213.34374999999994" height="167.75" fill="#40ad77" fill-opacity="1.0" stroke="#ffffff" stroke-width="1.0"/><rect x="724.5" y="164.0" width="14.0" height="3.5" fill="#440154" fill-opacity="1.0" stroke="none"/><rect x="724.5" y="161.0" width="14.0" height="3.5" fill="#43095a" fill-opacity="1.0" stroke="none"/><rect x="724.5" y="158.0" width="14.0" height="3.5" fill="#42125f" fill-opacity="1.0" stroke="none"/><rect x="724.5" y="155.0" width="14.0" height="3.5" fill="#411a65" fill-opacity="1.0" stroke="none"/><rect x="724.5" y="152.0" width="14.0" height="3.5" fill="#40226b" fill-opacity="1.0" stroke="none"/><rect x="724.5" y="149.0" width="14.0" height="3.5" fill="#3f2b70" fill-opacity="1.0" stroke="none"/><rect x="724.5" y="146.0" width="14.0" height="3.5" fill="#3e3376" fill-opacity="1.0" stroke="none"/><rect x="724.5" y="143.0" width="14.0" height="3.5" fill="#3e3b7b" fill-opacity="1.0" stroke="none"/><rect x="724.5" y="140.0" width="14.0" height="3.5" fill="#3d4381" fill-opacity="1.0" stroke="none"/><rect x="724.5" y="137.0" width="14.0" height="3.5" fill="#3c4c87" fill-opacity="1.0" stroke="none"/><rect x="724.5" y="134.0" width="14.0" height="3.5" fill="#3a548b" fill-opacity="1.0" stroke="none"/><rect x="724.5" y="131.0" width="14.0" height="3.5" fill="#385a8b" fill-opacity="1.0" stroke="none"/><rect x="724.5" y="128.0" width="14.0" height="3.5" fill="#35618b" fill-opacity="1.0" stroke="none"/><rect x="724.5" y="125.0" width="14.0" height="3.5" fill="#32678b" fill-opacity="1.0" stroke="none"/><rect x="724.5" y="122.0" width="14.0" height="3.5" fill="#306d8b" fill-opacity="1.0" stroke="none"/><rect x="724.5" y="119.0" width="14.0" height="3.5" fill="#2d748c" fill-opacity="1.0" stroke="none"/><rect x="724.5" y="116.0" width="14.0" height="3.5" fill="#2a7a8c" fill-opacity="1.0" stroke="none"/><rect x="724.5" y="113.0" width="14.0" height="3.5" fill="#28818c" fill-opacity="1.0" stroke="none"/><rect x="724.5" y="110.0" width="14.0" height="3.5" fill="#25878c" fill-opacity="1.0" stroke="none"/><rect x="724.5" y="107.0" width="14.0" height="3.5" fill="#228e8c" fill-opacity="1.0" stroke="none"/><rect x="724.5" y="104.0" width="14.0" height="3.5" fill="#24948a" fill-opacity="1.0" stroke="none"/><rect x="724.5" y="101.0" width="14.0" height="3.5" fill="#2a9a86" fill-opacity="1.0" stroke="none"/><rect x="724.5" y="98.0" width="14.0" height="3.5" fill="#319f81" fill-opacity="1.0" stroke="none"/><rect x="724.5" y="95.0" width="14.0" height="3.5" fill="#37a57d" fill-opacity="1.0" stroke="none"/><rect x="724.5" y="92.0" width="14.0" height="3.5" fill="#3dab79" fill-opacity="1.0" stroke="none"/><rect x="724.5" y="89.0" width="14.0" height="3.5" fill="#43b174" fill-opacity="1.0" stroke="none"/><rect x="724.5" y="86.0" width="14.0" height="3.5" fill="#4ab670" fill-opacity="1.0" stroke="none"/><rect x="724.5" y="83.0" width="14.0" height="3.5" fill="#50bc6c" fill-opacity="1.0" stroke="none"/><rect x="724.5" y="80.0" width="14.0" height="3.5" fill="#56c267" fill-opacity="1.0" stroke="none"/><rect x="724.5" y="77.0" width="14.0" height="3.5" fill="#5cc863" fill-opacity="1.0" stroke="none"/><rect x="724.5" y="74.0" width="14.0" height="3.5" fill="#6acb5d" fill-opacity="1.0" stroke="none"/><rect x="724.5" y="71.0" width="14.0" height="3.5" fill="#7bce57" fill-opacity="1.0" stroke="none"/><rect x="724.5" y="68.0" width="14.0" height="3.5" fill="#8bd151" fill-opacity="1.0" stroke="none"/><rect x="724.5" y="65.0" width="14.0" height="3.5" fill="#9bd54b" fill-opacity="1.0" stroke="none"/><rect x="724.5" y="62.0" width="14.0" height="3.5" fill="#abd844" fill-opacity="1.0" stroke="none"/><rect x="724.5" y="59.0" width="14.0" height="3.5" fill="#bcdb3e" fill-opacity="1.0" stroke="none"/><rect x="724.5" y="56.0" width="14.0" height="3.5" fill="#ccde38" fill-opacity="1.0" stroke="none"/><rect x="724.5" y="53.0" width="14.0" height="3.5" fill="#dce132" fill-opacity="1.0" stroke="none"/><rect x="724.5" y="50.0" width="14.0" height="3.5" fill="#ede42b" fill-opacity="1.0" stroke="none"/><rect x="724.5" y="47.0" width="14.0" height="3.5" fill="#fde725" fill-opacity="1.0" stroke="none"/><text x="742.5" y="51.0" fill="#333333" font-size="10.0" font-family="sans-serif" text-anchor="start">9</text><text x="742.5" y="111.0" fill="#333333" font-size="10.0" font-family="sans-serif" text-anchor="start">5</text><text x="742.5" y="171.0" fill="#333333" font-size="10.0" font-family="sans-serif" text-anchor="start">1</text></svg>