<svg xmlns="http://www.w3.org/2000/svg" width="624" height="384" viewBox="0 0 624 384"><rect x="0.0" y="0.0" width="624.0" height="384.0" fill="#ffffff" fill-opacity="1.0" stroke="none"/><text x="42.093333333333334" y="21.413333333333334" fill="#333333" font-size="17.599999999999998" font-family="sans-serif" text-anchor="start">Pie Chart</text><path d="M 329.38 195.29999999999998 L 329.38 64.8733333333333 L 333.47680060403 64.93769102003216 L 337.56955816047656 65.13070056686195 L 341.654233611756 65.45217149670226 L 345.72679587634696 65.90178655655701 L 349.7832258269805 66.47910203064481 L 353.8195202570341 67.18354817829288 L 357.83169583121304 68.01442979620231 L 361.81579301662146 68.97092690452973 L 365.7678799903432 70.05209555610855 L 369.68405651967646 71.25686876801076 L 373.5604578111925 72.58405757453018 L 377.39325832482024 74.0323522005483 L 381.17867554919223 75.60032335412393 L 384.9129737345272 77.28642363703193 L 388.5924675793633 79.08898907185846 L 392.2135258675063 81.00624074414566 L 395.7725750516018 83.03628655796564 L 399.26610277979387 85.1771231031905 L 402.6906613619939 87.42663763261646 L 406.042871172333 89.78261014699018 L 409.3194239844455 92.24271558587994 L 412.5170862362891 94.8045261222297 L 415.6327022212795 97.46551355833124 L 418.6631972025924 100.22305182085002 L 421.6055804475574 103.07441955244254 L 424.45694817915 106.01680279740754 L 427.2144864416687 109.04729777872048 L 429.8754738777702 112.16291376371089 L 432.43728441412 115.36057601555444 L 434.8973898530098 118.637128827667 L 437.2533623673835 121.9893386380061 L 439.5028768968094 125.41389722020604 L 441.64371344203437 128.90742494839822 L 443.6737592558543 132.4664741324936 L 445.59101092814154 136.08753242063668 L 447.393576362968 139.76702626547277 L 449.079676645876 143.50132445080766 L 450.64764779945165 147.2867416751797 L 452.09594242546973 151.1195421888074 L 453.4231312319892 154.9959434803235 L 454.6279044438914 158.91212000965677 L 455.7090730954702 162.8642069833785 L 456.6655702037977 166.8483041687869 L 457.49645182170707 170.86047974296585 L 458.20089796935514 174.89677417301948 L 458.77821344344295 178.953204123653 L 459.2278285032977 183.02576638824385 L 459.549299433138 187.11044183952336 L 459.7423089799678 191.20319939596993 L 459.8066666666667 195.29999999999995 L 459.7423089799678 199.39680060402998 L 459.549299433138 203.48955816047652 L 459.2278285032977 207.57423361175603 L 458.77821344344295 211.64679587634697 L 458.20089796935514 215.70322582698046 L 457.49645182170707 219.7395202570341 L 456.6655702037977 223.751695831213 L 455.7090730954702 227.73579301662144 L 454.6279044438914 231.68787999034316 L 453.4231312319892 235.60405651967645 Z" fill="#F8766D" fill-opacity="0.9" stroke="#ffffff" stroke-width="1.3333333333333333"/><text x="403.2421728971068" y="141.6359901793669" fill="#333333" font-size="11.733333333333334" font-family="sans-serif" text-anchor="middle">A (30%)</text><path d="M 329.38 195.29999999999998 L 453.4231312319892 235.60405651967645 L 452.3255875448492 238.8373159603299 L 451.14378309327503 242.04073709936165 L 449.8785278270054 245.21212447193741 L 448.530688888799 248.34930456756632 L 447.1011900201378 251.45012731971656 L 445.59101092814154 254.51246757936326 L 444.00118661412455 257.53422657145984 L 442.33280666425844 260.5133333333333 L 440.5870145028231 263.44774613401876 L 438.76500660856186 266.3354538735599 L 436.86803169467413 269.17447746131614 L 434.8973898530098 271.96287117233294 L 432.8544316630515 274.698723980844 L 430.7405572662945 277.38016086999346 L 428.55721540666 280.00534411687806 L 426.30590243759826 282.5724745520313 L 423.9881612965626 285.079792792484 L 421.6055804475575 287.5255804475574 L 419.15979279248404 289.9081612965626 L 416.6524745520313 292.2259024375982 L 414.0853441168781 294.47721540666 L 411.46016086999344 296.6605572662945 L 408.77872398084406 298.7744316630515 L 406.042871172333 300.8173898530098 L 403.2544774613162 302.78803169467403 L 400.41545387355995 304.6850066085618 L 397.52774613401886 306.50701450282304 L 394.59333333333336 308.25280666425834 L 391.6142265714599 309.92118661412457 L 388.59246757936336 311.51101092814145 L 385.5301273197166 313.0211900201378 L 382.42930456756636 314.45068888879894 L 379.2921244719374 315.7985278270054 L 376.1207370993617 317.063783093275 L 372.91731596033 318.2455875448492 L 369.6840565196765 319.3431312319892 L 366.423174691917 320.35566195307547 L 363.13690532257147 321.28248577012886 L 359.82750065651294 322.122967484401 L 356.49722879439094 322.8765310717078 L 353.1483721381892 323.54266007720804 L 349.7832258269805 324.12089796935516 L 346.40409616395397 324.6108484527815 L 343.01329903578915 325.0121757398993 L 339.6131583254637 325.32460478103275 L 336.20600431957973 325.5479214529232 L 332.7941721113016 325.68197270547864 L 329.38 325.7266666666667 L 325.96582788869847 325.68197270547864 L 322.5539956804203 325.5479214529232 L 319.1468416745363 325.32460478103275 L 315.74670096421085 325.0121757398993 L 312.3559038360461 324.6108484527815 L 308.9767741730195 324.12089796935516 L 305.61162786181086 323.54266007720804 L 302.26277120560906 322.87653107170786 L 298.9324993434871 322.122967484401 L 295.6230946774285 321.28248577012886 L 292.33682530808306 320.3556619530755 L 289.07594348032353 319.3431312319892 Z" fill="#7CAE00" fill-opacity="0.9" stroke="#ffffff" stroke-width="1.3333333333333333"/><text x="370.82872730555425" y="276.64770764969904" fill="#333333" font-size="11.733333333333334" font-family="sans-serif" text-anchor="middle">B (25%)</text><path d="M 329.38 195.29999999999998 L 289.07594348032353 319.3431312319892 L 285.8426840396701 318.2455875448492 L 282.6392629006383 317.063783093275 L 279.46787552806256 315.7985278270054 L 276.3306954324337 314.45068888879894 L 273.2298726802834 313.0211900201378 L 270.1675324206367 311.51101092814156 L 267.14577342854017 309.9211866141246 L 264.16666666666663 308.2528066642584 L 261.2322538659812 306.50701450282304 L 258.3445461264401 304.6850066085618 L 255.5055225386838 302.7880316946741 L 252.71712882766704 300.8173898530098 L 249.98127601915593 298.77443166305153 L 247.29983913000652 296.6605572662945 L 244.67465588312191 294.47721540666004 L 242.1075254479687 292.2259024375983 L 239.60020720751598 289.90816129656264 L 237.15441955244256 287.52558044755745 L 234.77183870343737 285.079792792484 L 232.45409756240173 282.57247455203134 L 230.20278459334 280.0053441168781 L 228.01944273370546 277.38016086999346 L 225.9055683369485 274.6987239808441 L 223.86261014699016 271.96287117233294 L 221.89196830532586 269.1744774613162 L 219.99499339143816 266.3354538735599 L 218.17298549717694 263.4477461340188 L 216.4271933357416 260.5133333333334 L 214.75881338587538 257.53422657145984 L 213.16898907185845 254.5124675793633 L 211.65880997986216 251.45012731971661 L 210.22931111120104 248.34930456756638 L 208.88147217299456 245.21212447193744 L 207.61621690672496 242.0407370993617 L 206.4344124551508 238.83731596033 L 205.33686876801076 235.60405651967648 L 204.32433804692442 232.34317469191694 L 203.3975142298711 229.05690532257145 L 202.55703251559902 225.74750065651293 L 201.80346892829215 222.417228794391 L 201.1373399227919 219.06837213818918 L 200.55910203064482 215.70322582698049 L 200.06915154721847 212.3240961639539 L 199.66782426010064 208.93329903578916 L 199.3553952189672 205.53315832546372 L 199.13207854707676 202.12600431957972 L 198.9980272945213 198.71417211130156 L 198.9533333333333 195.29999999999998 L 198.9980272945213 191.88582788869843 L 199.13207854707676 188.47399568042027 L 199.3553952189672 185.06684167453628 L 199.66782426010064 181.66670096421086 L 200.06915154721847 178.27590383604607 L 200.55910203064482 174.89677417301948 L 201.1373399227919 171.53162786181082 L 201.80346892829215 168.18277120560901 L 202.557032515599 164.85249934348712 L 203.3975142298711 161.54309467742854 L 204.32433804692442 158.25682530808308 L 205.33686876801076 154.99594348032352 Z" fill="#00BFC4" fill-opacity="0.9" stroke="#ffffff" stroke-width="1.3333333333333333"/><text x="248.0322923503009" y="236.74872730555427" fill="#333333" font-size="11.733333333333334" font-family="sans-serif" text-anchor="middle">C (25%)</text><path d="M 329.38 195.29999999999998 L 205.33686876801076 154.99594348032352 L 206.20813795115944 152.40701948804238 L 207.13343438387088 149.83690977464005 L 208.1123522005483 147.2867416751797 L 209.1444620154838 144.7576337776737 L 210.229311111201 142.2506954324336 L 211.36642363703191 139.76702626547277 L 212.55530081784082 137.30771569617383 L 213.7954211728034 134.87384245943352 L 215.08624074414564 132.46647413249363 L 216.42719333574158 130.0866666666667 L 217.8176907614656 127.73546392416054 L 219.25712310319048 125.41389722020608 L 220.74485897831738 123.12298487068813 L 222.2802458167214 120.86373174547852 L 223.86261014699016 118.63712882766704 L 225.49125789183077 116.44415277888334 L 227.1654746725151 114.28576551090089 L 228.8845261222297 112.16291376371089 L 230.64765820819358 110.07652869025051 L 232.4540975624017 108.02752544796863 L 234.30305182085002 106.01680279740754 L 236.19370997109218 104.04524270797681 L 238.1252427079768 102.1137099710922 L 240.09680279740752 100.22305182085003 L 242.1075254479686 98.37409756240174 L 244.15652869025047 96.56765820819358 L 246.24291376371093 94.80452612222969 L 248.36576551090084 93.08547467251515 L 250.52415277888326 91.41125789183084 L 252.717128827667 89.78261014699018 L 254.94373174547854 88.20024581672138 L 257.20298487068806 86.66485897831741 L 259.493897220206 85.17712310319052 L 261.8154639241605 83.73769076146564 L 264.1666666666666 82.34719333574164 L 266.5464741324936 81.00624074414567 L 268.9538424594334 79.71542117280345 L 271.3877156961738 78.47530081784083 L 273.8470262654727 77.28642363703196 L 276.33069543243363 76.149311111201 L 278.83763377767366 75.06446201548383 L 281.3667416751797 74.0323522005483 L 283.91690977464 73.05343438387088 L 286.4870194880423 72.12813795115946 L 289.0759434803235 71.25686876801076 L 291.6825461638557 70.44000900188422 L 294.3056841965529 69.67791695447076 L 296.9442069833784 68.97092690452973 L 299.5969571810342 68.31934896126326 L 302.26277120560894 67.72346892829216 L 304.94047974296586 67.18354817829288 L 307.6289082616411 66.69982353835093 L 310.32687752803315 66.27250718608062 L 313.0332041236529 65.90178655655703 L 315.74670096421073 65.58782426010066 L 318.46617782031046 65.3307580109513 L 321.19044183952343 65.13070056686195 L 323.9182980696129 64.98773967963953 L 326.6485499826799 64.90193805665413 L 329.37999999999994 64.8733333333333 Z" fill="#C77CFF" fill-opacity="0.9" stroke="#ffffff" stroke-width="1.3333333333333333"/><text x="275.7159901793669" y="121.43782710289312" fill="#333333" font-size="11.733333333333334" font-family="sans-serif" text-anchor="middle">D (20%)</text></svg>