<svg xmlns="http://www.w3.org/2000/svg" width="800" height="600" viewBox="0 0 800 600"><rect x="0.0" y="0.0" width="800.0" height="600.0" fill="#ffffff" fill-opacity="1.0" stroke="none"/><text x="415.67499999999995" y="18.3" fill="#333333" font-size="16.0" font-family="sans-serif" text-anchor="middle">Pie Chart</text><path d="M 415.67499999999995 302.775 L 415.67499999999995 82.15499999999997 L 422.60484166781663 82.26386265211227 L 429.5278444185571 82.5903431741547 L 436.4371760843306 83.13411936926846 L 443.3260179889568 83.89465459599987 L 450.1875716771757 84.87119829790069 L 457.01506562390256 86.06278674423669 L 463.8017619169052 87.46824398107353 L 470.5409629063102 89.0861829918014 L 477.2260178143747 90.9150070659528 L 483.85032929900086 92.95291137496321 L 490.4073599645161 95.19788475331873 L 496.8906388132936 97.64771168333394 L 503.29376763184524 100.29997448160006 L 509.6104273050863 103.15205568494673 L 515.8343840525388 106.20114063356226 L 521.9594955803203 109.44422024872276 L 527.9797171428469 112.87809400238996 L 533.8891075082662 116.49937307574541 L 539.681834821737 120.30448370354614 L 545.3521823607654 124.28967070099907 L 550.8945541769197 128.45100116967515 L 556.3034806183559 132.78436837880534 L 561.573623727704 137.28549581812797 L 566.6997825099872 141.94994141828815 L 571.676898065376 146.77310193462384 L 576.5000585817118 151.75021749001266 L 581.164504181872 156.87637627229591 L 585.6656316211945 162.14651938164405 L 589.9989988303248 167.5554458230803 L 594.1603292990009 173.09781763923453 L 598.1455162964538 178.7681651782629 L 601.9506269242545 184.5608924917337 L 605.57190599761 190.47028285715305 L 609.0057797512771 196.49050441967955 L 612.2488593664377 202.61561594746112 L 615.2979443150532 208.8395726949136 L 618.1500255183998 215.15623236815463 L 620.8022883166659 221.55936118670633 L 623.2521152466811 228.0426400354837 L 625.4970886250367 234.599670700999 L 627.5349929340471 241.22398218562523 L 629.3638170081986 247.90903709368968 L 630.9817560189264 254.64823808309475 L 632.3872132557633 261.4349343760974 L 633.5788017020992 268.26242832282423 L 634.555345404 275.12398201104315 L 635.3158806307315 282.01282391566934 L 635.8596568258453 288.9221555814428 L 636.1861373478877 295.84515833218325 L 636.295 302.7749999999999 L 636.1861373478877 309.7048416678166 L 635.8596568258453 316.62784441855706 L 635.3158806307315 323.53717608433055 L 634.555345404 330.4260179889568 L 633.5788017020992 337.28757167717566 L 632.3872132557633 344.1150656239025 L 630.9817560189264 350.9017619169051 L 629.3638170081986 357.6409629063102 L 627.5349929340472 364.32601781437467 L 625.4970886250368 370.9503292990008 Z" fill="#F8766D" fill-opacity="0.9" stroke="#ffffff" stroke-width="1.0"/><text x="540.6147305093006" y="212.00097234746417" fill="#333333" font-size="11.0" font-family="sans-serif" text-anchor="middle">A (30%)</text><path d="M 415.67499999999995 302.775 L 625.4970886250368 370.9503292990008 L 623.6405657647564 376.41946928415445 L 621.6415136938126 381.83813702868406 L 619.5013024626401 387.202618848386 L 617.2213988651106 392.509238195383 L 614.8033654332662 397.75435817784603 L 612.2488593664377 402.93438405253875 L 609.5596313954828 408.0457656884747 L 606.7375245829228 413.0849999999999 L 603.7844730597999 418.0486333476326 L 600.7025007001195 422.9332639050152 L 597.493719733789 427.7355439903565 L 594.1603292990009 432.4521823607654 L 590.7046139350523 437.0799464679039 L 587.1289420166369 441.61566467341504 L 583.4357641306788 446.05622842260505 L 579.6276113968227 450.3985943748912 L 575.7070937327309 454.63978648955595 L 571.6768980653761 458.77689806537603 L 567.539786489556 462.80709373273083 L 563.2985943748913 466.7276113968227 L 558.9562284226051 470.5357641306788 L 554.5156646734151 474.2289420166369 L 549.979946467904 477.8046139350522 L 545.3521823607655 481.26032929900083 L 540.6355439903566 484.59371973378904 L 535.8332639050152 487.8025007001194 L 530.9486333476326 490.8844730597998 L 525.985 493.8375245829228 L 520.9457656884748 496.65963139548273 L 515.8343840525389 499.34885936643764 L 510.6543581778461 501.9033654332662 L 505.40923819538307 504.3213988651106 L 500.1026188483861 506.60130246264004 L 494.73813702868415 508.74151369381264 L 489.31946928415454 510.74056576475635 L 483.8503292990009 512.5970886250368 L 478.33446534857944 514.3098099066207 L 472.7756577305181 515.8775557958942 L 467.17771617388985 517.2992518381354 L 461.5444772282141 518.5739236738922 L 455.87980163407764 519.7006977067597 L 450.18757167717575 520.6788017020992 L 444.4716885275878 521.5075653162901 L 438.73606956610973 522.1864205561485 L 432.98464569947714 522.7149021682027 L 427.2213586663183 523.092647957554 L 421.450158335683 523.3193990361074 L 415.675 523.395 L 409.8998416643171 523.3193990361074 L 404.12864133368174 523.092647957554 L 398.3653543005229 522.7149021682027 L 392.6139304338903 522.1864205561485 L 386.87831147241224 521.5075653162901 L 381.16242832282427 520.6788017020992 L 375.47019836592244 519.7006977067597 L 369.80552277178595 518.5739236738922 L 364.1722838261102 517.2992518381354 L 358.57434226948186 515.8775557958943 L 353.0155346514206 514.3098099066208 L 347.49967070099916 512.5970886250368 Z" fill="#C49A00" fill-opacity="0.9" stroke="#ffffff" stroke-width="1.0"/><text x="485.7865688367772" y="440.37670155650636" fill="#333333" font-size="11.0" font-family="sans-serif" text-anchor="middle">B (25%)</text><path d="M 415.67499999999995 302.775 L 347.4996707009991 512.5970886250368 L 342.0305307158455 510.7405657647564 L 336.6118629713159 508.74151369381264 L 331.2473811516139 506.6013024626401 L 325.94076180461695 504.3213988651106 L 320.6956418221539 501.90336543326623 L 315.51561594746113 499.3488593664377 L 310.4042343115252 496.65963139548285 L 305.365 493.8375245829228 L 300.4013666523673 490.8844730597998 L 295.51673609498476 487.8025007001195 L 290.7144560096434 484.5937197337891 L 285.99781763923454 481.2603292990009 L 281.3700535320961 477.8046139350523 L 276.8343353265849 474.2289420166369 L 272.3937715773949 470.53576413067884 L 268.0514056251087 466.72761139682274 L 263.810213510444 462.8070937327309 L 259.67310193462384 458.77689806537614 L 255.6429062672691 454.63978648955606 L 251.72238860317728 450.39859437489133 L 247.9142358693212 446.05622842260516 L 244.22105798336307 441.61566467341515 L 240.64538606494767 437.079946467904 L 237.18967070099907 432.4521823607654 L 233.85628026621086 427.73554399035663 L 230.6474992998805 422.93326390501534 L 227.56552694020013 418.04863334763263 L 224.61247541707712 413.08500000000004 L 221.79036860451717 408.04576568847483 L 219.10114063356224 402.9343840525388 L 216.54663456673376 397.75435817784614 L 214.12860113488938 392.5092381953831 L 211.84869753735987 387.2026188483861 L 209.70848630618732 381.83813702868423 L 207.70943423524358 376.41946928415456 L 205.85291137496318 370.9503292990009 L 204.1401900933792 365.43446534857935 L 202.57244420410572 359.8756577305182 L 201.15074816186458 354.2777161738899 L 199.87607632610775 348.6444772282141 L 198.7493022932403 342.9798016340776 L 197.77119829790067 337.2875716771757 L 196.9424346837099 331.57168852758775 L 196.26357944385148 325.83606956610976 L 195.73509783179725 320.08464569947716 L 195.35735204244588 314.32135866631836 L 195.1306009638925 308.550158335683 L 195.05499999999995 302.775 L 195.1306009638925 296.999841664317 L 195.35735204244588 291.22864133368165 L 195.73509783179725 285.46535430052285 L 196.26357944385148 279.71393043389037 L 196.94243468370988 273.97831147241226 L 197.77119829790067 268.2624283228243 L 198.74930229324028 262.5701983659224 L 199.87607632610775 256.90552277178585 L 201.15074816186453 251.27228382611014 L 202.5724442041057 245.67434226948183 L 204.14019009337918 240.11553465142063 L 205.85291137496316 234.59967070099913 Z" fill="#53B400" fill-opacity="0.9" stroke="#ffffff" stroke-width="1.0"/><text x="278.07329844349357" y="372.88656883677714" fill="#333333" font-size="11.0" font-family="sans-serif" text-anchor="middle">C (25%)</text><path d="M 415.67499999999995 302.775 L 205.85291137496316 234.59967070099913 L 207.32668519820686 230.22044039653377 L 208.89184747829884 225.87303491986114 L 210.54771168333392 221.55936118670633 L 212.29355149654498 217.28131131693704 L 214.12860113488935 213.04076180461692 L 216.05205568494674 208.83957269491364 L 218.0630714559807 204.67958676822127 L 220.16076635000934 200.56262873185614 L 222.34422024872273 196.4905044196796 L 224.61247541707706 192.46500000000003 L 226.96453692338895 188.48788119210005 L 229.39937307574536 184.5608924917338 L 231.91591587453777 180.68575640593343 L 234.51306148092215 176.86417269746067 L 237.18967070099902 173.09781763923456 L 239.94456948550175 169.38834327906287 L 242.77654944477317 165.73737671499916 L 245.68436837880532 162.14651938164405 L 248.66675082210946 158.61734634770292 L 251.72238860317722 155.15140562510868 L 254.84994141828813 151.75021749001266 L 258.0480374194108 148.41527381594136 L 261.3152738159413 145.14803741941088 L 264.6502174900126 141.9499414182882 L 268.0514056251086 138.8223886031773 L 271.51734634770287 135.76675082210951 L 275.0465193816441 132.7843683788053 L 278.63737671499905 129.87654944477325 L 282.2883432790627 127.04456948550188 L 285.99781763923454 124.2896707009991 L 289.7641726974607 121.61306148092214 L 293.58575640593335 119.01591587453782 L 297.4608924917336 116.49937307574547 L 301.38788119209994 114.064536923389 L 305.36499999999984 111.71247541707717 L 309.39050441967953 109.44422024872279 L 313.46262873185594 107.26076635000942 L 317.57958676822125 105.16307145598068 L 321.7395726949136 103.15205568494679 L 325.94076180461695 101.22860113488935 L 330.18131131693696 99.393551496545 L 334.45936118670636 97.64771168333394 L 338.77303491986106 95.9918474782989 L 343.1204403965336 94.42668519820694 L 347.499670700999 92.95291137496321 L 351.9088049581107 91.57117245447526 L 356.34590917586 90.28207451310064 L 360.8090370936896 89.08618299180142 L 365.29623103618707 87.98402244812334 L 369.8055227717858 86.97607632610777 L 374.3349343760974 86.06278674423666 L 378.88247909949337 85.24455430150519 L 383.4461622385607 84.52173790170548 L 388.0239820110431 83.8946545959999 L 392.61393043389006 83.3635794438515 L 397.21399420402446 82.92874539237434 L 401.82215558144287 82.5903431741547 L 406.4363932742639 82.34852122358984 L 411.0546833253336 82.20338561177957 L 415.6749999999999 82.15499999999997 Z" fill="#00C094" fill-opacity="0.9" stroke="#ffffff" stroke-width="1.0"/><text x="324.9009723474642" y="177.83526949069937" fill="#333333" font-size="11.0" font-family="sans-serif" text-anchor="middle">D (20%)</text></svg>