<svg xmlns="http://www.w3.org/2000/svg" width="800" height="600" viewBox="0 0 800 600"><rect x="0.0" y="0.0" width="800.0" height="600.0" fill="#ffffff" fill-opacity="1.0" stroke="none"/><circle cx="369.075" cy="302.775" r="0.0" fill="#dddddd" fill-opacity="0.0" stroke="#dddddd" stroke-width="0.5"/><circle cx="369.075" cy="302.775" r="87.54761904761904" fill="#dddddd" fill-opacity="0.0" stroke="#dddddd" stroke-width="0.5"/><circle cx="369.075" cy="302.775" r="175.09523809523807" fill="#dddddd" fill-opacity="0.0" stroke="#dddddd" stroke-width="0.5"/><circle cx="369.075" cy="302.775" r="262.6428571428571" fill="#dddddd" fill-opacity="0.0" stroke="#dddddd" stroke-width="0.5"/><line x1="369.075" y1="302.775" x2="584.6845770776209" y2="130.83209989240774" stroke="#dddddd" stroke-width="0.5"/><line x1="369.075" y1="302.775" x2="556.6496367587754" y2="504.9323799538703" stroke="#dddddd" stroke-width="0.5"/><line x1="369.075" y1="302.775" x2="181.50036324122468" y2="504.9323799538703" stroke="#dddddd" stroke-width="0.5"/><line x1="369.075" y1="302.775" x2="153.46542292237905" y2="130.8320998924078" stroke="#dddddd" stroke-width="0.5"/><circle cx="369.075" cy="302.775" r="275.775" fill="#dddddd" fill-opacity="0.0" stroke="#444444" stroke-width="1.0"/><text x="365.075" y="219.22738095238094" fill="#333333" font-size="11.0" font-family="sans-serif" text-anchor="end">10</text><text x="365.075" y="131.6797619047619" fill="#333333" font-size="11.0" font-family="sans-serif" text-anchor="end">20</text><text x="365.075" y="44.13214285714287" fill="#333333" font-size="11.0" font-family="sans-serif" text-anchor="end">30</text><text x="610.5577263269354" y="114.19895187949666" fill="#333333" font-size="11.0" font-family="sans-serif" text-anchor="middle">A</text><text x="579.1585931698285" y="533.1912655483347" fill="#333333" font-size="11.0" font-family="sans-serif" text-anchor="middle">B</text><text x="158.99140683017163" y="533.1912655483347" fill="#333333" font-size="11.0" font-family="sans-serif" text-anchor="middle">C</text><text x="127.59227367306454" y="114.19895187949672" fill="#333333" font-size="11.0" font-family="sans-serif" text-anchor="middle">D</text><text x="369.075" y="18.3" fill="#333333" font-size="16.0" font-family="sans-serif" text-anchor="middle">Radial Plot (polar bar)</text><path d="M 427.51853386838343 46.71714763624533 L 451.8359226909181 53.51228701726939 L 475.388453761503 62.61105608363269 L 497.9584599084628 73.92936606702125 L 519.3373542335155 87.36261570335668 L 539.3275578247669 102.78665793404949 L 557.7443257363817 120.05894724507004 L 574.4174543596389 139.01985704038833 L 589.1928544062356 159.49415487491518 L 601.9339749666801 181.2926219131749 L 612.5230654829516 204.21380164703868 L 620.8622639725572 228.04586171126383 L 626.8745014468676 252.56855159036098 L 630.5042141653 277.5552381241039 L 631.7178571428572 302.775 L 369.075 302.775 L 369.075 302.775 L 369.075 302.775 L 369.075 302.775 L 369.075 302.775 L 369.075 302.775 L 369.075 302.775 L 369.075 302.775 L 369.075 302.775 L 369.075 302.775 L 369.075 302.775 L 369.075 302.775 L 369.075 302.775 L 369.075 302.775 L 369.075 302.775 Z" fill="#1f77b4" fill-opacity="0.85" stroke="none"/><path d="M 585.4994611922498 335.39573885296386 L 581.367046150044 356.02673374733007 L 575.2726759737521 376.16558814788465 L 567.2726734558353 395.6261833115928 L 557.4409728123762 414.22866881406856 L 545.8684363997563 431.8011246865698 L 532.6620149852837 448.1811502615123 L 517.9437593323614 463.2173650427542 L 501.8496922349034 476.77080772994384 L 484.52855142540045 488.71622046746745 L 466.1404149743962 498.94320644925403 L 446.8552218851202 507.35725018112 L 426.8512015556091 513.8805909716143 L 406.3132266228726 518.4529415787634 L 385.43110441174304 521.0320453711428 L 369.075 302.775 L 369.075 302.775 L 369.075 302.775 L 369.075 302.775 L 369.075 302.775 L 369.075 302.775 L 369.075 302.775 L 369.075 302.775 L 369.075 302.775 L 369.075 302.775 L 369.075 302.775 L 369.075 302.775 L 369.075 302.775 L 369.075 302.775 L 369.075 302.775 Z" fill="#1f77b4" fill-opacity="0.85" stroke="none"/><path d="M 352.718895588257 521.0320453711428 L 331.83677337712743 518.4529415787634 L 311.2987984443907 513.8805909716143 L 291.2947781148798 507.35725018112004 L 272.0095850256038 498.9432064492541 L 253.62144857459958 488.71622046746745 L 236.3003077650966 476.7708077299439 L 220.20624066763864 463.2173650427542 L 205.4879850147164 448.18115026151236 L 192.2815636002438 431.8011246865699 L 180.70902718762386 414.2286688140686 L 170.8773265441648 395.62618331159297 L 162.87732402624792 376.16558814788493 L 156.78295384995607 356.0267337473302 L 152.6505388077502 335.39573885296403 L 369.075 302.775 L 369.075 302.775 L 369.075 302.775 L 369.075 302.775 L 369.075 302.775 L 369.075 302.775 L 369.075 302.775 L 369.075 302.775 L 369.075 302.775 L 369.075 302.775 L 369.075 302.775 L 369.075 302.775 L 369.075 302.775 L 369.075 302.775 L 369.075 302.775 Z" fill="#1f77b4" fill-opacity="0.85" stroke="none"/><path d="M 193.97976190476192 302.77500000000003 L 194.78885722313325 285.9618254160693 L 197.20866570208824 269.304034393574 L 201.21682401829517 252.95557447417596 L 206.77628967803224 237.06753443135923 L 213.8356833555466 221.78674794211665 L 222.3297637291763 207.25443658327674 L 232.18003042690734 193.60490469359223 L 243.29544950907876 180.96429816338008 L 255.57329478348868 169.44943862269966 L 268.9000971776562 159.16674380223782 L 283.152693394358 150.21124404468088 L 298.1993641589979 142.66570405575513 L 313.9010515393878 136.59985801151296 L 330.1126440877442 132.06976509083026 L 369.075 302.775 L 369.075 302.775 L 369.075 302.775 L 369.075 302.775 L 369.075 302.775 L 369.075 302.775 L 369.075 302.775 L 369.075 302.775 L 369.075 302.775 L 369.075 302.775 L 369.075 302.775 L 369.075 302.775 L 369.075 302.775 L 369.075 302.775 L 369.075 302.775 Z" fill="#1f77b4" fill-opacity="0.85" stroke="none"/><rect x="724.5" y="40.0" width="10.0" height="10.0" fill="#F8766D" fill-opacity="1.0" stroke="#444444" stroke-width="0.5"/><text x="738.5" y="49.0" fill="#333333" font-size="10.0" font-family="sans-serif" text-anchor="start">A</text><rect x="724.5" y="56.0" width="10.0" height="10.0" fill="#C49A00" fill-opacity="1.0" stroke="#444444" stroke-width="0.5"/><text x="738.5" y="65.0" fill="#333333" font-size="10.0" font-family="sans-serif" text-anchor="start">B</text><rect x="724.5" y="72.0" width="10.0" height="10.0" fill="#53B400" fill-opacity="1.0" stroke="#444444" stroke-width="0.5"/><text x="738.5" y="81.0" fill="#333333" font-size="10.0" font-family="sans-serif" text-anchor="start">C</text><rect x="724.5" y="88.0" width="10.0" height="10.0" fill="#00C094" fill-opacity="1.0" stroke="#444444" stroke-width="0.5"/><text x="738.5" y="97.0" fill="#333333" font-size="10.0" font-family="sans-serif" text-anchor="start">D</text></svg>