<svg xmlns="http://www.w3.org/2000/svg" width="624" height="384" viewBox="0 0 624 384"><rect x="0.0" y="0.0" width="624.0" height="384.0" fill="#ffffff" fill-opacity="1.0" stroke="none"/><circle cx="293.84295999999995" cy="195.29999999999998" r="0.0" fill="#dddddd" fill-opacity="0.0" stroke="#dddddd" stroke-width="0.6666666666666666"/><circle cx="293.84295999999995" cy="195.29999999999998" r="51.75661375661375" fill="#dddddd" fill-opacity="0.0" stroke="#dddddd" stroke-width="0.6666666666666666"/><circle cx="293.84295999999995" cy="195.29999999999998" r="103.5132275132275" fill="#dddddd" fill-opacity="0.0" stroke="#dddddd" stroke-width="0.6666666666666666"/><circle cx="293.84295999999995" cy="195.29999999999998" r="155.26984126984127" fill="#dddddd" fill-opacity="0.0" stroke="#dddddd" stroke-width="0.6666666666666666"/><line x1="293.84295999999995" y1="195.29999999999998" x2="421.3075526917044" y2="93.65037930363111" stroke="#dddddd" stroke-width="0.6666666666666666"/><line x1="293.84295999999995" y1="195.29999999999998" x2="404.7337886812523" y2="314.81189017065594" stroke="#dddddd" stroke-width="0.6666666666666666"/><line x1="293.84295999999995" y1="195.29999999999998" x2="182.95213131874772" y2="314.811890170656" stroke="#dddddd" stroke-width="0.6666666666666666"/><line x1="293.84295999999995" y1="195.29999999999998" x2="166.37836730829548" y2="93.65037930363115" stroke="#dddddd" stroke-width="0.6666666666666666"/><circle cx="293.84295999999995" cy="195.29999999999998" r="163.03333333333333" fill="#dddddd" fill-opacity="0.0" stroke="#444444" stroke-width="1.3333333333333333"/><text x="288.50962666666663" y="148.87671957671955" fill="#333333" font-size="11.733333333333334" font-family="sans-serif" text-anchor="end">10</text><text x="288.50962666666663" y="97.1201058201058" fill="#333333" font-size="11.733333333333334" font-family="sans-serif" text-anchor="end">20</text><text x="288.50962666666663" y="45.36349206349206" fill="#333333" font-size="11.733333333333334" font-family="sans-serif" text-anchor="end">30</text><text x="436.60330381470897" y="86.7857581534002" fill="#333333" font-size="11.733333333333334" font-family="sans-serif" text-anchor="middle">A</text><text x="418.0406881230025" y="334.48665032446803" fill="#333333" font-size="11.733333333333334" font-family="sans-serif" text-anchor="middle">B</text><text x="169.64523187699746" y="334.48665032446803" fill="#333333" font-size="11.733333333333334" font-family="sans-serif" text-anchor="middle">C</text><text x="151.08261618529096" y="86.78575815340022" fill="#333333" font-size="11.733333333333334" font-family="sans-serif" text-anchor="middle">D</text><text x="28.01333333333333" y="21.413333333333334" fill="#333333" font-size="17.599999999999998" font-family="sans-serif" text-anchor="start">Radial Plot (polar bar)</text><path d="M 328.3937500946137 43.92309782599049 L 342.76976299535005 47.94026480542284 L 356.6936054352898 53.31929716919558 L 370.0365964079765 60.01048311531754 L 382.675423005001 67.9519842148028 L 394.4932800460442 77.07040690846232 L 405.3809495659678 87.28148079359835 L 415.2378101825757 98.49083743202965 L 423.9727670166981 110.59488248187957 L 431.505093570487 123.48175309308172 L 437.7651777834727 137.03235171857085 L 442.69516537150173 151.12144678690856 L 446.2494945029619 165.6188300641774 L 448.39531687093734 180.3905200090644 L 449.1128012698412 195.29999999999998 L 293.84295999999995 195.29999999999998 L 293.84295999999995 195.29999999999998 L 293.84295999999995 195.29999999999998 L 293.84295999999995 195.29999999999998 L 293.84295999999995 195.29999999999998 L 293.84295999999995 195.29999999999998 L 293.84295999999995 195.29999999999998 L 293.84295999999995 195.29999999999998 L 293.84295999999995 195.29999999999998 L 293.84295999999995 195.29999999999998 L 293.84295999999995 195.29999999999998 L 293.84295999999995 195.29999999999998 L 293.84295999999995 195.29999999999998 L 293.84295999999995 195.29999999999998 L 293.84295999999995 195.29999999999998 Z" fill="#F8766D" fill-opacity="1.0" stroke="none"/><path d="M 421.7892978589181 214.58480750972666 L 419.3462867119771 226.78148910744767 L 415.7434021705644 238.68722589445548 L 411.0139412797257 250.1919877408516 L 405.20161264863646 261.18945023655874 L 398.3601325055097 271.5779773175007 L 390.5527282643487 281.2615605631471 L 381.85155419147 290.15070648464757 L 372.3370245720742 298.1632636034395 L 362.09707053958647 305.22518167665464 L 351.22632743598604 311.2711960527364 L 339.82526021335303 316.2454308326061 L 327.9992349594759 320.1019152620996 L 315.8575451282712 322.8050085832934 L 303.51240147437045 324.32972941833737 L 293.84295999999995 195.29999999999998 L 293.84295999999995 195.29999999999998 L 293.84295999999995 195.29999999999998 L 293.84295999999995 195.29999999999998 L 293.84295999999995 195.29999999999998 L 293.84295999999995 195.29999999999998 L 293.84295999999995 195.29999999999998 L 293.84295999999995 195.29999999999998 L 293.84295999999995 195.29999999999998 L 293.84295999999995 195.29999999999998 L 293.84295999999995 195.29999999999998 L 293.84295999999995 195.29999999999998 L 293.84295999999995 195.29999999999998 L 293.84295999999995 195.29999999999998 L 293.84295999999995 195.29999999999998 Z" fill="#7CAE00" fill-opacity="1.0" stroke="none"/><path d="M 284.17351852562956 324.32972941833737 L 271.8283748717288 322.8050085832934 L 259.6866850405239 320.1019152620996 L 247.86065978664695 316.2454308326061 L 236.4595925640139 311.27119605273646 L 225.58884946041354 305.22518167665464 L 215.3488954279258 298.1632636034395 L 205.83436580852995 290.15070648464757 L 197.13319173565134 281.2615605631471 L 189.32578749449036 271.57797731750077 L 182.4843073513635 261.18945023655874 L 176.67197872027432 250.1919877408517 L 171.94251782943562 238.68722589445565 L 168.3396332880228 226.78148910744773 L 165.8966221410819 214.58480750972677 L 293.84295999999995 195.29999999999998 L 293.84295999999995 195.29999999999998 L 293.84295999999995 195.29999999999998 L 293.84295999999995 195.29999999999998 L 293.84295999999995 195.29999999999998 L 293.84295999999995 195.29999999999998 L 293.84295999999995 195.29999999999998 L 293.84295999999995 195.29999999999998 L 293.84295999999995 195.29999999999998 L 293.84295999999995 195.29999999999998 L 293.84295999999995 195.29999999999998 L 293.84295999999995 195.29999999999998 L 293.84295999999995 195.29999999999998 L 293.84295999999995 195.29999999999998 L 293.84295999999995 195.29999999999998 Z" fill="#00BFC4" fill-opacity="1.0" stroke="none"/><path d="M 190.32973248677246 195.3 L 190.80805541937502 185.36034667270965 L 192.23860366469205 175.51255337611826 L 194.60815641899876 165.84763119127243 L 197.89481481101808 156.45490114571396 L 202.06820428634188 147.42116872872117 L 207.0897553222012 138.82992165458634 L 212.91305987828287 130.76055828801978 L 219.48430028935474 123.28765386239894 L 226.7427466359705 116.48027127230822 L 234.62131799666594 110.40132280986856 L 243.04720239468224 105.10698874354506 L 251.94252970980676 100.64619811279707 L 261.22509133643314 97.06017653694857 L 270.809099936924 94.38206521732701 L 293.84295999999995 195.29999999999998 L 293.84295999999995 195.29999999999998 L 293.84295999999995 195.29999999999998 L 293.84295999999995 195.29999999999998 L 293.84295999999995 195.29999999999998 L 293.84295999999995 195.29999999999998 L 293.84295999999995 195.29999999999998 L 293.84295999999995 195.29999999999998 L 293.84295999999995 195.29999999999998 L 293.84295999999995 195.29999999999998 L 293.84295999999995 195.29999999999998 L 293.84295999999995 195.29999999999998 L 293.84295999999995 195.29999999999998 L 293.84295999999995 195.29999999999998 L 293.84295999999995 195.29999999999998 Z" fill="#C77CFF" fill-opacity="1.0" stroke="none"/><rect x="574.3392533333333" y="149.07184" width="23.114079999999994" height="92.45631999999998" fill="#ffffff" fill-opacity="1.0" stroke="none"/><rect x="575.2841352230971" y="150.01672188976377" width="21.224316220472435" height="21.224316220472435" fill="#F8766D" fill-opacity="1.0" stroke="none"/><text x="601.1199999999999" y="164.38354666666666" fill="#333333" font-size="11.733333333333334" font-family="sans-serif" text-anchor="start">A</text><rect x="575.2841352230971" y="173.13080188976375" width="21.224316220472435" height="21.224316220472435" fill="#7CAE00" fill-opacity="1.0" stroke="none"/><text x="601.1199999999999" y="187.49762666666666" fill="#333333" font-size="11.733333333333334" font-family="sans-serif" text-anchor="start">B</text><rect x="575.2841352230971" y="196.24488188976375" width="21.224316220472435" height="21.224316220472435" fill="#00BFC4" fill-opacity="1.0" stroke="none"/><text x="601.1199999999999" y="210.61170666666663" fill="#333333" font-size="11.733333333333334" font-family="sans-serif" text-anchor="start">C</text><rect x="575.2841352230971" y="219.3589618897638" width="21.224316220472435" height="21.224316220472435" fill="#C77CFF" fill-opacity="1.0" stroke="none"/><text x="601.1199999999999" y="233.72578666666666" fill="#333333" font-size="11.733333333333334" font-family="sans-serif" text-anchor="start">D</text></svg>