<svg xmlns="http://www.w3.org/2000/svg" width="800" height="600" viewBox="0 0 800 600"><rect x="0.0" y="0.0" width="800.0" height="600.0" fill="#ffffff" fill-opacity="1.0" stroke="none"/><line x1="91.86161616161617" y1="27.0" x2="91.86161616161617" y2="563.8" stroke="#dddddd" stroke-width="0.5"/><line x1="282.79595959595963" y1="27.0" x2="282.79595959595963" y2="563.8" stroke="#dddddd" stroke-width="0.5"/><line x1="473.73030303030316" y1="27.0" x2="473.73030303030316" y2="563.8" stroke="#dddddd" stroke-width="0.5"/><line x1="664.6646464646465" y1="27.0" x2="664.6646464646465" y2="563.8" stroke="#dddddd" stroke-width="0.5"/><line x1="187.3287878787879" y1="27.0" x2="187.3287878787879" y2="563.8" stroke="#dddddd" stroke-width="1.0"/><line x1="378.26313131313134" y1="27.0" x2="378.26313131313134" y2="563.8" stroke="#dddddd" stroke-width="1.0"/><line x1="569.1974747474748" y1="27.0" x2="569.1974747474748" y2="563.8" stroke="#dddddd" stroke-width="1.0"/><line x1="760.1318181818182" y1="27.0" x2="760.1318181818182" y2="563.8" stroke="#dddddd" stroke-width="1.0"/><line x1="38.4" y1="528.494972067039" x2="794.5" y2="528.494972067039" stroke="#dddddd" stroke-width="0.5"/><line x1="38.4" y1="392.1821229050279" x2="794.5" y2="392.1821229050279" stroke="#dddddd" stroke-width="0.5"/><line x1="38.4" y1="255.86927374301666" x2="794.5" y2="255.86927374301666" stroke="#dddddd" stroke-width="0.5"/><line x1="38.4" y1="119.5564245810055" x2="794.5" y2="119.5564245810055" stroke="#dddddd" stroke-width="0.5"/><line x1="38.4" y1="460.33854748603346" x2="794.5" y2="460.33854748603346" stroke="#dddddd" stroke-width="1.0"/><line x1="38.4" y1="324.0256983240223" x2="794.5" y2="324.0256983240223" stroke="#dddddd" stroke-width="1.0"/><line x1="38.4" y1="187.71284916201108" x2="794.5" y2="187.71284916201108" stroke="#dddddd" stroke-width="1.0"/><line x1="38.4" y1="51.399999999999864" x2="794.5" y2="51.399999999999864" stroke="#dddddd" stroke-width="1.0"/><rect x="38.4" y="27.0" width="756.1" height="536.8" fill="#ffffff" fill-opacity="0.0" stroke="#444444" stroke-width="1.0"/><line x1="187.3287878787879" y1="563.8" x2="187.3287878787879" y2="566.55" stroke="#444444" stroke-width="1.0"/><text x="187.3287878787879" y="577.55" fill="#333333" font-size="11.0" font-family="sans-serif" text-anchor="middle">2.5</text><line x1="378.26313131313134" y1="563.8" x2="378.26313131313134" y2="566.55" stroke="#444444" stroke-width="1.0"/><text x="378.26313131313134" y="577.55" fill="#333333" font-size="11.0" font-family="sans-serif" text-anchor="middle">5</text><line x1="569.1974747474748" y1="563.8" x2="569.1974747474748" y2="566.55" stroke="#444444" stroke-width="1.0"/><text x="569.1974747474748" y="577.55" fill="#333333" font-size="11.0" font-family="sans-serif" text-anchor="middle">7.5</text><line x1="760.1318181818182" y1="563.8" x2="760.1318181818182" y2="566.55" stroke="#444444" stroke-width="1.0"/><text x="760.1318181818182" y="577.55" fill="#333333" font-size="11.0" font-family="sans-serif" text-anchor="middle">10</text><line x1="38.4" y1="460.33854748603346" x2="35.65" y2="460.33854748603346" stroke="#444444" stroke-width="1.0"/><text x="33.449999999999996" y="464.1885474860335" fill="#333333" font-size="11.0" font-family="sans-serif" text-anchor="end">5</text><line x1="38.4" y1="324.0256983240223" x2="35.65" y2="324.0256983240223" stroke="#444444" stroke-width="1.0"/><text x="33.449999999999996" y="327.8756983240223" fill="#333333" font-size="11.0" font-family="sans-serif" text-anchor="end">10</text><line x1="38.4" y1="187.71284916201108" x2="35.65" y2="187.71284916201108" stroke="#444444" stroke-width="1.0"/><text x="33.449999999999996" y="191.56284916201108" fill="#333333" font-size="11.0" font-family="sans-serif" text-anchor="end">15</text><line x1="38.4" y1="51.399999999999864" x2="35.65" y2="51.399999999999864" stroke="#444444" stroke-width="1.0"/><text x="33.449999999999996" y="55.249999999999865" fill="#333333" font-size="11.0" font-family="sans-serif" text-anchor="end">20</text><text x="416.45" y="18.3" fill="#333333" font-size="16.0" font-family="sans-serif" text-anchor="middle">Linear Regression</text><text x="416.45" y="592.1" fill="#333333" font-size="12.0" font-family="sans-serif" text-anchor="middle">x</text><text x="13.899999999999999" y="295.4" fill="#333333" font-size="12.0" font-family="sans-serif" text-anchor="middle" transform="rotate(-90.0 13.899999999999999 295.4)">y</text><circle cx="72.76818181818182" cy="539.4" r="6.0" fill="#1f77b4" fill-opacity="0.85" stroke="#1f77b4" stroke-width="1.0"><title>(1, 2.1)</title></circle><circle cx="149.14191919191921" cy="490.32737430167595" r="6.0" fill="#1f77b4" fill-opacity="0.85" stroke="#1f77b4" stroke-width="1.0"><title>(2, 3.9)</title></circle><circle cx="225.51565656565663" cy="433.07597765363124" r="6.0" fill="#1f77b4" fill-opacity="0.85" stroke="#1f77b4" stroke-width="1.0"><title>(3, 6)</title></circle><circle cx="301.889393939394" cy="386.72960893854747" r="6.0" fill="#1f77b4" fill-opacity="0.85" stroke="#1f77b4" stroke-width="1.0"><title>(4, 7.7)</title></circle><circle cx="378.26313131313134" cy="318.5731843575419" r="6.0" fill="#1f77b4" fill-opacity="0.85" stroke="#1f77b4" stroke-width="1.0"><title>(5, 10.2)</title></circle><circle cx="454.63686868686875" cy="274.95307262569827" r="6.0" fill="#1f77b4" fill-opacity="0.85" stroke="#1f77b4" stroke-width="1.0"><title>(6, 11.8)</title></circle><circle cx="531.0106060606062" cy="212.24916201117315" r="6.0" fill="#1f77b4" fill-opacity="0.85" stroke="#1f77b4" stroke-width="1.0"><title>(7, 14.1)</title></circle><circle cx="607.3843434343435" cy="163.17653631284912" r="6.0" fill="#1f77b4" fill-opacity="0.85" stroke="#1f77b4" stroke-width="1.0"><title>(8, 15.9)</title></circle><circle cx="683.7580808080809" cy="100.47262569832401" r="6.0" fill="#1f77b4" fill-opacity="0.85" stroke="#1f77b4" stroke-width="1.0"><title>(9, 18.2)</title></circle><circle cx="760.1318181818182" cy="51.399999999999864" r="6.0" fill="#1f77b4" fill-opacity="0.85" stroke="#1f77b4" stroke-width="1.0"><title>(10, 20)</title></circle><line x1="72.76818181818182" y1="539.4" x2="149.14191919191921" y2="490.32737430167595" stroke="#d62728" stroke-width="2.0"/><line x1="149.14191919191921" y1="490.32737430167595" x2="225.51565656565663" y2="433.07597765363124" stroke="#d62728" stroke-width="2.0"/><line x1="225.51565656565663" y1="433.07597765363124" x2="301.889393939394" y2="386.72960893854747" stroke="#d62728" stroke-width="2.0"/><line x1="301.889393939394" y1="386.72960893854747" x2="378.26313131313134" y2="318.5731843575419" stroke="#d62728" stroke-width="2.0"/><line x1="378.26313131313134" y1="318.5731843575419" x2="454.63686868686875" y2="274.95307262569827" stroke="#d62728" stroke-width="2.0"/><line x1="454.63686868686875" y1="274.95307262569827" x2="531.0106060606062" y2="212.24916201117315" stroke="#d62728" stroke-width="2.0"/><line x1="531.0106060606062" y1="212.24916201117315" x2="607.3843434343435" y2="163.17653631284912" stroke="#d62728" stroke-width="2.0"/><line x1="607.3843434343435" y1="163.17653631284912" x2="683.7580808080809" y2="100.47262569832401" stroke="#d62728" stroke-width="2.0"/><line x1="683.7580808080809" y1="100.47262569832401" x2="760.1318181818182" y2="51.399999999999864" stroke="#d62728" stroke-width="2.0"/></svg>