<svg xmlns="http://www.w3.org/2000/svg" width="800" height="600" viewBox="0 0 800 600"><rect x="0.0" y="0.0" width="800.0" height="600.0" fill="#ffffff" fill-opacity="1.0" stroke="none"/><line x1="164.29273832108913" y1="27.0" x2="164.29273832108913" y2="563.8" stroke="#dddddd" stroke-width="0.5"/><line x1="334.59757944036306" y1="27.0" x2="334.59757944036306" y2="563.8" stroke="#dddddd" stroke-width="0.5"/><line x1="504.90242055963694" y1="27.0" x2="504.90242055963694" y2="563.8" stroke="#dddddd" stroke-width="0.5"/><line x1="675.2072616789109" y1="27.0" x2="675.2072616789109" y2="563.8" stroke="#dddddd" stroke-width="0.5"/><line x1="79.14031776145218" y1="27.0" x2="79.14031776145218" y2="563.8" stroke="#dddddd" stroke-width="1.0"/><line x1="249.44515888072607" y1="27.0" x2="249.44515888072607" y2="563.8" stroke="#dddddd" stroke-width="1.0"/><line x1="419.75" y1="27.0" x2="419.75" y2="563.8" stroke="#dddddd" stroke-width="1.0"/><line x1="590.0548411192739" y1="27.0" x2="590.0548411192739" y2="563.8" stroke="#dddddd" stroke-width="1.0"/><line x1="760.3596822385477" y1="27.0" x2="760.3596822385477" y2="563.8" stroke="#dddddd" stroke-width="1.0"/><line x1="45.0" y1="498.7333333333333" x2="794.5" y2="498.7333333333333" stroke="#dddddd" stroke-width="0.5"/><line x1="45.0" y1="363.1777777777777" x2="794.5" y2="363.1777777777777" stroke="#dddddd" stroke-width="0.5"/><line x1="45.0" y1="227.62222222222215" x2="794.5" y2="227.62222222222215" stroke="#dddddd" stroke-width="0.5"/><line x1="45.0" y1="92.0666666666666" x2="794.5" y2="92.0666666666666" stroke="#dddddd" stroke-width="0.5"/><line x1="45.0" y1="430.9555555555555" x2="794.5" y2="430.9555555555555" stroke="#dddddd" stroke-width="1.0"/><line x1="45.0" y1="295.3999999999999" x2="794.5" y2="295.3999999999999" stroke="#dddddd" stroke-width="1.0"/><line x1="45.0" y1="159.84444444444438" x2="794.5" y2="159.84444444444438" stroke="#dddddd" stroke-width="1.0"/><rect x="45.0" y="27.0" width="749.5" height="536.8" fill="#ffffff" fill-opacity="0.0" stroke="#444444" stroke-width="1.0"/><line x1="79.14031776145218" y1="563.8" x2="79.14031776145218" y2="566.55" stroke="#444444" stroke-width="1.0"/><text x="79.14031776145218" y="577.55" fill="#333333" font-size="11.0" font-family="sans-serif" text-anchor="middle">-2</text><line x1="249.44515888072607" y1="563.8" x2="249.44515888072607" y2="566.55" stroke="#444444" stroke-width="1.0"/><text x="249.44515888072607" y="577.55" fill="#333333" font-size="11.0" font-family="sans-serif" text-anchor="middle">-1</text><line x1="419.75" y1="563.8" x2="419.75" y2="566.55" stroke="#444444" stroke-width="1.0"/><text x="419.75" y="577.55" fill="#333333" font-size="11.0" font-family="sans-serif" text-anchor="middle">0</text><line x1="590.0548411192739" y1="563.8" x2="590.0548411192739" y2="566.55" stroke="#444444" stroke-width="1.0"/><text x="590.0548411192739" y="577.55" fill="#333333" font-size="11.0" font-family="sans-serif" text-anchor="middle">1</text><line x1="760.3596822385477" y1="563.8" x2="760.3596822385477" y2="566.55" stroke="#444444" stroke-width="1.0"/><text x="760.3596822385477" y="577.55" fill="#333333" font-size="11.0" font-family="sans-serif" text-anchor="middle">2</text><line x1="45.0" y1="430.9555555555555" x2="42.25" y2="430.9555555555555" stroke="#444444" stroke-width="1.0"/><text x="40.05" y="434.80555555555554" fill="#333333" font-size="11.0" font-family="sans-serif" text-anchor="end">5</text><line x1="45.0" y1="295.3999999999999" x2="42.25" y2="295.3999999999999" stroke="#444444" stroke-width="1.0"/><text x="40.05" y="299.24999999999994" fill="#333333" font-size="11.0" font-family="sans-serif" text-anchor="end">7.5</text><line x1="45.0" y1="159.84444444444438" x2="42.25" y2="159.84444444444438" stroke="#444444" stroke-width="1.0"/><text x="40.05" y="163.69444444444437" fill="#333333" font-size="11.0" font-family="sans-serif" text-anchor="end">10</text><text x="419.75" y="18.3" fill="#333333" font-size="16.0" font-family="sans-serif" text-anchor="middle">Quantile-Quantile Plot (QQ Plot)</text><text x="419.75" y="592.1" fill="#333333" font-size="12.0" font-family="sans-serif" text-anchor="middle">theoretical</text><text x="13.899999999999999" y="295.4" fill="#333333" font-size="12.0" font-family="sans-serif" text-anchor="middle" transform="rotate(-90.0 13.899999999999999 295.4)">sample</text><circle cx="79.06818181818178" cy="539.4" r="3.0" fill="#1f77b4" fill-opacity="0.85" stroke="#1f77b4" stroke-width="1.0"/><circle cx="166.0860408318835" cy="485.1777777777777" r="3.0" fill="#1f77b4" fill-opacity="0.85" stroke="#1f77b4" stroke-width="1.0"/><circle cx="214.1215421634662" cy="474.33333333333326" r="3.0" fill="#1f77b4" fill-opacity="0.85" stroke="#1f77b4" stroke-width="1.0"/><circle cx="249.7515078164457" cy="458.0666666666666" r="3.0" fill="#1f77b4" fill-opacity="0.85" stroke="#1f77b4" stroke-width="1.0"/><circle cx="279.1642920305219" cy="441.79999999999995" r="3.0" fill="#1f77b4" fill-opacity="0.85" stroke="#1f77b4" stroke-width="1.0"/><circle cx="304.8811302516213" cy="430.9555555555555" r="3.0" fill="#1f77b4" fill-opacity="0.85" stroke="#1f77b4" stroke-width="1.0"/><circle cx="328.20789391685054" cy="430.9555555555555" r="3.0" fill="#1f77b4" fill-opacity="0.85" stroke="#1f77b4" stroke-width="1.0"/><circle cx="349.92785545609996" cy="425.5333333333333" r="3.0" fill="#1f77b4" fill-opacity="0.85" stroke="#1f77b4" stroke-width="1.0"/><circle cx="370.56436872527587" cy="420.1111111111111" r="3.0" fill="#1f77b4" fill-opacity="0.85" stroke="#1f77b4" stroke-width="1.0"/><circle cx="390.50063919864715" cy="414.68888888888887" r="3.0" fill="#1f77b4" fill-opacity="0.85" stroke="#1f77b4" stroke-width="1.0"/><circle cx="410.0426795057913" cy="403.8444444444444" r="3.0" fill="#1f77b4" fill-opacity="0.85" stroke="#1f77b4" stroke-width="1.0"/><circle cx="429.4573204942087" cy="398.42222222222216" r="3.0" fill="#1f77b4" fill-opacity="0.85" stroke="#1f77b4" stroke-width="1.0"/><circle cx="448.99936080135285" cy="382.15555555555545" r="3.0" fill="#1f77b4" fill-opacity="0.85" stroke="#1f77b4" stroke-width="1.0"/><circle cx="468.9356312747241" cy="376.73333333333323" r="3.0" fill="#1f77b4" fill-opacity="0.85" stroke="#1f77b4" stroke-width="1.0"/><circle cx="489.5721445439" cy="371.3111111111111" r="3.0" fill="#1f77b4" fill-opacity="0.85" stroke="#1f77b4" stroke-width="1.0"/><circle cx="511.2921060831494" cy="365.8888888888888" r="3.0" fill="#1f77b4" fill-opacity="0.85" stroke="#1f77b4" stroke-width="1.0"/><circle cx="534.6188697483788" cy="349.62222222222215" r="3.0" fill="#1f77b4" fill-opacity="0.85" stroke="#1f77b4" stroke-width="1.0"/><circle cx="560.3357079694781" cy="333.3555555555555" r="3.0" fill="#1f77b4" fill-opacity="0.85" stroke="#1f77b4" stroke-width="1.0"/><circle cx="589.7484921835544" cy="322.51111111111106" r="3.0" fill="#1f77b4" fill-opacity="0.85" stroke="#1f77b4" stroke-width="1.0"/><circle cx="625.3784578365338" cy="295.3999999999999" r="3.0" fill="#1f77b4" fill-opacity="0.85" stroke="#1f77b4" stroke-width="1.0"/><circle cx="673.4139591681138" cy="268.28888888888883" r="3.0" fill="#1f77b4" fill-opacity="0.85" stroke="#1f77b4" stroke-width="1.0"/><circle cx="760.4318181818182" cy="51.39999999999998" r="3.0" fill="#1f77b4" fill-opacity="0.85" stroke="#1f77b4" stroke-width="1.0"/></svg>