<svg xmlns="http://www.w3.org/2000/svg" width="624" height="384" viewBox="0 0 624 384"><rect x="0.0" y="0.0" width="624.0" height="384.0" fill="#ffffff" fill-opacity="1.0" stroke="none"/><line x1="133.50272727272727" y1="32.266666666666666" x2="133.50272727272727" y2="358.3333333333333" stroke="#dddddd" stroke-width="0.6666666666666666"/><line x1="264.0875757575757" y1="32.266666666666666" x2="264.0875757575757" y2="358.3333333333333" stroke="#dddddd" stroke-width="0.6666666666666666"/><line x1="394.6724242424242" y1="32.266666666666666" x2="394.6724242424242" y2="358.3333333333333" stroke="#dddddd" stroke-width="0.6666666666666666"/><line x1="525.2572727272726" y1="32.266666666666666" x2="525.2572727272726" y2="358.3333333333333" stroke="#dddddd" stroke-width="0.6666666666666666"/><line x1="68.21030303030302" y1="32.266666666666666" x2="68.21030303030302" y2="358.3333333333333" stroke="#dddddd" stroke-width="1.3333333333333333"/><line x1="198.7951515151515" y1="32.266666666666666" x2="198.7951515151515" y2="358.3333333333333" stroke="#dddddd" stroke-width="1.3333333333333333"/><line x1="329.38" y1="32.266666666666666" x2="329.38" y2="358.3333333333333" stroke="#dddddd" stroke-width="1.3333333333333333"/><line x1="459.9648484848485" y1="32.266666666666666" x2="459.9648484848485" y2="358.3333333333333" stroke="#dddddd" stroke-width="1.3333333333333333"/><line x1="590.5496969696969" y1="32.266666666666666" x2="590.5496969696969" y2="358.3333333333333" stroke="#dddddd" stroke-width="1.3333333333333333"/><line x1="42.093333333333334" y1="306.4590909090909" x2="616.6666666666666" y2="306.4590909090909" stroke="#dddddd" stroke-width="0.6666666666666666"/><line x1="42.093333333333334" y1="232.35303030303032" x2="616.6666666666666" y2="232.35303030303032" stroke="#dddddd" stroke-width="0.6666666666666666"/><line x1="42.093333333333334" y1="158.2469696969697" x2="616.6666666666666" y2="158.2469696969697" stroke="#dddddd" stroke-width="0.6666666666666666"/><line x1="42.093333333333334" y1="84.1409090909091" x2="616.6666666666666" y2="84.1409090909091" stroke="#dddddd" stroke-width="0.6666666666666666"/><line x1="42.093333333333334" y1="343.5121212121212" x2="616.6666666666666" y2="343.5121212121212" stroke="#dddddd" stroke-width="1.3333333333333333"/><line x1="42.093333333333334" y1="269.4060606060606" x2="616.6666666666666" y2="269.4060606060606" stroke="#dddddd" stroke-width="1.3333333333333333"/><line x1="42.093333333333334" y1="195.29999999999998" x2="616.6666666666666" y2="195.29999999999998" stroke="#dddddd" stroke-width="1.3333333333333333"/><line x1="42.093333333333334" y1="121.19393939393936" x2="616.6666666666666" y2="121.19393939393936" stroke="#dddddd" stroke-width="1.3333333333333333"/><line x1="42.093333333333334" y1="47.08787878787878" x2="616.6666666666666" y2="47.08787878787878" stroke="#dddddd" stroke-width="1.3333333333333333"/><rect x="42.093333333333334" y="32.266666666666666" width="574.5733333333333" height="326.06666666666666" fill="#ffffff" fill-opacity="0.0" stroke="#444444" stroke-width="1.3333333333333333"/><line x1="68.21030303030302" y1="358.3333333333333" x2="68.21030303030302" y2="362.0" stroke="#444444" stroke-width="1.3333333333333333"/><text x="68.21030303030302" y="374.32" fill="#333333" font-size="11.733333333333334" font-family="sans-serif" text-anchor="middle">0.00</text><line x1="198.7951515151515" y1="358.3333333333333" x2="198.7951515151515" y2="362.0" stroke="#444444" stroke-width="1.3333333333333333"/><text x="198.7951515151515" y="374.32" fill="#333333" font-size="11.733333333333334" font-family="sans-serif" text-anchor="middle">0.25</text><line x1="329.38" y1="358.3333333333333" x2="329.38" y2="362.0" stroke="#444444" stroke-width="1.3333333333333333"/><text x="329.38" y="374.32" fill="#333333" font-size="11.733333333333334" font-family="sans-serif" text-anchor="middle">0.50</text><line x1="459.9648484848485" y1="358.3333333333333" x2="459.9648484848485" y2="362.0" stroke="#444444" stroke-width="1.3333333333333333"/><text x="459.9648484848485" y="374.32" fill="#333333" font-size="11.733333333333334" font-family="sans-serif" text-anchor="middle">0.75</text><line x1="590.5496969696969" y1="358.3333333333333" x2="590.5496969696969" y2="362.0" stroke="#444444" stroke-width="1.3333333333333333"/><text x="590.5496969696969" y="374.32" fill="#333333" font-size="11.733333333333334" font-family="sans-serif" text-anchor="middle">1.00</text><line x1="42.093333333333334" y1="343.5121212121212" x2="38.42666666666666" y2="343.5121212121212" stroke="#444444" stroke-width="1.3333333333333333"/><text x="35.49333333333333" y="347.6187878787878" fill="#333333" font-size="11.733333333333334" font-family="sans-serif" text-anchor="end">0.00</text><line x1="42.093333333333334" y1="269.4060606060606" x2="38.42666666666666" y2="269.4060606060606" stroke="#444444" stroke-width="1.3333333333333333"/><text x="35.49333333333333" y="273.51272727272726" fill="#333333" font-size="11.733333333333334" font-family="sans-serif" text-anchor="end">0.25</text><line x1="42.093333333333334" y1="195.29999999999998" x2="38.42666666666666" y2="195.29999999999998" stroke="#444444" stroke-width="1.3333333333333333"/><text x="35.49333333333333" y="199.40666666666667" fill="#333333" font-size="11.733333333333334" font-family="sans-serif" text-anchor="end">0.50</text><line x1="42.093333333333334" y1="121.19393939393936" x2="38.42666666666666" y2="121.19393939393936" stroke="#444444" stroke-width="1.3333333333333333"/><text x="35.49333333333333" y="125.30060606060603" fill="#333333" font-size="11.733333333333334" font-family="sans-serif" text-anchor="end">0.75</text><line x1="42.093333333333334" y1="47.08787878787878" x2="38.42666666666666" y2="47.08787878787878" stroke="#444444" stroke-width="1.3333333333333333"/><text x="35.49333333333333" y="51.19454545454545" fill="#333333" font-size="11.733333333333334" font-family="sans-serif" text-anchor="end">1.00</text><text x="42.093333333333334" y="21.413333333333334" fill="#333333" font-size="17.599999999999998" font-family="sans-serif" text-anchor="start">Parallel Coordinate Plot</text><line x1="42.093333333333334" y1="32.266666666666666" x2="42.093333333333334" y2="358.3333333333333" stroke="#444444" stroke-width="1.3333333333333333"/><line x1="329.38" y1="32.266666666666666" x2="329.38" y2="358.3333333333333" stroke="#444444" stroke-width="1.3333333333333333"/><line x1="616.6666666666666" y1="32.266666666666666" x2="616.6666666666666" y2="358.3333333333333" stroke="#444444" stroke-width="1.3333333333333333"/><line x1="42.093333333333334" y1="358.3333333333333" x2="329.38" y2="32.266666666666666" stroke="#1f77b4" stroke-width="0.7999999999999999"/><line x1="329.38" y1="32.266666666666666" x2="616.6666666666666" y2="249.64444444444445" stroke="#1f77b4" stroke-width="0.7999999999999999"/><line x1="42.093333333333334" y1="249.64444444444445" x2="329.38" y2="140.95555555555558" stroke="#1f77b4" stroke-width="0.7999999999999999"/><line x1="329.38" y1="140.95555555555558" x2="616.6666666666666" y2="32.266666666666666" stroke="#1f77b4" stroke-width="0.7999999999999999"/><line x1="42.093333333333334" y1="140.95555555555558" x2="329.38" y2="249.64444444444445" stroke="#1f77b4" stroke-width="0.7999999999999999"/><line x1="329.38" y1="249.64444444444445" x2="616.6666666666666" y2="358.3333333333333" stroke="#1f77b4" stroke-width="0.7999999999999999"/><line x1="42.093333333333334" y1="32.266666666666666" x2="329.38" y2="358.3333333333333" stroke="#1f77b4" stroke-width="0.7999999999999999"/><line x1="329.38" y1="358.3333333333333" x2="616.6666666666666" y2="140.95555555555558" stroke="#1f77b4" stroke-width="0.7999999999999999"/></svg>