<svg xmlns="http://www.w3.org/2000/svg" width="800" height="600" viewBox="0 0 800 600"><rect x="0.0" y="0.0" width="800.0" height="600.0" fill="#ffffff" fill-opacity="1.0" stroke="none"/><line x1="157.38522727272724" y1="27.0" x2="157.38522727272724" y2="578.55" stroke="#dddddd" stroke-width="0.5"/><line x1="329.5784090909091" y1="27.0" x2="329.5784090909091" y2="578.55" stroke="#dddddd" stroke-width="0.5"/><line x1="501.77159090909095" y1="27.0" x2="501.77159090909095" y2="578.55" stroke="#dddddd" stroke-width="0.5"/><line x1="673.9647727272727" y1="27.0" x2="673.9647727272727" y2="578.55" stroke="#dddddd" stroke-width="0.5"/><line x1="71.28863636363636" y1="27.0" x2="71.28863636363636" y2="578.55" stroke="#dddddd" stroke-width="1.0"/><line x1="243.48181818181814" y1="27.0" x2="243.48181818181814" y2="578.55" stroke="#dddddd" stroke-width="1.0"/><line x1="415.67499999999995" y1="27.0" x2="415.67499999999995" y2="578.55" stroke="#dddddd" stroke-width="1.0"/><line x1="587.8681818181818" y1="27.0" x2="587.8681818181818" y2="578.55" stroke="#dddddd" stroke-width="1.0"/><line x1="760.0613636363636" y1="27.0" x2="760.0613636363636" y2="578.55" stroke="#dddddd" stroke-width="1.0"/><line x1="36.849999999999994" y1="490.8034090909091" x2="794.5" y2="490.8034090909091" stroke="#dddddd" stroke-width="0.5"/><line x1="36.849999999999994" y1="365.45113636363635" x2="794.5" y2="365.45113636363635" stroke="#dddddd" stroke-width="0.5"/><line x1="36.849999999999994" y1="240.0988636363636" x2="794.5" y2="240.0988636363636" stroke="#dddddd" stroke-width="0.5"/><line x1="36.849999999999994" y1="114.74659090909097" x2="794.5" y2="114.74659090909097" stroke="#dddddd" stroke-width="0.5"/><line x1="36.849999999999994" y1="553.4795454545454" x2="794.5" y2="553.4795454545454" stroke="#dddddd" stroke-width="1.0"/><line x1="36.849999999999994" y1="428.1272727272727" x2="794.5" y2="428.1272727272727" stroke="#dddddd" stroke-width="1.0"/><line x1="36.849999999999994" y1="302.775" x2="794.5" y2="302.775" stroke="#dddddd" stroke-width="1.0"/><line x1="36.849999999999994" y1="177.42272727272723" x2="794.5" y2="177.42272727272723" stroke="#dddddd" stroke-width="1.0"/><line x1="36.849999999999994" y1="52.070454545454595" x2="794.5" y2="52.070454545454595" stroke="#dddddd" stroke-width="1.0"/><rect x="36.849999999999994" y="27.0" width="757.65" height="551.55" fill="#ffffff" fill-opacity="0.0" stroke="#444444" stroke-width="1.0"/><line x1="71.28863636363636" y1="578.55" x2="71.28863636363636" y2="581.3" stroke="#444444" stroke-width="1.0"/><text x="71.28863636363636" y="592.3" fill="#333333" font-size="11.0" font-family="sans-serif" text-anchor="middle">0</text><line x1="243.48181818181814" y1="578.55" x2="243.48181818181814" y2="581.3" stroke="#444444" stroke-width="1.0"/><text x="243.48181818181814" y="592.3" fill="#333333" font-size="11.0" font-family="sans-serif" text-anchor="middle">0.25</text><line x1="415.67499999999995" y1="578.55" x2="415.67499999999995" y2="581.3" stroke="#444444" stroke-width="1.0"/><text x="415.67499999999995" y="592.3" fill="#333333" font-size="11.0" font-family="sans-serif" text-anchor="middle">0.5</text><line x1="587.8681818181818" y1="578.55" x2="587.8681818181818" y2="581.3" stroke="#444444" stroke-width="1.0"/><text x="587.8681818181818" y="592.3" fill="#333333" font-size="11.0" font-family="sans-serif" text-anchor="middle">0.75</text><line x1="760.0613636363636" y1="578.55" x2="760.0613636363636" y2="581.3" stroke="#444444" stroke-width="1.0"/><text x="760.0613636363636" y="592.3" fill="#333333" font-size="11.0" font-family="sans-serif" text-anchor="middle">1</text><line x1="36.849999999999994" y1="553.4795454545454" x2="34.099999999999994" y2="553.4795454545454" stroke="#444444" stroke-width="1.0"/><text x="31.899999999999995" y="557.3295454545454" fill="#333333" font-size="11.0" font-family="sans-serif" text-anchor="end">0</text><line x1="36.849999999999994" y1="428.1272727272727" x2="34.099999999999994" y2="428.1272727272727" stroke="#444444" stroke-width="1.0"/><text x="31.899999999999995" y="431.97727272727275" fill="#333333" font-size="11.0" font-family="sans-serif" text-anchor="end">0.25</text><line x1="36.849999999999994" y1="302.775" x2="34.099999999999994" y2="302.775" stroke="#444444" stroke-width="1.0"/><text x="31.899999999999995" y="306.625" fill="#333333" font-size="11.0" font-family="sans-serif" text-anchor="end">0.5</text><line x1="36.849999999999994" y1="177.42272727272723" x2="34.099999999999994" y2="177.42272727272723" stroke="#444444" stroke-width="1.0"/><text x="31.899999999999995" y="181.27272727272722" fill="#333333" font-size="11.0" font-family="sans-serif" text-anchor="end">0.75</text><line x1="36.849999999999994" y1="52.070454545454595" x2="34.099999999999994" y2="52.070454545454595" stroke="#444444" stroke-width="1.0"/><text x="31.899999999999995" y="55.9204545454546" fill="#333333" font-size="11.0" font-family="sans-serif" text-anchor="end">1</text><text x="415.67499999999995" y="18.3" fill="#333333" font-size="16.0" font-family="sans-serif" text-anchor="middle">Parallel Coordinate Plot</text><line x1="36.849999999999994" y1="27.0" x2="36.849999999999994" y2="578.55" stroke="#444444" stroke-width="1.0"/><line x1="415.67499999999995" y1="27.0" x2="415.67499999999995" y2="578.55" stroke="#444444" stroke-width="1.0"/><line x1="794.5" y1="27.0" x2="794.5" y2="578.55" stroke="#444444" stroke-width="1.0"/><line x1="36.849999999999994" y1="578.55" x2="415.67499999999995" y2="27.0" stroke="#1f77b4" stroke-width="0.6"/><line x1="415.67499999999995" y1="27.0" x2="794.5" y2="394.7" stroke="#1f77b4" stroke-width="0.6"/><line x1="36.849999999999994" y1="394.7" x2="415.67499999999995" y2="210.85" stroke="#1f77b4" stroke-width="0.6"/><line x1="415.67499999999995" y1="210.85" x2="794.5" y2="27.0" stroke="#1f77b4" stroke-width="0.6"/><line x1="36.849999999999994" y1="210.85" x2="415.67499999999995" y2="394.7" stroke="#1f77b4" stroke-width="0.6"/><line x1="415.67499999999995" y1="394.7" x2="794.5" y2="578.55" stroke="#1f77b4" stroke-width="0.6"/><line x1="36.849999999999994" y1="27.0" x2="415.67499999999995" y2="578.55" stroke="#1f77b4" stroke-width="0.6"/><line x1="415.67499999999995" y1="578.55" x2="794.5" y2="210.85" stroke="#1f77b4" stroke-width="0.6"/><text x="36.849999999999994" y="23.0" fill="#333333" font-size="11.0" font-family="sans-serif" text-anchor="middle">&lt;inline-num&gt;</text><text x="415.67499999999995" y="23.0" fill="#333333" font-size="11.0" font-family="sans-serif" text-anchor="middle">&lt;inline-num&gt;</text><text x="794.5" y="23.0" fill="#333333" font-size="11.0" font-family="sans-serif" text-anchor="middle">&lt;inline-num&gt;</text></svg>