<svg xmlns="http://www.w3.org/2000/svg" width="800" height="600" viewBox="0 0 800 600"><rect x="0.0" y="0.0" width="800.0" height="600.0" fill="#ffffff" fill-opacity="1.0" stroke="none"/><line x1="153.13863636363635" y1="27.0" x2="153.13863636363635" y2="563.8" stroke="#dddddd" stroke-width="0.5"/><line x1="326.4795454545454" y1="27.0" x2="326.4795454545454" y2="563.8" stroke="#dddddd" stroke-width="0.5"/><line x1="499.8204545454546" y1="27.0" x2="499.8204545454546" y2="563.8" stroke="#dddddd" stroke-width="0.5"/><line x1="673.1613636363636" y1="27.0" x2="673.1613636363636" y2="563.8" stroke="#dddddd" stroke-width="0.5"/><line x1="66.4681818181818" y1="27.0" x2="66.4681818181818" y2="563.8" stroke="#dddddd" stroke-width="1.0"/><line x1="239.8090909090909" y1="27.0" x2="239.8090909090909" y2="563.8" stroke="#dddddd" stroke-width="1.0"/><line x1="413.15000000000003" y1="27.0" x2="413.15000000000003" y2="563.8" stroke="#dddddd" stroke-width="1.0"/><line x1="586.4909090909091" y1="27.0" x2="586.4909090909091" y2="563.8" stroke="#dddddd" stroke-width="1.0"/><line x1="759.8318181818181" y1="27.0" x2="759.8318181818181" y2="563.8" stroke="#dddddd" stroke-width="1.0"/><line x1="31.799999999999997" y1="539.4" x2="794.5" y2="539.4" stroke="#dddddd" stroke-width="0.5"/><line x1="31.799999999999997" y1="425.9116279069767" x2="794.5" y2="425.9116279069767" stroke="#dddddd" stroke-width="0.5"/><line x1="31.799999999999997" y1="312.42325581395346" x2="794.5" y2="312.42325581395346" stroke="#dddddd" stroke-width="0.5"/><line x1="31.799999999999997" y1="198.9348837209302" x2="794.5" y2="198.9348837209302" stroke="#dddddd" stroke-width="0.5"/><line x1="31.799999999999997" y1="85.44651162790694" x2="794.5" y2="85.44651162790694" stroke="#dddddd" stroke-width="0.5"/><line x1="31.799999999999997" y1="482.6558139534883" x2="794.5" y2="482.6558139534883" stroke="#dddddd" stroke-width="1.0"/><line x1="31.799999999999997" y1="369.16744186046503" x2="794.5" y2="369.16744186046503" stroke="#dddddd" stroke-width="1.0"/><line x1="31.799999999999997" y1="255.67906976744183" x2="794.5" y2="255.67906976744183" stroke="#dddddd" stroke-width="1.0"/><line x1="31.799999999999997" y1="142.19069767441857" x2="794.5" y2="142.19069767441857" stroke="#dddddd" stroke-width="1.0"/><line x1="31.799999999999997" y1="28.702325581395257" x2="794.5" y2="28.702325581395257" stroke="#dddddd" stroke-width="1.0"/><rect x="31.799999999999997" y="27.0" width="762.7" height="536.8" fill="#ffffff" fill-opacity="0.0" stroke="#444444" stroke-width="1.0"/><line x1="66.4681818181818" y1="563.8" x2="66.4681818181818" y2="566.55" stroke="#444444" stroke-width="1.0"/><text x="66.4681818181818" y="577.55" fill="#333333" font-size="11.0" font-family="sans-serif" text-anchor="middle">1</text><line x1="239.8090909090909" y1="563.8" x2="239.8090909090909" y2="566.55" stroke="#444444" stroke-width="1.0"/><text x="239.8090909090909" y="577.55" fill="#333333" font-size="11.0" font-family="sans-serif" text-anchor="middle">2</text><line x1="413.15000000000003" y1="563.8" x2="413.15000000000003" y2="566.55" stroke="#444444" stroke-width="1.0"/><text x="413.15000000000003" y="577.55" fill="#333333" font-size="11.0" font-family="sans-serif" text-anchor="middle">3</text><line x1="586.4909090909091" y1="563.8" x2="586.4909090909091" y2="566.55" stroke="#444444" stroke-width="1.0"/><text x="586.4909090909091" y="577.55" fill="#333333" font-size="11.0" font-family="sans-serif" text-anchor="middle">4</text><line x1="759.8318181818181" y1="563.8" x2="759.8318181818181" y2="566.55" stroke="#444444" stroke-width="1.0"/><text x="759.8318181818181" y="577.55" fill="#333333" font-size="11.0" font-family="sans-serif" text-anchor="middle">5</text><line x1="31.799999999999997" y1="482.6558139534883" x2="29.049999999999997" y2="482.6558139534883" stroke="#444444" stroke-width="1.0"/><text x="26.849999999999998" y="486.5058139534883" fill="#333333" font-size="11.0" font-family="sans-serif" text-anchor="end">2</text><line x1="31.799999999999997" y1="369.16744186046503" x2="29.049999999999997" y2="369.16744186046503" stroke="#444444" stroke-width="1.0"/><text x="26.849999999999998" y="373.01744186046506" fill="#333333" font-size="11.0" font-family="sans-serif" text-anchor="end">3</text><line x1="31.799999999999997" y1="255.67906976744183" x2="29.049999999999997" y2="255.67906976744183" stroke="#444444" stroke-width="1.0"/><text x="26.849999999999998" y="259.52906976744185" fill="#333333" font-size="11.0" font-family="sans-serif" text-anchor="end">4</text><line x1="31.799999999999997" y1="142.19069767441857" x2="29.049999999999997" y2="142.19069767441857" stroke="#444444" stroke-width="1.0"/><text x="26.849999999999998" y="146.04069767441857" fill="#333333" font-size="11.0" font-family="sans-serif" text-anchor="end">5</text><line x1="31.799999999999997" y1="28.702325581395257" x2="29.049999999999997" y2="28.702325581395257" stroke="#444444" stroke-width="1.0"/><text x="26.849999999999998" y="32.55232558139526" fill="#333333" font-size="11.0" font-family="sans-serif" text-anchor="end">6</text><text x="413.15000000000003" y="18.3" fill="#333333" font-size="16.0" font-family="sans-serif" text-anchor="middle">Error Bars Showing Confidence Interval</text><text x="413.15000000000003" y="592.1" fill="#333333" font-size="12.0" font-family="sans-serif" text-anchor="middle">x</text><text x="13.899999999999999" y="295.4" fill="#333333" font-size="12.0" font-family="sans-serif" text-anchor="middle" transform="rotate(-90.0 13.899999999999999 295.4)">mean ± CI</text><line x1="66.4681818181818" y1="539.4" x2="66.4681818181818" y2="425.9116279069767" stroke="#1f77b4" stroke-width="1.5"/><circle cx="66.4681818181818" cy="482.6558139534883" r="3.0" fill="#1f77b4" fill-opacity="1.0" stroke="#1f77b4" stroke-width="1.0"/><line x1="239.8090909090909" y1="403.213953488372" x2="239.8090909090909" y2="221.63255813953486" stroke="#1f77b4" stroke-width="1.5"/><circle cx="239.8090909090909" cy="312.42325581395346" r="3.0" fill="#1f77b4" fill-opacity="1.0" stroke="#1f77b4" stroke-width="1.0"/><line x1="413.15000000000003" y1="414.56279069767436" x2="413.15000000000003" y2="323.77209302325576" stroke="#1f77b4" stroke-width="1.5"/><circle cx="413.15000000000003" cy="369.16744186046503" r="3.0" fill="#1f77b4" fill-opacity="1.0" stroke="#1f77b4" stroke-width="1.0"/><line x1="586.4909090909091" y1="301.07441860465104" x2="586.4909090909091" y2="164.88837209302324" stroke="#1f77b4" stroke-width="1.5"/><circle cx="586.4909090909091" cy="232.98139534883717" r="3.0" fill="#1f77b4" fill-opacity="1.0" stroke="#1f77b4" stroke-width="1.0"/><line x1="759.8318181818181" y1="210.28372093023262" x2="759.8318181818181" y2="51.39999999999998" stroke="#1f77b4" stroke-width="1.5"/><circle cx="759.8318181818181" cy="130.84186046511633" r="3.0" fill="#1f77b4" fill-opacity="1.0" stroke="#1f77b4" stroke-width="1.0"/></svg>