<svg xmlns="http://www.w3.org/2000/svg" width="800" height="600" viewBox="0 0 800 600"><rect x="0.0" y="0.0" width="800.0" height="600.0" fill="#ffffff" fill-opacity="1.0" stroke="none"/><line x1="31.799999999999997" y1="503.33863636363634" x2="794.5" y2="503.33863636363634" stroke="#dddddd" stroke-width="0.5"/><line x1="31.799999999999997" y1="403.05681818181813" x2="794.5" y2="403.05681818181813" stroke="#dddddd" stroke-width="0.5"/><line x1="31.799999999999997" y1="302.775" x2="794.5" y2="302.775" stroke="#dddddd" stroke-width="0.5"/><line x1="31.799999999999997" y1="202.49318181818182" x2="794.5" y2="202.49318181818182" stroke="#dddddd" stroke-width="0.5"/><line x1="31.799999999999997" y1="102.21136363636361" x2="794.5" y2="102.21136363636361" stroke="#dddddd" stroke-width="0.5"/><line x1="31.799999999999997" y1="553.4795454545454" x2="794.5" y2="553.4795454545454" stroke="#dddddd" stroke-width="1.0"/><line x1="31.799999999999997" y1="453.1977272727272" x2="794.5" y2="453.1977272727272" stroke="#dddddd" stroke-width="1.0"/><line x1="31.799999999999997" y1="352.91590909090905" x2="794.5" y2="352.91590909090905" stroke="#dddddd" stroke-width="1.0"/><line x1="31.799999999999997" y1="252.6340909090909" x2="794.5" y2="252.6340909090909" stroke="#dddddd" stroke-width="1.0"/><line x1="31.799999999999997" y1="152.35227272727275" x2="794.5" y2="152.35227272727275" stroke="#dddddd" stroke-width="1.0"/><line x1="31.799999999999997" y1="52.07045454545448" x2="794.5" y2="52.07045454545448" stroke="#dddddd" stroke-width="1.0"/><rect x="31.799999999999997" y="27.0" width="762.7" height="551.55" fill="#ffffff" fill-opacity="0.0" stroke="#444444" stroke-width="1.0"/><line x1="31.799999999999997" y1="553.4795454545454" x2="29.049999999999997" y2="553.4795454545454" stroke="#444444" stroke-width="1.0"/><text x="26.849999999999998" y="557.3295454545454" fill="#333333" font-size="11.0" font-family="sans-serif" text-anchor="end">3</text><line x1="31.799999999999997" y1="453.1977272727272" x2="29.049999999999997" y2="453.1977272727272" stroke="#444444" stroke-width="1.0"/><text x="26.849999999999998" y="457.04772727272723" fill="#333333" font-size="11.0" font-family="sans-serif" text-anchor="end">4</text><line x1="31.799999999999997" y1="352.91590909090905" x2="29.049999999999997" y2="352.91590909090905" stroke="#444444" stroke-width="1.0"/><text x="26.849999999999998" y="356.7659090909091" fill="#333333" font-size="11.0" font-family="sans-serif" text-anchor="end">5</text><line x1="31.799999999999997" y1="252.6340909090909" x2="29.049999999999997" y2="252.6340909090909" stroke="#444444" stroke-width="1.0"/><text x="26.849999999999998" y="256.4840909090909" fill="#333333" font-size="11.0" font-family="sans-serif" text-anchor="end">6</text><line x1="31.799999999999997" y1="152.35227272727275" x2="29.049999999999997" y2="152.35227272727275" stroke="#444444" stroke-width="1.0"/><text x="26.849999999999998" y="156.20227272727274" fill="#333333" font-size="11.0" font-family="sans-serif" text-anchor="end">7</text><line x1="31.799999999999997" y1="52.07045454545448" x2="29.049999999999997" y2="52.07045454545448" stroke="#444444" stroke-width="1.0"/><text x="26.849999999999998" y="55.92045454545448" fill="#333333" font-size="11.0" font-family="sans-serif" text-anchor="end">8</text><text x="413.15000000000003" y="18.3" fill="#333333" font-size="16.0" font-family="sans-serif" text-anchor="middle">Box Plot (Tukey 1.5 IQR)</text><text x="13.899999999999999" y="302.775" fill="#333333" font-size="12.0" font-family="sans-serif" text-anchor="middle" transform="rotate(-90.0 13.899999999999999 302.775)">value</text><rect x="222.47500000000002" y="210.01431818181823" width="381.35" height="142.90159090909083" fill="#1f77b4" fill-opacity="0.4" stroke="#1f77b4" stroke-width="1.0"/><line x1="222.47500000000002" y1="297.7609090909091" x2="603.825" y2="297.7609090909091" stroke="#1f77b4" stroke-width="2.0"/><line x1="413.15000000000003" y1="352.91590909090905" x2="413.15000000000003" y2="553.4795454545454" stroke="#1f77b4" stroke-width="1.0"/><line x1="413.15000000000003" y1="210.01431818181823" x2="413.15000000000003" y2="52.07045454545448" stroke="#1f77b4" stroke-width="1.0"/><line x1="317.8125" y1="553.4795454545454" x2="508.48750000000007" y2="553.4795454545454" stroke="#1f77b4" stroke-width="1.0"/><line x1="317.8125" y1="52.07045454545448" x2="508.48750000000007" y2="52.07045454545448" stroke="#1f77b4" stroke-width="1.0"/></svg>