<svg xmlns="http://www.w3.org/2000/svg" width="624" height="384" viewBox="0 0 624 384"><rect x="0.0" y="0.0" width="624.0" height="384.0" fill="#ffffff" fill-opacity="1.0" stroke="none"/><line x1="39.306666666666665" y1="313.869696969697" x2="616.6666666666666" y2="313.869696969697" stroke="#dddddd" stroke-width="0.6666666666666666"/><line x1="39.306666666666665" y1="254.58484848484846" x2="616.6666666666666" y2="254.58484848484846" stroke="#dddddd" stroke-width="0.6666666666666666"/><line x1="39.306666666666665" y1="195.29999999999998" x2="616.6666666666666" y2="195.29999999999998" stroke="#dddddd" stroke-width="0.6666666666666666"/><line x1="39.306666666666665" y1="136.01515151515153" x2="616.6666666666666" y2="136.01515151515153" stroke="#dddddd" stroke-width="0.6666666666666666"/><line x1="39.306666666666665" y1="76.730303030303" x2="616.6666666666666" y2="76.730303030303" stroke="#dddddd" stroke-width="0.6666666666666666"/><line x1="39.306666666666665" y1="343.5121212121212" x2="616.6666666666666" y2="343.5121212121212" stroke="#dddddd" stroke-width="1.3333333333333333"/><line x1="39.306666666666665" y1="284.22727272727275" x2="616.6666666666666" y2="284.22727272727275" stroke="#dddddd" stroke-width="1.3333333333333333"/><line x1="39.306666666666665" y1="224.9424242424242" x2="616.6666666666666" y2="224.9424242424242" stroke="#dddddd" stroke-width="1.3333333333333333"/><line x1="39.306666666666665" y1="165.65757575757573" x2="616.6666666666666" y2="165.65757575757573" stroke="#dddddd" stroke-width="1.3333333333333333"/><line x1="39.306666666666665" y1="106.37272727272727" x2="616.6666666666666" y2="106.37272727272727" stroke="#dddddd" stroke-width="1.3333333333333333"/><line x1="39.306666666666665" y1="47.08787878787874" x2="616.6666666666666" y2="47.08787878787874" stroke="#dddddd" stroke-width="1.3333333333333333"/><rect x="39.306666666666665" y="32.266666666666666" width="577.3599999999999" height="326.06666666666666" fill="#ffffff" fill-opacity="0.0" stroke="#444444" stroke-width="1.3333333333333333"/><line x1="39.306666666666665" y1="343.5121212121212" x2="35.64" y2="343.5121212121212" stroke="#444444" stroke-width="1.3333333333333333"/><text x="32.70666666666666" y="347.6187878787878" fill="#333333" font-size="11.733333333333334" font-family="sans-serif" text-anchor="end">3</text><line x1="39.306666666666665" y1="284.22727272727275" x2="35.64" y2="284.22727272727275" stroke="#444444" stroke-width="1.3333333333333333"/><text x="32.70666666666666" y="288.33393939393943" fill="#333333" font-size="11.733333333333334" font-family="sans-serif" text-anchor="end">4</text><line x1="39.306666666666665" y1="224.9424242424242" x2="35.64" y2="224.9424242424242" stroke="#444444" stroke-width="1.3333333333333333"/><text x="32.70666666666666" y="229.0490909090909" fill="#333333" font-size="11.733333333333334" font-family="sans-serif" text-anchor="end">5</text><line x1="39.306666666666665" y1="165.65757575757573" x2="35.64" y2="165.65757575757573" stroke="#444444" stroke-width="1.3333333333333333"/><text x="32.70666666666666" y="169.76424242424238" fill="#333333" font-size="11.733333333333334" font-family="sans-serif" text-anchor="end">6</text><line x1="39.306666666666665" y1="106.37272727272727" x2="35.64" y2="106.37272727272727" stroke="#444444" stroke-width="1.3333333333333333"/><text x="32.70666666666666" y="110.47939393939393" fill="#333333" font-size="11.733333333333334" font-family="sans-serif" text-anchor="end">7</text><line x1="39.306666666666665" y1="47.08787878787874" x2="35.64" y2="47.08787878787874" stroke="#444444" stroke-width="1.3333333333333333"/><text x="32.70666666666666" y="51.194545454545406" fill="#333333" font-size="11.733333333333334" font-family="sans-serif" text-anchor="end">8</text><text x="39.306666666666665" y="21.413333333333334" fill="#333333" font-size="17.599999999999998" font-family="sans-serif" text-anchor="start">Box Plot (Tukey 1.5 IQR)</text><text x="17.599999999999998" y="195.29999999999998" fill="#333333" font-size="14.666666666666666" font-family="sans-serif" text-anchor="middle" transform="rotate(-90.0 17.599999999999998 195.29999999999998)">value</text><rect x="183.64666666666665" y="140.4615151515152" width="288.67999999999995" height="84.48090909090902" fill="#ffffff" fill-opacity="1.0" stroke="#333333" stroke-width="1.3333333333333333"/><line x1="183.64666666666665" y1="192.33575757575755" x2="472.32666666666665" y2="192.33575757575755" stroke="#333333" stroke-width="2.6666666666666665"/><line x1="327.9866666666666" y1="224.9424242424242" x2="327.9866666666666" y2="343.5121212121212" stroke="#333333" stroke-width="1.3333333333333333"/><line x1="327.9866666666666" y1="140.4615151515152" x2="327.9866666666666" y2="47.08787878787874" stroke="#333333" stroke-width="1.3333333333333333"/><line x1="255.81666666666663" y1="343.5121212121212" x2="400.1566666666666" y2="343.5121212121212" stroke="#333333" stroke-width="1.3333333333333333"/><line x1="255.81666666666663" y1="47.08787878787874" x2="400.1566666666666" y2="47.08787878787874" stroke="#333333" stroke-width="1.3333333333333333"/><circle cx="327.9866666666666" cy="-190.05151515151516" r="3.1181102362204727" fill="#333333" fill-opacity="1.0" stroke="#333333" stroke-width="1.3333333333333333"/></svg>