<svg xmlns="http://www.w3.org/2000/svg" width="800" height="600" viewBox="0 0 800 600"><rect x="0.0" y="0.0" width="800.0" height="600.0" fill="#ffffff" fill-opacity="1.0" stroke="none"/><line x1="174.80624999999998" y1="27.0" x2="174.80624999999998" y2="578.55" stroke="#dddddd" stroke-width="1.0"/><line x1="413.15000000000003" y1="27.0" x2="413.15000000000003" y2="578.55" stroke="#dddddd" stroke-width="1.0"/><line x1="651.49375" y1="27.0" x2="651.49375" y2="578.55" stroke="#dddddd" stroke-width="1.0"/><line x1="31.799999999999997" y1="511.6954545454545" x2="794.5" y2="511.6954545454545" stroke="#dddddd" stroke-width="0.5"/><line x1="31.799999999999997" y1="428.1272727272727" x2="794.5" y2="428.1272727272727" stroke="#dddddd" stroke-width="0.5"/><line x1="31.799999999999997" y1="344.5590909090909" x2="794.5" y2="344.5590909090909" stroke="#dddddd" stroke-width="0.5"/><line x1="31.799999999999997" y1="260.9909090909091" x2="794.5" y2="260.9909090909091" stroke="#dddddd" stroke-width="0.5"/><line x1="31.799999999999997" y1="177.4227272727273" x2="794.5" y2="177.4227272727273" stroke="#dddddd" stroke-width="0.5"/><line x1="31.799999999999997" y1="93.85454545454553" x2="794.5" y2="93.85454545454553" stroke="#dddddd" stroke-width="0.5"/><line x1="31.799999999999997" y1="553.4795454545454" x2="794.5" y2="553.4795454545454" stroke="#dddddd" stroke-width="1.0"/><line x1="31.799999999999997" y1="469.9113636363636" x2="794.5" y2="469.9113636363636" stroke="#dddddd" stroke-width="1.0"/><line x1="31.799999999999997" y1="386.34318181818185" x2="794.5" y2="386.34318181818185" stroke="#dddddd" stroke-width="1.0"/><line x1="31.799999999999997" y1="302.77500000000003" x2="794.5" y2="302.77500000000003" stroke="#dddddd" stroke-width="1.0"/><line x1="31.799999999999997" y1="219.20681818181822" x2="794.5" y2="219.20681818181822" stroke="#dddddd" stroke-width="1.0"/><line x1="31.799999999999997" y1="135.6386363636364" x2="794.5" y2="135.6386363636364" stroke="#dddddd" stroke-width="1.0"/><line x1="31.799999999999997" y1="52.070454545454595" x2="794.5" y2="52.070454545454595" stroke="#dddddd" stroke-width="1.0"/><rect x="31.799999999999997" y="27.0" width="762.7" height="551.55" fill="#ffffff" fill-opacity="0.0" stroke="#444444" stroke-width="1.0"/><line x1="174.80624999999998" y1="578.55" x2="174.80624999999998" y2="581.3" stroke="#444444" stroke-width="1.0"/><text x="174.80624999999998" y="592.3" fill="#333333" font-size="11.0" font-family="sans-serif" text-anchor="middle">A</text><line x1="413.15000000000003" y1="578.55" x2="413.15000000000003" y2="581.3" stroke="#444444" stroke-width="1.0"/><text x="413.15000000000003" y="592.3" fill="#333333" font-size="11.0" font-family="sans-serif" text-anchor="middle">B</text><line x1="651.49375" y1="578.55" x2="651.49375" y2="581.3" stroke="#444444" stroke-width="1.0"/><text x="651.49375" y="592.3" fill="#333333" font-size="11.0" font-family="sans-serif" text-anchor="middle">C</text><line x1="31.799999999999997" y1="553.4795454545454" x2="29.049999999999997" y2="553.4795454545454" stroke="#444444" stroke-width="1.0"/><text x="26.849999999999998" y="557.3295454545454" fill="#333333" font-size="11.0" font-family="sans-serif" text-anchor="end">2</text><line x1="31.799999999999997" y1="469.9113636363636" x2="29.049999999999997" y2="469.9113636363636" stroke="#444444" stroke-width="1.0"/><text x="26.849999999999998" y="473.7613636363636" fill="#333333" font-size="11.0" font-family="sans-serif" text-anchor="end">3</text><line x1="31.799999999999997" y1="386.34318181818185" x2="29.049999999999997" y2="386.34318181818185" stroke="#444444" stroke-width="1.0"/><text x="26.849999999999998" y="390.19318181818187" fill="#333333" font-size="11.0" font-family="sans-serif" text-anchor="end">4</text><line x1="31.799999999999997" y1="302.77500000000003" x2="29.049999999999997" y2="302.77500000000003" stroke="#444444" stroke-width="1.0"/><text x="26.849999999999998" y="306.62500000000006" fill="#333333" font-size="11.0" font-family="sans-serif" text-anchor="end">5</text><line x1="31.799999999999997" y1="219.20681818181822" x2="29.049999999999997" y2="219.20681818181822" stroke="#444444" stroke-width="1.0"/><text x="26.849999999999998" y="223.05681818181822" fill="#333333" font-size="11.0" font-family="sans-serif" text-anchor="end">6</text><line x1="31.799999999999997" y1="135.6386363636364" x2="29.049999999999997" y2="135.6386363636364" stroke="#444444" stroke-width="1.0"/><text x="26.849999999999998" y="139.4886363636364" fill="#333333" font-size="11.0" font-family="sans-serif" text-anchor="end">7</text><line x1="31.799999999999997" y1="52.070454545454595" x2="29.049999999999997" y2="52.070454545454595" stroke="#444444" stroke-width="1.0"/><text x="26.849999999999998" y="55.9204545454546" fill="#333333" font-size="11.0" font-family="sans-serif" text-anchor="end">8</text><text x="413.15000000000003" y="18.3" fill="#333333" font-size="16.0" font-family="sans-serif" text-anchor="middle">Violin Plot</text><text x="13.899999999999999" y="302.775" fill="#333333" font-size="12.0" font-family="sans-serif" text-anchor="middle" transform="rotate(-90.0 13.899999999999999 302.775)">value</text><path d="M 206.73949260817423 469.9113636363636 L 210.21204743901507 458.7689393939394 L 213.80228305721403 447.62651515151515 L 217.52100629501302 436.48409090909087 L 221.3760670963556 425.3416666666667 L 225.365441885427 414.1992424242424 L 229.4706263801561 403.0568181818182 L 233.6513845809792 391.9143939393939 L 237.84272433768385 380.7719696969697 L 241.95468694360943 369.62954545454545 L 245.87520280578298 358.4871212121212 L 249.47592142918117 347.344696969697 L 252.62059878856638 336.20227272727277 L 255.1753324628178 325.0598484848485 L 257.01968595006883 313.9174242424242 L 258.057557960682 302.77500000000003 L 258.2265625 291.6325757575758 L 257.50473066913605 280.4901515151515 L 255.91355773746372 269.3477272727273 L 253.51680701796795 258.20530303030307 L 250.4150151458926 247.06287878787884 L 246.7362497933078 235.92045454545456 L 242.62424708142058 224.77803030303033 L 238.22548768453055 213.6356060606061 L 233.67696011852627 202.49318181818182 L 229.0962518594194 191.3507575757576 L 224.57520873598625 180.20833333333331 L 220.1777791568525 169.06590909090914 L 215.94193230994182 157.92348484848486 L 211.88485433980617 146.78106060606063 L 208.01012176069082 135.6386363636364 L 141.60237823930913 135.6386363636364 L 137.7276456601938 146.78106060606063 L 133.67056769005814 157.92348484848486 L 129.43472084314746 169.06590909090914 L 125.0372912640137 180.20833333333331 L 120.51624814058057 191.3507575757576 L 115.9355398814737 202.49318181818182 L 111.3870123154694 213.6356060606061 L 106.98825291857938 224.77803030303033 L 102.87625020669216 235.92045454545456 L 99.19748485410736 247.06287878787884 L 96.095692982032 258.20530303030307 L 93.69894226253624 269.3477272727273 L 92.10776933086393 280.4901515151515 L 91.38593749999997 291.6325757575758 L 91.55494203931795 302.77500000000003 L 92.59281404993109 313.9174242424242 L 94.43716753718215 325.0598484848485 L 96.99190121143359 336.20227272727277 L 100.13657857081878 347.344696969697 L 103.73729719421698 358.4871212121212 L 107.65781305639054 369.62954545454545 L 111.7697756623161 380.7719696969697 L 115.96111541902074 391.9143939393939 L 120.14187361984385 403.0568181818182 L 124.24705811457297 414.1992424242424 L 128.23643290364436 425.3416666666667 L 132.09149370498693 436.48409090909087 L 135.81021694278593 447.62651515151515 L 139.4004525609849 458.7689393939394 L 142.87300739182572 469.9113636363636 Z" fill="#F8766D" fill-opacity="0.5" stroke="#F8766D" stroke-width="1.0"/><path d="M 460.204577087107 302.77500000000003 L 464.5931236966949 294.4181818181819 L 468.83661330825055 286.06136363636364 L 472.8772134845549 277.7045454545455 L 476.66623481332925 269.3477272727273 L 480.16489063464564 260.9909090909091 L 483.34437997055835 252.63409090909096 L 486.1854112977978 244.27727272727276 L 488.67728443231766 235.92045454545456 L 490.81662861015445 227.56363636363636 L 492.6058748402876 219.20681818181822 L 494.05153453523326 210.85000000000008 L 495.1623703606417 202.49318181818182 L 495.9475744885019 194.13636363636368 L 496.4151006069761 185.77954545454548 L 496.57031250000006 177.4227272727273 L 496.4151006069761 169.06590909090914 L 495.9475744885019 160.7090909090909 L 495.16237036064166 152.3522727272728 L 494.05153453523326 143.99545454545455 L 492.6058748402876 135.6386363636364 L 490.81662861015445 127.28181818181827 L 488.67728443231766 118.92500000000001 L 486.1854112977978 110.56818181818181 L 483.3443799705584 102.21136363636361 L 480.16489063464564 93.85454545454553 L 476.6662348133293 85.49772727272733 L 472.8772134845549 77.14090909090908 L 468.83661330825043 68.78409090909093 L 464.5931236966949 60.42727272727279 L 460.204577087107 52.070454545454595 L 366.09542291289307 52.070454545454595 L 361.7068763033052 60.42727272727279 L 357.46338669174963 68.78409090909093 L 353.4227865154452 77.14090909090908 L 349.63376518667076 85.49772727272733 L 346.1351093653544 93.85454545454553 L 342.95562002944166 102.21136363636361 L 340.11458870220224 110.56818181818181 L 337.6227155676824 118.92500000000001 L 335.4833713898456 127.28181818181827 L 333.6941251597125 135.6386363636364 L 332.2484654647668 143.99545454545455 L 331.1376296393584 152.3522727272728 L 330.35242551149815 160.7090909090909 L 329.88489939302394 169.06590909090914 L 329.7296875 177.4227272727273 L 329.88489939302394 185.77954545454548 L 330.35242551149815 194.13636363636368 L 331.13762963935835 202.49318181818182 L 332.2484654647668 210.85000000000008 L 333.6941251597125 219.20681818181822 L 335.4833713898456 227.56363636363636 L 337.6227155676824 235.92045454545456 L 340.11458870220224 244.27727272727276 L 342.9556200294417 252.63409090909096 L 346.1351093653544 260.9909090909091 L 349.6337651866708 269.3477272727273 L 353.4227865154452 277.7045454545455 L 357.4633866917495 286.06136363636364 L 361.7068763033052 294.4181818181819 L 366.09542291289307 302.77500000000003 Z" fill="#C49A00" fill-opacity="0.5" stroke="#C49A00" stroke-width="1.0"/><path d="M 698.5483270871069 553.4795454545454 L 702.9368736966948 545.1227272727272 L 707.1803633082504 536.7659090909091 L 711.2209634845549 528.4090909090909 L 715.0099848133292 520.0522727272727 L 718.5086406346456 511.6954545454545 L 721.6881299705583 503.3386363636363 L 724.5291612977978 494.98181818181814 L 727.0210344323176 486.625 L 729.1603786101543 478.2681818181818 L 730.9496248402876 469.9113636363636 L 732.3952845352333 461.5545454545454 L 733.5061203606416 453.1977272727272 L 734.2913244885019 444.8409090909091 L 734.7588506069761 436.4840909090908 L 734.9140625 428.1272727272727 L 734.758850606976 419.7704545454545 L 734.2913244885019 411.41363636363633 L 733.5061203606416 403.0568181818182 L 732.3952845352331 394.7 L 730.9496248402876 386.34318181818185 L 729.1603786101543 377.98636363636365 L 727.0210344323176 369.62954545454545 L 724.5291612977977 361.27272727272725 L 721.6881299705583 352.91590909090905 L 718.5086406346456 344.5590909090909 L 715.0099848133292 336.20227272727277 L 711.2209634845548 327.8454545454545 L 707.1803633082504 319.4886363636363 L 702.9368736966948 311.1318181818182 L 698.5483270871069 302.77500000000003 L 604.439172912893 302.77500000000003 L 600.0506263033052 311.1318181818182 L 595.8071366917495 319.4886363636363 L 591.7665365154452 327.8454545454545 L 587.9775151866708 336.20227272727277 L 584.4788593653543 344.5590909090909 L 581.2993700294417 352.91590909090905 L 578.4583387022022 361.27272727272725 L 575.9664655676823 369.62954545454545 L 573.8271213898456 377.98636363636365 L 572.0378751597124 386.34318181818185 L 570.5922154647668 394.7 L 569.4813796393584 403.0568181818182 L 568.696175511498 411.41363636363633 L 568.2286493930239 419.7704545454545 L 568.0734375 428.1272727272727 L 568.2286493930238 436.4840909090908 L 568.696175511498 444.8409090909091 L 569.4813796393584 453.1977272727272 L 570.5922154647667 461.5545454545454 L 572.0378751597124 469.9113636363636 L 573.8271213898456 478.2681818181818 L 575.9664655676823 486.625 L 578.4583387022021 494.98181818181814 L 581.2993700294417 503.3386363636363 L 584.4788593653543 511.6954545454545 L 587.9775151866708 520.0522727272727 L 591.7665365154451 528.4090909090909 L 595.8071366917495 536.7659090909091 L 600.0506263033052 545.1227272727272 L 604.439172912893 553.4795454545454 Z" fill="#53B400" fill-opacity="0.5" stroke="#53B400" stroke-width="1.0"/></svg>