<svg xmlns="http://www.w3.org/2000/svg" width="624" height="384" viewBox="0 0 624 384"><rect x="0.0" y="0.0" width="624.0" height="384.0" fill="#ffffff" fill-opacity="1.0" stroke="none"/><line x1="147.56166666666664" y1="32.266666666666666" x2="147.56166666666664" y2="358.3333333333333" stroke="#dddddd" stroke-width="1.3333333333333333"/><line x1="327.9866666666666" y1="32.266666666666666" x2="327.9866666666666" y2="358.3333333333333" stroke="#dddddd" stroke-width="1.3333333333333333"/><line x1="508.4116666666667" y1="32.266666666666666" x2="508.4116666666667" y2="358.3333333333333" stroke="#dddddd" stroke-width="1.3333333333333333"/><line x1="39.306666666666665" y1="318.810101010101" x2="616.6666666666666" y2="318.810101010101" stroke="#dddddd" stroke-width="0.6666666666666666"/><line x1="39.306666666666665" y1="269.4060606060606" x2="616.6666666666666" y2="269.4060606060606" stroke="#dddddd" stroke-width="0.6666666666666666"/><line x1="39.306666666666665" y1="220.0020202020202" x2="616.6666666666666" y2="220.0020202020202" stroke="#dddddd" stroke-width="0.6666666666666666"/><line x1="39.306666666666665" y1="170.5979797979798" x2="616.6666666666666" y2="170.5979797979798" stroke="#dddddd" stroke-width="0.6666666666666666"/><line x1="39.306666666666665" y1="121.1939393939394" x2="616.6666666666666" y2="121.1939393939394" stroke="#dddddd" stroke-width="0.6666666666666666"/><line x1="39.306666666666665" y1="71.78989898989903" x2="616.6666666666666" y2="71.78989898989903" stroke="#dddddd" stroke-width="0.6666666666666666"/><line x1="39.306666666666665" y1="343.5121212121212" x2="616.6666666666666" y2="343.5121212121212" stroke="#dddddd" stroke-width="1.3333333333333333"/><line x1="39.306666666666665" y1="294.1080808080808" x2="616.6666666666666" y2="294.1080808080808" stroke="#dddddd" stroke-width="1.3333333333333333"/><line x1="39.306666666666665" y1="244.7040404040404" x2="616.6666666666666" y2="244.7040404040404" stroke="#dddddd" stroke-width="1.3333333333333333"/><line x1="39.306666666666665" y1="195.3" x2="616.6666666666666" y2="195.3" stroke="#dddddd" stroke-width="1.3333333333333333"/><line x1="39.306666666666665" y1="145.8959595959596" x2="616.6666666666666" y2="145.8959595959596" stroke="#dddddd" stroke-width="1.3333333333333333"/><line x1="39.306666666666665" y1="96.4919191919192" x2="616.6666666666666" y2="96.4919191919192" stroke="#dddddd" stroke-width="1.3333333333333333"/><line x1="39.306666666666665" y1="47.08787878787878" x2="616.6666666666666" y2="47.08787878787878" stroke="#dddddd" stroke-width="1.3333333333333333"/><rect x="39.306666666666665" y="32.266666666666666" width="577.3599999999999" height="326.06666666666666" fill="#ffffff" fill-opacity="0.0" stroke="#444444" stroke-width="1.3333333333333333"/><line x1="147.56166666666664" y1="358.3333333333333" x2="147.56166666666664" y2="362.0" stroke="#444444" stroke-width="1.3333333333333333"/><text x="147.56166666666664" y="374.32" fill="#333333" font-size="11.733333333333334" font-family="sans-serif" text-anchor="middle">A</text><line x1="327.9866666666666" y1="358.3333333333333" x2="327.9866666666666" y2="362.0" stroke="#444444" stroke-width="1.3333333333333333"/><text x="327.9866666666666" y="374.32" fill="#333333" font-size="11.733333333333334" font-family="sans-serif" text-anchor="middle">B</text><line x1="508.4116666666667" y1="358.3333333333333" x2="508.4116666666667" y2="362.0" stroke="#444444" stroke-width="1.3333333333333333"/><text x="508.4116666666667" y="374.32" fill="#333333" font-size="11.733333333333334" font-family="sans-serif" text-anchor="middle">C</text><line x1="39.306666666666665" y1="343.5121212121212" x2="35.64" y2="343.5121212121212" stroke="#444444" stroke-width="1.3333333333333333"/><text x="32.70666666666666" y="347.6187878787878" fill="#333333" font-size="11.733333333333334" font-family="sans-serif" text-anchor="end">2</text><line x1="39.306666666666665" y1="294.1080808080808" x2="35.64" y2="294.1080808080808" stroke="#444444" stroke-width="1.3333333333333333"/><text x="32.70666666666666" y="298.21474747474747" fill="#333333" font-size="11.733333333333334" font-family="sans-serif" text-anchor="end">3</text><line x1="39.306666666666665" y1="244.7040404040404" x2="35.64" y2="244.7040404040404" stroke="#444444" stroke-width="1.3333333333333333"/><text x="32.70666666666666" y="248.81070707070708" fill="#333333" font-size="11.733333333333334" font-family="sans-serif" text-anchor="end">4</text><line x1="39.306666666666665" y1="195.3" x2="35.64" y2="195.3" stroke="#444444" stroke-width="1.3333333333333333"/><text x="32.70666666666666" y="199.4066666666667" fill="#333333" font-size="11.733333333333334" font-family="sans-serif" text-anchor="end">5</text><line x1="39.306666666666665" y1="145.8959595959596" x2="35.64" y2="145.8959595959596" stroke="#444444" stroke-width="1.3333333333333333"/><text x="32.70666666666666" y="150.00262626262628" fill="#333333" font-size="11.733333333333334" font-family="sans-serif" text-anchor="end">6</text><line x1="39.306666666666665" y1="96.4919191919192" x2="35.64" y2="96.4919191919192" stroke="#444444" stroke-width="1.3333333333333333"/><text x="32.70666666666666" y="100.59858585858586" fill="#333333" font-size="11.733333333333334" font-family="sans-serif" text-anchor="end">7</text><line x1="39.306666666666665" y1="47.08787878787878" x2="35.64" y2="47.08787878787878" stroke="#444444" stroke-width="1.3333333333333333"/><text x="32.70666666666666" y="51.19454545454545" fill="#333333" font-size="11.733333333333334" font-family="sans-serif" text-anchor="end">8</text><text x="39.306666666666665" y="21.413333333333334" fill="#333333" font-size="17.599999999999998" font-family="sans-serif" text-anchor="start">Violin Plot</text><text x="17.599999999999998" y="195.29999999999998" fill="#333333" font-size="14.666666666666666" font-family="sans-serif" text-anchor="middle" transform="rotate(-90.0 17.599999999999998 195.29999999999998)">value</text><path d="M 171.73496803320066 294.1080808080808 L 174.36367428354055 287.5208754208754 L 177.08146428816013 280.93367003367 L 179.89651876380668 274.3464646464646 L 182.81478007790548 267.75925925925924 L 185.83471639391215 261.1720538720539 L 188.94232006491882 254.58484848484846 L 192.1071326449991 247.9976430976431 L 195.27995540877384 241.41043771043772 L 198.39269007529697 234.82323232323233 L 201.36050053574604 228.23602693602697 L 204.0862261216975 221.64882154882153 L 206.46673080271842 215.06161616161617 L 208.4006511307187 208.47441077441079 L 209.79681728962686 201.88720538720537 L 210.58248109459294 195.3 L 210.71041666666662 188.71279461279462 L 210.16399366172678 182.12558922558924 L 208.95948388877503 175.53838383838382 L 207.14515584969269 168.95117845117846 L 204.79711526327415 162.36397306397308 L 202.01230870241358 155.7767676767677 L 198.89954367588257 149.18956228956228 L 195.56970530510978 142.6023569023569 L 192.1264931961439 136.01515151515153 L 188.6589204670526 129.42794612794614 L 185.23651394057384 122.84074074074074 L 181.9076822350426 116.25353535353538 L 178.70116783156504 109.66632996632998 L 175.62998055368712 103.0791245791246 L 172.69682780440422 96.4919191919192 L 122.42650552892906 96.4919191919192 L 119.49335277964617 103.0791245791246 L 116.42216550176823 109.66632996632998 L 113.21565109829066 116.25353535353538 L 109.88681939275943 122.84074074074074 L 106.46441286628067 129.42794612794614 L 102.99684013718937 136.01515151515153 L 99.55362802822351 142.6023569023569 L 96.22378965745072 149.18956228956228 L 93.1110246309197 155.7767676767677 L 90.32621807005913 162.36397306397308 L 87.9781774836406 168.95117845117846 L 86.16384944455827 175.53838383838382 L 84.9593396716065 182.12558922558924 L 84.41291666666665 188.71279461279462 L 84.54085223874037 195.3 L 85.32651604370642 201.88720538720537 L 86.72268220261459 208.47441077441079 L 88.65660253061488 215.06161616161617 L 91.03710721163577 221.64882154882153 L 93.76283279758725 228.23602693602697 L 96.73064325803632 234.82323232323233 L 99.84337792455945 241.41043771043772 L 103.01620068833418 247.9976430976431 L 106.18101326841447 254.58484848484846 L 109.28861693942116 261.1720538720539 L 112.3085532554278 267.75925925925924 L 115.22681456952657 274.3464646464646 L 118.04186904517312 280.93367003367 L 120.75965904979273 287.5208754208754 L 123.38836530013262 294.1080808080808 Z" fill="#F8766D" fill-opacity="0.5" stroke="#F8766D" stroke-width="1.3333333333333333"/><path d="M 363.60674091212627 195.3 L 366.9288482551336 190.359595959596 L 370.14114819236676 185.41919191919192 L 373.1998618645722 180.47878787878793 L 376.068131635624 175.53838383838382 L 378.7165962022887 170.5979797979798 L 381.12345337153295 165.65757575757576 L 383.2740995588871 160.71717171717174 L 385.16043477974245 155.7767676767677 L 386.7799073830148 150.83636363636361 L 388.13435763007084 145.8959595959596 L 389.2287146268898 140.95555555555558 L 390.0696116665618 136.01515151515153 L 390.6640071762791 131.07474747474748 L 391.01792205731005 126.13434343434346 L 391.13541666666663 121.1939393939394 L 391.01792205731005 116.25353535353538 L 390.6640071762791 111.3131313131313 L 390.0696116665618 106.3727272727273 L 389.2287146268898 101.43232323232321 L 388.13435763007084 96.4919191919192 L 386.7799073830148 91.55151515151518 L 385.16043477974245 86.61111111111111 L 383.27409955888703 81.67070707070707 L 381.12345337153295 76.730303030303 L 378.7165962022887 71.78989898989903 L 376.068131635624 66.84949494949497 L 373.1998618645722 61.909090909090914 L 370.1411481923667 56.96868686868686 L 366.9288482551335 52.02828282828284 L 363.60674091212627 47.08787878787878 L 292.366592421207 47.08787878787878 L 289.0444850781997 52.02828282828284 L 285.83218514096654 56.96868686868686 L 282.77347146876104 61.909090909090914 L 279.90520169770923 66.84949494949497 L 277.2567371310445 71.78989898989903 L 274.8498799618003 76.730303030303 L 272.6992337744462 81.67070707070707 L 270.81289855359086 86.61111111111111 L 269.19342595031844 91.55151515151518 L 267.83897570326235 96.4919191919192 L 266.7446187064434 101.43232323232321 L 265.90372166677145 106.3727272727273 L 265.3093261570541 111.3131313131313 L 264.95541127602326 116.25353535353538 L 264.8379166666666 121.1939393939394 L 264.95541127602326 126.13434343434346 L 265.30932615705416 131.07474747474748 L 265.90372166677145 136.01515151515153 L 266.74461870644336 140.95555555555558 L 267.83897570326235 145.8959595959596 L 269.19342595031844 150.83636363636361 L 270.81289855359086 155.7767676767677 L 272.69923377444616 160.71717171717174 L 274.8498799618003 165.65757575757576 L 277.2567371310445 170.5979797979798 L 279.90520169770923 175.53838383838382 L 282.77347146876104 180.47878787878793 L 285.8321851409665 185.41919191919192 L 289.0444850781997 190.359595959596 L 292.366592421207 195.3 Z" fill="#00BA38" fill-opacity="0.5" stroke="#00BA38" stroke-width="1.3333333333333333"/><path d="M 544.0317409121263 343.5121212121212 L 547.3538482551336 338.5717171717172 L 550.5661481923669 333.6313131313131 L 553.6248618645723 328.6909090909091 L 556.493131635624 323.750505050505 L 559.1415962022888 318.810101010101 L 561.548453371533 313.869696969697 L 563.6990995588872 308.9292929292929 L 565.5854347797424 303.9888888888889 L 567.2049073830149 299.0484848484848 L 568.559357630071 294.1080808080808 L 569.65371462689 289.16767676767677 L 570.4946116665619 284.2272727272727 L 571.0890071762792 279.2868686868687 L 571.44292205731 274.3464646464646 L 571.5604166666667 269.4060606060606 L 571.44292205731 264.46565656565656 L 571.0890071762792 259.52525252525254 L 570.4946116665619 254.58484848484846 L 569.65371462689 249.64444444444445 L 568.559357630071 244.7040404040404 L 567.2049073830149 239.76363636363638 L 565.5854347797424 234.82323232323233 L 563.6990995588872 229.88282828282823 L 561.548453371533 224.9424242424242 L 559.1415962022888 220.0020202020202 L 556.493131635624 215.06161616161617 L 553.6248618645723 210.12121212121212 L 550.5661481923668 205.18080808080805 L 547.3538482551336 200.24040404040403 L 544.0317409121263 195.3 L 472.79159242120704 195.3 L 469.4694850781998 200.24040404040403 L 466.2571851409666 205.18080808080805 L 463.1984714687611 210.12121212121212 L 460.33020169770936 215.06161616161617 L 457.68173713104454 220.0020202020202 L 455.27487996180037 224.9424242424242 L 453.1242337744462 229.88282828282823 L 451.2378985535909 234.82323232323233 L 449.6184259503185 239.76363636363638 L 448.2639757032624 244.7040404040404 L 447.16961870644343 249.64444444444445 L 446.32872166677146 254.58484848484846 L 445.73432615705417 259.52525252525254 L 445.3804112760233 264.46565656565656 L 445.2629166666667 269.4060606060606 L 445.3804112760233 274.3464646464646 L 445.73432615705417 279.2868686868687 L 446.32872166677146 284.2272727272727 L 447.16961870644343 289.16767676767677 L 448.2639757032624 294.1080808080808 L 449.6184259503185 299.0484848484848 L 451.2378985535909 303.9888888888889 L 453.1242337744462 308.9292929292929 L 455.27487996180037 313.869696969697 L 457.68173713104454 318.810101010101 L 460.33020169770936 323.750505050505 L 463.1984714687611 328.6909090909091 L 466.2571851409665 333.6313131313131 L 469.4694850781998 338.5717171717172 L 472.79159242120704 343.5121212121212 Z" fill="#619CFF" fill-opacity="0.5" stroke="#619CFF" stroke-width="1.3333333333333333"/></svg>