<svg xmlns="http://www.w3.org/2000/svg" width="800" height="600" viewBox="0 0 800 600"><rect x="0.0" y="0.0" width="800.0" height="600.0" fill="#ffffff" fill-opacity="1.0" stroke="none"/><line x1="174.80624999999998" y1="27.0" x2="174.80624999999998" y2="578.55" stroke="#dddddd" stroke-width="1.0"/><line x1="413.15000000000003" y1="27.0" x2="413.15000000000003" y2="578.55" stroke="#dddddd" stroke-width="1.0"/><line x1="651.49375" y1="27.0" x2="651.49375" y2="578.55" stroke="#dddddd" stroke-width="1.0"/><line x1="31.799999999999997" y1="511.6954545454545" x2="794.5" y2="511.6954545454545" stroke="#dddddd" stroke-width="0.5"/><line x1="31.799999999999997" y1="428.1272727272727" x2="794.5" y2="428.1272727272727" stroke="#dddddd" stroke-width="0.5"/><line x1="31.799999999999997" y1="344.5590909090909" x2="794.5" y2="344.5590909090909" stroke="#dddddd" stroke-width="0.5"/><line x1="31.799999999999997" y1="260.9909090909091" x2="794.5" y2="260.9909090909091" stroke="#dddddd" stroke-width="0.5"/><line x1="31.799999999999997" y1="177.4227272727273" x2="794.5" y2="177.4227272727273" stroke="#dddddd" stroke-width="0.5"/><line x1="31.799999999999997" y1="93.85454545454553" x2="794.5" y2="93.85454545454553" stroke="#dddddd" stroke-width="0.5"/><line x1="31.799999999999997" y1="553.4795454545454" x2="794.5" y2="553.4795454545454" stroke="#dddddd" stroke-width="1.0"/><line x1="31.799999999999997" y1="469.9113636363636" x2="794.5" y2="469.9113636363636" stroke="#dddddd" stroke-width="1.0"/><line x1="31.799999999999997" y1="386.34318181818185" x2="794.5" y2="386.34318181818185" stroke="#dddddd" stroke-width="1.0"/><line x1="31.799999999999997" y1="302.77500000000003" x2="794.5" y2="302.77500000000003" stroke="#dddddd" stroke-width="1.0"/><line x1="31.799999999999997" y1="219.20681818181822" x2="794.5" y2="219.20681818181822" stroke="#dddddd" stroke-width="1.0"/><line x1="31.799999999999997" y1="135.6386363636364" x2="794.5" y2="135.6386363636364" stroke="#dddddd" stroke-width="1.0"/><line x1="31.799999999999997" y1="52.070454545454595" x2="794.5" y2="52.070454545454595" stroke="#dddddd" stroke-width="1.0"/><rect x="31.799999999999997" y="27.0" width="762.7" height="551.55" fill="#ffffff" fill-opacity="0.0" stroke="#444444" stroke-width="1.0"/><line x1="174.80624999999998" y1="578.55" x2="174.80624999999998" y2="581.3" stroke="#444444" stroke-width="1.0"/><text x="174.80624999999998" y="592.3" fill="#333333" font-size="11.0" font-family="sans-serif" text-anchor="middle">A</text><line x1="413.15000000000003" y1="578.55" x2="413.15000000000003" y2="581.3" stroke="#444444" stroke-width="1.0"/><text x="413.15000000000003" y="592.3" fill="#333333" font-size="11.0" font-family="sans-serif" text-anchor="middle">B</text><line x1="651.49375" y1="578.55" x2="651.49375" y2="581.3" stroke="#444444" stroke-width="1.0"/><text x="651.49375" y="592.3" fill="#333333" font-size="11.0" font-family="sans-serif" text-anchor="middle">C</text><line x1="31.799999999999997" y1="553.4795454545454" x2="29.049999999999997" y2="553.4795454545454" stroke="#444444" stroke-width="1.0"/><text x="26.849999999999998" y="557.3295454545454" fill="#333333" font-size="11.0" font-family="sans-serif" text-anchor="end">2</text><line x1="31.799999999999997" y1="469.9113636363636" x2="29.049999999999997" y2="469.9113636363636" stroke="#444444" stroke-width="1.0"/><text x="26.849999999999998" y="473.7613636363636" fill="#333333" font-size="11.0" font-family="sans-serif" text-anchor="end">3</text><line x1="31.799999999999997" y1="386.34318181818185" x2="29.049999999999997" y2="386.34318181818185" stroke="#444444" stroke-width="1.0"/><text x="26.849999999999998" y="390.19318181818187" fill="#333333" font-size="11.0" font-family="sans-serif" text-anchor="end">4</text><line x1="31.799999999999997" y1="302.77500000000003" x2="29.049999999999997" y2="302.77500000000003" stroke="#444444" stroke-width="1.0"/><text x="26.849999999999998" y="306.62500000000006" fill="#333333" font-size="11.0" font-family="sans-serif" text-anchor="end">5</text><line x1="31.799999999999997" y1="219.20681818181822" x2="29.049999999999997" y2="219.20681818181822" stroke="#444444" stroke-width="1.0"/><text x="26.849999999999998" y="223.05681818181822" fill="#333333" font-size="11.0" font-family="sans-serif" text-anchor="end">6</text><line x1="31.799999999999997" y1="135.6386363636364" x2="29.049999999999997" y2="135.6386363636364" stroke="#444444" stroke-width="1.0"/><text x="26.849999999999998" y="139.4886363636364" fill="#333333" font-size="11.0" font-family="sans-serif" text-anchor="end">7</text><line x1="31.799999999999997" y1="52.070454545454595" x2="29.049999999999997" y2="52.070454545454595" stroke="#444444" stroke-width="1.0"/><text x="26.849999999999998" y="55.9204545454546" fill="#333333" font-size="11.0" font-family="sans-serif" text-anchor="end">8</text><text x="413.15000000000003" y="18.3" fill="#333333" font-size="16.0" font-family="sans-serif" text-anchor="middle">Swarm Plot</text><text x="13.899999999999999" y="302.775" fill="#333333" font-size="12.0" font-family="sans-serif" text-anchor="middle" transform="rotate(-90.0 13.899999999999999 302.775)">value</text><circle cx="174.80624999999998" cy="469.9113636363636" r="2.5" fill="#F8766D" fill-opacity="0.85" stroke="none"/><circle cx="174.80624999999998" cy="386.34318181818185" r="2.5" fill="#F8766D" fill-opacity="0.85" stroke="none"/><circle cx="174.80624999999998" cy="344.5590909090909" r="2.5" fill="#F8766D" fill-opacity="0.85" stroke="none"/><circle cx="174.80624999999998" cy="302.77500000000003" r="2.5" fill="#F8766D" fill-opacity="0.85" stroke="none"/><circle cx="174.80624999999998" cy="286.06136363636364" r="2.5" fill="#F8766D" fill-opacity="0.85" stroke="none"/><circle cx="174.80624999999998" cy="260.9909090909091" r="2.5" fill="#F8766D" fill-opacity="0.85" stroke="none"/><circle cx="174.80624999999998" cy="219.20681818181822" r="2.5" fill="#F8766D" fill-opacity="0.85" stroke="none"/><circle cx="174.80624999999998" cy="135.6386363636364" r="2.5" fill="#F8766D" fill-opacity="0.85" stroke="none"/><circle cx="413.15000000000003" cy="302.77500000000003" r="2.5" fill="#C49A00" fill-opacity="0.85" stroke="none"/><circle cx="413.15000000000003" cy="260.9909090909091" r="2.5" fill="#C49A00" fill-opacity="0.85" stroke="none"/><circle cx="413.15000000000003" cy="219.20681818181822" r="2.5" fill="#C49A00" fill-opacity="0.85" stroke="none"/><circle cx="413.15000000000003" cy="202.49318181818182" r="2.5" fill="#C49A00" fill-opacity="0.85" stroke="none"/><circle cx="413.15000000000003" cy="152.3522727272728" r="2.5" fill="#C49A00" fill-opacity="0.85" stroke="none"/><circle cx="413.15000000000003" cy="135.6386363636364" r="2.5" fill="#C49A00" fill-opacity="0.85" stroke="none"/><circle cx="413.15000000000003" cy="93.85454545454553" r="2.5" fill="#C49A00" fill-opacity="0.85" stroke="none"/><circle cx="413.15000000000003" cy="52.070454545454595" r="2.5" fill="#C49A00" fill-opacity="0.85" stroke="none"/><circle cx="651.49375" cy="553.4795454545454" r="2.5" fill="#53B400" fill-opacity="0.85" stroke="none"/><circle cx="651.49375" cy="511.6954545454545" r="2.5" fill="#53B400" fill-opacity="0.85" stroke="none"/><circle cx="651.49375" cy="469.9113636363636" r="2.5" fill="#53B400" fill-opacity="0.85" stroke="none"/><circle cx="651.49375" cy="453.1977272727272" r="2.5" fill="#53B400" fill-opacity="0.85" stroke="none"/><circle cx="651.49375" cy="403.0568181818182" r="2.5" fill="#53B400" fill-opacity="0.85" stroke="none"/><circle cx="651.49375" cy="386.34318181818185" r="2.5" fill="#53B400" fill-opacity="0.85" stroke="none"/><circle cx="651.49375" cy="344.5590909090909" r="2.5" fill="#53B400" fill-opacity="0.85" stroke="none"/><circle cx="651.49375" cy="302.77500000000003" r="2.5" fill="#53B400" fill-opacity="0.85" stroke="none"/></svg>