<svg xmlns="http://www.w3.org/2000/svg" width="624" height="384" viewBox="0 0 624 384"><rect x="0.0" y="0.0" width="624.0" height="384.0" fill="#ffffff" fill-opacity="1.0" stroke="none"/><line x1="147.56166666666664" y1="32.266666666666666" x2="147.56166666666664" y2="358.3333333333333" stroke="#dddddd" stroke-width="1.3333333333333333"/><line x1="327.9866666666666" y1="32.266666666666666" x2="327.9866666666666" y2="358.3333333333333" stroke="#dddddd" stroke-width="1.3333333333333333"/><line x1="508.4116666666667" y1="32.266666666666666" x2="508.4116666666667" y2="358.3333333333333" stroke="#dddddd" stroke-width="1.3333333333333333"/><line x1="39.306666666666665" y1="318.810101010101" x2="616.6666666666666" y2="318.810101010101" stroke="#dddddd" stroke-width="0.6666666666666666"/><line x1="39.306666666666665" y1="269.4060606060606" x2="616.6666666666666" y2="269.4060606060606" stroke="#dddddd" stroke-width="0.6666666666666666"/><line x1="39.306666666666665" y1="220.0020202020202" x2="616.6666666666666" y2="220.0020202020202" stroke="#dddddd" stroke-width="0.6666666666666666"/><line x1="39.306666666666665" y1="170.5979797979798" x2="616.6666666666666" y2="170.5979797979798" stroke="#dddddd" stroke-width="0.6666666666666666"/><line x1="39.306666666666665" y1="121.1939393939394" x2="616.6666666666666" y2="121.1939393939394" stroke="#dddddd" stroke-width="0.6666666666666666"/><line x1="39.306666666666665" y1="71.78989898989903" x2="616.6666666666666" y2="71.78989898989903" stroke="#dddddd" stroke-width="0.6666666666666666"/><line x1="39.306666666666665" y1="343.5121212121212" x2="616.6666666666666" y2="343.5121212121212" stroke="#dddddd" stroke-width="1.3333333333333333"/><line x1="39.306666666666665" y1="294.1080808080808" x2="616.6666666666666" y2="294.1080808080808" stroke="#dddddd" stroke-width="1.3333333333333333"/><line x1="39.306666666666665" y1="244.7040404040404" x2="616.6666666666666" y2="244.7040404040404" stroke="#dddddd" stroke-width="1.3333333333333333"/><line x1="39.306666666666665" y1="195.3" x2="616.6666666666666" y2="195.3" stroke="#dddddd" stroke-width="1.3333333333333333"/><line x1="39.306666666666665" y1="145.8959595959596" x2="616.6666666666666" y2="145.8959595959596" stroke="#dddddd" stroke-width="1.3333333333333333"/><line x1="39.306666666666665" y1="96.4919191919192" x2="616.6666666666666" y2="96.4919191919192" stroke="#dddddd" stroke-width="1.3333333333333333"/><line x1="39.306666666666665" y1="47.08787878787878" x2="616.6666666666666" y2="47.08787878787878" stroke="#dddddd" stroke-width="1.3333333333333333"/><rect x="39.306666666666665" y="32.266666666666666" width="577.3599999999999" height="326.06666666666666" fill="#ffffff" fill-opacity="0.0" stroke="#444444" stroke-width="1.3333333333333333"/><line x1="147.56166666666664" y1="358.3333333333333" x2="147.56166666666664" y2="362.0" stroke="#444444" stroke-width="1.3333333333333333"/><text x="147.56166666666664" y="374.32" fill="#333333" font-size="11.733333333333334" font-family="sans-serif" text-anchor="middle">A</text><line x1="327.9866666666666" y1="358.3333333333333" x2="327.9866666666666" y2="362.0" stroke="#444444" stroke-width="1.3333333333333333"/><text x="327.9866666666666" y="374.32" fill="#333333" font-size="11.733333333333334" font-family="sans-serif" text-anchor="middle">B</text><line x1="508.4116666666667" y1="358.3333333333333" x2="508.4116666666667" y2="362.0" stroke="#444444" stroke-width="1.3333333333333333"/><text x="508.4116666666667" y="374.32" fill="#333333" font-size="11.733333333333334" font-family="sans-serif" text-anchor="middle">C</text><line x1="39.306666666666665" y1="343.5121212121212" x2="35.64" y2="343.5121212121212" stroke="#444444" stroke-width="1.3333333333333333"/><text x="32.70666666666666" y="347.6187878787878" fill="#333333" font-size="11.733333333333334" font-family="sans-serif" text-anchor="end">2</text><line x1="39.306666666666665" y1="294.1080808080808" x2="35.64" y2="294.1080808080808" stroke="#444444" stroke-width="1.3333333333333333"/><text x="32.70666666666666" y="298.21474747474747" fill="#333333" font-size="11.733333333333334" font-family="sans-serif" text-anchor="end">3</text><line x1="39.306666666666665" y1="244.7040404040404" x2="35.64" y2="244.7040404040404" stroke="#444444" stroke-width="1.3333333333333333"/><text x="32.70666666666666" y="248.81070707070708" fill="#333333" font-size="11.733333333333334" font-family="sans-serif" text-anchor="end">4</text><line x1="39.306666666666665" y1="195.3" x2="35.64" y2="195.3" stroke="#444444" stroke-width="1.3333333333333333"/><text x="32.70666666666666" y="199.4066666666667" fill="#333333" font-size="11.733333333333334" font-family="sans-serif" text-anchor="end">5</text><line x1="39.306666666666665" y1="145.8959595959596" x2="35.64" y2="145.8959595959596" stroke="#444444" stroke-width="1.3333333333333333"/><text x="32.70666666666666" y="150.00262626262628" fill="#333333" font-size="11.733333333333334" font-family="sans-serif" text-anchor="end">6</text><line x1="39.306666666666665" y1="96.4919191919192" x2="35.64" y2="96.4919191919192" stroke="#444444" stroke-width="1.3333333333333333"/><text x="32.70666666666666" y="100.59858585858586" fill="#333333" font-size="11.733333333333334" font-family="sans-serif" text-anchor="end">7</text><line x1="39.306666666666665" y1="47.08787878787878" x2="35.64" y2="47.08787878787878" stroke="#444444" stroke-width="1.3333333333333333"/><text x="32.70666666666666" y="51.19454545454545" fill="#333333" font-size="11.733333333333334" font-family="sans-serif" text-anchor="end">8</text><text x="39.306666666666665" y="21.413333333333334" fill="#333333" font-size="17.599999999999998" font-family="sans-serif" text-anchor="start">Raincloud Plot</text><text x="17.599999999999998" y="195.29999999999998" fill="#333333" font-size="14.666666666666666" font-family="sans-serif" text-anchor="middle" transform="rotate(-90.0 17.599999999999998 195.29999999999998)">value</text><path d="M 188.4387317332575 294.1080808080808 L 189.94084959059458 287.5208754208754 L 191.49387245037724 280.93367003367 L 193.10247500788955 274.3464646464646 L 194.77005290166028 267.75925925925924 L 196.49573079652117 261.1720538720539 L 198.27150432281076 254.58484848484846 L 200.07996865428518 247.9976430976431 L 201.89301023358502 241.41043771043772 L 203.67171575731254 234.82323232323233 L 205.36760744899772 228.23602693602697 L 206.9251649266843 221.64882154882153 L 208.28545331583908 215.06161616161617 L 209.39055064612495 208.47441077441079 L 210.18835987978676 201.88720538720537 L 210.63731062548166 195.3 L 210.71041666666662 188.71279461279462 L 210.39817494955813 182.12558922558924 L 209.70988365072856 175.53838383838382 L 208.67312477125293 168.95117845117846 L 207.3313872932995 162.36397306397308 L 205.74006925852203 155.7767676767677 L 203.9613463862186 149.18956228956228 L 202.05858160291984 142.6023569023569 L 200.09103182636795 136.01515151515153 L 198.10956169545864 129.42794612794614 L 196.15390082318504 122.84074074074074 L 194.25171127716717 116.25353535353538 L 192.41941733232287 109.66632996632998 L 190.66445317353546 103.0791245791246 L 188.988365888231 96.4919191919192 L 174.62541666666664 96.4919191919192 L 174.62541666666664 103.0791245791246 L 174.62541666666664 109.66632996632998 L 174.62541666666664 116.25353535353538 L 174.62541666666664 122.84074074074074 L 174.62541666666664 129.42794612794614 L 174.62541666666664 136.01515151515153 L 174.62541666666664 142.6023569023569 L 174.62541666666664 149.18956228956228 L 174.62541666666664 155.7767676767677 L 174.62541666666664 162.36397306397308 L 174.62541666666664 168.95117845117846 L 174.62541666666664 175.53838383838382 L 174.62541666666664 182.12558922558924 L 174.62541666666664 188.71279461279462 L 174.62541666666664 195.3 L 174.62541666666664 201.88720538720537 L 174.62541666666664 208.47441077441079 L 174.62541666666664 215.06161616161617 L 174.62541666666664 221.64882154882153 L 174.62541666666664 228.23602693602697 L 174.62541666666664 234.82323232323233 L 174.62541666666664 241.41043771043772 L 174.62541666666664 247.9976430976431 L 174.62541666666664 254.58484848484846 L 174.62541666666664 261.1720538720539 L 174.62541666666664 267.75925925925924 L 174.62541666666664 274.3464646464646 L 174.62541666666664 280.93367003367 L 174.62541666666664 287.5208754208754 L 174.62541666666664 294.1080808080808 Z" fill="#F8766D" fill-opacity="0.5" stroke="#F8766D" stroke-width="1.3333333333333333"/><path d="M 375.4047448069292 195.3 L 377.3030918600763 190.359595959596 L 379.13869182420956 185.41919191919192 L 380.8865282083269 180.47878787878793 L 382.5255395060708 175.53838383838382 L 384.03894782987925 170.5979797979798 L 385.4142947837331 165.65757575757576 L 386.6432354622212 160.71717171717174 L 387.7211413027099 155.7767676767677 L 388.64655421886556 150.83636363636361 L 389.42052578861194 145.8959595959596 L 390.045872643937 140.95555555555558 L 390.52638523803535 136.01515151515153 L 390.8660398150166 131.07474747474748 L 391.0682768898914 126.13434343434346 L 391.1354166666666 121.1939393939394 L 391.0682768898914 116.25353535353538 L 390.8660398150166 111.3131313131313 L 390.52638523803535 106.3727272727273 L 390.045872643937 101.43232323232321 L 389.42052578861194 96.4919191919192 L 388.64655421886556 91.55151515151518 L 387.7211413027099 86.61111111111111 L 386.6432354622211 81.67070707070707 L 385.4142947837331 76.730303030303 L 384.03894782987925 71.78989898989903 L 382.5255395060708 66.84949494949497 L 380.8865282083269 61.909090909090914 L 379.1386918242095 56.96868686868686 L 377.3030918600763 52.02828282828284 L 375.4047448069292 47.08787878787878 L 355.0504166666666 47.08787878787878 L 355.0504166666666 52.02828282828284 L 355.0504166666666 56.96868686868686 L 355.0504166666666 61.909090909090914 L 355.0504166666666 66.84949494949497 L 355.0504166666666 71.78989898989903 L 355.0504166666666 76.730303030303 L 355.0504166666666 81.67070707070707 L 355.0504166666666 86.61111111111111 L 355.0504166666666 91.55151515151518 L 355.0504166666666 96.4919191919192 L 355.0504166666666 101.43232323232321 L 355.0504166666666 106.3727272727273 L 355.0504166666666 111.3131313131313 L 355.0504166666666 116.25353535353538 L 355.0504166666666 121.1939393939394 L 355.0504166666666 126.13434343434346 L 355.0504166666666 131.07474747474748 L 355.0504166666666 136.01515151515153 L 355.0504166666666 140.95555555555558 L 355.0504166666666 145.8959595959596 L 355.0504166666666 150.83636363636361 L 355.0504166666666 155.7767676767677 L 355.0504166666666 160.71717171717174 L 355.0504166666666 165.65757575757576 L 355.0504166666666 170.5979797979798 L 355.0504166666666 175.53838383838382 L 355.0504166666666 180.47878787878793 L 355.0504166666666 185.41919191919192 L 355.0504166666666 190.359595959596 L 355.0504166666666 195.3 Z" fill="#00BA38" fill-opacity="0.5" stroke="#00BA38" stroke-width="1.3333333333333333"/><path d="M 555.8297448069293 343.5121212121212 L 557.7280918600763 338.5717171717172 L 559.5636918242096 333.6313131313131 L 561.311528208327 328.6909090909091 L 562.9505395060709 323.750505050505 L 564.4639478298793 318.810101010101 L 565.8392947837332 313.869696969697 L 567.0682354622213 308.9292929292929 L 568.14614130271 303.9888888888889 L 569.0715542188657 299.0484848484848 L 569.845525788612 294.1080808080808 L 570.4708726439371 289.16767676767677 L 570.9513852380354 284.2272727272727 L 571.2910398150167 279.2868686868687 L 571.4932768898915 274.3464646464646 L 571.5604166666667 269.4060606060606 L 571.4932768898915 264.46565656565656 L 571.2910398150167 259.52525252525254 L 570.9513852380353 254.58484848484846 L 570.4708726439371 249.64444444444445 L 569.845525788612 244.7040404040404 L 569.0715542188657 239.76363636363638 L 568.14614130271 234.82323232323233 L 567.0682354622212 229.88282828282823 L 565.8392947837332 224.9424242424242 L 564.4639478298793 220.0020202020202 L 562.9505395060709 215.06161616161617 L 561.311528208327 210.12121212121212 L 559.5636918242096 205.18080808080805 L 557.7280918600763 200.24040404040403 L 555.8297448069293 195.3 L 535.4754166666667 195.3 L 535.4754166666667 200.24040404040403 L 535.4754166666667 205.18080808080805 L 535.4754166666667 210.12121212121212 L 535.4754166666667 215.06161616161617 L 535.4754166666667 220.0020202020202 L 535.4754166666667 224.9424242424242 L 535.4754166666667 229.88282828282823 L 535.4754166666667 234.82323232323233 L 535.4754166666667 239.76363636363638 L 535.4754166666667 244.7040404040404 L 535.4754166666667 249.64444444444445 L 535.4754166666667 254.58484848484846 L 535.4754166666667 259.52525252525254 L 535.4754166666667 264.46565656565656 L 535.4754166666667 269.4060606060606 L 535.4754166666667 274.3464646464646 L 535.4754166666667 279.2868686868687 L 535.4754166666667 284.2272727272727 L 535.4754166666667 289.16767676767677 L 535.4754166666667 294.1080808080808 L 535.4754166666667 299.0484848484848 L 535.4754166666667 303.9888888888889 L 535.4754166666667 308.9292929292929 L 535.4754166666667 313.869696969697 L 535.4754166666667 318.810101010101 L 535.4754166666667 323.750505050505 L 535.4754166666667 328.6909090909091 L 535.4754166666667 333.6313131313131 L 535.4754166666667 338.5717171717172 L 535.4754166666667 343.5121212121212 Z" fill="#619CFF" fill-opacity="0.5" stroke="#619CFF" stroke-width="1.3333333333333333"/><rect x="138.54041666666663" y="164.42247474747478" width="18.042499999999997" height="61.7550505050505" fill="#ffffff" fill-opacity="1.0" stroke="#333333" stroke-width="1.3333333333333333"/><line x1="138.54041666666663" y1="190.359595959596" x2="156.58291666666665" y2="190.359595959596" stroke="#333333" stroke-width="2.6666666666666665"/><line x1="147.56166666666664" y1="226.17752525252527" x2="147.56166666666664" y2="294.1080808080808" stroke="#333333" stroke-width="1.3333333333333333"/><line x1="147.56166666666664" y1="164.42247474747478" x2="147.56166666666664" y2="96.4919191919192" stroke="#333333" stroke-width="1.3333333333333333"/><line x1="143.05104166666663" y1="294.1080808080808" x2="152.07229166666664" y2="294.1080808080808" stroke="#333333" stroke-width="1.3333333333333333"/><line x1="143.05104166666663" y1="96.4919191919192" x2="152.07229166666664" y2="96.4919191919192" stroke="#333333" stroke-width="1.3333333333333333"/><rect x="318.9654166666666" y="90.31641414141416" width="18.042499999999997" height="61.7550505050505" fill="#ffffff" fill-opacity="1.0" stroke="#333333" stroke-width="1.3333333333333333"/><line x1="318.9654166666666" y1="121.1939393939394" x2="337.00791666666663" y2="121.1939393939394" stroke="#333333" stroke-width="2.6666666666666665"/><line x1="327.9866666666666" y1="152.07146464646465" x2="327.9866666666666" y2="195.3" stroke="#333333" stroke-width="1.3333333333333333"/><line x1="327.9866666666666" y1="90.31641414141416" x2="327.9866666666666" y2="47.08787878787878" stroke="#333333" stroke-width="1.3333333333333333"/><line x1="323.4760416666666" y1="195.3" x2="332.4972916666666" y2="195.3" stroke="#333333" stroke-width="1.3333333333333333"/><line x1="323.4760416666666" y1="47.08787878787878" x2="332.4972916666666" y2="47.08787878787878" stroke="#333333" stroke-width="1.3333333333333333"/><rect x="499.3904166666667" y="238.52853535353535" width="18.042499999999997" height="61.7550505050505" fill="#ffffff" fill-opacity="1.0" stroke="#333333" stroke-width="1.3333333333333333"/><line x1="499.3904166666667" y1="269.4060606060606" x2="517.4329166666666" y2="269.4060606060606" stroke="#333333" stroke-width="2.6666666666666665"/><line x1="508.4116666666667" y1="300.28358585858587" x2="508.4116666666667" y2="343.5121212121212" stroke="#333333" stroke-width="1.3333333333333333"/><line x1="508.4116666666667" y1="238.52853535353535" x2="508.4116666666667" y2="195.3" stroke="#333333" stroke-width="1.3333333333333333"/><line x1="503.90104166666674" y1="343.5121212121212" x2="512.9222916666666" y2="343.5121212121212" stroke="#333333" stroke-width="1.3333333333333333"/><line x1="503.90104166666674" y1="195.3" x2="512.9222916666666" y2="195.3" stroke="#333333" stroke-width="1.3333333333333333"/><circle cx="86.21716666666664" cy="294.1080808080808" r="2.362204724409449" fill="#F8766D" fill-opacity="0.7" stroke="none"/><circle cx="102.69458177878978" cy="244.7040404040404" r="2.362204724409449" fill="#F8766D" fill-opacity="0.7" stroke="none"/><circle cx="111.2076162152564" cy="220.0020202020202" r="2.362204724409449" fill="#F8766D" fill-opacity="0.7" stroke="none"/><circle cx="112.11056988187507" cy="195.3" r="2.362204724409449" fill="#F8766D" fill-opacity="0.7" stroke="none"/><circle cx="97.88662744361287" cy="185.41919191919192" r="2.362204724409449" fill="#F8766D" fill-opacity="0.7" stroke="none"/><circle cx="100.44134212830808" cy="170.5979797979798" r="2.362204724409449" fill="#F8766D" fill-opacity="0.7" stroke="none"/><circle cx="105.90808950929218" cy="145.8959595959596" r="2.362204724409449" fill="#F8766D" fill-opacity="0.7" stroke="none"/><circle cx="104.76888915783975" cy="96.4919191919192" r="2.362204724409449" fill="#F8766D" fill-opacity="0.7" stroke="none"/><circle cx="293.0897457781117" cy="195.3" r="2.362204724409449" fill="#00BA38" fill-opacity="0.7" stroke="none"/><circle cx="283.60106912992836" cy="170.5979797979798" r="2.362204724409449" fill="#00BA38" fill-opacity="0.7" stroke="none"/><circle cx="275.7758049827051" cy="145.8959595959596" r="2.362204724409449" fill="#00BA38" fill-opacity="0.7" stroke="none"/><circle cx="281.3781779946991" cy="136.01515151515153" r="2.362204724409449" fill="#00BA38" fill-opacity="0.7" stroke="none"/><circle cx="287.27226860433535" cy="106.3727272727273" r="2.362204724409449" fill="#00BA38" fill-opacity="0.7" stroke="none"/><circle cx="292.57652366631385" cy="96.4919191919192" r="2.362204724409449" fill="#00BA38" fill-opacity="0.7" stroke="none"/><circle cx="280.0605117031939" cy="71.78989898989903" r="2.362204724409449" fill="#00BA38" fill-opacity="0.7" stroke="none"/><circle cx="294.0939278717397" cy="47.08787878787878" r="2.362204724409449" fill="#00BA38" fill-opacity="0.7" stroke="none"/><circle cx="466.59341119658916" cy="343.5121212121212" r="2.362204724409449" fill="#619CFF" fill-opacity="0.7" stroke="none"/><circle cx="475.39473425217585" cy="318.810101010101" r="2.362204724409449" fill="#619CFF" fill-opacity="0.7" stroke="none"/><circle cx="462.10312389775083" cy="294.1080808080808" r="2.362204724409449" fill="#619CFF" fill-opacity="0.7" stroke="none"/><circle cx="475.2337187208905" cy="284.2272727272727" r="2.362204724409449" fill="#619CFF" fill-opacity="0.7" stroke="none"/><circle cx="457.9786883117082" cy="254.58484848484846" r="2.362204724409449" fill="#619CFF" fill-opacity="0.7" stroke="none"/><circle cx="464.4056660679987" cy="244.7040404040404" r="2.362204724409449" fill="#619CFF" fill-opacity="0.7" stroke="none"/><circle cx="458.44910527826914" cy="220.0020202020202" r="2.362204724409449" fill="#619CFF" fill-opacity="0.7" stroke="none"/><circle cx="455.3858891484289" cy="195.3" r="2.362204724409449" fill="#619CFF" fill-opacity="0.7" stroke="none"/></svg>