<svg xmlns="http://www.w3.org/2000/svg" width="800" height="600" viewBox="0 0 800 600"><rect x="0.0" y="0.0" width="800.0" height="600.0" fill="#ffffff" fill-opacity="1.0" stroke="none"/><text x="416.45" y="18.3" fill="#333333" font-size="16.0" font-family="sans-serif" text-anchor="middle">Trellis Scatter Plot (facet)</text><text x="416.45" y="592.1" fill="#333333" font-size="12.0" font-family="sans-serif" text-anchor="middle">x</text><text x="13.899999999999999" y="295.4" fill="#333333" font-size="12.0" font-family="sans-serif" text-anchor="middle" transform="rotate(-90.0 13.899999999999999 295.4)">y</text><rect x="38.4" y="27.0" width="248.36666666666667" height="18.0" fill="#d9d9d9" fill-opacity="1.0" stroke="none"/><text x="162.58333333333334" y="41.0" fill="#333333" font-size="11.0" font-family="sans-serif" text-anchor="middle">A</text><rect x="38.4" y="45.0" width="248.36666666666667" height="518.8" fill="#ffffff" fill-opacity="0.0" stroke="#444444" stroke-width="1.0"/><line x1="87.32070707070707" y1="45.0" x2="87.32070707070707" y2="563.8" stroke="#dddddd" stroke-width="0.5"/><line x1="162.58333333333331" y1="45.0" x2="162.58333333333331" y2="563.8" stroke="#dddddd" stroke-width="0.5"/><line x1="237.84595959595958" y1="45.0" x2="237.84595959595958" y2="563.8" stroke="#dddddd" stroke-width="0.5"/><line x1="49.68939393939394" y1="45.0" x2="49.68939393939394" y2="563.8" stroke="#dddddd" stroke-width="1.0"/><line x1="124.95202020202018" y1="45.0" x2="124.95202020202018" y2="563.8" stroke="#dddddd" stroke-width="1.0"/><line x1="200.21464646464642" y1="45.0" x2="200.21464646464642" y2="563.8" stroke="#dddddd" stroke-width="1.0"/><line x1="275.4772727272727" y1="45.0" x2="275.4772727272727" y2="563.8" stroke="#dddddd" stroke-width="1.0"/><line x1="38.4" y1="508.77575757575755" x2="286.76666666666665" y2="508.77575757575755" stroke="#dddddd" stroke-width="0.5"/><line x1="38.4" y1="383.0060606060606" x2="286.76666666666665" y2="383.0060606060606" stroke="#dddddd" stroke-width="0.5"/><line x1="38.4" y1="257.2363636363636" x2="286.76666666666665" y2="257.2363636363636" stroke="#dddddd" stroke-width="0.5"/><line x1="38.4" y1="131.46666666666664" x2="286.76666666666665" y2="131.46666666666664" stroke="#dddddd" stroke-width="0.5"/><line x1="38.4" y1="445.8909090909091" x2="286.76666666666665" y2="445.8909090909091" stroke="#dddddd" stroke-width="1.0"/><line x1="38.4" y1="320.1212121212121" x2="286.76666666666665" y2="320.1212121212121" stroke="#dddddd" stroke-width="1.0"/><line x1="38.4" y1="194.35151515151512" x2="286.76666666666665" y2="194.35151515151512" stroke="#dddddd" stroke-width="1.0"/><line x1="38.4" y1="68.58181818181816" x2="286.76666666666665" y2="68.58181818181816" stroke="#dddddd" stroke-width="1.0"/><line x1="49.68939393939394" y1="563.8" x2="49.68939393939394" y2="566.55" stroke="#444444" stroke-width="1.0"/><text x="49.68939393939394" y="577.55" fill="#333333" font-size="11.0" font-family="sans-serif" text-anchor="middle">1</text><line x1="124.95202020202018" y1="563.8" x2="124.95202020202018" y2="566.55" stroke="#444444" stroke-width="1.0"/><text x="124.95202020202018" y="577.55" fill="#333333" font-size="11.0" font-family="sans-serif" text-anchor="middle">2</text><line x1="200.21464646464642" y1="563.8" x2="200.21464646464642" y2="566.55" stroke="#444444" stroke-width="1.0"/><text x="200.21464646464642" y="577.55" fill="#333333" font-size="11.0" font-family="sans-serif" text-anchor="middle">3</text><line x1="275.4772727272727" y1="563.8" x2="275.4772727272727" y2="566.55" stroke="#444444" stroke-width="1.0"/><text x="275.4772727272727" y="577.55" fill="#333333" font-size="11.0" font-family="sans-serif" text-anchor="middle">4</text><line x1="38.4" y1="445.8909090909091" x2="35.65" y2="445.8909090909091" stroke="#444444" stroke-width="1.0"/><text x="33.449999999999996" y="449.7409090909091" fill="#333333" font-size="11.0" font-family="sans-serif" text-anchor="end">4</text><line x1="38.4" y1="320.1212121212121" x2="35.65" y2="320.1212121212121" stroke="#444444" stroke-width="1.0"/><text x="33.449999999999996" y="323.97121212121215" fill="#333333" font-size="11.0" font-family="sans-serif" text-anchor="end">8</text><line x1="38.4" y1="194.35151515151512" x2="35.65" y2="194.35151515151512" stroke="#444444" stroke-width="1.0"/><text x="33.449999999999996" y="198.2015151515151" fill="#333333" font-size="11.0" font-family="sans-serif" text-anchor="end">12</text><line x1="38.4" y1="68.58181818181816" x2="35.65" y2="68.58181818181816" stroke="#444444" stroke-width="1.0"/><text x="33.449999999999996" y="72.43181818181816" fill="#333333" font-size="11.0" font-family="sans-serif" text-anchor="end">16</text><circle cx="49.68939393939394" cy="540.2181818181817" r="6.0" fill="#F8766D" fill-opacity="0.85" stroke="#F8766D" stroke-width="1.0"><title>(1, 1)</title></circle><circle cx="124.95202020202018" cy="445.8909090909091" r="6.0" fill="#F8766D" fill-opacity="0.85" stroke="#F8766D" stroke-width="1.0"><title>(2, 4)</title></circle><circle cx="200.21464646464642" cy="288.6787878787879" r="6.0" fill="#F8766D" fill-opacity="0.85" stroke="#F8766D" stroke-width="1.0"><title>(3, 9)</title></circle><circle cx="275.4772727272727" cy="68.58181818181816" r="6.0" fill="#F8766D" fill-opacity="0.85" stroke="#F8766D" stroke-width="1.0"><title>(4, 16)</title></circle><rect x="292.26666666666665" y="27.0" width="248.36666666666667" height="18.0" fill="#d9d9d9" fill-opacity="1.0" stroke="none"/><text x="416.45" y="41.0" fill="#333333" font-size="11.0" font-family="sans-serif" text-anchor="middle">B</text><rect x="292.26666666666665" y="45.0" width="248.36666666666667" height="518.8" fill="#ffffff" fill-opacity="0.0" stroke="#444444" stroke-width="1.0"/><line x1="341.1873737373737" y1="45.0" x2="341.1873737373737" y2="563.8" stroke="#dddddd" stroke-width="0.5"/><line x1="416.45" y1="45.0" x2="416.45" y2="563.8" stroke="#dddddd" stroke-width="0.5"/><line x1="491.71262626262626" y1="45.0" x2="491.71262626262626" y2="563.8" stroke="#dddddd" stroke-width="0.5"/><line x1="303.5560606060606" y1="45.0" x2="303.5560606060606" y2="563.8" stroke="#dddddd" stroke-width="1.0"/><line x1="378.8186868686869" y1="45.0" x2="378.8186868686869" y2="563.8" stroke="#dddddd" stroke-width="1.0"/><line x1="454.0813131313131" y1="45.0" x2="454.0813131313131" y2="563.8" stroke="#dddddd" stroke-width="1.0"/><line x1="529.3439393939393" y1="45.0" x2="529.3439393939393" y2="563.8" stroke="#dddddd" stroke-width="1.0"/><line x1="292.26666666666665" y1="508.77575757575755" x2="540.6333333333333" y2="508.77575757575755" stroke="#dddddd" stroke-width="0.5"/><line x1="292.26666666666665" y1="383.0060606060606" x2="540.6333333333333" y2="383.0060606060606" stroke="#dddddd" stroke-width="0.5"/><line x1="292.26666666666665" y1="257.2363636363636" x2="540.6333333333333" y2="257.2363636363636" stroke="#dddddd" stroke-width="0.5"/><line x1="292.26666666666665" y1="131.46666666666664" x2="540.6333333333333" y2="131.46666666666664" stroke="#dddddd" stroke-width="0.5"/><line x1="292.26666666666665" y1="445.8909090909091" x2="540.6333333333333" y2="445.8909090909091" stroke="#dddddd" stroke-width="1.0"/><line x1="292.26666666666665" y1="320.1212121212121" x2="540.6333333333333" y2="320.1212121212121" stroke="#dddddd" stroke-width="1.0"/><line x1="292.26666666666665" y1="194.35151515151512" x2="540.6333333333333" y2="194.35151515151512" stroke="#dddddd" stroke-width="1.0"/><line x1="292.26666666666665" y1="68.58181818181816" x2="540.6333333333333" y2="68.58181818181816" stroke="#dddddd" stroke-width="1.0"/><line x1="303.5560606060606" y1="563.8" x2="303.5560606060606" y2="566.55" stroke="#444444" stroke-width="1.0"/><text x="303.5560606060606" y="577.55" fill="#333333" font-size="11.0" font-family="sans-serif" text-anchor="middle">1</text><line x1="378.8186868686869" y1="563.8" x2="378.8186868686869" y2="566.55" stroke="#444444" stroke-width="1.0"/><text x="378.8186868686869" y="577.55" fill="#333333" font-size="11.0" font-family="sans-serif" text-anchor="middle">2</text><line x1="454.0813131313131" y1="563.8" x2="454.0813131313131" y2="566.55" stroke="#444444" stroke-width="1.0"/><text x="454.0813131313131" y="577.55" fill="#333333" font-size="11.0" font-family="sans-serif" text-anchor="middle">3</text><line x1="529.3439393939393" y1="563.8" x2="529.3439393939393" y2="566.55" stroke="#444444" stroke-width="1.0"/><text x="529.3439393939393" y="577.55" fill="#333333" font-size="11.0" font-family="sans-serif" text-anchor="middle">4</text><circle cx="303.5560606060606" cy="508.77575757575755" r="6.0" fill="#F8766D" fill-opacity="0.85" stroke="#F8766D" stroke-width="1.0"><title>(1, 2)</title></circle><circle cx="378.8186868686869" cy="414.4484848484848" r="6.0" fill="#F8766D" fill-opacity="0.85" stroke="#F8766D" stroke-width="1.0"><title>(2, 5)</title></circle><circle cx="454.0813131313131" cy="320.1212121212121" r="6.0" fill="#F8766D" fill-opacity="0.85" stroke="#F8766D" stroke-width="1.0"><title>(3, 8)</title></circle><circle cx="529.3439393939393" cy="194.35151515151512" r="6.0" fill="#F8766D" fill-opacity="0.85" stroke="#F8766D" stroke-width="1.0"><title>(4, 12)</title></circle><rect x="546.1333333333333" y="27.0" width="248.36666666666667" height="18.0" fill="#d9d9d9" fill-opacity="1.0" stroke="none"/><text x="670.3166666666666" y="41.0" fill="#333333" font-size="11.0" font-family="sans-serif" text-anchor="middle">C</text><rect x="546.1333333333333" y="45.0" width="248.36666666666667" height="518.8" fill="#ffffff" fill-opacity="0.0" stroke="#444444" stroke-width="1.0"/><line x1="595.0540404040404" y1="45.0" x2="595.0540404040404" y2="563.8" stroke="#dddddd" stroke-width="0.5"/><line x1="670.3166666666666" y1="45.0" x2="670.3166666666666" y2="563.8" stroke="#dddddd" stroke-width="0.5"/><line x1="745.5792929292929" y1="45.0" x2="745.5792929292929" y2="563.8" stroke="#dddddd" stroke-width="0.5"/><line x1="557.4227272727272" y1="45.0" x2="557.4227272727272" y2="563.8" stroke="#dddddd" stroke-width="1.0"/><line x1="632.6853535353536" y1="45.0" x2="632.6853535353536" y2="563.8" stroke="#dddddd" stroke-width="1.0"/><line x1="707.9479797979798" y1="45.0" x2="707.9479797979798" y2="563.8" stroke="#dddddd" stroke-width="1.0"/><line x1="783.2106060606061" y1="45.0" x2="783.2106060606061" y2="563.8" stroke="#dddddd" stroke-width="1.0"/><line x1="546.1333333333333" y1="508.77575757575755" x2="794.5" y2="508.77575757575755" stroke="#dddddd" stroke-width="0.5"/><line x1="546.1333333333333" y1="383.0060606060606" x2="794.5" y2="383.0060606060606" stroke="#dddddd" stroke-width="0.5"/><line x1="546.1333333333333" y1="257.2363636363636" x2="794.5" y2="257.2363636363636" stroke="#dddddd" stroke-width="0.5"/><line x1="546.1333333333333" y1="131.46666666666664" x2="794.5" y2="131.46666666666664" stroke="#dddddd" stroke-width="0.5"/><line x1="546.1333333333333" y1="445.8909090909091" x2="794.5" y2="445.8909090909091" stroke="#dddddd" stroke-width="1.0"/><line x1="546.1333333333333" y1="320.1212121212121" x2="794.5" y2="320.1212121212121" stroke="#dddddd" stroke-width="1.0"/><line x1="546.1333333333333" y1="194.35151515151512" x2="794.5" y2="194.35151515151512" stroke="#dddddd" stroke-width="1.0"/><line x1="546.1333333333333" y1="68.58181818181816" x2="794.5" y2="68.58181818181816" stroke="#dddddd" stroke-width="1.0"/><line x1="557.4227272727272" y1="563.8" x2="557.4227272727272" y2="566.55" stroke="#444444" stroke-width="1.0"/><text x="557.4227272727272" y="577.55" fill="#333333" font-size="11.0" font-family="sans-serif" text-anchor="middle">1</text><line x1="632.6853535353536" y1="563.8" x2="632.6853535353536" y2="566.55" stroke="#444444" stroke-width="1.0"/><text x="632.6853535353536" y="577.55" fill="#333333" font-size="11.0" font-family="sans-serif" text-anchor="middle">2</text><line x1="707.9479797979798" y1="563.8" x2="707.9479797979798" y2="566.55" stroke="#444444" stroke-width="1.0"/><text x="707.9479797979798" y="577.55" fill="#333333" font-size="11.0" font-family="sans-serif" text-anchor="middle">3</text><line x1="783.2106060606061" y1="563.8" x2="783.2106060606061" y2="566.55" stroke="#444444" stroke-width="1.0"/><text x="783.2106060606061" y="577.55" fill="#333333" font-size="11.0" font-family="sans-serif" text-anchor="middle">4</text><circle cx="557.4227272727272" cy="477.3333333333333" r="6.0" fill="#F8766D" fill-opacity="0.85" stroke="#F8766D" stroke-width="1.0"><title>(1, 3)</title></circle><circle cx="632.6853535353536" cy="383.0060606060606" r="6.0" fill="#F8766D" fill-opacity="0.85" stroke="#F8766D" stroke-width="1.0"><title>(2, 6)</title></circle><circle cx="707.9479797979798" cy="288.6787878787879" r="6.0" fill="#F8766D" fill-opacity="0.85" stroke="#F8766D" stroke-width="1.0"><title>(3, 9)</title></circle><circle cx="783.2106060606061" cy="100.0242424242424" r="6.0" fill="#F8766D" fill-opacity="0.85" stroke="#F8766D" stroke-width="1.0"><title>(4, 15)</title></circle></svg>