<svg xmlns="http://www.w3.org/2000/svg" width="624" height="384" viewBox="0 0 624 384"><rect x="0.0" y="0.0" width="624.0" height="384.0" fill="#ffffff" fill-opacity="1.0" stroke="none"/><rect x="60.42666666666666" y="32.266666666666666" width="556.24" height="307.73333333333335" fill="#ebebeb" fill-opacity="1.0" stroke="none"/><line x1="144.80232671543018" y1="32.266666666666666" x2="144.80232671543018" y2="340.0" stroke="#ffffff" stroke-width="0.6666666666666666"/><line x1="338.54666666666674" y1="32.266666666666666" x2="338.54666666666674" y2="340.0" stroke="#ffffff" stroke-width="0.6666666666666666"/><line x1="532.2910066179032" y1="32.266666666666666" x2="532.2910066179032" y2="340.0" stroke="#ffffff" stroke-width="0.6666666666666666"/><line x1="241.67449669104843" y1="32.266666666666666" x2="241.67449669104843" y2="340.0" stroke="#ffffff" stroke-width="1.3333333333333333"/><line x1="435.418836642285" y1="32.266666666666666" x2="435.418836642285" y2="340.0" stroke="#ffffff" stroke-width="1.3333333333333333"/><line x1="60.42666666666666" y1="311.86258015751105" x2="616.6666666666666" y2="311.86258015751105" stroke="#ffffff" stroke-width="0.6666666666666666"/><line x1="60.42666666666666" y1="255.58774047253308" x2="616.6666666666666" y2="255.58774047253308" stroke="#ffffff" stroke-width="0.6666666666666666"/><line x1="60.42666666666666" y1="199.31290078755515" x2="616.6666666666666" y2="199.31290078755515" stroke="#ffffff" stroke-width="0.6666666666666666"/><line x1="60.42666666666666" y1="143.03806110257722" x2="616.6666666666666" y2="143.03806110257722" stroke="#ffffff" stroke-width="0.6666666666666666"/><line x1="60.42666666666666" y1="86.76322141759923" x2="616.6666666666666" y2="86.76322141759923" stroke="#ffffff" stroke-width="0.6666666666666666"/><line x1="60.42666666666666" y1="340.0" x2="616.6666666666666" y2="340.0" stroke="#ffffff" stroke-width="1.3333333333333333"/><line x1="60.42666666666666" y1="283.72516031502204" x2="616.6666666666666" y2="283.72516031502204" stroke="#ffffff" stroke-width="1.3333333333333333"/><line x1="60.42666666666666" y1="227.4503206300441" x2="616.6666666666666" y2="227.4503206300441" stroke="#ffffff" stroke-width="1.3333333333333333"/><line x1="60.42666666666666" y1="171.1754809450662" x2="616.6666666666666" y2="171.1754809450662" stroke="#ffffff" stroke-width="1.3333333333333333"/><line x1="60.42666666666666" y1="114.90064126008822" x2="616.6666666666666" y2="114.90064126008822" stroke="#ffffff" stroke-width="1.3333333333333333"/><line x1="60.42666666666666" y1="58.625801575110316" x2="616.6666666666666" y2="58.625801575110316" stroke="#ffffff" stroke-width="1.3333333333333333"/><line x1="241.67449669104843" y1="340.0" x2="241.67449669104843" y2="343.66666666666663" stroke="#333333" stroke-width="1.3333333333333333"/><text x="241.67449669104843" y="355.9866666666667" fill="#4d4d4d" font-size="11.733333333333334" font-family="sans-serif" text-anchor="middle">1</text><line x1="435.418836642285" y1="340.0" x2="435.418836642285" y2="343.66666666666663" stroke="#333333" stroke-width="1.3333333333333333"/><text x="435.418836642285" y="355.9866666666667" fill="#4d4d4d" font-size="11.733333333333334" font-family="sans-serif" text-anchor="middle">2</text><line x1="60.42666666666666" y1="340.0" x2="56.76" y2="340.0" stroke="#333333" stroke-width="1.3333333333333333"/><text x="53.82666666666666" y="344.1066666666666" fill="#4d4d4d" font-size="11.733333333333334" font-family="sans-serif" text-anchor="end">0</text><line x1="60.42666666666666" y1="283.72516031502204" x2="56.76" y2="283.72516031502204" stroke="#333333" stroke-width="1.3333333333333333"/><text x="53.82666666666666" y="287.8318269816887" fill="#4d4d4d" font-size="11.733333333333334" font-family="sans-serif" text-anchor="end">500</text><line x1="60.42666666666666" y1="227.4503206300441" x2="56.76" y2="227.4503206300441" stroke="#333333" stroke-width="1.3333333333333333"/><text x="53.82666666666666" y="231.5569872967108" fill="#4d4d4d" font-size="11.733333333333334" font-family="sans-serif" text-anchor="end">1000</text><line x1="60.42666666666666" y1="171.1754809450662" x2="56.76" y2="171.1754809450662" stroke="#333333" stroke-width="1.3333333333333333"/><text x="53.82666666666666" y="175.28214761173288" fill="#4d4d4d" font-size="11.733333333333334" font-family="sans-serif" text-anchor="end">1500</text><line x1="60.42666666666666" y1="114.90064126008822" x2="56.76" y2="114.90064126008822" stroke="#333333" stroke-width="1.3333333333333333"/><text x="53.82666666666666" y="119.00730792675489" fill="#4d4d4d" font-size="11.733333333333334" font-family="sans-serif" text-anchor="end">2000</text><line x1="60.42666666666666" y1="58.625801575110316" x2="56.76" y2="58.625801575110316" stroke="#333333" stroke-width="1.3333333333333333"/><text x="53.82666666666666" y="62.732468241776985" fill="#4d4d4d" font-size="11.733333333333334" font-family="sans-serif" text-anchor="end">2500</text><text x="60.42666666666666" y="21.413333333333334" fill="#000000" font-size="17.599999999999998" font-family="sans-serif" text-anchor="start">carat&lt;3 の分布 (binwidth=0.01)</text><text x="338.5466666666666" y="373.73333333333335" fill="#000000" font-size="14.666666666666666" font-family="sans-serif" text-anchor="middle">carat</text><text x="17.599999999999998" y="186.13333333333333" fill="#000000" font-size="14.666666666666666" font-family="sans-serif" text-anchor="middle" transform="rotate(-90.0 17.599999999999998 186.13333333333333)">count</text><rect x="85.71030303030302" y="338.6494038475605" width="1.9374433995123657" height="1.3505961524394554" fill="#595959" fill-opacity="1.0" stroke="none"/><rect x="87.64774642981538" y="338.9870528856704" width="1.9374433995123657" height="1.012947114329601" fill="#595959" fill-opacity="1.0" stroke="none"/><rect x="89.58518982932776" y="339.43725160315023" width="1.9374433995123657" height="0.56274839684977" fill="#595959" fill-opacity="1.0" stroke="none"/><rect x="91.52263322884012" y="307.0229439446029" width="1.9374433995123657" height="32.97705605539708" fill="#595959" fill-opacity="1.0" stroke="none"/><rect x="93.46007662835248" y="311.4123814400312" width="1.9374433995123657" height="28.58761855996878" fill="#595959" fill-opacity="1.0" stroke="none"/><rect x="95.39752002786486" y="316.13946797356937" width="1.9374433995123657" height="23.860532026430633" fill="#595959" fill-opacity="1.0" stroke="none"/><rect x="97.33496342737722" y="311.5249311194011" width="1.9374433995123657" height="28.475068880598844" fill="#595959" fill-opacity="1.0" stroke="none"/><rect x="99.27240682688958" y="313.77592470680025" width="1.9374433995123657" height="26.224075293199725" fill="#595959" fill-opacity="1.0" stroke="none"/><rect x="101.20985022640195" y="317.7151634847487" width="1.9374433995123657" height="22.28483651525126" fill="#595959" fill-opacity="1.0" stroke="none"/><rect x="103.14729362591432" y="325.36854168190575" width="1.9374433995123657" height="14.631458318094246" fill="#595959" fill-opacity="1.0" stroke="none"/><rect x="105.08473702542668" y="46.920634920634896" width="1.9374433995123657" height="293.07936507936506" fill="#595959" fill-opacity="1.0" stroke="none"/><rect x="107.02218042493905" y="86.8757710969692" width="1.9374433995123657" height="253.12422890303077" fill="#595959" fill-opacity="1.0" stroke="none"/><rect x="108.95962382445141" y="132.9085899592812" width="1.9374433995123657" height="207.09141004071878" fill="#595959" fill-opacity="1.0" stroke="none"/><rect x="110.89706722396377" y="206.17843122912245" width="1.9374433995123657" height="133.82156877087755" fill="#595959" fill-opacity="1.0" stroke="none"/><rect x="112.83451062347615" y="237.57979177334016" width="1.9374433995123657" height="102.42020822665984" fill="#595959" fill-opacity="1.0" stroke="none"/><rect x="114.77195402298851" y="264.9293638602394" width="1.9374433995123657" height="75.07063613976057" fill="#595959" fill-opacity="1.0" stroke="none"/><rect x="116.70939742250087" y="275.62158340038525" width="1.9374433995123657" height="64.37841659961475" fill="#595959" fill-opacity="1.0" stroke="none"/><rect x="118.64684082201325" y="295.65542632823735" width="1.9374433995123657" height="44.3445736717626" fill="#595959" fill-opacity="1.0" stroke="none"/><rect x="120.5842842215256" y="264.5917148221295" width="1.9374433995123657" height="75.40828517787045" fill="#595959" fill-opacity="1.0" stroke="none"/><rect x="122.52172762103797" y="295.20522761075756" width="1.9374433995123657" height="44.79477238924244" fill="#595959" fill-opacity="1.0" stroke="none"/><rect x="124.45917102055034" y="193.79796649842731" width="1.9374433995123657" height="146.20203350157266" fill="#595959" fill-opacity="1.0" stroke="none"/><rect x="126.3966144200627" y="184.45634311072095" width="1.9374433995123657" height="155.54365688927902" fill="#595959" fill-opacity="1.0" stroke="none"/><rect x="128.33405781957507" y="260.5399263648111" width="1.9374433995123657" height="79.46007363518886" fill="#595959" fill-opacity="1.0" stroke="none"/><rect x="130.27150121908744" y="285.0757564674615" width="1.9374433995123657" height="54.92424353253848" fill="#595959" fill-opacity="1.0" stroke="none"/><rect x="132.2089446185998" y="316.13946797356937" width="1.9374433995123657" height="23.860532026430633" fill="#595959" fill-opacity="1.0" stroke="none"/><rect x="134.14638801811216" y="327.61953526930483" width="1.9374433995123657" height="12.380464730695167" fill="#595959" fill-opacity="1.0" stroke="none"/><rect x="136.08383141762454" y="319.96615707214784" width="1.9374433995123657" height="20.03384292785214" fill="#595959" fill-opacity="1.0" stroke="none"/><rect x="138.02127481713688" y="328.85758174237435" width="1.9374433995123657" height="11.14241825762565" fill="#595959" fill-opacity="1.0" stroke="none"/><rect x="139.95871821664926" y="332.9093701996928" width="1.9374433995123657" height="7.090629800307207" fill="#595959" fill-opacity="1.0" stroke="none"/><rect x="141.89616161616163" y="334.93526442835196" width="1.9374433995123657" height="5.064735571648005" fill="#595959" fill-opacity="1.0" stroke="none"/><rect x="143.83360501567398" y="198.41250335259548" width="1.9374433995123657" height="141.5874966474045" fill="#595959" fill-opacity="1.0" stroke="none"/><rect x="145.77104841518636" y="213.1565113500597" width="1.9374433995123657" height="126.84348864994027" fill="#595959" fill-opacity="1.0" stroke="none"/><rect x="147.70849181469873" y="248.04691195474607" width="1.9374433995123657" height="91.95308804525393" fill="#595959" fill-opacity="1.0" stroke="none"/><rect x="149.64593521421108" y="260.2022773267013" width="1.9374433995123657" height="79.79772267329872" fill="#595959" fill-opacity="1.0" stroke="none"/><rect x="151.58337861372345" y="269.65645039377756" width="1.9374433995123657" height="70.34354960622241" fill="#595959" fill-opacity="1.0" stroke="none"/><rect x="153.52082201323583" y="284.1753590325019" width="1.9374433995123277" height="55.82464096749811" fill="#595959" fill-opacity="1.0" stroke="none"/><rect x="155.45826541274815" y="284.6255577499817" width="1.9374433995123657" height="55.37444225001828" fill="#595959" fill-opacity="1.0" stroke="none"/><rect x="157.39570881226052" y="291.603637870919" width="1.9374433995124036" height="48.39636212908101" fill="#595959" fill-opacity="1.0" stroke="none"/><rect x="159.33315221177293" y="305.1095993953137" width="1.9374433995123657" height="34.890400604686306" fill="#595959" fill-opacity="1.0" stroke="none"/><rect x="161.27059561128527" y="308.2609904176724" width="1.9374433995123657" height="31.73900958232756" fill="#595959" fill-opacity="1.0" stroke="none"/><rect x="163.20803901079765" y="314.3386731036501" width="1.9374433995123657" height="25.66132689634992" fill="#595959" fill-opacity="1.0" stroke="none"/><rect x="165.14548241031002" y="317.03986540852895" width="1.9374433995123657" height="22.960134591471007" fill="#595959" fill-opacity="1.0" stroke="none"/><rect x="167.08292580982237" y="324.8057932850559" width="1.9374433995123657" height="15.194206714944054" fill="#595959" fill-opacity="1.0" stroke="none"/><rect x="169.02036920933475" y="328.5199327042645" width="1.9374433995123657" height="11.480067295735504" fill="#595959" fill-opacity="1.0" stroke="none"/><rect x="170.95781260884712" y="330.9960256504035" width="1.9374433995123657" height="9.00397434959647" fill="#595959" fill-opacity="1.0" stroke="none"/><rect x="172.89525600835947" y="332.6842708409529" width="1.9374433995123657" height="7.315729159047123" fill="#595959" fill-opacity="1.0" stroke="none"/><rect x="174.83269940787184" y="334.5976153902421" width="1.9374433995123657" height="5.402384609757897" fill="#595959" fill-opacity="1.0" stroke="none"/><rect x="176.77014280738422" y="334.5976153902421" width="1.9374433995123657" height="5.402384609757897" fill="#595959" fill-opacity="1.0" stroke="none"/><rect x="178.70758620689656" y="337.1862580157511" width="1.9374433995123657" height="2.8137419842488876" fill="#595959" fill-opacity="1.0" stroke="none"/><rect x="180.64502960640894" y="337.0737083363811" width="1.9374433995123657" height="2.9262916636188643" fill="#595959" fill-opacity="1.0" stroke="none"/><rect x="182.58247300592132" y="117.0390851681174" width="1.9374433995123657" height="222.96091483188258" fill="#595959" fill-opacity="1.0" stroke="none"/><rect x="184.51991640543366" y="194.36071489527708" width="1.9374433995123657" height="145.6392851047229" fill="#595959" fill-opacity="1.0" stroke="none"/><rect x="186.45735980494604" y="254.0120449613537" width="1.9374433995123657" height="85.9879550386463" fill="#595959" fill-opacity="1.0" stroke="none"/><rect x="188.3948032044584" y="284.6255577499817" width="1.9374433995123657" height="55.37444225001828" fill="#595959" fill-opacity="1.0" stroke="none"/><rect x="190.33224660397076" y="303.7590032428742" width="1.9374433995123657" height="36.2409967571258" fill="#595959" fill-opacity="1.0" stroke="none"/><rect x="192.26969000348313" y="311.97512983688097" width="1.9374433995123657" height="28.02487016311901" fill="#595959" fill-opacity="1.0" stroke="none"/><rect x="194.2071334029955" y="311.75003047814107" width="1.9374433995123657" height="28.24996952185893" fill="#595959" fill-opacity="1.0" stroke="none"/><rect x="196.14457680250786" y="311.75003047814107" width="1.9374433995123277" height="28.24996952185893" fill="#595959" fill-opacity="1.0" stroke="none"/><rect x="198.0820202020202" y="318.9532099578182" width="1.9374433995123657" height="21.046790042181744" fill="#595959" fill-opacity="1.0" stroke="none"/><rect x="200.01946360153255" y="322.5547996976568" width="1.9374433995123657" height="17.44520030234317" fill="#595959" fill-opacity="1.0" stroke="none"/><rect x="201.95690700104493" y="308.0358910589325" width="1.9374433995123657" height="31.96410894106748" fill="#595959" fill-opacity="1.0" stroke="none"/><rect x="203.8943504005573" y="317.4900641260088" width="1.9374433995123657" height="22.509935873991175" fill="#595959" fill-opacity="1.0" stroke="none"/><rect x="205.83179380006965" y="324.24304488820616" width="1.9374433995124036" height="15.756955111793824" fill="#595959" fill-opacity="1.0" stroke="none"/><rect x="207.76923719958205" y="325.2559920025358" width="1.9374433995123277" height="14.744007997464223" fill="#595959" fill-opacity="1.0" stroke="none"/><rect x="209.7066805990944" y="332.7968205203228" width="1.9374433995124036" height="7.203179479677184" fill="#595959" fill-opacity="1.0" stroke="none"/><rect x="211.6441239986068" y="333.0219198790627" width="1.9374433995123277" height="6.9780801209372685" fill="#595959" fill-opacity="1.0" stroke="none"/><rect x="213.58156739811912" y="336.1733109014215" width="1.9374433995123657" height="3.8266890985784885" fill="#595959" fill-opacity="1.0" stroke="none"/><rect x="215.5190107976315" y="336.51095993953135" width="1.9374433995124036" height="3.4890400604686342" fill="#595959" fill-opacity="1.0" stroke="none"/><rect x="217.4564541971439" y="337.411357374491" width="1.9374433995123277" height="2.588642625508972" fill="#595959" fill-opacity="1.0" stroke="none"/><rect x="219.39389759665622" y="337.63645673323094" width="1.9374433995124036" height="2.3635432667690566" fill="#595959" fill-opacity="1.0" stroke="none"/><rect x="221.33134099616862" y="172.86372613561548" width="1.9374433995123657" height="167.13627386438452" fill="#595959" fill-opacity="1.0" stroke="none"/><rect x="223.268784395681" y="275.84668275912514" width="1.9374433995123277" height="64.15331724087483" fill="#595959" fill-opacity="1.0" stroke="none"/><rect x="225.2062277951933" y="314.5637724623899" width="1.9374433995124036" height="25.43622753761004" fill="#595959" fill-opacity="1.0" stroke="none"/><rect x="227.14367119470572" y="324.01794552946626" width="1.9374433995123277" height="15.98205447053374" fill="#595959" fill-opacity="1.0" stroke="none"/><rect x="229.08111459421804" y="333.35956891717257" width="1.9374433995124036" height="6.640431082827414" fill="#595959" fill-opacity="1.0" stroke="none"/><rect x="231.01855799373044" y="332.6842708409529" width="1.9374433995123657" height="7.315729159047123" fill="#595959" fill-opacity="1.0" stroke="none"/><rect x="232.95600139324281" y="328.40738302489456" width="1.9374433995123277" height="11.592616975105443" fill="#595959" fill-opacity="1.0" stroke="none"/><rect x="234.89344479275513" y="333.35956891717257" width="1.9374433995124036" height="6.640431082827414" fill="#595959" fill-opacity="1.0" stroke="none"/><rect x="236.83088819226754" y="336.51095993953135" width="1.9374433995123657" height="3.4890400604686342" fill="#595959" fill-opacity="1.0" stroke="none"/><rect x="238.7683315917799" y="337.411357374491" width="1.9374433995123657" height="2.588642625508972" fill="#595959" fill-opacity="1.0" stroke="none"/><rect x="240.7057749912923" y="164.6475995416087" width="1.9374433995123657" height="175.35240045839126" fill="#595959" fill-opacity="1.0" stroke="none"/><rect x="242.64321839080463" y="87.6636188525589" width="1.9374433995123277" height="252.3363811474411" fill="#595959" fill-opacity="1.0" stroke="none"/><rect x="244.58066179031698" y="240.61863311632897" width="1.9374433995124036" height="99.38136688367103" fill="#595959" fill-opacity="1.0" stroke="none"/><rect x="246.51810518982938" y="281.1365176895131" width="1.93744339951229" height="58.863482310486916" fill="#595959" fill-opacity="1.0" stroke="none"/><rect x="248.45554858934167" y="286.53890229927094" width="1.9374433995124036" height="53.461097700729056" fill="#595959" fill-opacity="1.0" stroke="none"/><rect x="250.39299198885408" y="299.3695657474459" width="1.9374433995123657" height="40.630434252554096" fill="#595959" fill-opacity="1.0" stroke="none"/><rect x="252.33043538836642" y="298.0189695950064" width="1.9374433995123657" height="41.98103040499355" fill="#595959" fill-opacity="1.0" stroke="none"/><rect x="254.2678787878788" y="301.50800965547506" width="1.9374433995123657" height="38.491990344524915" fill="#595959" fill-opacity="1.0" stroke="none"/><rect x="256.2053221873912" y="312.31277887499084" width="1.9374433995123277" height="27.68722112500916" fill="#595959" fill-opacity="1.0" stroke="none"/><rect x="258.14276558690347" y="307.69824202082265" width="1.9374433995124036" height="32.30175797917733" fill="#595959" fill-opacity="1.0" stroke="none"/><rect x="260.08020898641587" y="308.71118913515227" width="1.9374433995123657" height="31.288810864847733" fill="#595959" fill-opacity="1.0" stroke="none"/><rect x="262.0176523859283" y="305.33469875405353" width="1.9374433995123657" height="34.665301245946424" fill="#595959" fill-opacity="1.0" stroke="none"/><rect x="263.9550957854406" y="311.75003047814107" width="1.9374433995123657" height="28.24996952185893" fill="#595959" fill-opacity="1.0" stroke="none"/><rect x="265.89253918495297" y="312.31277887499084" width="1.9374433995123657" height="27.68722112500916" fill="#595959" fill-opacity="1.0" stroke="none"/><rect x="267.82998258446537" y="316.70221637041914" width="1.9374433995123657" height="23.297783629580863" fill="#595959" fill-opacity="1.0" stroke="none"/><rect x="269.7674259839777" y="323.23009777387654" width="1.9374433995123657" height="16.769902226123424" fill="#595959" fill-opacity="1.0" stroke="none"/><rect x="271.70486938349006" y="320.6414551483676" width="1.9374433995123657" height="19.358544851632395" fill="#595959" fill-opacity="1.0" stroke="none"/><rect x="273.64231278300247" y="327.61953526930483" width="1.9374433995123657" height="12.380464730695167" fill="#595959" fill-opacity="1.0" stroke="none"/><rect x="275.5797561825148" y="326.1563894374954" width="1.9374433995123657" height="13.84361056250456" fill="#595959" fill-opacity="1.0" stroke="none"/><rect x="277.51719958202716" y="325.81874039938555" width="1.9374433995123657" height="14.181259600614453" fill="#595959" fill-opacity="1.0" stroke="none"/><rect x="279.45464298153956" y="267.4054568063784" width="1.9374433995123657" height="72.59454319362153" fill="#595959" fill-opacity="1.0" stroke="none"/><rect x="281.3920863810519" y="286.76400165801084" width="1.9374433995124036" height="53.23599834198914" fill="#595959" fill-opacity="1.0" stroke="none"/><rect x="283.3295297805643" y="306.23509618901323" width="1.9374433995123277" height="33.764903810986766" fill="#595959" fill-opacity="1.0" stroke="none"/><rect x="285.26697318007666" y="308.5986394557823" width="1.9374433995124036" height="31.40136054421767" fill="#595959" fill-opacity="1.0" stroke="none"/><rect x="287.20441657958906" y="313.4382756686904" width="1.9374433995123277" height="26.56172433130958" fill="#595959" fill-opacity="1.0" stroke="none"/><rect x="289.14185997910135" y="318.9532099578182" width="1.9374433995123657" height="21.046790042181744" fill="#595959" fill-opacity="1.0" stroke="none"/><rect x="291.07930337861376" y="323.5677468119864" width="1.9374433995124036" height="16.43225318801357" fill="#595959" fill-opacity="1.0" stroke="none"/><rect x="293.01674677812616" y="324.9183429644259" width="1.9374433995123277" height="15.081657035574077" fill="#595959" fill-opacity="1.0" stroke="none"/><rect x="294.95419017763845" y="328.0697339867846" width="1.9374433995124036" height="11.930266013215334" fill="#595959" fill-opacity="1.0" stroke="none"/><rect x="296.89163357715086" y="328.63248238363445" width="1.9374433995123657" height="11.367517616365527" fill="#595959" fill-opacity="1.0" stroke="none"/><rect x="298.82907697666326" y="326.26893911686534" width="1.9374433995123277" height="13.73106088313462" fill="#595959" fill-opacity="1.0" stroke="none"/><rect x="300.76652037617555" y="325.0308926437958" width="1.9374433995124036" height="14.969107356204137" fill="#595959" fill-opacity="1.0" stroke="none"/><rect x="302.70396377568795" y="329.9830785360739" width="1.9374433995123657" height="10.01692146392607" fill="#595959" fill-opacity="1.0" stroke="none"/><rect x="304.64140717520036" y="330.20817789481384" width="1.9374433995123657" height="9.791822105186156" fill="#595959" fill-opacity="1.0" stroke="none"/><rect x="306.5788505747127" y="332.34662180284295" width="1.9374433995123657" height="7.653378197157015" fill="#595959" fill-opacity="1.0" stroke="none"/><rect x="308.51629397422505" y="331.3336746885134" width="1.9374433995123277" height="8.666325311486617" fill="#595959" fill-opacity="1.0" stroke="none"/><rect x="310.4537373737374" y="334.3725160315022" width="1.9374433995123657" height="5.627483968497775" fill="#595959" fill-opacity="1.0" stroke="none"/><rect x="312.39118077324974" y="334.822714748982" width="1.9374433995123657" height="5.177285251017982" fill="#595959" fill-opacity="1.0" stroke="none"/><rect x="314.32862417276215" y="337.0737083363811" width="1.9374433995123657" height="2.9262916636188643" fill="#595959" fill-opacity="1.0" stroke="none"/><rect x="316.2660675722745" y="335.9482115426816" width="1.9374433995123657" height="4.051788457318404" fill="#595959" fill-opacity="1.0" stroke="none"/><rect x="318.20351097178684" y="334.3725160315022" width="1.9374433995123657" height="5.627483968497775" fill="#595959" fill-opacity="1.0" stroke="none"/><rect x="320.14095437129924" y="335.4980128252017" width="1.9374433995123657" height="4.501987174798235" fill="#595959" fill-opacity="1.0" stroke="none"/><rect x="322.0783977708116" y="337.1862580157511" width="1.9374433995123657" height="2.8137419842488876" fill="#595959" fill-opacity="1.0" stroke="none"/><rect x="324.01584117032394" y="337.8615560919708" width="1.9374433995123657" height="2.1384439080291786" fill="#595959" fill-opacity="1.0" stroke="none"/><rect x="325.95328456983634" y="337.97410577134076" width="1.9374433995123657" height="2.025894228659202" fill="#595959" fill-opacity="1.0" stroke="none"/><rect x="327.8907279693487" y="338.31175480945063" width="1.9374433995123657" height="1.6882451905493476" fill="#595959" fill-opacity="1.0" stroke="none"/><rect x="329.82817136886104" y="337.97410577134076" width="1.9374433995123657" height="2.025894228659202" fill="#595959" fill-opacity="1.0" stroke="none"/><rect x="331.76561476837344" y="337.63645673323094" width="1.9374433995124036" height="2.3635432667690566" fill="#595959" fill-opacity="1.0" stroke="none"/><rect x="333.70305816788584" y="339.2121522444103" width="1.9374433995123277" height="0.7878477555896855" fill="#595959" fill-opacity="1.0" stroke="none"/><rect x="335.64050156739813" y="338.7619535269305" width="1.9374433995123657" height="1.2380464730695167" fill="#595959" fill-opacity="1.0" stroke="none"/><rect x="337.57794496691054" y="250.74810425962497" width="1.9374433995123657" height="89.25189574037502" fill="#595959" fill-opacity="1.0" stroke="none"/><rect x="339.5153883664229" y="249.1724087484456" width="1.9374433995124414" height="90.8275912515544" fill="#595959" fill-opacity="1.0" stroke="none"/><rect x="341.45283176593534" y="297.1185721600468" width="1.9374433995123277" height="42.881427839953176" fill="#595959" fill-opacity="1.0" stroke="none"/><rect x="343.39027516544763" y="315.23907053860967" width="1.9374433995123277" height="24.760929461390294" fill="#595959" fill-opacity="1.0" stroke="none"/><rect x="345.32771856496" y="320.4163557896277" width="1.9374433995124036" height="19.583644210372313" fill="#595959" fill-opacity="1.0" stroke="none"/><rect x="347.2651619644724" y="326.04383975812544" width="1.9374433995124036" height="13.956160241874537" fill="#595959" fill-opacity="1.0" stroke="none"/><rect x="349.2026053639848" y="327.7320849486748" width="1.9374433995123277" height="12.26791505132519" fill="#595959" fill-opacity="1.0" stroke="none"/><rect x="351.14004876349713" y="328.0697339867846" width="1.9374433995123277" height="11.930266013215334" fill="#595959" fill-opacity="1.0" stroke="none"/><rect x="353.0774921630094" y="329.9830785360739" width="1.9374433995124036" height="10.01692146392607" fill="#595959" fill-opacity="1.0" stroke="none"/><rect x="355.0149355625218" y="329.9830785360739" width="1.9374433995124036" height="10.01692146392607" fill="#595959" fill-opacity="1.0" stroke="none"/><rect x="356.95237896203423" y="329.30778045985414" width="1.9374433995123277" height="10.692219540145818" fill="#595959" fill-opacity="1.0" stroke="none"/><rect x="358.8898223615466" y="332.7968205203228" width="1.9374433995123277" height="7.203179479677184" fill="#595959" fill-opacity="1.0" stroke="none"/><rect x="360.8272657610589" y="333.13446955843267" width="1.9374433995123277" height="6.865530441567292" fill="#595959" fill-opacity="1.0" stroke="none"/><rect x="362.7647091605712" y="334.3725160315022" width="1.9374433995124036" height="5.627483968497775" fill="#595959" fill-opacity="1.0" stroke="none"/><rect x="364.7021525600836" y="335.1603637870919" width="1.9374433995124036" height="4.83963621290809" fill="#595959" fill-opacity="1.0" stroke="none"/><rect x="366.639595959596" y="336.3984102601614" width="1.9374433995123277" height="3.6015897398385732" fill="#595959" fill-opacity="1.0" stroke="none"/><rect x="368.57703935910837" y="336.62350961890127" width="1.9374433995124036" height="3.3764903810986953" fill="#595959" fill-opacity="1.0" stroke="none"/><rect x="370.5144827586208" y="337.1862580157511" width="1.9374433995123277" height="2.8137419842488876" fill="#595959" fill-opacity="1.0" stroke="none"/><rect x="372.4519261581331" y="337.8615560919708" width="1.9374433995123277" height="2.1384439080291786" fill="#595959" fill-opacity="1.0" stroke="none"/><rect x="374.3893695576454" y="337.298807695121" width="1.9374433995124036" height="2.7011923048789486" fill="#595959" fill-opacity="1.0" stroke="none"/><rect x="376.3268129571578" y="315.80181893545944" width="1.9374433995124036" height="24.198181064540524" fill="#595959" fill-opacity="1.0" stroke="none"/><rect x="378.2642563566702" y="326.6065881549752" width="1.9374433995123277" height="13.393411845024767" fill="#595959" fill-opacity="1.0" stroke="none"/><rect x="380.20169975618256" y="333.58466827591246" width="1.9374433995123277" height="6.4153317240874985" fill="#595959" fill-opacity="1.0" stroke="none"/><rect x="382.1391431556949" y="334.1474166727623" width="1.9374433995124036" height="5.85258332723769" fill="#595959" fill-opacity="1.0" stroke="none"/><rect x="384.0765865552073" y="335.4980128252017" width="1.9374433995124036" height="4.501987174798235" fill="#595959" fill-opacity="1.0" stroke="none"/><rect x="386.0140299547197" y="334.3725160315022" width="1.9374433995123277" height="5.627483968497775" fill="#595959" fill-opacity="1.0" stroke="none"/><rect x="387.951473354232" y="336.8486089776412" width="1.9374433995124036" height="3.15139102235878" fill="#595959" fill-opacity="1.0" stroke="none"/><rect x="389.8889167537444" y="338.08665545071074" width="1.9374433995123277" height="1.9133445492892633" fill="#595959" fill-opacity="1.0" stroke="none"/><rect x="391.82636015325676" y="338.6494038475605" width="1.9374433995124036" height="1.3505961524394554" fill="#595959" fill-opacity="1.0" stroke="none"/><rect x="393.76380355276916" y="338.31175480945063" width="1.9374433995124036" height="1.6882451905493476" fill="#595959" fill-opacity="1.0" stroke="none"/><rect x="395.70124695228156" y="337.63645673323094" width="1.9374433995123277" height="2.3635432667690566" fill="#595959" fill-opacity="1.0" stroke="none"/><rect x="397.6386903517939" y="338.9870528856704" width="1.9374433995123277" height="1.012947114329601" fill="#595959" fill-opacity="1.0" stroke="none"/><rect x="399.5761337513062" y="338.53685416819053" width="1.9374433995124036" height="1.4631458318094321" fill="#595959" fill-opacity="1.0" stroke="none"/><rect x="401.5135771508186" y="337.97410577134076" width="1.9374433995123277" height="2.025894228659202" fill="#595959" fill-opacity="1.0" stroke="none"/><rect x="403.45102055033095" y="339.54980128252015" width="1.9374433995124036" height="0.4501987174798311" fill="#595959" fill-opacity="1.0" stroke="none"/><rect x="405.38846394984336" y="339.6623509618901" width="1.9374433995123277" height="0.33764903810985436" fill="#595959" fill-opacity="1.0" stroke="none"/><rect x="407.3259073493557" y="338.9870528856704" width="1.9374433995123277" height="1.012947114329601" fill="#595959" fill-opacity="1.0" stroke="none"/><rect x="409.263350748868" y="339.2121522444103" width="1.9374433995123277" height="0.7878477555896855" fill="#595959" fill-opacity="1.0" stroke="none"/><rect x="411.20079414838034" y="339.54980128252015" width="1.9374433995124036" height="0.4501987174798311" fill="#595959" fill-opacity="1.0" stroke="none"/><rect x="413.13823754789274" y="339.54980128252015" width="1.9374433995124036" height="0.4501987174798311" fill="#595959" fill-opacity="1.0" stroke="none"/><rect x="415.07568094740515" y="339.2121522444103" width="1.9374433995123277" height="0.7878477555896855" fill="#595959" fill-opacity="1.0" stroke="none"/><rect x="417.0131243469175" y="338.6494038475605" width="1.9374433995124036" height="1.3505961524394554" fill="#595959" fill-opacity="1.0" stroke="none"/><rect x="418.9505677464299" y="339.77490064126005" width="1.9374433995123277" height="0.22509935873991554" fill="#595959" fill-opacity="1.0" stroke="none"/><rect x="420.8880111459422" y="339.32470192378025" width="1.9374433995124036" height="0.6752980762197467" fill="#595959" fill-opacity="1.0" stroke="none"/><rect x="422.8254545454546" y="339.6623509618901" width="1.9374433995124036" height="0.33764903810985436" fill="#595959" fill-opacity="1.0" stroke="none"/><rect x="424.762897944967" y="339.6623509618901" width="1.9374433995123277" height="0.33764903810985436" fill="#595959" fill-opacity="1.0" stroke="none"/><rect x="426.70034134447934" y="339.54980128252015" width="1.9374433995123277" height="0.4501987174798311" fill="#595959" fill-opacity="1.0" stroke="none"/><rect x="428.6377847439917" y="339.54980128252015" width="1.9374433995124036" height="0.4501987174798311" fill="#595959" fill-opacity="1.0" stroke="none"/><rect x="430.5752281435041" y="339.43725160315023" width="1.9374433995123277" height="0.56274839684977" fill="#595959" fill-opacity="1.0" stroke="none"/><rect x="432.5126715430164" y="339.6623509618901" width="1.9374433995124036" height="0.33764903810985436" fill="#595959" fill-opacity="1.0" stroke="none"/><rect x="434.4501149425288" y="310.1743349669617" width="1.9374433995123277" height="29.825665033038298" fill="#595959" fill-opacity="1.0" stroke="none"/><rect x="436.38755834204113" y="290.4781410772194" width="1.9374433995124036" height="49.52185892278059" fill="#595959" fill-opacity="1.0" stroke="none"/><rect x="438.32500174155354" y="320.07870675151776" width="1.937443399512252" height="19.921293248482204" fill="#595959" fill-opacity="1.0" stroke="none"/><rect x="440.26244514106577" y="326.26893911686534" width="1.9374433995124793" height="13.73106088313462" fill="#595959" fill-opacity="1.0" stroke="none"/><rect x="442.1998885405783" y="330.32072757418376" width="1.9374433995123277" height="9.679272425816217" fill="#595959" fill-opacity="1.0" stroke="none"/><rect x="444.1373319400906" y="332.4591714822129" width="1.9374433995124036" height="7.540828517787038" fill="#595959" fill-opacity="1.0" stroke="none"/><rect x="446.074775339603" y="333.24701923780265" width="1.937443399512252" height="6.752980762197353" fill="#595959" fill-opacity="1.0" stroke="none"/><rect x="448.01221873911527" y="334.3725160315022" width="1.9374433995124793" height="5.627483968497775" fill="#595959" fill-opacity="1.0" stroke="none"/><rect x="449.94966213862773" y="335.3854631458318" width="1.9374433995124036" height="4.614536854168174" fill="#595959" fill-opacity="1.0" stroke="none"/><rect x="451.88710553814013" y="334.93526442835196" width="1.9374433995123277" height="5.064735571648005" fill="#595959" fill-opacity="1.0" stroke="none"/><rect x="453.8245489376525" y="334.1474166727623" width="1.937443399512252" height="5.85258332723769" fill="#595959" fill-opacity="1.0" stroke="none"/><rect x="455.7619923371647" y="335.1603637870919" width="1.9374433995123277" height="4.83963621290809" fill="#595959" fill-opacity="1.0" stroke="none"/><rect x="457.69943573667706" y="337.1862580157511" width="1.9374433995124793" height="2.8137419842488876" fill="#595959" fill-opacity="1.0" stroke="none"/><rect x="459.6368791361895" y="337.63645673323094" width="1.9374433995124036" height="2.3635432667690566" fill="#595959" fill-opacity="1.0" stroke="none"/><rect x="461.5743225357019" y="334.5976153902421" width="1.937443399512252" height="5.402384609757897" fill="#595959" fill-opacity="1.0" stroke="none"/><rect x="463.51176593521416" y="337.52390705386097" width="1.9374433995123277" height="2.4760929461390333" fill="#595959" fill-opacity="1.0" stroke="none"/><rect x="465.4492093347265" y="337.1862580157511" width="1.9374433995124793" height="2.8137419842488876" fill="#595959" fill-opacity="1.0" stroke="none"/><rect x="467.38665273423896" y="337.97410577134076" width="1.9374433995124036" height="2.025894228659202" fill="#595959" fill-opacity="1.0" stroke="none"/><rect x="469.32409613375137" y="336.51095993953135" width="1.9374433995123277" height="3.4890400604686342" fill="#595959" fill-opacity="1.0" stroke="none"/><rect x="471.2615395332637" y="337.52390705386097" width="1.937443399512252" height="2.4760929461390333" fill="#595959" fill-opacity="1.0" stroke="none"/><rect x="473.19898293277595" y="336.3984102601614" width="1.937443399512555" height="3.6015897398385732" fill="#595959" fill-opacity="1.0" stroke="none"/><rect x="475.1364263322885" y="337.411357374491" width="1.937443399512252" height="2.588642625508972" fill="#595959" fill-opacity="1.0" stroke="none"/><rect x="477.07386973180076" y="336.9611586570112" width="1.9374433995124036" height="3.0388413429888033" fill="#595959" fill-opacity="1.0" stroke="none"/><rect x="479.01131313131316" y="338.53685416819053" width="1.9374433995123277" height="1.4631458318094321" fill="#595959" fill-opacity="1.0" stroke="none"/><rect x="480.9487565308255" y="338.1992051300807" width="1.937443399512252" height="1.8007948699192866" fill="#595959" fill-opacity="1.0" stroke="none"/><rect x="482.88619993033774" y="337.97410577134076" width="1.937443399512555" height="2.025894228659202" fill="#595959" fill-opacity="1.0" stroke="none"/><rect x="484.8236433298503" y="338.31175480945063" width="1.937443399512252" height="1.6882451905493476" fill="#595959" fill-opacity="1.0" stroke="none"/><rect x="486.76108672936255" y="338.6494038475605" width="1.9374433995124036" height="1.3505961524394554" fill="#595959" fill-opacity="1.0" stroke="none"/><rect x="488.69853012887495" y="337.74900641260086" width="1.937443399512252" height="2.2509935873991176" fill="#595959" fill-opacity="1.0" stroke="none"/><rect x="490.63597352838724" y="338.08665545071074" width="1.937443399512555" height="1.9133445492892633" fill="#595959" fill-opacity="1.0" stroke="none"/><rect x="492.57341692789976" y="337.63645673323094" width="1.937443399512252" height="2.3635432667690566" fill="#595959" fill-opacity="1.0" stroke="none"/><rect x="494.51086032741205" y="338.53685416819053" width="1.9374433995124036" height="1.4631458318094321" fill="#595959" fill-opacity="1.0" stroke="none"/><rect x="496.44830372692445" y="338.1992051300807" width="1.9374433995123277" height="1.8007948699192866" fill="#595959" fill-opacity="1.0" stroke="none"/><rect x="498.38574712643674" y="338.9870528856704" width="1.9374433995124793" height="1.012947114329601" fill="#595959" fill-opacity="1.0" stroke="none"/><rect x="500.32319052594926" y="339.43725160315023" width="1.9374433995123277" height="0.56274839684977" fill="#595959" fill-opacity="1.0" stroke="none"/><rect x="502.26063392546155" y="339.2121522444103" width="1.937443399512252" height="0.7878477555896855" fill="#595959" fill-opacity="1.0" stroke="none"/><rect x="504.19807732497384" y="339.0996025650403" width="1.9374433995124036" height="0.9003974349596622" fill="#595959" fill-opacity="1.0" stroke="none"/><rect x="506.13552072448624" y="339.32470192378025" width="1.9374433995124793" height="0.6752980762197467" fill="#595959" fill-opacity="1.0" stroke="none"/><rect x="508.0729641239987" y="339.0996025650403" width="1.9374433995123277" height="0.9003974349596622" fill="#595959" fill-opacity="1.0" stroke="none"/><rect x="510.01040752351105" y="339.2121522444103" width="1.9374433995123277" height="0.7878477555896855" fill="#595959" fill-opacity="1.0" stroke="none"/><rect x="511.94785092302334" y="338.53685416819053" width="1.9374433995123277" height="1.4631458318094321" fill="#595959" fill-opacity="1.0" stroke="none"/><rect x="513.8852943225356" y="339.43725160315023" width="1.9374433995124793" height="0.56274839684977" fill="#595959" fill-opacity="1.0" stroke="none"/><rect x="515.8227377220481" y="339.0996025650403" width="1.9374433995123277" height="0.9003974349596622" fill="#595959" fill-opacity="1.0" stroke="none"/><rect x="517.7601811215604" y="339.32470192378025" width="1.9374433995123277" height="0.6752980762197467" fill="#595959" fill-opacity="1.0" stroke="none"/><rect x="519.6976245210728" y="339.54980128252015" width="1.937443399512252" height="0.4501987174798311" fill="#595959" fill-opacity="1.0" stroke="none"/><rect x="521.635067920585" y="339.54980128252015" width="1.937443399512555" height="0.4501987174798311" fill="#595959" fill-opacity="1.0" stroke="none"/><rect x="523.5725113200976" y="339.6623509618901" width="1.9374433995123277" height="0.33764903810985436" fill="#595959" fill-opacity="1.0" stroke="none"/><rect x="525.5099547196099" y="339.6623509618901" width="1.9374433995123277" height="0.33764903810985436" fill="#595959" fill-opacity="1.0" stroke="none"/><rect x="527.4473981191222" y="338.9870528856704" width="1.9374433995123277" height="1.012947114329601" fill="#595959" fill-opacity="1.0" stroke="none"/><rect x="529.3848415186346" y="339.6623509618901" width="1.9374433995124793" height="0.33764903810985436" fill="#595959" fill-opacity="1.0" stroke="none"/><rect x="531.322284918147" y="338.08665545071074" width="1.9374433995123277" height="1.9133445492892633" fill="#595959" fill-opacity="1.0" stroke="none"/><rect x="533.2597283176594" y="338.08665545071074" width="1.9374433995123277" height="1.9133445492892633" fill="#595959" fill-opacity="1.0" stroke="none"/><rect x="535.1971717171717" y="338.9870528856704" width="1.9374433995123277" height="1.012947114329601" fill="#595959" fill-opacity="1.0" stroke="none"/><rect x="537.134615116684" y="339.0996025650403" width="1.9374433995123277" height="0.9003974349596622" fill="#595959" fill-opacity="1.0" stroke="none"/><rect x="539.0720585161964" y="338.9870528856704" width="1.9374433995124793" height="1.012947114329601" fill="#595959" fill-opacity="1.0" stroke="none"/><rect x="541.0095019157088" y="339.6623509618901" width="1.9374433995123277" height="0.33764903810985436" fill="#595959" fill-opacity="1.0" stroke="none"/><rect x="542.9469453152212" y="339.6623509618901" width="1.9374433995123277" height="0.33764903810985436" fill="#595959" fill-opacity="1.0" stroke="none"/><rect x="544.8843887147335" y="339.6623509618901" width="1.9374433995123277" height="0.33764903810985436" fill="#595959" fill-opacity="1.0" stroke="none"/><rect x="546.8218321142458" y="339.6623509618901" width="1.9374433995124793" height="0.33764903810985436" fill="#595959" fill-opacity="1.0" stroke="none"/><rect x="548.7592755137583" y="339.88745032063" width="1.9374433995123277" height="0.11254967936993883" fill="#595959" fill-opacity="1.0" stroke="none"/><rect x="550.6967189132706" y="339.6623509618901" width="1.9374433995124036" height="0.33764903810985436" fill="#595959" fill-opacity="1.0" stroke="none"/><rect x="552.634162312783" y="339.6623509618901" width="1.937443399512252" height="0.33764903810985436" fill="#595959" fill-opacity="1.0" stroke="none"/><rect x="556.5090491118078" y="339.6623509618901" width="1.937443399512252" height="0.33764903810985436" fill="#595959" fill-opacity="1.0" stroke="none"/><rect x="558.4464925113201" y="339.88745032063" width="1.9374433995123277" height="0.11254967936993883" fill="#595959" fill-opacity="1.0" stroke="none"/><rect x="560.3839359108324" y="339.88745032063" width="1.9374433995123277" height="0.11254967936993883" fill="#595959" fill-opacity="1.0" stroke="none"/><rect x="562.3213793103448" y="339.6623509618901" width="1.937443399512555" height="0.33764903810985436" fill="#595959" fill-opacity="1.0" stroke="none"/><rect x="564.2588227098573" y="339.88745032063" width="1.937443399512252" height="0.11254967936993883" fill="#595959" fill-opacity="1.0" stroke="none"/><rect x="566.1962661093696" y="339.77490064126005" width="1.9374433995123277" height="0.22509935873991554" fill="#595959" fill-opacity="1.0" stroke="none"/><rect x="570.0711529083943" y="339.88745032063" width="1.9374433995124036" height="0.11254967936993883" fill="#595959" fill-opacity="1.0" stroke="none"/><rect x="572.0085963079067" y="339.88745032063" width="1.9374433995124036" height="0.11254967936993883" fill="#595959" fill-opacity="1.0" stroke="none"/><rect x="573.9460397074191" y="339.6623509618901" width="1.937443399512252" height="0.33764903810985436" fill="#595959" fill-opacity="1.0" stroke="none"/><rect x="577.8209265064437" y="339.6623509618901" width="1.9374433995124793" height="0.33764903810985436" fill="#595959" fill-opacity="1.0" stroke="none"/><rect x="579.7583699059562" y="339.77490064126005" width="1.9374433995124036" height="0.22509935873991554" fill="#595959" fill-opacity="1.0" stroke="none"/><rect x="583.6332567049809" y="339.88745032063" width="1.937443399512252" height="0.11254967936993883" fill="#595959" fill-opacity="1.0" stroke="none"/><rect x="589.445586903518" y="339.77490064126005" width="1.9374433995124036" height="0.22509935873991554" fill="#595959" fill-opacity="1.0" stroke="none"/></svg>