<svg xmlns="http://www.w3.org/2000/svg" width="800" height="600" viewBox="0 0 800 600"><rect x="0.0" y="0.0" width="800.0" height="600.0" fill="#ffffff" fill-opacity="1.0" stroke="none"/><line x1="164.28998606757227" y1="27.0" x2="164.28998606757227" y2="563.8" stroke="#dddddd" stroke-width="0.5"/><line x1="423.05000000000007" y1="27.0" x2="423.05000000000007" y2="563.8" stroke="#dddddd" stroke-width="0.5"/><line x1="681.8100139324279" y1="27.0" x2="681.8100139324279" y2="563.8" stroke="#dddddd" stroke-width="0.5"/><line x1="293.66999303378617" y1="27.0" x2="293.66999303378617" y2="563.8" stroke="#dddddd" stroke-width="1.0"/><line x1="552.4300069662139" y1="27.0" x2="552.4300069662139" y2="563.8" stroke="#dddddd" stroke-width="1.0"/><line x1="51.599999999999994" y1="514.7180016092458" x2="794.5" y2="514.7180016092458" stroke="#dddddd" stroke-width="0.5"/><line x1="51.599999999999994" y1="416.5540048277375" x2="794.5" y2="416.5540048277375" stroke="#dddddd" stroke-width="0.5"/><line x1="51.599999999999994" y1="318.39000804622924" x2="794.5" y2="318.39000804622924" stroke="#dddddd" stroke-width="0.5"/><line x1="51.599999999999994" y1="220.2260112647209" x2="794.5" y2="220.2260112647209" stroke="#dddddd" stroke-width="0.5"/><line x1="51.599999999999994" y1="122.06201448321258" x2="794.5" y2="122.06201448321258" stroke="#dddddd" stroke-width="0.5"/><line x1="51.599999999999994" y1="563.8" x2="794.5" y2="563.8" stroke="#dddddd" stroke-width="1.0"/><line x1="51.599999999999994" y1="465.6360032184916" x2="794.5" y2="465.6360032184916" stroke="#dddddd" stroke-width="1.0"/><line x1="51.599999999999994" y1="367.47200643698335" x2="794.5" y2="367.47200643698335" stroke="#dddddd" stroke-width="1.0"/><line x1="51.599999999999994" y1="269.3080096554751" x2="794.5" y2="269.3080096554751" stroke="#dddddd" stroke-width="1.0"/><line x1="51.599999999999994" y1="171.14401287396674" x2="794.5" y2="171.14401287396674" stroke="#dddddd" stroke-width="1.0"/><line x1="51.599999999999994" y1="72.98001609245847" x2="794.5" y2="72.98001609245847" stroke="#dddddd" stroke-width="1.0"/><rect x="51.599999999999994" y="27.0" width="742.9" height="536.8" fill="#ffffff" fill-opacity="0.0" stroke="#444444" stroke-width="1.0"/><line x1="293.66999303378617" y1="563.8" x2="293.66999303378617" y2="566.55" stroke="#444444" stroke-width="1.0"/><text x="293.66999303378617" y="577.55" fill="#333333" font-size="11.0" font-family="sans-serif" text-anchor="middle">1</text><line x1="552.4300069662139" y1="563.8" x2="552.4300069662139" y2="566.55" stroke="#444444" stroke-width="1.0"/><text x="552.4300069662139" y="577.55" fill="#333333" font-size="11.0" font-family="sans-serif" text-anchor="middle">2</text><line x1="51.599999999999994" y1="563.8" x2="48.849999999999994" y2="563.8" stroke="#444444" stroke-width="1.0"/><text x="46.64999999999999" y="567.65" fill="#333333" font-size="11.0" font-family="sans-serif" text-anchor="end">0</text><line x1="51.599999999999994" y1="465.6360032184916" x2="48.849999999999994" y2="465.6360032184916" stroke="#444444" stroke-width="1.0"/><text x="46.64999999999999" y="469.48600321849165" fill="#333333" font-size="11.0" font-family="sans-serif" text-anchor="end">500</text><line x1="51.599999999999994" y1="367.47200643698335" x2="48.849999999999994" y2="367.47200643698335" stroke="#444444" stroke-width="1.0"/><text x="46.64999999999999" y="371.3220064369834" fill="#333333" font-size="11.0" font-family="sans-serif" text-anchor="end">1000</text><line x1="51.599999999999994" y1="269.3080096554751" x2="48.849999999999994" y2="269.3080096554751" stroke="#444444" stroke-width="1.0"/><text x="46.64999999999999" y="273.1580096554751" fill="#333333" font-size="11.0" font-family="sans-serif" text-anchor="end">1500</text><line x1="51.599999999999994" y1="171.14401287396674" x2="48.849999999999994" y2="171.14401287396674" stroke="#444444" stroke-width="1.0"/><text x="46.64999999999999" y="174.99401287396674" fill="#333333" font-size="11.0" font-family="sans-serif" text-anchor="end">2000</text><line x1="51.599999999999994" y1="72.98001609245847" x2="48.849999999999994" y2="72.98001609245847" stroke="#444444" stroke-width="1.0"/><text x="46.64999999999999" y="76.83001609245846" fill="#333333" font-size="11.0" font-family="sans-serif" text-anchor="end">2500</text><text x="423.04999999999995" y="18.3" fill="#333333" font-size="16.0" font-family="sans-serif" text-anchor="middle">carat&lt;3 の分布 (binwidth=0.01)</text><text x="423.04999999999995" y="592.1" fill="#333333" font-size="12.0" font-family="sans-serif" text-anchor="middle">carat</text><text x="13.899999999999999" y="295.4" fill="#333333" font-size="12.0" font-family="sans-serif" text-anchor="middle" transform="rotate(-90.0 13.899999999999999 295.4)">count</text><rect x="85.36818181818182" y="561.4440640772438" width="2.5876001393242802" height="2.3559359227562027" fill="#1f77b4" fill-opacity="0.7" stroke="none"/><rect x="87.9557819575061" y="562.0330480579328" width="2.587600139324266" height="1.7669519420671804" fill="#1f77b4" fill-opacity="0.7" stroke="none"/><rect x="90.54338209683037" y="562.8183600321848" width="2.5876001393242802" height="0.9816399678151129" fill="#1f77b4" fill-opacity="0.7" stroke="none"/><rect x="93.13098223615465" y="506.2758978860361" width="2.5876001393242802" height="57.52410211396386" fill="#1f77b4" fill-opacity="0.7" stroke="none"/><rect x="95.71858237547893" y="513.9326896349937" width="2.587600139324266" height="49.86731036500623" fill="#1f77b4" fill-opacity="0.7" stroke="none"/><rect x="98.3061825148032" y="522.1784653646405" width="2.5876001393242802" height="41.62153463535947" fill="#1f77b4" fill-opacity="0.7" stroke="none"/><rect x="100.89378265412748" y="514.1290176285568" width="2.5876001393242802" height="49.67098237144319" fill="#1f77b4" fill-opacity="0.7" stroke="none"/><rect x="103.48138279345176" y="518.0555774998171" width="2.5876001393242802" height="45.74442250018285" fill="#1f77b4" fill-opacity="0.7" stroke="none"/><rect x="106.06898293277604" y="524.9270572745227" width="2.5876001393242802" height="38.87294272547729" fill="#1f77b4" fill-opacity="0.7" stroke="none"/><rect x="108.65658307210032" y="538.2773608368078" width="2.5876001393242802" height="25.52263916319214" fill="#1f77b4" fill-opacity="0.7" stroke="none"/><rect x="111.2441832114246" y="52.561904761904714" width="2.587600139324266" height="511.23809523809524" fill="#1f77b4" fill-opacity="0.7" stroke="none"/><rect x="113.83178335074886" y="122.25834247677562" width="2.5876001393242802" height="441.54165752322433" fill="#1f77b4" fill-opacity="0.7" stroke="none"/><rect x="116.41938349007314" y="202.55649184404945" width="2.5876001393242802" height="361.2435081559505" fill="#1f77b4" fill-opacity="0.7" stroke="none"/><rect x="119.00698362939742" y="330.3660156535732" width="2.5876001393242802" height="233.43398434642677" fill="#1f77b4" fill-opacity="0.7" stroke="none"/><rect x="121.5945837687217" y="385.14152585765487" width="2.587600139324266" height="178.65847414234509" fill="#1f77b4" fill-opacity="0.7" stroke="none"/><rect x="124.18218390804597" y="432.8492282934679" width="2.5876001393242802" height="130.95077170653207" fill="#1f77b4" fill-opacity="0.7" stroke="none"/><rect x="126.76978404737025" y="451.50038768195446" width="2.5876001393242802" height="112.29961231804549" fill="#1f77b4" fill-opacity="0.7" stroke="none"/><rect x="129.35738418669453" y="486.4467705361714" width="2.5876001393242802" height="77.35322946382854" fill="#1f77b4" fill-opacity="0.7" stroke="none"/><rect x="131.9449843260188" y="432.2602443127788" width="2.5876001393242802" height="131.53975568722115" fill="#1f77b4" fill-opacity="0.7" stroke="none"/><rect x="134.5325844653431" y="485.66145856191935" width="2.5876001393242802" height="78.13854143808061" fill="#1f77b4" fill-opacity="0.7" stroke="none"/><rect x="137.12018460466737" y="308.7699363616414" width="2.5876001393242802" height="255.03006363835857" fill="#1f77b4" fill-opacity="0.7" stroke="none"/><rect x="139.70778474399165" y="292.474712895911" width="2.5876001393242802" height="271.32528710408894" fill="#1f77b4" fill-opacity="0.7" stroke="none"/><rect x="142.29538488331593" y="425.1924365445102" width="2.5876001393243087" height="138.60756345548975" fill="#1f77b4" fill-opacity="0.7" stroke="none"/><rect x="144.88298502264024" y="467.9919391412478" width="2.587600139324252" height="95.80806085875213" fill="#1f77b4" fill-opacity="0.7" stroke="none"/><rect x="147.4705851619645" y="522.1784653646405" width="2.587600139324252" height="41.62153463535947" fill="#1f77b4" fill-opacity="0.7" stroke="none"/><rect x="150.05818530128874" y="542.2039207080682" width="2.5876001393243087" height="21.5960792919318" fill="#1f77b4" fill-opacity="0.7" stroke="none"/><rect x="152.64578544061305" y="528.853617145783" width="2.587600139324252" height="34.94638285421695" fill="#1f77b4" fill-opacity="0.7" stroke="none"/><rect x="155.2333855799373" y="544.3635286372613" width="2.5876001393243087" height="19.436471362738644" fill="#1f77b4" fill-opacity="0.7" stroke="none"/><rect x="157.8209857192616" y="551.4313364055299" width="2.587600139324252" height="12.368663594470036" fill="#1f77b4" fill-opacity="0.7" stroke="none"/><rect x="160.40858585858587" y="554.9652402896642" width="2.5876001393242802" height="8.834759710335788" fill="#1f77b4" fill-opacity="0.7" stroke="none"/><rect x="162.99618599791015" y="316.81938409772505" width="2.5876001393242802" height="246.9806159022749" fill="#1f77b4" fill-opacity="0.7" stroke="none"/><rect x="165.58378613723443" y="342.5383512544803" width="2.587600139324252" height="221.26164874551966" fill="#1f77b4" fill-opacity="0.7" stroke="none"/><rect x="168.17138627655868" y="403.40002925901535" width="2.5876001393243087" height="160.3999707409846" fill="#1f77b4" fill-opacity="0.7" stroke="none"/><rect x="170.758986415883" y="424.6034525638212" width="2.5876001393242802" height="139.19654743617878" fill="#1f77b4" fill-opacity="0.7" stroke="none"/><rect x="173.34658655520727" y="441.0950040231146" width="2.5876001393242802" height="122.70499597688536" fill="#1f77b4" fill-opacity="0.7" stroke="none"/><rect x="175.93418669453155" y="466.4213151927437" width="2.587600139324252" height="97.37868480725626" fill="#1f77b4" fill-opacity="0.7" stroke="none"/><rect x="178.5217868338558" y="467.20662716699576" width="2.5876001393242802" height="96.5933728330042" fill="#1f77b4" fill-opacity="0.7" stroke="none"/><rect x="181.10938697318008" y="479.3789627679028" width="2.5876001393242802" height="84.42103723209715" fill="#1f77b4" fill-opacity="0.7" stroke="none"/><rect x="183.69698711250436" y="502.93832199546483" width="2.5876001393242802" height="60.86167800453512" fill="#1f77b4" fill-opacity="0.7" stroke="none"/><rect x="186.28458725182864" y="508.43550581522925" width="2.5876001393242802" height="55.364494184770706" fill="#1f77b4" fill-opacity="0.7" stroke="none"/><rect x="188.87218739115292" y="519.0372174676322" width="2.587600139324252" height="44.76278253236774" fill="#1f77b4" fill-opacity="0.7" stroke="none"/><rect x="191.45978753047717" y="523.7490893131446" width="2.5876001393243087" height="40.05091068685533" fill="#1f77b4" fill-opacity="0.7" stroke="none"/><rect x="194.04738766980148" y="537.2957208689927" width="2.5876001393242802" height="26.50427913100725" fill="#1f77b4" fill-opacity="0.7" stroke="none"/><rect x="196.63498780912576" y="543.7745446565723" width="2.5876001393242802" height="20.025455343427666" fill="#1f77b4" fill-opacity="0.7" stroke="none"/><rect x="199.22258794845004" y="548.0937605149586" width="2.587600139324252" height="15.706239485041351" fill="#1f77b4" fill-opacity="0.7" stroke="none"/><rect x="201.8101880877743" y="551.0386804184038" width="2.5876001393243087" height="12.761319581596126" fill="#1f77b4" fill-opacity="0.7" stroke="none"/><rect x="204.3977882270986" y="554.3762563089751" width="2.5876001393242802" height="9.42374369102481" fill="#1f77b4" fill-opacity="0.7" stroke="none"/><rect x="206.98538836642288" y="554.3762563089751" width="2.5876001393242802" height="9.42374369102481" fill="#1f77b4" fill-opacity="0.7" stroke="none"/><rect x="209.57298850574716" y="558.8918001609245" width="2.587600139324252" height="4.908199839075451" fill="#1f77b4" fill-opacity="0.7" stroke="none"/><rect x="212.1605886450714" y="558.6954721673616" width="2.5876001393243087" height="5.104527832638382" fill="#1f77b4" fill-opacity="0.7" stroke="none"/><rect x="214.74818878439572" y="174.8742447516641" width="2.5876001393242802" height="388.92575524833586" fill="#1f77b4" fill-opacity="0.7" stroke="none"/><rect x="217.33578892372" y="309.7515763294565" width="2.5876001393242802" height="254.04842367054346" fill="#1f77b4" fill-opacity="0.7" stroke="none"/><rect x="219.92338906304428" y="413.8054129178553" width="2.587600139324252" height="149.99458708214468" fill="#1f77b4" fill-opacity="0.7" stroke="none"/><rect x="222.51098920236853" y="467.20662716699576" width="2.5876001393243087" height="96.5933728330042" fill="#1f77b4" fill-opacity="0.7" stroke="none"/><rect x="225.09858934169284" y="500.58238607270863" width="2.5876001393242802" height="63.217613927291325" fill="#1f77b4" fill-opacity="0.7" stroke="none"/><rect x="227.68618948101712" y="514.9143296028088" width="2.587600139324252" height="48.88567039719112" fill="#1f77b4" fill-opacity="0.7" stroke="none"/><rect x="230.27378962034138" y="514.5216736156827" width="2.5876001393242802" height="49.27832638431721" fill="#1f77b4" fill-opacity="0.7" stroke="none"/><rect x="232.86138975966566" y="514.5216736156827" width="2.587600139324252" height="49.27832638431721" fill="#1f77b4" fill-opacity="0.7" stroke="none"/><rect x="235.4489898989899" y="527.0866652037158" width="2.587600139324252" height="36.71333479628413" fill="#1f77b4" fill-opacity="0.7" stroke="none"/><rect x="238.03659003831416" y="533.3691609977324" width="2.5876001393243087" height="30.43083900226759" fill="#1f77b4" fill-opacity="0.7" stroke="none"/><rect x="240.62419017763847" y="508.0428498281032" width="2.587600139324252" height="55.75715017189674" fill="#1f77b4" fill-opacity="0.7" stroke="none"/><rect x="243.21179031696272" y="524.5344012873966" width="2.5876001393243087" height="39.26559871260338" fill="#1f77b4" fill-opacity="0.7" stroke="none"/><rect x="245.79939045628703" y="536.3140809011776" width="2.5876001393242802" height="27.485919098822365" fill="#1f77b4" fill-opacity="0.7" stroke="none"/><rect x="248.3869905956113" y="538.0810328432448" width="2.587600139324252" height="25.718967156755184" fill="#1f77b4" fill-opacity="0.7" stroke="none"/><rect x="250.97459073493556" y="551.2350084119669" width="2.5876001393243087" height="12.564991588033081" fill="#1f77b4" fill-opacity="0.7" stroke="none"/><rect x="253.56219087425987" y="551.627664399093" width="2.5876001393242802" height="12.17233560090699" fill="#1f77b4" fill-opacity="0.7" stroke="none"/><rect x="256.14979101358415" y="557.1248482188574" width="2.587600139324252" height="6.675151781142517" fill="#1f77b4" fill-opacity="0.7" stroke="none"/><rect x="258.7373911529084" y="557.7138321995465" width="2.5876001393243087" height="6.086167800453495" fill="#1f77b4" fill-opacity="0.7" stroke="none"/><rect x="261.3249912922327" y="559.2844561480506" width="2.587600139324252" height="4.51554385194936" fill="#1f77b4" fill-opacity="0.7" stroke="none"/><rect x="263.91259143155696" y="559.6771121351766" width="2.5876001393243087" height="4.122887864823383" fill="#1f77b4" fill-opacity="0.7" stroke="none"/><rect x="266.50019157088127" y="272.2529295589203" width="2.5876001393243087" height="291.54707044107965" fill="#1f77b4" fill-opacity="0.7" stroke="none"/><rect x="269.0877917102056" y="451.8930436690805" width="2.587600139324195" height="111.90695633091946" fill="#1f77b4" fill-opacity="0.7" stroke="none"/><rect x="271.6753918495298" y="519.4298734547582" width="2.5876001393243087" height="44.37012654524176" fill="#1f77b4" fill-opacity="0.7" stroke="none"/><rect x="274.2629919888541" y="535.9214249140516" width="2.5876001393243087" height="27.87857508594834" fill="#1f77b4" fill-opacity="0.7" stroke="none"/><rect x="276.8505921281784" y="552.216648379782" width="2.587600139324252" height="11.583351620217968" fill="#1f77b4" fill-opacity="0.7" stroke="none"/><rect x="279.43819226750264" y="551.0386804184038" width="2.5876001393243087" height="12.761319581596126" fill="#1f77b4" fill-opacity="0.7" stroke="none"/><rect x="282.02579240682695" y="543.5782166630092" width="2.587600139324252" height="20.22178333699071" fill="#1f77b4" fill-opacity="0.7" stroke="none"/><rect x="284.6133925461512" y="552.216648379782" width="2.5876001393243087" height="11.583351620217968" fill="#1f77b4" fill-opacity="0.7" stroke="none"/><rect x="287.2009926854755" y="557.7138321995465" width="2.5876001393243087" height="6.086167800453495" fill="#1f77b4" fill-opacity="0.7" stroke="none"/><rect x="289.7885928247998" y="559.2844561480506" width="2.587600139324195" height="4.51554385194936" fill="#1f77b4" fill-opacity="0.7" stroke="none"/><rect x="292.376192964124" y="257.9209860288201" width="2.5876001393243087" height="305.87901397117986" fill="#1f77b4" fill-opacity="0.7" stroke="none"/><rect x="294.9637931034483" y="123.63263843171671" width="2.5876001393243087" height="440.16736156828324" fill="#1f77b4" fill-opacity="0.7" stroke="none"/><rect x="297.55139324277263" y="390.4423816838563" width="2.587600139324252" height="173.35761831614366" fill="#1f77b4" fill-opacity="0.7" stroke="none"/><rect x="300.1389933820969" y="461.12045936654226" width="2.587600139324252" height="102.67954063345769" fill="#1f77b4" fill-opacity="0.7" stroke="none"/><rect x="302.72659352142114" y="470.5442030575671" width="2.587600139324252" height="93.25579694243288" fill="#1f77b4" fill-opacity="0.7" stroke="none"/><rect x="305.3141936607454" y="492.92559432375094" width="2.587600139324252" height="70.87440567624901" fill="#1f77b4" fill-opacity="0.7" stroke="none"/><rect x="307.90179380006964" y="490.56965840099474" width="2.5876001393243087" height="73.23034159900521" fill="#1f77b4" fill-opacity="0.7" stroke="none"/><rect x="310.48939393939395" y="496.6558262014483" width="2.5876001393243087" height="67.14417379855166" fill="#1f77b4" fill-opacity="0.7" stroke="none"/><rect x="313.07699407871826" y="515.5033135834979" width="2.587600139324195" height="48.2966864165021" fill="#1f77b4" fill-opacity="0.7" stroke="none"/><rect x="315.66459421804245" y="507.4538658474142" width="2.5876001393243087" height="56.34613415258576" fill="#1f77b4" fill-opacity="0.7" stroke="none"/><rect x="318.25219435736676" y="509.2208177894813" width="2.5876001393243087" height="54.57918221051864" fill="#1f77b4" fill-opacity="0.7" stroke="none"/><rect x="320.83979449669107" y="503.33097798259087" width="2.5876001393243087" height="60.46902201740909" fill="#1f77b4" fill-opacity="0.7" stroke="none"/><rect x="323.4273946360154" y="514.5216736156827" width="2.5876001393243087" height="49.27832638431721" fill="#1f77b4" fill-opacity="0.7" stroke="none"/><rect x="326.0149947753397" y="515.5033135834979" width="2.587600139324195" height="48.2966864165021" fill="#1f77b4" fill-opacity="0.7" stroke="none"/><rect x="328.6025949146639" y="523.1601053324555" width="2.5876001393243087" height="40.63989466754447" fill="#1f77b4" fill-opacity="0.7" stroke="none"/><rect x="331.1901950539882" y="534.5471289591105" width="2.5876001393243087" height="29.25287104088943" fill="#1f77b4" fill-opacity="0.7" stroke="none"/><rect x="333.7777951933125" y="530.031585107161" width="2.587600139324195" height="33.768414892838905" fill="#1f77b4" fill-opacity="0.7" stroke="none"/><rect x="336.3653953326367" y="542.2039207080682" width="2.5876001393243087" height="21.5960792919318" fill="#1f77b4" fill-opacity="0.7" stroke="none"/><rect x="338.952995471961" y="539.6516567917489" width="2.5876001393243087" height="24.14834320825105" fill="#1f77b4" fill-opacity="0.7" stroke="none"/><rect x="341.5405956112853" y="539.0626728110599" width="2.5876001393243087" height="24.73732718894007" fill="#1f77b4" fill-opacity="0.7" stroke="none"/><rect x="344.1281957506096" y="437.16844415185426" width="2.587600139324195" height="126.6315558481457" fill="#1f77b4" fill-opacity="0.7" stroke="none"/><rect x="346.7157958899338" y="470.9368590446931" width="2.5876001393243087" height="92.86314095530685" fill="#1f77b4" fill-opacity="0.7" stroke="none"/><rect x="349.3033960292581" y="504.901601931095" width="2.5876001393243087" height="58.89839806890495" fill="#1f77b4" fill-opacity="0.7" stroke="none"/><rect x="351.89099616858243" y="509.0244897959183" width="2.5876001393243087" height="54.77551020408163" fill="#1f77b4" fill-opacity="0.7" stroke="none"/><rect x="354.47859630790674" y="517.4665935191281" width="2.587600139324195" height="46.33340648087187" fill="#1f77b4" fill-opacity="0.7" stroke="none"/><rect x="357.06619644723094" y="527.0866652037158" width="2.5876001393243087" height="36.71333479628413" fill="#1f77b4" fill-opacity="0.7" stroke="none"/><rect x="359.65379658655525" y="535.1361129397995" width="2.5876001393243087" height="28.66388706020041" fill="#1f77b4" fill-opacity="0.7" stroke="none"/><rect x="362.24139672587955" y="537.4920488625557" width="2.5876001393243087" height="26.307951137444206" fill="#1f77b4" fill-opacity="0.7" stroke="none"/><rect x="364.82899686520386" y="542.9892326823202" width="2.587600139324195" height="20.810767317679733" fill="#1f77b4" fill-opacity="0.7" stroke="none"/><rect x="367.41659700452806" y="543.9708726501353" width="2.5876001393243087" height="19.82912734986462" fill="#1f77b4" fill-opacity="0.7" stroke="none"/><rect x="370.00419714385237" y="539.847984785312" width="2.5876001393243087" height="23.952015214688004" fill="#1f77b4" fill-opacity="0.7" stroke="none"/><rect x="372.5917972831767" y="537.6883768561188" width="2.5876001393243087" height="26.11162314388116" fill="#1f77b4" fill-opacity="0.7" stroke="none"/><rect x="375.179397422501" y="546.3268085728914" width="2.5876001393243087" height="17.47319142710853" fill="#1f77b4" fill-opacity="0.7" stroke="none"/><rect x="377.7669975618253" y="546.7194645600175" width="2.587600139324195" height="17.08053543998244" fill="#1f77b4" fill-opacity="0.7" stroke="none"/><rect x="380.3545977011495" y="550.4496964377148" width="2.5876001393243087" height="13.350303562285148" fill="#1f77b4" fill-opacity="0.7" stroke="none"/><rect x="382.9421978404738" y="548.6827444956476" width="2.587600139324195" height="15.117255504352329" fill="#1f77b4" fill-opacity="0.7" stroke="none"/><rect x="385.529797979798" y="553.9836003218492" width="2.5876001393243087" height="9.816399678150788" fill="#1f77b4" fill-opacity="0.7" stroke="none"/><rect x="388.1173981191223" y="554.7689122961012" width="2.5876001393243087" height="9.03108770389872" fill="#1f77b4" fill-opacity="0.7" stroke="none"/><rect x="390.7049982584466" y="558.6954721673616" width="2.587600139324195" height="5.104527832638382" fill="#1f77b4" fill-opacity="0.7" stroke="none"/><rect x="393.2925983977708" y="556.7321922317313" width="2.5876001393243087" height="7.067807768268608" fill="#1f77b4" fill-opacity="0.7" stroke="none"/><rect x="395.8801985370951" y="553.9836003218492" width="2.5876001393243087" height="9.816399678150788" fill="#1f77b4" fill-opacity="0.7" stroke="none"/><rect x="398.4677986764194" y="555.9468802574793" width="2.5876001393243087" height="7.853119742520676" fill="#1f77b4" fill-opacity="0.7" stroke="none"/><rect x="401.05539881574373" y="558.8918001609245" width="2.587600139324195" height="4.908199839075451" fill="#1f77b4" fill-opacity="0.7" stroke="none"/><rect x="403.6429989550679" y="560.0697681223027" width="2.5876001393243087" height="3.7302318776972925" fill="#1f77b4" fill-opacity="0.7" stroke="none"/><rect x="406.23059909439223" y="560.2660961158657" width="2.5876001393243087" height="3.533903884134247" fill="#1f77b4" fill-opacity="0.7" stroke="none"/><rect x="408.81819923371654" y="560.8550800965547" width="2.5876001393243087" height="2.944919903445225" fill="#1f77b4" fill-opacity="0.7" stroke="none"/><rect x="411.40579937304085" y="560.2660961158657" width="2.587600139324195" height="3.533903884134247" fill="#1f77b4" fill-opacity="0.7" stroke="none"/><rect x="413.99339951236504" y="559.6771121351766" width="2.5876001393243087" height="4.122887864823383" fill="#1f77b4" fill-opacity="0.7" stroke="none"/><rect x="416.58099965168935" y="562.4257040450589" width="2.5876001393243087" height="1.3742959549410898" fill="#1f77b4" fill-opacity="0.7" stroke="none"/><rect x="419.16859979101366" y="561.6403920708068" width="2.5876001393243087" height="2.1596079291931574" fill="#1f77b4" fill-opacity="0.7" stroke="none"/><rect x="421.75619993033797" y="408.11190110452776" width="2.587600139324195" height="155.6880988954722" fill="#1f77b4" fill-opacity="0.7" stroke="none"/><rect x="424.34380006966217" y="405.3633091946456" width="2.5876001393243087" height="158.43669080535437" fill="#1f77b4" fill-opacity="0.7" stroke="none"/><rect x="426.9314002089865" y="488.9990344524906" width="2.5876001393243087" height="74.80096554750935" fill="#1f77b4" fill-opacity="0.7" stroke="none"/><rect x="429.5190003483108" y="520.6078414161364" width="2.5876001393243087" height="43.1921585838636" fill="#1f77b4" fill-opacity="0.7" stroke="none"/><rect x="432.1066004876351" y="529.6389291200351" width="2.587600139324195" height="34.16107087996488" fill="#1f77b4" fill-opacity="0.7" stroke="none"/><rect x="434.6942006269593" y="539.4553287981859" width="2.5876001393243087" height="24.344671201814094" fill="#1f77b4" fill-opacity="0.7" stroke="none"/><rect x="437.2818007662836" y="542.4002487016312" width="2.5876001393243087" height="21.399751298368756" fill="#1f77b4" fill-opacity="0.7" stroke="none"/><rect x="439.8694009056079" y="542.9892326823202" width="2.587600139324195" height="20.810767317679733" fill="#1f77b4" fill-opacity="0.7" stroke="none"/><rect x="442.4570010449321" y="546.3268085728914" width="2.5876001393244223" height="17.47319142710853" fill="#1f77b4" fill-opacity="0.7" stroke="none"/><rect x="445.0446011842565" y="546.3268085728914" width="2.587600139324195" height="17.47319142710853" fill="#1f77b4" fill-opacity="0.7" stroke="none"/><rect x="447.6322013235807" y="545.1488406115134" width="2.5876001393243087" height="18.651159388486576" fill="#1f77b4" fill-opacity="0.7" stroke="none"/><rect x="450.219801462905" y="551.2350084119669" width="2.587600139324195" height="12.564991588033081" fill="#1f77b4" fill-opacity="0.7" stroke="none"/><rect x="452.8074016022292" y="551.8239923926559" width="2.5876001393243087" height="11.976007607344059" fill="#1f77b4" fill-opacity="0.7" stroke="none"/><rect x="455.39500174155353" y="553.9836003218492" width="2.5876001393243087" height="9.816399678150788" fill="#1f77b4" fill-opacity="0.7" stroke="none"/><rect x="457.98260188087784" y="555.3578962767903" width="2.587600139324195" height="8.442103723209698" fill="#1f77b4" fill-opacity="0.7" stroke="none"/><rect x="460.57020202020203" y="557.5175042059834" width="2.5876001393243087" height="6.2824957940165405" fill="#1f77b4" fill-opacity="0.7" stroke="none"/><rect x="463.15780215952634" y="557.9101601931095" width="2.5876001393243087" height="5.88983980689045" fill="#1f77b4" fill-opacity="0.7" stroke="none"/><rect x="465.74540229885065" y="558.8918001609245" width="2.5876001393243087" height="4.908199839075451" fill="#1f77b4" fill-opacity="0.7" stroke="none"/><rect x="468.33300243817496" y="560.0697681223027" width="2.587600139324195" height="3.7302318776972925" fill="#1f77b4" fill-opacity="0.7" stroke="none"/><rect x="470.92060257749915" y="559.0881281544875" width="2.5876001393243087" height="4.711871845512405" fill="#1f77b4" fill-opacity="0.7" stroke="none"/><rect x="473.50820271682346" y="521.5894813839514" width="2.5876001393243087" height="42.2105186160486" fill="#1f77b4" fill-opacity="0.7" stroke="none"/><rect x="476.09580285614777" y="540.436968766001" width="2.587600139324195" height="23.36303123399898" fill="#1f77b4" fill-opacity="0.7" stroke="none"/><rect x="478.68340299547197" y="552.609304366908" width="2.5876001393243087" height="11.190695633091991" fill="#1f77b4" fill-opacity="0.7" stroke="none"/><rect x="481.2710031347963" y="553.5909443347231" width="2.5876001393243087" height="10.209055665276878" fill="#1f77b4" fill-opacity="0.7" stroke="none"/><rect x="483.8586032741206" y="555.9468802574793" width="2.5876001393243087" height="7.853119742520676" fill="#1f77b4" fill-opacity="0.7" stroke="none"/><rect x="486.4462034134449" y="553.9836003218492" width="2.587600139324195" height="9.816399678150788" fill="#1f77b4" fill-opacity="0.7" stroke="none"/><rect x="489.0338035527691" y="558.3028161802355" width="2.5876001393244223" height="5.497183819764473" fill="#1f77b4" fill-opacity="0.7" stroke="none"/><rect x="491.6214036920935" y="560.4624241094286" width="2.587600139324195" height="3.3375758905713155" fill="#1f77b4" fill-opacity="0.7" stroke="none"/><rect x="494.2090038314177" y="561.4440640772438" width="2.5876001393243087" height="2.3559359227562027" fill="#1f77b4" fill-opacity="0.7" stroke="none"/><rect x="496.796603970742" y="560.8550800965547" width="2.5876001393243087" height="2.944919903445225" fill="#1f77b4" fill-opacity="0.7" stroke="none"/><rect x="499.3842041100663" y="559.6771121351766" width="2.587600139324195" height="4.122887864823383" fill="#1f77b4" fill-opacity="0.7" stroke="none"/><rect x="501.9718042493905" y="562.0330480579328" width="2.5876001393243087" height="1.7669519420671804" fill="#1f77b4" fill-opacity="0.7" stroke="none"/><rect x="504.5594043887148" y="561.2477360836807" width="2.5876001393243087" height="2.552263916319248" fill="#1f77b4" fill-opacity="0.7" stroke="none"/><rect x="507.14700452803913" y="560.2660961158657" width="2.5876001393243087" height="3.533903884134247" fill="#1f77b4" fill-opacity="0.7" stroke="none"/><rect x="509.73460466736344" y="563.0146880257479" width="2.587600139324195" height="0.7853119742520676" fill="#1f77b4" fill-opacity="0.7" stroke="none"/><rect x="512.3222048066876" y="563.2110160193109" width="2.5876001393243087" height="0.5889839806890222" fill="#1f77b4" fill-opacity="0.7" stroke="none"/><rect x="514.909804946012" y="562.0330480579328" width="2.587600139324195" height="1.7669519420671804" fill="#1f77b4" fill-opacity="0.7" stroke="none"/><rect x="517.4974050853361" y="562.4257040450589" width="2.5876001393243087" height="1.3742959549410898" fill="#1f77b4" fill-opacity="0.7" stroke="none"/><rect x="520.0850052246604" y="563.0146880257479" width="2.5876001393243087" height="0.7853119742520676" fill="#1f77b4" fill-opacity="0.7" stroke="none"/><rect x="522.6726053639848" y="563.0146880257479" width="2.587600139324195" height="0.7853119742520676" fill="#1f77b4" fill-opacity="0.7" stroke="none"/><rect x="525.260205503309" y="562.4257040450589" width="2.5876001393243087" height="1.3742959549410898" fill="#1f77b4" fill-opacity="0.7" stroke="none"/><rect x="527.8478056426333" y="561.4440640772438" width="2.5876001393243087" height="2.3559359227562027" fill="#1f77b4" fill-opacity="0.7" stroke="none"/><rect x="530.4354057819576" y="563.407344012874" width="2.5876001393243087" height="0.39265598712597694" fill="#1f77b4" fill-opacity="0.7" stroke="none"/><rect x="533.0230059212819" y="562.6220320386219" width="2.587600139324195" height="1.1779679613780445" fill="#1f77b4" fill-opacity="0.7" stroke="none"/><rect x="535.6106060606061" y="563.2110160193109" width="2.5876001393244223" height="0.5889839806890222" fill="#1f77b4" fill-opacity="0.7" stroke="none"/><rect x="538.1982061999305" y="563.2110160193109" width="2.587600139324195" height="0.5889839806890222" fill="#1f77b4" fill-opacity="0.7" stroke="none"/><rect x="540.7858063392547" y="563.0146880257479" width="2.5876001393243087" height="0.7853119742520676" fill="#1f77b4" fill-opacity="0.7" stroke="none"/><rect x="543.373406478579" y="563.0146880257479" width="2.5876001393243087" height="0.7853119742520676" fill="#1f77b4" fill-opacity="0.7" stroke="none"/><rect x="545.9610066179033" y="562.8183600321848" width="2.587600139324195" height="0.9816399678151129" fill="#1f77b4" fill-opacity="0.7" stroke="none"/><rect x="548.5486067572275" y="563.2110160193109" width="2.5876001393243087" height="0.5889839806890222" fill="#1f77b4" fill-opacity="0.7" stroke="none"/><rect x="551.1362068965518" y="511.77308170580056" width="2.587600139324195" height="52.02691829419939" fill="#1f77b4" fill-opacity="0.7" stroke="none"/><rect x="553.723807035876" y="477.41568283227264" width="2.5876001393244223" height="86.38431716772732" fill="#1f77b4" fill-opacity="0.7" stroke="none"/><rect x="556.3114071752004" y="529.049945139346" width="2.5876001393240813" height="34.750054860653904" fill="#1f77b4" fill-opacity="0.7" stroke="none"/><rect x="558.8990073145245" y="539.847984785312" width="2.5876001393244223" height="23.952015214688004" fill="#1f77b4" fill-opacity="0.7" stroke="none"/><rect x="561.4866074538489" y="546.9157925535806" width="2.587600139324195" height="16.884207446419396" fill="#1f77b4" fill-opacity="0.7" stroke="none"/><rect x="564.0742075931731" y="550.6460244312779" width="2.5876001393244223" height="13.153975568722103" fill="#1f77b4" fill-opacity="0.7" stroke="none"/><rect x="566.6618077324976" y="552.0203203862189" width="2.5876001393240813" height="11.779679613781013" fill="#1f77b4" fill-opacity="0.7" stroke="none"/><rect x="569.2494078718216" y="553.9836003218492" width="2.5876001393244223" height="9.816399678150788" fill="#1f77b4" fill-opacity="0.7" stroke="none"/><rect x="571.837008011146" y="555.7505522639162" width="2.5876001393243087" height="8.04944773608372" fill="#1f77b4" fill-opacity="0.7" stroke="none"/><rect x="574.4246081504704" y="554.9652402896642" width="2.587600139324195" height="8.834759710335788" fill="#1f77b4" fill-opacity="0.7" stroke="none"/><rect x="577.0122082897946" y="553.5909443347231" width="2.587600139324195" height="10.209055665276878" fill="#1f77b4" fill-opacity="0.7" stroke="none"/><rect x="579.5998084291188" y="555.3578962767903" width="2.5876001393243087" height="8.442103723209698" fill="#1f77b4" fill-opacity="0.7" stroke="none"/><rect x="582.1874085684431" y="558.8918001609245" width="2.5876001393244223" height="4.908199839075451" fill="#1f77b4" fill-opacity="0.7" stroke="none"/><rect x="584.7750087077675" y="559.6771121351766" width="2.587600139324195" height="4.122887864823383" fill="#1f77b4" fill-opacity="0.7" stroke="none"/><rect x="587.3626088470917" y="554.3762563089751" width="2.587600139324195" height="9.42374369102481" fill="#1f77b4" fill-opacity="0.7" stroke="none"/><rect x="589.9502089864159" y="559.4807841416136" width="2.5876001393243087" height="4.319215858386315" fill="#1f77b4" fill-opacity="0.7" stroke="none"/><rect x="592.5378091257402" y="558.8918001609245" width="2.5876001393244223" height="4.908199839075451" fill="#1f77b4" fill-opacity="0.7" stroke="none"/><rect x="595.1254092650646" y="560.2660961158657" width="2.587600139324195" height="3.533903884134247" fill="#1f77b4" fill-opacity="0.7" stroke="none"/><rect x="597.7130094043888" y="557.7138321995465" width="2.5876001393243087" height="6.086167800453495" fill="#1f77b4" fill-opacity="0.7" stroke="none"/><rect x="600.3006095437131" y="559.4807841416136" width="2.5876001393240813" height="4.319215858386315" fill="#1f77b4" fill-opacity="0.7" stroke="none"/><rect x="602.8882096830372" y="557.5175042059834" width="2.587600139324536" height="6.2824957940165405" fill="#1f77b4" fill-opacity="0.7" stroke="none"/><rect x="605.4758098223617" y="559.2844561480506" width="2.587600139324195" height="4.51554385194936" fill="#1f77b4" fill-opacity="0.7" stroke="none"/><rect x="608.0634099616859" y="558.4991441737985" width="2.587600139324195" height="5.300855826201428" fill="#1f77b4" fill-opacity="0.7" stroke="none"/><rect x="610.6510101010101" y="561.2477360836807" width="2.5876001393243087" height="2.552263916319248" fill="#1f77b4" fill-opacity="0.7" stroke="none"/><rect x="613.2386102403344" y="560.6587521029917" width="2.587600139324195" height="3.1412478970082702" fill="#1f77b4" fill-opacity="0.7" stroke="none"/><rect x="615.8262103796586" y="560.2660961158657" width="2.5876001393244223" height="3.533903884134247" fill="#1f77b4" fill-opacity="0.7" stroke="none"/><rect x="618.413810518983" y="560.8550800965547" width="2.587600139324195" height="2.944919903445225" fill="#1f77b4" fill-opacity="0.7" stroke="none"/><rect x="621.0014106583072" y="561.4440640772438" width="2.5876001393243087" height="2.3559359227562027" fill="#1f77b4" fill-opacity="0.7" stroke="none"/><rect x="623.5890107976315" y="559.8734401287396" width="2.587600139324195" height="3.926559871260338" fill="#1f77b4" fill-opacity="0.7" stroke="none"/><rect x="626.1766109369557" y="560.4624241094286" width="2.5876001393244223" height="3.3375758905713155" fill="#1f77b4" fill-opacity="0.7" stroke="none"/><rect x="628.7642110762802" y="559.6771121351766" width="2.587600139324195" height="4.122887864823383" fill="#1f77b4" fill-opacity="0.7" stroke="none"/><rect x="631.3518112156044" y="561.2477360836807" width="2.5876001393243087" height="2.552263916319248" fill="#1f77b4" fill-opacity="0.7" stroke="none"/><rect x="633.9394113549287" y="560.6587521029917" width="2.587600139324195" height="3.1412478970082702" fill="#1f77b4" fill-opacity="0.7" stroke="none"/><rect x="636.5270114942529" y="562.0330480579328" width="2.5876001393244223" height="1.7669519420671804" fill="#1f77b4" fill-opacity="0.7" stroke="none"/><rect x="639.1146116335773" y="562.8183600321848" width="2.5876001393243087" height="0.9816399678151129" fill="#1f77b4" fill-opacity="0.7" stroke="none"/><rect x="641.7022117729016" y="562.4257040450589" width="2.5876001393240813" height="1.3742959549410898" fill="#1f77b4" fill-opacity="0.7" stroke="none"/><rect x="644.2898119122257" y="562.2293760514958" width="2.5876001393243087" height="1.5706239485041351" fill="#1f77b4" fill-opacity="0.7" stroke="none"/><rect x="646.87741205155" y="562.6220320386219" width="2.5876001393244223" height="1.1779679613780445" fill="#1f77b4" fill-opacity="0.7" stroke="none"/><rect x="649.4650121908744" y="562.2293760514958" width="2.587600139324195" height="1.5706239485041351" fill="#1f77b4" fill-opacity="0.7" stroke="none"/><rect x="652.0526123301986" y="562.4257040450589" width="2.5876001393243087" height="1.3742959549410898" fill="#1f77b4" fill-opacity="0.7" stroke="none"/><rect x="654.6402124695229" y="561.2477360836807" width="2.587600139324195" height="2.552263916319248" fill="#1f77b4" fill-opacity="0.7" stroke="none"/><rect x="657.2278126088471" y="562.8183600321848" width="2.5876001393244223" height="0.9816399678151129" fill="#1f77b4" fill-opacity="0.7" stroke="none"/><rect x="659.8154127481715" y="562.2293760514958" width="2.587600139324195" height="1.5706239485041351" fill="#1f77b4" fill-opacity="0.7" stroke="none"/><rect x="662.4030128874957" y="562.6220320386219" width="2.5876001393243087" height="1.1779679613780445" fill="#1f77b4" fill-opacity="0.7" stroke="none"/><rect x="664.99061302682" y="563.0146880257479" width="2.5876001393240813" height="0.7853119742520676" fill="#1f77b4" fill-opacity="0.7" stroke="none"/><rect x="667.5782131661441" y="563.0146880257479" width="2.587600139324536" height="0.7853119742520676" fill="#1f77b4" fill-opacity="0.7" stroke="none"/><rect x="670.1658133054686" y="563.2110160193109" width="2.5876001393243087" height="0.5889839806890222" fill="#1f77b4" fill-opacity="0.7" stroke="none"/><rect x="672.753413444793" y="563.2110160193109" width="2.5876001393240813" height="0.5889839806890222" fill="#1f77b4" fill-opacity="0.7" stroke="none"/><rect x="675.341013584117" y="562.0330480579328" width="2.5876001393243087" height="1.7669519420671804" fill="#1f77b4" fill-opacity="0.7" stroke="none"/><rect x="677.9286137234413" y="563.2110160193109" width="2.5876001393244223" height="0.5889839806890222" fill="#1f77b4" fill-opacity="0.7" stroke="none"/><rect x="680.5162138627658" y="560.4624241094286" width="2.587600139324195" height="3.3375758905713155" fill="#1f77b4" fill-opacity="0.7" stroke="none"/><rect x="683.10381400209" y="560.4624241094286" width="2.587600139324195" height="3.3375758905713155" fill="#1f77b4" fill-opacity="0.7" stroke="none"/><rect x="685.6914141414142" y="562.0330480579328" width="2.5876001393243087" height="1.7669519420671804" fill="#1f77b4" fill-opacity="0.7" stroke="none"/><rect x="688.2790142807385" y="562.2293760514958" width="2.587600139324195" height="1.5706239485041351" fill="#1f77b4" fill-opacity="0.7" stroke="none"/><rect x="690.8666144200627" y="562.0330480579328" width="2.5876001393244223" height="1.7669519420671804" fill="#1f77b4" fill-opacity="0.7" stroke="none"/><rect x="693.4542145593871" y="563.2110160193109" width="2.5876001393243087" height="0.5889839806890222" fill="#1f77b4" fill-opacity="0.7" stroke="none"/><rect x="696.0418146987114" y="563.2110160193109" width="2.587600139324195" height="0.5889839806890222" fill="#1f77b4" fill-opacity="0.7" stroke="none"/><rect x="698.6294148380356" y="563.2110160193109" width="2.587600139324195" height="0.5889839806890222" fill="#1f77b4" fill-opacity="0.7" stroke="none"/><rect x="701.2170149773598" y="563.2110160193109" width="2.5876001393244223" height="0.5889839806890222" fill="#1f77b4" fill-opacity="0.7" stroke="none"/><rect x="703.8046151166842" y="563.6036720064369" width="2.5876001393243087" height="0.1963279935630453" fill="#1f77b4" fill-opacity="0.7" stroke="none"/><rect x="706.3922152560085" y="563.2110160193109" width="2.587600139324195" height="0.5889839806890222" fill="#1f77b4" fill-opacity="0.7" stroke="none"/><rect x="708.9798153953327" y="563.2110160193109" width="2.587600139324195" height="0.5889839806890222" fill="#1f77b4" fill-opacity="0.7" stroke="none"/><rect x="714.1550156739814" y="563.2110160193109" width="2.5876001393240813" height="0.5889839806890222" fill="#1f77b4" fill-opacity="0.7" stroke="none"/><rect x="716.7426158133055" y="563.6036720064369" width="2.5876001393243087" height="0.1963279935630453" fill="#1f77b4" fill-opacity="0.7" stroke="none"/><rect x="719.3302159526298" y="563.6036720064369" width="2.587600139324195" height="0.1963279935630453" fill="#1f77b4" fill-opacity="0.7" stroke="none"/><rect x="721.917816091954" y="563.2110160193109" width="2.5876001393244223" height="0.5889839806890222" fill="#1f77b4" fill-opacity="0.7" stroke="none"/><rect x="724.5054162312784" y="563.6036720064369" width="2.587600139324195" height="0.1963279935630453" fill="#1f77b4" fill-opacity="0.7" stroke="none"/><rect x="727.0930163706026" y="563.407344012874" width="2.5876001393243087" height="0.39265598712597694" fill="#1f77b4" fill-opacity="0.7" stroke="none"/><rect x="732.2682166492511" y="563.6036720064369" width="2.5876001393244223" height="0.1963279935630453" fill="#1f77b4" fill-opacity="0.7" stroke="none"/><rect x="734.8558167885756" y="563.6036720064369" width="2.5876001393243087" height="0.1963279935630453" fill="#1f77b4" fill-opacity="0.7" stroke="none"/><rect x="737.4434169278999" y="563.2110160193109" width="2.587600139324195" height="0.5889839806890222" fill="#1f77b4" fill-opacity="0.7" stroke="none"/><rect x="742.6186172065483" y="563.2110160193109" width="2.5876001393244223" height="0.5889839806890222" fill="#1f77b4" fill-opacity="0.7" stroke="none"/><rect x="745.2062173458727" y="563.407344012874" width="2.5876001393243087" height="0.39265598712597694" fill="#1f77b4" fill-opacity="0.7" stroke="none"/><rect x="750.3814176245212" y="563.6036720064369" width="2.587600139324195" height="0.1963279935630453" fill="#1f77b4" fill-opacity="0.7" stroke="none"/><rect x="758.144218042494" y="563.407344012874" width="2.5876001393243087" height="0.39265598712597694" fill="#1f77b4" fill-opacity="0.7" stroke="none"/></svg>