<svg xmlns="http://www.w3.org/2000/svg" width="624" height="384" viewBox="0 0 624 384"><rect x="0.0" y="0.0" width="624.0" height="384.0" fill="#ffffff" fill-opacity="1.0" stroke="none"/><rect x="67.46666666666667" y="32.266666666666666" width="549.1999999999999" height="307.73333333333335" fill="#ebebeb" fill-opacity="1.0" stroke="none"/><line x1="136.4837789661319" y1="32.266666666666666" x2="136.4837789661319" y2="340.0" stroke="#ffffff" stroke-width="0.6666666666666666"/><line x1="220.39516170104403" y1="32.266666666666666" x2="220.39516170104403" y2="340.0" stroke="#ffffff" stroke-width="0.6666666666666666"/><line x1="304.30654443595614" y1="32.266666666666666" x2="304.30654443595614" y2="340.0" stroke="#ffffff" stroke-width="0.6666666666666666"/><line x1="388.21792717086834" y1="32.266666666666666" x2="388.21792717086834" y2="340.0" stroke="#ffffff" stroke-width="0.6666666666666666"/><line x1="472.12930990578053" y1="32.266666666666666" x2="472.12930990578053" y2="340.0" stroke="#ffffff" stroke-width="0.6666666666666666"/><line x1="556.0406926406927" y1="32.266666666666666" x2="556.0406926406927" y2="340.0" stroke="#ffffff" stroke-width="0.6666666666666666"/><line x1="94.52808759867582" y1="32.266666666666666" x2="94.52808759867582" y2="340.0" stroke="#ffffff" stroke-width="1.3333333333333333"/><line x1="178.43947033358796" y1="32.266666666666666" x2="178.43947033358796" y2="340.0" stroke="#ffffff" stroke-width="1.3333333333333333"/><line x1="262.3508530685001" y1="32.266666666666666" x2="262.3508530685001" y2="340.0" stroke="#ffffff" stroke-width="1.3333333333333333"/><line x1="346.2622358034123" y1="32.266666666666666" x2="346.2622358034123" y2="340.0" stroke="#ffffff" stroke-width="1.3333333333333333"/><line x1="430.1736185383244" y1="32.266666666666666" x2="430.1736185383244" y2="340.0" stroke="#ffffff" stroke-width="1.3333333333333333"/><line x1="514.0850012732365" y1="32.266666666666666" x2="514.0850012732365" y2="340.0" stroke="#ffffff" stroke-width="1.3333333333333333"/><line x1="597.9963840081487" y1="32.266666666666666" x2="597.9963840081487" y2="340.0" stroke="#ffffff" stroke-width="1.3333333333333333"/><line x1="67.46666666666667" y1="310.54360325245585" x2="616.6666666666666" y2="310.54360325245585" stroke="#ffffff" stroke-width="0.6666666666666666"/><line x1="67.46666666666667" y1="251.63080975736762" x2="616.6666666666666" y2="251.63080975736762" stroke="#ffffff" stroke-width="0.6666666666666666"/><line x1="67.46666666666667" y1="192.71801626227935" x2="616.6666666666666" y2="192.71801626227935" stroke="#ffffff" stroke-width="0.6666666666666666"/><line x1="67.46666666666667" y1="133.80522276719108" x2="616.6666666666666" y2="133.80522276719108" stroke="#ffffff" stroke-width="0.6666666666666666"/><line x1="67.46666666666667" y1="74.8924292721028" x2="616.6666666666666" y2="74.8924292721028" stroke="#ffffff" stroke-width="0.6666666666666666"/><line x1="67.46666666666667" y1="340.0" x2="616.6666666666666" y2="340.0" stroke="#ffffff" stroke-width="1.3333333333333333"/><line x1="67.46666666666667" y1="281.0872065049117" x2="616.6666666666666" y2="281.0872065049117" stroke="#ffffff" stroke-width="1.3333333333333333"/><line x1="67.46666666666667" y1="222.17441300982347" x2="616.6666666666666" y2="222.17441300982347" stroke="#ffffff" stroke-width="1.3333333333333333"/><line x1="67.46666666666667" y1="163.26161951473517" x2="616.6666666666666" y2="163.26161951473517" stroke="#ffffff" stroke-width="1.3333333333333333"/><line x1="67.46666666666667" y1="104.34882601964696" x2="616.6666666666666" y2="104.34882601964696" stroke="#ffffff" stroke-width="1.3333333333333333"/><line x1="67.46666666666667" y1="45.43603252455868" x2="616.6666666666666" y2="45.43603252455868" stroke="#ffffff" stroke-width="1.3333333333333333"/><line x1="94.52808759867582" y1="340.0" x2="94.52808759867582" y2="343.66666666666663" stroke="#333333" stroke-width="1.3333333333333333"/><text x="94.52808759867582" y="355.9866666666667" fill="#4d4d4d" font-size="11.733333333333334" font-family="sans-serif" text-anchor="middle">0</text><line x1="178.43947033358796" y1="340.0" x2="178.43947033358796" y2="343.66666666666663" stroke="#333333" stroke-width="1.3333333333333333"/><text x="178.43947033358796" y="355.9866666666667" fill="#4d4d4d" font-size="11.733333333333334" font-family="sans-serif" text-anchor="middle">10</text><line x1="262.3508530685001" y1="340.0" x2="262.3508530685001" y2="343.66666666666663" stroke="#333333" stroke-width="1.3333333333333333"/><text x="262.3508530685001" y="355.9866666666667" fill="#4d4d4d" font-size="11.733333333333334" font-family="sans-serif" text-anchor="middle">20</text><line x1="346.2622358034123" y1="340.0" x2="346.2622358034123" y2="343.66666666666663" stroke="#333333" stroke-width="1.3333333333333333"/><text x="346.2622358034123" y="355.9866666666667" fill="#4d4d4d" font-size="11.733333333333334" font-family="sans-serif" text-anchor="middle">30</text><line x1="430.1736185383244" y1="340.0" x2="430.1736185383244" y2="343.66666666666663" stroke="#333333" stroke-width="1.3333333333333333"/><text x="430.1736185383244" y="355.9866666666667" fill="#4d4d4d" font-size="11.733333333333334" font-family="sans-serif" text-anchor="middle">40</text><line x1="514.0850012732365" y1="340.0" x2="514.0850012732365" y2="343.66666666666663" stroke="#333333" stroke-width="1.3333333333333333"/><text x="514.0850012732365" y="355.9866666666667" fill="#4d4d4d" font-size="11.733333333333334" font-family="sans-serif" text-anchor="middle">50</text><line x1="597.9963840081487" y1="340.0" x2="597.9963840081487" y2="343.66666666666663" stroke="#333333" stroke-width="1.3333333333333333"/><text x="597.9963840081487" y="355.9866666666667" fill="#4d4d4d" font-size="11.733333333333334" font-family="sans-serif" text-anchor="middle">60</text><line x1="67.46666666666667" y1="340.0" x2="63.8" y2="340.0" stroke="#333333" stroke-width="1.3333333333333333"/><text x="60.86666666666666" y="344.1066666666666" fill="#4d4d4d" font-size="11.733333333333334" font-family="sans-serif" text-anchor="end">0</text><line x1="67.46666666666667" y1="281.0872065049117" x2="63.8" y2="281.0872065049117" stroke="#333333" stroke-width="1.3333333333333333"/><text x="60.86666666666666" y="285.1938731715784" fill="#4d4d4d" font-size="11.733333333333334" font-family="sans-serif" text-anchor="end">2500</text><line x1="67.46666666666667" y1="222.17441300982347" x2="63.8" y2="222.17441300982347" stroke="#333333" stroke-width="1.3333333333333333"/><text x="60.86666666666666" y="226.28107967649015" fill="#4d4d4d" font-size="11.733333333333334" font-family="sans-serif" text-anchor="end">5000</text><line x1="67.46666666666667" y1="163.26161951473517" x2="63.8" y2="163.26161951473517" stroke="#333333" stroke-width="1.3333333333333333"/><text x="60.86666666666666" y="167.36828618140186" fill="#4d4d4d" font-size="11.733333333333334" font-family="sans-serif" text-anchor="end">7500</text><line x1="67.46666666666667" y1="104.34882601964696" x2="63.8" y2="104.34882601964696" stroke="#333333" stroke-width="1.3333333333333333"/><text x="60.86666666666666" y="108.45549268631363" fill="#4d4d4d" font-size="11.733333333333334" font-family="sans-serif" text-anchor="end">10000</text><line x1="67.46666666666667" y1="45.43603252455868" x2="63.8" y2="45.43603252455868" stroke="#333333" stroke-width="1.3333333333333333"/><text x="60.86666666666666" y="49.54269919122534" fill="#4d4d4d" font-size="11.733333333333334" font-family="sans-serif" text-anchor="end">12500</text><text x="67.46666666666667" y="21.413333333333334" fill="#000000" font-size="17.599999999999998" font-family="sans-serif" text-anchor="start">y (幅 mm) の分布</text><text x="342.06666666666666" y="373.73333333333335" fill="#000000" font-size="14.666666666666666" font-family="sans-serif" text-anchor="middle">y</text><text x="17.599999999999998" y="186.13333333333333" fill="#000000" font-size="14.666666666666666" font-family="sans-serif" text-anchor="middle" transform="rotate(-90.0 17.599999999999998 186.13333333333333)">count</text><rect x="92.43030303030304" y="339.8350441782137" width="4.195569136745594" height="0.16495582178625529" fill="#595959" fill-opacity="1.0" stroke="none"/><rect x="121.79928698752227" y="339.8821744130098" width="4.195569136745613" height="0.11782558699019319" fill="#595959" fill-opacity="1.0" stroke="none"/><rect x="125.99485612426788" y="302.3193772805415" width="4.195569136745594" height="37.68062271945844" fill="#595959" fill-opacity="1.0" stroke="none"/><rect x="130.19042526101347" y="46.92063492063494" width="4.195569136745613" height="293.07936507936506" fill="#595959" fill-opacity="1.0" stroke="none"/><rect x="134.38599439775908" y="159.39694026145742" width="4.195569136745613" height="180.60305973854258" fill="#595959" fill-opacity="1.0" stroke="none"/><rect x="138.5815635345047" y="195.14522335427696" width="4.195569136745594" height="144.854776645723" fill="#595959" fill-opacity="1.0" stroke="none"/><rect x="142.77713267125029" y="183.9517925902102" width="4.195569136745613" height="156.04820740978977" fill="#595959" fill-opacity="1.0" stroke="none"/><rect x="146.97270180799592" y="118.95919880642884" width="4.195569136745613" height="221.04080119357116" fill="#595959" fill-opacity="1.0" stroke="none"/><rect x="151.16827094474152" y="240.57876969768904" width="4.195569136745613" height="99.42123030231096" fill="#595959" fill-opacity="1.0" stroke="none"/><rect x="155.36384008148713" y="257.9698263374391" width="4.195569136745613" height="82.03017366256088" fill="#595959" fill-opacity="1.0" stroke="none"/><rect x="159.55940921823276" y="302.3665075153376" width="4.195569136745576" height="37.63349248466238" fill="#595959" fill-opacity="1.0" stroke="none"/><rect x="163.75497835497833" y="323.7400689953556" width="4.195569136745613" height="16.259931004644347" fill="#595959" fill-opacity="1.0" stroke="none"/><rect x="167.95054749172394" y="338.39757201693357" width="4.195569136745613" height="1.602427983066415" fill="#595959" fill-opacity="1.0" stroke="none"/><rect x="172.14611662846954" y="339.6465232390294" width="4.195569136745613" height="0.35347676097054165" fill="#595959" fill-opacity="1.0" stroke="none"/><rect x="176.34168576521517" y="339.85860929561176" width="4.195569136745613" height="0.14139070438822424" fill="#595959" fill-opacity="1.0" stroke="none"/><rect x="180.53725490196078" y="339.97643488260195" width="4.195569136745576" height="2.3565117398031056e-2" fill="#595959" fill-opacity="1.0" stroke="none"/><rect x="360.94672778202187" y="339.97643488260195" width="4.195569136745613" height="2.3565117398031056e-2" fill="#595959" fill-opacity="1.0" stroke="none"/><rect x="587.5074611662847" y="339.97643488260195" width="4.195569136745613" height="2.3565117398031056e-2" fill="#595959" fill-opacity="1.0" stroke="none"/></svg>