<svg xmlns="http://www.w3.org/2000/svg" width="800" height="600" viewBox="0 0 800 600"><rect x="0.0" y="0.0" width="800.0" height="600.0" fill="#ffffff" fill-opacity="1.0" stroke="none"/><line x1="150.72967914438505" y1="27.0" x2="150.72967914438505" y2="563.8" stroke="#dddddd" stroke-width="0.5"/><line x1="263.22776928953397" y1="27.0" x2="263.22776928953397" y2="563.8" stroke="#dddddd" stroke-width="0.5"/><line x1="375.72585943468295" y1="27.0" x2="375.72585943468295" y2="563.8" stroke="#dddddd" stroke-width="0.5"/><line x1="488.2239495798319" y1="27.0" x2="488.2239495798319" y2="563.8" stroke="#dddddd" stroke-width="0.5"/><line x1="600.722039724981" y1="27.0" x2="600.722039724981" y2="563.8" stroke="#dddddd" stroke-width="0.5"/><line x1="713.2201298701299" y1="27.0" x2="713.2201298701299" y2="563.8" stroke="#dddddd" stroke-width="0.5"/><line x1="94.48063407181054" y1="27.0" x2="94.48063407181054" y2="563.8" stroke="#dddddd" stroke-width="1.0"/><line x1="206.9787242169595" y1="27.0" x2="206.9787242169595" y2="563.8" stroke="#dddddd" stroke-width="1.0"/><line x1="319.4768143621084" y1="27.0" x2="319.4768143621084" y2="563.8" stroke="#dddddd" stroke-width="1.0"/><line x1="431.9749045072574" y1="27.0" x2="431.9749045072574" y2="563.8" stroke="#dddddd" stroke-width="1.0"/><line x1="544.4729946524064" y1="27.0" x2="544.4729946524064" y2="563.8" stroke="#dddddd" stroke-width="1.0"/><line x1="656.9710847975554" y1="27.0" x2="656.9710847975554" y2="563.8" stroke="#dddddd" stroke-width="1.0"/><line x1="769.4691749427043" y1="27.0" x2="769.4691749427043" y2="563.8" stroke="#dddddd" stroke-width="1.0"/><line x1="58.2" y1="512.4172212713983" x2="794.5" y2="512.4172212713983" stroke="#dddddd" stroke-width="0.5"/><line x1="58.2" y1="409.65166381419493" x2="794.5" y2="409.65166381419493" stroke="#dddddd" stroke-width="0.5"/><line x1="58.2" y1="306.8861063569916" x2="794.5" y2="306.8861063569916" stroke="#dddddd" stroke-width="0.5"/><line x1="58.2" y1="204.12054889978828" x2="794.5" y2="204.12054889978828" stroke="#dddddd" stroke-width="0.5"/><line x1="58.2" y1="101.35499144258495" x2="794.5" y2="101.35499144258495" stroke="#dddddd" stroke-width="0.5"/><line x1="58.2" y1="563.8" x2="794.5" y2="563.8" stroke="#dddddd" stroke-width="1.0"/><line x1="58.2" y1="461.0344425427966" x2="794.5" y2="461.0344425427966" stroke="#dddddd" stroke-width="1.0"/><line x1="58.2" y1="358.2688850855933" x2="794.5" y2="358.2688850855933" stroke="#dddddd" stroke-width="1.0"/><line x1="58.2" y1="255.5033276283899" x2="794.5" y2="255.5033276283899" stroke="#dddddd" stroke-width="1.0"/><line x1="58.2" y1="152.73777017118658" x2="794.5" y2="152.73777017118658" stroke="#dddddd" stroke-width="1.0"/><line x1="58.2" y1="49.972212713983254" x2="794.5" y2="49.972212713983254" stroke="#dddddd" stroke-width="1.0"/><rect x="58.2" y="27.0" width="736.3" height="536.8" fill="#ffffff" fill-opacity="0.0" stroke="#444444" stroke-width="1.0"/><line x1="94.48063407181054" y1="563.8" x2="94.48063407181054" y2="566.55" stroke="#444444" stroke-width="1.0"/><text x="94.48063407181054" y="577.55" fill="#333333" font-size="11.0" font-family="sans-serif" text-anchor="middle">0</text><line x1="206.9787242169595" y1="563.8" x2="206.9787242169595" y2="566.55" stroke="#444444" stroke-width="1.0"/><text x="206.9787242169595" y="577.55" fill="#333333" font-size="11.0" font-family="sans-serif" text-anchor="middle">10</text><line x1="319.4768143621084" y1="563.8" x2="319.4768143621084" y2="566.55" stroke="#444444" stroke-width="1.0"/><text x="319.4768143621084" y="577.55" fill="#333333" font-size="11.0" font-family="sans-serif" text-anchor="middle">20</text><line x1="431.9749045072574" y1="563.8" x2="431.9749045072574" y2="566.55" stroke="#444444" stroke-width="1.0"/><text x="431.9749045072574" y="577.55" fill="#333333" font-size="11.0" font-family="sans-serif" text-anchor="middle">30</text><line x1="544.4729946524064" y1="563.8" x2="544.4729946524064" y2="566.55" stroke="#444444" stroke-width="1.0"/><text x="544.4729946524064" y="577.55" fill="#333333" font-size="11.0" font-family="sans-serif" text-anchor="middle">40</text><line x1="656.9710847975554" y1="563.8" x2="656.9710847975554" y2="566.55" stroke="#444444" stroke-width="1.0"/><text x="656.9710847975554" y="577.55" fill="#333333" font-size="11.0" font-family="sans-serif" text-anchor="middle">50</text><line x1="769.4691749427043" y1="563.8" x2="769.4691749427043" y2="566.55" stroke="#444444" stroke-width="1.0"/><text x="769.4691749427043" y="577.55" fill="#333333" font-size="11.0" font-family="sans-serif" text-anchor="middle">60</text><line x1="58.2" y1="563.8" x2="55.45" y2="563.8" stroke="#444444" stroke-width="1.0"/><text x="53.25" y="567.65" fill="#333333" font-size="11.0" font-family="sans-serif" text-anchor="end">0</text><line x1="58.2" y1="461.0344425427966" x2="55.45" y2="461.0344425427966" stroke="#444444" stroke-width="1.0"/><text x="53.25" y="464.88444254279665" fill="#333333" font-size="11.0" font-family="sans-serif" text-anchor="end">2500</text><line x1="58.2" y1="358.2688850855933" x2="55.45" y2="358.2688850855933" stroke="#444444" stroke-width="1.0"/><text x="53.25" y="362.1188850855933" fill="#333333" font-size="11.0" font-family="sans-serif" text-anchor="end">5000</text><line x1="58.2" y1="255.5033276283899" x2="55.45" y2="255.5033276283899" stroke="#444444" stroke-width="1.0"/><text x="53.25" y="259.35332762838993" fill="#333333" font-size="11.0" font-family="sans-serif" text-anchor="end">7500</text><line x1="58.2" y1="152.73777017118658" x2="55.45" y2="152.73777017118658" stroke="#444444" stroke-width="1.0"/><text x="53.25" y="156.58777017118658" fill="#333333" font-size="11.0" font-family="sans-serif" text-anchor="end">10000</text><line x1="58.2" y1="49.972212713983254" x2="55.45" y2="49.972212713983254" stroke="#444444" stroke-width="1.0"/><text x="53.25" y="53.822212713983255" fill="#333333" font-size="11.0" font-family="sans-serif" text-anchor="end">12500</text><text x="426.34999999999997" y="18.3" fill="#333333" font-size="16.0" font-family="sans-serif" text-anchor="middle">y (幅 mm) の分布</text><text x="426.34999999999997" y="592.1" fill="#333333" font-size="12.0" font-family="sans-serif" text-anchor="middle">y</text><text x="13.899999999999999" y="295.4" fill="#333333" font-size="12.0" font-family="sans-serif" text-anchor="middle" transform="rotate(-90.0 13.899999999999999 295.4)">count</text><rect x="91.66818181818182" y="563.5122564391198" width="5.624904507257455" height="0.28774356088013064" fill="#1f77b4" fill-opacity="0.7" stroke="none"/><rect x="131.04251336898395" y="563.5944688850856" width="5.624904507257469" height="0.20553111491437903" fill="#1f77b4" fill-opacity="0.7" stroke="none"/><rect x="136.66741787624142" y="498.0711494503727" width="5.62490450725744" height="65.72885054962728" fill="#1f77b4" fill-opacity="0.7" stroke="none"/><rect x="142.29232238349886" y="52.56190476190477" width="5.62490450725744" height="511.2380952380952" fill="#1f77b4" fill-opacity="0.7" stroke="none"/><rect x="147.9172268907563" y="248.76190705919737" width="5.62490450725744" height="315.0380929408026" fill="#1f77b4" fill-opacity="0.7" stroke="none"/><rect x="153.54213139801374" y="311.1200473242284" width="5.62490450725744" height="252.67995267577157" fill="#1f77b4" fill-opacity="0.7" stroke="none"/><rect x="159.16703590527118" y="291.59459140735976" width="5.62490450725744" height="272.2054085926402" fill="#1f77b4" fill-opacity="0.7" stroke="none"/><rect x="164.79194041252862" y="178.223628420573" width="5.624904507257469" height="385.57637157942696" fill="#1f77b4" fill-opacity="0.7" stroke="none"/><rect x="170.4168449197861" y="390.3728452352236" width="5.62490450725744" height="173.42715476477633" fill="#1f77b4" fill-opacity="0.7" stroke="none"/><rect x="176.04174942704353" y="420.70923779659006" width="5.624904507257469" height="143.0907622034099" fill="#1f77b4" fill-opacity="0.7" stroke="none"/><rect x="181.666653934301" y="498.1533618963385" width="5.62490450725744" height="65.64663810366147" fill="#1f77b4" fill-opacity="0.7" stroke="none"/><rect x="187.29155844155844" y="535.4367061418118" width="5.62490450725744" height="28.36329385818817" fill="#1f77b4" fill-opacity="0.7" stroke="none"/><rect x="192.91646294881588" y="561.0047768371641" width="5.62490450725744" height="2.795223162835896" fill="#1f77b4" fill-opacity="0.7" stroke="none"/><rect x="198.54136745607332" y="563.1834066552567" width="5.62490450725744" height="0.6165933447432508" fill="#1f77b4" fill-opacity="0.7" stroke="none"/><rect x="204.16627196333076" y="563.5533626621027" width="5.62490450725744" height="0.24663733789725484" fill="#1f77b4" fill-opacity="0.7" stroke="none"/><rect x="209.7911764705882" y="563.7588937770171" width="5.62490450725744" height="4.1106222982875806e-2" fill="#1f77b4" fill-opacity="0.7" stroke="none"/><rect x="451.6620702826585" y="563.7588937770171" width="5.62490450725744" height="4.1106222982875806e-2" fill="#1f77b4" fill-opacity="0.7" stroke="none"/><rect x="755.4069136745607" y="563.7588937770171" width="5.624904507257497" height="4.1106222982875806e-2" fill="#1f77b4" fill-opacity="0.7" stroke="none"/></svg>