<svg xmlns="http://www.w3.org/2000/svg" width="800" height="600" viewBox="0 0 800 600"><rect x="0.0" y="0.0" width="800.0" height="600.0" fill="#ffffff" fill-opacity="1.0" stroke="none"/><line x1="133.41791443850266" y1="27.0" x2="133.41791443850266" y2="563.8" stroke="#dddddd" stroke-width="0.5"/><line x1="248.94121466768527" y1="27.0" x2="248.94121466768527" y2="563.8" stroke="#dddddd" stroke-width="0.5"/><line x1="364.4645148968678" y1="27.0" x2="364.4645148968678" y2="563.8" stroke="#dddddd" stroke-width="0.5"/><line x1="479.98781512605046" y1="27.0" x2="479.98781512605046" y2="563.8" stroke="#dddddd" stroke-width="0.5"/><line x1="595.511115355233" y1="27.0" x2="595.511115355233" y2="563.8" stroke="#dddddd" stroke-width="0.5"/><line x1="711.0344155844156" y1="27.0" x2="711.0344155844156" y2="563.8" stroke="#dddddd" stroke-width="0.5"/><line x1="75.65626432391139" y1="27.0" x2="75.65626432391139" y2="563.8" stroke="#dddddd" stroke-width="1.0"/><line x1="191.17956455309397" y1="27.0" x2="191.17956455309397" y2="563.8" stroke="#dddddd" stroke-width="1.0"/><line x1="306.70286478227655" y1="27.0" x2="306.70286478227655" y2="563.8" stroke="#dddddd" stroke-width="1.0"/><line x1="422.2261650114591" y1="27.0" x2="422.2261650114591" y2="563.8" stroke="#dddddd" stroke-width="1.0"/><line x1="537.7494652406417" y1="27.0" x2="537.7494652406417" y2="563.8" stroke="#dddddd" stroke-width="1.0"/><line x1="653.2727654698242" y1="27.0" x2="653.2727654698242" y2="563.8" stroke="#dddddd" stroke-width="1.0"/><line x1="768.7960656990068" y1="27.0" x2="768.7960656990068" y2="563.8" stroke="#dddddd" stroke-width="1.0"/><line x1="38.4" y1="510.11999999999995" x2="794.5" y2="510.11999999999995" stroke="#dddddd" stroke-width="0.5"/><line x1="38.4" y1="402.76" x2="794.5" y2="402.76" stroke="#dddddd" stroke-width="0.5"/><line x1="38.4" y1="295.4" x2="794.5" y2="295.4" stroke="#dddddd" stroke-width="0.5"/><line x1="38.4" y1="188.04000000000002" x2="794.5" y2="188.04000000000002" stroke="#dddddd" stroke-width="0.5"/><line x1="38.4" y1="80.68" x2="794.5" y2="80.68" stroke="#dddddd" stroke-width="0.5"/><line x1="38.4" y1="563.8" x2="794.5" y2="563.8" stroke="#dddddd" stroke-width="1.0"/><line x1="38.4" y1="456.43999999999994" x2="794.5" y2="456.43999999999994" stroke="#dddddd" stroke-width="1.0"/><line x1="38.4" y1="349.0799999999999" x2="794.5" y2="349.0799999999999" stroke="#dddddd" stroke-width="1.0"/><line x1="38.4" y1="241.71999999999997" x2="794.5" y2="241.71999999999997" stroke="#dddddd" stroke-width="1.0"/><line x1="38.4" y1="134.35999999999996" x2="794.5" y2="134.35999999999996" stroke="#dddddd" stroke-width="1.0"/><line x1="38.4" y1="27.0" x2="794.5" y2="27.0" stroke="#dddddd" stroke-width="1.0"/><rect x="38.4" y="27.0" width="756.1" height="536.8" fill="#ffffff" fill-opacity="0.0" stroke="#444444" stroke-width="1.0"/><line x1="75.65626432391139" y1="563.8" x2="75.65626432391139" y2="566.55" stroke="#444444" stroke-width="1.0"/><text x="75.65626432391139" y="577.55" fill="#333333" font-size="11.0" font-family="sans-serif" text-anchor="middle">0</text><line x1="191.17956455309397" y1="563.8" x2="191.17956455309397" y2="566.55" stroke="#444444" stroke-width="1.0"/><text x="191.17956455309397" y="577.55" fill="#333333" font-size="11.0" font-family="sans-serif" text-anchor="middle">10</text><line x1="306.70286478227655" y1="563.8" x2="306.70286478227655" y2="566.55" stroke="#444444" stroke-width="1.0"/><text x="306.70286478227655" y="577.55" fill="#333333" font-size="11.0" font-family="sans-serif" text-anchor="middle">20</text><line x1="422.2261650114591" y1="563.8" x2="422.2261650114591" y2="566.55" stroke="#444444" stroke-width="1.0"/><text x="422.2261650114591" y="577.55" fill="#333333" font-size="11.0" font-family="sans-serif" text-anchor="middle">30</text><line x1="537.7494652406417" y1="563.8" x2="537.7494652406417" y2="566.55" stroke="#444444" stroke-width="1.0"/><text x="537.7494652406417" y="577.55" fill="#333333" font-size="11.0" font-family="sans-serif" text-anchor="middle">40</text><line x1="653.2727654698242" y1="563.8" x2="653.2727654698242" y2="566.55" stroke="#444444" stroke-width="1.0"/><text x="653.2727654698242" y="577.55" fill="#333333" font-size="11.0" font-family="sans-serif" text-anchor="middle">50</text><line x1="768.7960656990068" y1="563.8" x2="768.7960656990068" y2="566.55" stroke="#444444" stroke-width="1.0"/><text x="768.7960656990068" y="577.55" fill="#333333" font-size="11.0" font-family="sans-serif" text-anchor="middle">60</text><line x1="38.4" y1="563.8" x2="35.65" y2="563.8" stroke="#444444" stroke-width="1.0"/><text x="33.449999999999996" y="567.65" fill="#333333" font-size="11.0" font-family="sans-serif" text-anchor="end">0</text><line x1="38.4" y1="456.43999999999994" x2="35.65" y2="456.43999999999994" stroke="#444444" stroke-width="1.0"/><text x="33.449999999999996" y="460.28999999999996" fill="#333333" font-size="11.0" font-family="sans-serif" text-anchor="end">10</text><line x1="38.4" y1="349.0799999999999" x2="35.65" y2="349.0799999999999" stroke="#444444" stroke-width="1.0"/><text x="33.449999999999996" y="352.92999999999995" fill="#333333" font-size="11.0" font-family="sans-serif" text-anchor="end">20</text><line x1="38.4" y1="241.71999999999997" x2="35.65" y2="241.71999999999997" stroke="#444444" stroke-width="1.0"/><text x="33.449999999999996" y="245.56999999999996" fill="#333333" font-size="11.0" font-family="sans-serif" text-anchor="end">30</text><line x1="38.4" y1="134.35999999999996" x2="35.65" y2="134.35999999999996" stroke="#444444" stroke-width="1.0"/><text x="33.449999999999996" y="138.20999999999995" fill="#333333" font-size="11.0" font-family="sans-serif" text-anchor="end">40</text><line x1="38.4" y1="27.0" x2="35.65" y2="27.0" stroke="#444444" stroke-width="1.0"/><text x="33.449999999999996" y="30.85" fill="#333333" font-size="11.0" font-family="sans-serif" text-anchor="end">50</text><text x="416.45" y="18.3" fill="#333333" font-size="16.0" font-family="sans-serif" text-anchor="middle">y の分布 (y 軸を 0..50 にズーム)</text><text x="416.45" y="592.1" fill="#333333" font-size="12.0" font-family="sans-serif" text-anchor="middle">y</text><text x="13.899999999999999" y="295.4" fill="#333333" font-size="12.0" font-family="sans-serif" text-anchor="middle" transform="rotate(-90.0 13.899999999999999 295.4)">count</text><clipPath id="clip0"><rect x="38.4" y="27.0" width="756.1" height="536.8"/></clipPath><g clip-path="url(#clip0)"><rect x="72.76818181818182" y="488.64799999999997" width="5.776165011459128" height="75.15199999999999" fill="#1f77b4" fill-opacity="0.7" stroke="none"/><rect x="113.20133689839571" y="510.11999999999995" width="5.776165011459142" height="53.68000000000001" fill="#1f77b4" fill-opacity="0.7" stroke="none"/><rect x="118.97750190985485" y="-16603.064" width="5.776165011459113" height="17166.863999999998" fill="#1f77b4" fill-opacity="0.7" stroke="none"/><rect x="124.75366692131396" y="-132959.832" width="5.776165011459142" height="133523.63199999998" fill="#1f77b4" fill-opacity="0.7" stroke="none"/><rect x="130.5298319327731" y="-81716.904" width="5.776165011459142" height="82280.704" fill="#1f77b4" fill-opacity="0.7" stroke="none"/><rect x="136.30599694423225" y="-65430.39199999999" width="5.776165011459113" height="65994.192" fill="#1f77b4" fill-opacity="0.7" stroke="none"/><rect x="142.08216195569136" y="-70529.99199999998" width="5.776165011459113" height="71093.79199999999" fill="#1f77b4" fill-opacity="0.7" stroke="none"/><rect x="147.85832696715048" y="-100139.87999999999" width="5.776165011459142" height="100703.68" fill="#1f77b4" fill-opacity="0.7" stroke="none"/><rect x="153.63449197860962" y="-44731.38399999999" width="5.776165011459113" height="45295.183999999994" fill="#1f77b4" fill-opacity="0.7" stroke="none"/><rect x="159.41065699006873" y="-36808.21599999999" width="5.776165011459142" height="37372.015999999996" fill="#1f77b4" fill-opacity="0.7" stroke="none"/><rect x="165.18682200152787" y="-16581.592" width="5.776165011459142" height="17145.392" fill="#1f77b4" fill-opacity="0.7" stroke="none"/><rect x="170.962987012987" y="-6844.04" width="5.776165011459113" height="7407.84" fill="#1f77b4" fill-opacity="0.7" stroke="none"/><rect x="176.73915202444613" y="-166.24800000000005" width="5.776165011459142" height="730.048" fill="#1f77b4" fill-opacity="0.7" stroke="none"/><rect x="182.51531703590527" y="402.76" width="5.776165011459113" height="161.03999999999996" fill="#1f77b4" fill-opacity="0.7" stroke="none"/><rect x="188.29148204736438" y="499.38399999999996" width="5.776165011459142" height="64.416" fill="#1f77b4" fill-opacity="0.7" stroke="none"/><rect x="194.06764705882352" y="553.064" width="5.776165011459113" height="10.73599999999999" fill="#1f77b4" fill-opacity="0.7" stroke="none"/><rect x="442.442742551566" y="553.064" width="5.77616501145917" height="10.73599999999999" fill="#1f77b4" fill-opacity="0.7" stroke="none"/><rect x="754.355653170359" y="553.064" width="5.77616501145917" height="10.73599999999999" fill="#1f77b4" fill-opacity="0.7" stroke="none"/></g></svg>