<svg xmlns="http://www.w3.org/2000/svg" width="624" height="384" viewBox="0 0 624 384"><rect x="0.0" y="0.0" width="624.0" height="384.0" fill="#ffffff" fill-opacity="1.0" stroke="none"/><rect x="46.346666666666664" y="32.266666666666666" width="570.3199999999999" height="307.73333333333335" fill="#ebebeb" fill-opacity="1.0" stroke="none"/><line x1="118.01789661319073" y1="32.266666666666666" x2="118.01789661319073" y2="340.0" stroke="#ffffff" stroke-width="0.6666666666666666"/><line x1="205.15617010440536" y1="32.266666666666666" x2="205.15617010440536" y2="340.0" stroke="#ffffff" stroke-width="0.6666666666666666"/><line x1="292.29444359562" y1="32.266666666666666" x2="292.29444359562" y2="340.0" stroke="#ffffff" stroke-width="0.6666666666666666"/><line x1="379.4327170868347" y1="32.266666666666666" x2="379.4327170868347" y2="340.0" stroke="#ffffff" stroke-width="0.6666666666666666"/><line x1="466.57099057804936" y1="32.266666666666666" x2="466.57099057804936" y2="340.0" stroke="#ffffff" stroke-width="0.6666666666666666"/><line x1="553.709264069264" y1="32.266666666666666" x2="553.709264069264" y2="340.0" stroke="#ffffff" stroke-width="0.6666666666666666"/><line x1="74.44875986758339" y1="32.266666666666666" x2="74.44875986758339" y2="340.0" stroke="#ffffff" stroke-width="1.3333333333333333"/><line x1="161.58703335879807" y1="32.266666666666666" x2="161.58703335879807" y2="340.0" stroke="#ffffff" stroke-width="1.3333333333333333"/><line x1="248.72530685001271" y1="32.266666666666666" x2="248.72530685001271" y2="340.0" stroke="#ffffff" stroke-width="1.3333333333333333"/><line x1="335.86358034122736" y1="32.266666666666666" x2="335.86358034122736" y2="340.0" stroke="#ffffff" stroke-width="1.3333333333333333"/><line x1="423.00185383244207" y1="32.266666666666666" x2="423.00185383244207" y2="340.0" stroke="#ffffff" stroke-width="1.3333333333333333"/><line x1="510.14012732365666" y1="32.266666666666666" x2="510.14012732365666" y2="340.0" stroke="#ffffff" stroke-width="1.3333333333333333"/><line x1="597.2784008148714" y1="32.266666666666666" x2="597.2784008148714" y2="340.0" stroke="#ffffff" stroke-width="1.3333333333333333"/><line x1="46.346666666666664" y1="309.22666666666663" x2="616.6666666666666" y2="309.22666666666663" stroke="#ffffff" stroke-width="0.6666666666666666"/><line x1="46.346666666666664" y1="247.67999999999998" x2="616.6666666666666" y2="247.67999999999998" stroke="#ffffff" stroke-width="0.6666666666666666"/><line x1="46.346666666666664" y1="186.13333333333333" x2="616.6666666666666" y2="186.13333333333333" stroke="#ffffff" stroke-width="0.6666666666666666"/><line x1="46.346666666666664" y1="124.58666666666666" x2="616.6666666666666" y2="124.58666666666666" stroke="#ffffff" stroke-width="0.6666666666666666"/><line x1="46.346666666666664" y1="63.039999999999964" x2="616.6666666666666" y2="63.039999999999964" stroke="#ffffff" stroke-width="0.6666666666666666"/><line x1="46.346666666666664" y1="340.0" x2="616.6666666666666" y2="340.0" stroke="#ffffff" stroke-width="1.3333333333333333"/><line x1="46.346666666666664" y1="278.4533333333333" x2="616.6666666666666" y2="278.4533333333333" stroke="#ffffff" stroke-width="1.3333333333333333"/><line x1="46.346666666666664" y1="216.90666666666667" x2="616.6666666666666" y2="216.90666666666667" stroke="#ffffff" stroke-width="1.3333333333333333"/><line x1="46.346666666666664" y1="155.36" x2="616.6666666666666" y2="155.36" stroke="#ffffff" stroke-width="1.3333333333333333"/><line x1="46.346666666666664" y1="93.8133333333333" x2="616.6666666666666" y2="93.8133333333333" stroke="#ffffff" stroke-width="1.3333333333333333"/><line x1="46.346666666666664" y1="32.26666666666665" x2="616.6666666666666" y2="32.26666666666665" stroke="#ffffff" stroke-width="1.3333333333333333"/><line x1="74.44875986758339" y1="340.0" x2="74.44875986758339" y2="343.66666666666663" stroke="#333333" stroke-width="1.3333333333333333"/><text x="74.44875986758339" y="355.9866666666667" fill="#4d4d4d" font-size="11.733333333333334" font-family="sans-serif" text-anchor="middle">0</text><line x1="161.58703335879807" y1="340.0" x2="161.58703335879807" y2="343.66666666666663" stroke="#333333" stroke-width="1.3333333333333333"/><text x="161.58703335879807" y="355.9866666666667" fill="#4d4d4d" font-size="11.733333333333334" font-family="sans-serif" text-anchor="middle">10</text><line x1="248.72530685001271" y1="340.0" x2="248.72530685001271" y2="343.66666666666663" stroke="#333333" stroke-width="1.3333333333333333"/><text x="248.72530685001271" y="355.9866666666667" fill="#4d4d4d" font-size="11.733333333333334" font-family="sans-serif" text-anchor="middle">20</text><line x1="335.86358034122736" y1="340.0" x2="335.86358034122736" y2="343.66666666666663" stroke="#333333" stroke-width="1.3333333333333333"/><text x="335.86358034122736" y="355.9866666666667" fill="#4d4d4d" font-size="11.733333333333334" font-family="sans-serif" text-anchor="middle">30</text><line x1="423.00185383244207" y1="340.0" x2="423.00185383244207" y2="343.66666666666663" stroke="#333333" stroke-width="1.3333333333333333"/><text x="423.00185383244207" y="355.9866666666667" fill="#4d4d4d" font-size="11.733333333333334" font-family="sans-serif" text-anchor="middle">40</text><line x1="510.14012732365666" y1="340.0" x2="510.14012732365666" y2="343.66666666666663" stroke="#333333" stroke-width="1.3333333333333333"/><text x="510.14012732365666" y="355.9866666666667" fill="#4d4d4d" font-size="11.733333333333334" font-family="sans-serif" text-anchor="middle">50</text><line x1="597.2784008148714" y1="340.0" x2="597.2784008148714" y2="343.66666666666663" stroke="#333333" stroke-width="1.3333333333333333"/><text x="597.2784008148714" y="355.9866666666667" fill="#4d4d4d" font-size="11.733333333333334" font-family="sans-serif" text-anchor="middle">60</text><line x1="46.346666666666664" y1="340.0" x2="42.67999999999999" y2="340.0" stroke="#333333" stroke-width="1.3333333333333333"/><text x="39.74666666666666" y="344.1066666666666" fill="#4d4d4d" font-size="11.733333333333334" font-family="sans-serif" text-anchor="end">0</text><line x1="46.346666666666664" y1="278.4533333333333" x2="42.67999999999999" y2="278.4533333333333" stroke="#333333" stroke-width="1.3333333333333333"/><text x="39.74666666666666" y="282.56" fill="#4d4d4d" font-size="11.733333333333334" font-family="sans-serif" text-anchor="end">10</text><line x1="46.346666666666664" y1="216.90666666666667" x2="42.67999999999999" y2="216.90666666666667" stroke="#333333" stroke-width="1.3333333333333333"/><text x="39.74666666666666" y="221.01333333333335" fill="#4d4d4d" font-size="11.733333333333334" font-family="sans-serif" text-anchor="end">20</text><line x1="46.346666666666664" y1="155.36" x2="42.67999999999999" y2="155.36" stroke="#333333" stroke-width="1.3333333333333333"/><text x="39.74666666666666" y="159.46666666666667" fill="#4d4d4d" font-size="11.733333333333334" font-family="sans-serif" text-anchor="end">30</text><line x1="46.346666666666664" y1="93.8133333333333" x2="42.67999999999999" y2="93.8133333333333" stroke="#333333" stroke-width="1.3333333333333333"/><text x="39.74666666666666" y="97.91999999999997" fill="#4d4d4d" font-size="11.733333333333334" font-family="sans-serif" text-anchor="end">40</text><line x1="46.346666666666664" y1="32.26666666666665" x2="42.67999999999999" y2="32.26666666666665" stroke="#333333" stroke-width="1.3333333333333333"/><text x="39.74666666666666" y="36.37333333333331" fill="#4d4d4d" font-size="11.733333333333334" font-family="sans-serif" text-anchor="end">50</text><text x="46.346666666666664" y="21.413333333333334" fill="#000000" font-size="17.599999999999998" font-family="sans-serif" text-anchor="start">y の分布 (y 軸を 0..50 にズーム)</text><text x="331.50666666666666" y="373.73333333333335" fill="#000000" font-size="14.666666666666666" font-family="sans-serif" text-anchor="middle">y</text><text x="17.599999999999998" y="186.13333333333333" fill="#000000" font-size="14.666666666666666" font-family="sans-serif" text-anchor="middle" transform="rotate(-90.0 17.599999999999998 186.13333333333333)">count</text><clipPath id="clip0"><rect x="46.346666666666664" y="32.266666666666666" width="570.3199999999999" height="307.73333333333335"/></clipPath><g clip-path="url(#clip0)"><rect x="72.27030303030303" y="296.9173333333333" width="4.3569136745607295" height="43.08266666666668" fill="#595959" fill-opacity="1.0" stroke="none"/><rect x="102.76869875222815" y="309.22666666666663" width="4.356913674560738" height="30.773333333333348" fill="#595959" fill-opacity="1.0" stroke="none"/><rect x="107.12561242678888" y="-9501.312" width="4.356913674560738" height="9841.312" fill="#595959" fill-opacity="1.0" stroke="none"/><rect x="111.48252610134962" y="-76205.58933333334" width="4.356913674560738" height="76545.58933333334" fill="#595959" fill-opacity="1.0" stroke="none"/><rect x="115.83943977591036" y="-46829.365333333335" width="4.356913674560738" height="47169.365333333335" fill="#595959" fill-opacity="1.0" stroke="none"/><rect x="120.1963534504711" y="-37492.736" width="4.356913674560701" height="37832.736" fill="#595959" fill-opacity="1.0" stroke="none"/><rect x="124.5532671250318" y="-40416.202666666664" width="4.356913674560738" height="40756.202666666664" fill="#595959" fill-opacity="1.0" stroke="none"/><rect x="128.91018079959252" y="-57390.77333333333" width="4.356913674560738" height="57730.77333333333" fill="#595959" fill-opacity="1.0" stroke="none"/><rect x="133.26709447415328" y="-25626.538666666664" width="4.356913674560738" height="25966.538666666664" fill="#595959" fill-opacity="1.0" stroke="none"/><rect x="137.624008148714" y="-21084.394666666667" width="4.356913674560738" height="21424.394666666667" fill="#595959" fill-opacity="1.0" stroke="none"/><rect x="141.98092182327474" y="-9489.002666666667" width="4.356913674560738" height="9829.002666666667" fill="#595959" fill-opacity="1.0" stroke="none"/><rect x="146.3378354978355" y="-3906.7200000000003" width="4.356913674560738" height="4246.72" fill="#595959" fill-opacity="1.0" stroke="none"/><rect x="150.69474917239623" y="-78.51733333333337" width="4.356913674560738" height="418.51733333333334" fill="#595959" fill-opacity="1.0" stroke="none"/><rect x="155.05166284695696" y="247.67999999999998" width="4.356913674560701" height="92.32000000000001" fill="#595959" fill-opacity="1.0" stroke="none"/><rect x="159.40857652151766" y="303.072" width="4.356913674560738" height="36.928" fill="#595959" fill-opacity="1.0" stroke="none"/><rect x="163.76549019607842" y="333.8453333333333" width="4.356913674560738" height="6.154666666666685" fill="#595959" fill-opacity="1.0" stroke="none"/><rect x="351.11277820219" y="333.8453333333333" width="4.356913674560701" height="6.154666666666685" fill="#595959" fill-opacity="1.0" stroke="none"/><rect x="586.3861166284695" y="333.8453333333333" width="4.356913674560701" height="6.154666666666685" fill="#595959" fill-opacity="1.0" stroke="none"/></g></svg>