<svg xmlns="http://www.w3.org/2000/svg" width="624" height="384" viewBox="0 0 624 384"><rect x="0.0" y="0.0" width="624.0" height="384.0" fill="#ffffff" fill-opacity="1.0" stroke="none"/><rect x="67.46666666666667" y="32.266666666666666" width="459.3525866666667" height="307.73333333333335" fill="#ebebeb" fill-opacity="1.0" stroke="none"/><line x1="113.89464280032664" y1="32.266666666666666" x2="113.89464280032664" y2="340.0" stroke="#ffffff" stroke-width="0.6666666666666666"/><line x1="205.1386181694586" y1="32.266666666666666" x2="205.1386181694586" y2="340.0" stroke="#ffffff" stroke-width="0.6666666666666666"/><line x1="296.3825935385906" y1="32.266666666666666" x2="296.3825935385906" y2="340.0" stroke="#ffffff" stroke-width="0.6666666666666666"/><line x1="387.6265689077225" y1="32.266666666666666" x2="387.6265689077225" y2="340.0" stroke="#ffffff" stroke-width="0.6666666666666666"/><line x1="478.8705442768545" y1="32.266666666666666" x2="478.8705442768545" y2="340.0" stroke="#ffffff" stroke-width="0.6666666666666666"/><line x1="68.27265511576067" y1="32.266666666666666" x2="68.27265511576067" y2="340.0" stroke="#ffffff" stroke-width="1.3333333333333333"/><line x1="159.51663048489263" y1="32.266666666666666" x2="159.51663048489263" y2="340.0" stroke="#ffffff" stroke-width="1.3333333333333333"/><line x1="250.7606058540246" y1="32.266666666666666" x2="250.7606058540246" y2="340.0" stroke="#ffffff" stroke-width="1.3333333333333333"/><line x1="342.00458122315655" y1="32.266666666666666" x2="342.00458122315655" y2="340.0" stroke="#ffffff" stroke-width="1.3333333333333333"/><line x1="433.24855659228854" y1="32.266666666666666" x2="433.24855659228854" y2="340.0" stroke="#ffffff" stroke-width="1.3333333333333333"/><line x1="524.4925319614205" y1="32.266666666666666" x2="524.4925319614205" y2="340.0" stroke="#ffffff" stroke-width="1.3333333333333333"/><line x1="67.46666666666667" y1="292.45517181216246" x2="526.8192533333333" y2="292.45517181216246" stroke="#ffffff" stroke-width="0.6666666666666666"/><line x1="67.46666666666667" y1="225.34127301224504" x2="526.8192533333333" y2="225.34127301224504" stroke="#ffffff" stroke-width="0.6666666666666666"/><line x1="67.46666666666667" y1="158.22737421232762" x2="526.8192533333333" y2="158.22737421232762" stroke="#ffffff" stroke-width="0.6666666666666666"/><line x1="67.46666666666667" y1="91.11347541241025" x2="526.8192533333333" y2="91.11347541241025" stroke="#ffffff" stroke-width="0.6666666666666666"/><line x1="67.46666666666667" y1="326.0121212121212" x2="526.8192533333333" y2="326.0121212121212" stroke="#ffffff" stroke-width="1.3333333333333333"/><line x1="67.46666666666667" y1="258.8982224122038" x2="526.8192533333333" y2="258.8982224122038" stroke="#ffffff" stroke-width="1.3333333333333333"/><line x1="67.46666666666667" y1="191.7843236122863" x2="526.8192533333333" y2="191.7843236122863" stroke="#ffffff" stroke-width="1.3333333333333333"/><line x1="67.46666666666667" y1="124.6704248123689" x2="526.8192533333333" y2="124.6704248123689" stroke="#ffffff" stroke-width="1.3333333333333333"/><line x1="67.46666666666667" y1="57.55652601245151" x2="526.8192533333333" y2="57.55652601245151" stroke="#ffffff" stroke-width="1.3333333333333333"/><line x1="68.27265511576067" y1="340.0" x2="68.27265511576067" y2="343.66666666666663" stroke="#333333" stroke-width="1.3333333333333333"/><text x="68.27265511576067" y="355.9866666666667" fill="#4d4d4d" font-size="11.733333333333334" font-family="sans-serif" text-anchor="middle">0</text><line x1="159.51663048489263" y1="340.0" x2="159.51663048489263" y2="343.66666666666663" stroke="#333333" stroke-width="1.3333333333333333"/><text x="159.51663048489263" y="355.9866666666667" fill="#4d4d4d" font-size="11.733333333333334" font-family="sans-serif" text-anchor="middle">5</text><line x1="250.7606058540246" y1="340.0" x2="250.7606058540246" y2="343.66666666666663" stroke="#333333" stroke-width="1.3333333333333333"/><text x="250.7606058540246" y="355.9866666666667" fill="#4d4d4d" font-size="11.733333333333334" font-family="sans-serif" text-anchor="middle">10</text><line x1="342.00458122315655" y1="340.0" x2="342.00458122315655" y2="343.66666666666663" stroke="#333333" stroke-width="1.3333333333333333"/><text x="342.00458122315655" y="355.9866666666667" fill="#4d4d4d" font-size="11.733333333333334" font-family="sans-serif" text-anchor="middle">15</text><line x1="433.24855659228854" y1="340.0" x2="433.24855659228854" y2="343.66666666666663" stroke="#333333" stroke-width="1.3333333333333333"/><text x="433.24855659228854" y="355.9866666666667" fill="#4d4d4d" font-size="11.733333333333334" font-family="sans-serif" text-anchor="middle">20</text><line x1="524.4925319614205" y1="340.0" x2="524.4925319614205" y2="343.66666666666663" stroke="#333333" stroke-width="1.3333333333333333"/><text x="524.4925319614205" y="355.9866666666667" fill="#4d4d4d" font-size="11.733333333333334" font-family="sans-serif" text-anchor="middle">25</text><line x1="67.46666666666667" y1="326.0121212121212" x2="63.8" y2="326.0121212121212" stroke="#333333" stroke-width="1.3333333333333333"/><text x="60.86666666666666" y="330.1187878787879" fill="#4d4d4d" font-size="11.733333333333334" font-family="sans-serif" text-anchor="end">0</text><line x1="67.46666666666667" y1="258.8982224122038" x2="63.8" y2="258.8982224122038" stroke="#333333" stroke-width="1.3333333333333333"/><text x="60.86666666666666" y="263.00488907887046" fill="#4d4d4d" font-size="11.733333333333334" font-family="sans-serif" text-anchor="end">2500</text><line x1="67.46666666666667" y1="191.7843236122863" x2="63.8" y2="191.7843236122863" stroke="#333333" stroke-width="1.3333333333333333"/><text x="60.86666666666666" y="195.89099027895298" fill="#4d4d4d" font-size="11.733333333333334" font-family="sans-serif" text-anchor="end">5000</text><line x1="67.46666666666667" y1="124.6704248123689" x2="63.8" y2="124.6704248123689" stroke="#333333" stroke-width="1.3333333333333333"/><text x="60.86666666666666" y="128.77709147903556" fill="#4d4d4d" font-size="11.733333333333334" font-family="sans-serif" text-anchor="end">7500</text><line x1="67.46666666666667" y1="57.55652601245151" x2="63.8" y2="57.55652601245151" stroke="#333333" stroke-width="1.3333333333333333"/><text x="60.86666666666666" y="61.663192679118175" fill="#4d4d4d" font-size="11.733333333333334" font-family="sans-serif" text-anchor="end">10000</text><text x="67.46666666666667" y="21.413333333333334" fill="#000000" font-size="17.599999999999998" font-family="sans-serif" text-anchor="start">予定出発時刻の頻度多角形 (欠航別)</text><text x="297.14296" y="373.73333333333335" fill="#000000" font-size="14.666666666666666" font-family="sans-serif" text-anchor="middle">sched_dep_time (時)</text><text x="17.599999999999998" y="186.13333333333333" fill="#000000" font-size="14.666666666666666" font-family="sans-serif" text-anchor="middle" transform="rotate(-90.0 17.599999999999998 186.13333333333333)">count</text><path d="M 86.52145018958706 326.0121212121212 L 91.08364895804365 326.0121212121212 L 95.64584772650025 326.0121212121212 L 100.20804649495685 326.0121212121212 L 104.77024526341344 326.0121212121212 L 109.33244403187004 326.0121212121212 L 113.89464280032664 326.0121212121212 L 118.45684156878323 326.0121212121212 L 123.01904033723986 326.0121212121212 L 127.58123910569645 326.0121212121212 L 132.14343787415305 326.0121212121212 L 136.70563664260965 326.0121212121212 L 141.26783541106624 326.0121212121212 L 145.83003417952284 326.0121212121212 L 150.39223294797944 326.0121212121212 L 154.95443171643603 326.0121212121212 L 159.51663048489263 316.8040942967725 L 164.07882925334923 319.30073133212943 L 168.64102802180582 320.02556143916854 L 173.20322679026242 298.25381266847535 L 177.76542555871902 99.40875330408005 L 182.3276243271756 216.07955497785647 L 186.8898230956322 127.24759852628574 L 191.4520218640888 229.6902536544797 L 196.0142206325454 98.71076875656088 L 200.576419401002 243.38148900966286 L 205.1386181694586 194.7373351594827 L 209.7008169379152 202.3883196226733 L 214.26301570637182 68.26790426091834 L 218.8252144748284 151.91866772513538 L 223.387413243285 121.71741326517254 L 227.9496120117416 197.69034670667907 L 232.5118107801982 109.47583812406761 L 237.07400954865483 222.14665142936897 L 241.6362083171114 204.4822732652307 L 246.198407085568 247.89154300901728 L 250.7606058540246 141.79789178610784 L 255.3228046224812 241.44860872422524 L 259.88500339093775 181.7172387922987 L 264.44720215939435 269.6096006606706 L 269.00940092785095 187.43534297005172 L 273.57159969630754 238.01237710566946 L 278.13379846476414 214.28090249001866 L 282.69599723322074 252.64320704405148 L 287.2581960016774 121.66372214613261 L 291.820394770134 249.18012986597574 L 296.3825935385906 260.8847938166813 L 300.9447923070472 202.41516518219328 L 305.5069910755038 154.76429703425188 L 310.0691898439604 229.87817257111948 L 314.63138861241697 213.3681534663398 L 319.19358738087357 213.87821909721916 L 323.75578614933016 192.052779207486 L 328.31798491778676 254.68346956756898 L 332.88018368624336 206.76414582442789 L 337.44238245469995 154.84483371281175 L 342.00458122315655 46.25454545454541 L 346.5667799916132 213.39499902585976 L 351.12897876006974 170.8447871867121 L 355.6911775285264 169.01928913935436 L 360.25337629698294 100.34834788727888 L 364.8155750654396 214.9788870375378 L 369.37777383389613 158.33475645040747 L 373.9399726023528 221.0728290485703 L 378.5021713708093 90.17388082921138 L 383.064370139266 190.57627343388782 L 387.6265689077225 119.32815846789552 L 392.18876767617917 257.7170177933252 L 396.7509664446357 153.58309241537336 L 401.31316521309236 205.15341225322987 L 405.8753639815489 149.69048628497814 L 410.43756275000555 247.9720796875772 L 414.9997615184621 101.90539033943696 L 419.56196028691875 227.59630001192227 L 424.12415905537534 131.5965791685204 L 428.68635782383194 243.38148900966286 L 433.24855659228854 167.8917756395157 L 437.81075536074513 257.52909887668545 L 442.37295412920173 214.8983503589779 L 446.9351528976583 250.76401787765377 L 451.4973516661149 192.26754368364575 L 456.0595504345715 281.79748468273556 L 460.6217492030281 248.24053528277688 L 465.1839479714847 280.83104454001676 L 469.7461467399413 292.0793339788829 L 474.3083455083979 322.7638085102052 L 478.8705442768545 316.1061097492534 L 483.4327430453111 285.2874074203313 L 487.9949418137677 311.1665267975794 L 492.5571405822243 325.9852756526012 L 497.1193393506809 325.63628337884165 L 501.6815381191375 325.5289011407618 L 506.2437368875941 300.965214179992" fill="" fill-opacity="0.0" stroke="#F8766D" stroke-width="1.8897637795275593"/><path d="M 86.52145018958706 325.9852756526012 L 91.08364895804365 326.0121212121212 L 95.64584772650025 326.0121212121212 L 100.20804649495685 326.0121212121212 L 104.77024526341344 326.0121212121212 L 109.33244403187004 326.0121212121212 L 113.89464280032664 326.0121212121212 L 118.45684156878323 326.0121212121212 L 123.01904033723986 326.0121212121212 L 127.58123910569645 326.0121212121212 L 132.14343787415305 326.0121212121212 L 136.70563664260965 326.0121212121212 L 141.26783541106624 326.0121212121212 L 145.83003417952284 326.0121212121212 L 150.39223294797944 326.0121212121212 L 154.95443171643603 326.0121212121212 L 159.51663048489263 325.9852756526012 L 164.07882925334923 325.95843009308123 L 168.64102802180582 325.9852756526012 L 173.20322679026242 325.87789341452134 L 177.76542555871902 320.9651560223674 L 182.3276243271756 324.4550787599631 L 186.8898230956322 323.22018302204464 L 191.4520218640888 324.72353435516277 L 196.0142206325454 323.30071970060453 L 200.576419401002 324.91145327180254 L 205.1386181694586 324.58930655756296 L 209.7008169379152 324.4013876409232 L 214.26301570637182 322.22689731980586 L 218.8252144748284 323.19333746252465 L 223.387413243285 322.22689731980586 L 227.9496120117416 323.5960208553241 L 232.5118107801982 322.36112511740566 L 237.07400954865483 324.4282332004432 L 241.6362083171114 324.562460998043 L 246.198407085568 324.4819243194831 L 250.7606058540246 321.9584417246062 L 255.3228046224812 324.508769879003 L 259.88500339093775 324.18662316476343 L 264.44720215939435 325.0993721884423 L 269.00940092785095 322.95172742684497 L 273.57159969630754 324.75037991468275 L 278.13379846476414 324.18662316476343 L 282.69599723322074 324.6429976766029 L 287.2581960016774 321.58260389132664 L 291.820394770134 323.91816756956376 L 296.3825935385906 323.91816756956376 L 300.9447923070472 324.10608648620354 L 305.5069910755038 321.6899861294065 L 310.0691898439604 323.8913220100438 L 314.63138861241697 323.3275652601245 L 319.19358738087357 323.8107853314839 L 323.75578614933016 322.6564262721253 L 328.31798491778676 324.32085096236324 L 332.88018368624336 322.871190748285 L 337.44238245469995 321.314148296127 L 342.00458122315655 317.7705344394913 L 346.5667799916132 323.03226410540486 L 351.12897876006974 321.9315961650862 L 355.6911775285264 321.8242139270063 L 360.25337629698294 318.9248934988499 L 364.8155750654396 321.07253826044723 L 369.37777383389613 320.0524069986885 L 373.9399726023528 321.79736836748634 L 378.5021713708093 318.33429118941064 L 383.064370139266 321.2336116175671 L 387.6265689077225 321.42153053420685 L 392.18876767617917 324.2671598433233 L 396.7509664446357 320.9651560223674 L 401.31316521309236 322.36112511740566 L 405.8753639815489 321.8242139270063 L 410.43756275000555 323.24702858156456 L 414.9997615184621 318.81751126077006 L 419.56196028691875 322.54904403404544 L 424.12415905537534 317.42154216573175 L 428.68635782383194 322.25374287932584 L 433.24855659228854 318.2000633918108 L 437.81075536074513 324.0523953671636 L 442.37295412920173 321.4483760937268 L 446.9351528976583 322.95172742684497 L 451.4973516661149 319.62287804636907 L 456.0595504345715 324.72353435516277 L 460.6217492030281 323.0859552244448 L 465.1839479714847 324.562460998043 L 469.7461467399413 324.6966887956428 L 474.3083455083979 325.6899744978816 L 478.8705442768545 325.3946733431619 L 483.4327430453111 325.1262177479623 L 487.9949418137677 325.8242022954814 L 492.5571405822243 326.0121212121212 L 497.1193393506809 326.0121212121212 L 501.6815381191375 326.0121212121212 L 506.2437368875941 325.6899744978816" fill="" fill-opacity="0.0" stroke="#00BFC4" stroke-width="1.8897637795275593"/><rect x="541.4859200000001" y="163.01925333333332" width="23.114079999999994" height="46.22815999999999" fill="#ebebeb" fill-opacity="1.0" stroke="none"/><rect x="541.4859200000001" y="163.01925333333332" width="23.114079999999994" height="23.114079999999994" fill="#f2f2f2" fill-opacity="1.0" stroke="none"/><rect x="542.4308018897639" y="163.96413522309712" width="21.224316220472435" height="21.224316220472435" fill="#F8766D" fill-opacity="0.0" stroke="#F8766D" stroke-width="1.3333333333333333"/><text x="568.2666666666667" y="178.33096" fill="#4d4d4d" font-size="11.733333333333334" font-family="sans-serif" text-anchor="start">FALSE</text><rect x="541.4859200000001" y="186.13333333333333" width="23.114079999999994" height="23.114079999999994" fill="#f2f2f2" fill-opacity="1.0" stroke="none"/><rect x="542.4308018897639" y="187.07821522309706" width="21.224316220472435" height="21.224316220472435" fill="#00BFC4" fill-opacity="0.0" stroke="#00BFC4" stroke-width="1.3333333333333333"/><text x="568.2666666666667" y="201.44503999999998" fill="#4d4d4d" font-size="11.733333333333334" font-family="sans-serif" text-anchor="start">TRUE</text></svg>