<svg xmlns="http://www.w3.org/2000/svg" width="800" height="600" viewBox="0 0 800 600"><rect x="0.0" y="0.0" width="800.0" height="600.0" fill="#ffffff" fill-opacity="1.0" stroke="none"/><line x1="124.53397007217109" y1="27.0" x2="124.53397007217109" y2="563.8" stroke="#dddddd" stroke-width="0.5"/><line x1="254.8987982520029" y1="27.0" x2="254.8987982520029" y2="563.8" stroke="#dddddd" stroke-width="0.5"/><line x1="385.2636264318347" y1="27.0" x2="385.2636264318347" y2="563.8" stroke="#dddddd" stroke-width="0.5"/><line x1="515.6284546116665" y1="27.0" x2="515.6284546116665" y2="563.8" stroke="#dddddd" stroke-width="0.5"/><line x1="645.9932827914984" y1="27.0" x2="645.9932827914984" y2="563.8" stroke="#dddddd" stroke-width="0.5"/><line x1="59.351555982255185" y1="27.0" x2="59.351555982255185" y2="563.8" stroke="#dddddd" stroke-width="1.0"/><line x1="189.71638416208697" y1="27.0" x2="189.71638416208697" y2="563.8" stroke="#dddddd" stroke-width="1.0"/><line x1="320.08121234191884" y1="27.0" x2="320.08121234191884" y2="563.8" stroke="#dddddd" stroke-width="1.0"/><line x1="450.4460405217506" y1="27.0" x2="450.4460405217506" y2="563.8" stroke="#dddddd" stroke-width="1.0"/><line x1="580.8108687015824" y1="27.0" x2="580.8108687015824" y2="563.8" stroke="#dddddd" stroke-width="1.0"/><line x1="711.1756968814142" y1="27.0" x2="711.1756968814142" y2="563.8" stroke="#dddddd" stroke-width="1.0"/><line x1="58.2" y1="480.8643508300546" x2="714.5" y2="480.8643508300546" stroke="#dddddd" stroke-width="0.5"/><line x1="58.2" y1="363.79305249016403" x2="714.5" y2="363.79305249016403" stroke="#dddddd" stroke-width="0.5"/><line x1="58.2" y1="246.7217541502734" x2="714.5" y2="246.7217541502734" stroke="#dddddd" stroke-width="0.5"/><line x1="58.2" y1="129.65045581038288" x2="714.5" y2="129.65045581038288" stroke="#dddddd" stroke-width="0.5"/><line x1="58.2" y1="539.4" x2="714.5" y2="539.4" stroke="#dddddd" stroke-width="1.0"/><line x1="58.2" y1="422.32870166010935" x2="714.5" y2="422.32870166010935" stroke="#dddddd" stroke-width="1.0"/><line x1="58.2" y1="305.2574033202187" x2="714.5" y2="305.2574033202187" stroke="#dddddd" stroke-width="1.0"/><line x1="58.2" y1="188.18610498032814" x2="714.5" y2="188.18610498032814" stroke="#dddddd" stroke-width="1.0"/><line x1="58.2" y1="71.11480664043756" x2="714.5" y2="71.11480664043756" stroke="#dddddd" stroke-width="1.0"/><rect x="58.2" y="27.0" width="656.3" height="536.8" fill="#ffffff" fill-opacity="0.0" stroke="#444444" stroke-width="1.0"/><line x1="59.351555982255185" y1="563.8" x2="59.351555982255185" y2="566.55" stroke="#444444" stroke-width="1.0"/><text x="59.351555982255185" y="577.55" fill="#333333" font-size="11.0" font-family="sans-serif" text-anchor="middle">0</text><line x1="189.71638416208697" y1="563.8" x2="189.71638416208697" y2="566.55" stroke="#444444" stroke-width="1.0"/><text x="189.71638416208697" y="577.55" fill="#333333" font-size="11.0" font-family="sans-serif" text-anchor="middle">5</text><line x1="320.08121234191884" y1="563.8" x2="320.08121234191884" y2="566.55" stroke="#444444" stroke-width="1.0"/><text x="320.08121234191884" y="577.55" fill="#333333" font-size="11.0" font-family="sans-serif" text-anchor="middle">10</text><line x1="450.4460405217506" y1="563.8" x2="450.4460405217506" y2="566.55" stroke="#444444" stroke-width="1.0"/><text x="450.4460405217506" y="577.55" fill="#333333" font-size="11.0" font-family="sans-serif" text-anchor="middle">15</text><line x1="580.8108687015824" y1="563.8" x2="580.8108687015824" y2="566.55" stroke="#444444" stroke-width="1.0"/><text x="580.8108687015824" y="577.55" fill="#333333" font-size="11.0" font-family="sans-serif" text-anchor="middle">20</text><line x1="711.1756968814142" y1="563.8" x2="711.1756968814142" y2="566.55" stroke="#444444" stroke-width="1.0"/><text x="711.1756968814142" y="577.55" fill="#333333" font-size="11.0" font-family="sans-serif" text-anchor="middle">25</text><line x1="58.2" y1="539.4" x2="55.45" y2="539.4" stroke="#444444" stroke-width="1.0"/><text x="53.25" y="543.25" fill="#333333" font-size="11.0" font-family="sans-serif" text-anchor="end">0</text><line x1="58.2" y1="422.32870166010935" x2="55.45" y2="422.32870166010935" stroke="#444444" stroke-width="1.0"/><text x="53.25" y="426.17870166010937" fill="#333333" font-size="11.0" font-family="sans-serif" text-anchor="end">2500</text><line x1="58.2" y1="305.2574033202187" x2="55.45" y2="305.2574033202187" stroke="#444444" stroke-width="1.0"/><text x="53.25" y="309.10740332021874" fill="#333333" font-size="11.0" font-family="sans-serif" text-anchor="end">5000</text><line x1="58.2" y1="188.18610498032814" x2="55.45" y2="188.18610498032814" stroke="#444444" stroke-width="1.0"/><text x="53.25" y="192.03610498032813" fill="#333333" font-size="11.0" font-family="sans-serif" text-anchor="end">7500</text><line x1="58.2" y1="71.11480664043756" x2="55.45" y2="71.11480664043756" stroke="#444444" stroke-width="1.0"/><text x="53.25" y="74.96480664043756" fill="#333333" font-size="11.0" font-family="sans-serif" text-anchor="end">10000</text><text x="386.34999999999997" y="18.3" fill="#333333" font-size="16.0" font-family="sans-serif" text-anchor="middle">予定出発時刻の頻度多角形 (欠航別)</text><text x="386.34999999999997" y="592.1" fill="#333333" font-size="12.0" font-family="sans-serif" text-anchor="middle">sched_dep_time (時)</text><text x="13.899999999999999" y="295.4" fill="#333333" font-size="12.0" font-family="sans-serif" text-anchor="middle" transform="rotate(-90.0 13.899999999999999 295.4)">count</text><path d="M 85.42452161822155 539.4 L 91.94276302721315 539.4 L 98.46100443620472 539.4 L 104.97924584519632 539.4 L 111.4974872541879 539.4 L 118.01572866317949 539.4 L 124.53397007217109 539.4 L 131.05221148116266 539.4 L 137.5704528901543 539.4 L 144.08869429914586 539.4 L 150.60693570813746 539.4 L 157.12517711712906 539.4 L 163.64341852612063 539.4 L 170.1616599351122 539.4 L 176.6799013441038 539.4 L 183.1981427530954 539.4 L 189.71638416208697 523.337817867767 L 196.2346255710786 527.6928701660108 L 202.75286698007017 528.9572401880818 L 209.27110838906174 490.9793110066212 L 215.78934979805337 144.12046828519334 L 222.30759120704494 347.6372133192591 L 228.82583261603656 192.6816428365799 L 235.34407402502814 371.3792726225889 L 241.8623154340197 142.90292678245845 L 248.38055684301128 395.2618174839266 L 254.8987982520029 310.4085404471739 L 261.4170396609945 323.7546684579214 L 267.9352810699861 89.7993858554841 L 274.4535224789777 235.7170521063237 L 280.97176388796925 183.03496785337296 L 287.4900052969609 315.55967757412907 L 294.00824670595244 161.68116303617688 L 300.5264881149441 358.2204586891852 L 307.04472952393564 327.407292966126 L 313.56297093292727 403.12900873236725 L 320.08121234191884 218.0627003166682 L 326.5994537509104 391.8901640917378 L 333.117695159902 287.6967085692351 L 339.63593656889356 441.0132808751559 L 346.1541779778852 297.6711831877938 L 352.67241938687675 385.8961136167354 L 359.1906607958683 344.49970252375005 L 365.70890220485995 411.41765665483155 L 372.2271436138515 182.941310814701 L 378.74538502284315 405.3767776604932 L 385.2636264318347 425.7940120909701 L 391.7818678408263 323.80149697725744 L 398.3001092498179 240.68087515593504 L 404.8183506588095 371.70707225794064 L 411.33659206780106 342.90753286632753 L 417.85483347679263 343.79727473371076 L 424.37307488578426 305.7256885135783 L 430.89131629477583 414.9766241243642 L 437.4095577037674 331.3877171096823 L 443.92779911275903 240.8213607139429 L 450.4460405217506 51.39999999999998 L 456.9642819307422 342.9543613856635 L 463.48252333973375 268.73115823817284 L 470.0007647487254 265.5468189233278 L 476.51900615771694 145.75946646195177 L 483.0372475667085 345.71724402648493 L 489.55548897570014 246.90906822761724 L 496.0737303846917 356.347317915747 L 502.5919717936833 128.0114576336244 L 509.11021320267486 303.1501199501007 L 515.6284546116665 178.86722963247286 L 522.146696020658 420.26824680932725 L 528.6649374296496 238.620420305153 L 535.1831788386413 328.57800594952494 L 541.7014202476329 231.83028500143934 L 548.2196616566245 403.2694942903752 L 554.737903065616 148.4755205834373 L 561.2561444746076 367.7266481143844 L 567.7743858835993 200.2678629690048 L 574.2926272925909 395.2618174839266 L 580.8108687015824 263.58002111121766 L 587.3291101105741 419.9404471739756 L 593.8473515195657 345.576758468477 L 600.3655929285572 408.1396603013146 L 606.8838343375488 306.100316668266 L 613.4020757465404 462.27342865368 L 619.920317155532 403.7377794837347 L 626.4385585645235 460.5876019575856 L 632.9567999735152 480.20875155935124 L 639.4750413825068 533.7337491603492 L 645.9932827914984 522.120276365032 L 652.5115242004899 468.3611361673543 L 659.0297656094815 513.5038288072161 L 665.5480070184731 539.353171480664 L 672.0662484274646 538.7444007292966 L 678.5844898364563 538.5570866519528 L 685.1027312454479 495.70899145955275" fill="" fill-opacity="0.0" stroke="#F8766D" stroke-width="0.75"/><path d="M 85.42452161822155 539.353171480664 L 91.94276302721315 539.4 L 98.46100443620472 539.4 L 104.97924584519632 539.4 L 111.4974872541879 539.4 L 118.01572866317949 539.4 L 124.53397007217109 539.4 L 131.05221148116266 539.4 L 137.5704528901543 539.4 L 144.08869429914586 539.4 L 150.60693570813746 539.4 L 157.12517711712906 539.4 L 163.64341852612063 539.4 L 170.1616599351122 539.4 L 176.6799013441038 539.4 L 183.1981427530954 539.4 L 189.71638416208697 539.353171480664 L 196.2346255710786 539.306342961328 L 202.75286698007017 539.353171480664 L 209.27110838906174 539.1658574033202 L 215.78934979805337 530.5962383648401 L 222.30759120704494 536.6839458785145 L 228.82583261603656 534.5298339890605 L 235.34407402502814 537.1522310718741 L 241.8623154340197 534.6703195470684 L 248.38055684301128 537.4800307072258 L 254.8987982520029 536.9180884751943 L 261.4170396609945 536.5902888398426 L 267.9352810699861 532.7971787736301 L 274.4535224789777 534.4830054697245 L 280.97176388796925 532.7971787736301 L 287.4900052969609 535.1854332597638 L 294.00824670595244 533.0313213703099 L 300.5264881149441 536.6371173591785 L 307.04472952393564 536.8712599558584 L 313.56297093292727 536.7307743978505 L 320.08121234191884 532.3288935802706 L 326.5994537509104 536.7776029171864 L 333.117695159902 536.215660685155 L 339.63593656889356 537.8078303425774 L 346.1541779778852 534.0615487957009 L 352.67241938687675 537.19905959121 L 359.1906607958683 536.215660685155 L 365.70890220485995 537.0117455138662 L 372.2271436138515 531.6732943095672 L 378.74538502284315 535.7473754917953 L 385.2636264318347 535.7473754917953 L 391.7818678408263 536.0751751271471 L 398.3001092498179 531.860608386911 L 404.8183506588095 535.7005469724594 L 411.33659206780106 534.7171480664043 L 417.85483347679263 535.5600614144515 L 424.37307488578426 533.5464350830055 L 430.89131629477583 536.4498032818348 L 437.4095577037674 533.921063237693 L 443.92779911275903 531.2050091162076 L 450.4460405217506 525.0236445638614 L 456.9642819307422 534.2020343537088 L 463.48252333973375 532.2820650609347 L 470.0007647487254 532.0947509835908 L 476.51900615771694 527.0372708953075 L 483.0372475667085 530.783552442184 L 489.55548897570014 529.0040687074177 L 496.0737303846917 532.0479224642548 L 502.5919717936833 526.0070434699164 L 509.11021320267486 531.0645235581998 L 515.6284546116665 531.3923231935514 L 522.146696020658 536.3561462431628 L 528.6649374296496 530.5962383648401 L 535.1831788386413 533.0313213703099 L 541.7014202476329 532.0947509835908 L 548.2196616566245 534.5766625083965 L 554.737903065616 526.8499568179636 L 561.2561444746076 533.3591210056616 L 567.7743858835993 524.414873812494 L 574.2926272925909 532.8440072929661 L 580.8108687015824 525.7729008732367 L 587.3291101105741 535.9815180884751 L 593.8473515195657 531.4391517128873 L 600.3655929285572 534.0615487957009 L 606.8838343375488 528.2548123980424 L 613.4020757465404 537.1522310718741 L 619.920317155532 534.2956913923807 L 626.4385585645235 536.8712599558584 L 632.9567999735152 537.1054025525381 L 639.4750413825068 538.8380577679685 L 645.9932827914984 538.322944055273 L 652.5115242004899 537.8546588619134 L 659.0297656094815 539.0722003646482 L 665.5480070184731 539.4 L 672.0662484274646 539.4 L 678.5844898364563 539.4 L 685.1027312454479 538.8380577679685" fill="" fill-opacity="0.0" stroke="#00BFC4" stroke-width="0.75"/><rect x="724.5" y="40.0" width="10.0" height="10.0" fill="#F8766D" fill-opacity="1.0" stroke="#444444" stroke-width="0.5"/><text x="738.5" y="49.0" fill="#333333" font-size="10.0" font-family="sans-serif" text-anchor="start">FALSE</text><rect x="724.5" y="56.0" width="10.0" height="10.0" fill="#00BFC4" fill-opacity="1.0" stroke="#444444" stroke-width="0.5"/><text x="738.5" y="65.0" fill="#333333" font-size="10.0" font-family="sans-serif" text-anchor="start">TRUE</text></svg>