<svg xmlns="http://www.w3.org/2000/svg" width="624" height="384" viewBox="0 0 624 384"><rect x="0.0" y="0.0" width="624.0" height="384.0" fill="#ffffff" fill-opacity="1.0" stroke="none"/><rect x="60.42666666666666" y="32.266666666666666" width="448.55792" height="307.73333333333335" fill="#ebebeb" fill-opacity="1.0" stroke="none"/><line x1="128.74308703911038" y1="32.266666666666666" x2="128.74308703911038" y2="340.0" stroke="#ffffff" stroke-width="0.6666666666666666"/><line x1="238.97175311272431" y1="32.266666666666666" x2="238.97175311272431" y2="340.0" stroke="#ffffff" stroke-width="0.6666666666666666"/><line x1="349.20041918633825" y1="32.266666666666666" x2="349.20041918633825" y2="340.0" stroke="#ffffff" stroke-width="0.6666666666666666"/><line x1="459.42908525995205" y1="32.266666666666666" x2="459.42908525995205" y2="340.0" stroke="#ffffff" stroke-width="0.6666666666666666"/><line x1="73.6287540023034" y1="32.266666666666666" x2="73.6287540023034" y2="340.0" stroke="#ffffff" stroke-width="1.3333333333333333"/><line x1="183.85742007591733" y1="32.266666666666666" x2="183.85742007591733" y2="340.0" stroke="#ffffff" stroke-width="1.3333333333333333"/><line x1="294.08608614953124" y1="32.266666666666666" x2="294.08608614953124" y2="340.0" stroke="#ffffff" stroke-width="1.3333333333333333"/><line x1="404.3147522231452" y1="32.266666666666666" x2="404.3147522231452" y2="340.0" stroke="#ffffff" stroke-width="1.3333333333333333"/><line x1="60.42666666666666" y1="298.9038289875499" x2="508.9845866666667" y2="298.9038289875499" stroke="#ffffff" stroke-width="0.6666666666666666"/><line x1="60.42666666666666" y1="244.68724453840733" x2="508.9845866666667" y2="244.68724453840733" stroke="#ffffff" stroke-width="0.6666666666666666"/><line x1="60.42666666666666" y1="190.47066008926473" x2="508.9845866666667" y2="190.47066008926473" stroke="#ffffff" stroke-width="0.6666666666666666"/><line x1="60.42666666666666" y1="136.25407564012212" x2="508.9845866666667" y2="136.25407564012212" stroke="#ffffff" stroke-width="0.6666666666666666"/><line x1="60.42666666666666" y1="82.03749119097957" x2="508.9845866666667" y2="82.03749119097957" stroke="#ffffff" stroke-width="0.6666666666666666"/><line x1="60.42666666666666" y1="326.0121212121212" x2="508.9845866666667" y2="326.0121212121212" stroke="#ffffff" stroke-width="1.3333333333333333"/><line x1="60.42666666666666" y1="271.7955367629786" x2="508.9845866666667" y2="271.7955367629786" stroke="#ffffff" stroke-width="1.3333333333333333"/><line x1="60.42666666666666" y1="217.57895231383603" x2="508.9845866666667" y2="217.57895231383603" stroke="#ffffff" stroke-width="1.3333333333333333"/><line x1="60.42666666666666" y1="163.36236786469343" x2="508.9845866666667" y2="163.36236786469343" stroke="#ffffff" stroke-width="1.3333333333333333"/><line x1="60.42666666666666" y1="109.14578341555082" x2="508.9845866666667" y2="109.14578341555082" stroke="#ffffff" stroke-width="1.3333333333333333"/><line x1="60.42666666666666" y1="54.929198966408265" x2="508.9845866666667" y2="54.929198966408265" stroke="#ffffff" stroke-width="1.3333333333333333"/><line x1="73.6287540023034" y1="340.0" x2="73.6287540023034" y2="343.66666666666663" stroke="#333333" stroke-width="1.3333333333333333"/><text x="73.6287540023034" y="355.9866666666667" fill="#4d4d4d" font-size="11.733333333333334" font-family="sans-serif" text-anchor="middle">0</text><line x1="183.85742007591733" y1="340.0" x2="183.85742007591733" y2="343.66666666666663" stroke="#333333" stroke-width="1.3333333333333333"/><text x="183.85742007591733" y="355.9866666666667" fill="#4d4d4d" font-size="11.733333333333334" font-family="sans-serif" text-anchor="middle">5000</text><line x1="294.08608614953124" y1="340.0" x2="294.08608614953124" y2="343.66666666666663" stroke="#333333" stroke-width="1.3333333333333333"/><text x="294.08608614953124" y="355.9866666666667" fill="#4d4d4d" font-size="11.733333333333334" font-family="sans-serif" text-anchor="middle">10000</text><line x1="404.3147522231452" y1="340.0" x2="404.3147522231452" y2="343.66666666666663" stroke="#333333" stroke-width="1.3333333333333333"/><text x="404.3147522231452" y="355.9866666666667" fill="#4d4d4d" font-size="11.733333333333334" font-family="sans-serif" text-anchor="middle">15000</text><line x1="60.42666666666666" y1="326.0121212121212" x2="56.76" y2="326.0121212121212" stroke="#333333" stroke-width="1.3333333333333333"/><text x="53.82666666666666" y="330.1187878787879" fill="#4d4d4d" font-size="11.733333333333334" font-family="sans-serif" text-anchor="end">0</text><line x1="60.42666666666666" y1="271.7955367629786" x2="56.76" y2="271.7955367629786" stroke="#333333" stroke-width="1.3333333333333333"/><text x="53.82666666666666" y="275.9022034296453" fill="#4d4d4d" font-size="11.733333333333334" font-family="sans-serif" text-anchor="end">1000</text><line x1="60.42666666666666" y1="217.57895231383603" x2="56.76" y2="217.57895231383603" stroke="#333333" stroke-width="1.3333333333333333"/><text x="53.82666666666666" y="221.6856189805027" fill="#4d4d4d" font-size="11.733333333333334" font-family="sans-serif" text-anchor="end">2000</text><line x1="60.42666666666666" y1="163.36236786469343" x2="56.76" y2="163.36236786469343" stroke="#333333" stroke-width="1.3333333333333333"/><text x="53.82666666666666" y="167.46903453136008" fill="#4d4d4d" font-size="11.733333333333334" font-family="sans-serif" text-anchor="end">3000</text><line x1="60.42666666666666" y1="109.14578341555082" x2="56.76" y2="109.14578341555082" stroke="#333333" stroke-width="1.3333333333333333"/><text x="53.82666666666666" y="113.25245008221749" fill="#4d4d4d" font-size="11.733333333333334" font-family="sans-serif" text-anchor="end">4000</text><line x1="60.42666666666666" y1="54.929198966408265" x2="56.76" y2="54.929198966408265" stroke="#333333" stroke-width="1.3333333333333333"/><text x="53.82666666666666" y="59.035865633074934" fill="#4d4d4d" font-size="11.733333333333334" font-family="sans-serif" text-anchor="end">5000</text><text x="60.42666666666666" y="21.413333333333334" fill="#000000" font-size="17.599999999999998" font-family="sans-serif" text-anchor="start">cut 別 price の頻度多角形 (count)</text><text x="284.70562666666666" y="373.73333333333335" fill="#000000" font-size="14.666666666666666" font-family="sans-serif" text-anchor="middle">price</text><text x="17.599999999999998" y="186.13333333333333" fill="#000000" font-size="14.666666666666666" font-family="sans-serif" text-anchor="middle" transform="rotate(-90.0 17.599999999999998 186.13333333333333)">count</text><path d="M 84.6516206096648 323.4097251585623 L 95.6744872170262 317.2832511158092 L 106.69735382438758 320.59046276720693 L 117.72022043174896 317.33746770025834 L 128.74308703911038 317.33746770025834 L 139.76595364647176 317.0121681935635 L 150.78882025383317 319.9940803382664 L 161.81168686119454 319.23504815597835 L 172.83455346855592 320.3735964294104 L 183.85742007591733 321.83744420953724 L 194.8802866832787 323.4097251585623 L 205.9031532906401 323.9518910030538 L 216.92601989800153 323.8434578341555 L 227.9488865053629 324.2771905097486 L 238.97175311272431 324.54827343199435 L 249.9946197200857 324.8735729386892 L 261.01748632744705 325.09043927648577 L 272.0403529348085 325.2530890298332 L 283.06321954216986 325.4699553676298 L 294.08608614953124 325.41573878318064 L 305.1089527568927 325.36152219873145 L 316.13181936425406 324.9820061075875 L 327.15468597161544 325.57838853652805 L 338.1775525789768 325.74103828987546 L 349.20041918633825 325.36152219873145 L 360.2232857936996 325.4699553676298 L 371.246152401061 325.2530890298332 L 382.26901900842233 325.5241719520789 L 393.29188561578377 325.74103828987546 L 404.3147522231452 325.6326051209772 L 415.3376188305066 325.4699553676298 L 426.36048543786796 325.6326051209772 L 437.3833520452293 325.79525487432466 L 448.4062186525907 325.8494714587738 L 459.42908525995205 325.79525487432466 L 470.4519518673135 325.6868217054263 L 481.47481847467486 325.74103828987546 L 492.4976850820363 326.0121212121212" fill="" fill-opacity="0.0" stroke="#F8766D" stroke-width="1.8897637795275593"/><path d="M 84.6516206096648 280.74127319708714 L 95.6744872170262 298.7953958186516 L 106.69735382438758 307.52426591496356 L 117.72022043174896 307.9037820061076 L 128.74308703911038 309.0965468639887 L 139.76595364647176 313.65073995771667 L 150.78882025383317 309.6929292929293 L 161.81168686119454 306.0062015503876 L 172.83455346855592 307.9037820061076 L 183.85742007591733 315.27723749119093 L 194.8802866832787 318.2591496358938 L 205.9031532906401 318.4760159736904 L 216.92601989800153 320.4278130138595 L 227.9488865053629 320.80732910500353 L 238.97175311272431 322.00009396288465 L 249.9946197200857 322.7049095607235 L 261.01748632744705 323.2470754052149 L 272.0403529348085 323.0844256518675 L 283.06321954216986 324.06032417195206 L 294.08608614953124 324.06032417195206 L 305.1089527568927 324.6024900164435 L 316.13181936425406 324.54827343199435 L 327.15468597161544 324.33140709419774 L 338.1775525789768 324.8193563542401 L 349.20041918633825 324.8193563542401 L 360.2232857936996 324.54827343199435 L 371.246152401061 324.71092318534176 L 382.26901900842233 324.76513976979095 L 393.29188561578377 325.09043927648577 L 404.3147522231452 324.8735729386892 L 415.3376188305066 325.1446558609349 L 426.36048543786796 324.6567066008926 L 437.3833520452293 324.8735729386892 L 448.4062186525907 325.57838853652805 L 459.42908525995205 325.1446558609349 L 470.4519518673135 325.1446558609349 L 481.47481847467486 325.1446558609349 L 492.4976850820363 325.95790462767206" fill="" fill-opacity="0.0" stroke="#A3A500" stroke-width="1.8897637795275593"/><path d="M 84.6516206096648 198.54893117218697 L 95.6744872170262 249.94625322997413 L 106.69735382438758 280.41597369039226 L 117.72022043174896 283.66896875734085 L 128.74308703911038 282.96415315950196 L 139.76595364647176 293.86168663377964 L 150.78882025383317 299.71707775428706 L 161.81168686119454 295.0002349072116 L 172.83455346855592 290.12074230678877 L 183.85742007591733 299.2833450786939 L 194.8802866832787 306.49415081042986 L 205.9031532906401 309.20498003288697 L 216.92601989800153 311.6447263330984 L 227.9488865053629 313.000140944327 L 238.97175311272431 314.73507164669957 L 249.9946197200857 318.1507164669955 L 261.01748632744705 318.8555320648344 L 272.0403529348085 318.4760159736904 L 283.06321954216986 319.5061310782241 L 294.08608614953124 319.2892647404275 L 305.1089527568927 320.26516326051205 L 316.13181936425406 321.62057787174064 L 327.15468597161544 321.0784120272492 L 338.1775525789768 321.51214470284236 L 349.20041918633825 321.9458773784355 L 360.2232857936996 322.00009396288465 L 371.246152401061 322.9217758985201 L 382.26901900842233 323.1386422363166 L 393.29188561578377 323.03020906741835 L 404.3147522231452 323.1386422363166 L 415.3376188305066 323.5723749119098 L 426.36048543786796 322.4338266384778 L 437.3833520452293 323.51815832746064 L 448.4062186525907 323.4097251585623 L 459.42908525995205 324.06032417195206 L 470.4519518673135 322.9759924829692 L 481.47481847467486 324.16875734085033 L 492.4976850820363 325.74103828987546" fill="" fill-opacity="0.0" stroke="#00BF7D" stroke-width="1.8897637795275593"/><path d="M 84.6516206096648 234.2776603241719 L 95.6744872170262 193.23570589617103 L 106.69735382438758 282.47620389945973 L 117.72022043174896 285.83763213530654 L 128.74308703911038 287.1388301620859 L 139.76595364647176 296.6809490251351 L 150.78882025383317 300.8014094432699 L 161.81168686119454 291.85567300916136 L 172.83455346855592 286.4340145642471 L 183.85742007591733 293.0484378670425 L 194.8802866832787 298.84961240310076 L 205.9031532906401 303.0242894056847 L 216.92601989800153 306.3315010570824 L 227.9488865053629 312.6748414376321 L 238.97175311272431 311.59050974864925 L 249.9946197200857 315.00615456894525 L 261.01748632744705 315.65675358233494 L 272.0403529348085 316.03626967347896 L 283.06321954216986 317.2832511158092 L 294.08608614953124 317.93385012919896 L 305.1089527568927 318.4760159736904 L 316.13181936425406 317.17481794691093 L 327.15468597161544 318.96396523373267 L 338.1775525789768 319.8856471693681 L 349.20041918633825 319.83143058491896 L 360.2232857936996 319.45191449377495 L 371.246152401061 320.0482969227155 L 382.26901900842233 320.1567300916138 L 393.29188561578377 320.5362461827578 L 404.3147522231452 321.0784120272492 L 415.3376188305066 321.9458773784355 L 426.36048543786796 321.0241954428001 L 437.3833520452293 322.32539346957947 L 448.4062186525907 320.48202959830866 L 459.42908525995205 322.4338266384778 L 470.4519518673135 322.48804322292693 L 481.47481847467486 322.65069297627434 L 492.4976850820363 325.6326051209772" fill="" fill-opacity="0.0" stroke="#00B0F6" stroke-width="1.8897637795275593"/><path d="M 84.6516206096648 136.52515856236784 L 95.6744872170262 46.25454545454541 L 106.69735382438758 226.14517265680053 L 117.72022043174896 232.05478036175708 L 128.74308703911038 260.62692036645524 L 139.76595364647176 274.94009866102886 L 150.78882025383317 287.24726333098425 L 161.81168686119454 296.08456659619446 L 172.83455346855592 293.64482029598304 L 183.85742007591733 292.0183227625088 L 194.8802866832787 300.3134601832276 L 205.9031532906401 305.62668545924356 L 216.92601989800153 304.05440451021843 L 227.9488865053629 308.01221517500585 L 238.97175311272431 310.4519614752173 L 249.9946197200857 312.5664082687338 L 261.01748632744705 312.8917077754287 L 272.0403529348085 313.0543575287761 L 283.06321954216986 313.9218228799624 L 294.08608614953124 316.74108527131784 L 305.1089527568927 316.1447028423772 L 316.13181936425406 315.65675358233494 L 327.15468597161544 319.0181818181818 L 338.1775525789768 319.1808315715292 L 349.20041918633825 319.07239840263094 L 360.2232857936996 320.3735964294104 L 371.246152401061 321.29527836504576 L 382.26901900842233 321.1868451961475 L 393.29188561578377 321.0241954428001 L 404.3147522231452 322.32539346957947 L 415.3376188305066 321.9458773784355 L 426.36048543786796 322.16274371623206 L 437.3833520452293 321.7290110406389 L 448.4062186525907 322.1085271317829 L 459.42908525995205 322.9217758985201 L 470.4519518673135 322.54225980737607 L 481.47481847467486 322.7049095607235 L 492.4976850820363 325.4699553676298" fill="" fill-opacity="0.0" stroke="#E76BF3" stroke-width="1.8897637795275593"/><rect x="523.6512533333333" y="128.34813333333335" width="23.114079999999994" height="115.57039999999998" fill="#ebebeb" fill-opacity="1.0" stroke="none"/><rect x="523.6512533333333" y="128.34813333333335" width="23.114079999999994" height="23.114079999999994" fill="#f2f2f2" fill-opacity="1.0" stroke="none"/><rect x="524.5961352230971" y="129.29301522309711" width="21.224316220472435" height="21.224316220472435" fill="#F8766D" fill-opacity="0.0" stroke="#F8766D" stroke-width="1.3333333333333333"/><text x="550.432" y="143.65984" fill="#4d4d4d" font-size="11.733333333333334" font-family="sans-serif" text-anchor="start">Fair</text><rect x="523.6512533333333" y="151.46221333333335" width="23.114079999999994" height="23.114079999999994" fill="#f2f2f2" fill-opacity="1.0" stroke="none"/><rect x="524.5961352230971" y="152.40709522309712" width="21.224316220472435" height="21.224316220472435" fill="#A3A500" fill-opacity="0.0" stroke="#A3A500" stroke-width="1.3333333333333333"/><text x="550.432" y="166.77392" fill="#4d4d4d" font-size="11.733333333333334" font-family="sans-serif" text-anchor="start">Good</text><rect x="523.6512533333333" y="174.57629333333333" width="23.114079999999994" height="23.114079999999994" fill="#f2f2f2" fill-opacity="1.0" stroke="none"/><rect x="524.5961352230971" y="175.5211752230971" width="21.224316220472435" height="21.224316220472435" fill="#00BF7D" fill-opacity="0.0" stroke="#00BF7D" stroke-width="1.3333333333333333"/><text x="550.432" y="189.88799999999998" fill="#4d4d4d" font-size="11.733333333333334" font-family="sans-serif" text-anchor="start">Very Good</text><rect x="523.6512533333333" y="197.69037333333335" width="23.114079999999994" height="23.114079999999994" fill="#f2f2f2" fill-opacity="1.0" stroke="none"/><rect x="524.5961352230971" y="198.63525522309715" width="21.224316220472435" height="21.224316220472435" fill="#00B0F6" fill-opacity="0.0" stroke="#00B0F6" stroke-width="1.3333333333333333"/><text x="550.432" y="213.00208" fill="#4d4d4d" font-size="11.733333333333334" font-family="sans-serif" text-anchor="start">Premium</text><rect x="523.6512533333333" y="220.80445333333333" width="23.114079999999994" height="23.114079999999994" fill="#f2f2f2" fill-opacity="1.0" stroke="none"/><rect x="524.5961352230971" y="221.74933522309712" width="21.224316220472435" height="21.224316220472435" fill="#E76BF3" fill-opacity="0.0" stroke="#E76BF3" stroke-width="1.3333333333333333"/><text x="550.432" y="236.11615999999998" fill="#4d4d4d" font-size="11.733333333333334" font-family="sans-serif" text-anchor="start">Ideal</text></svg>