<svg xmlns="http://www.w3.org/2000/svg" width="800" height="600" viewBox="0 0 800 600"><rect x="0.0" y="0.0" width="800.0" height="600.0" fill="#ffffff" fill-opacity="1.0" stroke="none"/><line x1="152.56122049275803" y1="27.0" x2="152.56122049275803" y2="563.8" stroke="#dddddd" stroke-width="0.5"/><line x1="315.46232976354895" y1="27.0" x2="315.46232976354895" y2="563.8" stroke="#dddddd" stroke-width="0.5"/><line x1="478.36343903433976" y1="27.0" x2="478.36343903433976" y2="563.8" stroke="#dddddd" stroke-width="0.5"/><line x1="641.2645483051306" y1="27.0" x2="641.2645483051306" y2="563.8" stroke="#dddddd" stroke-width="0.5"/><line x1="71.11066585736262" y1="27.0" x2="71.11066585736262" y2="563.8" stroke="#dddddd" stroke-width="1.0"/><line x1="234.0117751281535" y1="27.0" x2="234.0117751281535" y2="563.8" stroke="#dddddd" stroke-width="1.0"/><line x1="396.91288439894436" y1="27.0" x2="396.91288439894436" y2="563.8" stroke="#dddddd" stroke-width="1.0"/><line x1="559.8139936697352" y1="27.0" x2="559.8139936697352" y2="563.8" stroke="#dddddd" stroke-width="1.0"/><line x1="51.599999999999994" y1="492.1131782945736" x2="714.5" y2="492.1131782945736" stroke="#dddddd" stroke-width="0.5"/><line x1="51.599999999999994" y1="397.5395348837209" x2="714.5" y2="397.5395348837209" stroke="#dddddd" stroke-width="0.5"/><line x1="51.599999999999994" y1="302.9658914728682" x2="714.5" y2="302.9658914728682" stroke="#dddddd" stroke-width="0.5"/><line x1="51.599999999999994" y1="208.39224806201548" x2="714.5" y2="208.39224806201548" stroke="#dddddd" stroke-width="0.5"/><line x1="51.599999999999994" y1="113.81860465116279" x2="714.5" y2="113.81860465116279" stroke="#dddddd" stroke-width="0.5"/><line x1="51.599999999999994" y1="539.4" x2="714.5" y2="539.4" stroke="#dddddd" stroke-width="1.0"/><line x1="51.599999999999994" y1="444.8263565891473" x2="714.5" y2="444.8263565891473" stroke="#dddddd" stroke-width="1.0"/><line x1="51.599999999999994" y1="350.2527131782946" x2="714.5" y2="350.2527131782946" stroke="#dddddd" stroke-width="1.0"/><line x1="51.599999999999994" y1="255.6790697674419" x2="714.5" y2="255.6790697674419" stroke="#dddddd" stroke-width="1.0"/><line x1="51.599999999999994" y1="161.10542635658913" x2="714.5" y2="161.10542635658913" stroke="#dddddd" stroke-width="1.0"/><line x1="51.599999999999994" y1="66.53178294573644" x2="714.5" y2="66.53178294573644" stroke="#dddddd" stroke-width="1.0"/><rect x="51.599999999999994" y="27.0" width="662.9" height="536.8" fill="#ffffff" fill-opacity="0.0" stroke="#444444" stroke-width="1.0"/><line x1="71.11066585736262" y1="563.8" x2="71.11066585736262" y2="566.55" stroke="#444444" stroke-width="1.0"/><text x="71.11066585736262" y="577.55" fill="#333333" font-size="11.0" font-family="sans-serif" text-anchor="middle">0</text><line x1="234.0117751281535" y1="563.8" x2="234.0117751281535" y2="566.55" stroke="#444444" stroke-width="1.0"/><text x="234.0117751281535" y="577.55" fill="#333333" font-size="11.0" font-family="sans-serif" text-anchor="middle">5000</text><line x1="396.91288439894436" y1="563.8" x2="396.91288439894436" y2="566.55" stroke="#444444" stroke-width="1.0"/><text x="396.91288439894436" y="577.55" fill="#333333" font-size="11.0" font-family="sans-serif" text-anchor="middle">10000</text><line x1="559.8139936697352" y1="563.8" x2="559.8139936697352" y2="566.55" stroke="#444444" stroke-width="1.0"/><text x="559.8139936697352" y="577.55" fill="#333333" font-size="11.0" font-family="sans-serif" text-anchor="middle">15000</text><line x1="51.599999999999994" y1="539.4" x2="48.849999999999994" y2="539.4" stroke="#444444" stroke-width="1.0"/><text x="46.64999999999999" y="543.25" fill="#333333" font-size="11.0" font-family="sans-serif" text-anchor="end">0</text><line x1="51.599999999999994" y1="444.8263565891473" x2="48.849999999999994" y2="444.8263565891473" stroke="#444444" stroke-width="1.0"/><text x="46.64999999999999" y="448.6763565891473" fill="#333333" font-size="11.0" font-family="sans-serif" text-anchor="end">1000</text><line x1="51.599999999999994" y1="350.2527131782946" x2="48.849999999999994" y2="350.2527131782946" stroke="#444444" stroke-width="1.0"/><text x="46.64999999999999" y="354.1027131782946" fill="#333333" font-size="11.0" font-family="sans-serif" text-anchor="end">2000</text><line x1="51.599999999999994" y1="255.6790697674419" x2="48.849999999999994" y2="255.6790697674419" stroke="#444444" stroke-width="1.0"/><text x="46.64999999999999" y="259.5290697674419" fill="#333333" font-size="11.0" font-family="sans-serif" text-anchor="end">3000</text><line x1="51.599999999999994" y1="161.10542635658913" x2="48.849999999999994" y2="161.10542635658913" stroke="#444444" stroke-width="1.0"/><text x="46.64999999999999" y="164.95542635658913" fill="#333333" font-size="11.0" font-family="sans-serif" text-anchor="end">4000</text><line x1="51.599999999999994" y1="66.53178294573644" x2="48.849999999999994" y2="66.53178294573644" stroke="#444444" stroke-width="1.0"/><text x="46.64999999999999" y="70.38178294573643" fill="#333333" font-size="11.0" font-family="sans-serif" text-anchor="end">5000</text><text x="383.04999999999995" y="18.3" fill="#333333" font-size="16.0" font-family="sans-serif" text-anchor="middle">cut 別 price の頻度多角形 (count)</text><text x="383.04999999999995" y="592.1" fill="#333333" font-size="12.0" font-family="sans-serif" text-anchor="middle">price</text><text x="13.899999999999999" y="295.4" fill="#333333" font-size="12.0" font-family="sans-serif" text-anchor="middle" transform="rotate(-90.0 13.899999999999999 295.4)">count</text><path d="M 87.40077678444169 534.860465116279 L 103.69088771152079 524.1736434108527 L 119.98099863859987 529.9426356589147 L 136.27110956567896 524.2682170542636 L 152.56122049275803 524.2682170542636 L 168.85133141983715 523.7007751937984 L 185.14144234691622 528.9023255813953 L 201.43155327399532 527.5782945736433 L 217.7216642010744 529.5643410852713 L 234.0117751281535 532.1178294573643 L 250.30188605523256 534.860465116279 L 266.5919969823117 535.8062015503875 L 282.8821079093907 535.6170542635658 L 299.1722188364698 536.3736434108527 L 315.46232976354895 536.8465116279069 L 331.75244069062796 537.413953488372 L 348.0425516177071 537.7922480620155 L 364.3326625447862 538.075968992248 L 380.62277347186523 538.4542635658914 L 396.91288439894436 538.3596899224806 L 413.2029953260235 538.2651162790697 L 429.4931062531025 537.6031007751938 L 445.7832171801816 538.6434108527131 L 462.07332810726064 538.9271317829457 L 478.36343903433976 538.2651162790697 L 494.6535499614189 538.4542635658914 L 510.9436608884979 538.075968992248 L 527.233771815577 538.5488372093023 L 543.5238827426562 538.9271317829457 L 559.8139936697352 538.737984496124 L 576.1041045968143 538.4542635658914 L 592.3942155238933 538.737984496124 L 608.6843264509724 539.0217054263566 L 624.9744373780516 539.1162790697674 L 641.2645483051306 539.0217054263566 L 657.5546592322097 538.8325581395349 L 673.8447701592887 538.9271317829457 L 690.1348810863678 539.4" fill="" fill-opacity="0.0" stroke="#F8766D" stroke-width="0.75"/><path d="M 87.40077678444169 460.43100775193795 L 103.69088771152079 491.92403100775186 L 119.98099863859987 507.1503875968992 L 136.27110956567896 507.81240310077516 L 152.56122049275803 509.8930232558139 L 168.85133141983715 517.8372093023255 L 185.14144234691622 510.9333333333333 L 201.43155327399532 504.5023255813953 L 217.7216642010744 507.81240310077516 L 234.0117751281535 520.6744186046511 L 250.30188605523256 525.875968992248 L 266.5919969823117 526.2542635658914 L 282.8821079093907 529.6589147286821 L 299.1722188364698 530.3209302325581 L 315.46232976354895 532.4015503875969 L 331.75244069062796 533.6310077519379 L 348.0425516177071 534.5767441860464 L 364.3326625447862 534.2930232558139 L 380.62277347186523 535.9953488372092 L 396.91288439894436 535.9953488372092 L 413.2029953260235 536.9410852713178 L 429.4931062531025 536.8465116279069 L 445.7832171801816 536.4682170542635 L 462.07332810726064 537.3193798449612 L 478.36343903433976 537.3193798449612 L 494.6535499614189 536.8465116279069 L 510.9436608884979 537.1302325581395 L 527.233771815577 537.2248062015503 L 543.5238827426562 537.7922480620155 L 559.8139936697352 537.413953488372 L 576.1041045968143 537.8868217054263 L 592.3942155238933 537.0356589147286 L 608.6843264509724 537.413953488372 L 624.9744373780516 538.6434108527131 L 641.2645483051306 537.8868217054263 L 657.5546592322097 537.8868217054263 L 673.8447701592887 537.8868217054263 L 690.1348810863678 539.3054263565891" fill="" fill-opacity="0.0" stroke="#A3A500" stroke-width="0.75"/><path d="M 87.40077678444169 317.05736434108525 L 103.69088771152079 406.7131782945736 L 119.98099863859987 459.86356589147283 L 136.27110956567896 465.53798449612395 L 152.56122049275803 464.3085271317829 L 168.85133141983715 483.3178294573643 L 185.14144234691622 493.5317829457364 L 201.43155327399532 485.3038759689922 L 217.7216642010744 476.79224806201546 L 234.0117751281535 492.77519379844955 L 250.30188605523256 505.353488372093 L 266.5919969823117 510.0821705426356 L 282.8821079093907 514.337984496124 L 299.1722188364698 516.7023255813953 L 315.46232976354895 519.7286821705426 L 331.75244069062796 525.6868217054263 L 348.0425516177071 526.9162790697674 L 364.3326625447862 526.2542635658914 L 380.62277347186523 528.0511627906976 L 396.91288439894436 527.6728682170542 L 413.2029953260235 529.3751937984496 L 429.4931062531025 531.7395348837209 L 445.7832171801816 530.7937984496124 L 462.07332810726064 531.5503875968992 L 478.36343903433976 532.306976744186 L 494.6535499614189 532.4015503875969 L 510.9436608884979 534.0093023255813 L 527.233771815577 534.3875968992247 L 543.5238827426562 534.198449612403 L 559.8139936697352 534.3875968992247 L 576.1041045968143 535.1441860465115 L 592.3942155238933 533.1581395348837 L 608.6843264509724 535.0496124031007 L 624.9744373780516 534.860465116279 L 641.2645483051306 535.9953488372092 L 657.5546592322097 534.1038759689922 L 673.8447701592887 536.1844961240309 L 690.1348810863678 538.9271317829457" fill="" fill-opacity="0.0" stroke="#00BF7D" stroke-width="0.75"/><path d="M 87.40077678444169 379.38139534883715 L 103.69088771152079 307.7891472868217 L 119.98099863859987 463.4573643410852 L 136.27110956567896 469.3209302325581 L 152.56122049275803 471.59069767441855 L 168.85133141983715 488.2356589147287 L 185.14144234691622 495.42325581395346 L 201.43155327399532 479.8186046511628 L 217.7216642010744 470.3612403100775 L 234.0117751281535 481.8992248062015 L 250.30188605523256 492.0186046511628 L 266.5919969823117 499.3007751937984 L 282.8821079093907 505.06976744186045 L 299.1722188364698 516.1348837209302 L 315.46232976354895 514.2434108527132 L 331.75244069062796 520.2015503875969 L 348.0425516177071 521.3364341085271 L 364.3326625447862 521.9984496124031 L 380.62277347186523 524.1736434108527 L 396.91288439894436 525.3085271317829 L 413.2029953260235 526.2542635658914 L 429.4931062531025 523.984496124031 L 445.7832171801816 527.1054263565891 L 462.07332810726064 528.7131782945736 L 478.36343903433976 528.6186046511627 L 494.6535499614189 527.9565891472868 L 510.9436608884979 528.9968992248062 L 527.233771815577 529.1860465116279 L 543.5238827426562 529.8480620155038 L 559.8139936697352 530.7937984496124 L 576.1041045968143 532.306976744186 L 592.3942155238933 530.6992248062015 L 608.6843264509724 532.968992248062 L 624.9744373780516 529.753488372093 L 641.2645483051306 533.1581395348837 L 657.5546592322097 533.2527131782946 L 673.8447701592887 533.536434108527 L 690.1348810863678 538.737984496124" fill="" fill-opacity="0.0" stroke="#00B0F6" stroke-width="0.75"/><path d="M 87.40077678444169 208.86511627906975 L 103.69088771152079 51.39999999999998 L 119.98099863859987 365.1953488372093 L 136.27110956567896 375.50387596899225 L 152.56122049275803 425.3441860465116 L 168.85133141983715 450.3116279069767 L 185.14144234691622 471.77984496124026 L 201.43155327399532 487.1953488372093 L 217.7216642010744 482.93953488372085 L 234.0117751281535 480.10232558139535 L 250.30188605523256 494.5720930232558 L 266.5919969823117 503.84031007751935 L 282.8821079093907 501.0976744186046 L 299.1722188364698 508.00155038759686 L 315.46232976354895 512.2573643410852 L 331.75244069062796 515.9457364341085 L 348.0425516177071 516.5131782945737 L 364.3326625447862 516.7968992248061 L 380.62277347186523 518.3100775193798 L 396.91288439894436 523.2279069767442 L 413.2029953260235 522.1875968992248 L 429.4931062531025 521.3364341085271 L 445.7832171801816 527.1999999999999 L 462.07332810726064 527.4837209302325 L 478.36343903433976 527.2945736434108 L 494.6535499614189 529.5643410852713 L 510.9436608884979 531.1720930232558 L 527.233771815577 530.9829457364341 L 543.5238827426562 530.6992248062015 L 559.8139936697352 532.968992248062 L 576.1041045968143 532.306976744186 L 592.3942155238933 532.6852713178295 L 608.6843264509724 531.9286821705426 L 624.9744373780516 532.5906976744186 L 641.2645483051306 534.0093023255813 L 657.5546592322097 533.3472868217054 L 673.8447701592887 533.6310077519379 L 690.1348810863678 538.4542635658914" fill="" fill-opacity="0.0" stroke="#E76BF3" stroke-width="0.75"/><rect x="724.5" y="40.0" width="10.0" height="10.0" fill="#F8766D" fill-opacity="1.0" stroke="#444444" stroke-width="0.5"/><text x="738.5" y="49.0" fill="#333333" font-size="10.0" font-family="sans-serif" text-anchor="start">Fair</text><rect x="724.5" y="56.0" width="10.0" height="10.0" fill="#A3A500" fill-opacity="1.0" stroke="#444444" stroke-width="0.5"/><text x="738.5" y="65.0" fill="#333333" font-size="10.0" font-family="sans-serif" text-anchor="start">Good</text><rect x="724.5" y="72.0" width="10.0" height="10.0" fill="#00BF7D" fill-opacity="1.0" stroke="#444444" stroke-width="0.5"/><text x="738.5" y="81.0" fill="#333333" font-size="10.0" font-family="sans-serif" text-anchor="start">Very Good</text><rect x="724.5" y="88.0" width="10.0" height="10.0" fill="#00B0F6" fill-opacity="1.0" stroke="#444444" stroke-width="0.5"/><text x="738.5" y="97.0" fill="#333333" font-size="10.0" font-family="sans-serif" text-anchor="start">Premium</text><rect x="724.5" y="104.0" width="10.0" height="10.0" fill="#E76BF3" fill-opacity="1.0" stroke="#444444" stroke-width="0.5"/><text x="738.5" y="113.0" fill="#333333" font-size="10.0" font-family="sans-serif" text-anchor="start">Ideal</text></svg>