<svg xmlns="http://www.w3.org/2000/svg" width="624" height="384" viewBox="0 0 624 384"><rect x="0.0" y="0.0" width="624.0" height="384.0" fill="#ffffff" fill-opacity="1.0" stroke="none"/><rect x="67.46666666666667" y="32.266666666666666" width="441.51792" height="307.73333333333335" fill="#ebebeb" fill-opacity="1.0" stroke="none"/><line x1="134.71087857287256" y1="32.266666666666666" x2="134.71087857287256" y2="340.0" stroke="#ffffff" stroke-width="0.6666666666666666"/><line x1="243.20953437455051" y1="32.266666666666666" x2="243.20953437455051" y2="340.0" stroke="#ffffff" stroke-width="0.6666666666666666"/><line x1="351.7081901762285" y1="32.266666666666666" x2="351.7081901762285" y2="340.0" stroke="#ffffff" stroke-width="0.6666666666666666"/><line x1="460.20684597790637" y1="32.266666666666666" x2="460.20684597790637" y2="340.0" stroke="#ffffff" stroke-width="0.6666666666666666"/><line x1="80.46155067203364" y1="32.266666666666666" x2="80.46155067203364" y2="340.0" stroke="#ffffff" stroke-width="1.3333333333333333"/><line x1="188.96020647371157" y1="32.266666666666666" x2="188.96020647371157" y2="340.0" stroke="#ffffff" stroke-width="1.3333333333333333"/><line x1="297.4588622753895" y1="32.266666666666666" x2="297.4588622753895" y2="340.0" stroke="#ffffff" stroke-width="1.3333333333333333"/><line x1="405.9575180770674" y1="32.266666666666666" x2="405.9575180770674" y2="340.0" stroke="#ffffff" stroke-width="1.3333333333333333"/><line x1="67.46666666666667" y1="296.8015809255344" x2="508.9845866666667" y2="296.8015809255344" stroke="#ffffff" stroke-width="0.6666666666666666"/><line x1="67.46666666666667" y1="238.3805003523608" x2="508.9845866666667" y2="238.3805003523608" stroke="#ffffff" stroke-width="0.6666666666666666"/><line x1="67.46666666666667" y1="179.95941977918724" x2="508.9845866666667" y2="179.95941977918724" stroke="#ffffff" stroke-width="0.6666666666666666"/><line x1="67.46666666666667" y1="121.53833920601357" x2="508.9845866666667" y2="121.53833920601357" stroke="#ffffff" stroke-width="0.6666666666666666"/><line x1="67.46666666666667" y1="63.11725863284005" x2="508.9845866666667" y2="63.11725863284005" stroke="#ffffff" stroke-width="0.6666666666666666"/><line x1="67.46666666666667" y1="326.0121212121212" x2="508.9845866666667" y2="326.0121212121212" stroke="#ffffff" stroke-width="1.3333333333333333"/><line x1="67.46666666666667" y1="267.59104063894756" x2="508.9845866666667" y2="267.59104063894756" stroke="#ffffff" stroke-width="1.3333333333333333"/><line x1="67.46666666666667" y1="209.16996006577398" x2="508.9845866666667" y2="209.16996006577398" stroke="#ffffff" stroke-width="1.3333333333333333"/><line x1="67.46666666666667" y1="150.7488794926004" x2="508.9845866666667" y2="150.7488794926004" stroke="#ffffff" stroke-width="1.3333333333333333"/><line x1="67.46666666666667" y1="92.32779891942675" x2="508.9845866666667" y2="92.32779891942675" stroke="#ffffff" stroke-width="1.3333333333333333"/><line x1="67.46666666666667" y1="33.90671834625323" x2="508.9845866666667" y2="33.90671834625323" stroke="#ffffff" stroke-width="1.3333333333333333"/><line x1="80.46155067203364" y1="340.0" x2="80.46155067203364" y2="343.66666666666663" stroke="#333333" stroke-width="1.3333333333333333"/><text x="80.46155067203364" y="355.9866666666667" fill="#4d4d4d" font-size="11.733333333333334" font-family="sans-serif" text-anchor="middle">0</text><line x1="188.96020647371157" y1="340.0" x2="188.96020647371157" y2="343.66666666666663" stroke="#333333" stroke-width="1.3333333333333333"/><text x="188.96020647371157" y="355.9866666666667" fill="#4d4d4d" font-size="11.733333333333334" font-family="sans-serif" text-anchor="middle">5000</text><line x1="297.4588622753895" y1="340.0" x2="297.4588622753895" y2="343.66666666666663" stroke="#333333" stroke-width="1.3333333333333333"/><text x="297.4588622753895" y="355.9866666666667" fill="#4d4d4d" font-size="11.733333333333334" font-family="sans-serif" text-anchor="middle">10000</text><line x1="405.9575180770674" y1="340.0" x2="405.9575180770674" y2="343.66666666666663" stroke="#333333" stroke-width="1.3333333333333333"/><text x="405.9575180770674" y="355.9866666666667" fill="#4d4d4d" font-size="11.733333333333334" font-family="sans-serif" text-anchor="middle">15000</text><line x1="67.46666666666667" y1="326.0121212121212" x2="63.8" y2="326.0121212121212" stroke="#333333" stroke-width="1.3333333333333333"/><text x="60.86666666666666" y="330.1187878787879" fill="#4d4d4d" font-size="11.733333333333334" font-family="sans-serif" text-anchor="end">0e+00</text><line x1="67.46666666666667" y1="267.59104063894756" x2="63.8" y2="267.59104063894756" stroke="#333333" stroke-width="1.3333333333333333"/><text x="60.86666666666666" y="271.69770730561424" fill="#4d4d4d" font-size="11.733333333333334" font-family="sans-serif" text-anchor="end">1e-04</text><line x1="67.46666666666667" y1="209.16996006577398" x2="63.8" y2="209.16996006577398" stroke="#333333" stroke-width="1.3333333333333333"/><text x="60.86666666666666" y="213.27662673244066" fill="#4d4d4d" font-size="11.733333333333334" font-family="sans-serif" text-anchor="end">2e-04</text><line x1="67.46666666666667" y1="150.7488794926004" x2="63.8" y2="150.7488794926004" stroke="#333333" stroke-width="1.3333333333333333"/><text x="60.86666666666666" y="154.85554615926705" fill="#4d4d4d" font-size="11.733333333333334" font-family="sans-serif" text-anchor="end">3e-04</text><line x1="67.46666666666667" y1="92.32779891942675" x2="63.8" y2="92.32779891942675" stroke="#333333" stroke-width="1.3333333333333333"/><text x="60.86666666666666" y="96.43446558609341" fill="#4d4d4d" font-size="11.733333333333334" font-family="sans-serif" text-anchor="end">4e-04</text><line x1="67.46666666666667" y1="33.90671834625323" x2="63.8" y2="33.90671834625323" stroke="#333333" stroke-width="1.3333333333333333"/><text x="60.86666666666666" y="38.01338501291989" fill="#4d4d4d" font-size="11.733333333333334" font-family="sans-serif" text-anchor="end">5e-04</text><text x="67.46666666666667" y="21.413333333333334" fill="#000000" font-size="17.599999999999998" font-family="sans-serif" text-anchor="start">cut 別 price の頻度多角形 (density)</text><text x="288.22562666666664" y="373.73333333333335" fill="#000000" font-size="14.666666666666666" font-family="sans-serif" text-anchor="middle">price</text><text x="17.599999999999998" y="186.13333333333333" fill="#000000" font-size="14.666666666666666" font-family="sans-serif" text-anchor="middle" transform="rotate(-90.0 17.599999999999998 186.13333333333333)">density</text><path d="M 91.31141625220143 291.1771911809121 L 102.16128183236921 209.16996006577398 L 113.01114741253701 253.4393503137689 L 123.8610129927048 209.89568777475756 L 134.71087857287256 209.89568777475756 L 145.5607441530404 205.5413215208564 L 156.4106097332082 245.4563455149501 L 167.260475313376 235.2961575891808 L 178.11034089354376 250.53643947783485 L 188.96020647371157 270.1310876203899 L 199.81007205387937 291.1771911809121 L 210.65993763404714 298.4344682707473 L 221.50980321421494 296.98301285278023 L 232.35966879438274 302.78883452464845 L 243.20953437455051 306.4174730695661 L 254.05939995471832 310.77183932346725 L 264.9092655348861 313.6747501594013 L 275.7591311150539 315.8519332863519 L 286.60899669522166 318.75484412228593 L 297.4588622753895 318.0291164133024 L 308.3087278555573 317.30338870431893 L 319.15859343572504 312.22329474143424 L 330.00845901589287 320.206299540253 L 340.85832459606064 322.38348266720357 L 351.7081901762285 317.30338870431893 L 362.55805575639624 318.75484412228593 L 373.407921336564 315.8519332863519 L 384.2577869167318 319.48057183126946 L 395.1076524968996 322.38348266720357 L 405.9575180770674 320.9320272492365 L 416.8073836572353 318.75484412228593 L 427.657249237403 320.9320272492365 L 438.50711481757077 323.1092103761871 L 449.35698039773854 323.8349380851706 L 460.20684597790637 323.1092103761871 L 471.05671155807414 321.65775495822004 L 481.9065771382419 322.38348266720357 L 492.75644271840974 326.0121212121212" fill="" fill-opacity="0.0" stroke="#F8766D" stroke-width="1.8897637795275593"/><path d="M 91.31141625220143 127.14704873515439 L 102.16128183236921 206.45491596249568 L 113.01114741253701 244.7989598772162 L 123.8610129927048 246.46609222133452 L 134.71087857287256 251.70565101713478 L 145.5607441530404 271.7112391465542 L 156.4106097332082 254.32543041503496 L 167.260475313376 238.13043050074307 L 178.11034089354376 246.46609222133452 L 188.96020647371157 278.8560920499183 L 199.81007205387937 291.9549890394191 L 210.65993763404714 292.90763609320095 L 221.50980321421494 301.48145957723784 L 232.35966879438274 303.1485919213561 L 243.20953437455051 308.38815071715646 L 254.05939995471832 311.4842536419476 L 264.9092655348861 313.86587127640223 L 275.7591311150539 313.15138598606586 L 286.60899669522166 317.4382977280843 L 297.4588622753895 317.4382977280843 L 308.3087278555573 319.819915362539 L 319.15859343572504 319.58175359909353 L 330.00845901589287 318.62910654531163 L 340.85832459606064 320.77256241632085 L 351.7081901762285 320.77256241632085 L 362.55805575639624 319.58175359909353 L 373.407921336564 320.2962388894299 L 384.2577869167318 320.53440065287543 L 395.1076524968996 321.96337123354823 L 405.9575180770674 321.0107241797663 L 416.8073836572353 322.2015329969937 L 427.657249237403 320.0580771259845 L 438.50711481757077 321.0107241797663 L 449.35698039773854 324.10682710455745 L 460.20684597790637 322.2015329969937 L 471.05671155807414 322.2015329969937 L 481.9065771382419 322.2015329969937 L 492.75644271840974 325.7739594486757" fill="" fill-opacity="0.0" stroke="#A3A500" stroke-width="1.8897637795275593"/><path d="M 91.31141625220143 98.65247806110133 L 102.16128183236921 190.33131332574055 L 113.01114741253701 244.68100258600137 L 123.8610129927048 250.48346051414308 L 134.71087857287256 249.22626129637902 L 145.5607441530404 268.6644953556538 L 156.4106097332082 279.1089196263089 L 167.260475313376 270.6953556305034 L 178.11034089354376 261.99166873829085 L 188.96020647371157 278.33525856922336 L 199.81007205387937 291.19737364327085 L 210.65993763404714 296.03275525005563 L 221.50980321421494 300.3845986961619 L 232.35966879438274 302.80228949955426 L 243.20953437455051 305.89693372789657 L 254.05939995471832 311.98951455244537 L 264.9092655348861 313.2467137702094 L 275.7591311150539 312.5697603452595 L 286.60899669522166 314.40720535583773 L 297.4588622753895 314.020374827295 L 308.3087278555573 315.7611122057375 L 319.15859343572504 318.17880300912987 L 330.00845901589287 317.2117266877729 L 340.85832459606064 317.9853877448585 L 351.7081901762285 318.759048801944 L 362.55805575639624 318.8557564340797 L 373.407921336564 320.49978618038654 L 384.2577869167318 320.88661670892935 L 395.1076524968996 320.6932014446579 L 405.9575180770674 320.88661670892935 L 416.8073836572353 321.66027776601493 L 427.657249237403 319.6294174911653 L 438.50711481757077 321.56357013387924 L 449.35698039773854 321.3701548696078 L 460.20684597790637 322.53064645523614 L 471.05671155807414 320.5964938125222 L 481.9065771382419 322.7240617195075 L 492.75644271840974 325.5285830514427" fill="" fill-opacity="0.0" stroke="#00BF7D" stroke-width="1.8897637795275593"/><path d="M 91.31141625220143 182.65998093250448 L 102.16128183236921 118.52430115019365 L 113.01114741253701 257.9791610203173 L 123.8610129927048 263.2320172244167 L 134.71087857287256 265.26538091632614 L 145.5607441530404 280.1767146569955 L 156.4106097332082 286.6156996813755 L 167.260475313376 272.6363242994979 L 178.11034089354376 264.1639755832085 L 188.96020647371157 274.50024101708163 L 199.81007205387937 283.56565414351127 L 210.65993763404714 290.0893626550541 L 221.50980321421494 295.2574953719907 L 232.35966879438274 305.17014337004923 L 243.20953437455051 303.4756736267914 L 254.05939995471832 308.8132533180537 L 264.9092655348861 309.8299351640084 L 275.7591311150539 310.42299957414866 L 286.60899669522166 312.37163977889526 L 297.4588622753895 313.38832162485 L 308.3087278555573 314.2355564964789 L 319.15859343572504 312.20219280456945 L 330.00845901589287 314.998067880945 L 340.85832459606064 316.43836716271414 L 351.7081901762285 316.35364367555127 L 362.55805575639624 315.760579265411 L 373.407921336564 316.6925376242028 L 384.2577869167318 316.86198459852864 L 395.1076524968996 317.4550490086689 L 405.9575180770674 318.30228388029786 L 416.8073836572353 319.6578596749041 L 427.657249237403 318.21756039313493 L 438.50711481757077 320.2509240850444 L 449.35698039773854 317.370325521506 L 460.20684597790637 320.42037105937015 L 471.05671155807414 320.5050945465331 L 481.9065771382419 320.75926500802177 L 492.75644271840974 325.4190568019809" fill="" fill-opacity="0.0" stroke="#00B0F6" stroke-width="1.8897637795275593"/><path d="M 91.31141625220143 136.52515856236784 L 102.16128183236921 46.25454545454541 L 113.01114741253701 226.14517265680053 L 123.8610129927048 232.05478036175708 L 134.71087857287256 260.62692036645524 L 145.5607441530404 274.94009866102886 L 156.4106097332082 287.24726333098425 L 167.260475313376 296.08456659619446 L 178.11034089354376 293.64482029598304 L 188.96020647371157 292.0183227625088 L 199.81007205387937 300.3134601832276 L 210.65993763404714 305.62668545924356 L 221.50980321421494 304.05440451021843 L 232.35966879438274 308.01221517500585 L 243.20953437455051 310.4519614752173 L 254.05939995471832 312.5664082687338 L 264.9092655348861 312.8917077754287 L 275.7591311150539 313.0543575287761 L 286.60899669522166 313.9218228799624 L 297.4588622753895 316.74108527131784 L 308.3087278555573 316.1447028423772 L 319.15859343572504 315.65675358233494 L 330.00845901589287 319.0181818181818 L 340.85832459606064 319.1808315715292 L 351.7081901762285 319.07239840263094 L 362.55805575639624 320.3735964294103 L 373.407921336564 321.29527836504576 L 384.2577869167318 321.1868451961475 L 395.1076524968996 321.0241954428001 L 405.9575180770674 322.32539346957947 L 416.8073836572353 321.9458773784355 L 427.657249237403 322.16274371623206 L 438.50711481757077 321.7290110406389 L 449.35698039773854 322.1085271317829 L 460.20684597790637 322.9217758985201 L 471.05671155807414 322.54225980737607 L 481.9065771382419 322.7049095607235 L 492.75644271840974 325.4699553676298" fill="" fill-opacity="0.0" stroke="#E76BF3" stroke-width="1.8897637795275593"/><rect x="523.6512533333333" y="128.34813333333335" width="23.114079999999994" height="115.57039999999998" fill="#ebebeb" fill-opacity="1.0" stroke="none"/><rect x="523.6512533333333" y="128.34813333333335" width="23.114079999999994" height="23.114079999999994" fill="#f2f2f2" fill-opacity="1.0" stroke="none"/><rect x="524.5961352230971" y="129.29301522309711" width="21.224316220472435" height="21.224316220472435" fill="#F8766D" fill-opacity="0.0" stroke="#F8766D" stroke-width="1.3333333333333333"/><text x="550.432" y="143.65984" fill="#4d4d4d" font-size="11.733333333333334" font-family="sans-serif" text-anchor="start">Fair</text><rect x="523.6512533333333" y="151.46221333333335" width="23.114079999999994" height="23.114079999999994" fill="#f2f2f2" fill-opacity="1.0" stroke="none"/><rect x="524.5961352230971" y="152.40709522309712" width="21.224316220472435" height="21.224316220472435" fill="#A3A500" fill-opacity="0.0" stroke="#A3A500" stroke-width="1.3333333333333333"/><text x="550.432" y="166.77392" fill="#4d4d4d" font-size="11.733333333333334" font-family="sans-serif" text-anchor="start">Good</text><rect x="523.6512533333333" y="174.57629333333333" width="23.114079999999994" height="23.114079999999994" fill="#f2f2f2" fill-opacity="1.0" stroke="none"/><rect x="524.5961352230971" y="175.5211752230971" width="21.224316220472435" height="21.224316220472435" fill="#00BF7D" fill-opacity="0.0" stroke="#00BF7D" stroke-width="1.3333333333333333"/><text x="550.432" y="189.88799999999998" fill="#4d4d4d" font-size="11.733333333333334" font-family="sans-serif" text-anchor="start">Very Good</text><rect x="523.6512533333333" y="197.69037333333335" width="23.114079999999994" height="23.114079999999994" fill="#f2f2f2" fill-opacity="1.0" stroke="none"/><rect x="524.5961352230971" y="198.63525522309715" width="21.224316220472435" height="21.224316220472435" fill="#00B0F6" fill-opacity="0.0" stroke="#00B0F6" stroke-width="1.3333333333333333"/><text x="550.432" y="213.00208" fill="#4d4d4d" font-size="11.733333333333334" font-family="sans-serif" text-anchor="start">Premium</text><rect x="523.6512533333333" y="220.80445333333333" width="23.114079999999994" height="23.114079999999994" fill="#f2f2f2" fill-opacity="1.0" stroke="none"/><rect x="524.5961352230971" y="221.74933522309712" width="21.224316220472435" height="21.224316220472435" fill="#E76BF3" fill-opacity="0.0" stroke="#E76BF3" stroke-width="1.3333333333333333"/><text x="550.432" y="236.11615999999998" fill="#4d4d4d" font-size="11.733333333333334" font-family="sans-serif" text-anchor="start">Ideal</text></svg>