<svg xmlns="http://www.w3.org/2000/svg" width="800" height="600" viewBox="0 0 800 600"><rect x="0.0" y="0.0" width="800.0" height="600.0" fill="#ffffff" fill-opacity="1.0" stroke="none"/><line x1="143.15769230769232" y1="27.0" x2="143.15769230769232" y2="563.8" stroke="#dddddd" stroke-width="1.0"/><line x1="284.7538461538462" y1="27.0" x2="284.7538461538462" y2="563.8" stroke="#dddddd" stroke-width="1.0"/><line x1="426.35" y1="27.0" x2="426.35" y2="563.8" stroke="#dddddd" stroke-width="1.0"/><line x1="567.946153846154" y1="27.0" x2="567.946153846154" y2="563.8" stroke="#dddddd" stroke-width="1.0"/><line x1="709.5423076923078" y1="27.0" x2="709.5423076923078" y2="563.8" stroke="#dddddd" stroke-width="1.0"/><line x1="58.2" y1="462.7721921271217" x2="794.5" y2="462.7721921271217" stroke="#dddddd" stroke-width="0.5"/><line x1="58.2" y1="286.53528349584684" x2="794.5" y2="286.53528349584684" stroke="#dddddd" stroke-width="0.5"/><line x1="58.2" y1="110.29837486457205" x2="794.5" y2="110.29837486457205" stroke="#dddddd" stroke-width="0.5"/><line x1="58.2" y1="550.890646442759" x2="794.5" y2="550.890646442759" stroke="#dddddd" stroke-width="1.0"/><line x1="58.2" y1="374.65373781148423" x2="794.5" y2="374.65373781148423" stroke="#dddddd" stroke-width="1.0"/><line x1="58.2" y1="198.41682918020945" x2="794.5" y2="198.41682918020945" stroke="#dddddd" stroke-width="1.0"/><rect x="58.2" y="27.0" width="736.3" height="536.8" fill="#ffffff" fill-opacity="0.0" stroke="#444444" stroke-width="1.0"/><line x1="143.15769230769232" y1="563.8" x2="143.15769230769232" y2="566.55" stroke="#444444" stroke-width="1.0"/><text x="143.15769230769232" y="577.55" fill="#333333" font-size="11.0" font-family="sans-serif" text-anchor="middle">Fair</text><line x1="284.7538461538462" y1="563.8" x2="284.7538461538462" y2="566.55" stroke="#444444" stroke-width="1.0"/><text x="284.7538461538462" y="577.55" fill="#333333" font-size="11.0" font-family="sans-serif" text-anchor="middle">Good</text><line x1="426.35" y1="563.8" x2="426.35" y2="566.55" stroke="#444444" stroke-width="1.0"/><text x="426.35" y="577.55" fill="#333333" font-size="11.0" font-family="sans-serif" text-anchor="middle">Very Good</text><line x1="567.946153846154" y1="563.8" x2="567.946153846154" y2="566.55" stroke="#444444" stroke-width="1.0"/><text x="567.946153846154" y="577.55" fill="#333333" font-size="11.0" font-family="sans-serif" text-anchor="middle">Premium</text><line x1="709.5423076923078" y1="563.8" x2="709.5423076923078" y2="566.55" stroke="#444444" stroke-width="1.0"/><text x="709.5423076923078" y="577.55" fill="#333333" font-size="11.0" font-family="sans-serif" text-anchor="middle">Ideal</text><line x1="58.2" y1="550.890646442759" x2="55.45" y2="550.890646442759" stroke="#444444" stroke-width="1.0"/><text x="53.25" y="554.740646442759" fill="#333333" font-size="11.0" font-family="sans-serif" text-anchor="end">0</text><line x1="58.2" y1="374.65373781148423" x2="55.45" y2="374.65373781148423" stroke="#444444" stroke-width="1.0"/><text x="53.25" y="378.50373781148426" fill="#333333" font-size="11.0" font-family="sans-serif" text-anchor="end">5000</text><line x1="58.2" y1="198.41682918020945" x2="55.45" y2="198.41682918020945" stroke="#444444" stroke-width="1.0"/><text x="53.25" y="202.26682918020944" fill="#333333" font-size="11.0" font-family="sans-serif" text-anchor="end">10000</text><text x="426.34999999999997" y="18.3" fill="#333333" font-size="16.0" font-family="sans-serif" text-anchor="middle">cut 別 price の箱ひげ図</text><text x="426.34999999999997" y="592.1" fill="#333333" font-size="12.0" font-family="sans-serif" text-anchor="middle">cut</text><text x="13.899999999999999" y="295.4" fill="#333333" font-size="12.0" font-family="sans-serif" text-anchor="middle" transform="rotate(-90.0 13.899999999999999 295.4)">price</text><rect x="107.75865384615383" y="367.4104008667389" width="70.79807692307695" height="111.21430119176597" fill="#1f77b4" fill-opacity="0.4" stroke="#1f77b4" stroke-width="1.0"/><line x1="107.75865384615383" y1="435.2087396171903" x2="178.5567307692308" y2="435.2087396171903" stroke="#1f77b4" stroke-width="2.0"/><line x1="143.15769230769232" y1="478.62470205850485" x2="143.15769230769232" y2="539.0122788010111" stroke="#1f77b4" stroke-width="1.0"/><line x1="143.15769230769232" y1="367.4104008667389" x2="143.15769230769232" y2="203.59819429396896" stroke="#1f77b4" stroke-width="1.0"/><line x1="125.45817307692307" y1="539.0122788010111" x2="160.85721153846154" y2="539.0122788010111" stroke="#1f77b4" stroke-width="1.0"/><line x1="125.45817307692307" y1="203.59819429396896" x2="160.85721153846154" y2="203.59819429396896" stroke="#1f77b4" stroke-width="1.0"/><rect x="249.35480769230773" y="373.66681112314916" width="70.79807692307695" height="136.86558324304798" fill="#1f77b4" fill-opacity="0.4" stroke="#1f77b4" stroke-width="1.0"/><line x1="249.35480769230773" y1="443.3685084868183" x2="320.15288461538466" y2="443.3685084868183" stroke="#1f77b4" stroke-width="2.0"/><line x1="284.7538461538462" y1="510.53239436619714" x2="284.7538461538462" y2="539.3647526182737" stroke="#1f77b4" stroke-width="1.0"/><line x1="284.7538461538462" y1="373.66681112314916" x2="284.7538461538462" y2="169.5492235464066" stroke="#1f77b4" stroke-width="1.0"/><line x1="267.054326923077" y1="539.3647526182737" x2="302.45336538461544" y2="539.3647526182737" stroke="#1f77b4" stroke-width="1.0"/><line x1="267.054326923077" y1="169.5492235464066" x2="302.45336538461544" y2="169.5492235464066" stroke="#1f77b4" stroke-width="1.0"/><rect x="390.95096153846157" y="361.5152762730227" width="70.79807692307695" height="157.22975803539185" fill="#1f77b4" fill-opacity="0.4" stroke="#1f77b4" stroke-width="1.0"/><line x1="390.95096153846157" y1="457.5555796316359" x2="461.7490384615385" y2="457.5555796316359" stroke="#1f77b4" stroke-width="2.0"/><line x1="426.35" y1="518.7450343084146" x2="426.35" y2="539.0475261827374" stroke="#1f77b4" stroke-width="1.0"/><line x1="426.35" y1="361.5152762730227" x2="426.35" y2="125.80722282412421" stroke="#1f77b4" stroke-width="1.0"/><line x1="408.6504807692308" y1="539.0475261827374" x2="444.04951923076925" y2="539.0475261827374" stroke="#1f77b4" stroke-width="1.0"/><line x1="408.6504807692308" y1="125.80722282412421" x2="444.04951923076925" y2="125.80722282412421" stroke="#1f77b4" stroke-width="1.0"/><rect x="532.5471153846155" y="328.97313109425784" width="70.79807692307695" height="185.0487540628385" fill="#1f77b4" fill-opacity="0.4" stroke="#1f77b4" stroke-width="1.0"/><line x1="532.5471153846155" y1="438.627735644637" x2="603.3451923076924" y2="438.627735644637" stroke="#1f77b4" stroke-width="2.0"/><line x1="567.946153846154" y1="514.0218851570963" x2="567.946153846154" y2="539.4" stroke="#1f77b4" stroke-width="1.0"/><line x1="567.946153846154" y1="328.97313109425784" x2="567.946153846154" y2="51.39999999999998" stroke="#1f77b4" stroke-width="1.0"/><line x1="550.2466346153847" y1="539.4" x2="585.6456730769232" y2="539.4" stroke="#1f77b4" stroke-width="1.0"/><line x1="550.2466346153847" y1="51.39999999999998" x2="585.6456730769232" y2="51.39999999999998" stroke="#1f77b4" stroke-width="1.0"/><rect x="674.1432692307693" y="385.9857710364753" width="70.79807692307695" height="133.95767425063195" fill="#1f77b4" fill-opacity="0.4" stroke="#1f77b4" stroke-width="1.0"/><line x1="674.1432692307693" y1="487.0928855182376" x2="744.9413461538462" y2="487.0928855182376" stroke="#1f77b4" stroke-width="2.0"/><line x1="709.5423076923078" y1="519.9434452871072" x2="709.5423076923078" y2="539.4" stroke="#1f77b4" stroke-width="1.0"/><line x1="709.5423076923078" y1="385.9857710364753" x2="709.5423076923078" y2="185.0933188876851" stroke="#1f77b4" stroke-width="1.0"/><line x1="691.8427884615385" y1="539.4" x2="727.241826923077" y2="539.4" stroke="#1f77b4" stroke-width="1.0"/><line x1="691.8427884615385" y1="185.0933188876851" x2="727.241826923077" y2="185.0933188876851" stroke="#1f77b4" stroke-width="1.0"/></svg>