<svg xmlns="http://www.w3.org/2000/svg" width="800" height="600" viewBox="0 0 800 600"><rect x="0.0" y="0.0" width="800.0" height="600.0" fill="#ffffff" fill-opacity="1.0" stroke="none"/><line x1="101.40833333333333" y1="27.0" x2="101.40833333333333" y2="563.8" stroke="#dddddd" stroke-width="1.0"/><line x1="206.42222222222227" y1="27.0" x2="206.42222222222227" y2="563.8" stroke="#dddddd" stroke-width="1.0"/><line x1="311.43611111111113" y1="27.0" x2="311.43611111111113" y2="563.8" stroke="#dddddd" stroke-width="1.0"/><line x1="416.45000000000005" y1="27.0" x2="416.45000000000005" y2="563.8" stroke="#dddddd" stroke-width="1.0"/><line x1="521.463888888889" y1="27.0" x2="521.463888888889" y2="563.8" stroke="#dddddd" stroke-width="1.0"/><line x1="626.4777777777778" y1="27.0" x2="626.4777777777778" y2="563.8" stroke="#dddddd" stroke-width="1.0"/><line x1="731.4916666666667" y1="27.0" x2="731.4916666666667" y2="563.8" stroke="#dddddd" stroke-width="1.0"/><line x1="38.4" y1="461.76363636363635" x2="794.5" y2="461.76363636363635" stroke="#dddddd" stroke-width="0.5"/><line x1="38.4" y1="350.8545454545455" x2="794.5" y2="350.8545454545455" stroke="#dddddd" stroke-width="0.5"/><line x1="38.4" y1="239.9454545454546" x2="794.5" y2="239.9454545454546" stroke="#dddddd" stroke-width="0.5"/><line x1="38.4" y1="129.03636363636366" x2="794.5" y2="129.03636363636366" stroke="#dddddd" stroke-width="0.5"/><line x1="38.4" y1="517.2181818181818" x2="794.5" y2="517.2181818181818" stroke="#dddddd" stroke-width="1.0"/><line x1="38.4" y1="406.30909090909086" x2="794.5" y2="406.30909090909086" stroke="#dddddd" stroke-width="1.0"/><line x1="38.4" y1="295.40000000000003" x2="794.5" y2="295.40000000000003" stroke="#dddddd" stroke-width="1.0"/><line x1="38.4" y1="184.4909090909091" x2="794.5" y2="184.4909090909091" stroke="#dddddd" stroke-width="1.0"/><line x1="38.4" y1="73.58181818181822" x2="794.5" y2="73.58181818181822" stroke="#dddddd" stroke-width="1.0"/><rect x="38.4" y="27.0" width="756.1" height="536.8" fill="#ffffff" fill-opacity="0.0" stroke="#444444" stroke-width="1.0"/><line x1="101.40833333333333" y1="563.8" x2="101.40833333333333" y2="566.55" stroke="#444444" stroke-width="1.0"/><text x="101.40833333333333" y="577.55" fill="#333333" font-size="11.0" font-family="sans-serif" text-anchor="middle">2seater</text><line x1="206.42222222222227" y1="563.8" x2="206.42222222222227" y2="566.55" stroke="#444444" stroke-width="1.0"/><text x="206.42222222222227" y="577.55" fill="#333333" font-size="11.0" font-family="sans-serif" text-anchor="middle">compact</text><line x1="311.43611111111113" y1="563.8" x2="311.43611111111113" y2="566.55" stroke="#444444" stroke-width="1.0"/><text x="311.43611111111113" y="577.55" fill="#333333" font-size="11.0" font-family="sans-serif" text-anchor="middle">midsize</text><line x1="416.45000000000005" y1="563.8" x2="416.45000000000005" y2="566.55" stroke="#444444" stroke-width="1.0"/><text x="416.45000000000005" y="577.55" fill="#333333" font-size="11.0" font-family="sans-serif" text-anchor="middle">minivan</text><line x1="521.463888888889" y1="563.8" x2="521.463888888889" y2="566.55" stroke="#444444" stroke-width="1.0"/><text x="521.463888888889" y="577.55" fill="#333333" font-size="11.0" font-family="sans-serif" text-anchor="middle">pickup</text><line x1="626.4777777777778" y1="563.8" x2="626.4777777777778" y2="566.55" stroke="#444444" stroke-width="1.0"/><text x="626.4777777777778" y="577.55" fill="#333333" font-size="11.0" font-family="sans-serif" text-anchor="middle">subcompact</text><line x1="731.4916666666667" y1="563.8" x2="731.4916666666667" y2="566.55" stroke="#444444" stroke-width="1.0"/><text x="731.4916666666667" y="577.55" fill="#333333" font-size="11.0" font-family="sans-serif" text-anchor="middle">suv</text><line x1="38.4" y1="517.2181818181818" x2="35.65" y2="517.2181818181818" stroke="#444444" stroke-width="1.0"/><text x="33.449999999999996" y="521.0681818181819" fill="#333333" font-size="11.0" font-family="sans-serif" text-anchor="end">15</text><line x1="38.4" y1="406.30909090909086" x2="35.65" y2="406.30909090909086" stroke="#444444" stroke-width="1.0"/><text x="33.449999999999996" y="410.1590909090909" fill="#333333" font-size="11.0" font-family="sans-serif" text-anchor="end">20</text><line x1="38.4" y1="295.40000000000003" x2="35.65" y2="295.40000000000003" stroke="#444444" stroke-width="1.0"/><text x="33.449999999999996" y="299.25000000000006" fill="#333333" font-size="11.0" font-family="sans-serif" text-anchor="end">25</text><line x1="38.4" y1="184.4909090909091" x2="35.65" y2="184.4909090909091" stroke="#444444" stroke-width="1.0"/><text x="33.449999999999996" y="188.3409090909091" fill="#333333" font-size="11.0" font-family="sans-serif" text-anchor="end">30</text><line x1="38.4" y1="73.58181818181822" x2="35.65" y2="73.58181818181822" stroke="#444444" stroke-width="1.0"/><text x="33.449999999999996" y="77.43181818181822" fill="#333333" font-size="11.0" font-family="sans-serif" text-anchor="end">35</text><text x="416.45" y="18.3" fill="#333333" font-size="16.0" font-family="sans-serif" text-anchor="middle">class 別 hwy の箱ひげ図</text><text x="416.45" y="592.1" fill="#333333" font-size="12.0" font-family="sans-serif" text-anchor="middle">class</text><text x="13.899999999999999" y="295.4" fill="#333333" font-size="12.0" font-family="sans-serif" text-anchor="middle" transform="rotate(-90.0 13.899999999999999 295.4)">hwy</text><rect x="75.1548611111111" y="273.2181818181818" width="52.50694444444447" height="44.36363636363643" fill="#1f77b4" fill-opacity="0.4" stroke="#1f77b4" stroke-width="1.0"/><line x1="75.1548611111111" y1="295.40000000000003" x2="127.66180555555556" y2="295.40000000000003" stroke="#1f77b4" stroke-width="2.0"/><line x1="101.40833333333333" y1="317.5818181818182" x2="101.40833333333333" y2="339.76363636363635" stroke="#1f77b4" stroke-width="1.0"/><line x1="101.40833333333333" y1="273.2181818181818" x2="101.40833333333333" y2="273.2181818181818" stroke="#1f77b4" stroke-width="1.0"/><line x1="88.28159722222222" y1="339.76363636363635" x2="114.53506944444445" y2="339.76363636363635" stroke="#1f77b4" stroke-width="1.0"/><line x1="88.28159722222222" y1="273.2181818181818" x2="114.53506944444445" y2="273.2181818181818" stroke="#1f77b4" stroke-width="1.0"/><rect x="180.16875000000005" y="206.67272727272723" width="52.50694444444447" height="66.54545454545456" fill="#1f77b4" fill-opacity="0.4" stroke="#1f77b4" stroke-width="1.0"/><line x1="180.16875000000005" y1="251.03636363636366" x2="232.6756944444445" y2="251.03636363636366" stroke="#1f77b4" stroke-width="2.0"/><line x1="206.42222222222227" y1="273.2181818181818" x2="206.42222222222227" y2="339.76363636363635" stroke="#1f77b4" stroke-width="1.0"/><line x1="206.42222222222227" y1="206.67272727272723" x2="206.42222222222227" y2="117.94545454545454" stroke="#1f77b4" stroke-width="1.0"/><line x1="193.29548611111116" y1="339.76363636363635" x2="219.5489583333334" y2="339.76363636363635" stroke="#1f77b4" stroke-width="1.0"/><line x1="193.29548611111116" y1="117.94545454545454" x2="219.5489583333334" y2="117.94545454545454" stroke="#1f77b4" stroke-width="1.0"/><rect x="285.1826388888889" y="206.67272727272723" width="52.50694444444447" height="66.54545454545456" fill="#1f77b4" fill-opacity="0.4" stroke="#1f77b4" stroke-width="1.0"/><line x1="285.1826388888889" y1="251.03636363636366" x2="337.68958333333336" y2="251.03636363636366" stroke="#1f77b4" stroke-width="2.0"/><line x1="311.43611111111113" y1="273.2181818181818" x2="311.43611111111113" y2="339.76363636363635" stroke="#1f77b4" stroke-width="1.0"/><line x1="311.43611111111113" y1="206.67272727272723" x2="311.43611111111113" y2="140.12727272727278" stroke="#1f77b4" stroke-width="1.0"/><line x1="298.309375" y1="339.76363636363635" x2="324.5628472222223" y2="339.76363636363635" stroke="#1f77b4" stroke-width="1.0"/><line x1="298.309375" y1="140.12727272727278" x2="324.5628472222223" y2="140.12727272727278" stroke="#1f77b4" stroke-width="1.0"/><rect x="390.1965277777778" y="317.5818181818182" width="52.50694444444447" height="44.36363636363632" fill="#1f77b4" fill-opacity="0.4" stroke="#1f77b4" stroke-width="1.0"/><line x1="390.1965277777778" y1="339.76363636363635" x2="442.7034722222223" y2="339.76363636363635" stroke="#1f77b4" stroke-width="2.0"/><line x1="416.45000000000005" y1="361.94545454545454" x2="416.45000000000005" y2="384.1272727272727" stroke="#1f77b4" stroke-width="1.0"/><line x1="416.45000000000005" y1="317.5818181818182" x2="416.45000000000005" y2="317.5818181818182" stroke="#1f77b4" stroke-width="1.0"/><line x1="403.3232638888889" y1="384.1272727272727" x2="429.5767361111112" y2="384.1272727272727" stroke="#1f77b4" stroke-width="1.0"/><line x1="403.3232638888889" y1="317.5818181818182" x2="429.5767361111112" y2="317.5818181818182" stroke="#1f77b4" stroke-width="1.0"/><rect x="495.21041666666673" y="450.67272727272723" width="52.50694444444447" height="44.363636363636374" fill="#1f77b4" fill-opacity="0.4" stroke="#1f77b4" stroke-width="1.0"/><line x1="495.21041666666673" y1="472.8545454545454" x2="547.7173611111112" y2="472.8545454545454" stroke="#1f77b4" stroke-width="2.0"/><line x1="521.463888888889" y1="495.0363636363636" x2="521.463888888889" y2="517.2181818181818" stroke="#1f77b4" stroke-width="1.0"/><line x1="521.463888888889" y1="450.67272727272723" x2="521.463888888889" y2="406.30909090909086" stroke="#1f77b4" stroke-width="1.0"/><line x1="508.3371527777778" y1="517.2181818181818" x2="534.590625" y2="517.2181818181818" stroke="#1f77b4" stroke-width="1.0"/><line x1="508.3371527777778" y1="406.30909090909086" x2="534.590625" y2="406.30909090909086" stroke="#1f77b4" stroke-width="1.0"/><rect x="600.2243055555555" y="173.39999999999998" width="52.50694444444447" height="133.09090909090912" fill="#1f77b4" fill-opacity="0.4" stroke="#1f77b4" stroke-width="1.0"/><line x1="600.2243055555555" y1="273.2181818181818" x2="652.73125" y2="273.2181818181818" stroke="#1f77b4" stroke-width="2.0"/><line x1="626.4777777777778" y1="306.4909090909091" x2="626.4777777777778" y2="406.30909090909086" stroke="#1f77b4" stroke-width="1.0"/><line x1="626.4777777777778" y1="173.39999999999998" x2="626.4777777777778" y2="51.40000000000009" stroke="#1f77b4" stroke-width="1.0"/><line x1="613.3510416666667" y1="406.30909090909086" x2="639.6045138888888" y2="406.30909090909086" stroke="#1f77b4" stroke-width="1.0"/><line x1="613.3510416666667" y1="51.40000000000009" x2="639.6045138888888" y2="51.40000000000009" stroke="#1f77b4" stroke-width="1.0"/><rect x="705.2381944444444" y="428.4909090909091" width="52.50694444444447" height="44.36363636363632" fill="#1f77b4" fill-opacity="0.4" stroke="#1f77b4" stroke-width="1.0"/><line x1="705.2381944444444" y1="461.76363636363635" x2="757.745138888889" y2="461.76363636363635" stroke="#1f77b4" stroke-width="2.0"/><line x1="731.4916666666667" y1="472.8545454545454" x2="731.4916666666667" y2="539.4" stroke="#1f77b4" stroke-width="1.0"/><line x1="731.4916666666667" y1="428.4909090909091" x2="731.4916666666667" y2="361.94545454545454" stroke="#1f77b4" stroke-width="1.0"/><line x1="718.3649305555556" y1="539.4" x2="744.6184027777778" y2="539.4" stroke="#1f77b4" stroke-width="1.0"/><line x1="718.3649305555556" y1="361.94545454545454" x2="744.6184027777778" y2="361.94545454545454" stroke="#1f77b4" stroke-width="1.0"/></svg>