<svg xmlns="http://www.w3.org/2000/svg" width="624" height="384" viewBox="0 0 624 384"><rect x="0.0" y="0.0" width="624.0" height="384.0" fill="#ffffff" fill-opacity="1.0" stroke="none"/><rect x="46.346666666666664" y="32.266666666666666" width="570.3199999999999" height="307.73333333333335" fill="#ebebeb" fill-opacity="1.0" stroke="none"/><line x1="93.87333333333333" y1="32.266666666666666" x2="93.87333333333333" y2="340.0" stroke="#ffffff" stroke-width="1.3333333333333333"/><line x1="173.08444444444447" y1="32.266666666666666" x2="173.08444444444447" y2="340.0" stroke="#ffffff" stroke-width="1.3333333333333333"/><line x1="252.29555555555558" y1="32.266666666666666" x2="252.29555555555558" y2="340.0" stroke="#ffffff" stroke-width="1.3333333333333333"/><line x1="331.5066666666667" y1="32.266666666666666" x2="331.5066666666667" y2="340.0" stroke="#ffffff" stroke-width="1.3333333333333333"/><line x1="410.71777777777777" y1="32.266666666666666" x2="410.71777777777777" y2="340.0" stroke="#ffffff" stroke-width="1.3333333333333333"/><line x1="489.9288888888889" y1="32.266666666666666" x2="489.9288888888889" y2="340.0" stroke="#ffffff" stroke-width="1.3333333333333333"/><line x1="569.14" y1="32.266666666666666" x2="569.14" y2="340.0" stroke="#ffffff" stroke-width="1.3333333333333333"/><line x1="46.346666666666664" y1="281.5052341597796" x2="616.6666666666666" y2="281.5052341597796" stroke="#ffffff" stroke-width="0.6666666666666666"/><line x1="46.346666666666664" y1="217.92396694214875" x2="616.6666666666666" y2="217.92396694214875" stroke="#ffffff" stroke-width="0.6666666666666666"/><line x1="46.346666666666664" y1="154.3426997245179" x2="616.6666666666666" y2="154.3426997245179" stroke="#ffffff" stroke-width="0.6666666666666666"/><line x1="46.346666666666664" y1="90.76143250688706" x2="616.6666666666666" y2="90.76143250688706" stroke="#ffffff" stroke-width="0.6666666666666666"/><line x1="46.346666666666664" y1="313.29586776859503" x2="616.6666666666666" y2="313.29586776859503" stroke="#ffffff" stroke-width="1.3333333333333333"/><line x1="46.346666666666664" y1="249.71460055096418" x2="616.6666666666666" y2="249.71460055096418" stroke="#ffffff" stroke-width="1.3333333333333333"/><line x1="46.346666666666664" y1="186.13333333333335" x2="616.6666666666666" y2="186.13333333333335" stroke="#ffffff" stroke-width="1.3333333333333333"/><line x1="46.346666666666664" y1="122.55206611570247" x2="616.6666666666666" y2="122.55206611570247" stroke="#ffffff" stroke-width="1.3333333333333333"/><line x1="46.346666666666664" y1="58.97079889807162" x2="616.6666666666666" y2="58.97079889807162" stroke="#ffffff" stroke-width="1.3333333333333333"/><line x1="93.87333333333333" y1="340.0" x2="93.87333333333333" y2="343.66666666666663" stroke="#333333" stroke-width="1.3333333333333333"/><text x="93.87333333333333" y="355.9866666666667" fill="#4d4d4d" font-size="11.733333333333334" font-family="sans-serif" text-anchor="middle">pickup</text><line x1="173.08444444444447" y1="340.0" x2="173.08444444444447" y2="343.66666666666663" stroke="#333333" stroke-width="1.3333333333333333"/><text x="173.08444444444447" y="355.9866666666667" fill="#4d4d4d" font-size="11.733333333333334" font-family="sans-serif" text-anchor="middle">suv</text><line x1="252.29555555555558" y1="340.0" x2="252.29555555555558" y2="343.66666666666663" stroke="#333333" stroke-width="1.3333333333333333"/><text x="252.29555555555558" y="355.9866666666667" fill="#4d4d4d" font-size="11.733333333333334" font-family="sans-serif" text-anchor="middle">minivan</text><line x1="331.5066666666667" y1="340.0" x2="331.5066666666667" y2="343.66666666666663" stroke="#333333" stroke-width="1.3333333333333333"/><text x="331.5066666666667" y="355.9866666666667" fill="#4d4d4d" font-size="11.733333333333334" font-family="sans-serif" text-anchor="middle">2seater</text><line x1="410.71777777777777" y1="340.0" x2="410.71777777777777" y2="343.66666666666663" stroke="#333333" stroke-width="1.3333333333333333"/><text x="410.71777777777777" y="355.9866666666667" fill="#4d4d4d" font-size="11.733333333333334" font-family="sans-serif" text-anchor="middle">subcompact</text><line x1="489.9288888888889" y1="340.0" x2="489.9288888888889" y2="343.66666666666663" stroke="#333333" stroke-width="1.3333333333333333"/><text x="489.9288888888889" y="355.9866666666667" fill="#4d4d4d" font-size="11.733333333333334" font-family="sans-serif" text-anchor="middle">compact</text><line x1="569.14" y1="340.0" x2="569.14" y2="343.66666666666663" stroke="#333333" stroke-width="1.3333333333333333"/><text x="569.14" y="355.9866666666667" fill="#4d4d4d" font-size="11.733333333333334" font-family="sans-serif" text-anchor="middle">midsize</text><line x1="46.346666666666664" y1="313.29586776859503" x2="42.67999999999999" y2="313.29586776859503" stroke="#333333" stroke-width="1.3333333333333333"/><text x="39.74666666666666" y="317.4025344352617" fill="#4d4d4d" font-size="11.733333333333334" font-family="sans-serif" text-anchor="end">15</text><line x1="46.346666666666664" y1="249.71460055096418" x2="42.67999999999999" y2="249.71460055096418" stroke="#333333" stroke-width="1.3333333333333333"/><text x="39.74666666666666" y="253.82126721763086" fill="#4d4d4d" font-size="11.733333333333334" font-family="sans-serif" text-anchor="end">20</text><line x1="46.346666666666664" y1="186.13333333333335" x2="42.67999999999999" y2="186.13333333333335" stroke="#333333" stroke-width="1.3333333333333333"/><text x="39.74666666666666" y="190.24000000000004" fill="#4d4d4d" font-size="11.733333333333334" font-family="sans-serif" text-anchor="end">25</text><line x1="46.346666666666664" y1="122.55206611570247" x2="42.67999999999999" y2="122.55206611570247" stroke="#333333" stroke-width="1.3333333333333333"/><text x="39.74666666666666" y="126.65873278236913" fill="#4d4d4d" font-size="11.733333333333334" font-family="sans-serif" text-anchor="end">30</text><line x1="46.346666666666664" y1="58.97079889807162" x2="42.67999999999999" y2="58.97079889807162" stroke="#333333" stroke-width="1.3333333333333333"/><text x="39.74666666666666" y="63.07746556473828" fill="#4d4d4d" font-size="11.733333333333334" font-family="sans-serif" text-anchor="end">35</text><text x="46.346666666666664" y="21.413333333333334" fill="#000000" font-size="17.599999999999998" font-family="sans-serif" text-anchor="start">class 別 hwy (hwy 中央値の昇順)</text><text x="331.50666666666666" y="373.73333333333335" fill="#000000" font-size="14.666666666666666" font-family="sans-serif" text-anchor="middle">class</text><text x="17.599999999999998" y="186.13333333333333" fill="#000000" font-size="14.666666666666666" font-family="sans-serif" text-anchor="middle" transform="rotate(-90.0 17.599999999999998 186.13333333333333)">hwy</text><rect x="74.07055555555554" y="275.1471074380165" width="39.60555555555557" height="25.43250688705234" fill="#ffffff" fill-opacity="1.0" stroke="#333333" stroke-width="1.3333333333333333"/><line x1="74.07055555555554" y1="287.8633608815427" x2="113.67611111111111" y2="287.8633608815427" stroke="#333333" stroke-width="2.6666666666666665"/><line x1="93.87333333333333" y1="300.57961432506886" x2="93.87333333333333" y2="313.29586776859503" stroke="#333333" stroke-width="1.3333333333333333"/><line x1="93.87333333333333" y1="275.1471074380165" x2="93.87333333333333" y2="249.71460055096418" stroke="#333333" stroke-width="1.3333333333333333"/><line x1="83.97194444444443" y1="313.29586776859503" x2="103.77472222222221" y2="313.29586776859503" stroke="#333333" stroke-width="1.3333333333333333"/><line x1="83.97194444444443" y1="249.71460055096418" x2="103.77472222222221" y2="249.71460055096418" stroke="#333333" stroke-width="1.3333333333333333"/><circle cx="93.87333333333333" cy="351.44462809917354" r="3.1181102362204727" fill="#333333" fill-opacity="1.0" stroke="#333333" stroke-width="1.3333333333333333"/><circle cx="93.87333333333333" cy="351.44462809917354" r="3.1181102362204727" fill="#333333" fill-opacity="1.0" stroke="#333333" stroke-width="1.3333333333333333"/><circle cx="93.87333333333333" cy="351.44462809917354" r="3.1181102362204727" fill="#333333" fill-opacity="1.0" stroke="#333333" stroke-width="1.3333333333333333"/><circle cx="93.87333333333333" cy="224.28209366391184" r="3.1181102362204727" fill="#333333" fill-opacity="1.0" stroke="#333333" stroke-width="1.3333333333333333"/><rect x="153.2816666666667" y="262.43085399449035" width="39.60555555555557" height="25.43250688705234" fill="#ffffff" fill-opacity="1.0" stroke="#333333" stroke-width="1.3333333333333333"/><line x1="153.2816666666667" y1="281.5052341597796" x2="192.88722222222228" y2="281.5052341597796" stroke="#333333" stroke-width="2.6666666666666665"/><line x1="173.08444444444447" y1="287.8633608815427" x2="173.08444444444447" y2="326.0121212121212" stroke="#333333" stroke-width="1.3333333333333333"/><line x1="173.08444444444447" y1="262.43085399449035" x2="173.08444444444447" y2="224.28209366391184" stroke="#333333" stroke-width="1.3333333333333333"/><line x1="163.1830555555556" y1="326.0121212121212" x2="182.98583333333335" y2="326.0121212121212" stroke="#333333" stroke-width="1.3333333333333333"/><line x1="163.1830555555556" y1="224.28209366391184" x2="182.98583333333335" y2="224.28209366391184" stroke="#333333" stroke-width="1.3333333333333333"/><circle cx="173.08444444444447" cy="351.44462809917354" r="3.1181102362204727" fill="#333333" fill-opacity="1.0" stroke="#333333" stroke-width="1.3333333333333333"/><circle cx="173.08444444444447" cy="351.44462809917354" r="3.1181102362204727" fill="#333333" fill-opacity="1.0" stroke="#333333" stroke-width="1.3333333333333333"/><circle cx="173.08444444444447" cy="211.5658402203857" r="3.1181102362204727" fill="#333333" fill-opacity="1.0" stroke="#333333" stroke-width="1.3333333333333333"/><circle cx="173.08444444444447" cy="198.8495867768595" r="3.1181102362204727" fill="#333333" fill-opacity="1.0" stroke="#333333" stroke-width="1.3333333333333333"/><circle cx="173.08444444444447" cy="186.13333333333335" r="3.1181102362204727" fill="#333333" fill-opacity="1.0" stroke="#333333" stroke-width="1.3333333333333333"/><circle cx="173.08444444444447" cy="186.13333333333335" r="3.1181102362204727" fill="#333333" fill-opacity="1.0" stroke="#333333" stroke-width="1.3333333333333333"/><circle cx="173.08444444444447" cy="173.41707988980716" r="3.1181102362204727" fill="#333333" fill-opacity="1.0" stroke="#333333" stroke-width="1.3333333333333333"/><circle cx="173.08444444444447" cy="160.70082644628098" r="3.1181102362204727" fill="#333333" fill-opacity="1.0" stroke="#333333" stroke-width="1.3333333333333333"/><rect x="232.4927777777778" y="198.8495867768595" width="39.60555555555557" height="25.43250688705234" fill="#ffffff" fill-opacity="1.0" stroke="#333333" stroke-width="1.3333333333333333"/><line x1="232.4927777777778" y1="211.5658402203857" x2="272.09833333333336" y2="211.5658402203857" stroke="#333333" stroke-width="2.6666666666666665"/><line x1="252.29555555555558" y1="224.28209366391184" x2="252.29555555555558" y2="236.99834710743804" stroke="#333333" stroke-width="1.3333333333333333"/><line x1="252.29555555555558" y1="198.8495867768595" x2="252.29555555555558" y2="198.8495867768595" stroke="#333333" stroke-width="1.3333333333333333"/><line x1="242.3941666666667" y1="236.99834710743804" x2="262.19694444444445" y2="236.99834710743804" stroke="#333333" stroke-width="1.3333333333333333"/><line x1="242.3941666666667" y1="198.8495867768595" x2="262.19694444444445" y2="198.8495867768595" stroke="#333333" stroke-width="1.3333333333333333"/><circle cx="252.29555555555558" cy="287.8633608815427" r="3.1181102362204727" fill="#333333" fill-opacity="1.0" stroke="#333333" stroke-width="1.3333333333333333"/><rect x="311.70388888888897" y="173.41707988980716" width="39.60555555555557" height="25.43250688705234" fill="#ffffff" fill-opacity="1.0" stroke="#333333" stroke-width="1.3333333333333333"/><line x1="311.70388888888897" y1="186.13333333333335" x2="351.30944444444447" y2="186.13333333333335" stroke="#333333" stroke-width="2.6666666666666665"/><line x1="331.5066666666667" y1="198.8495867768595" x2="331.5066666666667" y2="211.5658402203857" stroke="#333333" stroke-width="1.3333333333333333"/><line x1="331.5066666666667" y1="173.41707988980716" x2="331.5066666666667" y2="173.41707988980716" stroke="#333333" stroke-width="1.3333333333333333"/><line x1="321.6052777777778" y1="211.5658402203857" x2="341.4080555555556" y2="211.5658402203857" stroke="#333333" stroke-width="1.3333333333333333"/><line x1="321.6052777777778" y1="173.41707988980716" x2="341.4080555555556" y2="173.41707988980716" stroke="#333333" stroke-width="1.3333333333333333"/><rect x="390.915" y="116.19393939393936" width="39.60555555555557" height="76.2975206611571" fill="#ffffff" fill-opacity="1.0" stroke="#333333" stroke-width="1.3333333333333333"/><line x1="390.915" y1="173.41707988980716" x2="430.5205555555556" y2="173.41707988980716" stroke="#333333" stroke-width="2.6666666666666665"/><line x1="410.71777777777777" y1="192.49146005509647" x2="410.71777777777777" y2="249.71460055096418" stroke="#333333" stroke-width="1.3333333333333333"/><line x1="410.71777777777777" y1="116.19393939393936" x2="410.71777777777777" y2="46.25454545454545" stroke="#333333" stroke-width="1.3333333333333333"/><line x1="400.8163888888889" y1="249.71460055096418" x2="420.6191666666667" y2="249.71460055096418" stroke="#333333" stroke-width="1.3333333333333333"/><line x1="400.8163888888889" y1="46.25454545454545" x2="420.6191666666667" y2="46.25454545454545" stroke="#333333" stroke-width="1.3333333333333333"/><circle cx="410.71777777777777" cy="-17.326721763085438" r="3.1181102362204727" fill="#333333" fill-opacity="1.0" stroke="#333333" stroke-width="1.3333333333333333"/><circle cx="410.71777777777777" cy="-55.47548209366391" r="3.1181102362204727" fill="#333333" fill-opacity="1.0" stroke="#333333" stroke-width="1.3333333333333333"/><rect x="470.1261111111111" y="135.26831955922864" width="39.60555555555557" height="38.14876033057851" fill="#ffffff" fill-opacity="1.0" stroke="#333333" stroke-width="1.3333333333333333"/><line x1="470.1261111111111" y1="160.70082644628098" x2="509.7316666666666" y2="160.70082644628098" stroke="#333333" stroke-width="2.6666666666666665"/><line x1="489.9288888888889" y1="173.41707988980716" x2="489.9288888888889" y2="211.5658402203857" stroke="#333333" stroke-width="1.3333333333333333"/><line x1="489.9288888888889" y1="135.26831955922864" x2="489.9288888888889" y2="84.40330578512396" stroke="#333333" stroke-width="1.3333333333333333"/><line x1="480.0275" y1="211.5658402203857" x2="499.8302777777777" y2="211.5658402203857" stroke="#333333" stroke-width="1.3333333333333333"/><line x1="480.0275" y1="84.40330578512396" x2="499.8302777777777" y2="84.40330578512396" stroke="#333333" stroke-width="1.3333333333333333"/><circle cx="489.9288888888889" cy="58.97079889807162" r="3.1181102362204727" fill="#333333" fill-opacity="1.0" stroke="#333333" stroke-width="1.3333333333333333"/><circle cx="489.9288888888889" cy="58.97079889807162" r="3.1181102362204727" fill="#333333" fill-opacity="1.0" stroke="#333333" stroke-width="1.3333333333333333"/><circle cx="489.9288888888889" cy="33.53829201101928" r="3.1181102362204727" fill="#333333" fill-opacity="1.0" stroke="#333333" stroke-width="1.3333333333333333"/><circle cx="489.9288888888889" cy="-55.47548209366391" r="3.1181102362204727" fill="#333333" fill-opacity="1.0" stroke="#333333" stroke-width="1.3333333333333333"/><rect x="549.3372222222222" y="135.26831955922864" width="39.60555555555557" height="38.14876033057851" fill="#ffffff" fill-opacity="1.0" stroke="#333333" stroke-width="1.3333333333333333"/><line x1="549.3372222222222" y1="160.70082644628098" x2="588.9427777777778" y2="160.70082644628098" stroke="#333333" stroke-width="2.6666666666666665"/><line x1="569.14" y1="173.41707988980716" x2="569.14" y2="211.5658402203857" stroke="#333333" stroke-width="1.3333333333333333"/><line x1="569.14" y1="135.26831955922864" x2="569.14" y2="97.11955922865013" stroke="#333333" stroke-width="1.3333333333333333"/><line x1="559.2386111111111" y1="211.5658402203857" x2="579.0413888888888" y2="211.5658402203857" stroke="#333333" stroke-width="1.3333333333333333"/><line x1="559.2386111111111" y1="97.11955922865013" x2="579.0413888888888" y2="97.11955922865013" stroke="#333333" stroke-width="1.3333333333333333"/></svg>