<svg xmlns="http://www.w3.org/2000/svg" width="624" height="384" viewBox="0 0 624 384"><rect x="0.0" y="0.0" width="624.0" height="384.0" fill="#ffffff" fill-opacity="1.0" stroke="none"/><rect x="46.346666666666664" y="32.266666666666666" width="570.3199999999999" height="307.73333333333335" fill="#ebebeb" fill-opacity="1.0" stroke="none"/><line x1="46.346666666666664" y1="314.3555555555555" x2="616.6666666666666" y2="314.3555555555555" stroke="#ffffff" stroke-width="1.3333333333333333"/><line x1="46.346666666666664" y1="271.6148148148148" x2="616.6666666666666" y2="271.6148148148148" stroke="#ffffff" stroke-width="1.3333333333333333"/><line x1="46.346666666666664" y1="228.87407407407403" x2="616.6666666666666" y2="228.87407407407403" stroke="#ffffff" stroke-width="1.3333333333333333"/><line x1="46.346666666666664" y1="186.13333333333327" x2="616.6666666666666" y2="186.13333333333327" stroke="#ffffff" stroke-width="1.3333333333333333"/><line x1="46.346666666666664" y1="143.39259259259256" x2="616.6666666666666" y2="143.39259259259256" stroke="#ffffff" stroke-width="1.3333333333333333"/><line x1="46.346666666666664" y1="100.65185185185183" x2="616.6666666666666" y2="100.65185185185183" stroke="#ffffff" stroke-width="1.3333333333333333"/><line x1="46.346666666666664" y1="57.911111111111076" x2="616.6666666666666" y2="57.911111111111076" stroke="#ffffff" stroke-width="1.3333333333333333"/><line x1="154.75460055096414" y1="32.266666666666666" x2="154.75460055096414" y2="340.0" stroke="#ffffff" stroke-width="0.6666666666666666"/><line x1="272.5893112947658" y1="32.266666666666666" x2="272.5893112947658" y2="340.0" stroke="#ffffff" stroke-width="0.6666666666666666"/><line x1="390.4240220385674" y1="32.266666666666666" x2="390.4240220385674" y2="340.0" stroke="#ffffff" stroke-width="0.6666666666666666"/><line x1="508.25873278236907" y1="32.266666666666666" x2="508.25873278236907" y2="340.0" stroke="#ffffff" stroke-width="0.6666666666666666"/><line x1="95.83724517906333" y1="32.266666666666666" x2="95.83724517906333" y2="340.0" stroke="#ffffff" stroke-width="1.3333333333333333"/><line x1="213.67195592286498" y1="32.266666666666666" x2="213.67195592286498" y2="340.0" stroke="#ffffff" stroke-width="1.3333333333333333"/><line x1="331.5066666666666" y1="32.266666666666666" x2="331.5066666666666" y2="340.0" stroke="#ffffff" stroke-width="1.3333333333333333"/><line x1="449.34137741046834" y1="32.266666666666666" x2="449.34137741046834" y2="340.0" stroke="#ffffff" stroke-width="1.3333333333333333"/><line x1="567.1760881542699" y1="32.266666666666666" x2="567.1760881542699" y2="340.0" stroke="#ffffff" stroke-width="1.3333333333333333"/><line x1="46.346666666666664" y1="314.3555555555555" x2="42.67999999999999" y2="314.3555555555555" stroke="#333333" stroke-width="1.3333333333333333"/><text x="39.74666666666666" y="318.4622222222222" fill="#4d4d4d" font-size="11.733333333333334" font-family="sans-serif" text-anchor="end">pickup</text><line x1="46.346666666666664" y1="271.6148148148148" x2="42.67999999999999" y2="271.6148148148148" stroke="#333333" stroke-width="1.3333333333333333"/><text x="39.74666666666666" y="275.7214814814815" fill="#4d4d4d" font-size="11.733333333333334" font-family="sans-serif" text-anchor="end">suv</text><line x1="46.346666666666664" y1="228.87407407407403" x2="42.67999999999999" y2="228.87407407407403" stroke="#333333" stroke-width="1.3333333333333333"/><text x="39.74666666666666" y="232.9807407407407" fill="#4d4d4d" font-size="11.733333333333334" font-family="sans-serif" text-anchor="end">minivan</text><line x1="46.346666666666664" y1="186.13333333333327" x2="42.67999999999999" y2="186.13333333333327" stroke="#333333" stroke-width="1.3333333333333333"/><text x="39.74666666666666" y="190.23999999999995" fill="#4d4d4d" font-size="11.733333333333334" font-family="sans-serif" text-anchor="end">2seater</text><line x1="46.346666666666664" y1="143.39259259259256" x2="42.67999999999999" y2="143.39259259259256" stroke="#333333" stroke-width="1.3333333333333333"/><text x="39.74666666666666" y="147.49925925925922" fill="#4d4d4d" font-size="11.733333333333334" font-family="sans-serif" text-anchor="end">subcompact</text><line x1="46.346666666666664" y1="100.65185185185183" x2="42.67999999999999" y2="100.65185185185183" stroke="#333333" stroke-width="1.3333333333333333"/><text x="39.74666666666666" y="104.7585185185185" fill="#4d4d4d" font-size="11.733333333333334" font-family="sans-serif" text-anchor="end">compact</text><line x1="46.346666666666664" y1="57.911111111111076" x2="42.67999999999999" y2="57.911111111111076" stroke="#333333" stroke-width="1.3333333333333333"/><text x="39.74666666666666" y="62.01777777777774" fill="#4d4d4d" font-size="11.733333333333334" font-family="sans-serif" text-anchor="end">midsize</text><line x1="95.83724517906333" y1="340.0" x2="95.83724517906333" y2="343.66666666666663" stroke="#333333" stroke-width="1.3333333333333333"/><text x="95.83724517906333" y="355.9866666666667" fill="#4d4d4d" font-size="11.733333333333334" font-family="sans-serif" text-anchor="middle">15</text><line x1="213.67195592286498" y1="340.0" x2="213.67195592286498" y2="343.66666666666663" stroke="#333333" stroke-width="1.3333333333333333"/><text x="213.67195592286498" y="355.9866666666667" fill="#4d4d4d" font-size="11.733333333333334" font-family="sans-serif" text-anchor="middle">20</text><line x1="331.5066666666666" y1="340.0" x2="331.5066666666666" y2="343.66666666666663" stroke="#333333" stroke-width="1.3333333333333333"/><text x="331.5066666666666" y="355.9866666666667" fill="#4d4d4d" font-size="11.733333333333334" font-family="sans-serif" text-anchor="middle">25</text><line x1="449.34137741046834" y1="340.0" x2="449.34137741046834" y2="343.66666666666663" stroke="#333333" stroke-width="1.3333333333333333"/><text x="449.34137741046834" y="355.9866666666667" fill="#4d4d4d" font-size="11.733333333333334" font-family="sans-serif" text-anchor="middle">30</text><line x1="567.1760881542699" y1="340.0" x2="567.1760881542699" y2="343.66666666666663" stroke="#333333" stroke-width="1.3333333333333333"/><text x="567.1760881542699" y="355.9866666666667" fill="#4d4d4d" font-size="11.733333333333334" font-family="sans-serif" text-anchor="middle">35</text><text x="46.346666666666664" y="21.413333333333334" fill="#000000" font-size="17.599999999999998" font-family="sans-serif" text-anchor="start">class 別 hwy (横向き)</text><text x="331.50666666666666" y="373.73333333333335" fill="#000000" font-size="14.666666666666666" font-family="sans-serif" text-anchor="middle">hwy</text><text x="17.599999999999998" y="186.13333333333333" fill="#000000" font-size="14.666666666666666" font-family="sans-serif" text-anchor="middle" transform="rotate(-90.0 17.599999999999998 186.13333333333333)">class</text><rect x="119.40418732782366" y="303.67037037037034" width="47.13388429752065" height="21.37037037037036" fill="#ffffff" fill-opacity="1.0" stroke="#333333" stroke-width="1.3333333333333333"/><line x1="142.971129476584" y1="303.67037037037034" x2="142.971129476584" y2="325.0407407407407" stroke="#333333" stroke-width="2.6666666666666665"/><line x1="119.40418732782366" y1="314.3555555555555" x2="95.83724517906333" y2="314.3555555555555" stroke="#333333" stroke-width="1.3333333333333333"/><line x1="166.53807162534432" y1="314.3555555555555" x2="213.67195592286498" y2="314.3555555555555" stroke="#333333" stroke-width="1.3333333333333333"/><line x1="95.83724517906333" y1="309.0129629629629" x2="95.83724517906333" y2="319.6981481481481" stroke="#333333" stroke-width="1.3333333333333333"/><line x1="213.67195592286498" y1="309.0129629629629" x2="213.67195592286498" y2="319.6981481481481" stroke="#333333" stroke-width="1.3333333333333333"/><circle cx="25.136418732782364" cy="314.3555555555555" r="3.1181102362204727" fill="#333333" fill-opacity="1.0" stroke="#333333" stroke-width="1.3333333333333333"/><circle cx="25.136418732782364" cy="314.3555555555555" r="3.1181102362204727" fill="#333333" fill-opacity="1.0" stroke="#333333" stroke-width="1.3333333333333333"/><circle cx="25.136418732782364" cy="314.3555555555555" r="3.1181102362204727" fill="#333333" fill-opacity="1.0" stroke="#333333" stroke-width="1.3333333333333333"/><circle cx="260.8058402203856" cy="314.3555555555555" r="3.1181102362204727" fill="#333333" fill-opacity="1.0" stroke="#333333" stroke-width="1.3333333333333333"/><rect x="142.971129476584" y="260.92962962962963" width="47.13388429752065" height="21.37037037037036" fill="#ffffff" fill-opacity="1.0" stroke="#333333" stroke-width="1.3333333333333333"/><line x1="154.75460055096414" y1="260.92962962962963" x2="154.75460055096414" y2="282.29999999999995" stroke="#333333" stroke-width="2.6666666666666665"/><line x1="142.971129476584" y1="271.6148148148148" x2="72.27030303030301" y2="271.6148148148148" stroke="#333333" stroke-width="1.3333333333333333"/><line x1="190.10501377410463" y1="271.6148148148148" x2="260.8058402203856" y2="271.6148148148148" stroke="#333333" stroke-width="1.3333333333333333"/><line x1="72.27030303030301" y1="266.2722222222222" x2="72.27030303030301" y2="276.9574074074074" stroke="#333333" stroke-width="1.3333333333333333"/><line x1="260.8058402203856" y1="266.2722222222222" x2="260.8058402203856" y2="276.9574074074074" stroke="#333333" stroke-width="1.3333333333333333"/><circle cx="25.136418732782364" cy="271.6148148148148" r="3.1181102362204727" fill="#333333" fill-opacity="1.0" stroke="#333333" stroke-width="1.3333333333333333"/><circle cx="25.136418732782364" cy="271.6148148148148" r="3.1181102362204727" fill="#333333" fill-opacity="1.0" stroke="#333333" stroke-width="1.3333333333333333"/><circle cx="284.37278236914597" cy="271.6148148148148" r="3.1181102362204727" fill="#333333" fill-opacity="1.0" stroke="#333333" stroke-width="1.3333333333333333"/><circle cx="307.93972451790626" cy="271.6148148148148" r="3.1181102362204727" fill="#333333" fill-opacity="1.0" stroke="#333333" stroke-width="1.3333333333333333"/><circle cx="331.5066666666666" cy="271.6148148148148" r="3.1181102362204727" fill="#333333" fill-opacity="1.0" stroke="#333333" stroke-width="1.3333333333333333"/><circle cx="331.5066666666666" cy="271.6148148148148" r="3.1181102362204727" fill="#333333" fill-opacity="1.0" stroke="#333333" stroke-width="1.3333333333333333"/><circle cx="355.073608815427" cy="271.6148148148148" r="3.1181102362204727" fill="#333333" fill-opacity="1.0" stroke="#333333" stroke-width="1.3333333333333333"/><circle cx="378.6405509641873" cy="271.6148148148148" r="3.1181102362204727" fill="#333333" fill-opacity="1.0" stroke="#333333" stroke-width="1.3333333333333333"/><rect x="260.8058402203856" y="218.18888888888887" width="47.13388429752065" height="21.37037037037036" fill="#ffffff" fill-opacity="1.0" stroke="#333333" stroke-width="1.3333333333333333"/><line x1="284.37278236914597" y1="218.18888888888887" x2="284.37278236914597" y2="239.55925925925922" stroke="#333333" stroke-width="2.6666666666666665"/><line x1="260.8058402203856" y1="228.87407407407403" x2="237.2388980716253" y2="228.87407407407403" stroke="#333333" stroke-width="1.3333333333333333"/><line x1="307.93972451790626" y1="228.87407407407403" x2="307.93972451790626" y2="228.87407407407403" stroke="#333333" stroke-width="1.3333333333333333"/><line x1="237.2388980716253" y1="223.53148148148148" x2="237.2388980716253" y2="234.2166666666666" stroke="#333333" stroke-width="1.3333333333333333"/><line x1="307.93972451790626" y1="223.53148148148148" x2="307.93972451790626" y2="234.2166666666666" stroke="#333333" stroke-width="1.3333333333333333"/><circle cx="142.971129476584" cy="228.87407407407403" r="3.1181102362204727" fill="#333333" fill-opacity="1.0" stroke="#333333" stroke-width="1.3333333333333333"/><rect x="307.93972451790626" y="175.4481481481481" width="47.13388429752073" height="21.37037037037036" fill="#ffffff" fill-opacity="1.0" stroke="#333333" stroke-width="1.3333333333333333"/><line x1="331.5066666666666" y1="175.4481481481481" x2="331.5066666666666" y2="196.81851851851846" stroke="#333333" stroke-width="2.6666666666666665"/><line x1="307.93972451790626" y1="186.13333333333327" x2="284.37278236914597" y2="186.13333333333327" stroke="#333333" stroke-width="1.3333333333333333"/><line x1="355.073608815427" y1="186.13333333333327" x2="355.073608815427" y2="186.13333333333327" stroke="#333333" stroke-width="1.3333333333333333"/><line x1="284.37278236914597" y1="180.79074074074066" x2="284.37278236914597" y2="191.47592592592588" stroke="#333333" stroke-width="1.3333333333333333"/><line x1="355.073608815427" y1="180.79074074074066" x2="355.073608815427" y2="191.47592592592588" stroke="#333333" stroke-width="1.3333333333333333"/><rect x="319.7231955922864" y="132.70740740740737" width="141.40165289256208" height="21.37037037037036" fill="#ffffff" fill-opacity="1.0" stroke="#333333" stroke-width="1.3333333333333333"/><line x1="355.073608815427" y1="132.70740740740737" x2="355.073608815427" y2="154.07777777777773" stroke="#333333" stroke-width="2.6666666666666665"/><line x1="319.7231955922864" y1="143.39259259259256" x2="213.67195592286498" y2="143.39259259259256" stroke="#333333" stroke-width="1.3333333333333333"/><line x1="461.1248484848485" y1="143.39259259259256" x2="590.7430303030302" y2="143.39259259259256" stroke="#333333" stroke-width="1.3333333333333333"/><line x1="213.67195592286498" y1="138.04999999999995" x2="213.67195592286498" y2="148.73518518518514" stroke="#333333" stroke-width="1.3333333333333333"/><line x1="590.7430303030302" y1="138.04999999999995" x2="590.7430303030302" y2="148.73518518518514" stroke="#333333" stroke-width="1.3333333333333333"/><circle cx="708.577741046832" cy="143.39259259259256" r="3.1181102362204727" fill="#333333" fill-opacity="1.0" stroke="#333333" stroke-width="1.3333333333333333"/><circle cx="779.2785674931129" cy="143.39259259259256" r="3.1181102362204727" fill="#333333" fill-opacity="1.0" stroke="#333333" stroke-width="1.3333333333333333"/><rect x="355.073608815427" y="89.96666666666665" width="70.70082644628094" height="21.37037037037036" fill="#ffffff" fill-opacity="1.0" stroke="#333333" stroke-width="1.3333333333333333"/><line x1="378.6405509641873" y1="89.96666666666665" x2="378.6405509641873" y2="111.33703703703702" stroke="#333333" stroke-width="2.6666666666666665"/><line x1="355.073608815427" y1="100.65185185185183" x2="284.37278236914597" y2="100.65185185185183" stroke="#333333" stroke-width="1.3333333333333333"/><line x1="425.77443526170794" y1="100.65185185185183" x2="520.0422038567492" y2="100.65185185185183" stroke="#333333" stroke-width="1.3333333333333333"/><line x1="284.37278236914597" y1="95.30925925925925" x2="284.37278236914597" y2="105.99444444444443" stroke="#333333" stroke-width="1.3333333333333333"/><line x1="520.0422038567492" y1="95.30925925925925" x2="520.0422038567492" y2="105.99444444444443" stroke="#333333" stroke-width="1.3333333333333333"/><circle cx="567.1760881542699" cy="100.65185185185183" r="3.1181102362204727" fill="#333333" fill-opacity="1.0" stroke="#333333" stroke-width="1.3333333333333333"/><circle cx="567.1760881542699" cy="100.65185185185183" r="3.1181102362204727" fill="#333333" fill-opacity="1.0" stroke="#333333" stroke-width="1.3333333333333333"/><circle cx="614.3099724517906" cy="100.65185185185183" r="3.1181102362204727" fill="#333333" fill-opacity="1.0" stroke="#333333" stroke-width="1.3333333333333333"/><circle cx="779.2785674931129" cy="100.65185185185183" r="3.1181102362204727" fill="#333333" fill-opacity="1.0" stroke="#333333" stroke-width="1.3333333333333333"/><rect x="355.073608815427" y="47.22592592592589" width="70.70082644628094" height="21.37037037037036" fill="#ffffff" fill-opacity="1.0" stroke="#333333" stroke-width="1.3333333333333333"/><line x1="378.6405509641873" y1="47.22592592592589" x2="378.6405509641873" y2="68.59629629629626" stroke="#333333" stroke-width="2.6666666666666665"/><line x1="355.073608815427" y1="57.911111111111076" x2="284.37278236914597" y2="57.911111111111076" stroke="#333333" stroke-width="1.3333333333333333"/><line x1="425.77443526170794" y1="57.911111111111076" x2="496.4752617079889" y2="57.911111111111076" stroke="#333333" stroke-width="1.3333333333333333"/><line x1="284.37278236914597" y1="52.56851851851849" x2="284.37278236914597" y2="63.253703703703664" stroke="#333333" stroke-width="1.3333333333333333"/><line x1="496.4752617079889" y1="52.56851851851849" x2="496.4752617079889" y2="63.253703703703664" stroke="#333333" stroke-width="1.3333333333333333"/></svg>