<svg xmlns="http://www.w3.org/2000/svg" width="800" height="600" viewBox="0 0 800 600"><rect x="0.0" y="0.0" width="800.0" height="600.0" fill="#ffffff" fill-opacity="1.0" stroke="none"/><line x1="38.4" y1="519.0666666666666" x2="794.5" y2="519.0666666666666" stroke="#dddddd" stroke-width="1.0"/><line x1="38.4" y1="444.51111111111106" x2="794.5" y2="444.51111111111106" stroke="#dddddd" stroke-width="1.0"/><line x1="38.4" y1="369.9555555555555" x2="794.5" y2="369.9555555555555" stroke="#dddddd" stroke-width="1.0"/><line x1="38.4" y1="295.3999999999999" x2="794.5" y2="295.3999999999999" stroke="#dddddd" stroke-width="1.0"/><line x1="38.4" y1="220.84444444444438" x2="794.5" y2="220.84444444444438" stroke="#dddddd" stroke-width="1.0"/><line x1="38.4" y1="146.2888888888889" x2="794.5" y2="146.2888888888889" stroke="#dddddd" stroke-width="1.0"/><line x1="38.4" y1="71.73333333333329" x2="794.5" y2="71.73333333333329" stroke="#dddddd" stroke-width="1.0"/><line x1="182.12148760330575" y1="27.0" x2="182.12148760330575" y2="563.8" stroke="#dddddd" stroke-width="0.5"/><line x1="338.34049586776854" y1="27.0" x2="338.34049586776854" y2="563.8" stroke="#dddddd" stroke-width="0.5"/><line x1="494.5595041322313" y1="27.0" x2="494.5595041322313" y2="563.8" stroke="#dddddd" stroke-width="0.5"/><line x1="650.7785123966942" y1="27.0" x2="650.7785123966942" y2="563.8" stroke="#dddddd" stroke-width="0.5"/><line x1="104.01198347107436" y1="27.0" x2="104.01198347107436" y2="563.8" stroke="#dddddd" stroke-width="1.0"/><line x1="260.23099173553715" y1="27.0" x2="260.23099173553715" y2="563.8" stroke="#dddddd" stroke-width="1.0"/><line x1="416.44999999999993" y1="27.0" x2="416.44999999999993" y2="563.8" stroke="#dddddd" stroke-width="1.0"/><line x1="572.6690082644628" y1="27.0" x2="572.6690082644628" y2="563.8" stroke="#dddddd" stroke-width="1.0"/><line x1="728.8880165289256" y1="27.0" x2="728.8880165289256" y2="563.8" stroke="#dddddd" stroke-width="1.0"/><rect x="38.4" y="27.0" width="756.1" height="536.8" fill="#ffffff" fill-opacity="0.0" stroke="#444444" stroke-width="1.0"/><line x1="38.4" y1="519.0666666666666" x2="35.65" y2="519.0666666666666" stroke="#444444" stroke-width="1.0"/><text x="33.449999999999996" y="522.9166666666666" fill="#333333" font-size="11.0" font-family="sans-serif" text-anchor="end">pickup</text><line x1="38.4" y1="444.51111111111106" x2="35.65" y2="444.51111111111106" stroke="#444444" stroke-width="1.0"/><text x="33.449999999999996" y="448.3611111111111" fill="#333333" font-size="11.0" font-family="sans-serif" text-anchor="end">suv</text><line x1="38.4" y1="369.9555555555555" x2="35.65" y2="369.9555555555555" stroke="#444444" stroke-width="1.0"/><text x="33.449999999999996" y="373.80555555555554" fill="#333333" font-size="11.0" font-family="sans-serif" text-anchor="end">minivan</text><line x1="38.4" y1="295.3999999999999" x2="35.65" y2="295.3999999999999" stroke="#444444" stroke-width="1.0"/><text x="33.449999999999996" y="299.24999999999994" fill="#333333" font-size="11.0" font-family="sans-serif" text-anchor="end">2seater</text><line x1="38.4" y1="220.84444444444438" x2="35.65" y2="220.84444444444438" stroke="#444444" stroke-width="1.0"/><text x="33.449999999999996" y="224.69444444444437" fill="#333333" font-size="11.0" font-family="sans-serif" text-anchor="end">subcompact</text><line x1="38.4" y1="146.2888888888889" x2="35.65" y2="146.2888888888889" stroke="#444444" stroke-width="1.0"/><text x="33.449999999999996" y="150.13888888888889" fill="#333333" font-size="11.0" font-family="sans-serif" text-anchor="end">compact</text><line x1="38.4" y1="71.73333333333329" x2="35.65" y2="71.73333333333329" stroke="#444444" stroke-width="1.0"/><text x="33.449999999999996" y="75.58333333333329" fill="#333333" font-size="11.0" font-family="sans-serif" text-anchor="end">midsize</text><line x1="104.01198347107436" y1="563.8" x2="104.01198347107436" y2="566.55" stroke="#444444" stroke-width="1.0"/><text x="104.01198347107436" y="577.55" fill="#333333" font-size="11.0" font-family="sans-serif" text-anchor="middle">15</text><line x1="260.23099173553715" y1="563.8" x2="260.23099173553715" y2="566.55" stroke="#444444" stroke-width="1.0"/><text x="260.23099173553715" y="577.55" fill="#333333" font-size="11.0" font-family="sans-serif" text-anchor="middle">20</text><line x1="416.44999999999993" y1="563.8" x2="416.44999999999993" y2="566.55" stroke="#444444" stroke-width="1.0"/><text x="416.44999999999993" y="577.55" fill="#333333" font-size="11.0" font-family="sans-serif" text-anchor="middle">25</text><line x1="572.6690082644628" y1="563.8" x2="572.6690082644628" y2="566.55" stroke="#444444" stroke-width="1.0"/><text x="572.6690082644628" y="577.55" fill="#333333" font-size="11.0" font-family="sans-serif" text-anchor="middle">30</text><line x1="728.8880165289256" y1="563.8" x2="728.8880165289256" y2="566.55" stroke="#444444" stroke-width="1.0"/><text x="728.8880165289256" y="577.55" fill="#333333" font-size="11.0" font-family="sans-serif" text-anchor="middle">35</text><text x="416.45" y="18.3" fill="#333333" font-size="16.0" font-family="sans-serif" text-anchor="middle">class 別 hwy (横向き)</text><text x="416.45" y="592.1" fill="#333333" font-size="12.0" font-family="sans-serif" text-anchor="middle">hwy</text><text x="13.899999999999999" y="295.4" fill="#333333" font-size="12.0" font-family="sans-serif" text-anchor="middle" transform="rotate(-90.0 13.899999999999999 295.4)">class</text><rect x="135.25578512396692" y="500.4277777777777" width="62.48760330578514" height="37.27777777777777" fill="#1f77b4" fill-opacity="0.4" stroke="#1f77b4" stroke-width="1.0"/><line x1="166.49958677685947" y1="500.4277777777777" x2="166.49958677685947" y2="537.7055555555555" stroke="#1f77b4" stroke-width="2.0"/><line x1="135.25578512396692" y1="519.0666666666666" x2="104.01198347107436" y2="519.0666666666666" stroke="#1f77b4" stroke-width="1.0"/><line x1="197.74338842975206" y1="519.0666666666666" x2="260.23099173553715" y2="519.0666666666666" stroke="#1f77b4" stroke-width="1.0"/><line x1="104.01198347107436" y1="509.74722222222215" x2="104.01198347107436" y2="528.3861111111111" stroke="#1f77b4" stroke-width="1.0"/><line x1="260.23099173553715" y1="509.74722222222215" x2="260.23099173553715" y2="528.3861111111111" stroke="#1f77b4" stroke-width="1.0"/><rect x="166.49958677685947" y="425.87222222222215" width="62.487603305785115" height="37.27777777777777" fill="#1f77b4" fill-opacity="0.4" stroke="#1f77b4" stroke-width="1.0"/><line x1="182.12148760330575" y1="425.87222222222215" x2="182.12148760330575" y2="463.15" stroke="#1f77b4" stroke-width="2.0"/><line x1="166.49958677685947" y1="444.51111111111106" x2="72.7681818181818" y2="444.51111111111106" stroke="#1f77b4" stroke-width="1.0"/><line x1="228.9871900826446" y1="444.51111111111106" x2="322.71859504132226" y2="444.51111111111106" stroke="#1f77b4" stroke-width="1.0"/><line x1="72.7681818181818" y1="435.1916666666666" x2="72.7681818181818" y2="453.8305555555555" stroke="#1f77b4" stroke-width="1.0"/><line x1="322.71859504132226" y1="435.1916666666666" x2="322.71859504132226" y2="453.8305555555555" stroke="#1f77b4" stroke-width="1.0"/><rect x="322.71859504132226" y="351.3166666666666" width="62.487603305785115" height="37.27777777777777" fill="#1f77b4" fill-opacity="0.4" stroke="#1f77b4" stroke-width="1.0"/><line x1="353.9623966942148" y1="351.3166666666666" x2="353.9623966942148" y2="388.59444444444443" stroke="#1f77b4" stroke-width="2.0"/><line x1="322.71859504132226" y1="369.9555555555555" x2="291.4747933884297" y2="369.9555555555555" stroke="#1f77b4" stroke-width="1.0"/><line x1="385.2061983471074" y1="369.9555555555555" x2="385.2061983471074" y2="369.9555555555555" stroke="#1f77b4" stroke-width="1.0"/><line x1="291.4747933884297" y1="360.63611111111106" x2="291.4747933884297" y2="379.275" stroke="#1f77b4" stroke-width="1.0"/><line x1="385.2061983471074" y1="360.63611111111106" x2="385.2061983471074" y2="379.275" stroke="#1f77b4" stroke-width="1.0"/><rect x="385.2061983471074" y="276.76111111111106" width="62.48760330578517" height="37.27777777777777" fill="#1f77b4" fill-opacity="0.4" stroke="#1f77b4" stroke-width="1.0"/><line x1="416.44999999999993" y1="276.76111111111106" x2="416.44999999999993" y2="314.0388888888888" stroke="#1f77b4" stroke-width="2.0"/><line x1="385.2061983471074" y1="295.3999999999999" x2="353.9623966942148" y2="295.3999999999999" stroke="#1f77b4" stroke-width="1.0"/><line x1="447.69380165289255" y1="295.3999999999999" x2="447.69380165289255" y2="295.3999999999999" stroke="#1f77b4" stroke-width="1.0"/><line x1="353.9623966942148" y1="286.08055555555546" x2="353.9623966942148" y2="304.7194444444444" stroke="#1f77b4" stroke-width="1.0"/><line x1="447.69380165289255" y1="286.08055555555546" x2="447.69380165289255" y2="304.7194444444444" stroke="#1f77b4" stroke-width="1.0"/><rect x="400.82809917355365" y="202.2055555555555" width="187.4628099173554" height="37.27777777777777" fill="#1f77b4" fill-opacity="0.4" stroke="#1f77b4" stroke-width="1.0"/><line x1="447.69380165289255" y1="202.2055555555555" x2="447.69380165289255" y2="239.48333333333326" stroke="#1f77b4" stroke-width="2.0"/><line x1="400.82809917355365" y1="220.84444444444438" x2="260.23099173553715" y2="220.84444444444438" stroke="#1f77b4" stroke-width="1.0"/><line x1="588.290909090909" y1="220.84444444444438" x2="760.1318181818182" y2="220.84444444444438" stroke="#1f77b4" stroke-width="1.0"/><line x1="260.23099173553715" y1="211.52499999999992" x2="260.23099173553715" y2="230.16388888888883" stroke="#1f77b4" stroke-width="1.0"/><line x1="760.1318181818182" y1="211.52499999999992" x2="760.1318181818182" y2="230.16388888888883" stroke="#1f77b4" stroke-width="1.0"/><rect x="447.69380165289255" y="127.65" width="93.73140495867773" height="37.27777777777777" fill="#1f77b4" fill-opacity="0.4" stroke="#1f77b4" stroke-width="1.0"/><line x1="478.93760330578505" y1="127.65" x2="478.93760330578505" y2="164.92777777777778" stroke="#1f77b4" stroke-width="2.0"/><line x1="447.69380165289255" y1="146.2888888888889" x2="353.9623966942148" y2="146.2888888888889" stroke="#1f77b4" stroke-width="1.0"/><line x1="541.4252066115703" y1="146.2888888888889" x2="666.4004132231405" y2="146.2888888888889" stroke="#1f77b4" stroke-width="1.0"/><line x1="353.9623966942148" y1="136.96944444444443" x2="353.9623966942148" y2="155.60833333333335" stroke="#1f77b4" stroke-width="1.0"/><line x1="666.4004132231405" y1="136.96944444444443" x2="666.4004132231405" y2="155.60833333333335" stroke="#1f77b4" stroke-width="1.0"/><rect x="447.69380165289255" y="53.094444444444406" width="93.73140495867773" height="37.27777777777777" fill="#1f77b4" fill-opacity="0.4" stroke="#1f77b4" stroke-width="1.0"/><line x1="478.93760330578505" y1="53.094444444444406" x2="478.93760330578505" y2="90.37222222222218" stroke="#1f77b4" stroke-width="2.0"/><line x1="447.69380165289255" y1="71.73333333333329" x2="353.9623966942148" y2="71.73333333333329" stroke="#1f77b4" stroke-width="1.0"/><line x1="541.4252066115703" y1="71.73333333333329" x2="635.1566115702478" y2="71.73333333333329" stroke="#1f77b4" stroke-width="1.0"/><line x1="353.9623966942148" y1="62.41388888888885" x2="353.9623966942148" y2="81.05277777777773" stroke="#1f77b4" stroke-width="1.0"/><line x1="635.1566115702478" y1="62.41388888888885" x2="635.1566115702478" y2="81.05277777777773" stroke="#1f77b4" stroke-width="1.0"/></svg>