<svg xmlns="http://www.w3.org/2000/svg" width="800" height="600" viewBox="0 0 800 600"><rect x="0.0" y="0.0" width="800.0" height="600.0" fill="#ffffff" fill-opacity="1.0" stroke="none"/><line x1="137.09166666666667" y1="27.0" x2="137.09166666666667" y2="563.8" stroke="#dddddd" stroke-width="1.0"/><line x1="224.57777777777778" y1="27.0" x2="224.57777777777778" y2="563.8" stroke="#dddddd" stroke-width="1.0"/><line x1="312.06388888888887" y1="27.0" x2="312.06388888888887" y2="563.8" stroke="#dddddd" stroke-width="1.0"/><line x1="399.55000000000007" y1="27.0" x2="399.55000000000007" y2="563.8" stroke="#dddddd" stroke-width="1.0"/><line x1="487.03611111111115" y1="27.0" x2="487.03611111111115" y2="563.8" stroke="#dddddd" stroke-width="1.0"/><line x1="574.5222222222222" y1="27.0" x2="574.5222222222222" y2="563.8" stroke="#dddddd" stroke-width="1.0"/><line x1="662.0083333333333" y1="27.0" x2="662.0083333333333" y2="563.8" stroke="#dddddd" stroke-width="1.0"/><line x1="84.6" y1="501.86153846153843" x2="714.5" y2="501.86153846153843" stroke="#dddddd" stroke-width="1.0"/><line x1="84.6" y1="398.63076923076915" x2="714.5" y2="398.63076923076915" stroke="#dddddd" stroke-width="1.0"/><line x1="84.6" y1="295.3999999999999" x2="714.5" y2="295.3999999999999" stroke="#dddddd" stroke-width="1.0"/><line x1="84.6" y1="192.1692307692307" x2="714.5" y2="192.1692307692307" stroke="#dddddd" stroke-width="1.0"/><line x1="84.6" y1="88.93846153846147" x2="714.5" y2="88.93846153846147" stroke="#dddddd" stroke-width="1.0"/><rect x="84.6" y="27.0" width="629.9" height="536.8" fill="#ffffff" fill-opacity="0.0" stroke="#444444" stroke-width="1.0"/><line x1="137.09166666666667" y1="563.8" x2="137.09166666666667" y2="566.55" stroke="#444444" stroke-width="1.0"/><text x="137.09166666666667" y="577.55" fill="#333333" font-size="11.0" font-family="sans-serif" text-anchor="middle">D</text><line x1="224.57777777777778" y1="563.8" x2="224.57777777777778" y2="566.55" stroke="#444444" stroke-width="1.0"/><text x="224.57777777777778" y="577.55" fill="#333333" font-size="11.0" font-family="sans-serif" text-anchor="middle">E</text><line x1="312.06388888888887" y1="563.8" x2="312.06388888888887" y2="566.55" stroke="#444444" stroke-width="1.0"/><text x="312.06388888888887" y="577.55" fill="#333333" font-size="11.0" font-family="sans-serif" text-anchor="middle">F</text><line x1="399.55000000000007" y1="563.8" x2="399.55000000000007" y2="566.55" stroke="#444444" stroke-width="1.0"/><text x="399.55000000000007" y="577.55" fill="#333333" font-size="11.0" font-family="sans-serif" text-anchor="middle">G</text><line x1="487.03611111111115" y1="563.8" x2="487.03611111111115" y2="566.55" stroke="#444444" stroke-width="1.0"/><text x="487.03611111111115" y="577.55" fill="#333333" font-size="11.0" font-family="sans-serif" text-anchor="middle">H</text><line x1="574.5222222222222" y1="563.8" x2="574.5222222222222" y2="566.55" stroke="#444444" stroke-width="1.0"/><text x="574.5222222222222" y="577.55" fill="#333333" font-size="11.0" font-family="sans-serif" text-anchor="middle">I</text><line x1="662.0083333333333" y1="563.8" x2="662.0083333333333" y2="566.55" stroke="#444444" stroke-width="1.0"/><text x="662.0083333333333" y="577.55" fill="#333333" font-size="11.0" font-family="sans-serif" text-anchor="middle">J</text><line x1="84.6" y1="501.86153846153843" x2="81.85" y2="501.86153846153843" stroke="#444444" stroke-width="1.0"/><text x="79.64999999999999" y="505.71153846153845" fill="#333333" font-size="11.0" font-family="sans-serif" text-anchor="end">Fair</text><line x1="84.6" y1="398.63076923076915" x2="81.85" y2="398.63076923076915" stroke="#444444" stroke-width="1.0"/><text x="79.64999999999999" y="402.48076923076917" fill="#333333" font-size="11.0" font-family="sans-serif" text-anchor="end">Good</text><line x1="84.6" y1="295.3999999999999" x2="81.85" y2="295.3999999999999" stroke="#444444" stroke-width="1.0"/><text x="79.64999999999999" y="299.24999999999994" fill="#333333" font-size="11.0" font-family="sans-serif" text-anchor="end">Very Good</text><line x1="84.6" y1="192.1692307692307" x2="81.85" y2="192.1692307692307" stroke="#444444" stroke-width="1.0"/><text x="79.64999999999999" y="196.0192307692307" fill="#333333" font-size="11.0" font-family="sans-serif" text-anchor="end">Premium</text><line x1="84.6" y1="88.93846153846147" x2="81.85" y2="88.93846153846147" stroke="#444444" stroke-width="1.0"/><text x="79.64999999999999" y="92.78846153846146" fill="#333333" font-size="11.0" font-family="sans-serif" text-anchor="end">Ideal</text><text x="399.54999999999995" y="18.3" fill="#333333" font-size="16.0" font-family="sans-serif" text-anchor="middle">color × cut の件数 (geom_tile)</text><text x="399.54999999999995" y="592.1" fill="#333333" font-size="12.0" font-family="sans-serif" text-anchor="middle">color</text><text x="13.899999999999999" y="295.4" fill="#333333" font-size="12.0" font-family="sans-serif" text-anchor="middle" transform="rotate(-90.0 13.899999999999999 295.4)">cut</text><rect x="93.3486111111111" y="450.2461538461538" width="87.48611111111114" height="103.23076923076928" fill="#440456" fill-opacity="1.0" stroke="#ffffff" stroke-width="1.0"/><rect x="180.83472222222224" y="450.2461538461538" width="87.48611111111109" height="103.23076923076928" fill="#430859" fill-opacity="1.0" stroke="#ffffff" stroke-width="1.0"/><rect x="268.3208333333333" y="450.2461538461538" width="87.4861111111112" height="103.23076923076928" fill="#430e5d" fill-opacity="1.0" stroke="#ffffff" stroke-width="1.0"/><rect x="355.8069444444445" y="450.2461538461538" width="87.48611111111097" height="103.23076923076928" fill="#430e5d" fill-opacity="1.0" stroke="#ffffff" stroke-width="1.0"/><rect x="443.2930555555555" y="450.2461538461538" width="87.4861111111112" height="103.23076923076928" fill="#430e5c" fill-opacity="1.0" stroke="#ffffff" stroke-width="1.0"/><rect x="530.7791666666667" y="450.2461538461538" width="87.48611111111109" height="103.23076923076928" fill="#440557" fill-opacity="1.0" stroke="#ffffff" stroke-width="1.0"/><rect x="618.2652777777778" y="450.2461538461538" width="87.48611111111109" height="103.23076923076928" fill="#440154" fill-opacity="1.0" stroke="#ffffff" stroke-width="1.0"/><rect x="93.3486111111111" y="347.01538461538456" width="87.48611111111114" height="103.23076923076923" fill="#40266d" fill-opacity="1.0" stroke="#ffffff" stroke-width="1.0"/><rect x="180.83472222222224" y="347.01538461538456" width="87.48611111111109" height="103.23076923076923" fill="#3e387a" fill-opacity="1.0" stroke="#ffffff" stroke-width="1.0"/><rect x="268.3208333333333" y="347.01538461538456" width="87.4861111111112" height="103.23076923076923" fill="#3e3778" fill-opacity="1.0" stroke="#ffffff" stroke-width="1.0"/><rect x="355.8069444444445" y="347.01538461538456" width="87.48611111111097" height="103.23076923076923" fill="#3e3477" fill-opacity="1.0" stroke="#ffffff" stroke-width="1.0"/><rect x="443.2930555555555" y="347.01538461538456" width="87.4861111111112" height="103.23076923076923" fill="#40296f" fill-opacity="1.0" stroke="#ffffff" stroke-width="1.0"/><rect x="530.7791666666667" y="347.01538461538456" width="87.48611111111109" height="103.23076923076923" fill="#411c67" fill-opacity="1.0" stroke="#ffffff" stroke-width="1.0"/><rect x="618.2652777777778" y="347.01538461538456" width="87.48611111111109" height="103.23076923076923" fill="#430e5d" fill-opacity="1.0" stroke="#ffffff" stroke-width="1.0"/><rect x="93.3486111111111" y="243.78461538461534" width="87.48611111111114" height="103.23076923076923" fill="#375d8b" fill-opacity="1.0" stroke="#ffffff" stroke-width="1.0"/><rect x="180.83472222222224" y="243.78461538461534" width="87.48611111111109" height="103.23076923076923" fill="#238c8c" fill-opacity="1.0" stroke="#ffffff" stroke-width="1.0"/><rect x="268.3208333333333" y="243.78461538461534" width="87.4861111111112" height="103.23076923076923" fill="#287f8c" fill-opacity="1.0" stroke="#ffffff" stroke-width="1.0"/><rect x="355.8069444444445" y="243.78461538461534" width="87.48611111111097" height="103.23076923076923" fill="#25868c" fill-opacity="1.0" stroke="#ffffff" stroke-width="1.0"/><rect x="443.2930555555555" y="243.78461538461534" width="87.4861111111112" height="103.23076923076923" fill="#306d8b" fill-opacity="1.0" stroke="#ffffff" stroke-width="1.0"/><rect x="530.7791666666667" y="243.78461538461534" width="87.48611111111109" height="103.23076923076923" fill="#3c4b86" fill-opacity="1.0" stroke="#ffffff" stroke-width="1.0"/><rect x="618.2652777777778" y="243.78461538461534" width="87.48611111111109" height="103.23076923076923" fill="#40276e" fill-opacity="1.0" stroke="#ffffff" stroke-width="1.0"/><rect x="93.3486111111111" y="140.5538461538461" width="87.48611111111114" height="103.23076923076923" fill="#35618b" fill-opacity="1.0" stroke="#ffffff" stroke-width="1.0"/><rect x="180.83472222222224" y="140.5538461538461" width="87.48611111111109" height="103.23076923076923" fill="#25888c" fill-opacity="1.0" stroke="#ffffff" stroke-width="1.0"/><rect x="268.3208333333333" y="140.5538461538461" width="87.4861111111112" height="103.23076923076923" fill="#25888c" fill-opacity="1.0" stroke="#ffffff" stroke-width="1.0"/><rect x="355.8069444444445" y="140.5538461538461" width="87.48611111111097" height="103.23076923076923" fill="#37a57d" fill-opacity="1.0" stroke="#ffffff" stroke-width="1.0"/><rect x="443.2930555555555" y="140.5538461538461" width="87.4861111111112" height="103.23076923076923" fill="#248a8c" fill-opacity="1.0" stroke="#ffffff" stroke-width="1.0"/><rect x="530.7791666666667" y="140.5538461538461" width="87.48611111111109" height="103.23076923076923" fill="#38588b" fill-opacity="1.0" stroke="#ffffff" stroke-width="1.0"/><rect x="618.2652777777778" y="140.5538461538461" width="87.48611111111109" height="103.23076923076923" fill="#3f3074" fill-opacity="1.0" stroke="#ffffff" stroke-width="1.0"/><rect x="93.3486111111111" y="37.32307692307688" width="87.48611111111114" height="103.23076923076923" fill="#32a180" fill-opacity="1.0" stroke="#ffffff" stroke-width="1.0"/><rect x="180.83472222222224" y="37.32307692307688" width="87.48611111111109" height="103.23076923076923" fill="#7ace57" fill-opacity="1.0" stroke="#ffffff" stroke-width="1.0"/><rect x="268.3208333333333" y="37.32307692307688" width="87.4861111111112" height="103.23076923076923" fill="#70cc5b" fill-opacity="1.0" stroke="#ffffff" stroke-width="1.0"/><rect x="355.8069444444445" y="37.32307692307688" width="87.48611111111097" height="103.23076923076923" fill="#fde725" fill-opacity="1.0" stroke="#ffffff" stroke-width="1.0"/><rect x="443.2930555555555" y="37.32307692307688" width="87.4861111111112" height="103.23076923076923" fill="#40ae76" fill-opacity="1.0" stroke="#ffffff" stroke-width="1.0"/><rect x="530.7791666666667" y="37.32307692307688" width="87.48611111111109" height="103.23076923076923" fill="#2a7b8c" fill-opacity="1.0" stroke="#ffffff" stroke-width="1.0"/><rect x="618.2652777777778" y="37.32307692307688" width="87.48611111111109" height="103.23076923076923" fill="#3e3678" fill-opacity="1.0" stroke="#ffffff" stroke-width="1.0"/><rect x="724.5" y="164.0" width="14.0" height="3.5" fill="#440154" fill-opacity="1.0" stroke="none"/><rect x="724.5" y="161.0" width="14.0" height="3.5" fill="#43095a" fill-opacity="1.0" stroke="none"/><rect x="724.5" y="158.0" width="14.0" height="3.5" fill="#42125f" fill-opacity="1.0" stroke="none"/><rect x="724.5" y="155.0" width="14.0" height="3.5" fill="#411a65" fill-opacity="1.0" stroke="none"/><rect x="724.5" y="152.0" width="14.0" height="3.5" fill="#40226b" fill-opacity="1.0" stroke="none"/><rect x="724.5" y="149.0" width="14.0" height="3.5" fill="#3f2b70" fill-opacity="1.0" stroke="none"/><rect x="724.5" y="146.0" width="14.0" height="3.5" fill="#3e3376" fill-opacity="1.0" stroke="none"/><rect x="724.5" y="143.0" width="14.0" height="3.5" fill="#3e3b7b" fill-opacity="1.0" stroke="none"/><rect x="724.5" y="140.0" width="14.0" height="3.5" fill="#3d4381" fill-opacity="1.0" stroke="none"/><rect x="724.5" y="137.0" width="14.0" height="3.5" fill="#3c4c87" fill-opacity="1.0" stroke="none"/><rect x="724.5" y="134.0" width="14.0" height="3.5" fill="#3a548b" fill-opacity="1.0" stroke="none"/><rect x="724.5" y="131.0" width="14.0" height="3.5" fill="#385a8b" fill-opacity="1.0" stroke="none"/><rect x="724.5" y="128.0" width="14.0" height="3.5" fill="#35618b" fill-opacity="1.0" stroke="none"/><rect x="724.5" y="125.0" width="14.0" height="3.5" fill="#32678b" fill-opacity="1.0" stroke="none"/><rect x="724.5" y="122.0" width="14.0" height="3.5" fill="#306d8b" fill-opacity="1.0" stroke="none"/><rect x="724.5" y="119.0" width="14.0" height="3.5" fill="#2d748c" fill-opacity="1.0" stroke="none"/><rect x="724.5" y="116.0" width="14.0" height="3.5" fill="#2a7a8c" fill-opacity="1.0" stroke="none"/><rect x="724.5" y="113.0" width="14.0" height="3.5" fill="#28818c" fill-opacity="1.0" stroke="none"/><rect x="724.5" y="110.0" width="14.0" height="3.5" fill="#25878c" fill-opacity="1.0" stroke="none"/><rect x="724.5" y="107.0" width="14.0" height="3.5" fill="#228e8c" fill-opacity="1.0" stroke="none"/><rect x="724.5" y="104.0" width="14.0" height="3.5" fill="#24948a" fill-opacity="1.0" stroke="none"/><rect x="724.5" y="101.0" width="14.0" height="3.5" fill="#2a9a86" fill-opacity="1.0" stroke="none"/><rect x="724.5" y="98.0" width="14.0" height="3.5" fill="#319f81" fill-opacity="1.0" stroke="none"/><rect x="724.5" y="95.0" width="14.0" height="3.5" fill="#37a57d" fill-opacity="1.0" stroke="none"/><rect x="724.5" y="92.0" width="14.0" height="3.5" fill="#3dab79" fill-opacity="1.0" stroke="none"/><rect x="724.5" y="89.0" width="14.0" height="3.5" fill="#43b174" fill-opacity="1.0" stroke="none"/><rect x="724.5" y="86.0" width="14.0" height="3.5" fill="#4ab670" fill-opacity="1.0" stroke="none"/><rect x="724.5" y="83.0" width="14.0" height="3.5" fill="#50bc6c" fill-opacity="1.0" stroke="none"/><rect x="724.5" y="80.0" width="14.0" height="3.5" fill="#56c267" fill-opacity="1.0" stroke="none"/><rect x="724.5" y="77.0" width="14.0" height="3.5" fill="#5cc863" fill-opacity="1.0" stroke="none"/><rect x="724.5" y="74.0" width="14.0" height="3.5" fill="#6acb5d" fill-opacity="1.0" stroke="none"/><rect x="724.5" y="71.0" width="14.0" height="3.5" fill="#7bce57" fill-opacity="1.0" stroke="none"/><rect x="724.5" y="68.0" width="14.0" height="3.5" fill="#8bd151" fill-opacity="1.0" stroke="none"/><rect x="724.5" y="65.0" width="14.0" height="3.5" fill="#9bd54b" fill-opacity="1.0" stroke="none"/><rect x="724.5" y="62.0" width="14.0" height="3.5" fill="#abd844" fill-opacity="1.0" stroke="none"/><rect x="724.5" y="59.0" width="14.0" height="3.5" fill="#bcdb3e" fill-opacity="1.0" stroke="none"/><rect x="724.5" y="56.0" width="14.0" height="3.5" fill="#ccde38" fill-opacity="1.0" stroke="none"/><rect x="724.5" y="53.0" width="14.0" height="3.5" fill="#dce132" fill-opacity="1.0" stroke="none"/><rect x="724.5" y="50.0" width="14.0" height="3.5" fill="#ede42b" fill-opacity="1.0" stroke="none"/><rect x="724.5" y="47.0" width="14.0" height="3.5" fill="#fde725" fill-opacity="1.0" stroke="none"/><text x="742.5" y="51.0" fill="#333333" font-size="10.0" font-family="sans-serif" text-anchor="start">4884</text><text x="742.5" y="111.0" fill="#333333" font-size="10.0" font-family="sans-serif" text-anchor="start">2501.5</text><text x="742.5" y="171.0" fill="#333333" font-size="10.0" font-family="sans-serif" text-anchor="start">119</text></svg>