<svg xmlns="http://www.w3.org/2000/svg" width="800" height="600" viewBox="0 0 800 600"><rect x="0.0" y="0.0" width="800.0" height="600.0" fill="#ffffff" fill-opacity="1.0" stroke="none"/><line x1="74.44191176470588" y1="27.0" x2="74.44191176470588" y2="563.8" stroke="#dddddd" stroke-width="1.0"/><line x1="101.51176470588234" y1="27.0" x2="101.51176470588234" y2="563.8" stroke="#dddddd" stroke-width="1.0"/><line x1="128.5816176470588" y1="27.0" x2="128.5816176470588" y2="563.8" stroke="#dddddd" stroke-width="1.0"/><line x1="155.6514705882353" y1="27.0" x2="155.6514705882353" y2="563.8" stroke="#dddddd" stroke-width="1.0"/><line x1="182.72132352941173" y1="27.0" x2="182.72132352941173" y2="563.8" stroke="#dddddd" stroke-width="1.0"/><line x1="209.7911764705882" y1="27.0" x2="209.7911764705882" y2="563.8" stroke="#dddddd" stroke-width="1.0"/><line x1="236.86102941176466" y1="27.0" x2="236.86102941176466" y2="563.8" stroke="#dddddd" stroke-width="1.0"/><line x1="263.9308823529411" y1="27.0" x2="263.9308823529411" y2="563.8" stroke="#dddddd" stroke-width="1.0"/><line x1="291.0007352941176" y1="27.0" x2="291.0007352941176" y2="563.8" stroke="#dddddd" stroke-width="1.0"/><line x1="318.07058823529405" y1="27.0" x2="318.07058823529405" y2="563.8" stroke="#dddddd" stroke-width="1.0"/><line x1="345.1404411764705" y1="27.0" x2="345.1404411764705" y2="563.8" stroke="#dddddd" stroke-width="1.0"/><line x1="372.210294117647" y1="27.0" x2="372.210294117647" y2="563.8" stroke="#dddddd" stroke-width="1.0"/><line x1="399.28014705882345" y1="27.0" x2="399.28014705882345" y2="563.8" stroke="#dddddd" stroke-width="1.0"/><line x1="426.3499999999999" y1="27.0" x2="426.3499999999999" y2="563.8" stroke="#dddddd" stroke-width="1.0"/><line x1="453.41985294117643" y1="27.0" x2="453.41985294117643" y2="563.8" stroke="#dddddd" stroke-width="1.0"/><line x1="480.4897058823529" y1="27.0" x2="480.4897058823529" y2="563.8" stroke="#dddddd" stroke-width="1.0"/><line x1="507.55955882352936" y1="27.0" x2="507.55955882352936" y2="563.8" stroke="#dddddd" stroke-width="1.0"/><line x1="534.6294117647059" y1="27.0" x2="534.6294117647059" y2="563.8" stroke="#dddddd" stroke-width="1.0"/><line x1="561.6992647058823" y1="27.0" x2="561.6992647058823" y2="563.8" stroke="#dddddd" stroke-width="1.0"/><line x1="588.7691176470588" y1="27.0" x2="588.7691176470588" y2="563.8" stroke="#dddddd" stroke-width="1.0"/><line x1="615.8389705882353" y1="27.0" x2="615.8389705882353" y2="563.8" stroke="#dddddd" stroke-width="1.0"/><line x1="642.9088235294117" y1="27.0" x2="642.9088235294117" y2="563.8" stroke="#dddddd" stroke-width="1.0"/><line x1="669.9786764705882" y1="27.0" x2="669.9786764705882" y2="563.8" stroke="#dddddd" stroke-width="1.0"/><line x1="697.0485294117647" y1="27.0" x2="697.0485294117647" y2="563.8" stroke="#dddddd" stroke-width="1.0"/><line x1="724.1183823529412" y1="27.0" x2="724.1183823529412" y2="563.8" stroke="#dddddd" stroke-width="1.0"/><line x1="751.1882352941176" y1="27.0" x2="751.1882352941176" y2="563.8" stroke="#dddddd" stroke-width="1.0"/><line x1="778.258088235294" y1="27.0" x2="778.258088235294" y2="563.8" stroke="#dddddd" stroke-width="1.0"/><line x1="58.2" y1="482.04410444937014" x2="794.5" y2="482.04410444937014" stroke="#dddddd" stroke-width="0.5"/><line x1="58.2" y1="350.1308212142509" x2="794.5" y2="350.1308212142509" stroke="#dddddd" stroke-width="0.5"/><line x1="58.2" y1="218.21753797913163" x2="794.5" y2="218.21753797913163" stroke="#dddddd" stroke-width="0.5"/><line x1="58.2" y1="86.30425474401255" x2="794.5" y2="86.30425474401255" stroke="#dddddd" stroke-width="0.5"/><line x1="58.2" y1="548.0007460669298" x2="794.5" y2="548.0007460669298" stroke="#dddddd" stroke-width="1.0"/><line x1="58.2" y1="416.0874628318105" x2="794.5" y2="416.0874628318105" stroke="#dddddd" stroke-width="1.0"/><line x1="58.2" y1="284.17417959669126" x2="794.5" y2="284.17417959669126" stroke="#dddddd" stroke-width="1.0"/><line x1="58.2" y1="152.26089636157212" x2="794.5" y2="152.26089636157212" stroke="#dddddd" stroke-width="1.0"/><rect x="58.2" y="27.0" width="736.3" height="536.8" fill="#ffffff" fill-opacity="0.0" stroke="#444444" stroke-width="1.0"/><line x1="74.44191176470588" y1="563.8" x2="74.44191176470588" y2="566.55" stroke="#444444" stroke-width="1.0"/><text x="74.44191176470588" y="577.55" fill="#333333" font-size="11.0" font-family="sans-serif" text-anchor="middle">0.2</text><line x1="101.51176470588234" y1="563.8" x2="101.51176470588234" y2="566.55" stroke="#444444" stroke-width="1.0"/><text x="101.51176470588234" y="577.55" fill="#333333" font-size="11.0" font-family="sans-serif" text-anchor="middle">0.3</text><line x1="128.5816176470588" y1="563.8" x2="128.5816176470588" y2="566.55" stroke="#444444" stroke-width="1.0"/><text x="128.5816176470588" y="577.55" fill="#333333" font-size="11.0" font-family="sans-serif" text-anchor="middle">0.4</text><line x1="155.6514705882353" y1="563.8" x2="155.6514705882353" y2="566.55" stroke="#444444" stroke-width="1.0"/><text x="155.6514705882353" y="577.55" fill="#333333" font-size="11.0" font-family="sans-serif" text-anchor="middle">0.5</text><line x1="182.72132352941173" y1="563.8" x2="182.72132352941173" y2="566.55" stroke="#444444" stroke-width="1.0"/><text x="182.72132352941173" y="577.55" fill="#333333" font-size="11.0" font-family="sans-serif" text-anchor="middle">0.6</text><line x1="209.7911764705882" y1="563.8" x2="209.7911764705882" y2="566.55" stroke="#444444" stroke-width="1.0"/><text x="209.7911764705882" y="577.55" fill="#333333" font-size="11.0" font-family="sans-serif" text-anchor="middle">0.7</text><line x1="236.86102941176466" y1="563.8" x2="236.86102941176466" y2="566.55" stroke="#444444" stroke-width="1.0"/><text x="236.86102941176466" y="577.55" fill="#333333" font-size="11.0" font-family="sans-serif" text-anchor="middle">0.8</text><line x1="263.9308823529411" y1="563.8" x2="263.9308823529411" y2="566.55" stroke="#444444" stroke-width="1.0"/><text x="263.9308823529411" y="577.55" fill="#333333" font-size="11.0" font-family="sans-serif" text-anchor="middle">0.9</text><line x1="291.0007352941176" y1="563.8" x2="291.0007352941176" y2="566.55" stroke="#444444" stroke-width="1.0"/><text x="291.0007352941176" y="577.55" fill="#333333" font-size="11.0" font-family="sans-serif" text-anchor="middle">1.0</text><line x1="318.07058823529405" y1="563.8" x2="318.07058823529405" y2="566.55" stroke="#444444" stroke-width="1.0"/><text x="318.07058823529405" y="577.55" fill="#333333" font-size="11.0" font-family="sans-serif" text-anchor="middle">1.1</text><line x1="345.1404411764705" y1="563.8" x2="345.1404411764705" y2="566.55" stroke="#444444" stroke-width="1.0"/><text x="345.1404411764705" y="577.55" fill="#333333" font-size="11.0" font-family="sans-serif" text-anchor="middle">1.2</text><line x1="372.210294117647" y1="563.8" x2="372.210294117647" y2="566.55" stroke="#444444" stroke-width="1.0"/><text x="372.210294117647" y="577.55" fill="#333333" font-size="11.0" font-family="sans-serif" text-anchor="middle">1.3</text><line x1="399.28014705882345" y1="563.8" x2="399.28014705882345" y2="566.55" stroke="#444444" stroke-width="1.0"/><text x="399.28014705882345" y="577.55" fill="#333333" font-size="11.0" font-family="sans-serif" text-anchor="middle">1.4</text><line x1="426.3499999999999" y1="563.8" x2="426.3499999999999" y2="566.55" stroke="#444444" stroke-width="1.0"/><text x="426.3499999999999" y="577.55" fill="#333333" font-size="11.0" font-family="sans-serif" text-anchor="middle">1.5</text><line x1="453.41985294117643" y1="563.8" x2="453.41985294117643" y2="566.55" stroke="#444444" stroke-width="1.0"/><text x="453.41985294117643" y="577.55" fill="#333333" font-size="11.0" font-family="sans-serif" text-anchor="middle">1.6</text><line x1="480.4897058823529" y1="563.8" x2="480.4897058823529" y2="566.55" stroke="#444444" stroke-width="1.0"/><text x="480.4897058823529" y="577.55" fill="#333333" font-size="11.0" font-family="sans-serif" text-anchor="middle">1.7</text><line x1="507.55955882352936" y1="563.8" x2="507.55955882352936" y2="566.55" stroke="#444444" stroke-width="1.0"/><text x="507.55955882352936" y="577.55" fill="#333333" font-size="11.0" font-family="sans-serif" text-anchor="middle">1.8</text><line x1="534.6294117647059" y1="563.8" x2="534.6294117647059" y2="566.55" stroke="#444444" stroke-width="1.0"/><text x="534.6294117647059" y="577.55" fill="#333333" font-size="11.0" font-family="sans-serif" text-anchor="middle">1.9</text><line x1="561.6992647058823" y1="563.8" x2="561.6992647058823" y2="566.55" stroke="#444444" stroke-width="1.0"/><text x="561.6992647058823" y="577.55" fill="#333333" font-size="11.0" font-family="sans-serif" text-anchor="middle">2.0</text><line x1="588.7691176470588" y1="563.8" x2="588.7691176470588" y2="566.55" stroke="#444444" stroke-width="1.0"/><text x="588.7691176470588" y="577.55" fill="#333333" font-size="11.0" font-family="sans-serif" text-anchor="middle">2.1</text><line x1="615.8389705882353" y1="563.8" x2="615.8389705882353" y2="566.55" stroke="#444444" stroke-width="1.0"/><text x="615.8389705882353" y="577.55" fill="#333333" font-size="11.0" font-family="sans-serif" text-anchor="middle">2.2</text><line x1="642.9088235294117" y1="563.8" x2="642.9088235294117" y2="566.55" stroke="#444444" stroke-width="1.0"/><text x="642.9088235294117" y="577.55" fill="#333333" font-size="11.0" font-family="sans-serif" text-anchor="middle">2.3</text><line x1="669.9786764705882" y1="563.8" x2="669.9786764705882" y2="566.55" stroke="#444444" stroke-width="1.0"/><text x="669.9786764705882" y="577.55" fill="#333333" font-size="11.0" font-family="sans-serif" text-anchor="middle">2.4</text><line x1="697.0485294117647" y1="563.8" x2="697.0485294117647" y2="566.55" stroke="#444444" stroke-width="1.0"/><text x="697.0485294117647" y="577.55" fill="#333333" font-size="11.0" font-family="sans-serif" text-anchor="middle">2.5</text><line x1="724.1183823529412" y1="563.8" x2="724.1183823529412" y2="566.55" stroke="#444444" stroke-width="1.0"/><text x="724.1183823529412" y="577.55" fill="#333333" font-size="11.0" font-family="sans-serif" text-anchor="middle">2.6</text><line x1="751.1882352941176" y1="563.8" x2="751.1882352941176" y2="566.55" stroke="#444444" stroke-width="1.0"/><text x="751.1882352941176" y="577.55" fill="#333333" font-size="11.0" font-family="sans-serif" text-anchor="middle">2.7</text><line x1="778.258088235294" y1="563.8" x2="778.258088235294" y2="566.55" stroke="#444444" stroke-width="1.0"/><text x="778.258088235294" y="577.55" fill="#333333" font-size="11.0" font-family="sans-serif" text-anchor="middle">2.8</text><line x1="58.2" y1="548.0007460669298" x2="55.45" y2="548.0007460669298" stroke="#444444" stroke-width="1.0"/><text x="53.25" y="551.8507460669298" fill="#333333" font-size="11.0" font-family="sans-serif" text-anchor="end">0</text><line x1="58.2" y1="416.0874628318105" x2="55.45" y2="416.0874628318105" stroke="#444444" stroke-width="1.0"/><text x="53.25" y="419.93746283181054" fill="#333333" font-size="11.0" font-family="sans-serif" text-anchor="end">5000</text><line x1="58.2" y1="284.17417959669126" x2="55.45" y2="284.17417959669126" stroke="#444444" stroke-width="1.0"/><text x="53.25" y="288.0241795966913" fill="#333333" font-size="11.0" font-family="sans-serif" text-anchor="end">10000</text><line x1="58.2" y1="152.26089636157212" x2="55.45" y2="152.26089636157212" stroke="#444444" stroke-width="1.0"/><text x="53.25" y="156.11089636157212" fill="#333333" font-size="11.0" font-family="sans-serif" text-anchor="end">15000</text><text x="426.34999999999997" y="18.3" fill="#333333" font-size="16.0" font-family="sans-serif" text-anchor="middle">cut_width(carat, 0.1) 別 price の箱ひげ図</text><text x="426.34999999999997" y="592.1" fill="#333333" font-size="12.0" font-family="sans-serif" text-anchor="middle">carat (0.1 刻み)</text><text x="13.899999999999999" y="295.4" fill="#333333" font-size="12.0" font-family="sans-serif" text-anchor="middle" transform="rotate(-90.0 13.899999999999999 295.4)">price</text><rect x="67.67444852941176" y="533.4375195977726" width="13.534926470588232" height="3.060388171054683" fill="#1f77b4" fill-opacity="0.4" stroke="#1f77b4" stroke-width="1.0"/><line x1="67.67444852941176" y1="534.7038871168297" x2="81.209375" y2="534.7038871168297" stroke="#1f77b4" stroke-width="2.0"/><line x1="74.44191176470588" y1="536.4979077688273" x2="74.44191176470588" y2="539.4" stroke="#1f77b4" stroke-width="1.0"/><line x1="74.44191176470588" y1="533.4375195977726" x2="74.44191176470588" y2="529.2690598475428" stroke="#1f77b4" stroke-width="1.0"/><line x1="71.05818014705882" y1="539.4" x2="77.82564338235294" y2="539.4" stroke="#1f77b4" stroke-width="1.0"/><line x1="71.05818014705882" y1="529.2690598475428" x2="77.82564338235294" y2="529.2690598475428" stroke="#1f77b4" stroke-width="1.0"/><rect x="94.74430147058823" y="526.1295237065469" width="13.534926470588232" height="6.8067254149322025" fill="#1f77b4" fill-opacity="0.4" stroke="#1f77b4" stroke-width="1.0"/><line x1="94.74430147058823" y1="529.5856517273071" x2="108.27922794117646" y2="529.5856517273071" stroke="#1f77b4" stroke-width="2.0"/><line x1="101.51176470588234" y1="532.9362491214791" x2="101.51176470588234" y2="539.1889387468237" stroke="#1f77b4" stroke-width="1.0"/><line x1="101.51176470588234" y1="526.1295237065469" x2="101.51176470588234" y2="515.9722008974428" stroke="#1f77b4" stroke-width="1.0"/><line x1="98.12803308823528" y1="539.1889387468237" x2="104.8954963235294" y2="539.1889387468237" stroke="#1f77b4" stroke-width="1.0"/><line x1="98.12803308823528" y1="515.9722008974428" x2="104.8954963235294" y2="515.9722008974428" stroke="#1f77b4" stroke-width="1.0"/><rect x="121.81415441176469" y="519.6130075147321" width="13.534926470588232" height="8.073092933989301" fill="#1f77b4" fill-opacity="0.4" stroke="#1f77b4" stroke-width="1.0"/><line x1="121.81415441176469" y1="523.6231713250797" x2="135.34908088235292" y2="523.6231713250797" stroke="#1f77b4" stroke-width="2.0"/><line x1="128.5816176470588" y1="527.6861004487214" x2="128.5816176470588" y2="537.1838568416499" stroke="#1f77b4" stroke-width="1.0"/><line x1="128.5816176470588" y1="519.6130075147321" x2="128.5816176470588" y2="509.85142455533327" stroke="#1f77b4" stroke-width="1.0"/><line x1="125.19788602941175" y1="537.1838568416499" x2="131.96534926470588" y2="537.1838568416499" stroke="#1f77b4" stroke-width="1.0"/><line x1="125.19788602941175" y1="509.85142455533327" x2="131.96534926470588" y2="509.85142455533327" stroke="#1f77b4" stroke-width="1.0"/><rect x="148.88400735294118" y="500.11622425258145" width="13.534926470588232" height="13.956425366275653" fill="#1f77b4" fill-opacity="0.4" stroke="#1f77b4" stroke-width="1.0"/><line x1="148.88400735294118" y1="505.44552089528025" x2="162.41893382352941" y2="505.44552089528025" stroke="#1f77b4" stroke-width="2.0"/><line x1="155.6514705882353" y1="514.0726496188571" x2="155.6514705882353" y2="532.5932745850678" stroke="#1f77b4" stroke-width="1.0"/><line x1="155.6514705882353" y1="500.11622425258145" x2="155.6514705882353" y2="479.1947775314915" stroke="#1f77b4" stroke-width="1.0"/><line x1="152.26773897058825" y1="532.5932745850678" x2="159.03520220588234" y2="532.5932745850678" stroke="#1f77b4" stroke-width="1.0"/><line x1="152.26773897058825" y1="479.1947775314915" x2="159.03520220588234" y2="479.1947775314915" stroke="#1f77b4" stroke-width="1.0"/><rect x="175.95386029411762" y="492.6235497648267" width="13.534926470588232" height="13.982808022922598" fill="#1f77b4" fill-opacity="0.4" stroke="#1f77b4" stroke-width="1.0"/><line x1="175.95386029411762" y1="500.155798237552" x2="189.48878676470585" y2="500.155798237552" stroke="#1f77b4" stroke-width="2.0"/><line x1="182.72132352941173" y1="506.6063577877493" x2="182.72132352941173" y2="526.7363248094285" stroke="#1f77b4" stroke-width="1.0"/><line x1="182.72132352941173" y1="492.6235497648267" x2="182.72132352941173" y2="472.0450775801481" stroke="#1f77b4" stroke-width="1.0"/><line x1="179.33759191176466" y1="526.7363248094285" x2="186.1050551470588" y2="526.7363248094285" stroke="#1f77b4" stroke-width="1.0"/><line x1="179.33759191176466" y1="472.0450775801481" x2="186.1050551470588" y2="472.0450775801481" stroke="#1f77b4" stroke-width="1.0"/><rect x="203.02371323529408" y="470.67317943450286" width="13.534926470588232" height="17.867654214196875" fill="#1f77b4" fill-opacity="0.4" stroke="#1f77b4" stroke-width="1.0"/><line x1="203.02371323529408" y1="480.7249716170189" x2="216.5586397058823" y2="480.7249716170189" stroke="#1f77b4" stroke-width="2.0"/><line x1="209.7911764705882" y1="488.54083364869973" x2="209.7911764705882" y2="515.1807211980321" stroke="#1f77b4" stroke-width="1.0"/><line x1="209.7911764705882" y1="470.67317943450286" x2="209.7911764705882" y2="444.1322268475968" stroke="#1f77b4" stroke-width="1.0"/><line x1="206.40744485294113" y1="515.1807211980321" x2="213.17490808823527" y2="515.1807211980321" stroke="#1f77b4" stroke-width="1.0"/><line x1="206.40744485294113" y1="444.1322268475968" x2="213.17490808823527" y2="444.1322268475968" stroke="#1f77b4" stroke-width="1.0"/><rect x="230.09356617647055" y="459.50012434448826" width="13.534926470588232" height="21.224847272530667" fill="#1f77b4" fill-opacity="0.4" stroke="#1f77b4" stroke-width="1.0"/><line x1="230.09356617647055" y1="471.0953019408552" x2="243.62849264705878" y2="471.0953019408552" stroke="#1f77b4" stroke-width="2.0"/><line x1="236.86102941176466" y1="480.7249716170189" x2="236.86102941176466" y2="512.3841595934475" stroke="#1f77b4" stroke-width="1.0"/><line x1="236.86102941176466" y1="459.50012434448826" x2="236.86102941176466" y2="428.4873114559117" stroke="#1f77b4" stroke-width="1.0"/><line x1="233.4772977941176" y1="512.3841595934475" x2="240.24476102941173" y2="512.3841595934475" stroke="#1f77b4" stroke-width="1.0"/><line x1="233.4772977941176" y1="428.4873114559117" x2="240.24476102941173" y2="428.4873114559117" stroke="#1f77b4" stroke-width="1.0"/><rect x="257.163419117647" y="433.10427636914085" width="13.534926470588232" height="24.549062010055763" fill="#1f77b4" fill-opacity="0.4" stroke="#1f77b4" stroke-width="1.0"/><line x1="257.163419117647" y1="445.1875331134778" x2="270.69834558823527" y2="445.1875331134778" stroke="#1f77b4" stroke-width="2.0"/><line x1="263.9308823529411" y1="457.6533383791966" x2="263.9308823529411" y2="493.9690652538249" stroke="#1f77b4" stroke-width="1.0"/><line x1="263.9308823529411" y1="433.10427636914085" x2="263.9308823529411" y2="396.748975509542" stroke="#1f77b4" stroke-width="1.0"/><line x1="260.54715073529405" y1="493.9690652538249" x2="267.3146139705882" y2="493.9690652538249" stroke="#1f77b4" stroke-width="1.0"/><line x1="260.54715073529405" y1="396.748975509542" x2="267.3146139705882" y2="396.748975509542" stroke="#1f77b4" stroke-width="1.0"/><rect x="284.23327205882345" y="382.0538357571497" width="13.534926470588232" height="53.00275720387094" fill="#1f77b4" fill-opacity="0.4" stroke="#1f77b4" stroke-width="1.0"/><line x1="284.23327205882345" y1="416.0874628318105" x2="297.76819852941173" y2="416.0874628318105" stroke="#1f77b4" stroke-width="2.0"/><line x1="291.0007352941176" y1="435.05659296102067" x2="291.0007352941176" y2="507.18677623398384" stroke="#1f77b4" stroke-width="1.0"/><line x1="291.0007352941176" y1="382.0538357571497" x2="291.0007352941176" y2="302.8003351894901" stroke="#1f77b4" stroke-width="1.0"/><line x1="287.6170036764705" y1="507.18677623398384" x2="294.38446691176466" y2="507.18677623398384" stroke="#1f77b4" stroke-width="1.0"/><line x1="287.6170036764705" y1="302.8003351894901" x2="294.38446691176466" y2="302.8003351894901" stroke="#1f77b4" stroke-width="1.0"/><rect x="311.3031249999999" y="364.81276963831965" width="13.534926470588232" height="60.8252148997135" fill="#1f77b4" fill-opacity="0.4" stroke="#1f77b4" stroke-width="1.0"/><line x1="311.3031249999999" y1="407.1701248851165" x2="324.8380514705882" y2="407.1701248851165" stroke="#1f77b4" stroke-width="2.0"/><line x1="318.07058823529405" y1="425.63798453803315" x2="318.07058823529405" y2="493.1248202411201" stroke="#1f77b4" stroke-width="1.0"/><line x1="318.07058823529405" y1="364.81276963831965" x2="318.07058823529405" y2="273.72664756446983" stroke="#1f77b4" stroke-width="1.0"/><line x1="314.686856617647" y1="493.1248202411201" x2="321.4543198529411" y2="493.1248202411201" stroke="#1f77b4" stroke-width="1.0"/><line x1="314.686856617647" y1="273.72664756446983" x2="321.4543198529411" y2="273.72664756446983" stroke="#1f77b4" stroke-width="1.0"/><rect x="338.3729779411764" y="334.35399253933065" width="13.534926470588232" height="74.95312753419472" fill="#1f77b4" fill-opacity="0.4" stroke="#1f77b4" stroke-width="1.0"/><line x1="338.3729779411764" y1="384.4546575120289" x2="351.90790441176466" y2="384.4546575120289" stroke="#1f77b4" stroke-width="2.0"/><line x1="345.1404411764705" y1="409.30712007352537" x2="345.1404411764705" y2="486.37086013948203" stroke="#1f77b4" stroke-width="1.0"/><line x1="345.1404411764705" y1="334.35399253933065" x2="345.1404411764705" y2="223.12471211547808" stroke="#1f77b4" stroke-width="1.0"/><line x1="341.75670955882345" y1="486.37086013948203" x2="348.5241727941176" y2="486.37086013948203" stroke="#1f77b4" stroke-width="1.0"/><line x1="341.75670955882345" y1="223.12471211547808" x2="348.5241727941176" y2="223.12471211547808" stroke="#1f77b4" stroke-width="1.0"/><rect x="365.44283088235284" y="312.4959615072714" width="13.534926470588232" height="82.67665026761097" fill="#1f77b4" fill-opacity="0.4" stroke="#1f77b4" stroke-width="1.0"/><line x1="365.44283088235284" y1="368.8493161053143" x2="378.9777573529411" y2="368.8493161053143" stroke="#1f77b4" stroke-width="2.0"/><line x1="372.210294117647" y1="395.17261177488234" x2="372.210294117647" y2="481.72751256960584" stroke="#1f77b4" stroke-width="1.0"/><line x1="372.210294117647" y1="312.4959615072714" x2="372.210294117647" y2="191.04340163269717" stroke="#1f77b4" stroke-width="1.0"/><line x1="368.8265624999999" y1="481.72751256960584" x2="375.59402573529405" y2="481.72751256960584" stroke="#1f77b4" stroke-width="1.0"/><line x1="368.8265624999999" y1="191.04340163269717" x2="375.59402573529405" y2="191.04340163269717" stroke="#1f77b4" stroke-width="1.0"/><rect x="392.5126838235293" y="274.20153538411626" width="13.534926470588232" height="103.47937503378932" fill="#1f77b4" fill-opacity="0.4" stroke="#1f77b4" stroke-width="1.0"/><line x1="392.5126838235293" y1="339.4326539438827" x2="406.0476102941176" y2="339.4326539438827" stroke="#1f77b4" stroke-width="2.0"/><line x1="399.28014705882345" y1="377.6809104179056" x2="399.28014705882345" y2="444.7390279504784" stroke="#1f77b4" stroke-width="1.0"/><line x1="399.28014705882345" y1="274.20153538411626" x2="399.28014705882345" y2="126.722484727253" stroke="#1f77b4" stroke-width="1.0"/><line x1="395.8964154411764" y1="444.7390279504784" x2="402.6638786764705" y2="444.7390279504784" stroke="#1f77b4" stroke-width="1.0"/><line x1="395.8964154411764" y1="126.722484727253" x2="402.6638786764705" y2="126.722484727253" stroke="#1f77b4" stroke-width="1.0"/><rect x="419.58253676470576" y="221.6604746715683" width="13.534926470588232" height="108.89441531059094" fill="#1f77b4" fill-opacity="0.4" stroke="#1f77b4" stroke-width="1.0"/><line x1="419.58253676470576" y1="283.65971779207433" x2="433.11746323529405" y2="283.65971779207433" stroke="#1f77b4" stroke-width="2.0"/><line x1="426.3499999999999" y1="330.55488998215924" x2="426.3499999999999" y2="469.80255176515107" stroke="#1f77b4" stroke-width="1.0"/><line x1="426.3499999999999" y1="221.6604746715683" x2="426.3499999999999" y2="58.54969995134343" stroke="#1f77b4" stroke-width="1.0"/><line x1="422.96626838235284" y1="469.80255176515107" x2="429.733731617647" y2="469.80255176515107" stroke="#1f77b4" stroke-width="1.0"/><line x1="422.96626838235284" y1="58.54969995134343" x2="429.733731617647" y2="58.54969995134343" stroke="#1f77b4" stroke-width="1.0"/><rect x="446.65238970588234" y="220.4600637941287" width="13.534926470588232" height="93.50673082121426" fill="#1f77b4" fill-opacity="0.4" stroke="#1f77b4" stroke-width="1.0"/><line x1="446.65238970588234" y1="269.7692490674163" x2="460.1873161764705" y2="269.7692490674163" stroke="#1f77b4" stroke-width="2.0"/><line x1="453.41985294117643" y1="313.96679461534296" x2="453.41985294117643" y2="430.3604800778504" stroke="#1f77b4" stroke-width="1.0"/><line x1="453.41985294117643" y1="220.4600637941287" x2="453.41985294117643" y2="80.26262637184408" stroke="#1f77b4" stroke-width="1.0"/><line x1="450.03612132352936" y1="430.3604800778504" x2="456.8035845588235" y2="430.3604800778504" stroke="#1f77b4" stroke-width="1.0"/><line x1="450.03612132352936" y1="80.26262637184408" x2="456.8035845588235" y2="80.26262637184408" stroke="#1f77b4" stroke-width="1.0"/><rect x="473.7222426470588" y="173.6308482456614" width="13.534926470588232" height="113.70925014867271" fill="#1f77b4" fill-opacity="0.4" stroke="#1f77b4" stroke-width="1.0"/><line x1="473.7222426470588" y1="236.26327512569594" x2="487.257169117647" y2="236.26327512569594" stroke="#1f77b4" stroke-width="2.0"/><line x1="480.4897058823529" y1="287.3400983943341" x2="480.4897058823529" y2="424.6090609287992" stroke="#1f77b4" stroke-width="1.0"/><line x1="480.4897058823529" y1="173.6308482456614" x2="480.4897058823529" y2="52.24424501270471" stroke="#1f77b4" stroke-width="1.0"/><line x1="477.1059742647058" y1="424.6090609287992" x2="483.87343749999997" y2="424.6090609287992" stroke="#1f77b4" stroke-width="1.0"/><line x1="477.1059742647058" y1="52.24424501270471" x2="483.87343749999997" y2="52.24424501270471" stroke="#1f77b4" stroke-width="1.0"/><rect x="500.79209558823527" y="165.26095042439312" width="13.534926470588232" height="116.48602476077201" fill="#1f77b4" fill-opacity="0.4" stroke="#1f77b4" stroke-width="1.0"/><line x1="500.79209558823527" y1="223.54683462183044" x2="514.3270220588234" y2="223.54683462183044" stroke="#1f77b4" stroke-width="2.0"/><line x1="507.55955882352936" y1="281.7469751851651" x2="507.55955882352936" y2="413.89770233010756" stroke="#1f77b4" stroke-width="1.0"/><line x1="507.55955882352936" y1="165.26095042439312" x2="507.55955882352936" y2="59.26203168081304" stroke="#1f77b4" stroke-width="1.0"/><line x1="504.1758272058823" y1="413.89770233010756" x2="510.94329044117643" y2="413.89770233010756" stroke="#1f77b4" stroke-width="1.0"/><line x1="504.1758272058823" y1="59.26203168081304" x2="510.94329044117643" y2="59.26203168081304" stroke="#1f77b4" stroke-width="1.0"/><rect x="527.8619485294117" y="143.46887603395135" width="13.534926470588232" height="119.07812077634213" fill="#1f77b4" fill-opacity="0.4" stroke="#1f77b4" stroke-width="1.0"/><line x1="527.8619485294117" y1="211.46357787749355" x2="541.396875" y2="211.46357787749355" stroke="#1f77b4" stroke-width="2.0"/><line x1="534.6294117647059" y1="262.5469968102935" x2="534.6294117647059" y2="373.0309671838676" stroke="#1f77b4" stroke-width="1.0"/><line x1="534.6294117647059" y1="143.46887603395135" x2="534.6294117647059" y2="53.72167378493805" stroke="#1f77b4" stroke-width="1.0"/><line x1="531.2456801470588" y1="373.0309671838676" x2="538.013143382353" y2="373.0309671838676" stroke="#1f77b4" stroke-width="1.0"/><line x1="531.2456801470588" y1="53.72167378493805" x2="538.013143382353" y2="53.72167378493805" stroke="#1f77b4" stroke-width="1.0"/><rect x="554.9318014705882" y="104.42913986051786" width="13.534926470588232" height="108.0699572903714" fill="#1f77b4" fill-opacity="0.4" stroke="#1f77b4" stroke-width="1.0"/><line x1="554.9318014705882" y1="150.53283235119198" x2="568.4667279411765" y2="150.53283235119198" stroke="#1f77b4" stroke-width="2.0"/><line x1="561.6992647058823" y1="212.49909715088927" x2="561.6992647058823" y2="374.08627344974855" stroke="#1f77b4" stroke-width="1.0"/><line x1="561.6992647058823" y1="104.42913986051786" x2="561.6992647058823" y2="51.5319132832351" stroke="#1f77b4" stroke-width="1.0"/><line x1="558.3155330882353" y1="374.08627344974855" x2="565.0829963235294" y2="374.08627344974855" stroke="#1f77b4" stroke-width="1.0"/><line x1="558.3155330882353" y1="51.5319132832351" x2="565.0829963235294" y2="51.5319132832351" stroke="#1f77b4" stroke-width="1.0"/><rect x="582.0016544117647" y="103.74319078769526" width="13.534926470588232" height="95.76904362869652" fill="#1f77b4" fill-opacity="0.4" stroke="#1f77b4" stroke-width="1.0"/><line x1="582.0016544117647" y1="151.04729415580897" x2="595.536580882353" y2="151.04729415580897" stroke="#1f77b4" stroke-width="2.0"/><line x1="588.7691176470588" y1="199.51223441639178" x2="588.7691176470588" y2="341.3190138941449" stroke="#1f77b4" stroke-width="1.0"/><line x1="588.7691176470588" y1="103.74319078769526" x2="588.7691176470588" y2="51.90127047629346" stroke="#1f77b4" stroke-width="1.0"/><line x1="585.3853860294117" y1="341.3190138941449" x2="592.1528492647059" y2="341.3190138941449" stroke="#1f77b4" stroke-width="1.0"/><line x1="585.3853860294117" y1="51.90127047629346" x2="592.1528492647059" y2="51.90127047629346" stroke="#1f77b4" stroke-width="1.0"/><rect x="609.0715073529411" y="95.72286316700001" width="13.534926470588232" height="90.75633886576202" fill="#1f77b4" fill-opacity="0.4" stroke="#1f77b4" stroke-width="1.0"/><line x1="609.0715073529411" y1="142.36740011893812" x2="622.6064338235294" y2="142.36740011893812" stroke="#1f77b4" stroke-width="2.0"/><line x1="615.8389705882353" y1="186.47920203276203" x2="615.8389705882353" y2="318.23418932799905" stroke="#1f77b4" stroke-width="1.0"/><line x1="615.8389705882353" y1="95.72286316700001" x2="615.8389705882353" y2="54.19656160458453" stroke="#1f77b4" stroke-width="1.0"/><line x1="612.4552389705882" y1="318.23418932799905" x2="619.2227022058823" y2="318.23418932799905" stroke="#1f77b4" stroke-width="1.0"/><line x1="612.4552389705882" y1="54.19656160458453" x2="619.2227022058823" y2="54.19656160458453" stroke="#1f77b4" stroke-width="1.0"/><rect x="636.1413602941176" y="93.1241714872682" width="13.534926470588232" height="93.71779207439039" fill="#1f77b4" fill-opacity="0.4" stroke="#1f77b4" stroke-width="1.0"/><line x1="636.1413602941176" y1="138.5551062334432" x2="649.6762867647059" y2="138.5551062334432" stroke="#1f77b4" stroke-width="2.0"/><line x1="642.9088235294117" y1="186.8419635616586" x2="642.9088235294117" y2="323.9856084770503" stroke="#1f77b4" stroke-width="1.0"/><line x1="642.9088235294117" y1="93.1241714872682" x2="642.9088235294117" y2="51.39999999999998" stroke="#1f77b4" stroke-width="1.0"/><line x1="639.5250919117647" y1="323.9856084770503" x2="646.2925551470588" y2="323.9856084770503" stroke="#1f77b4" stroke-width="1.0"/><line x1="639.5250919117647" y1="51.39999999999998" x2="646.2925551470588" y2="51.39999999999998" stroke="#1f77b4" stroke-width="1.0"/><rect x="663.211213235294" y="84.00236795155968" width="13.534926470588232" height="62.54668324593172" fill="#1f77b4" fill-opacity="0.4" stroke="#1f77b4" stroke-width="1.0"/><line x1="663.211213235294" y1="108.3337730442774" x2="676.7461397058823" y2="108.3337730442774" stroke="#1f77b4" stroke-width="2.0"/><line x1="669.9786764705882" y1="146.5490511974914" x2="669.9786764705882" y2="235.89391793263763" stroke="#1f77b4" stroke-width="1.0"/><line x1="669.9786764705882" y1="84.00236795155968" x2="669.9786764705882" y2="53.45784721846786" stroke="#1f77b4" stroke-width="1.0"/><line x1="666.5949448529411" y1="235.89391793263763" x2="673.3624080882353" y2="235.89391793263763" stroke="#1f77b4" stroke-width="1.0"/><line x1="666.5949448529411" y1="53.45784721846786" x2="673.3624080882353" y2="53.45784721846786" stroke="#1f77b4" stroke-width="1.0"/><rect x="690.2810661764705" y="85.723836297778" width="13.534926470588232" height="78.59393415148395" fill="#1f77b4" fill-opacity="0.4" stroke="#1f77b4" stroke-width="1.0"/><line x1="690.2810661764705" y1="116.56516191814887" x2="703.8159926470588" y2="116.56516191814887" stroke="#1f77b4" stroke-width="2.0"/><line x1="697.0485294117647" y1="164.31777044926196" x2="697.0485294117647" y2="282.1690976915175" stroke="#1f77b4" stroke-width="1.0"/><line x1="697.0485294117647" y1="85.723836297778" x2="697.0485294117647" y2="52.90381142888032" stroke="#1f77b4" stroke-width="1.0"/><line x1="693.6647977941176" y1="282.1690976915175" x2="700.4322610294117" y2="282.1690976915175" stroke="#1f77b4" stroke-width="1.0"/><line x1="693.6647977941176" y1="52.90381142888032" x2="700.4322610294117" y2="52.90381142888032" stroke="#1f77b4" stroke-width="1.0"/><rect x="717.3509191176471" y="88.75784181218569" width="13.534926470588232" height="57.40866086392384" fill="#1f77b4" fill-opacity="0.4" stroke="#1f77b4" stroke-width="1.0"/><line x1="717.3509191176471" y1="98.78325133805475" x2="730.8858455882354" y2="98.78325133805475" stroke="#1f77b4" stroke-width="2.0"/><line x1="724.1183823529412" y1="146.16650267610953" x2="724.1183823529412" y2="218.21753797913163" stroke="#1f77b4" stroke-width="1.0"/><line x1="724.1183823529412" y1="88.75784181218569" x2="724.1183823529412" y2="53.16763799535056" stroke="#1f77b4" stroke-width="1.0"/><line x1="720.7346507352942" y1="218.21753797913163" x2="727.5021139705883" y2="218.21753797913163" stroke="#1f77b4" stroke-width="1.0"/><line x1="720.7346507352942" y1="53.16763799535056" x2="727.5021139705883" y2="53.16763799535056" stroke="#1f77b4" stroke-width="1.0"/><rect x="744.4207720588234" y="94.77308752770716" width="13.534926470588232" height="185.51624587770988" fill="#1f77b4" fill-opacity="0.4" stroke="#1f77b4" stroke-width="1.0"/><line x1="744.4207720588234" y1="119.57278477590961" x2="757.9556985294117" y2="119.57278477590961" stroke="#1f77b4" stroke-width="2.0"/><line x1="751.1882352941176" y1="280.28933340541704" x2="751.1882352941176" y2="366.7518949018759" stroke="#1f77b4" stroke-width="1.0"/><line x1="751.1882352941176" y1="94.77308752770716" x2="751.1882352941176" y2="55.014423960642205" stroke="#1f77b4" stroke-width="1.0"/><line x1="747.8045036764705" y1="366.7518949018759" x2="754.5719669117647" y2="366.7518949018759" stroke="#1f77b4" stroke-width="1.0"/><line x1="747.8045036764705" y1="55.014423960642205" x2="754.5719669117647" y2="55.014423960642205" stroke="#1f77b4" stroke-width="1.0"/><rect x="771.4906249999999" y="141.3120938530572" width="13.534926470588232" height="59.59842136562679" fill="#1f77b4" fill-opacity="0.4" stroke="#1f77b4" stroke-width="1.0"/><line x1="771.4906249999999" y1="151.46941666216134" x2="785.0255514705882" y2="151.46941666216134" stroke="#1f77b4" stroke-width="2.0"/><line x1="778.258088235294" y1="200.910515218684" x2="778.258088235294" y2="272.9879331783532" stroke="#1f77b4" stroke-width="1.0"/><line x1="778.258088235294" y1="141.3120938530572" x2="778.258088235294" y2="52.32339298264583" stroke="#1f77b4" stroke-width="1.0"/><line x1="774.874356617647" y1="272.9879331783532" x2="781.6418198529411" y2="272.9879331783532" stroke="#1f77b4" stroke-width="1.0"/><line x1="774.874356617647" y1="52.32339298264583" x2="781.6418198529411" y2="52.32339298264583" stroke="#1f77b4" stroke-width="1.0"/></svg>