<svg xmlns="http://www.w3.org/2000/svg" width="800" height="600" viewBox="0 0 800 600"><rect x="0.0" y="0.0" width="800.0" height="600.0" fill="#ffffff" fill-opacity="1.0" stroke="none"/><line x1="131.48076923076923" y1="27.0" x2="131.48076923076923" y2="563.8" stroke="#dddddd" stroke-width="1.0"/><line x1="275.61538461538464" y1="27.0" x2="275.61538461538464" y2="563.8" stroke="#dddddd" stroke-width="1.0"/><line x1="419.75000000000006" y1="27.0" x2="419.75000000000006" y2="563.8" stroke="#dddddd" stroke-width="1.0"/><line x1="563.8846153846155" y1="27.0" x2="563.8846153846155" y2="563.8" stroke="#dddddd" stroke-width="1.0"/><line x1="708.0192307692308" y1="27.0" x2="708.0192307692308" y2="563.8" stroke="#dddddd" stroke-width="1.0"/><line x1="45.0" y1="541.7191999571513" x2="794.5" y2="541.7191999571513" stroke="#dddddd" stroke-width="0.5"/><line x1="45.0" y1="381.5702854462762" x2="794.5" y2="381.5702854462762" stroke="#dddddd" stroke-width="0.5"/><line x1="45.0" y1="221.42137093540106" x2="794.5" y2="221.42137093540106" stroke="#dddddd" stroke-width="0.5"/><line x1="45.0" y1="61.2724564245259" x2="794.5" y2="61.2724564245259" stroke="#dddddd" stroke-width="0.5"/><line x1="45.0" y1="461.64474270171377" x2="794.5" y2="461.64474270171377" stroke="#dddddd" stroke-width="1.0"/><line x1="45.0" y1="301.4958281908386" x2="794.5" y2="301.4958281908386" stroke="#dddddd" stroke-width="1.0"/><line x1="45.0" y1="141.3469136799635" x2="794.5" y2="141.3469136799635" stroke="#dddddd" stroke-width="1.0"/><rect x="45.0" y="27.0" width="749.5" height="536.8" fill="#ffffff" fill-opacity="0.0" stroke="#444444" stroke-width="1.0"/><line x1="131.48076923076923" y1="563.8" x2="131.48076923076923" y2="566.55" stroke="#444444" stroke-width="1.0"/><text x="131.48076923076923" y="577.55" fill="#333333" font-size="11.0" font-family="sans-serif" text-anchor="middle">Fair</text><line x1="275.61538461538464" y1="563.8" x2="275.61538461538464" y2="566.55" stroke="#444444" stroke-width="1.0"/><text x="275.61538461538464" y="577.55" fill="#333333" font-size="11.0" font-family="sans-serif" text-anchor="middle">Good</text><line x1="419.75000000000006" y1="563.8" x2="419.75000000000006" y2="566.55" stroke="#444444" stroke-width="1.0"/><text x="419.75000000000006" y="577.55" fill="#333333" font-size="11.0" font-family="sans-serif" text-anchor="middle">Very Good</text><line x1="563.8846153846155" y1="563.8" x2="563.8846153846155" y2="566.55" stroke="#444444" stroke-width="1.0"/><text x="563.8846153846155" y="577.55" fill="#333333" font-size="11.0" font-family="sans-serif" text-anchor="middle">Premium</text><line x1="708.0192307692308" y1="563.8" x2="708.0192307692308" y2="566.55" stroke="#444444" stroke-width="1.0"/><text x="708.0192307692308" y="577.55" fill="#333333" font-size="11.0" font-family="sans-serif" text-anchor="middle">Ideal</text><line x1="45.0" y1="461.64474270171377" x2="42.25" y2="461.64474270171377" stroke="#444444" stroke-width="1.0"/><text x="40.05" y="465.4947427017138" fill="#333333" font-size="11.0" font-family="sans-serif" text-anchor="end">0.5</text><line x1="45.0" y1="301.4958281908386" x2="42.25" y2="301.4958281908386" stroke="#444444" stroke-width="1.0"/><text x="40.05" y="305.34582819083863" fill="#333333" font-size="11.0" font-family="sans-serif" text-anchor="end">1</text><line x1="45.0" y1="141.3469136799635" x2="42.25" y2="141.3469136799635" stroke="#444444" stroke-width="1.0"/><text x="40.05" y="145.1969136799635" fill="#333333" font-size="11.0" font-family="sans-serif" text-anchor="end">1.5</text><text x="419.75" y="18.3" fill="#333333" font-size="16.0" font-family="sans-serif" text-anchor="middle">cut 別 残差の箱ひげ図</text><text x="419.75" y="592.1" fill="#333333" font-size="12.0" font-family="sans-serif" text-anchor="middle">cut</text><text x="13.899999999999999" y="295.4" fill="#333333" font-size="12.0" font-family="sans-serif" text-anchor="middle" transform="rotate(-90.0 13.899999999999999 295.4)">resid</text><rect x="95.44711538461537" y="319.398849941993" width="72.06730769230771" height="90.2454742721182" fill="#1f77b4" fill-opacity="0.4" stroke="#1f77b4" stroke-width="1.0"/><line x1="95.44711538461537" y1="365.9415125829325" x2="167.5144230769231" y2="365.9415125829325" stroke="#1f77b4" stroke-width="2.0"/><line x1="131.48076923076923" y1="409.6443242141112" x2="131.48076923076923" y2="539.4" stroke="#1f77b4" stroke-width="1.0"/><line x1="131.48076923076923" y1="319.398849941993" x2="131.48076923076923" y2="184.49454127924804" stroke="#1f77b4" stroke-width="1.0"/><line x1="113.46394230769229" y1="539.4" x2="149.49759615384616" y2="539.4" stroke="#1f77b4" stroke-width="1.0"/><line x1="113.46394230769229" y1="184.49454127924804" x2="149.49759615384616" y2="184.49454127924804" stroke="#1f77b4" stroke-width="1.0"/><rect x="239.58173076923077" y="280.5159363056475" width="72.06730769230771" height="90.112608638008" fill="#1f77b4" fill-opacity="0.4" stroke="#1f77b4" stroke-width="1.0"/><line x1="239.58173076923077" y1="331.88152388323" x2="311.6490384615385" y2="331.88152388323" stroke="#1f77b4" stroke-width="2.0"/><line x1="275.61538461538464" y1="370.62854494365547" x2="275.61538461538464" y2="503.5632297818977" stroke="#1f77b4" stroke-width="1.0"/><line x1="275.61538461538464" y1="280.5159363056475" x2="275.61538461538464" y2="145.52871670747913" stroke="#1f77b4" stroke-width="1.0"/><line x1="257.59855769230774" y1="503.5632297818977" x2="293.63221153846155" y2="503.5632297818977" stroke="#1f77b4" stroke-width="1.0"/><line x1="257.59855769230774" y1="145.52871670747913" x2="293.63221153846155" y2="145.52871670747913" stroke="#1f77b4" stroke-width="1.0"/><rect x="383.7163461538462" y="255.2763135405898" width="72.06730769230771" height="98.9709930127089" fill="#1f77b4" fill-opacity="0.4" stroke="#1f77b4" stroke-width="1.0"/><line x1="383.7163461538462" y1="310.3667198172468" x2="455.7836538461539" y2="310.3667198172468" stroke="#1f77b4" stroke-width="2.0"/><line x1="419.75000000000006" y1="354.2473065532987" x2="419.75000000000006" y2="496.44425202658056" stroke="#1f77b4" stroke-width="1.0"/><line x1="419.75000000000006" y1="255.2763135405898" x2="419.75000000000006" y2="106.86627389903651" stroke="#1f77b4" stroke-width="1.0"/><line x1="401.73317307692315" y1="496.44425202658056" x2="437.76682692307696" y2="496.44425202658056" stroke="#1f77b4" stroke-width="1.0"/><line x1="401.73317307692315" y1="106.86627389903651" x2="437.76682692307696" y2="106.86627389903651" stroke="#1f77b4" stroke-width="1.0"/><rect x="527.8509615384617" y="255.35640652167496" width="72.06730769230771" height="98.54095903487172" fill="#1f77b4" fill-opacity="0.4" stroke="#1f77b4" stroke-width="1.0"/><line x1="527.8509615384617" y1="308.68657853248294" x2="599.9182692307693" y2="308.68657853248294" stroke="#1f77b4" stroke-width="2.0"/><line x1="563.8846153846155" y1="353.8973655565467" x2="563.8846153846155" y2="501.58106481690754" stroke="#1f77b4" stroke-width="1.0"/><line x1="563.8846153846155" y1="255.35640652167496" x2="563.8846153846155" y2="107.8301881038239" stroke="#1f77b4" stroke-width="1.0"/><line x1="545.8677884615386" y1="501.58106481690754" x2="581.9014423076924" y2="501.58106481690754" stroke="#1f77b4" stroke-width="1.0"/><line x1="545.8677884615386" y1="107.8301881038239" x2="581.9014423076924" y2="107.8301881038239" stroke="#1f77b4" stroke-width="1.0"/><rect x="671.985576923077" y="221.42697223655904" width="72.06730769230771" height="113.40306210900172" fill="#1f77b4" fill-opacity="0.4" stroke="#1f77b4" stroke-width="1.0"/><line x1="671.985576923077" y1="283.4187313958759" x2="744.0528846153846" y2="283.4187313958759" stroke="#1f77b4" stroke-width="2.0"/><line x1="708.0192307692308" y1="334.83003434556076" x2="708.0192307692308" y2="500.52611923520533" stroke="#1f77b4" stroke-width="1.0"/><line x1="708.0192307692308" y1="221.42697223655904" x2="708.0192307692308" y2="51.40000000000009" stroke="#1f77b4" stroke-width="1.0"/><line x1="690.0024038461539" y1="500.52611923520533" x2="726.0360576923077" y2="500.52611923520533" stroke="#1f77b4" stroke-width="1.0"/><line x1="690.0024038461539" y1="51.40000000000009" x2="726.0360576923077" y2="51.40000000000009" stroke="#1f77b4" stroke-width="1.0"/></svg>