<svg xmlns="http://www.w3.org/2000/svg" width="800" height="600" viewBox="0 0 800 600"><rect x="0.0" y="0.0" width="800.0" height="600.0" fill="#ffffff" fill-opacity="1.0" stroke="none"/><line x1="185.53124999999997" y1="5.5" x2="185.53124999999997" y2="563.8" stroke="#dddddd" stroke-width="1.0"/><line x1="419.75" y1="5.5" x2="419.75" y2="563.8" stroke="#dddddd" stroke-width="1.0"/><line x1="653.96875" y1="5.5" x2="653.96875" y2="563.8" stroke="#dddddd" stroke-width="1.0"/><line x1="45.0" y1="476.34699248120296" x2="794.5" y2="476.34699248120296" stroke="#dddddd" stroke-width="0.5"/><line x1="45.0" y1="301.440977443609" x2="794.5" y2="301.440977443609" stroke="#dddddd" stroke-width="0.5"/><line x1="45.0" y1="126.53496240601498" x2="794.5" y2="126.53496240601498" stroke="#dddddd" stroke-width="0.5"/><line x1="45.0" y1="563.8" x2="794.5" y2="563.8" stroke="#dddddd" stroke-width="1.0"/><line x1="45.0" y1="388.89398496240597" x2="794.5" y2="388.89398496240597" stroke="#dddddd" stroke-width="1.0"/><line x1="45.0" y1="213.98796992481198" x2="794.5" y2="213.98796992481198" stroke="#dddddd" stroke-width="1.0"/><line x1="45.0" y1="39.08195488721799" x2="794.5" y2="39.08195488721799" stroke="#dddddd" stroke-width="1.0"/><rect x="45.0" y="5.5" width="749.5" height="558.3" fill="#ffffff" fill-opacity="0.0" stroke="#444444" stroke-width="1.0"/><line x1="185.53124999999997" y1="563.8" x2="185.53124999999997" y2="566.55" stroke="#444444" stroke-width="1.0"/><text x="185.53124999999997" y="577.55" fill="#333333" font-size="11.0" font-family="sans-serif" text-anchor="middle">Adelie</text><line x1="419.75" y1="563.8" x2="419.75" y2="566.55" stroke="#444444" stroke-width="1.0"/><text x="419.75" y="577.55" fill="#333333" font-size="11.0" font-family="sans-serif" text-anchor="middle">Chinstrap</text><line x1="653.96875" y1="563.8" x2="653.96875" y2="566.55" stroke="#444444" stroke-width="1.0"/><text x="653.96875" y="577.55" fill="#333333" font-size="11.0" font-family="sans-serif" text-anchor="middle">Gentoo</text><line x1="45.0" y1="563.8" x2="42.25" y2="563.8" stroke="#444444" stroke-width="1.0"/><text x="40.05" y="567.65" fill="#333333" font-size="11.0" font-family="sans-serif" text-anchor="end">0</text><line x1="45.0" y1="388.89398496240597" x2="42.25" y2="388.89398496240597" stroke="#444444" stroke-width="1.0"/><text x="40.05" y="392.743984962406" fill="#333333" font-size="11.0" font-family="sans-serif" text-anchor="end">50</text><line x1="45.0" y1="213.98796992481198" x2="42.25" y2="213.98796992481198" stroke="#444444" stroke-width="1.0"/><text x="40.05" y="217.83796992481197" fill="#333333" font-size="11.0" font-family="sans-serif" text-anchor="end">100</text><line x1="45.0" y1="39.08195488721799" x2="42.25" y2="39.08195488721799" stroke="#444444" stroke-width="1.0"/><text x="40.05" y="42.93195488721799" fill="#333333" font-size="11.0" font-family="sans-serif" text-anchor="end">150</text><text x="419.75" y="592.1" fill="#333333" font-size="12.0" font-family="sans-serif" text-anchor="middle">species</text><text x="13.899999999999999" y="284.65" fill="#333333" font-size="12.0" font-family="sans-serif" text-anchor="middle" transform="rotate(-90.0 13.899999999999999 284.65)">count</text><rect x="80.13281249999996" y="32.08571428571429" width="210.79687500000003" height="531.7142857142857" fill="#1f77b4" fill-opacity="0.85" stroke="none"/><rect x="548.5703125" y="130.0330827067669" width="210.79687500000003" height="433.76691729323306" fill="#1f77b4" fill-opacity="0.85" stroke="none"/><rect x="314.3515625" y="325.9278195488721" width="210.79687500000003" height="237.87218045112786" fill="#1f77b4" fill-opacity="0.85" stroke="none"/></svg>