<svg xmlns="http://www.w3.org/2000/svg" width="800" height="600" viewBox="0 0 800 600"><rect x="0.0" y="0.0" width="800.0" height="600.0" fill="#ffffff" fill-opacity="1.0" stroke="none"/><line x1="225.5156565656566" y1="5.5" x2="225.5156565656566" y2="563.8" stroke="#dddddd" stroke-width="0.5"/><line x1="416.45" y1="5.5" x2="416.45" y2="563.8" stroke="#dddddd" stroke-width="0.5"/><line x1="607.3843434343434" y1="5.5" x2="607.3843434343434" y2="563.8" stroke="#dddddd" stroke-width="0.5"/><line x1="130.04848484848486" y1="5.5" x2="130.04848484848486" y2="563.8" stroke="#dddddd" stroke-width="1.0"/><line x1="320.9828282828283" y1="5.5" x2="320.9828282828283" y2="563.8" stroke="#dddddd" stroke-width="1.0"/><line x1="511.91717171717175" y1="5.5" x2="511.91717171717175" y2="563.8" stroke="#dddddd" stroke-width="1.0"/><line x1="702.8515151515152" y1="5.5" x2="702.8515151515152" y2="563.8" stroke="#dddddd" stroke-width="1.0"/><line x1="38.4" y1="493.8375939849624" x2="794.5" y2="493.8375939849624" stroke="#dddddd" stroke-width="0.5"/><line x1="38.4" y1="353.9127819548872" x2="794.5" y2="353.9127819548872" stroke="#dddddd" stroke-width="0.5"/><line x1="38.4" y1="213.98796992481198" x2="794.5" y2="213.98796992481198" stroke="#dddddd" stroke-width="0.5"/><line x1="38.4" y1="74.06315789473678" x2="794.5" y2="74.06315789473678" stroke="#dddddd" stroke-width="0.5"/><line x1="38.4" y1="563.8" x2="794.5" y2="563.8" stroke="#dddddd" stroke-width="1.0"/><line x1="38.4" y1="423.8751879699248" x2="794.5" y2="423.8751879699248" stroke="#dddddd" stroke-width="1.0"/><line x1="38.4" y1="283.9503759398496" x2="794.5" y2="283.9503759398496" stroke="#dddddd" stroke-width="1.0"/><line x1="38.4" y1="144.0255639097744" x2="794.5" y2="144.0255639097744" stroke="#dddddd" stroke-width="1.0"/><rect x="38.4" y="5.5" width="756.1" height="558.3" fill="#ffffff" fill-opacity="0.0" stroke="#444444" stroke-width="1.0"/><line x1="130.04848484848486" y1="563.8" x2="130.04848484848486" y2="566.55" stroke="#444444" stroke-width="1.0"/><text x="130.04848484848486" y="577.55" fill="#333333" font-size="11.0" font-family="sans-serif" text-anchor="middle">3000</text><line x1="320.9828282828283" y1="563.8" x2="320.9828282828283" y2="566.55" stroke="#444444" stroke-width="1.0"/><text x="320.9828282828283" y="577.55" fill="#333333" font-size="11.0" font-family="sans-serif" text-anchor="middle">4000</text><line x1="511.91717171717175" y1="563.8" x2="511.91717171717175" y2="566.55" stroke="#444444" stroke-width="1.0"/><text x="511.91717171717175" y="577.55" fill="#333333" font-size="11.0" font-family="sans-serif" text-anchor="middle">5000</text><line x1="702.8515151515152" y1="563.8" x2="702.8515151515152" y2="566.55" stroke="#444444" stroke-width="1.0"/><text x="702.8515151515152" y="577.55" fill="#333333" font-size="11.0" font-family="sans-serif" text-anchor="middle">6000</text><line x1="38.4" y1="563.8" x2="35.65" y2="563.8" stroke="#444444" stroke-width="1.0"/><text x="33.449999999999996" y="567.65" fill="#333333" font-size="11.0" font-family="sans-serif" text-anchor="end">0</text><line x1="38.4" y1="423.8751879699248" x2="35.65" y2="423.8751879699248" stroke="#444444" stroke-width="1.0"/><text x="33.449999999999996" y="427.72518796992483" fill="#333333" font-size="11.0" font-family="sans-serif" text-anchor="end">10</text><line x1="38.4" y1="283.9503759398496" x2="35.65" y2="283.9503759398496" stroke="#444444" stroke-width="1.0"/><text x="33.449999999999996" y="287.80037593984963" fill="#333333" font-size="11.0" font-family="sans-serif" text-anchor="end">20</text><line x1="38.4" y1="144.0255639097744" x2="35.65" y2="144.0255639097744" stroke="#444444" stroke-width="1.0"/><text x="33.449999999999996" y="147.8755639097744" fill="#333333" font-size="11.0" font-family="sans-serif" text-anchor="end">30</text><text x="416.45" y="592.1" fill="#333333" font-size="12.0" font-family="sans-serif" text-anchor="middle">body_mass_g</text><text x="13.899999999999999" y="284.65" fill="#333333" font-size="12.0" font-family="sans-serif" text-anchor="middle" transform="rotate(-90.0 13.899999999999999 284.65)">count</text><rect x="72.76818181818182" y="521.8225563909774" width="38.18686868686869" height="41.977443609022544" fill="#1f77b4" fill-opacity="0.7" stroke="none"/><rect x="110.95505050505051" y="381.8977443609022" width="38.18686868686868" height="181.90225563909775" fill="#1f77b4" fill-opacity="0.7" stroke="none"/><rect x="149.1419191919192" y="311.9353383458646" width="38.186868686868706" height="251.86466165413538" fill="#1f77b4" fill-opacity="0.7" stroke="none"/><rect x="187.3287878787879" y="46.0781954887218" width="38.186868686868706" height="517.7218045112782" fill="#1f77b4" fill-opacity="0.7" stroke="none"/><rect x="225.5156565656566" y="74.06315789473678" width="38.18686868686862" height="489.7368421052632" fill="#1f77b4" fill-opacity="0.7" stroke="none"/><rect x="263.7025252525252" y="32.08571428571429" width="38.186868686868706" height="531.7142857142857" fill="#1f77b4" fill-opacity="0.7" stroke="none"/><rect x="301.8893939393939" y="102.04812030075186" width="38.186868686868706" height="461.7518796992481" fill="#1f77b4" fill-opacity="0.7" stroke="none"/><rect x="340.07626262626263" y="255.96541353383458" width="38.18686868686865" height="307.8345864661654" fill="#1f77b4" fill-opacity="0.7" stroke="none"/><rect x="378.2631313131313" y="213.98796992481198" width="38.186868686868706" height="349.812030075188" fill="#1f77b4" fill-opacity="0.7" stroke="none"/><rect x="416.45" y="297.9428571428571" width="38.186868686868706" height="265.85714285714283" fill="#1f77b4" fill-opacity="0.7" stroke="none"/><rect x="454.6368686868687" y="213.98796992481198" width="38.18686868686865" height="349.812030075188" fill="#1f77b4" fill-opacity="0.7" stroke="none"/><rect x="492.82373737373734" y="339.92030075187967" width="38.186868686868706" height="223.8796992481203" fill="#1f77b4" fill-opacity="0.7" stroke="none"/><rect x="531.010606060606" y="395.8902255639098" width="38.186868686868706" height="167.90977443609017" fill="#1f77b4" fill-opacity="0.7" stroke="none"/><rect x="569.1974747474748" y="381.8977443609022" width="38.18686868686859" height="181.90225563909775" fill="#1f77b4" fill-opacity="0.7" stroke="none"/><rect x="607.3843434343434" y="339.92030075187967" width="38.186868686868706" height="223.8796992481203" fill="#1f77b4" fill-opacity="0.7" stroke="none"/><rect x="645.571212121212" y="409.8827067669173" width="38.186868686868706" height="153.91729323308266" fill="#1f77b4" fill-opacity="0.7" stroke="none"/><rect x="683.7580808080808" y="493.8375939849624" width="38.18686868686882" height="69.96240601503757" fill="#1f77b4" fill-opacity="0.7" stroke="none"/><rect x="721.9449494949496" y="549.8075187969924" width="38.18686868686859" height="13.992481203007515" fill="#1f77b4" fill-opacity="0.7" stroke="none"/></svg>