<svg xmlns="http://www.w3.org/2000/svg" width="624" height="384" viewBox="0 0 624 384"><rect x="0.0" y="0.0" width="624.0" height="384.0" fill="#ffffff" fill-opacity="1.0" stroke="none"/><rect x="46.346666666666664" y="7.333333333333333" width="570.3199999999999" height="332.66666666666663" fill="#ebebeb" fill-opacity="1.0" stroke="none"/><line x1="187.48646464646464" y1="7.333333333333333" x2="187.48646464646464" y2="340.0" stroke="#ffffff" stroke-width="0.6666666666666666"/><line x1="331.50666666666666" y1="7.333333333333333" x2="331.50666666666666" y2="340.0" stroke="#ffffff" stroke-width="0.6666666666666666"/><line x1="475.5268686868686" y1="7.333333333333333" x2="475.5268686868686" y2="340.0" stroke="#ffffff" stroke-width="0.6666666666666666"/><line x1="115.47636363636363" y1="7.333333333333333" x2="115.47636363636363" y2="340.0" stroke="#ffffff" stroke-width="1.3333333333333333"/><line x1="259.4965656565656" y1="7.333333333333333" x2="259.4965656565656" y2="340.0" stroke="#ffffff" stroke-width="1.3333333333333333"/><line x1="403.51676767676764" y1="7.333333333333333" x2="403.51676767676764" y2="340.0" stroke="#ffffff" stroke-width="1.3333333333333333"/><line x1="547.5369696969697" y1="7.333333333333333" x2="547.5369696969697" y2="340.0" stroke="#ffffff" stroke-width="1.3333333333333333"/><line x1="46.346666666666664" y1="298.312447786132" x2="616.6666666666666" y2="298.312447786132" stroke="#ffffff" stroke-width="0.6666666666666666"/><line x1="46.346666666666664" y1="214.937343358396" x2="616.6666666666666" y2="214.937343358396" stroke="#ffffff" stroke-width="0.6666666666666666"/><line x1="46.346666666666664" y1="131.56223893065993" x2="616.6666666666666" y2="131.56223893065993" stroke="#ffffff" stroke-width="0.6666666666666666"/><line x1="46.346666666666664" y1="48.18713450292394" x2="616.6666666666666" y2="48.18713450292394" stroke="#ffffff" stroke-width="0.6666666666666666"/><line x1="46.346666666666664" y1="340.0" x2="616.6666666666666" y2="340.0" stroke="#ffffff" stroke-width="1.3333333333333333"/><line x1="46.346666666666664" y1="256.624895572264" x2="616.6666666666666" y2="256.624895572264" stroke="#ffffff" stroke-width="1.3333333333333333"/><line x1="46.346666666666664" y1="173.249791144528" x2="616.6666666666666" y2="173.249791144528" stroke="#ffffff" stroke-width="1.3333333333333333"/><line x1="46.346666666666664" y1="89.87468671679194" x2="616.6666666666666" y2="89.87468671679194" stroke="#ffffff" stroke-width="1.3333333333333333"/><line x1="115.47636363636363" y1="340.0" x2="115.47636363636363" y2="343.66666666666663" stroke="#333333" stroke-width="1.3333333333333333"/><text x="115.47636363636363" y="355.9866666666667" fill="#4d4d4d" font-size="11.733333333333334" font-family="sans-serif" text-anchor="middle">3000</text><line x1="259.4965656565656" y1="340.0" x2="259.4965656565656" y2="343.66666666666663" stroke="#333333" stroke-width="1.3333333333333333"/><text x="259.4965656565656" y="355.9866666666667" fill="#4d4d4d" font-size="11.733333333333334" font-family="sans-serif" text-anchor="middle">4000</text><line x1="403.51676767676764" y1="340.0" x2="403.51676767676764" y2="343.66666666666663" stroke="#333333" stroke-width="1.3333333333333333"/><text x="403.51676767676764" y="355.9866666666667" fill="#4d4d4d" font-size="11.733333333333334" font-family="sans-serif" text-anchor="middle">5000</text><line x1="547.5369696969697" y1="340.0" x2="547.5369696969697" y2="343.66666666666663" stroke="#333333" stroke-width="1.3333333333333333"/><text x="547.5369696969697" y="355.9866666666667" fill="#4d4d4d" font-size="11.733333333333334" font-family="sans-serif" text-anchor="middle">6000</text><line x1="46.346666666666664" y1="340.0" x2="42.67999999999999" y2="340.0" stroke="#333333" stroke-width="1.3333333333333333"/><text x="39.74666666666666" y="344.1066666666666" fill="#4d4d4d" font-size="11.733333333333334" font-family="sans-serif" text-anchor="end">0</text><line x1="46.346666666666664" y1="256.624895572264" x2="42.67999999999999" y2="256.624895572264" stroke="#333333" stroke-width="1.3333333333333333"/><text x="39.74666666666666" y="260.7315622389307" fill="#4d4d4d" font-size="11.733333333333334" font-family="sans-serif" text-anchor="end">10</text><line x1="46.346666666666664" y1="173.249791144528" x2="42.67999999999999" y2="173.249791144528" stroke="#333333" stroke-width="1.3333333333333333"/><text x="39.74666666666666" y="177.35645781119467" fill="#4d4d4d" font-size="11.733333333333334" font-family="sans-serif" text-anchor="end">20</text><line x1="46.346666666666664" y1="89.87468671679194" x2="42.67999999999999" y2="89.87468671679194" stroke="#333333" stroke-width="1.3333333333333333"/><text x="39.74666666666666" y="93.98135338345861" fill="#4d4d4d" font-size="11.733333333333334" font-family="sans-serif" text-anchor="end">30</text><text x="331.50666666666666" y="373.73333333333335" fill="#000000" font-size="14.666666666666666" font-family="sans-serif" text-anchor="middle">body_mass_g</text><text x="17.599999999999998" y="173.66666666666666" fill="#000000" font-size="14.666666666666666" font-family="sans-serif" text-anchor="middle" transform="rotate(-90.0 17.599999999999998 173.66666666666666)">count</text><rect x="72.27030303030303" y="314.98746867167915" width="28.80404040404041" height="25.012531328320808" fill="#595959" fill-opacity="1.0" stroke="none"/><rect x="101.07434343434343" y="231.61236424394318" width="28.804040404040393" height="108.38763575605681" fill="#595959" fill-opacity="1.0" stroke="none"/><rect x="129.87838383838383" y="189.92481203007517" width="28.804040404040393" height="150.0751879699248" fill="#595959" fill-opacity="1.0" stroke="none"/><rect x="158.68242424242422" y="31.512113617376748" width="28.80404040404043" height="308.48788638262323" fill="#595959" fill-opacity="1.0" stroke="none"/><rect x="187.48646464646464" y="48.18713450292394" width="28.804040404040393" height="291.812865497076" fill="#595959" fill-opacity="1.0" stroke="none"/><rect x="216.29050505050503" y="23.17460317460317" width="28.804040404040393" height="316.8253968253968" fill="#595959" fill-opacity="1.0" stroke="none"/><rect x="245.09454545454543" y="64.86215538847114" width="28.80404040404043" height="275.13784461152886" fill="#595959" fill-opacity="1.0" stroke="none"/><rect x="273.8985858585859" y="156.57477025898078" width="28.804040404040393" height="183.4252297410192" fill="#595959" fill-opacity="1.0" stroke="none"/><rect x="302.70262626262627" y="131.56223893065993" width="28.804040404040393" height="208.43776106934004" fill="#595959" fill-opacity="1.0" stroke="none"/><rect x="331.50666666666666" y="181.5873015873016" width="28.80404040404043" height="158.41269841269838" fill="#595959" fill-opacity="1.0" stroke="none"/><rect x="360.31070707070705" y="131.56223893065993" width="28.804040404040354" height="208.43776106934004" fill="#595959" fill-opacity="1.0" stroke="none"/><rect x="389.11474747474745" y="206.59983291562236" width="28.80404040404043" height="133.4001670843776" fill="#595959" fill-opacity="1.0" stroke="none"/><rect x="417.91878787878784" y="239.94987468671678" width="28.804040404040354" height="100.05012531328319" fill="#595959" fill-opacity="1.0" stroke="none"/><rect x="446.72282828282823" y="231.61236424394318" width="28.80404040404043" height="108.38763575605681" fill="#595959" fill-opacity="1.0" stroke="none"/><rect x="475.5268686868686" y="206.59983291562236" width="28.80404040404043" height="133.4001670843776" fill="#595959" fill-opacity="1.0" stroke="none"/><rect x="504.3309090909091" y="248.28738512949036" width="28.804040404040354" height="91.71261487050961" fill="#595959" fill-opacity="1.0" stroke="none"/><rect x="533.1349494949494" y="298.312447786132" width="28.804040404040506" height="41.687552213868" fill="#595959" fill-opacity="1.0" stroke="none"/><rect x="561.9389898989899" y="331.66248955722637" width="28.804040404040354" height="8.337510442773615" fill="#595959" fill-opacity="1.0" stroke="none"/></svg>