<svg xmlns="http://www.w3.org/2000/svg" width="800" height="600" viewBox="0 0 800 600"><rect x="0.0" y="0.0" width="800.0" height="600.0" fill="#ffffff" fill-opacity="1.0" stroke="none"/><line x1="226.57054244098444" y1="5.5" x2="226.57054244098444" y2="563.8" stroke="#dddddd" stroke-width="0.5"/><line x1="416.45" y1="5.5" x2="416.45" y2="563.8" stroke="#dddddd" stroke-width="0.5"/><line x1="606.3294575590155" y1="5.5" x2="606.3294575590155" y2="563.8" stroke="#dddddd" stroke-width="0.5"/><line x1="131.63081366147665" y1="5.5" x2="131.63081366147665" y2="563.8" stroke="#dddddd" stroke-width="1.0"/><line x1="321.5102712204922" y1="5.5" x2="321.5102712204922" y2="563.8" stroke="#dddddd" stroke-width="1.0"/><line x1="511.3897287795078" y1="5.5" x2="511.3897287795078" y2="563.8" stroke="#dddddd" stroke-width="1.0"/><line x1="701.2691863385234" y1="5.5" x2="701.2691863385234" y2="563.8" stroke="#dddddd" stroke-width="1.0"/><line x1="38.4" y1="497.33571428571423" x2="794.5" y2="497.33571428571423" stroke="#dddddd" stroke-width="0.5"/><line x1="38.4" y1="364.40714285714284" x2="794.5" y2="364.40714285714284" stroke="#dddddd" stroke-width="0.5"/><line x1="38.4" y1="231.4785714285714" x2="794.5" y2="231.4785714285714" stroke="#dddddd" stroke-width="0.5"/><line x1="38.4" y1="98.54999999999995" x2="794.5" y2="98.54999999999995" stroke="#dddddd" stroke-width="0.5"/><line x1="38.4" y1="563.8" x2="794.5" y2="563.8" stroke="#dddddd" stroke-width="1.0"/><line x1="38.4" y1="430.8714285714285" x2="794.5" y2="430.8714285714285" stroke="#dddddd" stroke-width="1.0"/><line x1="38.4" y1="297.9428571428571" x2="794.5" y2="297.9428571428571" stroke="#dddddd" stroke-width="1.0"/><line x1="38.4" y1="165.01428571428568" x2="794.5" y2="165.01428571428568" stroke="#dddddd" stroke-width="1.0"/><line x1="38.4" y1="32.08571428571429" x2="794.5" y2="32.08571428571429" stroke="#dddddd" stroke-width="1.0"/><rect x="38.4" y="5.5" width="756.1" height="558.3" fill="#ffffff" fill-opacity="0.0" stroke="#444444" stroke-width="1.0"/><line x1="131.63081366147665" y1="563.8" x2="131.63081366147665" y2="566.55" stroke="#444444" stroke-width="1.0"/><text x="131.63081366147665" y="577.55" fill="#333333" font-size="11.0" font-family="sans-serif" text-anchor="middle">3000</text><line x1="321.5102712204922" y1="563.8" x2="321.5102712204922" y2="566.55" stroke="#444444" stroke-width="1.0"/><text x="321.5102712204922" y="577.55" fill="#333333" font-size="11.0" font-family="sans-serif" text-anchor="middle">4000</text><line x1="511.3897287795078" y1="563.8" x2="511.3897287795078" y2="566.55" stroke="#444444" stroke-width="1.0"/><text x="511.3897287795078" y="577.55" fill="#333333" font-size="11.0" font-family="sans-serif" text-anchor="middle">5000</text><line x1="701.2691863385234" y1="563.8" x2="701.2691863385234" y2="566.55" stroke="#444444" stroke-width="1.0"/><text x="701.2691863385234" y="577.55" fill="#333333" font-size="11.0" font-family="sans-serif" text-anchor="middle">6000</text><line x1="38.4" y1="563.8" x2="35.65" y2="563.8" stroke="#444444" stroke-width="1.0"/><text x="33.449999999999996" y="567.65" fill="#333333" font-size="11.0" font-family="sans-serif" text-anchor="end">0</text><line x1="38.4" y1="430.8714285714285" x2="35.65" y2="430.8714285714285" stroke="#444444" stroke-width="1.0"/><text x="33.449999999999996" y="434.72142857142853" fill="#333333" font-size="11.0" font-family="sans-serif" text-anchor="end">3</text><line x1="38.4" y1="297.9428571428571" x2="35.65" y2="297.9428571428571" stroke="#444444" stroke-width="1.0"/><text x="33.449999999999996" y="301.79285714285714" fill="#333333" font-size="11.0" font-family="sans-serif" text-anchor="end">6</text><line x1="38.4" y1="165.01428571428568" x2="35.65" y2="165.01428571428568" stroke="#444444" stroke-width="1.0"/><text x="33.449999999999996" y="168.86428571428567" fill="#333333" font-size="11.0" font-family="sans-serif" text-anchor="end">9</text><line x1="38.4" y1="32.08571428571429" x2="35.65" y2="32.08571428571429" stroke="#444444" stroke-width="1.0"/><text x="33.449999999999996" y="35.93571428571429" fill="#333333" font-size="11.0" font-family="sans-serif" text-anchor="end">12</text><text x="416.45" y="592.1" fill="#333333" font-size="12.0" font-family="sans-serif" text-anchor="middle">body_mass_g</text><text x="13.899999999999999" y="284.65" fill="#333333" font-size="12.0" font-family="sans-serif" text-anchor="middle" transform="rotate(-90.0 13.899999999999999 284.65)">count</text><rect x="72.76818181818182" y="519.4904761904761" width="3.797589151180304" height="44.30952380952385" fill="#1f77b4" fill-opacity="0.7" stroke="none"/><rect x="103.14889502762432" y="475.18095238095236" width="3.79758915118029" height="88.61904761904759" fill="#1f77b4" fill-opacity="0.7" stroke="none"/><rect x="110.74407332998493" y="386.56190476190477" width="3.7975891511803184" height="177.23809523809518" fill="#1f77b4" fill-opacity="0.7" stroke="none"/><rect x="114.54166248116525" y="519.4904761904761" width="3.7975891511803184" height="44.30952380952385" fill="#1f77b4" fill-opacity="0.7" stroke="none"/><rect x="125.93442993470617" y="519.4904761904761" width="3.7975891511803184" height="44.30952380952385" fill="#1f77b4" fill-opacity="0.7" stroke="none"/><rect x="129.7320190858865" y="475.18095238095236" width="3.79758915118029" height="88.61904761904759" fill="#1f77b4" fill-opacity="0.7" stroke="none"/><rect x="141.12478653942742" y="386.56190476190477" width="3.7975891511803184" height="177.23809523809518" fill="#1f77b4" fill-opacity="0.7" stroke="none"/><rect x="144.92237569060774" y="519.4904761904761" width="3.7975891511803184" height="44.30952380952385" fill="#1f77b4" fill-opacity="0.7" stroke="none"/><rect x="148.71996484178806" y="519.4904761904761" width="3.79758915118029" height="44.30952380952385" fill="#1f77b4" fill-opacity="0.7" stroke="none"/><rect x="160.11273229532898" y="386.56190476190477" width="3.7975891511803184" height="177.23809523809518" fill="#1f77b4" fill-opacity="0.7" stroke="none"/><rect x="163.9103214465093" y="475.18095238095236" width="3.7975891511803184" height="88.61904761904759" fill="#1f77b4" fill-opacity="0.7" stroke="none"/><rect x="167.70791059768962" y="342.2523809523809" width="3.7975891511803184" height="221.54761904761904" fill="#1f77b4" fill-opacity="0.7" stroke="none"/><rect x="179.10067805123055" y="342.2523809523809" width="3.79758915118029" height="221.54761904761904" fill="#1f77b4" fill-opacity="0.7" stroke="none"/><rect x="182.89826720241084" y="519.4904761904761" width="3.797589151180347" height="44.30952380952385" fill="#1f77b4" fill-opacity="0.7" stroke="none"/><rect x="186.69585635359118" y="297.9428571428571" width="3.7975891511803184" height="265.85714285714283" fill="#1f77b4" fill-opacity="0.7" stroke="none"/><rect x="190.4934455047715" y="342.2523809523809" width="3.79758915118029" height="221.54761904761904" fill="#1f77b4" fill-opacity="0.7" stroke="none"/><rect x="198.0886238071321" y="342.2523809523809" width="3.79758915118029" height="221.54761904761904" fill="#1f77b4" fill-opacity="0.7" stroke="none"/><rect x="205.68380210949275" y="209.32380952380953" width="3.79758915118029" height="354.4761904761904" fill="#1f77b4" fill-opacity="0.7" stroke="none"/><rect x="209.48139126067304" y="475.18095238095236" width="3.7975891511803184" height="88.61904761904759" fill="#1f77b4" fill-opacity="0.7" stroke="none"/><rect x="217.07656956303364" y="209.32380952380953" width="3.7975891511803184" height="354.4761904761904" fill="#1f77b4" fill-opacity="0.7" stroke="none"/><rect x="220.87415871421396" y="430.8714285714285" width="3.7975891511803184" height="132.92857142857144" fill="#1f77b4" fill-opacity="0.7" stroke="none"/><rect x="224.67174786539428" y="253.63333333333333" width="3.797589151180347" height="310.16666666666663" fill="#1f77b4" fill-opacity="0.7" stroke="none"/><rect x="228.46933701657463" y="475.18095238095236" width="3.7975891511802615" height="88.61904761904759" fill="#1f77b4" fill-opacity="0.7" stroke="none"/><rect x="236.0645153189352" y="165.01428571428568" width="3.7975891511803184" height="398.7857142857143" fill="#1f77b4" fill-opacity="0.7" stroke="none"/><rect x="239.86210447011553" y="519.4904761904761" width="3.7975891511803184" height="44.30952380952385" fill="#1f77b4" fill-opacity="0.7" stroke="none"/><rect x="243.65969362129584" y="253.63333333333333" width="3.79758915118029" height="310.16666666666663" fill="#1f77b4" fill-opacity="0.7" stroke="none"/><rect x="247.45728277247613" y="519.4904761904761" width="3.7975891511803184" height="44.30952380952385" fill="#1f77b4" fill-opacity="0.7" stroke="none"/><rect x="255.05246107483677" y="297.9428571428571" width="3.79758915118029" height="265.85714285714283" fill="#1f77b4" fill-opacity="0.7" stroke="none"/><rect x="258.85005022601706" y="475.18095238095236" width="3.7975891511803184" height="88.61904761904759" fill="#1f77b4" fill-opacity="0.7" stroke="none"/><rect x="262.6476393771974" y="76.39523809523808" width="3.7975891511803184" height="487.40476190476187" fill="#1f77b4" fill-opacity="0.7" stroke="none"/><rect x="266.4452285283777" y="430.8714285714285" width="3.7975891511803184" height="132.92857142857144" fill="#1f77b4" fill-opacity="0.7" stroke="none"/><rect x="274.04040683073833" y="342.2523809523809" width="3.7975891511803184" height="221.54761904761904" fill="#1f77b4" fill-opacity="0.7" stroke="none"/><rect x="277.83799598191865" y="386.56190476190477" width="3.7975891511802615" height="177.23809523809518" fill="#1f77b4" fill-opacity="0.7" stroke="none"/><rect x="281.6355851330989" y="32.08571428571429" width="3.7975891511803184" height="531.7142857142857" fill="#1f77b4" fill-opacity="0.7" stroke="none"/><rect x="285.43317428427923" y="519.4904761904761" width="3.7975891511803184" height="44.30952380952385" fill="#1f77b4" fill-opacity="0.7" stroke="none"/><rect x="293.02835258663987" y="519.4904761904761" width="3.7975891511803184" height="44.30952380952385" fill="#1f77b4" fill-opacity="0.7" stroke="none"/><rect x="296.8259417378202" y="519.4904761904761" width="3.7975891511802615" height="44.30952380952385" fill="#1f77b4" fill-opacity="0.7" stroke="none"/><rect x="300.62353088900045" y="120.70476190476188" width="3.7975891511803184" height="443.0952380952381" fill="#1f77b4" fill-opacity="0.7" stroke="none"/><rect x="312.01629834254146" y="120.70476190476188" width="3.7975891511802615" height="443.0952380952381" fill="#1f77b4" fill-opacity="0.7" stroke="none"/><rect x="315.8138874937217" y="519.4904761904761" width="3.7975891511803184" height="44.30952380952385" fill="#1f77b4" fill-opacity="0.7" stroke="none"/><rect x="319.61147664490204" y="342.2523809523809" width="3.7975891511803184" height="221.54761904761904" fill="#1f77b4" fill-opacity="0.7" stroke="none"/><rect x="331.004244098443" y="297.9428571428571" width="3.7975891511802615" height="265.85714285714283" fill="#1f77b4" fill-opacity="0.7" stroke="none"/><rect x="334.80183324962326" y="519.4904761904761" width="3.7975891511803184" height="44.30952380952385" fill="#1f77b4" fill-opacity="0.7" stroke="none"/><rect x="338.5994224008036" y="342.2523809523809" width="3.7975891511803184" height="221.54761904761904" fill="#1f77b4" fill-opacity="0.7" stroke="none"/><rect x="349.99218985434453" y="297.9428571428571" width="3.7975891511803184" height="265.85714285714283" fill="#1f77b4" fill-opacity="0.7" stroke="none"/><rect x="357.58736815670517" y="342.2523809523809" width="3.7975891511803184" height="221.54761904761904" fill="#1f77b4" fill-opacity="0.7" stroke="none"/><rect x="368.98013561024607" y="342.2523809523809" width="3.7975891511803184" height="221.54761904761904" fill="#1f77b4" fill-opacity="0.7" stroke="none"/><rect x="372.7777247614264" y="519.4904761904761" width="3.7975891511803184" height="44.30952380952385" fill="#1f77b4" fill-opacity="0.7" stroke="none"/><rect x="376.5753139126067" y="209.32380952380953" width="3.7975891511803184" height="354.4761904761904" fill="#1f77b4" fill-opacity="0.7" stroke="none"/><rect x="387.96808136614766" y="475.18095238095236" width="3.7975891511803184" height="88.61904761904759" fill="#1f77b4" fill-opacity="0.7" stroke="none"/><rect x="391.765670517328" y="519.4904761904761" width="3.7975891511803184" height="44.30952380952385" fill="#1f77b4" fill-opacity="0.7" stroke="none"/><rect x="395.5632596685083" y="209.32380952380953" width="3.7975891511803184" height="354.4761904761904" fill="#1f77b4" fill-opacity="0.7" stroke="none"/><rect x="406.9560271220492" y="342.2523809523809" width="3.7975891511803184" height="221.54761904761904" fill="#1f77b4" fill-opacity="0.7" stroke="none"/><rect x="410.7536162732295" y="519.4904761904761" width="3.7975891511803184" height="44.30952380952385" fill="#1f77b4" fill-opacity="0.7" stroke="none"/><rect x="414.55120542440983" y="430.8714285714285" width="3.7975891511803184" height="132.92857142857144" fill="#1f77b4" fill-opacity="0.7" stroke="none"/><rect x="425.9439728779507" y="475.18095238095236" width="3.797589151180375" height="88.61904761904759" fill="#1f77b4" fill-opacity="0.7" stroke="none"/><rect x="429.7415620291311" y="519.4904761904761" width="3.7975891511802615" height="44.30952380952385" fill="#1f77b4" fill-opacity="0.7" stroke="none"/><rect x="433.53915118031136" y="342.2523809523809" width="3.797589151180375" height="221.54761904761904" fill="#1f77b4" fill-opacity="0.7" stroke="none"/><rect x="437.33674033149174" y="475.18095238095236" width="3.7975891511802615" height="88.61904761904759" fill="#1f77b4" fill-opacity="0.7" stroke="none"/><rect x="444.93191863385226" y="342.2523809523809" width="3.797589151180375" height="221.54761904761904" fill="#1f77b4" fill-opacity="0.7" stroke="none"/><rect x="448.72950778503264" y="519.4904761904761" width="3.7975891511803184" height="44.30952380952385" fill="#1f77b4" fill-opacity="0.7" stroke="none"/><rect x="452.52709693621296" y="297.9428571428571" width="3.7975891511803184" height="265.85714285714283" fill="#1f77b4" fill-opacity="0.7" stroke="none"/><rect x="456.3246860873933" y="430.8714285714285" width="3.7975891511803184" height="132.92857142857144" fill="#1f77b4" fill-opacity="0.7" stroke="none"/><rect x="463.91986438975385" y="342.2523809523809" width="3.797589151180375" height="221.54761904761904" fill="#1f77b4" fill-opacity="0.7" stroke="none"/><rect x="467.71745354093423" y="519.4904761904761" width="3.7975891511802615" height="44.30952380952385" fill="#1f77b4" fill-opacity="0.7" stroke="none"/><rect x="471.5150426921145" y="430.8714285714285" width="3.797589151180375" height="132.92857142857144" fill="#1f77b4" fill-opacity="0.7" stroke="none"/><rect x="482.9078101456554" y="386.56190476190477" width="3.797589151180375" height="177.23809523809518" fill="#1f77b4" fill-opacity="0.7" stroke="none"/><rect x="486.70539929683576" y="430.8714285714285" width="3.7975891511803184" height="132.92857142857144" fill="#1f77b4" fill-opacity="0.7" stroke="none"/><rect x="490.5029884480161" y="475.18095238095236" width="3.7975891511802615" height="88.61904761904759" fill="#1f77b4" fill-opacity="0.7" stroke="none"/><rect x="494.30057759919634" y="475.18095238095236" width="3.797589151180375" height="88.61904761904759" fill="#1f77b4" fill-opacity="0.7" stroke="none"/><rect x="501.895755901557" y="475.18095238095236" width="3.797589151180375" height="88.61904761904759" fill="#1f77b4" fill-opacity="0.7" stroke="none"/><rect x="505.69334505273736" y="519.4904761904761" width="3.7975891511802615" height="44.30952380952385" fill="#1f77b4" fill-opacity="0.7" stroke="none"/><rect x="509.4909342039176" y="297.9428571428571" width="3.7975891511803184" height="265.85714285714283" fill="#1f77b4" fill-opacity="0.7" stroke="none"/><rect x="520.8837016574586" y="430.8714285714285" width="3.7975891511803184" height="132.92857142857144" fill="#1f77b4" fill-opacity="0.7" stroke="none"/><rect x="528.4788799598192" y="430.8714285714285" width="3.7975891511803184" height="132.92857142857144" fill="#1f77b4" fill-opacity="0.7" stroke="none"/><rect x="539.8716474133602" y="475.18095238095236" width="3.7975891511803184" height="88.61904761904759" fill="#1f77b4" fill-opacity="0.7" stroke="none"/><rect x="547.4668257157208" y="386.56190476190477" width="3.7975891511802047" height="177.23809523809518" fill="#1f77b4" fill-opacity="0.7" stroke="none"/><rect x="558.8595931692616" y="430.8714285714285" width="3.7975891511803184" height="132.92857142857144" fill="#1f77b4" fill-opacity="0.7" stroke="none"/><rect x="566.4547714716223" y="386.56190476190477" width="3.7975891511803184" height="177.23809523809518" fill="#1f77b4" fill-opacity="0.7" stroke="none"/><rect x="577.8475389251632" y="430.8714285714285" width="3.7975891511803184" height="132.92857142857144" fill="#1f77b4" fill-opacity="0.7" stroke="none"/><rect x="585.4427172275239" y="342.2523809523809" width="3.7975891511803184" height="221.54761904761904" fill="#1f77b4" fill-opacity="0.7" stroke="none"/><rect x="596.8354846810648" y="519.4904761904761" width="3.7975891511802047" height="44.30952380952385" fill="#1f77b4" fill-opacity="0.7" stroke="none"/><rect x="604.4306629834255" y="342.2523809523809" width="3.7975891511802047" height="221.54761904761904" fill="#1f77b4" fill-opacity="0.7" stroke="none"/><rect x="615.8234304369663" y="297.9428571428571" width="3.7975891511803184" height="265.85714285714283" fill="#1f77b4" fill-opacity="0.7" stroke="none"/><rect x="623.4186087393269" y="475.18095238095236" width="3.7975891511803184" height="88.61904761904759" fill="#1f77b4" fill-opacity="0.7" stroke="none"/><rect x="634.8113761928679" y="430.8714285714285" width="3.7975891511803184" height="132.92857142857144" fill="#1f77b4" fill-opacity="0.7" stroke="none"/><rect x="642.4065544952285" y="342.2523809523809" width="3.7975891511803184" height="221.54761904761904" fill="#1f77b4" fill-opacity="0.7" stroke="none"/><rect x="653.7993219487695" y="519.4904761904761" width="3.7975891511803184" height="44.30952380952385" fill="#1f77b4" fill-opacity="0.7" stroke="none"/><rect x="661.3945002511301" y="475.18095238095236" width="3.7975891511803184" height="88.61904761904759" fill="#1f77b4" fill-opacity="0.7" stroke="none"/><rect x="672.7872677046711" y="430.8714285714285" width="3.7975891511802047" height="132.92857142857144" fill="#1f77b4" fill-opacity="0.7" stroke="none"/><rect x="691.7752134605726" y="475.18095238095236" width="3.7975891511803184" height="88.61904761904759" fill="#1f77b4" fill-opacity="0.7" stroke="none"/><rect x="699.3703917629332" y="475.18095238095236" width="3.7975891511803184" height="88.61904761904759" fill="#1f77b4" fill-opacity="0.7" stroke="none"/><rect x="710.7631592164742" y="519.4904761904761" width="3.7975891511803184" height="44.30952380952385" fill="#1f77b4" fill-opacity="0.7" stroke="none"/><rect x="756.3342290306379" y="519.4904761904761" width="3.7975891511803184" height="44.30952380952385" fill="#1f77b4" fill-opacity="0.7" stroke="none"/></svg>