<svg xmlns="http://www.w3.org/2000/svg" width="624" height="384" viewBox="0 0 624 384"><rect x="0.0" y="0.0" width="624.0" height="384.0" fill="#ffffff" fill-opacity="1.0" stroke="none"/><rect x="46.346666666666664" y="7.333333333333333" width="570.3199999999999" height="332.66666666666663" fill="#ebebeb" fill-opacity="1.0" stroke="none"/><line x1="188.28215637033315" y1="7.333333333333333" x2="188.28215637033315" y2="340.0" stroke="#ffffff" stroke-width="0.6666666666666666"/><line x1="331.50666666666666" y1="7.333333333333333" x2="331.50666666666666" y2="340.0" stroke="#ffffff" stroke-width="0.6666666666666666"/><line x1="474.7311769630001" y1="7.333333333333333" x2="474.7311769630001" y2="340.0" stroke="#ffffff" stroke-width="0.6666666666666666"/><line x1="116.66990122216642" y1="7.333333333333333" x2="116.66990122216642" y2="340.0" stroke="#ffffff" stroke-width="1.3333333333333333"/><line x1="259.8944115184999" y1="7.333333333333333" x2="259.8944115184999" y2="340.0" stroke="#ffffff" stroke-width="1.3333333333333333"/><line x1="403.1189218148334" y1="7.333333333333333" x2="403.1189218148334" y2="340.0" stroke="#ffffff" stroke-width="1.3333333333333333"/><line x1="546.3434321111669" y1="7.333333333333333" x2="546.3434321111669" y2="340.0" stroke="#ffffff" stroke-width="1.3333333333333333"/><line x1="46.346666666666664" y1="300.39682539682536" x2="616.6666666666666" y2="300.39682539682536" stroke="#ffffff" stroke-width="0.6666666666666666"/><line x1="46.346666666666664" y1="221.19047619047618" x2="616.6666666666666" y2="221.19047619047618" stroke="#ffffff" stroke-width="0.6666666666666666"/><line x1="46.346666666666664" y1="141.984126984127" x2="616.6666666666666" y2="141.984126984127" stroke="#ffffff" stroke-width="0.6666666666666666"/><line x1="46.346666666666664" y1="62.77777777777775" x2="616.6666666666666" y2="62.77777777777775" stroke="#ffffff" stroke-width="0.6666666666666666"/><line x1="46.346666666666664" y1="340.0" x2="616.6666666666666" y2="340.0" stroke="#ffffff" stroke-width="1.3333333333333333"/><line x1="46.346666666666664" y1="260.7936507936508" x2="616.6666666666666" y2="260.7936507936508" stroke="#ffffff" stroke-width="1.3333333333333333"/><line x1="46.346666666666664" y1="181.5873015873016" x2="616.6666666666666" y2="181.5873015873016" stroke="#ffffff" stroke-width="1.3333333333333333"/><line x1="46.346666666666664" y1="102.38095238095237" x2="616.6666666666666" y2="102.38095238095237" stroke="#ffffff" stroke-width="1.3333333333333333"/><line x1="46.346666666666664" y1="23.17460317460317" x2="616.6666666666666" y2="23.17460317460317" stroke="#ffffff" stroke-width="1.3333333333333333"/><line x1="116.66990122216642" y1="340.0" x2="116.66990122216642" y2="343.66666666666663" stroke="#333333" stroke-width="1.3333333333333333"/><text x="116.66990122216642" y="355.9866666666667" fill="#4d4d4d" font-size="11.733333333333334" font-family="sans-serif" text-anchor="middle">3000</text><line x1="259.8944115184999" y1="340.0" x2="259.8944115184999" y2="343.66666666666663" stroke="#333333" stroke-width="1.3333333333333333"/><text x="259.8944115184999" y="355.9866666666667" fill="#4d4d4d" font-size="11.733333333333334" font-family="sans-serif" text-anchor="middle">4000</text><line x1="403.1189218148334" y1="340.0" x2="403.1189218148334" y2="343.66666666666663" stroke="#333333" stroke-width="1.3333333333333333"/><text x="403.1189218148334" y="355.9866666666667" fill="#4d4d4d" font-size="11.733333333333334" font-family="sans-serif" text-anchor="middle">5000</text><line x1="546.3434321111669" y1="340.0" x2="546.3434321111669" y2="343.66666666666663" stroke="#333333" stroke-width="1.3333333333333333"/><text x="546.3434321111669" y="355.9866666666667" fill="#4d4d4d" font-size="11.733333333333334" font-family="sans-serif" text-anchor="middle">6000</text><line x1="46.346666666666664" y1="340.0" x2="42.67999999999999" y2="340.0" stroke="#333333" stroke-width="1.3333333333333333"/><text x="39.74666666666666" y="344.1066666666666" fill="#4d4d4d" font-size="11.733333333333334" font-family="sans-serif" text-anchor="end">0</text><line x1="46.346666666666664" y1="260.7936507936508" x2="42.67999999999999" y2="260.7936507936508" stroke="#333333" stroke-width="1.3333333333333333"/><text x="39.74666666666666" y="264.90031746031747" fill="#4d4d4d" font-size="11.733333333333334" font-family="sans-serif" text-anchor="end">3</text><line x1="46.346666666666664" y1="181.5873015873016" x2="42.67999999999999" y2="181.5873015873016" stroke="#333333" stroke-width="1.3333333333333333"/><text x="39.74666666666666" y="185.69396825396828" fill="#4d4d4d" font-size="11.733333333333334" font-family="sans-serif" text-anchor="end">6</text><line x1="46.346666666666664" y1="102.38095238095237" x2="42.67999999999999" y2="102.38095238095237" stroke="#333333" stroke-width="1.3333333333333333"/><text x="39.74666666666666" y="106.48761904761903" fill="#4d4d4d" font-size="11.733333333333334" font-family="sans-serif" text-anchor="end">9</text><line x1="46.346666666666664" y1="23.17460317460317" x2="42.67999999999999" y2="23.17460317460317" stroke="#333333" stroke-width="1.3333333333333333"/><text x="39.74666666666666" y="27.281269841269836" fill="#4d4d4d" font-size="11.733333333333334" font-family="sans-serif" text-anchor="end">12</text><text x="331.50666666666666" y="373.73333333333335" fill="#000000" font-size="14.666666666666666" font-family="sans-serif" text-anchor="middle">body_mass_g</text><text x="17.599999999999998" y="173.66666666666666" fill="#000000" font-size="14.666666666666666" font-family="sans-serif" text-anchor="middle" transform="rotate(-90.0 17.599999999999998 173.66666666666666)">count</text><rect x="72.27030303030303" y="313.5978835978836" width="2.8644902059266615" height="26.402116402116384" fill="#595959" fill-opacity="1.0" stroke="none"/><rect x="95.18622467771638" y="287.1957671957672" width="2.8644902059266806" height="52.80423280423281" fill="#595959" fill-opacity="1.0" stroke="none"/><rect x="100.91520508956974" y="234.39153439153438" width="2.8644902059266615" height="105.60846560846562" fill="#595959" fill-opacity="1.0" stroke="none"/><rect x="103.7796952954964" y="313.5978835978836" width="2.8644902059266615" height="26.402116402116384" fill="#595959" fill-opacity="1.0" stroke="none"/><rect x="112.37316591327641" y="313.5978835978836" width="2.8644902059266615" height="26.402116402116384" fill="#595959" fill-opacity="1.0" stroke="none"/><rect x="115.23765611920307" y="287.1957671957672" width="2.8644902059266806" height="52.80423280423281" fill="#595959" fill-opacity="1.0" stroke="none"/><rect x="123.83112673698307" y="234.39153439153438" width="2.8644902059266806" height="105.60846560846562" fill="#595959" fill-opacity="1.0" stroke="none"/><rect x="126.69561694290975" y="313.5978835978836" width="2.8644902059266806" height="26.402116402116384" fill="#595959" fill-opacity="1.0" stroke="none"/><rect x="129.56010714883644" y="313.5978835978836" width="2.8644902059266615" height="26.402116402116384" fill="#595959" fill-opacity="1.0" stroke="none"/><rect x="138.15357776661642" y="234.39153439153438" width="2.8644902059266997" height="105.60846560846562" fill="#595959" fill-opacity="1.0" stroke="none"/><rect x="141.01806797254312" y="287.1957671957672" width="2.8644902059266615" height="52.80423280423281" fill="#595959" fill-opacity="1.0" stroke="none"/><rect x="143.88255817846976" y="207.98941798941797" width="2.8644902059266615" height="132.010582010582" fill="#595959" fill-opacity="1.0" stroke="none"/><rect x="152.4760287962498" y="207.98941798941797" width="2.8644902059266615" height="132.010582010582" fill="#595959" fill-opacity="1.0" stroke="none"/><rect x="155.34051900217645" y="313.5978835978836" width="2.8644902059266615" height="26.402116402116384" fill="#595959" fill-opacity="1.0" stroke="none"/><rect x="158.20500920810312" y="181.5873015873016" width="2.8644902059266615" height="158.41269841269838" fill="#595959" fill-opacity="1.0" stroke="none"/><rect x="161.0694994140298" y="207.98941798941797" width="2.8644902059266615" height="132.010582010582" fill="#595959" fill-opacity="1.0" stroke="none"/><rect x="166.79847982588313" y="207.98941798941797" width="2.8644902059266615" height="132.010582010582" fill="#595959" fill-opacity="1.0" stroke="none"/><rect x="172.52746023773648" y="128.78306878306879" width="2.8644902059266615" height="211.2169312169312" fill="#595959" fill-opacity="1.0" stroke="none"/><rect x="175.39195044366312" y="287.1957671957672" width="2.8644902059266997" height="52.80423280423281" fill="#595959" fill-opacity="1.0" stroke="none"/><rect x="181.1209308555165" y="128.78306878306879" width="2.8644902059266615" height="211.2169312169312" fill="#595959" fill-opacity="1.0" stroke="none"/><rect x="183.98542106144316" y="260.7936507936508" width="2.8644902059266615" height="79.20634920634919" fill="#595959" fill-opacity="1.0" stroke="none"/><rect x="186.8499112673698" y="155.18518518518516" width="2.8644902059266997" height="184.8148148148148" fill="#595959" fill-opacity="1.0" stroke="none"/><rect x="189.7144014732965" y="287.1957671957672" width="2.8644902059266237" height="52.80423280423281" fill="#595959" fill-opacity="1.0" stroke="none"/><rect x="195.44338188514985" y="102.38095238095237" width="2.8644902059266615" height="237.61904761904762" fill="#595959" fill-opacity="1.0" stroke="none"/><rect x="198.3078720910765" y="313.5978835978836" width="2.8644902059266997" height="26.402116402116384" fill="#595959" fill-opacity="1.0" stroke="none"/><rect x="201.1723622970032" y="155.18518518518516" width="2.8644902059266237" height="184.8148148148148" fill="#595959" fill-opacity="1.0" stroke="none"/><rect x="204.03685250292983" y="313.5978835978836" width="2.8644902059266997" height="26.402116402116384" fill="#595959" fill-opacity="1.0" stroke="none"/><rect x="209.76583291478318" y="181.5873015873016" width="2.8644902059266615" height="158.41269841269838" fill="#595959" fill-opacity="1.0" stroke="none"/><rect x="212.63032312070985" y="287.1957671957672" width="2.8644902059266997" height="52.80423280423281" fill="#595959" fill-opacity="1.0" stroke="none"/><rect x="215.49481332663655" y="49.576719576719555" width="2.8644902059266237" height="290.4232804232804" fill="#595959" fill-opacity="1.0" stroke="none"/><rect x="218.35930353256316" y="260.7936507936508" width="2.8644902059266615" height="79.20634920634919" fill="#595959" fill-opacity="1.0" stroke="none"/><rect x="224.08828394441653" y="207.98941798941797" width="2.8644902059266615" height="132.010582010582" fill="#595959" fill-opacity="1.0" stroke="none"/><rect x="226.9527741503432" y="234.39153439153438" width="2.8644902059266615" height="105.60846560846562" fill="#595959" fill-opacity="1.0" stroke="none"/><rect x="229.81726435626985" y="23.17460317460317" width="2.8644902059266615" height="316.8253968253968" fill="#595959" fill-opacity="1.0" stroke="none"/><rect x="232.68175456219652" y="313.5978835978836" width="2.8644902059266997" height="26.402116402116384" fill="#595959" fill-opacity="1.0" stroke="none"/><rect x="238.4107349740499" y="313.5978835978836" width="2.8644902059266615" height="26.402116402116384" fill="#595959" fill-opacity="1.0" stroke="none"/><rect x="241.27522517997653" y="313.5978835978836" width="2.8644902059266615" height="26.402116402116384" fill="#595959" fill-opacity="1.0" stroke="none"/><rect x="244.1397153859032" y="75.97883597883595" width="2.8644902059266615" height="264.02116402116405" fill="#595959" fill-opacity="1.0" stroke="none"/><rect x="252.73318600368322" y="75.97883597883595" width="2.8644902059266615" height="264.02116402116405" fill="#595959" fill-opacity="1.0" stroke="none"/><rect x="255.5976762096099" y="313.5978835978836" width="2.8644902059266615" height="26.402116402116384" fill="#595959" fill-opacity="1.0" stroke="none"/><rect x="258.46216641553656" y="207.98941798941797" width="2.8644902059266997" height="132.010582010582" fill="#595959" fill-opacity="1.0" stroke="none"/><rect x="267.05563703331654" y="181.5873015873016" width="2.8644902059266615" height="158.41269841269838" fill="#595959" fill-opacity="1.0" stroke="none"/><rect x="269.92012723924324" y="313.5978835978836" width="2.8644902059266615" height="26.402116402116384" fill="#595959" fill-opacity="1.0" stroke="none"/><rect x="272.7846174451699" y="207.98941798941797" width="2.8644902059266997" height="132.010582010582" fill="#595959" fill-opacity="1.0" stroke="none"/><rect x="281.3780880629499" y="181.5873015873016" width="2.8644902059266615" height="158.41269841269838" fill="#595959" fill-opacity="1.0" stroke="none"/><rect x="287.10706847480327" y="207.98941798941797" width="2.8644902059266615" height="132.010582010582" fill="#595959" fill-opacity="1.0" stroke="none"/><rect x="295.70053909258326" y="207.98941798941797" width="2.8644902059266615" height="132.010582010582" fill="#595959" fill-opacity="1.0" stroke="none"/><rect x="298.5650292985099" y="313.5978835978836" width="2.8644902059266997" height="26.402116402116384" fill="#595959" fill-opacity="1.0" stroke="none"/><rect x="301.4295195044366" y="128.78306878306879" width="2.8644902059266615" height="211.2169312169312" fill="#595959" fill-opacity="1.0" stroke="none"/><rect x="310.0229901222166" y="287.1957671957672" width="2.8644902059266997" height="52.80423280423281" fill="#595959" fill-opacity="1.0" stroke="none"/><rect x="312.8874803281433" y="313.5978835978836" width="2.8644902059266615" height="26.402116402116384" fill="#595959" fill-opacity="1.0" stroke="none"/><rect x="315.75197053407" y="128.78306878306879" width="2.8644902059266615" height="211.2169312169312" fill="#595959" fill-opacity="1.0" stroke="none"/><rect x="324.34544115184997" y="207.98941798941797" width="2.8644902059266997" height="132.010582010582" fill="#595959" fill-opacity="1.0" stroke="none"/><rect x="327.20993135777667" y="313.5978835978836" width="2.8644902059266615" height="26.402116402116384" fill="#595959" fill-opacity="1.0" stroke="none"/><rect x="330.0744215637033" y="260.7936507936508" width="2.8644902059266997" height="79.20634920634919" fill="#595959" fill-opacity="1.0" stroke="none"/><rect x="338.6678921814833" y="287.1957671957672" width="2.8644902059267374" height="52.80423280423281" fill="#595959" fill-opacity="1.0" stroke="none"/><rect x="341.53238238741005" y="313.5978835978836" width="2.8644902059266615" height="26.402116402116384" fill="#595959" fill-opacity="1.0" stroke="none"/><rect x="344.3968725933367" y="207.98941798941797" width="2.8644902059266615" height="132.010582010582" fill="#595959" fill-opacity="1.0" stroke="none"/><rect x="347.26136279926334" y="287.1957671957672" width="2.8644902059266615" height="52.80423280423281" fill="#595959" fill-opacity="1.0" stroke="none"/><rect x="352.9903432111167" y="207.98941798941797" width="2.8644902059266615" height="132.010582010582" fill="#595959" fill-opacity="1.0" stroke="none"/><rect x="355.8548334170433" y="313.5978835978836" width="2.8644902059266615" height="26.402116402116384" fill="#595959" fill-opacity="1.0" stroke="none"/><rect x="358.71932362297" y="181.5873015873016" width="2.8644902059267374" height="158.41269841269838" fill="#595959" fill-opacity="1.0" stroke="none"/><rect x="361.5838138288967" y="260.7936507936508" width="2.8644902059266615" height="79.20634920634919" fill="#595959" fill-opacity="1.0" stroke="none"/><rect x="367.31279424075" y="207.98941798941797" width="2.8644902059267374" height="132.010582010582" fill="#595959" fill-opacity="1.0" stroke="none"/><rect x="370.1772844466767" y="313.5978835978836" width="2.8644902059266615" height="26.402116402116384" fill="#595959" fill-opacity="1.0" stroke="none"/><rect x="373.0417746526034" y="260.7936507936508" width="2.8644902059266615" height="79.20634920634919" fill="#595959" fill-opacity="1.0" stroke="none"/><rect x="381.6352452703834" y="234.39153439153438" width="2.8644902059267374" height="105.60846560846562" fill="#595959" fill-opacity="1.0" stroke="none"/><rect x="384.4997354763101" y="260.7936507936508" width="2.864490205926586" height="79.20634920634919" fill="#595959" fill-opacity="1.0" stroke="none"/><rect x="387.3642256822367" y="287.1957671957672" width="2.8644902059266615" height="52.80423280423281" fill="#595959" fill-opacity="1.0" stroke="none"/><rect x="390.2287158881634" y="287.1957671957672" width="2.8644902059266615" height="52.80423280423281" fill="#595959" fill-opacity="1.0" stroke="none"/><rect x="395.95769630001666" y="287.1957671957672" width="2.8644902059267374" height="52.80423280423281" fill="#595959" fill-opacity="1.0" stroke="none"/><rect x="398.8221865059434" y="313.5978835978836" width="2.8644902059266615" height="26.402116402116384" fill="#595959" fill-opacity="1.0" stroke="none"/><rect x="401.68667671187006" y="181.5873015873016" width="2.864490205926586" height="158.41269841269838" fill="#595959" fill-opacity="1.0" stroke="none"/><rect x="410.28014732965005" y="260.7936507936508" width="2.8644902059266615" height="79.20634920634919" fill="#595959" fill-opacity="1.0" stroke="none"/><rect x="416.0091277415034" y="260.7936507936508" width="2.8644902059266615" height="79.20634920634919" fill="#595959" fill-opacity="1.0" stroke="none"/><rect x="424.6025983592834" y="287.1957671957672" width="2.8644902059267374" height="52.80423280423281" fill="#595959" fill-opacity="1.0" stroke="none"/><rect x="430.3315787711368" y="234.39153439153438" width="2.8644902059266615" height="105.60846560846562" fill="#595959" fill-opacity="1.0" stroke="none"/><rect x="438.92504938891676" y="260.7936507936508" width="2.8644902059266615" height="79.20634920634919" fill="#595959" fill-opacity="1.0" stroke="none"/><rect x="444.6540298007701" y="234.39153439153438" width="2.8644902059266615" height="105.60846560846562" fill="#595959" fill-opacity="1.0" stroke="none"/><rect x="453.24750041855015" y="260.7936507936508" width="2.864490205926586" height="79.20634920634919" fill="#595959" fill-opacity="1.0" stroke="none"/><rect x="458.9764808304035" y="207.98941798941797" width="2.8644902059266615" height="132.010582010582" fill="#595959" fill-opacity="1.0" stroke="none"/><rect x="467.5699514481835" y="313.5978835978836" width="2.8644902059266615" height="26.402116402116384" fill="#595959" fill-opacity="1.0" stroke="none"/><rect x="473.2989318600369" y="207.98941798941797" width="2.864490205926586" height="132.010582010582" fill="#595959" fill-opacity="1.0" stroke="none"/><rect x="481.89240247781686" y="181.5873015873016" width="2.8644902059266615" height="158.41269841269838" fill="#595959" fill-opacity="1.0" stroke="none"/><rect x="487.62138288967014" y="287.1957671957672" width="2.8644902059266615" height="52.80423280423281" fill="#595959" fill-opacity="1.0" stroke="none"/><rect x="496.21485350745013" y="260.7936507936508" width="2.8644902059266615" height="79.20634920634919" fill="#595959" fill-opacity="1.0" stroke="none"/><rect x="501.94383391930353" y="207.98941798941797" width="2.8644902059266615" height="132.010582010582" fill="#595959" fill-opacity="1.0" stroke="none"/><rect x="510.5373045370835" y="313.5978835978836" width="2.8644902059266615" height="26.402116402116384" fill="#595959" fill-opacity="1.0" stroke="none"/><rect x="516.2662849489368" y="287.1957671957672" width="2.8644902059266615" height="52.80423280423281" fill="#595959" fill-opacity="1.0" stroke="none"/><rect x="524.8597555667169" y="260.7936507936508" width="2.864490205926586" height="79.20634920634919" fill="#595959" fill-opacity="1.0" stroke="none"/><rect x="539.1822065963502" y="287.1957671957672" width="2.8644902059266615" height="52.80423280423281" fill="#595959" fill-opacity="1.0" stroke="none"/><rect x="544.9111870082036" y="287.1957671957672" width="2.8644902059266615" height="52.80423280423281" fill="#595959" fill-opacity="1.0" stroke="none"/><rect x="553.5046576259836" y="313.5978835978836" width="2.8644902059266615" height="26.402116402116384" fill="#595959" fill-opacity="1.0" stroke="none"/><rect x="587.8785400971036" y="313.5978835978836" width="2.8644902059266615" height="26.402116402116384" fill="#595959" fill-opacity="1.0" stroke="none"/></svg>