<svg xmlns="http://www.w3.org/2000/svg" width="800" height="600" viewBox="0 0 800 600"><rect x="0.0" y="0.0" width="800.0" height="600.0" fill="#ffffff" fill-opacity="1.0" stroke="none"/><line x1="135.84848484848484" y1="5.5" x2="135.84848484848484" y2="563.8" stroke="#dddddd" stroke-width="0.5"/><line x1="249.4090909090909" y1="5.5" x2="249.4090909090909" y2="563.8" stroke="#dddddd" stroke-width="0.5"/><line x1="362.969696969697" y1="5.5" x2="362.969696969697" y2="563.8" stroke="#dddddd" stroke-width="0.5"/><line x1="476.53030303030306" y1="5.5" x2="476.53030303030306" y2="563.8" stroke="#dddddd" stroke-width="0.5"/><line x1="590.0909090909091" y1="5.5" x2="590.0909090909091" y2="563.8" stroke="#dddddd" stroke-width="0.5"/><line x1="703.6515151515151" y1="5.5" x2="703.6515151515151" y2="563.8" stroke="#dddddd" stroke-width="0.5"/><line x1="79.06818181818181" y1="5.5" x2="79.06818181818181" y2="563.8" stroke="#dddddd" stroke-width="1.0"/><line x1="192.62878787878788" y1="5.5" x2="192.62878787878788" y2="563.8" stroke="#dddddd" stroke-width="1.0"/><line x1="306.18939393939394" y1="5.5" x2="306.18939393939394" y2="563.8" stroke="#dddddd" stroke-width="1.0"/><line x1="419.75" y1="5.5" x2="419.75" y2="563.8" stroke="#dddddd" stroke-width="1.0"/><line x1="533.310606060606" y1="5.5" x2="533.310606060606" y2="563.8" stroke="#dddddd" stroke-width="1.0"/><line x1="646.8712121212121" y1="5.5" x2="646.8712121212121" y2="563.8" stroke="#dddddd" stroke-width="1.0"/><line x1="760.4318181818182" y1="5.5" x2="760.4318181818182" y2="563.8" stroke="#dddddd" stroke-width="1.0"/><line x1="45.0" y1="513.8268528464017" x2="794.5" y2="513.8268528464017" stroke="#dddddd" stroke-width="0.5"/><line x1="45.0" y1="413.88055853920514" x2="794.5" y2="413.88055853920514" stroke="#dddddd" stroke-width="0.5"/><line x1="45.0" y1="313.93426423200856" x2="794.5" y2="313.93426423200856" stroke="#dddddd" stroke-width="0.5"/><line x1="45.0" y1="213.98796992481203" x2="794.5" y2="213.98796992481203" stroke="#dddddd" stroke-width="0.5"/><line x1="45.0" y1="114.04167561761545" x2="794.5" y2="114.04167561761545" stroke="#dddddd" stroke-width="0.5"/><line x1="45.0" y1="14.09538131041893" x2="794.5" y2="14.09538131041893" stroke="#dddddd" stroke-width="0.5"/><line x1="45.0" y1="563.8" x2="794.5" y2="563.8" stroke="#dddddd" stroke-width="1.0"/><line x1="45.0" y1="463.8537056928034" x2="794.5" y2="463.8537056928034" stroke="#dddddd" stroke-width="1.0"/><line x1="45.0" y1="363.90741138560685" x2="794.5" y2="363.90741138560685" stroke="#dddddd" stroke-width="1.0"/><line x1="45.0" y1="263.96111707841027" x2="794.5" y2="263.96111707841027" stroke="#dddddd" stroke-width="1.0"/><line x1="45.0" y1="164.01482277121374" x2="794.5" y2="164.01482277121374" stroke="#dddddd" stroke-width="1.0"/><line x1="45.0" y1="64.06852846401722" x2="794.5" y2="64.06852846401722" stroke="#dddddd" stroke-width="1.0"/><rect x="45.0" y="5.5" width="749.5" height="558.3" fill="#ffffff" fill-opacity="0.0" stroke="#444444" stroke-width="1.0"/><line x1="79.06818181818181" y1="563.8" x2="79.06818181818181" y2="566.55" stroke="#444444" stroke-width="1.0"/><text x="79.06818181818181" y="577.55" fill="#333333" font-size="11.0" font-family="sans-serif" text-anchor="middle">1000</text><line x1="192.62878787878788" y1="563.8" x2="192.62878787878788" y2="566.55" stroke="#444444" stroke-width="1.0"/><text x="192.62878787878788" y="577.55" fill="#333333" font-size="11.0" font-family="sans-serif" text-anchor="middle">2000</text><line x1="306.18939393939394" y1="563.8" x2="306.18939393939394" y2="566.55" stroke="#444444" stroke-width="1.0"/><text x="306.18939393939394" y="577.55" fill="#333333" font-size="11.0" font-family="sans-serif" text-anchor="middle">3000</text><line x1="419.75" y1="563.8" x2="419.75" y2="566.55" stroke="#444444" stroke-width="1.0"/><text x="419.75" y="577.55" fill="#333333" font-size="11.0" font-family="sans-serif" text-anchor="middle">4000</text><line x1="533.310606060606" y1="563.8" x2="533.310606060606" y2="566.55" stroke="#444444" stroke-width="1.0"/><text x="533.310606060606" y="577.55" fill="#333333" font-size="11.0" font-family="sans-serif" text-anchor="middle">5000</text><line x1="646.8712121212121" y1="563.8" x2="646.8712121212121" y2="566.55" stroke="#444444" stroke-width="1.0"/><text x="646.8712121212121" y="577.55" fill="#333333" font-size="11.0" font-family="sans-serif" text-anchor="middle">6000</text><line x1="760.4318181818182" y1="563.8" x2="760.4318181818182" y2="566.55" stroke="#444444" stroke-width="1.0"/><text x="760.4318181818182" y="577.55" fill="#333333" font-size="11.0" font-family="sans-serif" text-anchor="middle">7000</text><line x1="45.0" y1="563.8" x2="42.25" y2="563.8" stroke="#444444" stroke-width="1.0"/><text x="40.05" y="567.65" fill="#333333" font-size="11.0" font-family="sans-serif" text-anchor="end">0</text><line x1="45.0" y1="463.8537056928034" x2="42.25" y2="463.8537056928034" stroke="#444444" stroke-width="1.0"/><text x="40.05" y="467.7037056928034" fill="#333333" font-size="11.0" font-family="sans-serif" text-anchor="end">50</text><line x1="45.0" y1="363.90741138560685" x2="42.25" y2="363.90741138560685" stroke="#444444" stroke-width="1.0"/><text x="40.05" y="367.7574113856069" fill="#333333" font-size="11.0" font-family="sans-serif" text-anchor="end">100</text><line x1="45.0" y1="263.96111707841027" x2="42.25" y2="263.96111707841027" stroke="#444444" stroke-width="1.0"/><text x="40.05" y="267.8111170784103" fill="#333333" font-size="11.0" font-family="sans-serif" text-anchor="end">150</text><line x1="45.0" y1="164.01482277121374" x2="42.25" y2="164.01482277121374" stroke="#444444" stroke-width="1.0"/><text x="40.05" y="167.86482277121374" fill="#333333" font-size="11.0" font-family="sans-serif" text-anchor="end">200</text><line x1="45.0" y1="64.06852846401722" x2="42.25" y2="64.06852846401722" stroke="#444444" stroke-width="1.0"/><text x="40.05" y="67.91852846401721" fill="#333333" font-size="11.0" font-family="sans-serif" text-anchor="end">250</text><text x="419.75" y="592.1" fill="#333333" font-size="12.0" font-family="sans-serif" text-anchor="middle">body_mass_g</text><text x="13.899999999999999" y="284.65" fill="#333333" font-size="12.0" font-family="sans-serif" text-anchor="middle" transform="rotate(-90.0 13.899999999999999 284.65)">count</text><rect x="79.06818181818181" y="545.8096670247046" width="227.12121212121212" height="17.99033297529536" fill="#1f77b4" fill-opacity="0.7" stroke="none"/><rect x="306.18939393939394" y="32.08571428571429" width="227.12121212121207" height="531.7142857142857" fill="#1f77b4" fill-opacity="0.7" stroke="none"/><rect x="533.310606060606" y="429.8719656283566" width="227.12121212121224" height="133.92803437164338" fill="#1f77b4" fill-opacity="0.7" stroke="none"/></svg>