<svg xmlns="http://www.w3.org/2000/svg" width="624" height="384" viewBox="0 0 624 384"><rect x="0.0" y="0.0" width="624.0" height="384.0" fill="#ffffff" fill-opacity="1.0" stroke="none"/><rect x="67.46666666666667" y="7.333333333333333" width="549.1999999999999" height="332.66666666666663" fill="#ebebeb" fill-opacity="1.0" stroke="none"/><line x1="203.37979797979796" y1="7.333333333333333" x2="203.37979797979796" y2="340.0" stroke="#ffffff" stroke-width="0.6666666666666666"/><line x1="342.06666666666666" y1="7.333333333333333" x2="342.06666666666666" y2="340.0" stroke="#ffffff" stroke-width="0.6666666666666666"/><line x1="480.7535353535353" y1="7.333333333333333" x2="480.7535353535353" y2="340.0" stroke="#ffffff" stroke-width="0.6666666666666666"/><line x1="134.03636363636363" y1="7.333333333333333" x2="134.03636363636363" y2="340.0" stroke="#ffffff" stroke-width="1.3333333333333333"/><line x1="272.7232323232323" y1="7.333333333333333" x2="272.7232323232323" y2="340.0" stroke="#ffffff" stroke-width="1.3333333333333333"/><line x1="411.410101010101" y1="7.333333333333333" x2="411.410101010101" y2="340.0" stroke="#ffffff" stroke-width="1.3333333333333333"/><line x1="550.0969696969696" y1="7.333333333333333" x2="550.0969696969696" y2="340.0" stroke="#ffffff" stroke-width="1.3333333333333333"/><line x1="67.46666666666667" y1="308.77854700080934" x2="616.6666666666666" y2="308.77854700080934" stroke="#ffffff" stroke-width="0.6666666666666666"/><line x1="67.46666666666667" y1="246.33564100242816" x2="616.6666666666666" y2="246.33564100242816" stroke="#ffffff" stroke-width="0.6666666666666666"/><line x1="67.46666666666667" y1="183.89273500404693" x2="616.6666666666666" y2="183.89273500404693" stroke="#ffffff" stroke-width="0.6666666666666666"/><line x1="67.46666666666667" y1="121.44982900566572" x2="616.6666666666666" y2="121.44982900566572" stroke="#ffffff" stroke-width="0.6666666666666666"/><line x1="67.46666666666667" y1="59.00692300728447" x2="616.6666666666666" y2="59.00692300728447" stroke="#ffffff" stroke-width="0.6666666666666666"/><line x1="67.46666666666667" y1="340.0" x2="616.6666666666666" y2="340.0" stroke="#ffffff" stroke-width="1.3333333333333333"/><line x1="67.46666666666667" y1="277.55709400161874" x2="616.6666666666666" y2="277.55709400161874" stroke="#ffffff" stroke-width="1.3333333333333333"/><line x1="67.46666666666667" y1="215.11418800323753" x2="616.6666666666666" y2="215.11418800323753" stroke="#ffffff" stroke-width="1.3333333333333333"/><line x1="67.46666666666667" y1="152.67128200485632" x2="616.6666666666666" y2="152.67128200485632" stroke="#ffffff" stroke-width="1.3333333333333333"/><line x1="67.46666666666667" y1="90.22837600647509" x2="616.6666666666666" y2="90.22837600647509" stroke="#ffffff" stroke-width="1.3333333333333333"/><line x1="67.46666666666667" y1="27.78547000809389" x2="616.6666666666666" y2="27.78547000809389" stroke="#ffffff" stroke-width="1.3333333333333333"/><line x1="134.03636363636363" y1="340.0" x2="134.03636363636363" y2="343.66666666666663" stroke="#333333" stroke-width="1.3333333333333333"/><text x="134.03636363636363" y="355.9866666666667" fill="#4d4d4d" font-size="11.733333333333334" font-family="sans-serif" text-anchor="middle">3000</text><line x1="272.7232323232323" y1="340.0" x2="272.7232323232323" y2="343.66666666666663" stroke="#333333" stroke-width="1.3333333333333333"/><text x="272.7232323232323" y="355.9866666666667" fill="#4d4d4d" font-size="11.733333333333334" font-family="sans-serif" text-anchor="middle">4000</text><line x1="411.410101010101" y1="340.0" x2="411.410101010101" y2="343.66666666666663" stroke="#333333" stroke-width="1.3333333333333333"/><text x="411.410101010101" y="355.9866666666667" fill="#4d4d4d" font-size="11.733333333333334" font-family="sans-serif" text-anchor="middle">5000</text><line x1="550.0969696969696" y1="340.0" x2="550.0969696969696" y2="343.66666666666663" stroke="#333333" stroke-width="1.3333333333333333"/><text x="550.0969696969696" y="355.9866666666667" fill="#4d4d4d" font-size="11.733333333333334" font-family="sans-serif" text-anchor="middle">6000</text><line x1="67.46666666666667" y1="340.0" x2="63.8" y2="340.0" stroke="#333333" stroke-width="1.3333333333333333"/><text x="60.86666666666666" y="344.1066666666666" fill="#4d4d4d" font-size="11.733333333333334" font-family="sans-serif" text-anchor="end">0e+00</text><line x1="67.46666666666667" y1="277.55709400161874" x2="63.8" y2="277.55709400161874" stroke="#333333" stroke-width="1.3333333333333333"/><text x="60.86666666666666" y="281.6637606682854" fill="#4d4d4d" font-size="11.733333333333334" font-family="sans-serif" text-anchor="end">1e-04</text><line x1="67.46666666666667" y1="215.11418800323753" x2="63.8" y2="215.11418800323753" stroke="#333333" stroke-width="1.3333333333333333"/><text x="60.86666666666666" y="219.2208546699042" fill="#4d4d4d" font-size="11.733333333333334" font-family="sans-serif" text-anchor="end">2e-04</text><line x1="67.46666666666667" y1="152.67128200485632" x2="63.8" y2="152.67128200485632" stroke="#333333" stroke-width="1.3333333333333333"/><text x="60.86666666666666" y="156.777948671523" fill="#4d4d4d" font-size="11.733333333333334" font-family="sans-serif" text-anchor="end">3e-04</text><line x1="67.46666666666667" y1="90.22837600647509" x2="63.8" y2="90.22837600647509" stroke="#333333" stroke-width="1.3333333333333333"/><text x="60.86666666666666" y="94.33504267314176" fill="#4d4d4d" font-size="11.733333333333334" font-family="sans-serif" text-anchor="end">4e-04</text><line x1="67.46666666666667" y1="27.78547000809389" x2="63.8" y2="27.78547000809389" stroke="#333333" stroke-width="1.3333333333333333"/><text x="60.86666666666666" y="31.892136674760554" fill="#4d4d4d" font-size="11.733333333333334" font-family="sans-serif" text-anchor="end">5e-04</text><text x="342.06666666666666" y="373.73333333333335" fill="#000000" font-size="14.666666666666666" font-family="sans-serif" text-anchor="middle">body_mass_g</text><text x="17.599999999999998" y="173.66666666666666" fill="#000000" font-size="14.666666666666666" font-family="sans-serif" text-anchor="middle" transform="rotate(-90.0 17.599999999999998 173.66666666666666)">density</text><path d="M 67.46666666666667 324.3551894669606 L 73.01414141414142 320.16213936403193 L 78.56161616161616 315.1843543833495 L 84.1090909090909 309.3579565735068 L 89.65656565656566 302.62869672948034 L 95.2040404040404 294.95348509764176 L 100.75151515151515 286.30155116080533 L 106.29898989898989 276.6554641321412 L 111.84646464646465 266.0123216570843 L 117.39393939393939 254.38540554265683 L 122.94141414141413 241.80649482770286 L 128.48888888888888 228.32882817593241 L 134.03636363636363 214.03045633784805 L 139.58383838383838 199.01747900707744 L 145.1313131313131 183.42648412145695 L 150.67878787878786 167.42545729158704 L 156.22626262626264 151.21253432954012 L 161.77373737373733 135.01222383806822 L 167.3212121212121 119.06908459368393 L 172.86868686868686 103.63923047640185 L 178.41616161616162 88.98036967766298 L 183.96363636363634 75.34129154511004 L 189.5111111111111 62.95175084603583 L 195.05858585858584 52.013564628958534 L 200.60606060606057 42.693472589140995 L 206.15353535353535 35.117989901315276 L 211.7010101010101 29.37018449958604 L 217.24848484848485 25.48810919916574 L 222.79595959595957 23.4645520592638 L 228.34343434343432 23.247834070131223 L 233.89090909090908 24.743540655902088 L 239.4383838383838 27.817255806346225 L 244.98585858585858 32.29850252055621 L 250.5333333333333 37.986124214743725 L 256.080808080808 44.65524478933082 L 261.6282828282828 52.06573558326378 L 267.17575757575753 59.97184610464107 L 272.7232323232323 68.13239399903928 L 278.27070707070703 76.32073116466195 L 283.81818181818176 84.33366097920157 L 289.36565656565654 91.9985953755372 L 294.91313131313126 99.17848827586597 L 300.46060606060604 105.77440597340569 L 306.00808080808076 111.72591669672488 L 311.5555555555555 117.00972234096093 L 317.10303030303027 121.63705909041732 L 322.650505050505 125.65034320200414 L 328.19797979797977 129.11936125325704 L 333.7454545454545 132.137066184277 L 339.2929292929293 134.81482615608235 L 344.840404040404 137.2768613331258 L 350.3878787878788 139.65364280507575 L 355.93535353535356 142.07422089538966 L 361.4828282828283 144.65775219227578 L 367.030303030303 147.50482548969268 L 372.5777777777778 150.6894536380393 L 378.12525252525245 154.2527220213712 L 383.67272727272723 158.199021210143 L 389.220202020202 162.49554331102723 L 394.76767676767673 167.07533372525873 L 400.3151515151515 171.84373650618983 L 405.86262626262624 176.68763529919048 L 411.410101010101 181.48654534610628 L 416.9575757575758 186.12440319688463 L 422.5050505050506 190.5008476968966 L 428.05252525252524 194.5408793331832 L 433.59999999999997 198.2019965379812 L 439.14747474747475 201.4781986865276 L 444.69494949494947 204.40057646133295 L 450.24242424242425 207.034545079801 L 455.78989898989903 209.4740848321644 L 461.3373737373737 211.8336128225177 L 466.8848484848485 214.23830137023143 L 472.4323232323232 216.81376853191165 L 477.979797979798 219.6760860999431 L 483.5272727272727 222.92297825938437 L 489.0747474747475 226.6269263549416 L 494.62222222222226 230.8306683370495 L 500.16969696969693 235.545311633128 L 505.7171717171717 240.75099914097166 L 511.26464646464643 246.39981631300614 L 516.8121212121212 252.4204359131517 L 522.3595959595959 258.7238888634512 L 527.9070707070707 265.209832383303 L 533.4545454545455 271.7727511971535 L 539.0020202020202 278.3076502924752 L 544.5494949494949 284.7149465511825 L 550.0969696969696 290.9044094635035 L 555.6444444444444 296.7981138002839 L 561.1919191919192 302.3324383205122 L 566.739393939394 307.4591770351459 L 572.2868686868687 312.1458365198259 L 577.8343434343434 316.37519181157006 L 583.3818181818182 320.14417942943663 L 588.9292929292928 323.4622261555355 L 594.4767676767676 326.349144056804 L 600.0242424242424 328.83275595346635 L 605.5717171717172 330.94643830004776 L 611.119191919192 332.7267696460746 L 616.6666666666666 334.21144812320756" fill="" fill-opacity="0.0" stroke="#000000" stroke-width="1.8897637795275593"/></svg>