<svg xmlns="http://www.w3.org/2000/svg" width="800" height="600" viewBox="0 0 800 600"><rect x="0.0" y="0.0" width="800.0" height="600.0" fill="#ffffff" fill-opacity="1.0" stroke="none"/><line x1="245.38232323232324" y1="5.5" x2="245.38232323232324" y2="563.8" stroke="#dddddd" stroke-width="0.5"/><line x1="429.65000000000003" y1="5.5" x2="429.65000000000003" y2="563.8" stroke="#dddddd" stroke-width="0.5"/><line x1="613.9176767676768" y1="5.5" x2="613.9176767676768" y2="563.8" stroke="#dddddd" stroke-width="0.5"/><line x1="153.24848484848485" y1="5.5" x2="153.24848484848485" y2="563.8" stroke="#dddddd" stroke-width="1.0"/><line x1="337.51616161616164" y1="5.5" x2="337.51616161616164" y2="563.8" stroke="#dddddd" stroke-width="1.0"/><line x1="521.7838383838384" y1="5.5" x2="521.7838383838384" y2="563.8" stroke="#dddddd" stroke-width="1.0"/><line x1="706.0515151515151" y1="5.5" x2="706.0515151515151" y2="563.8" stroke="#dddddd" stroke-width="1.0"/><line x1="64.8" y1="511.4023931579716" x2="794.5" y2="511.4023931579716" stroke="#dddddd" stroke-width="0.5"/><line x1="64.8" y1="406.6071794739147" x2="794.5" y2="406.6071794739147" stroke="#dddddd" stroke-width="0.5"/><line x1="64.8" y1="301.81196578985794" x2="794.5" y2="301.81196578985794" stroke="#dddddd" stroke-width="0.5"/><line x1="64.8" y1="197.01675210580112" x2="794.5" y2="197.01675210580112" stroke="#dddddd" stroke-width="0.5"/><line x1="64.8" y1="92.22153842174424" x2="794.5" y2="92.22153842174424" stroke="#dddddd" stroke-width="0.5"/><line x1="64.8" y1="563.8" x2="794.5" y2="563.8" stroke="#dddddd" stroke-width="1.0"/><line x1="64.8" y1="459.00478631594314" x2="794.5" y2="459.00478631594314" stroke="#dddddd" stroke-width="1.0"/><line x1="64.8" y1="354.2095726318863" x2="794.5" y2="354.2095726318863" stroke="#dddddd" stroke-width="1.0"/><line x1="64.8" y1="249.4143589478295" x2="794.5" y2="249.4143589478295" stroke="#dddddd" stroke-width="1.0"/><line x1="64.8" y1="144.61914526377268" x2="794.5" y2="144.61914526377268" stroke="#dddddd" stroke-width="1.0"/><line x1="64.8" y1="39.82393157971592" x2="794.5" y2="39.82393157971592" stroke="#dddddd" stroke-width="1.0"/><rect x="64.8" y="5.5" width="729.7" height="558.3" fill="#ffffff" fill-opacity="0.0" stroke="#444444" stroke-width="1.0"/><line x1="153.24848484848485" y1="563.8" x2="153.24848484848485" y2="566.55" stroke="#444444" stroke-width="1.0"/><text x="153.24848484848485" y="577.55" fill="#333333" font-size="11.0" font-family="sans-serif" text-anchor="middle">3000</text><line x1="337.51616161616164" y1="563.8" x2="337.51616161616164" y2="566.55" stroke="#444444" stroke-width="1.0"/><text x="337.51616161616164" y="577.55" fill="#333333" font-size="11.0" font-family="sans-serif" text-anchor="middle">4000</text><line x1="521.7838383838384" y1="563.8" x2="521.7838383838384" y2="566.55" stroke="#444444" stroke-width="1.0"/><text x="521.7838383838384" y="577.55" fill="#333333" font-size="11.0" font-family="sans-serif" text-anchor="middle">5000</text><line x1="706.0515151515151" y1="563.8" x2="706.0515151515151" y2="566.55" stroke="#444444" stroke-width="1.0"/><text x="706.0515151515151" y="577.55" fill="#333333" font-size="11.0" font-family="sans-serif" text-anchor="middle">6000</text><line x1="64.8" y1="563.8" x2="62.05" y2="563.8" stroke="#444444" stroke-width="1.0"/><text x="59.849999999999994" y="567.65" fill="#333333" font-size="11.0" font-family="sans-serif" text-anchor="end">0</text><line x1="64.8" y1="459.00478631594314" x2="62.05" y2="459.00478631594314" stroke="#444444" stroke-width="1.0"/><text x="59.849999999999994" y="462.85478631594316" fill="#333333" font-size="11.0" font-family="sans-serif" text-anchor="end">0.0001</text><line x1="64.8" y1="354.2095726318863" x2="62.05" y2="354.2095726318863" stroke="#444444" stroke-width="1.0"/><text x="59.849999999999994" y="358.05957263188634" fill="#333333" font-size="11.0" font-family="sans-serif" text-anchor="end">0.0002</text><line x1="64.8" y1="249.4143589478295" x2="62.05" y2="249.4143589478295" stroke="#444444" stroke-width="1.0"/><text x="59.849999999999994" y="253.2643589478295" fill="#333333" font-size="11.0" font-family="sans-serif" text-anchor="end">0.0003</text><line x1="64.8" y1="144.61914526377268" x2="62.05" y2="144.61914526377268" stroke="#444444" stroke-width="1.0"/><text x="59.849999999999994" y="148.46914526377267" fill="#333333" font-size="11.0" font-family="sans-serif" text-anchor="end">0.0004</text><line x1="64.8" y1="39.82393157971592" x2="62.05" y2="39.82393157971592" stroke="#444444" stroke-width="1.0"/><text x="59.849999999999994" y="43.67393157971592" fill="#333333" font-size="11.0" font-family="sans-serif" text-anchor="end">0.0005</text><text x="429.65000000000003" y="592.1" fill="#333333" font-size="12.0" font-family="sans-serif" text-anchor="middle">body_mass_g</text><text x="13.899999999999999" y="284.65" fill="#333333" font-size="12.0" font-family="sans-serif" text-anchor="middle" transform="rotate(-90.0 13.899999999999999 284.65)">density</text><path d="M 64.8 537.543994827868 L 72.17070707070707 530.5069811831834 L 79.54141414141414 522.1529811189099 L 86.9121212121212 512.3747910470606 L 94.28282828282829 501.08136688597864 L 101.65353535353535 488.2003929759922 L 109.02424242424243 473.68022849622525 L 116.39494949494949 457.49162011515364 L 123.76565656565657 439.6296969373252 L 131.13636363636363 420.1167492418797 L 138.5070707070707 399.00611040773504 L 145.8777777777778 376.3871285690072 L 153.24848484848485 352.3907929060738 L 160.61919191919193 327.1951659207956 L 167.989898989899 301.0294772094471 L 175.36060606060607 274.17564971711334 L 182.73131313131313 246.96620616086852 L 190.10202020202019 219.7779295655115 L 197.4727272727273 193.0212522905423 L 204.84343434343435 167.12599912317182 L 212.2141414141414 142.524670514146 L 219.58484848484852 119.63479880651784 L 226.95555555555558 98.84197143489519 L 234.32626262626263 80.48488917539339 L 241.6969696969697 64.84338400756741 L 249.0676767676768 52.1297808474078 L 256.43838383838386 42.483488996349365 L 263.8090909090909 35.968370839361455 L 271.17979797979797 32.57232288984062 L 278.5505050505051 32.208614513088946 L 285.92121212121214 34.71879383223484 L 293.2919191919192 39.87727630265465 L 300.6626262626263 47.397957787254086 L 308.03333333333336 56.943245939152575 L 315.4040404040404 68.13574097960941 L 322.7747474747475 80.57244541924695 L 330.1454545454546 93.8409268944522 L 337.51616161616164 107.53641954808711 L 344.8868686868687 121.27854972714664 L 352.25757575757575 134.72630137681836 L 359.62828282828286 147.590027449386 L 366.9989898989899 159.6397294721923 L 374.36969696969703 170.7093713074721 L 381.7404040404041 180.69753294122694 L 389.11111111111114 189.56511417722993 L 396.4818181818182 197.33097221496985 L 403.85252525252525 204.0662924138644 L 411.22323232323237 209.88819455218464 L 418.5939393939394 214.95267750705966 L 425.96464646464653 219.4466456200625 L 433.3353535353536 223.57857219123485 L 440.70606060606065 227.56742117657456 L 448.07676767676776 231.62977212193198 L 455.4474747474748 235.96560034753776 L 462.8181818181818 240.74371965199026 L 470.1888888888889 246.08834258351908 L 477.559595959596 252.06842095550564 L 484.9303030303031 258.69132327141136 L 492.30101010101015 265.9019894705807 L 499.67171717171715 273.588052561559 L 507.0424242424243 281.59065558538816 L 514.4131313131313 289.71996028318046 L 521.7838383838384 297.77376232484306 L 529.1545454545454 305.5572774694009 L 536.5252525252525 312.90207395544303 L 543.8959595959597 319.68228336187224 L 551.2666666666667 325.8265771557762 L 558.6373737373738 331.32488474956426 L 566.0080808080808 336.22938428365387 L 573.3787878787879 340.6498592727041 L 580.749494949495 344.74403275089395 L 588.120202020202 348.7039259683716 L 595.4909090909091 352.73961018537136 L 602.8616161616161 357.0619047235459 L 610.2323232323232 361.8656078244435 L 617.6030303030303 367.31472573811914 L 624.9737373737373 373.53090075339844 L 632.3444444444444 380.5858581139521 L 639.7151515151514 388.4982389321905 L 647.0858585858585 397.2347178970074 L 654.4565656565657 406.71488210686766 L 661.8272727272728 416.8190261632643 L 669.1979797979798 427.39783713165775 L 676.5686868686869 438.2829140869682 L 683.939393939394 449.29717533077394 L 691.310101010101 460.2644122994657 L 698.6808080808081 471.01749897652866 L 706.0515151515151 481.4050054212646 L 713.4222222222222 491.29615311031614 L 720.7929292929293 500.584169281589 L 728.1636363636363 509.1881519200059 L 735.5343434343434 517.0535687245053 L 742.9050505050504 524.1515117887762 L 750.2757575757577 530.4768398059754 L 757.6464646464647 536.0453733345755 L 765.0171717171717 540.8903621049509 L 772.3878787878788 545.0584999463534 L 779.7585858585859 548.6058011109719 L 787.129292929293 551.5936537877859 L 794.5 554.085325111784" fill="" fill-opacity="0.0" stroke="#1f77b4" stroke-width="1.5"/></svg>