<svg xmlns="http://www.w3.org/2000/svg" width="624" height="384" viewBox="0 0 624 384"><rect x="0.0" y="0.0" width="624.0" height="384.0" fill="#ffffff" fill-opacity="1.0" stroke="none"/><rect x="60.42666666666666" y="7.333333333333333" width="556.24" height="332.66666666666663" fill="#ebebeb" fill-opacity="1.0" stroke="none"/><line x1="164.72166666666664" y1="7.333333333333333" x2="164.72166666666664" y2="340.0" stroke="#ffffff" stroke-width="1.3333333333333333"/><line x1="338.5466666666666" y1="7.333333333333333" x2="338.5466666666666" y2="340.0" stroke="#ffffff" stroke-width="1.3333333333333333"/><line x1="512.3716666666667" y1="7.333333333333333" x2="512.3716666666667" y2="340.0" stroke="#ffffff" stroke-width="1.3333333333333333"/><line x1="60.42666666666666" y1="267.9003074220465" x2="616.6666666666666" y2="267.9003074220465" stroke="#ffffff" stroke-width="0.6666666666666666"/><line x1="60.42666666666666" y1="180.24110671936756" x2="616.6666666666666" y2="180.24110671936756" stroke="#ffffff" stroke-width="0.6666666666666666"/><line x1="60.42666666666666" y1="92.58190601668862" x2="616.6666666666666" y2="92.58190601668862" stroke="#ffffff" stroke-width="0.6666666666666666"/><line x1="60.42666666666666" y1="311.729907773386" x2="616.6666666666666" y2="311.729907773386" stroke="#ffffff" stroke-width="1.3333333333333333"/><line x1="60.42666666666666" y1="224.07070707070707" x2="616.6666666666666" y2="224.07070707070707" stroke="#ffffff" stroke-width="1.3333333333333333"/><line x1="60.42666666666666" y1="136.4115063680281" x2="616.6666666666666" y2="136.4115063680281" stroke="#ffffff" stroke-width="1.3333333333333333"/><line x1="60.42666666666666" y1="48.75230566534913" x2="616.6666666666666" y2="48.75230566534913" stroke="#ffffff" stroke-width="1.3333333333333333"/><line x1="164.72166666666664" y1="340.0" x2="164.72166666666664" y2="343.66666666666663" stroke="#333333" stroke-width="1.3333333333333333"/><text x="164.72166666666664" y="355.9866666666667" fill="#4d4d4d" font-size="11.733333333333334" font-family="sans-serif" text-anchor="middle">Adelie</text><line x1="338.5466666666666" y1="340.0" x2="338.5466666666666" y2="343.66666666666663" stroke="#333333" stroke-width="1.3333333333333333"/><text x="338.5466666666666" y="355.9866666666667" fill="#4d4d4d" font-size="11.733333333333334" font-family="sans-serif" text-anchor="middle">Chinstrap</text><line x1="512.3716666666667" y1="340.0" x2="512.3716666666667" y2="343.66666666666663" stroke="#333333" stroke-width="1.3333333333333333"/><text x="512.3716666666667" y="355.9866666666667" fill="#4d4d4d" font-size="11.733333333333334" font-family="sans-serif" text-anchor="middle">Gentoo</text><line x1="60.42666666666666" y1="311.729907773386" x2="56.76" y2="311.729907773386" stroke="#333333" stroke-width="1.3333333333333333"/><text x="53.82666666666666" y="315.8365744400527" fill="#4d4d4d" font-size="11.733333333333334" font-family="sans-serif" text-anchor="end">3000</text><line x1="60.42666666666666" y1="224.07070707070707" x2="56.76" y2="224.07070707070707" stroke="#333333" stroke-width="1.3333333333333333"/><text x="53.82666666666666" y="228.17737373737376" fill="#4d4d4d" font-size="11.733333333333334" font-family="sans-serif" text-anchor="end">4000</text><line x1="60.42666666666666" y1="136.4115063680281" x2="56.76" y2="136.4115063680281" stroke="#333333" stroke-width="1.3333333333333333"/><text x="53.82666666666666" y="140.51817303469477" fill="#4d4d4d" font-size="11.733333333333334" font-family="sans-serif" text-anchor="end">5000</text><line x1="60.42666666666666" y1="48.75230566534913" x2="56.76" y2="48.75230566534913" stroke="#333333" stroke-width="1.3333333333333333"/><text x="53.82666666666666" y="52.85897233201579" fill="#4d4d4d" font-size="11.733333333333334" font-family="sans-serif" text-anchor="end">6000</text><text x="338.5466666666666" y="373.73333333333335" fill="#000000" font-size="14.666666666666666" font-family="sans-serif" text-anchor="middle">species</text><text x="17.599999999999998" y="173.66666666666666" fill="#000000" font-size="14.666666666666666" font-family="sans-serif" text-anchor="middle" transform="rotate(-90.0 17.599999999999998 173.66666666666666)">body_mass_g</text><rect x="121.26541666666665" y="224.07070707070707" width="86.9125" height="56.97848045674133" fill="#ffffff" fill-opacity="1.0" stroke="#333333" stroke-width="1.3333333333333333"/><line x1="121.26541666666665" y1="250.36846728151073" x2="208.17791666666665" y2="250.36846728151073" stroke="#333333" stroke-width="2.6666666666666665"/><line x1="164.72166666666664" y1="281.0491875274484" x2="164.72166666666664" y2="324.8787878787879" stroke="#333333" stroke-width="1.3333333333333333"/><line x1="164.72166666666664" y1="224.07070707070707" x2="164.72166666666664" y2="156.13482652613087" stroke="#333333" stroke-width="1.3333333333333333"/><line x1="142.99354166666666" y1="324.8787878787879" x2="186.44979166666667" y2="324.8787878787879" stroke="#333333" stroke-width="1.3333333333333333"/><line x1="142.99354166666666" y1="156.13482652613087" x2="186.44979166666667" y2="156.13482652613087" stroke="#333333" stroke-width="1.3333333333333333"/><rect x="295.09041666666667" y="228.453667105841" width="86.9125" height="40.54238032498904" fill="#ffffff" fill-opacity="1.0" stroke="#333333" stroke-width="1.3333333333333333"/><line x1="295.09041666666667" y1="250.36846728151073" x2="382.00291666666664" y2="250.36846728151073" stroke="#333333" stroke-width="2.6666666666666665"/><line x1="338.5466666666666" y1="268.99604743083" x2="338.5466666666666" y2="320.4958278436539" stroke="#333333" stroke-width="1.3333333333333333"/><line x1="338.5466666666666" y1="228.453667105841" x2="338.5466666666666" y2="175.85814668423365" stroke="#333333" stroke-width="1.3333333333333333"/><line x1="316.81854166666665" y1="320.4958278436539" x2="360.2747916666666" y2="320.4958278436539" stroke="#333333" stroke-width="1.3333333333333333"/><line x1="316.81854166666665" y1="175.85814668423365" x2="360.2747916666666" y2="175.85814668423365" stroke="#333333" stroke-width="1.3333333333333333"/><circle cx="338.5466666666666" cy="338.0276679841897" r="3.1181102362204727" fill="#333333" fill-opacity="1.0" stroke="#333333" stroke-width="1.3333333333333333"/><circle cx="338.5466666666666" cy="153.9433465085639" r="3.1181102362204727" fill="#333333" fill-opacity="1.0" stroke="#333333" stroke-width="1.3333333333333333"/><rect x="468.9154166666666" y="92.58190601668862" width="86.9125" height="70.12736056214317" fill="#ffffff" fill-opacity="1.0" stroke="#333333" stroke-width="1.3333333333333333"/><line x1="468.9154166666666" y1="136.4115063680281" x2="555.8279166666666" y2="136.4115063680281" stroke="#333333" stroke-width="2.6666666666666665"/><line x1="512.3716666666667" y1="162.70926657883177" x2="512.3716666666667" y2="228.453667105841" stroke="#333333" stroke-width="1.3333333333333333"/><line x1="512.3716666666667" y1="92.58190601668862" x2="512.3716666666667" y2="22.454545454545457" stroke="#333333" stroke-width="1.3333333333333333"/><line x1="490.64354166666664" y1="228.453667105841" x2="534.0997916666666" y2="228.453667105841" stroke="#333333" stroke-width="1.3333333333333333"/><line x1="490.64354166666664" y1="22.454545454545457" x2="534.0997916666666" y2="22.454545454545457" stroke="#333333" stroke-width="1.3333333333333333"/></svg>