<svg xmlns="http://www.w3.org/2000/svg" width="800" height="600" viewBox="0 0 800 600"><rect x="0.0" y="0.0" width="800.0" height="600.0" fill="#ffffff" fill-opacity="1.0" stroke="none"/><line x1="190.89374999999998" y1="5.5" x2="190.89374999999998" y2="563.8" stroke="#dddddd" stroke-width="1.0"/><line x1="423.04999999999995" y1="5.5" x2="423.04999999999995" y2="563.8" stroke="#dddddd" stroke-width="1.0"/><line x1="655.20625" y1="5.5" x2="655.20625" y2="563.8" stroke="#dddddd" stroke-width="1.0"/><line x1="51.599999999999994" y1="442.7982213438735" x2="794.5" y2="442.7982213438735" stroke="#dddddd" stroke-width="0.5"/><line x1="51.599999999999994" y1="295.68359683794466" x2="794.5" y2="295.68359683794466" stroke="#dddddd" stroke-width="0.5"/><line x1="51.599999999999994" y1="148.56897233201585" x2="794.5" y2="148.56897233201585" stroke="#dddddd" stroke-width="0.5"/><line x1="51.599999999999994" y1="516.3555335968379" x2="794.5" y2="516.3555335968379" stroke="#dddddd" stroke-width="1.0"/><line x1="51.599999999999994" y1="369.24090909090904" x2="794.5" y2="369.24090909090904" stroke="#dddddd" stroke-width="1.0"/><line x1="51.599999999999994" y1="222.12628458498023" x2="794.5" y2="222.12628458498023" stroke="#dddddd" stroke-width="1.0"/><line x1="51.599999999999994" y1="75.01166007905135" x2="794.5" y2="75.01166007905135" stroke="#dddddd" stroke-width="1.0"/><rect x="51.599999999999994" y="5.5" width="742.9" height="558.3" fill="#ffffff" fill-opacity="0.0" stroke="#444444" stroke-width="1.0"/><line x1="190.89374999999998" y1="563.8" x2="190.89374999999998" y2="566.55" stroke="#444444" stroke-width="1.0"/><text x="190.89374999999998" y="577.55" fill="#333333" font-size="11.0" font-family="sans-serif" text-anchor="middle">Adelie</text><line x1="423.04999999999995" y1="563.8" x2="423.04999999999995" y2="566.55" stroke="#444444" stroke-width="1.0"/><text x="423.04999999999995" y="577.55" fill="#333333" font-size="11.0" font-family="sans-serif" text-anchor="middle">Chinstrap</text><line x1="655.20625" y1="563.8" x2="655.20625" y2="566.55" stroke="#444444" stroke-width="1.0"/><text x="655.20625" y="577.55" fill="#333333" font-size="11.0" font-family="sans-serif" text-anchor="middle">Gentoo</text><line x1="51.599999999999994" y1="516.3555335968379" x2="48.849999999999994" y2="516.3555335968379" stroke="#444444" stroke-width="1.0"/><text x="46.64999999999999" y="520.2055335968379" fill="#333333" font-size="11.0" font-family="sans-serif" text-anchor="end">3000</text><line x1="51.599999999999994" y1="369.24090909090904" x2="48.849999999999994" y2="369.24090909090904" stroke="#444444" stroke-width="1.0"/><text x="46.64999999999999" y="373.09090909090907" fill="#333333" font-size="11.0" font-family="sans-serif" text-anchor="end">4000</text><line x1="51.599999999999994" y1="222.12628458498023" x2="48.849999999999994" y2="222.12628458498023" stroke="#444444" stroke-width="1.0"/><text x="46.64999999999999" y="225.97628458498022" fill="#333333" font-size="11.0" font-family="sans-serif" text-anchor="end">5000</text><line x1="51.599999999999994" y1="75.01166007905135" x2="48.849999999999994" y2="75.01166007905135" stroke="#444444" stroke-width="1.0"/><text x="46.64999999999999" y="78.86166007905135" fill="#333333" font-size="11.0" font-family="sans-serif" text-anchor="end">6000</text><text x="423.04999999999995" y="592.1" fill="#333333" font-size="12.0" font-family="sans-serif" text-anchor="middle">species</text><text x="13.899999999999999" y="284.65" fill="#333333" font-size="12.0" font-family="sans-serif" text-anchor="middle" transform="rotate(-90.0 13.899999999999999 284.65)">body_mass_g</text><rect x="132.85468749999998" y="369.24090909090904" width="116.07812499999999" height="95.62450592885375" fill="#1f77b4" fill-opacity="0.4" stroke="#1f77b4" stroke-width="1.0"/><line x1="132.85468749999998" y1="413.3752964426877" x2="248.93281249999998" y2="413.3752964426877" stroke="#1f77b4" stroke-width="2.0"/><line x1="190.89374999999998" y1="464.8654150197628" x2="190.89374999999998" y2="538.4227272727272" stroke="#1f77b4" stroke-width="1.0"/><line x1="190.89374999999998" y1="369.24090909090904" x2="190.89374999999998" y2="255.22707509881423" stroke="#1f77b4" stroke-width="1.0"/><line x1="161.87421874999998" y1="538.4227272727272" x2="219.91328124999998" y2="538.4227272727272" stroke="#1f77b4" stroke-width="1.0"/><line x1="161.87421874999998" y1="255.22707509881423" x2="219.91328124999998" y2="255.22707509881423" stroke="#1f77b4" stroke-width="1.0"/><rect x="365.01093749999995" y="376.5966403162055" width="116.07812499999999" height="68.04051383399212" fill="#1f77b4" fill-opacity="0.4" stroke="#1f77b4" stroke-width="1.0"/><line x1="365.01093749999995" y1="413.3752964426877" x2="481.08906249999995" y2="413.3752964426877" stroke="#1f77b4" stroke-width="2.0"/><line x1="423.04999999999995" y1="444.6371541501976" x2="423.04999999999995" y2="531.0669960474307" stroke="#1f77b4" stroke-width="1.0"/><line x1="423.04999999999995" y1="376.5966403162055" x2="423.04999999999995" y2="288.3278656126482" stroke="#1f77b4" stroke-width="1.0"/><line x1="394.03046874999995" y1="531.0669960474307" x2="452.06953124999995" y2="531.0669960474307" stroke="#1f77b4" stroke-width="1.0"/><line x1="394.03046874999995" y1="288.3278656126482" x2="452.06953124999995" y2="288.3278656126482" stroke="#1f77b4" stroke-width="1.0"/><rect x="597.1671875" y="148.56897233201585" width="116.07812499999999" height="117.69169960474301" fill="#1f77b4" fill-opacity="0.4" stroke="#1f77b4" stroke-width="1.0"/><line x1="597.1671875" y1="222.12628458498023" x2="713.2453125" y2="222.12628458498023" stroke="#1f77b4" stroke-width="2.0"/><line x1="655.20625" y1="266.26067193675885" x2="655.20625" y2="376.5966403162055" stroke="#1f77b4" stroke-width="1.0"/><line x1="655.20625" y1="148.56897233201585" x2="655.20625" y2="30.877272727272725" stroke="#1f77b4" stroke-width="1.0"/><line x1="626.18671875" y1="376.5966403162055" x2="684.22578125" y2="376.5966403162055" stroke="#1f77b4" stroke-width="1.0"/><line x1="626.18671875" y1="30.877272727272725" x2="684.22578125" y2="30.877272727272725" stroke="#1f77b4" stroke-width="1.0"/></svg>