<svg xmlns="http://www.w3.org/2000/svg" width="624" height="384" viewBox="0 0 624 384"><rect x="0.0" y="0.0" width="624.0" height="384.0" fill="#ffffff" fill-opacity="1.0" stroke="none"/><rect x="81.54666666666665" y="7.333333333333333" width="430.72325333333333" height="332.66666666666663" fill="#ebebeb" fill-opacity="1.0" stroke="none"/><line x1="188.13979501683502" y1="7.333333333333333" x2="188.13979501683502" y2="340.0" stroke="#ffffff" stroke-width="0.6666666666666666"/><line x1="296.90829333333335" y1="7.333333333333333" x2="296.90829333333335" y2="340.0" stroke="#ffffff" stroke-width="0.6666666666666666"/><line x1="405.67679164983167" y1="7.333333333333333" x2="405.67679164983167" y2="340.0" stroke="#ffffff" stroke-width="0.6666666666666666"/><line x1="133.75554585858586" y1="7.333333333333333" x2="133.75554585858586" y2="340.0" stroke="#ffffff" stroke-width="1.3333333333333333"/><line x1="242.5240441750842" y1="7.333333333333333" x2="242.5240441750842" y2="340.0" stroke="#ffffff" stroke-width="1.3333333333333333"/><line x1="351.29254249158254" y1="7.333333333333333" x2="351.29254249158254" y2="340.0" stroke="#ffffff" stroke-width="1.3333333333333333"/><line x1="460.0610408080809" y1="7.333333333333333" x2="460.0610408080809" y2="340.0" stroke="#ffffff" stroke-width="1.3333333333333333"/><line x1="81.54666666666665" y1="301.495993246912" x2="512.26992" y2="301.495993246912" stroke="#ffffff" stroke-width="0.6666666666666666"/><line x1="81.54666666666665" y1="224.48797974073605" x2="512.26992" y2="224.48797974073605" stroke="#ffffff" stroke-width="0.6666666666666666"/><line x1="81.54666666666665" y1="147.4799662345601" x2="512.26992" y2="147.4799662345601" stroke="#ffffff" stroke-width="0.6666666666666666"/><line x1="81.54666666666665" y1="70.47195272838417" x2="512.26992" y2="70.47195272838417" stroke="#ffffff" stroke-width="0.6666666666666666"/><line x1="81.54666666666665" y1="340.0" x2="512.26992" y2="340.0" stroke="#ffffff" stroke-width="1.3333333333333333"/><line x1="81.54666666666665" y1="262.991986493824" x2="512.26992" y2="262.991986493824" stroke="#ffffff" stroke-width="1.3333333333333333"/><line x1="81.54666666666665" y1="185.9839729876481" x2="512.26992" y2="185.9839729876481" stroke="#ffffff" stroke-width="1.3333333333333333"/><line x1="81.54666666666665" y1="108.97595948147216" x2="512.26992" y2="108.97595948147216" stroke="#ffffff" stroke-width="1.3333333333333333"/><line x1="81.54666666666665" y1="31.967945975296175" x2="512.26992" y2="31.967945975296175" stroke="#ffffff" stroke-width="1.3333333333333333"/><line x1="133.75554585858586" y1="340.0" x2="133.75554585858586" y2="343.66666666666663" stroke="#333333" stroke-width="1.3333333333333333"/><text x="133.75554585858586" y="355.9866666666667" fill="#4d4d4d" font-size="11.733333333333334" font-family="sans-serif" text-anchor="middle">3000</text><line x1="242.5240441750842" y1="340.0" x2="242.5240441750842" y2="343.66666666666663" stroke="#333333" stroke-width="1.3333333333333333"/><text x="242.5240441750842" y="355.9866666666667" fill="#4d4d4d" font-size="11.733333333333334" font-family="sans-serif" text-anchor="middle">4000</text><line x1="351.29254249158254" y1="340.0" x2="351.29254249158254" y2="343.66666666666663" stroke="#333333" stroke-width="1.3333333333333333"/><text x="351.29254249158254" y="355.9866666666667" fill="#4d4d4d" font-size="11.733333333333334" font-family="sans-serif" text-anchor="middle">5000</text><line x1="460.0610408080809" y1="340.0" x2="460.0610408080809" y2="343.66666666666663" stroke="#333333" stroke-width="1.3333333333333333"/><text x="460.0610408080809" y="355.9866666666667" fill="#4d4d4d" font-size="11.733333333333334" font-family="sans-serif" text-anchor="middle">6000</text><line x1="81.54666666666665" y1="340.0" x2="77.88" y2="340.0" stroke="#333333" stroke-width="1.3333333333333333"/><text x="74.94666666666666" y="344.1066666666666" fill="#4d4d4d" font-size="11.733333333333334" font-family="sans-serif" text-anchor="end">0.00000</text><line x1="81.54666666666665" y1="262.991986493824" x2="77.88" y2="262.991986493824" stroke="#333333" stroke-width="1.3333333333333333"/><text x="74.94666666666666" y="267.0986531604907" fill="#4d4d4d" font-size="11.733333333333334" font-family="sans-serif" text-anchor="end">0.00025</text><line x1="81.54666666666665" y1="185.9839729876481" x2="77.88" y2="185.9839729876481" stroke="#333333" stroke-width="1.3333333333333333"/><text x="74.94666666666666" y="190.09063965431477" fill="#4d4d4d" font-size="11.733333333333334" font-family="sans-serif" text-anchor="end">0.00050</text><line x1="81.54666666666665" y1="108.97595948147216" x2="77.88" y2="108.97595948147216" stroke="#333333" stroke-width="1.3333333333333333"/><text x="74.94666666666666" y="113.08262614813881" fill="#4d4d4d" font-size="11.733333333333334" font-family="sans-serif" text-anchor="end">0.00075</text><line x1="81.54666666666665" y1="31.967945975296175" x2="77.88" y2="31.967945975296175" stroke="#333333" stroke-width="1.3333333333333333"/><text x="74.94666666666666" y="36.07461264196284" fill="#4d4d4d" font-size="11.733333333333334" font-family="sans-serif" text-anchor="end">0.00100</text><text x="296.9082933333333" y="373.73333333333335" fill="#000000" font-size="14.666666666666666" font-family="sans-serif" text-anchor="middle">body_mass_g</text><text x="17.599999999999998" y="173.66666666666666" fill="#000000" font-size="14.666666666666666" font-family="sans-serif" text-anchor="middle" transform="rotate(-90.0 17.599999999999998 173.66666666666666)">density</text><path d="M 81.54666666666665 335.84063878832575 L 85.89740659932659 333.3786719379359 L 90.24814653198652 329.89047709710024 L 94.59888646464645 325.17481988869446 L 98.94962639730639 319.08410688012793 L 103.30036632996632 311.5553419171108 L 107.65110626262626 302.62870405497154 L 112.00184619528619 292.4468292392411 L 116.35258612794613 281.233098884391 L 120.70332606060606 269.25371199174737 L 125.05406599326598 256.77348548667567 L 129.40480592592593 244.017098355993 L 133.75554585858586 231.14533583002017 L 138.1062857912458 218.25103907561538 L 142.4570257239057 205.37411031856374 L 146.80776565656566 192.53088386051581 L 151.1585055892256 179.75099554223894 L 155.50924552188553 167.1139355719222 L 159.85998545454544 154.77692211771597 L 164.21072538720537 142.9856284732262 L 168.5614653198653 132.06082557604844 L 172.91220525252527 122.35862794466743 L 177.26294518518517 114.20996154199754 L 181.61368511784514 107.85396536997821 L 185.96442505050504 103.38615782557417 L 190.315164983165 100.74118306400597 L 194.66590491582497 99.72024861368254 L 199.01664484848484 100.05766619032347 L 203.3673847811448 101.50549048303074 L 207.71812471380468 103.90705819208279 L 212.06886464646465 107.23326503473989 L 216.4196045791246 111.5686232747599 L 220.77034451178451 117.05203632686258 L 225.12108444444448 123.79279490554532 L 229.47182437710438 131.79023136462175 L 233.82256430976432 140.88391985449053 L 238.17330424242428 150.75166353728747 L 242.5240441750842 160.9580423356879 L 246.87478410774412 171.0409770144509 L 251.22552404040405 180.6116717836714 L 255.576263973064 189.43812114865642 L 259.92700390572395 197.4864208248403 L 264.27774383838386 204.90698999927423 L 268.62848377104376 211.97065321173787 L 272.9792237037037 218.97602681312415 L 277.32996363636363 226.15854221684936 L 281.6807035690236 233.6293633748982 L 286.0314435016835 241.3605325264129 L 290.38218343434346 249.21586674522086 L 294.7329233670034 257.01189311826147 L 299.0836632996633 264.5847017050364 L 303.43440323232323 271.8392407964117 L 307.7851431649832 278.7661309284012 L 312.1358830976431 285.4238596804645 L 316.486623030303 291.8965149626771 L 320.83736296296297 298.2448386583774 L 325.18810289562293 304.46903782128015 L 329.5388428282829 310.49580490480713 L 333.88958276094274 316.19214149161746 L 338.2403226936027 321.39890093894815 L 342.59106262626267 325.9710761978649 L 346.9418025589226 329.81145899721645 L 351.29254249158254 332.8886616323225 L 355.64328242424244 335.2371258607757 L 359.9940223569024 336.942740575099 L 364.34476228956237 338.12104363025026 L 368.6955022222222 338.8952060872077 L 373.0462421548822 339.37891922457095 L 377.3969820875421 339.66635319383323 L 381.74772202020205 339.8287999013053 L 386.098461952862 339.916124915449 L 390.4492018855219 339.96077806661754 L 394.7999418181819 339.98249895479114 L 399.1506817508417 339.9925505673088 L 403.5014216835017 339.9969758537348 L 407.85216161616165 339.99882940143436 L 412.20290154882156 339.9995680318383 L 416.5536414814815 339.99984806643965 L 420.9043814141414 339.999949074003 L 425.2551213468014 339.9999837355197 L 429.60586127946135 339.99999505129557 L 433.9566012121213 339.99999856572026 L 438.3073411447813 339.99999960407615 L 442.65808107744107 339.99999989591856 L 447.00882101010103 339.9999999739462 L 451.359560942761 339.9999999937904 L 455.71030087542096 339.999999998591 L 460.0610408080809 339.99999999969566 L 464.4117807407407 339.9999999999374 L 468.7625206734007 339.9999999999877 L 473.11326060606063 339.9999999999977 L 477.4640005387206 339.99999999999955 L 481.81474047138056 339.9999999999999 L 486.1654804040405 340.0 L 490.51622033670037 340.0 L 494.86696026936033 340.0 L 499.2177002020203 340.0 L 503.56844013468026 340.0 L 507.9191800673402 340.0 L 512.26992 340.0" fill="" fill-opacity="0.0" stroke="#F8766D" stroke-width="1.8897637795275593"/><path d="M 81.54666666666665 332.92118805789795 L 85.89740659932659 330.9042347345582 L 90.24814653198652 328.78089810866163 L 94.59888646464645 326.6767355985818 L 98.94962639730639 324.7056830950592 L 103.30036632996632 322.93427963166994 L 107.65110626262626 321.34418519680554 L 112.00184619528619 319.79812793616065 L 116.35258612794613 318.0151240752867 L 120.70332606060606 315.5625429646145 L 125.05406599326598 311.8743159856956 L 129.40480592592593 306.3037213336837 L 133.75554585858586 298.2131021240611 L 138.1062857912458 287.09119861717556 L 142.4570257239057 272.67474876546487 L 146.80776565656566 255.04088782295085 L 151.1585055892256 234.63713773882742 L 155.50924552188553 212.22953662512901 L 159.85998545454544 188.77402966643973 L 164.21072538720537 165.24334422710788 L 168.5614653198653 142.46036470285108 L 172.91220525252527 120.99070603326106 L 177.26294518518517 101.12909397523427 L 181.61368511784514 82.98150693411469 L 185.96442505050504 66.60944031538732 L 190.315164983165 52.17793572362041 L 194.66590491582497 40.04574836004921 L 199.01664484848484 30.75694550268641 L 203.3673847811448 24.93140423704517 L 207.71812471380468 23.092511280526686 L 212.06886464646465 25.497120933081227 L 216.4196045791246 32.03369425216738 L 220.77034451178451 42.22825640171565 L 225.12108444444448 55.3549181748308 L 229.47182437710438 70.60642642186352 L 233.82256430976432 87.25837246587021 L 238.17330424242428 104.76751584951606 L 242.5240441750842 122.77642380934446 L 246.87478410774412 141.03838868127065 L 251.22552404040405 159.30947665374475 L 255.576263973064 177.26460343470902 L 259.92700390572395 194.47887565866426 L 264.27774383838386 210.48294891963633 L 268.62848377104376 224.86742723789672 L 272.9792237037037 237.3909806260836 L 277.32996363636363 248.04711559043403 L 281.6807035690236 257.0630420542796 L 286.0314435016835 264.83132810126773 L 290.38218343434346 271.7994494911631 L 294.7329233670034 278.3552012236467 L 299.0836632996633 284.74405893915866 L 303.43440323232323 291.0403749510842 L 307.7851431649832 297.17403196307407 L 312.1358830976431 302.99546947287627 L 316.486623030303 308.35127591546615 L 320.83736296296297 313.14297256942433 L 325.18810289562293 317.3520243549434 L 329.5388428282829 321.02947260761664 L 333.88958276094274 324.262202239761 L 338.2403226936027 327.1343894551053 L 342.59106262626267 329.70048941076504 L 346.9418025589226 331.97768537429806 L 351.29254249158254 333.95590182926094 L 355.64328242424244 335.61683592773113 L 359.9940223569024 336.9520944184116 L 364.34476228956237 337.9736308847819 L 368.6955022222222 338.7146500816232 L 373.0462421548822 339.22330362782435 L 377.3969820875421 339.55337705846614 L 381.74772202020205 339.7557910275832 L 386.098461952862 339.8730939499121 L 390.4492018855219 339.93734702479685 L 394.7999418181819 339.97062169027936 L 399.1506817508417 339.98691846715855 L 403.5014216835017 339.9944692775712 L 407.85216161616165 339.9977799758859 L 412.20290154882156 339.99915402236707 L 416.5536414814815 339.99969396840123 L 420.9043814141414 339.999894908796 L 425.2551213468014 339.9999657429746 L 429.60586127946135 339.999989399914 L 433.9566012121213 339.99999688655765 L 438.3073411447813 339.99999913195825 L 442.65808107744107 339.999999770276 L 447.00882101010103 339.999999942292 L 451.359560942761 339.99999998623963 L 455.71030087542096 339.9999999968855 L 460.0610408080809 339.99999999933084 L 464.4117807407407 339.9999999998635 L 468.7625206734007 339.99999999997357 L 473.11326060606063 339.9999999999951 L 477.4640005387206 339.99999999999915 L 481.81474047138056 339.99999999999983 L 486.1654804040405 339.99999999999994 L 490.51622033670037 340.0 L 494.86696026936033 340.0 L 499.2177002020203 340.0 L 503.56844013468026 340.0 L 507.9191800673402 340.0 L 512.26992 340.0" fill="" fill-opacity="0.0" stroke="#00BA38" stroke-width="1.8897637795275593"/><path d="M 81.54666666666665 339.99999999989205 L 85.89740659932659 339.99999999958175 L 90.24814653198652 339.99999999843976 L 94.59888646464645 339.99999999439825 L 98.94962639730639 339.99999998064146 L 103.30036632996632 339.9999999356048 L 107.65110626262626 339.9999997938023 L 112.00184619528619 339.99999936439485 L 116.35258612794613 339.99999811377984 L 120.70332606060606 339.9999946107009 L 125.05406599326598 339.9999851732077 L 129.40480592592593 339.99996071878627 L 133.75554585858586 339.9998997689366 L 138.1062857912458 339.9997536415502 L 142.4570257239057 339.9994166069442 L 146.80776565656566 339.9986686870384 L 151.1585055892256 339.99707154285505 L 155.50924552188553 339.9937888285505 L 159.85998545454544 339.9872929364507 L 164.21072538720537 339.9749132787337 L 168.5614653198653 339.95218187012676 L 172.91220525252527 339.9119455401493 L 177.26294518518517 339.8432450022235 L 181.61368511784514 339.730009640449 L 185.96442505050504 339.54967712344 L 190.315164983165 339.27190575031574 L 194.66590491582497 338.8575879869175 L 199.01664484848484 338.2583822284159 L 203.3673847811448 337.41695327970876 L 207.71812471380468 336.2680611065472 L 212.06886464646465 334.740581320684 L 216.4196045791246 332.7604934394559 L 220.77034451178451 330.25482708417206 L 225.12108444444448 327.1564786125708 L 229.47182437710438 323.40965607474527 L 233.82256430976432 318.9754546768571 L 238.17330424242428 313.836740740541 L 242.5240441750842 308.00123473463077 L 246.87478410774412 301.50159075058093 L 251.22552404040405 294.391525233242 L 255.576263973064 286.737734224215 L 259.92700390572395 278.60841024111005 L 264.27774383838386 270.06042991779213 L 268.62848377104376 261.12839705324245 L 272.9792237037037 251.81927512832152 L 277.32996363636363 242.11592884872758 L 281.6807035690236 231.9912844647625 L 286.0314435016835 221.4321239030429 L 290.38218343434346 210.46831872722856 L 294.7329233670034 199.2005718869582 L 299.0836632996633 187.81858802393833 L 303.43440323232323 176.6028266985551 L 307.7851431649832 165.90661335458836 L 312.1358830976431 156.12043207949023 L 316.486623030303 147.6250465806807 L 320.83736296296297 140.74299646522982 L 325.18810289562293 135.69801386293207 L 329.5388428282829 132.58918711049787 L 333.88958276094274 131.3825114481757 L 338.2403226936027 131.91849644041645 L 342.59106262626267 133.93205974354981 L 346.9418025589226 137.08041156239443 L 351.29254249158254 140.97545315278788 L 355.64328242424244 145.21832265870967 L 359.9940223569024 149.43424597103902 L 364.34476228956237 153.30554846579074 L 368.6955022222222 156.59997595145177 L 373.0462421548822 159.19107860228576 L 377.3969820875421 161.06786096208072 L 381.74772202020205 162.33223173100933 L 386.098461952862 163.1845724728094 L 390.4492018855219 163.8993907218554 L 394.7999418181819 164.79411281741628 L 399.1506817508417 166.19453830743979 L 403.5014216835017 168.40052908809815 L 407.85216161616165 171.65538923475333 L 412.20290154882156 176.12217390997301 L 416.5536414814815 181.86968701332572 L 420.9043814141414 188.86993849928928 L 425.2551213468014 197.0072284140223 L 429.60586127946135 206.09701402291876 L 433.9566012121213 215.91081719598765 L 438.3073411447813 226.20228282708928 L 442.65808107744107 236.72958789344415 L 447.00882101010103 247.27080658196593 L 451.359560942761 257.6311559068632 L 455.71030087542096 267.6435084683651 L 460.0610408080809 277.16531259043603 L 464.4117807407407 286.07550835651665 L 468.7625206734007 294.274077845986 L 473.11326060606063 301.684975588621 L 477.4640005387206 308.26116967548256 L 481.81474047138056 313.9892194304903 L 486.1654804040405 318.8907187396908 L 490.51622033670037 323.01900651039915 L 494.86696026936033 326.4512612057781 L 499.2177002020203 329.2777039337119 L 503.56844013468026 331.59050130067783 L 507.9191800673402 333.4748279926799 L 512.26992 335.00359915595806" fill="" fill-opacity="0.0" stroke="#619CFF" stroke-width="1.8897637795275593"/><text x="526.9365866666667" y="142.66221333333334" fill="#4d4d4d" font-size="14.666666666666666" font-family="sans-serif" text-anchor="start">species</text><rect x="526.9365866666667" y="149.99554666666666" width="23.114079999999994" height="69.34223999999998" fill="#ebebeb" fill-opacity="1.0" stroke="none"/><rect x="526.9365866666667" y="149.99554666666666" width="23.114079999999994" height="23.114079999999994" fill="#f2f2f2" fill-opacity="1.0" stroke="none"/><rect x="527.8814685564305" y="150.94042855643045" width="21.224316220472435" height="21.224316220472435" fill="#F8766D" fill-opacity="0.0" stroke="#F8766D" stroke-width="1.3333333333333333"/><text x="553.7173333333333" y="165.30725333333334" fill="#4d4d4d" font-size="11.733333333333334" font-family="sans-serif" text-anchor="start">Adelie</text><rect x="526.9365866666667" y="173.10962666666666" width="23.114079999999994" height="23.114079999999994" fill="#f2f2f2" fill-opacity="1.0" stroke="none"/><rect x="527.8814685564305" y="174.05450855643045" width="21.224316220472435" height="21.224316220472435" fill="#00BA38" fill-opacity="0.0" stroke="#00BA38" stroke-width="1.3333333333333333"/><text x="553.7173333333333" y="188.42133333333334" fill="#4d4d4d" font-size="11.733333333333334" font-family="sans-serif" text-anchor="start">Chinstrap</text><rect x="526.9365866666667" y="196.22370666666666" width="23.114079999999994" height="23.114079999999994" fill="#f2f2f2" fill-opacity="1.0" stroke="none"/><rect x="527.8814685564305" y="197.16858855643045" width="21.224316220472435" height="21.224316220472435" fill="#619CFF" fill-opacity="0.0" stroke="#619CFF" stroke-width="1.3333333333333333"/><text x="553.7173333333333" y="211.5354133333333" fill="#4d4d4d" font-size="11.733333333333334" font-family="sans-serif" text-anchor="start">Gentoo</text></svg>