<svg xmlns="http://www.w3.org/2000/svg" width="800" height="600" viewBox="0 0 800 600"><rect x="0.0" y="0.0" width="800.0" height="600.0" fill="#ffffff" fill-opacity="1.0" stroke="none"/><line x1="230.5510101010101" y1="5.5" x2="230.5510101010101" y2="563.8" stroke="#dddddd" stroke-width="0.5"/><line x1="392.95" y1="5.5" x2="392.95" y2="563.8" stroke="#dddddd" stroke-width="0.5"/><line x1="555.3489898989899" y1="5.5" x2="555.3489898989899" y2="563.8" stroke="#dddddd" stroke-width="0.5"/><line x1="149.35151515151514" y1="5.5" x2="149.35151515151514" y2="563.8" stroke="#dddddd" stroke-width="1.0"/><line x1="311.75050505050507" y1="5.5" x2="311.75050505050507" y2="563.8" stroke="#dddddd" stroke-width="1.0"/><line x1="474.14949494949497" y1="5.5" x2="474.14949494949497" y2="563.8" stroke="#dddddd" stroke-width="1.0"/><line x1="636.5484848484848" y1="5.5" x2="636.5484848484848" y2="563.8" stroke="#dddddd" stroke-width="1.0"/><line x1="71.39999999999999" y1="499.180399889031" x2="714.5" y2="499.180399889031" stroke="#dddddd" stroke-width="0.5"/><line x1="71.39999999999999" y1="369.941199667093" x2="714.5" y2="369.941199667093" stroke="#dddddd" stroke-width="0.5"/><line x1="71.39999999999999" y1="240.70199944515502" x2="714.5" y2="240.70199944515502" stroke="#dddddd" stroke-width="0.5"/><line x1="71.39999999999999" y1="111.46279922321708" x2="714.5" y2="111.46279922321708" stroke="#dddddd" stroke-width="0.5"/><line x1="71.39999999999999" y1="563.8" x2="714.5" y2="563.8" stroke="#dddddd" stroke-width="1.0"/><line x1="71.39999999999999" y1="434.560799778062" x2="714.5" y2="434.560799778062" stroke="#dddddd" stroke-width="1.0"/><line x1="71.39999999999999" y1="305.321599556124" x2="714.5" y2="305.321599556124" stroke="#dddddd" stroke-width="1.0"/><line x1="71.39999999999999" y1="176.08239933418605" x2="714.5" y2="176.08239933418605" stroke="#dddddd" stroke-width="1.0"/><line x1="71.39999999999999" y1="46.843199112248044" x2="714.5" y2="46.843199112248044" stroke="#dddddd" stroke-width="1.0"/><rect x="71.39999999999999" y="5.5" width="643.1" height="558.3" fill="#ffffff" fill-opacity="0.0" stroke="#444444" stroke-width="1.0"/><line x1="149.35151515151514" y1="563.8" x2="149.35151515151514" y2="566.55" stroke="#444444" stroke-width="1.0"/><text x="149.35151515151514" y="577.55" fill="#333333" font-size="11.0" font-family="sans-serif" text-anchor="middle">3000</text><line x1="311.75050505050507" y1="563.8" x2="311.75050505050507" y2="566.55" stroke="#444444" stroke-width="1.0"/><text x="311.75050505050507" y="577.55" fill="#333333" font-size="11.0" font-family="sans-serif" text-anchor="middle">4000</text><line x1="474.14949494949497" y1="563.8" x2="474.14949494949497" y2="566.55" stroke="#444444" stroke-width="1.0"/><text x="474.14949494949497" y="577.55" fill="#333333" font-size="11.0" font-family="sans-serif" text-anchor="middle">5000</text><line x1="636.5484848484848" y1="563.8" x2="636.5484848484848" y2="566.55" stroke="#444444" stroke-width="1.0"/><text x="636.5484848484848" y="577.55" fill="#333333" font-size="11.0" font-family="sans-serif" text-anchor="middle">6000</text><line x1="71.39999999999999" y1="563.8" x2="68.64999999999999" y2="563.8" stroke="#444444" stroke-width="1.0"/><text x="66.44999999999999" y="567.65" fill="#333333" font-size="11.0" font-family="sans-serif" text-anchor="end">0</text><line x1="71.39999999999999" y1="434.560799778062" x2="68.64999999999999" y2="434.560799778062" stroke="#444444" stroke-width="1.0"/><text x="66.44999999999999" y="438.410799778062" fill="#333333" font-size="11.0" font-family="sans-serif" text-anchor="end">0.00025</text><line x1="71.39999999999999" y1="305.321599556124" x2="68.64999999999999" y2="305.321599556124" stroke="#444444" stroke-width="1.0"/><text x="66.44999999999999" y="309.171599556124" fill="#333333" font-size="11.0" font-family="sans-serif" text-anchor="end">0.0005</text><line x1="71.39999999999999" y1="176.08239933418605" x2="68.64999999999999" y2="176.08239933418605" stroke="#444444" stroke-width="1.0"/><text x="66.44999999999999" y="179.93239933418604" fill="#333333" font-size="11.0" font-family="sans-serif" text-anchor="end">0.00075</text><line x1="71.39999999999999" y1="46.843199112248044" x2="68.64999999999999" y2="46.843199112248044" stroke="#444444" stroke-width="1.0"/><text x="66.44999999999999" y="50.693199112248045" fill="#333333" font-size="11.0" font-family="sans-serif" text-anchor="end">0.001</text><text x="392.95" y="592.1" fill="#333333" font-size="12.0" font-family="sans-serif" text-anchor="middle">body_mass_g</text><text x="13.899999999999999" y="284.65" fill="#333333" font-size="12.0" font-family="sans-serif" text-anchor="middle" transform="rotate(-90.0 13.899999999999999 284.65)">density</text><path d="M 71.39999999999999 556.8195249564798 L 77.89595959595958 552.6877130549587 L 84.39191919191919 546.8336273446224 L 90.88787878787878 538.9195449214172 L 97.38383838383838 528.6977661458179 L 103.87979797979797 516.0625673115921 L 110.37575757575758 501.0813791800319 L 116.87171717171717 483.99358145571637 L 123.36767676767676 465.1740654523712 L 129.86363636363637 445.06958137773313 L 136.35959595959594 424.1245599615562 L 142.85555555555555 402.7160701768063 L 149.35151515151514 381.11395088346774 L 155.84747474747473 359.4740133744972 L 162.34343434343435 337.86322382020285 L 168.83939393939394 316.3089953687154 L 175.33535353535353 294.86106456282164 L 181.83131313131312 273.6528363621368 L 188.3272727272727 252.94816318132519 L 194.8232323232323 233.15934782545747 L 201.3191919191919 214.82472620974306 L 207.8151515151515 198.5419498442119 L 214.31111111111107 184.8663973814546 L 220.8070707070707 174.1994054089945 L 227.3030303030303 166.70127829865146 L 233.79898989898993 162.26233217826012 L 240.2949494949495 160.54894228763214 L 246.79090909090905 161.11521553323928 L 253.28686868686867 163.54503608219255 L 259.7828282828283 167.57548273138218 L 266.2787878787879 173.15771102874328 L 272.77474747474747 180.43355423135807 L 279.2707070707071 189.63612789966146 L 285.76666666666665 200.94884988707202 L 292.26262626262627 214.370599712029 L 298.75858585858583 229.6321416475813 L 305.25454545454545 246.19274675210704 L 311.75050505050507 263.32166844493355 L 318.24646464646463 280.24341923998384 L 324.74242424242425 296.3055000706124 L 331.2383838383838 311.1185462042932 L 337.73434343434343 324.62565755463436 L 344.23030303030305 337.0792761019884 L 350.7262626262626 348.93391489412795 L 357.2222222222222 360.69072876683526 L 363.7181818181818 372.744832023047 L 370.2141414141414 385.28278628919537 L 376.710101010101 398.25767127103103 L 383.2060606060606 411.44093708574184 L 389.7020202020202 424.52466912202016 L 396.1979797979798 437.2337844546749 L 402.6939393939394 449.4087619337775 L 409.189898989899 461.03386041280476 L 415.68585858585857 472.2072370529158 L 422.18181818181813 483.07001293686153 L 428.6777777777778 493.72412852596824 L 435.17373737373737 504.1699313094811 L 441.669696969697 514.2843924199012 L 448.16565656565655 523.8443063971043 L 454.6616161616161 532.582584351347 L 461.1575757575758 540.2558672583206 L 467.65353535353535 546.7010147038455 L 474.14949494949497 551.8653500681131 L 480.6454545454545 555.8066754551234 L 487.14141414141415 558.6691344581496 L 493.6373737373737 560.6466292347757 L 500.1333333333333 561.9458724203048 L 506.62929292929294 562.7576671435208 L 513.1252525252526 563.2400550745003 L 519.6212121212121 563.5126823193348 L 526.1171717171717 563.6592360930716 L 532.6131313131314 563.7341755348473 L 539.1090909090909 563.7706287568935 L 545.6050505050505 563.7874979410676 L 552.1010101010102 563.7949247068341 L 558.5969696969697 563.7980354353331 L 565.0929292929293 563.7992750466192 L 571.588888888889 563.7997450165128 L 578.0848484848485 563.7999145331138 L 584.5808080808081 563.7999727040301 L 591.0767676767676 563.7999916948046 L 597.5727272727273 563.7999975929107 L 604.0686868686869 563.7999993355381 L 610.5646464646464 563.7999998253246 L 617.0606060606061 563.799999956275 L 623.5565656565657 563.7999999895787 L 630.0525252525252 563.7999999976354 L 636.5484848484848 563.7999999994892 L 643.0444444444444 563.7999999998949 L 649.540404040404 563.7999999999794 L 656.0363636363636 563.7999999999961 L 662.5323232323233 563.7999999999993 L 669.0282828282828 563.7999999999998 L 675.5242424242424 563.8 L 682.0202020202021 563.8 L 688.5161616161616 563.8 L 695.0121212121212 563.8 L 701.5080808080808 563.8 L 708.0040404040404 563.8 L 714.5 563.8" fill="" fill-opacity="0.0" stroke="#F8766D" stroke-width="1.5"/><path d="M 71.39999999999999 551.9199377536806 L 77.89595959595958 548.5349727023162 L 84.39191919191919 544.9714691805585 L 90.88787878787878 541.4401447435516 L 97.38383838383838 538.1322130419987 L 103.87979797979797 535.1593436423688 L 110.37575757575758 532.490757300731 L 116.87171717171717 529.8960766335426 L 123.36767676767676 526.9037387912801 L 129.86363636363637 522.7876785685701 L 136.35959595959594 516.5978876196809 L 142.85555555555555 507.2490008635138 L 149.35151515151514 493.670866480551 L 155.84747474747473 475.00545948287305 L 162.34343434343435 450.81095862452617 L 168.83939393939394 421.2168166479563 L 175.33535353535353 386.97409017912025 L 181.83131313131312 349.3683876687661 L 188.3272727272727 310.00403034901797 L 194.8232323232323 270.513504254492 L 201.3191919191919 232.2778204817688 L 207.8151515151515 196.2462259870831 L 214.31111111111107 162.9133461915029 L 220.8070707070707 132.45704004403672 L 227.3030303030303 104.98051260946113 L 233.79898989898993 80.76074603556299 L 240.2949494949495 60.39982357539725 L 246.79090909090905 44.81082968181306 L 253.28686868686867 35.03407711084867 L 259.7828282828283 31.9479430298137 L 266.2787878787879 35.98349484049879 L 272.77474747474747 46.95354158612736 L 279.2707070707071 64.06263191105563 L 285.76666666666665 86.09253752607623 L 292.26262626262627 111.68848057512946 L 298.75858585858583 139.6347174780421 L 305.25454545454545 169.01955139915276 L 311.75050505050507 199.24311847522148 L 318.24646464646463 229.8913799621846 L 324.74242424242425 260.5549523520612 L 331.2383838383838 290.68826081442296 L 337.73434343434343 319.5782252912793 L 344.23030303030305 346.4371654764517 L 350.7262626262626 370.5780099005543 L 357.2222222222222 391.5957449405085 L 363.7181818181818 409.47947284811414 L 370.2141414141414 424.61051015702697 L 376.710101010101 437.6476868104342 L 383.2060606060606 449.34198191658226 L 389.7020202020202 460.34421495940467 L 396.1979797979798 471.0663570312593 L 402.6939393939394 481.6331903863436 L 409.189898989899 491.92704021538356 L 415.68585858585857 501.69690563138323 L 422.18181818181813 510.68532267616655 L 428.6777777777778 518.727018794117 L 435.17373737373737 525.7908873668284 L 441.669696969697 531.9625888481935 L 448.16565656565655 537.387938408192 L 454.6616161616161 542.2082053089738 L 461.1575757575758 546.5147792726356 L 467.65353535353535 550.3364982298715 L 474.14949494949497 553.6564528795883 L 480.6454545454545 556.443926348053 L 487.14141414141415 558.6848326066108 L 493.6373737373737 560.3992328345904 L 500.1333333333333 561.6428531279665 L 506.62929292929294 562.4965042547525 L 513.1252525252526 563.0504521395039 L 519.6212121212121 563.3901547015021 L 526.1171717171717 563.5870190948975 L 532.6131313131314 563.6948522363048 L 539.1090909090909 563.7506956603696 L 545.6050505050505 563.7780458323084 L 552.1010101010102 563.7907180290622 L 558.5969696969697 563.7962742300714 L 565.0929292929293 563.7985802325276 L 571.588888888889 563.7994864004762 L 578.0848484848485 563.7998236300025 L 584.5808080808081 563.799942507924 L 591.0767676767676 563.7999822103366 L 597.5727272727273 563.7999947748451 L 604.0686868686869 563.7999985432033 L 610.5646464646464 563.7999996144642 L 617.0606060606061 563.799999903151 L 623.5565656565657 563.7999999769065 L 630.0525252525252 563.7999999947731 L 636.5484848484848 563.799999998877 L 643.0444444444444 563.799999999771 L 649.540404040404 563.7999999999556 L 656.0363636363636 563.7999999999918 L 662.5323232323233 563.7999999999986 L 669.0282828282828 563.7999999999997 L 675.5242424242424 563.8 L 682.0202020202021 563.8 L 688.5161616161616 563.8 L 695.0121212121212 563.8 L 701.5080808080808 563.8 L 708.0040404040404 563.8 L 714.5 563.8" fill="" fill-opacity="0.0" stroke="#00BA38" stroke-width="1.5"/><path d="M 71.39999999999999 563.7999999998189 L 77.89595959595958 563.799999999298 L 84.39191919191919 563.7999999973815 L 90.88787878787878 563.7999999905988 L 97.38383838383838 563.7999999675113 L 103.87979797979797 563.7999998919283 L 110.37575757575758 563.7999996539473 L 116.87171717171717 563.7999989332915 L 123.36767676767676 563.7999968344387 L 129.86363636363637 563.7999909553737 L 136.35959595959594 563.7999751168392 L 142.85555555555555 563.7999340760472 L 149.35151515151514 563.7998317865649 L 155.84747474747473 563.7995865473271 L 162.34343434343435 563.7990209168045 L 168.83939393939394 563.7977657153513 L 175.33535353535353 563.7950852977234 L 181.83131313131312 563.7895760610613 L 188.3272727272727 563.7786742878369 L 194.8232323232323 563.7578980466444 L 201.3191919191919 563.7197489120995 L 207.8151515151515 563.6522220292545 L 214.31111111111107 563.5369249040322 L 220.8070707070707 563.3468869206293 L 227.3030303030303 563.0442426994485 L 233.79898989898993 562.5780710833706 L 240.2949494949495 561.882739598485 L 246.79090909090905 560.877118631637 L 253.28686868686867 559.4649850182207 L 259.7828282828283 557.5368492458476 L 266.2787878787879 554.973346346707 L 272.77474747474747 551.6502509636721 L 279.2707070707071 547.4451000834467 L 285.76666666666665 542.2452765813575 L 292.26262626262627 535.957147254099 L 298.75858585858583 528.5154198780241 L 305.25454545454545 519.8913397458238 L 311.75050505050507 510.0978637846023 L 318.24646464646463 499.1897939360201 L 324.74242424242425 487.25728017350406 L 331.2383838383838 474.41225556326424 L 337.73434343434343 460.7691646421194 L 344.23030303030305 446.42346099129264 L 350.7262626262626 431.4332186617994 L 357.2222222222222 415.81012416074725 L 363.7181818181818 399.52542006887154 L 370.2141414141414 382.5336696894095 L 376.710101010101 364.81268970461576 L 383.2060606060606 346.41261226075665 L 389.7020202020202 327.5024427389441 L 396.1979797979798 308.4005541896736 L 402.6939393939394 289.5776296968035 L 409.189898989899 271.6266399875752 L 415.68585858585857 255.20291752498815 L 422.18181818181813 240.945481480944 L 428.6777777777778 229.39563605171685 L 435.17373737373737 220.92886114130755 L 441.669696969697 215.71145239616527 L 448.16565656565655 213.686341106763 L 454.6616161616161 214.58586141087522 L 461.1575757575758 217.96513713874907 L 467.65353535353535 223.24887908402252 L 474.14949494949497 229.78575800160763 L 480.6454545454545 236.90638138384048 L 487.14141414141415 243.9817821411756 L 493.6373737373737 250.47882076688666 L 500.1333333333333 256.00771515138933 L 506.62929292929294 260.35625005107056 L 513.1252525252526 263.50597226992886 L 519.6212121212121 265.62791074776305 L 526.1171717171717 267.0583571490065 L 532.6131313131314 268.2580055310978 L 539.1090909090909 269.75957871532114 L 545.6050505050505 272.1098519149608 L 552.1010101010102 275.81207031027617 L 558.5969696969697 281.27456055038914 L 565.0929292929293 288.77097102386153 L 571.588888888889 298.4167723232658 L 578.0848484848485 310.16498997240444 L 584.5808080808081 323.8214497701863 L 591.0767676767676 339.0764416703272 L 597.5727272727273 355.5465207630858 L 604.0686868686869 372.8182399870659 L 610.5646464646464 390.4857582792882 L 617.0606060606061 408.17662719853183 L 623.5565656565657 425.5639509302657 L 630.0525252525252 442.3672468273193 L 636.5484848484848 458.34727661094314 L 643.0444444444444 473.3008706877051 L 649.540404040404 487.0601733309038 L 656.0363636363636 499.497560734851 L 662.5323232323233 510.5341012920498 L 669.0282828282828 520.1472381003289 L 675.5242424242424 528.3732112395874 L 682.0202020202021 535.3015370784244 L 688.5161616161616 541.0617408753084 L 695.0121212121212 545.8052367921584 L 701.5080808080808 549.6867040365785 L 708.0040404040404 552.8490875800996 L 714.5 555.4147577417978" fill="" fill-opacity="0.0" stroke="#619CFF" stroke-width="1.5"/><text x="724.5" y="7.5" fill="#333333" font-size="11.0" font-family="sans-serif" text-anchor="start">species</text><rect x="724.5" y="18.5" width="10.0" height="10.0" fill="#F8766D" fill-opacity="1.0" stroke="#444444" stroke-width="0.5"/><text x="738.5" y="27.5" fill="#333333" font-size="10.0" font-family="sans-serif" text-anchor="start">Adelie</text><rect x="724.5" y="34.5" width="10.0" height="10.0" fill="#00BA38" fill-opacity="1.0" stroke="#444444" stroke-width="0.5"/><text x="738.5" y="43.5" fill="#333333" font-size="10.0" font-family="sans-serif" text-anchor="start">Chinstrap</text><rect x="724.5" y="50.5" width="10.0" height="10.0" fill="#619CFF" fill-opacity="1.0" stroke="#444444" stroke-width="0.5"/><text x="738.5" y="59.5" fill="#333333" font-size="10.0" font-family="sans-serif" text-anchor="start">Gentoo</text></svg>