<svg xmlns="http://www.w3.org/2000/svg" width="800" height="600" viewBox="0 0 800 600"><rect x="0.0" y="0.0" width="800.0" height="600.0" fill="#ffffff" fill-opacity="1.0" stroke="none"/><line x1="170.53125" y1="5.5" x2="170.53125" y2="563.8" stroke="#dddddd" stroke-width="1.0"/><line x1="379.75" y1="5.5" x2="379.75" y2="563.8" stroke="#dddddd" stroke-width="1.0"/><line x1="588.96875" y1="5.5" x2="588.96875" y2="563.8" stroke="#dddddd" stroke-width="1.0"/><line x1="45.0" y1="500.5006802721088" x2="714.5" y2="500.5006802721088" stroke="#dddddd" stroke-width="0.5"/><line x1="45.0" y1="373.9020408163265" x2="714.5" y2="373.9020408163265" stroke="#dddddd" stroke-width="0.5"/><line x1="45.0" y1="247.30340136054417" x2="714.5" y2="247.30340136054417" stroke="#dddddd" stroke-width="0.5"/><line x1="45.0" y1="120.70476190476194" x2="714.5" y2="120.70476190476194" stroke="#dddddd" stroke-width="0.5"/><line x1="45.0" y1="563.8" x2="714.5" y2="563.8" stroke="#dddddd" stroke-width="1.0"/><line x1="45.0" y1="437.20136054421766" x2="714.5" y2="437.20136054421766" stroke="#dddddd" stroke-width="1.0"/><line x1="45.0" y1="310.6027210884354" x2="714.5" y2="310.6027210884354" stroke="#dddddd" stroke-width="1.0"/><line x1="45.0" y1="184.00408163265308" x2="714.5" y2="184.00408163265308" stroke="#dddddd" stroke-width="1.0"/><line x1="45.0" y1="57.40544217687079" x2="714.5" y2="57.40544217687079" stroke="#dddddd" stroke-width="1.0"/><rect x="45.0" y="5.5" width="669.5" height="558.3" fill="#ffffff" fill-opacity="0.0" stroke="#444444" stroke-width="1.0"/><line x1="170.53125" y1="563.8" x2="170.53125" y2="566.55" stroke="#444444" stroke-width="1.0"/><text x="170.53125" y="577.55" fill="#333333" font-size="11.0" font-family="sans-serif" text-anchor="middle">Biscoe</text><line x1="379.75" y1="563.8" x2="379.75" y2="566.55" stroke="#444444" stroke-width="1.0"/><text x="379.75" y="577.55" fill="#333333" font-size="11.0" font-family="sans-serif" text-anchor="middle">Dream</text><line x1="588.96875" y1="563.8" x2="588.96875" y2="566.55" stroke="#444444" stroke-width="1.0"/><text x="588.96875" y="577.55" fill="#333333" font-size="11.0" font-family="sans-serif" text-anchor="middle">Torgersen</text><line x1="45.0" y1="563.8" x2="42.25" y2="563.8" stroke="#444444" stroke-width="1.0"/><text x="40.05" y="567.65" fill="#333333" font-size="11.0" font-family="sans-serif" text-anchor="end">0</text><line x1="45.0" y1="437.20136054421766" x2="42.25" y2="437.20136054421766" stroke="#444444" stroke-width="1.0"/><text x="40.05" y="441.0513605442177" fill="#333333" font-size="11.0" font-family="sans-serif" text-anchor="end">40</text><line x1="45.0" y1="310.6027210884354" x2="42.25" y2="310.6027210884354" stroke="#444444" stroke-width="1.0"/><text x="40.05" y="314.4527210884354" fill="#333333" font-size="11.0" font-family="sans-serif" text-anchor="end">80</text><line x1="45.0" y1="184.00408163265308" x2="42.25" y2="184.00408163265308" stroke="#444444" stroke-width="1.0"/><text x="40.05" y="187.85408163265308" fill="#333333" font-size="11.0" font-family="sans-serif" text-anchor="end">120</text><line x1="45.0" y1="57.40544217687079" x2="42.25" y2="57.40544217687079" stroke="#444444" stroke-width="1.0"/><text x="40.05" y="61.255442176870794" fill="#333333" font-size="11.0" font-family="sans-serif" text-anchor="end">160</text><text x="379.75" y="592.1" fill="#333333" font-size="12.0" font-family="sans-serif" text-anchor="middle">island</text><text x="13.899999999999999" y="284.65" fill="#333333" font-size="12.0" font-family="sans-serif" text-anchor="middle" transform="rotate(-90.0 13.899999999999999 284.65)">count</text><rect x="76.3828125" y="171.34421768707483" width="188.296875" height="392.4557823129251" fill="#619CFF" fill-opacity="0.85" stroke="none"/><rect x="76.3828125" y="32.08571428571429" width="188.296875" height="139.25850340136054" fill="#F8766D" fill-opacity="0.85" stroke="none"/><rect x="285.6015625" y="348.5823129251701" width="188.296875" height="215.21768707482988" fill="#00BA38" fill-opacity="0.85" stroke="none"/><rect x="285.6015625" y="171.34421768707483" width="188.296875" height="177.23809523809524" fill="#F8766D" fill-opacity="0.85" stroke="none"/><rect x="494.8203125" y="399.22176870748297" width="188.296875" height="164.578231292517" fill="#F8766D" fill-opacity="0.85" stroke="none"/><text x="724.5" y="7.5" fill="#333333" font-size="11.0" font-family="sans-serif" text-anchor="start">species</text><rect x="724.5" y="18.5" width="10.0" height="10.0" fill="#F8766D" fill-opacity="1.0" stroke="#444444" stroke-width="0.5"/><text x="738.5" y="27.5" fill="#333333" font-size="10.0" font-family="sans-serif" text-anchor="start">Adelie</text><rect x="724.5" y="34.5" width="10.0" height="10.0" fill="#00BA38" fill-opacity="1.0" stroke="#444444" stroke-width="0.5"/><text x="738.5" y="43.5" fill="#333333" font-size="10.0" font-family="sans-serif" text-anchor="start">Chinstrap</text><rect x="724.5" y="50.5" width="10.0" height="10.0" fill="#619CFF" fill-opacity="1.0" stroke="#444444" stroke-width="0.5"/><text x="738.5" y="59.5" fill="#333333" font-size="10.0" font-family="sans-serif" text-anchor="start">Gentoo</text></svg>