<svg xmlns="http://www.w3.org/2000/svg" width="800" height="600" viewBox="0 0 800 600"><rect x="0.0" y="0.0" width="800.0" height="600.0" fill="#ffffff" fill-opacity="1.0" stroke="none"/><line x1="175.89374999999995" y1="5.5" x2="175.89374999999995" y2="563.8" stroke="#dddddd" stroke-width="1.0"/><line x1="383.04999999999995" y1="5.5" x2="383.04999999999995" y2="563.8" stroke="#dddddd" stroke-width="1.0"/><line x1="590.20625" y1="5.5" x2="590.20625" y2="563.8" stroke="#dddddd" stroke-width="1.0"/><line x1="51.599999999999994" y1="497.33571428571423" x2="714.5" y2="497.33571428571423" stroke="#dddddd" stroke-width="0.5"/><line x1="51.599999999999994" y1="364.40714285714284" x2="714.5" y2="364.40714285714284" stroke="#dddddd" stroke-width="0.5"/><line x1="51.599999999999994" y1="231.4785714285714" x2="714.5" y2="231.4785714285714" stroke="#dddddd" stroke-width="0.5"/><line x1="51.599999999999994" y1="98.55000000000001" x2="714.5" y2="98.55000000000001" stroke="#dddddd" stroke-width="0.5"/><line x1="51.599999999999994" y1="563.8" x2="714.5" y2="563.8" stroke="#dddddd" stroke-width="1.0"/><line x1="51.599999999999994" y1="430.8714285714285" x2="714.5" y2="430.8714285714285" stroke="#dddddd" stroke-width="1.0"/><line x1="51.599999999999994" y1="297.9428571428571" x2="714.5" y2="297.9428571428571" stroke="#dddddd" stroke-width="1.0"/><line x1="51.599999999999994" y1="165.01428571428568" x2="714.5" y2="165.01428571428568" stroke="#dddddd" stroke-width="1.0"/><line x1="51.599999999999994" y1="32.08571428571429" x2="714.5" y2="32.08571428571429" stroke="#dddddd" stroke-width="1.0"/><rect x="51.599999999999994" y="5.5" width="662.9" height="558.3" fill="#ffffff" fill-opacity="0.0" stroke="#444444" stroke-width="1.0"/><line x1="175.89374999999995" y1="563.8" x2="175.89374999999995" y2="566.55" stroke="#444444" stroke-width="1.0"/><text x="175.89374999999995" y="577.55" fill="#333333" font-size="11.0" font-family="sans-serif" text-anchor="middle">Biscoe</text><line x1="383.04999999999995" y1="563.8" x2="383.04999999999995" y2="566.55" stroke="#444444" stroke-width="1.0"/><text x="383.04999999999995" y="577.55" fill="#333333" font-size="11.0" font-family="sans-serif" text-anchor="middle">Dream</text><line x1="590.20625" y1="563.8" x2="590.20625" y2="566.55" stroke="#444444" stroke-width="1.0"/><text x="590.20625" y="577.55" fill="#333333" font-size="11.0" font-family="sans-serif" text-anchor="middle">Torgersen</text><line x1="51.599999999999994" y1="563.8" x2="48.849999999999994" y2="563.8" stroke="#444444" stroke-width="1.0"/><text x="46.64999999999999" y="567.65" fill="#333333" font-size="11.0" font-family="sans-serif" text-anchor="end">0</text><line x1="51.599999999999994" y1="430.8714285714285" x2="48.849999999999994" y2="430.8714285714285" stroke="#444444" stroke-width="1.0"/><text x="46.64999999999999" y="434.72142857142853" fill="#333333" font-size="11.0" font-family="sans-serif" text-anchor="end">0.25</text><line x1="51.599999999999994" y1="297.9428571428571" x2="48.849999999999994" y2="297.9428571428571" stroke="#444444" stroke-width="1.0"/><text x="46.64999999999999" y="301.79285714285714" fill="#333333" font-size="11.0" font-family="sans-serif" text-anchor="end">0.5</text><line x1="51.599999999999994" y1="165.01428571428568" x2="48.849999999999994" y2="165.01428571428568" stroke="#444444" stroke-width="1.0"/><text x="46.64999999999999" y="168.86428571428567" fill="#333333" font-size="11.0" font-family="sans-serif" text-anchor="end">0.75</text><line x1="51.599999999999994" y1="32.08571428571429" x2="48.849999999999994" y2="32.08571428571429" stroke="#444444" stroke-width="1.0"/><text x="46.64999999999999" y="35.93571428571429" fill="#333333" font-size="11.0" font-family="sans-serif" text-anchor="end">1</text><text x="383.04999999999995" y="592.1" fill="#333333" font-size="12.0" font-family="sans-serif" text-anchor="middle">island</text><text x="13.899999999999999" y="284.65" fill="#333333" font-size="12.0" font-family="sans-serif" text-anchor="middle" transform="rotate(-90.0 13.899999999999999 284.65)">proportion</text><rect x="82.67343749999995" y="171.34421768707477" width="186.440625" height="392.4557823129252" fill="#619CFF" fill-opacity="0.85" stroke="none"/><rect x="82.67343749999995" y="32.08571428571429" width="186.440625" height="139.25850340136049" fill="#F8766D" fill-opacity="0.85" stroke="none"/><rect x="289.8296875" y="272.21474654377886" width="186.440625" height="291.5852534562211" fill="#00BA38" fill-opacity="0.85" stroke="none"/><rect x="289.8296875" y="32.08571428571429" width="186.440625" height="240.12903225806457" fill="#F8766D" fill-opacity="0.85" stroke="none"/><rect x="496.9859375" y="32.08571428571429" width="186.440625" height="531.7142857142857" fill="#F8766D" fill-opacity="0.85" stroke="none"/><text x="724.5" y="7.5" fill="#333333" font-size="11.0" font-family="sans-serif" text-anchor="start">species</text><rect x="724.5" y="18.5" width="10.0" height="10.0" fill="#F8766D" fill-opacity="1.0" stroke="#444444" stroke-width="0.5"/><text x="738.5" y="27.5" fill="#333333" font-size="10.0" font-family="sans-serif" text-anchor="start">Adelie</text><rect x="724.5" y="34.5" width="10.0" height="10.0" fill="#00BA38" fill-opacity="1.0" stroke="#444444" stroke-width="0.5"/><text x="738.5" y="43.5" fill="#333333" font-size="10.0" font-family="sans-serif" text-anchor="start">Chinstrap</text><rect x="724.5" y="50.5" width="10.0" height="10.0" fill="#619CFF" fill-opacity="1.0" stroke="#444444" stroke-width="0.5"/><text x="738.5" y="59.5" fill="#333333" font-size="10.0" font-family="sans-serif" text-anchor="start">Gentoo</text></svg>