<svg xmlns="http://www.w3.org/2000/svg" width="800" height="600" viewBox="0 0 800 600"><rect x="0.0" y="0.0" width="800.0" height="600.0" fill="#ffffff" fill-opacity="1.0" stroke="none"/><line x1="112.37434514637894" y1="5.5" x2="112.37434514637894" y2="563.8" stroke="#dddddd" stroke-width="0.5"/><line x1="214.51610169491516" y1="5.5" x2="214.51610169491516" y2="563.8" stroke="#dddddd" stroke-width="0.5"/><line x1="316.6578582434514" y1="5.5" x2="316.6578582434514" y2="563.8" stroke="#dddddd" stroke-width="0.5"/><line x1="418.79961479198766" y1="5.5" x2="418.79961479198766" y2="563.8" stroke="#dddddd" stroke-width="0.5"/><line x1="520.9413713405239" y1="5.5" x2="520.9413713405239" y2="563.8" stroke="#dddddd" stroke-width="0.5"/><line x1="623.0831278890602" y1="5.5" x2="623.0831278890602" y2="563.8" stroke="#dddddd" stroke-width="0.5"/><line x1="61.30346687211082" y1="5.5" x2="61.30346687211082" y2="563.8" stroke="#dddddd" stroke-width="1.0"/><line x1="163.44522342064707" y1="5.5" x2="163.44522342064707" y2="563.8" stroke="#dddddd" stroke-width="1.0"/><line x1="265.5869799691833" y1="5.5" x2="265.5869799691833" y2="563.8" stroke="#dddddd" stroke-width="1.0"/><line x1="367.72873651771954" y1="5.5" x2="367.72873651771954" y2="563.8" stroke="#dddddd" stroke-width="1.0"/><line x1="469.8704930662558" y1="5.5" x2="469.8704930662558" y2="563.8" stroke="#dddddd" stroke-width="1.0"/><line x1="572.012249614792" y1="5.5" x2="572.012249614792" y2="563.8" stroke="#dddddd" stroke-width="1.0"/><line x1="674.1540061633283" y1="5.5" x2="674.1540061633283" y2="563.8" stroke="#dddddd" stroke-width="1.0"/><line x1="51.599999999999994" y1="425.6348484848485" x2="714.5" y2="425.6348484848485" stroke="#dddddd" stroke-width="0.5"/><line x1="51.599999999999994" y1="284.65" x2="714.5" y2="284.65" stroke="#dddddd" stroke-width="0.5"/><line x1="51.599999999999994" y1="143.66515151515154" x2="714.5" y2="143.66515151515154" stroke="#dddddd" stroke-width="0.5"/><line x1="51.599999999999994" y1="496.12727272727267" x2="714.5" y2="496.12727272727267" stroke="#dddddd" stroke-width="1.0"/><line x1="51.599999999999994" y1="355.1424242424242" x2="714.5" y2="355.1424242424242" stroke="#dddddd" stroke-width="1.0"/><line x1="51.599999999999994" y1="214.15757575757573" x2="714.5" y2="214.15757575757573" stroke="#dddddd" stroke-width="1.0"/><line x1="51.599999999999994" y1="73.17272727272729" x2="714.5" y2="73.17272727272729" stroke="#dddddd" stroke-width="1.0"/><rect x="51.599999999999994" y="5.5" width="662.9" height="558.3" fill="#ffffff" fill-opacity="0.0" stroke="#444444" stroke-width="1.0"/><line x1="61.30346687211082" y1="563.8" x2="61.30346687211082" y2="566.55" stroke="#444444" stroke-width="1.0"/><text x="61.30346687211082" y="577.55" fill="#333333" font-size="11.0" font-family="sans-serif" text-anchor="middle">170</text><line x1="163.44522342064707" y1="563.8" x2="163.44522342064707" y2="566.55" stroke="#444444" stroke-width="1.0"/><text x="163.44522342064707" y="577.55" fill="#333333" font-size="11.0" font-family="sans-serif" text-anchor="middle">180</text><line x1="265.5869799691833" y1="563.8" x2="265.5869799691833" y2="566.55" stroke="#444444" stroke-width="1.0"/><text x="265.5869799691833" y="577.55" fill="#333333" font-size="11.0" font-family="sans-serif" text-anchor="middle">190</text><line x1="367.72873651771954" y1="563.8" x2="367.72873651771954" y2="566.55" stroke="#444444" stroke-width="1.0"/><text x="367.72873651771954" y="577.55" fill="#333333" font-size="11.0" font-family="sans-serif" text-anchor="middle">200</text><line x1="469.8704930662558" y1="563.8" x2="469.8704930662558" y2="566.55" stroke="#444444" stroke-width="1.0"/><text x="469.8704930662558" y="577.55" fill="#333333" font-size="11.0" font-family="sans-serif" text-anchor="middle">210</text><line x1="572.012249614792" y1="563.8" x2="572.012249614792" y2="566.55" stroke="#444444" stroke-width="1.0"/><text x="572.012249614792" y="577.55" fill="#333333" font-size="11.0" font-family="sans-serif" text-anchor="middle">220</text><line x1="674.1540061633283" y1="563.8" x2="674.1540061633283" y2="566.55" stroke="#444444" stroke-width="1.0"/><text x="674.1540061633283" y="577.55" fill="#333333" font-size="11.0" font-family="sans-serif" text-anchor="middle">230</text><line x1="51.599999999999994" y1="496.12727272727267" x2="48.849999999999994" y2="496.12727272727267" stroke="#444444" stroke-width="1.0"/><text x="46.64999999999999" y="499.9772727272727" fill="#333333" font-size="11.0" font-family="sans-serif" text-anchor="end">3000</text><line x1="51.599999999999994" y1="355.1424242424242" x2="48.849999999999994" y2="355.1424242424242" stroke="#444444" stroke-width="1.0"/><text x="46.64999999999999" y="358.99242424242425" fill="#333333" font-size="11.0" font-family="sans-serif" text-anchor="end">4000</text><line x1="51.599999999999994" y1="214.15757575757573" x2="48.849999999999994" y2="214.15757575757573" stroke="#444444" stroke-width="1.0"/><text x="46.64999999999999" y="218.00757575757572" fill="#333333" font-size="11.0" font-family="sans-serif" text-anchor="end">5000</text><line x1="51.599999999999994" y1="73.17272727272729" x2="48.849999999999994" y2="73.17272727272729" stroke="#444444" stroke-width="1.0"/><text x="46.64999999999999" y="77.02272727272728" fill="#333333" font-size="11.0" font-family="sans-serif" text-anchor="end">6000</text><text x="383.04999999999995" y="592.1" fill="#333333" font-size="12.0" font-family="sans-serif" text-anchor="middle">flipper_length_mm</text><text x="13.899999999999999" y="284.65" fill="#333333" font-size="12.0" font-family="sans-serif" text-anchor="middle" transform="rotate(-90.0 13.899999999999999 284.65)">body_mass_g</text><path d="M 168.6593990755007 385.38863636363635 L 178.6593990755007 385.38863636363635 L 178.6593990755007 395.38863636363635 L 168.6593990755007 395.38863636363635 Z" fill="#F8766D" fill-opacity="0.85" stroke="none"/><path d="M 219.7302773497688 378.33939393939386 L 229.7302773497688 378.33939393939386 L 229.7302773497688 388.33939393939386 L 219.7302773497688 388.33939393939386 Z" fill="#F8766D" fill-opacity="0.85" stroke="none"/><path d="M 311.6578582434514 455.8810606060606 L 321.6578582434514 455.8810606060606 L 321.6578582434514 465.8810606060606 L 311.6578582434514 465.8810606060606 Z" fill="#F8766D" fill-opacity="0.85" stroke="none"/><path d="M 291.2295069337442 427.68409090909086 L 301.2295069337442 427.68409090909086 L 301.2295069337442 437.68409090909086 L 291.2295069337442 437.68409090909086 Z" fill="#F8766D" fill-opacity="0.85" stroke="none"/><path d="M 260.5869799691833 399.48712121212117 L 270.5869799691833 399.48712121212117 L 270.5869799691833 409.48712121212117 L 260.5869799691833 409.48712121212117 Z" fill="#F8766D" fill-opacity="0.85" stroke="none"/><path d="M 168.6593990755007 403.01174242424236 L 178.6593990755007 403.01174242424236 L 178.6593990755007 413.01174242424236 L 168.6593990755007 413.01174242424236 Z" fill="#F8766D" fill-opacity="0.85" stroke="none"/><path d="M 311.6578582434514 254.97765151515148 L 321.6578582434514 254.97765151515148 L 321.6578582434514 264.9776515151515 L 311.6578582434514 264.9776515151515 Z" fill="#F8766D" fill-opacity="0.85" stroke="none"/><path d="M 291.2295069337442 424.15946969696967 L 301.2295069337442 424.15946969696967 L 301.2295069337442 434.15946969696967 L 291.2295069337442 434.15946969696967 Z" fill="#F8766D" fill-opacity="0.85" stroke="none"/><path d="M 260.5869799691833 314.8962121212121 L 270.5869799691833 314.8962121212121 L 270.5869799691833 324.8962121212121 L 260.5869799691833 324.8962121212121 Z" fill="#F8766D" fill-opacity="0.85" stroke="none"/><path d="M 219.7302773497688 448.83181818181816 L 229.7302773497688 448.83181818181816 L 229.7302773497688 458.83181818181816 L 219.7302773497688 458.83181818181816 Z" fill="#F8766D" fill-opacity="0.85" stroke="none"/><path d="M 158.44522342064707 392.43787878787873 L 168.44522342064707 392.43787878787873 L 168.44522342064707 402.43787878787873 L 158.44522342064707 402.43787878787873 Z" fill="#F8766D" fill-opacity="0.85" stroke="none"/><path d="M 178.8735747303543 462.930303030303 L 188.8735747303543 462.930303030303 L 188.8735747303543 472.930303030303 L 178.8735747303543 472.930303030303 Z" fill="#F8766D" fill-opacity="0.85" stroke="none"/><path d="M 270.80115562403694 378.33939393939386 L 280.80115562403694 378.33939393939386 L 280.80115562403694 388.33939393939386 L 270.80115562403694 388.33939393939386 Z" fill="#F8766D" fill-opacity="0.85" stroke="none"/><path d="M 342.30038520801236 293.74848484848485 L 352.30038520801236 293.74848484848485 L 352.30038520801236 303.74848484848485 L 342.30038520801236 303.74848484848485 Z" fill="#F8766D" fill-opacity="0.85" stroke="none"/><path d="M 209.51610169491516 392.43787878787873 L 219.51610169491516 392.43787878787873 L 219.51610169491516 402.43787878787873 L 209.51610169491516 402.43787878787873 Z" fill="#F8766D" fill-opacity="0.85" stroke="none"/><path d="M 311.6578582434514 427.68409090909086 L 321.6578582434514 427.68409090909086 L 321.6578582434514 437.68409090909086 L 311.6578582434514 437.68409090909086 Z" fill="#F8766D" fill-opacity="0.85" stroke="none"/><path d="M 332.0862095531587 279.65 L 342.0862095531587 279.65 L 342.0862095531587 289.65 L 332.0862095531587 289.65 Z" fill="#F8766D" fill-opacity="0.85" stroke="none"/><path d="M 199.30192604006155 445.3071969696969 L 209.30192604006155 445.3071969696969 L 209.30192604006155 455.3071969696969 L 199.30192604006155 455.3071969696969 Z" fill="#F8766D" fill-opacity="0.85" stroke="none"/><path d="M 301.44368258859777 321.9454545454545 L 311.44368258859777 321.9454545454545 L 311.44368258859777 331.9454545454545 L 301.44368258859777 331.9454545454545 Z" fill="#F8766D" fill-opacity="0.85" stroke="none"/><circle cx="102.16016949152532" cy="439.7333333333333" r="5.0" fill="#F8766D" fill-opacity="0.85" stroke="none"><title>(174, 3400)</title></circle><circle cx="163.44522342064707" cy="411.5363636363636" r="5.0" fill="#F8766D" fill-opacity="0.85" stroke="none"><title>(180, 3600)</title></circle><circle cx="255.37280431432967" cy="383.33939393939386" r="5.0" fill="#F8766D" fill-opacity="0.85" stroke="none"><title>(189, 3800)</title></circle><circle cx="214.51610169491516" cy="362.1916666666666" r="5.0" fill="#F8766D" fill-opacity="0.85" stroke="none"><title>(185, 3950)</title></circle><circle cx="163.44522342064707" cy="383.33939393939386" r="5.0" fill="#F8766D" fill-opacity="0.85" stroke="none"><title>(180, 3800)</title></circle><circle cx="234.94445300462243" cy="383.33939393939386" r="5.0" fill="#F8766D" fill-opacity="0.85" stroke="none"><title>(187, 3800)</title></circle><circle cx="194.08775038520793" cy="418.585606060606" r="5.0" fill="#F8766D" fill-opacity="0.85" stroke="none"><title>(183, 3550)</title></circle><circle cx="234.94445300462243" cy="467.930303030303" r="5.0" fill="#F8766D" fill-opacity="0.85" stroke="none"><title>(187, 3200)</title></circle><circle cx="81.73181818181807" cy="474.9795454545454" r="5.0" fill="#F8766D" fill-opacity="0.85" stroke="none"><title>(172, 3150)</title></circle><circle cx="163.44522342064707" cy="362.1916666666666" r="5.0" fill="#F8766D" fill-opacity="0.85" stroke="none"><title>(180, 3950)</title></circle><path d="M 143.0168721109398 455.8810606060606 L 148.0168721109398 465.8810606060606 L 138.0168721109398 465.8810606060606 Z" fill="#F8766D" fill-opacity="0.85" stroke="none"/><path d="M 143.0168721109398 364.24090909090904 L 148.0168721109398 374.24090909090904 L 138.0168721109398 374.24090909090904 Z" fill="#F8766D" fill-opacity="0.85" stroke="none"/><path d="M 245.15862865947605 448.83181818181816 L 250.15862865947605 458.83181818181816 L 240.15862865947605 458.83181818181816 Z" fill="#F8766D" fill-opacity="0.85" stroke="none"/><path d="M 204.30192604006155 364.24090909090904 L 209.30192604006155 374.24090909090904 L 199.30192604006155 374.24090909090904 Z" fill="#F8766D" fill-opacity="0.85" stroke="none"/><path d="M 316.6578582434514 445.3071969696969 L 321.6578582434514 455.3071969696969 L 311.6578582434514 455.3071969696969 Z" fill="#F8766D" fill-opacity="0.85" stroke="none"/><path d="M 326.87203389830506 328.994696969697 L 331.87203389830506 338.994696969697 L 321.87203389830506 338.994696969697 Z" fill="#F8766D" fill-opacity="0.85" stroke="none"/><path d="M 265.5869799691833 357.1916666666666 L 270.5869799691833 367.1916666666666 L 260.5869799691833 367.1916666666666 Z" fill="#F8766D" fill-opacity="0.85" stroke="none"/><path d="M 163.44522342064707 413.585606060606 L 168.44522342064707 423.585606060606 L 158.44522342064707 423.585606060606 Z" fill="#F8766D" fill-opacity="0.85" stroke="none"/><path d="M 173.6593990755007 448.83181818181816 L 178.6593990755007 458.83181818181816 L 168.6593990755007 458.83181818181816 Z" fill="#F8766D" fill-opacity="0.85" stroke="none"/><path d="M 204.30192604006155 258.5022727272727 L 209.30192604006155 268.5022727272727 L 199.30192604006155 268.5022727272727 Z" fill="#F8766D" fill-opacity="0.85" stroke="none"/><path d="M 183.8735747303543 469.9795454545454 L 188.8735747303543 479.9795454545454 L 178.8735747303543 479.9795454545454 Z" fill="#F8766D" fill-opacity="0.85" stroke="none"/><path d="M 316.6578582434514 364.24090909090904 L 321.6578582434514 374.24090909090904 L 311.6578582434514 374.24090909090904 Z" fill="#F8766D" fill-opacity="0.85" stroke="none"/><path d="M 224.7302773497688 477.02878787878785 L 229.7302773497688 487.02878787878785 L 219.7302773497688 487.02878787878785 Z" fill="#F8766D" fill-opacity="0.85" stroke="none"/><path d="M 326.87203389830506 293.74848484848485 L 331.87203389830506 303.74848484848485 L 321.87203389830506 303.74848484848485 Z" fill="#F8766D" fill-opacity="0.85" stroke="none"/><path d="M 214.51610169491516 491.12727272727267 L 219.51610169491516 501.12727272727267 L 209.51610169491516 501.12727272727267 Z" fill="#F8766D" fill-opacity="0.85" stroke="none"/><path d="M 265.5869799691833 265.5515151515151 L 270.5869799691833 275.5515151515151 L 260.5869799691833 275.5515151515151 Z" fill="#F8766D" fill-opacity="0.85" stroke="none"/><path d="M 183.8735747303543 431.2087121212121 L 188.8735747303543 441.2087121212121 L 178.8735747303543 441.2087121212121 Z" fill="#F8766D" fill-opacity="0.85" stroke="none"/><path d="M 153.23104776579345 494.6518939393939 L 158.23104776579345 504.6518939393939 L 148.23104776579345 504.6518939393939 Z" fill="#F8766D" fill-opacity="0.85" stroke="none"/><path d="M 265.5869799691833 427.68409090909086 L 270.5869799691833 437.68409090909086 L 260.5869799691833 437.68409090909086 Z" fill="#F8766D" fill-opacity="0.85" stroke="none"/><path d="M 275.80115562403694 328.994696969697 L 280.80115562403694 338.994696969697 L 270.80115562403694 338.994696969697 Z" fill="#F8766D" fill-opacity="0.85" stroke="none"/><circle cx="224.7302773497688" cy="425.6348484848485" r="5.0" fill="#F8766D" fill-opacity="0.85" stroke="none"><title>(186, 3500)</title></circle><circle cx="245.15862865947605" cy="312.84696969696967" r="5.0" fill="#F8766D" fill-opacity="0.85" stroke="none"><title>(188, 4300)</title></circle><circle cx="265.5869799691833" cy="432.68409090909086" r="5.0" fill="#F8766D" fill-opacity="0.85" stroke="none"><title>(190, 3450)</title></circle><circle cx="367.72873651771954" cy="348.0931818181818" r="5.0" fill="#F8766D" fill-opacity="0.85" stroke="none"><title>(200, 4050)</title></circle><circle cx="234.94445300462243" cy="510.22575757575754" r="5.0" fill="#F8766D" fill-opacity="0.85" stroke="none"><title>(187, 2900)</title></circle><circle cx="275.80115562403694" cy="397.43787878787873" r="5.0" fill="#F8766D" fill-opacity="0.85" stroke="none"><title>(191, 3700)</title></circle><circle cx="224.7302773497688" cy="418.585606060606" r="5.0" fill="#F8766D" fill-opacity="0.85" stroke="none"><title>(186, 3550)</title></circle><circle cx="296.2295069337442" cy="383.33939393939386" r="5.0" fill="#F8766D" fill-opacity="0.85" stroke="none"><title>(193, 3800)</title></circle><circle cx="173.6593990755007" cy="517.275" r="5.0" fill="#F8766D" fill-opacity="0.85" stroke="none"><title>(181, 2850)</title></circle><circle cx="306.44368258859777" cy="390.38863636363635" r="5.0" fill="#F8766D" fill-opacity="0.85" stroke="none"><title>(194, 3750)</title></circle><circle cx="214.51610169491516" cy="474.9795454545454" r="5.0" fill="#F8766D" fill-opacity="0.85" stroke="none"><title>(185, 3150)</title></circle><circle cx="316.6578582434514" cy="298.74848484848485" r="5.0" fill="#F8766D" fill-opacity="0.85" stroke="none"><title>(195, 4400)</title></circle><circle cx="214.51610169491516" cy="411.5363636363636" r="5.0" fill="#F8766D" fill-opacity="0.85" stroke="none"><title>(185, 3600)</title></circle><circle cx="286.0153312788906" cy="348.0931818181818" r="5.0" fill="#F8766D" fill-opacity="0.85" stroke="none"><title>(192, 4050)</title></circle><circle cx="204.30192604006155" cy="517.275" r="5.0" fill="#F8766D" fill-opacity="0.85" stroke="none"><title>(184, 2850)</title></circle><circle cx="286.0153312788906" cy="362.1916666666666" r="5.0" fill="#F8766D" fill-opacity="0.85" stroke="none"><title>(192, 3950)</title></circle><circle cx="316.6578582434514" cy="446.7825757575757" r="5.0" fill="#F8766D" fill-opacity="0.85" stroke="none"><title>(195, 3350)</title></circle><circle cx="245.15862865947605" cy="341.04393939393935" r="5.0" fill="#F8766D" fill-opacity="0.85" stroke="none"><title>(188, 4100)</title></circle><path d="M 260.5869799691833 484.07803030303023 L 270.5869799691833 484.07803030303023 L 270.5869799691833 494.07803030303023 L 260.5869799691833 494.07803030303023 Z" fill="#F8766D" fill-opacity="0.85" stroke="none"/><path d="M 342.30038520801236 286.6992424242424 L 352.30038520801236 286.6992424242424 L 352.30038520801236 296.6992424242424 L 342.30038520801236 296.6992424242424 Z" fill="#F8766D" fill-opacity="0.85" stroke="none"/><path d="M 260.5869799691833 406.5363636363636 L 270.5869799691833 406.5363636363636 L 270.5869799691833 416.5363636363636 L 260.5869799691833 416.5363636363636 Z" fill="#F8766D" fill-opacity="0.85" stroke="none"/><path d="M 260.5869799691833 364.24090909090904 L 270.5869799691833 364.24090909090904 L 270.5869799691833 374.24090909090904 L 260.5869799691833 374.24090909090904 Z" fill="#F8766D" fill-opacity="0.85" stroke="none"/><path d="M 321.87203389830506 413.585606060606 L 331.87203389830506 413.585606060606 L 331.87203389830506 423.585606060606 L 321.87203389830506 423.585606060606 Z" fill="#F8766D" fill-opacity="0.85" stroke="none"/><path d="M 332.0862095531587 328.994696969697 L 342.0862095531587 328.994696969697 L 342.0862095531587 338.994696969697 L 332.0862095531587 338.994696969697 Z" fill="#F8766D" fill-opacity="0.85" stroke="none"/><path d="M 260.5869799691833 392.43787878787873 L 270.5869799691833 392.43787878787873 L 270.5869799691833 402.43787878787873 L 260.5869799691833 402.43787878787873 Z" fill="#F8766D" fill-opacity="0.85" stroke="none"/><path d="M 311.6578582434514 314.8962121212121 L 321.6578582434514 314.8962121212121 L 321.6578582434514 324.8962121212121 L 311.6578582434514 324.8962121212121 Z" fill="#F8766D" fill-opacity="0.85" stroke="none"/><path d="M 270.80115562403694 392.43787878787873 L 280.80115562403694 392.43787878787873 L 280.80115562403694 402.43787878787873 L 270.80115562403694 402.43787878787873 Z" fill="#F8766D" fill-opacity="0.85" stroke="none"/><path d="M 199.30192604006155 364.24090909090904 L 209.30192604006155 364.24090909090904 L 209.30192604006155 374.24090909090904 L 199.30192604006155 374.24090909090904 Z" fill="#F8766D" fill-opacity="0.85" stroke="none"/><path d="M 229.94445300462243 413.585606060606 L 239.94445300462243 413.585606060606 L 239.94445300462243 423.585606060606 L 229.94445300462243 423.585606060606 Z" fill="#F8766D" fill-opacity="0.85" stroke="none"/><path d="M 311.6578582434514 350.1424242424242 L 321.6578582434514 350.1424242424242 L 321.6578582434514 360.1424242424242 L 311.6578582434514 360.1424242424242 Z" fill="#F8766D" fill-opacity="0.85" stroke="none"/><path d="M 250.37280431432967 462.930303030303 L 260.37280431432964 462.930303030303 L 260.37280431432964 472.930303030303 L 250.37280431432967 472.930303030303 Z" fill="#F8766D" fill-opacity="0.85" stroke="none"/><path d="M 321.87203389830506 251.4530303030303 L 331.87203389830506 251.4530303030303 L 331.87203389830506 261.4530303030303 L 321.87203389830506 261.4530303030303 Z" fill="#F8766D" fill-opacity="0.85" stroke="none"/><path d="M 229.94445300462243 378.33939393939386 L 239.94445300462243 378.33939393939386 L 239.94445300462243 388.33939393939386 L 229.94445300462243 388.33939393939386 Z" fill="#F8766D" fill-opacity="0.85" stroke="none"/><path d="M 291.2295069337442 321.9454545454545 L 301.2295069337442 321.9454545454545 L 301.2295069337442 331.9454545454545 L 291.2295069337442 331.9454545454545 Z" fill="#F8766D" fill-opacity="0.85" stroke="none"/><path d="M 275.80115562403694 441.7825757575757 L 280.80115562403694 451.7825757575757 L 270.80115562403694 451.7825757575757 Z" fill="#F8766D" fill-opacity="0.85" stroke="none"/><path d="M 306.44368258859777 413.585606060606 L 311.44368258859777 423.585606060606 L 301.44368258859777 423.585606060606 Z" fill="#F8766D" fill-opacity="0.85" stroke="none"/><path d="M 265.5869799691833 378.33939393939386 L 270.5869799691833 388.33939393939386 L 260.5869799691833 388.33939393939386 Z" fill="#F8766D" fill-opacity="0.85" stroke="none"/><path d="M 255.37280431432967 420.6348484848485 L 260.37280431432964 430.6348484848485 L 250.37280431432967 430.6348484848485 Z" fill="#F8766D" fill-opacity="0.85" stroke="none"/><path d="M 255.37280431432967 357.1916666666666 L 260.37280431432964 367.1916666666666 L 250.37280431432967 367.1916666666666 Z" fill="#F8766D" fill-opacity="0.85" stroke="none"/><path d="M 265.5869799691833 406.5363636363636 L 270.5869799691833 416.5363636363636 L 260.5869799691833 416.5363636363636 Z" fill="#F8766D" fill-opacity="0.85" stroke="none"/><path d="M 388.1570878274267 413.585606060606 L 393.1570878274267 423.585606060606 L 383.1570878274267 423.585606060606 Z" fill="#F8766D" fill-opacity="0.85" stroke="none"/><path d="M 418.79961479198766 307.84696969696967 L 423.79961479198766 317.84696969696967 L 413.79961479198766 317.84696969696967 Z" fill="#F8766D" fill-opacity="0.85" stroke="none"/><path d="M 214.51610169491516 434.7333333333333 L 219.51610169491516 444.7333333333333 L 209.51610169491516 444.7333333333333 Z" fill="#F8766D" fill-opacity="0.85" stroke="none"/><path d="M 224.7302773497688 286.6992424242424 L 229.7302773497688 296.6992424242424 L 219.7302773497688 296.6992424242424 Z" fill="#F8766D" fill-opacity="0.85" stroke="none"/><path d="M 234.94445300462243 448.83181818181816 L 239.94445300462243 458.83181818181816 L 229.94445300462243 458.83181818181816 Z" fill="#F8766D" fill-opacity="0.85" stroke="none"/><path d="M 449.4421417565485 307.84696969696967 L 454.4421417565485 317.84696969696967 L 444.4421417565485 317.84696969696967 Z" fill="#F8766D" fill-opacity="0.85" stroke="none"/><path d="M 265.5869799691833 392.43787878787873 L 270.5869799691833 402.43787878787873 L 260.5869799691833 402.43787878787873 Z" fill="#F8766D" fill-opacity="0.85" stroke="none"/><path d="M 326.87203389830506 300.7977272727273 L 331.87203389830506 310.7977272727273 L 321.87203389830506 310.7977272727273 Z" fill="#F8766D" fill-opacity="0.85" stroke="none"/><path d="M 143.0168721109398 505.22575757575754 L 148.0168721109398 515.2257575757576 L 138.0168721109398 515.2257575757576 Z" fill="#F8766D" fill-opacity="0.85" stroke="none"/><path d="M 286.0153312788906 336.04393939393935 L 291.0153312788906 346.04393939393935 L 281.0153312788906 346.04393939393935 Z" fill="#F8766D" fill-opacity="0.85" stroke="none"/><circle cx="286.0153312788906" cy="393.91325757575754" r="5.0" fill="#F8766D" fill-opacity="0.85" stroke="none"><title>(192, 3725)</title></circle><circle cx="398.37126348228037" cy="252.9284090909091" r="5.0" fill="#F8766D" fill-opacity="0.85" stroke="none"><title>(203, 4725)</title></circle><circle cx="194.08775038520793" cy="485.55340909090904" r="5.0" fill="#F8766D" fill-opacity="0.85" stroke="none"><title>(183, 3075)</title></circle><circle cx="265.5869799691833" cy="319.8962121212121" r="5.0" fill="#F8766D" fill-opacity="0.85" stroke="none"><title>(190, 4250)</title></circle><circle cx="296.2295069337442" cy="506.70113636363635" r="5.0" fill="#F8766D" fill-opacity="0.85" stroke="none"><title>(193, 2925)</title></circle><circle cx="204.30192604006155" cy="418.585606060606" r="5.0" fill="#F8766D" fill-opacity="0.85" stroke="none"><title>(184, 3550)</title></circle><circle cx="357.5145608628659" cy="390.38863636363635" r="5.0" fill="#F8766D" fill-opacity="0.85" stroke="none"><title>(199, 3750)</title></circle><circle cx="265.5869799691833" cy="369.24090909090904" r="5.0" fill="#F8766D" fill-opacity="0.85" stroke="none"><title>(190, 3900)</title></circle><circle cx="173.6593990755007" cy="471.4549242424242" r="5.0" fill="#F8766D" fill-opacity="0.85" stroke="none"><title>(181, 3175)</title></circle><circle cx="337.0862095531587" cy="245.87916666666666" r="5.0" fill="#F8766D" fill-opacity="0.85" stroke="none"><title>(197, 4775)</title></circle><circle cx="347.30038520801236" cy="379.8147727272727" r="5.0" fill="#F8766D" fill-opacity="0.85" stroke="none"><title>(198, 3825)</title></circle><circle cx="275.80115562403694" cy="270.5515151515151" r="5.0" fill="#F8766D" fill-opacity="0.85" stroke="none"><title>(191, 4600)</title></circle><circle cx="296.2295069337442" cy="467.930303030303" r="5.0" fill="#F8766D" fill-opacity="0.85" stroke="none"><title>(193, 3200)</title></circle><circle cx="337.0862095531587" cy="316.37159090909086" r="5.0" fill="#F8766D" fill-opacity="0.85" stroke="none"><title>(197, 4275)</title></circle><circle cx="275.80115562403694" cy="369.24090909090904" r="5.0" fill="#F8766D" fill-opacity="0.85" stroke="none"><title>(191, 3900)</title></circle><circle cx="326.87203389830506" cy="344.5685606060606" r="5.0" fill="#F8766D" fill-opacity="0.85" stroke="none"><title>(196, 4075)</title></circle><path d="M 240.15862865947605 505.22575757575754 L 250.15862865947605 505.22575757575754 L 250.15862865947605 515.2257575757576 L 240.15862865947605 515.2257575757576 Z" fill="#F8766D" fill-opacity="0.85" stroke="none"/><path d="M 352.5145608628659 381.8640151515151 L 362.5145608628659 381.8640151515151 L 362.5145608628659 391.8640151515151 L 352.5145608628659 391.8640151515151 Z" fill="#F8766D" fill-opacity="0.85" stroke="none"/><path d="M 250.37280431432967 441.7825757575757 L 260.37280431432964 441.7825757575757 L 260.37280431432964 451.7825757575757 L 250.37280431432967 451.7825757575757 Z" fill="#F8766D" fill-opacity="0.85" stroke="none"/><path d="M 250.37280431432967 445.3071969696969 L 260.37280431432964 445.3071969696969 L 260.37280431432964 455.3071969696969 L 250.37280431432967 455.3071969696969 Z" fill="#F8766D" fill-opacity="0.85" stroke="none"/><path d="M 229.94445300462243 469.9795454545454 L 239.94445300462243 469.9795454545454 L 239.94445300462243 479.9795454545454 L 229.94445300462243 479.9795454545454 Z" fill="#F8766D" fill-opacity="0.85" stroke="none"/><path d="M 342.30038520801236 420.6348484848485 L 352.30038520801236 420.6348484848485 L 352.30038520801236 430.6348484848485 L 342.30038520801236 430.6348484848485 Z" fill="#F8766D" fill-opacity="0.85" stroke="none"/><path d="M 117.58852080123256 427.68409090909086 L 127.58852080123256 427.68409090909086 L 127.58852080123256 437.68409090909086 L 117.58852080123256 437.68409090909086 Z" fill="#F8766D" fill-opacity="0.85" stroke="none"/><path d="M 383.1570878274267 367.76553030303023 L 393.1570878274267 367.76553030303023 L 393.1570878274267 377.76553030303023 L 383.1570878274267 377.76553030303023 Z" fill="#F8766D" fill-opacity="0.85" stroke="none"/><path d="M 219.7302773497688 484.07803030303023 L 229.7302773497688 484.07803030303023 L 229.7302773497688 494.07803030303023 L 219.7302773497688 494.07803030303023 Z" fill="#F8766D" fill-opacity="0.85" stroke="none"/><path d="M 352.5145608628659 350.1424242424242 L 362.5145608628659 350.1424242424242 L 362.5145608628659 360.1424242424242 L 352.5145608628659 360.1424242424242 Z" fill="#F8766D" fill-opacity="0.85" stroke="none"/><path d="M 270.80115562403694 452.35643939393935 L 280.80115562403694 452.35643939393935 L 280.80115562403694 462.35643939393935 L 270.80115562403694 462.35643939393935 Z" fill="#F8766D" fill-opacity="0.85" stroke="none"/><path d="M 311.6578582434514 307.84696969696967 L 321.6578582434514 307.84696969696967 L 321.6578582434514 317.84696969696967 L 311.6578582434514 317.84696969696967 Z" fill="#F8766D" fill-opacity="0.85" stroke="none"/><path d="M 270.80115562403694 484.07803030303023 L 280.80115562403694 484.07803030303023 L 280.80115562403694 494.07803030303023 L 270.80115562403694 494.07803030303023 Z" fill="#F8766D" fill-opacity="0.85" stroke="none"/><path d="M 464.8704930662558 350.1424242424242 L 474.8704930662558 350.1424242424242 L 474.8704930662558 360.1424242424242 L 464.8704930662558 360.1424242424242 Z" fill="#F8766D" fill-opacity="0.85" stroke="none"/><path d="M 260.5869799691833 445.3071969696969 L 270.5869799691833 445.3071969696969 L 270.5869799691833 455.3071969696969 L 260.5869799691833 455.3071969696969 Z" fill="#F8766D" fill-opacity="0.85" stroke="none"/><path d="M 332.0862095531587 420.6348484848485 L 342.0862095531587 420.6348484848485 L 342.0862095531587 430.6348484848485 L 332.0862095531587 430.6348484848485 Z" fill="#F8766D" fill-opacity="0.85" stroke="none"/><path d="M 296.2295069337442 420.6348484848485 L 301.2295069337442 430.6348484848485 L 291.2295069337442 430.6348484848485 Z" fill="#F8766D" fill-opacity="0.85" stroke="none"/><path d="M 357.5145608628659 283.1746212121212 L 362.5145608628659 293.1746212121212 L 352.5145608628659 293.1746212121212 Z" fill="#F8766D" fill-opacity="0.85" stroke="none"/><path d="M 234.94445300462243 431.2087121212121 L 239.94445300462243 441.2087121212121 L 229.94445300462243 441.2087121212121 Z" fill="#F8766D" fill-opacity="0.85" stroke="none"/><path d="M 265.5869799691833 364.24090909090904 L 270.5869799691833 374.24090909090904 L 260.5869799691833 374.24090909090904 Z" fill="#F8766D" fill-opacity="0.85" stroke="none"/><path d="M 275.80115562403694 466.4549242424242 L 280.80115562403694 476.4549242424242 L 270.80115562403694 476.4549242424242 Z" fill="#F8766D" fill-opacity="0.85" stroke="none"/><path d="M 367.72873651771954 353.6670454545454 L 372.72873651771954 363.6670454545454 L 362.72873651771954 363.6670454545454 Z" fill="#F8766D" fill-opacity="0.85" stroke="none"/><path d="M 214.51610169491516 434.7333333333333 L 219.51610169491516 444.7333333333333 L 209.51610169491516 444.7333333333333 Z" fill="#F8766D" fill-opacity="0.85" stroke="none"/><path d="M 296.2295069337442 314.8962121212121 L 301.2295069337442 324.8962121212121 L 291.2295069337442 324.8962121212121 Z" fill="#F8766D" fill-opacity="0.85" stroke="none"/><path d="M 296.2295069337442 434.7333333333333 L 301.2295069337442 444.7333333333333 L 291.2295069337442 444.7333333333333 Z" fill="#F8766D" fill-opacity="0.85" stroke="none"/><path d="M 234.94445300462243 424.15946969696967 L 239.94445300462243 434.15946969696967 L 229.94445300462243 434.15946969696967 Z" fill="#F8766D" fill-opacity="0.85" stroke="none"/><path d="M 245.15862865947605 484.07803030303023 L 250.15862865947605 494.07803030303023 L 240.15862865947605 494.07803030303023 Z" fill="#F8766D" fill-opacity="0.85" stroke="none"/><path d="M 265.5869799691833 388.91325757575754 L 270.5869799691833 398.91325757575754 L 260.5869799691833 398.91325757575754 Z" fill="#F8766D" fill-opacity="0.85" stroke="none"/><path d="M 286.0153312788906 491.12727272727267 L 291.0153312788906 501.12727272727267 L 281.0153312788906 501.12727272727267 Z" fill="#F8766D" fill-opacity="0.85" stroke="none"/><path d="M 214.51610169491516 399.48712121212117 L 219.51610169491516 409.48712121212117 L 209.51610169491516 409.48712121212117 Z" fill="#F8766D" fill-opacity="0.85" stroke="none"/><path d="M 265.5869799691833 314.8962121212121 L 270.5869799691833 324.8962121212121 L 260.5869799691833 324.8962121212121 Z" fill="#F8766D" fill-opacity="0.85" stroke="none"/><path d="M 204.30192604006155 424.15946969696967 L 209.30192604006155 434.15946969696967 L 199.30192604006155 434.15946969696967 Z" fill="#F8766D" fill-opacity="0.85" stroke="none"/><path d="M 316.6578582434514 427.68409090909086 L 321.6578582434514 437.68409090909086 L 311.6578582434514 437.68409090909086 Z" fill="#F8766D" fill-opacity="0.85" stroke="none"/><path d="M 296.2295069337442 385.38863636363635 L 301.2295069337442 395.38863636363635 L 291.2295069337442 395.38863636363635 Z" fill="#F8766D" fill-opacity="0.85" stroke="none"/><path d="M 234.94445300462243 392.43787878787873 L 239.94445300462243 402.43787878787873 L 229.94445300462243 402.43787878787873 Z" fill="#F8766D" fill-opacity="0.85" stroke="none"/><path d="M 377.9429121725732 350.1424242424242 L 382.9429121725732 360.1424242424242 L 372.9429121725732 360.1424242424242 Z" fill="#F8766D" fill-opacity="0.85" stroke="none"/><circle cx="480.08466872110944" cy="284.65" r="5.0" fill="#619CFF" fill-opacity="0.85" stroke="none"><title>(211, 4500)</title></circle><circle cx="674.1540061633283" cy="115.46818181818185" r="5.0" fill="#619CFF" fill-opacity="0.85" stroke="none"><title>(230, 5700)</title></circle><circle cx="469.8704930662558" cy="291.6992424242424" r="5.0" fill="#619CFF" fill-opacity="0.85" stroke="none"><title>(210, 4450)</title></circle><circle cx="551.5838983050847" cy="115.46818181818185" r="5.0" fill="#619CFF" fill-opacity="0.85" stroke="none"><title>(218, 5700)</title></circle><circle cx="520.9413713405239" cy="157.76363636363635" r="5.0" fill="#619CFF" fill-opacity="0.85" stroke="none"><title>(215, 5400)</title></circle><circle cx="469.8704930662558" cy="277.60075757575754" r="5.0" fill="#619CFF" fill-opacity="0.85" stroke="none"><title>(210, 4550)</title></circle><circle cx="480.08466872110944" cy="242.35454545454542" r="5.0" fill="#619CFF" fill-opacity="0.85" stroke="none"><title>(211, 4800)</title></circle><circle cx="561.7980739599384" cy="185.96060606060604" r="5.0" fill="#619CFF" fill-opacity="0.85" stroke="none"><title>(219, 5200)</title></circle><circle cx="459.65631741140214" cy="298.74848484848485" r="5.0" fill="#619CFF" fill-opacity="0.85" stroke="none"><title>(209, 4400)</title></circle><circle cx="520.9413713405239" cy="193.00984848484848" r="5.0" fill="#619CFF" fill-opacity="0.85" stroke="none"><title>(215, 5150)</title></circle><circle cx="510.72719568567027" cy="263.5022727272727" r="5.0" fill="#619CFF" fill-opacity="0.85" stroke="none"><title>(214, 4650)</title></circle><circle cx="531.1555469953776" cy="136.6159090909091" r="5.0" fill="#619CFF" fill-opacity="0.85" stroke="none"><title>(216, 5550)</title></circle><circle cx="510.72719568567027" cy="263.5022727272727" r="5.0" fill="#619CFF" fill-opacity="0.85" stroke="none"><title>(214, 4650)</title></circle><circle cx="500.5130200308166" cy="94.32045454545454" r="5.0" fill="#619CFF" fill-opacity="0.85" stroke="none"><title>(213, 5850)</title></circle><circle cx="469.8704930662558" cy="326.9454545454545" r="5.0" fill="#619CFF" fill-opacity="0.85" stroke="none"><title>(210, 4200)</title></circle><circle cx="541.3697226502311" cy="94.32045454545454" r="5.0" fill="#619CFF" fill-opacity="0.85" stroke="none"><title>(217, 5850)</title></circle><circle cx="469.8704930662558" cy="333.994696969697" r="5.0" fill="#619CFF" fill-opacity="0.85" stroke="none"><title>(210, 4150)</title></circle><circle cx="582.2264252696457" cy="30.877272727272725" r="5.0" fill="#619CFF" fill-opacity="0.85" stroke="none"><title>(221, 6300)</title></circle><circle cx="459.65631741140214" cy="242.35454545454542" r="5.0" fill="#619CFF" fill-opacity="0.85" stroke="none"><title>(209, 4800)</title></circle><circle cx="592.4406009244993" cy="164.8128787878788" r="5.0" fill="#619CFF" fill-opacity="0.85" stroke="none"><title>(222, 5350)</title></circle><circle cx="551.5838983050847" cy="115.46818181818185" r="5.0" fill="#619CFF" fill-opacity="0.85" stroke="none"><title>(218, 5700)</title></circle><circle cx="520.9413713405239" cy="214.15757575757573" r="5.0" fill="#619CFF" fill-opacity="0.85" stroke="none"><title>(215, 5000)</title></circle><circle cx="500.5130200308166" cy="298.74848484848485" r="5.0" fill="#619CFF" fill-opacity="0.85" stroke="none"><title>(213, 4400)</title></circle><circle cx="520.9413713405239" cy="207.10833333333335" r="5.0" fill="#619CFF" fill-opacity="0.85" stroke="none"><title>(215, 5050)</title></circle><circle cx="520.9413713405239" cy="214.15757575757573" r="5.0" fill="#619CFF" fill-opacity="0.85" stroke="none"><title>(215, 5000)</title></circle><circle cx="520.9413713405239" cy="200.0590909090909" r="5.0" fill="#619CFF" fill-opacity="0.85" stroke="none"><title>(215, 5100)</title></circle><circle cx="531.1555469953776" cy="341.04393939393935" r="5.0" fill="#619CFF" fill-opacity="0.85" stroke="none"><title>(216, 4100)</title></circle><circle cx="520.9413713405239" cy="122.51742424242423" r="5.0" fill="#619CFF" fill-opacity="0.85" stroke="none"><title>(215, 5650)</title></circle><circle cx="469.8704930662558" cy="270.5515151515151" r="5.0" fill="#619CFF" fill-opacity="0.85" stroke="none"><title>(210, 4600)</title></circle><circle cx="572.012249614792" cy="136.6159090909091" r="5.0" fill="#619CFF" fill-opacity="0.85" stroke="none"><title>(220, 5550)</title></circle><circle cx="592.4406009244993" cy="178.9113636363636" r="5.0" fill="#619CFF" fill-opacity="0.85" stroke="none"><title>(222, 5250)</title></circle><circle cx="459.65631741140214" cy="256.4530303030303" r="5.0" fill="#619CFF" fill-opacity="0.85" stroke="none"><title>(209, 4700)</title></circle><circle cx="439.22796610169485" cy="207.10833333333335" r="5.0" fill="#619CFF" fill-opacity="0.85" stroke="none"><title>(207, 5050)</title></circle><circle cx="674.1540061633283" cy="66.12348484848485" r="5.0" fill="#619CFF" fill-opacity="0.85" stroke="none"><title>(230, 6050)</title></circle><circle cx="572.012249614792" cy="193.00984848484848" r="5.0" fill="#619CFF" fill-opacity="0.85" stroke="none"><title>(220, 5150)</title></circle><circle cx="572.012249614792" cy="157.76363636363635" r="5.0" fill="#619CFF" fill-opacity="0.85" stroke="none"><title>(220, 5400)</title></circle><circle cx="500.5130200308166" cy="221.20681818181816" r="5.0" fill="#619CFF" fill-opacity="0.85" stroke="none"><title>(213, 4950)</title></circle><circle cx="561.7980739599384" cy="178.9113636363636" r="5.0" fill="#619CFF" fill-opacity="0.85" stroke="none"><title>(219, 5250)</title></circle><circle cx="449.4421417565485" cy="305.7977272727273" r="5.0" fill="#619CFF" fill-opacity="0.85" stroke="none"><title>(208, 4350)</title></circle><circle cx="449.4421417565485" cy="164.8128787878788" r="5.0" fill="#619CFF" fill-opacity="0.85" stroke="none"><title>(208, 5350)</title></circle><circle cx="449.4421417565485" cy="362.1916666666666" r="5.0" fill="#619CFF" fill-opacity="0.85" stroke="none"><title>(208, 3950)</title></circle><circle cx="623.0831278890602" cy="115.46818181818185" r="5.0" fill="#619CFF" fill-opacity="0.85" stroke="none"><title>(225, 5700)</title></circle><circle cx="469.8704930662558" cy="312.84696969696967" r="5.0" fill="#619CFF" fill-opacity="0.85" stroke="none"><title>(210, 4300)</title></circle><circle cx="531.1555469953776" cy="249.40378787878785" r="5.0" fill="#619CFF" fill-opacity="0.85" stroke="none"><title>(216, 4750)</title></circle><circle cx="592.4406009244993" cy="136.6159090909091" r="5.0" fill="#619CFF" fill-opacity="0.85" stroke="none"><title>(222, 5550)</title></circle><circle cx="541.3697226502311" cy="228.2560606060606" r="5.0" fill="#619CFF" fill-opacity="0.85" stroke="none"><title>(217, 4900)</title></circle><circle cx="469.8704930662558" cy="326.9454545454545" r="5.0" fill="#619CFF" fill-opacity="0.85" stroke="none"><title>(210, 4200)</title></circle><circle cx="623.0831278890602" cy="157.76363636363635" r="5.0" fill="#619CFF" fill-opacity="0.85" stroke="none"><title>(225, 5400)</title></circle><circle cx="500.5130200308166" cy="200.0590909090909" r="5.0" fill="#619CFF" fill-opacity="0.85" stroke="none"><title>(213, 5100)</title></circle><circle cx="520.9413713405239" cy="171.86212121212122" r="5.0" fill="#619CFF" fill-opacity="0.85" stroke="none"><title>(215, 5300)</title></circle><circle cx="469.8704930662558" cy="235.30530303030304" r="5.0" fill="#619CFF" fill-opacity="0.85" stroke="none"><title>(210, 4850)</title></circle><circle cx="572.012249614792" cy="171.86212121212122" r="5.0" fill="#619CFF" fill-opacity="0.85" stroke="none"><title>(220, 5300)</title></circle><circle cx="469.8704930662558" cy="298.74848484848485" r="5.0" fill="#619CFF" fill-opacity="0.85" stroke="none"><title>(210, 4400)</title></circle><circle cx="623.0831278890602" cy="214.15757575757573" r="5.0" fill="#619CFF" fill-opacity="0.85" stroke="none"><title>(225, 5000)</title></circle><circle cx="541.3697226502311" cy="228.2560606060606" r="5.0" fill="#619CFF" fill-opacity="0.85" stroke="none"><title>(217, 4900)</title></circle><circle cx="572.012249614792" cy="207.10833333333335" r="5.0" fill="#619CFF" fill-opacity="0.85" stroke="none"><title>(220, 5050)</title></circle><circle cx="449.4421417565485" cy="312.84696969696967" r="5.0" fill="#619CFF" fill-opacity="0.85" stroke="none"><title>(208, 4300)</title></circle><circle cx="572.012249614792" cy="214.15757575757573" r="5.0" fill="#619CFF" fill-opacity="0.85" stroke="none"><title>(220, 5000)</title></circle><circle cx="449.4421417565485" cy="291.6992424242424" r="5.0" fill="#619CFF" fill-opacity="0.85" stroke="none"><title>(208, 4450)</title></circle><circle cx="612.8689522342066" cy="136.6159090909091" r="5.0" fill="#619CFF" fill-opacity="0.85" stroke="none"><title>(224, 5550)</title></circle><circle cx="449.4421417565485" cy="326.9454545454545" r="5.0" fill="#619CFF" fill-opacity="0.85" stroke="none"><title>(208, 4200)</title></circle><circle cx="582.2264252696457" cy="171.86212121212122" r="5.0" fill="#619CFF" fill-opacity="0.85" stroke="none"><title>(221, 5300)</title></circle><circle cx="510.72719568567027" cy="298.74848484848485" r="5.0" fill="#619CFF" fill-opacity="0.85" stroke="none"><title>(214, 4400)</title></circle><circle cx="684.3681818181819" cy="122.51742424242423" r="5.0" fill="#619CFF" fill-opacity="0.85" stroke="none"><title>(231, 5650)</title></circle><circle cx="561.7980739599384" cy="256.4530303030303" r="5.0" fill="#619CFF" fill-opacity="0.85" stroke="none"><title>(219, 4700)</title></circle><circle cx="674.1540061633283" cy="115.46818181818185" r="5.0" fill="#619CFF" fill-opacity="0.85" stroke="none"><title>(230, 5700)</title></circle><circle cx="510.72719568567027" cy="263.5022727272727" r="5.0" fill="#619CFF" fill-opacity="0.85" stroke="none"><title>(214, 4650)</title></circle><circle cx="663.9398305084748" cy="101.36969696969697" r="5.0" fill="#619CFF" fill-opacity="0.85" stroke="none"><title>(229, 5800)</title></circle><circle cx="572.012249614792" cy="256.4530303030303" r="5.0" fill="#619CFF" fill-opacity="0.85" stroke="none"><title>(220, 4700)</title></circle><circle cx="602.654776579353" cy="136.6159090909091" r="5.0" fill="#619CFF" fill-opacity="0.85" stroke="none"><title>(223, 5550)</title></circle><circle cx="531.1555469953776" cy="249.40378787878785" r="5.0" fill="#619CFF" fill-opacity="0.85" stroke="none"><title>(216, 4750)</title></circle><circle cx="582.2264252696457" cy="214.15757575757573" r="5.0" fill="#619CFF" fill-opacity="0.85" stroke="none"><title>(221, 5000)</title></circle><circle cx="582.2264252696457" cy="200.0590909090909" r="5.0" fill="#619CFF" fill-opacity="0.85" stroke="none"><title>(221, 5100)</title></circle><circle cx="541.3697226502311" cy="185.96060606060604" r="5.0" fill="#619CFF" fill-opacity="0.85" stroke="none"><title>(217, 5200)</title></circle><circle cx="531.1555469953776" cy="256.4530303030303" r="5.0" fill="#619CFF" fill-opacity="0.85" stroke="none"><title>(216, 4700)</title></circle><circle cx="674.1540061633283" cy="101.36969696969697" r="5.0" fill="#619CFF" fill-opacity="0.85" stroke="none"><title>(230, 5800)</title></circle><circle cx="459.65631741140214" cy="270.5515151515151" r="5.0" fill="#619CFF" fill-opacity="0.85" stroke="none"><title>(209, 4600)</title></circle><circle cx="572.012249614792" cy="73.17272727272729" r="5.0" fill="#619CFF" fill-opacity="0.85" stroke="none"><title>(220, 6000)</title></circle><circle cx="520.9413713405239" cy="249.40378787878785" r="5.0" fill="#619CFF" fill-opacity="0.85" stroke="none"><title>(215, 4750)</title></circle><circle cx="602.654776579353" cy="80.22196969696972" r="5.0" fill="#619CFF" fill-opacity="0.85" stroke="none"><title>(223, 5950)</title></circle><circle cx="490.298844375963" cy="267.0268939393939" r="5.0" fill="#619CFF" fill-opacity="0.85" stroke="none"><title>(212, 4625)</title></circle><circle cx="582.2264252696457" cy="150.71439393939391" r="5.0" fill="#619CFF" fill-opacity="0.85" stroke="none"><title>(221, 5450)</title></circle><circle cx="490.298844375963" cy="252.9284090909091" r="5.0" fill="#619CFF" fill-opacity="0.85" stroke="none"><title>(212, 4725)</title></circle><circle cx="612.8689522342066" cy="164.8128787878788" r="5.0" fill="#619CFF" fill-opacity="0.85" stroke="none"><title>(224, 5350)</title></circle><circle cx="490.298844375963" cy="249.40378787878785" r="5.0" fill="#619CFF" fill-opacity="0.85" stroke="none"><title>(212, 4750)</title></circle><circle cx="653.7256548536211" cy="129.56666666666666" r="5.0" fill="#619CFF" fill-opacity="0.85" stroke="none"><title>(228, 5600)</title></circle><circle cx="551.5838983050847" cy="270.5515151515151" r="5.0" fill="#619CFF" fill-opacity="0.85" stroke="none"><title>(218, 4600)</title></circle><circle cx="551.5838983050847" cy="171.86212121212122" r="5.0" fill="#619CFF" fill-opacity="0.85" stroke="none"><title>(218, 5300)</title></circle><circle cx="490.298844375963" cy="231.7806818181818" r="5.0" fill="#619CFF" fill-opacity="0.85" stroke="none"><title>(212, 4875)</title></circle><circle cx="674.1540061633283" cy="136.6159090909091" r="5.0" fill="#619CFF" fill-opacity="0.85" stroke="none"><title>(230, 5550)</title></circle><circle cx="551.5838983050847" cy="221.20681818181816" r="5.0" fill="#619CFF" fill-opacity="0.85" stroke="none"><title>(218, 4950)</title></circle><circle cx="653.7256548536211" cy="157.76363636363635" r="5.0" fill="#619CFF" fill-opacity="0.85" stroke="none"><title>(228, 5400)</title></circle><circle cx="490.298844375963" cy="249.40378787878785" r="5.0" fill="#619CFF" fill-opacity="0.85" stroke="none"><title>(212, 4750)</title></circle><circle cx="612.8689522342066" cy="122.51742424242423" r="5.0" fill="#619CFF" fill-opacity="0.85" stroke="none"><title>(224, 5650)</title></circle><circle cx="510.72719568567027" cy="235.30530303030304" r="5.0" fill="#619CFF" fill-opacity="0.85" stroke="none"><title>(214, 4850)</title></circle><circle cx="633.2973035439138" cy="185.96060606060604" r="5.0" fill="#619CFF" fill-opacity="0.85" stroke="none"><title>(226, 5200)</title></circle><circle cx="531.1555469953776" cy="224.73143939393935" r="5.0" fill="#619CFF" fill-opacity="0.85" stroke="none"><title>(216, 4925)</title></circle><circle cx="592.4406009244993" cy="231.7806818181818" r="5.0" fill="#619CFF" fill-opacity="0.85" stroke="none"><title>(222, 4875)</title></circle><circle cx="398.37126348228037" cy="267.0268939393939" r="5.0" fill="#619CFF" fill-opacity="0.85" stroke="none"><title>(203, 4625)</title></circle><circle cx="623.0831278890602" cy="178.9113636363636" r="5.0" fill="#619CFF" fill-opacity="0.85" stroke="none"><title>(225, 5250)</title></circle><circle cx="561.7980739599384" cy="235.30530303030304" r="5.0" fill="#619CFF" fill-opacity="0.85" stroke="none"><title>(219, 4850)</title></circle><circle cx="653.7256548536211" cy="129.56666666666666" r="5.0" fill="#619CFF" fill-opacity="0.85" stroke="none"><title>(228, 5600)</title></circle><circle cx="520.9413713405239" cy="217.68219696969697" r="5.0" fill="#619CFF" fill-opacity="0.85" stroke="none"><title>(215, 4975)</title></circle><circle cx="653.7256548536211" cy="143.66515151515154" r="5.0" fill="#619CFF" fill-opacity="0.85" stroke="none"><title>(228, 5500)</title></circle><circle cx="531.1555469953776" cy="252.9284090909091" r="5.0" fill="#619CFF" fill-opacity="0.85" stroke="none"><title>(216, 4725)</title></circle><circle cx="520.9413713405239" cy="143.66515151515154" r="5.0" fill="#619CFF" fill-opacity="0.85" stroke="none"><title>(215, 5500)</title></circle><circle cx="469.8704930662558" cy="256.4530303030303" r="5.0" fill="#619CFF" fill-opacity="0.85" stroke="none"><title>(210, 4700)</title></circle><circle cx="561.7980739599384" cy="143.66515151515154" r="5.0" fill="#619CFF" fill-opacity="0.85" stroke="none"><title>(219, 5500)</title></circle><circle cx="449.4421417565485" cy="274.07613636363635" r="5.0" fill="#619CFF" fill-opacity="0.85" stroke="none"><title>(208, 4575)</title></circle><circle cx="459.65631741140214" cy="143.66515151515154" r="5.0" fill="#619CFF" fill-opacity="0.85" stroke="none"><title>(209, 5500)</title></circle><circle cx="531.1555469953776" cy="214.15757575757573" r="5.0" fill="#619CFF" fill-opacity="0.85" stroke="none"><title>(216, 5000)</title></circle><circle cx="663.9398305084748" cy="80.22196969696972" r="5.0" fill="#619CFF" fill-opacity="0.85" stroke="none"><title>(229, 5950)</title></circle><circle cx="500.5130200308166" cy="263.5022727272727" r="5.0" fill="#619CFF" fill-opacity="0.85" stroke="none"><title>(213, 4650)</title></circle><circle cx="674.1540061633283" cy="143.66515151515154" r="5.0" fill="#619CFF" fill-opacity="0.85" stroke="none"><title>(230, 5500)</title></circle><circle cx="541.3697226502311" cy="302.27310606060604" r="5.0" fill="#619CFF" fill-opacity="0.85" stroke="none"><title>(217, 4375)</title></circle><circle cx="674.1540061633283" cy="94.32045454545454" r="5.0" fill="#619CFF" fill-opacity="0.85" stroke="none"><title>(230, 5850)</title></circle><circle cx="541.3697226502311" cy="231.7806818181818" r="5.0" fill="#619CFF" fill-opacity="0.85" stroke="none"><title>(217, 4875)</title></circle><circle cx="592.4406009244993" cy="73.17272727272729" r="5.0" fill="#619CFF" fill-opacity="0.85" stroke="none"><title>(222, 6000)</title></circle><circle cx="510.72719568567027" cy="224.73143939393935" r="5.0" fill="#619CFF" fill-opacity="0.85" stroke="none"><title>(214, 4925)</title></circle><circle cx="520.9413713405239" cy="235.30530303030304" r="5.0" fill="#619CFF" fill-opacity="0.85" stroke="none"><title>(215, 4850)</title></circle><circle cx="592.4406009244993" cy="108.41893939393941" r="5.0" fill="#619CFF" fill-opacity="0.85" stroke="none"><title>(222, 5750)</title></circle><circle cx="490.298844375963" cy="185.96060606060604" r="5.0" fill="#619CFF" fill-opacity="0.85" stroke="none"><title>(212, 5200)</title></circle><circle cx="500.5130200308166" cy="157.76363636363635" r="5.0" fill="#619CFF" fill-opacity="0.85" stroke="none"><title>(213, 5400)</title></circle><path d="M 286.0153312788906 420.6348484848485 L 291.0153312788906 430.6348484848485 L 281.0153312788906 430.6348484848485 Z" fill="#00BA38" fill-opacity="0.85" stroke="none"/><path d="M 326.87203389830506 364.24090909090904 L 331.87203389830506 374.24090909090904 L 321.87203389830506 374.24090909090904 Z" fill="#00BA38" fill-opacity="0.85" stroke="none"/><path d="M 296.2295069337442 399.48712121212117 L 301.2295069337442 409.48712121212117 L 291.2295069337442 409.48712121212117 Z" fill="#00BA38" fill-opacity="0.85" stroke="none"/><path d="M 245.15862865947605 417.11022727272723 L 250.15862865947605 427.11022727272723 L 240.15862865947605 427.11022727272723 Z" fill="#00BA38" fill-opacity="0.85" stroke="none"/><path d="M 337.0862095531587 388.91325757575754 L 342.0862095531587 398.91325757575754 L 332.0862095531587 398.91325757575754 Z" fill="#00BA38" fill-opacity="0.85" stroke="none"/><path d="M 347.30038520801236 357.1916666666666 L 352.30038520801236 367.1916666666666 L 342.30038520801236 367.1916666666666 Z" fill="#00BA38" fill-opacity="0.85" stroke="none"/><path d="M 143.0168721109398 455.8810606060606 L 148.0168721109398 465.8810606060606 L 138.0168721109398 465.8810606060606 Z" fill="#00BA38" fill-opacity="0.85" stroke="none"/><path d="M 337.0862095531587 385.38863636363635 L 342.0862095531587 395.38863636363635 L 332.0862095531587 395.38863636363635 Z" fill="#00BA38" fill-opacity="0.85" stroke="none"/><path d="M 316.6578582434514 328.994696969697 L 321.6578582434514 338.994696969697 L 311.6578582434514 338.994696969697 Z" fill="#00BA38" fill-opacity="0.85" stroke="none"/><path d="M 347.30038520801236 392.43787878787873 L 352.30038520801236 402.43787878787873 L 342.30038520801236 402.43787878787873 Z" fill="#00BA38" fill-opacity="0.85" stroke="none"/><path d="M 296.2295069337442 378.33939393939386 L 301.2295069337442 388.33939393939386 L 291.2295069337442 388.33939393939386 Z" fill="#00BA38" fill-opacity="0.85" stroke="none"/><path d="M 306.44368258859777 381.8640151515151 L 311.44368258859777 391.8640151515151 L 301.44368258859777 391.8640151515151 Z" fill="#00BA38" fill-opacity="0.85" stroke="none"/><path d="M 214.51610169491516 392.43787878787873 L 219.51610169491516 402.43787878787873 L 209.51610169491516 402.43787878787873 Z" fill="#00BA38" fill-opacity="0.85" stroke="none"/><path d="M 377.9429121725732 343.0931818181818 L 382.9429121725732 353.0931818181818 L 372.9429121725732 353.0931818181818 Z" fill="#00BA38" fill-opacity="0.85" stroke="none"/><path d="M 265.5869799691833 410.0609848484848 L 270.5869799691833 420.0609848484848 L 260.5869799691833 420.0609848484848 Z" fill="#00BA38" fill-opacity="0.85" stroke="none"/><path d="M 377.9429121725732 343.0931818181818 L 382.9429121725732 353.0931818181818 L 372.9429121725732 353.0931818181818 Z" fill="#00BA38" fill-opacity="0.85" stroke="none"/><path d="M 337.0862095531587 448.83181818181816 L 342.0862095531587 458.83181818181816 L 332.0862095531587 458.83181818181816 Z" fill="#00BA38" fill-opacity="0.85" stroke="none"/><path d="M 173.6593990755007 392.43787878787873 L 178.6593990755007 402.43787878787873 L 168.6593990755007 402.43787878787873 Z" fill="#00BA38" fill-opacity="0.85" stroke="none"/><path d="M 265.5869799691833 427.68409090909086 L 270.5869799691833 437.68409090909086 L 260.5869799691833 437.68409090909086 Z" fill="#00BA38" fill-opacity="0.85" stroke="none"/><path d="M 316.6578582434514 293.74848484848485 L 321.6578582434514 303.74848484848485 L 311.6578582434514 303.74848484848485 Z" fill="#00BA38" fill-opacity="0.85" stroke="none"/><path d="M 173.6593990755007 406.5363636363636 L 178.6593990755007 416.5363636363636 L 168.6593990755007 416.5363636363636 Z" fill="#00BA38" fill-opacity="0.85" stroke="none"/><path d="M 275.80115562403694 434.7333333333333 L 280.80115562403694 444.7333333333333 L 270.80115562403694 444.7333333333333 Z" fill="#00BA38" fill-opacity="0.85" stroke="none"/><path d="M 234.94445300462243 505.22575757575754 L 239.94445300462243 515.2257575757576 L 229.94445300462243 515.2257575757576 Z" fill="#00BA38" fill-opacity="0.85" stroke="none"/><path d="M 296.2295069337442 378.33939393939386 L 301.2295069337442 388.33939393939386 L 291.2295069337442 388.33939393939386 Z" fill="#00BA38" fill-opacity="0.85" stroke="none"/><path d="M 316.6578582434514 448.83181818181816 L 321.6578582434514 458.83181818181816 L 311.6578582434514 458.83181818181816 Z" fill="#00BA38" fill-opacity="0.85" stroke="none"/><path d="M 337.0862095531587 328.994696969697 L 342.0862095531587 338.994696969697 L 332.0862095531587 338.994696969697 Z" fill="#00BA38" fill-opacity="0.85" stroke="none"/><path d="M 367.72873651771954 434.7333333333333 L 372.72873651771954 444.7333333333333 L 362.72873651771954 444.7333333333333 Z" fill="#00BA38" fill-opacity="0.85" stroke="none"/><path d="M 367.72873651771954 378.33939393939386 L 372.72873651771954 388.33939393939386 L 362.72873651771954 388.33939393939386 Z" fill="#00BA38" fill-opacity="0.85" stroke="none"/><path d="M 275.80115562403694 392.43787878787873 L 280.80115562403694 402.43787878787873 L 270.80115562403694 402.43787878787873 Z" fill="#00BA38" fill-opacity="0.85" stroke="none"/><path d="M 418.79961479198766 272.60075757575754 L 423.79961479198766 282.60075757575754 L 413.79961479198766 282.60075757575754 Z" fill="#00BA38" fill-opacity="0.85" stroke="none"/><path d="M 234.94445300462243 462.930303030303 L 239.94445300462243 472.930303030303 L 229.94445300462243 472.930303030303 Z" fill="#00BA38" fill-opacity="0.85" stroke="none"/><path d="M 377.9429121725732 307.84696969696967 L 382.9429121725732 317.84696969696967 L 372.9429121725732 317.84696969696967 Z" fill="#00BA38" fill-opacity="0.85" stroke="none"/><path d="M 234.94445300462243 441.7825757575757 L 239.94445300462243 451.7825757575757 L 229.94445300462243 451.7825757575757 Z" fill="#00BA38" fill-opacity="0.85" stroke="none"/><path d="M 398.37126348228037 336.04393939393935 L 403.37126348228037 346.04393939393935 L 393.37126348228037 346.04393939393935 Z" fill="#00BA38" fill-opacity="0.85" stroke="none"/><path d="M 316.6578582434514 406.5363636363636 L 321.6578582434514 416.5363636363636 L 311.6578582434514 416.5363636363636 Z" fill="#00BA38" fill-opacity="0.85" stroke="none"/><path d="M 357.5145608628659 364.24090909090904 L 362.5145608628659 374.24090909090904 L 352.5145608628659 374.24090909090904 Z" fill="#00BA38" fill-opacity="0.85" stroke="none"/><path d="M 316.6578582434514 371.2901515151515 L 321.6578582434514 381.2901515151515 L 311.6578582434514 381.2901515151515 Z" fill="#00BA38" fill-opacity="0.85" stroke="none"/><path d="M 469.8704930662558 237.35454545454542 L 474.8704930662558 247.35454545454542 L 464.8704930662558 247.35454545454542 Z" fill="#00BA38" fill-opacity="0.85" stroke="none"/><path d="M 286.0153312788906 533.4227272727272 L 291.0153312788906 543.4227272727272 L 281.0153312788906 543.4227272727272 Z" fill="#00BA38" fill-opacity="0.85" stroke="none"/><path d="M 418.79961479198766 279.65 L 423.79961479198766 289.65 L 413.79961479198766 289.65 Z" fill="#00BA38" fill-opacity="0.85" stroke="none"/><path d="M 469.8704930662558 357.1916666666666 L 474.8704930662558 367.1916666666666 L 464.8704930662558 367.1916666666666 Z" fill="#00BA38" fill-opacity="0.85" stroke="none"/><path d="M 234.94445300462243 399.48712121212117 L 239.94445300462243 409.48712121212117 L 229.94445300462243 409.48712121212117 Z" fill="#00BA38" fill-opacity="0.85" stroke="none"/><path d="M 326.87203389830506 413.585606060606 L 331.87203389830506 423.585606060606 L 321.87203389830506 423.585606060606 Z" fill="#00BA38" fill-opacity="0.85" stroke="none"/><path d="M 326.87203389830506 420.6348484848485 L 331.87203389830506 430.6348484848485 L 321.87203389830506 430.6348484848485 Z" fill="#00BA38" fill-opacity="0.85" stroke="none"/><path d="M 326.87203389830506 395.9625 L 331.87203389830506 405.9625 L 321.87203389830506 405.9625 Z" fill="#00BA38" fill-opacity="0.85" stroke="none"/><path d="M 377.9429121725732 286.6992424242424 L 382.9429121725732 296.6992424242424 L 372.9429121725732 296.6992424242424 Z" fill="#00BA38" fill-opacity="0.85" stroke="none"/><path d="M 265.5869799691833 434.7333333333333 L 270.5869799691833 444.7333333333333 L 260.5869799691833 444.7333333333333 Z" fill="#00BA38" fill-opacity="0.85" stroke="none"/><path d="M 490.298844375963 307.84696969696967 L 495.298844375963 317.84696969696967 L 485.298844375963 317.84696969696967 Z" fill="#00BA38" fill-opacity="0.85" stroke="none"/><path d="M 234.94445300462243 455.8810606060606 L 239.94445300462243 465.8810606060606 L 229.94445300462243 465.8810606060606 Z" fill="#00BA38" fill-opacity="0.85" stroke="none"/><path d="M 347.30038520801236 395.9625 L 352.30038520801236 405.9625 L 342.30038520801236 405.9625 Z" fill="#00BA38" fill-opacity="0.85" stroke="none"/><path d="M 357.5145608628659 445.3071969696969 L 362.5145608628659 455.3071969696969 L 352.5145608628659 455.3071969696969 Z" fill="#00BA38" fill-opacity="0.85" stroke="none"/><path d="M 377.9429121725732 357.1916666666666 L 382.9429121725732 367.1916666666666 L 372.9429121725732 367.1916666666666 Z" fill="#00BA38" fill-opacity="0.85" stroke="none"/><path d="M 296.2295069337442 406.5363636363636 L 301.2295069337442 416.5363636363636 L 291.2295069337442 416.5363636363636 Z" fill="#00BA38" fill-opacity="0.85" stroke="none"/><path d="M 398.37126348228037 343.0931818181818 L 403.37126348228037 353.0931818181818 L 393.37126348228037 353.0931818181818 Z" fill="#00BA38" fill-opacity="0.85" stroke="none"/><path d="M 234.94445300462243 441.7825757575757 L 239.94445300462243 451.7825757575757 L 229.94445300462243 451.7825757575757 Z" fill="#00BA38" fill-opacity="0.85" stroke="none"/><path d="M 337.0862095531587 427.68409090909086 L 342.0862095531587 437.68409090909086 L 332.0862095531587 437.68409090909086 Z" fill="#00BA38" fill-opacity="0.85" stroke="none"/><path d="M 275.80115562403694 455.8810606060606 L 280.80115562403694 465.8810606060606 L 270.80115562403694 465.8810606060606 Z" fill="#00BA38" fill-opacity="0.85" stroke="none"/><path d="M 398.37126348228037 343.0931818181818 L 403.37126348228037 353.0931818181818 L 393.37126348228037 353.0931818181818 Z" fill="#00BA38" fill-opacity="0.85" stroke="none"/><path d="M 388.1570878274267 378.33939393939386 L 393.1570878274267 388.33939393939386 L 383.1570878274267 388.33939393939386 Z" fill="#00BA38" fill-opacity="0.85" stroke="none"/><path d="M 306.44368258859777 417.11022727272723 L 311.44368258859777 427.11022727272723 L 301.44368258859777 427.11022727272723 Z" fill="#00BA38" fill-opacity="0.85" stroke="none"/><path d="M 429.0137904468413 357.1916666666666 L 434.0137904468413 367.1916666666666 L 424.0137904468413 367.1916666666666 Z" fill="#00BA38" fill-opacity="0.85" stroke="none"/><path d="M 255.37280431432967 399.48712121212117 L 260.37280431432964 409.48712121212117 L 250.37280431432967 409.48712121212117 Z" fill="#00BA38" fill-opacity="0.85" stroke="none"/><path d="M 316.6578582434514 399.48712121212117 L 321.6578582434514 409.48712121212117 L 311.6578582434514 409.48712121212117 Z" fill="#00BA38" fill-opacity="0.85" stroke="none"/><path d="M 439.22796610169485 350.1424242424242 L 444.22796610169485 360.1424242424242 L 434.22796610169485 360.1424242424242 Z" fill="#00BA38" fill-opacity="0.85" stroke="none"/><path d="M 388.1570878274267 434.7333333333333 L 393.1570878274267 444.7333333333333 L 383.1570878274267 444.7333333333333 Z" fill="#00BA38" fill-opacity="0.85" stroke="none"/><path d="M 296.2295069337442 381.8640151515151 L 301.2295069337442 391.8640151515151 L 291.2295069337442 391.8640151515151 Z" fill="#00BA38" fill-opacity="0.85" stroke="none"/><path d="M 469.8704930662558 336.04393939393935 L 474.8704930662558 346.04393939393935 L 464.8704930662558 346.04393939393935 Z" fill="#00BA38" fill-opacity="0.85" stroke="none"/><path d="M 347.30038520801236 381.8640151515151 L 352.30038520801236 391.8640151515151 L 342.30038520801236 391.8640151515151 Z" fill="#00BA38" fill-opacity="0.85" stroke="none"/><text x="724.5" y="7.5" fill="#333333" font-size="11.0" font-family="sans-serif" text-anchor="start">species</text><circle cx="729.5" cy="23.5" r="5.0" fill="#F8766D" fill-opacity="1.0" stroke="#F8766D" stroke-width="1.0"/><text x="738.5" y="27.5" fill="#333333" font-size="10.0" font-family="sans-serif" text-anchor="start">Adelie</text><circle cx="729.5" cy="39.5" r="5.0" fill="#00BA38" fill-opacity="1.0" stroke="#00BA38" stroke-width="1.0"/><text x="738.5" y="43.5" fill="#333333" font-size="10.0" font-family="sans-serif" text-anchor="start">Chinstrap</text><circle cx="729.5" cy="55.5" r="5.0" fill="#619CFF" fill-opacity="1.0" stroke="#619CFF" stroke-width="1.0"/><text x="738.5" y="59.5" fill="#333333" font-size="10.0" font-family="sans-serif" text-anchor="start">Gentoo</text></svg>