<svg xmlns="http://www.w3.org/2000/svg" width="624" height="384" viewBox="0 0 624 384"><rect x="0.0" y="0.0" width="624.0" height="384.0" fill="#ffffff" fill-opacity="1.0" stroke="none"/><text x="286.3482933333333" y="373.73333333333335" fill="#000000" font-size="14.666666666666666" font-family="sans-serif" text-anchor="middle">flipper_length_mm</text><text x="17.599999999999998" y="173.66666666666666" fill="#000000" font-size="14.666666666666666" font-family="sans-serif" text-anchor="middle" transform="rotate(-90.0 17.599999999999998 173.66666666666666)">body_mass_g</text><rect x="60.42666666666666" y="7.333333333333333" width="145.72552888888887" height="24.0" fill="#d9d9d9" fill-opacity="1.0" stroke="none"/><text x="133.2894311111111" y="26.0" fill="#4d4d4d" font-size="11.733333333333334" font-family="sans-serif" text-anchor="middle">Biscoe</text><rect x="60.42666666666666" y="31.333333333333332" width="145.72552888888887" height="308.66666666666663" fill="#ebebeb" fill-opacity="1.0" stroke="none"/><line x1="73.78671130285908" y1="31.333333333333332" x2="73.78671130285908" y2="340.0" stroke="#ffffff" stroke-width="0.6666666666666666"/><line x1="96.24056783427494" y1="31.333333333333332" x2="96.24056783427494" y2="340.0" stroke="#ffffff" stroke-width="0.6666666666666666"/><line x1="118.69442436569081" y1="31.333333333333332" x2="118.69442436569081" y2="340.0" stroke="#ffffff" stroke-width="0.6666666666666666"/><line x1="141.14828089710664" y1="31.333333333333332" x2="141.14828089710664" y2="340.0" stroke="#ffffff" stroke-width="0.6666666666666666"/><line x1="163.60213742852252" y1="31.333333333333332" x2="163.60213742852252" y2="340.0" stroke="#ffffff" stroke-width="0.6666666666666666"/><line x1="186.0559939599384" y1="31.333333333333332" x2="186.0559939599384" y2="340.0" stroke="#ffffff" stroke-width="0.6666666666666666"/><line x1="62.55978303715114" y1="31.333333333333332" x2="62.55978303715114" y2="340.0" stroke="#ffffff" stroke-width="1.3333333333333333"/><line x1="85.01363956856702" y1="31.333333333333332" x2="85.01363956856702" y2="340.0" stroke="#ffffff" stroke-width="1.3333333333333333"/><line x1="107.46749609998287" y1="31.333333333333332" x2="107.46749609998287" y2="340.0" stroke="#ffffff" stroke-width="1.3333333333333333"/><line x1="129.92135263139872" y1="31.333333333333332" x2="129.92135263139872" y2="340.0" stroke="#ffffff" stroke-width="1.3333333333333333"/><line x1="152.3752091628146" y1="31.333333333333332" x2="152.3752091628146" y2="340.0" stroke="#ffffff" stroke-width="1.3333333333333333"/><line x1="174.82906569423045" y1="31.333333333333332" x2="174.82906569423045" y2="340.0" stroke="#ffffff" stroke-width="1.3333333333333333"/><line x1="197.28292222564633" y1="31.333333333333332" x2="197.28292222564633" y2="340.0" stroke="#ffffff" stroke-width="1.3333333333333333"/><line x1="60.42666666666666" y1="263.6127946127946" x2="206.15219555555555" y2="263.6127946127946" stroke="#ffffff" stroke-width="0.6666666666666666"/><line x1="60.42666666666666" y1="185.66666666666666" x2="206.15219555555555" y2="185.66666666666666" stroke="#ffffff" stroke-width="0.6666666666666666"/><line x1="60.42666666666666" y1="107.72053872053871" x2="206.15219555555555" y2="107.72053872053871" stroke="#ffffff" stroke-width="0.6666666666666666"/><line x1="60.42666666666666" y1="302.58585858585855" x2="206.15219555555555" y2="302.58585858585855" stroke="#ffffff" stroke-width="1.3333333333333333"/><line x1="60.42666666666666" y1="224.63973063973063" x2="206.15219555555555" y2="224.63973063973063" stroke="#ffffff" stroke-width="1.3333333333333333"/><line x1="60.42666666666666" y1="146.69360269360268" x2="206.15219555555555" y2="146.69360269360268" stroke="#ffffff" stroke-width="1.3333333333333333"/><line x1="60.42666666666666" y1="68.74747474747474" x2="206.15219555555555" y2="68.74747474747474" stroke="#ffffff" stroke-width="1.3333333333333333"/><line x1="62.55978303715114" y1="340.0" x2="62.55978303715114" y2="343.66666666666663" stroke="#333333" stroke-width="1.3333333333333333"/><text x="62.55978303715114" y="355.9866666666667" fill="#4d4d4d" font-size="11.733333333333334" font-family="sans-serif" text-anchor="middle">170</text><line x1="85.01363956856702" y1="340.0" x2="85.01363956856702" y2="343.66666666666663" stroke="#333333" stroke-width="1.3333333333333333"/><text x="85.01363956856702" y="355.9866666666667" fill="#4d4d4d" font-size="11.733333333333334" font-family="sans-serif" text-anchor="middle">180</text><line x1="107.46749609998287" y1="340.0" x2="107.46749609998287" y2="343.66666666666663" stroke="#333333" stroke-width="1.3333333333333333"/><text x="107.46749609998287" y="355.9866666666667" fill="#4d4d4d" font-size="11.733333333333334" font-family="sans-serif" text-anchor="middle">190</text><line x1="129.92135263139872" y1="340.0" x2="129.92135263139872" y2="343.66666666666663" stroke="#333333" stroke-width="1.3333333333333333"/><text x="129.92135263139872" y="355.9866666666667" fill="#4d4d4d" font-size="11.733333333333334" font-family="sans-serif" text-anchor="middle">200</text><line x1="152.3752091628146" y1="340.0" x2="152.3752091628146" y2="343.66666666666663" stroke="#333333" stroke-width="1.3333333333333333"/><text x="152.3752091628146" y="355.9866666666667" fill="#4d4d4d" font-size="11.733333333333334" font-family="sans-serif" text-anchor="middle">210</text><line x1="174.82906569423045" y1="340.0" x2="174.82906569423045" y2="343.66666666666663" stroke="#333333" stroke-width="1.3333333333333333"/><text x="174.82906569423045" y="355.9866666666667" fill="#4d4d4d" font-size="11.733333333333334" font-family="sans-serif" text-anchor="middle">220</text><line x1="197.28292222564633" y1="340.0" x2="197.28292222564633" y2="343.66666666666663" stroke="#333333" stroke-width="1.3333333333333333"/><text x="197.28292222564633" y="355.9866666666667" fill="#4d4d4d" font-size="11.733333333333334" font-family="sans-serif" text-anchor="middle">230</text><line x1="60.42666666666666" y1="302.58585858585855" x2="56.76" y2="302.58585858585855" stroke="#333333" stroke-width="1.3333333333333333"/><text x="53.82666666666666" y="306.69252525252523" fill="#4d4d4d" font-size="11.733333333333334" font-family="sans-serif" text-anchor="end">3000</text><line x1="60.42666666666666" y1="224.63973063973063" x2="56.76" y2="224.63973063973063" stroke="#333333" stroke-width="1.3333333333333333"/><text x="53.82666666666666" y="228.7463973063973" fill="#4d4d4d" font-size="11.733333333333334" font-family="sans-serif" text-anchor="end">4000</text><line x1="60.42666666666666" y1="146.69360269360268" x2="56.76" y2="146.69360269360268" stroke="#333333" stroke-width="1.3333333333333333"/><text x="53.82666666666666" y="150.80026936026934" fill="#4d4d4d" font-size="11.733333333333334" font-family="sans-serif" text-anchor="end">5000</text><line x1="60.42666666666666" y1="68.74747474747474" x2="56.76" y2="68.74747474747474" stroke="#333333" stroke-width="1.3333333333333333"/><text x="53.82666666666666" y="72.85414141414141" fill="#4d4d4d" font-size="11.733333333333334" font-family="sans-serif" text-anchor="end">6000</text><circle cx="71.54132564971749" cy="271.4074074074074" r="3.1181102362204727" fill="#F8766D" fill-opacity="0.85" stroke="none"><title>(174, 3400)</title></circle><circle cx="85.01363956856702" cy="255.8181818181818" r="3.1181102362204727" fill="#F8766D" fill-opacity="0.85" stroke="none"><title>(180, 3600)</title></circle><circle cx="105.22211044684128" cy="240.22895622895618" r="3.1181102362204727" fill="#F8766D" fill-opacity="0.85" stroke="none"><title>(189, 3800)</title></circle><circle cx="96.24056783427494" cy="228.537037037037" r="3.1181102362204727" fill="#F8766D" fill-opacity="0.85" stroke="none"><title>(185, 3950)</title></circle><circle cx="85.01363956856702" cy="240.22895622895618" r="3.1181102362204727" fill="#F8766D" fill-opacity="0.85" stroke="none"><title>(180, 3800)</title></circle><circle cx="100.7313391405581" cy="240.22895622895618" r="3.1181102362204727" fill="#F8766D" fill-opacity="0.85" stroke="none"><title>(187, 3800)</title></circle><circle cx="91.74979652799176" cy="259.7154882154882" r="3.1181102362204727" fill="#F8766D" fill-opacity="0.85" stroke="none"><title>(183, 3550)</title></circle><circle cx="100.7313391405581" cy="286.99663299663297" r="3.1181102362204727" fill="#F8766D" fill-opacity="0.85" stroke="none"><title>(187, 3200)</title></circle><circle cx="67.05055434343431" cy="290.8939393939394" r="3.1181102362204727" fill="#F8766D" fill-opacity="0.85" stroke="none"><title>(172, 3150)</title></circle><circle cx="85.01363956856702" cy="228.537037037037" r="3.1181102362204727" fill="#F8766D" fill-opacity="0.85" stroke="none"><title>(180, 3950)</title></circle><circle cx="98.48595348741652" cy="263.6127946127946" r="3.1181102362204727" fill="#F8766D" fill-opacity="0.85" stroke="none"><title>(186, 3500)</title></circle><circle cx="102.9767247936997" cy="201.2558922558922" r="3.1181102362204727" fill="#F8766D" fill-opacity="0.85" stroke="none"><title>(188, 4300)</title></circle><circle cx="107.46749609998287" cy="267.510101010101" r="3.1181102362204727" fill="#F8766D" fill-opacity="0.85" stroke="none"><title>(190, 3450)</title></circle><circle cx="129.92135263139872" cy="220.74242424242425" r="3.1181102362204727" fill="#F8766D" fill-opacity="0.85" stroke="none"><title>(200, 4050)</title></circle><circle cx="100.7313391405581" cy="310.38047138047136" r="3.1181102362204727" fill="#F8766D" fill-opacity="0.85" stroke="none"><title>(187, 2900)</title></circle><circle cx="109.71288175312446" cy="248.02356902356905" r="3.1181102362204727" fill="#F8766D" fill-opacity="0.85" stroke="none"><title>(191, 3700)</title></circle><circle cx="98.48595348741652" cy="259.7154882154882" r="3.1181102362204727" fill="#F8766D" fill-opacity="0.85" stroke="none"><title>(186, 3550)</title></circle><circle cx="114.20365305940763" cy="240.22895622895618" r="3.1181102362204727" fill="#F8766D" fill-opacity="0.85" stroke="none"><title>(193, 3800)</title></circle><circle cx="87.25902522170858" cy="314.27777777777777" r="3.1181102362204727" fill="#F8766D" fill-opacity="0.85" stroke="none"><title>(181, 2850)</title></circle><circle cx="116.4490387125492" cy="244.12626262626262" r="3.1181102362204727" fill="#F8766D" fill-opacity="0.85" stroke="none"><title>(194, 3750)</title></circle><circle cx="96.24056783427494" cy="290.8939393939394" r="3.1181102362204727" fill="#F8766D" fill-opacity="0.85" stroke="none"><title>(185, 3150)</title></circle><circle cx="118.69442436569081" cy="193.46127946127945" r="3.1181102362204727" fill="#F8766D" fill-opacity="0.85" stroke="none"><title>(195, 4400)</title></circle><circle cx="96.24056783427494" cy="255.8181818181818" r="3.1181102362204727" fill="#F8766D" fill-opacity="0.85" stroke="none"><title>(185, 3600)</title></circle><circle cx="111.95826740626605" cy="220.74242424242425" r="3.1181102362204727" fill="#F8766D" fill-opacity="0.85" stroke="none"><title>(192, 4050)</title></circle><circle cx="93.99518218113334" cy="314.27777777777777" r="3.1181102362204727" fill="#F8766D" fill-opacity="0.85" stroke="none"><title>(184, 2850)</title></circle><circle cx="111.95826740626605" cy="228.537037037037" r="3.1181102362204727" fill="#F8766D" fill-opacity="0.85" stroke="none"><title>(192, 3950)</title></circle><circle cx="118.69442436569081" cy="275.3047138047138" r="3.1181102362204727" fill="#F8766D" fill-opacity="0.85" stroke="none"><title>(195, 3350)</title></circle><circle cx="102.9767247936997" cy="216.84511784511784" r="3.1181102362204727" fill="#F8766D" fill-opacity="0.85" stroke="none"><title>(188, 4100)</title></circle><circle cx="111.95826740626605" cy="246.07491582491582" r="3.1181102362204727" fill="#F8766D" fill-opacity="0.85" stroke="none"><title>(192, 3725)</title></circle><circle cx="136.65750959082348" cy="168.1287878787879" r="3.1181102362204727" fill="#F8766D" fill-opacity="0.85" stroke="none"><title>(203, 4725)</title></circle><circle cx="91.74979652799176" cy="296.73989898989896" r="3.1181102362204727" fill="#F8766D" fill-opacity="0.85" stroke="none"><title>(183, 3075)</title></circle><circle cx="107.46749609998287" cy="205.15319865319864" r="3.1181102362204727" fill="#F8766D" fill-opacity="0.85" stroke="none"><title>(190, 4250)</title></circle><circle cx="114.20365305940763" cy="308.43181818181813" r="3.1181102362204727" fill="#F8766D" fill-opacity="0.85" stroke="none"><title>(193, 2925)</title></circle><circle cx="93.99518218113334" cy="259.7154882154882" r="3.1181102362204727" fill="#F8766D" fill-opacity="0.85" stroke="none"><title>(184, 3550)</title></circle><circle cx="127.67596697825714" cy="244.12626262626262" r="3.1181102362204727" fill="#F8766D" fill-opacity="0.85" stroke="none"><title>(199, 3750)</title></circle><circle cx="107.46749609998287" cy="232.43434343434342" r="3.1181102362204727" fill="#F8766D" fill-opacity="0.85" stroke="none"><title>(190, 3900)</title></circle><circle cx="87.25902522170858" cy="288.94528619528614" r="3.1181102362204727" fill="#F8766D" fill-opacity="0.85" stroke="none"><title>(181, 3175)</title></circle><circle cx="123.18519567197396" cy="164.23148148148147" r="3.1181102362204727" fill="#F8766D" fill-opacity="0.85" stroke="none"><title>(197, 4775)</title></circle><circle cx="125.43058132511557" cy="238.28030303030303" r="3.1181102362204727" fill="#F8766D" fill-opacity="0.85" stroke="none"><title>(198, 3825)</title></circle><circle cx="109.71288175312446" cy="177.87205387205384" r="3.1181102362204727" fill="#F8766D" fill-opacity="0.85" stroke="none"><title>(191, 4600)</title></circle><circle cx="114.20365305940763" cy="286.99663299663297" r="3.1181102362204727" fill="#F8766D" fill-opacity="0.85" stroke="none"><title>(193, 3200)</title></circle><circle cx="123.18519567197396" cy="203.20454545454544" r="3.1181102362204727" fill="#F8766D" fill-opacity="0.85" stroke="none"><title>(197, 4275)</title></circle><circle cx="109.71288175312446" cy="232.43434343434342" r="3.1181102362204727" fill="#F8766D" fill-opacity="0.85" stroke="none"><title>(191, 3900)</title></circle><circle cx="120.93981001883238" cy="218.79377104377105" r="3.1181102362204727" fill="#F8766D" fill-opacity="0.85" stroke="none"><title>(196, 4075)</title></circle><path d="M 151.50248457973572 182.54855643044618 L 157.73870505217664 182.54855643044618 L 157.73870505217664 188.78477690288713 L 151.50248457973572 188.78477690288713 Z" fill="#619CFF" fill-opacity="0.85" stroke="none"/><path d="M 194.16481198942586 89.01320289509269 L 200.4010324618668 89.01320289509269 L 200.4010324618668 95.24942336753362 L 194.16481198942586 95.24942336753362 Z" fill="#619CFF" fill-opacity="0.85" stroke="none"/><path d="M 149.25709892659413 186.44586282775256 L 155.49331939903504 186.44586282775256 L 155.49331939903504 192.68208330019354 L 149.25709892659413 192.68208330019354 Z" fill="#619CFF" fill-opacity="0.85" stroke="none"/><path d="M 167.2201841517268 89.01320289509269 L 173.45640462416776 89.01320289509269 L 173.45640462416776 95.24942336753362 L 167.2201841517268 95.24942336753362 Z" fill="#619CFF" fill-opacity="0.85" stroke="none"/><path d="M 160.48402719230205 112.39704127893103 L 166.720247664743 112.39704127893103 L 166.720247664743 118.63326175137196 L 160.48402719230205 118.63326175137196 Z" fill="#619CFF" fill-opacity="0.85" stroke="none"/><path d="M 149.25709892659413 178.65125003313977 L 155.49331939903504 178.65125003313977 L 155.49331939903504 184.88747050558075 L 149.25709892659413 184.88747050558075 Z" fill="#619CFF" fill-opacity="0.85" stroke="none"/><path d="M 151.50248457973572 159.1647180466078 L 157.73870505217664 159.1647180466078 L 157.73870505217664 165.4009385190487 L 151.50248457973572 165.4009385190487 Z" fill="#619CFF" fill-opacity="0.85" stroke="none"/><path d="M 169.4655698048684 127.98626686815663 L 175.70179027730936 127.98626686815663 L 175.70179027730936 134.22248734059755 L 169.4655698048684 134.22248734059755 Z" fill="#619CFF" fill-opacity="0.85" stroke="none"/><path d="M 147.01171327345253 190.34316922505894 L 153.24793374589348 190.34316922505894 L 153.24793374589348 196.57938969749992 L 147.01171327345253 196.57938969749992 Z" fill="#619CFF" fill-opacity="0.85" stroke="none"/><path d="M 160.48402719230205 131.883573265463 L 166.720247664743 131.883573265463 L 166.720247664743 138.11979373790393 L 160.48402719230205 138.11979373790393 Z" fill="#619CFF" fill-opacity="0.85" stroke="none"/><path d="M 158.23864153916048 170.85663723852701 L 164.4748620116014 170.85663723852701 L 164.4748620116014 177.09285771096796 L 158.23864153916048 177.09285771096796 Z" fill="#619CFF" fill-opacity="0.85" stroke="none"/><path d="M 162.72941284544365 100.70512208701186 L 168.96563331788457 100.70512208701186 L 168.96563331788457 106.94134255945279 L 162.72941284544365 106.94134255945279 Z" fill="#619CFF" fill-opacity="0.85" stroke="none"/><path d="M 158.23864153916048 170.85663723852701 L 164.4748620116014 170.85663723852701 L 164.4748620116014 177.09285771096796 L 158.23864153916048 177.09285771096796 Z" fill="#619CFF" fill-opacity="0.85" stroke="none"/><path d="M 155.9932558860189 77.32128370317344 L 162.2294763584598 77.32128370317344 L 162.2294763584598 83.55750417561438 L 155.9932558860189 83.55750417561438 Z" fill="#619CFF" fill-opacity="0.85" stroke="none"/><path d="M 149.25709892659413 205.93239481428455 L 155.49331939903504 205.93239481428455 L 155.49331939903504 212.16861528672553 L 149.25709892659413 212.16861528672553 Z" fill="#619CFF" fill-opacity="0.85" stroke="none"/><path d="M 164.97479849858524 77.32128370317344 L 171.2110189710262 77.32128370317344 L 171.2110189710262 83.55750417561438 L 164.97479849858524 83.55750417561438 Z" fill="#619CFF" fill-opacity="0.85" stroke="none"/><path d="M 149.25709892659413 209.829701211591 L 155.49331939903504 209.829701211591 L 155.49331939903504 216.06592168403193 L 149.25709892659413 216.06592168403193 Z" fill="#619CFF" fill-opacity="0.85" stroke="none"/><path d="M 173.95634111115157 42.24552612741586 L 180.19256158359252 42.24552612741586 L 180.19256158359252 48.481746599856805 L 173.95634111115157 48.481746599856805 Z" fill="#619CFF" fill-opacity="0.85" stroke="none"/><path d="M 147.01171327345253 159.1647180466078 L 153.24793374589348 159.1647180466078 L 153.24793374589348 165.4009385190487 L 147.01171327345253 165.4009385190487 Z" fill="#619CFF" fill-opacity="0.85" stroke="none"/><path d="M 176.20172676429314 116.29434767623746 L 182.43794723673412 116.29434767623746 L 182.43794723673412 122.53056814867838 L 176.20172676429314 122.53056814867838 Z" fill="#619CFF" fill-opacity="0.85" stroke="none"/><path d="M 167.2201841517268 89.01320289509269 L 173.45640462416776 89.01320289509269 L 173.45640462416776 95.24942336753362 L 167.2201841517268 95.24942336753362 Z" fill="#619CFF" fill-opacity="0.85" stroke="none"/><path d="M 160.48402719230205 143.5754924573822 L 166.720247664743 143.5754924573822 L 166.720247664743 149.81171292982316 L 160.48402719230205 149.81171292982316 Z" fill="#619CFF" fill-opacity="0.85" stroke="none"/><path d="M 155.9932558860189 190.34316922505894 L 162.2294763584598 190.34316922505894 L 162.2294763584598 196.57938969749992 L 155.9932558860189 196.57938969749992 Z" fill="#619CFF" fill-opacity="0.85" stroke="none"/><path d="M 160.48402719230205 139.67818606007583 L 166.720247664743 139.67818606007583 L 166.720247664743 145.91440653251675 L 160.48402719230205 145.91440653251675 Z" fill="#619CFF" fill-opacity="0.85" stroke="none"/><path d="M 160.48402719230205 143.5754924573822 L 166.720247664743 143.5754924573822 L 166.720247664743 149.81171292982316 L 160.48402719230205 149.81171292982316 Z" fill="#619CFF" fill-opacity="0.85" stroke="none"/><path d="M 160.48402719230205 135.78087966276945 L 166.720247664743 135.78087966276945 L 166.720247664743 142.01710013521037 L 160.48402719230205 142.01710013521037 Z" fill="#619CFF" fill-opacity="0.85" stroke="none"/><path d="M 162.72941284544365 213.72700760889737 L 168.96563331788457 213.72700760889737 L 168.96563331788457 219.96322808133834 L 162.72941284544365 219.96322808133834 Z" fill="#619CFF" fill-opacity="0.85" stroke="none"/><path d="M 160.48402719230205 92.91050929239904 L 166.720247664743 92.91050929239904 L 166.720247664743 99.14672976483998 L 160.48402719230205 99.14672976483998 Z" fill="#619CFF" fill-opacity="0.85" stroke="none"/><path d="M 149.25709892659413 174.75394363583337 L 155.49331939903504 174.75394363583337 L 155.49331939903504 180.9901641082743 L 149.25709892659413 180.9901641082743 Z" fill="#619CFF" fill-opacity="0.85" stroke="none"/><path d="M 171.71095545800998 100.70512208701186 L 177.94717593045095 100.70512208701186 L 177.94717593045095 106.94134255945279 L 171.71095545800998 106.94134255945279 Z" fill="#619CFF" fill-opacity="0.85" stroke="none"/><path d="M 176.20172676429314 124.08896047085024 L 182.43794723673412 124.08896047085024 L 182.43794723673412 130.32518094329117 L 176.20172676429314 130.32518094329117 Z" fill="#619CFF" fill-opacity="0.85" stroke="none"/><path d="M 147.01171327345253 166.9593308412206 L 153.24793374589348 166.9593308412206 L 153.24793374589348 173.19555131366155 L 147.01171327345253 173.19555131366155 Z" fill="#619CFF" fill-opacity="0.85" stroke="none"/><path d="M 142.52094196716936 139.67818606007583 L 148.75716243961028 139.67818606007583 L 148.75716243961028 145.91440653251675 L 142.52094196716936 145.91440653251675 Z" fill="#619CFF" fill-opacity="0.85" stroke="none"/><path d="M 194.16481198942586 61.732058113947886 L 200.4010324618668 61.732058113947886 L 200.4010324618668 67.96827858638883 L 194.16481198942586 67.96827858638883 Z" fill="#619CFF" fill-opacity="0.85" stroke="none"/><path d="M 171.71095545800998 131.883573265463 L 177.94717593045095 131.883573265463 L 177.94717593045095 138.11979373790393 L 171.71095545800998 138.11979373790393 Z" fill="#619CFF" fill-opacity="0.85" stroke="none"/><path d="M 171.71095545800998 112.39704127893103 L 177.94717593045095 112.39704127893103 L 177.94717593045095 118.63326175137196 L 171.71095545800998 118.63326175137196 Z" fill="#619CFF" fill-opacity="0.85" stroke="none"/><path d="M 155.9932558860189 147.47279885468862 L 162.2294763584598 147.47279885468862 L 162.2294763584598 153.70901932712954 L 155.9932558860189 153.70901932712954 Z" fill="#619CFF" fill-opacity="0.85" stroke="none"/><path d="M 169.4655698048684 124.08896047085024 L 175.70179027730936 124.08896047085024 L 175.70179027730936 130.32518094329117 L 169.4655698048684 130.32518094329117 Z" fill="#619CFF" fill-opacity="0.85" stroke="none"/><path d="M 144.76632762031096 194.24047562236538 L 151.00254809275188 194.24047562236538 L 151.00254809275188 200.47669609480636 L 144.76632762031096 200.47669609480636 Z" fill="#619CFF" fill-opacity="0.85" stroke="none"/><path d="M 144.76632762031096 116.29434767623746 L 151.00254809275188 116.29434767623746 L 151.00254809275188 122.53056814867838 L 144.76632762031096 122.53056814867838 Z" fill="#619CFF" fill-opacity="0.85" stroke="none"/><path d="M 144.76632762031096 225.41892680081654 L 151.00254809275188 225.41892680081654 L 151.00254809275188 231.6551472732575 L 144.76632762031096 231.6551472732575 Z" fill="#619CFF" fill-opacity="0.85" stroke="none"/><path d="M 182.9378837237179 89.01320289509269 L 189.17410419615888 89.01320289509269 L 189.17410419615888 95.24942336753362 L 182.9378837237179 95.24942336753362 Z" fill="#619CFF" fill-opacity="0.85" stroke="none"/><path d="M 149.25709892659413 198.13778201967173 L 155.49331939903504 198.13778201967173 L 155.49331939903504 204.3740024921127 L 149.25709892659413 204.3740024921127 Z" fill="#619CFF" fill-opacity="0.85" stroke="none"/><path d="M 162.72941284544365 163.0620244439142 L 168.96563331788457 163.0620244439142 L 168.96563331788457 169.29824491635515 L 162.72941284544365 169.29824491635515 Z" fill="#619CFF" fill-opacity="0.85" stroke="none"/><path d="M 176.20172676429314 100.70512208701186 L 182.43794723673412 100.70512208701186 L 182.43794723673412 106.94134255945279 L 176.20172676429314 106.94134255945279 Z" fill="#619CFF" fill-opacity="0.85" stroke="none"/><path d="M 164.97479849858524 151.37010525199503 L 171.2110189710262 151.37010525199503 L 171.2110189710262 157.60632572443598 L 164.97479849858524 157.60632572443598 Z" fill="#619CFF" fill-opacity="0.85" stroke="none"/><path d="M 149.25709892659413 205.93239481428455 L 155.49331939903504 205.93239481428455 L 155.49331939903504 212.16861528672553 L 149.25709892659413 212.16861528672553 Z" fill="#619CFF" fill-opacity="0.85" stroke="none"/><path d="M 182.9378837237179 112.39704127893103 L 189.17410419615888 112.39704127893103 L 189.17410419615888 118.63326175137196 L 182.9378837237179 118.63326175137196 Z" fill="#619CFF" fill-opacity="0.85" stroke="none"/><path d="M 155.9932558860189 135.78087966276945 L 162.2294763584598 135.78087966276945 L 162.2294763584598 142.01710013521037 L 155.9932558860189 142.01710013521037 Z" fill="#619CFF" fill-opacity="0.85" stroke="none"/><path d="M 160.48402719230205 120.19165407354384 L 166.720247664743 120.19165407354384 L 166.720247664743 126.42787454598478 L 160.48402719230205 126.42787454598478 Z" fill="#619CFF" fill-opacity="0.85" stroke="none"/><path d="M 149.25709892659413 155.26741164930144 L 155.49331939903504 155.26741164930144 L 155.49331939903504 161.50363212174236 L 149.25709892659413 161.50363212174236 Z" fill="#619CFF" fill-opacity="0.85" stroke="none"/><path d="M 171.71095545800998 120.19165407354384 L 177.94717593045095 120.19165407354384 L 177.94717593045095 126.42787454598478 L 171.71095545800998 126.42787454598478 Z" fill="#619CFF" fill-opacity="0.85" stroke="none"/><path d="M 149.25709892659413 190.34316922505894 L 155.49331939903504 190.34316922505894 L 155.49331939903504 196.57938969749992 L 149.25709892659413 196.57938969749992 Z" fill="#619CFF" fill-opacity="0.85" stroke="none"/><path d="M 182.9378837237179 143.5754924573822 L 189.17410419615888 143.5754924573822 L 189.17410419615888 149.81171292982316 L 182.9378837237179 149.81171292982316 Z" fill="#619CFF" fill-opacity="0.85" stroke="none"/><path d="M 164.97479849858524 151.37010525199503 L 171.2110189710262 151.37010525199503 L 171.2110189710262 157.60632572443598 L 164.97479849858524 157.60632572443598 Z" fill="#619CFF" fill-opacity="0.85" stroke="none"/><path d="M 171.71095545800998 139.67818606007583 L 177.94717593045095 139.67818606007583 L 177.94717593045095 145.91440653251675 L 171.71095545800998 145.91440653251675 Z" fill="#619CFF" fill-opacity="0.85" stroke="none"/><path d="M 144.76632762031096 198.13778201967173 L 151.00254809275188 198.13778201967173 L 151.00254809275188 204.3740024921127 L 144.76632762031096 204.3740024921127 Z" fill="#619CFF" fill-opacity="0.85" stroke="none"/><path d="M 171.71095545800998 143.5754924573822 L 177.94717593045095 143.5754924573822 L 177.94717593045095 149.81171292982316 L 171.71095545800998 149.81171292982316 Z" fill="#619CFF" fill-opacity="0.85" stroke="none"/><path d="M 144.76632762031096 186.44586282775256 L 151.00254809275188 186.44586282775256 L 151.00254809275188 192.68208330019354 L 144.76632762031096 192.68208330019354 Z" fill="#619CFF" fill-opacity="0.85" stroke="none"/><path d="M 180.69249807057633 100.70512208701186 L 186.92871854301728 100.70512208701186 L 186.92871854301728 106.94134255945279 L 180.69249807057633 106.94134255945279 Z" fill="#619CFF" fill-opacity="0.85" stroke="none"/><path d="M 144.76632762031096 205.93239481428455 L 151.00254809275188 205.93239481428455 L 151.00254809275188 212.16861528672553 L 144.76632762031096 212.16861528672553 Z" fill="#619CFF" fill-opacity="0.85" stroke="none"/><path d="M 173.95634111115157 120.19165407354384 L 180.19256158359252 120.19165407354384 L 180.19256158359252 126.42787454598478 L 173.95634111115157 126.42787454598478 Z" fill="#619CFF" fill-opacity="0.85" stroke="none"/><path d="M 158.23864153916048 190.34316922505894 L 164.4748620116014 190.34316922505894 L 164.4748620116014 196.57938969749992 L 158.23864153916048 196.57938969749992 Z" fill="#619CFF" fill-opacity="0.85" stroke="none"/><path d="M 196.41019764256743 92.91050929239904 L 202.6464181150084 92.91050929239904 L 202.6464181150084 99.14672976483998 L 196.41019764256743 99.14672976483998 Z" fill="#619CFF" fill-opacity="0.85" stroke="none"/><path d="M 169.4655698048684 166.9593308412206 L 175.70179027730936 166.9593308412206 L 175.70179027730936 173.19555131366155 L 169.4655698048684 173.19555131366155 Z" fill="#619CFF" fill-opacity="0.85" stroke="none"/><path d="M 194.16481198942586 89.01320289509269 L 200.4010324618668 89.01320289509269 L 200.4010324618668 95.24942336753362 L 194.16481198942586 95.24942336753362 Z" fill="#619CFF" fill-opacity="0.85" stroke="none"/><path d="M 158.23864153916048 170.85663723852701 L 164.4748620116014 170.85663723852701 L 164.4748620116014 177.09285771096796 L 158.23864153916048 177.09285771096796 Z" fill="#619CFF" fill-opacity="0.85" stroke="none"/><path d="M 191.91942633628426 81.21859010047987 L 198.15564680872524 81.21859010047987 L 198.15564680872524 87.4548105729208 L 191.91942633628426 87.4548105729208 Z" fill="#619CFF" fill-opacity="0.85" stroke="none"/><path d="M 171.71095545800998 166.9593308412206 L 177.94717593045095 166.9593308412206 L 177.94717593045095 173.19555131366155 L 171.71095545800998 173.19555131366155 Z" fill="#619CFF" fill-opacity="0.85" stroke="none"/><path d="M 178.44711241743474 100.70512208701186 L 184.68333288987571 100.70512208701186 L 184.68333288987571 106.94134255945279 L 178.44711241743474 106.94134255945279 Z" fill="#619CFF" fill-opacity="0.85" stroke="none"/><path d="M 162.72941284544365 163.0620244439142 L 168.96563331788457 163.0620244439142 L 168.96563331788457 169.29824491635515 L 162.72941284544365 169.29824491635515 Z" fill="#619CFF" fill-opacity="0.85" stroke="none"/><path d="M 173.95634111115157 143.5754924573822 L 180.19256158359252 143.5754924573822 L 180.19256158359252 149.81171292982316 L 173.95634111115157 149.81171292982316 Z" fill="#619CFF" fill-opacity="0.85" stroke="none"/><path d="M 173.95634111115157 135.78087966276945 L 180.19256158359252 135.78087966276945 L 180.19256158359252 142.01710013521037 L 173.95634111115157 142.01710013521037 Z" fill="#619CFF" fill-opacity="0.85" stroke="none"/><path d="M 164.97479849858524 127.98626686815663 L 171.2110189710262 127.98626686815663 L 171.2110189710262 134.22248734059755 L 164.97479849858524 134.22248734059755 Z" fill="#619CFF" fill-opacity="0.85" stroke="none"/><path d="M 162.72941284544365 166.9593308412206 L 168.96563331788457 166.9593308412206 L 168.96563331788457 173.19555131366155 L 162.72941284544365 173.19555131366155 Z" fill="#619CFF" fill-opacity="0.85" stroke="none"/><path d="M 194.16481198942586 81.21859010047987 L 200.4010324618668 81.21859010047987 L 200.4010324618668 87.4548105729208 L 194.16481198942586 87.4548105729208 Z" fill="#619CFF" fill-opacity="0.85" stroke="none"/><path d="M 147.01171327345253 174.75394363583337 L 153.24793374589348 174.75394363583337 L 153.24793374589348 180.9901641082743 L 147.01171327345253 180.9901641082743 Z" fill="#619CFF" fill-opacity="0.85" stroke="none"/><path d="M 171.71095545800998 65.62936451125427 L 177.94717593045095 65.62936451125427 L 177.94717593045095 71.86558498369521 L 171.71095545800998 71.86558498369521 Z" fill="#619CFF" fill-opacity="0.85" stroke="none"/><path d="M 160.48402719230205 163.0620244439142 L 166.720247664743 163.0620244439142 L 166.720247664743 169.29824491635515 L 160.48402719230205 169.29824491635515 Z" fill="#619CFF" fill-opacity="0.85" stroke="none"/><path d="M 178.44711241743474 69.52667090856066 L 184.68333288987571 69.52667090856066 L 184.68333288987571 75.76289138100161 L 178.44711241743474 75.76289138100161 Z" fill="#619CFF" fill-opacity="0.85" stroke="none"/><path d="M 153.7478702328773 172.8052904371802 L 159.98409070531824 172.8052904371802 L 159.98409070531824 179.04151090962117 L 153.7478702328773 179.04151090962117 Z" fill="#619CFF" fill-opacity="0.85" stroke="none"/><path d="M 173.95634111115157 108.49973488162465 L 180.19256158359252 108.49973488162465 L 180.19256158359252 114.73595535406557 L 173.95634111115157 114.73595535406557 Z" fill="#619CFF" fill-opacity="0.85" stroke="none"/><path d="M 153.7478702328773 165.01067764256743 L 159.98409070531824 165.01067764256743 L 159.98409070531824 171.24689811500838 L 153.7478702328773 171.24689811500838 Z" fill="#619CFF" fill-opacity="0.85" stroke="none"/><path d="M 180.69249807057633 116.29434767623746 L 186.92871854301728 116.29434767623746 L 186.92871854301728 122.53056814867838 L 180.69249807057633 122.53056814867838 Z" fill="#619CFF" fill-opacity="0.85" stroke="none"/><path d="M 153.7478702328773 163.0620244439142 L 159.98409070531824 163.0620244439142 L 159.98409070531824 169.29824491635515 L 153.7478702328773 169.29824491635515 Z" fill="#619CFF" fill-opacity="0.85" stroke="none"/><path d="M 189.67404068314266 96.80781568970544 L 195.91026115558364 96.80781568970544 L 195.91026115558364 103.04403616214637 L 189.67404068314266 103.04403616214637 Z" fill="#619CFF" fill-opacity="0.85" stroke="none"/><path d="M 167.2201841517268 174.75394363583337 L 173.45640462416776 174.75394363583337 L 173.45640462416776 180.9901641082743 L 167.2201841517268 180.9901641082743 Z" fill="#619CFF" fill-opacity="0.85" stroke="none"/><path d="M 167.2201841517268 120.19165407354384 L 173.45640462416776 120.19165407354384 L 173.45640462416776 126.42787454598478 L 167.2201841517268 126.42787454598478 Z" fill="#619CFF" fill-opacity="0.85" stroke="none"/><path d="M 153.7478702328773 153.3187584506482 L 159.98409070531824 153.3187584506482 L 159.98409070531824 159.55497892308912 L 153.7478702328773 159.55497892308912 Z" fill="#619CFF" fill-opacity="0.85" stroke="none"/><path d="M 194.16481198942586 100.70512208701186 L 200.4010324618668 100.70512208701186 L 200.4010324618668 106.94134255945279 L 194.16481198942586 106.94134255945279 Z" fill="#619CFF" fill-opacity="0.85" stroke="none"/><path d="M 167.2201841517268 147.47279885468862 L 173.45640462416776 147.47279885468862 L 173.45640462416776 153.70901932712954 L 167.2201841517268 153.70901932712954 Z" fill="#619CFF" fill-opacity="0.85" stroke="none"/><path d="M 189.67404068314266 112.39704127893103 L 195.91026115558364 112.39704127893103 L 195.91026115558364 118.63326175137196 L 189.67404068314266 118.63326175137196 Z" fill="#619CFF" fill-opacity="0.85" stroke="none"/><path d="M 153.7478702328773 163.0620244439142 L 159.98409070531824 163.0620244439142 L 159.98409070531824 169.29824491635515 L 153.7478702328773 169.29824491635515 Z" fill="#619CFF" fill-opacity="0.85" stroke="none"/><path d="M 180.69249807057633 92.91050929239904 L 186.92871854301728 92.91050929239904 L 186.92871854301728 99.14672976483998 L 180.69249807057633 99.14672976483998 Z" fill="#619CFF" fill-opacity="0.85" stroke="none"/><path d="M 158.23864153916048 155.26741164930144 L 164.4748620116014 155.26741164930144 L 164.4748620116014 161.50363212174236 L 158.23864153916048 161.50363212174236 Z" fill="#619CFF" fill-opacity="0.85" stroke="none"/><path d="M 185.1832693768595 127.98626686815663 L 191.41948984930048 127.98626686815663 L 191.41948984930048 134.22248734059755 L 185.1832693768595 134.22248734059755 Z" fill="#619CFF" fill-opacity="0.85" stroke="none"/><path d="M 162.72941284544365 149.4214520533418 L 168.96563331788457 149.4214520533418 L 168.96563331788457 155.65767252578274 L 162.72941284544365 155.65767252578274 Z" fill="#619CFF" fill-opacity="0.85" stroke="none"/><path d="M 176.20172676429314 153.3187584506482 L 182.43794723673412 153.3187584506482 L 182.43794723673412 159.55497892308912 L 176.20172676429314 159.55497892308912 Z" fill="#619CFF" fill-opacity="0.85" stroke="none"/><path d="M 133.539399354603 172.8052904371802 L 139.77561982704395 172.8052904371802 L 139.77561982704395 179.04151090962117 L 133.539399354603 179.04151090962117 Z" fill="#619CFF" fill-opacity="0.85" stroke="none"/><path d="M 182.9378837237179 124.08896047085024 L 189.17410419615888 124.08896047085024 L 189.17410419615888 130.32518094329117 L 182.9378837237179 130.32518094329117 Z" fill="#619CFF" fill-opacity="0.85" stroke="none"/><path d="M 169.4655698048684 155.26741164930144 L 175.70179027730936 155.26741164930144 L 175.70179027730936 161.50363212174236 L 169.4655698048684 161.50363212174236 Z" fill="#619CFF" fill-opacity="0.85" stroke="none"/><path d="M 189.67404068314266 96.80781568970544 L 195.91026115558364 96.80781568970544 L 195.91026115558364 103.04403616214637 L 189.67404068314266 103.04403616214637 Z" fill="#619CFF" fill-opacity="0.85" stroke="none"/><path d="M 160.48402719230205 145.52414565603542 L 166.720247664743 145.52414565603542 L 166.720247664743 151.76036612847633 L 160.48402719230205 151.76036612847633 Z" fill="#619CFF" fill-opacity="0.85" stroke="none"/><path d="M 189.67404068314266 104.60242848431825 L 195.91026115558364 104.60242848431825 L 195.91026115558364 110.83864895675919 L 189.67404068314266 110.83864895675919 Z" fill="#619CFF" fill-opacity="0.85" stroke="none"/><path d="M 162.72941284544365 165.01067764256743 L 168.96563331788457 165.01067764256743 L 168.96563331788457 171.24689811500838 L 162.72941284544365 171.24689811500838 Z" fill="#619CFF" fill-opacity="0.85" stroke="none"/><path d="M 160.48402719230205 104.60242848431825 L 166.720247664743 104.60242848431825 L 166.720247664743 110.83864895675919 L 160.48402719230205 110.83864895675919 Z" fill="#619CFF" fill-opacity="0.85" stroke="none"/><path d="M 149.25709892659413 166.9593308412206 L 155.49331939903504 166.9593308412206 L 155.49331939903504 173.19555131366155 L 149.25709892659413 173.19555131366155 Z" fill="#619CFF" fill-opacity="0.85" stroke="none"/><path d="M 169.4655698048684 104.60242848431825 L 175.70179027730936 104.60242848431825 L 175.70179027730936 110.83864895675919 L 169.4655698048684 110.83864895675919 Z" fill="#619CFF" fill-opacity="0.85" stroke="none"/><path d="M 144.76632762031096 176.7025968344866 L 151.00254809275188 176.7025968344866 L 151.00254809275188 182.93881730692755 L 144.76632762031096 182.93881730692755 Z" fill="#619CFF" fill-opacity="0.85" stroke="none"/><path d="M 147.01171327345253 104.60242848431825 L 153.24793374589348 104.60242848431825 L 153.24793374589348 110.83864895675919 L 147.01171327345253 110.83864895675919 Z" fill="#619CFF" fill-opacity="0.85" stroke="none"/><path d="M 162.72941284544365 143.5754924573822 L 168.96563331788457 143.5754924573822 L 168.96563331788457 149.81171292982316 L 162.72941284544365 149.81171292982316 Z" fill="#619CFF" fill-opacity="0.85" stroke="none"/><path d="M 191.91942633628426 69.52667090856066 L 198.15564680872524 69.52667090856066 L 198.15564680872524 75.76289138100161 L 191.91942633628426 75.76289138100161 Z" fill="#619CFF" fill-opacity="0.85" stroke="none"/><path d="M 155.9932558860189 170.85663723852701 L 162.2294763584598 170.85663723852701 L 162.2294763584598 177.09285771096796 L 155.9932558860189 177.09285771096796 Z" fill="#619CFF" fill-opacity="0.85" stroke="none"/><path d="M 194.16481198942586 104.60242848431825 L 200.4010324618668 104.60242848431825 L 200.4010324618668 110.83864895675919 L 194.16481198942586 110.83864895675919 Z" fill="#619CFF" fill-opacity="0.85" stroke="none"/><path d="M 164.97479849858524 192.29182242371215 L 171.2110189710262 192.29182242371215 L 171.2110189710262 198.52804289615312 L 164.97479849858524 198.52804289615312 Z" fill="#619CFF" fill-opacity="0.85" stroke="none"/><path d="M 194.16481198942586 77.32128370317344 L 200.4010324618668 77.32128370317344 L 200.4010324618668 83.55750417561438 L 194.16481198942586 83.55750417561438 Z" fill="#619CFF" fill-opacity="0.85" stroke="none"/><path d="M 164.97479849858524 153.3187584506482 L 171.2110189710262 153.3187584506482 L 171.2110189710262 159.55497892308912 L 164.97479849858524 159.55497892308912 Z" fill="#619CFF" fill-opacity="0.85" stroke="none"/><path d="M 176.20172676429314 65.62936451125427 L 182.43794723673412 65.62936451125427 L 182.43794723673412 71.86558498369521 L 176.20172676429314 71.86558498369521 Z" fill="#619CFF" fill-opacity="0.85" stroke="none"/><path d="M 158.23864153916048 149.4214520533418 L 164.4748620116014 149.4214520533418 L 164.4748620116014 155.65767252578274 L 158.23864153916048 155.65767252578274 Z" fill="#619CFF" fill-opacity="0.85" stroke="none"/><path d="M 160.48402719230205 155.26741164930144 L 166.720247664743 155.26741164930144 L 166.720247664743 161.50363212174236 L 160.48402719230205 161.50363212174236 Z" fill="#619CFF" fill-opacity="0.85" stroke="none"/><path d="M 176.20172676429314 85.11589649778625 L 182.43794723673412 85.11589649778625 L 182.43794723673412 91.3521169702272 L 176.20172676429314 91.3521169702272 Z" fill="#619CFF" fill-opacity="0.85" stroke="none"/><path d="M 153.7478702328773 127.98626686815663 L 159.98409070531824 127.98626686815663 L 159.98409070531824 134.22248734059755 L 153.7478702328773 134.22248734059755 Z" fill="#619CFF" fill-opacity="0.85" stroke="none"/><path d="M 155.9932558860189 112.39704127893103 L 162.2294763584598 112.39704127893103 L 162.2294763584598 118.63326175137196 L 155.9932558860189 118.63326175137196 Z" fill="#619CFF" fill-opacity="0.85" stroke="none"/><rect x="213.4855288888889" y="7.333333333333333" width="145.72552888888887" height="24.0" fill="#d9d9d9" fill-opacity="1.0" stroke="none"/><text x="286.34829333333334" y="26.0" fill="#4d4d4d" font-size="11.733333333333334" font-family="sans-serif" text-anchor="middle">Dream</text><rect x="213.4855288888889" y="31.333333333333332" width="145.72552888888887" height="308.66666666666663" fill="#ebebeb" fill-opacity="1.0" stroke="none"/><line x1="226.84557352508128" y1="31.333333333333332" x2="226.84557352508128" y2="340.0" stroke="#ffffff" stroke-width="0.6666666666666666"/><line x1="249.29943005649716" y1="31.333333333333332" x2="249.29943005649716" y2="340.0" stroke="#ffffff" stroke-width="0.6666666666666666"/><line x1="271.753286587913" y1="31.333333333333332" x2="271.753286587913" y2="340.0" stroke="#ffffff" stroke-width="0.6666666666666666"/><line x1="294.20714311932886" y1="31.333333333333332" x2="294.20714311932886" y2="340.0" stroke="#ffffff" stroke-width="0.6666666666666666"/><line x1="316.66099965074477" y1="31.333333333333332" x2="316.66099965074477" y2="340.0" stroke="#ffffff" stroke-width="0.6666666666666666"/><line x1="339.1148561821606" y1="31.333333333333332" x2="339.1148561821606" y2="340.0" stroke="#ffffff" stroke-width="0.6666666666666666"/><line x1="215.61864525937338" y1="31.333333333333332" x2="215.61864525937338" y2="340.0" stroke="#ffffff" stroke-width="1.3333333333333333"/><line x1="238.0725017907892" y1="31.333333333333332" x2="238.0725017907892" y2="340.0" stroke="#ffffff" stroke-width="1.3333333333333333"/><line x1="260.52635832220506" y1="31.333333333333332" x2="260.52635832220506" y2="340.0" stroke="#ffffff" stroke-width="1.3333333333333333"/><line x1="282.98021485362096" y1="31.333333333333332" x2="282.98021485362096" y2="340.0" stroke="#ffffff" stroke-width="1.3333333333333333"/><line x1="305.4340713850368" y1="31.333333333333332" x2="305.4340713850368" y2="340.0" stroke="#ffffff" stroke-width="1.3333333333333333"/><line x1="327.88792791645267" y1="31.333333333333332" x2="327.88792791645267" y2="340.0" stroke="#ffffff" stroke-width="1.3333333333333333"/><line x1="350.3417844478686" y1="31.333333333333332" x2="350.3417844478686" y2="340.0" stroke="#ffffff" stroke-width="1.3333333333333333"/><line x1="213.4855288888889" y1="263.6127946127946" x2="359.2110577777778" y2="263.6127946127946" stroke="#ffffff" stroke-width="0.6666666666666666"/><line x1="213.4855288888889" y1="185.66666666666666" x2="359.2110577777778" y2="185.66666666666666" stroke="#ffffff" stroke-width="0.6666666666666666"/><line x1="213.4855288888889" y1="107.72053872053871" x2="359.2110577777778" y2="107.72053872053871" stroke="#ffffff" stroke-width="0.6666666666666666"/><line x1="213.4855288888889" y1="302.58585858585855" x2="359.2110577777778" y2="302.58585858585855" stroke="#ffffff" stroke-width="1.3333333333333333"/><line x1="213.4855288888889" y1="224.63973063973063" x2="359.2110577777778" y2="224.63973063973063" stroke="#ffffff" stroke-width="1.3333333333333333"/><line x1="213.4855288888889" y1="146.69360269360268" x2="359.2110577777778" y2="146.69360269360268" stroke="#ffffff" stroke-width="1.3333333333333333"/><line x1="213.4855288888889" y1="68.74747474747474" x2="359.2110577777778" y2="68.74747474747474" stroke="#ffffff" stroke-width="1.3333333333333333"/><line x1="215.61864525937338" y1="340.0" x2="215.61864525937338" y2="343.66666666666663" stroke="#333333" stroke-width="1.3333333333333333"/><text x="215.61864525937338" y="355.9866666666667" fill="#4d4d4d" font-size="11.733333333333334" font-family="sans-serif" text-anchor="middle">170</text><line x1="238.0725017907892" y1="340.0" x2="238.0725017907892" y2="343.66666666666663" stroke="#333333" stroke-width="1.3333333333333333"/><text x="238.0725017907892" y="355.9866666666667" fill="#4d4d4d" font-size="11.733333333333334" font-family="sans-serif" text-anchor="middle">180</text><line x1="260.52635832220506" y1="340.0" x2="260.52635832220506" y2="343.66666666666663" stroke="#333333" stroke-width="1.3333333333333333"/><text x="260.52635832220506" y="355.9866666666667" fill="#4d4d4d" font-size="11.733333333333334" font-family="sans-serif" text-anchor="middle">190</text><line x1="282.98021485362096" y1="340.0" x2="282.98021485362096" y2="343.66666666666663" stroke="#333333" stroke-width="1.3333333333333333"/><text x="282.98021485362096" y="355.9866666666667" fill="#4d4d4d" font-size="11.733333333333334" font-family="sans-serif" text-anchor="middle">200</text><line x1="305.4340713850368" y1="340.0" x2="305.4340713850368" y2="343.66666666666663" stroke="#333333" stroke-width="1.3333333333333333"/><text x="305.4340713850368" y="355.9866666666667" fill="#4d4d4d" font-size="11.733333333333334" font-family="sans-serif" text-anchor="middle">210</text><line x1="327.88792791645267" y1="340.0" x2="327.88792791645267" y2="343.66666666666663" stroke="#333333" stroke-width="1.3333333333333333"/><text x="327.88792791645267" y="355.9866666666667" fill="#4d4d4d" font-size="11.733333333333334" font-family="sans-serif" text-anchor="middle">220</text><line x1="350.3417844478686" y1="340.0" x2="350.3417844478686" y2="343.66666666666663" stroke="#333333" stroke-width="1.3333333333333333"/><text x="350.3417844478686" y="355.9866666666667" fill="#4d4d4d" font-size="11.733333333333334" font-family="sans-serif" text-anchor="middle">230</text><circle cx="233.58173048450604" cy="283.09932659932656" r="3.1181102362204727" fill="#F8766D" fill-opacity="0.85" stroke="none"><title>(178, 3250)</title></circle><circle cx="233.58173048450604" cy="232.43434343434342" r="3.1181102362204727" fill="#F8766D" fill-opacity="0.85" stroke="none"><title>(178, 3900)</title></circle><circle cx="256.0355870159219" cy="279.2020202020202" r="3.1181102362204727" fill="#F8766D" fill-opacity="0.85" stroke="none"><title>(188, 3300)</title></circle><circle cx="247.05404440335556" cy="232.43434343434342" r="3.1181102362204727" fill="#F8766D" fill-opacity="0.85" stroke="none"><title>(184, 3900)</title></circle><circle cx="271.753286587913" cy="277.253367003367" r="3.1181102362204727" fill="#F8766D" fill-opacity="0.85" stroke="none"><title>(195, 3325)</title></circle><circle cx="273.9986722410546" cy="212.94781144781146" r="3.1181102362204727" fill="#F8766D" fill-opacity="0.85" stroke="none"><title>(196, 4150)</title></circle><circle cx="260.52635832220506" cy="228.537037037037" r="3.1181102362204727" fill="#F8766D" fill-opacity="0.85" stroke="none"><title>(190, 3950)</title></circle><circle cx="238.0725017907892" cy="259.7154882154882" r="3.1181102362204727" fill="#F8766D" fill-opacity="0.85" stroke="none"><title>(180, 3550)</title></circle><circle cx="240.3178874439308" cy="279.2020202020202" r="3.1181102362204727" fill="#F8766D" fill-opacity="0.85" stroke="none"><title>(181, 3300)</title></circle><circle cx="247.05404440335556" cy="173.9747474747475" r="3.1181102362204727" fill="#F8766D" fill-opacity="0.85" stroke="none"><title>(184, 4650)</title></circle><circle cx="242.5632730970724" cy="290.8939393939394" r="3.1181102362204727" fill="#F8766D" fill-opacity="0.85" stroke="none"><title>(182, 3150)</title></circle><circle cx="271.753286587913" cy="232.43434343434342" r="3.1181102362204727" fill="#F8766D" fill-opacity="0.85" stroke="none"><title>(195, 3900)</title></circle><circle cx="251.54481570963873" cy="294.7912457912458" r="3.1181102362204727" fill="#F8766D" fill-opacity="0.85" stroke="none"><title>(186, 3100)</title></circle><circle cx="273.9986722410546" cy="193.46127946127945" r="3.1181102362204727" fill="#F8766D" fill-opacity="0.85" stroke="none"><title>(196, 4400)</title></circle><circle cx="249.29943005649716" cy="302.58585858585855" r="3.1181102362204727" fill="#F8766D" fill-opacity="0.85" stroke="none"><title>(185, 3000)</title></circle><circle cx="260.52635832220506" cy="177.87205387205384" r="3.1181102362204727" fill="#F8766D" fill-opacity="0.85" stroke="none"><title>(190, 4600)</title></circle><circle cx="242.5632730970724" cy="269.45875420875416" r="3.1181102362204727" fill="#F8766D" fill-opacity="0.85" stroke="none"><title>(182, 3425)</title></circle><circle cx="235.82711613764764" cy="304.5345117845118" r="3.1181102362204727" fill="#F8766D" fill-opacity="0.85" stroke="none"><title>(179, 2975)</title></circle><circle cx="260.52635832220506" cy="267.510101010101" r="3.1181102362204727" fill="#F8766D" fill-opacity="0.85" stroke="none"><title>(190, 3450)</title></circle><circle cx="262.7717439753467" cy="212.94781144781146" r="3.1181102362204727" fill="#F8766D" fill-opacity="0.85" stroke="none"><title>(191, 4150)</title></circle><circle cx="262.7717439753467" cy="275.3047138047138" r="3.1181102362204727" fill="#F8766D" fill-opacity="0.85" stroke="none"><title>(191, 3350)</title></circle><circle cx="269.50790093477144" cy="259.7154882154882" r="3.1181102362204727" fill="#F8766D" fill-opacity="0.85" stroke="none"><title>(194, 3550)</title></circle><circle cx="260.52635832220506" cy="240.22895622895618" r="3.1181102362204727" fill="#F8766D" fill-opacity="0.85" stroke="none"><title>(190, 3800)</title></circle><circle cx="258.2809726690635" cy="263.6127946127946" r="3.1181102362204727" fill="#F8766D" fill-opacity="0.85" stroke="none"><title>(189, 3500)</title></circle><circle cx="258.2809726690635" cy="228.537037037037" r="3.1181102362204727" fill="#F8766D" fill-opacity="0.85" stroke="none"><title>(189, 3950)</title></circle><circle cx="260.52635832220506" cy="255.8181818181818" r="3.1181102362204727" fill="#F8766D" fill-opacity="0.85" stroke="none"><title>(190, 3600)</title></circle><circle cx="287.4709861599041" cy="259.7154882154882" r="3.1181102362204727" fill="#F8766D" fill-opacity="0.85" stroke="none"><title>(202, 3550)</title></circle><circle cx="294.20714311932886" cy="201.2558922558922" r="3.1181102362204727" fill="#F8766D" fill-opacity="0.85" stroke="none"><title>(205, 4300)</title></circle><circle cx="249.29943005649716" cy="271.4074074074074" r="3.1181102362204727" fill="#F8766D" fill-opacity="0.85" stroke="none"><title>(185, 3400)</title></circle><circle cx="251.54481570963873" cy="189.56397306397304" r="3.1181102362204727" fill="#F8766D" fill-opacity="0.85" stroke="none"><title>(186, 4450)</title></circle><circle cx="253.79020136278032" cy="279.2020202020202" r="3.1181102362204727" fill="#F8766D" fill-opacity="0.85" stroke="none"><title>(187, 3300)</title></circle><circle cx="300.9433000787536" cy="201.2558922558922" r="3.1181102362204727" fill="#F8766D" fill-opacity="0.85" stroke="none"><title>(208, 4300)</title></circle><circle cx="260.52635832220506" cy="248.02356902356905" r="3.1181102362204727" fill="#F8766D" fill-opacity="0.85" stroke="none"><title>(190, 3700)</title></circle><circle cx="273.9986722410546" cy="197.35858585858585" r="3.1181102362204727" fill="#F8766D" fill-opacity="0.85" stroke="none"><title>(196, 4350)</title></circle><circle cx="233.58173048450604" cy="310.38047138047136" r="3.1181102362204727" fill="#F8766D" fill-opacity="0.85" stroke="none"><title>(178, 2900)</title></circle><circle cx="265.01712962848825" cy="216.84511784511784" r="3.1181102362204727" fill="#F8766D" fill-opacity="0.85" stroke="none"><title>(192, 4100)</title></circle><circle cx="267.2625152816298" cy="263.6127946127946" r="3.1181102362204727" fill="#F8766D" fill-opacity="0.85" stroke="none"><title>(193, 3500)</title></circle><circle cx="280.73482920047934" cy="187.61531986531986" r="3.1181102362204727" fill="#F8766D" fill-opacity="0.85" stroke="none"><title>(199, 4475)</title></circle><circle cx="253.79020136278032" cy="269.45875420875416" r="3.1181102362204727" fill="#F8766D" fill-opacity="0.85" stroke="none"><title>(187, 3425)</title></circle><circle cx="260.52635832220506" cy="232.43434343434342" r="3.1181102362204727" fill="#F8766D" fill-opacity="0.85" stroke="none"><title>(190, 3900)</title></circle><circle cx="262.7717439753467" cy="288.94528619528614" r="3.1181102362204727" fill="#F8766D" fill-opacity="0.85" stroke="none"><title>(191, 3175)</title></circle><circle cx="282.98021485362096" cy="226.58838383838383" r="3.1181102362204727" fill="#F8766D" fill-opacity="0.85" stroke="none"><title>(200, 3975)</title></circle><circle cx="249.29943005649716" cy="271.4074074074074" r="3.1181102362204727" fill="#F8766D" fill-opacity="0.85" stroke="none"><title>(185, 3400)</title></circle><circle cx="267.2625152816298" cy="205.15319865319864" r="3.1181102362204727" fill="#F8766D" fill-opacity="0.85" stroke="none"><title>(193, 4250)</title></circle><circle cx="267.2625152816298" cy="271.4074074074074" r="3.1181102362204727" fill="#F8766D" fill-opacity="0.85" stroke="none"><title>(193, 3400)</title></circle><circle cx="253.79020136278032" cy="265.5614478114478" r="3.1181102362204727" fill="#F8766D" fill-opacity="0.85" stroke="none"><title>(187, 3475)</title></circle><circle cx="256.0355870159219" cy="298.6885521885522" r="3.1181102362204727" fill="#F8766D" fill-opacity="0.85" stroke="none"><title>(188, 3050)</title></circle><circle cx="260.52635832220506" cy="246.07491582491582" r="3.1181102362204727" fill="#F8766D" fill-opacity="0.85" stroke="none"><title>(190, 3725)</title></circle><circle cx="265.01712962848825" cy="302.58585858585855" r="3.1181102362204727" fill="#F8766D" fill-opacity="0.85" stroke="none"><title>(192, 3000)</title></circle><circle cx="249.29943005649716" cy="251.92087542087543" r="3.1181102362204727" fill="#F8766D" fill-opacity="0.85" stroke="none"><title>(185, 3650)</title></circle><circle cx="260.52635832220506" cy="205.15319865319864" r="3.1181102362204727" fill="#F8766D" fill-opacity="0.85" stroke="none"><title>(190, 4250)</title></circle><circle cx="247.05404440335556" cy="265.5614478114478" r="3.1181102362204727" fill="#F8766D" fill-opacity="0.85" stroke="none"><title>(184, 3475)</title></circle><circle cx="271.753286587913" cy="267.510101010101" r="3.1181102362204727" fill="#F8766D" fill-opacity="0.85" stroke="none"><title>(195, 3450)</title></circle><circle cx="267.2625152816298" cy="244.12626262626262" r="3.1181102362204727" fill="#F8766D" fill-opacity="0.85" stroke="none"><title>(193, 3750)</title></circle><circle cx="253.79020136278032" cy="248.02356902356905" r="3.1181102362204727" fill="#F8766D" fill-opacity="0.85" stroke="none"><title>(187, 3700)</title></circle><circle cx="285.22560050676253" cy="224.63973063973063" r="3.1181102362204727" fill="#F8766D" fill-opacity="0.85" stroke="none"><title>(201, 4000)</title></circle><path d="M 261.89901939226775 260.4946843765741 L 268.13523986470875 260.4946843765741 L 268.13523986470875 266.7309048490151 L 261.89901939226775 266.7309048490151 Z" fill="#00BA38" fill-opacity="0.85" stroke="none"/><path d="M 270.88056200483413 229.31623319812292 L 277.1167824772751 229.31623319812292 L 277.1167824772751 235.5524536705639 L 270.88056200483413 235.5524536705639 Z" fill="#00BA38" fill-opacity="0.85" stroke="none"/><path d="M 264.14440504540937 248.80276518465496 L 270.3806255178503 248.80276518465496 L 270.3806255178503 255.0389856570959 L 264.14440504540937 255.0389856570959 Z" fill="#00BA38" fill-opacity="0.85" stroke="none"/><path d="M 252.91747677970142 258.5460311779209 L 259.15369725214236 258.5460311779209 L 259.15369725214236 264.7822516503619 L 252.91747677970142 264.7822516503619 Z" fill="#00BA38" fill-opacity="0.85" stroke="none"/><path d="M 273.1259476579757 242.95680558869532 L 279.36216813041665 242.95680558869532 L 279.36216813041665 249.1930260611363 L 273.1259476579757 249.1930260611363 Z" fill="#00BA38" fill-opacity="0.85" stroke="none"/><path d="M 275.37133331111727 225.41892680081654 L 281.6075537835583 225.41892680081654 L 281.6075537835583 231.6551472732575 L 275.37133331111727 231.6551472732575 Z" fill="#00BA38" fill-opacity="0.85" stroke="none"/><path d="M 230.46362024828557 279.9812163631061 L 236.6998407207265 279.9812163631061 L 236.6998407207265 286.21743683554706 L 230.46362024828557 286.21743683554706 Z" fill="#00BA38" fill-opacity="0.85" stroke="none"/><path d="M 273.1259476579757 241.00815239004214 L 279.36216813041665 241.00815239004214 L 279.36216813041665 247.2443728624831 L 273.1259476579757 247.2443728624831 Z" fill="#00BA38" fill-opacity="0.85" stroke="none"/><path d="M 268.6351763516925 209.829701211591 L 274.8713968241335 209.829701211591 L 274.8713968241335 216.06592168403193 L 268.6351763516925 216.06592168403193 Z" fill="#00BA38" fill-opacity="0.85" stroke="none"/><path d="M 275.37133331111727 244.90545878734855 L 281.6075537835583 244.90545878734855 L 281.6075537835583 251.14167925978953 L 275.37133331111727 251.14167925978953 Z" fill="#00BA38" fill-opacity="0.85" stroke="none"/><path d="M 264.14440504540937 237.1108459927357 L 270.3806255178503 237.1108459927357 L 270.3806255178503 243.34706646517668 L 264.14440504540937 243.34706646517668 Z" fill="#00BA38" fill-opacity="0.85" stroke="none"/><path d="M 266.38979069855094 239.05949919138894 L 272.6260111709919 239.05949919138894 L 272.6260111709919 245.2957196638299 L 266.38979069855094 245.2957196638299 Z" fill="#00BA38" fill-opacity="0.85" stroke="none"/><path d="M 246.18131982027666 244.90545878734855 L 252.41754029271763 244.90545878734855 L 252.41754029271763 251.14167925978953 L 246.18131982027666 251.14167925978953 Z" fill="#00BA38" fill-opacity="0.85" stroke="none"/><path d="M 282.10749027054203 217.62431400620375 L 288.34371074298303 217.62431400620375 L 288.34371074298303 223.86053447864472 L 282.10749027054203 223.86053447864472 Z" fill="#00BA38" fill-opacity="0.85" stroke="none"/><path d="M 257.4082480859846 254.64872478061454 L 263.64446855842556 254.64872478061454 L 263.64446855842556 260.8849452530555 L 257.4082480859846 260.8849452530555 Z" fill="#00BA38" fill-opacity="0.85" stroke="none"/><path d="M 282.10749027054203 217.62431400620375 L 288.34371074298303 217.62431400620375 L 288.34371074298303 223.86053447864472 L 282.10749027054203 223.86053447864472 Z" fill="#00BA38" fill-opacity="0.85" stroke="none"/><path d="M 273.1259476579757 276.0839099657997 L 279.36216813041665 276.0839099657997 L 279.36216813041665 282.32013043824065 L 273.1259476579757 282.32013043824065 Z" fill="#00BA38" fill-opacity="0.85" stroke="none"/><path d="M 237.19977720771033 244.90545878734855 L 243.43599768015127 244.90545878734855 L 243.43599768015127 251.14167925978953 L 237.19977720771033 251.14167925978953 Z" fill="#00BA38" fill-opacity="0.85" stroke="none"/><path d="M 257.4082480859846 264.3919907738805 L 263.64446855842556 264.3919907738805 L 263.64446855842556 270.6282112463215 L 257.4082480859846 270.6282112463215 Z" fill="#00BA38" fill-opacity="0.85" stroke="none"/><path d="M 268.6351763516925 190.34316922505894 L 274.8713968241335 190.34316922505894 L 274.8713968241335 196.57938969749992 L 268.6351763516925 196.57938969749992 Z" fill="#00BA38" fill-opacity="0.85" stroke="none"/><path d="M 237.19977720771033 252.70007158196134 L 243.43599768015127 252.70007158196134 L 243.43599768015127 258.9362920544023 L 237.19977720771033 258.9362920544023 Z" fill="#00BA38" fill-opacity="0.85" stroke="none"/><path d="M 259.6536337391262 268.2892971711869 L 265.8898542115671 268.2892971711869 L 265.8898542115671 274.52551764362784 L 259.6536337391262 274.52551764362784 Z" fill="#00BA38" fill-opacity="0.85" stroke="none"/><path d="M 250.67209112655985 307.26236114425086 L 256.9083115990008 307.26236114425086 L 256.9083115990008 313.4985816166918 L 250.67209112655985 313.4985816166918 Z" fill="#00BA38" fill-opacity="0.85" stroke="none"/><path d="M 264.14440504540937 237.1108459927357 L 270.3806255178503 237.1108459927357 L 270.3806255178503 243.34706646517668 L 264.14440504540937 243.34706646517668 Z" fill="#00BA38" fill-opacity="0.85" stroke="none"/><path d="M 268.6351763516925 276.0839099657997 L 274.8713968241335 276.0839099657997 L 274.8713968241335 282.32013043824065 L 268.6351763516925 282.32013043824065 Z" fill="#00BA38" fill-opacity="0.85" stroke="none"/><path d="M 273.1259476579757 209.829701211591 L 279.36216813041665 209.829701211591 L 279.36216813041665 216.06592168403193 L 273.1259476579757 216.06592168403193 Z" fill="#00BA38" fill-opacity="0.85" stroke="none"/><path d="M 279.86210461740046 268.2892971711869 L 286.0983250898414 268.2892971711869 L 286.0983250898414 274.52551764362784 L 279.86210461740046 274.52551764362784 Z" fill="#00BA38" fill-opacity="0.85" stroke="none"/><path d="M 279.86210461740046 237.1108459927357 L 286.0983250898414 237.1108459927357 L 286.0983250898414 243.34706646517668 L 279.86210461740046 243.34706646517668 Z" fill="#00BA38" fill-opacity="0.85" stroke="none"/><path d="M 259.6536337391262 244.90545878734855 L 265.8898542115671 244.90545878734855 L 265.8898542115671 251.14167925978953 L 259.6536337391262 251.14167925978953 Z" fill="#00BA38" fill-opacity="0.85" stroke="none"/><path d="M 291.0890328831084 178.65125003313977 L 297.32525335554936 178.65125003313977 L 297.32525335554936 184.88747050558075 L 291.0890328831084 184.88747050558075 Z" fill="#00BA38" fill-opacity="0.85" stroke="none"/><path d="M 250.67209112655985 283.87852276041247 L 256.9083115990008 283.87852276041247 L 256.9083115990008 290.11474323285347 L 250.67209112655985 290.11474323285347 Z" fill="#00BA38" fill-opacity="0.85" stroke="none"/><path d="M 282.10749027054203 198.13778201967173 L 288.34371074298303 198.13778201967173 L 288.34371074298303 204.3740024921127 L 282.10749027054203 204.3740024921127 Z" fill="#00BA38" fill-opacity="0.85" stroke="none"/><path d="M 250.67209112655985 272.1866035684933 L 256.9083115990008 272.1866035684933 L 256.9083115990008 278.4228240409343 L 250.67209112655985 278.4228240409343 Z" fill="#00BA38" fill-opacity="0.85" stroke="none"/><path d="M 286.5982615768252 213.72700760889737 L 292.83448204926617 213.72700760889737 L 292.83448204926617 219.96322808133834 L 286.5982615768252 219.96322808133834 Z" fill="#00BA38" fill-opacity="0.85" stroke="none"/><path d="M 268.6351763516925 252.70007158196134 L 274.8713968241335 252.70007158196134 L 274.8713968241335 258.9362920544023 L 268.6351763516925 258.9362920544023 Z" fill="#00BA38" fill-opacity="0.85" stroke="none"/><path d="M 277.6167189642589 229.31623319812292 L 283.85293943669984 229.31623319812292 L 283.85293943669984 235.5524536705639 L 277.6167189642589 235.5524536705639 Z" fill="#00BA38" fill-opacity="0.85" stroke="none"/><path d="M 268.6351763516925 233.21353959542932 L 274.8713968241335 233.21353959542932 L 274.8713968241335 239.44976006787027 L 268.6351763516925 239.44976006787027 Z" fill="#00BA38" fill-opacity="0.85" stroke="none"/><path d="M 302.3159611488163 159.1647180466078 L 308.5521816212573 159.1647180466078 L 308.5521816212573 165.4009385190487 L 302.3159611488163 165.4009385190487 Z" fill="#00BA38" fill-opacity="0.85" stroke="none"/><path d="M 261.89901939226775 322.85158673347644 L 268.13523986470875 322.85158673347644 L 268.13523986470875 329.08780720591744 L 261.89901939226775 329.08780720591744 Z" fill="#00BA38" fill-opacity="0.85" stroke="none"/><path d="M 291.0890328831084 182.54855643044618 L 297.32525335554936 182.54855643044618 L 297.32525335554936 188.78477690288713 L 291.0890328831084 188.78477690288713 Z" fill="#00BA38" fill-opacity="0.85" stroke="none"/><path d="M 302.3159611488163 225.41892680081654 L 308.5521816212573 225.41892680081654 L 308.5521816212573 231.6551472732575 L 302.3159611488163 231.6551472732575 Z" fill="#00BA38" fill-opacity="0.85" stroke="none"/><path d="M 250.67209112655985 248.80276518465496 L 256.9083115990008 248.80276518465496 L 256.9083115990008 255.0389856570959 L 250.67209112655985 255.0389856570959 Z" fill="#00BA38" fill-opacity="0.85" stroke="none"/><path d="M 270.88056200483413 256.5973779792677 L 277.1167824772751 256.5973779792677 L 277.1167824772751 262.83359845170867 L 270.88056200483413 262.83359845170867 Z" fill="#00BA38" fill-opacity="0.85" stroke="none"/><path d="M 270.88056200483413 260.4946843765741 L 277.1167824772751 260.4946843765741 L 277.1167824772751 266.7309048490151 L 270.88056200483413 266.7309048490151 Z" fill="#00BA38" fill-opacity="0.85" stroke="none"/><path d="M 270.88056200483413 246.85411198600173 L 277.1167824772751 246.85411198600173 L 277.1167824772751 253.09033245844267 L 270.88056200483413 253.09033245844267 Z" fill="#00BA38" fill-opacity="0.85" stroke="none"/><path d="M 282.10749027054203 186.44586282775256 L 288.34371074298303 186.44586282775256 L 288.34371074298303 192.68208330019354 L 282.10749027054203 192.68208330019354 Z" fill="#00BA38" fill-opacity="0.85" stroke="none"/><path d="M 257.4082480859846 268.2892971711869 L 263.64446855842556 268.2892971711869 L 263.64446855842556 274.52551764362784 L 257.4082480859846 274.52551764362784 Z" fill="#00BA38" fill-opacity="0.85" stroke="none"/><path d="M 306.8067324550995 198.13778201967173 L 313.04295292754045 198.13778201967173 L 313.04295292754045 204.3740024921127 L 306.8067324550995 204.3740024921127 Z" fill="#00BA38" fill-opacity="0.85" stroke="none"/><path d="M 250.67209112655985 279.9812163631061 L 256.9083115990008 279.9812163631061 L 256.9083115990008 286.21743683554706 L 250.67209112655985 286.21743683554706 Z" fill="#00BA38" fill-opacity="0.85" stroke="none"/><path d="M 275.37133331111727 246.85411198600173 L 281.6075537835583 246.85411198600173 L 281.6075537835583 253.09033245844267 L 275.37133331111727 253.09033245844267 Z" fill="#00BA38" fill-opacity="0.85" stroke="none"/><path d="M 277.6167189642589 274.13525676714653 L 283.85293943669984 274.13525676714653 L 283.85293943669984 280.3714772395875 L 277.6167189642589 280.3714772395875 Z" fill="#00BA38" fill-opacity="0.85" stroke="none"/><path d="M 282.10749027054203 225.41892680081654 L 288.34371074298303 225.41892680081654 L 288.34371074298303 231.6551472732575 L 282.10749027054203 231.6551472732575 Z" fill="#00BA38" fill-opacity="0.85" stroke="none"/><path d="M 264.14440504540937 252.70007158196134 L 270.3806255178503 252.70007158196134 L 270.3806255178503 258.9362920544023 L 264.14440504540937 258.9362920544023 Z" fill="#00BA38" fill-opacity="0.85" stroke="none"/><path d="M 286.5982615768252 217.62431400620375 L 292.83448204926617 217.62431400620375 L 292.83448204926617 223.86053447864472 L 286.5982615768252 223.86053447864472 Z" fill="#00BA38" fill-opacity="0.85" stroke="none"/><path d="M 250.67209112655985 272.1866035684933 L 256.9083115990008 272.1866035684933 L 256.9083115990008 278.4228240409343 L 250.67209112655985 278.4228240409343 Z" fill="#00BA38" fill-opacity="0.85" stroke="none"/><path d="M 273.1259476579757 264.3919907738805 L 279.36216813041665 264.3919907738805 L 279.36216813041665 270.6282112463215 L 273.1259476579757 270.6282112463215 Z" fill="#00BA38" fill-opacity="0.85" stroke="none"/><path d="M 259.6536337391262 279.9812163631061 L 265.8898542115671 279.9812163631061 L 265.8898542115671 286.21743683554706 L 259.6536337391262 286.21743683554706 Z" fill="#00BA38" fill-opacity="0.85" stroke="none"/><path d="M 286.5982615768252 217.62431400620375 L 292.83448204926617 217.62431400620375 L 292.83448204926617 223.86053447864472 L 286.5982615768252 223.86053447864472 Z" fill="#00BA38" fill-opacity="0.85" stroke="none"/><path d="M 284.35287592368365 237.1108459927357 L 290.5890963961246 237.1108459927357 L 290.5890963961246 243.34706646517668 L 284.35287592368365 243.34706646517668 Z" fill="#00BA38" fill-opacity="0.85" stroke="none"/><path d="M 266.38979069855094 258.5460311779209 L 272.6260111709919 258.5460311779209 L 272.6260111709919 264.7822516503619 L 266.38979069855094 264.7822516503619 Z" fill="#00BA38" fill-opacity="0.85" stroke="none"/><path d="M 293.33441853625 225.41892680081654 L 299.57063900869093 225.41892680081654 L 299.57063900869093 231.6551472732575 L 293.33441853625 231.6551472732575 Z" fill="#00BA38" fill-opacity="0.85" stroke="none"/><path d="M 255.162862432843 248.80276518465496 L 261.399082905284 248.80276518465496 L 261.399082905284 255.0389856570959 L 255.162862432843 255.0389856570959 Z" fill="#00BA38" fill-opacity="0.85" stroke="none"/><path d="M 268.6351763516925 248.80276518465496 L 274.8713968241335 248.80276518465496 L 274.8713968241335 255.0389856570959 L 268.6351763516925 255.0389856570959 Z" fill="#00BA38" fill-opacity="0.85" stroke="none"/><path d="M 295.57980418939155 221.52162040351016 L 301.81602466183256 221.52162040351016 L 301.81602466183256 227.7578408759511 L 295.57980418939155 227.7578408759511 Z" fill="#00BA38" fill-opacity="0.85" stroke="none"/><path d="M 284.35287592368365 268.2892971711869 L 290.5890963961246 268.2892971711869 L 290.5890963961246 274.52551764362784 L 284.35287592368365 274.52551764362784 Z" fill="#00BA38" fill-opacity="0.85" stroke="none"/><path d="M 264.14440504540937 239.05949919138894 L 270.3806255178503 239.05949919138894 L 270.3806255178503 245.2957196638299 L 264.14440504540937 245.2957196638299 Z" fill="#00BA38" fill-opacity="0.85" stroke="none"/><path d="M 302.3159611488163 213.72700760889737 L 308.5521816212573 213.72700760889737 L 308.5521816212573 219.96322808133834 L 302.3159611488163 219.96322808133834 Z" fill="#00BA38" fill-opacity="0.85" stroke="none"/><path d="M 275.37133331111727 239.05949919138894 L 281.6075537835583 239.05949919138894 L 281.6075537835583 245.2957196638299 L 275.37133331111727 245.2957196638299 Z" fill="#00BA38" fill-opacity="0.85" stroke="none"/><rect x="366.5443911111111" y="7.333333333333333" width="145.72552888888887" height="24.0" fill="#d9d9d9" fill-opacity="1.0" stroke="none"/><text x="439.4071555555555" y="26.0" fill="#4d4d4d" font-size="11.733333333333334" font-family="sans-serif" text-anchor="middle">Torgersen</text><rect x="366.5443911111111" y="31.333333333333332" width="145.72552888888887" height="308.66666666666663" fill="#ebebeb" fill-opacity="1.0" stroke="none"/><line x1="379.9044357473035" y1="31.333333333333332" x2="379.9044357473035" y2="340.0" stroke="#ffffff" stroke-width="0.6666666666666666"/><line x1="402.3582922787194" y1="31.333333333333332" x2="402.3582922787194" y2="340.0" stroke="#ffffff" stroke-width="0.6666666666666666"/><line x1="424.8121488101352" y1="31.333333333333332" x2="424.8121488101352" y2="340.0" stroke="#ffffff" stroke-width="0.6666666666666666"/><line x1="447.26600534155114" y1="31.333333333333332" x2="447.26600534155114" y2="340.0" stroke="#ffffff" stroke-width="0.6666666666666666"/><line x1="469.719861872967" y1="31.333333333333332" x2="469.719861872967" y2="340.0" stroke="#ffffff" stroke-width="0.6666666666666666"/><line x1="492.17371840438284" y1="31.333333333333332" x2="492.17371840438284" y2="340.0" stroke="#ffffff" stroke-width="0.6666666666666666"/><line x1="368.67750748159557" y1="31.333333333333332" x2="368.67750748159557" y2="340.0" stroke="#ffffff" stroke-width="1.3333333333333333"/><line x1="391.1313640130114" y1="31.333333333333332" x2="391.1313640130114" y2="340.0" stroke="#ffffff" stroke-width="1.3333333333333333"/><line x1="413.58522054442733" y1="31.333333333333332" x2="413.58522054442733" y2="340.0" stroke="#ffffff" stroke-width="1.3333333333333333"/><line x1="436.0390770758432" y1="31.333333333333332" x2="436.0390770758432" y2="340.0" stroke="#ffffff" stroke-width="1.3333333333333333"/><line x1="458.49293360725903" y1="31.333333333333332" x2="458.49293360725903" y2="340.0" stroke="#ffffff" stroke-width="1.3333333333333333"/><line x1="480.94679013867494" y1="31.333333333333332" x2="480.94679013867494" y2="340.0" stroke="#ffffff" stroke-width="1.3333333333333333"/><line x1="503.4006466700908" y1="31.333333333333332" x2="503.4006466700908" y2="340.0" stroke="#ffffff" stroke-width="1.3333333333333333"/><line x1="366.5443911111111" y1="263.6127946127946" x2="512.26992" y2="263.6127946127946" stroke="#ffffff" stroke-width="0.6666666666666666"/><line x1="366.5443911111111" y1="185.66666666666666" x2="512.26992" y2="185.66666666666666" stroke="#ffffff" stroke-width="0.6666666666666666"/><line x1="366.5443911111111" y1="107.72053872053871" x2="512.26992" y2="107.72053872053871" stroke="#ffffff" stroke-width="0.6666666666666666"/><line x1="366.5443911111111" y1="302.58585858585855" x2="512.26992" y2="302.58585858585855" stroke="#ffffff" stroke-width="1.3333333333333333"/><line x1="366.5443911111111" y1="224.63973063973063" x2="512.26992" y2="224.63973063973063" stroke="#ffffff" stroke-width="1.3333333333333333"/><line x1="366.5443911111111" y1="146.69360269360268" x2="512.26992" y2="146.69360269360268" stroke="#ffffff" stroke-width="1.3333333333333333"/><line x1="366.5443911111111" y1="68.74747474747474" x2="512.26992" y2="68.74747474747474" stroke="#ffffff" stroke-width="1.3333333333333333"/><line x1="368.67750748159557" y1="340.0" x2="368.67750748159557" y2="343.66666666666663" stroke="#333333" stroke-width="1.3333333333333333"/><text x="368.67750748159557" y="355.9866666666667" fill="#4d4d4d" font-size="11.733333333333334" font-family="sans-serif" text-anchor="middle">170</text><line x1="391.1313640130114" y1="340.0" x2="391.1313640130114" y2="343.66666666666663" stroke="#333333" stroke-width="1.3333333333333333"/><text x="391.1313640130114" y="355.9866666666667" fill="#4d4d4d" font-size="11.733333333333334" font-family="sans-serif" text-anchor="middle">180</text><line x1="413.58522054442733" y1="340.0" x2="413.58522054442733" y2="343.66666666666663" stroke="#333333" stroke-width="1.3333333333333333"/><text x="413.58522054442733" y="355.9866666666667" fill="#4d4d4d" font-size="11.733333333333334" font-family="sans-serif" text-anchor="middle">190</text><line x1="436.0390770758432" y1="340.0" x2="436.0390770758432" y2="343.66666666666663" stroke="#333333" stroke-width="1.3333333333333333"/><text x="436.0390770758432" y="355.9866666666667" fill="#4d4d4d" font-size="11.733333333333334" font-family="sans-serif" text-anchor="middle">200</text><line x1="458.49293360725903" y1="340.0" x2="458.49293360725903" y2="343.66666666666663" stroke="#333333" stroke-width="1.3333333333333333"/><text x="458.49293360725903" y="355.9866666666667" fill="#4d4d4d" font-size="11.733333333333334" font-family="sans-serif" text-anchor="middle">210</text><line x1="480.94679013867494" y1="340.0" x2="480.94679013867494" y2="343.66666666666663" stroke="#333333" stroke-width="1.3333333333333333"/><text x="480.94679013867494" y="355.9866666666667" fill="#4d4d4d" font-size="11.733333333333334" font-family="sans-serif" text-anchor="middle">220</text><line x1="503.4006466700908" y1="340.0" x2="503.4006466700908" y2="343.66666666666663" stroke="#333333" stroke-width="1.3333333333333333"/><text x="503.4006466700908" y="355.9866666666667" fill="#4d4d4d" font-size="11.733333333333334" font-family="sans-serif" text-anchor="middle">230</text><circle cx="393.37674966615305" cy="244.12626262626262" r="3.1181102362204727" fill="#F8766D" fill-opacity="0.85" stroke="none"><title>(181, 3750)</title></circle><circle cx="404.60367793186094" cy="240.22895622895618" r="3.1181102362204727" fill="#F8766D" fill-opacity="0.85" stroke="none"><title>(186, 3800)</title></circle><circle cx="424.8121488101352" cy="283.09932659932656" r="3.1181102362204727" fill="#F8766D" fill-opacity="0.85" stroke="none"><title>(195, 3250)</title></circle><circle cx="420.3213775038521" cy="267.510101010101" r="3.1181102362204727" fill="#F8766D" fill-opacity="0.85" stroke="none"><title>(193, 3450)</title></circle><circle cx="413.58522054442733" cy="251.92087542087543" r="3.1181102362204727" fill="#F8766D" fill-opacity="0.85" stroke="none"><title>(190, 3650)</title></circle><circle cx="393.37674966615305" cy="253.86952861952864" r="3.1181102362204727" fill="#F8766D" fill-opacity="0.85" stroke="none"><title>(181, 3625)</title></circle><circle cx="424.8121488101352" cy="172.02609427609426" r="3.1181102362204727" fill="#F8766D" fill-opacity="0.85" stroke="none"><title>(195, 4675)</title></circle><circle cx="420.3213775038521" cy="265.5614478114478" r="3.1181102362204727" fill="#F8766D" fill-opacity="0.85" stroke="none"><title>(193, 3475)</title></circle><circle cx="413.58522054442733" cy="205.15319865319864" r="3.1181102362204727" fill="#F8766D" fill-opacity="0.85" stroke="none"><title>(190, 4250)</title></circle><circle cx="404.60367793186094" cy="279.2020202020202" r="3.1181102362204727" fill="#F8766D" fill-opacity="0.85" stroke="none"><title>(186, 3300)</title></circle><circle cx="391.1313640130114" cy="248.02356902356905" r="3.1181102362204727" fill="#F8766D" fill-opacity="0.85" stroke="none"><title>(180, 3700)</title></circle><circle cx="395.6221353192946" cy="286.99663299663297" r="3.1181102362204727" fill="#F8766D" fill-opacity="0.85" stroke="none"><title>(182, 3200)</title></circle><circle cx="415.8306061975689" cy="240.22895622895618" r="3.1181102362204727" fill="#F8766D" fill-opacity="0.85" stroke="none"><title>(191, 3800)</title></circle><circle cx="431.54830576956" cy="193.46127946127945" r="3.1181102362204727" fill="#F8766D" fill-opacity="0.85" stroke="none"><title>(198, 4400)</title></circle><circle cx="402.3582922787194" cy="248.02356902356905" r="3.1181102362204727" fill="#F8766D" fill-opacity="0.85" stroke="none"><title>(185, 3700)</title></circle><circle cx="424.8121488101352" cy="267.510101010101" r="3.1181102362204727" fill="#F8766D" fill-opacity="0.85" stroke="none"><title>(195, 3450)</title></circle><circle cx="429.3029201164184" cy="185.66666666666666" r="3.1181102362204727" fill="#F8766D" fill-opacity="0.85" stroke="none"><title>(197, 4500)</title></circle><circle cx="400.1129066255778" cy="277.253367003367" r="3.1181102362204727" fill="#F8766D" fill-opacity="0.85" stroke="none"><title>(184, 3325)</title></circle><circle cx="422.56676315699366" cy="209.05050505050502" r="3.1181102362204727" fill="#F8766D" fill-opacity="0.85" stroke="none"><title>(194, 4200)</title></circle><circle cx="413.58522054442733" cy="298.6885521885522" r="3.1181102362204727" fill="#F8766D" fill-opacity="0.85" stroke="none"><title>(190, 3050)</title></circle><circle cx="431.54830576956" cy="189.56397306397304" r="3.1181102362204727" fill="#F8766D" fill-opacity="0.85" stroke="none"><title>(198, 4450)</title></circle><circle cx="413.58522054442733" cy="255.8181818181818" r="3.1181102362204727" fill="#F8766D" fill-opacity="0.85" stroke="none"><title>(190, 3600)</title></circle><circle cx="413.58522054442733" cy="232.43434343434342" r="3.1181102362204727" fill="#F8766D" fill-opacity="0.85" stroke="none"><title>(190, 3900)</title></circle><circle cx="427.05753446327685" cy="259.7154882154882" r="3.1181102362204727" fill="#F8766D" fill-opacity="0.85" stroke="none"><title>(196, 3550)</title></circle><circle cx="429.3029201164184" cy="212.94781144781146" r="3.1181102362204727" fill="#F8766D" fill-opacity="0.85" stroke="none"><title>(197, 4150)</title></circle><circle cx="413.58522054442733" cy="248.02356902356905" r="3.1181102362204727" fill="#F8766D" fill-opacity="0.85" stroke="none"><title>(190, 3700)</title></circle><circle cx="424.8121488101352" cy="205.15319865319864" r="3.1181102362204727" fill="#F8766D" fill-opacity="0.85" stroke="none"><title>(195, 4250)</title></circle><circle cx="415.8306061975689" cy="248.02356902356905" r="3.1181102362204727" fill="#F8766D" fill-opacity="0.85" stroke="none"><title>(191, 3700)</title></circle><circle cx="400.1129066255778" cy="232.43434343434342" r="3.1181102362204727" fill="#F8766D" fill-opacity="0.85" stroke="none"><title>(184, 3900)</title></circle><circle cx="406.84906358500257" cy="259.7154882154882" r="3.1181102362204727" fill="#F8766D" fill-opacity="0.85" stroke="none"><title>(187, 3550)</title></circle><circle cx="424.8121488101352" cy="224.63973063973063" r="3.1181102362204727" fill="#F8766D" fill-opacity="0.85" stroke="none"><title>(195, 4000)</title></circle><circle cx="411.3398348912857" cy="286.99663299663297" r="3.1181102362204727" fill="#F8766D" fill-opacity="0.85" stroke="none"><title>(189, 3200)</title></circle><circle cx="427.05753446327685" cy="170.07744107744108" r="3.1181102362204727" fill="#F8766D" fill-opacity="0.85" stroke="none"><title>(196, 4700)</title></circle><circle cx="406.84906358500257" cy="240.22895622895618" r="3.1181102362204727" fill="#F8766D" fill-opacity="0.85" stroke="none"><title>(187, 3800)</title></circle><circle cx="420.3213775038521" cy="209.05050505050502" r="3.1181102362204727" fill="#F8766D" fill-opacity="0.85" stroke="none"><title>(193, 4200)</title></circle><circle cx="409.09444923814414" cy="310.38047138047136" r="3.1181102362204727" fill="#F8766D" fill-opacity="0.85" stroke="none"><title>(188, 2900)</title></circle><circle cx="433.7936914227016" cy="242.1776094276094" r="3.1181102362204727" fill="#F8766D" fill-opacity="0.85" stroke="none"><title>(199, 3775)</title></circle><circle cx="411.3398348912857" cy="275.3047138047138" r="3.1181102362204727" fill="#F8766D" fill-opacity="0.85" stroke="none"><title>(189, 3350)</title></circle><circle cx="411.3398348912857" cy="277.253367003367" r="3.1181102362204727" fill="#F8766D" fill-opacity="0.85" stroke="none"><title>(189, 3325)</title></circle><circle cx="406.84906358500257" cy="290.8939393939394" r="3.1181102362204727" fill="#F8766D" fill-opacity="0.85" stroke="none"><title>(187, 3150)</title></circle><circle cx="431.54830576956" cy="263.6127946127946" r="3.1181102362204727" fill="#F8766D" fill-opacity="0.85" stroke="none"><title>(198, 3500)</title></circle><circle cx="382.1498214004451" cy="267.510101010101" r="3.1181102362204727" fill="#F8766D" fill-opacity="0.85" stroke="none"><title>(176, 3450)</title></circle><circle cx="440.5298483821264" cy="234.3829966329966" r="3.1181102362204727" fill="#F8766D" fill-opacity="0.85" stroke="none"><title>(202, 3875)</title></circle><circle cx="404.60367793186094" cy="298.6885521885522" r="3.1181102362204727" fill="#F8766D" fill-opacity="0.85" stroke="none"><title>(186, 3050)</title></circle><circle cx="433.7936914227016" cy="224.63973063973063" r="3.1181102362204727" fill="#F8766D" fill-opacity="0.85" stroke="none"><title>(199, 4000)</title></circle><circle cx="415.8306061975689" cy="281.1506734006734" r="3.1181102362204727" fill="#F8766D" fill-opacity="0.85" stroke="none"><title>(191, 3275)</title></circle><circle cx="424.8121488101352" cy="201.2558922558922" r="3.1181102362204727" fill="#F8766D" fill-opacity="0.85" stroke="none"><title>(195, 4300)</title></circle><circle cx="415.8306061975689" cy="298.6885521885522" r="3.1181102362204727" fill="#F8766D" fill-opacity="0.85" stroke="none"><title>(191, 3050)</title></circle><circle cx="458.49293360725903" cy="224.63973063973063" r="3.1181102362204727" fill="#F8766D" fill-opacity="0.85" stroke="none"><title>(210, 4000)</title></circle><circle cx="413.58522054442733" cy="277.253367003367" r="3.1181102362204727" fill="#F8766D" fill-opacity="0.85" stroke="none"><title>(190, 3325)</title></circle><circle cx="429.3029201164184" cy="263.6127946127946" r="3.1181102362204727" fill="#F8766D" fill-opacity="0.85" stroke="none"><title>(197, 3500)</title></circle><text x="526.9365866666666" y="142.66221333333334" fill="#4d4d4d" font-size="14.666666666666666" font-family="sans-serif" text-anchor="start">species</text><rect x="526.9365866666666" y="149.99554666666666" width="23.114079999999994" height="69.34223999999998" fill="#ebebeb" fill-opacity="1.0" stroke="none"/><rect x="526.9365866666666" y="149.99554666666666" width="23.114079999999994" height="23.114079999999994" fill="#f2f2f2" fill-opacity="1.0" stroke="none"/><circle cx="538.4936266666666" cy="161.55258666666666" r="3.1181102362204727" fill="#F8766D" fill-opacity="1.0" stroke="none"/><text x="553.7173333333333" y="165.30725333333334" fill="#4d4d4d" font-size="11.733333333333334" font-family="sans-serif" text-anchor="start">Adelie</text><rect x="526.9365866666666" y="173.10962666666666" width="23.114079999999994" height="23.114079999999994" fill="#f2f2f2" fill-opacity="1.0" stroke="none"/><path d="M 535.3755164304462 181.54855643044618 L 541.6117369028871 181.54855643044618 L 541.6117369028871 187.78477690288713 L 535.3755164304462 187.78477690288713 Z" fill="#00BA38" fill-opacity="1.0" stroke="none"/><text x="553.7173333333333" y="188.42133333333334" fill="#4d4d4d" font-size="11.733333333333334" font-family="sans-serif" text-anchor="start">Chinstrap</text><rect x="526.9365866666666" y="196.22370666666666" width="23.114079999999994" height="23.114079999999994" fill="#f2f2f2" fill-opacity="1.0" stroke="none"/><path d="M 538.4936266666666 204.66263643044616 L 541.6117369028871 210.89885690288713 L 535.3755164304462 210.89885690288713 Z" fill="#619CFF" fill-opacity="1.0" stroke="none"/><text x="553.7173333333333" y="211.5354133333333" fill="#4d4d4d" font-size="11.733333333333334" font-family="sans-serif" text-anchor="start">Gentoo</text></svg>