<svg xmlns="http://www.w3.org/2000/svg" width="800" height="600" viewBox="0 0 800 600"><rect x="0.0" y="0.0" width="800.0" height="600.0" fill="#ffffff" fill-opacity="1.0" stroke="none"/><line x1="413.15000000000003" y1="27.0" x2="413.15000000000003" y2="563.8" stroke="#dddddd" stroke-width="1.0"/><line x1="31.799999999999997" y1="512.6761904761904" x2="794.5" y2="512.6761904761904" stroke="#dddddd" stroke-width="0.5"/><line x1="31.799999999999997" y1="410.42857142857144" x2="794.5" y2="410.42857142857144" stroke="#dddddd" stroke-width="0.5"/><line x1="31.799999999999997" y1="308.18095238095236" x2="794.5" y2="308.18095238095236" stroke="#dddddd" stroke-width="0.5"/><line x1="31.799999999999997" y1="205.93333333333334" x2="794.5" y2="205.93333333333334" stroke="#dddddd" stroke-width="0.5"/><line x1="31.799999999999997" y1="103.68571428571431" x2="794.5" y2="103.68571428571431" stroke="#dddddd" stroke-width="0.5"/><line x1="31.799999999999997" y1="563.8" x2="794.5" y2="563.8" stroke="#dddddd" stroke-width="1.0"/><line x1="31.799999999999997" y1="461.55238095238093" x2="794.5" y2="461.55238095238093" stroke="#dddddd" stroke-width="1.0"/><line x1="31.799999999999997" y1="359.3047619047619" x2="794.5" y2="359.3047619047619" stroke="#dddddd" stroke-width="1.0"/><line x1="31.799999999999997" y1="257.0571428571429" x2="794.5" y2="257.0571428571429" stroke="#dddddd" stroke-width="1.0"/><line x1="31.799999999999997" y1="154.8095238095238" x2="794.5" y2="154.8095238095238" stroke="#dddddd" stroke-width="1.0"/><line x1="31.799999999999997" y1="52.56190476190477" x2="794.5" y2="52.56190476190477" stroke="#dddddd" stroke-width="1.0"/><rect x="31.799999999999997" y="27.0" width="762.7" height="536.8" fill="#ffffff" fill-opacity="0.0" stroke="#444444" stroke-width="1.0"/><line x1="413.15000000000003" y1="563.8" x2="413.15000000000003" y2="566.55" stroke="#444444" stroke-width="1.0"/><text x="413.15000000000003" y="577.55" fill="#333333" font-size="11.0" font-family="sans-serif" text-anchor="middle">no</text><line x1="31.799999999999997" y1="563.8" x2="29.049999999999997" y2="563.8" stroke="#444444" stroke-width="1.0"/><text x="26.849999999999998" y="567.65" fill="#333333" font-size="11.0" font-family="sans-serif" text-anchor="end">0</text><line x1="31.799999999999997" y1="461.55238095238093" x2="29.049999999999997" y2="461.55238095238093" stroke="#444444" stroke-width="1.0"/><text x="26.849999999999998" y="465.40238095238095" fill="#333333" font-size="11.0" font-family="sans-serif" text-anchor="end">1</text><line x1="31.799999999999997" y1="359.3047619047619" x2="29.049999999999997" y2="359.3047619047619" stroke="#444444" stroke-width="1.0"/><text x="26.849999999999998" y="363.1547619047619" fill="#333333" font-size="11.0" font-family="sans-serif" text-anchor="end">2</text><line x1="31.799999999999997" y1="257.0571428571429" x2="29.049999999999997" y2="257.0571428571429" stroke="#444444" stroke-width="1.0"/><text x="26.849999999999998" y="260.9071428571429" fill="#333333" font-size="11.0" font-family="sans-serif" text-anchor="end">3</text><line x1="31.799999999999997" y1="154.8095238095238" x2="29.049999999999997" y2="154.8095238095238" stroke="#444444" stroke-width="1.0"/><text x="26.849999999999998" y="158.6595238095238" fill="#333333" font-size="11.0" font-family="sans-serif" text-anchor="end">4</text><line x1="31.799999999999997" y1="52.56190476190477" x2="29.049999999999997" y2="52.56190476190477" stroke="#444444" stroke-width="1.0"/><text x="26.849999999999998" y="56.41190476190477" fill="#333333" font-size="11.0" font-family="sans-serif" text-anchor="end">5</text><text x="413.15000000000003" y="18.3" fill="#333333" font-size="16.0" font-family="sans-serif" text-anchor="middle">空グループを落とす (観測された値のみ)</text><text x="413.15000000000003" y="592.1" fill="#333333" font-size="12.0" font-family="sans-serif" text-anchor="middle">smoker</text><text x="13.899999999999999" y="295.4" fill="#333333" font-size="12.0" font-family="sans-serif" text-anchor="middle" transform="rotate(-90.0 13.899999999999999 295.4)">count</text><rect x="127.13749999999993" y="52.56190476190477" width="572.0250000000002" height="511.2380952380952" fill="#2c7fb8" fill-opacity="0.85" stroke="none"/></svg>