<svg xmlns="http://www.w3.org/2000/svg" width="624" height="384" viewBox="0 0 624 384"><rect x="0.0" y="0.0" width="624.0" height="384.0" fill="#ffffff" fill-opacity="1.0" stroke="none"/><rect x="60.42666666666666" y="32.266666666666666" width="499.24591999999996" height="307.73333333333335" fill="#ebebeb" fill-opacity="1.0" stroke="none"/><line x1="131.74751238095237" y1="32.266666666666666" x2="131.74751238095237" y2="340.0" stroke="#ffffff" stroke-width="1.3333333333333333"/><line x1="250.61558857142853" y1="32.266666666666666" x2="250.61558857142853" y2="340.0" stroke="#ffffff" stroke-width="1.3333333333333333"/><line x1="369.4836647619048" y1="32.266666666666666" x2="369.4836647619048" y2="340.0" stroke="#ffffff" stroke-width="1.3333333333333333"/><line x1="488.3517409523809" y1="32.266666666666666" x2="488.3517409523809" y2="340.0" stroke="#ffffff" stroke-width="1.3333333333333333"/><line x1="60.42666666666666" y1="311.81929181929183" x2="559.6725866666666" y2="311.81929181929183" stroke="#ffffff" stroke-width="0.6666666666666666"/><line x1="60.42666666666666" y1="255.45787545787545" x2="559.6725866666666" y2="255.45787545787545" stroke="#ffffff" stroke-width="0.6666666666666666"/><line x1="60.42666666666666" y1="199.09645909645909" x2="559.6725866666666" y2="199.09645909645909" stroke="#ffffff" stroke-width="0.6666666666666666"/><line x1="60.42666666666666" y1="142.73504273504273" x2="559.6725866666666" y2="142.73504273504273" stroke="#ffffff" stroke-width="0.6666666666666666"/><line x1="60.42666666666666" y1="86.37362637362635" x2="559.6725866666666" y2="86.37362637362635" stroke="#ffffff" stroke-width="0.6666666666666666"/><line x1="60.42666666666666" y1="340.0" x2="559.6725866666666" y2="340.0" stroke="#ffffff" stroke-width="1.3333333333333333"/><line x1="60.42666666666666" y1="283.6385836385836" x2="559.6725866666666" y2="283.6385836385836" stroke="#ffffff" stroke-width="1.3333333333333333"/><line x1="60.42666666666666" y1="227.27716727716725" x2="559.6725866666666" y2="227.27716727716725" stroke="#ffffff" stroke-width="1.3333333333333333"/><line x1="60.42666666666666" y1="170.91575091575092" x2="559.6725866666666" y2="170.91575091575092" stroke="#ffffff" stroke-width="1.3333333333333333"/><line x1="60.42666666666666" y1="114.55433455433456" x2="559.6725866666666" y2="114.55433455433456" stroke="#ffffff" stroke-width="1.3333333333333333"/><line x1="60.42666666666666" y1="58.192918192918185" x2="559.6725866666666" y2="58.192918192918185" stroke="#ffffff" stroke-width="1.3333333333333333"/><line x1="131.74751238095237" y1="340.0" x2="131.74751238095237" y2="343.66666666666663" stroke="#333333" stroke-width="1.3333333333333333"/><text x="131.74751238095237" y="355.9866666666667" fill="#4d4d4d" font-size="11.733333333333334" font-family="sans-serif" text-anchor="middle">Q1</text><line x1="250.61558857142853" y1="340.0" x2="250.61558857142853" y2="343.66666666666663" stroke="#333333" stroke-width="1.3333333333333333"/><text x="250.61558857142853" y="355.9866666666667" fill="#4d4d4d" font-size="11.733333333333334" font-family="sans-serif" text-anchor="middle">Q2</text><line x1="369.4836647619048" y1="340.0" x2="369.4836647619048" y2="343.66666666666663" stroke="#333333" stroke-width="1.3333333333333333"/><text x="369.4836647619048" y="355.9866666666667" fill="#4d4d4d" font-size="11.733333333333334" font-family="sans-serif" text-anchor="middle">Q3</text><line x1="488.3517409523809" y1="340.0" x2="488.3517409523809" y2="343.66666666666663" stroke="#333333" stroke-width="1.3333333333333333"/><text x="488.3517409523809" y="355.9866666666667" fill="#4d4d4d" font-size="11.733333333333334" font-family="sans-serif" text-anchor="middle">Q4</text><line x1="60.42666666666666" y1="340.0" x2="56.76" y2="340.0" stroke="#333333" stroke-width="1.3333333333333333"/><text x="53.82666666666666" y="344.1066666666666" fill="#4d4d4d" font-size="11.733333333333334" font-family="sans-serif" text-anchor="end">0.0</text><line x1="60.42666666666666" y1="283.6385836385836" x2="56.76" y2="283.6385836385836" stroke="#333333" stroke-width="1.3333333333333333"/><text x="53.82666666666666" y="287.7452503052503" fill="#4d4d4d" font-size="11.733333333333334" font-family="sans-serif" text-anchor="end">2.5</text><line x1="60.42666666666666" y1="227.27716727716725" x2="56.76" y2="227.27716727716725" stroke="#333333" stroke-width="1.3333333333333333"/><text x="53.82666666666666" y="231.38383394383393" fill="#4d4d4d" font-size="11.733333333333334" font-family="sans-serif" text-anchor="end">5.0</text><line x1="60.42666666666666" y1="170.91575091575092" x2="56.76" y2="170.91575091575092" stroke="#333333" stroke-width="1.3333333333333333"/><text x="53.82666666666666" y="175.0224175824176" fill="#4d4d4d" font-size="11.733333333333334" font-family="sans-serif" text-anchor="end">7.5</text><line x1="60.42666666666666" y1="114.55433455433456" x2="56.76" y2="114.55433455433456" stroke="#333333" stroke-width="1.3333333333333333"/><text x="53.82666666666666" y="118.66100122100121" fill="#4d4d4d" font-size="11.733333333333334" font-family="sans-serif" text-anchor="end">10.0</text><line x1="60.42666666666666" y1="58.192918192918185" x2="56.76" y2="58.192918192918185" stroke="#333333" stroke-width="1.3333333333333333"/><text x="53.82666666666666" y="62.299584859584854" fill="#4d4d4d" font-size="11.733333333333334" font-family="sans-serif" text-anchor="end">12.5</text><text x="60.42666666666666" y="21.413333333333334" fill="#000000" font-size="17.599999999999998" font-family="sans-serif" text-anchor="start">Stacked bar</text><text x="310.04962666666665" y="373.73333333333335" fill="#000000" font-size="14.666666666666666" font-family="sans-serif" text-anchor="middle">quarter</text><text x="17.599999999999998" y="186.13333333333333" fill="#000000" font-size="14.666666666666666" font-family="sans-serif" text-anchor="middle" transform="rotate(-90.0 17.599999999999998 186.13333333333333)">value</text><rect x="78.25687809523811" y="294.9108669108669" width="106.98126857142854" height="45.08913308913308" fill="#619CFF" fill-opacity="1.0" stroke="none"/><rect x="78.25687809523811" y="182.18803418803418" width="106.98126857142854" height="112.72283272283273" fill="#00BA38" fill-opacity="1.0" stroke="none"/><rect x="78.25687809523811" y="114.55433455433456" width="106.98126857142854" height="67.63369963369962" fill="#F8766D" fill-opacity="1.0" stroke="none"/><rect x="197.12495428571427" y="204.7326007326007" width="106.98126857142854" height="135.26739926739927" fill="#619CFF" fill-opacity="1.0" stroke="none"/><rect x="197.12495428571427" y="137.09890109890108" width="106.98126857142854" height="67.63369963369962" fill="#00BA38" fill-opacity="1.0" stroke="none"/><rect x="197.12495428571427" y="46.92063492063494" width="106.98126857142854" height="90.17826617826616" fill="#F8766D" fill-opacity="1.0" stroke="none"/><rect x="315.9930304761905" y="272.3663003663003" width="106.98126857142854" height="67.63369963369965" fill="#619CFF" fill-opacity="1.0" stroke="none"/><rect x="315.9930304761905" y="182.18803418803418" width="106.98126857142854" height="90.17826617826616" fill="#00BA38" fill-opacity="1.0" stroke="none"/><rect x="315.9930304761905" y="69.46520146520143" width="106.98126857142854" height="112.72283272283273" fill="#F8766D" fill-opacity="1.0" stroke="none"/><rect x="434.8611066666666" y="249.82173382173383" width="106.98126857142854" height="90.17826617826616" fill="#619CFF" fill-opacity="1.0" stroke="none"/><rect x="434.8611066666666" y="204.7326007326007" width="106.98126857142854" height="45.089133089133114" fill="#00BA38" fill-opacity="1.0" stroke="none"/><rect x="434.8611066666666" y="69.46520146520143" width="106.98126857142854" height="135.26739926739927" fill="#F8766D" fill-opacity="1.0" stroke="none"/><rect x="574.3392533333333" y="151.46221333333335" width="23.114079999999994" height="69.34223999999998" fill="#ebebeb" fill-opacity="1.0" stroke="none"/><rect x="574.3392533333333" y="151.46221333333335" width="23.114079999999994" height="23.114079999999994" fill="#f2f2f2" fill-opacity="1.0" stroke="none"/><rect x="575.2841352230971" y="152.40709522309712" width="21.224316220472435" height="21.224316220472435" fill="#F8766D" fill-opacity="1.0" stroke="none"/><text x="601.1199999999999" y="166.77392" fill="#4d4d4d" font-size="11.733333333333334" font-family="sans-serif" text-anchor="start">A</text><rect x="574.3392533333333" y="174.57629333333333" width="23.114079999999994" height="23.114079999999994" fill="#f2f2f2" fill-opacity="1.0" stroke="none"/><rect x="575.2841352230971" y="175.5211752230971" width="21.224316220472435" height="21.224316220472435" fill="#00BA38" fill-opacity="1.0" stroke="none"/><text x="601.1199999999999" y="189.88799999999998" fill="#4d4d4d" font-size="11.733333333333334" font-family="sans-serif" text-anchor="start">B</text><rect x="574.3392533333333" y="197.69037333333335" width="23.114079999999994" height="23.114079999999994" fill="#f2f2f2" fill-opacity="1.0" stroke="none"/><rect x="575.2841352230971" y="198.63525522309715" width="21.224316220472435" height="21.224316220472435" fill="#619CFF" fill-opacity="1.0" stroke="none"/><text x="601.1199999999999" y="213.00208" fill="#4d4d4d" font-size="11.733333333333334" font-family="sans-serif" text-anchor="start">C</text></svg>