<svg xmlns="http://www.w3.org/2000/svg" width="624" height="384" viewBox="0 0 624 384"><rect x="0.0" y="0.0" width="624.0" height="384.0" fill="#ffffff" fill-opacity="1.0" stroke="none"/><rect x="35.05333333333333" y="32.266666666666666" width="581.6133333333332" height="307.73333333333335" fill="#ebebeb" fill-opacity="1.0" stroke="none"/><line x1="86.0468443471602" y1="32.266666666666666" x2="86.0468443471602" y2="340.0" stroke="#ffffff" stroke-width="0.6666666666666666"/><line x1="180.70201786528202" y1="32.266666666666666" x2="180.70201786528202" y2="340.0" stroke="#ffffff" stroke-width="0.6666666666666666"/><line x1="275.3571913834038" y1="32.266666666666666" x2="275.3571913834038" y2="340.0" stroke="#ffffff" stroke-width="0.6666666666666666"/><line x1="370.01236490152564" y1="32.266666666666666" x2="370.01236490152564" y2="340.0" stroke="#ffffff" stroke-width="0.6666666666666666"/><line x1="464.6675384196475" y1="32.266666666666666" x2="464.6675384196475" y2="340.0" stroke="#ffffff" stroke-width="0.6666666666666666"/><line x1="559.3227119377692" y1="32.266666666666666" x2="559.3227119377692" y2="340.0" stroke="#ffffff" stroke-width="0.6666666666666666"/><line x1="38.719257588099296" y1="32.266666666666666" x2="38.719257588099296" y2="340.0" stroke="#ffffff" stroke-width="1.3333333333333333"/><line x1="133.37443110622112" y1="32.266666666666666" x2="133.37443110622112" y2="340.0" stroke="#ffffff" stroke-width="1.3333333333333333"/><line x1="228.02960462434294" y1="32.266666666666666" x2="228.02960462434294" y2="340.0" stroke="#ffffff" stroke-width="1.3333333333333333"/><line x1="322.6847781424647" y1="32.266666666666666" x2="322.6847781424647" y2="340.0" stroke="#ffffff" stroke-width="1.3333333333333333"/><line x1="417.3399516605866" y1="32.266666666666666" x2="417.3399516605866" y2="340.0" stroke="#ffffff" stroke-width="1.3333333333333333"/><line x1="511.9951251787084" y1="32.266666666666666" x2="511.9951251787084" y2="340.0" stroke="#ffffff" stroke-width="1.3333333333333333"/><line x1="606.6502986968302" y1="32.266666666666666" x2="606.6502986968302" y2="340.0" stroke="#ffffff" stroke-width="1.3333333333333333"/><line x1="35.05333333333333" y1="303.3407243785777" x2="616.6666666666666" y2="303.3407243785777" stroke="#ffffff" stroke-width="0.6666666666666666"/><line x1="35.05333333333333" y1="230.0221731357331" x2="616.6666666666666" y2="230.0221731357331" stroke="#ffffff" stroke-width="0.6666666666666666"/><line x1="35.05333333333333" y1="156.70362189288852" x2="616.6666666666666" y2="156.70362189288852" stroke="#ffffff" stroke-width="0.6666666666666666"/><line x1="35.05333333333333" y1="83.38507065004399" x2="616.6666666666666" y2="83.38507065004399" stroke="#ffffff" stroke-width="0.6666666666666666"/><line x1="35.05333333333333" y1="340.0" x2="616.6666666666666" y2="340.0" stroke="#ffffff" stroke-width="1.3333333333333333"/><line x1="35.05333333333333" y1="266.6814487571554" x2="616.6666666666666" y2="266.6814487571554" stroke="#ffffff" stroke-width="1.3333333333333333"/><line x1="35.05333333333333" y1="193.36289751431082" x2="616.6666666666666" y2="193.36289751431082" stroke="#ffffff" stroke-width="1.3333333333333333"/><line x1="35.05333333333333" y1="120.04434627146625" x2="616.6666666666666" y2="120.04434627146625" stroke="#ffffff" stroke-width="1.3333333333333333"/><line x1="35.05333333333333" y1="46.72579502862167" x2="616.6666666666666" y2="46.72579502862167" stroke="#ffffff" stroke-width="1.3333333333333333"/><line x1="38.719257588099296" y1="340.0" x2="38.719257588099296" y2="343.66666666666663" stroke="#333333" stroke-width="1.3333333333333333"/><text x="38.719257588099296" y="355.9866666666667" fill="#4d4d4d" font-size="11.733333333333334" font-family="sans-serif" text-anchor="middle">-3</text><line x1="133.37443110622112" y1="340.0" x2="133.37443110622112" y2="343.66666666666663" stroke="#333333" stroke-width="1.3333333333333333"/><text x="133.37443110622112" y="355.9866666666667" fill="#4d4d4d" font-size="11.733333333333334" font-family="sans-serif" text-anchor="middle">-2</text><line x1="228.02960462434294" y1="340.0" x2="228.02960462434294" y2="343.66666666666663" stroke="#333333" stroke-width="1.3333333333333333"/><text x="228.02960462434294" y="355.9866666666667" fill="#4d4d4d" font-size="11.733333333333334" font-family="sans-serif" text-anchor="middle">-1</text><line x1="322.6847781424647" y1="340.0" x2="322.6847781424647" y2="343.66666666666663" stroke="#333333" stroke-width="1.3333333333333333"/><text x="322.6847781424647" y="355.9866666666667" fill="#4d4d4d" font-size="11.733333333333334" font-family="sans-serif" text-anchor="middle">0</text><line x1="417.3399516605866" y1="340.0" x2="417.3399516605866" y2="343.66666666666663" stroke="#333333" stroke-width="1.3333333333333333"/><text x="417.3399516605866" y="355.9866666666667" fill="#4d4d4d" font-size="11.733333333333334" font-family="sans-serif" text-anchor="middle">1</text><line x1="511.9951251787084" y1="340.0" x2="511.9951251787084" y2="343.66666666666663" stroke="#333333" stroke-width="1.3333333333333333"/><text x="511.9951251787084" y="355.9866666666667" fill="#4d4d4d" font-size="11.733333333333334" font-family="sans-serif" text-anchor="middle">2</text><line x1="606.6502986968302" y1="340.0" x2="606.6502986968302" y2="343.66666666666663" stroke="#333333" stroke-width="1.3333333333333333"/><text x="606.6502986968302" y="355.9866666666667" fill="#4d4d4d" font-size="11.733333333333334" font-family="sans-serif" text-anchor="middle">3</text><line x1="35.05333333333333" y1="340.0" x2="31.386666666666663" y2="340.0" stroke="#333333" stroke-width="1.3333333333333333"/><text x="28.453333333333333" y="344.1066666666666" fill="#4d4d4d" font-size="11.733333333333334" font-family="sans-serif" text-anchor="end">0.0</text><line x1="35.05333333333333" y1="266.6814487571554" x2="31.386666666666663" y2="266.6814487571554" stroke="#333333" stroke-width="1.3333333333333333"/><text x="28.453333333333333" y="270.7881154238221" fill="#4d4d4d" font-size="11.733333333333334" font-family="sans-serif" text-anchor="end">0.1</text><line x1="35.05333333333333" y1="193.36289751431082" x2="31.386666666666663" y2="193.36289751431082" stroke="#333333" stroke-width="1.3333333333333333"/><text x="28.453333333333333" y="197.4695641809775" fill="#4d4d4d" font-size="11.733333333333334" font-family="sans-serif" text-anchor="end">0.2</text><line x1="35.05333333333333" y1="120.04434627146625" x2="31.386666666666663" y2="120.04434627146625" stroke="#333333" stroke-width="1.3333333333333333"/><text x="28.453333333333333" y="124.15101293813292" fill="#4d4d4d" font-size="11.733333333333334" font-family="sans-serif" text-anchor="end">0.3</text><line x1="35.05333333333333" y1="46.72579502862167" x2="31.386666666666663" y2="46.72579502862167" stroke="#333333" stroke-width="1.3333333333333333"/><text x="28.453333333333333" y="50.83246169528833" fill="#4d4d4d" font-size="11.733333333333334" font-family="sans-serif" text-anchor="end">0.4</text><text x="35.05333333333333" y="21.413333333333334" fill="#000000" font-size="17.599999999999998" font-family="sans-serif" text-anchor="start">Density</text><text x="325.85999999999996" y="373.73333333333335" fill="#000000" font-size="14.666666666666666" font-family="sans-serif" text-anchor="middle">value</text><path d="M 35.05333333333333 337.63668106284143 L 40.9282154882155 336.8844455298125 L 46.80309764309764 336.0150471439716 L 52.6779797979798 335.0360109084863 L 58.55286195286193 333.9490811558911 L 64.4277441077441 332.74150630444194 L 70.30262626262628 331.37841683412677 L 76.1775084175084 329.7993538877465 L 82.05239057239058 327.92158803000916 L 87.92727272727271 325.6513354400055 L 93.80215488215488 322.90158655817874 L 99.67703703703701 319.61267392387174 L 105.55191919191918 315.7698255779689 L 111.42680134680137 311.41161938215635 L 117.30168350168347 306.624919789622 L 123.17656565656564 301.5253616294778 L 129.05144781144782 296.22689321886924 L 134.92632996632994 290.80796127859594 L 140.8012121212121 285.284155656462 L 146.67609427609426 279.59644392412696 L 152.5509764309764 273.62025294961165 L 158.42585858585858 267.1944352398574 L 164.3007407407407 260.16246091117137 L 170.17562289562287 252.41340383756983 L 176.05050505050502 243.90952839322364 L 181.9253872053872 234.69136619127102 L 187.80026936026934 224.85907896037475 L 193.6751515151515 214.53786088369762 L 199.55003367003363 203.8415551133617 L 205.4249158249158 192.84963359393012 L 211.29979797979797 181.6073753439196 L 217.1746801346801 170.1492961711171 L 223.04956228956226 158.5355193516973 L 228.9244444444444 146.88420038107282 L 234.79932659932655 135.3833132135535 L 240.67420875420868 124.27237555476589 L 246.5490909090909 113.79649372827944 L 252.42397306397302 104.14701911812456 L 258.2988552188552 95.41047373272616 L 264.17373737373737 87.54703623973478 L 270.0486195286195 80.4112566026733 L 275.9235016835016 73.81325780936618 L 281.79838383838376 67.60330474406763 L 287.67326599326594 61.75191518609142 L 293.5481481481481 56.39612122958631 L 299.42303030303026 51.83153165590511 L 305.2979124579124 48.447092963000536 L 311.1727946127945 46.61918845421511 L 317.04767676767676 46.59690193410339 L 322.9225589225589 48.41518725433423 L 328.797441077441 51.86521477114229 L 334.67232323232315 56.53368585958681 L 340.5472053872053 61.90137223353838 L 346.4220875420875 67.4727987866914 L 352.29696969696965 72.89974035668611 L 358.1718518518518 78.0636414516911 L 364.04673400673397 83.0949110865703 L 369.92161616161604 88.3258887481337 L 375.7964983164983 94.193201388842 L 381.6713804713804 101.11862764322582 L 387.54626262626266 109.40173739809032 L 393.42114478114473 119.15167556110937 L 399.2960269360269 130.27184332761118 L 405.170909090909 142.4946583644368 L 411.04579124579124 155.4496286700725 L 416.9206734006734 168.7410290851829 L 422.7955555555555 182.01305384008447 L 428.6704377104377 194.9886544159689 L 434.5453198653198 207.4792703526478 L 440.420202020202 219.37189646447396 L 446.29508417508407 230.60456880594398 L 452.1699663299663 241.14105846476562 L 458.0448484848485 250.95205329677793 L 463.9197306397306 260.00580428249634 L 469.79461279461276 268.26789474982985 L 475.66949494949495 275.70798748044785 L 481.5443771043771 282.31067925903574 L 487.4192592592592 288.0872871375109 L 493.29414141414145 293.08523160503194 L 499.1690235690236 297.391879352696 L 505.0439057239057 301.1306243298718 L 510.91878787878784 304.44871528897875 L 516.79367003367 307.49852607480733 L 522.6685521885521 310.4159438590191 L 528.5434343434342 313.3006530198984 L 534.4183164983165 316.2029287749657 L 540.2931986531986 319.1201313047476 L 546.1680808080807 322.00377491468936 L 552.0429629629629 324.7754459549417 L 557.9178451178451 327.34765619817074 L 563.7927272727272 329.6445637180527 L 569.6676094276094 331.61772907300394 L 575.5424915824915 333.25365334218606 L 581.4173737373737 334.57228155119503 L 587.2922558922558 335.61816449955967 L 593.167138047138 336.44774671977575 L 599.0420202020202 337.11676974481855 L 604.9169023569023 337.6710131776115 L 610.7917845117845 338.14197406653557 L 616.6666666666666 338.54729317475693 L 616.6666666666666 340.0 L 35.05333333333333 340.0" fill="#000000" fill-opacity="0.5" stroke="none"/><path d="M 35.05333333333333 337.63668106284143 L 40.9282154882155 336.8844455298125 L 46.80309764309764 336.0150471439716 L 52.6779797979798 335.0360109084863 L 58.55286195286193 333.9490811558911 L 64.4277441077441 332.74150630444194 L 70.30262626262628 331.37841683412677 L 76.1775084175084 329.7993538877465 L 82.05239057239058 327.92158803000916 L 87.92727272727271 325.6513354400055 L 93.80215488215488 322.90158655817874 L 99.67703703703701 319.61267392387174 L 105.55191919191918 315.7698255779689 L 111.42680134680137 311.41161938215635 L 117.30168350168347 306.624919789622 L 123.17656565656564 301.5253616294778 L 129.05144781144782 296.22689321886924 L 134.92632996632994 290.80796127859594 L 140.8012121212121 285.284155656462 L 146.67609427609426 279.59644392412696 L 152.5509764309764 273.62025294961165 L 158.42585858585858 267.1944352398574 L 164.3007407407407 260.16246091117137 L 170.17562289562287 252.41340383756983 L 176.05050505050502 243.90952839322364 L 181.9253872053872 234.69136619127102 L 187.80026936026934 224.85907896037475 L 193.6751515151515 214.53786088369762 L 199.55003367003363 203.8415551133617 L 205.4249158249158 192.84963359393012 L 211.29979797979797 181.6073753439196 L 217.1746801346801 170.1492961711171 L 223.04956228956226 158.5355193516973 L 228.9244444444444 146.88420038107282 L 234.79932659932655 135.3833132135535 L 240.67420875420868 124.27237555476589 L 246.5490909090909 113.79649372827944 L 252.42397306397302 104.14701911812456 L 258.2988552188552 95.41047373272616 L 264.17373737373737 87.54703623973478 L 270.0486195286195 80.4112566026733 L 275.9235016835016 73.81325780936618 L 281.79838383838376 67.60330474406763 L 287.67326599326594 61.75191518609142 L 293.5481481481481 56.39612122958631 L 299.42303030303026 51.83153165590511 L 305.2979124579124 48.447092963000536 L 311.1727946127945 46.61918845421511 L 317.04767676767676 46.59690193410339 L 322.9225589225589 48.41518725433423 L 328.797441077441 51.86521477114229 L 334.67232323232315 56.53368585958681 L 340.5472053872053 61.90137223353838 L 346.4220875420875 67.4727987866914 L 352.29696969696965 72.89974035668611 L 358.1718518518518 78.0636414516911 L 364.04673400673397 83.0949110865703 L 369.92161616161604 88.3258887481337 L 375.7964983164983 94.193201388842 L 381.6713804713804 101.11862764322582 L 387.54626262626266 109.40173739809032 L 393.42114478114473 119.15167556110937 L 399.2960269360269 130.27184332761118 L 405.170909090909 142.4946583644368 L 411.04579124579124 155.4496286700725 L 416.9206734006734 168.7410290851829 L 422.7955555555555 182.01305384008447 L 428.6704377104377 194.9886544159689 L 434.5453198653198 207.4792703526478 L 440.420202020202 219.37189646447396 L 446.29508417508407 230.60456880594398 L 452.1699663299663 241.14105846476562 L 458.0448484848485 250.95205329677793 L 463.9197306397306 260.00580428249634 L 469.79461279461276 268.26789474982985 L 475.66949494949495 275.70798748044785 L 481.5443771043771 282.31067925903574 L 487.4192592592592 288.0872871375109 L 493.29414141414145 293.08523160503194 L 499.1690235690236 297.391879352696 L 505.0439057239057 301.1306243298718 L 510.91878787878784 304.44871528897875 L 516.79367003367 307.49852607480733 L 522.6685521885521 310.4159438590191 L 528.5434343434342 313.3006530198984 L 534.4183164983165 316.2029287749657 L 540.2931986531986 319.1201313047476 L 546.1680808080807 322.00377491468936 L 552.0429629629629 324.7754459549417 L 557.9178451178451 327.34765619817074 L 563.7927272727272 329.6445637180527 L 569.6676094276094 331.61772907300394 L 575.5424915824915 333.25365334218606 L 581.4173737373737 334.57228155119503 L 587.2922558922558 335.61816449955967 L 593.167138047138 336.44774671977575 L 599.0420202020202 337.11676974481855 L 604.9169023569023 337.6710131776115 L 610.7917845117845 338.14197406653557 L 616.6666666666666 338.54729317475693" fill="" fill-opacity="0.0" stroke="#000000" stroke-width="1.8897637795275593"/></svg>