<svg xmlns="http://www.w3.org/2000/svg" width="624" height="384" viewBox="0 0 624 384"><rect x="0.0" y="0.0" width="624.0" height="384.0" fill="#ffffff" fill-opacity="1.0" stroke="none"/><rect x="39.306666666666665" y="32.266666666666666" width="577.3599999999999" height="307.73333333333335" fill="#ebebeb" fill-opacity="1.0" stroke="none"/><line x1="147.56166666666664" y1="32.266666666666666" x2="147.56166666666664" y2="340.0" stroke="#ffffff" stroke-width="1.3333333333333333"/><line x1="327.9866666666666" y1="32.266666666666666" x2="327.9866666666666" y2="340.0" stroke="#ffffff" stroke-width="1.3333333333333333"/><line x1="508.4116666666667" y1="32.266666666666666" x2="508.4116666666667" y2="340.0" stroke="#ffffff" stroke-width="1.3333333333333333"/><line x1="39.306666666666665" y1="321.70982077547103" x2="616.6666666666666" y2="321.70982077547103" stroke="#ffffff" stroke-width="0.6666666666666666"/><line x1="39.306666666666665" y1="241.59256785246708" x2="616.6666666666666" y2="241.59256785246708" stroke="#ffffff" stroke-width="0.6666666666666666"/><line x1="39.306666666666665" y1="161.47531492946317" x2="616.6666666666666" y2="161.47531492946317" stroke="#ffffff" stroke-width="0.6666666666666666"/><line x1="39.306666666666665" y1="81.35806200645928" x2="616.6666666666666" y2="81.35806200645928" stroke="#ffffff" stroke-width="0.6666666666666666"/><line x1="39.306666666666665" y1="281.65119431396903" x2="616.6666666666666" y2="281.65119431396903" stroke="#ffffff" stroke-width="1.3333333333333333"/><line x1="39.306666666666665" y1="201.5339413909651" x2="616.6666666666666" y2="201.5339413909651" stroke="#ffffff" stroke-width="1.3333333333333333"/><line x1="39.306666666666665" y1="121.41668846796122" x2="616.6666666666666" y2="121.41668846796122" stroke="#ffffff" stroke-width="1.3333333333333333"/><line x1="39.306666666666665" y1="41.29943554495726" x2="616.6666666666666" y2="41.29943554495726" stroke="#ffffff" stroke-width="1.3333333333333333"/><line x1="147.56166666666664" y1="340.0" x2="147.56166666666664" y2="343.66666666666663" stroke="#333333" stroke-width="1.3333333333333333"/><text x="147.56166666666664" y="355.9866666666667" fill="#4d4d4d" font-size="11.733333333333334" font-family="sans-serif" text-anchor="middle">A</text><line x1="327.9866666666666" y1="340.0" x2="327.9866666666666" y2="343.66666666666663" stroke="#333333" stroke-width="1.3333333333333333"/><text x="327.9866666666666" y="355.9866666666667" fill="#4d4d4d" font-size="11.733333333333334" font-family="sans-serif" text-anchor="middle">B</text><line x1="508.4116666666667" y1="340.0" x2="508.4116666666667" y2="343.66666666666663" stroke="#333333" stroke-width="1.3333333333333333"/><text x="508.4116666666667" y="355.9866666666667" fill="#4d4d4d" font-size="11.733333333333334" font-family="sans-serif" text-anchor="middle">C</text><line x1="39.306666666666665" y1="281.65119431396903" x2="35.64" y2="281.65119431396903" stroke="#333333" stroke-width="1.3333333333333333"/><text x="32.70666666666666" y="285.7578609806357" fill="#4d4d4d" font-size="11.733333333333334" font-family="sans-serif" text-anchor="end">2</text><line x1="39.306666666666665" y1="201.5339413909651" x2="35.64" y2="201.5339413909651" stroke="#333333" stroke-width="1.3333333333333333"/><text x="32.70666666666666" y="205.6406080576318" fill="#4d4d4d" font-size="11.733333333333334" font-family="sans-serif" text-anchor="end">4</text><line x1="39.306666666666665" y1="121.41668846796122" x2="35.64" y2="121.41668846796122" stroke="#333333" stroke-width="1.3333333333333333"/><text x="32.70666666666666" y="125.52335513462789" fill="#4d4d4d" font-size="11.733333333333334" font-family="sans-serif" text-anchor="end">6</text><line x1="39.306666666666665" y1="41.29943554495726" x2="35.64" y2="41.29943554495726" stroke="#333333" stroke-width="1.3333333333333333"/><text x="32.70666666666666" y="45.40610221162393" fill="#4d4d4d" font-size="11.733333333333334" font-family="sans-serif" text-anchor="end">8</text><text x="39.306666666666665" y="21.413333333333334" fill="#000000" font-size="17.599999999999998" font-family="sans-serif" text-anchor="start">distCols (mark 混在併置)</text><text x="327.9866666666666" y="373.73333333333335" fill="#000000" font-size="14.666666666666666" font-family="sans-serif" text-anchor="middle">column</text><text x="17.599999999999998" y="186.13333333333333" fill="#000000" font-size="14.666666666666666" font-family="sans-serif" text-anchor="middle" transform="rotate(-90.0 17.599999999999998 186.13333333333333)">value</text><rect x="102.45541666666664" y="206.9016468787801" width="90.21249999999999" height="56.58336475136555" fill="#ffffff" fill-opacity="1.0" stroke="#333333" stroke-width="1.3333333333333333"/><line x1="102.45541666666664" y1="238.59769955857556" x2="192.66791666666666" y2="238.59769955857556" stroke="#333333" stroke-width="2.6666666666666665"/><line x1="147.56166666666664" y1="263.48501163014566" x2="147.56166666666664" y2="326.0121212121212" stroke="#333333" stroke-width="1.3333333333333333"/><line x1="147.56166666666664" y1="206.9016468787801" x2="147.56166666666664" y2="154.46754822709784" stroke="#333333" stroke-width="1.3333333333333333"/><line x1="125.00854166666664" y1="326.0121212121212" x2="170.11479166666663" y2="326.0121212121212" stroke="#333333" stroke-width="1.3333333333333333"/><line x1="125.00854166666664" y1="154.46754822709784" x2="170.11479166666663" y2="154.46754822709784" stroke="#333333" stroke-width="1.3333333333333333"/><path d="M 339.16465889596157 278.5239211169276 L 341.40982938169554 270.7816085948482 L 343.49313709094304 263.0392960727688 L 345.5564491802253 255.2969835506894 L 347.8346554351547 247.55467102861 L 350.51782152070564 239.8123585065306 L 353.6445394751821 232.07004598445116 L 357.1093257337875 224.32773346237175 L 360.78719794741465 216.58542094029235 L 364.6778014397304 208.84310841821298 L 368.9323804901585 201.10079589613352 L 373.700809109798 193.35848337405415 L 378.8837983343917 185.61617085197477 L 383.98058387060564 177.8738583298953 L 388.18406821953505 170.13154580781597 L 390.7053559569115 162.38923328573654 L 391.13541666666663 154.64692076365714 L 389.6130244169151 146.90460824157768 L 386.69819562568915 139.1622957194983 L 383.0482419298317 131.4199831974189 L 379.11072187508086 123.67767067533953 L 375.0079513474376 115.93535815326007 L 370.6394517697359 108.1930456311807 L 365.89119322163424 100.45073310910125 L 360.8025199629513 92.70842058702188 L 355.60252835451143 84.96610806494246 L 350.6225129606123 77.22379554286309 L 346.15677933588927 69.48148302078364 L 342.3566601802457 61.73917049870427 L 339.20986070324756 53.996857976624824 L 336.6018930069927 46.25454545454541 L 319.3714403263405 46.25454545454541 L 316.7634726300857 53.996857976624824 L 313.61667315308756 61.73917049870427 L 309.816553997444 69.48148302078364 L 305.35082037272093 77.22379554286309 L 300.3708049788218 84.96610806494246 L 295.170813370382 92.70842058702188 L 290.08214011169906 100.45073310910125 L 285.33388156359734 108.1930456311807 L 280.96538198589565 115.93535815326007 L 276.86261145825233 123.67767067533953 L 272.92509140350154 131.4199831974189 L 269.2751377076441 139.1622957194983 L 266.36030891641815 146.90460824157768 L 264.8379166666666 154.64692076365714 L 265.26797737642175 162.38923328573654 L 267.7892651137982 170.13154580781597 L 271.9927494627276 177.8738583298953 L 277.0895349989416 185.61617085197477 L 282.27252422353524 193.35848337405415 L 287.04095284317475 201.10079589613352 L 291.29553189360286 208.84310841821298 L 295.18613538591853 216.58542094029235 L 298.8640075995458 224.32773346237175 L 302.32879385815113 232.07004598445116 L 305.45551181262766 239.8123585065306 L 308.13867789817857 247.55467102861 L 310.41688415310796 255.2969835506894 L 312.4801962423902 263.0392960727688 L 314.5635039516377 270.7816085948482 L 316.8086744373717 278.5239211169276 Z" fill="#00BA38" fill-opacity="0.5" stroke="#00BA38" stroke-width="1.3333333333333333"/><circle cx="508.4116666666667" cy="263.1311447548142" r="2.362204724409449" fill="#619CFF" fill-opacity="0.85" stroke="none"/><circle cx="508.4116666666667" cy="255.2915244661247" r="2.362204724409449" fill="#619CFF" fill-opacity="0.85" stroke="none"/><circle cx="508.4116666666667" cy="252.34292822440813" r="2.362204724409449" fill="#619CFF" fill-opacity="0.85" stroke="none"/><circle cx="503.6872572178478" cy="251.7607041370128" r="2.362204724409449" fill="#619CFF" fill-opacity="0.85" stroke="none"/><circle cx="508.4116666666667" cy="249.35291674438906" r="2.362204724409449" fill="#619CFF" fill-opacity="0.85" stroke="none"/><circle cx="503.6872572178478" cy="248.08316330695675" r="2.362204724409449" fill="#619CFF" fill-opacity="0.85" stroke="none"/><circle cx="508.4116666666667" cy="244.62263082112696" r="2.362204724409449" fill="#619CFF" fill-opacity="0.85" stroke="none"/><circle cx="508.4116666666667" cy="238.24426962125926" r="2.362204724409449" fill="#619CFF" fill-opacity="0.85" stroke="none"/><circle cx="503.6872572178478" cy="237.88818773977485" r="2.362204724409449" fill="#619CFF" fill-opacity="0.85" stroke="none"/><circle cx="513.1360761154856" cy="236.4526674256697" r="2.362204724409449" fill="#619CFF" fill-opacity="0.85" stroke="none"/><circle cx="508.4116666666667" cy="234.11898216560226" r="2.362204724409449" fill="#619CFF" fill-opacity="0.85" stroke="none"/><circle cx="503.6872572178478" cy="233.3005934652706" r="2.362204724409449" fill="#619CFF" fill-opacity="0.85" stroke="none"/><circle cx="508.4116666666667" cy="230.84491216258053" r="2.362204724409449" fill="#619CFF" fill-opacity="0.85" stroke="none"/><circle cx="503.6872572178478" cy="230.53506158974693" r="2.362204724409449" fill="#619CFF" fill-opacity="0.85" stroke="none"/><circle cx="513.1360761154856" cy="230.44981785491734" r="2.362204724409449" fill="#619CFF" fill-opacity="0.85" stroke="none"/><circle cx="498.96284776902894" cy="230.39759194681739" r="2.362204724409449" fill="#619CFF" fill-opacity="0.85" stroke="none"/><circle cx="517.8604855643044" cy="228.17913616306862" r="2.362204724409449" fill="#619CFF" fill-opacity="0.85" stroke="none"/><circle cx="508.4116666666667" cy="225.94368123044092" r="2.362204724409449" fill="#619CFF" fill-opacity="0.85" stroke="none"/><circle cx="503.6872572178478" cy="225.81468609130872" r="2.362204724409449" fill="#619CFF" fill-opacity="0.85" stroke="none"/><circle cx="513.1360761154856" cy="225.67487338795246" r="2.362204724409449" fill="#619CFF" fill-opacity="0.85" stroke="none"/><circle cx="498.96284776902894" cy="225.40733976084903" r="2.362204724409449" fill="#619CFF" fill-opacity="0.85" stroke="none"/><circle cx="517.8604855643044" cy="222.98309725228" r="2.362204724409449" fill="#619CFF" fill-opacity="0.85" stroke="none"/><circle cx="494.23843832021" cy="222.69979648943504" r="2.362204724409449" fill="#619CFF" fill-opacity="0.85" stroke="none"/><circle cx="522.5848950131234" cy="222.6417696525961" r="2.362204724409449" fill="#619CFF" fill-opacity="0.85" stroke="none"/><circle cx="489.5140288713911" cy="222.23583291898876" r="2.362204724409449" fill="#619CFF" fill-opacity="0.85" stroke="none"/><circle cx="527.3093044619422" cy="222.17063922126025" r="2.362204724409449" fill="#619CFF" fill-opacity="0.85" stroke="none"/><circle cx="508.4116666666667" cy="220.32885583735631" r="2.362204724409449" fill="#619CFF" fill-opacity="0.85" stroke="none"/><circle cx="503.6872572178478" cy="220.10409230783912" r="2.362204724409449" fill="#619CFF" fill-opacity="0.85" stroke="none"/><circle cx="513.1360761154856" cy="219.2130827320555" r="2.362204724409449" fill="#619CFF" fill-opacity="0.85" stroke="none"/><circle cx="508.4116666666667" cy="216.99813454005917" r="2.362204724409449" fill="#619CFF" fill-opacity="0.85" stroke="none"/><circle cx="503.6872572178478" cy="216.9256889501799" r="2.362204724409449" fill="#619CFF" fill-opacity="0.85" stroke="none"/><circle cx="513.1360761154856" cy="216.82490935628223" r="2.362204724409449" fill="#619CFF" fill-opacity="0.85" stroke="none"/><circle cx="498.96284776902894" cy="215.63010105174703" r="2.362204724409449" fill="#619CFF" fill-opacity="0.85" stroke="none"/><circle cx="517.8604855643044" cy="214.59426380849823" r="2.362204724409449" fill="#619CFF" fill-opacity="0.85" stroke="none"/><circle cx="494.23843832021" cy="214.107987993345" r="2.362204724409449" fill="#619CFF" fill-opacity="0.85" stroke="none"/><circle cx="522.5848950131234" cy="212.8089182005678" r="2.362204724409449" fill="#619CFF" fill-opacity="0.85" stroke="none"/><circle cx="508.4116666666667" cy="210.84420531046686" r="2.362204724409449" fill="#619CFF" fill-opacity="0.85" stroke="none"/><circle cx="508.4116666666667" cy="203.91210779382715" r="2.362204724409449" fill="#619CFF" fill-opacity="0.85" stroke="none"/><circle cx="508.4116666666667" cy="202.91299402713304" r="2.362204724409449" fill="#619CFF" fill-opacity="0.85" stroke="none"/><circle cx="503.6872572178478" cy="201.67220261330385" r="2.362204724409449" fill="#619CFF" fill-opacity="0.85" stroke="none"/><circle cx="513.1360761154856" cy="201.48747334755322" r="2.362204724409449" fill="#619CFF" fill-opacity="0.85" stroke="none"/><circle cx="508.4116666666667" cy="198.4065862218778" r="2.362204724409449" fill="#619CFF" fill-opacity="0.85" stroke="none"/><circle cx="503.6872572178478" cy="197.17596889245866" r="2.362204724409449" fill="#619CFF" fill-opacity="0.85" stroke="none"/><circle cx="513.1360761154856" cy="196.80933644908865" r="2.362204724409449" fill="#619CFF" fill-opacity="0.85" stroke="none"/><circle cx="498.96284776902894" cy="195.92391470158614" r="2.362204724409449" fill="#619CFF" fill-opacity="0.85" stroke="none"/><circle cx="517.8604855643044" cy="195.06772260679116" r="2.362204724409449" fill="#619CFF" fill-opacity="0.85" stroke="none"/><circle cx="494.23843832021" cy="193.81880412647982" r="2.362204724409449" fill="#619CFF" fill-opacity="0.85" stroke="none"/><circle cx="522.5848950131234" cy="193.7314521595713" r="2.362204724409449" fill="#619CFF" fill-opacity="0.85" stroke="none"/><circle cx="508.4116666666667" cy="193.16439121436477" r="2.362204724409449" fill="#619CFF" fill-opacity="0.85" stroke="none"/><circle cx="503.6872572178478" cy="192.8009024205926" r="2.362204724409449" fill="#619CFF" fill-opacity="0.85" stroke="none"/><circle cx="513.1360761154856" cy="191.7735877332052" r="2.362204724409449" fill="#619CFF" fill-opacity="0.85" stroke="none"/><circle cx="498.96284776902894" cy="189.4750172501574" r="2.362204724409449" fill="#619CFF" fill-opacity="0.85" stroke="none"/><circle cx="517.8604855643044" cy="189.16143115165022" r="2.362204724409449" fill="#619CFF" fill-opacity="0.85" stroke="none"/><circle cx="494.23843832021" cy="189.0708954221164" r="2.362204724409449" fill="#619CFF" fill-opacity="0.85" stroke="none"/><circle cx="508.4116666666667" cy="188.46271423649614" r="2.362204724409449" fill="#619CFF" fill-opacity="0.85" stroke="none"/><circle cx="503.6872572178478" cy="187.9280857185261" r="2.362204724409449" fill="#619CFF" fill-opacity="0.85" stroke="none"/><circle cx="513.1360761154856" cy="187.5228954632874" r="2.362204724409449" fill="#619CFF" fill-opacity="0.85" stroke="none"/><circle cx="498.96284776902894" cy="186.9451011494299" r="2.362204724409449" fill="#619CFF" fill-opacity="0.85" stroke="none"/><circle cx="517.8604855643044" cy="186.83294136431488" r="2.362204724409449" fill="#619CFF" fill-opacity="0.85" stroke="none"/><circle cx="494.23843832021" cy="186.7717092458829" r="2.362204724409449" fill="#619CFF" fill-opacity="0.85" stroke="none"/><circle cx="522.5848950131234" cy="184.9013693560119" r="2.362204724409449" fill="#619CFF" fill-opacity="0.85" stroke="none"/><circle cx="508.4116666666667" cy="179.40011815010104" r="2.362204724409449" fill="#619CFF" fill-opacity="0.85" stroke="none"/><circle cx="503.6872572178478" cy="176.62155685295357" r="2.362204724409449" fill="#619CFF" fill-opacity="0.85" stroke="none"/><circle cx="513.1360761154856" cy="175.94364021386554" r="2.362204724409449" fill="#619CFF" fill-opacity="0.85" stroke="none"/><circle cx="498.96284776902894" cy="175.6711327802906" r="2.362204724409449" fill="#619CFF" fill-opacity="0.85" stroke="none"/><circle cx="517.8604855643044" cy="175.28850317803773" r="2.362204724409449" fill="#619CFF" fill-opacity="0.85" stroke="none"/><circle cx="508.4116666666667" cy="174.57627987229387" r="2.362204724409449" fill="#619CFF" fill-opacity="0.85" stroke="none"/><circle cx="503.6872572178478" cy="173.60127278151532" r="2.362204724409449" fill="#619CFF" fill-opacity="0.85" stroke="none"/><circle cx="513.1360761154856" cy="172.93950685899304" r="2.362204724409449" fill="#619CFF" fill-opacity="0.85" stroke="none"/><circle cx="498.96284776902894" cy="172.10886989646133" r="2.362204724409449" fill="#619CFF" fill-opacity="0.85" stroke="none"/><circle cx="508.4116666666667" cy="168.01514951304412" r="2.362204724409449" fill="#619CFF" fill-opacity="0.85" stroke="none"/><circle cx="503.6872572178478" cy="167.89404118007397" r="2.362204724409449" fill="#619CFF" fill-opacity="0.85" stroke="none"/><circle cx="513.1360761154856" cy="166.96635262812543" r="2.362204724409449" fill="#619CFF" fill-opacity="0.85" stroke="none"/><circle cx="508.4116666666667" cy="164.68189023107792" r="2.362204724409449" fill="#619CFF" fill-opacity="0.85" stroke="none"/><circle cx="508.4116666666667" cy="159.7938867786346" r="2.362204724409449" fill="#619CFF" fill-opacity="0.85" stroke="none"/><circle cx="503.6872572178478" cy="158.72556341519083" r="2.362204724409449" fill="#619CFF" fill-opacity="0.85" stroke="none"/><circle cx="513.1360761154856" cy="158.71946122090256" r="2.362204724409449" fill="#619CFF" fill-opacity="0.85" stroke="none"/><circle cx="508.4116666666667" cy="148.99501647886623" r="2.362204724409449" fill="#619CFF" fill-opacity="0.85" stroke="none"/><circle cx="503.6872572178478" cy="148.27415675476146" r="2.362204724409449" fill="#619CFF" fill-opacity="0.85" stroke="none"/><circle cx="508.4116666666667" cy="137.06569358607888" r="2.362204724409449" fill="#619CFF" fill-opacity="0.85" stroke="none"/></svg>