<svg xmlns="http://www.w3.org/2000/svg" width="1093" height="880" viewBox="0 0 1093 880"><rect x="0.0" y="0.0" width="1093.3333333333333" height="880.0" fill="#ffffff" fill-opacity="1.0" stroke="none"/><text x="42.093333333333334" y="21.413333333333334" fill="#333333" font-size="17.599999999999998" font-family="sans-serif" text-anchor="start">階層ベイズ回帰の DAG (群レベル予測子つき 変量切片+傾き)</text><rect x="346.82789375284995" y="218.6165690834473" width="400.6051627906976" height="224.3948344733242" fill="#ffffff" fill-opacity="0.0" stroke="#444444" stroke-width="2.819365253077975"/><text x="733.3362302781577" y="431.7339425444596" fill="#333333" font-size="24.810414227086184" font-family="sans-serif" text-anchor="end">group (3)</text><rect x="448.325042863657" y="461.08198084815314" width="197.6108645690834" height="387.9180191518467" fill="#ffffff" fill-opacity="0.0" stroke="#444444" stroke-width="2.819365253077975"/><text x="631.8390811673505" y="837.7225389876878" fill="#333333" font-size="24.810414227086184" font-family="sans-serif" text-anchor="end">obs (15)</text><line x1="477.6660086630628" y1="375.14379479990595" x2="519.0153815377034" y2="457.8425405491871" stroke="#444444" stroke-width="4.229047879616962"/><path d="M 531.6239662562699 483.0597099863201 L 510.18937223470687 462.25554520068533 L 527.8413908406999 453.4295358976888 Z" fill="#444444" fill-opacity="1.0" stroke="none"/><line x1="616.5949416333347" y1="375.14379479990595" x2="575.245568758694" y2="457.8425405491871" stroke="#444444" stroke-width="4.229047879616962"/><path d="M 562.6369840401276 483.0597099863201 L 566.4195594556975 453.4295358976888 L 584.0715780616907 462.25554520068533 Z" fill="#444444" fill-opacity="1.0" stroke="none"/><line x1="547.1304751481987" y1="545.0857455540355" x2="547.1304751481987" y2="618.3892421340629" stroke="#444444" stroke-width="4.229047879616962"/><path d="M 547.1304751481987 646.5828946648426 L 537.2626967624258 618.3892421340629 L 556.9982535339716 618.3892421340629 Z" fill="#444444" fill-opacity="1.0" stroke="none"/><line x1="254.8674472652674" y1="154.99725600773462" x2="366.47437937125494" y2="246.31201863990628" stroke="#444444" stroke-width="4.229047879616962"/><path d="M 388.2950625386541 264.16530486777833 L 360.2257291914998 253.949257748496 L 372.72302955101014 238.67477953131657 Z" fill="#444444" fill-opacity="1.0" stroke="none"/><line x1="659.6872291035684" y1="178.36317141381397" x2="656.8255663361595" y2="212.7031246227204" stroke="#444444" stroke-width="4.229047879616962"/><path d="M 654.4842109329112 240.79938946169898 L 646.991873642517 211.88365023158354 L 666.659259029802 213.52259901385725 Z" fill="#444444" fill-opacity="1.0" stroke="none"/><line x1="711.6152473958341" y1="570.8583395494495" x2="623.3795904600674" y2="649.2900346034644" stroke="#444444" stroke-width="4.229047879616962"/><path d="M 602.3073918308334 668.02087782945 L 616.8237953309724 641.9147650832324 L 629.9353855891624 656.6653041236962 Z" fill="#444444" fill-opacity="1.0" stroke="none"/><line x1="436.42619702818786" y1="178.49577181602922" x2="438.7953099354734" y2="212.61099768094186" stroke="#444444" stroke-width="4.229047879616962"/><path d="M 440.74849848077656 240.7369127333066 L 428.9512396671458 213.29461367179795 L 448.6393802038011 211.92738169008572 Z" fill="#444444" fill-opacity="1.0" stroke="none"/><line x1="831.7794619929219" y1="162.91065070764273" x2="728.1709192738354" y2="246.7287976264544" stroke="#444444" stroke-width="4.229047879616962"/><path d="M 706.2518132667361 264.46110810410767 L 721.9646106066566 239.05711052396964 L 734.3772279410139 254.4004847289391 Z" fill="#444444" fill-opacity="1.0" stroke="none"/><path d="M 120.70148062015505 108.08413132694938 C 120.70148062015505 69.1568204921748 155.09841495662556 37.599999999999994 197.52918376652985 37.599999999999994 C 239.95995257643415 37.599999999999994 274.35688691290466 69.1568204921748 274.35688691290466 108.08413132694938 C 274.35688691290466 147.01144216172395 239.95995257643415 178.56826265389876 197.52918376652985 178.56826265389876 C 155.09841495662556 178.56826265389876 120.70148062015505 147.01144216172395 120.70148062015505 108.08413132694938 Z" fill="#ffffff" fill-opacity="1.0" stroke="#444444" stroke-width="3.3832383036935703"/><text x="197.52918376652985" y="82.68728912722298" fill="#333333" font-size="24.810414227086184" font-family="sans-serif" text-anchor="middle">mu_a</text><text x="197.52918376652985" y="116.51967216415866" fill="#333333" font-size="25.374287277701775" font-family="sans-serif" text-anchor="middle">~</text><text x="197.52918376652985" y="150.35205520109437" fill="#333333" font-size="25.374287277701775" font-family="sans-serif" text-anchor="middle">Normal</text><path d="M 323.69577884176925 108.08413132694938 C 323.69577884176925 69.1568204921748 371.9777141947967 37.599999999999994 431.5364997720018 37.599999999999994 C 491.09528534920685 37.599999999999994 539.3772207022344 69.1568204921748 539.3772207022344 108.08413132694938 C 539.3772207022344 147.01144216172395 491.09528534920685 178.56826265389876 431.5364997720018 178.56826265389876 C 371.9777141947967 178.56826265389876 323.69577884176925 147.01144216172395 323.69577884176925 108.08413132694938 Z" fill="#ffffff" fill-opacity="1.0" stroke="#444444" stroke-width="3.3832383036935703"/><text x="431.5364997720018" y="82.68728912722298" fill="#333333" font-size="24.810414227086184" font-family="sans-serif" text-anchor="middle">tau_a</text><text x="431.5364997720018" y="116.51967216415866" fill="#333333" font-size="25.374287277701775" font-family="sans-serif" text-anchor="middle">~</text><text x="431.5364997720018" y="150.35205520109437" fill="#333333" font-size="25.374287277701775" font-family="sans-serif" text-anchor="middle">HalfNormal</text><path d="M 588.7161126310989 108.08413132694938 C 588.7161126310989 69.1568204921748 623.1130469675695 37.599999999999994 665.5438157774738 37.599999999999994 C 707.9745845873779 37.599999999999994 742.3715189238485 69.1568204921748 742.3715189238485 108.08413132694938 C 742.3715189238485 147.01144216172395 707.9745845873779 178.56826265389876 665.5438157774738 178.56826265389876 C 623.1130469675695 178.56826265389876 588.7161126310989 147.01144216172395 588.7161126310989 108.08413132694938 Z" fill="#ffffff" fill-opacity="1.0" stroke="#444444" stroke-width="3.3832383036935703"/><text x="665.5438157774738" y="82.68728912722298" fill="#333333" font-size="24.810414227086184" font-family="sans-serif" text-anchor="middle">mu_b</text><text x="665.5438157774738" y="116.51967216415866" fill="#333333" font-size="25.374287277701775" font-family="sans-serif" text-anchor="middle">~</text><text x="665.5438157774738" y="150.35205520109437" fill="#333333" font-size="25.374287277701775" font-family="sans-serif" text-anchor="middle">Normal</text><path d="M 791.710410852713 108.08413132694938 C 791.710410852713 69.1568204921748 839.9923462057405 37.599999999999994 899.5511317829456 37.599999999999994 C 959.1099173601507 37.599999999999994 1007.3918527131782 69.1568204921748 1007.3918527131782 108.08413132694938 C 1007.3918527131782 147.01144216172395 959.1099173601507 178.56826265389876 899.5511317829456 178.56826265389876 C 839.9923462057405 178.56826265389876 791.710410852713 147.01144216172395 791.710410852713 108.08413132694938 Z" fill="#ffffff" fill-opacity="1.0" stroke="#444444" stroke-width="3.3832383036935703"/><text x="899.5511317829456" y="82.68728912722298" fill="#333333" font-size="24.810414227086184" font-family="sans-serif" text-anchor="middle">tau_b</text><text x="899.5511317829456" y="116.51967216415866" fill="#333333" font-size="25.374287277701775" font-family="sans-serif" text-anchor="middle">~</text><text x="899.5511317829456" y="150.35205520109437" fill="#333333" font-size="25.374287277701775" font-family="sans-serif" text-anchor="middle">HalfNormal</text><path d="M 667.6583397172822 514.0727277701778 C 667.6583397172822 475.1454169354032 715.9402750703096 443.5885964432284 775.4990606475146 443.5885964432284 C 835.0578462247199 443.5885964432284 883.3397815777472 475.1454169354032 883.3397815777472 514.0727277701778 C 883.3397815777472 553.0000386049524 835.0578462247199 584.5568590971271 775.4990606475146 584.5568590971271 C 715.9402750703096 584.5568590971271 667.6583397172822 553.0000386049524 667.6583397172822 514.0727277701778 Z" fill="#ffffff" fill-opacity="1.0" stroke="#444444" stroke-width="3.3832383036935703"/><text x="775.4990606475146" y="488.6758855704514" fill="#333333" font-size="24.810414227086184" font-family="sans-serif" text-anchor="middle">s</text><text x="775.4990606475146" y="522.5082686073871" fill="#333333" font-size="25.374287277701775" font-family="sans-serif" text-anchor="middle">~</text><text x="775.4990606475146" y="556.3406516443227" fill="#333333" font-size="25.374287277701775" font-family="sans-serif" text-anchor="middle">HalfNormal</text><path d="M 368.8056228910168 311.0784295485636 C 368.8056228910168 272.151118713789 403.20255722748743 240.5942982216142 445.6333260373917 240.5942982216142 C 488.0640948472959 240.5942982216142 522.4610291837664 272.151118713789 522.4610291837664 311.0784295485636 C 522.4610291837664 350.0057403833381 488.0640948472959 381.56256087551293 445.6333260373917 381.56256087551293 C 403.20255722748743 381.56256087551293 368.8056228910168 350.0057403833381 368.8056228910168 311.0784295485636 Z" fill="#ffffff" fill-opacity="1.0" stroke="#444444" stroke-width="3.3832383036935703"/><text x="445.6333260373917" y="285.6815873488372" fill="#333333" font-size="24.810414227086184" font-family="sans-serif" text-anchor="middle">a</text><text x="445.6333260373917" y="319.5139703857729" fill="#333333" font-size="25.374287277701775" font-family="sans-serif" text-anchor="middle">~</text><text x="445.6333260373917" y="353.3463534227086" fill="#333333" font-size="25.374287277701775" font-family="sans-serif" text-anchor="middle">Normal</text><path d="M 571.799921112631 311.0784295485636 C 571.799921112631 272.151118713789 606.1968554491016 240.5942982216142 648.6276242590059 240.5942982216142 C 691.0583930689102 240.5942982216142 725.4553274053807 272.151118713789 725.4553274053807 311.0784295485636 C 725.4553274053807 350.0057403833381 691.0583930689102 381.56256087551293 648.6276242590059 381.56256087551293 C 606.1968554491016 381.56256087551293 571.799921112631 350.0057403833381 571.799921112631 311.0784295485636 Z" fill="#ffffff" fill-opacity="1.0" stroke="#444444" stroke-width="3.3832383036935703"/><text x="648.6276242590059" y="285.6815873488372" fill="#333333" font-size="24.810414227086184" font-family="sans-serif" text-anchor="middle">b</text><text x="648.6276242590059" y="319.5139703857729" fill="#333333" font-size="25.374287277701775" font-family="sans-serif" text-anchor="middle">~</text><text x="648.6276242590059" y="353.3463534227086" fill="#333333" font-size="25.374287277701775" font-family="sans-serif" text-anchor="middle">Normal</text><rect x="501.31578978568166" y="483.0597099863201" width="91.62937072503419" height="62.026035567715454" fill="#ffffff" fill-opacity="1.0" stroke="#444444" stroke-width="3.3832383036935703"/><text x="547.1304751481987" y="522.5082686073871" fill="#333333" font-size="24.810414227086184" font-family="sans-serif" text-anchor="middle">mu</text><path d="M 470.302772001824 717.067025991792 C 470.302772001824 678.1397151570175 504.69970633829445 646.5828946648426 547.1304751481987 646.5828946648426 C 589.561243958103 646.5828946648426 623.9581782945736 678.1397151570175 623.9581782945736 717.067025991792 C 623.9581782945736 755.9943368265665 589.561243958103 787.5511573187414 547.1304751481987 787.5511573187414 C 504.69970633829445 787.5511573187414 470.302772001824 755.9943368265665 470.302772001824 717.067025991792 Z" fill="#cfcfcf" fill-opacity="1.0" stroke="#444444" stroke-width="3.3832383036935703"/><text x="547.1304751481987" y="691.6701837920656" fill="#333333" font-size="24.810414227086184" font-family="sans-serif" text-anchor="middle">y</text><text x="547.1304751481987" y="725.5025668290014" fill="#333333" font-size="25.374287277701775" font-family="sans-serif" text-anchor="middle">~</text><text x="547.1304751481987" y="759.3349498659369" fill="#333333" font-size="25.374287277701775" font-family="sans-serif" text-anchor="middle">Normal</text></svg>