<svg xmlns="http://www.w3.org/2000/svg" width="624" height="384" viewBox="0 0 624 384"><rect x="0.0" y="0.0" width="624.0" height="384.0" fill="#ffffff" fill-opacity="1.0" stroke="none"/><rect x="46.346666666666664" y="32.266666666666666" width="570.3199999999999" height="307.73333333333335" fill="#ebebeb" fill-opacity="1.0" stroke="none"/><line x1="68.31356811620381" y1="32.266666666666666" x2="68.31356811620381" y2="340.0" stroke="#ffffff" stroke-width="0.6666666666666666"/><line x1="152.34885868176877" y1="32.266666666666666" x2="152.34885868176877" y2="340.0" stroke="#ffffff" stroke-width="0.6666666666666666"/><line x1="236.3841492473337" y1="32.266666666666666" x2="236.3841492473337" y2="340.0" stroke="#ffffff" stroke-width="0.6666666666666666"/><line x1="320.4194398128987" y1="32.266666666666666" x2="320.4194398128987" y2="340.0" stroke="#ffffff" stroke-width="0.6666666666666666"/><line x1="404.4547303784637" y1="32.266666666666666" x2="404.4547303784637" y2="340.0" stroke="#ffffff" stroke-width="0.6666666666666666"/><line x1="488.49002094402863" y1="32.266666666666666" x2="488.49002094402863" y2="340.0" stroke="#ffffff" stroke-width="0.6666666666666666"/><line x1="572.5253115095936" y1="32.266666666666666" x2="572.5253115095936" y2="340.0" stroke="#ffffff" stroke-width="0.6666666666666666"/><line x1="110.33121339898629" y1="32.266666666666666" x2="110.33121339898629" y2="340.0" stroke="#ffffff" stroke-width="1.3333333333333333"/><line x1="194.36650396455127" y1="32.266666666666666" x2="194.36650396455127" y2="340.0" stroke="#ffffff" stroke-width="1.3333333333333333"/><line x1="278.4017945301162" y1="32.266666666666666" x2="278.4017945301162" y2="340.0" stroke="#ffffff" stroke-width="1.3333333333333333"/><line x1="362.4370850956812" y1="32.266666666666666" x2="362.4370850956812" y2="340.0" stroke="#ffffff" stroke-width="1.3333333333333333"/><line x1="446.4723756612462" y1="32.266666666666666" x2="446.4723756612462" y2="340.0" stroke="#ffffff" stroke-width="1.3333333333333333"/><line x1="530.5076662268111" y1="32.266666666666666" x2="530.5076662268111" y2="340.0" stroke="#ffffff" stroke-width="1.3333333333333333"/><line x1="614.5429567923761" y1="32.266666666666666" x2="614.5429567923761" y2="340.0" stroke="#ffffff" stroke-width="1.3333333333333333"/><line x1="46.346666666666664" y1="308.14354727398205" x2="616.6666666666666" y2="308.14354727398205" stroke="#ffffff" stroke-width="0.6666666666666666"/><line x1="46.346666666666664" y1="244.43064182194612" x2="616.6666666666666" y2="244.43064182194612" stroke="#ffffff" stroke-width="0.6666666666666666"/><line x1="46.346666666666664" y1="180.71773636991026" x2="616.6666666666666" y2="180.71773636991026" stroke="#ffffff" stroke-width="0.6666666666666666"/><line x1="46.346666666666664" y1="117.00483091787437" x2="616.6666666666666" y2="117.00483091787437" stroke="#ffffff" stroke-width="0.6666666666666666"/><line x1="46.346666666666664" y1="53.291925465838474" x2="616.6666666666666" y2="53.291925465838474" stroke="#ffffff" stroke-width="0.6666666666666666"/><line x1="46.346666666666664" y1="340.0" x2="616.6666666666666" y2="340.0" stroke="#ffffff" stroke-width="1.3333333333333333"/><line x1="46.346666666666664" y1="276.2870945479641" x2="616.6666666666666" y2="276.2870945479641" stroke="#ffffff" stroke-width="1.3333333333333333"/><line x1="46.346666666666664" y1="212.5741890959282" x2="616.6666666666666" y2="212.5741890959282" stroke="#ffffff" stroke-width="1.3333333333333333"/><line x1="46.346666666666664" y1="148.8612836438923" x2="616.6666666666666" y2="148.8612836438923" stroke="#ffffff" stroke-width="1.3333333333333333"/><line x1="46.346666666666664" y1="85.14837819185641" x2="616.6666666666666" y2="85.14837819185641" stroke="#ffffff" stroke-width="1.3333333333333333"/><line x1="110.33121339898629" y1="340.0" x2="110.33121339898629" y2="343.66666666666663" stroke="#333333" stroke-width="1.3333333333333333"/><text x="110.33121339898629" y="355.9866666666667" fill="#4d4d4d" font-size="11.733333333333334" font-family="sans-serif" text-anchor="middle">-3</text><line x1="194.36650396455127" y1="340.0" x2="194.36650396455127" y2="343.66666666666663" stroke="#333333" stroke-width="1.3333333333333333"/><text x="194.36650396455127" y="355.9866666666667" fill="#4d4d4d" font-size="11.733333333333334" font-family="sans-serif" text-anchor="middle">-2</text><line x1="278.4017945301162" y1="340.0" x2="278.4017945301162" y2="343.66666666666663" stroke="#333333" stroke-width="1.3333333333333333"/><text x="278.4017945301162" y="355.9866666666667" fill="#4d4d4d" font-size="11.733333333333334" font-family="sans-serif" text-anchor="middle">-1</text><line x1="362.4370850956812" y1="340.0" x2="362.4370850956812" y2="343.66666666666663" stroke="#333333" stroke-width="1.3333333333333333"/><text x="362.4370850956812" y="355.9866666666667" fill="#4d4d4d" font-size="11.733333333333334" font-family="sans-serif" text-anchor="middle">0</text><line x1="446.4723756612462" y1="340.0" x2="446.4723756612462" y2="343.66666666666663" stroke="#333333" stroke-width="1.3333333333333333"/><text x="446.4723756612462" y="355.9866666666667" fill="#4d4d4d" font-size="11.733333333333334" font-family="sans-serif" text-anchor="middle">1</text><line x1="530.5076662268111" y1="340.0" x2="530.5076662268111" y2="343.66666666666663" stroke="#333333" stroke-width="1.3333333333333333"/><text x="530.5076662268111" y="355.9866666666667" fill="#4d4d4d" font-size="11.733333333333334" font-family="sans-serif" text-anchor="middle">2</text><line x1="614.5429567923761" y1="340.0" x2="614.5429567923761" y2="343.66666666666663" stroke="#333333" stroke-width="1.3333333333333333"/><text x="614.5429567923761" y="355.9866666666667" fill="#4d4d4d" font-size="11.733333333333334" font-family="sans-serif" text-anchor="middle">3</text><line x1="46.346666666666664" y1="340.0" x2="42.67999999999999" y2="340.0" stroke="#333333" stroke-width="1.3333333333333333"/><text x="39.74666666666666" y="344.1066666666666" fill="#4d4d4d" font-size="11.733333333333334" font-family="sans-serif" text-anchor="end">0</text><line x1="46.346666666666664" y1="276.2870945479641" x2="42.67999999999999" y2="276.2870945479641" stroke="#333333" stroke-width="1.3333333333333333"/><text x="39.74666666666666" y="280.3937612146308" fill="#4d4d4d" font-size="11.733333333333334" font-family="sans-serif" text-anchor="end">10</text><line x1="46.346666666666664" y1="212.5741890959282" x2="42.67999999999999" y2="212.5741890959282" stroke="#333333" stroke-width="1.3333333333333333"/><text x="39.74666666666666" y="216.6808557625949" fill="#4d4d4d" font-size="11.733333333333334" font-family="sans-serif" text-anchor="end">20</text><line x1="46.346666666666664" y1="148.8612836438923" x2="42.67999999999999" y2="148.8612836438923" stroke="#333333" stroke-width="1.3333333333333333"/><text x="39.74666666666666" y="152.96795031055896" fill="#4d4d4d" font-size="11.733333333333334" font-family="sans-serif" text-anchor="end">30</text><line x1="46.346666666666664" y1="85.14837819185641" x2="42.67999999999999" y2="85.14837819185641" stroke="#333333" stroke-width="1.3333333333333333"/><text x="39.74666666666666" y="89.25504485852306" fill="#4d4d4d" font-size="11.733333333333334" font-family="sans-serif" text-anchor="end">40</text><text x="46.346666666666664" y="21.413333333333334" fill="#000000" font-size="17.599999999999998" font-family="sans-serif" text-anchor="start">Histogram</text><text x="331.50666666666666" y="373.73333333333335" fill="#000000" font-size="14.666666666666666" font-family="sans-serif" text-anchor="middle">value</text><text x="17.599999999999998" y="186.13333333333333" fill="#000000" font-size="14.666666666666666" font-family="sans-serif" text-anchor="middle" transform="rotate(-90.0 17.599999999999998 186.13333333333333)">count</text><rect x="72.27030303030301" y="333.6287094547964" width="17.28242424242425" height="6.371290545203578" fill="#595959" fill-opacity="1.0" stroke="none"/><rect x="124.11757575757576" y="320.8861283643892" width="17.282424242424213" height="19.11387163561077" fill="#595959" fill-opacity="1.0" stroke="none"/><rect x="141.39999999999998" y="327.2574189095928" width="17.282424242424213" height="12.742581090407194" fill="#595959" fill-opacity="1.0" stroke="none"/><rect x="158.6824242424242" y="308.14354727398205" width="17.282424242424288" height="31.856452726017928" fill="#595959" fill-opacity="1.0" stroke="none"/><rect x="175.96484848484846" y="314.51483781918563" width="17.282424242424213" height="25.48516218081435" fill="#595959" fill-opacity="1.0" stroke="none"/><rect x="193.24727272727267" y="301.7722567287784" width="17.28242424242425" height="38.22774327122154" fill="#595959" fill-opacity="1.0" stroke="none"/><rect x="210.52969696969694" y="295.40096618357484" width="17.282424242424213" height="44.59903381642512" fill="#595959" fill-opacity="1.0" stroke="none"/><rect x="227.81212121212116" y="257.17322291235337" width="17.282424242424288" height="82.82677708764663" fill="#595959" fill-opacity="1.0" stroke="none"/><rect x="245.09454545454543" y="250.80193236714973" width="17.28242424242425" height="89.19806763285024" fill="#595959" fill-opacity="1.0" stroke="none"/><rect x="262.3769696969697" y="129.74741200828151" width="17.282424242424213" height="210.25258799171846" fill="#595959" fill-opacity="1.0" stroke="none"/><rect x="279.6593939393939" y="136.11870255348515" width="17.28242424242425" height="203.88129744651485" fill="#595959" fill-opacity="1.0" stroke="none"/><rect x="296.9418181818181" y="72.40579710144925" width="17.28242424242425" height="267.59420289855075" fill="#595959" fill-opacity="1.0" stroke="none"/><rect x="314.2242424242424" y="66.03450655624567" width="17.28242424242425" height="273.9654934437543" fill="#595959" fill-opacity="1.0" stroke="none"/><rect x="331.50666666666666" y="66.03450655624567" width="17.282424242424213" height="273.9654934437543" fill="#595959" fill-opacity="1.0" stroke="none"/><rect x="348.7890909090909" y="46.920634920634896" width="17.282424242424288" height="293.07936507936506" fill="#595959" fill-opacity="1.0" stroke="none"/><rect x="366.07151515151514" y="46.920634920634896" width="17.282424242424288" height="293.07936507936506" fill="#595959" fill-opacity="1.0" stroke="none"/><rect x="383.3539393939394" y="110.63354037267075" width="17.282424242424213" height="229.36645962732922" fill="#595959" fill-opacity="1.0" stroke="none"/><rect x="400.6363636363636" y="174.34644582470668" width="17.282424242424213" height="165.6535541752933" fill="#595959" fill-opacity="1.0" stroke="none"/><rect x="417.91878787878784" y="187.08902691511383" width="17.282424242424288" height="152.91097308488614" fill="#595959" fill-opacity="1.0" stroke="none"/><rect x="435.20121212121217" y="212.5741890959282" width="17.282424242424135" height="127.4258109040718" fill="#595959" fill-opacity="1.0" stroke="none"/><rect x="452.48363636363626" y="269.9158040027605" width="17.282424242424288" height="70.08419599723948" fill="#595959" fill-opacity="1.0" stroke="none"/><rect x="469.7660606060606" y="263.5445134575569" width="17.282424242424213" height="76.45548654244308" fill="#595959" fill-opacity="1.0" stroke="none"/><rect x="487.0484848484848" y="289.02967563837126" width="17.282424242424288" height="50.9703243616287" fill="#595959" fill-opacity="1.0" stroke="none"/><rect x="504.3309090909091" y="282.6583850931677" width="17.282424242424288" height="57.34161490683232" fill="#595959" fill-opacity="1.0" stroke="none"/><rect x="521.6133333333333" y="295.40096618357484" width="17.282424242424288" height="44.59903381642512" fill="#595959" fill-opacity="1.0" stroke="none"/><rect x="538.8957575757577" y="320.8861283643892" width="17.282424242424135" height="19.11387163561077" fill="#595959" fill-opacity="1.0" stroke="none"/><rect x="556.1781818181818" y="327.2574189095928" width="17.282424242424288" height="12.742581090407194" fill="#595959" fill-opacity="1.0" stroke="none"/><rect x="573.4606060606061" y="327.2574189095928" width="17.282424242424213" height="12.742581090407194" fill="#595959" fill-opacity="1.0" stroke="none"/></svg>