<svg xmlns="http://www.w3.org/2000/svg" width="624" height="384" viewBox="0 0 624 384"><rect x="0.0" y="0.0" width="624.0" height="384.0" fill="#ffffff" fill-opacity="1.0" stroke="none"/><text x="28.01333333333333" y="21.413333333333334" fill="#000000" font-size="17.599999999999998" font-family="sans-serif" text-anchor="start">Pie</text><path d="M 322.34 195.29999999999998 L 322.34 64.8733333333333 L 327.1193167809004 64.96092869409577 L 331.89221392403323 65.22359711720465 L 336.65228041456805 65.66098578316573 L 341.3931224719668 66.27250718608062 L 346.1083721381891 67.05733992279193 L 350.7916958312131 68.01442979620231 L 355.43680285238094 69.14249123128496 L 360.0374538361442 70.44000900188422 L 364.5874691308573 71.905240265986 L 369.08073709936167 73.53621690672495 L 373.5112223282138 75.33074817598347 L 377.87297373452714 77.28642363703193 L 382.1601325595409 79.40061640225719 L 386.36694023817745 81.67048666163075 L 390.48774613401883 84.09298549717693 L 394.51701512931186 86.66485897831741 L 398.44933505980725 89.38265253259135 L 402.2794239844455 92.24271558587994 L 406.0021372801267 95.24120646590319 L 409.6124745520313 98.37409756240172 L 413.10558635021357 101.63718073707315 L 416.47678068344237 105.02607297599572 L 419.7215293215427 108.53622227694723 L 422.83547387777026 112.16291376371089 L 425.8144316630515 115.9012760191559 L 428.65440130422286 119.74628762858552 L 431.3515681187256 123.69278392456366 L 433.90230923853426 127.73546392416051 L 436.3031984764389 131.86889744929886 L 438.5510109281415 136.0875324206367 L 440.6427273039881 140.38570231518935 L 442.5755379845162 144.7576337776737 L 444.34684679437015 149.19745437535073 L 445.9542744895169 153.69920048595037 L 447.3956619530755 158.25682530808302 L 448.66907309547025 162.8642069833785 L 449.77279745500994 167.51515681944238 L 450.7053524954016 172.20342760258444 L 451.4654855971115 176.9227219891542 L 452.0521757398993 181.66670096421083 L 452.4646348742652 186.4289923561672 L 452.7023089799678 191.20319939596996 L 452.764878810191 195.98290930931924 L 452.65226032036037 200.76170193038706 L 452.36460478103277 205.5331583254637 L 451.9022985747077 210.2908694149496 L 451.2659626768339 215.02844458211064 L 450.4564518217071 219.73952025703412 L 449.47485335438034 224.417768464255 L 448.3224857701289 229.05690532257142 L 447.00089694343023 233.65069948563192 L 445.5118620488405 238.1929805119576 L 443.85738117655785 242.67764715315565 L 442.039676645876 247.09867554919234 L 440.0611900201378 251.45012731971656 L 437.92457882719657 255.72615754056645 L 435.6327129897918 259.92102259474416 L 433.1886709706333 264.0290878873133 L 430.5957356373718 268.0448354138577 L 427.85738985300975 271.96287117233294 Z" fill="#F8766D" fill-opacity="0.9" stroke="#ffffff" stroke-width="1.3333333333333333"/><text x="403.68770764969906" y="153.8512726944457" fill="#4d4d4d" font-size="11.733333333333334" font-family="sans-serif" text-anchor="middle">A (35%)</text><path d="M 322.34 195.29999999999998 L 427.85738985300975 271.96287117233294 L 425.8144316630515 274.6987239808441 L 423.70055726629454 277.38016086999346 L 421.51721540666 280.00534411687806 L 419.2659024375983 282.57247455203134 L 416.94816129656266 285.079792792484 L 414.5655804475574 287.5255804475574 L 412.11979279248396 289.90816129656264 L 409.6124745520313 292.2259024375983 L 407.045344116878 294.47721540666004 L 404.4201608699935 296.6605572662945 L 401.73872398084404 298.7744316630515 L 399.0028711723329 300.8173898530098 L 396.21447746131616 302.7880316946741 L 393.3754538735599 304.6850066085618 L 390.48774613401883 306.50701450282304 L 387.55333333333334 308.25280666425834 L 384.57422657145986 309.92118661412457 L 381.5524675793632 311.5110109281415 L 378.4901273197166 313.0211900201378 L 375.3893045675664 314.45068888879894 L 372.2521244719374 315.7985278270054 L 369.08073709936167 317.063783093275 L 365.87731596033 318.2455875448492 L 362.6440565196765 319.3431312319892 L 359.3831746919169 320.3556619530755 L 356.0969053225714 321.28248577012886 L 352.78750065651286 322.122967484401 L 349.4572287943909 322.87653107170786 L 346.1083721381891 323.54266007720804 L 342.7432258269805 324.12089796935516 L 339.36409616395395 324.6108484527815 L 335.9732990357892 325.0121757398993 L 332.57315832546374 325.32460478103275 L 329.16600431957966 325.5479214529232 L 325.7541721113015 325.68197270547864 L 322.34 325.7266666666667 L 318.92582788869845 325.68197270547864 L 315.5139956804203 325.5479214529232 L 312.10684167453627 325.32460478103275 L 308.7067009642108 325.0121757398993 L 305.31590383604606 324.6108484527815 L 301.93677417301944 324.12089796935516 L 298.57162786181084 323.54266007720804 L 295.22277120560904 322.87653107170786 L 291.8924993434871 322.122967484401 L 288.58309467742856 321.28248577012886 L 285.29682530808304 320.3556619530755 L 282.0359434803235 319.3431312319892 L 278.80268403967 318.2455875448492 L 275.5992629006383 317.063783093275 L 272.42787552806254 315.7985278270054 L 269.2906954324336 314.45068888879894 L 266.18987268028343 313.0211900201378 L 263.1275324206367 311.51101092814156 L 260.1057734285401 309.92118661412457 L 257.1266666666666 308.25280666425834 L 254.19225386598114 306.50701450282304 L 251.30454612644007 304.6850066085618 L 248.4655225386838 302.7880316946741 L 245.67712882766705 300.8173898530098 Z" fill="#7CAE00" fill-opacity="0.9" stroke="#ffffff" stroke-width="1.3333333333333333"/><text x="336.6222580788864" y="285.4746285785486" fill="#4d4d4d" font-size="11.733333333333334" font-family="sans-serif" text-anchor="middle">B (25%)</text><path d="M 322.34 195.29999999999998 L 245.67712882766705 300.8173898530098 L 243.26674181545263 299.0233590752714 L 240.89832229584366 297.174277963135 L 238.57312728835532 295.2711279014541 L 236.29239087144265 293.31491897174016 L 234.05732352752284 291.30668941606984 L 231.86911150052188 289.2475050860467 L 229.72891616628505 287.13845887710875 L 227.6378734161861 284.98067014848334 L 225.59709305426205 282.7752841290959 L 223.60765820819358 280.5234713097495 L 221.67062475444396 278.22642682189564 L 219.78702075786123 275.8853698033287 L 217.95784592604062 273.5015427511375 L 216.18407107873833 271.07621086226084 L 214.46663763261645 268.6106613619939 L 212.80645710159402 266.106202820804 L 211.20441061306806 263.56416445981773 L 209.66134844026243 260.98589544534684 L 208.17808955095225 258.3727641728297 L 206.7554211728034 255.72615754056648 L 205.39409837555763 253.0474802136338 L 204.09484367028546 250.33815387837024 L 202.85834662591958 247.59961648782783 L 201.68526350327105 244.8333214985901 L 200.57621690672494 242.04073709936168 L 199.5317954537975 239.22334543173906 L 198.5525534627325 236.3826418035759 L 197.63901065830106 233.52013389536037 L 196.79165189596227 230.63734096002634 L 196.01092690452973 227.73579301662144 L 195.29725004748167 224.81703003826254 L 194.65100010304118 221.88260113480698 L 194.07252006314243 218.9340637306754 L 193.56211695139046 215.97298273826095 L 193.12006166011116 213.00092972736485 L 192.746588806577 210.01948209109867 L 192.44189660848616 207.03022220869508 L 192.20614677875983 204.0347366056737 L 192.0394644397144 201.03461511180473 L 191.94193805665412 198.03145001731997 L 191.91361939091837 195.02683522781777 L 191.9545234724101 192.0223654183103 L 192.06462859161869 189.01963518686284 L 192.24387631114215 186.0202382082736 L 192.49217149670227 183.02576638824385 L 192.80938236763635 180.0378090184868 L 193.19534056683875 177.05795193322368 L 193.64984125011512 174.0877766675153 L 194.17264319490164 171.12885961787507 L 194.76346892829216 168.18277120560901 L 195.42200487430446 165.25107504332783 L 196.14790152030847 162.33532710507177 L 196.94077360252686 159.43707490049002 L 197.80020031051117 156.5578566535126 L 198.72572551048307 153.69920048595037 L 199.7168579874241 150.8626236064568 L 200.7730717057837 148.04963150528178 L 201.89380608866867 145.2617171552444 L 203.07846631536452 142.5003602193505 L 204.32642363703195 139.76702626547277 Z" fill="#00BFC4" fill-opacity="0.9" stroke="#ffffff" stroke-width="1.3333333333333333"/><text x="233.9096488331708" y="218.00505511163502" fill="#4d4d4d" font-size="11.733333333333334" font-family="sans-serif" text-anchor="middle">C (22%)</text><path d="M 322.34 195.29999999999998 L 204.32642363703195 139.76702626547277 L 205.39409837555763 137.55251978636616 L 206.50332343607874 135.35853071200808 L 207.65370471621304 133.18583855626957 L 208.84483349096934 131.03521526632812 L 210.0762865579656 128.90742494839822 L 211.34762638779097 126.80322359624805 L 212.65840127945745 124.72335882259867 L 214.00814552088747 122.66856959350059 L 215.396379554379 120.6395859657828 L 216.82261014699014 118.63712882766704 L 218.2863305657826 116.66190964263946 L 219.78702075786123 114.71463019667131 L 221.32414753514644 112.79598234887756 L 222.89716476381355 110.9066477857026 L 224.50551355833127 109.04729777872046 L 226.14862248003124 107.21859294613517 L 227.82590774013744 105.42118301806607 L 229.5367734071836 103.65570660570205 L 231.28061161874464 101.92279097440596 L 233.05680279740756 100.22305182085002 L 234.864715870904 98.55709305426203 L 236.7037084963277 96.92550658185908 L 238.5731272883553 95.32887209854587 L 240.4723080513916 93.76775688095165 L 242.40057601555444 92.24271558587994 L 244.35724607641797 90.75429005324114 L 246.34162303842643 89.3030091135397 L 248.35300186189423 87.88938839998295 L 250.39066791350257 86.51393016527945 L 252.453897220206 85.17712310319052 L 254.54195672645625 83.8794421748999 L 256.65410455465314 82.62134844026247 L 258.7895902687306 81.40328889399149 L 260.9476551407829 80.22569630684379 L 263.12753242063667 79.08898907185846 L 265.32844760827425 77.99357105570346 L 267.54961872900947 76.93983145518389 L 269.7902566113193 75.92814465896244 L 272.04956516723337 74.9588701145405 L 274.32674167517973 74.0323522005483 L 276.620977065188 73.14892010438908 L 278.9314562063485 72.30888770528 L 281.2573581964241 71.51255346273247 L 283.59785665351257 70.76020031051117 L 285.9521200096567 70.05209555610857 L 288.31931180629635 69.38849078577216 L 290.69859099145765 68.76962177511712 L 293.08911221857534 68.19570840535602 L 295.49002614684025 67.66695458517638 L 297.9004797429659 67.18354817829288 L 300.3196165842671 66.7456609367 L 302.7465771629434 66.35344843964964 L 305.1804991914572 66.00705003837447 L 307.6205179089013 65.706588806577 L 310.0657663882439 65.45217149670226 L 312.51537584434345 65.24388850200896 L 314.9684759426244 65.08181382445339 L 317.42419510830257 64.96600504839672 L 319.88166083605154 64.89650332014567 L 322.3399999999999 64.8733333333333 Z" fill="#C77CFF" fill-opacity="0.9" stroke="#ffffff" stroke-width="1.3333333333333333"/><text x="273.4197280541442" y="118.21398617223338" fill="#4d4d4d" font-size="11.733333333333334" font-family="sans-serif" text-anchor="middle">D (18%)</text></svg>