<svg xmlns="http://www.w3.org/2000/svg" width="900" height="660" viewBox="0 0 900 660"><rect x="0.0" y="0.0" width="900.0" height="660.0" fill="#ffffff" fill-opacity="1.0" stroke="none"/><text x="42.38666666666666" y="21.413333333333334" fill="#000000" font-size="17.599999999999998" font-family="sans-serif" text-anchor="start">Subplots (4-panel dashboard)</text><rect x="0.0" y="0.0" width="0.0" height="0.0" fill="#ffffff" fill-opacity="1.0" stroke="none"/><rect x="42.38666666666666" y="64.53333333333333" width="371.63629333333336" height="248.59999999999997" fill="#ebebeb" fill-opacity="1.0" stroke="none"/><line x1="101.51062242424241" y1="64.53333333333333" x2="101.51062242424241" y2="313.1333333333333" stroke="#ffffff" stroke-width="0.6666666666666666"/><line x1="185.97341636363637" y1="64.53333333333333" x2="185.97341636363637" y2="313.1333333333333" stroke="#ffffff" stroke-width="0.6666666666666666"/><line x1="270.4362103030303" y1="64.53333333333333" x2="270.4362103030303" y2="313.1333333333333" stroke="#ffffff" stroke-width="0.6666666666666666"/><line x1="354.8990042424243" y1="64.53333333333333" x2="354.8990042424243" y2="313.1333333333333" stroke="#ffffff" stroke-width="0.6666666666666666"/><line x1="59.279225454545454" y1="64.53333333333333" x2="59.279225454545454" y2="313.1333333333333" stroke="#ffffff" stroke-width="1.3333333333333333"/><line x1="143.7420193939394" y1="64.53333333333333" x2="143.7420193939394" y2="313.1333333333333" stroke="#ffffff" stroke-width="1.3333333333333333"/><line x1="228.20481333333333" y1="64.53333333333333" x2="228.20481333333333" y2="313.1333333333333" stroke="#ffffff" stroke-width="1.3333333333333333"/><line x1="312.6676072727273" y1="64.53333333333333" x2="312.6676072727273" y2="313.1333333333333" stroke="#ffffff" stroke-width="1.3333333333333333"/><line x1="397.13040121212134" y1="64.53333333333333" x2="397.13040121212134" y2="313.1333333333333" stroke="#ffffff" stroke-width="1.3333333333333333"/><line x1="42.38666666666666" y1="272.960215385423" x2="414.02296000000007" y2="272.960215385423" stroke="#ffffff" stroke-width="0.6666666666666666"/><line x1="42.38666666666666" y1="220.72701247527044" x2="414.02296000000007" y2="220.72701247527044" stroke="#ffffff" stroke-width="0.6666666666666666"/><line x1="42.38666666666666" y1="168.49380956511789" x2="414.02296000000007" y2="168.49380956511789" stroke="#ffffff" stroke-width="0.6666666666666666"/><line x1="42.38666666666666" y1="116.26060665496539" x2="414.02296000000007" y2="116.26060665496539" stroke="#ffffff" stroke-width="0.6666666666666666"/><line x1="42.38666666666666" y1="299.07681684049925" x2="414.02296000000007" y2="299.07681684049925" stroke="#ffffff" stroke-width="1.3333333333333333"/><line x1="42.38666666666666" y1="246.84361393034672" x2="414.02296000000007" y2="246.84361393034672" stroke="#ffffff" stroke-width="1.3333333333333333"/><line x1="42.38666666666666" y1="194.61041102019414" x2="414.02296000000007" y2="194.61041102019414" stroke="#ffffff" stroke-width="1.3333333333333333"/><line x1="42.38666666666666" y1="142.37720811004164" x2="414.02296000000007" y2="142.37720811004164" stroke="#ffffff" stroke-width="1.3333333333333333"/><line x1="42.38666666666666" y1="90.14400519988908" x2="414.02296000000007" y2="90.14400519988908" stroke="#ffffff" stroke-width="1.3333333333333333"/><line x1="59.279225454545454" y1="313.1333333333333" x2="59.279225454545454" y2="316.79999999999995" stroke="#333333" stroke-width="1.3333333333333333"/><text x="59.279225454545454" y="329.11999999999995" fill="#4d4d4d" font-size="11.733333333333334" font-family="sans-serif" text-anchor="middle">0.0</text><line x1="143.7420193939394" y1="313.1333333333333" x2="143.7420193939394" y2="316.79999999999995" stroke="#333333" stroke-width="1.3333333333333333"/><text x="143.7420193939394" y="329.11999999999995" fill="#4d4d4d" font-size="11.733333333333334" font-family="sans-serif" text-anchor="middle">2.5</text><line x1="228.20481333333333" y1="313.1333333333333" x2="228.20481333333333" y2="316.79999999999995" stroke="#333333" stroke-width="1.3333333333333333"/><text x="228.20481333333333" y="329.11999999999995" fill="#4d4d4d" font-size="11.733333333333334" font-family="sans-serif" text-anchor="middle">5.0</text><line x1="312.6676072727273" y1="313.1333333333333" x2="312.6676072727273" y2="316.79999999999995" stroke="#333333" stroke-width="1.3333333333333333"/><text x="312.6676072727273" y="329.11999999999995" fill="#4d4d4d" font-size="11.733333333333334" font-family="sans-serif" text-anchor="middle">7.5</text><line x1="397.13040121212134" y1="313.1333333333333" x2="397.13040121212134" y2="316.79999999999995" stroke="#333333" stroke-width="1.3333333333333333"/><text x="397.13040121212134" y="329.11999999999995" fill="#4d4d4d" font-size="11.733333333333334" font-family="sans-serif" text-anchor="middle">10.0</text><line x1="42.38666666666666" y1="299.07681684049925" x2="38.72" y2="299.07681684049925" stroke="#333333" stroke-width="1.3333333333333333"/><text x="35.78666666666666" y="303.18348350716593" fill="#4d4d4d" font-size="11.733333333333334" font-family="sans-serif" text-anchor="end">0</text><line x1="42.38666666666666" y1="246.84361393034672" x2="38.72" y2="246.84361393034672" stroke="#333333" stroke-width="1.3333333333333333"/><text x="35.78666666666666" y="250.9502805970134" fill="#4d4d4d" font-size="11.733333333333334" font-family="sans-serif" text-anchor="end">5</text><line x1="42.38666666666666" y1="194.61041102019414" x2="38.72" y2="194.61041102019414" stroke="#333333" stroke-width="1.3333333333333333"/><text x="35.78666666666666" y="198.71707768686082" fill="#4d4d4d" font-size="11.733333333333334" font-family="sans-serif" text-anchor="end">10</text><line x1="42.38666666666666" y1="142.37720811004164" x2="38.72" y2="142.37720811004164" stroke="#333333" stroke-width="1.3333333333333333"/><text x="35.78666666666666" y="146.48387477670832" fill="#4d4d4d" font-size="11.733333333333334" font-family="sans-serif" text-anchor="end">15</text><line x1="42.38666666666666" y1="90.14400519988908" x2="38.72" y2="90.14400519988908" stroke="#333333" stroke-width="1.3333333333333333"/><text x="35.78666666666666" y="94.25067186655573" fill="#4d4d4d" font-size="11.733333333333334" font-family="sans-serif" text-anchor="end">20</text><text x="42.38666666666666" y="53.68000000000001" fill="#000000" font-size="17.599999999999998" font-family="sans-serif" text-anchor="start">scatter</text><circle cx="59.279225454545454" cy="261.04565153853537" r="3.1181102362204727" fill="#000000" fill-opacity="0.6" stroke="none"><title>(0, 3.640516298357)</title></circle><circle cx="62.118310965113324" cy="294.4984792726473" r="3.1181102362204727" fill="#000000" fill-opacity="0.6" stroke="none"><title>(0.084033613445, 0.438259317137)</title></circle><circle cx="64.95739647568118" cy="245.9120839912231" r="3.1181102362204727" fill="#000000" fill-opacity="0.6" stroke="none"><title>(0.168067226891, 5.089170287023)</title></circle><circle cx="67.79648198624905" cy="296.6727803934077" r="3.1181102362204727" fill="#000000" fill-opacity="0.6" stroke="none"><title>(0.252100840336, 0.230125314278)</title></circle><circle cx="70.63556749681692" cy="294.489202252419" r="3.1181102362204727" fill="#000000" fill-opacity="0.6" stroke="none"><title>(0.336134453782, 0.439147355751)</title></circle><circle cx="73.47465300738477" cy="265.4077638524456" r="3.1181102362204727" fill="#000000" fill-opacity="0.6" stroke="none"><title>(0.420168067227, 3.222955047)</title></circle><circle cx="76.31373851795263" cy="273.933264792978" r="3.1181102362204727" fill="#000000" fill-opacity="0.6" stroke="none"><title>(0.504201680672, 2.406855280421)</title></circle><circle cx="79.15282402852051" cy="254.7884979005161" r="3.1181102362204727" fill="#000000" fill-opacity="0.6" stroke="none"><title>(0.588235294118, 4.239479533369)</title></circle><circle cx="81.99190953908837" cy="257.0305098020682" r="3.1181102362204727" fill="#000000" fill-opacity="0.6" stroke="none"><title>(0.672268907563, 4.024863946287)</title></circle><circle cx="84.83099504965622" cy="261.5276924161146" r="3.1181102362204727" fill="#000000" fill-opacity="0.6" stroke="none"><title>(0.756302521008, 3.594373150826)</title></circle><circle cx="87.67008056022408" cy="273.68136946621047" r="3.1181102362204727" fill="#000000" fill-opacity="0.6" stroke="none"><title>(0.840336134454, 2.430967847977)</title></circle><circle cx="90.50916607079195" cy="244.14507809904833" r="3.1181102362204727" fill="#000000" fill-opacity="0.6" stroke="none"><title>(0.924369747899, 5.258316136188)</title></circle><circle cx="93.34825158135982" cy="284.3757966164665" r="3.1181102362204727" fill="#000000" fill-opacity="0.6" stroke="none"><title>(1.008403361345, 1.407248589496)</title></circle><circle cx="96.18733709192767" cy="259.67149221185116" r="3.1181102362204727" fill="#000000" fill-opacity="0.6" stroke="none"><title>(1.09243697479, 3.772057085646)</title></circle><circle cx="99.02642260249554" cy="297.3098993785467" r="3.1181102362204727" fill="#000000" fill-opacity="0.6" stroke="none"><title>(1.176470588235, 0.169137384222)</title></circle><circle cx="101.86550811306343" cy="273.8954461327452" r="3.1181102362204727" fill="#000000" fill-opacity="0.6" stroke="none"><title>(1.260504201681, 2.410475454767)</title></circle><circle cx="104.70459362363127" cy="237.39486199969298" r="3.1181102362204727" fill="#000000" fill-opacity="0.6" stroke="none"><title>(1.344537815126, 5.90447755491)</title></circle><circle cx="107.54367913419914" cy="245.83400818690282" r="3.1181102362204727" fill="#000000" fill-opacity="0.6" stroke="none"><title>(1.428571428571, 5.096644058491)</title></circle><circle cx="110.38276464476701" cy="220.0731882292444" r="3.1181102362204727" fill="#000000" fill-opacity="0.6" stroke="none"><title>(1.512605042017, 7.562587033687)</title></circle><circle cx="113.22185015533486" cy="277.49519011539985" r="3.1181102362204727" fill="#000000" fill-opacity="0.6" stroke="none"><title>(1.596638655462, 2.065891571136)</title></circle><circle cx="116.06093566590273" cy="263.6280134150624" r="3.1181102362204727" fill="#000000" fill-opacity="0.6" stroke="none"><title>(1.680672268908, 3.393320862059)</title></circle><circle cx="118.90002117647057" cy="280.4832066252576" r="3.1181102362204727" fill="#000000" fill-opacity="0.6" stroke="none"><title>(1.764705882353, 1.779865026392)</title></circle><circle cx="121.73910668703846" cy="301.8333333333333" r="3.1181102362204727" fill="#000000" fill-opacity="0.6" stroke="none"><title>(1.848739495798, -0.263866309096)</title></circle><circle cx="124.57819219760633" cy="256.34386913377716" r="3.1181102362204727" fill="#000000" fill-opacity="0.6" stroke="none"><title>(1.932773109244, 4.090592317326)</title></circle><circle cx="127.4172777081742" cy="235.77913520098542" r="3.1181102362204727" fill="#000000" fill-opacity="0.6" stroke="none"><title>(2.016806722689, 6.059142280476)</title></circle><circle cx="130.25636321874202" cy="224.33585986934398" r="3.1181102362204727" fill="#000000" fill-opacity="0.6" stroke="none"><title>(2.100840336134, 7.15454469638)</title></circle><circle cx="133.0954487293099" cy="259.9208439664069" r="3.1181102362204727" fill="#000000" fill-opacity="0.6" stroke="none"><title>(2.18487394958, 3.748188000403)</title></circle><circle cx="135.93453423987776" cy="292.8433139751521" r="3.1181102362204727" fill="#000000" fill-opacity="0.6" stroke="none"><title>(2.268907563025, 0.59669927537)</title></circle><circle cx="138.77361975044565" cy="287.106018400032" r="3.1181102362204727" fill="#000000" fill-opacity="0.6" stroke="none"><title>(2.352941176471, 1.145899329691)</title></circle><circle cx="141.6127052610135" cy="221.51467323894127" r="3.1181102362204727" fill="#000000" fill-opacity="0.6" stroke="none"><title>(2.436974789916, 7.424601525487)</title></circle><circle cx="144.4517907715814" cy="248.50719592998286" r="3.1181102362204727" fill="#000000" fill-opacity="0.6" stroke="none"><title>(2.521008403361, 4.840754356717)</title></circle><circle cx="147.2908762821492" cy="223.9401089388563" r="3.1181102362204727" fill="#000000" fill-opacity="0.6" stroke="none"><title>(2.605042016807, 7.192427777298)</title></circle><circle cx="150.1299617927171" cy="223.79682801971524" r="3.1181102362204727" fill="#000000" fill-opacity="0.6" stroke="none"><title>(2.689075630252, 7.206143279235)</title></circle><circle cx="152.96904730328495" cy="242.5077595673453" r="3.1181102362204727" fill="#000000" fill-opacity="0.6" stroke="none"><title>(2.773109243697, 5.415047720744)</title></circle><circle cx="155.80813281385284" cy="192.63149444705826" r="3.1181102362204727" fill="#000000" fill-opacity="0.6" stroke="none"><title>(2.857142857143, 10.189430904375)</title></circle><circle cx="158.6472183244207" cy="202.6325231204176" r="3.1181102362204727" fill="#000000" fill-opacity="0.6" stroke="none"><title>(2.941176470588, 9.232086905141)</title></circle><circle cx="161.48630383498858" cy="190.94344013693663" r="3.1181102362204727" fill="#000000" fill-opacity="0.6" stroke="none"><title>(3.025210084034, 10.35101914864)</title></circle><circle cx="164.3253893455564" cy="227.80994720428765" r="3.1181102362204727" fill="#000000" fill-opacity="0.6" stroke="none"><title>(3.109243697479, 6.821989239182)</title></circle><circle cx="167.1644748561243" cy="245.24099962594417" r="3.1181102362204727" fill="#000000" fill-opacity="0.6" stroke="none"><title>(3.193277310924, 5.15340953791)</title></circle><circle cx="170.00356036669214" cy="214.8133834926496" r="3.1181102362204727" fill="#000000" fill-opacity="0.6" stroke="none"><title>(3.27731092437, 8.066079490932)</title></circle><circle cx="172.84264587726" cy="215.50091643415095" r="3.1181102362204727" fill="#000000" fill-opacity="0.6" stroke="none"><title>(3.361344537815, 8.000265707438)</title></circle><circle cx="175.68173138782788" cy="205.44748656377902" r="3.1181102362204727" fill="#000000" fill-opacity="0.6" stroke="none"><title>(3.445378151261, 8.962625787832)</title></circle><circle cx="178.5208168983957" cy="251.8007966312021" r="3.1181102362204727" fill="#000000" fill-opacity="0.6" stroke="none"><title>(3.529411764706, 4.525475901853)</title></circle><circle cx="181.35990240896356" cy="249.02798436364674" r="3.1181102362204727" fill="#000000" fill-opacity="0.6" stroke="none"><title>(3.613445378151, 4.7909021167)</title></circle><circle cx="184.19898791953148" cy="219.34580492690458" r="3.1181102362204727" fill="#000000" fill-opacity="0.6" stroke="none"><title>(3.697478991597, 7.632215475159)</title></circle><circle cx="187.03807343009933" cy="225.6865464864185" r="3.1181102362204727" fill="#000000" fill-opacity="0.6" stroke="none"><title>(3.781512605042, 7.025250823726)</title></circle><circle cx="189.87715894066721" cy="207.33432114747873" r="3.1181102362204727" fill="#000000" fill-opacity="0.6" stroke="none"><title>(3.865546218487, 8.782009390735)</title></circle><circle cx="192.71624445123507" cy="231.1825837390942" r="3.1181102362204727" fill="#000000" fill-opacity="0.6" stroke="none"><title>(3.949579831933, 6.499145114477)</title></circle><circle cx="195.5553299618029" cy="189.03404942183127" r="3.1181102362204727" fill="#000000" fill-opacity="0.6" stroke="none"><title>(4.033613445378, 10.533794721334)</title></circle><circle cx="198.39441547237075" cy="139.04210187124517" r="3.1181102362204727" fill="#000000" fill-opacity="0.6" stroke="none"><title>(4.117647058824, 15.319251553895)</title></circle><circle cx="201.23350098293864" cy="269.48166010704415" r="3.1181102362204727" fill="#000000" fill-opacity="0.6" stroke="none"><title>(4.201680672269, 2.832983149086)</title></circle><circle cx="204.0725864935065" cy="194.30231278026332" r="3.1181102362204727" fill="#000000" fill-opacity="0.6" stroke="none"><title>(4.285714285714, 10.029492566296)</title></circle><circle cx="206.91167200407438" cy="214.97589169926644" r="3.1181102362204727" fill="#000000" fill-opacity="0.6" stroke="none"><title>(4.36974789916, 8.050523465495)</title></circle><circle cx="209.75075751464226" cy="262.25127078018323" r="3.1181102362204727" fill="#000000" fill-opacity="0.6" stroke="none"><title>(4.453781512605, 3.52510893537)</title></circle><circle cx="212.5898430252101" cy="196.99262040565202" r="3.1181102362204727" fill="#000000" fill-opacity="0.6" stroke="none"><title>(4.53781512605, 9.77196407144)</title></circle><circle cx="215.42892853577794" cy="213.23967216632118" r="3.1181102362204727" fill="#000000" fill-opacity="0.6" stroke="none"><title>(4.621848739496, 8.216722304185)</title></circle><circle cx="218.26801404634583" cy="138.86175186971764" r="3.1181102362204727" fill="#000000" fill-opacity="0.6" stroke="none"><title>(4.705882352941, 15.336515477174)</title></circle><circle cx="221.10709955691368" cy="189.96794823207154" r="3.1181102362204727" fill="#000000" fill-opacity="0.6" stroke="none"><title>(4.789915966387, 10.444397675183)</title></circle><circle cx="223.9461850674815" cy="198.5162761925181" r="3.1181102362204727" fill="#000000" fill-opacity="0.6" stroke="none"><title>(4.873949579832, 9.626112802326)</title></circle><circle cx="226.7852705780494" cy="156.5668182711056" r="3.1181102362204727" fill="#000000" fill-opacity="0.6" stroke="none"><title>(4.957983193277, 13.641705910178)</title></circle><circle cx="229.62435608861725" cy="193.51896402323305" r="3.1181102362204727" fill="#000000" fill-opacity="0.6" stroke="none"><title>(5.042016806723, 10.1044782759)</title></circle><circle cx="232.46344159918516" cy="218.11758550432023" r="3.1181102362204727" fill="#000000" fill-opacity="0.6" stroke="none"><title>(5.126050420168, 7.749786230364)</title></circle><circle cx="235.30252710975302" cy="188.277827400647" r="3.1181102362204727" fill="#000000" fill-opacity="0.6" stroke="none"><title>(5.210084033613, 10.606183736276)</title></circle><circle cx="238.14161262032087" cy="143.6160886269604" r="3.1181102362204727" fill="#000000" fill-opacity="0.6" stroke="none"><title>(5.294117647059, 14.881408716305)</title></circle><circle cx="240.98069813088878" cy="206.35543184957535" r="3.1181102362204727" fill="#000000" fill-opacity="0.6" stroke="none"><title>(5.378151260504, 8.875713131207)</title></circle><circle cx="243.81978364145658" cy="233.94162829216953" r="3.1181102362204727" fill="#000000" fill-opacity="0.6" stroke="none"><title>(5.46218487395, 6.235036807945)</title></circle><circle cx="246.65886915202444" cy="164.76932084543773" r="3.1181102362204727" fill="#000000" fill-opacity="0.6" stroke="none"><title>(5.546218487395, 12.856525017821)</title></circle><circle cx="249.49795466259232" cy="191.90588228120535" r="3.1181102362204727" fill="#000000" fill-opacity="0.6" stroke="none"><title>(5.63025210084, 10.258889804598)</title></circle><circle cx="252.3370401731602" cy="213.09976283251413" r="3.1181102362204727" fill="#000000" fill-opacity="0.6" stroke="none"><title>(5.714285714286, 8.230115062624)</title></circle><circle cx="255.17612568372806" cy="199.15464362760054" r="3.1181102362204727" fill="#000000" fill-opacity="0.6" stroke="none"><title>(5.798319327731, 9.565005364957)</title></circle><circle cx="258.0152111942959" cy="197.6913494971457" r="3.1181102362204727" fill="#000000" fill-opacity="0.6" stroke="none"><title>(5.882352941176, 9.705078541493)</title></circle><circle cx="260.85429670486377" cy="177.9657576135221" r="3.1181102362204727" fill="#000000" fill-opacity="0.6" stroke="none"><title>(5.966386554622, 11.593302007088)</title></circle><circle cx="263.6933822154316" cy="157.4603515164485" r="3.1181102362204727" fill="#000000" fill-opacity="0.6" stroke="none"><title>(6.050420168067, 13.556172839683)</title></circle><circle cx="266.5324677259995" cy="215.2358235170258" r="3.1181102362204727" fill="#000000" fill-opacity="0.6" stroke="none"><title>(6.134453781513, 8.025641608432)</title></circle><circle cx="269.37155323656737" cy="205.96194011273445" r="3.1181102362204727" fill="#000000" fill-opacity="0.6" stroke="none"><title>(6.218487394958, 8.913379951822)</title></circle><circle cx="272.21063874713525" cy="189.91055197948344" r="3.1181102362204727" fill="#000000" fill-opacity="0.6" stroke="none"><title>(6.302521008403, 10.449891905805)</title></circle><circle cx="275.0497242577031" cy="165.34969478470828" r="3.1181102362204727" fill="#000000" fill-opacity="0.6" stroke="none"><title>(6.386554621849, 12.800968981915)</title></circle><circle cx="277.88880976827096" cy="170.8548652977602" r="3.1181102362204727" fill="#000000" fill-opacity="0.6" stroke="none"><title>(6.470588235294, 12.2739889954)</title></circle><circle cx="280.7278952788388" cy="205.8242670591002" r="3.1181102362204727" fill="#000000" fill-opacity="0.6" stroke="none"><title>(6.554621848739, 8.926558643341)</title></circle><circle cx="283.56698078940667" cy="174.86626206702397" r="3.1181102362204727" fill="#000000" fill-opacity="0.6" stroke="none"><title>(6.638655462185, 11.889999832782)</title></circle><circle cx="286.40606629997455" cy="192.31027221602406" r="3.1181102362204727" fill="#000000" fill-opacity="0.6" stroke="none"><title>(6.72268907563, 10.220179758852)</title></circle><circle cx="289.24515181054244" cy="172.79589564677863" r="3.1181102362204727" fill="#000000" fill-opacity="0.6" stroke="none"><title>(6.806722689076, 12.088184732893)</title></circle><circle cx="292.08423732111027" cy="167.20534431015233" r="3.1181102362204727" fill="#000000" fill-opacity="0.6" stroke="none"><title>(6.890756302521, 12.623337760579)</title></circle><circle cx="294.92332283167815" cy="160.96115626458825" r="3.1181102362204727" fill="#000000" fill-opacity="0.6" stroke="none"><title>(6.974789915966, 13.221059870049)</title></circle><circle cx="297.762408342246" cy="114.9226511772944" r="3.1181102362204727" fill="#000000" fill-opacity="0.6" stroke="none"><title>(7.058823529412, 17.628075190025)</title></circle><circle cx="300.60149385281386" cy="115.03354657195814" r="3.1181102362204727" fill="#000000" fill-opacity="0.6" stroke="none"><title>(7.142857142857, 17.617459777942)</title></circle><circle cx="303.44057936338174" cy="157.3573334497328" r="3.1181102362204727" fill="#000000" fill-opacity="0.6" stroke="none"><title>(7.226890756303, 13.566034198069)</title></circle><circle cx="306.2796648739496" cy="165.91766956836392" r="3.1181102362204727" fill="#000000" fill-opacity="0.6" stroke="none"><title>(7.310924369748, 12.746599849638)</title></circle><circle cx="309.11875038451745" cy="109.49620792219142" r="3.1181102362204727" fill="#000000" fill-opacity="0.6" stroke="none"><title>(7.394957983193, 18.147519044965)</title></circle><circle cx="311.95783589508534" cy="161.8900823309887" r="3.1181102362204727" fill="#000000" fill-opacity="0.6" stroke="none"><title>(7.478991596639, 13.132138837579)</title></circle><circle cx="314.79692140565317" cy="144.98303275854437" r="3.1181102362204727" fill="#000000" fill-opacity="0.6" stroke="none"><title>(7.563025210084, 14.750558600342)</title></circle><circle cx="317.63600691622105" cy="131.76089994459102" r="3.1181102362204727" fill="#000000" fill-opacity="0.6" stroke="none"><title>(7.647058823529, 16.01624135358)</title></circle><circle cx="320.47509242678893" cy="142.7953992171739" r="3.1181102362204727" fill="#000000" fill-opacity="0.6" stroke="none"><title>(7.731092436975, 14.959968843204)</title></circle><circle cx="323.3141779373568" cy="160.41186669215716" r="3.1181102362204727" fill="#000000" fill-opacity="0.6" stroke="none"><title>(7.81512605042, 13.273640368834)</title></circle><circle cx="326.15326344792464" cy="143.8771852170697" r="3.1181102362204727" fill="#000000" fill-opacity="0.6" stroke="none"><title>(7.899159663866, 14.856415361929)</title></circle><circle cx="328.99234895849247" cy="172.92632215278638" r="3.1181102362204727" fill="#000000" fill-opacity="0.6" stroke="none"><title>(7.983193277311, 12.075699713907)</title></circle><circle cx="331.83143446906035" cy="167.9142732545591" r="3.1181102362204727" fill="#000000" fill-opacity="0.6" stroke="none"><title>(8.067226890756, 12.555475854272)</title></circle><circle cx="334.67051997962824" cy="175.75969276341075" r="3.1181102362204727" fill="#000000" fill-opacity="0.6" stroke="none"><title>(8.151260504202, 11.804476578739)</title></circle><circle cx="337.50960549019607" cy="121.51837341280486" r="3.1181102362204727" fill="#000000" fill-opacity="0.6" stroke="none"><title>(8.235294117647, 16.996702627361)</title></circle><circle cx="340.348691000764" cy="145.33586373698546" r="3.1181102362204727" fill="#000000" fill-opacity="0.6" stroke="none"><title>(8.319327731092, 14.716784012649)</title></circle><circle cx="343.18777651133183" cy="111.21816892498464" r="3.1181102362204727" fill="#000000" fill-opacity="0.6" stroke="none"><title>(8.403361344538, 17.982685097701)</title></circle><circle cx="346.0268620218997" cy="138.63466334882753" r="3.1181102362204727" fill="#000000" fill-opacity="0.6" stroke="none"><title>(8.487394957983, 15.358253424326)</title></circle><circle cx="348.8659475324676" cy="116.59372608810216" r="3.1181102362204727" fill="#000000" fill-opacity="0.6" stroke="none"><title>(8.571428571429, 17.468112291169)</title></circle><circle cx="351.7050330430354" cy="155.67163339972947" r="3.1181102362204727" fill="#000000" fill-opacity="0.6" stroke="none"><title>(8.655462184874, 13.727397081837)</title></circle><circle cx="354.5441185536033" cy="146.56803109570933" r="3.1181102362204727" fill="#000000" fill-opacity="0.6" stroke="none"><title>(8.739495798319, 14.598835343022)</title></circle><circle cx="357.3832040641712" cy="171.73570913706953" r="3.1181102362204727" fill="#000000" fill-opacity="0.6" stroke="none"><title>(8.823529411765, 12.189670612625)</title></circle><circle cx="360.2222895747391" cy="147.59081304740346" r="3.1181102362204727" fill="#000000" fill-opacity="0.6" stroke="none"><title>(8.90756302521, 14.500929997886)</title></circle><circle cx="363.06137508530685" cy="130.45199699330684" r="3.1181102362204727" fill="#000000" fill-opacity="0.6" stroke="none"><title>(8.991596638655, 16.141535503504)</title></circle><circle cx="365.90046059587473" cy="107.69687787139715" r="3.1181102362204727" fill="#000000" fill-opacity="0.6" stroke="none"><title>(9.075630252101, 18.319759109766)</title></circle><circle cx="368.7395461064426" cy="158.8356646926248" r="3.1181102362204727" fill="#000000" fill-opacity="0.6" stroke="none"><title>(9.159663865546, 13.424521600667)</title></circle><circle cx="371.57863161701044" cy="147.50614151954935" r="3.1181102362204727" fill="#000000" fill-opacity="0.6" stroke="none"><title>(9.243697478992, 14.509035142041)</title></circle><circle cx="374.4177171275784" cy="90.2558927980541" r="3.1181102362204727" fill="#000000" fill-opacity="0.6" stroke="none"><title>(9.327731092437, 19.98928960968)</title></circle><circle cx="377.2568026381462" cy="75.83333333333333" r="3.1181102362204727" fill="#000000" fill-opacity="0.6" stroke="none"><title>(9.411764705882, 21.369882667465)</title></circle><circle cx="380.0958881487141" cy="149.58859100948888" r="3.1181102362204727" fill="#000000" fill-opacity="0.6" stroke="none"><title>(9.495798319328, 14.309693595484)</title></circle><circle cx="382.934973659282" cy="159.71966707085113" r="3.1181102362204727" fill="#000000" fill-opacity="0.6" stroke="none"><title>(9.579831932773, 13.339900868166)</title></circle><circle cx="385.7740591698498" cy="110.54792933974166" r="3.1181102362204727" fill="#000000" fill-opacity="0.6" stroke="none"><title>(9.663865546218, 18.046843482397)</title></circle><circle cx="388.6131446804177" cy="157.71051517127594" r="3.1181102362204727" fill="#000000" fill-opacity="0.6" stroke="none"><title>(9.747899159664, 13.532226035649)</title></circle><circle cx="391.4522301909856" cy="137.53866314301717" r="3.1181102362204727" fill="#000000" fill-opacity="0.6" stroke="none"><title>(9.831932773109, 15.463167554108)</title></circle><circle cx="394.29131570155346" cy="89.88707978186645" r="3.1181102362204727" fill="#000000" fill-opacity="0.6" stroke="none"><title>(9.915966386555, 20.024594070793)</title></circle><circle cx="397.13040121212134" cy="125.80387447650139" r="3.1181102362204727" fill="#000000" fill-opacity="0.6" stroke="none"><title>(10, 16.586474953685)</title></circle><rect x="0.0" y="0.0" width="0.0" height="0.0" fill="#ffffff" fill-opacity="1.0" stroke="none"/><rect x="456.7029600000001" y="64.53333333333333" width="371.63629333333347" height="248.59999999999997" fill="#ebebeb" fill-opacity="1.0" stroke="none"/><line x1="471.0172008309802" y1="64.53333333333333" x2="471.0172008309802" y2="313.1333333333333" stroke="#ffffff" stroke-width="0.6666666666666666"/><line x1="525.7769215052967" y1="64.53333333333333" x2="525.7769215052967" y2="313.1333333333333" stroke="#ffffff" stroke-width="0.6666666666666666"/><line x1="580.5366421796133" y1="64.53333333333333" x2="580.5366421796133" y2="313.1333333333333" stroke="#ffffff" stroke-width="0.6666666666666666"/><line x1="635.2963628539298" y1="64.53333333333333" x2="635.2963628539298" y2="313.1333333333333" stroke="#ffffff" stroke-width="0.6666666666666666"/><line x1="690.0560835282464" y1="64.53333333333333" x2="690.0560835282464" y2="313.1333333333333" stroke="#ffffff" stroke-width="0.6666666666666666"/><line x1="744.815804202563" y1="64.53333333333333" x2="744.815804202563" y2="313.1333333333333" stroke="#ffffff" stroke-width="0.6666666666666666"/><line x1="799.5755248768794" y1="64.53333333333333" x2="799.5755248768794" y2="313.1333333333333" stroke="#ffffff" stroke-width="0.6666666666666666"/><line x1="498.3970611681385" y1="64.53333333333333" x2="498.3970611681385" y2="313.1333333333333" stroke="#ffffff" stroke-width="1.3333333333333333"/><line x1="553.1567818424551" y1="64.53333333333333" x2="553.1567818424551" y2="313.1333333333333" stroke="#ffffff" stroke-width="1.3333333333333333"/><line x1="607.9165025167715" y1="64.53333333333333" x2="607.9165025167715" y2="313.1333333333333" stroke="#ffffff" stroke-width="1.3333333333333333"/><line x1="662.6762231910881" y1="64.53333333333333" x2="662.6762231910881" y2="313.1333333333333" stroke="#ffffff" stroke-width="1.3333333333333333"/><line x1="717.4359438654047" y1="64.53333333333333" x2="717.4359438654047" y2="313.1333333333333" stroke="#ffffff" stroke-width="1.3333333333333333"/><line x1="772.1956645397213" y1="64.53333333333333" x2="772.1956645397213" y2="313.1333333333333" stroke="#ffffff" stroke-width="1.3333333333333333"/><line x1="826.9553852140377" y1="64.53333333333333" x2="826.9553852140377" y2="313.1333333333333" stroke="#ffffff" stroke-width="1.3333333333333333"/><line x1="456.7029600000001" y1="287.3983436853002" x2="828.3392533333335" y2="287.3983436853002" stroke="#ffffff" stroke-width="0.6666666666666666"/><line x1="456.7029600000001" y1="235.92836438923393" x2="828.3392533333335" y2="235.92836438923393" stroke="#ffffff" stroke-width="0.6666666666666666"/><line x1="456.7029600000001" y1="184.4583850931677" x2="828.3392533333335" y2="184.4583850931677" stroke="#ffffff" stroke-width="0.6666666666666666"/><line x1="456.7029600000001" y1="132.98840579710145" x2="828.3392533333335" y2="132.98840579710145" stroke="#ffffff" stroke-width="0.6666666666666666"/><line x1="456.7029600000001" y1="81.51842650103518" x2="828.3392533333335" y2="81.51842650103518" stroke="#ffffff" stroke-width="0.6666666666666666"/><line x1="456.7029600000001" y1="313.1333333333333" x2="828.3392533333335" y2="313.1333333333333" stroke="#ffffff" stroke-width="1.3333333333333333"/><line x1="456.7029600000001" y1="261.663354037267" x2="828.3392533333335" y2="261.663354037267" stroke="#ffffff" stroke-width="1.3333333333333333"/><line x1="456.7029600000001" y1="210.19337474120084" x2="828.3392533333335" y2="210.19337474120084" stroke="#ffffff" stroke-width="1.3333333333333333"/><line x1="456.7029600000001" y1="158.72339544513454" x2="828.3392533333335" y2="158.72339544513454" stroke="#ffffff" stroke-width="1.3333333333333333"/><line x1="456.7029600000001" y1="107.25341614906831" x2="828.3392533333335" y2="107.25341614906831" stroke="#ffffff" stroke-width="1.3333333333333333"/><line x1="498.3970611681385" y1="313.1333333333333" x2="498.3970611681385" y2="316.79999999999995" stroke="#333333" stroke-width="1.3333333333333333"/><text x="498.3970611681385" y="329.11999999999995" fill="#4d4d4d" font-size="11.733333333333334" font-family="sans-serif" text-anchor="middle">-3</text><line x1="553.1567818424551" y1="313.1333333333333" x2="553.1567818424551" y2="316.79999999999995" stroke="#333333" stroke-width="1.3333333333333333"/><text x="553.1567818424551" y="329.11999999999995" fill="#4d4d4d" font-size="11.733333333333334" font-family="sans-serif" text-anchor="middle">-2</text><line x1="607.9165025167715" y1="313.1333333333333" x2="607.9165025167715" y2="316.79999999999995" stroke="#333333" stroke-width="1.3333333333333333"/><text x="607.9165025167715" y="329.11999999999995" fill="#4d4d4d" font-size="11.733333333333334" font-family="sans-serif" text-anchor="middle">-1</text><line x1="662.6762231910881" y1="313.1333333333333" x2="662.6762231910881" y2="316.79999999999995" stroke="#333333" stroke-width="1.3333333333333333"/><text x="662.6762231910881" y="329.11999999999995" fill="#4d4d4d" font-size="11.733333333333334" font-family="sans-serif" text-anchor="middle">0</text><line x1="717.4359438654047" y1="313.1333333333333" x2="717.4359438654047" y2="316.79999999999995" stroke="#333333" stroke-width="1.3333333333333333"/><text x="717.4359438654047" y="329.11999999999995" fill="#4d4d4d" font-size="11.733333333333334" font-family="sans-serif" text-anchor="middle">1</text><line x1="772.1956645397213" y1="313.1333333333333" x2="772.1956645397213" y2="316.79999999999995" stroke="#333333" stroke-width="1.3333333333333333"/><text x="772.1956645397213" y="329.11999999999995" fill="#4d4d4d" font-size="11.733333333333334" font-family="sans-serif" text-anchor="middle">2</text><line x1="826.9553852140377" y1="313.1333333333333" x2="826.9553852140377" y2="316.79999999999995" stroke="#333333" stroke-width="1.3333333333333333"/><text x="826.9553852140377" y="329.11999999999995" fill="#4d4d4d" font-size="11.733333333333334" font-family="sans-serif" text-anchor="middle">3</text><line x1="456.7029600000001" y1="313.1333333333333" x2="453.0362933333334" y2="313.1333333333333" stroke="#333333" stroke-width="1.3333333333333333"/><text x="450.10296000000005" y="317.24" fill="#4d4d4d" font-size="11.733333333333334" font-family="sans-serif" text-anchor="end">0</text><line x1="456.7029600000001" y1="261.663354037267" x2="453.0362933333334" y2="261.663354037267" stroke="#333333" stroke-width="1.3333333333333333"/><text x="450.10296000000005" y="265.7700207039337" fill="#4d4d4d" font-size="11.733333333333334" font-family="sans-serif" text-anchor="end">10</text><line x1="456.7029600000001" y1="210.19337474120084" x2="453.0362933333334" y2="210.19337474120084" stroke="#333333" stroke-width="1.3333333333333333"/><text x="450.10296000000005" y="214.30004140786752" fill="#4d4d4d" font-size="11.733333333333334" font-family="sans-serif" text-anchor="end">20</text><line x1="456.7029600000001" y1="158.72339544513454" x2="453.0362933333334" y2="158.72339544513454" stroke="#333333" stroke-width="1.3333333333333333"/><text x="450.10296000000005" y="162.83006211180123" fill="#4d4d4d" font-size="11.733333333333334" font-family="sans-serif" text-anchor="end">30</text><line x1="456.7029600000001" y1="107.25341614906831" x2="453.0362933333334" y2="107.25341614906831" stroke="#333333" stroke-width="1.3333333333333333"/><text x="450.10296000000005" y="111.36008281573498" fill="#4d4d4d" font-size="11.733333333333334" font-family="sans-serif" text-anchor="end">40</text><text x="456.7029600000001" y="53.68000000000001" fill="#000000" font-size="17.599999999999998" font-family="sans-serif" text-anchor="start">histogram</text><rect x="473.5955187878788" y="307.9863354037267" width="11.26170585858593" height="5.146997929606641" fill="#595959" fill-opacity="1.0" stroke="none"/><rect x="507.3806363636364" y="297.6923395445134" width="11.261705858585856" height="15.440993788819885" fill="#595959" fill-opacity="1.0" stroke="none"/><rect x="518.6423422222223" y="302.83933747412004" width="11.261705858585856" height="10.293995859213243" fill="#595959" fill-opacity="1.0" stroke="none"/><rect x="529.9040480808081" y="287.3983436853002" width="11.261705858585856" height="25.734989648033128" fill="#595959" fill-opacity="1.0" stroke="none"/><rect x="541.165753939394" y="292.5453416149068" width="11.261705858585856" height="20.587991718426487" fill="#595959" fill-opacity="1.0" stroke="none"/><rect x="552.4274597979799" y="282.2513457556936" width="11.261705858585856" height="30.881987577639734" fill="#595959" fill-opacity="1.0" stroke="none"/><rect x="563.6891656565657" y="277.10434782608695" width="11.261705858585856" height="36.028985507246375" fill="#595959" fill-opacity="1.0" stroke="none"/><rect x="574.9508715151516" y="246.22236024844722" width="11.26170585858593" height="66.91097308488611" fill="#595959" fill-opacity="1.0" stroke="none"/><rect x="586.2125773737375" y="241.07536231884058" width="11.26170585858578" height="72.05797101449275" fill="#595959" fill-opacity="1.0" stroke="none"/><rect x="597.4742832323233" y="143.28240165631468" width="11.26170585858593" height="169.85093167701862" fill="#595959" fill-opacity="1.0" stroke="none"/><rect x="608.7359890909092" y="148.42939958592132" width="11.261705858585856" height="164.70393374741198" fill="#595959" fill-opacity="1.0" stroke="none"/><rect x="619.9976949494951" y="96.95942028985507" width="11.261705858585856" height="216.17391304347825" fill="#595959" fill-opacity="1.0" stroke="none"/><rect x="631.259400808081" y="91.81242236024843" width="11.261705858585856" height="221.3209109730849" fill="#595959" fill-opacity="1.0" stroke="none"/><rect x="642.5211066666668" y="91.81242236024843" width="11.261705858585856" height="221.3209109730849" fill="#595959" fill-opacity="1.0" stroke="none"/><rect x="653.7828125252527" y="76.37142857142854" width="11.26170585858593" height="236.76190476190476" fill="#595959" fill-opacity="1.0" stroke="none"/><rect x="665.0445183838385" y="76.37142857142854" width="11.26170585858578" height="236.76190476190476" fill="#595959" fill-opacity="1.0" stroke="none"/><rect x="676.3062242424244" y="127.84140786749481" width="11.26170585858593" height="185.29192546583852" fill="#595959" fill-opacity="1.0" stroke="none"/><rect x="687.5679301010102" y="179.31138716356105" width="11.26170585858578" height="133.82194616977225" fill="#595959" fill-opacity="1.0" stroke="none"/><rect x="698.8296359595961" y="189.6053830227743" width="11.26170585858593" height="123.527950310559" fill="#595959" fill-opacity="1.0" stroke="none"/><rect x="710.091341818182" y="210.19337474120084" width="11.26170585858578" height="102.93995859213248" fill="#595959" fill-opacity="1.0" stroke="none"/><rect x="721.3530476767678" y="256.51635610766044" width="11.26170585858593" height="56.61697722567286" fill="#595959" fill-opacity="1.0" stroke="none"/><rect x="732.6147535353537" y="251.3693581780538" width="11.26170585858578" height="61.7639751552795" fill="#595959" fill-opacity="1.0" stroke="none"/><rect x="743.8764593939395" y="271.9573498964803" width="11.26170585858593" height="41.175983436853016" fill="#595959" fill-opacity="1.0" stroke="none"/><rect x="755.1381652525254" y="266.81035196687367" width="11.26170585858593" height="46.322981366459615" fill="#595959" fill-opacity="1.0" stroke="none"/><rect x="766.3998711111113" y="277.10434782608695" width="11.26170585858578" height="36.028985507246375" fill="#595959" fill-opacity="1.0" stroke="none"/><rect x="777.6615769696971" y="297.6923395445134" width="11.26170585858578" height="15.440993788819885" fill="#595959" fill-opacity="1.0" stroke="none"/><rect x="788.9232828282829" y="302.83933747412004" width="11.26170585858593" height="10.293995859213243" fill="#595959" fill-opacity="1.0" stroke="none"/><rect x="800.1849886868688" y="302.83933747412004" width="11.26170585858593" height="10.293995859213243" fill="#595959" fill-opacity="1.0" stroke="none"/><rect x="0.0" y="0.0" width="0.0" height="0.0" fill="#ffffff" fill-opacity="1.0" stroke="none"/><rect x="42.38666666666666" y="378.3999999999999" width="371.63629333333336" height="248.59999999999997" fill="#ebebeb" fill-opacity="1.0" stroke="none"/><line x1="74.97023779736827" y1="378.3999999999999" x2="74.97023779736827" y2="626.9999999999999" stroke="#ffffff" stroke-width="0.6666666666666666"/><line x1="135.4525132457159" y1="378.3999999999999" x2="135.4525132457159" y2="626.9999999999999" stroke="#ffffff" stroke-width="0.6666666666666666"/><line x1="195.9347886940635" y1="378.3999999999999" x2="195.9347886940635" y2="626.9999999999999" stroke="#ffffff" stroke-width="0.6666666666666666"/><line x1="256.4170641424111" y1="378.3999999999999" x2="256.4170641424111" y2="626.9999999999999" stroke="#ffffff" stroke-width="0.6666666666666666"/><line x1="316.89933959075876" y1="378.3999999999999" x2="316.89933959075876" y2="626.9999999999999" stroke="#ffffff" stroke-width="0.6666666666666666"/><line x1="377.38161503910635" y1="378.3999999999999" x2="377.38161503910635" y2="626.9999999999999" stroke="#ffffff" stroke-width="0.6666666666666666"/><line x1="44.72910007319446" y1="378.3999999999999" x2="44.72910007319446" y2="626.9999999999999" stroke="#ffffff" stroke-width="1.3333333333333333"/><line x1="105.2113755215421" y1="378.3999999999999" x2="105.2113755215421" y2="626.9999999999999" stroke="#ffffff" stroke-width="1.3333333333333333"/><line x1="165.69365096988975" y1="378.3999999999999" x2="165.69365096988975" y2="626.9999999999999" stroke="#ffffff" stroke-width="1.3333333333333333"/><line x1="226.17592641823734" y1="378.3999999999999" x2="226.17592641823734" y2="626.9999999999999" stroke="#ffffff" stroke-width="1.3333333333333333"/><line x1="286.65820186658493" y1="378.3999999999999" x2="286.65820186658493" y2="626.9999999999999" stroke="#ffffff" stroke-width="1.3333333333333333"/><line x1="347.1404773149326" y1="378.3999999999999" x2="347.1404773149326" y2="626.9999999999999" stroke="#ffffff" stroke-width="1.3333333333333333"/><line x1="407.62275276328023" y1="378.3999999999999" x2="407.62275276328023" y2="626.9999999999999" stroke="#ffffff" stroke-width="1.3333333333333333"/><line x1="42.38666666666666" y1="597.3850869167495" x2="414.02296000000007" y2="597.3850869167495" stroke="#ffffff" stroke-width="0.6666666666666666"/><line x1="42.38666666666666" y1="538.1552607502488" x2="414.02296000000007" y2="538.1552607502488" stroke="#ffffff" stroke-width="0.6666666666666666"/><line x1="42.38666666666666" y1="478.92543458374803" x2="414.02296000000007" y2="478.92543458374803" stroke="#ffffff" stroke-width="0.6666666666666666"/><line x1="42.38666666666666" y1="419.69560841724734" x2="414.02296000000007" y2="419.69560841724734" stroke="#ffffff" stroke-width="0.6666666666666666"/><line x1="42.38666666666666" y1="626.9999999999999" x2="414.02296000000007" y2="626.9999999999999" stroke="#ffffff" stroke-width="1.3333333333333333"/><line x1="42.38666666666666" y1="567.7701738334991" x2="414.02296000000007" y2="567.7701738334991" stroke="#ffffff" stroke-width="1.3333333333333333"/><line x1="42.38666666666666" y1="508.5403476669984" x2="414.02296000000007" y2="508.5403476669984" stroke="#ffffff" stroke-width="1.3333333333333333"/><line x1="42.38666666666666" y1="449.31052150049766" x2="414.02296000000007" y2="449.31052150049766" stroke="#ffffff" stroke-width="1.3333333333333333"/><line x1="42.38666666666666" y1="390.080695333997" x2="414.02296000000007" y2="390.080695333997" stroke="#ffffff" stroke-width="1.3333333333333333"/><line x1="44.72910007319446" y1="626.9999999999999" x2="44.72910007319446" y2="630.6666666666665" stroke="#333333" stroke-width="1.3333333333333333"/><text x="44.72910007319446" y="642.9866666666666" fill="#4d4d4d" font-size="11.733333333333334" font-family="sans-serif" text-anchor="middle">-3</text><line x1="105.2113755215421" y1="626.9999999999999" x2="105.2113755215421" y2="630.6666666666665" stroke="#333333" stroke-width="1.3333333333333333"/><text x="105.2113755215421" y="642.9866666666666" fill="#4d4d4d" font-size="11.733333333333334" font-family="sans-serif" text-anchor="middle">-2</text><line x1="165.69365096988975" y1="626.9999999999999" x2="165.69365096988975" y2="630.6666666666665" stroke="#333333" stroke-width="1.3333333333333333"/><text x="165.69365096988975" y="642.9866666666666" fill="#4d4d4d" font-size="11.733333333333334" font-family="sans-serif" text-anchor="middle">-1</text><line x1="226.17592641823734" y1="626.9999999999999" x2="226.17592641823734" y2="630.6666666666665" stroke="#333333" stroke-width="1.3333333333333333"/><text x="226.17592641823734" y="642.9866666666666" fill="#4d4d4d" font-size="11.733333333333334" font-family="sans-serif" text-anchor="middle">0</text><line x1="286.65820186658493" y1="626.9999999999999" x2="286.65820186658493" y2="630.6666666666665" stroke="#333333" stroke-width="1.3333333333333333"/><text x="286.65820186658493" y="642.9866666666666" fill="#4d4d4d" font-size="11.733333333333334" font-family="sans-serif" text-anchor="middle">1</text><line x1="347.1404773149326" y1="626.9999999999999" x2="347.1404773149326" y2="630.6666666666665" stroke="#333333" stroke-width="1.3333333333333333"/><text x="347.1404773149326" y="642.9866666666666" fill="#4d4d4d" font-size="11.733333333333334" font-family="sans-serif" text-anchor="middle">2</text><line x1="407.62275276328023" y1="626.9999999999999" x2="407.62275276328023" y2="630.6666666666665" stroke="#333333" stroke-width="1.3333333333333333"/><text x="407.62275276328023" y="642.9866666666666" fill="#4d4d4d" font-size="11.733333333333334" font-family="sans-serif" text-anchor="middle">3</text><line x1="42.38666666666666" y1="626.9999999999999" x2="38.72" y2="626.9999999999999" stroke="#333333" stroke-width="1.3333333333333333"/><text x="35.78666666666666" y="631.1066666666666" fill="#4d4d4d" font-size="11.733333333333334" font-family="sans-serif" text-anchor="end">0.0</text><line x1="42.38666666666666" y1="567.7701738334991" x2="38.72" y2="567.7701738334991" stroke="#333333" stroke-width="1.3333333333333333"/><text x="35.78666666666666" y="571.8768405001658" fill="#4d4d4d" font-size="11.733333333333334" font-family="sans-serif" text-anchor="end">0.1</text><line x1="42.38666666666666" y1="508.5403476669984" x2="38.72" y2="508.5403476669984" stroke="#333333" stroke-width="1.3333333333333333"/><text x="35.78666666666666" y="512.6470143336651" fill="#4d4d4d" font-size="11.733333333333334" font-family="sans-serif" text-anchor="end">0.2</text><line x1="42.38666666666666" y1="449.31052150049766" x2="38.72" y2="449.31052150049766" stroke="#333333" stroke-width="1.3333333333333333"/><text x="35.78666666666666" y="453.41718816716434" fill="#4d4d4d" font-size="11.733333333333334" font-family="sans-serif" text-anchor="end">0.3</text><line x1="42.38666666666666" y1="390.080695333997" x2="38.72" y2="390.080695333997" stroke="#333333" stroke-width="1.3333333333333333"/><text x="35.78666666666666" y="394.18736200066365" fill="#4d4d4d" font-size="11.733333333333334" font-family="sans-serif" text-anchor="end">0.4</text><text x="42.38666666666666" y="367.5466666666666" fill="#000000" font-size="17.599999999999998" font-family="sans-serif" text-anchor="start">density</text><path d="M 42.38666666666666 625.0908110232529 L 46.14056861952862 624.4831233493653 L 49.89447057239057 623.7807865684292 L 53.648372525252526 622.9898796962186 L 57.40227447811447 622.1118118783183 L 61.15617643097643 621.1362818477608 L 64.9100783838384 620.0351205317284 L 68.66398033670033 618.7594867087103 L 72.4178822895623 617.2425480424401 L 76.17178424242424 615.4085419964861 L 79.9256861952862 613.1871785692045 L 83.67958814814814 610.530255862677 L 87.43349010101011 607.425840463658 L 91.18739205387206 603.9050972001864 L 94.94129400673401 600.0381988508449 L 98.69519595959596 595.9185601205204 L 102.44909791245792 591.6382332784149 L 106.20299986531987 587.2605909029212 L 109.95690181818182 582.7982271323541 L 113.71080377104377 578.203453074755 L 117.46470572390572 573.3756332862006 L 121.21860767676768 568.1845860072417 L 124.97250962962963 562.5038597785436 L 128.72641158249158 556.2438437847266 L 132.48031353535353 549.3740535914927 L 136.23421548821548 541.927232349924 L 139.98811744107743 533.9842949400427 L 143.7420193939394 525.6463785171811 L 147.49592134680134 517.0054503937879 L 151.2498232996633 508.12571136736676 L 155.00372525252527 499.04373974382065 L 158.7576272053872 489.78741885227373 L 162.51152915824915 480.40531881769476 L 166.2654311111111 470.9928906458016 L 170.01933306397308 461.70198764587104 L 173.773235016835 452.72610234915976 L 177.52713696969698 444.2632420088288 L 181.2810389225589 436.4679883647067 L 185.0349408754209 429.41023755401557 L 188.78884282828284 423.0578202205309 L 192.5427447811448 417.2932356740399 L 196.29664673400674 411.96309323464607 L 200.0505486868687 406.9464305438969 L 203.80445063973065 402.21943061718684 L 207.55835259259257 397.89279377494086 L 211.31225454545455 394.2053252913496 L 215.0661564983165 391.4712325951102 L 218.82005845117843 389.99457403504505 L 222.5739604040404 389.9765700416533 L 226.32786235690236 391.4454578144307 L 230.0817643097643 394.2325359362195 L 233.83566626262626 398.00392430034645 L 237.5895682154882 402.34016834030854 L 241.34347016835017 406.8410023127322 L 245.09737212121212 411.22511520582367 L 248.85127407407407 415.3967328798431 L 252.60517602693602 419.4612052516942 L 256.359077979798 423.6870102126928 L 260.1129799326599 428.42687347898436 L 263.8668818855219 434.0215256675886 L 267.6207838383839 440.7129720011868 L 271.3746857912458 448.58938435168466 L 275.12858774410773 457.5727261197274 L 278.8824896969696 467.44683298114916 L 282.63639164983164 477.9124058298744 L 286.39029360269365 488.64976114788703 L 290.14419555555554 499.371463988231 L 293.8980975084175 509.85370284166976 L 297.6519994612795 519.9441505946758 L 301.4059014141414 529.5515168795544 L 305.15980336700335 538.6257446008156 L 308.91370531986536 547.1375665110725 L 312.6676072727273 555.0633030207289 L 316.42150922558926 562.3773059292523 L 320.17541117845116 569.0517719935258 L 323.92931313131317 575.062193525691 L 327.6832150841751 580.3961271570503 L 331.437117037037 585.0627152807144 L 335.191018989899 589.1002661731291 L 338.944920942761 592.5793583418983 L 342.6988228956229 595.5996746373681 L 346.4527248484849 598.2801688285532 L 350.20662680134683 600.7439349508137 L 353.9605287542088 603.1007484077734 L 357.71443070707073 605.4311384556328 L 361.4683326599327 607.775719541128 L 365.22223461279464 610.1323591064565 L 368.9761365656566 612.4618883572089 L 372.73003851851854 614.7009614311041 L 376.48394047138055 616.7789016384268 L 380.23784242424244 618.6344406639121 L 383.9917443771044 620.2284470782563 L 387.7456463299664 621.5500158823681 L 391.49954828282836 622.6152595113531 L 395.25345023569025 623.4601679850211 L 399.0073521885522 624.1303395836316 L 402.7612541414142 624.6708046747028 L 406.51515609427616 625.1185459573901 L 410.2690580471381 625.4990080793134 L 414.02296000000007 625.8264419949454 L 414.02296000000007 626.9999999999999 L 42.38666666666666 626.9999999999999" fill="#000000" fill-opacity="0.5" stroke="none"/><path d="M 42.38666666666666 625.0908110232529 L 46.14056861952862 624.4831233493653 L 49.89447057239057 623.7807865684292 L 53.648372525252526 622.9898796962186 L 57.40227447811447 622.1118118783183 L 61.15617643097643 621.1362818477608 L 64.9100783838384 620.0351205317284 L 68.66398033670033 618.7594867087103 L 72.4178822895623 617.2425480424401 L 76.17178424242424 615.4085419964861 L 79.9256861952862 613.1871785692045 L 83.67958814814814 610.530255862677 L 87.43349010101011 607.425840463658 L 91.18739205387206 603.9050972001864 L 94.94129400673401 600.0381988508449 L 98.69519595959596 595.9185601205204 L 102.44909791245792 591.6382332784149 L 106.20299986531987 587.2605909029212 L 109.95690181818182 582.7982271323541 L 113.71080377104377 578.203453074755 L 117.46470572390572 573.3756332862006 L 121.21860767676768 568.1845860072417 L 124.97250962962963 562.5038597785436 L 128.72641158249158 556.2438437847266 L 132.48031353535353 549.3740535914927 L 136.23421548821548 541.927232349924 L 139.98811744107743 533.9842949400427 L 143.7420193939394 525.6463785171811 L 147.49592134680134 517.0054503937879 L 151.2498232996633 508.12571136736676 L 155.00372525252527 499.04373974382065 L 158.7576272053872 489.78741885227373 L 162.51152915824915 480.40531881769476 L 166.2654311111111 470.9928906458016 L 170.01933306397308 461.70198764587104 L 173.773235016835 452.72610234915976 L 177.52713696969698 444.2632420088288 L 181.2810389225589 436.4679883647067 L 185.0349408754209 429.41023755401557 L 188.78884282828284 423.0578202205309 L 192.5427447811448 417.2932356740399 L 196.29664673400674 411.96309323464607 L 200.0505486868687 406.9464305438969 L 203.80445063973065 402.21943061718684 L 207.55835259259257 397.89279377494086 L 211.31225454545455 394.2053252913496 L 215.0661564983165 391.4712325951102 L 218.82005845117843 389.99457403504505 L 222.5739604040404 389.9765700416533 L 226.32786235690236 391.4454578144307 L 230.0817643097643 394.2325359362195 L 233.83566626262626 398.00392430034645 L 237.5895682154882 402.34016834030854 L 241.34347016835017 406.8410023127322 L 245.09737212121212 411.22511520582367 L 248.85127407407407 415.3967328798431 L 252.60517602693602 419.4612052516942 L 256.359077979798 423.6870102126928 L 260.1129799326599 428.42687347898436 L 263.8668818855219 434.0215256675886 L 267.6207838383839 440.7129720011868 L 271.3746857912458 448.58938435168466 L 275.12858774410773 457.5727261197274 L 278.8824896969696 467.44683298114916 L 282.63639164983164 477.9124058298744 L 286.39029360269365 488.64976114788703 L 290.14419555555554 499.371463988231 L 293.8980975084175 509.85370284166976 L 297.6519994612795 519.9441505946758 L 301.4059014141414 529.5515168795544 L 305.15980336700335 538.6257446008156 L 308.91370531986536 547.1375665110725 L 312.6676072727273 555.0633030207289 L 316.42150922558926 562.3773059292523 L 320.17541117845116 569.0517719935258 L 323.92931313131317 575.062193525691 L 327.6832150841751 580.3961271570503 L 331.437117037037 585.0627152807144 L 335.191018989899 589.1002661731291 L 338.944920942761 592.5793583418983 L 342.6988228956229 595.5996746373681 L 346.4527248484849 598.2801688285532 L 350.20662680134683 600.7439349508137 L 353.9605287542088 603.1007484077734 L 357.71443070707073 605.4311384556328 L 361.4683326599327 607.775719541128 L 365.22223461279464 610.1323591064565 L 368.9761365656566 612.4618883572089 L 372.73003851851854 614.7009614311041 L 376.48394047138055 616.7789016384268 L 380.23784242424244 618.6344406639121 L 383.9917443771044 620.2284470782563 L 387.7456463299664 621.5500158823681 L 391.49954828282836 622.6152595113531 L 395.25345023569025 623.4601679850211 L 399.0073521885522 624.1303395836316 L 402.7612541414142 624.6708046747028 L 406.51515609427616 625.1185459573901 L 410.2690580471381 625.4990080793134 L 414.02296000000007 625.8264419949454" fill="" fill-opacity="0.0" stroke="#000000" stroke-width="1.8897637795275593"/><rect x="0.0" y="0.0" width="0.0" height="0.0" fill="#ffffff" fill-opacity="1.0" stroke="none"/><rect x="456.7029600000001" y="378.3999999999999" width="371.63629333333347" height="248.59999999999997" fill="#ebebeb" fill-opacity="1.0" stroke="none"/><line x1="526.384765" y1="378.3999999999999" x2="526.384765" y2="626.9999999999999" stroke="#ffffff" stroke-width="1.3333333333333333"/><line x1="642.5211066666668" y1="378.3999999999999" x2="642.5211066666668" y2="626.9999999999999" stroke="#ffffff" stroke-width="1.3333333333333333"/><line x1="758.6574483333335" y1="378.3999999999999" x2="758.6574483333335" y2="626.9999999999999" stroke="#ffffff" stroke-width="1.3333333333333333"/><line x1="456.7029600000001" y1="612.2244197729053" x2="828.3392533333335" y2="612.2244197729053" stroke="#ffffff" stroke-width="0.6666666666666666"/><line x1="456.7029600000001" y1="547.502314887749" x2="828.3392533333335" y2="547.502314887749" stroke="#ffffff" stroke-width="0.6666666666666666"/><line x1="456.7029600000001" y1="482.7802100025927" x2="828.3392533333335" y2="482.7802100025927" stroke="#ffffff" stroke-width="0.6666666666666666"/><line x1="456.7029600000001" y1="418.05810511743636" x2="828.3392533333335" y2="418.05810511743636" stroke="#ffffff" stroke-width="0.6666666666666666"/><line x1="456.7029600000001" y1="579.8633673303272" x2="828.3392533333335" y2="579.8633673303272" stroke="#ffffff" stroke-width="1.3333333333333333"/><line x1="456.7029600000001" y1="515.1412624451708" x2="828.3392533333335" y2="515.1412624451708" stroke="#ffffff" stroke-width="1.3333333333333333"/><line x1="456.7029600000001" y1="450.41915756001447" x2="828.3392533333335" y2="450.41915756001447" stroke="#ffffff" stroke-width="1.3333333333333333"/><line x1="456.7029600000001" y1="385.69705267485824" x2="828.3392533333335" y2="385.69705267485824" stroke="#ffffff" stroke-width="1.3333333333333333"/><line x1="526.384765" y1="626.9999999999999" x2="526.384765" y2="630.6666666666665" stroke="#333333" stroke-width="1.3333333333333333"/><text x="526.384765" y="642.9866666666666" fill="#4d4d4d" font-size="11.733333333333334" font-family="sans-serif" text-anchor="middle">A</text><line x1="642.5211066666668" y1="626.9999999999999" x2="642.5211066666668" y2="630.6666666666665" stroke="#333333" stroke-width="1.3333333333333333"/><text x="642.5211066666668" y="642.9866666666666" fill="#4d4d4d" font-size="11.733333333333334" font-family="sans-serif" text-anchor="middle">B</text><line x1="758.6574483333335" y1="626.9999999999999" x2="758.6574483333335" y2="630.6666666666665" stroke="#333333" stroke-width="1.3333333333333333"/><text x="758.6574483333335" y="642.9866666666666" fill="#4d4d4d" font-size="11.733333333333334" font-family="sans-serif" text-anchor="middle">C</text><line x1="456.7029600000001" y1="579.8633673303272" x2="453.0362933333334" y2="579.8633673303272" stroke="#333333" stroke-width="1.3333333333333333"/><text x="450.10296000000005" y="583.9700339969938" fill="#4d4d4d" font-size="11.733333333333334" font-family="sans-serif" text-anchor="end">2</text><line x1="456.7029600000001" y1="515.1412624451708" x2="453.0362933333334" y2="515.1412624451708" stroke="#333333" stroke-width="1.3333333333333333"/><text x="450.10296000000005" y="519.2479291118375" fill="#4d4d4d" font-size="11.733333333333334" font-family="sans-serif" text-anchor="end">4</text><line x1="456.7029600000001" y1="450.41915756001447" x2="453.0362933333334" y2="450.41915756001447" stroke="#333333" stroke-width="1.3333333333333333"/><text x="450.10296000000005" y="454.52582422668115" fill="#4d4d4d" font-size="11.733333333333334" font-family="sans-serif" text-anchor="end">6</text><line x1="456.7029600000001" y1="385.69705267485824" x2="453.0362933333334" y2="385.69705267485824" stroke="#333333" stroke-width="1.3333333333333333"/><text x="450.10296000000005" y="389.80371934152487" fill="#4d4d4d" font-size="11.733333333333334" font-family="sans-serif" text-anchor="end">8</text><text x="456.7029600000001" y="367.5466666666666" fill="#000000" font-size="17.599999999999998" font-family="sans-serif" text-anchor="start">boxplot</text><rect x="497.35067958333343" y="519.4775219261202" width="58.068170833333355" height="45.710434826222276" fill="#F8766D" fill-opacity="1.0" stroke="#333333" stroke-width="1.3333333333333333"/><line x1="497.35067958333343" y1="545.0829336338666" x2="555.4188504166667" y2="545.0829336338666" stroke="#333333" stroke-width="2.6666666666666665"/><line x1="526.384765" y1="565.1879567523424" x2="526.384765" y2="615.6999999999998" stroke="#333333" stroke-width="1.3333333333333333"/><line x1="526.384765" y1="519.4775219261202" x2="526.384765" y2="477.11903971812126" stroke="#333333" stroke-width="1.3333333333333333"/><line x1="511.8677222916667" y1="615.6999999999998" x2="540.9018077083334" y2="615.6999999999998" stroke="#333333" stroke-width="1.3333333333333333"/><line x1="511.8677222916667" y1="477.11903971812126" x2="540.9018077083334" y2="477.11903971812126" stroke="#333333" stroke-width="1.3333333333333333"/><rect x="613.4870212500001" y="449.4609968365324" width="58.068170833333355" height="61.75313275820796" fill="#00BA38" fill-opacity="1.0" stroke="#333333" stroke-width="1.3333333333333333"/><line x1="613.4870212500001" y1="480.35171794679155" x2="671.5551920833334" y2="480.35171794679155" stroke="#333333" stroke-width="2.6666666666666665"/><line x1="642.5211066666668" y1="511.21412959474037" x2="642.5211066666668" y2="577.337023796582" stroke="#333333" stroke-width="1.3333333333333333"/><line x1="642.5211066666668" y1="449.4609968365324" x2="642.5211066666668" y2="389.69999999999993" stroke="#333333" stroke-width="1.3333333333333333"/><line x1="628.0040639583334" y1="577.337023796582" x2="657.0381493750001" y2="577.337023796582" stroke="#333333" stroke-width="1.3333333333333333"/><line x1="628.0040639583334" y1="389.69999999999993" x2="657.0381493750001" y2="389.69999999999993" stroke="#333333" stroke-width="1.3333333333333333"/><rect x="729.6233629166668" y="502.8379721437532" width="58.068170833333355" height="31.64326229993685" fill="#619CFF" fill-opacity="1.0" stroke="#333333" stroke-width="1.3333333333333333"/><line x1="729.6233629166668" y1="515.1783396510003" x2="787.6915337500002" y2="515.1783396510003" stroke="#333333" stroke-width="2.6666666666666665"/><line x1="758.6574483333335" y1="534.48123444369" x2="758.6574483333335" y2="564.9020881262352" stroke="#333333" stroke-width="1.3333333333333333"/><line x1="758.6574483333335" y1="502.8379721437532" x2="758.6574483333335" y2="463.0610856547851" stroke="#333333" stroke-width="1.3333333333333333"/><line x1="744.1404056250001" y1="564.9020881262352" x2="773.1744910416669" y2="564.9020881262352" stroke="#333333" stroke-width="1.3333333333333333"/><line x1="744.1404056250001" y1="463.0610856547851" x2="773.1744910416669" y2="463.0610856547851" stroke="#333333" stroke-width="1.3333333333333333"/><rect x="843.0059200000002" y="468.0288799999999" width="23.114079999999994" height="69.34223999999998" fill="#ebebeb" fill-opacity="1.0" stroke="none"/><rect x="843.0059200000002" y="468.0288799999999" width="23.114079999999994" height="23.114079999999994" fill="#f2f2f2" fill-opacity="1.0" stroke="none"/><rect x="843.9508018897639" y="468.9737618897637" width="21.224316220472435" height="21.224316220472435" fill="#F8766D" fill-opacity="1.0" stroke="none"/><text x="869.7866666666669" y="483.3405866666665" fill="#4d4d4d" font-size="11.733333333333334" font-family="sans-serif" text-anchor="start">A</text><rect x="843.0059200000002" y="491.1429599999999" width="23.114079999999994" height="23.114079999999994" fill="#f2f2f2" fill-opacity="1.0" stroke="none"/><rect x="843.9508018897639" y="492.0878418897637" width="21.224316220472435" height="21.224316220472435" fill="#00BA38" fill-opacity="1.0" stroke="none"/><text x="869.7866666666669" y="506.4546666666665" fill="#4d4d4d" font-size="11.733333333333334" font-family="sans-serif" text-anchor="start">B</text><rect x="843.0059200000002" y="514.2570399999998" width="23.114079999999994" height="23.114079999999994" fill="#f2f2f2" fill-opacity="1.0" stroke="none"/><rect x="843.9508018897639" y="515.2019218897636" width="21.224316220472435" height="21.224316220472435" fill="#619CFF" fill-opacity="1.0" stroke="none"/><text x="869.7866666666669" y="529.5687466666665" fill="#4d4d4d" font-size="11.733333333333334" font-family="sans-serif" text-anchor="start">C</text></svg>