<svg xmlns="http://www.w3.org/2000/svg" width="624" height="384" viewBox="0 0 624 384"><rect x="0.0" y="0.0" width="624.0" height="384.0" fill="#ffffff" fill-opacity="1.0" stroke="none"/><rect x="39.306666666666665" y="32.266666666666666" width="520.36592" height="307.73333333333335" fill="#ebebeb" fill-opacity="1.0" stroke="none"/><line x1="136.87527666666665" y1="32.266666666666666" x2="136.87527666666665" y2="340.0" stroke="#ffffff" stroke-width="1.3333333333333333"/><line x1="299.48962666666665" y1="32.266666666666666" x2="299.48962666666665" y2="340.0" stroke="#ffffff" stroke-width="1.3333333333333333"/><line x1="462.10397666666665" y1="32.266666666666666" x2="462.10397666666665" y2="340.0" stroke="#ffffff" stroke-width="1.3333333333333333"/><line x1="39.306666666666665" y1="321.70982077547103" x2="559.6725866666667" y2="321.70982077547103" stroke="#ffffff" stroke-width="0.6666666666666666"/><line x1="39.306666666666665" y1="241.59256785246708" x2="559.6725866666667" y2="241.59256785246708" stroke="#ffffff" stroke-width="0.6666666666666666"/><line x1="39.306666666666665" y1="161.47531492946317" x2="559.6725866666667" y2="161.47531492946317" stroke="#ffffff" stroke-width="0.6666666666666666"/><line x1="39.306666666666665" y1="81.35806200645928" x2="559.6725866666667" y2="81.35806200645928" stroke="#ffffff" stroke-width="0.6666666666666666"/><line x1="39.306666666666665" y1="281.65119431396903" x2="559.6725866666667" y2="281.65119431396903" stroke="#ffffff" stroke-width="1.3333333333333333"/><line x1="39.306666666666665" y1="201.5339413909651" x2="559.6725866666667" y2="201.5339413909651" stroke="#ffffff" stroke-width="1.3333333333333333"/><line x1="39.306666666666665" y1="121.41668846796122" x2="559.6725866666667" y2="121.41668846796122" stroke="#ffffff" stroke-width="1.3333333333333333"/><line x1="39.306666666666665" y1="41.29943554495726" x2="559.6725866666667" y2="41.29943554495726" stroke="#ffffff" stroke-width="1.3333333333333333"/><line x1="136.87527666666665" y1="340.0" x2="136.87527666666665" y2="343.66666666666663" stroke="#333333" stroke-width="1.3333333333333333"/><text x="136.87527666666665" y="355.9866666666667" fill="#4d4d4d" font-size="11.733333333333334" font-family="sans-serif" text-anchor="middle">A</text><line x1="299.48962666666665" y1="340.0" x2="299.48962666666665" y2="343.66666666666663" stroke="#333333" stroke-width="1.3333333333333333"/><text x="299.48962666666665" y="355.9866666666667" fill="#4d4d4d" font-size="11.733333333333334" font-family="sans-serif" text-anchor="middle">B</text><line x1="462.10397666666665" y1="340.0" x2="462.10397666666665" y2="343.66666666666663" stroke="#333333" stroke-width="1.3333333333333333"/><text x="462.10397666666665" y="355.9866666666667" fill="#4d4d4d" font-size="11.733333333333334" font-family="sans-serif" text-anchor="middle">C</text><line x1="39.306666666666665" y1="281.65119431396903" x2="35.64" y2="281.65119431396903" stroke="#333333" stroke-width="1.3333333333333333"/><text x="32.70666666666666" y="285.7578609806357" fill="#4d4d4d" font-size="11.733333333333334" font-family="sans-serif" text-anchor="end">2</text><line x1="39.306666666666665" y1="201.5339413909651" x2="35.64" y2="201.5339413909651" stroke="#333333" stroke-width="1.3333333333333333"/><text x="32.70666666666666" y="205.6406080576318" fill="#4d4d4d" font-size="11.733333333333334" font-family="sans-serif" text-anchor="end">4</text><line x1="39.306666666666665" y1="121.41668846796122" x2="35.64" y2="121.41668846796122" stroke="#333333" stroke-width="1.3333333333333333"/><text x="32.70666666666666" y="125.52335513462789" fill="#4d4d4d" font-size="11.733333333333334" font-family="sans-serif" text-anchor="end">6</text><line x1="39.306666666666665" y1="41.29943554495726" x2="35.64" y2="41.29943554495726" stroke="#333333" stroke-width="1.3333333333333333"/><text x="32.70666666666666" y="45.40610221162393" fill="#4d4d4d" font-size="11.733333333333334" font-family="sans-serif" text-anchor="end">8</text><text x="39.306666666666665" y="21.413333333333334" fill="#000000" font-size="17.599999999999998" font-family="sans-serif" text-anchor="start">Violin</text><text x="299.48962666666665" y="373.73333333333335" fill="#000000" font-size="14.666666666666666" font-family="sans-serif" text-anchor="middle">group</text><text x="17.599999999999998" y="186.13333333333333" fill="#000000" font-size="14.666666666666666" font-family="sans-serif" text-anchor="middle" transform="rotate(-90.0 17.599999999999998 186.13333333333333)">value</text><path d="M 145.24454877003276 326.0121212121212 L 148.12369895188652 320.29396877928707 L 151.49686074223365 314.57581634645294 L 155.3432357286851 308.85766391361886 L 159.59534981506818 303.13951148078473 L 164.13024916292588 297.42135904795066 L 168.78745022995068 291.7032066151165 L 173.4055538688644 285.9850541822824 L 177.8505302498445 280.26690174944827 L 182.01290455069693 274.5487493166142 L 185.77832052826273 268.83059688378006 L 189.00117473596862 263.112444450946 L 191.509040612908 257.39429201811186 L 193.1397471955386 251.67613958527772 L 193.79029916666664 245.95798715244365 L 193.45507024180455 240.23983471960952 L 192.24152063431876 234.5216822867754 L 190.3594791974249 228.80352985394126 L 188.0833678712194 223.08537742110713 L 185.6923182003909 217.36722498827308 L 183.40016995844894 211.64907255543895 L 181.29105592286834 205.93092012260482 L 179.27936491097864 200.21276768977077 L 177.11858992571345 194.49461525693664 L 174.4801079550058 188.77646282410245 L 171.09274339841426 183.05831039126838 L 166.88559988728798 177.3401579584343 L 162.05276960826433 171.62200552560017 L 156.99482291182903 165.903853092766 L 152.16972159205025 160.1857006599319 L 147.94117000575105 154.46754822709784 L 125.80938332758228 154.46754822709784 L 121.58083174128308 160.1857006599319 L 116.7557304215043 165.903853092766 L 111.69778372506899 171.62200552560017 L 106.86495344604533 177.3401579584343 L 102.65780993491907 183.05831039126838 L 99.27044537832757 188.77646282410245 L 96.63196340761988 194.49461525693664 L 94.47118842235469 200.21276768977077 L 92.45949741046499 205.93092012260482 L 90.35038337488439 211.64907255543895 L 88.05823513294243 217.36722498827308 L 85.66718546211393 223.08537742110713 L 83.39107413590844 228.80352985394126 L 81.50903269901457 234.5216822867754 L 80.29548309152875 240.23983471960952 L 79.96025416666666 245.95798715244365 L 80.61080613779471 251.67613958527772 L 82.24151272042533 257.39429201811186 L 84.74937859736471 263.112444450946 L 87.9722328050706 268.83059688378006 L 91.7376487826364 274.5487493166142 L 95.90002308348883 280.26690174944827 L 100.34499946446893 285.9850541822824 L 104.96310310338265 291.7032066151165 L 109.62030417040745 297.42135904795066 L 114.15520351826515 303.13951148078473 L 118.40731760464821 308.85766391361886 L 122.25369259109966 314.57581634645294 L 125.6268543814468 320.29396877928707 L 128.50600456330056 326.0121212121212 Z" fill="#F8766D" fill-opacity="0.5" stroke="#F8766D" stroke-width="1.3333333333333333"/><path d="M 309.5641836331172 278.5239211169276 L 311.58772216257165 270.7816085948482 L 313.4653761960442 263.0392960727688 L 315.3250084767468 255.2969835506894 L 317.37832165015 247.55467102861 L 319.79661905319233 239.8123585065306 L 322.6146831119454 232.07004598445116 L 325.737443069446 224.32773346237175 L 329.0522542064949 216.58542094029235 L 332.55879685862544 208.84310841821298 L 336.3933852294664 201.10079589613352 L 340.6910985203301 193.35848337405415 L 345.36244907493335 185.61617085197477 L 349.95610553640404 177.8738583298953 L 353.74464301810735 170.13154580781597 L 356.01704189063855 162.38923328573654 L 356.4046491666666 154.64692076365714 L 355.0325398351529 146.90460824157768 L 352.4054483054508 139.1622957194983 L 349.1157997102896 131.4199831974189 L 345.5669718631771 123.67767067533953 L 341.86920624005467 115.93535815326007 L 337.9319430043432 108.1930456311807 L 333.6524086968387 100.45073310910125 L 329.06606370959685 92.70842058702188 L 324.37938916110363 84.96610806494246 L 319.8909758798571 77.22379554286309 L 315.86607705398774 69.48148302078364 L 312.4410865791781 61.73917049870427 L 309.6049233449678 53.996857976624824 L 307.2544011238373 46.25454545454541 L 291.724852209496 46.25454545454541 L 289.3743299883655 53.996857976624824 L 286.5381667541552 61.73917049870427 L 283.11317627934557 69.48148302078364 L 279.0882774534762 77.22379554286309 L 274.5998641722297 84.96610806494246 L 269.91318962373646 92.70842058702188 L 265.3268446364946 100.45073310910125 L 261.0473103289901 108.1930456311807 L 257.11004709327864 115.93535815326007 L 253.4122814701562 123.67767067533953 L 249.86345362304374 131.4199831974189 L 246.5738050278825 139.1622957194983 L 243.9467134981805 146.90460824157768 L 242.57460416666666 154.64692076365714 L 242.96221144269478 162.38923328573654 L 245.23461031522598 170.13154580781597 L 249.0231477969293 177.8738583298953 L 253.61680425839995 185.61617085197477 L 258.2881548130032 193.35848337405415 L 262.5858681038669 201.10079589613352 L 266.42045647470786 208.84310841821298 L 269.9269991268384 216.58542094029235 L 273.2418102638873 224.32773346237175 L 276.3645702213879 232.07004598445116 L 279.182634280141 239.8123585065306 L 281.6009316831833 247.55467102861 L 283.6542448565865 255.2969835506894 L 285.5138771372891 263.0392960727688 L 287.39153117076165 270.7816085948482 L 289.4150697002161 278.5239211169276 Z" fill="#00BA38" fill-opacity="0.5" stroke="#00BA38" stroke-width="1.3333333333333333"/><path d="M 472.6956022818793 263.1311447548142 L 476.4023494354538 258.9289630491897 L 480.5869960531529 254.72678134356516 L 485.2759553436118 250.52459963794064 L 490.56850896360993 246.32241793231617 L 496.5047628585538 242.12023622669167 L 502.87100557072074 237.91805452106715 L 509.08238181588814 233.71587281544262 L 514.2781557218623 229.5136911098181 L 517.6482319160311 225.3115094041936 L 518.8457004259747 221.10932769856907 L 518.2407588170483 216.9071459929446 L 516.8213620133082 212.70496428732008 L 515.7413196595729 208.50278258169556 L 515.747075019103 204.30060087607103 L 516.8180949709379 200.09841917044656 L 518.2358978920545 195.89623746482204 L 519.0189991666666 191.69405575919748 L 518.4274124315955 187.49187405357299 L 516.2303072564187 183.28969234794846 L 512.6407502720305 179.087510642324 L 508.06445796131413 174.8853289366994 L 502.88757904408476 170.68314723107497 L 497.4150740326198 166.48096552545047 L 491.9109378852669 162.27878381982592 L 486.6328098010611 158.07660211420136 L 481.81028138704534 153.8744204085769 L 477.5952459580225 149.67223870295243 L 474.03589960796677 145.47005699732784 L 471.0951982158322 141.2678752917034 L 468.6963467453102 137.06569358607888 L 455.51160658802314 137.06569358607888 L 453.11275511750114 141.2678752917034 L 450.1720537253666 145.47005699732784 L 446.61270737531083 149.67223870295243 L 442.397671946288 153.8744204085769 L 437.57514353227225 158.07660211420136 L 432.2970154480664 162.27878381982592 L 426.7928793007135 166.48096552545047 L 421.3203742892486 170.68314723107497 L 416.1434953720192 174.8853289366994 L 411.56720306130285 179.087510642324 L 407.97764607691465 183.28969234794846 L 405.7805409017378 187.49187405357299 L 405.1889541666667 191.69405575919748 L 405.9720554412788 195.89623746482204 L 407.3898583623955 200.09841917044656 L 408.46087831423034 204.30060087607103 L 408.4666336737604 208.50278258169556 L 407.3865913200251 212.70496428732008 L 405.96719451628496 216.9071459929446 L 405.36225290735865 221.10932769856907 L 406.55972141730217 225.3115094041936 L 409.9297976114711 229.5136911098181 L 415.1255715174452 233.71587281544262 L 421.33694776261257 237.91805452106715 L 427.7031904747795 242.12023622669167 L 433.63944436972344 246.32241793231617 L 438.9319979897215 250.52459963794064 L 443.62095728018045 254.72678134356516 L 447.80560389787956 258.9289630491897 L 451.51235105145406 263.1311447548142 Z" fill="#619CFF" fill-opacity="0.5" stroke="#619CFF" stroke-width="1.3333333333333333"/><rect x="574.3392533333333" y="151.46221333333335" width="23.114079999999994" height="69.34223999999998" fill="#ebebeb" fill-opacity="1.0" stroke="none"/><rect x="574.3392533333333" y="151.46221333333335" width="23.114079999999994" height="23.114079999999994" fill="#f2f2f2" fill-opacity="1.0" stroke="none"/><rect x="575.2841352230971" y="152.40709522309712" width="21.224316220472435" height="21.224316220472435" fill="#F8766D" fill-opacity="1.0" stroke="none"/><text x="601.12" y="166.77392" fill="#4d4d4d" font-size="11.733333333333334" font-family="sans-serif" text-anchor="start">A</text><rect x="574.3392533333333" y="174.57629333333333" width="23.114079999999994" height="23.114079999999994" fill="#f2f2f2" fill-opacity="1.0" stroke="none"/><rect x="575.2841352230971" y="175.5211752230971" width="21.224316220472435" height="21.224316220472435" fill="#00BA38" fill-opacity="1.0" stroke="none"/><text x="601.12" y="189.88799999999998" fill="#4d4d4d" font-size="11.733333333333334" font-family="sans-serif" text-anchor="start">B</text><rect x="574.3392533333333" y="197.69037333333335" width="23.114079999999994" height="23.114079999999994" fill="#f2f2f2" fill-opacity="1.0" stroke="none"/><rect x="575.2841352230971" y="198.63525522309715" width="21.224316220472435" height="21.224316220472435" fill="#619CFF" fill-opacity="1.0" stroke="none"/><text x="601.12" y="213.00208" fill="#4d4d4d" font-size="11.733333333333334" font-family="sans-serif" text-anchor="start">C</text></svg>