<svg xmlns="http://www.w3.org/2000/svg" width="700" height="620" viewBox="0 0 700 620"><rect x="0" y="0" width="700" height="620" fill="#fafafa"/><text x="20" y="30" text-anchor="start" font-family="sans-serif" font-size="16" fill="#333">DoE 応答 3D 棒 + 誤差棒 + 値ラベル</text><path d="M 223.10449038578662 381.5883488884681 L 350.0 334.6582090615835 L 350.0 202.40054227672672 L 209.50854292712094 230.74147087348172 Z" fill="#eaeaea" fill-opacity="1.0" stroke="none"/><path d="M 350.0 334.6582090615835 L 476.8955096142133 381.5883488884681 L 490.4914570728791 230.74147087348172 L 350.0 202.40054227672672 Z" fill="#eaeaea" fill-opacity="1.0" stroke="none"/><path d="M 223.10449038578662 381.5883488884681 L 350.0 446.5685424949238 L 476.8955096142133 381.5883488884681 L 350.0 334.6582090615835 Z" fill="#eaeaea" fill-opacity="1.0" stroke="none"/><line x1="223.10449038578662" y1="381.5883488884681" x2="209.50854292712094" y2="230.74147087348172" stroke="#ffffff" stroke-width="1.0"/><line x1="258.51719074324154" y1="368.49156568096544" x2="249.13433851177916" y2="222.74787562824312" stroke="#ffffff" stroke-width="1.0"/><line x1="291.28715226805053" y1="356.3721543546196" x2="285.512118064908" y2="215.40949310802404" stroke="#ffffff" stroke-width="1.0"/><line x1="321.6995626040243" y1="345.1246431236944" x2="319.02550552723926" y2="208.64893598309789" stroke="#ffffff" stroke-width="1.0"/><line x1="350.0" y1="334.6582090615835" x2="350.0" y2="202.40054227672672" stroke="#ffffff" stroke-width="1.0"/><line x1="223.10449038578662" y1="381.5883488884681" x2="350.0" y2="334.6582090615835" stroke="#ffffff" stroke-width="1.0"/><line x1="219.9583207259301" y1="346.6816333147523" x2="350.0" y2="303.7042870481064" stroke="#ffffff" stroke-width="1.0"/><line x1="216.6521763376063" y1="310.0" x2="350.0" y2="271.4045423383911" stroke="#ffffff" stroke-width="1.0"/><line x1="213.1735374594569" y1="271.40454233839114" x2="350.0" y2="237.66925341935513" stroke="#ffffff" stroke-width="1.0"/><line x1="209.50854292712094" y1="230.74147087348172" x2="350.0" y2="202.40054227672672" stroke="#ffffff" stroke-width="1.0"/><line x1="350.0" y1="334.6582090615835" x2="350.0" y2="202.40054227672672" stroke="#ffffff" stroke-width="1.0"/><line x1="378.3004373959757" y1="345.1246431236944" x2="380.97449447276074" y2="208.64893598309789" stroke="#ffffff" stroke-width="1.0"/><line x1="408.71284773194947" y1="356.3721543546196" x2="414.48788193509205" y2="215.40949310802404" stroke="#ffffff" stroke-width="1.0"/><line x1="441.48280925675846" y1="368.49156568096544" x2="450.86566148822084" y2="222.74787562824312" stroke="#ffffff" stroke-width="1.0"/><line x1="476.8955096142133" y1="381.5883488884681" x2="490.4914570728791" y2="230.74147087348172" stroke="#ffffff" stroke-width="1.0"/><line x1="350.0" y1="334.6582090615835" x2="476.8955096142133" y2="381.5883488884681" stroke="#ffffff" stroke-width="1.0"/><line x1="350.0" y1="303.7042870481064" x2="480.04167927406985" y2="346.6816333147523" stroke="#ffffff" stroke-width="1.0"/><line x1="350.0" y1="271.4045423383911" x2="483.3478236623937" y2="310.0" stroke="#ffffff" stroke-width="1.0"/><line x1="350.0" y1="237.66925341935513" x2="486.8264625405431" y2="271.40454233839114" stroke="#ffffff" stroke-width="1.0"/><line x1="350.0" y1="202.40054227672672" x2="490.4914570728791" y2="230.74147087348172" stroke="#ffffff" stroke-width="1.0"/><line x1="223.10449038578662" y1="381.5883488884681" x2="350.0" y2="334.6582090615835" stroke="#ffffff" stroke-width="1.0"/><line x1="250.82955971326183" y1="395.78570211340804" x2="378.3004373959757" y2="345.1246431236944" stroke="#ffffff" stroke-width="1.0"/><line x1="280.9866526659541" y1="411.22843720018477" x2="408.71284773194947" y2="356.3721543546196" stroke="#ffffff" stroke-width="1.0"/><line x1="313.9104513941228" y1="428.0879369738218" x2="441.48280925675846" y2="368.49156568096544" stroke="#ffffff" stroke-width="1.0"/><line x1="350.0" y1="446.5685424949238" x2="476.8955096142133" y2="381.5883488884681" stroke="#ffffff" stroke-width="1.0"/><line x1="223.10449038578662" y1="381.5883488884681" x2="350.0" y2="446.5685424949238" stroke="#ffffff" stroke-width="1.0"/><line x1="258.51719074324154" y1="368.49156568096544" x2="386.0895486058772" y2="428.0879369738218" stroke="#ffffff" stroke-width="1.0"/><line x1="291.28715226805053" y1="356.3721543546196" x2="419.0133473340459" y2="411.22843720018477" stroke="#ffffff" stroke-width="1.0"/><line x1="321.6995626040243" y1="345.1246431236944" x2="449.1704402867382" y2="395.78570211340804" stroke="#ffffff" stroke-width="1.0"/><line x1="350.0" y1="334.6582090615835" x2="476.8955096142133" y2="381.5883488884681" stroke="#ffffff" stroke-width="1.0"/><line x1="223.10449038578662" y1="381.5883488884681" x2="350.0" y2="446.5685424949238" stroke="#bbbbbb" stroke-width="1.0"/><line x1="350.0" y1="446.5685424949238" x2="476.8955096142133" y2="381.5883488884681" stroke="#bbbbbb" stroke-width="1.0"/><line x1="476.8955096142133" y1="381.5883488884681" x2="350.0" y2="334.6582090615835" stroke="#bbbbbb" stroke-width="1.0"/><line x1="350.0" y1="334.6582090615835" x2="223.10449038578662" y2="381.5883488884681" stroke="#bbbbbb" stroke-width="1.0"/><line x1="209.50854292712094" y1="230.74147087348172" x2="350.0" y2="271.40454233839114" stroke="#bbbbbb" stroke-width="1.0"/><line x1="350.0" y1="271.40454233839114" x2="490.4914570728791" y2="230.74147087348172" stroke="#bbbbbb" stroke-width="1.0"/><line x1="490.4914570728791" y1="230.74147087348172" x2="350.0" y2="202.40054227672672" stroke="#bbbbbb" stroke-width="1.0"/><line x1="350.0" y1="202.40054227672672" x2="209.50854292712094" y2="230.74147087348172" stroke="#bbbbbb" stroke-width="1.0"/><line x1="223.10449038578662" y1="381.5883488884681" x2="209.50854292712094" y2="230.74147087348172" stroke="#bbbbbb" stroke-width="1.0"/><line x1="350.0" y1="446.5685424949238" x2="350.0" y2="271.40454233839114" stroke="#bbbbbb" stroke-width="1.0"/><line x1="476.8955096142133" y1="381.5883488884681" x2="490.4914570728791" y2="230.74147087348172" stroke="#bbbbbb" stroke-width="1.0"/><line x1="350.0" y1="334.6582090615835" x2="350.0" y2="202.40054227672672" stroke="#bbbbbb" stroke-width="1.0"/><line x1="223.10449038578662" y1="381.5883488884681" x2="228.96120621413496" y2="379.4223424349196" stroke="#888888" stroke-width="1.0"/><text x="217.1717133129143" y="393.78248529595885" fill="#444444" font-size="9.0" font-family="sans-serif" text-anchor="middle">0</text><line x1="250.82955971326183" y1="395.78570211340804" x2="256.7455703970338" y2="393.43448768951146" stroke="#888888" stroke-width="1.0"/><text x="244.8334676665961" y="408.1687434669005" fill="#444444" font-size="9.0" font-family="sans-serif" text-anchor="middle">0.5</text><line x1="280.9866526659541" y1="411.22843720018477" x2="286.9501753624153" y2="408.66720308823153" stroke="#888888" stroke-width="1.0"/><text x="274.9388398960448" y="423.82587250099954" fill="#444444" font-size="9.0" font-family="sans-serif" text-anchor="middle">1</text><line x1="313.9104513941228" y1="428.0879369738218" x2="319.90565509695705" y2="425.28723318628863" stroke="#888888" stroke-width="1.0"/><text x="307.8265940320969" y="440.9300559744792" fill="#444444" font-size="9.0" font-family="sans-serif" text-anchor="middle">1.5</text><line x1="350.0" y1="446.5685424949238" x2="356.00574167639786" y2="443.49314401889313" stroke="#888888" stroke-width="1.0"/><text x="343.9011460495494" y="459.6916215674822" fill="#444444" font-size="9.0" font-family="sans-serif" text-anchor="middle">2</text><line x1="350.0" y1="446.5685424949238" x2="343.9942583236021" y2="443.49314401889313" stroke="#888888" stroke-width="1.0"/><text x="356.0988539504506" y="453.6916215674822" fill="#444444" font-size="9.0" font-family="sans-serif" text-anchor="middle">0</text><line x1="386.0895486058772" y1="428.0879369738218" x2="380.09434490304295" y2="425.28723318628863" stroke="#888888" stroke-width="1.0"/><text x="392.1734059679031" y="434.9300559744792" fill="#444444" font-size="9.0" font-family="sans-serif" text-anchor="middle">0.5</text><line x1="419.0133473340459" y1="411.22843720018477" x2="413.0498246375848" y2="408.66720308823153" stroke="#888888" stroke-width="1.0"/><text x="425.06116010395516" y="417.82587250099954" fill="#444444" font-size="9.0" font-family="sans-serif" text-anchor="middle">1</text><line x1="449.1704402867382" y1="395.78570211340804" x2="443.2544296029661" y2="393.43448768951146" stroke="#888888" stroke-width="1.0"/><text x="455.16653233340395" y="402.1687434669005" fill="#444444" font-size="9.0" font-family="sans-serif" text-anchor="middle">1.5</text><line x1="476.8955096142133" y1="381.5883488884681" x2="471.03879378586504" y2="379.4223424349196" stroke="#888888" stroke-width="1.0"/><text x="482.82828668708567" y="387.78248529595885" fill="#444444" font-size="9.0" font-family="sans-serif" text-anchor="middle">2</text><line x1="223.10449038578662" y1="381.5883488884681" x2="233.2561311549237" y2="381.5883488884681" stroke="#888888" stroke-width="1.0"/><text x="212.95284961664956" y="385.5883488884681" fill="#444444" font-size="9.0" font-family="sans-serif" text-anchor="middle">0</text><line x1="219.9583207259301" y1="346.6816333147523" x2="230.36165506785568" y2="346.6816333147523" stroke="#888888" stroke-width="1.0"/><text x="209.5549863840045" y="350.6816333147523" fill="#444444" font-size="9.0" font-family="sans-serif" text-anchor="middle">2.6</text><line x1="216.6521763376063" y1="310.0" x2="227.32000223059777" y2="310.0" stroke="#888888" stroke-width="1.0"/><text x="205.9843504446148" y="314.0" fill="#444444" font-size="9.0" font-family="sans-serif" text-anchor="middle">5.3</text><line x1="213.1735374594569" y1="271.40454233839114" x2="224.11965446270034" y2="271.40454233839114" stroke="#888888" stroke-width="1.0"/><text x="202.22742045621345" y="275.40454233839114" fill="#444444" font-size="9.0" font-family="sans-serif" text-anchor="middle">8</text><line x1="209.50854292712094" y1="230.74147087348172" x2="220.74785949295125" y2="230.74147087348172" stroke="#888888" stroke-width="1.0"/><text x="198.26922636129055" y="234.74147087348172" fill="#444444" font-size="9.0" font-family="sans-serif" text-anchor="middle">10.6</text><text x="262.58309337687524" y="433.13246074997585" fill="#333333" font-size="11.0" font-family="sans-serif" text-anchor="middle" font-weight="bold">factor X</text><text x="437.41690662312476" y="419.13246074997585" fill="#333333" font-size="11.0" font-family="sans-serif" text-anchor="middle" font-weight="bold">factor Y</text><text x="195.3165245516233" y="310.0" fill="#333333" font-size="11.0" font-family="sans-serif" text-anchor="middle" font-weight="bold">response</text><path d="M 358.74169066231246 334.6582090615835 L 350.0 331.46077096348796 L 350.0 247.53722303189627 L 359.25077414514266 249.93407975680833 Z" fill="#43729c" fill-opacity="1.0" stroke="#33333355" stroke-width="0.3"/><path d="M 350.0 331.46077096348796 L 341.25830933768754 334.6582090615835 L 340.74922585485734 249.93407975680833 L 350.0 247.53722303189627 Z" fill="#325575" fill-opacity="1.0" stroke="#33333355" stroke-width="0.3"/><path d="M 341.25830933768754 334.6582090615835 L 350.0 337.9274997012092 L 350.0 252.38797247068447 L 340.74922585485734 249.93407975680833 Z" fill="#325575" fill-opacity="1.0" stroke="#33333355" stroke-width="0.3"/><path d="M 350.0 337.9274997012092 L 358.74169066231246 334.6582090615835 L 359.25077414514266 249.93407975680833 L 350.0 252.38797247068447 Z" fill="#43729c" fill-opacity="1.0" stroke="#33333355" stroke-width="0.3"/><path d="M 340.74922585485734 249.93407975680833 L 350.0 252.38797247068447 L 359.25077414514266 249.93407975680833 L 350.0 247.53722303189627 Z" fill="#325575" fill-opacity="1.0" stroke="#33333355" stroke-width="0.3"/><path d="M 300.68120790516247 356.3721543546196 L 291.9799292324393 352.68270524288255 L 289.18757370897424 283.53277427082537 L 298.27789996197043 286.5361046673296 Z" fill="#43729c" fill-opacity="1.0" stroke="#33333355" stroke-width="0.3"/><path d="M 291.9799292324393 352.68270524288255 L 281.8930966309386 356.3721543546196 L 278.5742428046258 286.5361046673296 L 289.18757370897424 283.53277427082537 Z" fill="#325575" fill-opacity="1.0" stroke="#33333355" stroke-width="0.3"/><path d="M 281.8930966309386 356.3721543546196 L 290.57763144953753 360.15077444186704 L 287.64525592291164 289.6156051851473 L 278.5742428046258 286.5361046673296 Z" fill="#325575" fill-opacity="1.0" stroke="#33333355" stroke-width="0.3"/><path d="M 290.57763144953753 360.15077444186704 L 300.68120790516247 356.3721543546196 L 298.27789996197043 286.5361046673296 L 287.64525592291164 289.6156051851473 Z" fill="#43729c" fill-opacity="1.0" stroke="#33333355" stroke-width="0.3"/><path d="M 408.0200707675607 352.68270524288255 L 399.31879209483753 356.3721543546196 L 402.9897218543928 249.70116622217319 L 412.28395838446335 247.09173306769495 Z" fill="#325575" fill-opacity="1.0" stroke="#33333355" stroke-width="0.3"/><path d="M 418.1069033690614 356.3721543546196 L 408.0200707675607 352.68270524288255 L 412.28395838446335 247.09173306769495 L 423.1762825608281 249.70116622217319 Z" fill="#43729c" fill-opacity="1.0" stroke="#33333355" stroke-width="0.3"/><path d="M 399.31879209483753 356.3721543546196 L 409.42236855046247 360.15077444186704 L 413.90281441063956 252.3784225641399 L 402.9897218543928 249.70116622217319 Z" fill="#325575" fill-opacity="1.0" stroke="#33333355" stroke-width="0.3"/><path d="M 409.42236855046247 360.15077444186704 L 418.1069033690614 356.3721543546196 L 423.1762825608281 249.70116622217319 L 413.90281441063956 252.3784225641399 Z" fill="#43729c" fill-opacity="1.0" stroke="#33333355" stroke-width="0.3"/><path d="M 278.5742428046258 286.5361046673296 L 287.64525592291164 289.6156051851473 L 298.27789996197043 286.5361046673296 L 289.18757370897424 283.53277427082537 Z" fill="#325575" fill-opacity="1.0" stroke="#33333355" stroke-width="0.3"/><path d="M 402.9897218543928 249.70116622217319 L 413.90281441063956 252.3784225641399 L 423.1762825608281 249.70116622217319 L 412.28395838446335 247.09173306769495 Z" fill="#325575" fill-opacity="1.0" stroke="#33333355" stroke-width="0.3"/><path d="M 233.2561311549237 381.5883488884681 L 224.72099369297405 377.28392842026983 L 220.03533082149823 324.464755675921 L 228.83122140716335 328.22495552877615 Z" fill="#43729c" fill-opacity="1.0" stroke="#33333355" stroke-width="0.3"/><path d="M 224.72099369297405 377.28392842026983 L 212.95284961664956 381.5883488884681 L 207.75839034753963 328.22495552877615 L 220.03533082149823 324.464755675921 Z" fill="#325575" fill-opacity="1.0" stroke="#33333355" stroke-width="0.3"/><path d="M 212.95284961664956 381.5883488884681 L 221.4457255542283 386.0053032251161 L 216.50702887940034 332.0872378978056 L 207.75839034753963 328.22495552877615 Z" fill="#325575" fill-opacity="1.0" stroke="#33333355" stroke-width="0.3"/><path d="M 221.4457255542283 386.0053032251161 L 233.2561311549237 381.5883488884681 L 228.83122140716335 328.22495552877615 L 216.50702887940034 332.0872378978056 Z" fill="#43729c" fill-opacity="1.0" stroke="#33333355" stroke-width="0.3"/><path d="M 360.1516407691371 381.5883488884681 L 350.0 377.28392842026983 L 350.0 280.73117915740806 L 360.85528524809126 284.0017580997297 Z" fill="#43729c" fill-opacity="1.0" stroke="#33333355" stroke-width="0.3"/><path d="M 350.0 377.28392842026983 L 339.8483592308629 381.5883488884681 L 339.14471475190874 284.0017580997297 L 350.0 280.73117915740806 Z" fill="#325575" fill-opacity="1.0" stroke="#33333355" stroke-width="0.3"/><path d="M 207.75839034753963 328.22495552877615 L 216.50702887940034 332.0872378978056 L 228.83122140716335 328.22495552877615 L 220.03533082149823 324.464755675921 Z" fill="#325575" fill-opacity="1.0" stroke="#33333355" stroke-width="0.3"/><path d="M 487.04715038335047 381.5883488884681 L 475.27900630702595 377.28392842026983 L 486.87586810409175 246.55820970064133 L 499.9124288148101 249.42157693925233 Z" fill="#43729c" fill-opacity="1.0" stroke="#33333355" stroke-width="0.3"/><path d="M 475.27900630702595 377.28392842026983 L 466.7438688450763 381.5883488884681 L 477.7031801015049 249.42157693925233 L 486.87586810409175 246.55820970064133 Z" fill="#325575" fill-opacity="1.0" stroke="#33333355" stroke-width="0.3"/><path d="M 339.8483592308629 381.5883488884681 L 350.0 386.0053032251161 L 350.0 287.3638519547119 L 339.14471475190874 284.0017580997297 Z" fill="#325575" fill-opacity="1.0" stroke="#33333355" stroke-width="0.3"/><path d="M 350.0 386.0053032251161 L 360.1516407691371 381.5883488884681 L 360.85528524809126 284.0017580997297 L 350.0 287.3638519547119 Z" fill="#43729c" fill-opacity="1.0" stroke="#33333355" stroke-width="0.3"/><path d="M 466.7438688450763 381.5883488884681 L 478.5542744457717 386.0053032251161 L 490.7950582767103 252.36693146238326 L 477.7031801015049 249.42157693925233 Z" fill="#325575" fill-opacity="1.0" stroke="#33333355" stroke-width="0.3"/><path d="M 478.5542744457717 386.0053032251161 L 487.04715038335047 381.5883488884681 L 499.9124288148101 249.42157693925233 L 490.7950582767103 252.36693146238326 Z" fill="#43729c" fill-opacity="1.0" stroke="#33333355" stroke-width="0.3"/><path d="M 339.14471475190874 284.0017580997297 L 350.0 287.3638519547119 L 360.85528524809126 284.0017580997297 L 350.0 280.73117915740806 Z" fill="#325575" fill-opacity="1.0" stroke="#33333355" stroke-width="0.3"/><path d="M 477.7031801015049 249.42157693925233 L 490.7950582767103 252.36693146238326 L 499.9124288148101 249.42157693925233 L 486.87586810409175 246.55820970064133 Z" fill="#325575" fill-opacity="1.0" stroke="#33333355" stroke-width="0.3"/><path d="M 281.9418547051797 406.1414185833642 L 269.94451709250677 411.22843720018477 L 264.87236400438684 323.90441778129417 L 277.69323635425104 319.7839230849609 Z" fill="#325575" fill-opacity="1.0" stroke="#33333355" stroke-width="0.3"/><path d="M 292.0287882394015 411.22843720018477 L 281.9418547051797 406.1414185833642 L 277.69323635425104 319.7839230849609 L 288.35584979628015 323.90441778129417 Z" fill="#43729c" fill-opacity="1.0" stroke="#33333355" stroke-width="0.3"/><path d="M 269.94451709250677 411.22843720018477 L 280.00425626262256 416.4602819697974 L 275.5022788908195 328.1497670299925 L 264.87236400438684 323.90441778129417 Z" fill="#325575" fill-opacity="1.0" stroke="#33333355" stroke-width="0.3"/><path d="M 280.00425626262256 416.4602819697974 L 292.0287882394015 411.22843720018477 L 288.35584979628015 323.90441778129417 L 275.5022788908195 328.1497670299925 Z" fill="#43729c" fill-opacity="1.0" stroke="#33333355" stroke-width="0.3"/><path d="M 430.05548290749323 411.22843720018477 L 418.05814529482035 406.1414185833642 L 424.39670364550125 277.3037638395235 L 437.62594705200615 280.89259234686995 Z" fill="#43729c" fill-opacity="1.0" stroke="#33333355" stroke-width="0.3"/><path d="M 418.05814529482035 406.1414185833642 L 407.9712117605985 411.22843720018477 L 413.4532720031769 280.89259234686995 L 424.39670364550125 277.3037638395235 Z" fill="#325575" fill-opacity="1.0" stroke="#33333355" stroke-width="0.3"/><path d="M 407.9712117605985 411.22843720018477 L 419.9957437373775 416.4602819697974 L 426.7181786488639 284.59340667163724 L 413.4532720031769 280.89259234686995 Z" fill="#325575" fill-opacity="1.0" stroke="#33333355" stroke-width="0.3"/><path d="M 419.9957437373775 416.4602819697974 L 430.05548290749323 411.22843720018477 L 437.62594705200615 280.89259234686995 L 426.7181786488639 284.59340667163724 Z" fill="#43729c" fill-opacity="1.0" stroke="#33333355" stroke-width="0.3"/><path d="M 264.87236400438684 323.90441778129417 L 275.5022788908195 328.1497670299925 L 288.35584979628015 323.90441778129417 L 277.69323635425104 319.7839230849609 Z" fill="#325575" fill-opacity="1.0" stroke="#33333355" stroke-width="0.3"/><path d="M 413.4532720031769 280.89259234686995 L 426.7181786488639 284.59340667163724 L 437.62594705200615 280.89259234686995 L 424.39670364550125 277.3037638395235 Z" fill="#325575" fill-opacity="1.0" stroke="#33333355" stroke-width="0.3"/><path d="M 362.1038793785865 446.56854249492386 L 350.0 440.4643424894689 L 350.0 313.9138545715009 L 363.2584624671639 318.467683874884 Z" fill="#43729c" fill-opacity="1.0" stroke="#33333355" stroke-width="0.3"/><path d="M 350.0 440.4643424894689 L 337.8961206214135 446.56854249492386 L 336.7415375328361 318.467683874884 L 350.0 313.9138545715009 Z" fill="#325575" fill-opacity="1.0" stroke="#33333355" stroke-width="0.3"/><path d="M 337.8961206214135 446.56854249492386 L 350.0 452.86349875054924 L 350.0 323.1776276369212 L 336.7415375328361 318.467683874884 Z" fill="#325575" fill-opacity="1.0" stroke="#33333355" stroke-width="0.3"/><path d="M 350.0 452.86349875054924 L 362.1038793785865 446.56854249492386 L 363.2584624671639 318.467683874884 L 350.0 323.1776276369212 Z" fill="#43729c" fill-opacity="1.0" stroke="#33333355" stroke-width="0.3"/><path d="M 336.7415375328361 318.467683874884 L 350.0 323.1776276369212 L 363.2584624671639 318.467683874884 L 350.0 313.9138545715009 Z" fill="#325575" fill-opacity="1.0" stroke="#33333355" stroke-width="0.3"/><line x1="218.66814343549444" y1="332.3671313692474" x2="217.91933969201614" y2="324.05916259450436" stroke="#333333" stroke-width="1.0"/><line x1="214.41933969201614" y1="324.05916259450436" x2="221.41933969201614" y2="324.05916259450436" stroke="#333333" stroke-width="1.0"/><line x1="215.16814343549444" y1="332.3671313692474" x2="222.16814343549444" y2="332.3671313692474" stroke="#333333" stroke-width="1.0"/><line x1="276.92277522041616" y1="330.0688263024875" x2="276.30281997308145" y2="317.68771311145866" stroke="#333333" stroke-width="1.0"/><line x1="272.80281997308145" y1="317.68771311145866" x2="279.80281997308145" y2="317.68771311145866" stroke="#333333" stroke-width="1.0"/><line x1="273.42277522041616" y1="330.0688263024875" x2="280.42277522041616" y2="330.0688263024875" stroke="#333333" stroke-width="1.0"/><line x1="350.0" y1="327.18572927089417" x2="350.0" y2="309.6450637640076" stroke="#333333" stroke-width="1.0"/><line x1="346.5" y1="309.6450637640076" x2="353.5" y2="309.6450637640076" stroke="#333333" stroke-width="1.0"/><line x1="346.5" y1="327.18572927089417" x2="353.5" y2="327.18572927089417" stroke="#333333" stroke-width="1.0"/><line x1="288.64351904174436" y1="291.8437789664267" x2="288.2070769720947" y2="281.19067571998755" stroke="#333333" stroke-width="1.0"/><line x1="284.7070769720947" y1="281.19067571998755" x2="291.7070769720947" y2="281.19067571998755" stroke="#333333" stroke-width="1.0"/><line x1="285.14351904174436" y1="291.8437789664267" x2="292.14351904174436" y2="291.8437789664267" stroke="#333333" stroke-width="1.0"/><line x1="350.0" y1="291.3146990919348" x2="350.0" y2="276.61707471714993" stroke="#333333" stroke-width="1.0"/><line x1="346.5" y1="276.61707471714993" x2="353.5" y2="276.61707471714993" stroke="#333333" stroke-width="1.0"/><line x1="346.5" y1="291.3146990919348" x2="353.5" y2="291.3146990919348" stroke="#333333" stroke-width="1.0"/><line x1="425.0501520144538" y1="290.66753803595077" x2="426.0354931787573" y2="270.98931039053645" stroke="#333333" stroke-width="1.0"/><line x1="422.5354931787573" y1="270.98931039053645" x2="429.5354931787573" y2="270.98931039053645" stroke="#333333" stroke-width="1.0"/><line x1="421.5501520144538" y1="290.66753803595077" x2="428.5501520144538" y2="290.66753803595077" stroke="#333333" stroke-width="1.0"/><line x1="350.0" y1="256.3117038824844" x2="350.0" y2="243.5031755632486" stroke="#333333" stroke-width="1.0"/><line x1="346.5" y1="243.5031755632486" x2="353.5" y2="243.5031755632486" stroke="#333333" stroke-width="1.0"/><line x1="346.5" y1="256.3117038824844" x2="353.5" y2="256.3117038824844" stroke="#333333" stroke-width="1.0"/><line x1="412.74129470242326" y1="258.04189592259786" x2="413.4284521740652" y2="241.26908688097726" stroke="#333333" stroke-width="1.0"/><line x1="409.9284521740652" y1="241.26908688097726" x2="416.9284521740652" y2="241.26908688097726" stroke="#333333" stroke-width="1.0"/><line x1="409.24129470242326" y1="258.04189592259786" x2="416.24129470242326" y2="258.04189592259786" stroke="#333333" stroke-width="1.0"/><line x1="487.8441800305141" y1="260.11297869193686" x2="489.78499651099736" y2="238.57964254372072" stroke="#333333" stroke-width="1.0"/><line x1="486.28499651099736" y1="238.57964254372072" x2="493.28499651099736" y2="238.57964254372072" stroke="#333333" stroke-width="1.0"/><line x1="484.3441800305141" y1="260.11297869193686" x2="491.3441800305141" y2="260.11297869193686" stroke="#333333" stroke-width="1.0"/><text x="216.77998575325717" y="305.4180439715927" fill="#222222" font-size="10.0" font-family="sans-serif" text-anchor="middle">4.0</text><text x="275.6722558658993" y="299.09473060379196" fill="#222222" font-size="10.0" font-family="sans-serif" text-anchor="middle">6.0</text><text x="350.0" y="291.1140972000758" fill="#222222" font-size="10.0" font-family="sans-serif" text-anchor="middle">8.0</text><text x="287.7643814041336" y="264.38493099419634" fill="#222222" font-size="10.0" font-family="sans-serif" text-anchor="middle">5.5</text><text x="350.0" y="260.155966765706" fill="#222222" font-size="10.0" font-family="sans-serif" text-anchor="middle">7.1</text><text x="426.53793035835264" y="254.9551480559254" fill="#222222" font-size="10.0" font-family="sans-serif" text-anchor="middle">8.7</text><text x="350.0" y="228.40912045659118" fill="#222222" font-size="10.0" font-family="sans-serif" text-anchor="middle">7.0</text><text x="413.7777064228059" y="226.74414891136806" fill="#222222" font-size="10.0" font-family="sans-serif" text-anchor="middle">8.2</text><text x="490.4914570728791" y="224.74147087348172" fill="#222222" font-size="10.0" font-family="sans-serif" text-anchor="middle">9.4</text></svg>