<svg xmlns="http://www.w3.org/2000/svg" width="680" height="620" viewBox="0 0 680 620"><rect x="0" y="0" width="680" height="620" fill="#fafafa"/><text x="20" y="30" text-anchor="start" font-family="sans-serif" font-size="16" fill="#333">3D vector field (quiver3D) — 回転流</text><path d="M 217.3343407062604 381.5883488884681 L 340.0 334.6582090615835 L 340.0 202.40054227672672 L 204.19159149621692 230.74147087348172 Z" fill="#eaeaea" fill-opacity="1.0" stroke="none"/><path d="M 340.0 334.6582090615835 L 462.66565929373957 381.5883488884681 L 475.8084085037831 230.74147087348172 L 340.0 202.40054227672672 Z" fill="#eaeaea" fill-opacity="1.0" stroke="none"/><path d="M 217.3343407062604 381.5883488884681 L 340.0 446.5685424949238 L 462.66565929373957 381.5883488884681 L 340.0 334.6582090615835 Z" fill="#eaeaea" fill-opacity="1.0" stroke="none"/><line x1="217.3343407062604" y1="381.5883488884681" x2="204.19159149621692" y2="230.74147087348172" stroke="#ffffff" stroke-width="1.0"/><line x1="251.5666177184668" y1="368.49156568096544" x2="242.49652722805317" y2="222.74787562824312" stroke="#ffffff" stroke-width="1.0"/><line x1="283.2442471924488" y1="356.3721543546196" x2="277.66171412941105" y2="215.40949310802404" stroke="#ffffff" stroke-width="1.0"/><line x1="312.6429105172235" y1="345.1246431236944" x2="310.05798867633126" y2="208.64893598309789" stroke="#ffffff" stroke-width="1.0"/><line x1="340.0" y1="334.6582090615835" x2="340.0" y2="202.40054227672672" stroke="#ffffff" stroke-width="1.0"/><line x1="217.3343407062604" y1="381.5883488884681" x2="340.0" y2="334.6582090615835" stroke="#ffffff" stroke-width="1.0"/><line x1="214.2930433683991" y1="346.6816333147523" x2="340.0" y2="303.7042870481064" stroke="#ffffff" stroke-width="1.0"/><line x1="211.09710379301941" y1="310.0" x2="340.0" y2="271.4045423383911" stroke="#ffffff" stroke-width="1.0"/><line x1="207.73441954414167" y1="271.40454233839114" x2="340.0" y2="237.66925341935513" stroke="#ffffff" stroke-width="1.0"/><line x1="204.19159149621692" y1="230.74147087348172" x2="340.0" y2="202.40054227672672" stroke="#ffffff" stroke-width="1.0"/><line x1="340.0" y1="334.6582090615835" x2="340.0" y2="202.40054227672672" stroke="#ffffff" stroke-width="1.0"/><line x1="367.3570894827765" y1="345.1246431236944" x2="369.94201132366874" y2="208.64893598309789" stroke="#ffffff" stroke-width="1.0"/><line x1="396.7557528075511" y1="356.3721543546196" x2="402.33828587058895" y2="215.40949310802404" stroke="#ffffff" stroke-width="1.0"/><line x1="428.43338228153317" y1="368.49156568096544" x2="437.5034727719468" y2="222.74787562824312" stroke="#ffffff" stroke-width="1.0"/><line x1="462.66565929373957" y1="381.5883488884681" x2="475.8084085037831" y2="230.74147087348172" stroke="#ffffff" stroke-width="1.0"/><line x1="340.0" y1="334.6582090615835" x2="462.66565929373957" y2="381.5883488884681" stroke="#ffffff" stroke-width="1.0"/><line x1="340.0" y1="303.7042870481064" x2="465.70695663160086" y2="346.6816333147523" stroke="#ffffff" stroke-width="1.0"/><line x1="340.0" y1="271.4045423383911" x2="468.9028962069806" y2="310.0" stroke="#ffffff" stroke-width="1.0"/><line x1="340.0" y1="237.66925341935513" x2="472.2655804558583" y2="271.40454233839114" stroke="#ffffff" stroke-width="1.0"/><line x1="340.0" y1="202.40054227672672" x2="475.8084085037831" y2="230.74147087348172" stroke="#ffffff" stroke-width="1.0"/><line x1="217.3343407062604" y1="381.5883488884681" x2="340.0" y2="334.6582090615835" stroke="#ffffff" stroke-width="1.0"/><line x1="244.1352410561531" y1="395.78570211340804" x2="367.3570894827765" y2="345.1246431236944" stroke="#ffffff" stroke-width="1.0"/><line x1="273.28709757708896" y1="411.22843720018477" x2="396.7557528075511" y2="356.3721543546196" stroke="#ffffff" stroke-width="1.0"/><line x1="305.11343634765205" y1="428.0879369738218" x2="428.43338228153317" y2="368.49156568096544" stroke="#ffffff" stroke-width="1.0"/><line x1="340.0" y1="446.5685424949238" x2="462.66565929373957" y2="381.5883488884681" stroke="#ffffff" stroke-width="1.0"/><line x1="217.3343407062604" y1="381.5883488884681" x2="340.0" y2="446.5685424949238" stroke="#ffffff" stroke-width="1.0"/><line x1="251.5666177184668" y1="368.49156568096544" x2="374.88656365234795" y2="428.0879369738218" stroke="#ffffff" stroke-width="1.0"/><line x1="283.2442471924488" y1="356.3721543546196" x2="406.712902422911" y2="411.22843720018477" stroke="#ffffff" stroke-width="1.0"/><line x1="312.6429105172235" y1="345.1246431236944" x2="435.86475894384694" y2="395.78570211340804" stroke="#ffffff" stroke-width="1.0"/><line x1="340.0" y1="334.6582090615835" x2="462.66565929373957" y2="381.5883488884681" stroke="#ffffff" stroke-width="1.0"/><line x1="217.3343407062604" y1="381.5883488884681" x2="340.0" y2="446.5685424949238" stroke="#bbbbbb" stroke-width="1.0"/><line x1="340.0" y1="446.5685424949238" x2="462.66565929373957" y2="381.5883488884681" stroke="#bbbbbb" stroke-width="1.0"/><line x1="462.66565929373957" y1="381.5883488884681" x2="340.0" y2="334.6582090615835" stroke="#bbbbbb" stroke-width="1.0"/><line x1="340.0" y1="334.6582090615835" x2="217.3343407062604" y2="381.5883488884681" stroke="#bbbbbb" stroke-width="1.0"/><line x1="204.19159149621692" y1="230.74147087348172" x2="340.0" y2="271.40454233839114" stroke="#bbbbbb" stroke-width="1.0"/><line x1="340.0" y1="271.40454233839114" x2="475.8084085037831" y2="230.74147087348172" stroke="#bbbbbb" stroke-width="1.0"/><line x1="475.8084085037831" y1="230.74147087348172" x2="340.0" y2="202.40054227672672" stroke="#bbbbbb" stroke-width="1.0"/><line x1="340.0" y1="202.40054227672672" x2="204.19159149621692" y2="230.74147087348172" stroke="#bbbbbb" stroke-width="1.0"/><line x1="217.3343407062604" y1="381.5883488884681" x2="204.19159149621692" y2="230.74147087348172" stroke="#bbbbbb" stroke-width="1.0"/><line x1="340.0" y1="446.5685424949238" x2="340.0" y2="271.40454233839114" stroke="#bbbbbb" stroke-width="1.0"/><line x1="462.66565929373957" y1="381.5883488884681" x2="475.8084085037831" y2="230.74147087348172" stroke="#bbbbbb" stroke-width="1.0"/><line x1="340.0" y1="334.6582090615835" x2="340.0" y2="202.40054227672672" stroke="#bbbbbb" stroke-width="1.0"/><line x1="217.3343407062604" y1="381.5883488884681" x2="222.99583267366378" y2="379.4223424349196" stroke="#888888" stroke-width="1.0"/><text x="211.5993228691505" y="393.78248529595885" fill="#444444" font-size="9.0" font-family="sans-serif" text-anchor="middle">-1</text><line x1="244.1352410561531" y1="395.78570211340804" x2="249.8540513837994" y2="393.43448768951146" stroke="#888888" stroke-width="1.0"/><text x="238.33901874437623" y="408.1687434669005" fill="#444444" font-size="9.0" font-family="sans-serif" text-anchor="middle">-0.5</text><line x1="273.28709757708896" y1="411.22843720018477" x2="279.05183618366806" y2="408.66720308823153" stroke="#888888" stroke-width="1.0"/><text x="267.44087856617665" y="423.82587250099954" fill="#444444" font-size="9.0" font-family="sans-serif" text-anchor="middle">0</text><line x1="305.11343634765205" y1="428.0879369738218" x2="310.90879992705845" y2="425.28723318628863" stroke="#888888" stroke-width="1.0"/><text x="299.23237423102705" y="440.9300559744792" fill="#444444" font-size="9.0" font-family="sans-serif" text-anchor="middle">0.5</text><line x1="340.0" y1="446.5685424949238" x2="345.8055502871846" y2="443.49314401889313" stroke="#888888" stroke-width="1.0"/><text x="334.1044411812311" y="459.6916215674822" fill="#444444" font-size="9.0" font-family="sans-serif" text-anchor="middle">1</text><line x1="340.0" y1="446.5685424949238" x2="334.19444971281536" y2="443.49314401889313" stroke="#888888" stroke-width="1.0"/><text x="345.8955588187689" y="453.6916215674822" fill="#444444" font-size="9.0" font-family="sans-serif" text-anchor="middle">-1</text><line x1="374.88656365234795" y1="428.0879369738218" x2="369.09120007294155" y2="425.28723318628863" stroke="#888888" stroke-width="1.0"/><text x="380.76762576897295" y="434.9300559744792" fill="#444444" font-size="9.0" font-family="sans-serif" text-anchor="middle">-0.5</text><line x1="406.712902422911" y1="411.22843720018477" x2="400.94816381633194" y2="408.66720308823153" stroke="#888888" stroke-width="1.0"/><text x="412.5591214338233" y="417.82587250099954" fill="#444444" font-size="9.0" font-family="sans-serif" text-anchor="middle">0</text><line x1="435.86475894384694" y1="395.78570211340804" x2="430.1459486162006" y2="393.43448768951146" stroke="#888888" stroke-width="1.0"/><text x="441.6609812556238" y="402.1687434669005" fill="#444444" font-size="9.0" font-family="sans-serif" text-anchor="middle">0.5</text><line x1="462.66565929373957" y1="381.5883488884681" x2="457.0041673263362" y2="379.4223424349196" stroke="#888888" stroke-width="1.0"/><text x="468.4006771308495" y="387.78248529595885" fill="#444444" font-size="9.0" font-family="sans-serif" text-anchor="middle">1</text><line x1="217.3343407062604" y1="381.5883488884681" x2="227.14759344975957" y2="381.5883488884681" stroke="#888888" stroke-width="1.0"/><text x="207.52108796276124" y="385.5883488884681" fill="#444444" font-size="9.0" font-family="sans-serif" text-anchor="middle">-1</text><line x1="214.2930433683991" y1="346.6816333147523" x2="224.34959989892715" y2="346.6816333147523" stroke="#888888" stroke-width="1.0"/><text x="204.23648683787104" y="350.6816333147523" fill="#444444" font-size="9.0" font-family="sans-serif" text-anchor="middle">-0.5</text><line x1="211.09710379301941" y1="310.0" x2="221.40933548957784" y2="310.0" stroke="#888888" stroke-width="1.0"/><text x="200.78487209646096" y="314.0" fill="#444444" font-size="9.0" font-family="sans-serif" text-anchor="middle">0</text><line x1="207.73441954414167" y1="271.40454233839114" x2="218.31566598061033" y2="271.40454233839114" stroke="#888888" stroke-width="1.0"/><text x="197.153173107673" y="275.40454233839114" fill="#444444" font-size="9.0" font-family="sans-serif" text-anchor="middle">0.5</text><line x1="204.19159149621692" y1="230.74147087348172" x2="215.05626417651953" y2="230.74147087348172" stroke="#888888" stroke-width="1.0"/><text x="193.3269188159142" y="234.74147087348172" fill="#444444" font-size="9.0" font-family="sans-serif" text-anchor="middle">1</text><text x="255.4969902643127" y="433.13246074997585" fill="#333333" font-size="11.0" font-family="sans-serif" text-anchor="middle" font-weight="bold">x</text><text x="424.5030097356873" y="419.13246074997585" fill="#333333" font-size="11.0" font-family="sans-serif" text-anchor="middle" font-weight="bold">y</text><text x="190.47264039990253" y="310.0" fill="#333333" font-size="11.0" font-family="sans-serif" text-anchor="middle" font-weight="bold">z</text><line x1="217.3343407062604" y1="381.5883488884681" x2="212.81494157341012" y2="400.39897931971706" stroke="#1f77b4" stroke-width="1.5"/><line x1="212.81494157341012" y1="400.39897931971706" x2="210.54194369860386" y2="390.59676116966926" stroke="#1f77b4" stroke-width="1.5"/><line x1="212.81494157341012" y1="400.39897931971706" x2="219.2929173685646" y2="392.6992501298434" stroke="#1f77b4" stroke-width="1.5"/><line x1="211.09710379301941" y1="310.0" x2="205.5813824912765" y2="321.3952779979939" stroke="#1f77b4" stroke-width="1.5"/><line x1="205.5813824912765" y1="321.3952779979939" x2="205.45205709073426" y2="311.3338032084427" stroke="#1f77b4" stroke-width="1.5"/><line x1="205.5813824912765" y1="321.3952779979939" x2="213.55296708259212" y2="315.2549328038294" stroke="#1f77b4" stroke-width="1.5"/><line x1="204.19159149621692" y1="230.74147087348172" x2="197.47539784913454" y2="232.8630931751709" stroke="#1f77b4" stroke-width="1.5"/><line x1="197.47539784913454" y1="232.8630931751709" x2="204.70186906828664" y2="225.86108534035907" stroke="#1f77b4" stroke-width="1.5"/><line x1="197.47539784913454" y1="232.8630931751709" x2="207.41288684847527" y2="234.4430654496055" stroke="#1f77b4" stroke-width="1.5"/><line x1="283.2442471924488" y1="356.3721543546196" x2="268.4435616516449" y2="366.837087226642" stroke="#1f77b4" stroke-width="1.5"/><line x1="268.4435616516449" y1="366.837087226642" x2="273.19424723829263" y2="357.9668568769376" stroke="#1f77b4" stroke-width="1.5"/><line x1="268.4435616516449" y1="366.837087226642" x2="278.3901572833971" y2="365.31549748613753" stroke="#1f77b4" stroke-width="1.5"/><line x1="280.5838212795949" y1="289.194636104289" x2="264.7763760146247" y2="293.92762195964724" stroke="#1f77b4" stroke-width="1.5"/><line x1="264.7763760146247" y1="293.92762195964724" x2="272.10744803560266" y2="287.03520706911473" stroke="#1f77b4" stroke-width="1.5"/><line x1="264.7763760146247" y1="293.92762195964724" x2="274.6889511396375" y2="295.6570306421101" stroke="#1f77b4" stroke-width="1.5"/><line x1="277.66171412941105" y1="215.40949310802404" x2="260.7130083617691" y2="213.14143001938007" stroke="#1f77b4" stroke-width="1.5"/><line x1="260.7130083617691" y1="213.14143001938007" x2="270.23035671854683" y2="209.87492114050949" stroke="#1f77b4" stroke-width="1.5"/><line x1="260.7130083617691" y1="213.14143001938007" x2="269.0366244789322" y2="218.79540337747991" stroke="#1f77b4" stroke-width="1.5"/><line x1="340.0" y1="334.6582090615835" x2="314.50442609286216" y2="339.0476191450001" stroke="#1f77b4" stroke-width="1.5"/><line x1="314.50442609286216" y1="339.0476191450001" x2="322.61043477535213" y2="333.08585571130055" stroke="#1f77b4" stroke-width="1.5"/><line x1="314.50442609286216" y1="339.0476191450001" x2="324.13744204931584" y2="341.9553680307724" stroke="#1f77b4" stroke-width="1.5"/><line x1="340.0" y1="271.4045423383911" x2="313.3154122703869" y2="271.4045423383911" stroke="#1f77b4" stroke-width="1.5"/><line x1="313.3154122703869" y1="271.4045423383911" x2="322.3154122703869" y2="266.9045423383911" stroke="#1f77b4" stroke-width="1.5"/><line x1="313.3154122703869" y1="271.4045423383911" x2="322.3154122703869" y2="275.9045423383911" stroke="#1f77b4" stroke-width="1.5"/><line x1="340.0" y1="202.40054227672672" x2="312.01007150859044" y2="197.1436180833834" stroke="#1f77b4" stroke-width="1.5"/><line x1="312.01007150859044" y1="197.1436180833834" x2="321.686059890279" y2="194.38223277208976" stroke="#1f77b4" stroke-width="1.5"/><line x1="312.01007150859044" y1="197.1436180833834" x2="320.02477278663844" y2="203.22757760195805" stroke="#1f77b4" stroke-width="1.5"/><line x1="273.28709757708896" y1="411.22843720018477" x2="288.5421981886792" y2="424.5340708866116" stroke="#1f77b4" stroke-width="1.5"/><line x1="288.5421981886792" y1="424.5340708866116" x2="278.8017286176781" y2="422.0095407250958" stroke="#1f77b4" stroke-width="1.5"/><line x1="288.5421981886792" y1="424.5340708866116" x2="284.7175405752912" y2="415.2269771329013" stroke="#1f77b4" stroke-width="1.5"/><line x1="269.58082522026064" y1="334.6582090615835" x2="285.4054844532536" y2="341.33028372052786" stroke="#1f77b4" stroke-width="1.5"/><line x1="285.4054844532536" y1="341.33028372052786" x2="275.36419236283086" y2="341.9802476847697" stroke="#1f77b4" stroke-width="1.5"/><line x1="285.4054844532536" y1="341.33028372052786" x2="278.86073802760643" y2="333.68722842673475" stroke="#1f77b4" stroke-width="1.5"/><line x1="265.4385208214524" y1="249.0797187890291" x2="281.86153762561975" y2="247.3243200126673" stroke="#1f77b4" stroke-width="1.5"/><line x1="281.86153762561975" y1="247.3243200126673" x2="273.39077749919124" y2="252.75536253510344" stroke="#1f77b4" stroke-width="1.5"/><line x1="281.86153762561975" y1="247.3243200126673" x2="272.43424753181375" y2="243.8063374249862" stroke="#1f77b4" stroke-width="1.5"/><line x1="340.0" y1="381.5883488884681" x2="340.0" y2="386.5188973808425" stroke="#1f77b4" stroke-width="1.5"/><line x1="340.0" y1="386.5188973808425" x2="335.5" y2="377.5188973808425" stroke="#1f77b4" stroke-width="1.5"/><line x1="340.0" y1="386.5188973808425" x2="344.5" y2="377.5188973808425" stroke="#1f77b4" stroke-width="1.5"/><line x1="340.0" y1="230.74147087348172" x2="340.0" y2="224.65284570185477" stroke="#1f77b4" stroke-width="1.5"/><line x1="340.0" y1="224.65284570185477" x2="344.5" y2="233.65284570185477" stroke="#1f77b4" stroke-width="1.5"/><line x1="340.0" y1="224.65284570185477" x2="335.5" y2="233.65284570185477" stroke="#1f77b4" stroke-width="1.5"/><line x1="396.7557528075511" y1="356.3721543546196" x2="382.11727246454325" y2="355.4041710619828" stroke="#1f77b4" stroke-width="1.5"/><line x1="382.11727246454325" y1="355.4041710619828" x2="391.39457816546474" y2="351.50781392593257" stroke="#1f77b4" stroke-width="1.5"/><line x1="382.11727246454325" y1="355.4041710619828" x2="390.8007415939363" y2="360.4882013410899" stroke="#1f77b4" stroke-width="1.5"/><line x1="399.41617872040507" y1="289.194636104289" x2="384.1955995990769" y2="284.6373667616426" stroke="#1f77b4" stroke-width="1.5"/><line x1="384.1955995990769" y1="284.6373667616426" x2="394.10817472408974" y2="282.9079580791798" stroke="#1f77b4" stroke-width="1.5"/><line x1="384.1955995990769" y1="284.6373667616426" x2="391.5266716200548" y2="291.5297816521752" stroke="#1f77b4" stroke-width="1.5"/><line x1="402.33828587058895" y1="215.40949310802404" x2="386.4896888443524" y2="206.52388694877868" stroke="#1f77b4" stroke-width="1.5"/><line x1="386.4896888443524" y1="206.52388694877868" x2="396.54072178255507" y2="207.00005590531015" stroke="#1f77b4" stroke-width="1.5"/><line x1="386.4896888443524" y1="206.52388694877868" x2="392.1393734420488" y2="214.8504146732597" stroke="#1f77b4" stroke-width="1.5"/><line x1="340.0" y1="446.5685424949238" x2="375.26064632953484" y2="452.17217346639706" stroke="#1f77b4" stroke-width="1.5"/><line x1="375.26064632953484" y1="452.17217346639706" x2="365.6659103242919" y2="455.2038464351874" stroke="#1f77b4" stroke-width="1.5"/><line x1="375.26064632953484" y1="452.17217346639706" x2="367.0784663513567" y2="446.3153884434769" stroke="#1f77b4" stroke-width="1.5"/><line x1="340.0" y1="364.34870568675535" x2="377.57625619067966" y2="364.34870568675535" stroke="#1f77b4" stroke-width="1.5"/><line x1="377.57625619067966" y1="364.34870568675535" x2="368.57625619067966" y2="368.84870568675535" stroke="#1f77b4" stroke-width="1.5"/><line x1="377.57625619067966" y1="364.34870568675535" x2="368.57625619067966" y2="359.84870568675535" stroke="#1f77b4" stroke-width="1.5"/><line x1="340.0" y1="271.40454233839114" x2="380.21738088524575" y2="264.1795306424945" stroke="#1f77b4" stroke-width="1.5"/><line x1="380.21738088524575" y1="264.1795306424945" x2="372.15487192567826" y2="270.1999915282485" stroke="#1f77b4" stroke-width="1.5"/><line x1="380.21738088524575" y1="264.1795306424945" x2="370.5635068009021" y2="261.3418000062929" stroke="#1f77b4" stroke-width="1.5"/><line x1="406.712902422911" y1="411.22843720018477" x2="420.83833364291735" y2="408.7537203075538" stroke="#1f77b4" stroke-width="1.5"/><line x1="420.83833364291735" y1="408.7537203075538" x2="412.749908177444" y2="414.7393174782196" stroke="#1f77b4" stroke-width="1.5"/><line x1="420.83833364291735" y1="408.7537203075538" x2="411.19680062710074" y2="405.87433823757465" stroke="#1f77b4" stroke-width="1.5"/><line x1="410.41917477973936" y1="334.6582090615835" x2="425.5499169198985" y2="328.2787073157324" stroke="#1f77b4" stroke-width="1.5"/><line x1="425.5499169198985" y1="328.2787073157324" x2="419.00517049425133" y2="335.92176260952544" stroke="#1f77b4" stroke-width="1.5"/><line x1="425.5499169198985" y1="328.2787073157324" x2="415.50862482947576" y2="327.62874335149047" stroke="#1f77b4" stroke-width="1.5"/><line x1="414.5614791785476" y1="249.0797187890291" x2="430.8447121918543" y2="237.8422885472428" stroke="#1f77b4" stroke-width="1.5"/><line x1="430.8447121918543" y1="237.8422885472428" x2="425.99338819672903" y2="246.65788016064695" stroke="#1f77b4" stroke-width="1.5"/><line x1="430.8447121918543" y1="237.8422885472428" x2="420.8814445040558" y2="239.2505843191851" stroke="#1f77b4" stroke-width="1.5"/><line x1="462.66565929373957" y1="381.5883488884681" x2="457.65781863280495" y2="373.6785513246648" stroke="#1f77b4" stroke-width="1.5"/><line x1="457.65781863280495" y1="373.6785513246648" x2="466.27417707392937" y2="378.87550882055257" stroke="#1f77b4" stroke-width="1.5"/><line x1="457.65781863280495" y1="373.6785513246648" x2="458.6700677007694" y2="383.689812575097" stroke="#1f77b4" stroke-width="1.5"/><line x1="468.9028962069806" y1="310.0" x2="463.8219957181578" y2="299.5030458605688" stroke="#1f77b4" stroke-width="1.5"/><line x1="463.8219957181578" y1="299.5030458605688" x2="471.7935803094734" y2="305.64339105473334" stroke="#1f77b4" stroke-width="1.5"/><line x1="463.8219957181578" y1="299.5030458605688" x2="463.6926703176155" y2="309.56452065012" stroke="#1f77b4" stroke-width="1.5"/><line x1="475.8084085037831" y1="230.74147087348172" x2="470.66777363046754" y2="217.1256206326152" stroke="#1f77b4" stroke-width="1.5"/><line x1="470.66777363046754" y1="217.1256206326152" x2="478.0566288041025" y2="223.9560539441298" stroke="#1f77b4" stroke-width="1.5"/><line x1="470.66777363046754" y1="217.1256206326152" x2="469.6367400854368" y2="227.13496475843192" stroke="#1f77b4" stroke-width="1.5"/></svg>