<svg xmlns="http://www.w3.org/2000/svg" width="700" height="700" viewBox="0 0 700 700"><rect x="0" y="0" width="700" height="700" fill="#fafafa"/><text x="20" y="30" text-anchor="start" font-family="sans-serif" font-size="16" fill="#333">log-z 軸 (片対数): z tick が 10 の冪で等間隔</text><path d="M 223.10449038578662 432.6019410251555 L 350.0 378.4517796864425 L 350.0 225.8467795500693 L 209.50854292712094 258.5478510078635 Z" fill="#eaeaea" fill-opacity="1.0" stroke="none"/><path d="M 350.0 378.4517796864425 L 476.8955096142133 432.6019410251555 L 490.4914570728791 258.5478510078635 L 350.0 225.8467795500693 Z" fill="#eaeaea" fill-opacity="1.0" stroke="none"/><path d="M 223.10449038578662 432.6019410251555 L 350.0 507.5790874941428 L 476.8955096142133 432.6019410251555 L 350.0 378.4517796864425 Z" fill="#eaeaea" fill-opacity="1.0" stroke="none"/><line x1="223.10449038578662" y1="432.6019410251555" x2="209.50854292712094" y2="258.5478510078635" stroke="#ffffff" stroke-width="1.0"/><line x1="258.51719074324154" y1="417.4902680934217" x2="249.13433851177916" y2="249.32447187874206" stroke="#ffffff" stroke-width="1.0"/><line x1="291.28715226805053" y1="403.50633194763805" x2="285.512118064908" y2="240.85710743233543" stroke="#ffffff" stroke-width="1.0"/><line x1="321.6995626040243" y1="390.52843437349355" x2="319.02550552723926" y2="233.05646459588218" stroke="#ffffff" stroke-width="1.0"/><line x1="350.0" y1="378.4517796864425" x2="350.0" y2="225.8467795500693" stroke="#ffffff" stroke-width="1.0"/><line x1="223.10449038578662" y1="432.6019410251555" x2="350.0" y2="378.4517796864425" stroke="#ffffff" stroke-width="1.0"/><line x1="219.9583207259301" y1="392.32496151702185" x2="350.0" y2="342.7357158247381" stroke="#ffffff" stroke-width="1.0"/><line x1="216.6521763376063" y1="350.0" x2="350.0" y2="305.46677962122044" stroke="#ffffff" stroke-width="1.0"/><line x1="213.17353745945687" y1="305.46677962122044" x2="350.0" y2="266.5414462531021" stroke="#ffffff" stroke-width="1.0"/><line x1="209.50854292712094" y1="258.5478510078635" x2="350.0" y2="225.8467795500693" stroke="#ffffff" stroke-width="1.0"/><line x1="350.0" y1="378.4517796864425" x2="350.0" y2="225.8467795500693" stroke="#ffffff" stroke-width="1.0"/><line x1="378.3004373959757" y1="390.52843437349355" x2="380.97449447276074" y2="233.05646459588218" stroke="#ffffff" stroke-width="1.0"/><line x1="408.71284773194947" y1="403.50633194763805" x2="414.48788193509205" y2="240.85710743233543" stroke="#ffffff" stroke-width="1.0"/><line x1="441.48280925675846" y1="417.4902680934217" x2="450.86566148822084" y2="249.32447187874206" stroke="#ffffff" stroke-width="1.0"/><line x1="476.8955096142133" y1="432.6019410251555" x2="490.4914570728791" y2="258.5478510078635" stroke="#ffffff" stroke-width="1.0"/><line x1="350.0" y1="378.4517796864425" x2="476.8955096142133" y2="432.6019410251555" stroke="#ffffff" stroke-width="1.0"/><line x1="350.0" y1="342.7357158247381" x2="480.04167927406985" y2="392.32496151702185" stroke="#ffffff" stroke-width="1.0"/><line x1="350.0" y1="305.46677962122044" x2="483.3478236623937" y2="350.0" stroke="#ffffff" stroke-width="1.0"/><line x1="350.0" y1="266.5414462531021" x2="486.8264625405431" y2="305.46677962122044" stroke="#ffffff" stroke-width="1.0"/><line x1="350.0" y1="225.8467795500693" x2="490.4914570728791" y2="258.5478510078635" stroke="#ffffff" stroke-width="1.0"/><line x1="223.10449038578662" y1="432.6019410251555" x2="350.0" y2="378.4517796864425" stroke="#ffffff" stroke-width="1.0"/><line x1="250.82955971326183" y1="448.98350243854776" x2="378.3004373959757" y2="390.52843437349355" stroke="#ffffff" stroke-width="1.0"/><line x1="280.9866526659541" y1="466.8020429232901" x2="408.71284773194947" y2="403.50633194763805" stroke="#ffffff" stroke-width="1.0"/><line x1="313.9104513941228" y1="486.2553118928713" x2="441.48280925675846" y2="417.4902680934217" stroke="#ffffff" stroke-width="1.0"/><line x1="350.0" y1="507.5790874941428" x2="476.8955096142133" y2="432.6019410251555" stroke="#ffffff" stroke-width="1.0"/><line x1="223.10449038578662" y1="432.6019410251555" x2="350.0" y2="507.5790874941428" stroke="#ffffff" stroke-width="1.0"/><line x1="258.51719074324154" y1="417.4902680934217" x2="386.0895486058772" y2="486.2553118928713" stroke="#ffffff" stroke-width="1.0"/><line x1="291.28715226805053" y1="403.50633194763805" x2="419.0133473340459" y2="466.8020429232901" stroke="#ffffff" stroke-width="1.0"/><line x1="321.6995626040243" y1="390.52843437349355" x2="449.1704402867382" y2="448.98350243854776" stroke="#ffffff" stroke-width="1.0"/><line x1="350.0" y1="378.4517796864425" x2="476.8955096142133" y2="432.6019410251555" stroke="#ffffff" stroke-width="1.0"/><line x1="223.10449038578662" y1="432.6019410251555" x2="350.0" y2="507.5790874941428" stroke="#bbbbbb" stroke-width="1.0"/><line x1="350.0" y1="507.5790874941428" x2="476.8955096142133" y2="432.6019410251555" stroke="#bbbbbb" stroke-width="1.0"/><line x1="476.8955096142133" y1="432.6019410251555" x2="350.0" y2="378.4517796864425" stroke="#bbbbbb" stroke-width="1.0"/><line x1="350.0" y1="378.4517796864425" x2="223.10449038578662" y2="432.6019410251555" stroke="#bbbbbb" stroke-width="1.0"/><line x1="209.50854292712094" y1="258.5478510078635" x2="350.0" y2="305.46677962122055" stroke="#bbbbbb" stroke-width="1.0"/><line x1="350.0" y1="305.46677962122055" x2="490.4914570728791" y2="258.5478510078635" stroke="#bbbbbb" stroke-width="1.0"/><line x1="490.4914570728791" y1="258.5478510078635" x2="350.0" y2="225.8467795500693" stroke="#bbbbbb" stroke-width="1.0"/><line x1="350.0" y1="225.8467795500693" x2="209.50854292712094" y2="258.5478510078635" stroke="#bbbbbb" stroke-width="1.0"/><line x1="223.10449038578662" y1="432.6019410251555" x2="209.50854292712094" y2="258.5478510078635" stroke="#bbbbbb" stroke-width="1.0"/><line x1="350.0" y1="507.5790874941428" x2="350.0" y2="305.46677962122055" stroke="#bbbbbb" stroke-width="1.0"/><line x1="476.8955096142133" y1="432.6019410251555" x2="490.4914570728791" y2="258.5478510078635" stroke="#bbbbbb" stroke-width="1.0"/><line x1="350.0" y1="378.4517796864425" x2="350.0" y2="225.8467795500693" stroke="#bbbbbb" stroke-width="1.0"/><line x1="223.10449038578662" y1="432.6019410251555" x2="228.96120621413496" y2="430.1027028095226" stroke="#888888" stroke-width="1.0"/><text x="217.1717133129143" y="445.1336368799525" fill="#444444" font-size="9.0" font-family="sans-serif" text-anchor="middle">0</text><line x1="250.82955971326183" y1="448.98350243854776" x2="256.7455703970338" y2="446.27056271866707" stroke="#888888" stroke-width="1.0"/><text x="244.8334676665961" y="461.7331655387313" fill="#444444" font-size="9.0" font-family="sans-serif" text-anchor="middle">1</text><line x1="280.9866526659541" y1="466.8020429232901" x2="286.9501753624153" y2="463.84677279411335" stroke="#888888" stroke-width="1.0"/><text x="274.9388398960448" y="479.79908365499944" fill="#444444" font-size="9.0" font-family="sans-serif" text-anchor="middle">2</text><line x1="313.9104513941228" y1="486.2553118928713" x2="319.90565509695705" y2="483.0237305995638" stroke="#888888" stroke-width="1.0"/><text x="307.8265940320969" y="499.53467997055293" fill="#444444" font-size="9.0" font-family="sans-serif" text-anchor="middle">3</text><line x1="350.0" y1="507.5790874941428" x2="356.00574167639786" y2="504.0305507910305" stroke="#888888" stroke-width="1.0"/><text x="343.9011460495494" y="521.1826402701718" fill="#444444" font-size="9.0" font-family="sans-serif" text-anchor="middle">4</text><line x1="350.0" y1="507.5790874941428" x2="343.9942583236021" y2="504.0305507910305" stroke="#888888" stroke-width="1.0"/><text x="356.0988539504506" y="515.1826402701718" fill="#444444" font-size="9.0" font-family="sans-serif" text-anchor="middle">0</text><line x1="386.0895486058772" y1="486.2553118928713" x2="380.09434490304295" y2="483.0237305995638" stroke="#888888" stroke-width="1.0"/><text x="392.1734059679031" y="493.53467997055293" fill="#444444" font-size="9.0" font-family="sans-serif" text-anchor="middle">1</text><line x1="419.0133473340459" y1="466.8020429232901" x2="413.0498246375848" y2="463.84677279411335" stroke="#888888" stroke-width="1.0"/><text x="425.06116010395516" y="473.79908365499944" fill="#444444" font-size="9.0" font-family="sans-serif" text-anchor="middle">2</text><line x1="449.1704402867382" y1="448.98350243854776" x2="443.2544296029661" y2="446.27056271866707" stroke="#888888" stroke-width="1.0"/><text x="455.16653233340395" y="455.7331655387313" fill="#444444" font-size="9.0" font-family="sans-serif" text-anchor="middle">3</text><line x1="476.8955096142133" y1="432.6019410251555" x2="471.03879378586504" y2="430.1027028095226" stroke="#888888" stroke-width="1.0"/><text x="482.82828668708567" y="439.1336368799525" fill="#444444" font-size="9.0" font-family="sans-serif" text-anchor="middle">4</text><line x1="223.10449038578662" y1="432.6019410251555" x2="233.2561311549237" y2="432.6019410251555" stroke="#888888" stroke-width="1.0"/><text x="212.95284961664956" y="436.6019410251555" fill="#444444" font-size="9.0" font-family="sans-serif" text-anchor="middle">0.1</text><line x1="219.9583207259301" y1="392.32496151702185" x2="230.36165506785568" y2="392.32496151702185" stroke="#888888" stroke-width="1.0"/><text x="209.5549863840045" y="396.32496151702185" fill="#444444" font-size="9.0" font-family="sans-serif" text-anchor="middle">1</text><line x1="216.6521763376063" y1="350.0" x2="227.32000223059777" y2="350.0" stroke="#888888" stroke-width="1.0"/><text x="205.9843504446148" y="354.0" fill="#444444" font-size="9.0" font-family="sans-serif" text-anchor="middle">10</text><line x1="213.17353745945687" y1="305.46677962122044" x2="224.1196544627003" y2="305.46677962122044" stroke="#888888" stroke-width="1.0"/><text x="202.22742045621345" y="309.46677962122044" fill="#444444" font-size="9.0" font-family="sans-serif" text-anchor="middle">100</text><line x1="209.50854292712094" y1="258.5478510078635" x2="220.74785949295125" y2="258.5478510078635" stroke="#888888" stroke-width="1.0"/><text x="198.26922636129055" y="262.5478510078635" fill="#444444" font-size="9.0" font-family="sans-serif" text-anchor="middle">1000</text><text x="262.58309337687524" y="489.922070096126" fill="#333333" font-size="11.0" font-family="sans-serif" text-anchor="middle" font-weight="bold">x</text><text x="437.41690662312476" y="475.922070096126" fill="#333333" font-size="11.0" font-family="sans-serif" text-anchor="middle" font-weight="bold">y</text><text x="188.3332894852886" y="272.9321173331265" fill="#333333" font-size="11.0" font-family="sans-serif" text-anchor="middle" font-weight="bold">z (log)</text><circle cx="223.10449038578662" cy="432.6019410251555" r="2.775650776474385" fill="#d62728" fill-opacity="0.3458141760008605" stroke="#333333" stroke-width="0.5"/><circle cx="235.23874495181354" cy="424.70321408757985" r="2.7757864476027154" fill="#d62728" fill-opacity="0.3458449281232821" stroke="#333333" stroke-width="0.5"/><circle cx="247.4915752953586" cy="416.72730089328525" r="2.7759234445075442" fill="#d62728" fill-opacity="0.34587598075504333" stroke="#333333" stroke-width="0.5"/><circle cx="259.8647280318026" cy="408.67306449250003" r="2.776061786717494" fill="#d62728" fill-opacity="0.34590733832263193" stroke="#333333" stroke-width="0.5"/><circle cx="272.3599842491984" cy="400.5393454956544" r="2.7762014941466213" fill="#d62728" fill-opacity="0.34593900533990074" stroke="#333333" stroke-width="0.5"/><circle cx="284.9791603629651" cy="392.32496151702185" r="2.776342587103971" fill="#d62728" fill-opacity="0.3459709864102333" stroke="#333333" stroke-width="0.5"/><circle cx="297.724108996138" cy="384.02870660172516" r="2.7764850863034205" fill="#d62728" fill-opacity="0.3460032862287753" stroke="#333333" stroke-width="0.5"/><circle cx="310.5967198860706" cy="375.6493506355241" r="2.7766290128738165" fill="#d62728" fill-opacity="0.3460359095847316" stroke="#333333" stroke-width="0.5"/><circle cx="323.5989208185194" cy="367.1856387367773" r="2.776774388369417" fill="#d62728" fill-opacity="0.3460688613637345" stroke="#333333" stroke-width="0.5"/><circle cx="336.73267859008223" cy="358.6362906299488" r="2.7769212347806564" fill="#d62728" fill-opacity="0.3461021465502822" stroke="#333333" stroke-width="0.5"/><circle cx="350.0" cy="350.0" r="2.7770695745452305" fill="#d62728" fill-opacity="0.34613577023025227" stroke="#333333" stroke-width="0.5"/><circle cx="363.4029328723701" cy="341.27543382698525" r="2.7772194305595277" fill="#d62728" fill-opacity="0.34616973759349295" stroke="#333333" stroke-width="0.5"/><circle cx="376.94356710986716" cy="332.4612317001382" r="2.7773708261904106" fill="#d62728" fill-opacity="0.346204053936493" stroke="#333333" stroke-width="0.5"/><circle cx="390.62403578010964" cy="323.55600511070753" r="2.77752378528736" fill="#d62728" fill-opacity="0.346238724665135" stroke="#333333" stroke-width="0.5"/><circle cx="404.4465162358562" cy="314.5583367227706" r="2.7776783321950056" fill="#d62728" fill-opacity="0.34627375529753457" stroke="#333333" stroke-width="0.5"/><circle cx="418.4132312702715" cy="305.46677962122044" r="2.7778344917660345" fill="#d62728" fill-opacity="0.34630915146696784" stroke="#333333" stroke-width="0.5"/><circle cx="432.5264503085443" cy="296.27985653608766" r="2.7779922893745224" fill="#d62728" fill-opacity="0.34634491892489166" stroke="#333333" stroke-width="0.5"/><circle cx="446.7884906372032" cy="286.9960590423242" r="2.778151750929672" fill="#d62728" fill-opacity="0.34638106354405895" stroke="#333333" stroke-width="0.5"/><circle cx="461.2017186725262" cy="277.61384673413926" r="2.7783129028900007" fill="#d62728" fill-opacity="0.3464175913217334" stroke="#333333" stroke-width="0.5"/><circle cx="475.7685512695045" cy="268.1316463729364" r="2.77847577227797" fill="#d62728" fill-opacity="0.34645450838300645" stroke="#333333" stroke-width="0.5"/><circle cx="490.4914570728791" cy="258.5478510078635" r="2.7786403866950957" fill="#d62728" fill-opacity="0.3464918209842217" stroke="#333333" stroke-width="0.5"/><line x1="223.10449038578662" y1="432.6019410251555" x2="235.23874495181354" y2="424.70321408757985" stroke="#1f77b4" stroke-width="1.5"/><line x1="235.23874495181354" y1="424.70321408757985" x2="247.4915752953586" y2="416.72730089328525" stroke="#1f77b4" stroke-width="1.5"/><line x1="247.4915752953586" y1="416.72730089328525" x2="259.8647280318026" y2="408.67306449250003" stroke="#1f77b4" stroke-width="1.5"/><line x1="259.8647280318026" y1="408.67306449250003" x2="272.3599842491984" y2="400.5393454956544" stroke="#1f77b4" stroke-width="1.5"/><line x1="272.3599842491984" y1="400.5393454956544" x2="284.9791603629651" y2="392.32496151702185" stroke="#1f77b4" stroke-width="1.5"/><line x1="284.9791603629651" y1="392.32496151702185" x2="297.724108996138" y2="384.02870660172516" stroke="#1f77b4" stroke-width="1.5"/><line x1="297.724108996138" y1="384.02870660172516" x2="310.5967198860706" y2="375.6493506355241" stroke="#1f77b4" stroke-width="1.5"/><line x1="310.5967198860706" y1="375.6493506355241" x2="323.5989208185194" y2="367.1856387367773" stroke="#1f77b4" stroke-width="1.5"/><line x1="323.5989208185194" y1="367.1856387367773" x2="336.73267859008223" y2="358.6362906299488" stroke="#1f77b4" stroke-width="1.5"/><line x1="336.73267859008223" y1="358.6362906299488" x2="350.0" y2="350.0" stroke="#1f77b4" stroke-width="1.5"/><line x1="350.0" y1="350.0" x2="363.4029328723701" y2="341.27543382698525" stroke="#1f77b4" stroke-width="1.5"/><line x1="363.4029328723701" y1="341.27543382698525" x2="376.94356710986716" y2="332.4612317001382" stroke="#1f77b4" stroke-width="1.5"/><line x1="376.94356710986716" y1="332.4612317001382" x2="390.62403578010964" y2="323.55600511070753" stroke="#1f77b4" stroke-width="1.5"/><line x1="390.62403578010964" y1="323.55600511070753" x2="404.4465162358562" y2="314.5583367227706" stroke="#1f77b4" stroke-width="1.5"/><line x1="404.4465162358562" y1="314.5583367227706" x2="418.4132312702715" y2="305.46677962122044" stroke="#1f77b4" stroke-width="1.5"/><line x1="418.4132312702715" y1="305.46677962122044" x2="432.5264503085443" y2="296.27985653608766" stroke="#1f77b4" stroke-width="1.5"/><line x1="432.5264503085443" y1="296.27985653608766" x2="446.7884906372032" y2="286.9960590423242" stroke="#1f77b4" stroke-width="1.5"/><line x1="446.7884906372032" y1="286.9960590423242" x2="461.2017186725262" y2="277.61384673413926" stroke="#1f77b4" stroke-width="1.5"/><line x1="461.2017186725262" y1="277.61384673413926" x2="475.7685512695045" y2="268.1316463729364" stroke="#1f77b4" stroke-width="1.5"/><line x1="475.7685512695045" y1="268.1316463729364" x2="490.4914570728791" y2="258.5478510078635" stroke="#1f77b4" stroke-width="1.5"/></svg>