<svg xmlns="http://www.w3.org/2000/svg" width="700" height="600" viewBox="0 0 700 600"><rect x="0" y="0" width="700" height="600" fill="#fafafa"/><text x="350" y="30" text-anchor="middle" font-family="sans-serif" font-size="16" fill="#333">3D stem (lollipop) — 2 系列 (Phase 26 A4)</text><path d="M 223.10449038578662 368.83495085429627 L 350.0 323.7098164053687 L 350.0 196.53898295839107 L 209.50854292712094 223.78987583988626 Z" fill="#eaeaea" fill-opacity="1.0" stroke="none"/><path d="M 350.0 323.7098164053687 L 476.8955096142133 368.83495085429627 L 490.4914570728791 223.78987583988626 L 350.0 196.53898295839107 Z" fill="#eaeaea" fill-opacity="1.0" stroke="none"/><path d="M 223.10449038578662 368.83495085429627 L 350.0 431.31590624511904 L 476.8955096142133 368.83495085429627 L 350.0 323.7098164053687 Z" fill="#eaeaea" fill-opacity="1.0" stroke="none"/><line x1="223.10449038578662" y1="368.83495085429627" x2="209.50854292712094" y2="223.78987583988626" stroke="#ffffff" stroke-width="1.0"/><line x1="258.51719074324154" y1="356.2418900778514" x2="249.13433851177916" y2="216.1037265656184" stroke="#ffffff" stroke-width="1.0"/><line x1="291.28715226805053" y1="344.588609956365" x2="285.512118064908" y2="209.0475895269462" stroke="#ffffff" stroke-width="1.0"/><line x1="321.6995626040243" y1="333.77369531124464" x2="319.02550552723926" y2="202.5470538299018" stroke="#ffffff" stroke-width="1.0"/><line x1="350.0" y1="323.7098164053687" x2="350.0" y2="196.53898295839107" stroke="#ffffff" stroke-width="1.0"/><line x1="223.10449038578662" y1="368.83495085429627" x2="350.0" y2="323.7098164053687" stroke="#ffffff" stroke-width="1.0"/><line x1="219.9583207259301" y1="335.27080126418485" x2="350.0" y2="293.9464298539484" stroke="#ffffff" stroke-width="1.0"/><line x1="216.6521763376063" y1="300.0" x2="350.0" y2="262.8889830176837" stroke="#ffffff" stroke-width="1.0"/><line x1="213.1735374594569" y1="262.8889830176838" x2="350.0" y2="230.4512052109184" stroke="#ffffff" stroke-width="1.0"/><line x1="209.50854292712094" y1="223.78987583988626" x2="350.0" y2="196.53898295839107" stroke="#ffffff" stroke-width="1.0"/><line x1="350.0" y1="323.7098164053687" x2="350.0" y2="196.53898295839107" stroke="#ffffff" stroke-width="1.0"/><line x1="378.3004373959757" y1="333.77369531124464" x2="380.97449447276074" y2="202.5470538299018" stroke="#ffffff" stroke-width="1.0"/><line x1="408.71284773194947" y1="344.588609956365" x2="414.48788193509205" y2="209.0475895269462" stroke="#ffffff" stroke-width="1.0"/><line x1="441.48280925675846" y1="356.2418900778514" x2="450.86566148822084" y2="216.1037265656184" stroke="#ffffff" stroke-width="1.0"/><line x1="476.8955096142133" y1="368.83495085429627" x2="490.4914570728791" y2="223.78987583988626" stroke="#ffffff" stroke-width="1.0"/><line x1="350.0" y1="323.7098164053687" x2="476.8955096142133" y2="368.83495085429627" stroke="#ffffff" stroke-width="1.0"/><line x1="350.0" y1="293.9464298539484" x2="480.04167927406985" y2="335.27080126418485" stroke="#ffffff" stroke-width="1.0"/><line x1="350.0" y1="262.8889830176837" x2="483.3478236623937" y2="300.0" stroke="#ffffff" stroke-width="1.0"/><line x1="350.0" y1="230.4512052109184" x2="486.8264625405431" y2="262.8889830176838" stroke="#ffffff" stroke-width="1.0"/><line x1="350.0" y1="196.53898295839107" x2="490.4914570728791" y2="223.78987583988626" stroke="#ffffff" stroke-width="1.0"/><line x1="223.10449038578662" y1="368.83495085429627" x2="350.0" y2="323.7098164053687" stroke="#ffffff" stroke-width="1.0"/><line x1="250.82955971326183" y1="382.4862520321231" x2="378.3004373959757" y2="333.77369531124464" stroke="#ffffff" stroke-width="1.0"/><line x1="280.9866526659541" y1="397.3350357694084" x2="408.71284773194947" y2="344.588609956365" stroke="#ffffff" stroke-width="1.0"/><line x1="313.9104513941228" y1="413.5460932440594" x2="441.48280925675846" y2="356.2418900778514" stroke="#ffffff" stroke-width="1.0"/><line x1="350.0" y1="431.31590624511904" x2="476.8955096142133" y2="368.83495085429627" stroke="#ffffff" stroke-width="1.0"/><line x1="223.10449038578662" y1="368.83495085429627" x2="350.0" y2="431.31590624511904" stroke="#ffffff" stroke-width="1.0"/><line x1="258.51719074324154" y1="356.2418900778514" x2="386.0895486058772" y2="413.5460932440594" stroke="#ffffff" stroke-width="1.0"/><line x1="291.28715226805053" y1="344.588609956365" x2="419.0133473340459" y2="397.3350357694084" stroke="#ffffff" stroke-width="1.0"/><line x1="321.6995626040243" y1="333.77369531124464" x2="449.1704402867382" y2="382.4862520321231" stroke="#ffffff" stroke-width="1.0"/><line x1="350.0" y1="323.7098164053687" x2="476.8955096142133" y2="368.83495085429627" stroke="#ffffff" stroke-width="1.0"/><line x1="223.10449038578662" y1="368.83495085429627" x2="350.0" y2="431.31590624511904" stroke="#bbbbbb" stroke-width="1.0"/><line x1="350.0" y1="431.31590624511904" x2="476.8955096142133" y2="368.83495085429627" stroke="#bbbbbb" stroke-width="1.0"/><line x1="476.8955096142133" y1="368.83495085429627" x2="350.0" y2="323.7098164053687" stroke="#bbbbbb" stroke-width="1.0"/><line x1="350.0" y1="323.7098164053687" x2="223.10449038578662" y2="368.83495085429627" stroke="#bbbbbb" stroke-width="1.0"/><line x1="209.50854292712094" y1="223.78987583988626" x2="350.0" y2="262.8889830176838" stroke="#bbbbbb" stroke-width="1.0"/><line x1="350.0" y1="262.8889830176838" x2="490.4914570728791" y2="223.78987583988626" stroke="#bbbbbb" stroke-width="1.0"/><line x1="490.4914570728791" y1="223.78987583988626" x2="350.0" y2="196.53898295839107" stroke="#bbbbbb" stroke-width="1.0"/><line x1="350.0" y1="196.53898295839107" x2="209.50854292712094" y2="223.78987583988626" stroke="#bbbbbb" stroke-width="1.0"/><line x1="223.10449038578662" y1="368.83495085429627" x2="209.50854292712094" y2="223.78987583988626" stroke="#bbbbbb" stroke-width="1.0"/><line x1="350.0" y1="431.31590624511904" x2="350.0" y2="262.8889830176838" stroke="#bbbbbb" stroke-width="1.0"/><line x1="476.8955096142133" y1="368.83495085429627" x2="490.4914570728791" y2="223.78987583988626" stroke="#bbbbbb" stroke-width="1.0"/><line x1="350.0" y1="323.7098164053687" x2="350.0" y2="196.53898295839107" stroke="#bbbbbb" stroke-width="1.0"/><line x1="223.10449038578662" y1="368.83495085429627" x2="228.96120621413496" y2="366.75225234126884" stroke="#888888" stroke-width="1.0"/><text x="217.1717133129143" y="380.94469739996043" fill="#444444" font-size="9.0" font-family="sans-serif" text-anchor="middle">0</text><line x1="250.82955971326183" y1="382.4862520321231" x2="256.7455703970338" y2="380.22546893222255" stroke="#888888" stroke-width="1.0"/><text x="244.8334676665961" y="394.77763794894275" fill="#444444" font-size="9.0" font-family="sans-serif" text-anchor="middle">0.8</text><line x1="280.9866526659541" y1="397.3350357694084" x2="286.9501753624153" y2="394.8723106617611" stroke="#888888" stroke-width="1.0"/><text x="274.9388398960448" y="409.83256971249955" fill="#444444" font-size="9.0" font-family="sans-serif" text-anchor="middle">1.5</text><line x1="313.9104513941228" y1="413.5460932440594" x2="319.90565509695705" y2="410.85310883296984" stroke="#888888" stroke-width="1.0"/><text x="307.8265940320969" y="426.2788999754608" fill="#444444" font-size="9.0" font-family="sans-serif" text-anchor="middle">2.2</text><line x1="350.0" y1="431.31590624511904" x2="356.00574167639786" y2="428.35879232585876" stroke="#888888" stroke-width="1.0"/><text x="343.9011460495494" y="444.31886689180976" fill="#444444" font-size="9.0" font-family="sans-serif" text-anchor="middle">3</text><line x1="350.0" y1="431.31590624511904" x2="343.9942583236021" y2="428.35879232585876" stroke="#888888" stroke-width="1.0"/><text x="356.0988539504506" y="438.31886689180976" fill="#444444" font-size="9.0" font-family="sans-serif" text-anchor="middle">1</text><line x1="386.0895486058772" y1="413.5460932440594" x2="380.09434490304295" y2="410.85310883296984" stroke="#888888" stroke-width="1.0"/><text x="392.1734059679031" y="420.2788999754608" fill="#444444" font-size="9.0" font-family="sans-serif" text-anchor="middle">1.3</text><line x1="419.0133473340459" y1="397.3350357694084" x2="413.0498246375848" y2="394.8723106617611" stroke="#888888" stroke-width="1.0"/><text x="425.06116010395516" y="403.83256971249955" fill="#444444" font-size="9.0" font-family="sans-serif" text-anchor="middle">1.6</text><line x1="449.1704402867382" y1="382.4862520321231" x2="443.2544296029661" y2="380.22546893222255" stroke="#888888" stroke-width="1.0"/><text x="455.16653233340395" y="388.77763794894275" fill="#444444" font-size="9.0" font-family="sans-serif" text-anchor="middle">1.9</text><line x1="476.8955096142133" y1="368.83495085429627" x2="471.03879378586504" y2="366.75225234126884" stroke="#888888" stroke-width="1.0"/><text x="482.82828668708567" y="374.94469739996043" fill="#444444" font-size="9.0" font-family="sans-serif" text-anchor="middle">2.2</text><line x1="223.10449038578662" y1="368.83495085429627" x2="233.2561311549237" y2="368.83495085429627" stroke="#888888" stroke-width="1.0"/><text x="212.95284961664956" y="372.83495085429627" fill="#444444" font-size="9.0" font-family="sans-serif" text-anchor="middle">0</text><line x1="219.9583207259301" y1="335.27080126418485" x2="230.36165506785568" y2="335.27080126418485" stroke="#888888" stroke-width="1.0"/><text x="209.5549863840045" y="339.27080126418485" fill="#444444" font-size="9.0" font-family="sans-serif" text-anchor="middle">0.9</text><line x1="216.6521763376063" y1="300.0" x2="227.32000223059777" y2="300.0" stroke="#888888" stroke-width="1.0"/><text x="205.9843504446148" y="304.0" fill="#444444" font-size="9.0" font-family="sans-serif" text-anchor="middle">1.7</text><line x1="213.1735374594569" y1="262.8889830176838" x2="224.11965446270034" y2="262.8889830176837" stroke="#888888" stroke-width="1.0"/><text x="202.22742045621345" y="266.8889830176838" fill="#444444" font-size="9.0" font-family="sans-serif" text-anchor="middle">2.6</text><line x1="209.50854292712094" y1="223.78987583988626" x2="220.74785949295125" y2="223.78987583988626" stroke="#888888" stroke-width="1.0"/><text x="198.26922636129055" y="227.78987583988626" fill="#444444" font-size="9.0" font-family="sans-serif" text-anchor="middle">3.4</text><text x="262.58309337687524" y="418.9350584134383" fill="#333333" font-size="11.0" font-family="sans-serif" text-anchor="middle" font-weight="bold">t</text><text x="437.41690662312476" y="404.9350584134383" fill="#333333" font-size="11.0" font-family="sans-serif" text-anchor="middle" font-weight="bold">series</text><text x="195.3165245516233" y="300.0" fill="#333333" font-size="11.0" font-family="sans-serif" text-anchor="middle" font-weight="bold">value</text><line x1="223.10449038578662" y1="368.83495085429627" x2="215.55159502919963" y2="288.25871467048415" stroke="#d62728" stroke-width="2.0"/><circle cx="215.55159502919963" cy="288.25871467048415" r="2.7773115811533278" fill="#d62728" fill-opacity="1.0" stroke="#333333" stroke-width="0.5"/><line x1="241.33257463976204" y1="377.8101157170664" x2="231.3763432497497" y2="254.5999675070953" stroke="#d62728" stroke-width="2.0"/><circle cx="231.3763432497497" cy="254.5999675070953" r="2.7790487068945975" fill="#d62728" fill-opacity="1.0" stroke="#333333" stroke-width="0.5"/><line x1="260.59634549907696" y1="387.29523312885755" x2="250.41111903694647" y2="235.17316020810583" stroke="#d62728" stroke-width="2.0"/><circle cx="250.41111903694647" cy="235.17316020810583" r="2.780595617008219" fill="#d62728" fill-opacity="1.0" stroke="#333333" stroke-width="0.5"/><line x1="280.9866526659541" y1="397.3350357694084" x2="273.0038830618513" y2="244.04299376748446" stroke="#d62728" stroke-width="2.0"/><circle cx="273.0038830618513" cy="244.04299376748446" r="2.781609069859086" fill="#d62728" fill-opacity="1.0" stroke="#333333" stroke-width="0.5"/><line x1="302.6052915898721" y1="407.9796457979443" x2="298.07302964205513" y2="282.26616256096787" stroke="#d62728" stroke-width="2.0"/><circle cx="298.07302964205513" cy="282.26616256096787" r="2.7820023817373185" fill="#d62728" fill-opacity="1.0" stroke="#333333" stroke-width="0.5"/><line x1="325.5667031177602" y1="419.28541172887367" x2="324.01725796578233" y2="336.6360086686646" stroke="#d62728" stroke-width="2.0"/><circle cx="324.01725796578233" cy="336.6360086686646" r="2.782027788054062" fill="#d62728" fill-opacity="1.0" stroke="#333333" stroke-width="0.5"/><line x1="350.0" y1="431.31590624511904" x2="350.0" y2="388.0361677451554" stroke="#d62728" stroke-width="2.0"/><circle cx="350.0" cy="388.0361677451554" r="2.7821318240436934" fill="#d62728" fill-opacity="1.0" stroke="#333333" stroke-width="0.5"/><line x1="350.0" y1="323.7098164053687" x2="350.0" y2="252.59973685932752" stroke="#1f77b4" stroke-width="2.0"/><circle cx="350.0" cy="252.59973685932752" r="2.772996765901321" fill="#1f77b4" fill-opacity="1.0" stroke="#333333" stroke-width="0.5"/><line x1="368.64341610445786" y1="330.33957549502156" x2="369.564018625916" y2="261.5909991030413" stroke="#1f77b4" stroke-width="2.0"/><circle cx="369.564018625916" cy="261.5909991030413" r="2.773559317064284" fill="#1f77b4" fill-opacity="1.0" stroke="#333333" stroke-width="0.5"/><line x1="388.1918524081613" y1="337.2911675501916" x2="389.82991041342825" y2="277.8754012189114" stroke="#1f77b4" stroke-width="2.0"/><circle cx="389.82991041342825" cy="277.8754012189114" r="2.774022321319911" fill="#1f77b4" fill-opacity="1.0" stroke="#333333" stroke-width="0.5"/><line x1="408.71284773194947" y1="344.588609956365" x2="410.6340238656924" y2="299.4982841795116" stroke="#1f77b4" stroke-width="2.0"/><circle cx="410.6340238656924" cy="299.4982841795116" r="2.7744133549844365" fill="#1f77b4" fill-opacity="1.0" stroke="#333333" stroke-width="0.5"/><line x1="430.28083261307376" y1="352.2583708526494" x2="431.96933642773377" y2="323.43693997212614" stroke="#1f77b4" stroke-width="2.0"/><circle cx="431.96933642773377" cy="323.43693997212614" r="2.774784079718831" fill="#1f77b4" fill-opacity="1.0" stroke="#333333" stroke-width="0.5"/><line x1="452.97803136231977" y1="360.3296899110429" x2="454.03614384149296" y2="346.3323009513089" stroke="#1f77b4" stroke-width="2.0"/><circle cx="454.03614384149296" cy="346.3323009513089" r="2.775199532470878" fill="#1f77b4" fill-opacity="1.0" stroke="#333333" stroke-width="0.5"/><line x1="476.8955096142133" y1="368.83495085429627" x2="477.23834890625494" y2="365.1774528400361" stroke="#1f77b4" stroke-width="2.0"/><circle cx="477.23834890625494" cy="365.1774528400361" r="2.7757261633390855" fill="#1f77b4" fill-opacity="1.0" stroke="#333333" stroke-width="0.5"/></svg>