<svg xmlns="http://www.w3.org/2000/svg" width="700" height="700" viewBox="0 0 700 700"><rect x="0" y="0" width="700" height="700" fill="#fafafa"/><text x="20" y="30" text-anchor="start" font-family="sans-serif" font-size="16" fill="#333">3D surface wireframe (surfaceWire = plot_wireframe 相当)</text><line x1="-44.032801139293554" y1="375.6493506355241" x2="350.0" y2="709.6913953670653" stroke="#bbbbbb" stroke-width="1.0"/><line x1="350.0" y1="709.6913953670653" x2="744.0328011392935" y2="375.6493506355241" stroke="#bbbbbb" stroke-width="1.0"/><line x1="744.0328011392935" y1="375.6493506355241" x2="350.0" y2="264.5497161808736" stroke="#bbbbbb" stroke-width="1.0"/><line x1="350.0" y1="264.5497161808736" x2="-44.032801139293554" y2="375.6493506355241" stroke="#bbbbbb" stroke-width="1.0"/><line x1="-71.4743712186372" y1="258.5478510078635" x2="350.0" y2="507.5790874941428" stroke="#bbbbbb" stroke-width="1.0"/><line x1="350.0" y1="507.5790874941428" x2="771.4743712186372" y2="258.5478510078635" stroke="#bbbbbb" stroke-width="1.0"/><line x1="771.4743712186372" y1="258.5478510078635" x2="350.0" y2="183.25933765154656" stroke="#bbbbbb" stroke-width="1.0"/><line x1="350.0" y1="183.25933765154656" x2="-71.4743712186372" y2="258.5478510078635" stroke="#bbbbbb" stroke-width="1.0"/><line x1="-44.032801139293554" y1="375.6493506355241" x2="-71.4743712186372" y2="258.5478510078635" stroke="#bbbbbb" stroke-width="1.0"/><line x1="350.0" y1="709.6913953670653" x2="350.0" y2="507.5790874941428" stroke="#bbbbbb" stroke-width="1.0"/><line x1="744.0328011392935" y1="375.6493506355241" x2="771.4743712186372" y2="258.5478510078635" stroke="#bbbbbb" stroke-width="1.0"/><line x1="350.0" y1="264.5497161808736" x2="350.0" y2="183.25933765154656" stroke="#bbbbbb" stroke-width="1.0"/><line x1="-44.032801139293554" y1="375.6493506355241" x2="-20.842261812012012" y2="369.1106552918429" stroke="#888888" stroke-width="1.0"/><text x="-68.1715056179461" y="392.45538616361483" fill="#444444" font-size="9.0" font-family="sans-serif" text-anchor="middle">-3</text><line x1="12.177030702618993" y1="423.3013407952239" x2="37.3540858273691" y2="414.78088046517604" stroke="#888888" stroke-width="1.0"/><text x="-14.180198881103777" y="442.2211977032427" fill="#444444" font-size="9.0" font-family="sans-serif" text-anchor="middle">-1.5</text><line x1="87.16520280352245" y1="486.8727040595005" x2="114.4863383385663" y2="475.31126567321644" stroke="#888888" stroke-width="1.0"/><text x="58.34359300568439" y="509.06909558370404" fill="#444444" font-size="9.0" font-family="sans-serif" text-anchor="middle">0</text><line x1="192.22884499837107" y1="575.9406033923372" x2="221.59226410541004" y2="559.363821298889" stroke="#888888" stroke-width="1.0"/><text x="160.91867987318588" y="603.6163986632515" fill="#444444" font-size="9.0" font-family="sans-serif" text-anchor="middle">1.5</text><line x1="350.0" y1="709.6913953670653" x2="380.3569965122105" y2="683.9561947504488" stroke="#888888" stroke-width="1.0"/><text x="317.1044393195209" y="747.5786685091131" fill="#444444" font-size="9.0" font-family="sans-serif" text-anchor="middle">3</text><line x1="350.0" y1="709.6913953670653" x2="319.64300348778943" y2="683.9561947504488" stroke="#888888" stroke-width="1.0"/><text x="382.89556068047904" y="741.5786685091131" fill="#444444" font-size="9.0" font-family="sans-serif" text-anchor="middle">-3</text><line x1="507.77115500162887" y1="575.9406033923372" x2="478.40773589458996" y2="559.363821298889" stroke="#888888" stroke-width="1.0"/><text x="539.081320126814" y="597.6163986632515" fill="#444444" font-size="9.0" font-family="sans-serif" text-anchor="middle">-1.5</text><line x1="612.8347971964776" y1="486.8727040595005" x2="585.5136616614337" y2="475.31126567321644" stroke="#888888" stroke-width="1.0"/><text x="641.6564069943156" y="503.06909558370404" fill="#444444" font-size="9.0" font-family="sans-serif" text-anchor="middle">0</text><line x1="687.822969297381" y1="423.3013407952239" x2="662.6459141726309" y2="414.78088046517604" stroke="#888888" stroke-width="1.0"/><text x="714.1801988811038" y="436.2211977032427" fill="#444444" font-size="9.0" font-family="sans-serif" text-anchor="middle">1.5</text><line x1="744.0328011392935" y1="375.6493506355241" x2="720.842261812012" y2="369.1106552918429" stroke="#888888" stroke-width="1.0"/><text x="768.1715056179462" y="386.45538616361483" fill="#444444" font-size="9.0" font-family="sans-serif" text-anchor="middle">3</text><line x1="-44.032801139293554" y1="375.6493506355241" x2="-12.510177048150048" y2="375.6493506355241" stroke="#888888" stroke-width="1.0"/><text x="-75.55542523043712" y="379.6493506355241" fill="#444444" font-size="9.0" font-family="sans-serif" text-anchor="middle">-0.3</text><line x1="-50.55264808220083" y1="347.8271869564872" x2="-18.5084362356248" y2="347.8271869564872" stroke="#888888" stroke-width="1.0"/><text x="-82.59685992877701" y="351.8271869564872" fill="#444444" font-size="9.0" font-family="sans-serif" text-anchor="middle">0</text><line x1="-57.291885905844396" y1="319.0688158715121" x2="-24.70853503337689" y2="319.0688158715121" stroke="#888888" stroke-width="1.0"/><text x="-89.87523677831203" y="323.0688158715121" fill="#444444" font-size="9.0" font-family="sans-serif" text-anchor="middle">0.4</text><line x1="-64.26177776645345" y1="289.32617407805606" x2="-31.12083554513714" y2="289.32617407805606" stroke="#888888" stroke-width="1.0"/><text x="-97.40271998776976" y="293.32617407805606" fill="#444444" font-size="9.0" font-family="sans-serif" text-anchor="middle">0.7</text><line x1="-71.4743712186372" y1="258.5478510078635" x2="-37.75642152114622" y2="258.5478510078635" stroke="#888888" stroke-width="1.0"/><text x="-105.19232091612832" y="262.5478510078635" fill="#444444" font-size="9.0" font-family="sans-serif" text-anchor="middle">1</text><text x="-4.324217160074696" y="539.5881260649021" fill="#333333" font-size="11.0" font-family="sans-serif" text-anchor="middle" font-weight="bold">x</text><text x="704.3242171600747" y="525.5881260649021" fill="#333333" font-size="11.0" font-family="sans-serif" text-anchor="middle" font-weight="bold">y</text><text x="-122.45858765077955" y="319.0688158715121" fill="#333333" font-size="11.0" font-family="sans-serif" text-anchor="middle" font-weight="bold">z</text><line x1="350.0" y1="245.2649886707503" x2="364.9822340786079" y2="254.17544499849612" stroke="#2563eb" stroke-width="1.0"/><line x1="335.0177659213921" y1="254.17544499849612" x2="350.0" y2="245.2649886707503" stroke="#2563eb" stroke-width="1.0"/><line x1="335.0177659213921" y1="254.17544499849612" x2="350.0" y2="262.26410319517174" stroke="#2563eb" stroke-width="1.0"/><line x1="350.0" y1="262.26410319517174" x2="364.9822340786079" y2="254.17544499849612" stroke="#2563eb" stroke-width="1.0"/><line x1="364.9822340786079" y1="254.17544499849612" x2="380.4839087279771" y2="261.9464625867879" stroke="#2563eb" stroke-width="1.0"/><line x1="319.51609127202283" y1="261.9464625867879" x2="335.0177659213921" y2="254.17544499849612" stroke="#2563eb" stroke-width="1.0"/><line x1="350.0" y1="262.26410319517174" x2="365.53703187477583" y2="266.97368639505066" stroke="#2563eb" stroke-width="1.0"/><line x1="334.46296812522417" y1="266.9736863950508" x2="350.0" y2="262.26410319517174" stroke="#2563eb" stroke-width="1.0"/><line x1="380.4839087279771" y1="261.9464625867879" x2="396.6033586788256" y2="267.2708294252641" stroke="#2563eb" stroke-width="1.0"/><line x1="303.39664132117446" y1="267.2708294252641" x2="319.51609127202283" y2="261.9464625867879" stroke="#2563eb" stroke-width="1.0"/><line x1="365.53703187477583" y1="266.97368639505066" x2="380.4839087279771" y2="261.9464625867879" stroke="#2563eb" stroke-width="1.0"/><line x1="319.51609127202283" y1="261.9464625867879" x2="334.46296812522417" y2="266.9736863950508" stroke="#2563eb" stroke-width="1.0"/><line x1="396.6033586788256" y1="267.2708294252641" x2="413.4470031736351" y2="270.17262616524573" stroke="#2563eb" stroke-width="1.0"/><line x1="286.55299682636496" y1="270.17262616524573" x2="303.39664132117446" y2="267.2708294252641" stroke="#2563eb" stroke-width="1.0"/><line x1="303.39664132117446" y1="267.2708294252641" x2="318.2421149825482" y2="268.2358624571468" stroke="#2563eb" stroke-width="1.0"/><line x1="381.7578850174518" y1="268.2358624571468" x2="396.6033586788256" y2="267.2708294252641" stroke="#2563eb" stroke-width="1.0"/><line x1="365.53703187477583" y1="266.97368639505066" x2="381.7578850174518" y2="268.2358624571468" stroke="#2563eb" stroke-width="1.0"/><line x1="318.2421149825482" y1="268.2358624571468" x2="334.46296812522417" y2="266.9736863950508" stroke="#2563eb" stroke-width="1.0"/><line x1="349.99999999999994" y1="267.4332846416261" x2="365.53703187477583" y2="266.97368639505066" stroke="#2563eb" stroke-width="1.0"/><line x1="334.46296812522417" y1="266.9736863950508" x2="349.99999999999994" y2="267.4332846416261" stroke="#2563eb" stroke-width="1.0"/><line x1="413.4470031736351" y1="270.17262616524573" x2="431.0870599015543" y2="271.6277417925727" stroke="#2563eb" stroke-width="1.0"/><line x1="268.9129400984457" y1="271.6277417925727" x2="286.55299682636496" y2="270.17262616524573" stroke="#2563eb" stroke-width="1.0"/><line x1="286.55299682636496" y1="270.17262616524573" x2="301.23702479449275" y2="267.5637428434595" stroke="#2563eb" stroke-width="1.0"/><line x1="398.76297520550725" y1="267.56374284345947" x2="413.4470031736351" y2="270.17262616524573" stroke="#2563eb" stroke-width="1.0"/><line x1="381.7578850174518" y1="268.2358624571468" x2="398.76297520550725" y2="267.56374284345947" stroke="#2563eb" stroke-width="1.0"/><line x1="301.23702479449275" y1="267.5637428434595" x2="318.2421149825482" y2="268.2358624571468" stroke="#2563eb" stroke-width="1.0"/><line x1="318.2421149825482" y1="268.2358624571468" x2="333.7247210718394" y2="265.2567978599154" stroke="#2563eb" stroke-width="1.0"/><line x1="366.27527892816056" y1="265.2567978599154" x2="381.7578850174518" y2="268.2358624571468" stroke="#2563eb" stroke-width="1.0"/><line x1="349.99999999999994" y1="267.4332846416261" x2="366.27527892816056" y2="265.2567978599154" stroke="#2563eb" stroke-width="1.0"/><line x1="333.7247210718394" y1="265.2567978599154" x2="349.99999999999994" y2="267.4332846416261" stroke="#2563eb" stroke-width="1.0"/><line x1="250.44818986695964" y1="272.8722006291532" x2="268.9129400984457" y2="271.6277417925727" stroke="#2563eb" stroke-width="1.0"/><line x1="431.0870599015543" y1="271.6277417925727" x2="449.55181013304036" y2="272.8722006291532" stroke="#2563eb" stroke-width="1.0"/><line x1="268.9129400984457" y1="271.6277417925727" x2="283.4113956054073" y2="266.9380669294406" stroke="#2563eb" stroke-width="1.0"/><line x1="416.58860439459266" y1="266.9380669294406" x2="431.0870599015543" y2="271.6277417925727" stroke="#2563eb" stroke-width="1.0"/><line x1="398.76297520550725" y1="267.56374284345947" x2="416.58860439459266" y2="266.9380669294406" stroke="#2563eb" stroke-width="1.0"/><line x1="283.4113956054073" y1="266.9380669294406" x2="301.23702479449275" y2="267.5637428434595" stroke="#2563eb" stroke-width="1.0"/><line x1="301.23702479449275" y1="267.5637428434595" x2="316.64183655123145" y2="263.50437386804435" stroke="#2563eb" stroke-width="1.0"/><line x1="383.35816344876855" y1="263.50437386804435" x2="398.76297520550725" y2="267.56374284345947" stroke="#2563eb" stroke-width="1.0"/><line x1="316.64183655123145" y1="263.50437386804435" x2="333.7247210718394" y2="265.2567978599154" stroke="#2563eb" stroke-width="1.0"/><line x1="366.27527892816056" y1="265.2567978599154" x2="383.35816344876855" y2="263.50437386804435" stroke="#2563eb" stroke-width="1.0"/><line x1="333.7247210718394" y1="265.2567978599154" x2="350.0" y2="262.4824331944439" stroke="#2563eb" stroke-width="1.0"/><line x1="350.0" y1="262.4824331944439" x2="366.27527892816056" y2="265.2567978599154" stroke="#2563eb" stroke-width="1.0"/><line x1="449.55181013304036" y1="272.8722006291532" x2="468.8439214481823" y2="274.8612213026816" stroke="#2563eb" stroke-width="1.0"/><line x1="231.15607855181773" y1="274.8612213026816" x2="250.44818986695964" y2="272.8722006291532" stroke="#2563eb" stroke-width="1.0"/><line x1="250.44818986695964" y1="272.8722006291532" x2="264.77301558471214" y2="267.75501806979673" stroke="#2563eb" stroke-width="1.0"/><line x1="435.2269844152879" y1="267.7550180697967" x2="449.55181013304036" y2="272.8722006291532" stroke="#2563eb" stroke-width="1.0"/><line x1="416.58860439459266" y1="266.9380669294406" x2="435.2269844152879" y2="267.7550180697967" stroke="#2563eb" stroke-width="1.0"/><line x1="264.77301558471214" y1="267.75501806979673" x2="283.4113956054073" y2="266.9380669294406" stroke="#2563eb" stroke-width="1.0"/><line x1="283.4113956054073" y1="266.9380669294406" x2="298.7706447263937" y2="264.4950121351744" stroke="#2563eb" stroke-width="1.0"/><line x1="401.2293552736063" y1="264.4950121351744" x2="416.58860439459266" y2="266.9380669294406" stroke="#2563eb" stroke-width="1.0"/><line x1="298.7706447263937" y1="264.4950121351744" x2="316.64183655123145" y2="263.50437386804435" stroke="#2563eb" stroke-width="1.0"/><line x1="383.35816344876855" y1="263.50437386804435" x2="401.2293552736063" y2="264.4950121351744" stroke="#2563eb" stroke-width="1.0"/><line x1="316.64183655123145" y1="263.50437386804435" x2="332.91698050792365" y2="263.80555991152266" stroke="#2563eb" stroke-width="1.0"/><line x1="367.08301949207635" y1="263.80555991152266" x2="383.35816344876855" y2="263.50437386804435" stroke="#2563eb" stroke-width="1.0"/><line x1="350.0" y1="262.4824331944439" x2="367.08301949207635" y2="263.80555991152266" stroke="#2563eb" stroke-width="1.0"/><line x1="332.91698050792365" y1="263.80555991152266" x2="350.0" y2="262.4824331944439" stroke="#2563eb" stroke-width="1.0"/><line x1="468.8439214481823" y1="274.8612213026816" x2="488.96425060257246" y2="278.0990101503851" stroke="#2563eb" stroke-width="1.0"/><line x1="211.03574939742754" y1="278.0990101503851" x2="231.15607855181773" y2="274.8612213026816" stroke="#2563eb" stroke-width="1.0"/><line x1="231.15607855181773" y1="274.8612213026816" x2="245.3263704697949" y2="270.4103270089722" stroke="#2563eb" stroke-width="1.0"/><line x1="454.6736295302051" y1="270.4103270089722" x2="468.8439214481823" y2="274.8612213026816" stroke="#2563eb" stroke-width="1.0"/><line x1="435.2269844152879" y1="267.7550180697967" x2="454.6736295302051" y2="270.4103270089722" stroke="#2563eb" stroke-width="1.0"/><line x1="245.3263704697949" y1="270.4103270089722" x2="264.77301558471214" y2="267.75501806979673" stroke="#2563eb" stroke-width="1.0"/><line x1="264.77301558471214" y1="267.75501806979673" x2="280.15259433307676" y2="268.7464377260783" stroke="#2563eb" stroke-width="1.0"/><line x1="419.8474056669232" y1="268.7464377260783" x2="435.2269844152879" y2="267.7550180697967" stroke="#2563eb" stroke-width="1.0"/><line x1="332.91698050792365" y1="263.80555991152266" x2="350.0" y2="271.6727585827207" stroke="#2563eb" stroke-width="1.0"/><line x1="350.0" y1="271.6727585827207" x2="367.08301949207635" y2="263.80555991152266" stroke="#2563eb" stroke-width="1.0"/><line x1="298.7706447263937" y1="264.4950121351744" x2="315.11101781101945" y2="270.5243999308712" stroke="#2563eb" stroke-width="1.0"/><line x1="384.88898218898055" y1="270.52439993087114" x2="401.2293552736063" y2="264.4950121351744" stroke="#2563eb" stroke-width="1.0"/><line x1="367.08301949207635" y1="263.80555991152266" x2="384.88898218898055" y2="270.52439993087114" stroke="#2563eb" stroke-width="1.0"/><line x1="315.11101781101945" y1="270.5243999308712" x2="332.91698050792365" y2="263.80555991152266" stroke="#2563eb" stroke-width="1.0"/><line x1="401.2293552736063" y1="264.4950121351744" x2="419.8474056669232" y2="268.7464377260783" stroke="#2563eb" stroke-width="1.0"/><line x1="280.15259433307676" y1="268.7464377260783" x2="298.7706447263937" y2="264.4950121351744" stroke="#2563eb" stroke-width="1.0"/><line x1="488.96425060257246" y1="278.0990101503851" x2="509.922102593395" y2="282.7729236053228" stroke="#2563eb" stroke-width="1.0"/><line x1="190.07789740660505" y1="282.7729236053228" x2="211.03574939742754" y2="278.0990101503851" stroke="#2563eb" stroke-width="1.0"/><line x1="350.0" y1="271.6727585827207" x2="367.739802126933" y2="285.7007074073648" stroke="#2563eb" stroke-width="1.0"/><line x1="332.260197873067" y1="285.7007074073648" x2="350.0" y2="271.6727585827207" stroke="#2563eb" stroke-width="1.0"/><line x1="315.11101781101945" y1="270.5243999308712" x2="332.260197873067" y2="285.7007074073648" stroke="#2563eb" stroke-width="1.0"/><line x1="367.739802126933" y1="285.7007074073648" x2="384.88898218898055" y2="270.52439993087114" stroke="#2563eb" stroke-width="1.0"/><line x1="211.03574939742754" y1="278.0990101503851" x2="225.04034008627062" y2="274.559111869569" stroke="#2563eb" stroke-width="1.0"/><line x1="474.9596599137294" y1="274.559111869569" x2="488.96425060257246" y2="278.0990101503851" stroke="#2563eb" stroke-width="1.0"/><line x1="384.88898218898055" y1="270.52439993087114" x2="403.3583792012265" y2="281.0750019563467" stroke="#2563eb" stroke-width="1.0"/><line x1="296.6416207987735" y1="281.0750019563467" x2="315.11101781101945" y2="270.5243999308712" stroke="#2563eb" stroke-width="1.0"/><line x1="280.15259433307676" y1="268.7464377260783" x2="296.6416207987735" y2="281.0750019563467" stroke="#2563eb" stroke-width="1.0"/><line x1="403.3583792012265" y1="281.0750019563467" x2="419.8474056669232" y2="268.7464377260783" stroke="#2563eb" stroke-width="1.0"/><line x1="245.3263704697949" y1="270.4103270089722" x2="260.77588460586975" y2="275.21385131244756" stroke="#2563eb" stroke-width="1.0"/><line x1="439.22411539413025" y1="275.21385131244756" x2="454.6736295302051" y2="270.4103270089722" stroke="#2563eb" stroke-width="1.0"/><line x1="225.04034008627062" y1="274.559111869569" x2="245.3263704697949" y2="270.4103270089722" stroke="#2563eb" stroke-width="1.0"/><line x1="454.6736295302051" y1="270.4103270089722" x2="474.9596599137294" y2="274.559111869569" stroke="#2563eb" stroke-width="1.0"/><line x1="419.8474056669232" y1="268.7464377260783" x2="439.22411539413025" y2="275.21385131244756" stroke="#2563eb" stroke-width="1.0"/><line x1="260.77588460586975" y1="275.21385131244756" x2="280.15259433307676" y2="268.7464377260783" stroke="#2563eb" stroke-width="1.0"/><line x1="332.260197873067" y1="285.7007074073648" x2="350.0" y2="304.65587508069484" stroke="#2563eb" stroke-width="1.0"/><line x1="350.0" y1="304.65587508069484" x2="367.739802126933" y2="285.7007074073648" stroke="#2563eb" stroke-width="1.0"/><line x1="367.739802126933" y1="285.7007074073648" x2="386.0876130431266" y2="301.54341649926255" stroke="#2563eb" stroke-width="1.0"/><line x1="313.9123869568734" y1="301.54341649926255" x2="332.260197873067" y2="285.7007074073648" stroke="#2563eb" stroke-width="1.0"/><line x1="296.6416207987735" y1="281.0750019563467" x2="313.9123869568734" y2="301.54341649926255" stroke="#2563eb" stroke-width="1.0"/><line x1="386.0876130431266" y1="301.54341649926255" x2="403.3583792012265" y2="281.0750019563467" stroke="#2563eb" stroke-width="1.0"/><line x1="403.3583792012265" y1="281.0750019563467" x2="422.5412333677727" y2="292.6407914645107" stroke="#2563eb" stroke-width="1.0"/><line x1="277.4587666322273" y1="292.6407914645107" x2="296.6416207987735" y2="281.0750019563467" stroke="#2563eb" stroke-width="1.0"/><line x1="509.922102593395" y1="282.7729236053228" x2="531.7300713916195" y2="288.97290535572506" stroke="#2563eb" stroke-width="1.0"/><line x1="168.2699286083805" y1="288.97290535572506" x2="190.07789740660505" y2="282.7729236053228" stroke="#2563eb" stroke-width="1.0"/><line x1="260.77588460586975" y1="275.21385131244756" x2="277.4587666322273" y2="292.6407914645107" stroke="#2563eb" stroke-width="1.0"/><line x1="422.5412333677727" y1="292.6407914645107" x2="439.22411539413025" y2="275.21385131244756" stroke="#2563eb" stroke-width="1.0"/><line x1="190.07789740660505" y1="282.7729236053228" x2="203.85213739158908" y2="279.6836449149695" stroke="#2563eb" stroke-width="1.0"/><line x1="496.1478626084109" y1="279.6836449149695" x2="509.922102593395" y2="282.7729236053228" stroke="#2563eb" stroke-width="1.0"/><line x1="439.22411539413025" y1="275.21385131244756" x2="459.4501822021073" y2="282.2897555334291" stroke="#2563eb" stroke-width="1.0"/><line x1="240.54981779789267" y1="282.289755533429" x2="260.77588460586975" y2="275.21385131244756" stroke="#2563eb" stroke-width="1.0"/><line x1="225.04034008627062" y1="274.559111869569" x2="240.54981779789267" y2="282.289755533429" stroke="#2563eb" stroke-width="1.0"/><line x1="459.4501822021073" y1="282.2897555334291" x2="474.9596599137294" y2="274.559111869569" stroke="#2563eb" stroke-width="1.0"/><line x1="203.85213739158908" y1="279.6836449149695" x2="225.04034008627062" y2="274.559111869569" stroke="#2563eb" stroke-width="1.0"/><line x1="474.9596599137294" y1="274.559111869569" x2="496.1478626084109" y2="279.6836449149695" stroke="#2563eb" stroke-width="1.0"/><line x1="350.0" y1="304.65587508069484" x2="368.3315972263631" y2="320.47885011454804" stroke="#2563eb" stroke-width="1.0"/><line x1="331.6684027736369" y1="320.47885011454804" x2="350.0" y2="304.65587508069484" stroke="#2563eb" stroke-width="1.0"/><line x1="368.3315972263631" y1="320.47885011454804" x2="386.0876130431266" y2="301.54341649926255" stroke="#2563eb" stroke-width="1.0"/><line x1="313.9123869568734" y1="301.54341649926255" x2="331.6684027736369" y2="320.47885011454804" stroke="#2563eb" stroke-width="1.0"/><line x1="386.0876130431266" y1="301.54341649926255" x2="405.1563297726554" y2="315.3777931479899" stroke="#2563eb" stroke-width="1.0"/><line x1="294.8436702273446" y1="315.37779314798996" x2="313.9123869568734" y2="301.54341649926255" stroke="#2563eb" stroke-width="1.0"/><line x1="277.4587666322273" y1="292.6407914645107" x2="294.8436702273446" y2="315.37779314798996" stroke="#2563eb" stroke-width="1.0"/><line x1="405.1563297726554" y1="315.3777931479899" x2="422.5412333677727" y2="292.6407914645107" stroke="#2563eb" stroke-width="1.0"/><line x1="422.5412333677727" y1="292.6407914645107" x2="442.58441879898504" y2="302.92589140399434" stroke="#2563eb" stroke-width="1.0"/><line x1="257.41558120101496" y1="302.92589140399434" x2="277.4587666322273" y2="292.6407914645107" stroke="#2563eb" stroke-width="1.0"/><line x1="531.7300713916195" y1="288.97290535572506" x2="554.3979392673073" y2="296.79213279809966" stroke="#2563eb" stroke-width="1.0"/><line x1="145.6020607326928" y1="296.79213279809966" x2="168.2699286083805" y2="288.97290535572506" stroke="#2563eb" stroke-width="1.0"/><line x1="240.54981779789267" y1="282.289755533429" x2="257.41558120101496" y2="302.92589140399434" stroke="#2563eb" stroke-width="1.0"/><line x1="442.58441879898504" y1="302.92589140399434" x2="459.4501822021073" y2="282.2897555334291" stroke="#2563eb" stroke-width="1.0"/><line x1="168.2699286083805" y1="288.97290535572506" x2="181.70014398865675" y2="285.58004916314604" stroke="#2563eb" stroke-width="1.0"/><line x1="518.2998560113433" y1="285.58004916314604" x2="531.7300713916195" y2="288.97290535572506" stroke="#2563eb" stroke-width="1.0"/><line x1="459.4501822021073" y1="282.2897555334291" x2="480.6692926196613" y2="288.70079970307654" stroke="#2563eb" stroke-width="1.0"/><line x1="219.33070738033865" y1="288.70079970307654" x2="240.54981779789267" y2="282.289755533429" stroke="#2563eb" stroke-width="1.0"/><line x1="203.85213739158908" y1="279.6836449149695" x2="219.33070738033865" y2="288.70079970307654" stroke="#2563eb" stroke-width="1.0"/><line x1="480.6692926196613" y1="288.70079970307654" x2="496.1478626084109" y2="279.6836449149695" stroke="#2563eb" stroke-width="1.0"/><line x1="496.1478626084109" y1="279.6836449149695" x2="518.2998560113433" y2="285.58004916314604" stroke="#2563eb" stroke-width="1.0"/><line x1="181.70014398865675" y1="285.58004916314604" x2="203.85213739158908" y2="279.6836449149695" stroke="#2563eb" stroke-width="1.0"/><line x1="368.3315972263631" y1="320.47885011454804" x2="387.4765258635872" y2="329.93083749466274" stroke="#2563eb" stroke-width="1.0"/><line x1="312.5234741364128" y1="329.93083749466274" x2="331.6684027736369" y2="320.47885011454804" stroke="#2563eb" stroke-width="1.0"/><line x1="350.0" y1="329.15160144565687" x2="368.3315972263631" y2="320.47885011454804" stroke="#2563eb" stroke-width="1.0"/><line x1="331.6684027736369" y1="320.47885011454804" x2="350.0" y2="329.15160144565687" stroke="#2563eb" stroke-width="1.0"/><line x1="294.8436702273446" y1="315.37779314798996" x2="312.5234741364128" y2="329.93083749466274" stroke="#2563eb" stroke-width="1.0"/><line x1="387.4765258635872" y1="329.93083749466274" x2="405.1563297726554" y2="315.3777931479899" stroke="#2563eb" stroke-width="1.0"/><line x1="405.1563297726554" y1="315.3777931479899" x2="425.12476949340123" y2="325.97386992500344" stroke="#2563eb" stroke-width="1.0"/><line x1="274.87523050659877" y1="325.9738699250035" x2="294.8436702273446" y2="315.37779314798996" stroke="#2563eb" stroke-width="1.0"/><line x1="257.41558120101496" y1="302.92589140399434" x2="274.87523050659877" y2="325.9738699250035" stroke="#2563eb" stroke-width="1.0"/><line x1="425.12476949340123" y1="325.97386992500344" x2="442.58441879898504" y2="302.92589140399434" stroke="#2563eb" stroke-width="1.0"/><line x1="442.58441879898504" y1="302.92589140399434" x2="463.676805184234" y2="310.7705636422126" stroke="#2563eb" stroke-width="1.0"/><line x1="236.32319481576602" y1="310.7705636422126" x2="257.41558120101496" y2="302.92589140399434" stroke="#2563eb" stroke-width="1.0"/><line x1="554.3979392673073" y1="296.79213279809966" x2="577.9469202100784" y2="306.2132642751586" stroke="#2563eb" stroke-width="1.0"/><line x1="122.05307978992158" y1="306.2132642751586" x2="145.6020607326928" y2="296.79213279809966" stroke="#2563eb" stroke-width="1.0"/><line x1="219.33070738033865" y1="288.70079970307654" x2="236.32319481576602" y2="310.7705636422126" stroke="#2563eb" stroke-width="1.0"/><line x1="463.676805184234" y1="310.7705636422126" x2="480.6692926196613" y2="288.70079970307654" stroke="#2563eb" stroke-width="1.0"/><line x1="145.6020607326928" y1="296.79213279809966" x2="158.56420315138456" y2="292.57127284224947" stroke="#2563eb" stroke-width="1.0"/><line x1="541.4357968486155" y1="292.57127284224947" x2="554.3979392673073" y2="296.79213279809966" stroke="#2563eb" stroke-width="1.0"/><line x1="480.6692926196613" y1="288.70079970307654" x2="503.02990283301455" y2="293.9393000227134" stroke="#2563eb" stroke-width="1.0"/><line x1="196.97009716698543" y1="293.9393000227133" x2="219.33070738033865" y2="288.70079970307654" stroke="#2563eb" stroke-width="1.0"/><line x1="181.70014398865675" y1="285.58004916314604" x2="196.97009716698543" y2="293.9393000227133" stroke="#2563eb" stroke-width="1.0"/><line x1="503.02990283301455" y1="293.9393000227134" x2="518.2998560113433" y2="285.58004916314604" stroke="#2563eb" stroke-width="1.0"/><line x1="518.2998560113433" y1="285.58004916314604" x2="541.4357968486155" y2="292.57127284224947" stroke="#2563eb" stroke-width="1.0"/><line x1="158.56420315138456" y1="292.57127284224947" x2="181.70014398865675" y2="285.58004916314604" stroke="#2563eb" stroke-width="1.0"/><line x1="387.4765258635872" y1="329.93083749466274" x2="407.645403999775" y2="335.17386523139237" stroke="#2563eb" stroke-width="1.0"/><line x1="292.354596000225" y1="335.17386523139237" x2="312.5234741364128" y2="329.93083749466274" stroke="#2563eb" stroke-width="1.0"/><line x1="274.87523050659877" y1="325.9738699250035" x2="292.354596000225" y2="335.17386523139237" stroke="#2563eb" stroke-width="1.0"/><line x1="407.645403999775" y1="335.17386523139237" x2="425.12476949340123" y2="325.97386992500344" stroke="#2563eb" stroke-width="1.0"/><line x1="425.12476949340123" y1="325.97386992500344" x2="446.1380874595291" y2="334.0552372245886" stroke="#2563eb" stroke-width="1.0"/><line x1="253.86191254047088" y1="334.0552372245886" x2="274.87523050659877" y2="325.9738699250035" stroke="#2563eb" stroke-width="1.0"/><line x1="312.5234741364128" y1="329.93083749466274" x2="330.68613834204757" y2="326.3266071160031" stroke="#2563eb" stroke-width="1.0"/><line x1="369.31386165795243" y1="326.3266071160031" x2="387.4765258635872" y2="329.93083749466274" stroke="#2563eb" stroke-width="1.0"/><line x1="350.0" y1="329.15160144565687" x2="369.31386165795243" y2="326.3266071160031" stroke="#2563eb" stroke-width="1.0"/><line x1="330.68613834204757" y1="326.3266071160031" x2="350.0" y2="329.15160144565687" stroke="#2563eb" stroke-width="1.0"/><line x1="236.32319481576602" y1="310.7705636422126" x2="253.86191254047088" y2="334.0552372245886" stroke="#2563eb" stroke-width="1.0"/><line x1="446.1380874595291" y1="334.0552372245886" x2="463.676805184234" y2="310.7705636422126" stroke="#2563eb" stroke-width="1.0"/><line x1="463.676805184234" y1="310.7705636422126" x2="486.02092343839473" y2="315.77921836990237" stroke="#2563eb" stroke-width="1.0"/><line x1="213.97907656160527" y1="315.77921836990237" x2="236.32319481576602" y2="310.7705636422126" stroke="#2563eb" stroke-width="1.0"/><line x1="577.9469202100784" y1="306.2132642751586" x2="602.4579042992709" y2="316.8296392802456" stroke="#2563eb" stroke-width="1.0"/><line x1="97.5420957007291" y1="316.8296392802456" x2="122.05307978992158" y2="306.2132642751586" stroke="#2563eb" stroke-width="1.0"/><line x1="196.97009716698543" y1="293.9393000227133" x2="213.97907656160527" y2="315.77921836990237" stroke="#2563eb" stroke-width="1.0"/><line x1="486.02092343839473" y1="315.77921836990237" x2="503.02990283301455" y2="293.9393000227134" stroke="#2563eb" stroke-width="1.0"/><line x1="122.05307978992158" y1="306.2132642751586" x2="134.48518776606915" y2="301.378783436015" stroke="#2563eb" stroke-width="1.0"/><line x1="565.5148122339308" y1="301.378783436015" x2="577.9469202100784" y2="306.2132642751586" stroke="#2563eb" stroke-width="1.0"/><line x1="134.48518776606915" y1="301.378783436015" x2="158.56420315138456" y2="292.57127284224947" stroke="#2563eb" stroke-width="1.0"/><line x1="541.4357968486155" y1="292.57127284224947" x2="565.5148122339308" y2="301.378783436015" stroke="#2563eb" stroke-width="1.0"/><line x1="503.02990283301455" y1="293.9393000227134" x2="526.628278248777" y2="298.4118110073573" stroke="#2563eb" stroke-width="1.0"/><line x1="173.37172175122305" y1="298.4118110073573" x2="196.97009716698543" y2="293.9393000227133" stroke="#2563eb" stroke-width="1.0"/><line x1="158.56420315138456" y1="292.57127284224947" x2="173.37172175122305" y2="298.4118110073573" stroke="#2563eb" stroke-width="1.0"/><line x1="526.628278248777" y1="298.4118110073573" x2="541.4357968486155" y2="292.57127284224947" stroke="#2563eb" stroke-width="1.0"/><line x1="407.645403999775" y1="335.17386523139237" x2="428.8509695977921" y2="341.05370996925427" stroke="#2563eb" stroke-width="1.0"/><line x1="271.1490304022079" y1="341.05370996925427" x2="292.354596000225" y2="335.17386523139237" stroke="#2563eb" stroke-width="1.0"/><line x1="253.86191254047088" y1="334.0552372245886" x2="271.1490304022079" y2="341.05370996925427" stroke="#2563eb" stroke-width="1.0"/><line x1="428.8509695977921" y1="341.05370996925427" x2="446.1380874595291" y2="334.0552372245886" stroke="#2563eb" stroke-width="1.0"/><line x1="446.1380874595291" y1="334.0552372245886" x2="468.3369887488022" y2="340.17542729338885" stroke="#2563eb" stroke-width="1.0"/><line x1="231.66301125119787" y1="340.17542729338885" x2="253.86191254047088" y2="334.0552372245886" stroke="#2563eb" stroke-width="1.0"/><line x1="213.97907656160527" y1="315.77921836990237" x2="231.66301125119787" y2="340.17542729338885" stroke="#2563eb" stroke-width="1.0"/><line x1="468.3369887488022" y1="340.17542729338885" x2="486.02092343839473" y2="315.77921836990237" stroke="#2563eb" stroke-width="1.0"/><line x1="292.354596000225" y1="335.17386523139237" x2="310.08123715874456" y2="319.58304692293535" stroke="#2563eb" stroke-width="1.0"/><line x1="389.91876284125544" y1="319.58304692293535" x2="407.645403999775" y2="335.17386523139237" stroke="#2563eb" stroke-width="1.0"/><line x1="369.31386165795243" y1="326.3266071160031" x2="389.91876284125544" y2="319.58304692293535" stroke="#2563eb" stroke-width="1.0"/><line x1="310.08123715874456" y1="319.58304692293535" x2="330.68613834204757" y2="326.3266071160031" stroke="#2563eb" stroke-width="1.0"/><line x1="602.4579042992709" y1="316.8296392802456" x2="628.1405757837206" y2="327.6091089558582" stroke="#2563eb" stroke-width="1.0"/><line x1="71.85942421627949" y1="327.6091089558582" x2="97.5420957007291" y2="316.8296392802456" stroke="#2563eb" stroke-width="1.0"/><line x1="486.02092343839473" y1="315.77921836990237" x2="509.8182551285299" y2="318.0247575358057" stroke="#2563eb" stroke-width="1.0"/><line x1="190.18174487147007" y1="318.0247575358057" x2="213.97907656160527" y2="315.77921836990237" stroke="#2563eb" stroke-width="1.0"/><line x1="330.68613834204757" y1="326.3266071160031" x2="350.0" y2="305.73192935106476" stroke="#2563eb" stroke-width="1.0"/><line x1="350.0" y1="305.73192935106476" x2="369.31386165795243" y2="326.3266071160031" stroke="#2563eb" stroke-width="1.0"/><line x1="97.5420957007291" y1="316.8296392802456" x2="109.5284446852208" y2="312.6262201853843" stroke="#2563eb" stroke-width="1.0"/><line x1="590.4715553147792" y1="312.6262201853843" x2="602.4579042992709" y2="316.8296392802456" stroke="#2563eb" stroke-width="1.0"/><line x1="173.37172175122305" y1="298.4118110073573" x2="190.18174487147007" y2="318.0247575358057" stroke="#2563eb" stroke-width="1.0"/><line x1="509.8182551285299" y1="318.0247575358057" x2="526.628278248777" y2="298.4118110073573" stroke="#2563eb" stroke-width="1.0"/><line x1="109.5284446852208" y1="312.6262201853843" x2="134.48518776606915" y2="301.378783436015" stroke="#2563eb" stroke-width="1.0"/><line x1="565.5148122339308" y1="301.378783436015" x2="590.4715553147792" y2="312.6262201853843" stroke="#2563eb" stroke-width="1.0"/><line x1="134.48518776606915" y1="301.378783436015" x2="148.5552635142235" y2="303.4702159532156" stroke="#2563eb" stroke-width="1.0"/><line x1="551.4447364857765" y1="303.4702159532156" x2="565.5148122339308" y2="301.378783436015" stroke="#2563eb" stroke-width="1.0"/><line x1="148.5552635142235" y1="303.4702159532156" x2="173.37172175122305" y2="298.4118110073573" stroke="#2563eb" stroke-width="1.0"/><line x1="526.628278248777" y1="298.4118110073573" x2="551.4447364857765" y2="303.4702159532156" stroke="#2563eb" stroke-width="1.0"/><line x1="428.8509695977921" y1="341.05370996925427" x2="451.0096650423228" y2="350.1928710929121" stroke="#2563eb" stroke-width="1.0"/><line x1="248.99033495767713" y1="350.1928710929121" x2="271.1490304022079" y2="341.05370996925427" stroke="#2563eb" stroke-width="1.0"/><line x1="231.66301125119787" y1="340.17542729338885" x2="248.99033495767713" y2="350.1928710929121" stroke="#2563eb" stroke-width="1.0"/><line x1="451.0096650423228" y1="350.1928710929121" x2="468.3369887488022" y2="340.17542729338885" stroke="#2563eb" stroke-width="1.0"/><line x1="468.3369887488022" y1="340.17542729338885" x2="491.9686423853823" y2="343.4924709464417" stroke="#2563eb" stroke-width="1.0"/><line x1="208.03135761461778" y1="343.4924709464417" x2="231.66301125119787" y2="340.17542729338885" stroke="#2563eb" stroke-width="1.0"/><line x1="628.1405757837206" y1="327.6091089558582" x2="655.3717140444662" y2="336.9967097617472" stroke="#2563eb" stroke-width="1.0"/><line x1="44.62828595553376" y1="336.9967097617472" x2="71.85942421627949" y2="327.6091089558582" stroke="#2563eb" stroke-width="1.0"/><line x1="190.18174487147007" y1="318.0247575358057" x2="208.03135761461778" y2="343.4924709464417" stroke="#2563eb" stroke-width="1.0"/><line x1="491.9686423853823" y1="343.4924709464417" x2="509.8182551285299" y2="318.0247575358057" stroke="#2563eb" stroke-width="1.0"/><line x1="271.1490304022079" y1="341.05370996925427" x2="288.33102187047564" y2="320.24928102488605" stroke="#2563eb" stroke-width="1.0"/><line x1="411.6689781295244" y1="320.24928102488605" x2="428.8509695977921" y2="341.05370996925427" stroke="#2563eb" stroke-width="1.0"/><line x1="71.85942421627949" y1="327.6091089558582" x2="83.66988650509859" y2="326.1125806628562" stroke="#2563eb" stroke-width="1.0"/><line x1="616.3301134949014" y1="326.1125806628562" x2="628.1405757837206" y2="327.6091089558582" stroke="#2563eb" stroke-width="1.0"/><line x1="389.91876284125544" y1="319.58304692293535" x2="411.6689781295244" y2="320.24928102488605" stroke="#2563eb" stroke-width="1.0"/><line x1="288.33102187047564" y1="320.24928102488605" x2="310.08123715874456" y2="319.58304692293535" stroke="#2563eb" stroke-width="1.0"/><line x1="83.66988650509859" y1="326.1125806628562" x2="109.5284446852208" y2="312.6262201853843" stroke="#2563eb" stroke-width="1.0"/><line x1="590.4715553147792" y1="312.6262201853843" x2="616.3301134949014" y2="326.1125806628562" stroke="#2563eb" stroke-width="1.0"/><line x1="509.8182551285299" y1="318.0247575358057" x2="535.195447157571" y2="318.47951051443306" stroke="#2563eb" stroke-width="1.0"/><line x1="164.80455284242896" y1="318.47951051443306" x2="190.18174487147007" y2="318.0247575358057" stroke="#2563eb" stroke-width="1.0"/><line x1="109.5284446852208" y1="312.6262201853843" x2="122.68870661728229" y2="311.09560657737177" stroke="#2563eb" stroke-width="1.0"/><line x1="577.3112933827176" y1="311.09560657737177" x2="590.4715553147792" y2="312.6262201853843" stroke="#2563eb" stroke-width="1.0"/><line x1="148.5552635142235" y1="303.4702159532156" x2="164.80455284242896" y2="318.47951051443306" stroke="#2563eb" stroke-width="1.0"/><line x1="535.195447157571" y1="318.47951051443306" x2="551.4447364857765" y2="303.4702159532156" stroke="#2563eb" stroke-width="1.0"/><line x1="551.4447364857765" y1="303.4702159532156" x2="577.3112933827176" y2="311.09560657737177" stroke="#2563eb" stroke-width="1.0"/><line x1="122.68870661728229" y1="311.09560657737177" x2="148.5552635142235" y2="303.4702159532156" stroke="#2563eb" stroke-width="1.0"/><line x1="451.0096650423228" y1="350.1928710929121" x2="474.2685077769935" y2="360.1743009994699" stroke="#2563eb" stroke-width="1.0"/><line x1="225.73149222300646" y1="360.1743009994699" x2="248.99033495767713" y2="350.1928710929121" stroke="#2563eb" stroke-width="1.0"/><line x1="310.08123715874456" y1="319.58304692293535" x2="328.99194413929035" y2="282.08145278631133" stroke="#2563eb" stroke-width="1.0"/><line x1="371.0080558607096" y1="282.08145278631133" x2="389.91876284125544" y2="319.58304692293535" stroke="#2563eb" stroke-width="1.0"/><line x1="208.03135761461778" y1="343.4924709464417" x2="225.73149222300646" y2="360.1743009994699" stroke="#2563eb" stroke-width="1.0"/><line x1="474.2685077769935" y1="360.1743009994699" x2="491.9686423853823" y2="343.4924709464417" stroke="#2563eb" stroke-width="1.0"/><line x1="350.0" y1="305.73192935106476" x2="371.0080558607096" y2="282.08145278631133" stroke="#2563eb" stroke-width="1.0"/><line x1="328.99194413929035" y1="282.08145278631133" x2="350.0" y2="305.73192935106476" stroke="#2563eb" stroke-width="1.0"/><line x1="491.9686423853823" y1="343.4924709464417" x2="517.3836662705239" y2="342.8423326045563" stroke="#2563eb" stroke-width="1.0"/><line x1="182.61633372947605" y1="342.8423326045563" x2="208.03135761461778" y2="343.4924709464417" stroke="#2563eb" stroke-width="1.0"/><line x1="248.99033495767713" y1="350.1928710929121" x2="265.8951032179243" y2="334.3815270730301" stroke="#2563eb" stroke-width="1.0"/><line x1="434.1048967820757" y1="334.3815270730301" x2="451.0096650423228" y2="350.1928710929121" stroke="#2563eb" stroke-width="1.0"/><line x1="655.3717140444662" y1="336.9967097617472" x2="684.632067922728" y2="343.5349907697867" stroke="#2563eb" stroke-width="1.0"/><line x1="15.36793207727203" y1="343.5349907697867" x2="44.62828595553376" y2="336.9967097617472" stroke="#2563eb" stroke-width="1.0"/><line x1="44.62828595553376" y1="336.9967097617472" x2="56.64597495283267" y2="340.3105738637356" stroke="#2563eb" stroke-width="1.0"/><line x1="643.3540250471674" y1="340.3105738637356" x2="655.3717140444662" y2="336.9967097617472" stroke="#2563eb" stroke-width="1.0"/><line x1="616.3301134949014" y1="326.1125806628562" x2="643.3540250471674" y2="340.3105738637356" stroke="#2563eb" stroke-width="1.0"/><line x1="56.64597495283267" y1="340.3105738637356" x2="83.66988650509859" y2="326.1125806628562" stroke="#2563eb" stroke-width="1.0"/><line x1="164.80455284242896" y1="318.47951051443306" x2="182.61633372947605" y2="342.8423326045563" stroke="#2563eb" stroke-width="1.0"/><line x1="517.3836662705239" y1="342.8423326045563" x2="535.195447157571" y2="318.47951051443306" stroke="#2563eb" stroke-width="1.0"/><line x1="411.6689781295244" y1="320.24928102488605" x2="434.1048967820757" y2="334.3815270730301" stroke="#2563eb" stroke-width="1.0"/><line x1="265.8951032179243" y1="334.3815270730301" x2="288.33102187047564" y2="320.24928102488605" stroke="#2563eb" stroke-width="1.0"/><line x1="83.66988650509859" y1="326.1125806628562" x2="96.00409405728576" y2="322.90271637951247" stroke="#2563eb" stroke-width="1.0"/><line x1="603.9959059427143" y1="322.90271637951247" x2="616.3301134949014" y2="326.1125806628562" stroke="#2563eb" stroke-width="1.0"/><line x1="535.195447157571" y1="318.47951051443306" x2="562.060738113123" y2="319.64604854922123" stroke="#2563eb" stroke-width="1.0"/><line x1="137.93926188687698" y1="319.64604854922123" x2="164.80455284242896" y2="318.47951051443306" stroke="#2563eb" stroke-width="1.0"/><line x1="577.3112933827176" y1="311.09560657737177" x2="603.9959059427143" y2="322.90271637951247" stroke="#2563eb" stroke-width="1.0"/><line x1="96.00409405728576" y1="322.90271637951247" x2="122.68870661728229" y2="311.09560657737177" stroke="#2563eb" stroke-width="1.0"/><line x1="122.68870661728229" y1="311.09560657737177" x2="137.93926188687698" y2="319.64604854922123" stroke="#2563eb" stroke-width="1.0"/><line x1="562.060738113123" y1="319.64604854922123" x2="577.3112933827176" y2="311.09560657737177" stroke="#2563eb" stroke-width="1.0"/><line x1="474.2685077769935" y1="360.1743009994699" x2="499.17634262191575" y2="365.62096574842894" stroke="#2563eb" stroke-width="1.0"/><line x1="200.82365737808422" y1="365.62096574842894" x2="225.73149222300646" y2="360.1743009994699" stroke="#2563eb" stroke-width="1.0"/><line x1="225.73149222300646" y1="360.1743009994699" x2="242.9154843718502" y2="357.20778596843337" stroke="#2563eb" stroke-width="1.0"/><line x1="457.0845156281498" y1="357.20778596843337" x2="474.2685077769935" y2="360.1743009994699" stroke="#2563eb" stroke-width="1.0"/><line x1="182.61633372947605" y1="342.8423326045563" x2="200.82365737808422" y2="365.62096574842894" stroke="#2563eb" stroke-width="1.0"/><line x1="499.17634262191575" y1="365.62096574842894" x2="517.3836662705239" y2="342.8423326045563" stroke="#2563eb" stroke-width="1.0"/><line x1="288.33102187047564" y1="320.24928102488605" x2="306.4999265409443" y2="275.07795834922416" stroke="#2563eb" stroke-width="1.0"/><line x1="393.5000734590557" y1="275.07795834922416" x2="411.6689781295244" y2="320.24928102488605" stroke="#2563eb" stroke-width="1.0"/><line x1="672.1118082377787" y1="352.66633381542823" x2="684.632067922728" y2="343.5349907697867" stroke="#2563eb" stroke-width="1.0"/><line x1="15.36793207727203" y1="343.5349907697867" x2="27.88819176222126" y2="352.6663338154283" stroke="#2563eb" stroke-width="1.0"/><line x1="643.3540250471674" y1="340.3105738637356" x2="672.1118082377787" y2="352.66633381542823" stroke="#2563eb" stroke-width="1.0"/><line x1="27.88819176222126" y1="352.6663338154283" x2="56.64597495283267" y2="340.3105738637356" stroke="#2563eb" stroke-width="1.0"/><line x1="434.1048967820757" y1="334.3815270730301" x2="457.0845156281498" y2="357.20778596843337" stroke="#2563eb" stroke-width="1.0"/><line x1="242.9154843718502" y1="357.20778596843337" x2="265.8951032179243" y2="334.3815270730301" stroke="#2563eb" stroke-width="1.0"/><line x1="684.632067922728" y1="343.5349907697867" x2="716.3086771447232" y2="346.836575822145" stroke="#2563eb" stroke-width="1.0"/><line x1="-16.308677144723177" y1="346.836575822145" x2="15.36793207727203" y2="343.5349907697867" stroke="#2563eb" stroke-width="1.0"/><line x1="517.3836662705239" y1="342.8423326045563" x2="544.7966435571848" y2="339.1770137380754" stroke="#2563eb" stroke-width="1.0"/><line x1="155.20335644281525" y1="339.1770137380754" x2="182.61633372947605" y2="342.8423326045563" stroke="#2563eb" stroke-width="1.0"/><line x1="56.64597495283267" y1="340.3105738637356" x2="68.55562565221649" y2="338.7408058590202" stroke="#2563eb" stroke-width="1.0"/><line x1="631.4443743477835" y1="338.7408058590202" x2="643.3540250471674" y2="340.3105738637356" stroke="#2563eb" stroke-width="1.0"/><line x1="371.0080558607096" y1="282.08145278631133" x2="393.5000734590557" y2="275.07795834922416" stroke="#2563eb" stroke-width="1.0"/><line x1="306.4999265409443" y1="275.07795834922416" x2="328.99194413929035" y2="282.08145278631133" stroke="#2563eb" stroke-width="1.0"/><line x1="68.55562565221649" y1="338.7408058590202" x2="96.00409405728576" y2="322.90271637951247" stroke="#2563eb" stroke-width="1.0"/><line x1="603.9959059427143" y1="322.90271637951247" x2="631.4443743477835" y2="338.7408058590202" stroke="#2563eb" stroke-width="1.0"/><line x1="137.93926188687698" y1="319.64604854922123" x2="155.20335644281525" y2="339.1770137380754" stroke="#2563eb" stroke-width="1.0"/><line x1="544.7966435571848" y1="339.1770137380754" x2="562.060738113123" y2="319.64604854922123" stroke="#2563eb" stroke-width="1.0"/><line x1="96.00409405728576" y1="322.90271637951247" x2="109.9677625829598" y2="325.1249450227328" stroke="#2563eb" stroke-width="1.0"/><line x1="590.0322374170402" y1="325.1249450227328" x2="603.9959059427143" y2="322.90271637951247" stroke="#2563eb" stroke-width="1.0"/><line x1="562.060738113123" y1="319.64604854922123" x2="590.0322374170402" y2="325.1249450227328" stroke="#2563eb" stroke-width="1.0"/><line x1="109.9677625829598" y1="325.1249450227328" x2="137.93926188687698" y2="319.64604854922123" stroke="#2563eb" stroke-width="1.0"/><line x1="328.99194413929035" y1="282.08145278631133" x2="350.0" y2="242.04680402527455" stroke="#2563eb" stroke-width="1.0"/><line x1="350.0" y1="242.04680402527455" x2="371.0080558607096" y2="282.08145278631133" stroke="#2563eb" stroke-width="1.0"/><line x1="200.82365737808422" y1="365.62096574842894" x2="218.7560231257085" y2="376.9332563509973" stroke="#2563eb" stroke-width="1.0"/><line x1="481.2439768742915" y1="376.9332563509973" x2="499.17634262191575" y2="365.62096574842894" stroke="#2563eb" stroke-width="1.0"/><line x1="265.8951032179243" y1="334.3815270730301" x2="283.4201693426187" y2="295.5855725664967" stroke="#2563eb" stroke-width="1.0"/><line x1="416.5798306573813" y1="295.5855725664967" x2="434.1048967820757" y2="334.3815270730301" stroke="#2563eb" stroke-width="1.0"/><line x1="457.0845156281498" y1="357.20778596843337" x2="481.2439768742915" y2="376.9332563509973" stroke="#2563eb" stroke-width="1.0"/><line x1="218.7560231257085" y1="376.9332563509973" x2="242.9154843718502" y2="357.20778596843337" stroke="#2563eb" stroke-width="1.0"/><line x1="499.17634262191575" y1="365.62096574842894" x2="526.4029227556118" y2="363.3860811417188" stroke="#2563eb" stroke-width="1.0"/><line x1="173.59707724438812" y1="363.3860811417188" x2="200.82365737808422" y2="365.62096574842894" stroke="#2563eb" stroke-width="1.0"/><line x1="672.1118082377787" y1="352.66633381542823" x2="703.3317450657632" y2="360.86138668724595" stroke="#2563eb" stroke-width="1.0"/><line x1="-3.331745065763215" y1="360.86138668724595" x2="27.88819176222126" y2="352.6663338154283" stroke="#2563eb" stroke-width="1.0"/><line x1="660.0530178936009" y1="355.9907668956456" x2="672.1118082377787" y2="352.66633381542823" stroke="#2563eb" stroke-width="1.0"/><line x1="27.88819176222126" y1="352.6663338154283" x2="39.94698210639902" y2="355.9907668956456" stroke="#2563eb" stroke-width="1.0"/><line x1="-16.308677144723177" y1="346.836575822145" x2="-3.331745065763215" y2="360.86138668724595" stroke="#2563eb" stroke-width="1.0"/><line x1="703.3317450657632" y1="360.86138668724595" x2="716.3086771447232" y2="346.836575822145" stroke="#2563eb" stroke-width="1.0"/><line x1="526.4029227556118" y1="363.3860811417188" x2="544.7966435571848" y2="339.1770137380754" stroke="#2563eb" stroke-width="1.0"/><line x1="155.20335644281525" y1="339.1770137380754" x2="173.59707724438812" y2="363.3860811417188" stroke="#2563eb" stroke-width="1.0"/><line x1="716.3086771447232" y1="346.836575822145" x2="750.4294440516594" y2="348.3529359094393" stroke="#2563eb" stroke-width="1.0"/><line x1="-50.42944405165943" y1="348.3529359094393" x2="-16.308677144723177" y2="346.836575822145" stroke="#2563eb" stroke-width="1.0"/><line x1="631.4443743477835" y1="338.7408058590202" x2="660.0530178936009" y2="355.9907668956456" stroke="#2563eb" stroke-width="1.0"/><line x1="39.94698210639902" y1="355.9907668956456" x2="68.55562565221649" y2="338.7408058590202" stroke="#2563eb" stroke-width="1.0"/><line x1="242.9154843718502" y1="357.20778596843337" x2="260.3567524053991" y2="335.69965597054403" stroke="#2563eb" stroke-width="1.0"/><line x1="439.64324759460084" y1="335.69965597054403" x2="457.0845156281498" y2="357.20778596843337" stroke="#2563eb" stroke-width="1.0"/><line x1="393.5000734590557" y1="275.07795834922416" x2="416.5798306573813" y2="295.5855725664967" stroke="#2563eb" stroke-width="1.0"/><line x1="283.4201693426187" y1="295.5855725664967" x2="306.4999265409443" y2="275.07795834922416" stroke="#2563eb" stroke-width="1.0"/><line x1="68.55562565221649" y1="338.7408058590202" x2="81.35502029274795" y2="337.5224115493744" stroke="#2563eb" stroke-width="1.0"/><line x1="618.644979707252" y1="337.5224115493744" x2="631.4443743477835" y2="338.7408058590202" stroke="#2563eb" stroke-width="1.0"/><line x1="126.04122431349451" y1="336.8467836242861" x2="155.20335644281525" y2="339.1770137380754" stroke="#2563eb" stroke-width="1.0"/><line x1="544.7966435571848" y1="339.1770137380754" x2="573.9587756865055" y2="336.846783624286" stroke="#2563eb" stroke-width="1.0"/><line x1="590.0322374170402" y1="325.1249450227328" x2="618.644979707252" y2="337.5224115493744" stroke="#2563eb" stroke-width="1.0"/><line x1="81.35502029274795" y1="337.5224115493744" x2="109.9677625829598" y2="325.1249450227328" stroke="#2563eb" stroke-width="1.0"/><line x1="109.9677625829598" y1="325.1249450227328" x2="126.04122431349451" y2="336.8467836242861" stroke="#2563eb" stroke-width="1.0"/><line x1="573.9587756865055" y1="336.846783624286" x2="590.0322374170402" y2="325.1249450227328" stroke="#2563eb" stroke-width="1.0"/><line x1="481.2439768742915" y1="376.9332563509973" x2="507.72076777342517" y2="384.11583179278057" stroke="#2563eb" stroke-width="1.0"/><line x1="192.27923222657478" y1="384.11583179278057" x2="218.7560231257085" y2="376.9332563509973" stroke="#2563eb" stroke-width="1.0"/><line x1="218.7560231257085" y1="376.9332563509973" x2="236.74970371295325" y2="375.3155197643364" stroke="#2563eb" stroke-width="1.0"/><line x1="463.25029628704675" y1="375.3155197643364" x2="481.2439768742915" y2="376.9332563509973" stroke="#2563eb" stroke-width="1.0"/><line x1="173.59707724438812" y1="363.3860811417188" x2="192.27923222657478" y2="384.11583179278057" stroke="#2563eb" stroke-width="1.0"/><line x1="507.72076777342517" y1="384.11583179278057" x2="526.4029227556118" y2="363.3860811417188" stroke="#2563eb" stroke-width="1.0"/><line x1="416.5798306573813" y1="295.5855725664967" x2="439.64324759460084" y2="335.69965597054403" stroke="#2563eb" stroke-width="1.0"/><line x1="260.3567524053991" y1="335.69965597054403" x2="283.4201693426187" y2="295.5855725664967" stroke="#2563eb" stroke-width="1.0"/><line x1="-3.331745065763215" y1="360.86138668724595" x2="9.289021663002671" y2="370.5630080164134" stroke="#2563eb" stroke-width="1.0"/><line x1="690.7109783369973" y1="370.5630080164134" x2="703.3317450657632" y2="360.86138668724595" stroke="#2563eb" stroke-width="1.0"/><line x1="306.4999265409443" y1="275.07795834922416" x2="326.9470390873553" y2="227.35087005714485" stroke="#2563eb" stroke-width="1.0"/><line x1="373.0529609126447" y1="227.35087005714485" x2="393.5000734590557" y2="275.07795834922416" stroke="#2563eb" stroke-width="1.0"/><line x1="660.0530178936009" y1="355.9907668956456" x2="690.7109783369973" y2="370.5630080164134" stroke="#2563eb" stroke-width="1.0"/><line x1="9.289021663002671" y1="370.5630080164134" x2="39.94698210639902" y2="355.9907668956456" stroke="#2563eb" stroke-width="1.0"/><line x1="703.3317450657632" y1="360.86138668724595" x2="737.5363704528303" y2="364.46017378659536" stroke="#2563eb" stroke-width="1.0"/><line x1="-37.53637045283027" y1="364.46017378659553" x2="-3.331745065763215" y2="360.86138668724595" stroke="#2563eb" stroke-width="1.0"/><line x1="526.4029227556118" y1="363.3860811417188" x2="556.1386651970668" y2="356.4381583034711" stroke="#2563eb" stroke-width="1.0"/><line x1="143.8613348029332" y1="356.4381583034711" x2="173.59707724438812" y2="363.3860811417188" stroke="#2563eb" stroke-width="1.0"/><line x1="-50.42944405165943" y1="348.3529359094393" x2="-37.53637045283027" y2="364.46017378659553" stroke="#2563eb" stroke-width="1.0"/><line x1="737.5363704528303" y1="364.46017378659536" x2="750.4294440516594" y2="348.3529359094393" stroke="#2563eb" stroke-width="1.0"/><line x1="39.94698210639902" y1="355.9907668956456" x2="52.164142381486286" y2="355.9811835463383" stroke="#2563eb" stroke-width="1.0"/><line x1="647.8358576185137" y1="355.98118354633823" x2="660.0530178936009" y2="355.9907668956456" stroke="#2563eb" stroke-width="1.0"/><line x1="439.64324759460084" y1="335.69965597054403" x2="463.25029628704675" y2="375.3155197643364" stroke="#2563eb" stroke-width="1.0"/><line x1="236.74970371295325" y1="375.3155197643364" x2="260.3567524053991" y2="335.69965597054403" stroke="#2563eb" stroke-width="1.0"/><line x1="350.0" y1="242.04680402527455" x2="373.0529609126447" y2="227.35087005714485" stroke="#2563eb" stroke-width="1.0"/><line x1="326.9470390873553" y1="227.35087005714485" x2="350.0" y2="242.04680402527455" stroke="#2563eb" stroke-width="1.0"/><line x1="618.644979707252" y1="337.5224115493744" x2="647.8358576185137" y2="355.98118354633823" stroke="#2563eb" stroke-width="1.0"/><line x1="52.164142381486286" y1="355.9811835463383" x2="81.35502029274795" y2="337.5224115493744" stroke="#2563eb" stroke-width="1.0"/><line x1="126.04122431349451" y1="336.8467836242861" x2="143.8613348029332" y2="356.4381583034711" stroke="#2563eb" stroke-width="1.0"/><line x1="556.1386651970668" y1="356.4381583034711" x2="573.9587756865055" y2="336.846783624286" stroke="#2563eb" stroke-width="1.0"/><line x1="81.35502029274795" y1="337.5224115493744" x2="95.87087002250851" y2="341.710305491136" stroke="#2563eb" stroke-width="1.0"/><line x1="604.1291299774915" y1="341.710305491136" x2="618.644979707252" y2="337.5224115493744" stroke="#2563eb" stroke-width="1.0"/><line x1="573.9587756865055" y1="336.846783624286" x2="604.1291299774915" y2="341.710305491136" stroke="#2563eb" stroke-width="1.0"/><line x1="95.87087002250851" y1="341.710305491136" x2="126.04122431349451" y2="336.8467836242861" stroke="#2563eb" stroke-width="1.0"/><line x1="283.4201693426187" y1="295.5855725664967" x2="303.0495838179494" y2="253.94183309944862" stroke="#2563eb" stroke-width="1.0"/><line x1="396.9504161820507" y1="253.94183309944862" x2="416.5798306573813" y2="295.5855725664967" stroke="#2563eb" stroke-width="1.0"/><line x1="192.27923222657478" y1="384.11583179278057" x2="211.1058165177639" y2="397.5367216292542" stroke="#2563eb" stroke-width="1.0"/><line x1="488.89418348223603" y1="397.5367216292542" x2="507.72076777342517" y2="384.11583179278057" stroke="#2563eb" stroke-width="1.0"/><line x1="463.25029628704675" y1="375.3155197643364" x2="488.89418348223603" y2="397.5367216292542" stroke="#2563eb" stroke-width="1.0"/><line x1="211.1058165177639" y1="397.5367216292542" x2="236.74970371295325" y2="375.3155197643364" stroke="#2563eb" stroke-width="1.0"/><line x1="260.3567524053991" y1="335.69965597054403" x2="279.4393151511763" y2="310.7045336972205" stroke="#2563eb" stroke-width="1.0"/><line x1="420.5606848488237" y1="310.7045336972205" x2="439.64324759460084" y2="335.69965597054403" stroke="#2563eb" stroke-width="1.0"/><line x1="507.72076777342517" y1="384.11583179278057" x2="537.3089064520602" y2="378.5686024656923" stroke="#2563eb" stroke-width="1.0"/><line x1="162.69109354793974" y1="378.5686024656923" x2="192.27923222657478" y2="384.11583179278057" stroke="#2563eb" stroke-width="1.0"/><line x1="690.7109783369973" y1="370.5630080164134" x2="724.4484360636219" y2="379.3275239146331" stroke="#2563eb" stroke-width="1.0"/><line x1="-24.4484360636218" y1="379.3275239146331" x2="9.289021663002671" y2="370.5630080164134" stroke="#2563eb" stroke-width="1.0"/><line x1="9.289021663002671" y1="370.5630080164134" x2="21.66758415815009" y2="375.7940212991786" stroke="#2563eb" stroke-width="1.0"/><line x1="678.3324158418499" y1="375.7940212991786" x2="690.7109783369973" y2="370.5630080164134" stroke="#2563eb" stroke-width="1.0"/><line x1="236.74970371295325" y1="375.3155197643364" x2="255.8279841427379" y2="369.29249645602494" stroke="#2563eb" stroke-width="1.0"/><line x1="444.1720158572621" y1="369.29249645602494" x2="463.25029628704675" y2="375.3155197643364" stroke="#2563eb" stroke-width="1.0"/><line x1="-37.53637045283027" y1="364.46017378659553" x2="-24.4484360636218" y2="379.3275239146331" stroke="#2563eb" stroke-width="1.0"/><line x1="724.4484360636219" y1="379.3275239146331" x2="737.5363704528303" y2="364.46017378659536" stroke="#2563eb" stroke-width="1.0"/><line x1="143.8613348029332" y1="356.4381583034711" x2="162.69109354793974" y2="378.5686024656923" stroke="#2563eb" stroke-width="1.0"/><line x1="537.3089064520602" y1="378.5686024656923" x2="556.1386651970668" y2="356.4381583034711" stroke="#2563eb" stroke-width="1.0"/><line x1="647.8358576185137" y1="355.98118354633823" x2="678.3324158418499" y2="375.7940212991786" stroke="#2563eb" stroke-width="1.0"/><line x1="21.66758415815009" y1="375.7940212991786" x2="52.164142381486286" y2="355.9811835463383" stroke="#2563eb" stroke-width="1.0"/><line x1="373.0529609126447" y1="227.35087005714485" x2="396.9504161820507" y2="253.94183309944862" stroke="#2563eb" stroke-width="1.0"/><line x1="303.0495838179494" y1="253.94183309944862" x2="326.9470390873553" y2="227.35087005714485" stroke="#2563eb" stroke-width="1.0"/><line x1="52.164142381486286" y1="355.9811835463383" x2="65.37449339615" y2="356.6901146870168" stroke="#2563eb" stroke-width="1.0"/><line x1="634.62550660385" y1="356.6901146870168" x2="647.8358576185137" y2="355.98118354633823" stroke="#2563eb" stroke-width="1.0"/><line x1="556.1386651970668" y1="356.4381583034711" x2="587.687164378392" y2="353.1110126643826" stroke="#2563eb" stroke-width="1.0"/><line x1="112.31283562160786" y1="353.1110126643826" x2="143.8613348029332" y2="356.4381583034711" stroke="#2563eb" stroke-width="1.0"/><line x1="604.1291299774915" y1="341.710305491136" x2="634.62550660385" y2="356.6901146870168" stroke="#2563eb" stroke-width="1.0"/><line x1="65.37449339615" y1="356.6901146870168" x2="95.87087002250851" y2="341.710305491136" stroke="#2563eb" stroke-width="1.0"/><line x1="95.87087002250851" y1="341.710305491136" x2="112.31283562160786" y2="353.1110126643826" stroke="#2563eb" stroke-width="1.0"/><line x1="587.687164378392" y1="353.1110126643826" x2="604.1291299774915" y2="341.710305491136" stroke="#2563eb" stroke-width="1.0"/><line x1="396.9504161820507" y1="253.94183309944862" x2="420.5606848488237" y2="310.7045336972205" stroke="#2563eb" stroke-width="1.0"/><line x1="279.4393151511763" y1="310.7045336972205" x2="303.0495838179494" y2="253.94183309944862" stroke="#2563eb" stroke-width="1.0"/><line x1="211.1058165177639" y1="397.5367216292542" x2="230.59394617904977" y2="406.1912365487361" stroke="#2563eb" stroke-width="1.0"/><line x1="469.40605382095015" y1="406.1912365487361" x2="488.89418348223603" y2="397.5367216292542" stroke="#2563eb" stroke-width="1.0"/><line x1="420.5606848488237" y1="310.7045336972205" x2="444.1720158572621" y2="369.29249645602494" stroke="#2563eb" stroke-width="1.0"/><line x1="255.8279841427379" y1="369.29249645602494" x2="279.4393151511763" y2="310.7045336972205" stroke="#2563eb" stroke-width="1.0"/><line x1="326.9470390873553" y1="227.35087005714485" x2="350.0" y2="209.04622907656895" stroke="#2563eb" stroke-width="1.0"/><line x1="350.0" y1="209.04622907656895" x2="373.0529609126447" y2="227.35087005714485" stroke="#2563eb" stroke-width="1.0"/><line x1="488.89418348223603" y1="397.5367216292542" x2="517.9447537743736" y2="398.5248980468568" stroke="#2563eb" stroke-width="1.0"/><line x1="182.05524622562638" y1="398.5248980468568" x2="211.1058165177639" y2="397.5367216292542" stroke="#2563eb" stroke-width="1.0"/><line x1="162.69109354793974" y1="378.5686024656923" x2="182.05524622562638" y2="398.5248980468568" stroke="#2563eb" stroke-width="1.0"/><line x1="517.9447537743736" y1="398.5248980468568" x2="537.3089064520602" y2="378.5686024656923" stroke="#2563eb" stroke-width="1.0"/><line x1="230.59394617904977" y1="406.1912365487361" x2="255.8279841427379" y2="369.29249645602494" stroke="#2563eb" stroke-width="1.0"/><line x1="444.1720158572621" y1="369.29249645602494" x2="469.40605382095015" y2="406.1912365487361" stroke="#2563eb" stroke-width="1.0"/><line x1="-24.4484360636218" y1="379.3275239146331" x2="-11.496538778566958" y2="391.082220161622" stroke="#2563eb" stroke-width="1.0"/><line x1="711.4965387785669" y1="391.082220161622" x2="724.4484360636219" y2="379.3275239146331" stroke="#2563eb" stroke-width="1.0"/><line x1="678.3324158418499" y1="375.7940212991786" x2="711.4965387785669" y2="391.082220161622" stroke="#2563eb" stroke-width="1.0"/><line x1="-11.496538778566958" y1="391.082220161622" x2="21.66758415815009" y2="375.7940212991786" stroke="#2563eb" stroke-width="1.0"/><line x1="21.66758415815009" y1="375.7940212991786" x2="34.353505517488415" y2="378.5882765468716" stroke="#2563eb" stroke-width="1.0"/><line x1="665.6464944825117" y1="378.5882765468716" x2="678.3324158418499" y2="375.7940212991786" stroke="#2563eb" stroke-width="1.0"/><line x1="537.3089064520602" y1="378.5686024656923" x2="569.6674777458599" y2="369.80886855391293" stroke="#2563eb" stroke-width="1.0"/><line x1="130.33252225414006" y1="369.80886855391293" x2="162.69109354793974" y2="378.5686024656923" stroke="#2563eb" stroke-width="1.0"/><line x1="255.8279841427379" y1="369.29249645602494" x2="276.8658984397713" y2="371.8457015159218" stroke="#2563eb" stroke-width="1.0"/><line x1="423.1341015602287" y1="371.8457015159218" x2="444.1720158572621" y2="369.29249645602494" stroke="#2563eb" stroke-width="1.0"/><line x1="303.0495838179494" y1="253.94183309944862" x2="325.5119706843055" y2="238.84426608456985" stroke="#2563eb" stroke-width="1.0"/><line x1="374.4880293156945" y1="238.84426608456985" x2="396.9504161820507" y2="253.94183309944862" stroke="#2563eb" stroke-width="1.0"/><line x1="279.4393151511763" y1="310.7045336972205" x2="301.0915637020323" y2="303.96691949637415" stroke="#2563eb" stroke-width="1.0"/><line x1="398.9084362979677" y1="303.96691949637415" x2="420.5606848488237" y2="310.7045336972205" stroke="#2563eb" stroke-width="1.0"/><line x1="634.62550660385" y1="356.6901146870168" x2="665.6464944825117" y2="378.5882765468716" stroke="#2563eb" stroke-width="1.0"/><line x1="34.353505517488415" y1="378.5882765468716" x2="65.37449339615" y2="356.6901146870168" stroke="#2563eb" stroke-width="1.0"/><line x1="112.31283562160786" y1="353.1110126643826" x2="130.33252225414006" y2="369.80886855391293" stroke="#2563eb" stroke-width="1.0"/><line x1="569.6674777458599" y1="369.80886855391293" x2="587.687164378392" y2="353.1110126643826" stroke="#2563eb" stroke-width="1.0"/><line x1="65.37449339615" y1="356.6901146870168" x2="80.16397688455504" y2="361.302381716113" stroke="#2563eb" stroke-width="1.0"/><line x1="619.8360231154448" y1="361.302381716113" x2="634.62550660385" y2="356.6901146870168" stroke="#2563eb" stroke-width="1.0"/><line x1="587.687164378392" y1="353.1110126643826" x2="619.8360231154448" y2="361.302381716113" stroke="#2563eb" stroke-width="1.0"/><line x1="80.16397688455504" y1="361.302381716113" x2="112.31283562160786" y2="353.1110126643826" stroke="#2563eb" stroke-width="1.0"/><line x1="230.59394617904977" y1="406.1912365487361" x2="251.38121153892405" y2="415.8453246164281" stroke="#2563eb" stroke-width="1.0"/><line x1="448.61878846107595" y1="415.8453246164281" x2="469.40605382095015" y2="406.1912365487361" stroke="#2563eb" stroke-width="1.0"/><line x1="350.0" y1="209.04622907656895" x2="374.4880293156945" y2="238.84426608456985" stroke="#2563eb" stroke-width="1.0"/><line x1="325.5119706843055" y1="238.84426608456985" x2="350.0" y2="209.04622907656895" stroke="#2563eb" stroke-width="1.0"/><line x1="469.40605382095015" y1="406.1912365487361" x2="498.0228855038099" y2="414.7945980229026" stroke="#2563eb" stroke-width="1.0"/><line x1="201.97711449619015" y1="414.7945980229026" x2="230.59394617904977" y2="406.1912365487361" stroke="#2563eb" stroke-width="1.0"/><line x1="182.05524622562638" y1="398.5248980468568" x2="201.97711449619015" y2="414.7945980229026" stroke="#2563eb" stroke-width="1.0"/><line x1="498.0228855038099" y1="414.7945980229026" x2="517.9447537743736" y2="398.5248980468568" stroke="#2563eb" stroke-width="1.0"/><line x1="398.9084362979677" y1="303.96691949637415" x2="423.1341015602287" y2="371.8457015159218" stroke="#2563eb" stroke-width="1.0"/><line x1="276.8658984397713" y1="371.8457015159218" x2="301.0915637020323" y2="303.96691949637415" stroke="#2563eb" stroke-width="1.0"/><line x1="374.4880293156945" y1="238.84426608456985" x2="398.9084362979677" y2="303.96691949637415" stroke="#2563eb" stroke-width="1.0"/><line x1="301.0915637020323" y1="303.96691949637415" x2="325.5119706843055" y2="238.84426608456985" stroke="#2563eb" stroke-width="1.0"/><line x1="-11.496538778566958" y1="391.082220161622" x2="1.4453979037805098" y2="399.731395601388" stroke="#2563eb" stroke-width="1.0"/><line x1="698.5546020962195" y1="399.731395601388" x2="711.4965387785669" y2="391.082220161622" stroke="#2563eb" stroke-width="1.0"/><line x1="423.1341015602287" y1="371.8457015159218" x2="448.61878846107595" y2="415.8453246164281" stroke="#2563eb" stroke-width="1.0"/><line x1="251.38121153892405" y1="415.8453246164281" x2="276.8658984397713" y2="371.8457015159218" stroke="#2563eb" stroke-width="1.0"/><line x1="517.9447537743736" y1="398.5248980468568" x2="550.5591920755112" y2="388.2053636625393" stroke="#2563eb" stroke-width="1.0"/><line x1="149.44080792448875" y1="388.2053636625393" x2="182.05524622562638" y2="398.5248980468568" stroke="#2563eb" stroke-width="1.0"/><line x1="665.6464944825117" y1="378.5882765468716" x2="698.5546020962195" y2="399.731395601388" stroke="#2563eb" stroke-width="1.0"/><line x1="1.4453979037805098" y1="399.731395601388" x2="34.353505517488415" y2="378.5882765468716" stroke="#2563eb" stroke-width="1.0"/><line x1="276.8658984397713" y1="371.8457015159218" x2="299.9165693319061" y2="390.0815489553058" stroke="#2563eb" stroke-width="1.0"/><line x1="400.0834306680939" y1="390.0815489553058" x2="423.1341015602287" y2="371.8457015159218" stroke="#2563eb" stroke-width="1.0"/><line x1="34.353505517488415" y1="378.5882765468716" x2="47.98834190709324" y2="381.69887431032384" stroke="#2563eb" stroke-width="1.0"/><line x1="652.0116580929068" y1="381.6988743103239" x2="665.6464944825117" y2="378.5882765468716" stroke="#2563eb" stroke-width="1.0"/><line x1="325.5119706843055" y1="238.84426608456985" x2="350.0" y2="267.3466627938368" stroke="#2563eb" stroke-width="1.0"/><line x1="350.0" y1="267.3466627938368" x2="374.4880293156945" y2="238.84426608456985" stroke="#2563eb" stroke-width="1.0"/><line x1="301.0915637020323" y1="303.96691949637415" x2="324.9840507863056" y2="327.74641380155543" stroke="#2563eb" stroke-width="1.0"/><line x1="375.0159492136944" y1="327.74641380155543" x2="398.9084362979677" y2="303.96691949637415" stroke="#2563eb" stroke-width="1.0"/><line x1="130.33252225414006" y1="369.80886855391293" x2="149.44080792448875" y2="388.2053636625393" stroke="#2563eb" stroke-width="1.0"/><line x1="550.5591920755112" y1="388.2053636625393" x2="569.6674777458599" y2="369.80886855391293" stroke="#2563eb" stroke-width="1.0"/><line x1="619.8360231154448" y1="361.302381716113" x2="652.0116580929068" y2="381.6988743103239" stroke="#2563eb" stroke-width="1.0"/><line x1="47.98834190709324" y1="381.69887431032384" x2="80.16397688455504" y2="361.302381716113" stroke="#2563eb" stroke-width="1.0"/><line x1="569.6674777458599" y1="369.80886855391293" x2="603.3375974761462" y2="370.64017284128397" stroke="#2563eb" stroke-width="1.0"/><line x1="96.66240252385369" y1="370.64017284128397" x2="130.33252225414006" y2="369.80886855391293" stroke="#2563eb" stroke-width="1.0"/><line x1="80.16397688455504" y1="361.302381716113" x2="96.66240252385369" y2="370.64017284128397" stroke="#2563eb" stroke-width="1.0"/><line x1="603.3375974761462" y1="370.64017284128397" x2="619.8360231154448" y2="361.302381716113" stroke="#2563eb" stroke-width="1.0"/><line x1="350.0" y1="267.3466627938368" x2="375.0159492136944" y2="327.74641380155543" stroke="#2563eb" stroke-width="1.0"/><line x1="324.9840507863056" y1="327.74641380155543" x2="350.0" y2="267.3466627938368" stroke="#2563eb" stroke-width="1.0"/><line x1="375.0159492136944" y1="327.74641380155543" x2="400.0834306680939" y2="390.0815489553058" stroke="#2563eb" stroke-width="1.0"/><line x1="299.9165693319061" y1="390.0815489553058" x2="324.9840507863056" y2="327.74641380155543" stroke="#2563eb" stroke-width="1.0"/><line x1="251.38121153892405" y1="415.8453246164281" x2="273.72589289965555" y2="429.683077224643" stroke="#2563eb" stroke-width="1.0"/><line x1="426.2741071003444" y1="429.683077224643" x2="448.61878846107595" y2="415.8453246164281" stroke="#2563eb" stroke-width="1.0"/><line x1="448.61878846107595" y1="415.8453246164281" x2="477.2328065009057" y2="428.2838967801793" stroke="#2563eb" stroke-width="1.0"/><line x1="222.76719349909436" y1="428.2838967801793" x2="251.38121153892405" y2="415.8453246164281" stroke="#2563eb" stroke-width="1.0"/><line x1="201.97711449619015" y1="414.7945980229026" x2="222.76719349909436" y2="428.2838967801793" stroke="#2563eb" stroke-width="1.0"/><line x1="477.2328065009057" y1="428.2838967801793" x2="498.0228855038099" y2="414.7945980229026" stroke="#2563eb" stroke-width="1.0"/><line x1="324.9840507863056" y1="327.74641380155543" x2="350.0" y2="373.37465555957397" stroke="#2563eb" stroke-width="1.0"/><line x1="350.0" y1="373.37465555957397" x2="375.0159492136944" y2="327.74641380155543" stroke="#2563eb" stroke-width="1.0"/><line x1="400.0834306680939" y1="390.0815489553058" x2="426.2741071003444" y2="429.683077224643" stroke="#2563eb" stroke-width="1.0"/><line x1="273.72589289965555" y1="429.683077224643" x2="299.9165693319061" y2="390.0815489553058" stroke="#2563eb" stroke-width="1.0"/><line x1="498.0228855038099" y1="414.7945980229026" x2="530.6349632188676" y2="405.34073399011004" stroke="#2563eb" stroke-width="1.0"/><line x1="169.3650367811324" y1="405.34073399011004" x2="201.97711449619015" y2="414.7945980229026" stroke="#2563eb" stroke-width="1.0"/><line x1="299.9165693319061" y1="390.0815489553058" x2="324.40216358231817" y2="418.60084490060734" stroke="#2563eb" stroke-width="1.0"/><line x1="375.59783641768183" y1="418.60084490060734" x2="400.0834306680939" y2="390.0815489553058" stroke="#2563eb" stroke-width="1.0"/><line x1="685.1962486924742" y1="406.6636784008382" x2="698.5546020962195" y2="399.731395601388" stroke="#2563eb" stroke-width="1.0"/><line x1="1.4453979037805098" y1="399.731395601388" x2="14.803751307525893" y2="406.6636784008382" stroke="#2563eb" stroke-width="1.0"/><line x1="149.44080792448875" y1="388.2053636625393" x2="169.3650367811324" y2="405.34073399011004" stroke="#2563eb" stroke-width="1.0"/><line x1="530.6349632188676" y1="405.34073399011004" x2="550.5591920755112" y2="388.2053636625393" stroke="#2563eb" stroke-width="1.0"/><line x1="350.0" y1="373.37465555957397" x2="375.59783641768183" y2="418.60084490060734" stroke="#2563eb" stroke-width="1.0"/><line x1="324.40216358231817" y1="418.60084490060734" x2="350.0" y2="373.37465555957397" stroke="#2563eb" stroke-width="1.0"/><line x1="652.0116580929068" y1="381.6988743103239" x2="685.1962486924742" y2="406.6636784008382" stroke="#2563eb" stroke-width="1.0"/><line x1="14.803751307525893" y1="406.6636784008382" x2="47.98834190709324" y2="381.69887431032384" stroke="#2563eb" stroke-width="1.0"/><line x1="550.5591920755112" y1="388.2053636625393" x2="585.3311233368013" y2="383.3913577054232" stroke="#2563eb" stroke-width="1.0"/><line x1="114.66887666319869" y1="383.3913577054232" x2="149.44080792448875" y2="388.2053636625393" stroke="#2563eb" stroke-width="1.0"/><line x1="47.98834190709324" y1="381.69887431032384" x2="63.01921386046083" y2="387.15129241706893" stroke="#2563eb" stroke-width="1.0"/><line x1="636.9807861395392" y1="387.15129241706893" x2="652.0116580929068" y2="381.6988743103239" stroke="#2563eb" stroke-width="1.0"/><line x1="603.3375974761462" y1="370.64017284128397" x2="636.9807861395392" y2="387.15129241706893" stroke="#2563eb" stroke-width="1.0"/><line x1="63.01921386046083" y1="387.15129241706893" x2="96.66240252385369" y2="370.64017284128397" stroke="#2563eb" stroke-width="1.0"/><line x1="96.66240252385369" y1="370.64017284128397" x2="114.66887666319869" y2="383.3913577054232" stroke="#2563eb" stroke-width="1.0"/><line x1="585.3311233368013" y1="383.3913577054232" x2="603.3375974761462" y2="370.64017284128397" stroke="#2563eb" stroke-width="1.0"/><line x1="273.72589289965555" y1="429.683077224643" x2="297.5260638137407" y2="444.8669739424902" stroke="#2563eb" stroke-width="1.0"/><line x1="402.47393618625927" y1="444.8669739424902" x2="426.2741071003444" y2="429.683077224643" stroke="#2563eb" stroke-width="1.0"/><line x1="426.2741071003444" y1="429.683077224643" x2="455.2848353746822" y2="439.69045007997454" stroke="#2563eb" stroke-width="1.0"/><line x1="244.7151646253178" y1="439.69045007997454" x2="273.72589289965555" y2="429.683077224643" stroke="#2563eb" stroke-width="1.0"/><line x1="222.76719349909436" y1="428.2838967801793" x2="244.7151646253178" y2="439.69045007997454" stroke="#2563eb" stroke-width="1.0"/><line x1="455.2848353746822" y1="439.69045007997454" x2="477.2328065009057" y2="428.2838967801793" stroke="#2563eb" stroke-width="1.0"/><line x1="375.59783641768183" y1="418.60084490060734" x2="402.47393618625927" y2="444.8669739424902" stroke="#2563eb" stroke-width="1.0"/><line x1="297.5260638137407" y1="444.8669739424902" x2="324.40216358231817" y2="418.60084490060734" stroke="#2563eb" stroke-width="1.0"/><line x1="324.40216358231817" y1="418.60084490060734" x2="350.0" y2="443.8483243138471" stroke="#2563eb" stroke-width="1.0"/><line x1="350.0" y1="443.8483243138471" x2="375.59783641768183" y2="418.60084490060734" stroke="#2563eb" stroke-width="1.0"/><line x1="477.2328065009057" y1="428.2838967801793" x2="509.8779119066547" y2="419.7127235599971" stroke="#2563eb" stroke-width="1.0"/><line x1="190.1220880933453" y1="419.7127235599971" x2="222.76719349909436" y2="428.2838967801793" stroke="#2563eb" stroke-width="1.0"/><line x1="169.3650367811324" y1="405.34073399011004" x2="190.1220880933453" y2="419.7127235599971" stroke="#2563eb" stroke-width="1.0"/><line x1="509.8779119066547" y1="419.7127235599971" x2="530.6349632188676" y2="405.34073399011004" stroke="#2563eb" stroke-width="1.0"/><line x1="14.803751307525893" y1="406.6636784008382" x2="29.069344545721055" y2="413.696688184334" stroke="#2563eb" stroke-width="1.0"/><line x1="670.930655454279" y1="413.696688184334" x2="685.1962486924742" y2="406.6636784008382" stroke="#2563eb" stroke-width="1.0"/><line x1="530.6349632188676" y1="405.34073399011004" x2="566.0714789283172" y2="397.43025958062185" stroke="#2563eb" stroke-width="1.0"/><line x1="133.92852107168272" y1="397.43025958062185" x2="169.3650367811324" y2="405.34073399011004" stroke="#2563eb" stroke-width="1.0"/><line x1="636.9807861395392" y1="387.15129241706893" x2="670.930655454279" y2="413.696688184334" stroke="#2563eb" stroke-width="1.0"/><line x1="29.069344545721055" y1="413.696688184334" x2="63.01921386046083" y2="387.15129241706893" stroke="#2563eb" stroke-width="1.0"/><line x1="63.01921386046083" y1="387.15129241706893" x2="79.61466709392943" y2="395.61146107654577" stroke="#2563eb" stroke-width="1.0"/><line x1="620.3853329060706" y1="395.61146107654577" x2="636.9807861395392" y2="387.15129241706893" stroke="#2563eb" stroke-width="1.0"/><line x1="114.66887666319869" y1="383.3913577054232" x2="133.92852107168272" y2="397.43025958062185" stroke="#2563eb" stroke-width="1.0"/><line x1="566.0714789283172" y1="397.43025958062185" x2="585.3311233368013" y2="383.3913577054232" stroke="#2563eb" stroke-width="1.0"/><line x1="79.61466709392943" y1="395.61146107654577" x2="114.66887666319869" y2="383.3913577054232" stroke="#2563eb" stroke-width="1.0"/><line x1="585.3311233368013" y1="383.3913577054232" x2="620.3853329060706" y2="395.61146107654577" stroke="#2563eb" stroke-width="1.0"/><line x1="297.5260638137407" y1="444.8669739424902" x2="322.7935160802994" y2="454.95002441719225" stroke="#2563eb" stroke-width="1.0"/><line x1="377.20648391970053" y1="454.95002441719225" x2="402.47393618625927" y2="444.8669739424902" stroke="#2563eb" stroke-width="1.0"/><line x1="322.7935160802994" y1="454.95002441719225" x2="350.0" y2="443.8483243138471" stroke="#2563eb" stroke-width="1.0"/><line x1="350.0" y1="443.8483243138471" x2="377.20648391970053" y2="454.95002441719225" stroke="#2563eb" stroke-width="1.0"/><line x1="402.47393618625927" y1="444.8669739424902" x2="431.975769303424" y2="447.9556554415684" stroke="#2563eb" stroke-width="1.0"/><line x1="268.02423069657607" y1="447.9556554415684" x2="297.5260638137407" y2="444.8669739424902" stroke="#2563eb" stroke-width="1.0"/><line x1="244.7151646253178" y1="439.69045007997454" x2="268.02423069657607" y2="447.9556554415684" stroke="#2563eb" stroke-width="1.0"/><line x1="431.975769303424" y1="447.9556554415684" x2="455.2848353746822" y2="439.69045007997454" stroke="#2563eb" stroke-width="1.0"/><line x1="455.2848353746822" y1="439.69045007997454" x2="488.0830550198751" y2="430.7981391113295" stroke="#2563eb" stroke-width="1.0"/><line x1="211.91694498012495" y1="430.7981391113295" x2="244.7151646253178" y2="439.69045007997454" stroke="#2563eb" stroke-width="1.0"/><line x1="190.1220880933453" y1="419.7127235599971" x2="211.91694498012495" y2="430.7981391113295" stroke="#2563eb" stroke-width="1.0"/><line x1="488.0830550198751" y1="430.7981391113295" x2="509.8779119066547" y2="419.7127235599971" stroke="#2563eb" stroke-width="1.0"/><line x1="29.069344545721055" y1="413.696688184334" x2="44.63032338273432" y2="422.3023314664075" stroke="#2563eb" stroke-width="1.0"/><line x1="655.3696766172657" y1="422.3023314664075" x2="670.930655454279" y2="413.696688184334" stroke="#2563eb" stroke-width="1.0"/><line x1="509.8779119066547" y1="419.7127235599971" x2="545.6636698747022" y2="411.0502661855926" stroke="#2563eb" stroke-width="1.0"/><line x1="154.33633012529765" y1="411.0502661855926" x2="190.1220880933453" y2="419.7127235599971" stroke="#2563eb" stroke-width="1.0"/><line x1="620.3853329060706" y1="395.61146107654577" x2="655.3696766172657" y2="422.3023314664075" stroke="#2563eb" stroke-width="1.0"/><line x1="44.63032338273432" y1="422.3023314664075" x2="79.61466709392943" y2="395.61146107654577" stroke="#2563eb" stroke-width="1.0"/><line x1="133.92852107168272" y1="397.43025958062185" x2="154.33633012529765" y2="411.0502661855926" stroke="#2563eb" stroke-width="1.0"/><line x1="545.6636698747022" y1="411.0502661855926" x2="566.0714789283172" y2="397.43025958062185" stroke="#2563eb" stroke-width="1.0"/><line x1="566.0714789283172" y1="397.43025958062185" x2="602.232924961734" y2="406.6967531134901" stroke="#2563eb" stroke-width="1.0"/><line x1="97.76707503826601" y1="406.69675311349005" x2="133.92852107168272" y2="397.43025958062185" stroke="#2563eb" stroke-width="1.0"/><line x1="79.61466709392943" y1="395.61146107654577" x2="97.76707503826601" y2="406.69675311349005" stroke="#2563eb" stroke-width="1.0"/><line x1="602.232924961734" y1="406.6967531134901" x2="620.3853329060706" y2="395.61146107654577" stroke="#2563eb" stroke-width="1.0"/><line x1="322.7935160802994" y1="454.95002441719225" x2="349.99999999999994" y2="456.0646543920918" stroke="#2563eb" stroke-width="1.0"/><line x1="349.99999999999994" y1="456.0646543920918" x2="377.20648391970053" y2="454.95002441719225" stroke="#2563eb" stroke-width="1.0"/><line x1="292.9938039574196" y1="451.57281329290004" x2="322.7935160802994" y2="454.95002441719225" stroke="#2563eb" stroke-width="1.0"/><line x1="377.20648391970053" y1="454.95002441719225" x2="407.0061960425805" y2="451.57281329290004" stroke="#2563eb" stroke-width="1.0"/><line x1="268.02423069657607" y1="447.9556554415684" x2="292.9938039574196" y2="451.57281329290004" stroke="#2563eb" stroke-width="1.0"/><line x1="407.0061960425805" y1="451.57281329290004" x2="431.975769303424" y2="447.9556554415684" stroke="#2563eb" stroke-width="1.0"/><line x1="431.975769303424" y1="447.9556554415684" x2="464.9283932587164" y2="438.6735926741854" stroke="#2563eb" stroke-width="1.0"/><line x1="235.07160674128355" y1="438.6735926741854" x2="268.02423069657607" y2="447.9556554415684" stroke="#2563eb" stroke-width="1.0"/><line x1="211.91694498012495" y1="430.7981391113295" x2="235.07160674128355" y2="438.6735926741854" stroke="#2563eb" stroke-width="1.0"/><line x1="464.9283932587164" y1="438.6735926741854" x2="488.0830550198751" y2="430.7981391113295" stroke="#2563eb" stroke-width="1.0"/><line x1="44.63032338273432" y1="422.3023314664075" x2="61.731602126210674" y2="433.33695689956846" stroke="#2563eb" stroke-width="1.0"/><line x1="638.2683978737894" y1="433.33695689956846" x2="655.3696766172657" y2="422.3023314664075" stroke="#2563eb" stroke-width="1.0"/><line x1="175.9996443881459" y1="423.57978029856895" x2="211.91694498012495" y2="430.7981391113295" stroke="#2563eb" stroke-width="1.0"/><line x1="488.0830550198751" y1="430.7981391113295" x2="524.000355611854" y2="423.57978029856895" stroke="#2563eb" stroke-width="1.0"/><line x1="602.232924961734" y1="406.6967531134901" x2="638.2683978737894" y2="433.33695689956846" stroke="#2563eb" stroke-width="1.0"/><line x1="61.731602126210674" y1="433.33695689956846" x2="97.76707503826601" y2="406.69675311349005" stroke="#2563eb" stroke-width="1.0"/><line x1="154.33633012529765" y1="411.0502661855926" x2="175.9996443881459" y2="423.57978029856895" stroke="#2563eb" stroke-width="1.0"/><line x1="524.000355611854" y1="423.57978029856895" x2="545.6636698747022" y2="411.0502661855926" stroke="#2563eb" stroke-width="1.0"/><line x1="545.6636698747022" y1="411.0502661855926" x2="582.5425225193537" y2="419.76319047572133" stroke="#2563eb" stroke-width="1.0"/><line x1="117.45747748064626" y1="419.7631904757213" x2="154.33633012529765" y2="411.0502661855926" stroke="#2563eb" stroke-width="1.0"/><line x1="97.76707503826601" y1="406.69675311349005" x2="117.45747748064626" y2="419.7631904757213" stroke="#2563eb" stroke-width="1.0"/><line x1="582.5425225193537" y1="419.76319047572133" x2="602.232924961734" y2="406.6967531134901" stroke="#2563eb" stroke-width="1.0"/><line x1="349.99999999999994" y1="456.0646543920918" x2="379.85828210747985" y2="451.686064646837" stroke="#2563eb" stroke-width="1.0"/><line x1="320.14171789252015" y1="451.686064646837" x2="349.99999999999994" y2="456.0646543920918" stroke="#2563eb" stroke-width="1.0"/><line x1="292.9938039574196" y1="451.57281329290004" x2="320.14171789252015" y2="451.686064646837" stroke="#2563eb" stroke-width="1.0"/><line x1="379.85828210747985" y1="451.686064646837" x2="407.0061960425805" y2="451.57281329290004" stroke="#2563eb" stroke-width="1.0"/><line x1="407.0061960425805" y1="451.57281329290004" x2="439.96924674589974" y2="444.61735466372613" stroke="#2563eb" stroke-width="1.0"/><line x1="260.0307532541003" y1="444.61735466372613" x2="292.9938039574196" y2="451.57281329290004" stroke="#2563eb" stroke-width="1.0"/><line x1="235.07160674128355" y1="438.6735926741854" x2="260.0307532541003" y2="444.61735466372613" stroke="#2563eb" stroke-width="1.0"/><line x1="439.96924674589974" y1="444.61735466372613" x2="464.9283932587164" y2="438.6735926741854" stroke="#2563eb" stroke-width="1.0"/><line x1="61.731602126210674" y1="433.33695689956846" x2="80.52705914946254" y2="447.2149438022937" stroke="#2563eb" stroke-width="1.0"/><line x1="619.4729408505375" y1="447.2149438022937" x2="638.2683978737894" y2="433.33695689956846" stroke="#2563eb" stroke-width="1.0"/><line x1="464.9283932587164" y1="438.6735926741854" x2="500.78502309523606" y2="435.62434660020733" stroke="#2563eb" stroke-width="1.0"/><line x1="199.21497690476383" y1="435.62434660020733" x2="235.07160674128355" y2="438.6735926741854" stroke="#2563eb" stroke-width="1.0"/><line x1="80.52705914946254" y1="447.2149438022937" x2="117.45747748064626" y2="419.7631904757213" stroke="#2563eb" stroke-width="1.0"/><line x1="582.5425225193537" y1="419.76319047572133" x2="619.4729408505375" y2="447.2149438022937" stroke="#2563eb" stroke-width="1.0"/><line x1="175.9996443881459" y1="423.57978029856895" x2="199.21497690476383" y2="435.62434660020733" stroke="#2563eb" stroke-width="1.0"/><line x1="500.78502309523606" y1="435.62434660020733" x2="524.000355611854" y2="423.57978029856895" stroke="#2563eb" stroke-width="1.0"/><line x1="138.7698506032254" y1="434.61721732586125" x2="175.9996443881459" y2="423.57978029856895" stroke="#2563eb" stroke-width="1.0"/><line x1="524.000355611854" y1="423.57978029856895" x2="561.2301493967747" y2="434.6172173258613" stroke="#2563eb" stroke-width="1.0"/><line x1="117.45747748064626" y1="419.7631904757213" x2="138.7698506032254" y2="434.61721732586125" stroke="#2563eb" stroke-width="1.0"/><line x1="561.2301493967747" y1="434.6172173258613" x2="582.5425225193537" y2="419.76319047572133" stroke="#2563eb" stroke-width="1.0"/><line x1="80.52705914946254" y1="447.2149438022937" x2="101.14935412994006" y2="464.2250475372408" stroke="#2563eb" stroke-width="1.0"/><line x1="598.8506458700599" y1="464.2250475372408" x2="619.4729408505375" y2="447.2149438022937" stroke="#2563eb" stroke-width="1.0"/><line x1="320.14171789252015" y1="451.686064646837" x2="350.0" y2="453.8916915577638" stroke="#2563eb" stroke-width="1.0"/><line x1="350.0" y1="453.8916915577638" x2="379.85828210747985" y2="451.686064646837" stroke="#2563eb" stroke-width="1.0"/><line x1="379.85828210747985" y1="451.686064646837" x2="412.68861173752754" y2="452.0389028948948" stroke="#2563eb" stroke-width="1.0"/><line x1="287.3113882624724" y1="452.0389028948948" x2="320.14171789252015" y2="451.686064646837" stroke="#2563eb" stroke-width="1.0"/><line x1="561.2301493967747" y1="434.6172173258613" x2="598.8506458700599" y2="464.2250475372408" stroke="#2563eb" stroke-width="1.0"/><line x1="101.14935412994006" y1="464.2250475372408" x2="138.7698506032254" y2="434.61721732586125" stroke="#2563eb" stroke-width="1.0"/><line x1="260.0307532541003" y1="444.61735466372613" x2="287.3113882624724" y2="452.0389028948948" stroke="#2563eb" stroke-width="1.0"/><line x1="412.68861173752754" y1="452.0389028948948" x2="439.96924674589974" y2="444.61735466372613" stroke="#2563eb" stroke-width="1.0"/><line x1="439.96924674589974" y1="444.61735466372613" x2="475.601592547261" y2="449.16655032001455" stroke="#2563eb" stroke-width="1.0"/><line x1="224.39840745273892" y1="449.16655032001455" x2="260.0307532541003" y2="444.61735466372613" stroke="#2563eb" stroke-width="1.0"/><line x1="500.78502309523606" y1="435.62434660020733" x2="538.0874122529467" y2="451.85475134840175" stroke="#2563eb" stroke-width="1.0"/><line x1="161.91258774705335" y1="451.8547513484017" x2="199.21497690476383" y2="435.62434660020733" stroke="#2563eb" stroke-width="1.0"/><line x1="138.7698506032254" y1="434.61721732586125" x2="161.91258774705335" y2="451.8547513484017" stroke="#2563eb" stroke-width="1.0"/><line x1="538.0874122529467" y1="451.85475134840175" x2="561.2301493967747" y2="434.6172173258613" stroke="#2563eb" stroke-width="1.0"/><line x1="199.21497690476383" y1="435.62434660020733" x2="224.39840745273892" y2="449.16655032001455" stroke="#2563eb" stroke-width="1.0"/><line x1="475.601592547261" y1="449.16655032001455" x2="500.78502309523606" y2="435.62434660020733" stroke="#2563eb" stroke-width="1.0"/><line x1="101.14935412994006" y1="464.2250475372408" x2="123.73898287714886" y2="484.68139346984833" stroke="#2563eb" stroke-width="1.0"/><line x1="576.2610171228512" y1="484.68139346984833" x2="598.8506458700599" y2="464.2250475372408" stroke="#2563eb" stroke-width="1.0"/><line x1="538.0874122529467" y1="451.85475134840175" x2="576.2610171228512" y2="484.68139346984833" stroke="#2563eb" stroke-width="1.0"/><line x1="123.73898287714886" y1="484.68139346984833" x2="161.91258774705335" y2="451.8547513484017" stroke="#2563eb" stroke-width="1.0"/><line x1="161.91258774705335" y1="451.8547513484017" x2="187.15372002643335" y2="472.7018339513165" stroke="#2563eb" stroke-width="1.0"/><line x1="512.8462799735667" y1="472.7018339513165" x2="538.0874122529467" y2="451.85475134840175" stroke="#2563eb" stroke-width="1.0"/><line x1="187.15372002643335" y1="472.7018339513165" x2="224.39840745273892" y2="449.16655032001455" stroke="#2563eb" stroke-width="1.0"/><line x1="475.601592547261" y1="449.16655032001455" x2="512.8462799735667" y2="472.7018339513165" stroke="#2563eb" stroke-width="1.0"/><line x1="350.0" y1="453.8916915577638" x2="382.7068895209542" y2="466.0063405106043" stroke="#2563eb" stroke-width="1.0"/><line x1="317.2931104790458" y1="466.0063405106044" x2="350.0" y2="453.8916915577638" stroke="#2563eb" stroke-width="1.0"/><line x1="412.68861173752754" y1="452.0389028948948" x2="448.0484692011141" y2="467.17710746497926" stroke="#2563eb" stroke-width="1.0"/><line x1="251.9515307988858" y1="467.1771074649793" x2="287.3113882624724" y2="452.0389028948948" stroke="#2563eb" stroke-width="1.0"/><line x1="287.3113882624724" y1="452.0389028948948" x2="317.2931104790458" y2="466.0063405106044" stroke="#2563eb" stroke-width="1.0"/><line x1="382.7068895209542" y1="466.0063405106043" x2="412.68861173752754" y2="452.0389028948948" stroke="#2563eb" stroke-width="1.0"/><line x1="224.39840745273892" y1="449.16655032001455" x2="251.9515307988858" y2="467.1771074649793" stroke="#2563eb" stroke-width="1.0"/><line x1="448.0484692011141" y1="467.17710746497926" x2="475.601592547261" y2="449.16655032001455" stroke="#2563eb" stroke-width="1.0"/><line x1="123.73898287714886" y1="484.68139346984833" x2="148.42072880187362" y2="508.7470193646054" stroke="#2563eb" stroke-width="1.0"/><line x1="551.5792711981264" y1="508.7470193646054" x2="576.2610171228512" y2="484.68139346984833" stroke="#2563eb" stroke-width="1.0"/><line x1="512.8462799735667" y1="472.7018339513165" x2="551.5792711981264" y2="508.7470193646054" stroke="#2563eb" stroke-width="1.0"/><line x1="148.42072880187362" y1="508.7470193646054" x2="187.15372002643335" y2="472.7018339513165" stroke="#2563eb" stroke-width="1.0"/><line x1="485.29429308489034" y1="498.2840051267064" x2="512.8462799735667" y2="472.7018339513165" stroke="#2563eb" stroke-width="1.0"/><line x1="187.15372002643335" y1="472.7018339513165" x2="214.70570691510972" y2="498.2840051267063" stroke="#2563eb" stroke-width="1.0"/><line x1="448.0484692011141" y1="467.17710746497926" x2="485.29429308489034" y2="498.2840051267064" stroke="#2563eb" stroke-width="1.0"/><line x1="214.70570691510972" y1="498.2840051267063" x2="251.9515307988858" y2="467.1771074649793" stroke="#2563eb" stroke-width="1.0"/><line x1="251.9515307988858" y1="467.1771074649793" x2="282.0886996322861" y2="492.1969930314667" stroke="#2563eb" stroke-width="1.0"/><line x1="417.91130036771386" y1="492.19699303146655" x2="448.0484692011141" y2="467.17710746497926" stroke="#2563eb" stroke-width="1.0"/><line x1="382.7068895209542" y1="466.0063405106043" x2="417.91130036771386" y2="492.19699303146655" stroke="#2563eb" stroke-width="1.0"/><line x1="282.0886996322861" y1="492.1969930314667" x2="317.2931104790458" y2="466.0063405106044" stroke="#2563eb" stroke-width="1.0"/><line x1="317.2931104790458" y1="466.0063405106044" x2="350.0" y2="490.38070335153395" stroke="#2563eb" stroke-width="1.0"/><line x1="350.0" y1="490.38070335153395" x2="382.7068895209542" y2="466.0063405106043" stroke="#2563eb" stroke-width="1.0"/><line x1="148.42072880187362" y1="508.7470193646054" x2="175.26563701392968" y2="535.9919906952987" stroke="#2563eb" stroke-width="1.0"/><line x1="524.7343629860703" y1="535.9919906952987" x2="551.5792711981264" y2="508.7470193646054" stroke="#2563eb" stroke-width="1.0"/><line x1="485.29429308489034" y1="498.2840051267064" x2="524.7343629860703" y2="535.9919906952987" stroke="#2563eb" stroke-width="1.0"/><line x1="175.26563701392968" y1="535.9919906952987" x2="214.70570691510972" y2="498.2840051267063" stroke="#2563eb" stroke-width="1.0"/><line x1="455.35620045609113" y1="528.5114890239643" x2="485.29429308489034" y2="498.2840051267064" stroke="#2563eb" stroke-width="1.0"/><line x1="214.70570691510972" y1="498.2840051267063" x2="244.64379954390893" y2="528.5114890239643" stroke="#2563eb" stroke-width="1.0"/><line x1="417.91130036771386" y1="492.19699303146655" x2="455.35620045609113" y2="528.5114890239643" stroke="#2563eb" stroke-width="1.0"/><line x1="244.64379954390893" y1="528.5114890239643" x2="282.0886996322861" y2="492.1969930314667" stroke="#2563eb" stroke-width="1.0"/><line x1="282.0886996322861" y1="492.1969930314667" x2="314.78330531677767" y2="524.2475816731016" stroke="#2563eb" stroke-width="1.0"/><line x1="385.2166946832222" y1="524.2475816731015" x2="417.91130036771386" y2="492.19699303146655" stroke="#2563eb" stroke-width="1.0"/><line x1="314.78330531677767" y1="524.2475816731016" x2="350.0" y2="490.38070335153395" stroke="#2563eb" stroke-width="1.0"/><line x1="350.0" y1="490.38070335153395" x2="385.2166946832222" y2="524.2475816731015" stroke="#2563eb" stroke-width="1.0"/><line x1="495.69088108696906" y1="565.0095921673427" x2="524.7343629860703" y2="535.9919906952987" stroke="#2563eb" stroke-width="1.0"/><line x1="175.26563701392968" y1="535.9919906952987" x2="204.30911891303094" y2="565.0095921673427" stroke="#2563eb" stroke-width="1.0"/><line x1="455.35620045609113" y1="528.5114890239643" x2="495.69088108696906" y2="565.0095921673427" stroke="#2563eb" stroke-width="1.0"/><line x1="204.30911891303094" y1="565.0095921673427" x2="244.64379954390893" y2="528.5114890239643" stroke="#2563eb" stroke-width="1.0"/><line x1="244.64379954390893" y1="528.5114890239643" x2="276.9730069248002" y2="561.2908416153446" stroke="#2563eb" stroke-width="1.0"/><line x1="423.02699307519987" y1="561.2908416153447" x2="455.35620045609113" y2="528.5114890239643" stroke="#2563eb" stroke-width="1.0"/><line x1="385.2166946832222" y1="524.2475816731015" x2="423.02699307519987" y2="561.2908416153447" stroke="#2563eb" stroke-width="1.0"/><line x1="276.9730069248002" y1="561.2908416153446" x2="314.78330531677767" y2="524.2475816731016" stroke="#2563eb" stroke-width="1.0"/><line x1="314.78330531677767" y1="524.2475816731016" x2="349.99999999999994" y2="559.7467558269063" stroke="#2563eb" stroke-width="1.0"/><line x1="349.99999999999994" y1="559.7467558269063" x2="385.2166946832222" y2="524.2475816731015" stroke="#2563eb" stroke-width="1.0"/><line x1="204.30911891303094" y1="565.0095921673427" x2="235.67767446960056" y2="593.5627067960829" stroke="#2563eb" stroke-width="1.0"/><line x1="464.32232553039944" y1="593.5627067960829" x2="495.69088108696906" y2="565.0095921673427" stroke="#2563eb" stroke-width="1.0"/><line x1="423.02699307519987" y1="561.2908416153447" x2="464.32232553039944" y2="593.5627067960829" stroke="#2563eb" stroke-width="1.0"/><line x1="235.67767446960056" y1="593.5627067960829" x2="276.9730069248002" y2="561.2908416153446" stroke="#2563eb" stroke-width="1.0"/><line x1="276.9730069248002" y1="561.2908416153446" x2="311.8770349752244" y2="592.9665277055542" stroke="#2563eb" stroke-width="1.0"/><line x1="388.1229650247756" y1="592.9665277055544" x2="423.02699307519987" y2="561.2908416153447" stroke="#2563eb" stroke-width="1.0"/><line x1="349.99999999999994" y1="559.7467558269063" x2="388.1229650247756" y2="592.9665277055544" stroke="#2563eb" stroke-width="1.0"/><line x1="311.8770349752244" y1="592.9665277055542" x2="349.99999999999994" y2="559.7467558269063" stroke="#2563eb" stroke-width="1.0"/><line x1="311.8770349752244" y1="592.9665277055542" x2="350.00000000000006" y2="620.2150585085716" stroke="#2563eb" stroke-width="1.0"/><line x1="350.00000000000006" y1="620.2150585085716" x2="388.1229650247756" y2="592.9665277055544" stroke="#2563eb" stroke-width="1.0"/><line x1="235.67767446960056" y1="593.5627067960829" x2="269.79093840458336" y2="619.5459655534944" stroke="#2563eb" stroke-width="1.0"/><line x1="430.20906159541653" y1="619.5459655534944" x2="464.32232553039944" y2="593.5627067960829" stroke="#2563eb" stroke-width="1.0"/><line x1="269.79093840458336" y1="619.5459655534944" x2="311.8770349752244" y2="592.9665277055542" stroke="#2563eb" stroke-width="1.0"/><line x1="388.1229650247756" y1="592.9665277055544" x2="430.20906159541653" y2="619.5459655534944" stroke="#2563eb" stroke-width="1.0"/><line x1="350.00000000000006" y1="620.2150585085716" x2="392.4987974934165" y2="642.5357980101769" stroke="#2563eb" stroke-width="1.0"/><line x1="307.5012025065836" y1="642.5357980101769" x2="350.00000000000006" y2="620.2150585085716" stroke="#2563eb" stroke-width="1.0"/><line x1="269.79093840458336" y1="619.5459655534944" x2="307.5012025065836" y2="642.5357980101769" stroke="#2563eb" stroke-width="1.0"/><line x1="392.4987974934165" y1="642.5357980101769" x2="430.20906159541653" y2="619.5459655534944" stroke="#2563eb" stroke-width="1.0"/><line x1="350.0" y1="665.1453728867431" x2="392.4987974934165" y2="642.5357980101769" stroke="#2563eb" stroke-width="1.0"/><line x1="307.5012025065836" y1="642.5357980101769" x2="350.0" y2="665.1453728867431" stroke="#2563eb" stroke-width="1.0"/></svg>