<svg xmlns="http://www.w3.org/2000/svg" width="680" height="620" viewBox="0 0 680 620"><rect x="0" y="0" width="680" height="620" fill="#fafafa"/><text x="20" y="30" text-anchor="start" font-family="sans-serif" font-size="16" fill="#333">trisurf — 不規則点群を Delaunay 三角分割</text><path d="M 217.3343407062604 381.5883488884681 L 340.0 334.6582090615835 L 340.0 202.40054227672672 L 204.19159149621692 230.74147087348172 Z" fill="#eaeaea" fill-opacity="1.0" stroke="none"/><path d="M 340.0 334.6582090615835 L 462.66565929373957 381.5883488884681 L 475.8084085037831 230.74147087348172 L 340.0 202.40054227672672 Z" fill="#eaeaea" fill-opacity="1.0" stroke="none"/><path d="M 217.3343407062604 381.5883488884681 L 340.0 446.5685424949238 L 462.66565929373957 381.5883488884681 L 340.0 334.6582090615835 Z" fill="#eaeaea" fill-opacity="1.0" stroke="none"/><line x1="217.3343407062604" y1="381.5883488884681" x2="204.19159149621692" y2="230.74147087348172" stroke="#ffffff" stroke-width="1.0"/><line x1="251.5666177184668" y1="368.49156568096544" x2="242.49652722805317" y2="222.74787562824312" stroke="#ffffff" stroke-width="1.0"/><line x1="283.2442471924488" y1="356.3721543546196" x2="277.66171412941105" y2="215.40949310802404" stroke="#ffffff" stroke-width="1.0"/><line x1="312.6429105172235" y1="345.1246431236944" x2="310.05798867633126" y2="208.64893598309789" stroke="#ffffff" stroke-width="1.0"/><line x1="340.0" y1="334.6582090615835" x2="340.0" y2="202.40054227672672" stroke="#ffffff" stroke-width="1.0"/><line x1="217.3343407062604" y1="381.5883488884681" x2="340.0" y2="334.6582090615835" stroke="#ffffff" stroke-width="1.0"/><line x1="214.2930433683991" y1="346.6816333147523" x2="340.0" y2="303.7042870481064" stroke="#ffffff" stroke-width="1.0"/><line x1="211.09710379301941" y1="310.0" x2="340.0" y2="271.4045423383911" stroke="#ffffff" stroke-width="1.0"/><line x1="207.73441954414167" y1="271.40454233839114" x2="340.0" y2="237.66925341935513" stroke="#ffffff" stroke-width="1.0"/><line x1="204.19159149621692" y1="230.74147087348172" x2="340.0" y2="202.40054227672672" stroke="#ffffff" stroke-width="1.0"/><line x1="340.0" y1="334.6582090615835" x2="340.0" y2="202.40054227672672" stroke="#ffffff" stroke-width="1.0"/><line x1="367.3570894827765" y1="345.1246431236944" x2="369.94201132366874" y2="208.64893598309789" stroke="#ffffff" stroke-width="1.0"/><line x1="396.7557528075511" y1="356.3721543546196" x2="402.33828587058895" y2="215.40949310802404" stroke="#ffffff" stroke-width="1.0"/><line x1="428.43338228153317" y1="368.49156568096544" x2="437.5034727719468" y2="222.74787562824312" stroke="#ffffff" stroke-width="1.0"/><line x1="462.66565929373957" y1="381.5883488884681" x2="475.8084085037831" y2="230.74147087348172" stroke="#ffffff" stroke-width="1.0"/><line x1="340.0" y1="334.6582090615835" x2="462.66565929373957" y2="381.5883488884681" stroke="#ffffff" stroke-width="1.0"/><line x1="340.0" y1="303.7042870481064" x2="465.70695663160086" y2="346.6816333147523" stroke="#ffffff" stroke-width="1.0"/><line x1="340.0" y1="271.4045423383911" x2="468.9028962069806" y2="310.0" stroke="#ffffff" stroke-width="1.0"/><line x1="340.0" y1="237.66925341935513" x2="472.2655804558583" y2="271.40454233839114" stroke="#ffffff" stroke-width="1.0"/><line x1="340.0" y1="202.40054227672672" x2="475.8084085037831" y2="230.74147087348172" stroke="#ffffff" stroke-width="1.0"/><line x1="217.3343407062604" y1="381.5883488884681" x2="340.0" y2="334.6582090615835" stroke="#ffffff" stroke-width="1.0"/><line x1="244.1352410561531" y1="395.78570211340804" x2="367.3570894827765" y2="345.1246431236944" stroke="#ffffff" stroke-width="1.0"/><line x1="273.28709757708896" y1="411.22843720018477" x2="396.7557528075511" y2="356.3721543546196" stroke="#ffffff" stroke-width="1.0"/><line x1="305.11343634765205" y1="428.0879369738218" x2="428.43338228153317" y2="368.49156568096544" stroke="#ffffff" stroke-width="1.0"/><line x1="340.0" y1="446.5685424949238" x2="462.66565929373957" y2="381.5883488884681" stroke="#ffffff" stroke-width="1.0"/><line x1="217.3343407062604" y1="381.5883488884681" x2="340.0" y2="446.5685424949238" stroke="#ffffff" stroke-width="1.0"/><line x1="251.5666177184668" y1="368.49156568096544" x2="374.88656365234795" y2="428.0879369738218" stroke="#ffffff" stroke-width="1.0"/><line x1="283.2442471924488" y1="356.3721543546196" x2="406.712902422911" y2="411.22843720018477" stroke="#ffffff" stroke-width="1.0"/><line x1="312.6429105172235" y1="345.1246431236944" x2="435.86475894384694" y2="395.78570211340804" stroke="#ffffff" stroke-width="1.0"/><line x1="340.0" y1="334.6582090615835" x2="462.66565929373957" y2="381.5883488884681" stroke="#ffffff" stroke-width="1.0"/><line x1="217.3343407062604" y1="381.5883488884681" x2="340.0" y2="446.5685424949238" stroke="#bbbbbb" stroke-width="1.0"/><line x1="340.0" y1="446.5685424949238" x2="462.66565929373957" y2="381.5883488884681" stroke="#bbbbbb" stroke-width="1.0"/><line x1="462.66565929373957" y1="381.5883488884681" x2="340.0" y2="334.6582090615835" stroke="#bbbbbb" stroke-width="1.0"/><line x1="340.0" y1="334.6582090615835" x2="217.3343407062604" y2="381.5883488884681" stroke="#bbbbbb" stroke-width="1.0"/><line x1="204.19159149621692" y1="230.74147087348172" x2="340.0" y2="271.40454233839114" stroke="#bbbbbb" stroke-width="1.0"/><line x1="340.0" y1="271.40454233839114" x2="475.8084085037831" y2="230.74147087348172" stroke="#bbbbbb" stroke-width="1.0"/><line x1="475.8084085037831" y1="230.74147087348172" x2="340.0" y2="202.40054227672672" stroke="#bbbbbb" stroke-width="1.0"/><line x1="340.0" y1="202.40054227672672" x2="204.19159149621692" y2="230.74147087348172" stroke="#bbbbbb" stroke-width="1.0"/><line x1="217.3343407062604" y1="381.5883488884681" x2="204.19159149621692" y2="230.74147087348172" stroke="#bbbbbb" stroke-width="1.0"/><line x1="340.0" y1="446.5685424949238" x2="340.0" y2="271.40454233839114" stroke="#bbbbbb" stroke-width="1.0"/><line x1="462.66565929373957" y1="381.5883488884681" x2="475.8084085037831" y2="230.74147087348172" stroke="#bbbbbb" stroke-width="1.0"/><line x1="340.0" y1="334.6582090615835" x2="340.0" y2="202.40054227672672" stroke="#bbbbbb" stroke-width="1.0"/><line x1="217.3343407062604" y1="381.5883488884681" x2="222.99583267366378" y2="379.4223424349196" stroke="#888888" stroke-width="1.0"/><text x="211.59932286915054" y="393.78248529595885" fill="#444444" font-size="9.0" font-family="sans-serif" text-anchor="middle">-2</text><line x1="244.1352410561531" y1="395.78570211340804" x2="249.8540513837994" y2="393.43448768951146" stroke="#888888" stroke-width="1.0"/><text x="238.33901874437626" y="408.1687434669005" fill="#444444" font-size="9.0" font-family="sans-serif" text-anchor="middle">-1</text><line x1="273.28709757708896" y1="411.22843720018477" x2="279.05183618366806" y2="408.66720308823153" stroke="#888888" stroke-width="1.0"/><text x="267.4408785661767" y="423.82587250099954" fill="#444444" font-size="9.0" font-family="sans-serif" text-anchor="middle">0</text><line x1="305.11343634765205" y1="428.0879369738218" x2="310.9087999270585" y2="425.28723318628863" stroke="#888888" stroke-width="1.0"/><text x="299.23237423102705" y="440.9300559744792" fill="#444444" font-size="9.0" font-family="sans-serif" text-anchor="middle">0.9</text><line x1="340.0" y1="446.5685424949238" x2="345.8055502871846" y2="443.49314401889313" stroke="#888888" stroke-width="1.0"/><text x="334.10444118123115" y="459.6916215674822" fill="#444444" font-size="9.0" font-family="sans-serif" text-anchor="middle">1.9</text><line x1="340.0" y1="446.5685424949238" x2="334.19444971281536" y2="443.49314401889313" stroke="#888888" stroke-width="1.0"/><text x="345.8955588187689" y="453.6916215674822" fill="#444444" font-size="9.0" font-family="sans-serif" text-anchor="middle">-2</text><line x1="374.88656365234795" y1="428.0879369738218" x2="369.09120007294155" y2="425.28723318628863" stroke="#888888" stroke-width="1.0"/><text x="380.76762576897295" y="434.9300559744792" fill="#444444" font-size="9.0" font-family="sans-serif" text-anchor="middle">-1</text><line x1="406.712902422911" y1="411.22843720018477" x2="400.94816381633194" y2="408.66720308823153" stroke="#888888" stroke-width="1.0"/><text x="412.5591214338233" y="417.82587250099954" fill="#444444" font-size="9.0" font-family="sans-serif" text-anchor="middle">0</text><line x1="435.86475894384694" y1="395.78570211340804" x2="430.1459486162006" y2="393.43448768951146" stroke="#888888" stroke-width="1.0"/><text x="441.6609812556238" y="402.1687434669005" fill="#444444" font-size="9.0" font-family="sans-serif" text-anchor="middle">1</text><line x1="462.66565929373957" y1="381.5883488884681" x2="457.0041673263362" y2="379.4223424349196" stroke="#888888" stroke-width="1.0"/><text x="468.4006771308495" y="387.78248529595885" fill="#444444" font-size="9.0" font-family="sans-serif" text-anchor="middle">2</text><line x1="217.3343407062604" y1="381.5883488884681" x2="227.14759344975957" y2="381.5883488884681" stroke="#888888" stroke-width="1.0"/><text x="207.52108796276127" y="385.5883488884681" fill="#444444" font-size="9.0" font-family="sans-serif" text-anchor="middle">0</text><line x1="214.2930433683991" y1="346.6816333147523" x2="224.34959989892715" y2="346.6816333147523" stroke="#888888" stroke-width="1.0"/><text x="204.23648683787104" y="350.6816333147523" fill="#444444" font-size="9.0" font-family="sans-serif" text-anchor="middle">0.2</text><line x1="211.09710379301941" y1="310.0" x2="221.40933548957784" y2="310.0" stroke="#888888" stroke-width="1.0"/><text x="200.784872096461" y="314.0" fill="#444444" font-size="9.0" font-family="sans-serif" text-anchor="middle">0.5</text><line x1="207.73441954414167" y1="271.40454233839114" x2="218.31566598061033" y2="271.4045423383911" stroke="#888888" stroke-width="1.0"/><text x="197.153173107673" y="275.4045423383911" fill="#444444" font-size="9.0" font-family="sans-serif" text-anchor="middle">0.7</text><line x1="204.19159149621692" y1="230.74147087348172" x2="215.05626417651953" y2="230.74147087348172" stroke="#888888" stroke-width="1.0"/><text x="193.32691881591424" y="234.74147087348172" fill="#444444" font-size="9.0" font-family="sans-serif" text-anchor="middle">1</text><text x="255.4969902643127" y="433.13246074997585" fill="#333333" font-size="11.0" font-family="sans-serif" text-anchor="middle" font-weight="bold">x</text><text x="424.5030097356873" y="419.13246074997585" fill="#333333" font-size="11.0" font-family="sans-serif" text-anchor="middle" font-weight="bold">y</text><text x="190.47264039990253" y="310.0" fill="#333333" font-size="11.0" font-family="sans-serif" text-anchor="middle" font-weight="bold">z</text><path d="M 347.9287347588926 340.11437004008064 L 329.4750421449184 344.30438397183593 L 334.95276084641074 340.59331420343364 Z" fill="#410150" fill-opacity="1.0" stroke="#3a73a6" stroke-width="0.3"/><path d="M 347.9287347588926 340.11437004008064 L 359.57426548703216 346.11352153304557 L 329.4750421449184 344.30438397183593 Z" fill="#410251" fill-opacity="1.0" stroke="#3a73a6" stroke-width="0.3"/><path d="M 329.4750421449184 344.30438397183593 L 310.414000546638 348.40577881402 L 334.95276084641074 340.59331420343364 Z" fill="#410251" fill-opacity="1.0" stroke="#3a73a6" stroke-width="0.3"/><path d="M 359.57426548703216 346.11352153304557 L 347.9287347588926 340.11437004008064 L 376.8331391487071 348.6757565732978 Z" fill="#410351" fill-opacity="1.0" stroke="#3a73a6" stroke-width="0.3"/><path d="M 329.4750421449184 344.30438397183593 L 359.57426548703216 346.11352153304557 L 340.85848165738685 348.03464914199475 Z" fill="#3f0652" fill-opacity="1.0" stroke="#3a73a6" stroke-width="0.3"/><path d="M 310.414000546638 348.40577881402 L 290.72849048256455 353.07298197848843 L 334.95276084641074 340.59331420343364 Z" fill="#410353" fill-opacity="1.0" stroke="#3a73a6" stroke-width="0.3"/><path d="M 329.4750421449184 344.30438397183593 L 340.85848165738685 348.03464914199475 L 310.414000546638 348.40577881402 Z" fill="#400654" fill-opacity="1.0" stroke="#3a73a6" stroke-width="0.3"/><path d="M 371.8513460866368 350.05479516684954 L 359.57426548703216 346.11352153304557 L 376.8331391487071 348.6757565732978 Z" fill="#3e0752" fill-opacity="1.0" stroke="#3a73a6" stroke-width="0.3"/><path d="M 359.57426548703216 346.11352153304557 L 371.8513460866368 350.05479516684954 L 340.85848165738685 348.03464914199475 Z" fill="#3f0854" fill-opacity="1.0" stroke="#3a73a6" stroke-width="0.3"/><path d="M 310.414000546638 348.40577881402 L 304.3761467441859 351.3417887750606 L 290.72849048256455 353.07298197848843 Z" fill="#410654" fill-opacity="1.0" stroke="#3a73a6" stroke-width="0.3"/><path d="M 310.414000546638 348.40577881402 L 340.85848165738685 348.03464914199475 L 321.43044001545854 348.63183305081867 Z" fill="#3f0b56" fill-opacity="1.0" stroke="#3a73a6" stroke-width="0.3"/><path d="M 304.3761467441859 351.3417887750606 L 310.414000546638 348.40577881402 L 321.43044001545854 348.63183305081867 Z" fill="#410b59" fill-opacity="1.0" stroke="#3a73a6" stroke-width="0.3"/><path d="M 384.8874832910261 351.35414889442643 L 371.8513460866368 350.05479516684954 L 376.8331391487071 348.6757565732978 Z" fill="#3f0e58" fill-opacity="1.0" stroke="#3a73a6" stroke-width="0.3"/><path d="M 340.85848165738685 348.03464914199475 L 335.2237616352806 347.0470415766946 L 321.43044001545854 348.63183305081867 Z" fill="#3e125a" fill-opacity="1.0" stroke="#3a73a6" stroke-width="0.3"/><path d="M 340.85848165738685 348.03464914199475 L 371.8513460866368 350.05479516684954 L 352.93450196735847 343.64392818524857 Z" fill="#3a1357" fill-opacity="1.0" stroke="#3a73a6" stroke-width="0.3"/><path d="M 290.72849048256455 353.07298197848843 L 304.3761467441859 351.3417887750606 L 301.30121709397633 351.96454587563255 Z" fill="#400c58" fill-opacity="1.0" stroke="#3a73a6" stroke-width="0.3"/><path d="M 335.2237616352806 347.0470415766946 L 340.85848165738685 348.03464914199475 L 352.93450196735847 343.64392818524857 Z" fill="#3d175e" fill-opacity="1.0" stroke="#3a73a6" stroke-width="0.3"/><path d="M 315.2950312734159 346.268634607564 L 304.3761467441859 351.3417887750606 L 321.43044001545854 348.63183305081867 Z" fill="#3d155b" fill-opacity="1.0" stroke="#3a73a6" stroke-width="0.3"/><path d="M 284.29763909425367 356.59311143376215 L 290.72849048256455 353.07298197848843 L 301.30121709397633 351.96454587563255 Z" fill="#420d5a" fill-opacity="1.0" stroke="#3a73a6" stroke-width="0.3"/><path d="M 284.29763909425367 356.59311143376215 L 263.60659105213676 363.0801285256123 L 290.72849048256455 353.07298197848843 Z" fill="#420555" fill-opacity="1.0" stroke="#3a73a6" stroke-width="0.3"/><path d="M 416.96587358858966 362.18765198797155 L 384.8874832910261 351.35414889442643 L 376.8331391487071 348.6757565732978 Z" fill="#3a0b50" fill-opacity="1.0" stroke="#3a73a6" stroke-width="0.3"/><path d="M 371.8513460866368 350.05479516684954 L 384.8874832910261 351.35414889442643 L 352.93450196735847 343.64392818524857 Z" fill="#391859" fill-opacity="1.0" stroke="#3a73a6" stroke-width="0.3"/><path d="M 304.3761467441859 351.3417887750606 L 315.2950312734159 346.268634607564 L 301.30121709397633 351.96454587563255 Z" fill="#3f1761" fill-opacity="1.0" stroke="#3a73a6" stroke-width="0.3"/><path d="M 321.43044001545854 348.63183305081867 L 335.2237616352806 347.0470415766946 L 333.03351103172895 331.44328539044494 Z" fill="#382663" fill-opacity="1.0" stroke="#3a73a6" stroke-width="0.3"/><path d="M 347.3949003601491 331.6721954928972 L 335.2237616352806 347.0470415766946 L 352.93450196735847 343.64392818524857 Z" fill="#352861" fill-opacity="1.0" stroke="#3a73a6" stroke-width="0.3"/><path d="M 263.60659105213676 363.0801285256123 L 284.29763909425367 356.59311143376215 L 280.6383013472943 360.34067509376246 Z" fill="#410a58" fill-opacity="1.0" stroke="#3a73a6" stroke-width="0.3"/><path d="M 294.73593900171653 352.41529662779004 L 284.29763909425367 356.59311143376215 L 301.30121709397633 351.96454587563255 Z" fill="#3f165e" fill-opacity="1.0" stroke="#3a73a6" stroke-width="0.3"/><path d="M 315.2950312734159 346.268634607564 L 321.43044001545854 348.63183305081867 L 333.03351103172895 331.44328539044494 Z" fill="#3b2d6c" fill-opacity="1.0" stroke="#3a73a6" stroke-width="0.3"/><path d="M 284.29763909425367 356.59311143376215 L 294.73593900171653 352.41529662779004 L 280.6383013472943 360.34067509376246 Z" fill="#411561" fill-opacity="1.0" stroke="#3a73a6" stroke-width="0.3"/><path d="M 335.2237616352806 347.0470415766946 L 347.3949003601491 331.6721954928972 L 333.03351103172895 331.44328539044494 Z" fill="#35366d" fill-opacity="1.0" stroke="#3a73a6" stroke-width="0.3"/><path d="M 384.8874832910261 351.35414889442643 L 416.96587358858966 362.18765198797155 L 398.6541320477791 354.13189855371246 Z" fill="#381656" fill-opacity="1.0" stroke="#3a73a6" stroke-width="0.3"/><path d="M 352.93450196735847 343.64392818524857 L 384.8874832910261 351.35414889442643 L 366.0197300131561 328.70805299354686 Z" fill="#322c61" fill-opacity="1.0" stroke="#3a73a6" stroke-width="0.3"/><path d="M 273.7597603101476 364.53614579339757 L 263.60659105213676 363.0801285256123 L 280.6383013472943 360.34067509376246 Z" fill="#410f5b" fill-opacity="1.0" stroke="#3a73a6" stroke-width="0.3"/><path d="M 301.30121709397633 351.96454587563255 L 315.2950312734159 346.268634607564 L 312.1459586699523 329.5041273848674 Z" fill="#38316c" fill-opacity="1.0" stroke="#3a73a6" stroke-width="0.3"/><path d="M 412.4831378170315 362.9444208040556 L 416.96587358858966 362.18765198797155 L 431.361955102068 370.62846551588115 Z" fill="#3b094f" fill-opacity="1.0" stroke="#3a73a6" stroke-width="0.3"/><path d="M 416.96587358858966 362.18765198797155 L 412.4831378170315 362.9444208040556 L 398.6541320477791 354.13189855371246 Z" fill="#361150" fill-opacity="1.0" stroke="#3a73a6" stroke-width="0.3"/><path d="M 380.1033323185719 342.2778402265003 L 384.8874832910261 351.35414889442643 L 398.6541320477791 354.13189855371246 Z" fill="#312258" fill-opacity="1.0" stroke="#3a73a6" stroke-width="0.3"/><path d="M 347.3949003601491 331.6721954928972 L 352.93450196735847 343.64392818524857 L 366.0197300131561 328.70805299354686 Z" fill="#323b6e" fill-opacity="1.0" stroke="#3a73a6" stroke-width="0.3"/><path d="M 384.8874832910261 351.35414889442643 L 380.1033323185719 342.2778402265003 L 366.0197300131561 328.70805299354686 Z" fill="#2f2f60" fill-opacity="1.0" stroke="#3a73a6" stroke-width="0.3"/><path d="M 294.73593900171653 352.41529662779004 L 273.7597603101476 364.53614579339757 L 280.6383013472943 360.34067509376246 Z" fill="#401964" fill-opacity="1.0" stroke="#3a73a6" stroke-width="0.3"/><path d="M 294.73593900171653 352.41529662779004 L 301.30121709397633 351.96454587563255 L 312.1459586699523 329.5041273848674 Z" fill="#3b3372" fill-opacity="1.0" stroke="#3a73a6" stroke-width="0.3"/><path d="M 263.60659105213676 363.0801285256123 L 273.7597603101476 364.53614579339757 L 252.18010752716043 375.84554923863675 Z" fill="#430b5a" fill-opacity="1.0" stroke="#3a73a6" stroke-width="0.3"/><path d="M 234.78608369185807 374.68272952364725 L 263.60659105213676 363.0801285256123 L 252.18010752716043 375.84554923863675 Z" fill="#420453" fill-opacity="1.0" stroke="#3a73a6" stroke-width="0.3"/><path d="M 326.7587965028191 316.36544214756253 L 315.2950312734159 346.268634607564 L 333.03351103172895 331.44328539044494 Z" fill="#324677" fill-opacity="1.0" stroke="#3a73a6" stroke-width="0.3"/><path d="M 416.96587358858966 362.18765198797155 L 460.91200548329084 380.77710609630395 L 431.361955102068 370.62846551588115 Z" fill="#3f0551" fill-opacity="1.0" stroke="#3a73a6" stroke-width="0.3"/><path d="M 426.95483898647734 372.7944838084043 L 412.4831378170315 362.9444208040556 L 431.361955102068 370.62846551588115 Z" fill="#3c0b52" fill-opacity="1.0" stroke="#3a73a6" stroke-width="0.3"/><path d="M 315.2950312734159 346.268634607564 L 326.7587965028191 316.36544214756253 L 312.1459586699523 329.5041273848674 Z" fill="#345080" fill-opacity="1.0" stroke="#3a73a6" stroke-width="0.3"/><path d="M 398.6541320477791 354.13189855371246 L 412.4831378170315 362.9444208040556 L 412.8936873636059 364.02895463035634 Z" fill="#351955" fill-opacity="1.0" stroke="#3a73a6" stroke-width="0.3"/><path d="M 394.1375258135251 343.3043485043573 L 380.1033323185719 342.2778402265003 L 398.6541320477791 354.13189855371246 Z" fill="#302e60" fill-opacity="1.0" stroke="#3a73a6" stroke-width="0.3"/><path d="M 294.73593900171653 352.41529662779004 L 305.3593833120631 324.85889360309324 L 273.7597603101476 364.53614579339757 Z" fill="#3a3773" fill-opacity="1.0" stroke="#3a73a6" stroke-width="0.3"/><path d="M 412.4831378170315 362.9444208040556 L 426.95483898647734 372.7944838084043 L 412.8936873636059 364.02895463035634 Z" fill="#361250" fill-opacity="1.0" stroke="#3a73a6" stroke-width="0.3"/><path d="M 426.95483898647734 372.7944838084043 L 431.361955102068 370.62846551588115 L 446.4451155024975 380.35665947605634 Z" fill="#3c0750" fill-opacity="1.0" stroke="#3a73a6" stroke-width="0.3"/><path d="M 333.03351103172895 331.44328539044494 L 347.3949003601491 331.6721954928972 L 345.76066721789084 290.6856499770272 Z" fill="#285a73" fill-opacity="1.0" stroke="#3a73a6" stroke-width="0.3"/><path d="M 431.361955102068 370.62846551588115 L 460.91200548329084 380.77710609630395 L 446.4451155024975 380.35665947605634 Z" fill="#400451" fill-opacity="1.0" stroke="#3a73a6" stroke-width="0.3"/><path d="M 360.7889518834916 302.8670431584113 L 347.3949003601491 331.6721954928972 L 366.0197300131561 328.70805299354686 Z" fill="#26526d" fill-opacity="1.0" stroke="#3a73a6" stroke-width="0.3"/><path d="M 305.3593833120631 324.85889360309324 L 294.73593900171653 352.41529662779004 L 312.1459586699523 329.5041273848674 Z" fill="#364d80" fill-opacity="1.0" stroke="#3a73a6" stroke-width="0.3"/><path d="M 244.72678313233692 381.85868216748014 L 234.78608369185807 374.68272952364725 L 252.18010752716043 375.84554923863675 Z" fill="#420554" fill-opacity="1.0" stroke="#3a73a6" stroke-width="0.3"/><path d="M 366.0197300131561 328.70805299354686 L 380.1033323185719 342.2778402265003 L 380.0943881770288 317.7873063103799 Z" fill="#2a486c" fill-opacity="1.0" stroke="#3a73a6" stroke-width="0.3"/><path d="M 394.1375258135251 343.3043485043573 L 398.6541320477791 354.13189855371246 L 412.8936873636059 364.02895463035634 Z" fill="#2e2658" fill-opacity="1.0" stroke="#3a73a6" stroke-width="0.3"/><path d="M 273.7597603101476 364.53614579339757 L 284.06108899293747 353.52547411295717 L 252.18010752716043 375.84554923863675 Z" fill="#3f1e65" fill-opacity="1.0" stroke="#3a73a6" stroke-width="0.3"/><path d="M 234.78608369185807 374.68272952364725 L 244.72678313233692 381.85868216748014 L 229.7365966257822 383.99889171180195 Z" fill="#420353" fill-opacity="1.0" stroke="#3a73a6" stroke-width="0.3"/><path d="M 380.1033323185719 342.2778402265003 L 394.1375258135251 343.3043485043573 L 380.0943881770288 317.7873063103799 Z" fill="#2a4368" fill-opacity="1.0" stroke="#3a73a6" stroke-width="0.3"/><path d="M 326.7587965028191 316.36544214756253 L 333.03351103172895 331.44328539044494 L 345.76066721789084 290.6856499770272 Z" fill="#256979" fill-opacity="1.0" stroke="#3a73a6" stroke-width="0.3"/><path d="M 442.07208263477196 384.48046211722755 L 426.95483898647734 372.7944838084043 L 446.4451155024975 380.35665947605634 Z" fill="#3d0751" fill-opacity="1.0" stroke="#3a73a6" stroke-width="0.3"/><path d="M 326.7587965028191 316.36544214756253 L 305.3593833120631 324.85889360309324 L 312.1459586699523 329.5041273848674 Z" fill="#2d6380" fill-opacity="1.0" stroke="#3a73a6" stroke-width="0.3"/><path d="M 273.7597603101476 364.53614579339757 L 305.3593833120631 324.85889360309324 L 284.06108899293747 353.52547411295717 Z" fill="#3c4380" fill-opacity="1.0" stroke="#3a73a6" stroke-width="0.3"/><path d="M 460.91200548329084 380.77710609630395 L 442.07208263477196 384.48046211722755 L 446.4451155024975 380.35665947605634 Z" fill="#400451" fill-opacity="1.0" stroke="#3a73a6" stroke-width="0.3"/><path d="M 412.8936873636059 364.02895463035634 L 426.95483898647734 372.7944838084043 L 427.5535238649287 379.46972140756725 Z" fill="#361351" fill-opacity="1.0" stroke="#3a73a6" stroke-width="0.3"/><path d="M 347.3949003601491 331.6721954928972 L 360.7889518834916 302.8670431584113 L 345.76066721789084 290.6856499770272 Z" fill="#1f666e" fill-opacity="1.0" stroke="#3a73a6" stroke-width="0.3"/><path d="M 244.72678313233692 381.85868216748014 L 252.18010752716043 375.84554923863675 L 262.4706179278792 378.4320499054479 Z" fill="#420b5a" fill-opacity="1.0" stroke="#3a73a6" stroke-width="0.3"/><path d="M 360.7889518834916 302.8670431584113 L 366.0197300131561 328.70805299354686 L 380.0943881770288 317.7873063103799 Z" fill="#205a69" fill-opacity="1.0" stroke="#3a73a6" stroke-width="0.3"/><path d="M 408.38720530024597 358.71457245617336 L 394.1375258135251 343.3043485043573 L 412.8936873636059 364.02895463035634 Z" fill="#2f2b5c" fill-opacity="1.0" stroke="#3a73a6" stroke-width="0.3"/><path d="M 252.18010752716043 375.84554923863675 L 284.06108899293747 353.52547411295717 L 262.4706179278792 378.4320499054479 Z" fill="#411f68" fill-opacity="1.0" stroke="#3a73a6" stroke-width="0.3"/><path d="M 426.95483898647734 372.7944838084043 L 442.07208263477196 384.48046211722755 L 427.5535238649287 379.46972140756725 Z" fill="#3a0b50" fill-opacity="1.0" stroke="#3a73a6" stroke-width="0.3"/><path d="M 408.38720530024597 358.71457245617336 L 412.8936873636059 364.02895463035634 L 427.5535238649287 379.46972140756725 Z" fill="#311e53" fill-opacity="1.0" stroke="#3a73a6" stroke-width="0.3"/><path d="M 229.7365966257822 383.99889171180195 L 244.72678313233692 381.85868216748014 L 239.8532134617801 392.03944188887687 Z" fill="#420453" fill-opacity="1.0" stroke="#3a73a6" stroke-width="0.3"/><path d="M 255.1000805610752 387.28004111932256 L 244.72678313233692 381.85868216748014 L 262.4706179278792 378.4320499054479 Z" fill="#430e5d" fill-opacity="1.0" stroke="#3a73a6" stroke-width="0.3"/><path d="M 284.06108899293747 353.52547411295717 L 277.11136658722006 363.96970525186447 L 262.4706179278792 378.4320499054479 Z" fill="#3f2f72" fill-opacity="1.0" stroke="#3a73a6" stroke-width="0.3"/><path d="M 380.0943881770288 317.7873063103799 L 394.1375258135251 343.3043485043573 L 394.363661975528 331.85581976496576 Z" fill="#264f68" fill-opacity="1.0" stroke="#3a73a6" stroke-width="0.3"/><path d="M 394.1375258135251 343.3043485043573 L 408.38720530024597 358.71457245617336 L 394.363661975528 331.85581976496576 Z" fill="#2c4068" fill-opacity="1.0" stroke="#3a73a6" stroke-width="0.3"/><path d="M 244.72678313233692 381.85868216748014 L 255.1000805610752 387.28004111932256 L 239.8532134617801 392.03944188887687 Z" fill="#420858" fill-opacity="1.0" stroke="#3a73a6" stroke-width="0.3"/><path d="M 442.07208263477196 384.48046211722755 L 422.9093633779857 380.9905205602272 L 427.5535238649287 379.46972140756725 Z" fill="#3a1154" fill-opacity="1.0" stroke="#3a73a6" stroke-width="0.3"/><path d="M 326.7587965028191 316.36544214756253 L 339.4864141259579 262.8253523084726 L 305.3593833120631 324.85889360309324 Z" fill="#20857c" fill-opacity="1.0" stroke="#3a73a6" stroke-width="0.3"/><path d="M 422.9093633779857 380.9905205602272 L 408.38720530024597 358.71457245617336 L 427.5535238649287 379.46972140756725 Z" fill="#321c55" fill-opacity="1.0" stroke="#3a73a6" stroke-width="0.3"/><path d="M 339.4864141259579 262.8253523084726 L 326.7587965028191 316.36544214756253 L 345.76066721789084 290.6856499770272 Z" fill="#2d8868" fill-opacity="1.0" stroke="#3a73a6" stroke-width="0.3"/><path d="M 375.19172894165825 290.342940290462 L 360.7889518834916 302.8670431584113 L 380.0943881770288 317.7873063103799 Z" fill="#1b6f68" fill-opacity="1.0" stroke="#3a73a6" stroke-width="0.3"/><path d="M 262.4706179278792 378.4320499054479 L 277.11136658722006 363.96970525186447 L 273.28441442611233 378.1671204468435 Z" fill="#3f276d" fill-opacity="1.0" stroke="#3a73a6" stroke-width="0.3"/><path d="M 277.11136658722006 363.96970525186447 L 284.06108899293747 353.52547411295717 L 294.9292473610508 331.801802827486 Z" fill="#385086" fill-opacity="1.0" stroke="#3a73a6" stroke-width="0.3"/><path d="M 255.1000805610752 387.28004111932256 L 262.4706179278792 378.4320499054479 L 273.28441442611233 378.1671204468435 Z" fill="#411a65" fill-opacity="1.0" stroke="#3a73a6" stroke-width="0.3"/><path d="M 305.3593833120631 324.85889360309324 L 316.85019254830866 275.4295882204689 L 284.06108899293747 353.52547411295717 Z" fill="#257782" fill-opacity="1.0" stroke="#3a73a6" stroke-width="0.3"/><path d="M 375.19172894165825 290.342940290462 L 380.0943881770288 317.7873063103799 L 394.363661975528 331.85581976496576 Z" fill="#1b6869" fill-opacity="1.0" stroke="#3a73a6" stroke-width="0.3"/><path d="M 442.07208263477196 384.48046211722755 L 460.91200548329084 380.77710609630395 L 396.45561657820474 400.86835808238743 Z" fill="#3f0e59" fill-opacity="1.0" stroke="#3a73a6" stroke-width="0.3"/><path d="M 345.76066721789084 290.6856499770272 L 360.7889518834916 302.8670431584113 L 359.96373243494673 256.9471814107367 Z" fill="#348a5b" fill-opacity="1.0" stroke="#3a73a6" stroke-width="0.3"/><path d="M 255.1000805610752 387.28004111932256 L 266.07996924719504 392.4031016536875 L 239.8532134617801 392.03944188887687 Z" fill="#420e5c" fill-opacity="1.0" stroke="#3a73a6" stroke-width="0.3"/><path d="M 408.38720530024597 358.71457245617336 L 422.9093633779857 380.9905205602272 L 389.41183009809504 319.0043658215948 Z" fill="#2c3e68" fill-opacity="1.0" stroke="#3a73a6" stroke-width="0.3"/><path d="M 408.38720530024597 358.71457245617336 L 389.41183009809504 319.0043658215948 L 394.363661975528 331.85581976496576 Z" fill="#255068" fill-opacity="1.0" stroke="#3a73a6" stroke-width="0.3"/><path d="M 277.11136658722006 363.96970525186447 L 288.2149689749462 354.6791102433522 L 273.28441442611233 378.1671204468435 Z" fill="#3b3d7b" fill-opacity="1.0" stroke="#3a73a6" stroke-width="0.3"/><path d="M 266.07996924719504 392.4031016536875 L 255.1000805610752 387.28004111932256 L 273.28441442611233 378.1671204468435 Z" fill="#401b65" fill-opacity="1.0" stroke="#3a73a6" stroke-width="0.3"/><path d="M 360.7889518834916 302.8670431584113 L 375.19172894165825 290.342940290462 L 359.96373243494673 256.9471814107367 Z" fill="#358756" fill-opacity="1.0" stroke="#3a73a6" stroke-width="0.3"/><path d="M 284.06108899293747 353.52547411295717 L 316.85019254830866 275.4295882204689 L 294.9292473610508 331.801802827486 Z" fill="#257e86" fill-opacity="1.0" stroke="#3a73a6" stroke-width="0.3"/><path d="M 305.3593833120631 324.85889360309324 L 339.4864141259579 262.8253523084726 L 316.85019254830866 275.4295882204689 Z" fill="#3b9e6b" fill-opacity="1.0" stroke="#3a73a6" stroke-width="0.3"/><path d="M 288.2149689749462 354.6791102433522 L 277.11136658722006 363.96970525186447 L 294.9292473610508 331.801802827486 Z" fill="#355785" fill-opacity="1.0" stroke="#3a73a6" stroke-width="0.3"/><path d="M 422.9093633779857 380.9905205602272 L 442.07208263477196 384.48046211722755 L 396.45561657820474 400.86835808238743 Z" fill="#341351" fill-opacity="1.0" stroke="#3a73a6" stroke-width="0.3"/><path d="M 389.41183009809504 319.0043658215948 L 375.19172894165825 290.342940290462 L 394.363661975528 331.85581976496576 Z" fill="#1a6c69" fill-opacity="1.0" stroke="#3a73a6" stroke-width="0.3"/><path d="M 339.4864141259579 262.8253523084726 L 345.76066721789084 290.6856499770272 L 359.96373243494673 256.9471814107367 Z" fill="#489c4f" fill-opacity="1.0" stroke="#3a73a6" stroke-width="0.3"/><path d="M 389.41183009809504 319.0043658215948 L 422.9093633779857 380.9905205602272 L 403.26366586021913 365.726769125334 Z" fill="#2b4168" fill-opacity="1.0" stroke="#3a73a6" stroke-width="0.3"/><path d="M 266.07996924719504 392.4031016536875 L 277.9361016246899 401.575152258884 L 239.8532134617801 392.03944188887687 Z" fill="#41125f" fill-opacity="1.0" stroke="#3a73a6" stroke-width="0.3"/><path d="M 422.9093633779857 380.9905205602272 L 397.667103706395 372.01014954961147 L 403.26366586021913 365.726769125334 Z" fill="#2e2d5d" fill-opacity="1.0" stroke="#3a73a6" stroke-width="0.3"/><path d="M 266.07996924719504 392.4031016536875 L 273.28441442611233 378.1671204468435 L 285.07035591969463 382.94433356327625 Z" fill="#3f286e" fill-opacity="1.0" stroke="#3a73a6" stroke-width="0.3"/><path d="M 273.28441442611233 378.1671204468435 L 288.2149689749462 354.6791102433522 L 285.07035591969463 382.94433356327625 Z" fill="#3b3c79" fill-opacity="1.0" stroke="#3a73a6" stroke-width="0.3"/><path d="M 316.85019254830866 275.4295882204689 L 309.9753764596594 290.6608482174843 L 294.9292473610508 331.801802827486 Z" fill="#379f74" fill-opacity="1.0" stroke="#3a73a6" stroke-width="0.3"/><path d="M 288.2149689749462 354.6791102433522 L 294.9292473610508 331.801802827486 L 307.29242324286935 324.3727111934091 Z" fill="#2a7286" fill-opacity="1.0" stroke="#3a73a6" stroke-width="0.3"/><path d="M 397.667103706395 372.01014954961147 L 422.9093633779857 380.9905205602272 L 396.45561657820474 400.86835808238743 Z" fill="#2f2356" fill-opacity="1.0" stroke="#3a73a6" stroke-width="0.3"/><path d="M 277.9361016246899 401.575152258884 L 266.07996924719504 392.4031016536875 L 285.07035591969463 382.94433356327625 Z" fill="#3e2268" fill-opacity="1.0" stroke="#3a73a6" stroke-width="0.3"/><path d="M 375.19172894165825 290.342940290462 L 389.41183009809504 319.0043658215948 L 353.81405336482504 235.68469594314777 Z" fill="#3e8e50" fill-opacity="1.0" stroke="#3a73a6" stroke-width="0.3"/><path d="M 288.2149689749462 354.6791102433522 L 300.6887314690845 359.8662321458473 L 285.07035591969463 382.94433356327625 Z" fill="#395085" fill-opacity="1.0" stroke="#3a73a6" stroke-width="0.3"/><path d="M 294.9292473610508 331.801802827486 L 309.9753764596594 290.6608482174843 L 307.29242324286935 324.3727111934091 Z" fill="#258e80" fill-opacity="1.0" stroke="#3a73a6" stroke-width="0.3"/><path d="M 375.19172894165825 290.342940290462 L 353.81405336482504 235.68469594314777 L 359.96373243494673 256.9471814107367 Z" fill="#689d3d" fill-opacity="1.0" stroke="#3a73a6" stroke-width="0.3"/><path d="M 339.4864141259579 262.8253523084726 L 353.81405336482504 235.68469594314777 L 316.85019254830866 275.4295882204689 Z" fill="#8ec948" fill-opacity="1.0" stroke="#3a73a6" stroke-width="0.3"/><path d="M 353.81405336482504 235.68469594314777 L 339.4864141259579 262.8253523084726 L 359.96373243494673 256.9471814107367 Z" fill="#8db038" fill-opacity="1.0" stroke="#3a73a6" stroke-width="0.3"/><path d="M 389.41183009809504 319.0043658215948 L 403.26366586021913 365.726769125334 L 368.32215279693946 279.08452976865186 Z" fill="#196c69" fill-opacity="1.0" stroke="#3a73a6" stroke-width="0.3"/><path d="M 300.6887314690845 359.8662321458473 L 288.2149689749462 354.6791102433522 L 307.29242324286935 324.3727111934091 Z" fill="#2c6982" fill-opacity="1.0" stroke="#3a73a6" stroke-width="0.3"/><path d="M 403.26366586021913 365.726769125334 L 397.667103706395 372.01014954961147 L 382.15822086492653 351.327009516275 Z" fill="#2a4368" fill-opacity="1.0" stroke="#3a73a6" stroke-width="0.3"/><path d="M 300.6887314690845 359.8662321458473 L 277.9361016246899 401.575152258884 L 285.07035591969463 382.94433356327625 Z" fill="#3b3a79" fill-opacity="1.0" stroke="#3a73a6" stroke-width="0.3"/><path d="M 309.9753764596594 290.6608482174843 L 316.85019254830866 275.4295882204689 L 330.2166278133997 251.2666448818516 Z" fill="#6ac559" fill-opacity="1.0" stroke="#3a73a6" stroke-width="0.3"/><path d="M 368.32215279693946 279.08452976865186 L 403.26366586021913 365.726769125334 L 382.15822086492653 351.327009516275 Z" fill="#1c6469" fill-opacity="1.0" stroke="#3a73a6" stroke-width="0.3"/><path d="M 382.15822086492653 351.327009516275 L 397.667103706395 372.01014954961147 L 396.45561657820474 400.86835808238743 Z" fill="#2d3a66" fill-opacity="1.0" stroke="#3a73a6" stroke-width="0.3"/><path d="M 353.81405336482504 235.68469594314777 L 389.41183009809504 319.0043658215948 L 368.32215279693946 279.08452976865186 Z" fill="#46974a" fill-opacity="1.0" stroke="#3a73a6" stroke-width="0.3"/><path d="M 300.6887314690845 359.8662321458473 L 314.34220313651434 385.1656431435438 L 277.9361016246899 401.575152258884 Z" fill="#383c75" fill-opacity="1.0" stroke="#3a73a6" stroke-width="0.3"/><path d="M 309.9753764596594 290.6608482174843 L 323.3624040711367 288.0819749284242 L 307.29242324286935 324.3727111934091 Z" fill="#3da570" fill-opacity="1.0" stroke="#3a73a6" stroke-width="0.3"/><path d="M 300.6887314690845 359.8662321458473 L 307.29242324286935 324.3727111934091 L 321.1438792819382 351.1723601115374 Z" fill="#276d7f" fill-opacity="1.0" stroke="#3a73a6" stroke-width="0.3"/><path d="M 316.85019254830866 275.4295882204689 L 353.81405336482504 235.68469594314777 L 330.2166278133997 251.2666448818516 Z" fill="#acd03e" fill-opacity="1.0" stroke="#3a73a6" stroke-width="0.3"/><path d="M 375.6780354390666 370.41242244252953 L 382.15822086492653 351.327009516275 L 396.45561657820474 400.86835808238743 Z" fill="#2e416d" fill-opacity="1.0" stroke="#3a73a6" stroke-width="0.3"/><path d="M 314.34220313651434 385.1656431435438 L 300.6887314690845 359.8662321458473 L 321.1438792819382 351.1723601115374 Z" fill="#30577f" fill-opacity="1.0" stroke="#3a73a6" stroke-width="0.3"/><path d="M 323.3624040711367 288.0819749284242 L 309.9753764596594 290.6608482174843 L 330.2166278133997 251.2666448818516 Z" fill="#65bf57" fill-opacity="1.0" stroke="#3a73a6" stroke-width="0.3"/><path d="M 307.29242324286935 324.3727111934091 L 323.3624040711367 288.0819749284242 L 321.1438792819382 351.1723601115374 Z" fill="#278b78" fill-opacity="1.0" stroke="#3a73a6" stroke-width="0.3"/><path d="M 375.6780354390666 370.41242244252953 L 396.45561657820474 400.86835808238743 L 373.7897600150727 409.3446007576146 Z" fill="#312a5e" fill-opacity="1.0" stroke="#3a73a6" stroke-width="0.3"/><path d="M 375.6780354390666 370.41242244252953 L 361.6188214887256 298.9040541846227 L 382.15822086492653 351.327009516275 Z" fill="#1d6269" fill-opacity="1.0" stroke="#3a73a6" stroke-width="0.3"/><path d="M 361.6188214887256 298.9040541846227 L 368.32215279693946 279.08452976865186 L 382.15822086492653 351.327009516275 Z" fill="#2c7e5c" fill-opacity="1.0" stroke="#3a73a6" stroke-width="0.3"/><path d="M 314.34220313651434 385.1656431435438 L 321.3536151905143 429.41558593486593 L 277.9361016246899 401.575152258884 Z" fill="#3c2165" fill-opacity="1.0" stroke="#3a73a6" stroke-width="0.3"/><path d="M 337.8359951820786 334.66738590413206 L 314.34220313651434 385.1656431435438 L 321.1438792819382 351.1723601115374 Z" fill="#2a617b" fill-opacity="1.0" stroke="#3a73a6" stroke-width="0.3"/><path d="M 359.2052974486829 361.826437058395 L 375.6780354390666 370.41242244252953 L 373.7897600150727 409.3446007576146 Z" fill="#2f3e6c" fill-opacity="1.0" stroke="#3a73a6" stroke-width="0.3"/><path d="M 361.6188214887256 298.9040541846227 L 375.6780354390666 370.41242244252953 L 359.2052974486829 361.826437058395 Z" fill="#1f636c" fill-opacity="1.0" stroke="#3a73a6" stroke-width="0.3"/><path d="M 347.1178239752042 237.57870616915366 L 353.81405336482504 235.68469594314777 L 368.32215279693946 279.08452976865186 Z" fill="#98a62a" fill-opacity="1.0" stroke="#3a73a6" stroke-width="0.3"/><path d="M 323.3624040711367 288.0819749284242 L 337.8359951820786 334.66738590413206 L 321.1438792819382 351.1723601115374 Z" fill="#248474" fill-opacity="1.0" stroke="#3a73a6" stroke-width="0.3"/><path d="M 337.8359951820786 334.66738590413206 L 352.3520906406037 389.2525805025486 L 314.34220313651434 385.1656431435438 Z" fill="#2d5075" fill-opacity="1.0" stroke="#3a73a6" stroke-width="0.3"/><path d="M 396.45561657820474 400.86835808238743 L 367.22190259238295 423.50400369413296 L 373.7897600150727 409.3446007576146 Z" fill="#361855" fill-opacity="1.0" stroke="#3a73a6" stroke-width="0.3"/><path d="M 352.3520906406037 389.2525805025486 L 359.2052974486829 361.826437058395 L 373.7897600150727 409.3446007576146 Z" fill="#323b6d" fill-opacity="1.0" stroke="#3a73a6" stroke-width="0.3"/><path d="M 314.34220313651434 385.1656431435438 L 352.3520906406037 389.2525805025486 L 328.5355439079165 414.54384991040575 Z" fill="#38316d" fill-opacity="1.0" stroke="#3a73a6" stroke-width="0.3"/><path d="M 353.81405336482504 235.68469594314777 L 347.1178239752042 237.57870616915366 L 330.2166278133997 251.2666448818516 Z" fill="#e5de2b" fill-opacity="1.0" stroke="#3a73a6" stroke-width="0.3"/><path d="M 352.3520906406037 389.2525805025486 L 337.8359951820786 334.66738590413206 L 359.2052974486829 361.826437058395 Z" fill="#285670" fill-opacity="1.0" stroke="#3a73a6" stroke-width="0.3"/><path d="M 361.6188214887256 298.9040541846227 L 347.1178239752042 237.57870616915366 L 368.32215279693946 279.08452976865186 Z" fill="#669e3e" fill-opacity="1.0" stroke="#3a73a6" stroke-width="0.3"/><path d="M 337.8359951820786 334.66738590413206 L 344.784925877834 293.0974148948726 L 359.2052974486829 361.826437058395 Z" fill="#1e786f" fill-opacity="1.0" stroke="#3a73a6" stroke-width="0.3"/><path d="M 344.784925877834 293.0974148948726 L 361.6188214887256 298.9040541846227 L 359.2052974486829 361.826437058395 Z" fill="#297f63" fill-opacity="1.0" stroke="#3a73a6" stroke-width="0.3"/><path d="M 323.3624040711367 288.0819749284242 L 330.2166278133997 251.2666448818516 L 344.784925877834 293.0974148948726 Z" fill="#67b44e" fill-opacity="1.0" stroke="#3a73a6" stroke-width="0.3"/><path d="M 337.8359951820786 334.66738590413206 L 323.3624040711367 288.0819749284242 L 344.784925877834 293.0974148948726 Z" fill="#3b9964" fill-opacity="1.0" stroke="#3a73a6" stroke-width="0.3"/><path d="M 367.22190259238295 423.50400369413296 L 352.3520906406037 389.2525805025486 L 373.7897600150727 409.3446007576146 Z" fill="#35215c" fill-opacity="1.0" stroke="#3a73a6" stroke-width="0.3"/><path d="M 321.3536151905143 429.41558593486593 L 314.34220313651434 385.1656431435438 L 328.5355439079165 414.54384991040575 Z" fill="#381f5e" fill-opacity="1.0" stroke="#3a73a6" stroke-width="0.3"/><path d="M 330.2166278133997 251.2666448818516 L 347.1178239752042 237.57870616915366 L 344.784925877834 293.0974148948726 Z" fill="#99bc3a" fill-opacity="1.0" stroke="#3a73a6" stroke-width="0.3"/><path d="M 347.1178239752042 237.57870616915366 L 361.6188214887256 298.9040541846227 L 344.784925877834 293.0974148948726 Z" fill="#62a345" fill-opacity="1.0" stroke="#3a73a6" stroke-width="0.3"/><path d="M 352.3520906406037 389.2525805025486 L 367.22190259238295 423.50400369413296 L 328.5355439079165 414.54384991040575 Z" fill="#382160" fill-opacity="1.0" stroke="#3a73a6" stroke-width="0.3"/><path d="M 328.5355439079165 414.54384991040575 L 367.22190259238295 423.50400369413296 L 343.2262319476909 436.102619368736 Z" fill="#3d1158" fill-opacity="1.0" stroke="#3a73a6" stroke-width="0.3"/><path d="M 321.3536151905143 429.41558593486593 L 328.5355439079165 414.54384991040575 L 343.2262319476909 436.102619368736 Z" fill="#3e0f58" fill-opacity="1.0" stroke="#3a73a6" stroke-width="0.3"/></svg>