<svg xmlns="http://www.w3.org/2000/svg" width="700" height="700" viewBox="0 0 700 700"><rect x="0" y="0" width="700" height="700" fill="#fafafa"/><text x="20" y="30" text-anchor="start" font-family="sans-serif" font-size="16" fill="#333">3D wireframe: cube (8 corners, 12 edges)</text><line x1="145.11662510205133" y1="483.367717280199" x2="350.0" y2="638.525089778008" stroke="#bbbbbb" stroke-width="1.0"/><line x1="350.0" y1="638.525089778008" x2="554.8833748979487" y2="483.367717280199" stroke="#bbbbbb" stroke-width="1.0"/><line x1="554.8833748979487" y1="483.367717280199" x2="350.0" y2="392.32496151702185" stroke="#bbbbbb" stroke-width="1.0"/><line x1="350.0" y1="392.32496151702185" x2="145.11662510205133" y2="483.367717280199" stroke="#bbbbbb" stroke-width="1.0"/><line x1="107.17525938020894" y1="191.9345572975419" x2="350.0" y2="258.5478510078635" stroke="#bbbbbb" stroke-width="1.0"/><line x1="350.0" y1="258.5478510078635" x2="592.824740619791" y2="191.9345572975419" stroke="#bbbbbb" stroke-width="1.0"/><line x1="592.824740619791" y1="191.9345572975419" x2="350.0" y2="156.74262854491917" stroke="#bbbbbb" stroke-width="1.0"/><line x1="350.0" y1="156.74262854491917" x2="107.17525938020894" y2="191.9345572975419" stroke="#bbbbbb" stroke-width="1.0"/><line x1="145.11662510205133" y1="483.367717280199" x2="107.17525938020894" y2="191.9345572975419" stroke="#bbbbbb" stroke-width="1.0"/><line x1="350.0" y1="638.525089778008" x2="350.0" y2="258.5478510078635" stroke="#bbbbbb" stroke-width="1.0"/><line x1="554.8833748979487" y1="483.367717280199" x2="592.824740619791" y2="191.9345572975419" stroke="#bbbbbb" stroke-width="1.0"/><line x1="350.0" y1="392.32496151702185" x2="350.0" y2="156.74262854491917" stroke="#bbbbbb" stroke-width="1.0"/><line x1="145.11662510205133" y1="483.367717280199" x2="155.3396718495366" y2="478.82496534314976" stroke="#888888" stroke-width="1.0"/><text x="134.6783563177769" y="498.0061061001335" fill="#444444" font-size="9.0" font-family="sans-serif" text-anchor="middle">-1</text><line x1="185.63673545791306" y1="514.0534371892365" x2="196.1173461923506" y2="508.85968889388863" stroke="#888888" stroke-width="1.0"/><text x="174.91994194636135" y="529.3642276996907" fill="#444444" font-size="9.0" font-family="sans-serif" text-anchor="middle">-0.5</text><line x1="232.22273059758638" y1="549.3328277433393" x2="242.92722088173474" y2="543.3374188870446" stroke="#888888" stroke-width="1.0"/><text x="221.25873751867078" y="565.4735798446354" fill="#444444" font-size="9.0" font-family="sans-serif" text-anchor="middle">0</text><line x1="286.34691265306446" y1="590.320857545679" x2="297.2147113361962" y2="583.322773479746" stroke="#888888" stroke-width="1.0"/><text x="275.1940569552932" y="607.5024979149807" fill="#444444" font-size="9.0" font-family="sans-serif" text-anchor="middle">0.5</text><line x1="350.0" y1="638.525089778008" x2="360.9271133278906" y2="630.2500299114582" stroke="#888888" stroke-width="1.0"/><text x="338.76068343416966" y="657.0365799264592" fill="#444444" font-size="9.0" font-family="sans-serif" text-anchor="middle">1</text><line x1="350.0" y1="638.525089778008" x2="339.0728866721094" y2="630.2500299114582" stroke="#888888" stroke-width="1.0"/><text x="361.2393165658303" y="651.0365799264592" fill="#444444" font-size="9.0" font-family="sans-serif" text-anchor="middle">-1</text><line x1="413.6530873469355" y1="590.320857545679" x2="402.7852886638038" y2="583.322773479746" stroke="#888888" stroke-width="1.0"/><text x="424.8059430447068" y="601.5024979149807" fill="#444444" font-size="9.0" font-family="sans-serif" text-anchor="middle">-0.5</text><line x1="467.77726940241365" y1="549.3328277433393" x2="457.07277911826526" y2="543.3374188870446" stroke="#888888" stroke-width="1.0"/><text x="478.7412624813292" y="559.4735798446354" fill="#444444" font-size="9.0" font-family="sans-serif" text-anchor="middle">0</text><line x1="514.3632645420869" y1="514.0534371892365" x2="503.88265380764943" y2="508.85968889388863" stroke="#888888" stroke-width="1.0"/><text x="525.0800580536386" y="523.3642276996907" fill="#444444" font-size="9.0" font-family="sans-serif" text-anchor="middle">0.5</text><line x1="554.8833748979487" y1="483.367717280199" x2="544.6603281504633" y2="478.82496534314976" stroke="#888888" stroke-width="1.0"/><text x="565.3216436822231" y="492.0061061001335" fill="#444444" font-size="9.0" font-family="sans-serif" text-anchor="middle">1</text><line x1="145.11662510205133" y1="483.367717280199" x2="161.50729509388722" y2="483.367717280199" stroke="#888888" stroke-width="1.0"/><text x="128.7259551102154" y="487.367717280199" fill="#444444" font-size="9.0" font-family="sans-serif" text-anchor="middle">-1</text><line x1="136.78803262652494" y1="419.3945846010792" x2="153.84499001640293" y2="419.3945846010792" stroke="#888888" stroke-width="1.0"/><text x="119.7310752366469" y="423.3945846010792" fill="#444444" font-size="9.0" font-family="sans-serif" text-anchor="middle">-0.5</text><line x1="127.75362722934382" y1="350.0" x2="145.53333705099627" y2="350.0" stroke="#888888" stroke-width="1.0"/><text x="109.97391740769129" y="354.0" fill="#444444" font-size="9.0" font-family="sans-serif" text-anchor="middle">0</text><line x1="117.91971692975727" y1="274.4643017174094" x2="136.48613957537668" y2="274.4643017174094" stroke="#888888" stroke-width="1.0"/><text x="99.35329428413783" y="278.4643017174094" fill="#444444" font-size="9.0" font-family="sans-serif" text-anchor="middle">0.5</text><line x1="107.17525938020894" y1="191.9345572975419" x2="126.60123862979222" y2="191.9345572975419" stroke="#888888" stroke-width="1.0"/><text x="87.74928013062566" y="195.9345572975419" fill="#444444" font-size="9.0" font-family="sans-serif" text-anchor="middle">1</text><text x="198.51355933011297" y="582.2127798560196" fill="#333333" font-size="11.0" font-family="sans-serif" text-anchor="middle" font-weight="bold">x</text><text x="501.486440669887" y="568.2127798560196" fill="#333333" font-size="11.0" font-family="sans-serif" text-anchor="middle" font-weight="bold">y</text><text x="92.1942075860388" y="350.0" fill="#333333" font-size="11.0" font-family="sans-serif" text-anchor="middle" font-weight="bold">z</text><line x1="350.0" y1="392.32496151702185" x2="350.0" y2="156.74262854491917" stroke="#2ca02c" stroke-width="1.0"/><line x1="554.8833748979487" y1="483.367717280199" x2="350.0" y2="392.32496151702185" stroke="#2ca02c" stroke-width="1.0"/><line x1="350.0" y1="392.32496151702185" x2="145.11662510205133" y2="483.367717280199" stroke="#2ca02c" stroke-width="1.0"/><line x1="592.824740619791" y1="191.9345572975419" x2="350.0" y2="156.74262854491917" stroke="#2ca02c" stroke-width="1.0"/><line x1="350.0" y1="156.74262854491917" x2="107.17525938020894" y2="191.9345572975419" stroke="#2ca02c" stroke-width="1.0"/><line x1="145.11662510205133" y1="483.367717280199" x2="107.17525938020894" y2="191.9345572975419" stroke="#2ca02c" stroke-width="1.0"/><line x1="554.8833748979487" y1="483.367717280199" x2="592.824740619791" y2="191.9345572975419" stroke="#2ca02c" stroke-width="1.0"/><line x1="145.11662510205133" y1="483.367717280199" x2="350.0" y2="638.525089778008" stroke="#2ca02c" stroke-width="1.0"/><line x1="350.0" y1="638.525089778008" x2="554.8833748979487" y2="483.367717280199" stroke="#2ca02c" stroke-width="1.0"/><line x1="107.17525938020894" y1="191.9345572975419" x2="350.0" y2="258.5478510078635" stroke="#2ca02c" stroke-width="1.0"/><line x1="350.0" y1="258.5478510078635" x2="592.824740619791" y2="191.9345572975419" stroke="#2ca02c" stroke-width="1.0"/><line x1="350.0" y1="638.525089778008" x2="350.0" y2="258.5478510078635" stroke="#2ca02c" stroke-width="1.0"/></svg>