<svg xmlns="http://www.w3.org/2000/svg" width="624" height="384" viewBox="0 0 624 384"><rect x="0.0" y="0.0" width="624.0" height="384.0" fill="#ffffff" fill-opacity="1.0" stroke="none"/><rect x="42.093333333333334" y="7.333333333333333" width="574.5733333333333" height="351.0" fill="#ebebeb" fill-opacity="1.0" stroke="none"/><line x1="140.7574410774411" y1="7.333333333333333" x2="140.7574410774411" y2="358.3333333333333" stroke="#ffffff" stroke-width="0.6666666666666666"/><line x1="285.85171717171715" y1="7.333333333333333" x2="285.85171717171715" y2="358.3333333333333" stroke="#ffffff" stroke-width="0.6666666666666666"/><line x1="430.94599326599337" y1="7.333333333333333" x2="430.94599326599337" y2="358.3333333333333" stroke="#ffffff" stroke-width="0.6666666666666666"/><line x1="576.0402693602693" y1="7.333333333333333" x2="576.0402693602693" y2="358.3333333333333" stroke="#ffffff" stroke-width="0.6666666666666666"/><line x1="68.21030303030304" y1="7.333333333333333" x2="68.21030303030304" y2="358.3333333333333" stroke="#ffffff" stroke-width="1.3333333333333333"/><line x1="213.30457912457916" y1="7.333333333333333" x2="213.30457912457916" y2="358.3333333333333" stroke="#ffffff" stroke-width="1.3333333333333333"/><line x1="358.39885521885526" y1="7.333333333333333" x2="358.39885521885526" y2="358.3333333333333" stroke="#ffffff" stroke-width="1.3333333333333333"/><line x1="503.49313131313136" y1="7.333333333333333" x2="503.49313131313136" y2="358.3333333333333" stroke="#ffffff" stroke-width="1.3333333333333333"/><line x1="42.093333333333334" y1="338.86275124274744" x2="616.6666666666666" y2="338.86275124274744" stroke="#ffffff" stroke-width="0.6666666666666666"/><line x1="42.093333333333334" y1="249.1004041814796" x2="616.6666666666666" y2="249.1004041814796" stroke="#ffffff" stroke-width="0.6666666666666666"/><line x1="42.093333333333334" y1="159.33805712021177" x2="616.6666666666666" y2="159.33805712021177" stroke="#ffffff" stroke-width="0.6666666666666666"/><line x1="42.093333333333334" y1="69.57571005894388" x2="616.6666666666666" y2="69.57571005894388" stroke="#ffffff" stroke-width="0.6666666666666666"/><line x1="42.093333333333334" y1="293.9815777121135" x2="616.6666666666666" y2="293.9815777121135" stroke="#ffffff" stroke-width="1.3333333333333333"/><line x1="42.093333333333334" y1="204.2192306508457" x2="616.6666666666666" y2="204.2192306508457" stroke="#ffffff" stroke-width="1.3333333333333333"/><line x1="42.093333333333334" y1="114.45688358957787" x2="616.6666666666666" y2="114.45688358957787" stroke="#ffffff" stroke-width="1.3333333333333333"/><line x1="42.093333333333334" y1="24.694536528309982" x2="616.6666666666666" y2="24.694536528309982" stroke="#ffffff" stroke-width="1.3333333333333333"/><line x1="68.21030303030304" y1="358.3333333333333" x2="68.21030303030304" y2="362.0" stroke="#333333" stroke-width="1.3333333333333333"/><text x="68.21030303030304" y="374.32" fill="#4d4d4d" font-size="11.733333333333334" font-family="sans-serif" text-anchor="middle">5</text><line x1="213.30457912457916" y1="358.3333333333333" x2="213.30457912457916" y2="362.0" stroke="#333333" stroke-width="1.3333333333333333"/><text x="213.30457912457916" y="374.32" fill="#4d4d4d" font-size="11.733333333333334" font-family="sans-serif" text-anchor="middle">10</text><line x1="358.39885521885526" y1="358.3333333333333" x2="358.39885521885526" y2="362.0" stroke="#333333" stroke-width="1.3333333333333333"/><text x="358.39885521885526" y="374.32" fill="#4d4d4d" font-size="11.733333333333334" font-family="sans-serif" text-anchor="middle">15</text><line x1="503.49313131313136" y1="358.3333333333333" x2="503.49313131313136" y2="362.0" stroke="#333333" stroke-width="1.3333333333333333"/><text x="503.49313131313136" y="374.32" fill="#4d4d4d" font-size="11.733333333333334" font-family="sans-serif" text-anchor="middle">20</text><line x1="42.093333333333334" y1="293.9815777121135" x2="38.42666666666666" y2="293.9815777121135" stroke="#333333" stroke-width="1.3333333333333333"/><text x="35.49333333333333" y="298.0882443787802" fill="#4d4d4d" font-size="11.733333333333334" font-family="sans-serif" text-anchor="end">0.01</text><line x1="42.093333333333334" y1="204.2192306508457" x2="38.42666666666666" y2="204.2192306508457" stroke="#333333" stroke-width="1.3333333333333333"/><text x="35.49333333333333" y="208.32589731751239" fill="#4d4d4d" font-size="11.733333333333334" font-family="sans-serif" text-anchor="end">0.02</text><line x1="42.093333333333334" y1="114.45688358957787" x2="38.42666666666666" y2="114.45688358957787" stroke="#333333" stroke-width="1.3333333333333333"/><text x="35.49333333333333" y="118.56355025624454" fill="#4d4d4d" font-size="11.733333333333334" font-family="sans-serif" text-anchor="end">0.03</text><line x1="42.093333333333334" y1="24.694536528309982" x2="38.42666666666666" y2="24.694536528309982" stroke="#333333" stroke-width="1.3333333333333333"/><text x="35.49333333333333" y="28.801203194976644" fill="#4d4d4d" font-size="11.733333333333334" font-family="sans-serif" text-anchor="end">0.04</text><line x1="68.21030303030304" y1="342.3787878787879" x2="97.22915824915827" y2="236.7399653843835" stroke="#808080" stroke-width="1.4211023622047245"/><line x1="97.22915824915827" y1="236.7399653843835" x2="126.24801346801348" y2="270.070911755957" stroke="#808080" stroke-width="1.4211023622047245"/><line x1="126.24801346801348" y1="270.070911755957" x2="155.2668686868687" y2="238.10499444124574" stroke="#808080" stroke-width="1.4211023622047245"/><line x1="155.2668686868687" y1="238.10499444124574" x2="184.28572390572393" y2="239.2367984981028" stroke="#808080" stroke-width="1.4211023622047245"/><line x1="184.28572390572393" y1="239.2367984981028" x2="213.30457912457916" y2="227.94382513388132" stroke="#808080" stroke-width="1.4211023622047245"/><line x1="213.30457912457916" y1="227.94382513388132" x2="242.32343434343437" y2="218.0253772143763" stroke="#808080" stroke-width="1.4211023622047245"/><line x1="242.32343434343437" y1="218.0253772143763" x2="271.3422895622896" y2="192.18245587853554" stroke="#808080" stroke-width="1.4211023622047245"/><line x1="271.3422895622896" y1="192.18245587853554" x2="300.3611447811448" y2="190.7791678617563" stroke="#808080" stroke-width="1.4211023622047245"/><line x1="300.3611447811448" y1="190.7791678617563" x2="329.38000000000005" y2="149.68196754184356" stroke="#808080" stroke-width="1.4211023622047245"/><line x1="329.38000000000005" y1="149.68196754184356" x2="358.39885521885526" y2="131.98248584567935" stroke="#808080" stroke-width="1.4211023622047245"/><line x1="358.39885521885526" y1="131.98248584567935" x2="387.41771043771047" y2="55.94472674075378" stroke="#808080" stroke-width="1.4211023622047245"/><line x1="387.41771043771047" y1="55.94472674075378" x2="416.4365656565657" y2="141.20257923814523" stroke="#808080" stroke-width="1.4211023622047245"/><line x1="416.4365656565657" y1="141.20257923814523" x2="445.45542087542094" y2="125.78483162572645" stroke="#808080" stroke-width="1.4211023622047245"/><line x1="445.45542087542094" y1="125.78483162572645" x2="474.47427609427615" y2="23.28787878787879" stroke="#808080" stroke-width="1.4211023622047245"/><line x1="474.47427609427615" y1="23.28787878787879" x2="503.49313131313136" y2="42.6909781758167" stroke="#808080" stroke-width="1.4211023622047245"/><line x1="503.49313131313136" y1="42.6909781758167" x2="532.5119865319865" y2="47.94588262521938" stroke="#808080" stroke-width="1.4211023622047245"/><line x1="532.5119865319865" y1="47.94588262521938" x2="561.5308417508418" y2="118.43649503564393" stroke="#808080" stroke-width="1.4211023622047245"/><line x1="561.5308417508418" y1="118.43649503564393" x2="590.5496969696969" y2="273.76178417050835" stroke="#808080" stroke-width="1.4211023622047245"/><circle cx="68.21030303030304" cy="342.3787878787879" r="4.317991418713316" fill="#000000" fill-opacity="0.85" stroke="none"><title>(5, 0.004608294931)</title></circle><circle cx="97.22915824915827" cy="236.7399653843835" r="12.873101358491526" fill="#000000" fill-opacity="0.85" stroke="none"><title>(6, 0.016377018227)</title></circle><circle cx="126.24801346801348" cy="270.070911755957" r="11.757279452019912" fill="#000000" fill-opacity="0.85" stroke="none"><title>(7, 0.012663774594)</title></circle><circle cx="155.2668686868687" cy="238.10499444124574" r="13.333333333333332" fill="#000000" fill-opacity="0.85" stroke="none"><title>(8, 0.016224946773)</title></circle><circle cx="184.28572390572393" cy="239.2367984981028" r="10.862839463733241" fill="#000000" fill-opacity="0.85" stroke="none"><title>(9, 0.016098857818)</title></circle><circle cx="213.30457912457916" cy="227.94382513388132" r="9.578040054492444" fill="#000000" fill-opacity="0.85" stroke="none"><title>(10, 0.017356954752)</title></circle><circle cx="242.32343434343437" cy="218.0253772143763" r="9.3374075347262" fill="#000000" fill-opacity="0.85" stroke="none"><title>(11, 0.018461922285)</title></circle><circle cx="271.3422895622896" cy="192.18245587853554" r="10.103153686515666" fill="#000000" fill-opacity="0.85" stroke="none"><title>(12, 0.021340960343)</title></circle><circle cx="300.3611447811448" cy="190.7791678617563" r="10.735928090345414" fill="#000000" fill-opacity="0.85" stroke="none"><title>(13, 0.021497294047)</title></circle><circle cx="329.38000000000005" cy="149.68196754184356" r="11.359790178628268" fill="#000000" fill-opacity="0.85" stroke="none"><title>(14, 0.026075739427)</title></circle><circle cx="358.39885521885526" cy="131.98248584567935" r="12.137657079561514" fill="#000000" fill-opacity="0.85" stroke="none"><title>(15, 0.028047555258)</title></circle><circle cx="387.41771043771047" cy="55.94472674075378" r="11.821804616579453" fill="#000000" fill-opacity="0.85" stroke="none"><title>(16, 0.036518563603)</title></circle><circle cx="416.4365656565657" cy="141.20257923814523" r="12.329450110130754" fill="#000000" fill-opacity="0.85" stroke="none"><title>(17, 0.027020388111)</title></circle><circle cx="445.45542087542094" cy="125.78483162572645" r="11.38724011051271" fill="#000000" fill-opacity="0.85" stroke="none"><title>(18, 0.028738006702)</title></circle><circle cx="474.47427609427615" cy="23.28787878787879" r="11.26531963383115" fill="#000000" fill-opacity="0.85" stroke="none"><title>(19, 0.040156709109)</title></circle><circle cx="503.49313131313136" cy="42.6909781758167" r="9.589091325770596" fill="#000000" fill-opacity="0.85" stroke="none"><title>(20, 0.037995101261)</title></circle><circle cx="532.5119865319865" cy="47.94588262521938" r="7.5192951631590335" fill="#000000" fill-opacity="0.85" stroke="none"><title>(21, 0.037409677124)</title></circle><circle cx="561.5308417508418" cy="118.43649503564393" r="4.562545357320194" fill="#000000" fill-opacity="0.85" stroke="none"><title>(22, 0.029556650246)</title></circle><circle cx="590.5496969696969" cy="273.76178417050835" r="4.0" fill="#000000" fill-opacity="0.85" stroke="none"><title>(23, 0.012252591894)</title></circle></svg>