<svg xmlns="http://www.w3.org/2000/svg" width="800" height="600" viewBox="0 0 800 600"><rect x="0.0" y="0.0" width="800.0" height="600.0" fill="#ffffff" fill-opacity="1.0" stroke="none"/><rect x="0.0" y="0.0" width="0.0" height="0.0" fill="#ffffff" fill-opacity="1.0" stroke="none"/><line x1="139.3479437229437" y1="32.5" x2="139.3479437229437" y2="557.05" stroke="#dddddd" stroke-width="0.5"/><line x1="192.70292207792204" y1="32.5" x2="192.70292207792204" y2="557.05" stroke="#dddddd" stroke-width="0.5"/><line x1="246.0579004329004" y1="32.5" x2="246.0579004329004" y2="557.05" stroke="#dddddd" stroke-width="0.5"/><line x1="299.41287878787875" y1="32.5" x2="299.41287878787875" y2="557.05" stroke="#dddddd" stroke-width="0.5"/><line x1="352.7678571428571" y1="32.5" x2="352.7678571428571" y2="557.05" stroke="#dddddd" stroke-width="0.5"/><line x1="406.12283549783547" y1="32.5" x2="406.12283549783547" y2="557.05" stroke="#dddddd" stroke-width="0.5"/><line x1="112.67045454545453" y1="32.5" x2="112.67045454545453" y2="557.05" stroke="#dddddd" stroke-width="1.0"/><line x1="166.0254329004329" y1="32.5" x2="166.0254329004329" y2="557.05" stroke="#dddddd" stroke-width="1.0"/><line x1="219.38041125541122" y1="32.5" x2="219.38041125541122" y2="557.05" stroke="#dddddd" stroke-width="1.0"/><line x1="272.7353896103896" y1="32.5" x2="272.7353896103896" y2="557.05" stroke="#dddddd" stroke-width="1.0"/><line x1="326.09036796536793" y1="32.5" x2="326.09036796536793" y2="557.05" stroke="#dddddd" stroke-width="1.0"/><line x1="379.4453463203463" y1="32.5" x2="379.4453463203463" y2="557.05" stroke="#dddddd" stroke-width="1.0"/><line x1="86.89999999999999" y1="498.2782736204526" x2="407.34999999999997" y2="498.2782736204526" stroke="#dddddd" stroke-width="0.5"/><line x1="86.89999999999999" y1="380.7348208613579" x2="407.34999999999997" y2="380.7348208613579" stroke="#dddddd" stroke-width="0.5"/><line x1="86.89999999999999" y1="263.19136810226314" x2="407.34999999999997" y2="263.19136810226314" stroke="#dddddd" stroke-width="0.5"/><line x1="86.89999999999999" y1="145.6479153431684" x2="407.34999999999997" y2="145.6479153431684" stroke="#dddddd" stroke-width="0.5"/><line x1="86.89999999999999" y1="557.05" x2="407.34999999999997" y2="557.05" stroke="#dddddd" stroke-width="1.0"/><line x1="86.89999999999999" y1="439.5065472409052" x2="407.34999999999997" y2="439.5065472409052" stroke="#dddddd" stroke-width="1.0"/><line x1="86.89999999999999" y1="321.9630944818105" x2="407.34999999999997" y2="321.9630944818105" stroke="#dddddd" stroke-width="1.0"/><line x1="86.89999999999999" y1="204.41964172271577" x2="407.34999999999997" y2="204.41964172271577" stroke="#dddddd" stroke-width="1.0"/><line x1="86.89999999999999" y1="86.87618896362108" x2="407.34999999999997" y2="86.87618896362108" stroke="#dddddd" stroke-width="1.0"/><rect x="86.89999999999999" y="32.5" width="320.45" height="524.55" fill="#ffffff" fill-opacity="0.0" stroke="#444444" stroke-width="1.0"/><line x1="112.67045454545453" y1="557.05" x2="112.67045454545453" y2="559.8" stroke="#444444" stroke-width="1.0"/><text x="112.67045454545453" y="570.8" fill="#333333" font-size="11.0" font-family="sans-serif" text-anchor="middle">0</text><line x1="166.0254329004329" y1="557.05" x2="166.0254329004329" y2="559.8" stroke="#444444" stroke-width="1.0"/><text x="166.0254329004329" y="570.8" fill="#333333" font-size="11.0" font-family="sans-serif" text-anchor="middle">250</text><line x1="219.38041125541122" y1="557.05" x2="219.38041125541122" y2="559.8" stroke="#444444" stroke-width="1.0"/><text x="219.38041125541122" y="570.8" fill="#333333" font-size="11.0" font-family="sans-serif" text-anchor="middle">500</text><line x1="272.7353896103896" y1="557.05" x2="272.7353896103896" y2="559.8" stroke="#444444" stroke-width="1.0"/><text x="272.7353896103896" y="570.8" fill="#333333" font-size="11.0" font-family="sans-serif" text-anchor="middle">750</text><line x1="326.09036796536793" y1="557.05" x2="326.09036796536793" y2="559.8" stroke="#444444" stroke-width="1.0"/><text x="326.09036796536793" y="570.8" fill="#333333" font-size="11.0" font-family="sans-serif" text-anchor="middle">1000</text><line x1="379.4453463203463" y1="557.05" x2="379.4453463203463" y2="559.8" stroke="#444444" stroke-width="1.0"/><text x="379.4453463203463" y="570.8" fill="#333333" font-size="11.0" font-family="sans-serif" text-anchor="middle">1250</text><line x1="86.89999999999999" y1="557.05" x2="84.14999999999999" y2="557.05" stroke="#444444" stroke-width="1.0"/><text x="81.94999999999999" y="560.9" fill="#333333" font-size="11.0" font-family="sans-serif" text-anchor="end">0</text><line x1="86.89999999999999" y1="439.5065472409052" x2="84.14999999999999" y2="439.5065472409052" stroke="#444444" stroke-width="1.0"/><text x="81.94999999999999" y="443.35654724090523" fill="#333333" font-size="11.0" font-family="sans-serif" text-anchor="end">50000</text><line x1="86.89999999999999" y1="321.9630944818105" x2="84.14999999999999" y2="321.9630944818105" stroke="#444444" stroke-width="1.0"/><text x="81.94999999999999" y="325.81309448181054" fill="#333333" font-size="11.0" font-family="sans-serif" text-anchor="end">100000</text><line x1="86.89999999999999" y1="204.41964172271577" x2="84.14999999999999" y2="204.41964172271577" stroke="#444444" stroke-width="1.0"/><text x="81.94999999999999" y="208.26964172271576" fill="#333333" font-size="11.0" font-family="sans-serif" text-anchor="end">150000</text><line x1="86.89999999999999" y1="86.87618896362108" x2="84.14999999999999" y2="86.87618896362108" stroke="#444444" stroke-width="1.0"/><text x="81.94999999999999" y="90.72618896362107" fill="#333333" font-size="11.0" font-family="sans-serif" text-anchor="end">200000</text><text x="247.125" y="23.8" fill="#333333" font-size="16.0" font-family="sans-serif" text-anchor="middle">全体 (binwidth 15)</text><rect x="101.46590909090908" y="557.0476491309448" width="3.201298701298711" height="2.350869055135263e-3" fill="#1f77b4" fill-opacity="0.7" stroke="none"/><rect x="104.66720779220779" y="557.0100352260619" width="3.201298701298697" height="3.996477393809528e-2" fill="#1f77b4" fill-opacity="0.7" stroke="none"/><rect x="107.86850649350649" y="481.547138554723" width="3.201298701298697" height="75.50286144527695" fill="#1f77b4" fill-opacity="0.7" stroke="none"/><rect x="111.06980519480518" y="57.478571428571456" width="3.201298701298697" height="499.5714285714285" fill="#1f77b4" fill-opacity="0.7" stroke="none"/><rect x="114.27110389610388" y="478.0678523530538" width="3.201298701298711" height="78.98214764694615" fill="#1f77b4" fill-opacity="0.7" stroke="none"/><rect x="117.47240259740259" y="517.0570156332456" width="3.201298701298697" height="39.9929843667544" fill="#1f77b4" fill-opacity="0.7" stroke="none"/><rect x="120.67370129870129" y="532.0391041219198" width="3.201298701298711" height="25.01089587808019" fill="#1f77b4" fill-opacity="0.7" stroke="none"/><rect x="123.875" y="539.5242711936189" width="3.201298701298697" height="17.52572880638104" fill="#1f77b4" fill-opacity="0.7" stroke="none"/><rect x="127.0762987012987" y="544.4399383880043" width="3.201298701298697" height="12.610061611995661" fill="#1f77b4" fill-opacity="0.7" stroke="none"/><rect x="130.2775974025974" y="547.5665942313962" width="3.201298701298697" height="9.483405768603802" fill="#1f77b4" fill-opacity="0.7" stroke="none"/><rect x="133.4788961038961" y="550.058515429889" width="3.201298701298697" height="6.99148457011097" fill="#1f77b4" fill-opacity="0.7" stroke="none"/><rect x="136.6801948051948" y="551.4948964226052" width="3.201298701298697" height="5.555103577394789" fill="#1f77b4" fill-opacity="0.7" stroke="none"/><rect x="139.88149350649348" y="552.8725056889417" width="3.201298701298697" height="4.17749431105824" fill="#1f77b4" fill-opacity="0.7" stroke="none"/><rect x="143.08279220779218" y="553.857519823063" width="3.2012987012987253" height="3.1924801769370106" fill="#1f77b4" fill-opacity="0.7" stroke="none"/><rect x="146.2840909090909" y="554.3018340744923" width="3.201298701298697" height="2.748165925507692" fill="#1f77b4" fill-opacity="0.7" stroke="none"/><rect x="149.4853896103896" y="554.9365687193914" width="3.201298701298697" height="2.113431280608552" fill="#1f77b4" fill-opacity="0.7" stroke="none"/><rect x="152.6866883116883" y="555.3691286255449" width="3.2012987012987253" height="1.6808713744550232" fill="#1f77b4" fill-opacity="0.7" stroke="none"/><rect x="155.88798701298703" y="555.6371276978356" width="3.201298701298697" height="1.4128723021643737" fill="#1f77b4" fill-opacity="0.7" stroke="none"/><rect x="159.08928571428572" y="555.9968106632784" width="3.201298701298697" height="1.0531893367215162" fill="#1f77b4" fill-opacity="0.7" stroke="none"/><rect x="162.29058441558442" y="556.170774973362" width="3.201298701298697" height="0.8792250266379824" fill="#1f77b4" fill-opacity="0.7" stroke="none"/><rect x="165.49188311688312" y="556.4505283909285" width="3.201298701298697" height="0.5994716090714292" fill="#1f77b4" fill-opacity="0.7" stroke="none"/><rect x="168.6931818181818" y="556.5022475101425" width="3.201298701298697" height="0.5477524898574302" fill="#1f77b4" fill-opacity="0.7" stroke="none"/><rect x="171.8944805194805" y="556.6056857485705" width="3.201298701298697" height="0.44431425142943226" fill="#1f77b4" fill-opacity="0.7" stroke="none"/><rect x="175.0957792207792" y="556.7467378918815" width="3.201298701298697" height="0.3032621081184743" fill="#1f77b4" fill-opacity="0.7" stroke="none"/><rect x="178.2970779220779" y="556.7678957133782" width="3.201298701298697" height="0.2821042866218022" fill="#1f77b4" fill-opacity="0.7" stroke="none"/><rect x="181.4983766233766" y="556.8219657016473" width="3.201298701298697" height="0.22803429835266797" fill="#1f77b4" fill-opacity="0.7" stroke="none"/><rect x="184.6996753246753" y="556.908947856689" width="3.201298701298697" height="0.14105214331095794" fill="#1f77b4" fill-opacity="0.7" stroke="none"/><rect x="187.900974025974" y="556.9301056781857" width="3.201298701298697" height="0.11989432181428583" fill="#1f77b4" fill-opacity="0.7" stroke="none"/><rect x="191.1022727272727" y="556.9395091544064" width="3.201298701298697" height="0.1104908455935174" fill="#1f77b4" fill-opacity="0.7" stroke="none"/><rect x="194.3035714285714" y="556.960666975903" width="3.2012987012987537" height="8.933302409695898e-2" fill="#1f77b4" fill-opacity="0.7" stroke="none"/><rect x="197.50487012987014" y="556.9888774045652" width="3.201298701298697" height="6.112259543476739e-2" fill="#1f77b4" fill-opacity="0.7" stroke="none"/><rect x="200.70616883116884" y="557.0100352260619" width="3.201298701298697" height="3.996477393809528e-2" fill="#1f77b4" fill-opacity="0.7" stroke="none"/><rect x="203.90746753246754" y="557.0217895713378" width="3.201298701298697" height="2.821042866219159e-2" fill="#1f77b4" fill-opacity="0.7" stroke="none"/><rect x="207.10876623376623" y="557.0358947856689" width="3.201298701298697" height="1.4105214331038951e-2" fill="#1f77b4" fill-opacity="0.7" stroke="none"/><rect x="210.31006493506493" y="557.0358947856689" width="3.201298701298697" height="1.4105214331038951e-2" fill="#1f77b4" fill-opacity="0.7" stroke="none"/><rect x="213.51136363636363" y="557.0288421785033" width="3.201298701298697" height="2.1157821496672113e-2" fill="#1f77b4" fill-opacity="0.7" stroke="none"/><rect x="216.71266233766232" y="557.038245654724" width="3.201298701298697" height="1.1754345275903688e-2" fill="#1f77b4" fill-opacity="0.7" stroke="none"/><rect x="219.91396103896102" y="557.0358947856689" width="3.201298701298697" height="1.4105214331038951e-2" fill="#1f77b4" fill-opacity="0.7" stroke="none"/><rect x="223.11525974025972" y="557.0476491309448" width="3.201298701298697" height="2.350869055135263e-3" fill="#1f77b4" fill-opacity="0.7" stroke="none"/><rect x="226.3165584415584" y="557.0429473928344" width="3.201298701298697" height="7.0526071655194755e-3" fill="#1f77b4" fill-opacity="0.7" stroke="none"/><rect x="229.5178571428571" y="557.0476491309448" width="3.2012987012987537" height="2.350869055135263e-3" fill="#1f77b4" fill-opacity="0.7" stroke="none"/><rect x="232.71915584415586" y="557.0476491309448" width="3.201298701298697" height="2.350869055135263e-3" fill="#1f77b4" fill-opacity="0.7" stroke="none"/><rect x="235.92045454545456" y="557.0429473928344" width="3.201298701298697" height="7.0526071655194755e-3" fill="#1f77b4" fill-opacity="0.7" stroke="none"/><rect x="239.12175324675326" y="557.0429473928344" width="3.201298701298697" height="7.0526071655194755e-3" fill="#1f77b4" fill-opacity="0.7" stroke="none"/><rect x="242.32305194805195" y="557.0476491309448" width="3.201298701298697" height="2.350869055135263e-3" fill="#1f77b4" fill-opacity="0.7" stroke="none"/><rect x="245.52435064935065" y="557.0429473928344" width="3.201298701298697" height="7.0526071655194755e-3" fill="#1f77b4" fill-opacity="0.7" stroke="none"/><rect x="248.72564935064935" y="557.0476491309448" width="3.201298701298697" height="2.350869055135263e-3" fill="#1f77b4" fill-opacity="0.7" stroke="none"/><rect x="251.92694805194805" y="557.0452982618896" width="3.201298701298697" height="4.701738110384213e-3" fill="#1f77b4" fill-opacity="0.7" stroke="none"/><rect x="258.32954545454544" y="557.0452982618896" width="3.201298701298697" height="4.701738110384213e-3" fill="#1f77b4" fill-opacity="0.7" stroke="none"/><rect x="261.53084415584414" y="557.0476491309448" width="3.201298701298697" height="2.350869055135263e-3" fill="#1f77b4" fill-opacity="0.7" stroke="none"/><rect x="271.1347402597402" y="557.0452982618896" width="3.201298701298697" height="4.701738110384213e-3" fill="#1f77b4" fill-opacity="0.7" stroke="none"/><rect x="274.3360389610389" y="557.0476491309448" width="3.2012987012987537" height="2.350869055135263e-3" fill="#1f77b4" fill-opacity="0.7" stroke="none"/><rect x="277.5373376623377" y="557.0452982618896" width="3.201298701298697" height="4.701738110384213e-3" fill="#1f77b4" fill-opacity="0.7" stroke="none"/><rect x="280.7386363636364" y="557.038245654724" width="3.201298701298697" height="1.1754345275903688e-2" fill="#1f77b4" fill-opacity="0.7" stroke="none"/><rect x="283.93993506493507" y="557.0452982618896" width="3.201298701298697" height="4.701738110384213e-3" fill="#1f77b4" fill-opacity="0.7" stroke="none"/><rect x="287.14123376623377" y="557.0476491309448" width="3.201298701298697" height="2.350869055135263e-3" fill="#1f77b4" fill-opacity="0.7" stroke="none"/><rect x="290.34253246753246" y="557.0476491309448" width="3.201298701298697" height="2.350869055135263e-3" fill="#1f77b4" fill-opacity="0.7" stroke="none"/><rect x="293.54383116883116" y="557.0405965237792" width="3.201298701298697" height="9.403476220768425e-3" fill="#1f77b4" fill-opacity="0.7" stroke="none"/><rect x="299.94642857142856" y="557.0476491309448" width="3.201298701298697" height="2.350869055135263e-3" fill="#1f77b4" fill-opacity="0.7" stroke="none"/><rect x="303.14772727272725" y="557.0429473928344" width="3.201298701298697" height="7.0526071655194755e-3" fill="#1f77b4" fill-opacity="0.7" stroke="none"/><rect x="306.34902597402595" y="557.0476491309448" width="3.201298701298697" height="2.350869055135263e-3" fill="#1f77b4" fill-opacity="0.7" stroke="none"/><rect x="315.9529220779221" y="557.0476491309448" width="3.201298701298697" height="2.350869055135263e-3" fill="#1f77b4" fill-opacity="0.7" stroke="none"/><rect x="325.5568181818182" y="557.0476491309448" width="3.201298701298697" height="2.350869055135263e-3" fill="#1f77b4" fill-opacity="0.7" stroke="none"/><rect x="328.7581168831169" y="557.0476491309448" width="3.201298701298697" height="2.350869055135263e-3" fill="#1f77b4" fill-opacity="0.7" stroke="none"/><rect x="351.16720779220776" y="557.0476491309448" width="3.201298701298697" height="2.350869055135263e-3" fill="#1f77b4" fill-opacity="0.7" stroke="none"/><rect x="354.36850649350646" y="557.0476491309448" width="3.201298701298697" height="2.350869055135263e-3" fill="#1f77b4" fill-opacity="0.7" stroke="none"/><rect x="389.5827922077922" y="557.0476491309448" width="3.201298701298697" height="2.350869055135263e-3" fill="#1f77b4" fill-opacity="0.7" stroke="none"/><rect x="0.0" y="0.0" width="0.0" height="0.0" fill="#ffffff" fill-opacity="1.0" stroke="none"/><line x1="530.165909090909" y1="32.5" x2="530.165909090909" y2="557.05" stroke="#dddddd" stroke-width="0.5"/><line x1="598.7113636363636" y1="32.5" x2="598.7113636363636" y2="557.05" stroke="#dddddd" stroke-width="0.5"/><line x1="667.2568181818182" y1="32.5" x2="667.2568181818182" y2="557.05" stroke="#dddddd" stroke-width="0.5"/><line x1="735.8022727272727" y1="32.5" x2="735.8022727272727" y2="557.05" stroke="#dddddd" stroke-width="0.5"/><line x1="495.8931818181818" y1="32.5" x2="495.8931818181818" y2="557.05" stroke="#dddddd" stroke-width="1.0"/><line x1="564.4386363636363" y1="32.5" x2="564.4386363636363" y2="557.05" stroke="#dddddd" stroke-width="1.0"/><line x1="632.9840909090909" y1="32.5" x2="632.9840909090909" y2="557.05" stroke="#dddddd" stroke-width="1.0"/><line x1="701.5295454545454" y1="32.5" x2="701.5295454545454" y2="557.05" stroke="#dddddd" stroke-width="1.0"/><line x1="770.0749999999999" y1="32.5" x2="770.0749999999999" y2="557.05" stroke="#dddddd" stroke-width="1.0"/><line x1="468.47499999999997" y1="500.8481580838723" x2="788.925" y2="500.8481580838723" stroke="#dddddd" stroke-width="0.5"/><line x1="468.47499999999997" y1="388.44447425161707" x2="788.925" y2="388.44447425161707" stroke="#dddddd" stroke-width="0.5"/><line x1="468.47499999999997" y1="276.0407904193618" x2="788.925" y2="276.0407904193618" stroke="#dddddd" stroke-width="0.5"/><line x1="468.47499999999997" y1="163.6371065871066" x2="788.925" y2="163.6371065871066" stroke="#dddddd" stroke-width="0.5"/><line x1="468.47499999999997" y1="51.23342275485135" x2="788.925" y2="51.23342275485135" stroke="#dddddd" stroke-width="0.5"/><line x1="468.47499999999997" y1="557.05" x2="788.925" y2="557.05" stroke="#dddddd" stroke-width="1.0"/><line x1="468.47499999999997" y1="444.6463161677447" x2="788.925" y2="444.6463161677447" stroke="#dddddd" stroke-width="1.0"/><line x1="468.47499999999997" y1="332.2426323354895" x2="788.925" y2="332.2426323354895" stroke="#dddddd" stroke-width="1.0"/><line x1="468.47499999999997" y1="219.83894850323418" x2="788.925" y2="219.83894850323418" stroke="#dddddd" stroke-width="1.0"/><line x1="468.47499999999997" y1="107.43526467097894" x2="788.925" y2="107.43526467097894" stroke="#dddddd" stroke-width="1.0"/><rect x="468.47499999999997" y="32.5" width="320.45" height="524.55" fill="#ffffff" fill-opacity="0.0" stroke="#444444" stroke-width="1.0"/><line x1="495.8931818181818" y1="557.05" x2="495.8931818181818" y2="559.8" stroke="#444444" stroke-width="1.0"/><text x="495.8931818181818" y="570.8" fill="#333333" font-size="11.0" font-family="sans-serif" text-anchor="middle">-40</text><line x1="564.4386363636363" y1="557.05" x2="564.4386363636363" y2="559.8" stroke="#444444" stroke-width="1.0"/><text x="564.4386363636363" y="570.8" fill="#333333" font-size="11.0" font-family="sans-serif" text-anchor="middle">0</text><line x1="632.9840909090909" y1="557.05" x2="632.9840909090909" y2="559.8" stroke="#444444" stroke-width="1.0"/><text x="632.9840909090909" y="570.8" fill="#333333" font-size="11.0" font-family="sans-serif" text-anchor="middle">40</text><line x1="701.5295454545454" y1="557.05" x2="701.5295454545454" y2="559.8" stroke="#444444" stroke-width="1.0"/><text x="701.5295454545454" y="570.8" fill="#333333" font-size="11.0" font-family="sans-serif" text-anchor="middle">80</text><line x1="770.0749999999999" y1="557.05" x2="770.0749999999999" y2="559.8" stroke="#444444" stroke-width="1.0"/><text x="770.0749999999999" y="570.8" fill="#333333" font-size="11.0" font-family="sans-serif" text-anchor="middle">120</text><line x1="468.47499999999997" y1="557.05" x2="465.72499999999997" y2="557.05" stroke="#444444" stroke-width="1.0"/><text x="463.525" y="560.9" fill="#333333" font-size="11.0" font-family="sans-serif" text-anchor="end">0</text><line x1="468.47499999999997" y1="444.6463161677447" x2="465.72499999999997" y2="444.6463161677447" stroke="#444444" stroke-width="1.0"/><text x="463.525" y="448.49631616774474" fill="#333333" font-size="11.0" font-family="sans-serif" text-anchor="end">25000</text><line x1="468.47499999999997" y1="332.2426323354895" x2="465.72499999999997" y2="332.2426323354895" stroke="#444444" stroke-width="1.0"/><text x="463.525" y="336.0926323354895" fill="#333333" font-size="11.0" font-family="sans-serif" text-anchor="end">50000</text><line x1="468.47499999999997" y1="219.83894850323418" x2="465.72499999999997" y2="219.83894850323418" stroke="#444444" stroke-width="1.0"/><text x="463.525" y="223.68894850323417" fill="#333333" font-size="11.0" font-family="sans-serif" text-anchor="end">75000</text><line x1="468.47499999999997" y1="107.43526467097894" x2="465.72499999999997" y2="107.43526467097894" stroke="#444444" stroke-width="1.0"/><text x="463.525" y="111.28526467097893" fill="#333333" font-size="11.0" font-family="sans-serif" text-anchor="end">100000</text><text x="628.6999999999999" y="23.8" fill="#333333" font-size="16.0" font-family="sans-serif" text-anchor="middle">dep_delay &lt; 120 (binwidth 5)</text><rect x="483.04090909090905" y="557.0455038526467" width="8.568181818181813" height="4.496147353279412e-3" fill="#1f77b4" fill-opacity="0.7" stroke="none"/><rect x="500.1772727272727" y="557.0455038526467" width="8.568181818181813" height="4.496147353279412e-3" fill="#1f77b4" fill-opacity="0.7" stroke="none"/><rect x="508.7454545454545" y="557.0410077052934" width="8.568181818181813" height="8.992294706558823e-3" fill="#1f77b4" fill-opacity="0.7" stroke="none"/><rect x="517.3136363636363" y="556.9870539370539" width="8.56818181818187" height="6.294606294602545e-2" fill="#1f77b4" fill-opacity="0.7" stroke="none"/><rect x="525.8818181818182" y="556.3306164234735" width="8.568181818181756" height="0.7193835765264112" fill="#1f77b4" fill-opacity="0.7" stroke="none"/><rect x="534.4499999999999" y="547.7025096525097" width="8.56818181818187" height="9.347490347490293" fill="#1f77b4" fill-opacity="0.7" stroke="none"/><rect x="543.0181818181818" y="422.71410937839505" width="8.568181818181756" height="134.3358906216049" fill="#1f77b4" fill-opacity="0.7" stroke="none"/><rect x="551.5863636363636" y="57.478571428571456" width="8.56818181818187" height="499.5714285714285" fill="#1f77b4" fill-opacity="0.7" stroke="none"/><rect x="560.1545454545454" y="237.25702334988046" width="8.568181818181756" height="319.7929766501195" fill="#1f77b4" fill-opacity="0.7" stroke="none"/><rect x="568.7227272727272" y="458.07630831202255" width="8.56818181818187" height="98.97369168797741" fill="#1f77b4" fill-opacity="0.7" stroke="none"/><rect x="577.290909090909" y="491.62206371492084" width="8.56818181818187" height="65.42793628507911" fill="#1f77b4" fill-opacity="0.7" stroke="none"/><rect x="585.8590909090909" y="508.63548529977095" width="8.568181818181756" height="48.414514700229006" fill="#1f77b4" fill-opacity="0.7" stroke="none"/><rect x="594.4272727272727" y="519.8353883568169" width="8.56818181818187" height="37.21461164318305" fill="#1f77b4" fill-opacity="0.7" stroke="none"/><rect x="602.9954545454545" y="526.638059302345" width="8.568181818181756" height="30.411940697654927" fill="#1f77b4" fill-opacity="0.7" stroke="none"/><rect x="611.5636363636363" y="531.8670786742215" width="8.56818181818187" height="25.182921325778466" fill="#1f77b4" fill-opacity="0.7" stroke="none"/><rect x="620.1318181818182" y="536.1564032492604" width="8.568181818181756" height="20.89359675073956" fill="#1f77b4" fill-opacity="0.7" stroke="none"/><rect x="628.6999999999999" y="538.9440146083002" width="8.56818181818187" height="18.105985391699733" fill="#1f77b4" fill-opacity="0.7" stroke="none"/><rect x="637.2681818181818" y="541.0751884537599" width="8.568181818181756" height="15.974811546240062" fill="#1f77b4" fill-opacity="0.7" stroke="none"/><rect x="645.8363636363636" y="543.2962852462852" width="8.56818181818187" height="13.753714753714803" fill="#1f77b4" fill-opacity="0.7" stroke="none"/><rect x="654.4045454545454" y="544.5956718313861" width="8.568181818181756" height="12.45432816861387" fill="#1f77b4" fill-opacity="0.7" stroke="none"/><rect x="662.9727272727272" y="545.8680815323672" width="8.56818181818187" height="11.181918467632727" fill="#1f77b4" fill-opacity="0.7" stroke="none"/><rect x="671.540909090909" y="547.167468117468" width="8.568181818181756" height="9.882531882531907" fill="#1f77b4" fill-opacity="0.7" stroke="none"/><rect x="680.1090909090908" y="548.048712998713" width="8.56818181818187" height="9.001287001286983" fill="#1f77b4" fill-opacity="0.7" stroke="none"/><rect x="688.6772727272727" y="549.2222074579217" width="8.56818181818187" height="7.827792542078214" fill="#1f77b4" fill-opacity="0.7" stroke="none"/><rect x="697.2454545454545" y="549.7617451403165" width="8.568181818181756" height="7.288254859683434" fill="#1f77b4" fill-opacity="0.7" stroke="none"/><rect x="705.8136363636363" y="550.512601748316" width="8.568181818181756" height="6.537398251683953" fill="#1f77b4" fill-opacity="0.7" stroke="none"/><rect x="714.3818181818181" y="550.9757049257049" width="8.56818181818187" height="6.074295074295037" fill="#1f77b4" fill-opacity="0.7" stroke="none"/><rect x="722.9499999999999" y="551.5242349028063" width="8.56818181818187" height="5.525765097193698" fill="#1f77b4" fill-opacity="0.7" stroke="none"/><rect x="731.5181818181818" y="552.077261027261" width="8.568181818181756" height="4.972738972738966" fill="#1f77b4" fill-opacity="0.7" stroke="none"/><rect x="740.0863636363636" y="552.6033102675959" width="8.56818181818187" height="4.446689732404025" fill="#1f77b4" fill-opacity="0.7" stroke="none"/><rect x="748.6545454545454" y="553.0978864764579" width="8.56818181818187" height="3.952113523542039" fill="#1f77b4" fill-opacity="0.7" stroke="none"/><rect x="757.2227272727273" y="553.1473440973441" width="8.568181818181756" height="3.9026559026558516" fill="#1f77b4" fill-opacity="0.7" stroke="none"/><rect x="765.790909090909" y="555.6786750572464" width="8.568181818181756" height="1.3713249427535175" fill="#1f77b4" fill-opacity="0.7" stroke="none"/></svg>