<svg xmlns="http://www.w3.org/2000/svg" width="624" height="384" viewBox="0 0 624 384"><rect x="0.0" y="0.0" width="624.0" height="384.0" fill="#ffffff" fill-opacity="1.0" stroke="none"/><rect x="0.0" y="0.0" width="0.0" height="0.0" fill="#ffffff" fill-opacity="1.0" stroke="none"/><rect x="63.50666666666666" y="39.599999999999994" width="237.49333333333334" height="311.4" fill="#ebebeb" fill-opacity="1.0" stroke="none"/><line x1="102.37712065712066" y1="39.599999999999994" x2="102.37712065712066" y2="351.0" stroke="#ffffff" stroke-width="0.6666666666666666"/><line x1="141.9198001998002" y1="39.599999999999994" x2="141.9198001998002" y2="351.0" stroke="#ffffff" stroke-width="0.6666666666666666"/><line x1="181.46247974247973" y1="39.599999999999994" x2="181.46247974247973" y2="351.0" stroke="#ffffff" stroke-width="0.6666666666666666"/><line x1="221.0051592851593" y1="39.599999999999994" x2="221.0051592851593" y2="351.0" stroke="#ffffff" stroke-width="0.6666666666666666"/><line x1="260.5478388278388" y1="39.599999999999994" x2="260.5478388278388" y2="351.0" stroke="#ffffff" stroke-width="0.6666666666666666"/><line x1="300.09051837051834" y1="39.599999999999994" x2="300.09051837051834" y2="351.0" stroke="#ffffff" stroke-width="0.6666666666666666"/><line x1="82.60578088578087" y1="39.599999999999994" x2="82.60578088578087" y2="351.0" stroke="#ffffff" stroke-width="1.3333333333333333"/><line x1="122.14846042846041" y1="39.599999999999994" x2="122.14846042846041" y2="351.0" stroke="#ffffff" stroke-width="1.3333333333333333"/><line x1="161.69113997113996" y1="39.599999999999994" x2="161.69113997113996" y2="351.0" stroke="#ffffff" stroke-width="1.3333333333333333"/><line x1="201.23381951381953" y1="39.599999999999994" x2="201.23381951381953" y2="351.0" stroke="#ffffff" stroke-width="1.3333333333333333"/><line x1="240.77649905649903" y1="39.599999999999994" x2="240.77649905649903" y2="351.0" stroke="#ffffff" stroke-width="1.3333333333333333"/><line x1="280.3191785991786" y1="39.599999999999994" x2="280.3191785991786" y2="351.0" stroke="#ffffff" stroke-width="1.3333333333333333"/><line x1="63.50666666666666" y1="314.6999475432768" x2="301.0" y2="314.6999475432768" stroke="#ffffff" stroke-width="0.6666666666666666"/><line x1="63.50666666666666" y1="242.0998426298304" x2="301.0" y2="242.0998426298304" stroke="#ffffff" stroke-width="0.6666666666666666"/><line x1="63.50666666666666" y1="169.49973771638395" x2="301.0" y2="169.49973771638395" stroke="#ffffff" stroke-width="0.6666666666666666"/><line x1="63.50666666666666" y1="96.89963280293753" x2="301.0" y2="96.89963280293753" stroke="#ffffff" stroke-width="0.6666666666666666"/><line x1="63.50666666666666" y1="351.0" x2="301.0" y2="351.0" stroke="#ffffff" stroke-width="1.3333333333333333"/><line x1="63.50666666666666" y1="278.39989508655356" x2="301.0" y2="278.39989508655356" stroke="#ffffff" stroke-width="1.3333333333333333"/><line x1="63.50666666666666" y1="205.79979017310717" x2="301.0" y2="205.79979017310717" stroke="#ffffff" stroke-width="1.3333333333333333"/><line x1="63.50666666666666" y1="133.19968525966073" x2="301.0" y2="133.19968525966073" stroke="#ffffff" stroke-width="1.3333333333333333"/><line x1="63.50666666666666" y1="60.59958034621434" x2="301.0" y2="60.59958034621434" stroke="#ffffff" stroke-width="1.3333333333333333"/><line x1="82.60578088578087" y1="351.0" x2="82.60578088578087" y2="354.66666666666663" stroke="#333333" stroke-width="1.3333333333333333"/><text x="82.60578088578087" y="366.9866666666667" fill="#4d4d4d" font-size="11.733333333333334" font-family="sans-serif" text-anchor="middle">0</text><line x1="122.14846042846041" y1="351.0" x2="122.14846042846041" y2="354.66666666666663" stroke="#333333" stroke-width="1.3333333333333333"/><text x="122.14846042846041" y="366.9866666666667" fill="#4d4d4d" font-size="11.733333333333334" font-family="sans-serif" text-anchor="middle">250</text><line x1="161.69113997113996" y1="351.0" x2="161.69113997113996" y2="354.66666666666663" stroke="#333333" stroke-width="1.3333333333333333"/><text x="161.69113997113996" y="366.9866666666667" fill="#4d4d4d" font-size="11.733333333333334" font-family="sans-serif" text-anchor="middle">500</text><line x1="201.23381951381953" y1="351.0" x2="201.23381951381953" y2="354.66666666666663" stroke="#333333" stroke-width="1.3333333333333333"/><text x="201.23381951381953" y="366.9866666666667" fill="#4d4d4d" font-size="11.733333333333334" font-family="sans-serif" text-anchor="middle">750</text><line x1="240.77649905649903" y1="351.0" x2="240.77649905649903" y2="354.66666666666663" stroke="#333333" stroke-width="1.3333333333333333"/><text x="240.77649905649903" y="366.9866666666667" fill="#4d4d4d" font-size="11.733333333333334" font-family="sans-serif" text-anchor="middle">1000</text><line x1="280.3191785991786" y1="351.0" x2="280.3191785991786" y2="354.66666666666663" stroke="#333333" stroke-width="1.3333333333333333"/><text x="280.3191785991786" y="366.9866666666667" fill="#4d4d4d" font-size="11.733333333333334" font-family="sans-serif" text-anchor="middle">1250</text><line x1="63.50666666666666" y1="351.0" x2="59.83999999999999" y2="351.0" stroke="#333333" stroke-width="1.3333333333333333"/><text x="56.90666666666665" y="355.1066666666666" fill="#4d4d4d" font-size="11.733333333333334" font-family="sans-serif" text-anchor="end">0</text><line x1="63.50666666666666" y1="278.39989508655356" x2="59.83999999999999" y2="278.39989508655356" stroke="#333333" stroke-width="1.3333333333333333"/><text x="56.90666666666665" y="282.50656175322024" fill="#4d4d4d" font-size="11.733333333333334" font-family="sans-serif" text-anchor="end">50000</text><line x1="63.50666666666666" y1="205.79979017310717" x2="59.83999999999999" y2="205.79979017310717" stroke="#333333" stroke-width="1.3333333333333333"/><text x="56.90666666666665" y="209.90645683977385" fill="#4d4d4d" font-size="11.733333333333334" font-family="sans-serif" text-anchor="end">100000</text><line x1="63.50666666666666" y1="133.19968525966073" x2="59.83999999999999" y2="133.19968525966073" stroke="#333333" stroke-width="1.3333333333333333"/><text x="56.90666666666665" y="137.3063519263274" fill="#4d4d4d" font-size="11.733333333333334" font-family="sans-serif" text-anchor="end">150000</text><line x1="63.50666666666666" y1="60.59958034621434" x2="59.83999999999999" y2="60.59958034621434" stroke="#333333" stroke-width="1.3333333333333333"/><text x="56.90666666666665" y="64.706247012881" fill="#4d4d4d" font-size="11.733333333333334" font-family="sans-serif" text-anchor="end">200000</text><text x="63.50666666666666" y="28.74666666666667" fill="#000000" font-size="17.599999999999998" font-family="sans-serif" text-anchor="start">全体 (binwidth 15)</text><rect x="74.30181818181816" y="350.9985479979017" width="2.3725607725607745" height="1.4520020982520994e-3" fill="#595959" fill-opacity="1.0" stroke="none"/><rect x="76.67437895437894" y="350.9753159643294" width="2.3725607725607745" height="2.4684035670588855e-2" fill="#595959" fill-opacity="1.0" stroke="none"/><rect x="79.04693972693971" y="304.3660486098968" width="2.3725607725607745" height="46.63395139010318" fill="#595959" fill-opacity="1.0" stroke="none"/><rect x="81.41950049950049" y="54.428571428571445" width="2.3725607725607745" height="296.57142857142856" fill="#595959" fill-opacity="1.0" stroke="none"/><rect x="83.79206127206126" y="302.2170855044588" width="2.3725607725607647" height="48.782914495541185" fill="#595959" fill-opacity="1.0" stroke="none"/><rect x="86.16462204462204" y="326.29854030424895" width="2.3725607725607647" height="24.701459695751016" fill="#595959" fill-opacity="1.0" stroke="none"/><rect x="88.5371828171828" y="335.5521496765168" width="2.372560772560784" height="15.447850323483141" fill="#595959" fill-opacity="1.0" stroke="none"/><rect x="90.90974358974358" y="340.1753243574051" width="2.372560772560784" height="10.824675642594872" fill="#595959" fill-opacity="1.0" stroke="none"/><rect x="93.28230436230436" y="343.21146074488547" width="2.3725607725607647" height="7.788539255114529" fill="#595959" fill-opacity="1.0" stroke="none"/><rect x="95.65486513486513" y="345.1426235355831" width="2.3725607725607647" height="5.857376464416878" fill="#595959" fill-opacity="1.0" stroke="none"/><rect x="98.0274259074259" y="346.6817457597482" width="2.372560772560784" height="4.318254240251766" fill="#595959" fill-opacity="1.0" stroke="none"/><rect x="100.39998667998668" y="347.5689190417905" width="2.3725607725607647" height="3.431080958209501" fill="#595959" fill-opacity="1.0" stroke="none"/><rect x="102.77254745254744" y="348.4197922713761" width="2.3725607725607647" height="2.5802077286239182" fill="#595959" fill-opacity="1.0" stroke="none"/><rect x="105.1451082251082" y="349.0281811505507" width="2.372560772560784" height="1.97181884944924" fill="#595959" fill-opacity="1.0" stroke="none"/><rect x="107.51766899766899" y="349.30260954712355" width="2.3725607725607647" height="1.6973904528764099" fill="#595959" fill-opacity="1.0" stroke="none"/><rect x="109.89022977022975" y="349.69465011365617" width="2.3725607725607647" height="1.3053498863437956" fill="#595959" fill-opacity="1.0" stroke="none"/><rect x="112.26279054279053" y="349.96181849973766" width="2.372560772560784" height="1.0381815002623018" fill="#595959" fill-opacity="1.0" stroke="none"/><rect x="114.6353513153513" y="350.1273467389404" width="2.372560772560784" height="0.872653261059592" fill="#595959" fill-opacity="1.0" stroke="none"/><rect x="117.00791208791209" y="350.3495030599755" width="2.3725607725607647" height="0.6504969400244438" fill="#595959" fill-opacity="1.0" stroke="none"/><rect x="119.38047286047285" y="350.4569512152474" width="2.3725607725607647" height="0.5430487847525758" fill="#595959" fill-opacity="1.0" stroke="none"/><rect x="121.75303363303362" y="350.6297394649414" width="2.372560772560784" height="0.37026053505860546" fill="#595959" fill-opacity="1.0" stroke="none"/><rect x="124.1255944055944" y="350.6616835111033" width="2.3725607725607647" height="0.3383164888966803" fill="#595959" fill-opacity="1.0" stroke="none"/><rect x="126.49815517815517" y="350.72557160342717" width="2.3725607725607647" height="0.27442839657283" fill="#595959" fill-opacity="1.0" stroke="none"/><rect x="128.87071595071592" y="350.81269172932326" width="2.372560772560784" height="0.18730827067671876" fill="#595959" fill-opacity="1.0" stroke="none"/><rect x="131.24327672327672" y="350.8257597482077" width="2.3725607725607647" height="0.1742402517922983" fill="#595959" fill-opacity="1.0" stroke="none"/><rect x="133.61583749583747" y="350.85915579646786" width="2.3725607725607647" height="0.14084420353212104" fill="#595959" fill-opacity="1.0" stroke="none"/><rect x="135.98839826839824" y="350.91287987410385" width="2.372560772560784" height="8.712012589611125e-2" fill="#595959" fill-opacity="1.0" stroke="none"/><rect x="138.36095904095902" y="350.9259478929883" width="2.3725607725607647" height="7.405210701169077e-2" fill="#595959" fill-opacity="1.0" stroke="none"/><rect x="140.7335198135198" y="350.9317559013814" width="2.3725607725607647" height="6.824409861860659e-2" fill="#595959" fill-opacity="1.0" stroke="none"/><rect x="143.10608058608057" y="350.9448239202658" width="2.372560772560784" height="5.5176079734186104e-2" fill="#595959" fill-opacity="1.0" stroke="none"/><rect x="145.47864135864134" y="350.962247945445" width="2.372560772560784" height="3.775205455500933e-2" fill="#595959" fill-opacity="1.0" stroke="none"/><rect x="147.85120213120211" y="350.9753159643294" width="2.3725607725607647" height="2.4684035670588855e-2" fill="#595959" fill-opacity="1.0" stroke="none"/><rect x="150.2237629037629" y="350.98257597482075" width="2.372560772560784" height="1.7424025179252567e-2" fill="#595959" fill-opacity="1.0" stroke="none"/><rect x="152.59632367632366" y="350.9912879874104" width="2.3725607725607647" height="8.712012589588387e-3" fill="#595959" fill-opacity="1.0" stroke="none"/><rect x="154.96888444888444" y="350.9912879874104" width="2.3725607725607647" height="8.712012589588387e-3" fill="#595959" fill-opacity="1.0" stroke="none"/><rect x="157.3414452214452" y="350.98693198111556" width="2.372560772560784" height="1.3068018884420477e-2" fill="#595959" fill-opacity="1.0" stroke="none"/><rect x="159.714005994006" y="350.99273998950866" width="2.3725607725607647" height="7.260010491336288e-3" fill="#595959" fill-opacity="1.0" stroke="none"/><rect x="162.08656676656676" y="350.9912879874104" width="2.3725607725607647" height="8.712012589588387e-3" fill="#595959" fill-opacity="1.0" stroke="none"/><rect x="164.4591275391275" y="350.9985479979017" width="2.372560772560784" height="1.4520020982520994e-3" fill="#595959" fill-opacity="1.0" stroke="none"/><rect x="166.8316883116883" y="350.99564399370513" width="2.3725607725607647" height="4.356006294832089e-3" fill="#595959" fill-opacity="1.0" stroke="none"/><rect x="169.20424908424906" y="350.9985479979017" width="2.372560772560784" height="1.4520020982520994e-3" fill="#595959" fill-opacity="1.0" stroke="none"/><rect x="171.57680985680986" y="350.9985479979017" width="2.372560772560746" height="1.4520020982520994e-3" fill="#595959" fill-opacity="1.0" stroke="none"/><rect x="173.9493706293706" y="350.99564399370513" width="2.3725607725608215" height="4.356006294832089e-3" fill="#595959" fill-opacity="1.0" stroke="none"/><rect x="176.3219314019314" y="350.99564399370513" width="2.372560772560746" height="4.356006294832089e-3" fill="#595959" fill-opacity="1.0" stroke="none"/><rect x="178.69449217449215" y="350.9985479979017" width="2.372560772560746" height="1.4520020982520994e-3" fill="#595959" fill-opacity="1.0" stroke="none"/><rect x="181.0670529470529" y="350.99564399370513" width="2.3725607725608215" height="4.356006294832089e-3" fill="#595959" fill-opacity="1.0" stroke="none"/><rect x="183.43961371961373" y="350.9985479979017" width="2.372560772560746" height="1.4520020982520994e-3" fill="#595959" fill-opacity="1.0" stroke="none"/><rect x="185.81217449217448" y="350.9970959958035" width="2.372560772560784" height="2.9040041965041987e-3" fill="#595959" fill-opacity="1.0" stroke="none"/><rect x="190.55729603729606" y="350.9970959958035" width="2.372560772560746" height="2.9040041965041987e-3" fill="#595959" fill-opacity="1.0" stroke="none"/><rect x="192.9298568098568" y="350.9985479979017" width="2.372560772560784" height="1.4520020982520994e-3" fill="#595959" fill-opacity="1.0" stroke="none"/><rect x="200.0475391275391" y="350.9970959958035" width="2.372560772560784" height="2.9040041965041987e-3" fill="#595959" fill-opacity="1.0" stroke="none"/><rect x="202.4200999000999" y="350.9985479979017" width="2.372560772560784" height="1.4520020982520994e-3" fill="#595959" fill-opacity="1.0" stroke="none"/><rect x="204.79266067266067" y="350.9970959958035" width="2.372560772560746" height="2.9040041965041987e-3" fill="#595959" fill-opacity="1.0" stroke="none"/><rect x="207.16522144522142" y="350.99273998950866" width="2.372560772560784" height="7.260010491336288e-3" fill="#595959" fill-opacity="1.0" stroke="none"/><rect x="209.5377822177822" y="350.9970959958035" width="2.372560772560784" height="2.9040041965041987e-3" fill="#595959" fill-opacity="1.0" stroke="none"/><rect x="211.910342990343" y="350.9985479979017" width="2.372560772560746" height="1.4520020982520994e-3" fill="#595959" fill-opacity="1.0" stroke="none"/><rect x="214.28290376290374" y="350.9985479979017" width="2.372560772560784" height="1.4520020982520994e-3" fill="#595959" fill-opacity="1.0" stroke="none"/><rect x="216.65546453546452" y="350.9941919916069" width="2.372560772560784" height="5.808008393084188e-3" fill="#595959" fill-opacity="1.0" stroke="none"/><rect x="221.40058608058604" y="350.9985479979017" width="2.372560772560784" height="1.4520020982520994e-3" fill="#595959" fill-opacity="1.0" stroke="none"/><rect x="223.77314685314684" y="350.99564399370513" width="2.372560772560784" height="4.356006294832089e-3" fill="#595959" fill-opacity="1.0" stroke="none"/><rect x="226.14570762570762" y="350.9985479979017" width="2.372560772560746" height="1.4520020982520994e-3" fill="#595959" fill-opacity="1.0" stroke="none"/><rect x="233.26338994338994" y="350.9985479979017" width="2.372560772560784" height="1.4520020982520994e-3" fill="#595959" fill-opacity="1.0" stroke="none"/><rect x="240.38107226107223" y="350.9985479979017" width="2.372560772560784" height="1.4520020982520994e-3" fill="#595959" fill-opacity="1.0" stroke="none"/><rect x="242.75363303363304" y="350.9985479979017" width="2.372560772560784" height="1.4520020982520994e-3" fill="#595959" fill-opacity="1.0" stroke="none"/><rect x="259.36155844155843" y="350.9985479979017" width="2.372560772560746" height="1.4520020982520994e-3" fill="#595959" fill-opacity="1.0" stroke="none"/><rect x="261.7341192141192" y="350.9985479979017" width="2.372560772560784" height="1.4520020982520994e-3" fill="#595959" fill-opacity="1.0" stroke="none"/><rect x="287.83228771228767" y="350.9985479979017" width="2.372560772560784" height="1.4520020982520994e-3" fill="#595959" fill-opacity="1.0" stroke="none"/><rect x="0.0" y="0.0" width="0.0" height="0.0" fill="#ffffff" fill-opacity="1.0" stroke="none"/><rect x="371.84" y="39.599999999999994" width="237.49333333333334" height="311.4" fill="#ebebeb" fill-opacity="1.0" stroke="none"/><line x1="417.56064171122995" y1="39.599999999999994" x2="417.56064171122995" y2="351.0" stroke="#ffffff" stroke-width="0.6666666666666666"/><line x1="468.3613547237076" y1="39.599999999999994" x2="468.3613547237076" y2="351.0" stroke="#ffffff" stroke-width="0.6666666666666666"/><line x1="519.1620677361853" y1="39.599999999999994" x2="519.1620677361853" y2="351.0" stroke="#ffffff" stroke-width="0.6666666666666666"/><line x1="569.9627807486631" y1="39.599999999999994" x2="569.9627807486631" y2="351.0" stroke="#ffffff" stroke-width="0.6666666666666666"/><line x1="392.16028520499106" y1="39.599999999999994" x2="392.16028520499106" y2="351.0" stroke="#ffffff" stroke-width="1.3333333333333333"/><line x1="442.9609982174687" y1="39.599999999999994" x2="442.9609982174687" y2="351.0" stroke="#ffffff" stroke-width="1.3333333333333333"/><line x1="493.7617112299465" y1="39.599999999999994" x2="493.7617112299465" y2="351.0" stroke="#ffffff" stroke-width="1.3333333333333333"/><line x1="544.5624242424242" y1="39.599999999999994" x2="544.5624242424242" y2="351.0" stroke="#ffffff" stroke-width="1.3333333333333333"/><line x1="595.3631372549019" y1="39.599999999999994" x2="595.3631372549019" y2="351.0" stroke="#ffffff" stroke-width="1.3333333333333333"/><line x1="371.84" y1="317.6356809213952" x2="609.3333333333333" y2="317.6356809213952" stroke="#ffffff" stroke-width="0.6666666666666666"/><line x1="371.84" y1="250.9070427641856" x2="609.3333333333333" y2="250.9070427641856" stroke="#ffffff" stroke-width="0.6666666666666666"/><line x1="371.84" y1="184.17840460697602" x2="609.3333333333333" y2="184.17840460697602" stroke="#ffffff" stroke-width="0.6666666666666666"/><line x1="371.84" y1="117.44976644976646" x2="609.3333333333333" y2="117.44976644976646" stroke="#ffffff" stroke-width="0.6666666666666666"/><line x1="371.84" y1="50.72112829255688" x2="609.3333333333333" y2="50.72112829255688" stroke="#ffffff" stroke-width="0.6666666666666666"/><line x1="371.84" y1="351.0" x2="609.3333333333333" y2="351.0" stroke="#ffffff" stroke-width="1.3333333333333333"/><line x1="371.84" y1="284.2713618427904" x2="609.3333333333333" y2="284.2713618427904" stroke="#ffffff" stroke-width="1.3333333333333333"/><line x1="371.84" y1="217.54272368558082" x2="609.3333333333333" y2="217.54272368558082" stroke="#ffffff" stroke-width="1.3333333333333333"/><line x1="371.84" y1="150.8140855283712" x2="609.3333333333333" y2="150.8140855283712" stroke="#ffffff" stroke-width="1.3333333333333333"/><line x1="371.84" y1="84.08544737116165" x2="609.3333333333333" y2="84.08544737116165" stroke="#ffffff" stroke-width="1.3333333333333333"/><line x1="392.16028520499106" y1="351.0" x2="392.16028520499106" y2="354.66666666666663" stroke="#333333" stroke-width="1.3333333333333333"/><text x="392.16028520499106" y="366.9866666666667" fill="#4d4d4d" font-size="11.733333333333334" font-family="sans-serif" text-anchor="middle">-40</text><line x1="442.9609982174687" y1="351.0" x2="442.9609982174687" y2="354.66666666666663" stroke="#333333" stroke-width="1.3333333333333333"/><text x="442.9609982174687" y="366.9866666666667" fill="#4d4d4d" font-size="11.733333333333334" font-family="sans-serif" text-anchor="middle">0</text><line x1="493.7617112299465" y1="351.0" x2="493.7617112299465" y2="354.66666666666663" stroke="#333333" stroke-width="1.3333333333333333"/><text x="493.7617112299465" y="366.9866666666667" fill="#4d4d4d" font-size="11.733333333333334" font-family="sans-serif" text-anchor="middle">40</text><line x1="544.5624242424242" y1="351.0" x2="544.5624242424242" y2="354.66666666666663" stroke="#333333" stroke-width="1.3333333333333333"/><text x="544.5624242424242" y="366.9866666666667" fill="#4d4d4d" font-size="11.733333333333334" font-family="sans-serif" text-anchor="middle">80</text><line x1="595.3631372549019" y1="351.0" x2="595.3631372549019" y2="354.66666666666663" stroke="#333333" stroke-width="1.3333333333333333"/><text x="595.3631372549019" y="366.9866666666667" fill="#4d4d4d" font-size="11.733333333333334" font-family="sans-serif" text-anchor="middle">120</text><line x1="371.84" y1="351.0" x2="368.1733333333333" y2="351.0" stroke="#333333" stroke-width="1.3333333333333333"/><text x="365.24" y="355.1066666666666" fill="#4d4d4d" font-size="11.733333333333334" font-family="sans-serif" text-anchor="end">0</text><line x1="371.84" y1="284.2713618427904" x2="368.1733333333333" y2="284.2713618427904" stroke="#333333" stroke-width="1.3333333333333333"/><text x="365.24" y="288.37802850945707" fill="#4d4d4d" font-size="11.733333333333334" font-family="sans-serif" text-anchor="end">25000</text><line x1="371.84" y1="217.54272368558082" x2="368.1733333333333" y2="217.54272368558082" stroke="#333333" stroke-width="1.3333333333333333"/><text x="365.24" y="221.6493903522475" fill="#4d4d4d" font-size="11.733333333333334" font-family="sans-serif" text-anchor="end">50000</text><line x1="371.84" y1="150.8140855283712" x2="368.1733333333333" y2="150.8140855283712" stroke="#333333" stroke-width="1.3333333333333333"/><text x="365.24" y="154.9207521950379" fill="#4d4d4d" font-size="11.733333333333334" font-family="sans-serif" text-anchor="end">75000</text><line x1="371.84" y1="84.08544737116165" x2="368.1733333333333" y2="84.08544737116165" stroke="#333333" stroke-width="1.3333333333333333"/><text x="365.24" y="88.1921140378283" fill="#4d4d4d" font-size="11.733333333333334" font-family="sans-serif" text-anchor="end">100000</text><text x="371.84" y="28.74666666666667" fill="#000000" font-size="17.599999999999998" font-family="sans-serif" text-anchor="start">dep_delay &lt; 120 (binwidth 5)</text><rect x="382.6351515151515" y="350.99733085447366" width="6.350089126559699" height="2.669145526321396e-3" fill="#595959" fill-opacity="1.0" stroke="none"/><rect x="395.3353297682709" y="350.99733085447366" width="6.350089126559699" height="2.669145526321396e-3" fill="#595959" fill-opacity="1.0" stroke="none"/><rect x="401.6854188948306" y="350.99466170894743" width="6.350089126559699" height="5.338291052567001e-3" fill="#595959" fill-opacity="1.0" stroke="none"/><rect x="408.03550802139034" y="350.9626319626319" width="6.350089126559775" height="3.7368037368044796e-2" fill="#595959" fill-opacity="1.0" stroke="none"/><rect x="414.3855971479501" y="350.57293671579384" width="6.350089126559699" height="0.427063284206118" fill="#595959" fill-opacity="1.0" stroke="none"/><rect x="420.7356862745098" y="345.4508464508465" width="6.350089126559699" height="5.549153549153516" fill="#595959" fill-opacity="1.0" stroke="none"/><rect x="427.0857754010695" y="271.25126996555565" width="6.350089126559699" height="79.74873003444432" fill="#595959" fill-opacity="1.0" stroke="none"/><rect x="433.4358645276292" y="54.428571428571445" width="6.350089126559699" height="296.57142857142856" fill="#595959" fill-opacity="1.0" stroke="none"/><rect x="439.7859536541889" y="161.15435529721242" width="6.350089126559775" height="189.84564470278758" fill="#595959" fill-opacity="1.0" stroke="none"/><rect x="446.13604278074865" y="292.2440995298138" width="6.350089126559699" height="58.75590047018617" fill="#595959" fill-opacity="1.0" stroke="none"/><rect x="452.4861319073084" y="312.15859430145144" width="6.350089126559699" height="38.841405698548556" fill="#595959" fill-opacity="1.0" stroke="none"/><rect x="458.83622103386807" y="322.2586409729266" width="6.350089126559699" height="28.741359027073333" fill="#595959" fill-opacity="1.0" stroke="none"/><rect x="465.18631016042775" y="328.907482478911" width="6.350089126559699" height="22.09251752108897" fill="#595959" fill-opacity="1.0" stroke="none"/><rect x="471.5363992869875" y="332.9458996601853" width="6.350089126559699" height="18.054100339814642" fill="#595959" fill-opacity="1.0" stroke="none"/><rect x="477.88648841354717" y="336.0501159072587" width="6.350089126559775" height="14.949884092741247" fill="#595959" fill-opacity="1.0" stroke="none"/><rect x="484.23657754010696" y="338.59648073933784" width="6.350089126559699" height="12.403519260662126" fill="#595959" fill-opacity="1.0" stroke="none"/><rect x="490.58666666666664" y="340.2513509656367" width="6.350089126559699" height="10.748649034363325" fill="#595959" fill-opacity="1.0" stroke="none"/><rect x="496.9367557932263" y="341.5165259450974" width="6.350089126559775" height="9.483474054902596" fill="#595959" fill-opacity="1.0" stroke="none"/><rect x="503.2868449197861" y="342.83508383508376" width="6.350089126559699" height="8.164916164916196" fill="#595959" fill-opacity="1.0" stroke="none"/><rect x="509.6369340463458" y="343.6064668921812" width="6.350089126559699" height="7.393533107818787" fill="#595959" fill-opacity="1.0" stroke="none"/><rect x="515.9870231729055" y="344.36183507612077" width="6.350089126559699" height="6.638164923879231" fill="#595959" fill-opacity="1.0" stroke="none"/><rect x="522.3371122994652" y="345.13321813321807" width="6.350089126559699" height="5.8667818667818965" fill="#595959" fill-opacity="1.0" stroke="none"/><rect x="528.6872014260249" y="345.65637065637065" width="6.350089126559699" height="5.343629343629345" fill="#595959" fill-opacity="1.0" stroke="none"/><rect x="535.0372905525846" y="346.3530176387319" width="6.350089126559699" height="4.646982361268101" fill="#595959" fill-opacity="1.0" stroke="none"/><rect x="541.3873796791443" y="346.6733151018865" width="6.350089126559699" height="4.3266848981134745" fill="#595959" fill-opacity="1.0" stroke="none"/><rect x="547.737468805704" y="347.1190624047766" width="6.350089126559775" height="3.880937595223334" fill="#595959" fill-opacity="1.0" stroke="none"/><rect x="554.0875579322637" y="347.39398439398434" width="6.350089126559699" height="3.606015606015641" fill="#595959" fill-opacity="1.0" stroke="none"/><rect x="560.4376470588235" y="347.71962014819155" width="6.350089126559775" height="3.2803798518084477" fill="#595959" fill-opacity="1.0" stroke="none"/><rect x="566.7877361853832" y="348.04792504792505" width="6.350089126559699" height="2.9520749520749328" fill="#595959" fill-opacity="1.0" stroke="none"/><rect x="573.137825311943" y="348.3602150745008" width="6.350089126559699" height="2.6397849254991947" fill="#595959" fill-opacity="1.0" stroke="none"/><rect x="579.4879144385027" y="348.6538210823925" width="6.350089126559699" height="2.346178917607479" fill="#595959" fill-opacity="1.0" stroke="none"/><rect x="585.8380035650623" y="348.68318168318166" width="6.350089126559699" height="2.3168183168183227" fill="#595959" fill-opacity="1.0" stroke="none"/><rect x="592.188092691622" y="350.18591061448205" width="6.350089126559699" height="0.8140893855179456" fill="#595959" fill-opacity="1.0" stroke="none"/></svg>