<svg xmlns="http://www.w3.org/2000/svg" width="800" height="600" viewBox="0 0 800 600"><rect x="0.0" y="0.0" width="800.0" height="600.0" fill="#ffffff" fill-opacity="1.0" stroke="none"/><line x1="78.63131313131314" y1="27.0" x2="78.63131313131314" y2="578.55" stroke="#eeeeee" stroke-width="0.5"/><line x1="251.42171717171723" y1="27.0" x2="251.42171717171723" y2="578.55" stroke="#eeeeee" stroke-width="0.5"/><line x1="424.2121212121213" y1="27.0" x2="424.2121212121213" y2="578.55" stroke="#eeeeee" stroke-width="0.5"/><line x1="597.0025252525253" y1="27.0" x2="597.0025252525253" y2="578.55" stroke="#eeeeee" stroke-width="0.5"/><line x1="165.02651515151516" y1="27.0" x2="165.02651515151516" y2="578.55" stroke="#eeeeee" stroke-width="1.0"/><line x1="337.8169191919192" y1="27.0" x2="337.8169191919192" y2="578.55" stroke="#eeeeee" stroke-width="1.0"/><line x1="510.60732323232327" y1="27.0" x2="510.60732323232327" y2="578.55" stroke="#eeeeee" stroke-width="1.0"/><line x1="683.3977272727273" y1="27.0" x2="683.3977272727273" y2="578.55" stroke="#eeeeee" stroke-width="1.0"/><line x1="30.249999999999996" y1="509.59907206190394" x2="714.5" y2="509.59907206190394" stroke="#eeeeee" stroke-width="0.5"/><line x1="30.249999999999996" y1="418.093348558614" x2="714.5" y2="418.093348558614" stroke="#eeeeee" stroke-width="0.5"/><line x1="30.249999999999996" y1="326.58762505532417" x2="714.5" y2="326.58762505532417" stroke="#eeeeee" stroke-width="0.5"/><line x1="30.249999999999996" y1="235.08190155203425" x2="714.5" y2="235.08190155203425" stroke="#eeeeee" stroke-width="0.5"/><line x1="30.249999999999996" y1="143.5761780487444" x2="714.5" y2="143.5761780487444" stroke="#eeeeee" stroke-width="0.5"/><line x1="30.249999999999996" y1="52.07045454545448" x2="714.5" y2="52.07045454545448" stroke="#eeeeee" stroke-width="0.5"/><line x1="30.249999999999996" y1="555.3519338135488" x2="714.5" y2="555.3519338135488" stroke="#eeeeee" stroke-width="1.0"/><line x1="30.249999999999996" y1="463.846210310259" x2="714.5" y2="463.846210310259" stroke="#eeeeee" stroke-width="1.0"/><line x1="30.249999999999996" y1="372.3404868069691" x2="714.5" y2="372.3404868069691" stroke="#eeeeee" stroke-width="1.0"/><line x1="30.249999999999996" y1="280.8347633036792" x2="714.5" y2="280.8347633036792" stroke="#eeeeee" stroke-width="1.0"/><line x1="30.249999999999996" y1="189.32903980038935" x2="714.5" y2="189.32903980038935" stroke="#eeeeee" stroke-width="1.0"/><line x1="30.249999999999996" y1="97.82331629709944" x2="714.5" y2="97.82331629709944" stroke="#eeeeee" stroke-width="1.0"/><rect x="30.249999999999996" y="27.0" width="684.25" height="551.55" fill="#ffffff" fill-opacity="0.0" stroke="#333333" stroke-width="1.0"/><line x1="165.02651515151516" y1="578.55" x2="165.02651515151516" y2="581.3" stroke="#333333" stroke-width="1.0"/><text x="165.02651515151516" y="592.3" fill="#333333" font-size="11.0" font-family="sans-serif" text-anchor="middle">2.5</text><line x1="337.8169191919192" y1="578.55" x2="337.8169191919192" y2="581.3" stroke="#333333" stroke-width="1.0"/><text x="337.8169191919192" y="592.3" fill="#333333" font-size="11.0" font-family="sans-serif" text-anchor="middle">5</text><line x1="510.60732323232327" y1="578.55" x2="510.60732323232327" y2="581.3" stroke="#333333" stroke-width="1.0"/><text x="510.60732323232327" y="592.3" fill="#333333" font-size="11.0" font-family="sans-serif" text-anchor="middle">7.5</text><line x1="683.3977272727273" y1="578.55" x2="683.3977272727273" y2="581.3" stroke="#333333" stroke-width="1.0"/><text x="683.3977272727273" y="592.3" fill="#333333" font-size="11.0" font-family="sans-serif" text-anchor="middle">10</text><line x1="30.249999999999996" y1="555.3519338135488" x2="27.499999999999996" y2="555.3519338135488" stroke="#333333" stroke-width="1.0"/><text x="25.299999999999997" y="559.2019338135489" fill="#333333" font-size="11.0" font-family="sans-serif" text-anchor="end">-10</text><line x1="30.249999999999996" y1="463.846210310259" x2="27.499999999999996" y2="463.846210310259" stroke="#333333" stroke-width="1.0"/><text x="25.299999999999997" y="467.696210310259" fill="#333333" font-size="11.0" font-family="sans-serif" text-anchor="end">0</text><line x1="30.249999999999996" y1="372.3404868069691" x2="27.499999999999996" y2="372.3404868069691" stroke="#333333" stroke-width="1.0"/><text x="25.299999999999997" y="376.19048680696915" fill="#333333" font-size="11.0" font-family="sans-serif" text-anchor="end">10</text><line x1="30.249999999999996" y1="280.8347633036792" x2="27.499999999999996" y2="280.8347633036792" stroke="#333333" stroke-width="1.0"/><text x="25.299999999999997" y="284.68476330367923" fill="#333333" font-size="11.0" font-family="sans-serif" text-anchor="end">20</text><line x1="30.249999999999996" y1="189.32903980038935" x2="27.499999999999996" y2="189.32903980038935" stroke="#333333" stroke-width="1.0"/><text x="25.299999999999997" y="193.17903980038935" fill="#333333" font-size="11.0" font-family="sans-serif" text-anchor="end">30</text><line x1="30.249999999999996" y1="97.82331629709944" x2="27.499999999999996" y2="97.82331629709944" stroke="#333333" stroke-width="1.0"/><text x="25.299999999999997" y="101.67331629709943" fill="#333333" font-size="11.0" font-family="sans-serif" text-anchor="end">40</text><text x="372.375" y="18.3" fill="#333333" font-size="16.0" font-family="sans-serif" text-anchor="middle">df 連携 + 装飾の積層</text><circle cx="61.35227272727272" cy="436.39449325927205" r="6.0" fill="#F8766D" fill-opacity="0.85" stroke="#F8766D" stroke-width="1.0"><title>(1, 3)</title></circle><circle cx="130.46843434343435" cy="418.093348558614" r="6.0" fill="#C49A00" fill-opacity="0.85" stroke="#C49A00" stroke-width="1.0"><title>(2, 5)</title></circle><circle cx="199.58459595959602" cy="399.7922038579561" r="6.0" fill="#F8766D" fill-opacity="0.85" stroke="#F8766D" stroke-width="1.0"><title>(3, 7)</title></circle><circle cx="268.7007575757576" cy="381.4910591572981" r="6.0" fill="#C49A00" fill-opacity="0.85" stroke="#C49A00" stroke-width="1.0"><title>(4, 9)</title></circle><circle cx="337.8169191919192" cy="363.1899144566401" r="6.0" fill="#F8766D" fill-opacity="0.85" stroke="#F8766D" stroke-width="1.0"><title>(5, 11)</title></circle><circle cx="406.9330808080809" cy="344.88876975598214" r="6.0" fill="#C49A00" fill-opacity="0.85" stroke="#C49A00" stroke-width="1.0"><title>(6, 13)</title></circle><circle cx="476.0492424242425" cy="326.58762505532417" r="6.0" fill="#F8766D" fill-opacity="0.85" stroke="#F8766D" stroke-width="1.0"><title>(7, 15)</title></circle><circle cx="545.165404040404" cy="308.2864803546662" r="6.0" fill="#C49A00" fill-opacity="0.85" stroke="#C49A00" stroke-width="1.0"><title>(8, 17)</title></circle><circle cx="614.2815656565657" cy="289.9853356540082" r="6.0" fill="#F8766D" fill-opacity="0.85" stroke="#F8766D" stroke-width="1.0"><title>(9, 19)</title></circle><circle cx="683.3977272727273" cy="52.07045454545448" r="6.0" fill="#C49A00" fill-opacity="0.85" stroke="#C49A00" stroke-width="1.0"><title>(10, 45)</title></circle><path d="M 61.35227272727272 383.19707347356814 L 130.46843434343435 365.8487148620851 L 199.58459595959602 347.0484039492602 L 268.7007575757576 325.819311950229 L 337.8169191919192 300.72078683319 L 406.9330808080809 270.4407110557377 L 476.0492424242425 234.97908461787216 L 545.165404040404 195.6480250619988 L 614.2815656565657 153.88818441991918 L 683.3977272727273 110.6763914764976 L 683.3977272727273 280.9588634574749 L 614.2815656565657 298.3072220689579 L 545.165404040404 317.1075329817828 L 476.0492424242425 338.336624980814 L 406.9330808080809 363.43515009785307 L 337.8169191919192 393.71522587530535 L 268.7007575757576 429.1768523131709 L 199.58459595959602 468.5079118690443 L 130.46843434343435 510.2677525111239 L 61.35227272727272 553.4795454545454 Z" fill="#d62728" fill-opacity="0.15" stroke="none"/><line x1="61.35227272727272" y1="468.3383094640568" x2="130.46843434343435" y2="438.0582336866045" stroke="#d62728" stroke-width="2.0"/><line x1="130.46843434343435" y1="438.0582336866045" x2="199.58459595959602" y2="407.7781579091522" stroke="#d62728" stroke-width="2.0"/><line x1="199.58459595959602" y1="407.7781579091522" x2="268.7007575757576" y2="377.49808213169996" stroke="#d62728" stroke-width="2.0"/><line x1="268.7007575757576" y1="377.49808213169996" x2="337.8169191919192" y2="347.2180063542476" stroke="#d62728" stroke-width="2.0"/><line x1="337.8169191919192" y1="347.2180063542476" x2="406.9330808080809" y2="316.9379305767954" stroke="#d62728" stroke-width="2.0"/><line x1="406.9330808080809" y1="316.9379305767954" x2="476.0492424242425" y2="286.6578547993431" stroke="#d62728" stroke-width="2.0"/><line x1="476.0492424242425" y1="286.6578547993431" x2="545.165404040404" y2="256.37777902189083" stroke="#d62728" stroke-width="2.0"/><line x1="545.165404040404" y1="256.37777902189083" x2="614.2815656565657" y2="226.0977032444385" stroke="#d62728" stroke-width="2.0"/><line x1="614.2815656565657" y1="226.0977032444385" x2="683.3977272727273" y2="195.81762746698627" stroke="#d62728" stroke-width="2.0"/><line x1="61.35227272727272" y1="436.39449759093407" x2="130.46843434343435" y2="418.09335126106845" stroke="#1f77b4" stroke-width="1.5"/><line x1="130.46843434343435" y1="418.09335126106845" x2="199.58459595959602" y2="399.79220493120283" stroke="#1f77b4" stroke-width="1.5"/><line x1="199.58459595959602" y1="399.79220493120283" x2="268.7007575757576" y2="381.4910586013373" stroke="#1f77b4" stroke-width="1.5"/><line x1="268.7007575757576" y1="381.4910586013373" x2="337.8169191919192" y2="363.1899122714717" stroke="#1f77b4" stroke-width="1.5"/><line x1="337.8169191919192" y1="363.1899122714717" x2="406.9330808080809" y2="344.88876594160615" stroke="#1f77b4" stroke-width="1.5"/><line x1="406.9330808080809" y1="344.88876594160615" x2="476.0492424242425" y2="326.5876196117405" stroke="#1f77b4" stroke-width="1.5"/><line x1="476.0492424242425" y1="326.5876196117405" x2="545.165404040404" y2="308.2864732818749" stroke="#1f77b4" stroke-width="1.5"/><line x1="545.165404040404" y1="308.2864732818749" x2="614.2815656565657" y2="289.98532695200936" stroke="#1f77b4" stroke-width="1.5"/><line x1="614.2815656565657" y1="289.98532695200936" x2="683.3977272727273" y2="271.6841806221438" stroke="#1f77b4" stroke-width="1.5"/><line x1="30.249999999999996" y1="332.07796846552156" x2="714.5" y2="332.07796846552156" stroke="#333333" stroke-width="1.5"/><circle cx="729.5" cy="45.0" r="5.0" fill="#F8766D" fill-opacity="1.0" stroke="#F8766D" stroke-width="1.0"/><text x="738.5" y="49.0" fill="#333333" font-size="10.0" font-family="sans-serif" text-anchor="start">A</text><circle cx="729.5" cy="61.0" r="5.0" fill="#C49A00" fill-opacity="1.0" stroke="#C49A00" stroke-width="1.0"/><text x="738.5" y="65.0" fill="#333333" font-size="10.0" font-family="sans-serif" text-anchor="start">B</text></svg>