<svg xmlns="http://www.w3.org/2000/svg" width="624" height="384" viewBox="0 0 624 384"><rect x="0.0" y="0.0" width="624.0" height="384.0" fill="#ffffff" fill-opacity="1.0" stroke="none"/><line x1="155.90805194805196" y1="7.333333333333333" x2="155.90805194805196" y2="358.3333333333333" stroke="#dddddd" stroke-width="0.6666666666666666"/><line x1="344.7435497835497" y1="7.333333333333333" x2="344.7435497835497" y2="358.3333333333333" stroke="#dddddd" stroke-width="0.6666666666666666"/><line x1="533.5790476190476" y1="7.333333333333333" x2="533.5790476190476" y2="358.3333333333333" stroke="#dddddd" stroke-width="0.6666666666666666"/><line x1="61.49030303030304" y1="7.333333333333333" x2="61.49030303030304" y2="358.3333333333333" stroke="#dddddd" stroke-width="1.3333333333333333"/><line x1="250.32580086580086" y1="7.333333333333333" x2="250.32580086580086" y2="358.3333333333333" stroke="#dddddd" stroke-width="1.3333333333333333"/><line x1="439.16129870129873" y1="7.333333333333333" x2="439.16129870129873" y2="358.3333333333333" stroke="#dddddd" stroke-width="1.3333333333333333"/><line x1="35.05333333333333" y1="312.95657452682696" x2="616.6666666666666" y2="312.95657452682696" stroke="#dddddd" stroke-width="0.6666666666666666"/><line x1="35.05333333333333" y1="254.11214782290523" x2="616.6666666666666" y2="254.11214782290523" stroke="#dddddd" stroke-width="0.6666666666666666"/><line x1="35.05333333333333" y1="195.26772111898345" x2="616.6666666666666" y2="195.26772111898345" stroke="#dddddd" stroke-width="0.6666666666666666"/><line x1="35.05333333333333" y1="136.42329441506172" x2="616.6666666666666" y2="136.42329441506172" stroke="#dddddd" stroke-width="0.6666666666666666"/><line x1="35.05333333333333" y1="77.57886771113995" x2="616.6666666666666" y2="77.57886771113995" stroke="#dddddd" stroke-width="0.6666666666666666"/><line x1="35.05333333333333" y1="18.734441007218187" x2="616.6666666666666" y2="18.734441007218187" stroke="#dddddd" stroke-width="0.6666666666666666"/><line x1="35.05333333333333" y1="342.3787878787879" x2="616.6666666666666" y2="342.3787878787879" stroke="#dddddd" stroke-width="1.3333333333333333"/><line x1="35.05333333333333" y1="283.5343611748661" x2="616.6666666666666" y2="283.5343611748661" stroke="#dddddd" stroke-width="1.3333333333333333"/><line x1="35.05333333333333" y1="224.68993447094434" x2="616.6666666666666" y2="224.68993447094434" stroke="#dddddd" stroke-width="1.3333333333333333"/><line x1="35.05333333333333" y1="165.84550776702258" x2="616.6666666666666" y2="165.84550776702258" stroke="#dddddd" stroke-width="1.3333333333333333"/><line x1="35.05333333333333" y1="107.00108106310086" x2="616.6666666666666" y2="107.00108106310086" stroke="#dddddd" stroke-width="1.3333333333333333"/><line x1="35.05333333333333" y1="48.156654359179086" x2="616.6666666666666" y2="48.156654359179086" stroke="#dddddd" stroke-width="1.3333333333333333"/><rect x="35.05333333333333" y="7.333333333333333" width="581.6133333333332" height="351.0" fill="#ffffff" fill-opacity="0.0" stroke="#444444" stroke-width="1.3333333333333333"/><line x1="61.49030303030304" y1="358.3333333333333" x2="61.49030303030304" y2="362.0" stroke="#444444" stroke-width="1.3333333333333333"/><text x="61.49030303030304" y="374.32" fill="#333333" font-size="11.733333333333334" font-family="sans-serif" text-anchor="middle">0</text><line x1="250.32580086580086" y1="358.3333333333333" x2="250.32580086580086" y2="362.0" stroke="#444444" stroke-width="1.3333333333333333"/><text x="250.32580086580086" y="374.32" fill="#333333" font-size="11.733333333333334" font-family="sans-serif" text-anchor="middle">5</text><line x1="439.16129870129873" y1="358.3333333333333" x2="439.16129870129873" y2="362.0" stroke="#444444" stroke-width="1.3333333333333333"/><text x="439.16129870129873" y="374.32" fill="#333333" font-size="11.733333333333334" font-family="sans-serif" text-anchor="middle">10</text><line x1="35.05333333333333" y1="342.3787878787879" x2="31.386666666666663" y2="342.3787878787879" stroke="#444444" stroke-width="1.3333333333333333"/><text x="28.453333333333333" y="346.48545454545456" fill="#333333" font-size="11.733333333333334" font-family="sans-serif" text-anchor="end">0.0</text><line x1="35.05333333333333" y1="283.5343611748661" x2="31.386666666666663" y2="283.5343611748661" stroke="#444444" stroke-width="1.3333333333333333"/><text x="28.453333333333333" y="287.6410278415328" fill="#333333" font-size="11.733333333333334" font-family="sans-serif" text-anchor="end">0.1</text><line x1="35.05333333333333" y1="224.68993447094434" x2="31.386666666666663" y2="224.68993447094434" stroke="#444444" stroke-width="1.3333333333333333"/><text x="28.453333333333333" y="228.79660113761102" fill="#333333" font-size="11.733333333333334" font-family="sans-serif" text-anchor="end">0.2</text><line x1="35.05333333333333" y1="165.84550776702258" x2="31.386666666666663" y2="165.84550776702258" stroke="#444444" stroke-width="1.3333333333333333"/><text x="28.453333333333333" y="169.95217443368924" fill="#333333" font-size="11.733333333333334" font-family="sans-serif" text-anchor="end">0.3</text><line x1="35.05333333333333" y1="107.00108106310086" x2="31.386666666666663" y2="107.00108106310086" stroke="#444444" stroke-width="1.3333333333333333"/><text x="28.453333333333333" y="111.10774772976751" fill="#333333" font-size="11.733333333333334" font-family="sans-serif" text-anchor="end">0.4</text><line x1="35.05333333333333" y1="48.156654359179086" x2="31.386666666666663" y2="48.156654359179086" stroke="#444444" stroke-width="1.3333333333333333"/><text x="28.453333333333333" y="52.263321025845755" fill="#333333" font-size="11.733333333333334" font-family="sans-serif" text-anchor="end">0.5</text><line x1="61.49030303030304" y1="342.3787878787879" x2="99.2574025974026" y2="342.3787878787879" stroke="#4575b4" stroke-width="1.4211023622047245"/><line x1="99.2574025974026" y1="342.3787878787879" x2="99.2574025974026" y2="300.3470545188437" stroke="#4575b4" stroke-width="1.4211023622047245"/><line x1="99.2574025974026" y1="300.3470545188437" x2="137.02450216450217" y2="300.3470545188437" stroke="#4575b4" stroke-width="1.4211023622047245"/><line x1="137.02450216450217" y1="300.3470545188437" x2="137.02450216450217" y2="300.3470545188437" stroke="#4575b4" stroke-width="1.4211023622047245"/><line x1="137.02450216450217" y1="300.3470545188437" x2="174.7916017316017" y2="300.3470545188437" stroke="#4575b4" stroke-width="1.4211023622047245"/><line x1="174.7916017316017" y1="300.3470545188437" x2="174.7916017316017" y2="258.3153211588997" stroke="#4575b4" stroke-width="1.4211023622047245"/><line x1="174.7916017316017" y1="258.3153211588997" x2="250.32580086580086" y2="258.3153211588997" stroke="#4575b4" stroke-width="1.4211023622047245"/><line x1="250.32580086580086" y1="258.3153211588997" x2="250.32580086580086" y2="258.3153211588997" stroke="#4575b4" stroke-width="1.4211023622047245"/><line x1="250.32580086580086" y1="258.3153211588997" x2="288.0929004329004" y2="258.3153211588997" stroke="#4575b4" stroke-width="1.4211023622047245"/><line x1="288.0929004329004" y1="258.3153211588997" x2="288.0929004329004" y2="212.08041446296116" stroke="#4575b4" stroke-width="1.4211023622047245"/><line x1="288.0929004329004" y1="212.08041446296116" x2="325.86" y2="212.08041446296116" stroke="#4575b4" stroke-width="1.4211023622047245"/><line x1="325.86" y1="212.08041446296116" x2="325.86" y2="212.08041446296116" stroke="#4575b4" stroke-width="1.4211023622047245"/><line x1="325.86" y1="212.08041446296116" x2="401.3941991341992" y2="212.08041446296116" stroke="#4575b4" stroke-width="1.4211023622047245"/><line x1="401.3941991341992" y1="212.08041446296116" x2="401.3941991341992" y2="158.13968998436616" stroke="#4575b4" stroke-width="1.4211023622047245"/><line x1="401.3941991341992" y1="158.13968998436616" x2="439.16129870129873" y2="158.13968998436616" stroke="#4575b4" stroke-width="1.4211023622047245"/><line x1="439.16129870129873" y1="158.13968998436616" x2="439.16129870129873" y2="158.13968998436616" stroke="#4575b4" stroke-width="1.4211023622047245"/><line x1="439.16129870129873" y1="158.13968998436616" x2="476.92839826839827" y2="158.13968998436616" stroke="#4575b4" stroke-width="1.4211023622047245"/><line x1="476.92839826839827" y1="158.13968998436616" x2="476.92839826839827" y2="104.19896550577121" stroke="#4575b4" stroke-width="1.4211023622047245"/><line x1="476.92839826839827" y1="104.19896550577121" x2="552.4625974025973" y2="104.19896550577121" stroke="#4575b4" stroke-width="1.4211023622047245"/><line x1="552.4625974025973" y1="104.19896550577121" x2="552.4625974025973" y2="104.19896550577121" stroke="#4575b4" stroke-width="1.4211023622047245"/><line x1="552.4625974025973" y1="104.19896550577121" x2="590.229696969697" y2="104.19896550577121" stroke="#4575b4" stroke-width="1.4211023622047245"/><line x1="590.229696969697" y1="104.19896550577121" x2="590.229696969697" y2="23.28787878787879" stroke="#4575b4" stroke-width="1.4211023622047245"/><line x1="61.49030303030304" y1="342.3787878787879" x2="99.2574025974026" y2="342.3787878787879" stroke="#d73027" stroke-width="1.4211023622047245"/><line x1="99.2574025974026" y1="342.3787878787879" x2="99.2574025974026" y2="342.3787878787879" stroke="#d73027" stroke-width="1.4211023622047245"/><line x1="99.2574025974026" y1="342.3787878787879" x2="137.02450216450217" y2="342.3787878787879" stroke="#d73027" stroke-width="1.4211023622047245"/><line x1="137.02450216450217" y1="342.3787878787879" x2="137.02450216450217" y2="300.3470545188437" stroke="#d73027" stroke-width="1.4211023622047245"/><line x1="137.02450216450217" y1="300.3470545188437" x2="174.7916017316017" y2="300.3470545188437" stroke="#d73027" stroke-width="1.4211023622047245"/><line x1="174.7916017316017" y1="300.3470545188437" x2="174.7916017316017" y2="300.3470545188437" stroke="#d73027" stroke-width="1.4211023622047245"/><line x1="174.7916017316017" y1="300.3470545188437" x2="250.32580086580086" y2="300.3470545188437" stroke="#d73027" stroke-width="1.4211023622047245"/><line x1="250.32580086580086" y1="300.3470545188437" x2="250.32580086580086" y2="254.11214782290523" stroke="#d73027" stroke-width="1.4211023622047245"/><line x1="250.32580086580086" y1="254.11214782290523" x2="288.0929004329004" y2="254.11214782290523" stroke="#d73027" stroke-width="1.4211023622047245"/><line x1="288.0929004329004" y1="254.11214782290523" x2="288.0929004329004" y2="254.11214782290523" stroke="#d73027" stroke-width="1.4211023622047245"/><line x1="288.0929004329004" y1="254.11214782290523" x2="325.86" y2="254.11214782290523" stroke="#d73027" stroke-width="1.4211023622047245"/><line x1="325.86" y1="254.11214782290523" x2="325.86" y2="207.87724112696674" stroke="#d73027" stroke-width="1.4211023622047245"/><line x1="325.86" y1="207.87724112696674" x2="401.3941991341992" y2="207.87724112696674" stroke="#d73027" stroke-width="1.4211023622047245"/><line x1="401.3941991341992" y1="207.87724112696674" x2="401.3941991341992" y2="207.87724112696674" stroke="#d73027" stroke-width="1.4211023622047245"/><line x1="401.3941991341992" y1="207.87724112696674" x2="439.16129870129873" y2="207.87724112696674" stroke="#d73027" stroke-width="1.4211023622047245"/><line x1="439.16129870129873" y1="207.87724112696674" x2="439.16129870129873" y2="153.93651664837182" stroke="#d73027" stroke-width="1.4211023622047245"/><line x1="439.16129870129873" y1="153.93651664837182" x2="476.92839826839827" y2="153.93651664837182" stroke="#d73027" stroke-width="1.4211023622047245"/><line x1="476.92839826839827" y1="153.93651664837182" x2="476.92839826839827" y2="153.93651664837182" stroke="#d73027" stroke-width="1.4211023622047245"/><line x1="476.92839826839827" y1="153.93651664837182" x2="552.4625974025973" y2="153.93651664837182" stroke="#d73027" stroke-width="1.4211023622047245"/><line x1="552.4625974025973" y1="153.93651664837182" x2="552.4625974025973" y2="73.02542993047939" stroke="#d73027" stroke-width="1.4211023622047245"/><line x1="552.4625974025973" y1="73.02542993047939" x2="590.229696969697" y2="73.02542993047939" stroke="#d73027" stroke-width="1.4211023622047245"/><line x1="590.229696969697" y1="73.02542993047939" x2="590.229696969697" y2="73.02542993047939" stroke="#d73027" stroke-width="1.4211023622047245"/></svg>