<svg xmlns="http://www.w3.org/2000/svg" width="800" height="600" viewBox="0 0 800 600"><rect x="0.0" y="0.0" width="800.0" height="600.0" fill="#ffffff" fill-opacity="1.0" stroke="none"/><line x1="189.05519480519484" y1="5.5" x2="189.05519480519484" y2="578.55" stroke="#dddddd" stroke-width="0.5"/><line x1="437.18831168831167" y1="5.5" x2="437.18831168831167" y2="578.55" stroke="#dddddd" stroke-width="0.5"/><line x1="685.3214285714287" y1="5.5" x2="685.3214285714287" y2="578.55" stroke="#dddddd" stroke-width="0.5"/><line x1="64.98863636363636" y1="5.5" x2="64.98863636363636" y2="578.55" stroke="#dddddd" stroke-width="1.0"/><line x1="313.1217532467533" y1="5.5" x2="313.1217532467533" y2="578.55" stroke="#dddddd" stroke-width="1.0"/><line x1="561.2548701298701" y1="5.5" x2="561.2548701298701" y2="578.55" stroke="#dddddd" stroke-width="1.0"/><line x1="30.249999999999996" y1="504.4669469114858" x2="794.5" y2="504.4669469114858" stroke="#dddddd" stroke-width="0.5"/><line x1="30.249999999999996" y1="408.3962952799121" x2="794.5" y2="408.3962952799121" stroke="#dddddd" stroke-width="0.5"/><line x1="30.249999999999996" y1="312.3256436483384" x2="794.5" y2="312.3256436483384" stroke="#dddddd" stroke-width="0.5"/><line x1="30.249999999999996" y1="216.2549920167648" x2="794.5" y2="216.2549920167648" stroke="#dddddd" stroke-width="0.5"/><line x1="30.249999999999996" y1="120.18434038519115" x2="794.5" y2="120.18434038519115" stroke="#dddddd" stroke-width="0.5"/><line x1="30.249999999999996" y1="24.113688753617453" x2="794.5" y2="24.113688753617453" stroke="#dddddd" stroke-width="0.5"/><line x1="30.249999999999996" y1="552.5022727272727" x2="794.5" y2="552.5022727272727" stroke="#dddddd" stroke-width="1.0"/><line x1="30.249999999999996" y1="456.43162109569903" x2="794.5" y2="456.43162109569903" stroke="#dddddd" stroke-width="1.0"/><line x1="30.249999999999996" y1="360.36096946412533" x2="794.5" y2="360.36096946412533" stroke="#dddddd" stroke-width="1.0"/><line x1="30.249999999999996" y1="264.29031783255164" x2="794.5" y2="264.29031783255164" stroke="#dddddd" stroke-width="1.0"/><line x1="30.249999999999996" y1="168.219666200978" x2="794.5" y2="168.219666200978" stroke="#dddddd" stroke-width="1.0"/><line x1="30.249999999999996" y1="72.1490145694043" x2="794.5" y2="72.1490145694043" stroke="#dddddd" stroke-width="1.0"/><rect x="30.249999999999996" y="5.5" width="764.25" height="573.05" fill="#ffffff" fill-opacity="0.0" stroke="#444444" stroke-width="1.0"/><line x1="64.98863636363636" y1="578.55" x2="64.98863636363636" y2="581.3" stroke="#444444" stroke-width="1.0"/><text x="64.98863636363636" y="592.3" fill="#333333" font-size="11.0" font-family="sans-serif" text-anchor="middle">0</text><line x1="313.1217532467533" y1="578.55" x2="313.1217532467533" y2="581.3" stroke="#444444" stroke-width="1.0"/><text x="313.1217532467533" y="592.3" fill="#333333" font-size="11.0" font-family="sans-serif" text-anchor="middle">5</text><line x1="561.2548701298701" y1="578.55" x2="561.2548701298701" y2="581.3" stroke="#444444" stroke-width="1.0"/><text x="561.2548701298701" y="592.3" fill="#333333" font-size="11.0" font-family="sans-serif" text-anchor="middle">10</text><line x1="30.249999999999996" y1="552.5022727272727" x2="27.499999999999996" y2="552.5022727272727" stroke="#444444" stroke-width="1.0"/><text x="25.299999999999997" y="556.3522727272727" fill="#333333" font-size="11.0" font-family="sans-serif" text-anchor="end">0</text><line x1="30.249999999999996" y1="456.43162109569903" x2="27.499999999999996" y2="456.43162109569903" stroke="#444444" stroke-width="1.0"/><text x="25.299999999999997" y="460.28162109569905" fill="#333333" font-size="11.0" font-family="sans-serif" text-anchor="end">0.1</text><line x1="30.249999999999996" y1="360.36096946412533" x2="27.499999999999996" y2="360.36096946412533" stroke="#444444" stroke-width="1.0"/><text x="25.299999999999997" y="364.21096946412536" fill="#333333" font-size="11.0" font-family="sans-serif" text-anchor="end">0.2</text><line x1="30.249999999999996" y1="264.29031783255164" x2="27.499999999999996" y2="264.29031783255164" stroke="#444444" stroke-width="1.0"/><text x="25.299999999999997" y="268.14031783255166" fill="#333333" font-size="11.0" font-family="sans-serif" text-anchor="end">0.3</text><line x1="30.249999999999996" y1="168.219666200978" x2="27.499999999999996" y2="168.219666200978" stroke="#444444" stroke-width="1.0"/><text x="25.299999999999997" y="172.069666200978" fill="#333333" font-size="11.0" font-family="sans-serif" text-anchor="end">0.4</text><line x1="30.249999999999996" y1="72.1490145694043" x2="27.499999999999996" y2="72.1490145694043" stroke="#444444" stroke-width="1.0"/><text x="25.299999999999997" y="75.9990145694043" fill="#333333" font-size="11.0" font-family="sans-serif" text-anchor="end">0.5</text><line x1="64.98863636363636" y1="552.5022727272727" x2="114.61525974025976" y2="552.5022727272727" stroke="#4575b4" stroke-width="1.5"/><line x1="114.61525974025976" y1="552.5022727272727" x2="114.61525974025976" y2="483.8803787047201" stroke="#4575b4" stroke-width="1.5"/><line x1="114.61525974025976" y1="483.8803787047201" x2="164.24188311688314" y2="483.8803787047201" stroke="#4575b4" stroke-width="1.5"/><line x1="164.24188311688314" y1="483.8803787047201" x2="164.24188311688314" y2="483.8803787047201" stroke="#4575b4" stroke-width="1.5"/><line x1="164.24188311688314" y1="483.8803787047201" x2="213.86850649350652" y2="483.8803787047201" stroke="#4575b4" stroke-width="1.5"/><line x1="213.86850649350652" y1="483.8803787047201" x2="213.86850649350652" y2="415.2584846821674" stroke="#4575b4" stroke-width="1.5"/><line x1="213.86850649350652" y1="415.2584846821674" x2="313.1217532467533" y2="415.2584846821674" stroke="#4575b4" stroke-width="1.5"/><line x1="313.1217532467533" y1="415.2584846821674" x2="313.1217532467533" y2="415.2584846821674" stroke="#4575b4" stroke-width="1.5"/><line x1="313.1217532467533" y1="415.2584846821674" x2="362.74837662337666" y2="415.2584846821674" stroke="#4575b4" stroke-width="1.5"/><line x1="362.74837662337666" y1="415.2584846821674" x2="362.74837662337666" y2="339.77440125735956" stroke="#4575b4" stroke-width="1.5"/><line x1="362.74837662337666" y1="339.77440125735956" x2="412.37500000000006" y2="339.77440125735956" stroke="#4575b4" stroke-width="1.5"/><line x1="412.37500000000006" y1="339.77440125735956" x2="412.37500000000006" y2="339.77440125735956" stroke="#4575b4" stroke-width="1.5"/><line x1="412.37500000000006" y1="339.77440125735956" x2="511.6282467532468" y2="339.77440125735956" stroke="#4575b4" stroke-width="1.5"/><line x1="511.6282467532468" y1="339.77440125735956" x2="511.6282467532468" y2="251.70963726175034" stroke="#4575b4" stroke-width="1.5"/><line x1="511.6282467532468" y1="251.70963726175034" x2="561.2548701298701" y2="251.70963726175034" stroke="#4575b4" stroke-width="1.5"/><line x1="561.2548701298701" y1="251.70963726175034" x2="561.2548701298701" y2="251.70963726175034" stroke="#4575b4" stroke-width="1.5"/><line x1="561.2548701298701" y1="251.70963726175034" x2="610.8814935064935" y2="251.70963726175034" stroke="#4575b4" stroke-width="1.5"/><line x1="610.8814935064935" y1="251.70963726175034" x2="610.8814935064935" y2="163.64487326614113" stroke="#4575b4" stroke-width="1.5"/><line x1="610.8814935064935" y1="163.64487326614113" x2="710.1347402597403" y2="163.64487326614113" stroke="#4575b4" stroke-width="1.5"/><line x1="710.1347402597403" y1="163.64487326614113" x2="710.1347402597403" y2="163.64487326614113" stroke="#4575b4" stroke-width="1.5"/><line x1="710.1347402597403" y1="163.64487326614113" x2="759.7613636363636" y2="163.64487326614113" stroke="#4575b4" stroke-width="1.5"/><line x1="759.7613636363636" y1="163.64487326614113" x2="759.7613636363636" y2="31.54772727272723" stroke="#4575b4" stroke-width="1.5"/><line x1="64.98863636363636" y1="552.5022727272727" x2="114.61525974025976" y2="552.5022727272727" stroke="#d73027" stroke-width="1.5"/><line x1="114.61525974025976" y1="552.5022727272727" x2="114.61525974025976" y2="552.5022727272727" stroke="#d73027" stroke-width="1.5"/><line x1="114.61525974025976" y1="552.5022727272727" x2="164.24188311688314" y2="552.5022727272727" stroke="#d73027" stroke-width="1.5"/><line x1="164.24188311688314" y1="552.5022727272727" x2="164.24188311688314" y2="483.8803787047201" stroke="#d73027" stroke-width="1.5"/><line x1="164.24188311688314" y1="483.8803787047201" x2="213.86850649350652" y2="483.8803787047201" stroke="#d73027" stroke-width="1.5"/><line x1="213.86850649350652" y1="483.8803787047201" x2="213.86850649350652" y2="483.8803787047201" stroke="#d73027" stroke-width="1.5"/><line x1="213.86850649350652" y1="483.8803787047201" x2="313.1217532467533" y2="483.8803787047201" stroke="#d73027" stroke-width="1.5"/><line x1="313.1217532467533" y1="483.8803787047201" x2="313.1217532467533" y2="408.3962952799122" stroke="#d73027" stroke-width="1.5"/><line x1="313.1217532467533" y1="408.3962952799122" x2="362.74837662337666" y2="408.3962952799122" stroke="#d73027" stroke-width="1.5"/><line x1="362.74837662337666" y1="408.3962952799122" x2="362.74837662337666" y2="408.3962952799122" stroke="#d73027" stroke-width="1.5"/><line x1="362.74837662337666" y1="408.3962952799122" x2="412.37500000000006" y2="408.3962952799122" stroke="#d73027" stroke-width="1.5"/><line x1="412.37500000000006" y1="408.3962952799122" x2="412.37500000000006" y2="332.9122118551043" stroke="#d73027" stroke-width="1.5"/><line x1="412.37500000000006" y1="332.9122118551043" x2="511.6282467532468" y2="332.9122118551043" stroke="#d73027" stroke-width="1.5"/><line x1="511.6282467532468" y1="332.9122118551043" x2="511.6282467532468" y2="332.9122118551043" stroke="#d73027" stroke-width="1.5"/><line x1="511.6282467532468" y1="332.9122118551043" x2="561.2548701298701" y2="332.9122118551043" stroke="#d73027" stroke-width="1.5"/><line x1="561.2548701298701" y1="332.9122118551043" x2="561.2548701298701" y2="244.8474478594951" stroke="#d73027" stroke-width="1.5"/><line x1="561.2548701298701" y1="244.8474478594951" x2="610.8814935064935" y2="244.8474478594951" stroke="#d73027" stroke-width="1.5"/><line x1="610.8814935064935" y1="244.8474478594951" x2="610.8814935064935" y2="244.8474478594951" stroke="#d73027" stroke-width="1.5"/><line x1="610.8814935064935" y1="244.8474478594951" x2="710.1347402597403" y2="244.8474478594951" stroke="#d73027" stroke-width="1.5"/><line x1="710.1347402597403" y1="244.8474478594951" x2="710.1347402597403" y2="112.75030186608132" stroke="#d73027" stroke-width="1.5"/><line x1="710.1347402597403" y1="112.75030186608132" x2="759.7613636363636" y2="112.75030186608132" stroke="#d73027" stroke-width="1.5"/><line x1="759.7613636363636" y1="112.75030186608132" x2="759.7613636363636" y2="112.75030186608132" stroke="#d73027" stroke-width="1.5"/></svg>