<svg xmlns="http://www.w3.org/2000/svg" width="624" height="384" viewBox="0 0 624 384"><rect x="0.0" y="0.0" width="624.0" height="384.0" fill="#ffffff" fill-opacity="1.0" stroke="none"/><line x1="129.09521885521886" y1="7.333333333333333" x2="129.09521885521886" y2="358.3333333333333" stroke="#dddddd" stroke-width="0.6666666666666666"/><line x1="277.74505050505053" y1="7.333333333333333" x2="277.74505050505053" y2="358.3333333333333" stroke="#dddddd" stroke-width="0.6666666666666666"/><line x1="426.3948821548822" y1="7.333333333333333" x2="426.3948821548822" y2="358.3333333333333" stroke="#dddddd" stroke-width="0.6666666666666666"/><line x1="575.0447138047139" y1="7.333333333333333" x2="575.0447138047139" y2="358.3333333333333" stroke="#dddddd" stroke-width="0.6666666666666666"/><line x1="54.770303030303026" y1="7.333333333333333" x2="54.770303030303026" y2="358.3333333333333" stroke="#dddddd" stroke-width="1.3333333333333333"/><line x1="203.4201346801347" y1="7.333333333333333" x2="203.4201346801347" y2="358.3333333333333" stroke="#dddddd" stroke-width="1.3333333333333333"/><line x1="352.06996632996635" y1="7.333333333333333" x2="352.06996632996635" y2="358.3333333333333" stroke="#dddddd" stroke-width="1.3333333333333333"/><line x1="500.71979797979805" y1="7.333333333333333" x2="500.71979797979805" y2="358.3333333333333" stroke="#dddddd" stroke-width="1.3333333333333333"/><line x1="28.01333333333333" y1="352.1369196552683" x2="616.6666666666666" y2="352.1369196552683" stroke="#dddddd" stroke-width="0.6666666666666666"/><line x1="28.01333333333333" y1="254.55560189046426" x2="616.6666666666666" y2="254.55560189046426" stroke="#dddddd" stroke-width="0.6666666666666666"/><line x1="28.01333333333333" y1="156.97428412566026" x2="616.6666666666666" y2="156.97428412566026" stroke="#dddddd" stroke-width="0.6666666666666666"/><line x1="28.01333333333333" y1="59.392966360856306" x2="616.6666666666666" y2="59.392966360856306" stroke="#dddddd" stroke-width="0.6666666666666666"/><line x1="28.01333333333333" y1="303.34626077286623" x2="616.6666666666666" y2="303.34626077286623" stroke="#dddddd" stroke-width="1.3333333333333333"/><line x1="28.01333333333333" y1="205.76494300806226" x2="616.6666666666666" y2="205.76494300806226" stroke="#dddddd" stroke-width="1.3333333333333333"/><line x1="28.01333333333333" y1="108.18362524325826" x2="616.6666666666666" y2="108.18362524325826" stroke="#dddddd" stroke-width="1.3333333333333333"/><line x1="28.01333333333333" y1="10.602307478454273" x2="616.6666666666666" y2="10.602307478454273" stroke="#dddddd" stroke-width="1.3333333333333333"/><rect x="28.01333333333333" y="7.333333333333333" width="588.6533333333333" height="351.0" fill="#ffffff" fill-opacity="0.0" stroke="#444444" stroke-width="1.3333333333333333"/><line x1="54.770303030303026" y1="358.3333333333333" x2="54.770303030303026" y2="362.0" stroke="#444444" stroke-width="1.3333333333333333"/><text x="54.770303030303026" y="374.32" fill="#333333" font-size="11.733333333333334" font-family="sans-serif" text-anchor="middle">0.0</text><line x1="203.4201346801347" y1="358.3333333333333" x2="203.4201346801347" y2="362.0" stroke="#444444" stroke-width="1.3333333333333333"/><text x="203.4201346801347" y="374.32" fill="#333333" font-size="11.733333333333334" font-family="sans-serif" text-anchor="middle">2.5</text><line x1="352.06996632996635" y1="358.3333333333333" x2="352.06996632996635" y2="362.0" stroke="#444444" stroke-width="1.3333333333333333"/><text x="352.06996632996635" y="374.32" fill="#333333" font-size="11.733333333333334" font-family="sans-serif" text-anchor="middle">5.0</text><line x1="500.71979797979805" y1="358.3333333333333" x2="500.71979797979805" y2="362.0" stroke="#444444" stroke-width="1.3333333333333333"/><text x="500.71979797979805" y="374.32" fill="#333333" font-size="11.733333333333334" font-family="sans-serif" text-anchor="middle">7.5</text><line x1="28.01333333333333" y1="303.34626077286623" x2="24.346666666666664" y2="303.34626077286623" stroke="#444444" stroke-width="1.3333333333333333"/><text x="21.41333333333333" y="307.4529274395329" fill="#333333" font-size="11.733333333333334" font-family="sans-serif" text-anchor="end">5</text><line x1="28.01333333333333" y1="205.76494300806226" x2="24.346666666666664" y2="205.76494300806226" stroke="#444444" stroke-width="1.3333333333333333"/><text x="21.41333333333333" y="209.87160967472894" fill="#333333" font-size="11.733333333333334" font-family="sans-serif" text-anchor="end">10</text><line x1="28.01333333333333" y1="108.18362524325826" x2="24.346666666666664" y2="108.18362524325826" stroke="#444444" stroke-width="1.3333333333333333"/><text x="21.41333333333333" y="112.29029190992493" fill="#333333" font-size="11.733333333333334" font-family="sans-serif" text-anchor="end">15</text><line x1="28.01333333333333" y1="10.602307478454273" x2="24.346666666666664" y2="10.602307478454273" stroke="#444444" stroke-width="1.3333333333333333"/><text x="21.41333333333333" y="14.70897414512094" fill="#333333" font-size="11.733333333333334" font-family="sans-serif" text-anchor="end">20</text><circle cx="54.770303030303026" cy="342.3787878787879" r="3.1181102362204727" fill="#1f77b4" fill-opacity="0.85" stroke="none"><title>(0, 3)</title></circle><circle cx="114.23023569023572" cy="322.86252432582705" r="3.1181102362204727" fill="#1f77b4" fill-opacity="0.85" stroke="none"><title>(1, 4)</title></circle><circle cx="173.6901683501684" cy="285.78162357520154" r="3.1181102362204727" fill="#1f77b4" fill-opacity="0.85" stroke="none"><title>(2, 5.9)</title></circle><circle cx="233.15010101010105" cy="260.4104809563525" r="3.1181102362204727" fill="#1f77b4" fill-opacity="0.85" stroke="none"><title>(3, 7.2)</title></circle><circle cx="292.61003367003366" cy="224.305393383375" r="3.1181102362204727" fill="#1f77b4" fill-opacity="0.85" stroke="none"><title>(4, 9.05)</title></circle><circle cx="352.06996632996635" cy="203.81331665276616" r="3.1181102362204727" fill="#1f77b4" fill-opacity="0.85" stroke="none"><title>(5, 10.1)</title></circle><circle cx="411.52989898989904" cy="167.70822907978868" r="3.1181102362204727" fill="#1f77b4" fill-opacity="0.85" stroke="none"><title>(6, 11.95)</title></circle><circle cx="470.9898316498317" cy="142.33708646093967" r="3.1181102362204727" fill="#1f77b4" fill-opacity="0.85" stroke="none"><title>(7, 13.25)</title></circle><circle cx="530.4497643097643" cy="106.23199888796216" r="3.1181102362204727" fill="#1f77b4" fill-opacity="0.85" stroke="none"><title>(8, 15.1)</title></circle><circle cx="589.9096969696969" cy="85.73992215735332" r="3.1181102362204727" fill="#1f77b4" fill-opacity="0.85" stroke="none"><title>(9, 16.15)</title></circle><circle cx="54.770303030303026" cy="279.92674450931327" r="3.1181102362204727" fill="#1f77b4" fill-opacity="0.85" stroke="none"><title>(0, 6.2)</title></circle><circle cx="114.23023569023572" cy="260.4104809563525" r="3.1181102362204727" fill="#1f77b4" fill-opacity="0.85" stroke="none"><title>(1, 7.2)</title></circle><circle cx="173.6901683501684" cy="223.329580205727" r="3.1181102362204727" fill="#1f77b4" fill-opacity="0.85" stroke="none"><title>(2, 9.1)</title></circle><circle cx="233.15010101010105" cy="197.9584375868779" r="3.1181102362204727" fill="#1f77b4" fill-opacity="0.85" stroke="none"><title>(3, 10.4)</title></circle><circle cx="292.61003367003366" cy="161.85335001390047" r="3.1181102362204727" fill="#1f77b4" fill-opacity="0.85" stroke="none"><title>(4, 12.25)</title></circle><circle cx="352.06996632996635" cy="141.3612732832916" r="3.1181102362204727" fill="#1f77b4" fill-opacity="0.85" stroke="none"><title>(5, 13.3)</title></circle><circle cx="411.52989898989904" cy="105.2561857103141" r="3.1181102362204727" fill="#1f77b4" fill-opacity="0.85" stroke="none"><title>(6, 15.15)</title></circle><circle cx="470.9898316498317" cy="79.88504309146515" r="3.1181102362204727" fill="#1f77b4" fill-opacity="0.85" stroke="none"><title>(7, 16.45)</title></circle><circle cx="530.4497643097643" cy="43.779955518487625" r="3.1181102362204727" fill="#1f77b4" fill-opacity="0.85" stroke="none"><title>(8, 18.3)</title></circle><circle cx="589.9096969696969" cy="23.28787878787879" r="3.1181102362204727" fill="#1f77b4" fill-opacity="0.85" stroke="none"><title>(9, 19.35)</title></circle><path d="M 54.770303030303026 318.62664235432294 L 60.175751453933266 315.906765443293 L 65.58119987756352 313.18720778333557 L 70.98664830119375 310.4679836045491 L 76.392096724824 307.74910789538046 L 81.79754514845425 305.0305964451668 L 87.20299357208447 302.3124658886336 L 92.60844199571473 299.5947337523248 L 98.01389041934496 296.8774185029055 L 103.41933884297521 294.16053959724525 L 108.82478726660545 291.4441175341431 L 114.23023569023572 288.7281739075052 L 119.63568411386593 286.0127314607212 L 125.0411325374962 283.2978141419151 L 130.44658096112641 280.583447159657 L 135.85202938475666 277.86965703862677 L 141.2574778083869 275.1564716746052 L 146.66292623201713 272.4439203880364 L 152.0683746556474 269.732033975264 L 157.47382307927765 267.0208447563758 L 162.87927150290787 264.3103866184142 L 168.28471992653812 261.6006950525131 L 173.6901683501684 258.89180718331284 L 179.0956167737986 256.1837617887836 L 184.50106519742883 253.47659930836406 L 189.9065136210591 250.77036183709544 L 195.31196204468932 248.06509310322036 L 200.7174104683196 245.36083842652351 L 206.12285889194982 242.65764465453998 L 211.52830731558007 239.95556007365997 L 216.93375573921028 237.25463429213715 L 222.3392041628406 234.55491809208982 L 227.7446525864708 231.85646324778492 L 233.15010101010105 229.15932230785182 L 238.55554943373127 226.46354833959836 L 243.96099785736152 223.76919463432188 L 249.36644628099174 221.076314373436 L 254.771894704622 218.38496025636655 L 260.17734312825223 215.69518409250205 L 265.58279155188245 213.00703636098484 L 270.98823997551267 210.32056574374656 L 276.3936883991429 207.63581863886716 L 281.7991368227732 204.95283866296876 L 287.20458524640344 202.2716661528508 L 292.61003367003366 199.59233767781194 L 298.01548209366393 196.914885574969 L 303.42093051729415 194.23933752026997 L 308.8263789409244 191.56571614772594 L 314.23182736455465 188.89403872859214 L 319.63727578818487 186.22431692082387 L 325.0427242118152 183.5565565971381 L 330.4481726354454 180.890757757535 L 335.85362105907564 178.22691452929737 L 341.25906948270585 175.56501525446996 L 346.6645179063362 172.9050426617975 L 352.06996632996635 170.24697411726905 L 357.4754147535966 167.59078194493657 L 362.88086317722684 164.93643380768304 L 368.28631160085706 162.28389313620997 L 373.6917600244873 159.6331195937179 L 379.09720844811756 156.9840695635848 L 384.50265687174783 154.3366966477306 L 389.90810529537805 151.69095216422363 L 395.3135537190083 149.04678563392167 L 400.7190021426386 146.40414524743608 L 406.12445056626876 143.76297830534114 L 411.52989898989904 141.1232316262232 L 416.93534741352926 138.4848519187849 L 422.34079583715953 135.8477861157183 L 427.7462442607898 133.2119816683942 L 433.15169268441997 130.57738680254556 L 438.55714110805025 127.94395073605418 L 443.9625895316806 125.31162386066622 L 449.36803795531074 122.68035788999175 L 454.773486378941 120.05010597649535 L 460.17893480257123 117.42082280039256 L 465.5843832262015 114.79246463344057 L 470.9898316498317 112.16498938059843 L 476.39528007346195 109.53835660242733 L 481.8007284970922 106.91252752095696 L 487.20617692072244 104.28746501154717 L 492.6116253443527 101.66313358306384 L 498.0170737679829 99.03949934846483 L 503.42252219161315 96.41652998766222 L 508.82797061524343 93.79419470431242 L 514.2334190388735 91.17246417797108 L 519.6388674625039 88.55131051285787 L 525.0443158861341 85.93070718429252 L 530.4497643097643 83.31062898370502 L 535.8552127333946 80.69105196297153 L 541.2606611570247 78.07195337870226 L 546.6661095806551 75.45331163699105 L 552.0715580042852 72.83510623903888 L 557.4770064279155 70.21731772797628 L 562.8824548515457 67.59992763713811 L 568.287903275176 64.98291843998034 L 573.6933516988062 62.366273501777485 L 579.0988001224365 59.74997703319256 L 584.5042485460667 57.13401404577852 L 589.9096969696969 54.51837030943697 L 589.9096969696969 47.2351869478734 L 584.5042485460667 49.95506385890341 L 579.0988001224365 52.674621518860704 L 573.6933516988062 55.39384569764725 L 568.287903275176 58.112721406815844 L 562.8824548515457 60.83123285702955 L 557.4770064279155 63.54936341356271 L 552.0715580042852 66.26709554987151 L 546.6661095806551 68.98441079929083 L 541.2606611570247 71.70128970495105 L 535.8552127333946 74.41771176805312 L 530.4497643097643 77.13365539469112 L 525.0443158861341 79.84909784147501 L 519.6388674625039 82.5640151602812 L 514.2334190388735 85.27838214253939 L 508.82797061524343 87.99217226356953 L 503.42252219161315 90.70535762759107 L 498.0170737679829 93.41790891415988 L 492.6116253443527 96.12979532693225 L 487.20617692072244 98.84098454582052 L 481.8007284970922 101.55144268378208 L 476.39528007346195 104.26113424968321 L 470.9898316498317 106.97002211888346 L 465.5843832262015 109.67806751341269 L 460.17893480257123 112.38522999383227 L 454.773486378941 115.09146746510085 L 449.36803795531074 117.79673619897592 L 443.9625895316806 120.50099087567276 L 438.55714110805025 123.20418464765635 L 433.15169268441997 125.90626922853633 L 427.7462442607898 128.6071950100592 L 422.34079583715953 131.3069112101065 L 416.93534741352926 134.00536605441144 L 411.52989898989904 136.7025069943444 L 406.12445056626876 139.39828096259788 L 400.7190021426386 142.09263466787445 L 395.3135537190083 144.78551492876034 L 389.90810529537805 147.47686904582977 L 384.50265687174783 150.16664520969417 L 379.09720844811756 152.85479294121143 L 373.6917600244873 155.54126355844977 L 368.28631160085706 158.22601066332913 L 362.88086317722684 160.90899063922757 L 357.4754147535966 163.59016314934553 L 352.06996632996635 166.2694916243844 L 346.6645179063362 168.94694372722736 L 341.25906948270585 171.62249178192633 L 335.85362105907564 174.29611315447033 L 330.4481726354454 176.96779057360416 L 325.0427242118152 179.6375123813724 L 319.63727578818487 182.30527270505812 L 314.23182736455465 184.97107154466124 L 308.8263789409244 187.63491477289892 L 303.42093051729415 190.29681404772634 L 298.01548209366393 192.95678664039883 L 292.61003367003366 195.6148551849272 L 287.20458524640344 198.27104735725985 L 281.7991368227732 200.9253954945133 L 276.3936883991429 203.57793616598633 L 270.98823997551267 206.22870970847842 L 265.58279155188245 208.87775973861147 L 260.17734312825223 211.5251326544657 L 254.771894704622 214.1708771379727 L 249.36644628099174 216.81504366827465 L 243.96099785736152 219.45768405476025 L 238.55554943373127 222.0988509968551 L 233.15010101010105 224.73859767597304 L 227.7446525864708 227.37697738341149 L 222.3392041628406 230.01404318647798 L 216.93375573921028 232.64984763380212 L 211.52830731558007 235.28444249965077 L 206.12285889194982 237.91787856614215 L 200.7174104683196 240.55020544153004 L 195.31196204468932 243.18147141220453 L 189.9065136210591 245.8117233257009 L 184.50106519742883 248.44100650180377 L 179.0956167737986 251.06936466875567 L 173.6901683501684 253.69683992159787 L 168.28471992653812 256.323472699769 L 162.87927150290787 258.94930178123934 L 157.47382307927765 261.57436429064916 L 152.0683746556474 264.1986957191324 L 146.66292623201713 266.82232995373147 L 141.2574778083869 269.44529931453405 L 135.85202938475666 272.06763459788397 L 130.44658096112641 274.6893651242252 L 125.0411325374962 277.31051878933846 L 119.63568411386593 279.9311221179038 L 114.23023569023572 282.5512003184913 L 108.82478726660545 285.1707773392248 L 103.41933884297521 287.7898759234941 L 98.01389041934496 290.4085176652053 L 92.60844199571473 293.0267230631574 L 87.20299357208447 295.64451157422 L 81.79754514845425 298.26190166505825 L 76.392096724824 300.878910862216 L 70.98664830119375 303.49555580041886 L 65.58119987756352 306.11185226900375 L 60.175751453933266 308.7278152564178 L 54.770303030303026 311.34345899275934 Z" fill="#1f77b4" fill-opacity="0.2" stroke="none"/><line x1="54.770303030303026" y1="314.98505067354114" x2="60.175751453933266" y2="312.3172903498554" stroke="#1f77b4" stroke-width="1.4211023622047245"/><line x1="60.175751453933266" y1="312.3172903498554" x2="65.58119987756352" y2="309.6495300261697" stroke="#1f77b4" stroke-width="1.4211023622047245"/><line x1="65.58119987756352" y1="309.6495300261697" x2="70.98664830119375" y2="306.981769702484" stroke="#1f77b4" stroke-width="1.4211023622047245"/><line x1="70.98664830119375" y1="306.981769702484" x2="76.392096724824" y2="304.31400937879823" stroke="#1f77b4" stroke-width="1.4211023622047245"/><line x1="76.392096724824" y1="304.31400937879823" x2="81.79754514845425" y2="301.64624905511255" stroke="#1f77b4" stroke-width="1.4211023622047245"/><line x1="81.79754514845425" y1="301.64624905511255" x2="87.20299357208447" y2="298.9784887314268" stroke="#1f77b4" stroke-width="1.4211023622047245"/><line x1="87.20299357208447" y1="298.9784887314268" x2="92.60844199571473" y2="296.31072840774107" stroke="#1f77b4" stroke-width="1.4211023622047245"/><line x1="92.60844199571473" y1="296.31072840774107" x2="98.01389041934496" y2="293.6429680840554" stroke="#1f77b4" stroke-width="1.4211023622047245"/><line x1="98.01389041934496" y1="293.6429680840554" x2="103.41933884297521" y2="290.9752077603697" stroke="#1f77b4" stroke-width="1.4211023622047245"/><line x1="103.41933884297521" y1="290.9752077603697" x2="108.82478726660545" y2="288.30744743668396" stroke="#1f77b4" stroke-width="1.4211023622047245"/><line x1="108.82478726660545" y1="288.30744743668396" x2="114.23023569023572" y2="285.6396871129982" stroke="#1f77b4" stroke-width="1.4211023622047245"/><line x1="114.23023569023572" y1="285.6396871129982" x2="119.63568411386593" y2="282.97192678931253" stroke="#1f77b4" stroke-width="1.4211023622047245"/><line x1="119.63568411386593" y1="282.97192678931253" x2="125.0411325374962" y2="280.3041664656268" stroke="#1f77b4" stroke-width="1.4211023622047245"/><line x1="125.0411325374962" y1="280.3041664656268" x2="130.44658096112641" y2="277.63640614194105" stroke="#1f77b4" stroke-width="1.4211023622047245"/><line x1="130.44658096112641" y1="277.63640614194105" x2="135.85202938475666" y2="274.96864581825537" stroke="#1f77b4" stroke-width="1.4211023622047245"/><line x1="135.85202938475666" y1="274.96864581825537" x2="141.2574778083869" y2="272.3008854945697" stroke="#1f77b4" stroke-width="1.4211023622047245"/><line x1="141.2574778083869" y1="272.3008854945697" x2="146.66292623201713" y2="269.63312517088394" stroke="#1f77b4" stroke-width="1.4211023622047245"/><line x1="146.66292623201713" y1="269.63312517088394" x2="152.0683746556474" y2="266.9653648471982" stroke="#1f77b4" stroke-width="1.4211023622047245"/><line x1="152.0683746556474" y1="266.9653648471982" x2="157.47382307927765" y2="264.2976045235125" stroke="#1f77b4" stroke-width="1.4211023622047245"/><line x1="157.47382307927765" y1="264.2976045235125" x2="162.87927150290787" y2="261.6298441998268" stroke="#1f77b4" stroke-width="1.4211023622047245"/><line x1="162.87927150290787" y1="261.6298441998268" x2="168.28471992653812" y2="258.96208387614104" stroke="#1f77b4" stroke-width="1.4211023622047245"/><line x1="168.28471992653812" y1="258.96208387614104" x2="173.6901683501684" y2="256.29432355245535" stroke="#1f77b4" stroke-width="1.4211023622047245"/><line x1="173.6901683501684" y1="256.29432355245535" x2="179.0956167737986" y2="253.6265632287696" stroke="#1f77b4" stroke-width="1.4211023622047245"/><line x1="179.0956167737986" y1="253.6265632287696" x2="184.50106519742883" y2="250.9588029050839" stroke="#1f77b4" stroke-width="1.4211023622047245"/><line x1="184.50106519742883" y1="250.9588029050839" x2="189.9065136210591" y2="248.2910425813982" stroke="#1f77b4" stroke-width="1.4211023622047245"/><line x1="189.9065136210591" y1="248.2910425813982" x2="195.31196204468932" y2="245.6232822577125" stroke="#1f77b4" stroke-width="1.4211023622047245"/><line x1="195.31196204468932" y1="245.6232822577125" x2="200.7174104683196" y2="242.95552193402673" stroke="#1f77b4" stroke-width="1.4211023622047245"/><line x1="200.7174104683196" y1="242.95552193402673" x2="206.12285889194982" y2="240.28776161034108" stroke="#1f77b4" stroke-width="1.4211023622047245"/><line x1="206.12285889194982" y1="240.28776161034108" x2="211.52830731558007" y2="237.62000128665537" stroke="#1f77b4" stroke-width="1.4211023622047245"/><line x1="211.52830731558007" y1="237.62000128665537" x2="216.93375573921028" y2="234.95224096296965" stroke="#1f77b4" stroke-width="1.4211023622047245"/><line x1="216.93375573921028" y1="234.95224096296965" x2="222.3392041628406" y2="232.2844806392839" stroke="#1f77b4" stroke-width="1.4211023622047245"/><line x1="222.3392041628406" y1="232.2844806392839" x2="227.7446525864708" y2="229.6167203155982" stroke="#1f77b4" stroke-width="1.4211023622047245"/><line x1="227.7446525864708" y1="229.6167203155982" x2="233.15010101010105" y2="226.9489599919125" stroke="#1f77b4" stroke-width="1.4211023622047245"/><line x1="233.15010101010105" y1="226.9489599919125" x2="238.55554943373127" y2="224.28119966822675" stroke="#1f77b4" stroke-width="1.4211023622047245"/><line x1="238.55554943373127" y1="224.28119966822675" x2="243.96099785736152" y2="221.61343934454104" stroke="#1f77b4" stroke-width="1.4211023622047245"/><line x1="243.96099785736152" y1="221.61343934454104" x2="249.36644628099174" y2="218.94567902085532" stroke="#1f77b4" stroke-width="1.4211023622047245"/><line x1="249.36644628099174" y1="218.94567902085532" x2="254.771894704622" y2="216.27791869716958" stroke="#1f77b4" stroke-width="1.4211023622047245"/><line x1="254.771894704622" y1="216.27791869716958" x2="260.17734312825223" y2="213.61015837348387" stroke="#1f77b4" stroke-width="1.4211023622047245"/><line x1="260.17734312825223" y1="213.61015837348387" x2="265.58279155188245" y2="210.9423980497982" stroke="#1f77b4" stroke-width="1.4211023622047245"/><line x1="265.58279155188245" y1="210.9423980497982" x2="270.98823997551267" y2="208.2746377261125" stroke="#1f77b4" stroke-width="1.4211023622047245"/><line x1="270.98823997551267" y1="208.2746377261125" x2="276.3936883991429" y2="205.6068774024268" stroke="#1f77b4" stroke-width="1.4211023622047245"/><line x1="276.3936883991429" y1="205.6068774024268" x2="281.7991368227732" y2="202.93911707874102" stroke="#1f77b4" stroke-width="1.4211023622047245"/><line x1="281.7991368227732" y1="202.93911707874102" x2="287.20458524640344" y2="200.2713567550553" stroke="#1f77b4" stroke-width="1.4211023622047245"/><line x1="287.20458524640344" y1="200.2713567550553" x2="292.61003367003366" y2="197.60359643136962" stroke="#1f77b4" stroke-width="1.4211023622047245"/><line x1="292.61003367003366" y1="197.60359643136962" x2="298.01548209366393" y2="194.93583610768394" stroke="#1f77b4" stroke-width="1.4211023622047245"/><line x1="298.01548209366393" y1="194.93583610768394" x2="303.42093051729415" y2="192.26807578399817" stroke="#1f77b4" stroke-width="1.4211023622047245"/><line x1="303.42093051729415" y1="192.26807578399817" x2="308.8263789409244" y2="189.60031546031246" stroke="#1f77b4" stroke-width="1.4211023622047245"/><line x1="308.8263789409244" y1="189.60031546031246" x2="314.23182736455465" y2="186.93255513662672" stroke="#1f77b4" stroke-width="1.4211023622047245"/><line x1="314.23182736455465" y1="186.93255513662672" x2="319.63727578818487" y2="184.264794812941" stroke="#1f77b4" stroke-width="1.4211023622047245"/><line x1="319.63727578818487" y1="184.264794812941" x2="325.0427242118152" y2="181.5970344892553" stroke="#1f77b4" stroke-width="1.4211023622047245"/><line x1="325.0427242118152" y1="181.5970344892553" x2="330.4481726354454" y2="178.9292741655696" stroke="#1f77b4" stroke-width="1.4211023622047245"/><line x1="330.4481726354454" y1="178.9292741655696" x2="335.85362105907564" y2="176.26151384188387" stroke="#1f77b4" stroke-width="1.4211023622047245"/><line x1="335.85362105907564" y1="176.26151384188387" x2="341.25906948270585" y2="173.59375351819818" stroke="#1f77b4" stroke-width="1.4211023622047245"/><line x1="341.25906948270585" y1="173.59375351819818" x2="346.6645179063362" y2="170.92599319451244" stroke="#1f77b4" stroke-width="1.4211023622047245"/><line x1="346.6645179063362" y1="170.92599319451244" x2="352.06996632996635" y2="168.2582328708267" stroke="#1f77b4" stroke-width="1.4211023622047245"/><line x1="352.06996632996635" y1="168.2582328708267" x2="357.4754147535966" y2="165.59047254714102" stroke="#1f77b4" stroke-width="1.4211023622047245"/><line x1="357.4754147535966" y1="165.59047254714102" x2="362.88086317722684" y2="162.9227122234553" stroke="#1f77b4" stroke-width="1.4211023622047245"/><line x1="362.88086317722684" y1="162.9227122234553" x2="368.28631160085706" y2="160.25495189976954" stroke="#1f77b4" stroke-width="1.4211023622047245"/><line x1="368.28631160085706" y1="160.25495189976954" x2="373.6917600244873" y2="157.58719157608385" stroke="#1f77b4" stroke-width="1.4211023622047245"/><line x1="373.6917600244873" y1="157.58719157608385" x2="379.09720844811756" y2="154.91943125239814" stroke="#1f77b4" stroke-width="1.4211023622047245"/><line x1="379.09720844811756" y1="154.91943125239814" x2="384.50265687174783" y2="152.25167092871237" stroke="#1f77b4" stroke-width="1.4211023622047245"/><line x1="384.50265687174783" y1="152.25167092871237" x2="389.90810529537805" y2="149.58391060502674" stroke="#1f77b4" stroke-width="1.4211023622047245"/><line x1="389.90810529537805" y1="149.58391060502674" x2="395.3135537190083" y2="146.91615028134098" stroke="#1f77b4" stroke-width="1.4211023622047245"/><line x1="395.3135537190083" y1="146.91615028134098" x2="400.7190021426386" y2="144.2483899576553" stroke="#1f77b4" stroke-width="1.4211023622047245"/><line x1="400.7190021426386" y1="144.2483899576553" x2="406.12445056626876" y2="141.58062963396958" stroke="#1f77b4" stroke-width="1.4211023622047245"/><line x1="406.12445056626876" y1="141.58062963396958" x2="411.52989898989904" y2="138.9128693102838" stroke="#1f77b4" stroke-width="1.4211023622047245"/><line x1="411.52989898989904" y1="138.9128693102838" x2="416.93534741352926" y2="136.24510898659815" stroke="#1f77b4" stroke-width="1.4211023622047245"/><line x1="416.93534741352926" y1="136.24510898659815" x2="422.34079583715953" y2="133.5773486629124" stroke="#1f77b4" stroke-width="1.4211023622047245"/><line x1="422.34079583715953" y1="133.5773486629124" x2="427.7462442607898" y2="130.90958833922673" stroke="#1f77b4" stroke-width="1.4211023622047245"/><line x1="427.7462442607898" y1="130.90958833922673" x2="433.15169268441997" y2="128.24182801554096" stroke="#1f77b4" stroke-width="1.4211023622047245"/><line x1="433.15169268441997" y1="128.24182801554096" x2="438.55714110805025" y2="125.57406769185525" stroke="#1f77b4" stroke-width="1.4211023622047245"/><line x1="438.55714110805025" y1="125.57406769185525" x2="443.9625895316806" y2="122.90630736816952" stroke="#1f77b4" stroke-width="1.4211023622047245"/><line x1="443.9625895316806" y1="122.90630736816952" x2="449.36803795531074" y2="120.23854704448384" stroke="#1f77b4" stroke-width="1.4211023622047245"/><line x1="449.36803795531074" y1="120.23854704448384" x2="454.773486378941" y2="117.57078672079815" stroke="#1f77b4" stroke-width="1.4211023622047245"/><line x1="454.773486378941" y1="117.57078672079815" x2="460.17893480257123" y2="114.9030263971124" stroke="#1f77b4" stroke-width="1.4211023622047245"/><line x1="460.17893480257123" y1="114.9030263971124" x2="465.5843832262015" y2="112.23526607342667" stroke="#1f77b4" stroke-width="1.4211023622047245"/><line x1="465.5843832262015" y1="112.23526607342667" x2="470.9898316498317" y2="109.56750574974095" stroke="#1f77b4" stroke-width="1.4211023622047245"/><line x1="470.9898316498317" y1="109.56750574974095" x2="476.39528007346195" y2="106.89974542605526" stroke="#1f77b4" stroke-width="1.4211023622047245"/><line x1="476.39528007346195" y1="106.89974542605526" x2="481.8007284970922" y2="104.23198510236955" stroke="#1f77b4" stroke-width="1.4211023622047245"/><line x1="481.8007284970922" y1="104.23198510236955" x2="487.20617692072244" y2="101.56422477868382" stroke="#1f77b4" stroke-width="1.4211023622047245"/><line x1="487.20617692072244" y1="101.56422477868382" x2="492.6116253443527" y2="98.8964644549981" stroke="#1f77b4" stroke-width="1.4211023622047245"/><line x1="492.6116253443527" y1="98.8964644549981" x2="498.0170737679829" y2="96.22870413131234" stroke="#1f77b4" stroke-width="1.4211023622047245"/><line x1="498.0170737679829" y1="96.22870413131234" x2="503.42252219161315" y2="93.56094380762661" stroke="#1f77b4" stroke-width="1.4211023622047245"/><line x1="503.42252219161315" y1="93.56094380762661" x2="508.82797061524343" y2="90.89318348394097" stroke="#1f77b4" stroke-width="1.4211023622047245"/><line x1="508.82797061524343" y1="90.89318348394097" x2="514.2334190388735" y2="88.22542316025525" stroke="#1f77b4" stroke-width="1.4211023622047245"/><line x1="514.2334190388735" y1="88.22542316025525" x2="519.6388674625039" y2="85.55766283656953" stroke="#1f77b4" stroke-width="1.4211023622047245"/><line x1="519.6388674625039" y1="85.55766283656953" x2="525.0443158861341" y2="82.88990251288376" stroke="#1f77b4" stroke-width="1.4211023622047245"/><line x1="525.0443158861341" y1="82.88990251288376" x2="530.4497643097643" y2="80.22214218919805" stroke="#1f77b4" stroke-width="1.4211023622047245"/><line x1="530.4497643097643" y1="80.22214218919805" x2="535.8552127333946" y2="77.55438186551237" stroke="#1f77b4" stroke-width="1.4211023622047245"/><line x1="535.8552127333946" y1="77.55438186551237" x2="541.2606611570247" y2="74.88662154182668" stroke="#1f77b4" stroke-width="1.4211023622047245"/><line x1="541.2606611570247" y1="74.88662154182668" x2="546.6661095806551" y2="72.21886121814096" stroke="#1f77b4" stroke-width="1.4211023622047245"/><line x1="546.6661095806551" y1="72.21886121814096" x2="552.0715580042852" y2="69.5511008944552" stroke="#1f77b4" stroke-width="1.4211023622047245"/><line x1="552.0715580042852" y1="69.5511008944552" x2="557.4770064279155" y2="66.88334057076948" stroke="#1f77b4" stroke-width="1.4211023622047245"/><line x1="557.4770064279155" y1="66.88334057076948" x2="562.8824548515457" y2="64.21558024708379" stroke="#1f77b4" stroke-width="1.4211023622047245"/><line x1="562.8824548515457" y1="64.21558024708379" x2="568.287903275176" y2="61.54781992339811" stroke="#1f77b4" stroke-width="1.4211023622047245"/><line x1="568.287903275176" y1="61.54781992339811" x2="573.6933516988062" y2="58.88005959971239" stroke="#1f77b4" stroke-width="1.4211023622047245"/><line x1="573.6933516988062" y1="58.88005959971239" x2="579.0988001224365" y2="56.21229927602663" stroke="#1f77b4" stroke-width="1.4211023622047245"/><line x1="579.0988001224365" y1="56.21229927602663" x2="584.5042485460667" y2="53.544538952340986" stroke="#1f77b4" stroke-width="1.4211023622047245"/><line x1="584.5042485460667" y1="53.544538952340986" x2="589.9096969696969" y2="50.876778628655146" stroke="#1f77b4" stroke-width="1.4211023622047245"/></svg>