<svg xmlns="http://www.w3.org/2000/svg" width="624" height="384" viewBox="0 0 624 384"><rect x="0.0" y="0.0" width="624.0" height="384.0" fill="#ffffff" fill-opacity="1.0" stroke="none"/><line x1="129.09521885521886" y1="7.333333333333333" x2="129.09521885521886" y2="358.3333333333333" stroke="#dddddd" stroke-width="0.6666666666666666"/><line x1="277.74505050505053" y1="7.333333333333333" x2="277.74505050505053" y2="358.3333333333333" stroke="#dddddd" stroke-width="0.6666666666666666"/><line x1="426.3948821548822" y1="7.333333333333333" x2="426.3948821548822" y2="358.3333333333333" stroke="#dddddd" stroke-width="0.6666666666666666"/><line x1="575.0447138047139" y1="7.333333333333333" x2="575.0447138047139" y2="358.3333333333333" stroke="#dddddd" stroke-width="0.6666666666666666"/><line x1="54.770303030303026" y1="7.333333333333333" x2="54.770303030303026" y2="358.3333333333333" stroke="#dddddd" stroke-width="1.3333333333333333"/><line x1="203.4201346801347" y1="7.333333333333333" x2="203.4201346801347" y2="358.3333333333333" stroke="#dddddd" stroke-width="1.3333333333333333"/><line x1="352.06996632996635" y1="7.333333333333333" x2="352.06996632996635" y2="358.3333333333333" stroke="#dddddd" stroke-width="1.3333333333333333"/><line x1="500.71979797979805" y1="7.333333333333333" x2="500.71979797979805" y2="358.3333333333333" stroke="#dddddd" stroke-width="1.3333333333333333"/><line x1="28.01333333333333" y1="344.0852510749899" x2="616.6666666666666" y2="344.0852510749899" stroke="#dddddd" stroke-width="0.6666666666666666"/><line x1="28.01333333333333" y1="251.09106552616834" x2="616.6666666666666" y2="251.09106552616834" stroke="#dddddd" stroke-width="0.6666666666666666"/><line x1="28.01333333333333" y1="158.09687997734673" x2="616.6666666666666" y2="158.09687997734673" stroke="#dddddd" stroke-width="0.6666666666666666"/><line x1="28.01333333333333" y1="65.10269442852518" x2="616.6666666666666" y2="65.10269442852518" stroke="#dddddd" stroke-width="0.6666666666666666"/><line x1="28.01333333333333" y1="297.5881583005791" x2="616.6666666666666" y2="297.5881583005791" stroke="#dddddd" stroke-width="1.3333333333333333"/><line x1="28.01333333333333" y1="204.59397275175755" x2="616.6666666666666" y2="204.59397275175755" stroke="#dddddd" stroke-width="1.3333333333333333"/><line x1="28.01333333333333" y1="111.59978720293596" x2="616.6666666666666" y2="111.59978720293596" stroke="#dddddd" stroke-width="1.3333333333333333"/><line x1="28.01333333333333" y1="18.605601654114402" x2="616.6666666666666" y2="18.605601654114402" stroke="#dddddd" stroke-width="1.3333333333333333"/><rect x="28.01333333333333" y="7.333333333333333" width="588.6533333333333" height="351.0" fill="#ffffff" fill-opacity="0.0" stroke="#444444" stroke-width="1.3333333333333333"/><line x1="54.770303030303026" y1="358.3333333333333" x2="54.770303030303026" y2="362.0" stroke="#444444" stroke-width="1.3333333333333333"/><text x="54.770303030303026" y="374.32" fill="#333333" font-size="11.733333333333334" font-family="sans-serif" text-anchor="middle">0.0</text><line x1="203.4201346801347" y1="358.3333333333333" x2="203.4201346801347" y2="362.0" stroke="#444444" stroke-width="1.3333333333333333"/><text x="203.4201346801347" y="374.32" fill="#333333" font-size="11.733333333333334" font-family="sans-serif" text-anchor="middle">2.5</text><line x1="352.06996632996635" y1="358.3333333333333" x2="352.06996632996635" y2="362.0" stroke="#444444" stroke-width="1.3333333333333333"/><text x="352.06996632996635" y="374.32" fill="#333333" font-size="11.733333333333334" font-family="sans-serif" text-anchor="middle">5.0</text><line x1="500.71979797979805" y1="358.3333333333333" x2="500.71979797979805" y2="362.0" stroke="#444444" stroke-width="1.3333333333333333"/><text x="500.71979797979805" y="374.32" fill="#333333" font-size="11.733333333333334" font-family="sans-serif" text-anchor="middle">7.5</text><line x1="28.01333333333333" y1="297.5881583005791" x2="24.346666666666664" y2="297.5881583005791" stroke="#444444" stroke-width="1.3333333333333333"/><text x="21.41333333333333" y="301.6948249672458" fill="#333333" font-size="11.733333333333334" font-family="sans-serif" text-anchor="end">5</text><line x1="28.01333333333333" y1="204.59397275175755" x2="24.346666666666664" y2="204.59397275175755" stroke="#444444" stroke-width="1.3333333333333333"/><text x="21.41333333333333" y="208.70063941842423" fill="#333333" font-size="11.733333333333334" font-family="sans-serif" text-anchor="end">10</text><line x1="28.01333333333333" y1="111.59978720293596" x2="24.346666666666664" y2="111.59978720293596" stroke="#444444" stroke-width="1.3333333333333333"/><text x="21.41333333333333" y="115.70645386960263" fill="#333333" font-size="11.733333333333334" font-family="sans-serif" text-anchor="end">15</text><line x1="28.01333333333333" y1="18.605601654114402" x2="24.346666666666664" y2="18.605601654114402" stroke="#444444" stroke-width="1.3333333333333333"/><text x="21.41333333333333" y="22.712268320781067" fill="#333333" font-size="11.733333333333334" font-family="sans-serif" text-anchor="end">20</text><circle cx="54.770303030303026" cy="334.78583252010776" r="3.1181102362204727" fill="#1f77b4" fill-opacity="0.85" stroke="none"><title>(0, 3)</title></circle><circle cx="114.23023569023572" cy="316.1869954103434" r="3.1181102362204727" fill="#1f77b4" fill-opacity="0.85" stroke="none"><title>(1, 4)</title></circle><circle cx="173.6901683501684" cy="280.8492049017912" r="3.1181102362204727" fill="#1f77b4" fill-opacity="0.85" stroke="none"><title>(2, 5.9)</title></circle><circle cx="233.15010101010105" cy="256.6707166590976" r="3.1181102362204727" fill="#1f77b4" fill-opacity="0.85" stroke="none"><title>(3, 7.2)</title></circle><circle cx="292.61003367003366" cy="222.2628680060336" r="3.1181102362204727" fill="#1f77b4" fill-opacity="0.85" stroke="none"><title>(4, 9.05)</title></circle><circle cx="352.06996632996635" cy="202.7340890407811" r="3.1181102362204727" fill="#1f77b4" fill-opacity="0.85" stroke="none"><title>(5, 10.1)</title></circle><circle cx="411.52989898989904" cy="168.32624038771712" r="3.1181102362204727" fill="#1f77b4" fill-opacity="0.85" stroke="none"><title>(6, 11.95)</title></circle><circle cx="470.9898316498317" cy="144.1477521450235" r="3.1181102362204727" fill="#1f77b4" fill-opacity="0.85" stroke="none"><title>(7, 13.25)</title></circle><circle cx="530.4497643097643" cy="109.7399034919595" r="3.1181102362204727" fill="#1f77b4" fill-opacity="0.85" stroke="none"><title>(8, 15.1)</title></circle><circle cx="589.9096969696969" cy="90.21112452670695" r="3.1181102362204727" fill="#1f77b4" fill-opacity="0.85" stroke="none"><title>(9, 16.15)</title></circle><circle cx="54.770303030303026" cy="275.2695537688619" r="3.1181102362204727" fill="#1f77b4" fill-opacity="0.85" stroke="none"><title>(0, 6.2)</title></circle><circle cx="114.23023569023572" cy="256.6707166590976" r="3.1181102362204727" fill="#1f77b4" fill-opacity="0.85" stroke="none"><title>(1, 7.2)</title></circle><circle cx="173.6901683501684" cy="221.33292615054543" r="3.1181102362204727" fill="#1f77b4" fill-opacity="0.85" stroke="none"><title>(2, 9.1)</title></circle><circle cx="233.15010101010105" cy="197.1544379078518" r="3.1181102362204727" fill="#1f77b4" fill-opacity="0.85" stroke="none"><title>(3, 10.4)</title></circle><circle cx="292.61003367003366" cy="162.7465892547878" r="3.1181102362204727" fill="#1f77b4" fill-opacity="0.85" stroke="none"><title>(4, 12.25)</title></circle><circle cx="352.06996632996635" cy="143.21781028953527" r="3.1181102362204727" fill="#1f77b4" fill-opacity="0.85" stroke="none"><title>(5, 13.3)</title></circle><circle cx="411.52989898989904" cy="108.80996163647129" r="3.1181102362204727" fill="#1f77b4" fill-opacity="0.85" stroke="none"><title>(6, 15.15)</title></circle><circle cx="470.9898316498317" cy="84.6314733937777" r="3.1181102362204727" fill="#1f77b4" fill-opacity="0.85" stroke="none"><title>(7, 16.45)</title></circle><circle cx="530.4497643097643" cy="50.22362474071372" r="3.1181102362204727" fill="#1f77b4" fill-opacity="0.85" stroke="none"><title>(8, 18.3)</title></circle><circle cx="589.9096969696969" cy="30.694845775461165" r="3.1181102362204727" fill="#1f77b4" fill-opacity="0.85" stroke="none"><title>(9, 19.35)</title></circle><path d="M 54.770303030303026 342.3787878787879 L 60.175751453933266 339.79276749830194 L 65.58119987756352 337.20715858049954 L 70.98664830119375 334.62197513566656 L 76.392096724824 332.03723166998896 L 81.79754514845425 329.45294319719505 L 87.20299357208447 326.86912524950503 L 92.60844199571473 324.2857938877282 L 98.01389041934496 321.7029657103328 L 103.41933884297521 319.1206578612952 L 108.82478726660545 316.538888036516 L 114.23023569023572 313.95767448857356 L 119.63568411386593 311.3770360295639 L 125.0411325374962 308.7969920317596 L 130.44658096112641 306.2175624257985 L 135.85202938475666 303.6387676960994 L 141.2574778083869 301.0606288731807 L 146.66292623201713 298.4831675225484 L 152.0683746556474 295.9064057298054 L 157.47382307927765 293.3303660816272 L 162.87927150290787 290.75507164224587 L 168.28471992653812 288.180545925086 L 173.6901683501684 285.6068128592044 L 179.0956167737986 283.0338967502026 L 184.50106519742883 280.46182223530434 L 189.9065136210591 277.8906142323261 L 195.31196204468932 275.32029788231205 L 200.7174104683196 272.7508984856636 L 206.12285889194982 270.18244143165884 L 211.52830731558007 267.61495212134287 L 216.93375573921028 265.048455883859 L 222.3392041628406 262.4829778864 L 227.7446525864708 259.9185430380742 L 233.15010101010105 257.35517588810836 L 238.55554943373127 254.79290051894554 L 243.96099785736152 252.2317404349331 L 249.36644628099174 249.6717184474434 L 254.771894704622 247.1128565574035 L 260.17734312825223 244.5551758363507 L 265.58279155188245 241.99869630724908 L 270.98823997551267 239.44343682641158 L 276.3936883991429 236.8894149679583 L 281.7991368227732 234.3366469123012 L 287.20458524640344 231.78514734017693 L 292.61003367003366 229.23492933374555 L 298.01548209366393 226.68600428623452 L 303.42093051729415 224.13838182152907 L 308.8263789409244 221.59206972499737 L 314.23182736455465 219.0470738866871 L 319.63727578818487 216.50339825784783 L 325.0427242118152 213.96104482152137 L 330.4481726354454 211.42001357770766 L 335.85362105907564 208.88030254336505 L 341.25906948270585 206.3419077672438 L 346.6645179063362 203.80482335929642 L 352.06996632996635 201.26904153415447 L 357.4754147535966 198.73455266793295 L 362.88086317722684 196.20134536740426 L 368.28631160085706 193.6694065504085 L 373.6917600244873 191.13872153620883 L 379.09720844811756 188.6092741443934 L 384.50265687174783 186.0810468008421 L 389.90810529537805 183.55402064924198 L 395.3135537190083 181.02817566662895 L 400.7190021426386 178.50349078146576 L 406.12445056626876 175.9799439928252 L 411.52989898989904 173.4575124893352 L 416.93534741352926 170.93617276664804 L 422.34079583715953 168.415900742321 L 427.7462442607898 165.8966718671271 L 433.15169268441997 163.378461231958 L 438.55714110805025 160.86124366962102 L 443.9625895316806 158.34499385097286 L 449.36803795531074 155.82968637496836 L 454.773486378941 153.31529585232946 L 460.17893480257123 150.8017969826548 L 465.5843832262015 148.28916462490014 L 470.9898316498317 145.77737386124903 L 476.39528007346195 143.2664000544777 L 481.8007284970922 140.75621889898468 L 487.20617692072244 138.24680646571312 L 492.6116253443527 135.7381392412384 L 498.0170737679829 133.23019416132846 L 503.42252219161315 130.7229486393078 L 508.82797061524343 128.21638058957356 L 514.2334190388735 125.71046844661971 L 519.6388674625039 123.20519117992785 L 525.0443158861341 120.70052830507935 L 530.4497643097643 118.19645989143604 L 535.8552127333946 115.69296656672557 L 541.2606611570247 113.19002951885182 L 546.6661095806551 110.6876304952365 L 552.0715580042852 108.18575179997902 L 557.4770064279155 105.68437628910294 L 562.8824548515457 103.18348736414 L 568.287903275176 100.68306896428096 L 573.6933516988062 98.18310555730571 L 579.0988001224365 95.68358212948567 L 584.5042485460667 93.18448417463526 L 589.9096969696969 90.6857976824682 L 589.9096969696969 82.80415753912457 L 584.5042485460667 85.39017791961051 L 579.0988001224365 87.97578683741281 L 573.6933516988062 90.56097028224588 L 568.287903275176 93.14571374792342 L 562.8824548515457 95.73000222071732 L 557.4770064279155 98.31382016840742 L 552.0715580042852 100.89715153018426 L 546.6661095806551 103.47997970757959 L 541.2606611570247 106.06228755661724 L 535.8552127333946 108.64405738139638 L 530.4497643097643 111.22527092933888 L 525.0443158861341 113.80590938834848 L 519.6388674625039 116.38595338615285 L 514.2334190388735 118.96538299211389 L 508.82797061524343 121.54417772181303 L 503.42252219161315 124.12231654473172 L 498.0170737679829 126.69977789536404 L 492.6116253443527 129.27653968810705 L 487.20617692072244 131.85257933628523 L 481.8007284970922 134.4278737756665 L 476.39528007346195 137.0023994928264 L 470.9898316498317 139.576132558708 L 465.5843832262015 142.14904866770988 L 460.17893480257123 144.72112318260807 L 454.773486378941 147.29233118558636 L 449.36803795531074 149.86264753560033 L 443.9625895316806 152.43204693224885 L 438.55714110805025 155.0005039862536 L 433.15169268441997 157.56799329656957 L 427.7462442607898 160.13448953405342 L 422.34079583715953 162.69996753151236 L 416.93534741352926 165.2644023798382 L 411.52989898989904 167.82776952980402 L 406.12445056626876 170.3900448989669 L 400.7190021426386 172.95120498297925 L 395.3135537190083 175.51122697046895 L 389.90810529537805 178.07008886050886 L 384.50265687174783 180.6277695815617 L 379.09720844811756 183.1842491106634 L 373.6917600244873 185.7395085915009 L 368.28631160085706 188.29353044995418 L 362.88086317722684 190.84629850561123 L 357.4754147535966 193.39779807773553 L 352.06996632996635 195.94801608416688 L 346.6645179063362 198.49694113167791 L 341.25906948270585 201.04456359638334 L 335.85362105907564 203.59087569291506 L 330.4481726354454 206.13587153122538 L 325.0427242118152 208.6795471600646 L 319.63727578818487 211.22190059639107 L 314.23182736455465 213.76293184020483 L 308.8263789409244 216.30264287454742 L 303.42093051729415 218.84103765066857 L 298.01548209366393 221.37812205861604 L 292.61003367003366 223.913903883758 L 287.20458524640344 226.44839274997952 L 281.7991368227732 228.98160005050812 L 276.3936883991429 231.513538867504 L 270.98823997551267 234.0442238817036 L 265.58279155188245 236.57367127351904 L 260.17734312825223 239.10189861707033 L 254.771894704622 241.6289247686704 L 249.36644628099174 244.15476975128345 L 243.96099785736152 246.67945463644665 L 238.55554943373127 249.20300142508722 L 233.15010101010105 251.72543292857722 L 227.7446525864708 254.24677265126434 L 222.3392041628406 256.7670446755915 L 216.93375573921028 259.2862735507854 L 211.52830731558007 261.80448418595444 L 206.12285889194982 264.32170174829145 L 200.7174104683196 266.8379515669396 L 195.31196204468932 269.35325904294393 L 189.9065136210591 271.86764956558295 L 184.50106519742883 274.3811484352576 L 179.0956167737986 276.89378079301224 L 173.6901683501684 279.40557155666335 L 168.28471992653812 281.9165453634347 L 162.87927150290787 284.4267265189277 L 157.47382307927765 286.93613895219937 L 152.0683746556474 289.4448061766741 L 146.66292623201713 291.952751256584 L 141.2574778083869 294.45999677860465 L 135.85202938475666 296.96656482833885 L 130.44658096112641 299.4724769712927 L 125.0411325374962 301.9777542379845 L 119.63568411386593 304.4824171128331 L 114.23023569023572 306.9864855264764 L 108.82478726660545 309.48997885118683 L 103.41933884297521 311.99291589906056 L 98.01389041934496 314.4953149226759 L 92.60844199571473 316.9971936179334 L 87.20299357208447 319.4985691288095 L 81.79754514845425 321.9994580537724 L 76.392096724824 324.49987645363143 L 70.98664830119375 326.99983986060676 L 65.58119987756352 329.4993632884267 L 60.175751453933266 331.99846124327723 L 54.770303030303026 334.49714773544423 Z" fill="#1f77b4" fill-opacity="0.2" stroke="none"/><line x1="54.770303030303026" y1="338.437967807116" x2="60.175751453933266" y2="335.8956143707896" stroke="#1f77b4" stroke-width="1.4211023622047245"/><line x1="60.175751453933266" y1="335.8956143707896" x2="65.58119987756352" y2="333.35326093446315" stroke="#1f77b4" stroke-width="1.4211023622047245"/><line x1="65.58119987756352" y1="333.35326093446315" x2="70.98664830119375" y2="330.81090749813666" stroke="#1f77b4" stroke-width="1.4211023622047245"/><line x1="70.98664830119375" y1="330.81090749813666" x2="76.392096724824" y2="328.26855406181016" stroke="#1f77b4" stroke-width="1.4211023622047245"/><line x1="76.392096724824" y1="328.26855406181016" x2="81.79754514845425" y2="325.7262006254837" stroke="#1f77b4" stroke-width="1.4211023622047245"/><line x1="81.79754514845425" y1="325.7262006254837" x2="87.20299357208447" y2="323.1838471891573" stroke="#1f77b4" stroke-width="1.4211023622047245"/><line x1="87.20299357208447" y1="323.1838471891573" x2="92.60844199571473" y2="320.6414937528308" stroke="#1f77b4" stroke-width="1.4211023622047245"/><line x1="92.60844199571473" y1="320.6414937528308" x2="98.01389041934496" y2="318.09914031650436" stroke="#1f77b4" stroke-width="1.4211023622047245"/><line x1="98.01389041934496" y1="318.09914031650436" x2="103.41933884297521" y2="315.5567868801779" stroke="#1f77b4" stroke-width="1.4211023622047245"/><line x1="103.41933884297521" y1="315.5567868801779" x2="108.82478726660545" y2="313.01443344385143" stroke="#1f77b4" stroke-width="1.4211023622047245"/><line x1="108.82478726660545" y1="313.01443344385143" x2="114.23023569023572" y2="310.472080007525" stroke="#1f77b4" stroke-width="1.4211023622047245"/><line x1="114.23023569023572" y1="310.472080007525" x2="119.63568411386593" y2="307.9297265711985" stroke="#1f77b4" stroke-width="1.4211023622047245"/><line x1="119.63568411386593" y1="307.9297265711985" x2="125.0411325374962" y2="305.38737313487206" stroke="#1f77b4" stroke-width="1.4211023622047245"/><line x1="125.0411325374962" y1="305.38737313487206" x2="130.44658096112641" y2="302.84501969854557" stroke="#1f77b4" stroke-width="1.4211023622047245"/><line x1="130.44658096112641" y1="302.84501969854557" x2="135.85202938475666" y2="300.30266626221913" stroke="#1f77b4" stroke-width="1.4211023622047245"/><line x1="135.85202938475666" y1="300.30266626221913" x2="141.2574778083869" y2="297.7603128258927" stroke="#1f77b4" stroke-width="1.4211023622047245"/><line x1="141.2574778083869" y1="297.7603128258927" x2="146.66292623201713" y2="295.2179593895662" stroke="#1f77b4" stroke-width="1.4211023622047245"/><line x1="146.66292623201713" y1="295.2179593895662" x2="152.0683746556474" y2="292.6756059532397" stroke="#1f77b4" stroke-width="1.4211023622047245"/><line x1="152.0683746556474" y1="292.6756059532397" x2="157.47382307927765" y2="290.1332525169133" stroke="#1f77b4" stroke-width="1.4211023622047245"/><line x1="157.47382307927765" y1="290.1332525169133" x2="162.87927150290787" y2="287.59089908058684" stroke="#1f77b4" stroke-width="1.4211023622047245"/><line x1="162.87927150290787" y1="287.59089908058684" x2="168.28471992653812" y2="285.04854564426034" stroke="#1f77b4" stroke-width="1.4211023622047245"/><line x1="168.28471992653812" y1="285.04854564426034" x2="173.6901683501684" y2="282.50619220793385" stroke="#1f77b4" stroke-width="1.4211023622047245"/><line x1="173.6901683501684" y1="282.50619220793385" x2="179.0956167737986" y2="279.96383877160747" stroke="#1f77b4" stroke-width="1.4211023622047245"/><line x1="179.0956167737986" y1="279.96383877160747" x2="184.50106519742883" y2="277.421485335281" stroke="#1f77b4" stroke-width="1.4211023622047245"/><line x1="184.50106519742883" y1="277.421485335281" x2="189.9065136210591" y2="274.8791318989545" stroke="#1f77b4" stroke-width="1.4211023622047245"/><line x1="189.9065136210591" y1="274.8791318989545" x2="195.31196204468932" y2="272.33677846262805" stroke="#1f77b4" stroke-width="1.4211023622047245"/><line x1="195.31196204468932" y1="272.33677846262805" x2="200.7174104683196" y2="269.79442502630155" stroke="#1f77b4" stroke-width="1.4211023622047245"/><line x1="200.7174104683196" y1="269.79442502630155" x2="206.12285889194982" y2="267.2520715899751" stroke="#1f77b4" stroke-width="1.4211023622047245"/><line x1="206.12285889194982" y1="267.2520715899751" x2="211.52830731558007" y2="264.7097181536486" stroke="#1f77b4" stroke-width="1.4211023622047245"/><line x1="211.52830731558007" y1="264.7097181536486" x2="216.93375573921028" y2="262.16736471732224" stroke="#1f77b4" stroke-width="1.4211023622047245"/><line x1="216.93375573921028" y1="262.16736471732224" x2="222.3392041628406" y2="259.62501128099575" stroke="#1f77b4" stroke-width="1.4211023622047245"/><line x1="222.3392041628406" y1="259.62501128099575" x2="227.7446525864708" y2="257.08265784466926" stroke="#1f77b4" stroke-width="1.4211023622047245"/><line x1="227.7446525864708" y1="257.08265784466926" x2="233.15010101010105" y2="254.54030440834282" stroke="#1f77b4" stroke-width="1.4211023622047245"/><line x1="233.15010101010105" y1="254.54030440834282" x2="238.55554943373127" y2="251.99795097201633" stroke="#1f77b4" stroke-width="1.4211023622047245"/><line x1="238.55554943373127" y1="251.99795097201633" x2="243.96099785736152" y2="249.4555975356899" stroke="#1f77b4" stroke-width="1.4211023622047245"/><line x1="243.96099785736152" y1="249.4555975356899" x2="249.36644628099174" y2="246.91324409936342" stroke="#1f77b4" stroke-width="1.4211023622047245"/><line x1="249.36644628099174" y1="246.91324409936342" x2="254.771894704622" y2="244.37089066303696" stroke="#1f77b4" stroke-width="1.4211023622047245"/><line x1="254.771894704622" y1="244.37089066303696" x2="260.17734312825223" y2="241.82853722671052" stroke="#1f77b4" stroke-width="1.4211023622047245"/><line x1="260.17734312825223" y1="241.82853722671052" x2="265.58279155188245" y2="239.28618379038406" stroke="#1f77b4" stroke-width="1.4211023622047245"/><line x1="265.58279155188245" y1="239.28618379038406" x2="270.98823997551267" y2="236.7438303540576" stroke="#1f77b4" stroke-width="1.4211023622047245"/><line x1="270.98823997551267" y1="236.7438303540576" x2="276.3936883991429" y2="234.20147691773116" stroke="#1f77b4" stroke-width="1.4211023622047245"/><line x1="276.3936883991429" y1="234.20147691773116" x2="281.7991368227732" y2="231.6591234814047" stroke="#1f77b4" stroke-width="1.4211023622047245"/><line x1="281.7991368227732" y1="231.6591234814047" x2="287.20458524640344" y2="229.11677004507823" stroke="#1f77b4" stroke-width="1.4211023622047245"/><line x1="287.20458524640344" y1="229.11677004507823" x2="292.61003367003366" y2="226.5744166087518" stroke="#1f77b4" stroke-width="1.4211023622047245"/><line x1="292.61003367003366" y1="226.5744166087518" x2="298.01548209366393" y2="224.0320631724253" stroke="#1f77b4" stroke-width="1.4211023622047245"/><line x1="298.01548209366393" y1="224.0320631724253" x2="303.42093051729415" y2="221.4897097360988" stroke="#1f77b4" stroke-width="1.4211023622047245"/><line x1="303.42093051729415" y1="221.4897097360988" x2="308.8263789409244" y2="218.94735629977242" stroke="#1f77b4" stroke-width="1.4211023622047245"/><line x1="308.8263789409244" y1="218.94735629977242" x2="314.23182736455465" y2="216.40500286344596" stroke="#1f77b4" stroke-width="1.4211023622047245"/><line x1="314.23182736455465" y1="216.40500286344596" x2="319.63727578818487" y2="213.86264942711946" stroke="#1f77b4" stroke-width="1.4211023622047245"/><line x1="319.63727578818487" y1="213.86264942711946" x2="325.0427242118152" y2="211.32029599079297" stroke="#1f77b4" stroke-width="1.4211023622047245"/><line x1="325.0427242118152" y1="211.32029599079297" x2="330.4481726354454" y2="208.7779425544665" stroke="#1f77b4" stroke-width="1.4211023622047245"/><line x1="330.4481726354454" y1="208.7779425544665" x2="335.85362105907564" y2="206.23558911814007" stroke="#1f77b4" stroke-width="1.4211023622047245"/><line x1="335.85362105907564" y1="206.23558911814007" x2="341.25906948270585" y2="203.69323568181358" stroke="#1f77b4" stroke-width="1.4211023622047245"/><line x1="341.25906948270585" y1="203.69323568181358" x2="346.6645179063362" y2="201.15088224548714" stroke="#1f77b4" stroke-width="1.4211023622047245"/><line x1="346.6645179063362" y1="201.15088224548714" x2="352.06996632996635" y2="198.6085288091607" stroke="#1f77b4" stroke-width="1.4211023622047245"/><line x1="352.06996632996635" y1="198.6085288091607" x2="357.4754147535966" y2="196.06617537283424" stroke="#1f77b4" stroke-width="1.4211023622047245"/><line x1="357.4754147535966" y1="196.06617537283424" x2="362.88086317722684" y2="193.52382193650774" stroke="#1f77b4" stroke-width="1.4211023622047245"/><line x1="362.88086317722684" y1="193.52382193650774" x2="368.28631160085706" y2="190.98146850018134" stroke="#1f77b4" stroke-width="1.4211023622047245"/><line x1="368.28631160085706" y1="190.98146850018134" x2="373.6917600244873" y2="188.43911506385484" stroke="#1f77b4" stroke-width="1.4211023622047245"/><line x1="373.6917600244873" y1="188.43911506385484" x2="379.09720844811756" y2="185.89676162752838" stroke="#1f77b4" stroke-width="1.4211023622047245"/><line x1="379.09720844811756" y1="185.89676162752838" x2="384.50265687174783" y2="183.3544081912019" stroke="#1f77b4" stroke-width="1.4211023622047245"/><line x1="384.50265687174783" y1="183.3544081912019" x2="389.90810529537805" y2="180.81205475487542" stroke="#1f77b4" stroke-width="1.4211023622047245"/><line x1="389.90810529537805" y1="180.81205475487542" x2="395.3135537190083" y2="178.26970131854898" stroke="#1f77b4" stroke-width="1.4211023622047245"/><line x1="395.3135537190083" y1="178.26970131854898" x2="400.7190021426386" y2="175.7273478822225" stroke="#1f77b4" stroke-width="1.4211023622047245"/><line x1="400.7190021426386" y1="175.7273478822225" x2="406.12445056626876" y2="173.1849944458961" stroke="#1f77b4" stroke-width="1.4211023622047245"/><line x1="406.12445056626876" y1="173.1849944458961" x2="411.52989898989904" y2="170.64264100956962" stroke="#1f77b4" stroke-width="1.4211023622047245"/><line x1="411.52989898989904" y1="170.64264100956962" x2="416.93534741352926" y2="168.10028757324315" stroke="#1f77b4" stroke-width="1.4211023622047245"/><line x1="416.93534741352926" y1="168.10028757324315" x2="422.34079583715953" y2="165.55793413691666" stroke="#1f77b4" stroke-width="1.4211023622047245"/><line x1="422.34079583715953" y1="165.55793413691666" x2="427.7462442607898" y2="163.01558070059028" stroke="#1f77b4" stroke-width="1.4211023622047245"/><line x1="427.7462442607898" y1="163.01558070059028" x2="433.15169268441997" y2="160.47322726426378" stroke="#1f77b4" stroke-width="1.4211023622047245"/><line x1="433.15169268441997" y1="160.47322726426378" x2="438.55714110805025" y2="157.93087382793732" stroke="#1f77b4" stroke-width="1.4211023622047245"/><line x1="438.55714110805025" y1="157.93087382793732" x2="443.9625895316806" y2="155.38852039161083" stroke="#1f77b4" stroke-width="1.4211023622047245"/><line x1="443.9625895316806" y1="155.38852039161083" x2="449.36803795531074" y2="152.8461669552844" stroke="#1f77b4" stroke-width="1.4211023622047245"/><line x1="449.36803795531074" y1="152.8461669552844" x2="454.773486378941" y2="150.3038135189579" stroke="#1f77b4" stroke-width="1.4211023622047245"/><line x1="454.773486378941" y1="150.3038135189579" x2="460.17893480257123" y2="147.76146008263143" stroke="#1f77b4" stroke-width="1.4211023622047245"/><line x1="460.17893480257123" y1="147.76146008263143" x2="465.5843832262015" y2="145.21910664630502" stroke="#1f77b4" stroke-width="1.4211023622047245"/><line x1="465.5843832262015" y1="145.21910664630502" x2="470.9898316498317" y2="142.67675320997856" stroke="#1f77b4" stroke-width="1.4211023622047245"/><line x1="470.9898316498317" y1="142.67675320997856" x2="476.39528007346195" y2="140.13439977365206" stroke="#1f77b4" stroke-width="1.4211023622047245"/><line x1="476.39528007346195" y1="140.13439977365206" x2="481.8007284970922" y2="137.5920463373256" stroke="#1f77b4" stroke-width="1.4211023622047245"/><line x1="481.8007284970922" y1="137.5920463373256" x2="487.20617692072244" y2="135.04969290099916" stroke="#1f77b4" stroke-width="1.4211023622047245"/><line x1="487.20617692072244" y1="135.04969290099916" x2="492.6116253443527" y2="132.5073394646727" stroke="#1f77b4" stroke-width="1.4211023622047245"/><line x1="492.6116253443527" y1="132.5073394646727" x2="498.0170737679829" y2="129.9649860283462" stroke="#1f77b4" stroke-width="1.4211023622047245"/><line x1="498.0170737679829" y1="129.9649860283462" x2="503.42252219161315" y2="127.4226325920198" stroke="#1f77b4" stroke-width="1.4211023622047245"/><line x1="503.42252219161315" y1="127.4226325920198" x2="508.82797061524343" y2="124.8802791556933" stroke="#1f77b4" stroke-width="1.4211023622047245"/><line x1="508.82797061524343" y1="124.8802791556933" x2="514.2334190388735" y2="122.33792571936684" stroke="#1f77b4" stroke-width="1.4211023622047245"/><line x1="514.2334190388735" y1="122.33792571936684" x2="519.6388674625039" y2="119.79557228304034" stroke="#1f77b4" stroke-width="1.4211023622047245"/><line x1="519.6388674625039" y1="119.79557228304034" x2="525.0443158861341" y2="117.25321884671393" stroke="#1f77b4" stroke-width="1.4211023622047245"/><line x1="525.0443158861341" y1="117.25321884671393" x2="530.4497643097643" y2="114.71086541038744" stroke="#1f77b4" stroke-width="1.4211023622047245"/><line x1="530.4497643097643" y1="114.71086541038744" x2="535.8552127333946" y2="112.16851197406098" stroke="#1f77b4" stroke-width="1.4211023622047245"/><line x1="535.8552127333946" y1="112.16851197406098" x2="541.2606611570247" y2="109.62615853773453" stroke="#1f77b4" stroke-width="1.4211023622047245"/><line x1="541.2606611570247" y1="109.62615853773453" x2="546.6661095806551" y2="107.08380510140807" stroke="#1f77b4" stroke-width="1.4211023622047245"/><line x1="546.6661095806551" y1="107.08380510140807" x2="552.0715580042852" y2="104.54145166508161" stroke="#1f77b4" stroke-width="1.4211023622047245"/><line x1="552.0715580042852" y1="104.54145166508161" x2="557.4770064279155" y2="101.99909822875516" stroke="#1f77b4" stroke-width="1.4211023622047245"/><line x1="557.4770064279155" y1="101.99909822875516" x2="562.8824548515457" y2="99.45674479242867" stroke="#1f77b4" stroke-width="1.4211023622047245"/><line x1="562.8824548515457" y1="99.45674479242867" x2="568.287903275176" y2="96.91439135610221" stroke="#1f77b4" stroke-width="1.4211023622047245"/><line x1="568.287903275176" y1="96.91439135610221" x2="573.6933516988062" y2="94.37203791977579" stroke="#1f77b4" stroke-width="1.4211023622047245"/><line x1="573.6933516988062" y1="94.37203791977579" x2="579.0988001224365" y2="91.82968448344926" stroke="#1f77b4" stroke-width="1.4211023622047245"/><line x1="579.0988001224365" y1="91.82968448344926" x2="584.5042485460667" y2="89.28733104712285" stroke="#1f77b4" stroke-width="1.4211023622047245"/><line x1="584.5042485460667" y1="89.28733104712285" x2="589.9096969696969" y2="86.74497761079638" stroke="#1f77b4" stroke-width="1.4211023622047245"/><path d="M 54.770303030303026 282.862509127542 L 60.175751453933266 280.27648874705613 L 65.58119987756352 277.69087982925373 L 70.98664830119375 275.10569638442075 L 76.392096724824 272.5209529187432 L 81.79754514845425 269.93666444594925 L 87.20299357208447 267.3528464982593 L 92.60844199571473 264.76951513648237 L 98.01389041934496 262.186686959087 L 103.41933884297521 259.6043791100494 L 108.82478726660545 257.0226092852702 L 114.23023569023572 254.44139573732778 L 119.63568411386593 251.86075727831815 L 125.0411325374962 249.2807132805138 L 130.44658096112641 246.70128367455268 L 135.85202938475666 244.12248894485361 L 141.2574778083869 241.54435012193494 L 146.66292623201713 238.96688877130265 L 152.0683746556474 236.3901269785596 L 157.47382307927765 233.81408733038143 L 162.87927150290787 231.23879289100012 L 168.28471992653812 228.66426717384024 L 173.6901683501684 226.0905341079586 L 179.0956167737986 223.51761799895678 L 184.50106519742883 220.94554348405853 L 189.9065136210591 218.3743354810803 L 195.31196204468932 215.8040191310663 L 200.7174104683196 213.23461973441783 L 206.12285889194982 210.66616268041304 L 211.52830731558007 208.09867337009706 L 216.93375573921028 205.53217713261327 L 222.3392041628406 202.9666991351543 L 227.7446525864708 200.40226428682845 L 233.15010101010105 197.8388971368626 L 238.55554943373127 195.27662176769974 L 243.96099785736152 192.71546168368732 L 249.36644628099174 190.15543969619762 L 254.771894704622 187.5965778061577 L 260.17734312825223 185.03889708510496 L 265.58279155188245 182.48241755600327 L 270.98823997551267 179.92715807516575 L 276.3936883991429 177.3731362167125 L 281.7991368227732 174.82036816105543 L 287.20458524640344 172.26886858893116 L 292.61003367003366 169.71865058249972 L 298.01548209366393 167.16972553498874 L 303.42093051729415 164.6221030702833 L 308.8263789409244 162.07579097375157 L 314.23182736455465 159.53079513544128 L 319.63727578818487 156.98711950660203 L 325.0427242118152 154.44476607027553 L 330.4481726354454 151.90373482646186 L 335.85362105907564 149.36402379211927 L 341.25906948270585 146.825629015998 L 346.6645179063362 144.2885446080506 L 352.06996632996635 141.7527627829087 L 357.4754147535966 139.2182739166871 L 362.88086317722684 136.68506661615848 L 368.28631160085706 134.15312779916272 L 373.6917600244873 131.62244278496306 L 379.09720844811756 129.0929953931476 L 384.50265687174783 126.56476804959632 L 389.90810529537805 124.03774189799617 L 395.3135537190083 121.51189691538316 L 400.7190021426386 118.98721203021996 L 406.12445056626876 116.46366524157943 L 411.52989898989904 113.94123373808941 L 416.93534741352926 111.41989401540225 L 422.34079583715953 108.89962199107518 L 427.7462442607898 106.38039311588132 L 433.15169268441997 103.8621824807122 L 438.55714110805025 101.3449649183752 L 443.9625895316806 98.82871509972706 L 449.36803795531074 96.31340762372261 L 454.773486378941 93.79901710108368 L 460.17893480257123 91.28551823140893 L 465.5843832262015 88.77288587365436 L 470.9898316498317 86.2610951100033 L 476.39528007346195 83.7501213032319 L 481.8007284970922 81.23994014773885 L 487.20617692072244 78.73052771446737 L 492.6116253443527 76.22186048999254 L 498.0170737679829 73.71391541008259 L 503.42252219161315 71.20666988806204 L 508.82797061524343 68.70010183832774 L 514.2334190388735 66.19418969537396 L 519.6388674625039 63.68891242868206 L 525.0443158861341 61.184249553833595 L 530.4497643097643 58.68018114019026 L 535.8552127333946 56.176687815479795 L 541.2606611570247 53.67375076760602 L 546.6661095806551 51.17135174399065 L 552.0715580042852 48.669473048733224 L 557.4770064279155 46.16809753785715 L 562.8824548515457 43.66720861289423 L 568.287903275176 41.16679021303518 L 573.6933516988062 38.666826806059966 L 579.0988001224365 36.16730337823988 L 584.5042485460667 33.66820542338943 L 589.9096969696969 31.169518931222417 L 589.9096969696969 23.28787878787879 L 584.5042485460667 25.873899168364687 L 579.0988001224365 28.459508086167034 L 573.6933516988062 31.044691531000087 L 568.287903275176 33.62943499667763 L 562.8824548515457 36.213723469471574 L 557.4770064279155 38.797541417161554 L 552.0715580042852 41.38087277893847 L 546.6661095806551 43.96370095633381 L 541.2606611570247 46.546008805371414 L 535.8552127333946 49.1277786301506 L 530.4497643097643 51.708992178093084 L 525.0443158861341 54.28963063710269 L 519.6388674625039 56.869674634906985 L 514.2334190388735 59.44910424086807 L 508.82797061524343 62.02789897056724 L 503.42252219161315 64.6060377934859 L 498.0170737679829 67.18349914411824 L 492.6116253443527 69.76026093686126 L 487.20617692072244 72.33630058503941 L 481.8007284970922 74.91159502442072 L 476.39528007346195 77.48612074158059 L 470.9898316498317 80.05985380746222 L 465.5843832262015 82.63276991646406 L 460.17893480257123 85.20484443136229 L 454.773486378941 87.77605243434053 L 449.36803795531074 90.34636878435454 L 443.9625895316806 92.91576818100307 L 438.55714110805025 95.48422523500781 L 433.15169268441997 98.05171454532376 L 427.7462442607898 100.6182107828076 L 422.34079583715953 103.18368878026656 L 416.93534741352926 105.74812362859241 L 411.52989898989904 108.31149077855824 L 406.12445056626876 110.87376614772111 L 400.7190021426386 113.43492623173343 L 395.3135537190083 115.99494821922318 L 389.90810529537805 118.55381010926313 L 384.50265687174783 121.11149083031592 L 379.09720844811756 123.66797035941761 L 373.6917600244873 126.22322984025507 L 368.28631160085706 128.77725169870837 L 362.88086317722684 131.33001975436542 L 357.4754147535966 133.88151932648975 L 352.06996632996635 136.4317373329211 L 346.6645179063362 138.98066238043214 L 341.25906948270585 141.52828484513753 L 335.85362105907564 144.07459694166926 L 330.4481726354454 146.6195927799796 L 325.0427242118152 149.16326840881882 L 319.63727578818487 151.7056218451453 L 314.23182736455465 154.246653088959 L 308.8263789409244 156.78636412330164 L 303.42093051729415 159.32475889942276 L 298.01548209366393 161.86184330737026 L 292.61003367003366 164.3976251325122 L 287.20458524640344 166.93211399873374 L 281.7991368227732 169.46532129926234 L 276.3936883991429 171.9972601162582 L 270.98823997551267 174.52794513045785 L 265.58279155188245 177.05739252227323 L 260.17734312825223 179.58561986582453 L 254.771894704622 182.11264601742462 L 249.36644628099174 184.63849100003767 L 243.96099785736152 187.16317588520087 L 238.55554943373127 189.68672267384142 L 233.15010101010105 192.20915417733147 L 227.7446525864708 194.73049390001862 L 222.3392041628406 197.25076592434564 L 216.93375573921028 199.76999479953957 L 211.52830731558007 202.28820543470866 L 206.12285889194982 204.80542299704567 L 200.7174104683196 207.32167281569383 L 195.31196204468932 209.83698029169824 L 189.9065136210591 212.35137081433714 L 184.50106519742883 214.86486968401178 L 179.0956167737986 217.3775020417665 L 173.6901683501684 219.88929280541765 L 168.28471992653812 222.40026661218894 L 162.87927150290787 224.91044776768194 L 157.47382307927765 227.41986020095356 L 152.0683746556474 229.92852742542829 L 146.66292623201713 232.4364725053382 L 141.2574778083869 234.94371802735887 L 135.85202938475666 237.4502860770931 L 130.44658096112641 239.9561982200469 L 125.0411325374962 242.46147548673872 L 119.63568411386593 244.96613836158727 L 114.23023569023572 247.47020677523057 L 108.82478726660545 249.97370009994103 L 103.41933884297521 252.4766371478148 L 98.01389041934496 254.97903617143015 L 92.60844199571473 257.4809148666876 L 87.20299357208447 259.9822903775637 L 81.79754514845425 262.4831793025266 L 76.392096724824 264.9835977023856 L 70.98664830119375 267.48356110936095 L 65.58119987756352 269.9830845371809 L 60.175751453933266 272.48218249203137 L 54.770303030303026 274.9808689841984 Z" fill="#ff7f0e" fill-opacity="0.2" stroke="none"/><line x1="54.770303030303026" y1="278.9216890558703" x2="60.175751453933266" y2="276.3793356195438" stroke="#ff7f0e" stroke-width="1.4211023622047245"/><line x1="60.175751453933266" y1="276.3793356195438" x2="65.58119987756352" y2="273.8369821832173" stroke="#ff7f0e" stroke-width="1.4211023622047245"/><line x1="65.58119987756352" y1="273.8369821832173" x2="70.98664830119375" y2="271.29462874689085" stroke="#ff7f0e" stroke-width="1.4211023622047245"/><line x1="70.98664830119375" y1="271.29462874689085" x2="76.392096724824" y2="268.7522753105644" stroke="#ff7f0e" stroke-width="1.4211023622047245"/><line x1="76.392096724824" y1="268.7522753105644" x2="81.79754514845425" y2="266.2099218742379" stroke="#ff7f0e" stroke-width="1.4211023622047245"/><line x1="81.79754514845425" y1="266.2099218742379" x2="87.20299357208447" y2="263.6675684379115" stroke="#ff7f0e" stroke-width="1.4211023622047245"/><line x1="87.20299357208447" y1="263.6675684379115" x2="92.60844199571473" y2="261.12521500158505" stroke="#ff7f0e" stroke-width="1.4211023622047245"/><line x1="92.60844199571473" y1="261.12521500158505" x2="98.01389041934496" y2="258.58286156525855" stroke="#ff7f0e" stroke-width="1.4211023622047245"/><line x1="98.01389041934496" y1="258.58286156525855" x2="103.41933884297521" y2="256.0405081289321" stroke="#ff7f0e" stroke-width="1.4211023622047245"/><line x1="103.41933884297521" y1="256.0405081289321" x2="108.82478726660545" y2="253.49815469260562" stroke="#ff7f0e" stroke-width="1.4211023622047245"/><line x1="108.82478726660545" y1="253.49815469260562" x2="114.23023569023572" y2="250.95580125627922" stroke="#ff7f0e" stroke-width="1.4211023622047245"/><line x1="114.23023569023572" y1="250.95580125627922" x2="119.63568411386593" y2="248.41344781995272" stroke="#ff7f0e" stroke-width="1.4211023622047245"/><line x1="119.63568411386593" y1="248.41344781995272" x2="125.0411325374962" y2="245.87109438362623" stroke="#ff7f0e" stroke-width="1.4211023622047245"/><line x1="125.0411325374962" y1="245.87109438362623" x2="130.44658096112641" y2="243.32874094729982" stroke="#ff7f0e" stroke-width="1.4211023622047245"/><line x1="130.44658096112641" y1="243.32874094729982" x2="135.85202938475666" y2="240.78638751097338" stroke="#ff7f0e" stroke-width="1.4211023622047245"/><line x1="135.85202938475666" y1="240.78638751097338" x2="141.2574778083869" y2="238.2440340746469" stroke="#ff7f0e" stroke-width="1.4211023622047245"/><line x1="141.2574778083869" y1="238.2440340746469" x2="146.66292623201713" y2="235.7016806383204" stroke="#ff7f0e" stroke-width="1.4211023622047245"/><line x1="146.66292623201713" y1="235.7016806383204" x2="152.0683746556474" y2="233.1593272019939" stroke="#ff7f0e" stroke-width="1.4211023622047245"/><line x1="152.0683746556474" y1="233.1593272019939" x2="157.47382307927765" y2="230.61697376566747" stroke="#ff7f0e" stroke-width="1.4211023622047245"/><line x1="157.47382307927765" y1="230.61697376566747" x2="162.87927150290787" y2="228.074620329341" stroke="#ff7f0e" stroke-width="1.4211023622047245"/><line x1="162.87927150290787" y1="228.074620329341" x2="168.28471992653812" y2="225.5322668930146" stroke="#ff7f0e" stroke-width="1.4211023622047245"/><line x1="168.28471992653812" y1="225.5322668930146" x2="173.6901683501684" y2="222.9899134566881" stroke="#ff7f0e" stroke-width="1.4211023622047245"/><line x1="173.6901683501684" y1="222.9899134566881" x2="179.0956167737986" y2="220.44756002036164" stroke="#ff7f0e" stroke-width="1.4211023622047245"/><line x1="179.0956167737986" y1="220.44756002036164" x2="184.50106519742883" y2="217.90520658403517" stroke="#ff7f0e" stroke-width="1.4211023622047245"/><line x1="184.50106519742883" y1="217.90520658403517" x2="189.9065136210591" y2="215.36285314770868" stroke="#ff7f0e" stroke-width="1.4211023622047245"/><line x1="189.9065136210591" y1="215.36285314770868" x2="195.31196204468932" y2="212.82049971138227" stroke="#ff7f0e" stroke-width="1.4211023622047245"/><line x1="195.31196204468932" y1="212.82049971138227" x2="200.7174104683196" y2="210.2781462750558" stroke="#ff7f0e" stroke-width="1.4211023622047245"/><line x1="200.7174104683196" y1="210.2781462750558" x2="206.12285889194982" y2="207.73579283872937" stroke="#ff7f0e" stroke-width="1.4211023622047245"/><line x1="206.12285889194982" y1="207.73579283872937" x2="211.52830731558007" y2="205.19343940240287" stroke="#ff7f0e" stroke-width="1.4211023622047245"/><line x1="211.52830731558007" y1="205.19343940240287" x2="216.93375573921028" y2="202.65108596607644" stroke="#ff7f0e" stroke-width="1.4211023622047245"/><line x1="216.93375573921028" y1="202.65108596607644" x2="222.3392041628406" y2="200.10873252974994" stroke="#ff7f0e" stroke-width="1.4211023622047245"/><line x1="222.3392041628406" y1="200.10873252974994" x2="227.7446525864708" y2="197.5663790934235" stroke="#ff7f0e" stroke-width="1.4211023622047245"/><line x1="227.7446525864708" y1="197.5663790934235" x2="233.15010101010105" y2="195.02402565709704" stroke="#ff7f0e" stroke-width="1.4211023622047245"/><line x1="233.15010101010105" y1="195.02402565709704" x2="238.55554943373127" y2="192.48167222077055" stroke="#ff7f0e" stroke-width="1.4211023622047245"/><line x1="238.55554943373127" y1="192.48167222077055" x2="243.96099785736152" y2="189.93931878444408" stroke="#ff7f0e" stroke-width="1.4211023622047245"/><line x1="243.96099785736152" y1="189.93931878444408" x2="249.36644628099174" y2="187.39696534811765" stroke="#ff7f0e" stroke-width="1.4211023622047245"/><line x1="249.36644628099174" y1="187.39696534811765" x2="254.771894704622" y2="184.85461191179118" stroke="#ff7f0e" stroke-width="1.4211023622047245"/><line x1="254.771894704622" y1="184.85461191179118" x2="260.17734312825223" y2="182.31225847546472" stroke="#ff7f0e" stroke-width="1.4211023622047245"/><line x1="260.17734312825223" y1="182.31225847546472" x2="265.58279155188245" y2="179.76990503913828" stroke="#ff7f0e" stroke-width="1.4211023622047245"/><line x1="265.58279155188245" y1="179.76990503913828" x2="270.98823997551267" y2="177.2275516028118" stroke="#ff7f0e" stroke-width="1.4211023622047245"/><line x1="270.98823997551267" y1="177.2275516028118" x2="276.3936883991429" y2="174.68519816648535" stroke="#ff7f0e" stroke-width="1.4211023622047245"/><line x1="276.3936883991429" y1="174.68519816648535" x2="281.7991368227732" y2="172.14284473015886" stroke="#ff7f0e" stroke-width="1.4211023622047245"/><line x1="281.7991368227732" y1="172.14284473015886" x2="287.20458524640344" y2="169.60049129383245" stroke="#ff7f0e" stroke-width="1.4211023622047245"/><line x1="287.20458524640344" y1="169.60049129383245" x2="292.61003367003366" y2="167.05813785750595" stroke="#ff7f0e" stroke-width="1.4211023622047245"/><line x1="292.61003367003366" y1="167.05813785750595" x2="298.01548209366393" y2="164.5157844211795" stroke="#ff7f0e" stroke-width="1.4211023622047245"/><line x1="298.01548209366393" y1="164.5157844211795" x2="303.42093051729415" y2="161.973430984853" stroke="#ff7f0e" stroke-width="1.4211023622047245"/><line x1="303.42093051729415" y1="161.973430984853" x2="308.8263789409244" y2="159.43107754852662" stroke="#ff7f0e" stroke-width="1.4211023622047245"/><line x1="308.8263789409244" y1="159.43107754852662" x2="314.23182736455465" y2="156.88872411220012" stroke="#ff7f0e" stroke-width="1.4211023622047245"/><line x1="314.23182736455465" y1="156.88872411220012" x2="319.63727578818487" y2="154.3463706758737" stroke="#ff7f0e" stroke-width="1.4211023622047245"/><line x1="319.63727578818487" y1="154.3463706758737" x2="325.0427242118152" y2="151.8040172395472" stroke="#ff7f0e" stroke-width="1.4211023622047245"/><line x1="325.0427242118152" y1="151.8040172395472" x2="330.4481726354454" y2="149.26166380322073" stroke="#ff7f0e" stroke-width="1.4211023622047245"/><line x1="330.4481726354454" y1="149.26166380322073" x2="335.85362105907564" y2="146.71931036689423" stroke="#ff7f0e" stroke-width="1.4211023622047245"/><line x1="335.85362105907564" y1="146.71931036689423" x2="341.25906948270585" y2="144.17695693056774" stroke="#ff7f0e" stroke-width="1.4211023622047245"/><line x1="341.25906948270585" y1="144.17695693056774" x2="346.6645179063362" y2="141.63460349424136" stroke="#ff7f0e" stroke-width="1.4211023622047245"/><line x1="346.6645179063362" y1="141.63460349424136" x2="352.06996632996635" y2="139.09225005791487" stroke="#ff7f0e" stroke-width="1.4211023622047245"/><line x1="352.06996632996635" y1="139.09225005791487" x2="357.4754147535966" y2="136.5498966215884" stroke="#ff7f0e" stroke-width="1.4211023622047245"/><line x1="357.4754147535966" y1="136.5498966215884" x2="362.88086317722684" y2="134.0075431852619" stroke="#ff7f0e" stroke-width="1.4211023622047245"/><line x1="362.88086317722684" y1="134.0075431852619" x2="368.28631160085706" y2="131.46518974893553" stroke="#ff7f0e" stroke-width="1.4211023622047245"/><line x1="368.28631160085706" y1="131.46518974893553" x2="373.6917600244873" y2="128.92283631260904" stroke="#ff7f0e" stroke-width="1.4211023622047245"/><line x1="373.6917600244873" y1="128.92283631260904" x2="379.09720844811756" y2="126.3804828762826" stroke="#ff7f0e" stroke-width="1.4211023622047245"/><line x1="379.09720844811756" y1="126.3804828762826" x2="384.50265687174783" y2="123.8381294399561" stroke="#ff7f0e" stroke-width="1.4211023622047245"/><line x1="384.50265687174783" y1="123.8381294399561" x2="389.90810529537805" y2="121.29577600362964" stroke="#ff7f0e" stroke-width="1.4211023622047245"/><line x1="389.90810529537805" y1="121.29577600362964" x2="395.3135537190083" y2="118.75342256730315" stroke="#ff7f0e" stroke-width="1.4211023622047245"/><line x1="395.3135537190083" y1="118.75342256730315" x2="400.7190021426386" y2="116.2110691309767" stroke="#ff7f0e" stroke-width="1.4211023622047245"/><line x1="400.7190021426386" y1="116.2110691309767" x2="406.12445056626876" y2="113.66871569465027" stroke="#ff7f0e" stroke-width="1.4211023622047245"/><line x1="406.12445056626876" y1="113.66871569465027" x2="411.52989898989904" y2="111.12636225832382" stroke="#ff7f0e" stroke-width="1.4211023622047245"/><line x1="411.52989898989904" y1="111.12636225832382" x2="416.93534741352926" y2="108.58400882199733" stroke="#ff7f0e" stroke-width="1.4211023622047245"/><line x1="416.93534741352926" y1="108.58400882199733" x2="422.34079583715953" y2="106.04165538567088" stroke="#ff7f0e" stroke-width="1.4211023622047245"/><line x1="422.34079583715953" y1="106.04165538567088" x2="427.7462442607898" y2="103.49930194934446" stroke="#ff7f0e" stroke-width="1.4211023622047245"/><line x1="427.7462442607898" y1="103.49930194934446" x2="433.15169268441997" y2="100.956948513018" stroke="#ff7f0e" stroke-width="1.4211023622047245"/><line x1="433.15169268441997" y1="100.956948513018" x2="438.55714110805025" y2="98.41459507669151" stroke="#ff7f0e" stroke-width="1.4211023622047245"/><line x1="438.55714110805025" y1="98.41459507669151" x2="443.9625895316806" y2="95.87224164036505" stroke="#ff7f0e" stroke-width="1.4211023622047245"/><line x1="443.9625895316806" y1="95.87224164036505" x2="449.36803795531074" y2="93.32988820403855" stroke="#ff7f0e" stroke-width="1.4211023622047245"/><line x1="449.36803795531074" y1="93.32988820403855" x2="454.773486378941" y2="90.7875347677121" stroke="#ff7f0e" stroke-width="1.4211023622047245"/><line x1="454.773486378941" y1="90.7875347677121" x2="460.17893480257123" y2="88.24518133138561" stroke="#ff7f0e" stroke-width="1.4211023622047245"/><line x1="460.17893480257123" y1="88.24518133138561" x2="465.5843832262015" y2="85.70282789505923" stroke="#ff7f0e" stroke-width="1.4211023622047245"/><line x1="465.5843832262015" y1="85.70282789505923" x2="470.9898316498317" y2="83.16047445873274" stroke="#ff7f0e" stroke-width="1.4211023622047245"/><line x1="470.9898316498317" y1="83.16047445873274" x2="476.39528007346195" y2="80.61812102240629" stroke="#ff7f0e" stroke-width="1.4211023622047245"/><line x1="476.39528007346195" y1="80.61812102240629" x2="481.8007284970922" y2="78.07576758607979" stroke="#ff7f0e" stroke-width="1.4211023622047245"/><line x1="481.8007284970922" y1="78.07576758607979" x2="487.20617692072244" y2="75.53341414975341" stroke="#ff7f0e" stroke-width="1.4211023622047245"/><line x1="487.20617692072244" y1="75.53341414975341" x2="492.6116253443527" y2="72.99106071342692" stroke="#ff7f0e" stroke-width="1.4211023622047245"/><line x1="492.6116253443527" y1="72.99106071342692" x2="498.0170737679829" y2="70.44870727710045" stroke="#ff7f0e" stroke-width="1.4211023622047245"/><line x1="498.0170737679829" y1="70.44870727710045" x2="503.42252219161315" y2="67.90635384077396" stroke="#ff7f0e" stroke-width="1.4211023622047245"/><line x1="503.42252219161315" y1="67.90635384077396" x2="508.82797061524343" y2="65.36400040444751" stroke="#ff7f0e" stroke-width="1.4211023622047245"/><line x1="508.82797061524343" y1="65.36400040444751" x2="514.2334190388735" y2="62.821646968121016" stroke="#ff7f0e" stroke-width="1.4211023622047245"/><line x1="514.2334190388735" y1="62.821646968121016" x2="519.6388674625039" y2="60.279293531794565" stroke="#ff7f0e" stroke-width="1.4211023622047245"/><line x1="519.6388674625039" y1="60.279293531794565" x2="525.0443158861341" y2="57.73694009546814" stroke="#ff7f0e" stroke-width="1.4211023622047245"/><line x1="525.0443158861341" y1="57.73694009546814" x2="530.4497643097643" y2="55.19458665914169" stroke="#ff7f0e" stroke-width="1.4211023622047245"/><line x1="530.4497643097643" y1="55.19458665914169" x2="535.8552127333946" y2="52.6522332228152" stroke="#ff7f0e" stroke-width="1.4211023622047245"/><line x1="535.8552127333946" y1="52.6522332228152" x2="541.2606611570247" y2="50.10987978648874" stroke="#ff7f0e" stroke-width="1.4211023622047245"/><line x1="541.2606611570247" y1="50.10987978648874" x2="546.6661095806551" y2="47.56752635016225" stroke="#ff7f0e" stroke-width="1.4211023622047245"/><line x1="546.6661095806551" y1="47.56752635016225" x2="552.0715580042852" y2="45.02517291383583" stroke="#ff7f0e" stroke-width="1.4211023622047245"/><line x1="552.0715580042852" y1="45.02517291383583" x2="557.4770064279155" y2="42.48281947750934" stroke="#ff7f0e" stroke-width="1.4211023622047245"/><line x1="557.4770064279155" y1="42.48281947750934" x2="562.8824548515457" y2="39.940466041182916" stroke="#ff7f0e" stroke-width="1.4211023622047245"/><line x1="562.8824548515457" y1="39.940466041182916" x2="568.287903275176" y2="37.39811260485642" stroke="#ff7f0e" stroke-width="1.4211023622047245"/><line x1="568.287903275176" y1="37.39811260485642" x2="573.6933516988062" y2="34.85575916853001" stroke="#ff7f0e" stroke-width="1.4211023622047245"/><line x1="573.6933516988062" y1="34.85575916853001" x2="579.0988001224365" y2="32.31340573220348" stroke="#ff7f0e" stroke-width="1.4211023622047245"/><line x1="579.0988001224365" y1="32.31340573220348" x2="584.5042485460667" y2="29.77105229587706" stroke="#ff7f0e" stroke-width="1.4211023622047245"/><line x1="584.5042485460667" y1="29.77105229587706" x2="589.9096969696969" y2="27.228698859550565" stroke="#ff7f0e" stroke-width="1.4211023622047245"/></svg>