<svg xmlns="http://www.w3.org/2000/svg" width="800" height="600" viewBox="0 0 800 600"><rect x="0.0" y="0.0" width="800.0" height="600.0" fill="#ffffff" fill-opacity="1.0" stroke="none"/><line x1="156.01818181818186" y1="5.5" x2="156.01818181818186" y2="578.55" stroke="#dddddd" stroke-width="0.5"/><line x1="350.6772727272728" y1="5.5" x2="350.6772727272728" y2="578.55" stroke="#dddddd" stroke-width="0.5"/><line x1="545.3363636363638" y1="5.5" x2="545.3363636363638" y2="578.55" stroke="#dddddd" stroke-width="0.5"/><line x1="739.9954545454547" y1="5.5" x2="739.9954545454547" y2="578.55" stroke="#dddddd" stroke-width="0.5"/><line x1="58.68863636363637" y1="5.5" x2="58.68863636363637" y2="578.55" stroke="#dddddd" stroke-width="1.0"/><line x1="253.34772727272735" y1="5.5" x2="253.34772727272735" y2="578.55" stroke="#dddddd" stroke-width="1.0"/><line x1="448.00681818181823" y1="5.5" x2="448.00681818181823" y2="578.55" stroke="#dddddd" stroke-width="1.0"/><line x1="642.6659090909092" y1="5.5" x2="642.6659090909092" y2="578.55" stroke="#dddddd" stroke-width="1.0"/><line x1="23.65" y1="568.4336043925493" x2="794.5" y2="568.4336043925493" stroke="#dddddd" stroke-width="0.5"/><line x1="23.65" y1="409.1202877397831" x2="794.5" y2="409.1202877397831" stroke="#dddddd" stroke-width="0.5"/><line x1="23.65" y1="249.80697108701696" x2="794.5" y2="249.80697108701696" stroke="#dddddd" stroke-width="0.5"/><line x1="23.65" y1="90.4936544342508" x2="794.5" y2="90.4936544342508" stroke="#dddddd" stroke-width="0.5"/><line x1="23.65" y1="488.7769460661662" x2="794.5" y2="488.7769460661662" stroke="#dddddd" stroke-width="1.0"/><line x1="23.65" y1="329.4636294134" x2="794.5" y2="329.4636294134" stroke="#dddddd" stroke-width="1.0"/><line x1="23.65" y1="170.15031276063382" x2="794.5" y2="170.15031276063382" stroke="#dddddd" stroke-width="1.0"/><line x1="23.65" y1="10.836996107867662" x2="794.5" y2="10.836996107867662" stroke="#dddddd" stroke-width="1.0"/><rect x="23.65" y="5.5" width="770.85" height="573.05" fill="#ffffff" fill-opacity="0.0" stroke="#444444" stroke-width="1.0"/><line x1="58.68863636363637" y1="578.55" x2="58.68863636363637" y2="581.3" stroke="#444444" stroke-width="1.0"/><text x="58.68863636363637" y="592.3" fill="#333333" font-size="11.0" font-family="sans-serif" text-anchor="middle">0</text><line x1="253.34772727272735" y1="578.55" x2="253.34772727272735" y2="581.3" stroke="#444444" stroke-width="1.0"/><text x="253.34772727272735" y="592.3" fill="#333333" font-size="11.0" font-family="sans-serif" text-anchor="middle">2.5</text><line x1="448.00681818181823" y1="578.55" x2="448.00681818181823" y2="581.3" stroke="#444444" stroke-width="1.0"/><text x="448.00681818181823" y="592.3" fill="#333333" font-size="11.0" font-family="sans-serif" text-anchor="middle">5</text><line x1="642.6659090909092" y1="578.55" x2="642.6659090909092" y2="581.3" stroke="#444444" stroke-width="1.0"/><text x="642.6659090909092" y="592.3" fill="#333333" font-size="11.0" font-family="sans-serif" text-anchor="middle">7.5</text><line x1="23.65" y1="488.7769460661662" x2="20.9" y2="488.7769460661662" stroke="#444444" stroke-width="1.0"/><text x="18.7" y="492.6269460661662" fill="#333333" font-size="11.0" font-family="sans-serif" text-anchor="end">5</text><line x1="23.65" y1="329.4636294134" x2="20.9" y2="329.4636294134" stroke="#444444" stroke-width="1.0"/><text x="18.7" y="333.3136294134" fill="#333333" font-size="11.0" font-family="sans-serif" text-anchor="end">10</text><line x1="23.65" y1="170.15031276063382" x2="20.9" y2="170.15031276063382" stroke="#444444" stroke-width="1.0"/><text x="18.7" y="174.00031276063382" fill="#333333" font-size="11.0" font-family="sans-serif" text-anchor="end">15</text><line x1="23.65" y1="10.836996107867662" x2="20.9" y2="10.836996107867662" stroke="#444444" stroke-width="1.0"/><text x="18.7" y="14.686996107867662" fill="#333333" font-size="11.0" font-family="sans-serif" text-anchor="end">20</text><circle cx="58.68863636363637" cy="552.5022727272727" r="3.0" fill="#1f77b4" fill-opacity="0.85" stroke="#1f77b4" stroke-width="1.0"><title>(0, 3)</title></circle><circle cx="136.55227272727274" cy="520.6396093967195" r="3.0" fill="#1f77b4" fill-opacity="0.85" stroke="#1f77b4" stroke-width="1.0"><title>(1, 4)</title></circle><circle cx="214.41590909090917" cy="460.10054906866833" r="3.0" fill="#1f77b4" fill-opacity="0.85" stroke="#1f77b4" stroke-width="1.0"><title>(2, 5.9)</title></circle><circle cx="292.2795454545455" cy="418.6790867389491" r="3.0" fill="#1f77b4" fill-opacity="0.85" stroke="#1f77b4" stroke-width="1.0"><title>(3, 7.2)</title></circle><circle cx="370.14318181818186" cy="359.73315957742557" r="3.0" fill="#1f77b4" fill-opacity="0.85" stroke="#1f77b4" stroke-width="1.0"><title>(4, 9.05)</title></circle><circle cx="448.00681818181823" cy="326.2773630803447" r="3.0" fill="#1f77b4" fill-opacity="0.85" stroke="#1f77b4" stroke-width="1.0"><title>(5, 10.1)</title></circle><circle cx="525.8704545454547" cy="267.3314359188211" r="3.0" fill="#1f77b4" fill-opacity="0.85" stroke="#1f77b4" stroke-width="1.0"><title>(6, 11.95)</title></circle><circle cx="603.7340909090909" cy="225.90997358910204" r="3.0" fill="#1f77b4" fill-opacity="0.85" stroke="#1f77b4" stroke-width="1.0"><title>(7, 13.25)</title></circle><circle cx="681.5977272727273" cy="166.96404642757847" r="3.0" fill="#1f77b4" fill-opacity="0.85" stroke="#1f77b4" stroke-width="1.0"><title>(8, 15.1)</title></circle><circle cx="759.4613636363637" cy="133.50824993049758" r="3.0" fill="#1f77b4" fill-opacity="0.85" stroke="#1f77b4" stroke-width="1.0"><title>(9, 16.15)</title></circle><circle cx="58.68863636363637" cy="450.5417500695023" r="3.0" fill="#1f77b4" fill-opacity="0.85" stroke="#1f77b4" stroke-width="1.0"><title>(0, 6.2)</title></circle><circle cx="136.55227272727274" cy="418.6790867389491" r="3.0" fill="#1f77b4" fill-opacity="0.85" stroke="#1f77b4" stroke-width="1.0"><title>(1, 7.2)</title></circle><circle cx="214.41590909090917" cy="358.1400264108979" r="3.0" fill="#1f77b4" fill-opacity="0.85" stroke="#1f77b4" stroke-width="1.0"><title>(2, 9.1)</title></circle><circle cx="292.2795454545455" cy="316.71856408117867" r="3.0" fill="#1f77b4" fill-opacity="0.85" stroke="#1f77b4" stroke-width="1.0"><title>(3, 10.4)</title></circle><circle cx="370.14318181818186" cy="257.77263691965527" r="3.0" fill="#1f77b4" fill-opacity="0.85" stroke="#1f77b4" stroke-width="1.0"><title>(4, 12.25)</title></circle><circle cx="448.00681818181823" cy="224.3168404225744" r="3.0" fill="#1f77b4" fill-opacity="0.85" stroke="#1f77b4" stroke-width="1.0"><title>(5, 13.3)</title></circle><circle cx="525.8704545454547" cy="165.37091326105082" r="3.0" fill="#1f77b4" fill-opacity="0.85" stroke="#1f77b4" stroke-width="1.0"><title>(6, 15.15)</title></circle><circle cx="603.7340909090909" cy="123.94945093133168" r="3.0" fill="#1f77b4" fill-opacity="0.85" stroke="#1f77b4" stroke-width="1.0"><title>(7, 16.45)</title></circle><circle cx="681.5977272727273" cy="65.00352376980811" r="3.0" fill="#1f77b4" fill-opacity="0.85" stroke="#1f77b4" stroke-width="1.0"><title>(8, 18.3)</title></circle><circle cx="759.4613636363637" cy="31.54772727272723" r="3.0" fill="#1f77b4" fill-opacity="0.85" stroke="#1f77b4" stroke-width="1.0"><title>(9, 19.35)</title></circle><path d="M 58.68863636363637 513.7240191865473 L 65.76714876033058 509.2834907994654 L 72.84566115702481 504.84348362841536 L 79.92417355371902 500.4040209057555 L 87.00268595041324 495.96512710194054 L 94.08119834710746 491.52682799497484 L 101.15971074380167 487.0891507430622 L 108.23822314049588 482.65212396040755 L 115.31673553719008 478.2157777960779 L 122.39524793388432 473.7801440157684 L 129.47376033057853 469.34525608625086 L 136.55227272727274 464.91114926219143 L 143.63078512396694 460.47786067492774 L 150.70929752066118 456.04542942267176 L 157.7878099173554 451.6138966614665 L 164.8663223140496 447.1833056960639 L 171.94483471074383 442.7537020697033 L 179.02334710743804 438.3251336515601 L 186.10185950413228 433.89765072039427 L 193.1803719008265 429.4713060426624 L 200.2588842975207 425.0461549430644 L 207.33739669421493 420.6222553651737 L 214.41590909090917 416.1996679194608 L 221.49442148760338 411.77845591565745 L 228.57293388429756 407.3586853760437 L 235.65144628099182 402.9404250258715 L 242.729958677686 398.52374625679136 L 249.80847107438024 394.10872305883936 L 256.8869834710744 389.69543191628907 L 263.96549586776865 385.28395166251903 L 271.04400826446283 380.87436328901003 L 278.1225206611571 376.4667497037191 L 285.20103305785125 372.0611954344059 L 292.2795454545455 367.65778627307077 L 299.35805785123966 363.25660885851903 L 306.4365702479339 358.8577501952464 L 313.51508264462814 354.46129710835 L 320.5935950413224 350.06733563602324 L 327.67210743801655 345.6759503633665 L 334.7506198347108 341.28722370369144 L 341.82913223140497 336.90123513614617 L 348.90764462809915 332.51806041121415 L 355.98615702479344 328.1377707383122 L 363.0646694214877 323.7604319721495 L 370.14318181818186 319.3861038165341 L 377.2216942148761 315.0148390657245 L 384.3002066115703 310.6466829040571 L 391.3787190082645 306.2816722842954 L 398.4572314049587 301.91983540385485 L 405.5357438016529 297.56119129575904 L 412.61425619834716 293.2057495479297 L 419.6927685950414 288.85351016036685 L 426.77128099173564 284.50446354514867 L 433.8497933884298 280.1585906692517 L 440.928305785124 275.81586333526036 L 448.00681818181823 271.4762445904113 L 455.08533057851247 267.1396892503681 L 462.16384297520665 262.80614452087207 L 469.2423553719008 258.4755506981152 L 476.32086776859506 254.14784192738858 L 483.3993801652893 249.82294699927525 L 490.47789256198354 245.50079016329158 L 497.5564049586778 241.18129194028973 L 504.634917355372 236.86436991695768 L 511.71342975206625 232.5499395081954 L 518.7919421487604 228.2379146758093 L 525.8704545454547 223.92820859470237 L 532.9489669421489 219.62073426037898 L 540.027479338843 215.31540503403335 L 547.1059917355373 211.01213512366564 L 554.1845041322314 206.7108400015158 L 561.2630165289256 202.41143675962724 L 568.34152892562 198.1138444065188 L 575.4200413223141 193.81798410881225 L 582.4985537190083 189.52377938223356 L 589.5770661157026 185.23115623674727 L 596.6555785123968 180.94004328070218 L 603.7340909090909 176.65037178884688 L 610.8126033057852 172.36207573890118 L 617.8911157024794 168.07509182113307 L 624.9696280991736 163.78935942507246 L 632.0481404958679 159.50482060714552 L 639.126652892562 155.22142004265277 L 646.2051652892563 150.93910496513723 L 653.2836776859505 146.6578250958392 L 660.3621900826447 142.37753256558307 L 667.4407024793388 138.0981818311297 L 674.5192148760332 133.81972958772695 L 681.5977272727273 129.54213467933187 L 688.6762396694216 125.26535800773269 L 695.7547520661157 120.98936244159165 L 702.83326446281 116.71411272624232 L 709.9117768595041 112.43957539491333 L 716.9902892561985 108.16571868190925 L 724.0688016528926 103.89251243816335 L 731.1473140495868 99.61992804947027 L 738.225826446281 95.34793835762656 L 745.3043388429753 91.07651758462771 L 752.3828512396694 86.80564126001917 L 759.4613636363637 82.53528615144211 L 759.4613636363637 70.64460744675836 L 752.3828512396694 75.0851358338403 L 745.3043388429753 79.5251430048902 L 738.225826446281 83.96460572755012 L 731.1473140495868 88.40349953136507 L 724.0688016528926 92.84179863833083 L 716.9902892561985 97.27947589024342 L 709.9117768595041 101.71650267289806 L 702.83326446281 106.15284883722774 L 695.7547520661157 110.58848261753712 L 688.6762396694216 115.02337054705464 L 681.5977272727273 119.45747737111418 L 674.5192148760332 123.89076595837776 L 667.4407024793388 128.3231972106338 L 660.3621900826447 132.75472997183914 L 653.2836776859505 137.18532093724178 L 646.2051652892563 141.61492456360224 L 639.126652892562 146.04349298174543 L 632.0481404958679 150.47097591291129 L 624.9696280991736 154.89732059064323 L 617.8911157024794 159.32247169024117 L 610.8126033057852 163.7463712681319 L 603.7340909090909 168.16895871384475 L 596.6555785123968 172.5901707176481 L 589.5770661157026 177.00994125726186 L 582.4985537190083 181.42820160743412 L 575.4200413223141 185.8448803765142 L 568.34152892562 190.25990357446608 L 561.2630165289256 194.6731947170165 L 554.1845041322314 199.08467497078658 L 547.1059917355373 203.49426334429558 L 540.027479338843 207.90187692958654 L 532.9489669421489 212.30743119889974 L 525.8704545454547 216.71084036023473 L 518.7919421487604 221.11201777478652 L 511.71342975206625 225.5108764380592 L 504.634917355372 229.90732952495568 L 497.5564049586778 234.3012909972823 L 490.47789256198354 238.692676269939 L 483.3993801652893 243.08140292961411 L 476.32086776859506 247.46739149715944 L 469.2423553719008 251.85056622209146 L 462.16384297520665 256.2308558949934 L 455.08533057851247 260.6081946611561 L 448.00681818181823 264.9825228167715 L 440.928305785124 269.35378756758115 L 433.8497933884298 273.72194372924844 L 426.77128099173564 278.08695434901017 L 419.6927685950414 282.4487912294507 L 412.61425619834716 286.8074353375464 L 405.5357438016529 291.1628770853758 L 398.4572314049587 295.51511647293864 L 391.3787190082645 299.86416308815683 L 384.3002066115703 304.2100359640539 L 377.2216942148761 308.55276329804525 L 370.14318181818186 312.89238204289427 L 363.0646694214877 317.22893738293754 L 355.98615702479344 321.56248211243354 L 348.90764462809915 325.8930759351903 L 341.82913223140497 330.220784705917 L 334.7506198347108 334.5456796340303 L 327.67210743801655 338.8678364700139 L 320.5935950413224 343.1873346930159 L 313.51508264462814 347.504256716348 L 306.4365702479339 351.8186871251102 L 299.35805785123966 356.13071195749615 L 292.2795454545455 360.44041803860307 L 285.20103305785125 364.7478923729267 L 278.1225206611571 369.0532215992722 L 271.04400826446283 373.35649150963997 L 263.96549586776865 377.65778663178975 L 256.8869834710744 381.9571898736783 L 249.80847107438024 386.2547822267866 L 242.729958677686 390.55064252449336 L 235.65144628099182 394.8448472510719 L 228.57293388429756 399.13747039655834 L 221.49442148760338 403.42858335260337 L 214.41590909090917 407.71825484445867 L 207.33739669421493 412.0065508944045 L 200.2588842975207 416.2935348121725 L 193.1803719008265 420.5792672082332 L 186.10185950413228 424.86380602616 L 179.02334710743804 429.1472065906528 L 171.94483471074383 433.4295216681683 L 164.8663223140496 437.7108015374664 L 157.7878099173554 441.9910940677225 L 150.70929752066118 446.2704448021759 L 143.63078512396694 450.5488970455786 L 136.55227272727274 454.8264919539737 L 129.47376033057853 459.1032686255729 L 122.39524793388432 463.379264191714 L 115.31673553719008 467.6545139070633 L 108.23822314049588 471.9290512383922 L 101.15971074380167 476.20290795139636 L 94.08119834710746 480.4761141951423 L 87.00268595041324 484.74869858383533 L 79.92417355371902 489.02068827567905 L 72.84566115702481 493.2921090486779 L 65.76714876033058 497.56298537328644 L 58.68863636363637 501.83334048186344 Z" fill="#1f77b4" fill-opacity="0.2" stroke="none"/><line x1="58.68863636363637" y1="507.7786798342053" x2="65.76714876033058" y2="503.423238086376" stroke="#1f77b4" stroke-width="1.5"/><line x1="65.76714876033058" y1="503.423238086376" x2="72.84566115702481" y2="499.0677963385466" stroke="#1f77b4" stroke-width="1.5"/><line x1="72.84566115702481" y1="499.0677963385466" x2="79.92417355371902" y2="494.71235459071727" stroke="#1f77b4" stroke-width="1.5"/><line x1="79.92417355371902" y1="494.71235459071727" x2="87.00268595041324" y2="490.35691284288794" stroke="#1f77b4" stroke-width="1.5"/><line x1="87.00268595041324" y1="490.35691284288794" x2="94.08119834710746" y2="486.0014710950586" stroke="#1f77b4" stroke-width="1.5"/><line x1="94.08119834710746" y1="486.0014710950586" x2="101.15971074380167" y2="481.6460293472293" stroke="#1f77b4" stroke-width="1.5"/><line x1="101.15971074380167" y1="481.6460293472293" x2="108.23822314049588" y2="477.2905875993999" stroke="#1f77b4" stroke-width="1.5"/><line x1="108.23822314049588" y1="477.2905875993999" x2="115.31673553719008" y2="472.9351458515706" stroke="#1f77b4" stroke-width="1.5"/><line x1="115.31673553719008" y1="472.9351458515706" x2="122.39524793388432" y2="468.5797041037412" stroke="#1f77b4" stroke-width="1.5"/><line x1="122.39524793388432" y1="468.5797041037412" x2="129.47376033057853" y2="464.2242623559119" stroke="#1f77b4" stroke-width="1.5"/><line x1="129.47376033057853" y1="464.2242623559119" x2="136.55227272727274" y2="459.86882060808256" stroke="#1f77b4" stroke-width="1.5"/><line x1="136.55227272727274" y1="459.86882060808256" x2="143.63078512396694" y2="455.51337886025317" stroke="#1f77b4" stroke-width="1.5"/><line x1="143.63078512396694" y1="455.51337886025317" x2="150.70929752066118" y2="451.15793711242384" stroke="#1f77b4" stroke-width="1.5"/><line x1="150.70929752066118" y1="451.15793711242384" x2="157.7878099173554" y2="446.8024953645945" stroke="#1f77b4" stroke-width="1.5"/><line x1="157.7878099173554" y1="446.8024953645945" x2="164.8663223140496" y2="442.4470536167652" stroke="#1f77b4" stroke-width="1.5"/><line x1="164.8663223140496" y1="442.4470536167652" x2="171.94483471074383" y2="438.09161186893584" stroke="#1f77b4" stroke-width="1.5"/><line x1="171.94483471074383" y1="438.09161186893584" x2="179.02334710743804" y2="433.73617012110645" stroke="#1f77b4" stroke-width="1.5"/><line x1="179.02334710743804" y1="433.73617012110645" x2="186.10185950413228" y2="429.3807283732771" stroke="#1f77b4" stroke-width="1.5"/><line x1="186.10185950413228" y1="429.3807283732771" x2="193.1803719008265" y2="425.02528662544773" stroke="#1f77b4" stroke-width="1.5"/><line x1="193.1803719008265" y1="425.02528662544773" x2="200.2588842975207" y2="420.66984487761846" stroke="#1f77b4" stroke-width="1.5"/><line x1="200.2588842975207" y1="420.66984487761846" x2="207.33739669421493" y2="416.31440312978907" stroke="#1f77b4" stroke-width="1.5"/><line x1="207.33739669421493" y1="416.31440312978907" x2="214.41590909090917" y2="411.95896138195974" stroke="#1f77b4" stroke-width="1.5"/><line x1="214.41590909090917" y1="411.95896138195974" x2="221.49442148760338" y2="407.6035196341304" stroke="#1f77b4" stroke-width="1.5"/><line x1="221.49442148760338" y1="407.6035196341304" x2="228.57293388429756" y2="403.2480778863011" stroke="#1f77b4" stroke-width="1.5"/><line x1="228.57293388429756" y1="403.2480778863011" x2="235.65144628099182" y2="398.89263613847174" stroke="#1f77b4" stroke-width="1.5"/><line x1="235.65144628099182" y1="398.89263613847174" x2="242.729958677686" y2="394.53719439064236" stroke="#1f77b4" stroke-width="1.5"/><line x1="242.729958677686" y1="394.53719439064236" x2="249.80847107438024" y2="390.18175264281297" stroke="#1f77b4" stroke-width="1.5"/><line x1="249.80847107438024" y1="390.18175264281297" x2="256.8869834710744" y2="385.8263108949837" stroke="#1f77b4" stroke-width="1.5"/><line x1="256.8869834710744" y1="385.8263108949837" x2="263.96549586776865" y2="381.4708691471544" stroke="#1f77b4" stroke-width="1.5"/><line x1="263.96549586776865" y1="381.4708691471544" x2="271.04400826446283" y2="377.115427399325" stroke="#1f77b4" stroke-width="1.5"/><line x1="271.04400826446283" y1="377.115427399325" x2="278.1225206611571" y2="372.75998565149564" stroke="#1f77b4" stroke-width="1.5"/><line x1="278.1225206611571" y1="372.75998565149564" x2="285.20103305785125" y2="368.4045439036663" stroke="#1f77b4" stroke-width="1.5"/><line x1="285.20103305785125" y1="368.4045439036663" x2="292.2795454545455" y2="364.0491021558369" stroke="#1f77b4" stroke-width="1.5"/><line x1="292.2795454545455" y1="364.0491021558369" x2="299.35805785123966" y2="359.69366040800764" stroke="#1f77b4" stroke-width="1.5"/><line x1="299.35805785123966" y1="359.69366040800764" x2="306.4365702479339" y2="355.3382186601783" stroke="#1f77b4" stroke-width="1.5"/><line x1="306.4365702479339" y1="355.3382186601783" x2="313.51508264462814" y2="350.982776912349" stroke="#1f77b4" stroke-width="1.5"/><line x1="313.51508264462814" y1="350.982776912349" x2="320.5935950413224" y2="346.62733516451954" stroke="#1f77b4" stroke-width="1.5"/><line x1="320.5935950413224" y1="346.62733516451954" x2="327.67210743801655" y2="342.2718934166902" stroke="#1f77b4" stroke-width="1.5"/><line x1="327.67210743801655" y1="342.2718934166902" x2="334.7506198347108" y2="337.9164516688609" stroke="#1f77b4" stroke-width="1.5"/><line x1="334.7506198347108" y1="337.9164516688609" x2="341.82913223140497" y2="333.5610099210316" stroke="#1f77b4" stroke-width="1.5"/><line x1="341.82913223140497" y1="333.5610099210316" x2="348.90764462809915" y2="329.2055681732022" stroke="#1f77b4" stroke-width="1.5"/><line x1="348.90764462809915" y1="329.2055681732022" x2="355.98615702479344" y2="324.8501264253729" stroke="#1f77b4" stroke-width="1.5"/><line x1="355.98615702479344" y1="324.8501264253729" x2="363.0646694214877" y2="320.4946846775435" stroke="#1f77b4" stroke-width="1.5"/><line x1="363.0646694214877" y1="320.4946846775435" x2="370.14318181818186" y2="316.13924292971416" stroke="#1f77b4" stroke-width="1.5"/><line x1="370.14318181818186" y1="316.13924292971416" x2="377.2216942148761" y2="311.78380118188494" stroke="#1f77b4" stroke-width="1.5"/><line x1="377.2216942148761" y1="311.78380118188494" x2="384.3002066115703" y2="307.42835943405555" stroke="#1f77b4" stroke-width="1.5"/><line x1="384.3002066115703" y1="307.42835943405555" x2="391.3787190082645" y2="303.07291768622616" stroke="#1f77b4" stroke-width="1.5"/><line x1="391.3787190082645" y1="303.07291768622616" x2="398.4572314049587" y2="298.71747593839683" stroke="#1f77b4" stroke-width="1.5"/><line x1="398.4572314049587" y1="298.71747593839683" x2="405.5357438016529" y2="294.36203419056744" stroke="#1f77b4" stroke-width="1.5"/><line x1="405.5357438016529" y1="294.36203419056744" x2="412.61425619834716" y2="290.00659244273805" stroke="#1f77b4" stroke-width="1.5"/><line x1="412.61425619834716" y1="290.00659244273805" x2="419.6927685950414" y2="285.65115069490884" stroke="#1f77b4" stroke-width="1.5"/><line x1="419.6927685950414" y1="285.65115069490884" x2="426.77128099173564" y2="281.29570894707945" stroke="#1f77b4" stroke-width="1.5"/><line x1="426.77128099173564" y1="281.29570894707945" x2="433.8497933884298" y2="276.9402671992501" stroke="#1f77b4" stroke-width="1.5"/><line x1="433.8497933884298" y1="276.9402671992501" x2="440.928305785124" y2="272.5848254514207" stroke="#1f77b4" stroke-width="1.5"/><line x1="440.928305785124" y1="272.5848254514207" x2="448.00681818181823" y2="268.2293837035914" stroke="#1f77b4" stroke-width="1.5"/><line x1="448.00681818181823" y1="268.2293837035914" x2="455.08533057851247" y2="263.8739419557621" stroke="#1f77b4" stroke-width="1.5"/><line x1="455.08533057851247" y1="263.8739419557621" x2="462.16384297520665" y2="259.51850020793273" stroke="#1f77b4" stroke-width="1.5"/><line x1="462.16384297520665" y1="259.51850020793273" x2="469.2423553719008" y2="255.16305846010334" stroke="#1f77b4" stroke-width="1.5"/><line x1="469.2423553719008" y1="255.16305846010334" x2="476.32086776859506" y2="250.80761671227407" stroke="#1f77b4" stroke-width="1.5"/><line x1="476.32086776859506" y1="250.80761671227407" x2="483.3993801652893" y2="246.45217496444468" stroke="#1f77b4" stroke-width="1.5"/><line x1="483.3993801652893" y1="246.45217496444468" x2="490.47789256198354" y2="242.0967332166153" stroke="#1f77b4" stroke-width="1.5"/><line x1="490.47789256198354" y1="242.0967332166153" x2="497.5564049586778" y2="237.74129146878602" stroke="#1f77b4" stroke-width="1.5"/><line x1="497.5564049586778" y1="237.74129146878602" x2="504.634917355372" y2="233.38584972095668" stroke="#1f77b4" stroke-width="1.5"/><line x1="504.634917355372" y1="233.38584972095668" x2="511.71342975206625" y2="229.03040797312735" stroke="#1f77b4" stroke-width="1.5"/><line x1="511.71342975206625" y1="229.03040797312735" x2="518.7919421487604" y2="224.67496622529796" stroke="#1f77b4" stroke-width="1.5"/><line x1="518.7919421487604" y1="224.67496622529796" x2="525.8704545454547" y2="220.31952447746858" stroke="#1f77b4" stroke-width="1.5"/><line x1="525.8704545454547" y1="220.31952447746858" x2="532.9489669421489" y2="215.96408272963936" stroke="#1f77b4" stroke-width="1.5"/><line x1="532.9489669421489" y1="215.96408272963936" x2="540.027479338843" y2="211.60864098180997" stroke="#1f77b4" stroke-width="1.5"/><line x1="540.027479338843" y1="211.60864098180997" x2="547.1059917355373" y2="207.25319923398064" stroke="#1f77b4" stroke-width="1.5"/><line x1="547.1059917355373" y1="207.25319923398064" x2="554.1845041322314" y2="202.89775748615125" stroke="#1f77b4" stroke-width="1.5"/><line x1="554.1845041322314" y1="202.89775748615125" x2="561.2630165289256" y2="198.54231573832186" stroke="#1f77b4" stroke-width="1.5"/><line x1="561.2630165289256" y1="198.54231573832186" x2="568.34152892562" y2="194.18687399049247" stroke="#1f77b4" stroke-width="1.5"/><line x1="568.34152892562" y1="194.18687399049247" x2="575.4200413223141" y2="189.83143224266325" stroke="#1f77b4" stroke-width="1.5"/><line x1="575.4200413223141" y1="189.83143224266325" x2="582.4985537190083" y2="185.47599049483392" stroke="#1f77b4" stroke-width="1.5"/><line x1="582.4985537190083" y1="185.47599049483392" x2="589.5770661157026" y2="181.12054874700453" stroke="#1f77b4" stroke-width="1.5"/><line x1="589.5770661157026" y1="181.12054874700453" x2="596.6555785123968" y2="176.76510699917515" stroke="#1f77b4" stroke-width="1.5"/><line x1="596.6555785123968" y1="176.76510699917515" x2="603.7340909090909" y2="172.4096652513458" stroke="#1f77b4" stroke-width="1.5"/><line x1="603.7340909090909" y1="172.4096652513458" x2="610.8126033057852" y2="168.05422350351654" stroke="#1f77b4" stroke-width="1.5"/><line x1="610.8126033057852" y1="168.05422350351654" x2="617.8911157024794" y2="163.69878175568715" stroke="#1f77b4" stroke-width="1.5"/><line x1="617.8911157024794" y1="163.69878175568715" x2="624.9696280991736" y2="159.34334000785782" stroke="#1f77b4" stroke-width="1.5"/><line x1="624.9696280991736" y1="159.34334000785782" x2="632.0481404958679" y2="154.9878982600285" stroke="#1f77b4" stroke-width="1.5"/><line x1="632.0481404958679" y1="154.9878982600285" x2="639.126652892562" y2="150.6324565121991" stroke="#1f77b4" stroke-width="1.5"/><line x1="639.126652892562" y1="150.6324565121991" x2="646.2051652892563" y2="146.2770147643697" stroke="#1f77b4" stroke-width="1.5"/><line x1="646.2051652892563" y1="146.2770147643697" x2="653.2836776859505" y2="141.92157301654044" stroke="#1f77b4" stroke-width="1.5"/><line x1="653.2836776859505" y1="141.92157301654044" x2="660.3621900826447" y2="137.56613126871116" stroke="#1f77b4" stroke-width="1.5"/><line x1="660.3621900826447" y1="137.56613126871116" x2="667.4407024793388" y2="133.21068952088177" stroke="#1f77b4" stroke-width="1.5"/><line x1="667.4407024793388" y1="133.21068952088177" x2="674.5192148760332" y2="128.85524777305238" stroke="#1f77b4" stroke-width="1.5"/><line x1="674.5192148760332" y1="128.85524777305238" x2="681.5977272727273" y2="124.499806025223" stroke="#1f77b4" stroke-width="1.5"/><line x1="681.5977272727273" y1="124.499806025223" x2="688.6762396694216" y2="120.14436427739366" stroke="#1f77b4" stroke-width="1.5"/><line x1="688.6762396694216" y1="120.14436427739366" x2="695.7547520661157" y2="115.78892252956445" stroke="#1f77b4" stroke-width="1.5"/><line x1="695.7547520661157" y1="115.78892252956445" x2="702.83326446281" y2="111.43348078173506" stroke="#1f77b4" stroke-width="1.5"/><line x1="702.83326446281" y1="111.43348078173506" x2="709.9117768595041" y2="107.07803903390567" stroke="#1f77b4" stroke-width="1.5"/><line x1="709.9117768595041" y1="107.07803903390567" x2="716.9902892561985" y2="102.72259728607628" stroke="#1f77b4" stroke-width="1.5"/><line x1="716.9902892561985" y1="102.72259728607628" x2="724.0688016528926" y2="98.36715553824706" stroke="#1f77b4" stroke-width="1.5"/><line x1="724.0688016528926" y1="98.36715553824706" x2="731.1473140495868" y2="94.01171379041773" stroke="#1f77b4" stroke-width="1.5"/><line x1="731.1473140495868" y1="94.01171379041773" x2="738.225826446281" y2="89.65627204258834" stroke="#1f77b4" stroke-width="1.5"/><line x1="738.225826446281" y1="89.65627204258834" x2="745.3043388429753" y2="85.30083029475895" stroke="#1f77b4" stroke-width="1.5"/><line x1="745.3043388429753" y1="85.30083029475895" x2="752.3828512396694" y2="80.94538854692973" stroke="#1f77b4" stroke-width="1.5"/><line x1="752.3828512396694" y1="80.94538854692973" x2="759.4613636363637" y2="76.58994679910023" stroke="#1f77b4" stroke-width="1.5"/></svg>