<svg xmlns="http://www.w3.org/2000/svg" width="624" height="384" viewBox="0 0 624 384"><rect x="0.0" y="0.0" width="624.0" height="384.0" fill="#ffffff" fill-opacity="1.0" stroke="none"/><line x1="127.58272727272723" y1="7.333333333333333" x2="127.58272727272723" y2="358.3333333333333" stroke="#dddddd" stroke-width="0.6666666666666666"/><line x1="259.7675757575757" y1="7.333333333333333" x2="259.7675757575757" y2="358.3333333333333" stroke="#dddddd" stroke-width="0.6666666666666666"/><line x1="391.9524242424243" y1="7.333333333333333" x2="391.9524242424243" y2="358.3333333333333" stroke="#dddddd" stroke-width="0.6666666666666666"/><line x1="524.1372727272726" y1="7.333333333333333" x2="524.1372727272726" y2="358.3333333333333" stroke="#dddddd" stroke-width="0.6666666666666666"/><line x1="61.490303030303025" y1="7.333333333333333" x2="61.490303030303025" y2="358.3333333333333" stroke="#dddddd" stroke-width="1.3333333333333333"/><line x1="193.6751515151515" y1="7.333333333333333" x2="193.6751515151515" y2="358.3333333333333" stroke="#dddddd" stroke-width="1.3333333333333333"/><line x1="325.85999999999996" y1="7.333333333333333" x2="325.85999999999996" y2="358.3333333333333" stroke="#dddddd" stroke-width="1.3333333333333333"/><line x1="458.0448484848485" y1="7.333333333333333" x2="458.0448484848485" y2="358.3333333333333" stroke="#dddddd" stroke-width="1.3333333333333333"/><line x1="590.2296969696969" y1="7.333333333333333" x2="590.2296969696969" y2="358.3333333333333" stroke="#dddddd" stroke-width="1.3333333333333333"/><line x1="35.05333333333333" y1="335.8121211743509" x2="616.6666666666666" y2="335.8121211743509" stroke="#dddddd" stroke-width="0.6666666666666666"/><line x1="35.05333333333333" y1="272.8482953032528" x2="616.6666666666666" y2="272.8482953032528" stroke="#dddddd" stroke-width="0.6666666666666666"/><line x1="35.05333333333333" y1="209.88446943215467" x2="616.6666666666666" y2="209.88446943215467" stroke="#dddddd" stroke-width="0.6666666666666666"/><line x1="35.05333333333333" y1="146.92064356105652" x2="616.6666666666666" y2="146.92064356105652" stroke="#dddddd" stroke-width="0.6666666666666666"/><line x1="35.05333333333333" y1="83.95681768995837" x2="616.6666666666666" y2="83.95681768995837" stroke="#dddddd" stroke-width="0.6666666666666666"/><line x1="35.05333333333333" y1="20.99299181886022" x2="616.6666666666666" y2="20.99299181886022" stroke="#dddddd" stroke-width="0.6666666666666666"/><line x1="35.05333333333333" y1="304.33020823880184" x2="616.6666666666666" y2="304.33020823880184" stroke="#dddddd" stroke-width="1.3333333333333333"/><line x1="35.05333333333333" y1="241.3663823677037" x2="616.6666666666666" y2="241.3663823677037" stroke="#dddddd" stroke-width="1.3333333333333333"/><line x1="35.05333333333333" y1="178.4025564966056" x2="616.6666666666666" y2="178.4025564966056" stroke="#dddddd" stroke-width="1.3333333333333333"/><line x1="35.05333333333333" y1="115.4387306255074" x2="616.6666666666666" y2="115.4387306255074" stroke="#dddddd" stroke-width="1.3333333333333333"/><line x1="35.05333333333333" y1="52.474904754409295" x2="616.6666666666666" y2="52.474904754409295" stroke="#dddddd" stroke-width="1.3333333333333333"/><rect x="35.05333333333333" y="7.333333333333333" width="581.6133333333332" height="351.0" fill="#ffffff" fill-opacity="0.0" stroke="#444444" stroke-width="1.3333333333333333"/><line x1="61.490303030303025" y1="358.3333333333333" x2="61.490303030303025" y2="362.0" stroke="#444444" stroke-width="1.3333333333333333"/><text x="61.490303030303025" y="374.32" fill="#333333" font-size="11.733333333333334" font-family="sans-serif" text-anchor="middle">0</text><line x1="193.6751515151515" y1="358.3333333333333" x2="193.6751515151515" y2="362.0" stroke="#444444" stroke-width="1.3333333333333333"/><text x="193.6751515151515" y="374.32" fill="#333333" font-size="11.733333333333334" font-family="sans-serif" text-anchor="middle">2</text><line x1="325.85999999999996" y1="358.3333333333333" x2="325.85999999999996" y2="362.0" stroke="#444444" stroke-width="1.3333333333333333"/><text x="325.85999999999996" y="374.32" fill="#333333" font-size="11.733333333333334" font-family="sans-serif" text-anchor="middle">4</text><line x1="458.0448484848485" y1="358.3333333333333" x2="458.0448484848485" y2="362.0" stroke="#444444" stroke-width="1.3333333333333333"/><text x="458.0448484848485" y="374.32" fill="#333333" font-size="11.733333333333334" font-family="sans-serif" text-anchor="middle">6</text><line x1="590.2296969696969" y1="358.3333333333333" x2="590.2296969696969" y2="362.0" stroke="#444444" stroke-width="1.3333333333333333"/><text x="590.2296969696969" y="374.32" fill="#333333" font-size="11.733333333333334" font-family="sans-serif" text-anchor="middle">8</text><line x1="35.05333333333333" y1="304.33020823880184" x2="31.386666666666663" y2="304.33020823880184" stroke="#444444" stroke-width="1.3333333333333333"/><text x="28.453333333333333" y="308.4368749054685" fill="#333333" font-size="11.733333333333334" font-family="sans-serif" text-anchor="end">0.0</text><line x1="35.05333333333333" y1="241.3663823677037" x2="31.386666666666663" y2="241.3663823677037" stroke="#444444" stroke-width="1.3333333333333333"/><text x="28.453333333333333" y="245.47304903437038" fill="#333333" font-size="11.733333333333334" font-family="sans-serif" text-anchor="end">0.5</text><line x1="35.05333333333333" y1="178.4025564966056" x2="31.386666666666663" y2="178.4025564966056" stroke="#444444" stroke-width="1.3333333333333333"/><text x="28.453333333333333" y="182.50922316327228" fill="#333333" font-size="11.733333333333334" font-family="sans-serif" text-anchor="end">1.0</text><line x1="35.05333333333333" y1="115.4387306255074" x2="31.386666666666663" y2="115.4387306255074" stroke="#444444" stroke-width="1.3333333333333333"/><text x="28.453333333333333" y="119.54539729217407" fill="#333333" font-size="11.733333333333334" font-family="sans-serif" text-anchor="end">1.5</text><line x1="35.05333333333333" y1="52.474904754409295" x2="31.386666666666663" y2="52.474904754409295" stroke="#444444" stroke-width="1.3333333333333333"/><text x="28.453333333333333" y="56.58157142107596" fill="#333333" font-size="11.733333333333334" font-family="sans-serif" text-anchor="end">2.0</text><circle cx="61.490303030303025" cy="291.73744306458224" r="3.1181102362204727" fill="#1f77b4" fill-opacity="0.85" stroke="none"><title>(0, 0.1)</title></circle><circle cx="87.92727272727271" cy="243.17292563082066" r="3.1181102362204727" fill="#1f77b4" fill-opacity="0.85" stroke="none"><title>(0.4, 0.485654117756)</title></circle><circle cx="114.36424242424243" cy="208.16974794055614" r="3.1181102362204727" fill="#1f77b4" fill-opacity="0.85" stroke="none"><title>(0.8, 0.763616719345)</title></circle><circle cx="140.8012121212121" cy="175.5864056523117" r="3.1181102362204727" fill="#1f77b4" fill-opacity="0.85" stroke="none"><title>(1.2, 1.022363244334)</title></circle><circle cx="167.23818181818177" cy="147.13176109473585" r="3.1181102362204727" fill="#1f77b4" fill-opacity="0.85" stroke="none"><title>(1.6, 1.248323501385)</title></circle><circle cx="193.6751515151515" cy="139.95502407371214" r="3.1181102362204727" fill="#1f77b4" fill-opacity="0.85" stroke="none"><title>(2, 1.305314455491)</title></circle><circle cx="220.11212121212117" cy="166.27593619915712" r="3.1181102362204727" fill="#1f77b4" fill-opacity="0.85" stroke="none"><title>(2.4, 1.096298312004)</title></circle><circle cx="246.5490909090909" cy="215.79560347541207" r="3.1181102362204727" fill="#1f77b4" fill-opacity="0.85" stroke="none"><title>(2.8, 0.703059284744)</title></circle><circle cx="272.98606060606056" cy="263.63579714476623" r="3.1181102362204727" fill="#1f77b4" fill-opacity="0.85" stroke="none"><title>(3.2, 0.323157070993)</title></circle><circle cx="299.42303030303026" cy="294.50198744837246" r="3.1181102362204727" fill="#1f77b4" fill-opacity="0.85" stroke="none"><title>(3.6, 0.07804656606)</title></circle><circle cx="325.85999999999996" cy="313.4495235165921" r="3.1181102362204727" fill="#1f77b4" fill-opacity="0.85" stroke="none"><title>(4, -0.072417099435)</title></circle><circle cx="352.2969696969697" cy="330.9026652106261" r="3.1181102362204727" fill="#1f77b4" fill-opacity="0.85" stroke="none"><title>(4.4, -0.211013678125)</title></circle><circle cx="378.7339393939394" cy="342.3787878787879" r="3.1181102362204727" fill="#1f77b4" fill-opacity="0.85" stroke="none"><title>(4.8, -0.302146344457)</title></circle><circle cx="405.17090909090905" cy="329.87745547084126" r="3.1181102362204727" fill="#1f77b4" fill-opacity="0.85" stroke="none"><title>(5.2, -0.202872418239)</title></circle><circle cx="431.6078787878788" cy="283.84612337787223" r="3.1181102362204727" fill="#1f77b4" fill-opacity="0.85" stroke="none"><title>(5.6, 0.162665503387)</title></circle><circle cx="458.0448484848485" cy="217.86624597186042" r="3.1181102362204727" fill="#1f77b4" fill-opacity="0.85" stroke="none"><title>(6, 0.686616172625)</title></circle><circle cx="484.4818181818182" cy="156.93551361424772" r="3.1181102362204727" fill="#1f77b4" fill-opacity="0.85" stroke="none"><title>(6.4, 1.17047123952)</title></circle><circle cx="510.91878787878784" cy="113.40519606723618" r="3.1181102362204727" fill="#1f77b4" fill-opacity="0.85" stroke="none"><title>(6.8, 1.516148435472)</title></circle><circle cx="537.3557575757575" cy="80.02526997114842" r="3.1181102362204727" fill="#1f77b4" fill-opacity="0.85" stroke="none"><title>(7.2, 1.781220686358)</title></circle><circle cx="563.7927272727272" cy="47.57799590245069" r="3.1181102362204727" fill="#1f77b4" fill-opacity="0.85" stroke="none"><title>(7.6, 2.038886684411)</title></circle><circle cx="590.2296969696969" cy="23.287878787878828" r="3.1181102362204727" fill="#1f77b4" fill-opacity="0.85" stroke="none"><title>(8, 2.231776147357)</title></circle><line x1="61.490303030303025" y1="263.11764578629976" x2="87.92727272727271" y2="225.87564939280708" stroke="#1f77b4" stroke-width="1.4211023622047245"/><line x1="87.92727272727271" y1="225.87564939280708" x2="114.36424242424243" y2="197.37146284913584" stroke="#1f77b4" stroke-width="1.4211023622047245"/><line x1="114.36424242424243" y1="197.37146284913584" x2="140.8012121212121" y2="177.25978739565443" stroke="#1f77b4" stroke-width="1.4211023622047245"/><line x1="140.8012121212121" y1="177.25978739565443" x2="167.23818181818177" y2="166.0116275007593" stroke="#1f77b4" stroke-width="1.4211023622047245"/><line x1="167.23818181818177" y1="166.0116275007593" x2="193.6751515151515" y2="166.23998015836048" stroke="#1f77b4" stroke-width="1.4211023622047245"/><line x1="193.6751515151515" y1="166.23998015836048" x2="220.11212121212117" y2="180.8617167076042" stroke="#1f77b4" stroke-width="1.4211023622047245"/><line x1="220.11212121212117" y1="180.8617167076042" x2="246.5490909090909" y2="209.02858276855423" stroke="#1f77b4" stroke-width="1.4211023622047245"/><line x1="246.5490909090909" y1="209.02858276855423" x2="272.98606060606056" y2="243.2587882610838" stroke="#1f77b4" stroke-width="1.4211023622047245"/><line x1="272.98606060606056" y1="243.2587882610838" x2="299.42303030303026" y2="275.4553675666822" stroke="#1f77b4" stroke-width="1.4211023622047245"/><line x1="299.42303030303026" y1="275.4553675666822" x2="325.85999999999996" y2="299.50563272512545" stroke="#1f77b4" stroke-width="1.4211023622047245"/><line x1="325.85999999999996" y1="299.50563272512545" x2="352.2969696969697" y2="311.6882617881389" stroke="#1f77b4" stroke-width="1.4211023622047245"/><line x1="352.2969696969697" y1="311.6882617881389" x2="378.7339393939394" y2="308.6232081870579" stroke="#1f77b4" stroke-width="1.4211023622047245"/><line x1="378.7339393939394" y1="308.6232081870579" x2="405.17090909090905" y2="290.2714192331608" stroke="#1f77b4" stroke-width="1.4211023622047245"/><line x1="405.17090909090905" y1="290.2714192331608" x2="431.6078787878788" y2="259.3660901827573" stroke="#1f77b4" stroke-width="1.4211023622047245"/><line x1="431.6078787878788" y1="259.3660901827573" x2="458.0448484848485" y2="219.0665715006852" stroke="#1f77b4" stroke-width="1.4211023622047245"/><line x1="458.0448484848485" y1="219.0665715006852" x2="484.4818181818182" y2="175.8943978206695" stroke="#1f77b4" stroke-width="1.4211023622047245"/><line x1="484.4818181818182" y1="175.8943978206695" x2="510.91878787878784" y2="138.27944446512825" stroke="#1f77b4" stroke-width="1.4211023622047245"/><line x1="510.91878787878784" y1="138.27944446512825" x2="537.3557575757575" y2="112.74108895023062" stroke="#1f77b4" stroke-width="1.4211023622047245"/><line x1="537.3557575757575" y1="112.74108895023062" x2="563.7927272727272" y2="93.87328789180563" stroke="#1f77b4" stroke-width="1.4211023622047245"/><line x1="563.7927272727272" y1="93.87328789180563" x2="590.2296969696969" y2="71.72527636226762" stroke="#1f77b4" stroke-width="1.4211023622047245"/></svg>