<svg xmlns="http://www.w3.org/2000/svg" width="800" height="600" viewBox="0 0 800 600"><rect x="0.0" y="0.0" width="800.0" height="600.0" fill="#ffffff" fill-opacity="1.0" stroke="none"/><line x1="151.83522727272725" y1="5.5" x2="151.83522727272725" y2="578.55" stroke="#dddddd" stroke-width="0.5"/><line x1="325.52840909090907" y1="5.5" x2="325.52840909090907" y2="578.55" stroke="#dddddd" stroke-width="0.5"/><line x1="499.22159090909093" y1="5.5" x2="499.22159090909093" y2="578.55" stroke="#dddddd" stroke-width="0.5"/><line x1="672.9147727272726" y1="5.5" x2="672.9147727272726" y2="578.55" stroke="#dddddd" stroke-width="0.5"/><line x1="64.98863636363636" y1="5.5" x2="64.98863636363636" y2="578.55" stroke="#dddddd" stroke-width="1.0"/><line x1="238.68181818181816" y1="5.5" x2="238.68181818181816" y2="578.55" stroke="#dddddd" stroke-width="1.0"/><line x1="412.375" y1="5.5" x2="412.375" y2="578.55" stroke="#dddddd" stroke-width="1.0"/><line x1="586.0681818181819" y1="5.5" x2="586.0681818181819" y2="578.55" stroke="#dddddd" stroke-width="1.0"/><line x1="759.7613636363636" y1="5.5" x2="759.7613636363636" y2="578.55" stroke="#dddddd" stroke-width="1.0"/><line x1="30.249999999999996" y1="541.781394223063" x2="794.5" y2="541.781394223063" stroke="#dddddd" stroke-width="0.5"/><line x1="30.249999999999996" y1="438.98532466342544" x2="794.5" y2="438.98532466342544" stroke="#dddddd" stroke-width="0.5"/><line x1="30.249999999999996" y1="336.1892551037879" x2="794.5" y2="336.1892551037879" stroke="#dddddd" stroke-width="0.5"/><line x1="30.249999999999996" y1="233.39318554415036" x2="794.5" y2="233.39318554415036" stroke="#dddddd" stroke-width="0.5"/><line x1="30.249999999999996" y1="130.59711598451275" x2="794.5" y2="130.59711598451275" stroke="#dddddd" stroke-width="0.5"/><line x1="30.249999999999996" y1="27.801046424875153" x2="794.5" y2="27.801046424875153" stroke="#dddddd" stroke-width="0.5"/><line x1="30.249999999999996" y1="490.3833594432443" x2="794.5" y2="490.3833594432443" stroke="#dddddd" stroke-width="1.0"/><line x1="30.249999999999996" y1="387.5872898836067" x2="794.5" y2="387.5872898836067" stroke="#dddddd" stroke-width="1.0"/><line x1="30.249999999999996" y1="284.79122032396907" x2="794.5" y2="284.79122032396907" stroke="#dddddd" stroke-width="1.0"/><line x1="30.249999999999996" y1="181.99515076433153" x2="794.5" y2="181.99515076433153" stroke="#dddddd" stroke-width="1.0"/><line x1="30.249999999999996" y1="79.19908120469398" x2="794.5" y2="79.19908120469398" stroke="#dddddd" stroke-width="1.0"/><rect x="30.249999999999996" y="5.5" width="764.25" height="573.05" fill="#ffffff" fill-opacity="0.0" stroke="#444444" stroke-width="1.0"/><line x1="64.98863636363636" y1="578.55" x2="64.98863636363636" y2="581.3" stroke="#444444" stroke-width="1.0"/><text x="64.98863636363636" y="592.3" fill="#333333" font-size="11.0" font-family="sans-serif" text-anchor="middle">0</text><line x1="238.68181818181816" y1="578.55" x2="238.68181818181816" y2="581.3" stroke="#444444" stroke-width="1.0"/><text x="238.68181818181816" y="592.3" fill="#333333" font-size="11.0" font-family="sans-serif" text-anchor="middle">2</text><line x1="412.375" y1="578.55" x2="412.375" y2="581.3" stroke="#444444" stroke-width="1.0"/><text x="412.375" y="592.3" fill="#333333" font-size="11.0" font-family="sans-serif" text-anchor="middle">4</text><line x1="586.0681818181819" y1="578.55" x2="586.0681818181819" y2="581.3" stroke="#444444" stroke-width="1.0"/><text x="586.0681818181819" y="592.3" fill="#333333" font-size="11.0" font-family="sans-serif" text-anchor="middle">6</text><line x1="759.7613636363636" y1="578.55" x2="759.7613636363636" y2="581.3" stroke="#444444" stroke-width="1.0"/><text x="759.7613636363636" y="592.3" fill="#333333" font-size="11.0" font-family="sans-serif" text-anchor="middle">8</text><line x1="30.249999999999996" y1="490.3833594432443" x2="27.499999999999996" y2="490.3833594432443" stroke="#444444" stroke-width="1.0"/><text x="25.299999999999997" y="494.2333594432443" fill="#333333" font-size="11.0" font-family="sans-serif" text-anchor="end">0</text><line x1="30.249999999999996" y1="387.5872898836067" x2="27.499999999999996" y2="387.5872898836067" stroke="#444444" stroke-width="1.0"/><text x="25.299999999999997" y="391.4372898836067" fill="#333333" font-size="11.0" font-family="sans-serif" text-anchor="end">0.5</text><line x1="30.249999999999996" y1="284.79122032396907" x2="27.499999999999996" y2="284.79122032396907" stroke="#444444" stroke-width="1.0"/><text x="25.299999999999997" y="288.6412203239691" fill="#333333" font-size="11.0" font-family="sans-serif" text-anchor="end">1</text><line x1="30.249999999999996" y1="181.99515076433153" x2="27.499999999999996" y2="181.99515076433153" stroke="#444444" stroke-width="1.0"/><text x="25.299999999999997" y="185.84515076433152" fill="#333333" font-size="11.0" font-family="sans-serif" text-anchor="end">1.5</text><line x1="30.249999999999996" y1="79.19908120469398" x2="27.499999999999996" y2="79.19908120469398" stroke="#444444" stroke-width="1.0"/><text x="25.299999999999997" y="83.04908120469398" fill="#333333" font-size="11.0" font-family="sans-serif" text-anchor="end">2</text><circle cx="64.98863636363636" cy="469.82414553131673" r="3.0" fill="#1f77b4" fill-opacity="0.85" stroke="#1f77b4" stroke-width="1.0"><title>(0, 0.1)</title></circle><circle cx="99.72727272727273" cy="390.53669050163853" r="3.0" fill="#1f77b4" fill-opacity="0.85" stroke="#1f77b4" stroke-width="1.0"><title>(0.4, 0.485654117756)</title></circle><circle cx="134.4659090909091" cy="333.3897646457807" r="3.0" fill="#1f77b4" fill-opacity="0.85" stroke="#1f77b4" stroke-width="1.0"><title>(0.8, 0.763616719345)</title></circle><circle cx="169.20454545454547" cy="280.19351308373376" r="3.0" fill="#1f77b4" fill-opacity="0.85" stroke="#1f77b4" stroke-width="1.0"><title>(1.2, 1.022363244334)</title></circle><circle cx="203.9431818181818" cy="233.73786048054615" r="3.0" fill="#1f77b4" fill-opacity="0.85" stroke="#1f77b4" stroke-width="1.0"><title>(1.6, 1.248323501385)</title></circle><circle cx="238.68181818181816" cy="222.0209683155956" r="3.0" fill="#1f77b4" fill-opacity="0.85" stroke="#1f77b4" stroke-width="1.0"><title>(2, 1.305314455491)</title></circle><circle cx="273.4204545454545" cy="264.993044365414" r="3.0" fill="#1f77b4" fill-opacity="0.85" stroke="#1f77b4" stroke-width="1.0"><title>(2.4, 1.096298312004)</title></circle><circle cx="308.15909090909093" cy="345.8398971650091" r="3.0" fill="#1f77b4" fill-opacity="0.85" stroke="#1f77b4" stroke-width="1.0"><title>(2.8, 0.703059284744)</title></circle><circle cx="342.89772727272725" cy="423.9448059462725" r="3.0" fill="#1f77b4" fill-opacity="0.85" stroke="#1f77b4" stroke-width="1.0"><title>(3.2, 0.323157070993)</title></circle><circle cx="377.6363636363636" cy="474.33759897613436" r="3.0" fill="#1f77b4" fill-opacity="0.85" stroke="#1f77b4" stroke-width="1.0"><title>(3.6, 0.07804656606)</title></circle><circle cx="412.375" cy="505.27174582483315" r="3.0" fill="#1f77b4" fill-opacity="0.85" stroke="#1f77b4" stroke-width="1.0"><title>(4, -0.072417099435)</title></circle><circle cx="447.11363636363643" cy="533.766112912486" r="3.0" fill="#1f77b4" fill-opacity="0.85" stroke="#1f77b4" stroke-width="1.0"><title>(4.4, -0.211013678125)</title></circle><circle cx="481.85227272727275" cy="552.5022727272727" r="3.0" fill="#1f77b4" fill-opacity="0.85" stroke="#1f77b4" stroke-width="1.0"><title>(4.8, -0.302146344457)</title></circle><circle cx="516.590909090909" cy="532.0923338772049" r="3.0" fill="#1f77b4" fill-opacity="0.85" stroke="#1f77b4" stroke-width="1.0"><title>(5.2, -0.202872418239)</title></circle><circle cx="551.3295454545455" cy="456.9406106410912" r="3.0" fill="#1f77b4" fill-opacity="0.85" stroke="#1f77b4" stroke-width="1.0"><title>(5.6, 0.162665503387)</title></circle><circle cx="586.0681818181819" cy="349.2204717592819" r="3.0" fill="#1f77b4" fill-opacity="0.85" stroke="#1f77b4" stroke-width="1.0"><title>(6, 0.686616172625)</title></circle><circle cx="620.8068181818181" cy="249.74367353270083" r="3.0" fill="#1f77b4" fill-opacity="0.85" stroke="#1f77b4" stroke-width="1.0"><title>(6.4, 1.17047123952)</title></circle><circle cx="655.5454545454546" cy="178.67515937225932" r="3.0" fill="#1f77b4" fill-opacity="0.85" stroke="#1f77b4" stroke-width="1.0"><title>(6.8, 1.516148435472)</title></circle><circle cx="690.2840909090909" cy="124.17838829145279" r="3.0" fill="#1f77b4" fill-opacity="0.85" stroke="#1f77b4" stroke-width="1.0"><title>(7.2, 1.781220686358)</title></circle><circle cx="725.0227272727273" cy="71.20428457331252" r="3.0" fill="#1f77b4" fill-opacity="0.85" stroke="#1f77b4" stroke-width="1.0"><title>(7.6, 2.038886684411)</title></circle><circle cx="759.7613636363636" cy="31.547727272727343" r="3.0" fill="#1f77b4" fill-opacity="0.85" stroke="#1f77b4" stroke-width="1.0"><title>(8, 2.231776147357)</title></circle><line x1="64.98863636363636" y1="423.0988611144513" x2="99.72727272727273" y2="362.29679264353683" stroke="#1f77b4" stroke-width="1.5"/><line x1="99.72727272727273" y1="362.29679264353683" x2="134.4659090909091" y2="315.76025674937495" stroke="#1f77b4" stroke-width="1.5"/><line x1="134.4659090909091" y1="315.76025674937495" x2="169.20454545454547" y2="282.92551139718836" stroke="#1f77b4" stroke-width="1.5"/><line x1="169.20454545454547" y1="282.92551139718836" x2="203.9431818181818" y2="264.56152841208956" stroke="#1f77b4" stroke-width="1.5"/><line x1="203.9431818181818" y1="264.56152841208956" x2="238.68181818181816" y2="264.93434177516184" stroke="#1f77b4" stroke-width="1.5"/><line x1="238.68181818181816" y1="264.93434177516184" x2="273.4204545454545" y2="288.8060971299883" stroke="#1f77b4" stroke-width="1.5"/><line x1="273.4204545454545" y1="288.8060971299883" x2="308.15909090909093" y2="334.79191649245956" stroke="#1f77b4" stroke-width="1.5"/><line x1="308.15909090909093" y1="334.79191649245956" x2="342.89772727272725" y2="390.6768716420154" stroke="#1f77b4" stroke-width="1.5"/><line x1="342.89772727272725" y1="390.6768716420154" x2="377.6363636363636" y2="443.24168580461696" stroke="#1f77b4" stroke-width="1.5"/><line x1="377.6363636363636" y1="443.24168580461696" x2="412.375" y2="482.50665574491876" stroke="#1f77b4" stroke-width="1.5"/><line x1="412.375" y1="482.50665574491876" x2="447.11363636363643" y2="502.3962727949468" stroke="#1f77b4" stroke-width="1.5"/><line x1="447.11363636363643" y1="502.3962727949468" x2="481.85227272727275" y2="497.39220166645833" stroke="#1f77b4" stroke-width="1.5"/><line x1="481.85227272727275" y1="497.39220166645833" x2="516.590909090909" y2="467.43068411651325" stroke="#1f77b4" stroke-width="1.5"/><line x1="516.590909090909" y1="467.43068411651325" x2="551.3295454545455" y2="416.9739923434826" stroke="#1f77b4" stroke-width="1.5"/><line x1="551.3295454545455" y1="416.9739923434826" x2="586.0681818181819" y2="351.1801485236495" stroke="#1f77b4" stroke-width="1.5"/><line x1="586.0681818181819" y1="351.1801485236495" x2="620.8068181818181" y2="280.69634759107686" stroke="#1f77b4" stroke-width="1.5"/><line x1="620.8068181818181" y1="280.69634759107686" x2="655.5454545454546" y2="219.28538172101162" stroke="#1f77b4" stroke-width="1.5"/><line x1="655.5454545454546" y1="219.28538172101162" x2="690.2840909090909" y2="177.59092409191737" stroke="#1f77b4" stroke-width="1.5"/><line x1="690.2840909090909" y1="177.59092409191737" x2="725.0227272727273" y2="146.78695430123236" stroke="#1f77b4" stroke-width="1.5"/><line x1="725.0227272727273" y1="146.78695430123236" x2="759.7613636363636" y2="110.62764373997373" stroke="#1f77b4" stroke-width="1.5"/></svg>