<svg xmlns="http://www.w3.org/2000/svg" width="624" height="384" viewBox="0 0 624 384"><rect x="0.0" y="0.0" width="624.0" height="384.0" fill="#ffffff" fill-opacity="1.0" stroke="none"/><line x1="54.770303030303026" y1="7.333333333333333" x2="54.770303030303026" y2="358.3333333333333" stroke="#dddddd" stroke-width="0.6666666666666666"/><line x1="207.66727272727275" y1="7.333333333333333" x2="207.66727272727275" y2="358.3333333333333" stroke="#dddddd" stroke-width="0.6666666666666666"/><line x1="360.5642424242424" y1="7.333333333333333" x2="360.5642424242424" y2="358.3333333333333" stroke="#dddddd" stroke-width="0.6666666666666666"/><line x1="513.461212121212" y1="7.333333333333333" x2="513.461212121212" y2="358.3333333333333" stroke="#dddddd" stroke-width="0.6666666666666666"/><line x1="131.2187878787879" y1="7.333333333333333" x2="131.2187878787879" y2="358.3333333333333" stroke="#dddddd" stroke-width="1.3333333333333333"/><line x1="284.1157575757576" y1="7.333333333333333" x2="284.1157575757576" y2="358.3333333333333" stroke="#dddddd" stroke-width="1.3333333333333333"/><line x1="437.0127272727273" y1="7.333333333333333" x2="437.0127272727273" y2="358.3333333333333" stroke="#dddddd" stroke-width="1.3333333333333333"/><line x1="589.9096969696969" y1="7.333333333333333" x2="589.9096969696969" y2="358.3333333333333" stroke="#dddddd" stroke-width="1.3333333333333333"/><line x1="28.01333333333333" y1="296.55435054252666" x2="616.6666666666666" y2="296.55435054252666" stroke="#dddddd" stroke-width="0.6666666666666666"/><line x1="28.01333333333333" y1="194.76633644569148" x2="616.6666666666666" y2="194.76633644569148" stroke="#dddddd" stroke-width="0.6666666666666666"/><line x1="28.01333333333333" y1="92.97832234885621" x2="616.6666666666666" y2="92.97832234885621" stroke="#dddddd" stroke-width="0.6666666666666666"/><line x1="28.01333333333333" y1="347.4483575909443" x2="616.6666666666666" y2="347.4483575909443" stroke="#dddddd" stroke-width="1.3333333333333333"/><line x1="28.01333333333333" y1="245.66034349410907" x2="616.6666666666666" y2="245.66034349410907" stroke="#dddddd" stroke-width="1.3333333333333333"/><line x1="28.01333333333333" y1="143.87232939727386" x2="616.6666666666666" y2="143.87232939727386" stroke="#dddddd" stroke-width="1.3333333333333333"/><line x1="28.01333333333333" y1="42.08431530043863" x2="616.6666666666666" y2="42.08431530043863" stroke="#dddddd" stroke-width="1.3333333333333333"/><rect x="28.01333333333333" y="7.333333333333333" width="588.6533333333333" height="351.0" fill="#ffffff" fill-opacity="0.0" stroke="#444444" stroke-width="1.3333333333333333"/><line x1="131.2187878787879" y1="358.3333333333333" x2="131.2187878787879" y2="362.0" stroke="#444444" stroke-width="1.3333333333333333"/><text x="131.2187878787879" y="374.32" fill="#333333" font-size="11.733333333333334" font-family="sans-serif" text-anchor="middle">2</text><line x1="284.1157575757576" y1="358.3333333333333" x2="284.1157575757576" y2="362.0" stroke="#444444" stroke-width="1.3333333333333333"/><text x="284.1157575757576" y="374.32" fill="#333333" font-size="11.733333333333334" font-family="sans-serif" text-anchor="middle">4</text><line x1="437.0127272727273" y1="358.3333333333333" x2="437.0127272727273" y2="362.0" stroke="#444444" stroke-width="1.3333333333333333"/><text x="437.0127272727273" y="374.32" fill="#333333" font-size="11.733333333333334" font-family="sans-serif" text-anchor="middle">6</text><line x1="589.9096969696969" y1="358.3333333333333" x2="589.9096969696969" y2="362.0" stroke="#444444" stroke-width="1.3333333333333333"/><text x="589.9096969696969" y="374.32" fill="#333333" font-size="11.733333333333334" font-family="sans-serif" text-anchor="middle">8</text><line x1="28.01333333333333" y1="347.4483575909443" x2="24.346666666666664" y2="347.4483575909443" stroke="#444444" stroke-width="1.3333333333333333"/><text x="21.41333333333333" y="351.55502425761097" fill="#333333" font-size="11.733333333333334" font-family="sans-serif" text-anchor="end">0</text><line x1="28.01333333333333" y1="245.66034349410907" x2="24.346666666666664" y2="245.66034349410907" stroke="#444444" stroke-width="1.3333333333333333"/><text x="21.41333333333333" y="249.76701016077575" fill="#333333" font-size="11.733333333333334" font-family="sans-serif" text-anchor="end">10</text><line x1="28.01333333333333" y1="143.87232939727386" x2="24.346666666666664" y2="143.87232939727386" stroke="#444444" stroke-width="1.3333333333333333"/><text x="21.41333333333333" y="147.97899606394054" fill="#333333" font-size="11.733333333333334" font-family="sans-serif" text-anchor="end">20</text><line x1="28.01333333333333" y1="42.08431530043863" x2="24.346666666666664" y2="42.08431530043863" stroke="#444444" stroke-width="1.3333333333333333"/><text x="21.41333333333333" y="46.1909819671053" fill="#333333" font-size="11.733333333333334" font-family="sans-serif" text-anchor="end">30</text><circle cx="54.770303030303026" cy="337.2695561812608" r="3.1181102362204727" fill="#1f77b4" fill-opacity="0.85" stroke="none"><title>(1, 1)</title></circle><circle cx="131.2187878787879" cy="337.2695561812608" r="3.1181102362204727" fill="#1f77b4" fill-opacity="0.85" stroke="none"><title>(2, 1)</title></circle><circle cx="207.66727272727275" cy="316.9119533618937" r="3.1181102362204727" fill="#1f77b4" fill-opacity="0.85" stroke="none"><title>(3, 3)</title></circle><circle cx="284.1157575757576" cy="306.7331519522102" r="3.1181102362204727" fill="#1f77b4" fill-opacity="0.85" stroke="none"><title>(4, 4)</title></circle><circle cx="360.5642424242424" cy="276.19674772315966" r="3.1181102362204727" fill="#1f77b4" fill-opacity="0.85" stroke="none"><title>(5, 7)</title></circle><circle cx="437.0127272727273" cy="245.66034349410907" r="3.1181102362204727" fill="#1f77b4" fill-opacity="0.85" stroke="none"><title>(6, 10)</title></circle><circle cx="513.461212121212" cy="194.76633644569148" r="3.1181102362204727" fill="#1f77b4" fill-opacity="0.85" stroke="none"><title>(7, 15)</title></circle><circle cx="589.9096969696969" cy="123.51472657790683" r="3.1181102362204727" fill="#1f77b4" fill-opacity="0.85" stroke="none"><title>(8, 22)</title></circle><path d="M 54.770303030303026 342.3787878787879 L 131.2187878787879 338.53431864221614 L 207.66727272727275 331.8403065183458 L 284.1157575757576 320.33929221286223 L 360.5642424242424 301.1736090071121 L 437.0127272727273 271.4957426636429 L 513.461212121212 231.12892502079185 L 589.9096969696969 180.54363104470383 L 589.9096969696969 23.287878787878867 L 513.461212121212 151.75060482897177 L 437.0127272727273 221.35134553487651 L 360.5642424242424 260.3694702215101 L 284.1157575757576 284.9092316689538 L 207.66727272727275 301.7472119328591 L 131.2187878787879 313.7808745321891 L 54.770303030303026 322.54123886329705 Z" fill="#1f77b4" fill-opacity="0.2" stroke="none"/><line x1="54.770303030303026" y1="336.2114374293179" x2="131.2187878787879" y2="330.12458042511264" stroke="#1f77b4" stroke-width="1.4211023622047245"/><line x1="131.2187878787879" y1="330.12458042511264" x2="207.66727272727275" y2="320.74057191882883" stroke="#1f77b4" stroke-width="1.4211023622047245"/><line x1="207.66727272727275" y1="320.74057191882883" x2="284.1157575757576" y2="306.2733985344091" stroke="#1f77b4" stroke-width="1.4211023622047245"/><line x1="284.1157575757576" y1="306.2733985344091" x2="360.5642424242424" y2="283.96959248023654" stroke="#1f77b4" stroke-width="1.4211023622047245"/><line x1="360.5642424242424" y1="283.96959248023654" x2="437.0127272727273" y2="249.58417721743993" stroke="#1f77b4" stroke-width="1.4211023622047245"/><line x1="437.0127272727273" y1="249.58417721743993" x2="513.461212121212" y2="196.5727414148152" stroke="#1f77b4" stroke-width="1.4211023622047245"/><line x1="513.461212121212" y1="196.5727414148152" x2="589.9096969696969" y2="114.84587249733222" stroke="#1f77b4" stroke-width="1.4211023622047245"/></svg>