<svg xmlns="http://www.w3.org/2000/svg" width="624" height="384" viewBox="0 0 624 384"><rect x="0.0" y="0.0" width="624.0" height="384.0" fill="#ffffff" fill-opacity="1.0" stroke="none"/><line x1="67.9775307695746" y1="32.266666666666666" x2="67.9775307695746" y2="358.3333333333333" stroke="#dddddd" stroke-width="0.6666666666666666"/><line x1="175.07391240113705" y1="32.266666666666666" x2="175.07391240113705" y2="358.3333333333333" stroke="#dddddd" stroke-width="0.6666666666666666"/><line x1="282.1702940326995" y1="32.266666666666666" x2="282.1702940326995" y2="358.3333333333333" stroke="#dddddd" stroke-width="0.6666666666666666"/><line x1="389.26667566426187" y1="32.266666666666666" x2="389.26667566426187" y2="358.3333333333333" stroke="#dddddd" stroke-width="0.6666666666666666"/><line x1="496.3630572958243" y1="32.266666666666666" x2="496.3630572958243" y2="358.3333333333333" stroke="#dddddd" stroke-width="0.6666666666666666"/><line x1="603.4594389273868" y1="32.266666666666666" x2="603.4594389273868" y2="358.3333333333333" stroke="#dddddd" stroke-width="0.6666666666666666"/><line x1="121.52572158535584" y1="32.266666666666666" x2="121.52572158535584" y2="358.3333333333333" stroke="#dddddd" stroke-width="1.3333333333333333"/><line x1="228.62210321691828" y1="32.266666666666666" x2="228.62210321691828" y2="358.3333333333333" stroke="#dddddd" stroke-width="1.3333333333333333"/><line x1="335.71848484848067" y1="32.266666666666666" x2="335.71848484848067" y2="358.3333333333333" stroke="#dddddd" stroke-width="1.3333333333333333"/><line x1="442.8148664800432" y1="32.266666666666666" x2="442.8148664800432" y2="358.3333333333333" stroke="#dddddd" stroke-width="1.3333333333333333"/><line x1="549.9112481116056" y1="32.266666666666666" x2="549.9112481116056" y2="358.3333333333333" stroke="#dddddd" stroke-width="1.3333333333333333"/><line x1="28.01333333333333" y1="334.47479674796745" x2="616.6666666666666" y2="334.47479674796745" stroke="#dddddd" stroke-width="1.3333333333333333"/><line x1="28.01333333333333" y1="294.71056910569104" x2="616.6666666666666" y2="294.71056910569104" stroke="#dddddd" stroke-width="1.3333333333333333"/><line x1="28.01333333333333" y1="254.9463414634146" x2="616.6666666666666" y2="254.9463414634146" stroke="#dddddd" stroke-width="1.3333333333333333"/><line x1="28.01333333333333" y1="215.1821138211382" x2="616.6666666666666" y2="215.1821138211382" stroke="#dddddd" stroke-width="1.3333333333333333"/><line x1="28.01333333333333" y1="175.41788617886175" x2="616.6666666666666" y2="175.41788617886175" stroke="#dddddd" stroke-width="1.3333333333333333"/><line x1="28.01333333333333" y1="135.65365853658534" x2="616.6666666666666" y2="135.65365853658534" stroke="#dddddd" stroke-width="1.3333333333333333"/><line x1="28.01333333333333" y1="95.88943089430893" x2="616.6666666666666" y2="95.88943089430893" stroke="#dddddd" stroke-width="1.3333333333333333"/><line x1="28.01333333333333" y1="56.12520325203248" x2="616.6666666666666" y2="56.12520325203248" stroke="#dddddd" stroke-width="1.3333333333333333"/><rect x="28.01333333333333" y="32.266666666666666" width="588.6533333333333" height="326.06666666666666" fill="#ffffff" fill-opacity="0.0" stroke="#444444" stroke-width="1.3333333333333333"/><line x1="121.52572158535584" y1="358.3333333333333" x2="121.52572158535584" y2="362.0" stroke="#444444" stroke-width="1.3333333333333333"/><text x="121.52572158535584" y="374.32" fill="#333333" font-size="11.733333333333334" font-family="sans-serif" text-anchor="middle">-2</text><line x1="228.62210321691828" y1="358.3333333333333" x2="228.62210321691828" y2="362.0" stroke="#444444" stroke-width="1.3333333333333333"/><text x="228.62210321691828" y="374.32" fill="#333333" font-size="11.733333333333334" font-family="sans-serif" text-anchor="middle">-1</text><line x1="335.71848484848067" y1="358.3333333333333" x2="335.71848484848067" y2="362.0" stroke="#444444" stroke-width="1.3333333333333333"/><text x="335.71848484848067" y="374.32" fill="#333333" font-size="11.733333333333334" font-family="sans-serif" text-anchor="middle">0</text><line x1="442.8148664800432" y1="358.3333333333333" x2="442.8148664800432" y2="362.0" stroke="#444444" stroke-width="1.3333333333333333"/><text x="442.8148664800432" y="374.32" fill="#333333" font-size="11.733333333333334" font-family="sans-serif" text-anchor="middle">1</text><line x1="549.9112481116056" y1="358.3333333333333" x2="549.9112481116056" y2="362.0" stroke="#444444" stroke-width="1.3333333333333333"/><text x="549.9112481116056" y="374.32" fill="#333333" font-size="11.733333333333334" font-family="sans-serif" text-anchor="middle">2</text><line x1="28.01333333333333" y1="334.47479674796745" x2="24.346666666666664" y2="334.47479674796745" stroke="#444444" stroke-width="1.3333333333333333"/><text x="21.41333333333333" y="338.58146341463413" fill="#333333" font-size="11.733333333333334" font-family="sans-serif" text-anchor="end">G8</text><line x1="28.01333333333333" y1="294.71056910569104" x2="24.346666666666664" y2="294.71056910569104" stroke="#444444" stroke-width="1.3333333333333333"/><text x="21.41333333333333" y="298.8172357723577" fill="#333333" font-size="11.733333333333334" font-family="sans-serif" text-anchor="end">G7</text><line x1="28.01333333333333" y1="254.9463414634146" x2="24.346666666666664" y2="254.9463414634146" stroke="#444444" stroke-width="1.3333333333333333"/><text x="21.41333333333333" y="259.05300813008125" fill="#333333" font-size="11.733333333333334" font-family="sans-serif" text-anchor="end">G6</text><line x1="28.01333333333333" y1="215.1821138211382" x2="24.346666666666664" y2="215.1821138211382" stroke="#444444" stroke-width="1.3333333333333333"/><text x="21.41333333333333" y="219.28878048780487" fill="#333333" font-size="11.733333333333334" font-family="sans-serif" text-anchor="end">G5</text><line x1="28.01333333333333" y1="175.41788617886175" x2="24.346666666666664" y2="175.41788617886175" stroke="#444444" stroke-width="1.3333333333333333"/><text x="21.41333333333333" y="179.52455284552843" fill="#333333" font-size="11.733333333333334" font-family="sans-serif" text-anchor="end">G4</text><line x1="28.01333333333333" y1="135.65365853658534" x2="24.346666666666664" y2="135.65365853658534" stroke="#444444" stroke-width="1.3333333333333333"/><text x="21.41333333333333" y="139.760325203252" fill="#333333" font-size="11.733333333333334" font-family="sans-serif" text-anchor="end">G3</text><line x1="28.01333333333333" y1="95.88943089430893" x2="24.346666666666664" y2="95.88943089430893" stroke="#444444" stroke-width="1.3333333333333333"/><text x="21.41333333333333" y="99.99609756097558" fill="#333333" font-size="11.733333333333334" font-family="sans-serif" text-anchor="end">G2</text><line x1="28.01333333333333" y1="56.12520325203248" x2="24.346666666666664" y2="56.12520325203248" stroke="#444444" stroke-width="1.3333333333333333"/><text x="21.41333333333333" y="60.23186991869915" fill="#333333" font-size="11.733333333333334" font-family="sans-serif" text-anchor="end">G1</text><text x="28.01333333333333" y="21.413333333333334" fill="#333333" font-size="17.599999999999998" font-family="sans-serif" text-anchor="start">Random effects (col 0)</text><line x1="335.71848484848067" y1="32.266666666666666" x2="335.71848484848067" y2="358.3333333333333" stroke="#888" stroke-width="1.3333333333333333"/><line x1="54.77030303030301" y1="56.12520325203248" x2="54.77030303030301" y2="56.12520325203248" stroke="#1f77b4" stroke-width="2.0"/><circle cx="54.77030303030301" cy="56.12520325203248" r="2.834645669291339" fill="#1f77b4" fill-opacity="0.9" stroke="#1f77b4" stroke-width="1.3333333333333333"/><line x1="161.7981818181818" y1="95.88943089430893" x2="161.7981818181818" y2="95.88943089430893" stroke="#1f77b4" stroke-width="2.0"/><circle cx="161.7981818181818" cy="95.88943089430893" r="2.834645669291339" fill="#1f77b4" fill-opacity="0.9" stroke="#1f77b4" stroke-width="1.3333333333333333"/><line x1="268.82606060606054" y1="135.65365853658534" x2="268.82606060606054" y2="135.65365853658534" stroke="#1f77b4" stroke-width="2.0"/><circle cx="268.82606060606054" cy="135.65365853658534" r="2.834645669291339" fill="#1f77b4" fill-opacity="0.9" stroke="#1f77b4" stroke-width="1.3333333333333333"/><line x1="322.34" y1="175.41788617886175" x2="322.34" y2="175.41788617886175" stroke="#1f77b4" stroke-width="2.0"/><circle cx="322.34" cy="175.41788617886175" r="2.834645669291339" fill="#1f77b4" fill-opacity="0.9" stroke="#1f77b4" stroke-width="1.3333333333333333"/><line x1="375.85393939393936" y1="215.1821138211382" x2="375.85393939393936" y2="215.1821138211382" stroke="#1f77b4" stroke-width="2.0"/><circle cx="375.85393939393936" cy="215.1821138211382" r="2.834645669291339" fill="#1f77b4" fill-opacity="0.9" stroke="#1f77b4" stroke-width="1.3333333333333333"/><line x1="429.3678787878788" y1="254.9463414634146" x2="429.3678787878788" y2="254.9463414634146" stroke="#1f77b4" stroke-width="2.0"/><circle cx="429.3678787878788" cy="254.9463414634146" r="2.834645669291339" fill="#1f77b4" fill-opacity="0.9" stroke="#1f77b4" stroke-width="1.3333333333333333"/><line x1="482.8818181818181" y1="294.71056910569104" x2="482.8818181818181" y2="294.71056910569104" stroke="#1f77b4" stroke-width="2.0"/><circle cx="482.8818181818181" cy="294.71056910569104" r="2.834645669291339" fill="#1f77b4" fill-opacity="0.9" stroke="#1f77b4" stroke-width="1.3333333333333333"/><line x1="589.9096969696968" y1="334.47479674796745" x2="589.9096969696968" y2="334.47479674796745" stroke="#1f77b4" stroke-width="2.0"/><circle cx="589.9096969696968" cy="334.47479674796745" r="2.834645669291339" fill="#1f77b4" fill-opacity="0.9" stroke="#1f77b4" stroke-width="1.3333333333333333"/></svg>