<svg xmlns="http://www.w3.org/2000/svg" width="800" height="600" viewBox="0 0 800 600"><rect x="0.0" y="0.0" width="800.0" height="600.0" fill="#ffffff" fill-opacity="1.0" stroke="none"/><line x1="75.98369089966917" y1="27.0" x2="75.98369089966917" y2="578.55" stroke="#dddddd" stroke-width="0.5"/><line x1="216.22794181252664" y1="27.0" x2="216.22794181252664" y2="578.55" stroke="#dddddd" stroke-width="0.5"/><line x1="356.47219272538405" y1="27.0" x2="356.47219272538405" y2="578.55" stroke="#dddddd" stroke-width="0.5"/><line x1="496.71644363824146" y1="27.0" x2="496.71644363824146" y2="578.55" stroke="#dddddd" stroke-width="0.5"/><line x1="636.9606945510989" y1="27.0" x2="636.9606945510989" y2="578.55" stroke="#dddddd" stroke-width="0.5"/><line x1="777.2049454639564" y1="27.0" x2="777.2049454639564" y2="578.55" stroke="#dddddd" stroke-width="0.5"/><line x1="146.1058163560979" y1="27.0" x2="146.1058163560979" y2="578.55" stroke="#dddddd" stroke-width="1.0"/><line x1="286.35006726895534" y1="27.0" x2="286.35006726895534" y2="578.55" stroke="#dddddd" stroke-width="1.0"/><line x1="426.59431818181275" y1="27.0" x2="426.59431818181275" y2="578.55" stroke="#dddddd" stroke-width="1.0"/><line x1="566.8385690946702" y1="27.0" x2="566.8385690946702" y2="578.55" stroke="#dddddd" stroke-width="1.0"/><line x1="707.0828200075275" y1="27.0" x2="707.0828200075275" y2="578.55" stroke="#dddddd" stroke-width="1.0"/><line x1="23.65" y1="538.1926829268292" x2="794.5" y2="538.1926829268292" stroke="#dddddd" stroke-width="1.0"/><line x1="23.65" y1="470.930487804878" x2="794.5" y2="470.930487804878" stroke="#dddddd" stroke-width="1.0"/><line x1="23.65" y1="403.6682926829268" x2="794.5" y2="403.6682926829268" stroke="#dddddd" stroke-width="1.0"/><line x1="23.65" y1="336.4060975609756" x2="794.5" y2="336.4060975609756" stroke="#dddddd" stroke-width="1.0"/><line x1="23.65" y1="269.1439024390243" x2="794.5" y2="269.1439024390243" stroke="#dddddd" stroke-width="1.0"/><line x1="23.65" y1="201.8817073170731" x2="794.5" y2="201.8817073170731" stroke="#dddddd" stroke-width="1.0"/><line x1="23.65" y1="134.6195121951219" x2="794.5" y2="134.6195121951219" stroke="#dddddd" stroke-width="1.0"/><line x1="23.65" y1="67.35731707317069" x2="794.5" y2="67.35731707317069" stroke="#dddddd" stroke-width="1.0"/><rect x="23.65" y="27.0" width="770.85" height="551.55" fill="#ffffff" fill-opacity="0.0" stroke="#444444" stroke-width="1.0"/><line x1="146.1058163560979" y1="578.55" x2="146.1058163560979" y2="581.3" stroke="#444444" stroke-width="1.0"/><text x="146.1058163560979" y="592.3" fill="#333333" font-size="11.0" font-family="sans-serif" text-anchor="middle">-2</text><line x1="286.35006726895534" y1="578.55" x2="286.35006726895534" y2="581.3" stroke="#444444" stroke-width="1.0"/><text x="286.35006726895534" y="592.3" fill="#333333" font-size="11.0" font-family="sans-serif" text-anchor="middle">-1</text><line x1="426.59431818181275" y1="578.55" x2="426.59431818181275" y2="581.3" stroke="#444444" stroke-width="1.0"/><text x="426.59431818181275" y="592.3" fill="#333333" font-size="11.0" font-family="sans-serif" text-anchor="middle">0</text><line x1="566.8385690946702" y1="578.55" x2="566.8385690946702" y2="581.3" stroke="#444444" stroke-width="1.0"/><text x="566.8385690946702" y="592.3" fill="#333333" font-size="11.0" font-family="sans-serif" text-anchor="middle">1</text><line x1="707.0828200075275" y1="578.55" x2="707.0828200075275" y2="581.3" stroke="#444444" stroke-width="1.0"/><text x="707.0828200075275" y="592.3" fill="#333333" font-size="11.0" font-family="sans-serif" text-anchor="middle">2</text><line x1="23.65" y1="538.1926829268292" x2="20.9" y2="538.1926829268292" stroke="#444444" stroke-width="1.0"/><text x="18.7" y="542.0426829268292" fill="#333333" font-size="11.0" font-family="sans-serif" text-anchor="end">G4</text><line x1="23.65" y1="470.930487804878" x2="20.9" y2="470.930487804878" stroke="#444444" stroke-width="1.0"/><text x="18.7" y="474.780487804878" fill="#333333" font-size="11.0" font-family="sans-serif" text-anchor="end">G6</text><line x1="23.65" y1="403.6682926829268" x2="20.9" y2="403.6682926829268" stroke="#444444" stroke-width="1.0"/><text x="18.7" y="407.5182926829268" fill="#333333" font-size="11.0" font-family="sans-serif" text-anchor="end">G8</text><line x1="23.65" y1="336.4060975609756" x2="20.9" y2="336.4060975609756" stroke="#444444" stroke-width="1.0"/><text x="18.7" y="340.2560975609756" fill="#333333" font-size="11.0" font-family="sans-serif" text-anchor="end">G2</text><line x1="23.65" y1="269.1439024390243" x2="20.9" y2="269.1439024390243" stroke="#444444" stroke-width="1.0"/><text x="18.7" y="272.99390243902434" fill="#333333" font-size="11.0" font-family="sans-serif" text-anchor="end">G7</text><line x1="23.65" y1="201.8817073170731" x2="20.9" y2="201.8817073170731" stroke="#444444" stroke-width="1.0"/><text x="18.7" y="205.7317073170731" fill="#333333" font-size="11.0" font-family="sans-serif" text-anchor="end">G3</text><line x1="23.65" y1="134.6195121951219" x2="20.9" y2="134.6195121951219" stroke="#444444" stroke-width="1.0"/><text x="18.7" y="138.4695121951219" fill="#333333" font-size="11.0" font-family="sans-serif" text-anchor="end">G1</text><line x1="23.65" y1="67.35731707317069" x2="20.9" y2="67.35731707317069" stroke="#444444" stroke-width="1.0"/><text x="18.7" y="71.20731707317069" fill="#333333" font-size="11.0" font-family="sans-serif" text-anchor="end">G5</text><text x="409.075" y="18.3" fill="#333333" font-size="16.0" font-family="sans-serif" text-anchor="middle">Random effects (col 0)</text><line x1="426.59431818181275" y1="27.0" x2="426.59431818181275" y2="578.55" stroke="#888" stroke-width="1.0"/><line x1="58.688636363636334" y1="67.35731707317069" x2="58.688636363636334" y2="67.35731707317069" stroke="#1f77b4" stroke-width="1.5"/><circle cx="58.688636363636334" cy="67.35731707317069" r="3.0" fill="#1f77b4" fill-opacity="0.9" stroke="#1f77b4" stroke-width="1.0"/><line x1="198.84318181818185" y1="134.6195121951219" x2="198.84318181818185" y2="134.6195121951219" stroke="#1f77b4" stroke-width="1.5"/><circle cx="198.84318181818185" cy="134.6195121951219" r="3.0" fill="#1f77b4" fill-opacity="0.9" stroke="#1f77b4" stroke-width="1.0"/><line x1="338.9977272727272" y1="201.8817073170731" x2="338.9977272727272" y2="201.8817073170731" stroke="#1f77b4" stroke-width="1.5"/><circle cx="338.9977272727272" cy="201.8817073170731" r="3.0" fill="#1f77b4" fill-opacity="0.9" stroke="#1f77b4" stroke-width="1.0"/><line x1="409.075" y1="269.1439024390243" x2="409.075" y2="269.1439024390243" stroke="#1f77b4" stroke-width="1.5"/><circle cx="409.075" cy="269.1439024390243" r="3.0" fill="#1f77b4" fill-opacity="0.9" stroke="#1f77b4" stroke-width="1.0"/><line x1="479.15227272727276" y1="336.4060975609756" x2="479.15227272727276" y2="336.4060975609756" stroke="#1f77b4" stroke-width="1.5"/><circle cx="479.15227272727276" cy="336.4060975609756" r="3.0" fill="#1f77b4" fill-opacity="0.9" stroke="#1f77b4" stroke-width="1.0"/><line x1="549.2295454545455" y1="403.6682926829268" x2="549.2295454545455" y2="403.6682926829268" stroke="#1f77b4" stroke-width="1.5"/><circle cx="549.2295454545455" cy="403.6682926829268" r="3.0" fill="#1f77b4" fill-opacity="0.9" stroke="#1f77b4" stroke-width="1.0"/><line x1="619.3068181818181" y1="470.930487804878" x2="619.3068181818181" y2="470.930487804878" stroke="#1f77b4" stroke-width="1.5"/><circle cx="619.3068181818181" cy="470.930487804878" r="3.0" fill="#1f77b4" fill-opacity="0.9" stroke="#1f77b4" stroke-width="1.0"/><line x1="759.4613636363636" y1="538.1926829268292" x2="759.4613636363636" y2="538.1926829268292" stroke="#1f77b4" stroke-width="1.5"/><circle cx="759.4613636363636" cy="538.1926829268292" r="3.0" fill="#1f77b4" fill-opacity="0.9" stroke="#1f77b4" stroke-width="1.0"/></svg>