<svg xmlns="http://www.w3.org/2000/svg" width="800" height="600" viewBox="0 0 800 600"><rect x="0.0" y="0.0" width="800.0" height="600.0" fill="#ffffff" fill-opacity="1.0" stroke="none"/><line x1="128.68636363636364" y1="5.5" x2="128.68636363636364" y2="578.55" stroke="#dddddd" stroke-width="0.5"/><line x1="243.4818181818182" y1="5.5" x2="243.4818181818182" y2="578.55" stroke="#dddddd" stroke-width="0.5"/><line x1="358.2772727272727" y1="5.5" x2="358.2772727272727" y2="578.55" stroke="#dddddd" stroke-width="0.5"/><line x1="473.0727272727273" y1="5.5" x2="473.0727272727273" y2="578.55" stroke="#dddddd" stroke-width="0.5"/><line x1="587.8681818181818" y1="5.5" x2="587.8681818181818" y2="578.55" stroke="#dddddd" stroke-width="0.5"/><line x1="702.6636363636363" y1="5.5" x2="702.6636363636363" y2="578.55" stroke="#dddddd" stroke-width="0.5"/><line x1="71.28863636363636" y1="5.5" x2="71.28863636363636" y2="578.55" stroke="#dddddd" stroke-width="1.0"/><line x1="186.08409090909092" y1="5.5" x2="186.08409090909092" y2="578.55" stroke="#dddddd" stroke-width="1.0"/><line x1="300.87954545454545" y1="5.5" x2="300.87954545454545" y2="578.55" stroke="#dddddd" stroke-width="1.0"/><line x1="415.67499999999995" y1="5.5" x2="415.67499999999995" y2="578.55" stroke="#dddddd" stroke-width="1.0"/><line x1="530.4704545454545" y1="5.5" x2="530.4704545454545" y2="578.55" stroke="#dddddd" stroke-width="1.0"/><line x1="645.2659090909092" y1="5.5" x2="645.2659090909092" y2="578.55" stroke="#dddddd" stroke-width="1.0"/><line x1="760.0613636363637" y1="5.5" x2="760.0613636363637" y2="578.55" stroke="#dddddd" stroke-width="1.0"/><line x1="36.849999999999994" y1="510.0431779577187" x2="794.5" y2="510.0431779577187" stroke="#dddddd" stroke-width="0.5"/><line x1="36.849999999999994" y1="423.2911715868473" x2="794.5" y2="423.2911715868473" stroke="#dddddd" stroke-width="0.5"/><line x1="36.849999999999994" y1="336.539165215976" x2="794.5" y2="336.539165215976" stroke="#dddddd" stroke-width="0.5"/><line x1="36.849999999999994" y1="249.78715884510467" x2="794.5" y2="249.78715884510467" stroke="#dddddd" stroke-width="0.5"/><line x1="36.849999999999994" y1="163.03515247423343" x2="794.5" y2="163.03515247423343" stroke="#dddddd" stroke-width="0.5"/><line x1="36.849999999999994" y1="76.28314610336213" x2="794.5" y2="76.28314610336213" stroke="#dddddd" stroke-width="0.5"/><line x1="36.849999999999994" y1="553.4191811431543" x2="794.5" y2="553.4191811431543" stroke="#dddddd" stroke-width="1.0"/><line x1="36.849999999999994" y1="466.66717477228303" x2="794.5" y2="466.66717477228303" stroke="#dddddd" stroke-width="1.0"/><line x1="36.849999999999994" y1="379.9151684014117" x2="794.5" y2="379.9151684014117" stroke="#dddddd" stroke-width="1.0"/><line x1="36.849999999999994" y1="293.1631620305404" x2="794.5" y2="293.1631620305404" stroke="#dddddd" stroke-width="1.0"/><line x1="36.849999999999994" y1="206.41115565966908" x2="794.5" y2="206.41115565966908" stroke="#dddddd" stroke-width="1.0"/><line x1="36.849999999999994" y1="119.65914928879772" x2="794.5" y2="119.65914928879772" stroke="#dddddd" stroke-width="1.0"/><line x1="36.849999999999994" y1="32.90714291792642" x2="794.5" y2="32.90714291792642" stroke="#dddddd" stroke-width="1.0"/><rect x="36.849999999999994" y="5.5" width="757.65" height="573.05" fill="#ffffff" fill-opacity="0.0" stroke="#444444" stroke-width="1.0"/><line x1="71.28863636363636" y1="578.55" x2="71.28863636363636" y2="581.3" stroke="#444444" stroke-width="1.0"/><text x="71.28863636363636" y="592.3" fill="#333333" font-size="11.0" font-family="sans-serif" text-anchor="middle">0</text><line x1="186.08409090909092" y1="578.55" x2="186.08409090909092" y2="581.3" stroke="#444444" stroke-width="1.0"/><text x="186.08409090909092" y="592.3" fill="#333333" font-size="11.0" font-family="sans-serif" text-anchor="middle">1</text><line x1="300.87954545454545" y1="578.55" x2="300.87954545454545" y2="581.3" stroke="#444444" stroke-width="1.0"/><text x="300.87954545454545" y="592.3" fill="#333333" font-size="11.0" font-family="sans-serif" text-anchor="middle">2</text><line x1="415.67499999999995" y1="578.55" x2="415.67499999999995" y2="581.3" stroke="#444444" stroke-width="1.0"/><text x="415.67499999999995" y="592.3" fill="#333333" font-size="11.0" font-family="sans-serif" text-anchor="middle">3</text><line x1="530.4704545454545" y1="578.55" x2="530.4704545454545" y2="581.3" stroke="#444444" stroke-width="1.0"/><text x="530.4704545454545" y="592.3" fill="#333333" font-size="11.0" font-family="sans-serif" text-anchor="middle">4</text><line x1="645.2659090909092" y1="578.55" x2="645.2659090909092" y2="581.3" stroke="#444444" stroke-width="1.0"/><text x="645.2659090909092" y="592.3" fill="#333333" font-size="11.0" font-family="sans-serif" text-anchor="middle">5</text><line x1="760.0613636363637" y1="578.55" x2="760.0613636363637" y2="581.3" stroke="#444444" stroke-width="1.0"/><text x="760.0613636363637" y="592.3" fill="#333333" font-size="11.0" font-family="sans-serif" text-anchor="middle">6</text><line x1="36.849999999999994" y1="553.4191811431543" x2="34.099999999999994" y2="553.4191811431543" stroke="#444444" stroke-width="1.0"/><text x="31.899999999999995" y="557.2691811431544" fill="#333333" font-size="11.0" font-family="sans-serif" text-anchor="end">-1.5</text><line x1="36.849999999999994" y1="466.66717477228303" x2="34.099999999999994" y2="466.66717477228303" stroke="#444444" stroke-width="1.0"/><text x="31.899999999999995" y="470.51717477228306" fill="#333333" font-size="11.0" font-family="sans-serif" text-anchor="end">-1</text><line x1="36.849999999999994" y1="379.9151684014117" x2="34.099999999999994" y2="379.9151684014117" stroke="#444444" stroke-width="1.0"/><text x="31.899999999999995" y="383.7651684014117" fill="#333333" font-size="11.0" font-family="sans-serif" text-anchor="end">-0.5</text><line x1="36.849999999999994" y1="293.1631620305404" x2="34.099999999999994" y2="293.1631620305404" stroke="#444444" stroke-width="1.0"/><text x="31.899999999999995" y="297.0131620305404" fill="#333333" font-size="11.0" font-family="sans-serif" text-anchor="end">0</text><line x1="36.849999999999994" y1="206.41115565966908" x2="34.099999999999994" y2="206.41115565966908" stroke="#444444" stroke-width="1.0"/><text x="31.899999999999995" y="210.26115565966907" fill="#333333" font-size="11.0" font-family="sans-serif" text-anchor="end">0.5</text><line x1="36.849999999999994" y1="119.65914928879772" x2="34.099999999999994" y2="119.65914928879772" stroke="#444444" stroke-width="1.0"/><text x="31.899999999999995" y="123.50914928879772" fill="#333333" font-size="11.0" font-family="sans-serif" text-anchor="end">1</text><line x1="36.849999999999994" y1="32.90714291792642" x2="34.099999999999994" y2="32.90714291792642" stroke="#444444" stroke-width="1.0"/><text x="31.899999999999995" y="36.75714291792642" fill="#333333" font-size="11.0" font-family="sans-serif" text-anchor="end">1.5</text><circle cx="71.28863636363636" cy="293.1631620305404" r="3.0" fill="#1f77b4" fill-opacity="0.85" stroke="#1f77b4" stroke-width="1.0"><title>(0, 0)</title></circle><circle cx="186.08409090909092" cy="147.1645695606244" r="3.0" fill="#1f77b4" fill-opacity="0.85" stroke="#1f77b4" stroke-width="1.0"><title>(1, 0.841470984808)</title></circle><circle cx="300.87954545454545" cy="135.39640970054347" r="3.0" fill="#1f77b4" fill-opacity="0.85" stroke="#1f77b4" stroke-width="1.0"><title>(2, 0.909297426826)</title></circle><circle cx="415.67499999999995" cy="268.67827435400636" r="3.0" fill="#1f77b4" fill-opacity="0.85" stroke="#1f77b4" stroke-width="1.0"><title>(3, 0.14112000806)</title></circle><circle cx="530.4704545454545" cy="424.47143181942977" r="3.0" fill="#1f77b4" fill-opacity="0.85" stroke="#1f77b4" stroke-width="1.0"><title>(4, -0.756802495308)</title></circle><circle cx="645.2659090909092" cy="459.54037160005987" r="3.0" fill="#1f77b4" fill-opacity="0.85" stroke="#1f77b4" stroke-width="1.0"><title>(5, -0.958924274663)</title></circle><circle cx="760.0613636363637" cy="341.64287219028716" r="3.0" fill="#1f77b4" fill-opacity="0.85" stroke="#1f77b4" stroke-width="1.0"><title>(6, -0.279415498199)</title></circle><path d="M 71.28863636363636 183.19755250437208 L 82.76818181818182 176.4132870031973 L 94.24772727272727 165.6241040323684 L 105.72727272727273 152.27986683770587 L 117.20681818181819 137.78257857253436 L 128.68636363636364 123.20831526719883 L 140.1659090909091 109.23994135403188 L 151.64545454545453 96.21852342416179 L 163.125 84.24153977048059 L 174.60454545454547 73.2769955144297 L 186.08409090909092 63.277100003815235 L 197.5636363636364 54.27035415911928 L 209.04318181818184 46.40635074909335 L 220.52272727272728 39.93914113734979 L 232.00227272727275 35.16089473726902 L 243.4818181818182 32.31856258952166 L 254.96136363636364 31.547727272727343 L 266.4409090909091 32.84421665218258 L 277.92045454545456 36.077963402402816 L 289.4 41.04117139827986 L 300.87954545454545 47.513554902493865 L 312.3590909090909 55.32134036101468 L 323.8386363636364 64.36789496531765 L 335.31818181818187 74.62544193195583 L 346.79772727272723 86.0948166241152 L 358.2772727272727 98.75322248870975 L 369.7568181818182 112.51202642732534 L 381.23636363636365 127.19995165616422 L 392.7159090909091 142.5771344481438 L 404.1954545454546 158.37544997395304 L 415.67499999999995 174.35106136955233 L 427.15454545454554 190.3286153970147 L 438.6340909090909 206.21772111148783 L 450.1136363636364 221.99374382518027 L 461.59318181818185 237.65125520930013 L 473.0727272727273 253.14986238172872 L 484.5522727272727 268.373323195006 L 496.03181818181815 283.11627908563486 L 507.51136363636374 297.10342247613136 L 518.9909090909091 310.0357718118568 L 530.4704545454545 321.6487334652353 L 541.95 331.75982851841457 L 553.4295454545455 340.2859104758659 L 564.9090909090909 347.22256658771926 L 576.3886363636364 352.59575580515894 L 587.8681818181818 356.40721481080163 L 599.3477272727274 358.59625010366636 L 610.8272727272728 359.03441243291695 L 622.3068181818182 357.56026197441645 L 633.7863636363637 354.04907873911134 L 645.2659090909092 348.496405364134 L 656.7454545454545 341.0808897239738 L 668.225 332.17359639040853 L 679.7045454545456 322.2822009109405 L 691.184090909091 311.9446209594571 L 702.6636363636363 301.5984401966354 L 714.1431818181819 291.44814733756954 L 725.6227272727274 281.34755447781873 L 737.1022727272729 270.7293797154362 L 748.5818181818182 258.65498049212 L 760.0613636363637 244.07730995166776 L 760.0613636363637 447.3811791938823 L 748.5818181818182 453.845058022942 L 737.1022727272729 463.7934408503814 L 725.6227272727274 475.7753733886053 L 714.1431818181819 488.39933892487124 L 702.6636363636363 500.610617371845 L 691.184090909091 511.7574686147185 L 679.7045454545456 521.5383149667011 L 668.225 529.9019292767867 L 656.7454545454545 536.9316274217181 L 645.2659090909092 542.7299124890334 L 633.7863636363637 547.3248145214365 L 622.3068181818182 550.6236957611397 L 610.8272727272728 552.4287181338218 L 599.3477272727274 552.5022727272727 L 587.8681818181818 550.6496621994379 L 576.3886363636364 546.784835275354 L 564.9090909090909 540.9585604628593 L 553.4295454545455 533.3445102351058 L 541.95 524.1911420664744 L 530.4704545454545 513.7565578298093 L 518.9909090909091 502.24960420410036 L 507.51136363636374 489.7993115096814 L 496.03181818181815 476.46318453754293 L 484.5522727272727 462.26737811721824 L 473.0727272727273 447.25879863841027 L 461.59318181818185 431.5471040384674 L 450.1136363636364 415.3212657568572 L 438.6340909090909 398.83525389266686 L 427.15454545454554 382.3674702288089 L 415.67499999999995 366.16800324241103 L 404.1954545454546 350.41430480574746 L 392.7159090909091 335.19466722932265 L 381.23636363636365 320.5274735878413 L 369.7568181818182 306.4078752564926 L 358.2772727272727 292.86215874539124 L 346.79772727272723 279.9888715463276 L 335.31818181818187 267.9723473838639 L 323.8386363636364 257.0637839988676 L 312.3590909090909 247.53517275325788 L 300.87954545454545 239.62137926706765 L 289.4 233.47248494633953 L 277.92045454545456 229.1365631616427 L 266.4409090909091 226.58021052732283 L 254.96136363636364 225.73680674292217 L 243.4818181818182 226.56100997815815 L 232.00227272727275 229.06691736087538 L 220.52272727272728 233.33344683825487 L 209.04318181818184 239.46978453581693 L 197.5636363636364 247.5460899414441 L 186.08409090909092 257.5106071287148 L 174.60454545454547 269.1277332121743 L 163.125 281.9698726568589 L 151.64545454545453 295.4746374799225 L 140.1659090909091 309.0527890092937 L 128.68636363636364 322.2204924424086 L 117.20681818181819 334.7337701598367 L 105.72727272727273 346.70768574849296 L 94.24772727272727 358.6881651673139 L 82.76818181818182 371.60336453401936 L 71.28863636363636 386.5014217465867 Z" fill="#d62728" fill-opacity="0.15" stroke="none"/><line x1="71.28863636363636" y1="284.8494871254794" x2="82.76818181818182" y2="274.00832576860836" stroke="#d62728" stroke-width="2.0"/><line x1="82.76818181818182" y1="274.00832576860836" x2="94.24772727272727" y2="262.15613459984115" stroke="#d62728" stroke-width="2.0"/><line x1="94.24772727272727" y1="262.15613459984115" x2="105.72727272727273" y2="249.49377629309947" stroke="#d62728" stroke-width="2.0"/><line x1="105.72727272727273" y1="249.49377629309947" x2="117.20681818181819" y2="236.25817436618553" stroke="#d62728" stroke-width="2.0"/><line x1="117.20681818181819" y1="236.25817436618553" x2="128.68636363636364" y2="222.71440385480366" stroke="#d62728" stroke-width="2.0"/><line x1="128.68636363636364" y1="222.71440385480366" x2="140.1659090909091" y2="209.14636518166282" stroke="#d62728" stroke-width="2.0"/><line x1="140.1659090909091" y1="209.14636518166282" x2="151.64545454545453" y2="195.84658045204213" stroke="#d62728" stroke-width="2.0"/><line x1="151.64545454545453" y1="195.84658045204213" x2="163.125" y2="183.10570621366975" stroke="#d62728" stroke-width="2.0"/><line x1="163.125" y1="183.10570621366975" x2="174.60454545454547" y2="171.20236436330197" stroke="#d62728" stroke-width="2.0"/><line x1="174.60454545454547" y1="171.20236436330197" x2="186.08409090909092" y2="160.39385356626502" stroke="#d62728" stroke-width="2.0"/><line x1="186.08409090909092" y1="160.39385356626502" x2="197.5636363636364" y2="150.90822205028167" stroke="#d62728" stroke-width="2.0"/><line x1="197.5636363636364" y1="150.90822205028167" x2="209.04318181818184" y2="142.9380676424551" stroke="#d62728" stroke-width="2.0"/><line x1="209.04318181818184" y1="142.9380676424551" x2="220.52272727272728" y2="136.63629398780228" stroke="#d62728" stroke-width="2.0"/><line x1="220.52272727272728" y1="136.63629398780228" x2="232.00227272727275" y2="132.11390604907223" stroke="#d62728" stroke-width="2.0"/><line x1="232.00227272727275" y1="132.11390604907223" x2="243.4818181818182" y2="129.43978628383996" stroke="#d62728" stroke-width="2.0"/><line x1="243.4818181818182" y1="129.43978628383996" x2="254.96136363636364" y2="128.64226700782473" stroke="#d62728" stroke-width="2.0"/><line x1="254.96136363636364" y1="128.64226700782473" x2="266.4409090909091" y2="129.7122135897527" stroke="#d62728" stroke-width="2.0"/><line x1="266.4409090909091" y1="129.7122135897527" x2="277.92045454545456" y2="132.6072632820228" stroke="#d62728" stroke-width="2.0"/><line x1="277.92045454545456" y1="132.6072632820228" x2="289.4" y2="137.25682817230972" stroke="#d62728" stroke-width="2.0"/><line x1="289.4" y1="137.25682817230972" x2="300.87954545454545" y2="143.5674670847808" stroke="#d62728" stroke-width="2.0"/><line x1="300.87954545454545" y1="143.5674670847808" x2="312.3590909090909" y2="151.42825655713625" stroke="#d62728" stroke-width="2.0"/><line x1="312.3590909090909" y1="151.42825655713625" x2="323.8386363636364" y2="160.71583948209258" stroke="#d62728" stroke-width="2.0"/><line x1="323.8386363636364" y1="160.71583948209258" x2="335.31818181818187" y2="171.2988946579099" stroke="#d62728" stroke-width="2.0"/><line x1="335.31818181818187" y1="171.2988946579099" x2="346.79772727272723" y2="183.04184408522138" stroke="#d62728" stroke-width="2.0"/><line x1="346.79772727272723" y1="183.04184408522138" x2="358.2772727272727" y2="195.80769061705047" stroke="#d62728" stroke-width="2.0"/><line x1="358.2772727272727" y1="195.80769061705047" x2="369.7568181818182" y2="209.45995084190895" stroke="#d62728" stroke-width="2.0"/><line x1="369.7568181818182" y1="209.45995084190895" x2="381.23636363636365" y2="223.86371262200277" stroke="#d62728" stroke-width="2.0"/><line x1="381.23636363636365" y1="223.86371262200277" x2="392.7159090909091" y2="238.88590083873328" stroke="#d62728" stroke-width="2.0"/><line x1="392.7159090909091" y1="238.88590083873328" x2="404.1954545454546" y2="254.3948773898502" stroke="#d62728" stroke-width="2.0"/><line x1="404.1954545454546" y1="254.3948773898502" x2="415.67499999999995" y2="270.2595323059817" stroke="#d62728" stroke-width="2.0"/><line x1="415.67499999999995" y1="270.2595323059817" x2="427.15454545454554" y2="286.3480428129118" stroke="#d62728" stroke-width="2.0"/><line x1="427.15454545454554" y1="286.3480428129118" x2="438.6340909090909" y2="302.5264875020773" stroke="#d62728" stroke-width="2.0"/><line x1="438.6340909090909" y1="302.5264875020773" x2="450.1136363636364" y2="318.6575047910187" stroke="#d62728" stroke-width="2.0"/><line x1="450.1136363636364" y1="318.6575047910187" x2="461.59318181818185" y2="334.59917962388374" stroke="#d62728" stroke-width="2.0"/><line x1="461.59318181818185" y1="334.59917962388374" x2="473.0727272727273" y2="350.20433051006955" stroke="#d62728" stroke-width="2.0"/><line x1="473.0727272727273" y1="350.20433051006955" x2="484.5522727272727" y2="365.3203506561121" stroke="#d62728" stroke-width="2.0"/><line x1="484.5522727272727" y1="365.3203506561121" x2="496.03181818181815" y2="379.7897318115889" stroke="#d62728" stroke-width="2.0"/><line x1="496.03181818181815" y1="379.7897318115889" x2="507.51136363636374" y2="393.4513669929064" stroke="#d62728" stroke-width="2.0"/><line x1="507.51136363636374" y1="393.4513669929064" x2="518.9909090909091" y2="406.1426880079786" stroke="#d62728" stroke-width="2.0"/><line x1="518.9909090909091" y1="406.1426880079786" x2="530.4704545454545" y2="417.7026456475223" stroke="#d62728" stroke-width="2.0"/><line x1="530.4704545454545" y1="417.7026456475223" x2="541.95" y2="427.9754852924445" stroke="#d62728" stroke-width="2.0"/><line x1="541.95" y1="427.9754852924445" x2="553.4295454545455" y2="436.8152103554858" stroke="#d62728" stroke-width="2.0"/><line x1="553.4295454545455" y1="436.8152103554858" x2="564.9090909090909" y2="444.09056352528927" stroke="#d62728" stroke-width="2.0"/><line x1="564.9090909090909" y1="444.09056352528927" x2="576.3886363636364" y2="449.69029554025644" stroke="#d62728" stroke-width="2.0"/><line x1="576.3886363636364" y1="449.69029554025644" x2="587.8681818181818" y2="453.52843850511977" stroke="#d62728" stroke-width="2.0"/><line x1="587.8681818181818" y1="453.52843850511977" x2="599.3477272727274" y2="455.5492614154695" stroke="#d62728" stroke-width="2.0"/><line x1="599.3477272727274" y1="455.5492614154695" x2="610.8272727272728" y2="455.7315652833694" stroke="#d62728" stroke-width="2.0"/><line x1="610.8272727272728" y1="455.7315652833694" x2="622.3068181818182" y2="454.0919788677781" stroke="#d62728" stroke-width="2.0"/><line x1="622.3068181818182" y1="454.0919788677781" x2="633.7863636363637" y2="450.6869466302739" stroke="#d62728" stroke-width="2.0"/><line x1="633.7863636363637" y1="450.6869466302739" x2="645.2659090909092" y2="445.61315892658365" stroke="#d62728" stroke-width="2.0"/><line x1="645.2659090909092" y1="445.61315892658365" x2="656.7454545454545" y2="439.0062585728459" stroke="#d62728" stroke-width="2.0"/><line x1="656.7454545454545" y1="439.0062585728459" x2="668.225" y2="431.0377628335976" stroke="#d62728" stroke-width="2.0"/><line x1="668.225" y1="431.0377628335976" x2="679.7045454545456" y2="421.9102579388208" stroke="#d62728" stroke-width="2.0"/><line x1="679.7045454545456" y1="421.9102579388208" x2="691.184090909091" y2="411.85104478708786" stroke="#d62728" stroke-width="2.0"/><line x1="691.184090909091" y1="411.85104478708786" x2="702.6636363636363" y2="401.1045287842402" stroke="#d62728" stroke-width="2.0"/><line x1="702.6636363636363" y1="401.1045287842402" x2="714.1431818181819" y2="389.92374313122036" stroke="#d62728" stroke-width="2.0"/><line x1="714.1431818181819" y1="389.92374313122036" x2="725.6227272727274" y2="378.56146393321205" stroke="#d62728" stroke-width="2.0"/><line x1="725.6227272727274" y1="378.56146393321205" x2="737.1022727272729" y2="367.2614102829088" stroke="#d62728" stroke-width="2.0"/><line x1="737.1022727272729" y1="367.2614102829088" x2="748.5818181818182" y2="356.250019257531" stroke="#d62728" stroke-width="2.0"/><line x1="748.5818181818182" y1="356.250019257531" x2="760.0613636363637" y2="345.7292445727751" stroke="#d62728" stroke-width="2.0"/></svg>