<svg xmlns="http://www.w3.org/2000/svg" width="624" height="384" viewBox="0 0 624 384"><rect x="0.0" y="0.0" width="624.0" height="384.0" fill="#ffffff" fill-opacity="1.0" stroke="none"/><line x1="111.73858585858586" y1="7.333333333333333" x2="111.73858585858586" y2="358.3333333333333" stroke="#dddddd" stroke-width="0.6666666666666666"/><line x1="198.79515151515153" y1="7.333333333333333" x2="198.79515151515153" y2="358.3333333333333" stroke="#dddddd" stroke-width="0.6666666666666666"/><line x1="285.85171717171715" y1="7.333333333333333" x2="285.85171717171715" y2="358.3333333333333" stroke="#dddddd" stroke-width="0.6666666666666666"/><line x1="372.90828282828284" y1="7.333333333333333" x2="372.90828282828284" y2="358.3333333333333" stroke="#dddddd" stroke-width="0.6666666666666666"/><line x1="459.9648484848485" y1="7.333333333333333" x2="459.9648484848485" y2="358.3333333333333" stroke="#dddddd" stroke-width="0.6666666666666666"/><line x1="547.0214141414141" y1="7.333333333333333" x2="547.0214141414141" y2="358.3333333333333" stroke="#dddddd" stroke-width="0.6666666666666666"/><line x1="68.21030303030304" y1="7.333333333333333" x2="68.21030303030304" y2="358.3333333333333" stroke="#dddddd" stroke-width="1.3333333333333333"/><line x1="155.2668686868687" y1="7.333333333333333" x2="155.2668686868687" y2="358.3333333333333" stroke="#dddddd" stroke-width="1.3333333333333333"/><line x1="242.32343434343431" y1="7.333333333333333" x2="242.32343434343431" y2="358.3333333333333" stroke="#dddddd" stroke-width="1.3333333333333333"/><line x1="329.38" y1="7.333333333333333" x2="329.38" y2="358.3333333333333" stroke="#dddddd" stroke-width="1.3333333333333333"/><line x1="416.4365656565656" y1="7.333333333333333" x2="416.4365656565656" y2="358.3333333333333" stroke="#dddddd" stroke-width="1.3333333333333333"/><line x1="503.4931313131313" y1="7.333333333333333" x2="503.4931313131313" y2="358.3333333333333" stroke="#dddddd" stroke-width="1.3333333333333333"/><line x1="590.5496969696969" y1="7.333333333333333" x2="590.5496969696969" y2="358.3333333333333" stroke="#dddddd" stroke-width="1.3333333333333333"/><line x1="42.093333333333334" y1="316.3720829418479" x2="616.6666666666666" y2="316.3720829418479" stroke="#dddddd" stroke-width="0.6666666666666666"/><line x1="42.093333333333334" y1="263.23543825783105" x2="616.6666666666666" y2="263.23543825783105" stroke="#dddddd" stroke-width="0.6666666666666666"/><line x1="42.093333333333334" y1="210.09879357381425" x2="616.6666666666666" y2="210.09879357381425" stroke="#dddddd" stroke-width="0.6666666666666666"/><line x1="42.093333333333334" y1="156.96214888979742" x2="616.6666666666666" y2="156.96214888979742" stroke="#dddddd" stroke-width="0.6666666666666666"/><line x1="42.093333333333334" y1="103.82550420578062" x2="616.6666666666666" y2="103.82550420578062" stroke="#dddddd" stroke-width="0.6666666666666666"/><line x1="42.093333333333334" y1="50.68885952176386" x2="616.6666666666666" y2="50.68885952176386" stroke="#dddddd" stroke-width="0.6666666666666666"/><line x1="42.093333333333334" y1="342.9404052838563" x2="616.6666666666666" y2="342.9404052838563" stroke="#dddddd" stroke-width="1.3333333333333333"/><line x1="42.093333333333334" y1="289.80376059983945" x2="616.6666666666666" y2="289.80376059983945" stroke="#dddddd" stroke-width="1.3333333333333333"/><line x1="42.093333333333334" y1="236.66711591582265" x2="616.6666666666666" y2="236.66711591582265" stroke="#dddddd" stroke-width="1.3333333333333333"/><line x1="42.093333333333334" y1="183.53047123180585" x2="616.6666666666666" y2="183.53047123180585" stroke="#dddddd" stroke-width="1.3333333333333333"/><line x1="42.093333333333334" y1="130.39382654778905" x2="616.6666666666666" y2="130.39382654778905" stroke="#dddddd" stroke-width="1.3333333333333333"/><line x1="42.093333333333334" y1="77.25718186377222" x2="616.6666666666666" y2="77.25718186377222" stroke="#dddddd" stroke-width="1.3333333333333333"/><line x1="42.093333333333334" y1="24.120537179755424" x2="616.6666666666666" y2="24.120537179755424" stroke="#dddddd" stroke-width="1.3333333333333333"/><rect x="42.093333333333334" y="7.333333333333333" width="574.5733333333333" height="351.0" fill="#ffffff" fill-opacity="0.0" stroke="#444444" stroke-width="1.3333333333333333"/><line x1="68.21030303030304" y1="358.3333333333333" x2="68.21030303030304" y2="362.0" stroke="#444444" stroke-width="1.3333333333333333"/><text x="68.21030303030304" y="374.32" fill="#333333" font-size="11.733333333333334" font-family="sans-serif" text-anchor="middle">0</text><line x1="155.2668686868687" y1="358.3333333333333" x2="155.2668686868687" y2="362.0" stroke="#444444" stroke-width="1.3333333333333333"/><text x="155.2668686868687" y="374.32" fill="#333333" font-size="11.733333333333334" font-family="sans-serif" text-anchor="middle">1</text><line x1="242.32343434343431" y1="358.3333333333333" x2="242.32343434343431" y2="362.0" stroke="#444444" stroke-width="1.3333333333333333"/><text x="242.32343434343431" y="374.32" fill="#333333" font-size="11.733333333333334" font-family="sans-serif" text-anchor="middle">2</text><line x1="329.38" y1="358.3333333333333" x2="329.38" y2="362.0" stroke="#444444" stroke-width="1.3333333333333333"/><text x="329.38" y="374.32" fill="#333333" font-size="11.733333333333334" font-family="sans-serif" text-anchor="middle">3</text><line x1="416.4365656565656" y1="358.3333333333333" x2="416.4365656565656" y2="362.0" stroke="#444444" stroke-width="1.3333333333333333"/><text x="416.4365656565656" y="374.32" fill="#333333" font-size="11.733333333333334" font-family="sans-serif" text-anchor="middle">4</text><line x1="503.4931313131313" y1="358.3333333333333" x2="503.4931313131313" y2="362.0" stroke="#444444" stroke-width="1.3333333333333333"/><text x="503.4931313131313" y="374.32" fill="#333333" font-size="11.733333333333334" font-family="sans-serif" text-anchor="middle">5</text><line x1="590.5496969696969" y1="358.3333333333333" x2="590.5496969696969" y2="362.0" stroke="#444444" stroke-width="1.3333333333333333"/><text x="590.5496969696969" y="374.32" fill="#333333" font-size="11.733333333333334" font-family="sans-serif" text-anchor="middle">6</text><line x1="42.093333333333334" y1="342.9404052838563" x2="38.42666666666666" y2="342.9404052838563" stroke="#444444" stroke-width="1.3333333333333333"/><text x="35.49333333333333" y="347.04707195052293" fill="#333333" font-size="11.733333333333334" font-family="sans-serif" text-anchor="end">-1.5</text><line x1="42.093333333333334" y1="289.80376059983945" x2="38.42666666666666" y2="289.80376059983945" stroke="#444444" stroke-width="1.3333333333333333"/><text x="35.49333333333333" y="293.91042726650613" fill="#333333" font-size="11.733333333333334" font-family="sans-serif" text-anchor="end">-1.0</text><line x1="42.093333333333334" y1="236.66711591582265" x2="38.42666666666666" y2="236.66711591582265" stroke="#444444" stroke-width="1.3333333333333333"/><text x="35.49333333333333" y="240.77378258248933" fill="#333333" font-size="11.733333333333334" font-family="sans-serif" text-anchor="end">-0.5</text><line x1="42.093333333333334" y1="183.53047123180585" x2="38.42666666666666" y2="183.53047123180585" stroke="#444444" stroke-width="1.3333333333333333"/><text x="35.49333333333333" y="187.63713789847253" fill="#333333" font-size="11.733333333333334" font-family="sans-serif" text-anchor="end">0.0</text><line x1="42.093333333333334" y1="130.39382654778905" x2="38.42666666666666" y2="130.39382654778905" stroke="#444444" stroke-width="1.3333333333333333"/><text x="35.49333333333333" y="134.50049321445573" fill="#333333" font-size="11.733333333333334" font-family="sans-serif" text-anchor="end">0.5</text><line x1="42.093333333333334" y1="77.25718186377222" x2="38.42666666666666" y2="77.25718186377222" stroke="#444444" stroke-width="1.3333333333333333"/><text x="35.49333333333333" y="81.36384853043889" fill="#333333" font-size="11.733333333333334" font-family="sans-serif" text-anchor="end">1.0</text><line x1="42.093333333333334" y1="24.120537179755424" x2="38.42666666666666" y2="24.120537179755424" stroke="#444444" stroke-width="1.3333333333333333"/><text x="35.49333333333333" y="28.22720384642209" fill="#333333" font-size="11.733333333333334" font-family="sans-serif" text-anchor="end">1.5</text><circle cx="68.21030303030304" cy="183.53047123180585" r="3.1181102362204727" fill="#1f77b4" fill-opacity="0.85" stroke="none"><title>(0, 0)</title></circle><circle cx="155.2668686868687" cy="94.10458176851205" r="3.1181102362204727" fill="#1f77b4" fill-opacity="0.85" stroke="none"><title>(1, 0.841470984808)</title></circle><circle cx="242.32343434343431" cy="86.8964426691518" r="3.1181102362204727" fill="#1f77b4" fill-opacity="0.85" stroke="none"><title>(2, 0.909297426826)</title></circle><circle cx="329.38" cy="168.53318377964035" r="3.1181102362204727" fill="#1f77b4" fill-opacity="0.85" stroke="none"><title>(3, 0.14112000806)</title></circle><circle cx="416.4365656565656" cy="263.9583618101152" r="3.1181102362204727" fill="#1f77b4" fill-opacity="0.85" stroke="none"><title>(4, -0.756802495308)</title></circle><circle cx="503.4931313131313" cy="285.4385081551133" r="3.1181102362204727" fill="#1f77b4" fill-opacity="0.85" stroke="none"><title>(5, -0.958924274663)</title></circle><circle cx="590.5496969696969" cy="213.22487532581357" r="3.1181102362204727" fill="#1f77b4" fill-opacity="0.85" stroke="none"><title>(6, -0.279415498199)</title></circle><path d="M 68.21030303030304 240.70127510639318 L 76.91595959595959 231.57603632860565 L 85.62161616161616 223.66532177016643 L 94.32727272727273 216.32713439383593 L 103.0329292929293 208.99296744222903 L 111.73858585858586 201.32843471590974 L 120.44424242424243 193.26305838745094 L 129.149898989899 184.94627767580394 L 137.85555555555555 176.674447202206 L 146.56121212121212 168.80848272251956 L 155.2668686868687 161.69285362332357 L 163.97252525252526 155.58946729973573 L 172.67818181818183 150.64263334567386 L 181.3838383838384 146.88405288699784 L 190.08949494949496 144.2707523956617 L 198.79515151515153 142.73585405985548 L 207.50080808080807 142.23101969013584 L 216.20646464646464 142.74761462657182 L 224.9121212121212 144.31341128418683 L 233.61777777777777 146.9692153962688 L 242.32343434343431 150.73548693727844 L 251.02909090909094 155.58278039099588 L 259.73474747474745 161.41916909566217 L 268.4404040404041 168.10079504127546 L 277.1460606060606 175.46106025552334 L 285.85171717171715 183.346103108453 L 294.5573737373737 191.64301698228007 L 303.2630303030303 200.29144035598807 L 311.96868686868686 209.27527242676717 L 320.6743434343434 218.59748303548386 L 329.38 228.246812328336 L 338.08565656565656 238.16918020587835 L 346.7913131313131 248.255895267416 L 355.49696969696976 258.3537753203447 L 364.20262626262627 268.29229593258657 L 372.90828282828284 277.9158973715185 L 381.6139393939394 287.108832363337 L 390.319595959596 295.8039341058271 L 399.02525252525254 303.97247187255016 L 407.7309090909091 311.5984255166319 L 416.4365656565656 318.64657266369375 L 425.14222222222224 325.03788069452787 L 433.8478787878788 330.6444285126757 L 442.55353535353527 335.3081256245184 L 451.2591919191919 338.87678884620175 L 459.9648484848485 341.24404170433536 L 468.6705050505051 342.3787878787879 L 477.37616161616154 342.33373480784945 L 486.0818181818182 341.22813694935303 L 494.7874747474748 339.20753261267055 L 503.4931313131313 336.3930999918286 L 512.1987878787879 332.84158082486647 L 520.9044444444444 328.5358063743457 L 529.6101010101011 323.4129922693984 L 538.3157575757576 317.42210653596175 L 547.0214141414141 310.5945264186097 L 555.7270707070707 303.11497186859174 L 564.4327272727273 295.3826415252895 L 573.1383838383839 288.0435640958913 L 581.8440404040405 281.9500602612675 L 590.5496969696969 277.99085692997005 L 590.5496969696969 153.46479794032294 L 581.8440404040405 162.39379603769441 L 573.1383838383839 169.78951042105362 L 564.4327272727273 176.29326985146332 L 555.7270707070707 182.48000415697334 L 547.0214141414141 188.6971803083251 L 538.3157575757576 195.03434015083522 L 529.6101010101011 201.36623189321486 L 520.9044444444444 207.42483029351723 L 512.1987878787879 212.88065432297617 L 503.4931313131313 217.42274661805723 L 494.7874747474748 220.82382567680784 L 486.0818181818182 222.97446753282753 L 477.37616161616154 223.8774023743487 L 468.6705050505051 223.60902269095814 L 459.9648484848485 222.26821231176692 L 451.2591919191919 219.9336479439446 L 442.55353535353527 216.64250508499458 L 433.8478787878788 212.3937199959787 L 425.14222222222224 207.1713925078618 L 416.4365656565656 200.9782254828798 L 407.7309090909091 193.86514714706993 L 399.02525252525254 185.94392802685417 L 390.319595959596 177.37663489350757 L 381.6139393939394 168.34639753619015 L 372.90828282828284 159.02184514903314 L 364.20262626262627 149.5287623159079 L 355.49696969696976 139.93834874671487 L 346.7913131313131 130.27534556635354 L 338.08565656565656 120.54307769133379 L 329.38 110.7566341634753 L 320.6743434343434 100.97138052093915 L 311.96868686868686 91.29472272570482 L 303.2630303030303 81.87601378235811 L 294.5573737373737 72.87948336560137 L 285.85171717171715 64.45205088596768 L 277.1460606060606 56.69862542837639 L 268.4404040404041 49.67349582895588 L 259.73474747474745 43.39062524996628 L 251.02909090909094 37.84950202143409 L 242.32343434343431 33.06713975646452 L 233.61777777777777 29.102727209602826 L 224.9121212121212 26.062702767489856 L 216.20646464646464 24.08199408704786 L 207.50080808080807 23.287878787878828 L 198.79515151515153 23.760024667286945 L 190.08949494949496 25.50098720783194 L 181.3838383838384 28.427720453496967 L 172.67818181818183 32.388963929148304 L 163.97252525252526 37.20576036387323 L 155.2668686868687 42.722500249552084 L 146.56121212121212 48.847556220629066 L 137.85555555555555 55.56347112137746 L 129.149898989899 62.899517299620356 L 120.44424242424243 70.87529200232416 L 111.73858585858586 79.43108860562506 L 103.0329292929293 88.3579997306103 L 94.32727272727273 97.23776272000948 L 85.62161616161616 105.41126809532848 L 76.91595959595959 112.01977210503256 L 68.21030303030304 116.17521611674597 Z" fill="#1f77b4" fill-opacity="0.2" stroke="none"/><line x1="68.21030303030304" y1="178.43824561156956" x2="76.91595959595959" y2="171.79790421681915" stroke="#1f77b4" stroke-width="1.4211023622047245"/><line x1="76.91595959595959" y1="171.79790421681915" x2="85.62161616161616" y2="164.53829493274742" stroke="#1f77b4" stroke-width="1.4211023622047245"/><line x1="85.62161616161616" y1="164.53829493274742" x2="94.32727272727273" y2="156.78244855692276" stroke="#1f77b4" stroke-width="1.4211023622047245"/><line x1="94.32727272727273" y1="156.78244855692276" x2="103.0329292929293" y2="148.67548358641966" stroke="#1f77b4" stroke-width="1.4211023622047245"/><line x1="103.0329292929293" y1="148.67548358641966" x2="111.73858585858586" y2="140.3797616607674" stroke="#1f77b4" stroke-width="1.4211023622047245"/><line x1="111.73858585858586" y1="140.3797616607674" x2="120.44424242424243" y2="132.06917519488755" stroke="#1f77b4" stroke-width="1.4211023622047245"/><line x1="120.44424242424243" y1="132.06917519488755" x2="129.149898989899" y2="123.92289748771216" stroke="#1f77b4" stroke-width="1.4211023622047245"/><line x1="129.149898989899" y1="123.92289748771216" x2="137.85555555555555" y2="116.11895916179174" stroke="#1f77b4" stroke-width="1.4211023622047245"/><line x1="137.85555555555555" y1="116.11895916179174" x2="146.56121212121212" y2="108.82801947157432" stroke="#1f77b4" stroke-width="1.4211023622047245"/><line x1="146.56121212121212" y1="108.82801947157432" x2="155.2668686868687" y2="102.20767693643782" stroke="#1f77b4" stroke-width="1.4211023622047245"/><line x1="155.2668686868687" y1="102.20767693643782" x2="163.97252525252526" y2="96.39761383180446" stroke="#1f77b4" stroke-width="1.4211023622047245"/><line x1="163.97252525252526" y1="96.39761383180446" x2="172.67818181818183" y2="91.51579863741104" stroke="#1f77b4" stroke-width="1.4211023622047245"/><line x1="172.67818181818183" y1="91.51579863741104" x2="181.3838383838384" y2="87.65588667024738" stroke="#1f77b4" stroke-width="1.4211023622047245"/><line x1="181.3838383838384" y1="87.65588667024738" x2="190.08949494949496" y2="84.88586980174682" stroke="#1f77b4" stroke-width="1.4211023622047245"/><line x1="190.08949494949496" y1="84.88586980174682" x2="198.79515151515153" y2="83.24793936357123" stroke="#1f77b4" stroke-width="1.4211023622047245"/><line x1="198.79515151515153" y1="83.24793936357123" x2="207.50080808080807" y2="82.75944923900734" stroke="#1f77b4" stroke-width="1.4211023622047245"/><line x1="207.50080808080807" y1="82.75944923900734" x2="216.20646464646464" y2="83.41480435680981" stroke="#1f77b4" stroke-width="1.4211023622047245"/><line x1="216.20646464646464" y1="83.41480435680981" x2="224.9121212121212" y2="85.18805702583836" stroke="#1f77b4" stroke-width="1.4211023622047245"/><line x1="224.9121212121212" y1="85.18805702583836" x2="233.61777777777777" y2="88.03597130293583" stroke="#1f77b4" stroke-width="1.4211023622047245"/><line x1="233.61777777777777" y1="88.03597130293583" x2="242.32343434343431" y2="91.90131334687149" stroke="#1f77b4" stroke-width="1.4211023622047245"/><line x1="242.32343434343431" y1="91.90131334687149" x2="251.02909090909094" y2="96.71614120621499" stroke="#1f77b4" stroke-width="1.4211023622047245"/><line x1="251.02909090909094" y1="96.71614120621499" x2="259.73474747474745" y2="102.40489717281419" stroke="#1f77b4" stroke-width="1.4211023622047245"/><line x1="259.73474747474745" y1="102.40489717281419" x2="268.4404040404041" y2="108.88714543511567" stroke="#1f77b4" stroke-width="1.4211023622047245"/><line x1="268.4404040404041" y1="108.88714543511567" x2="277.1460606060606" y2="116.07984284194988" stroke="#1f77b4" stroke-width="1.4211023622047245"/><line x1="277.1460606060606" y1="116.07984284194988" x2="285.85171717171715" y2="123.8990769972103" stroke="#1f77b4" stroke-width="1.4211023622047245"/><line x1="285.85171717171715" y1="123.8990769972103" x2="294.5573737373737" y2="132.26125017394068" stroke="#1f77b4" stroke-width="1.4211023622047245"/><line x1="294.5573737373737" y1="132.26125017394068" x2="303.2630303030303" y2="141.08372706917308" stroke="#1f77b4" stroke-width="1.4211023622047245"/><line x1="303.2630303030303" y1="141.08372706917308" x2="311.96868686868686" y2="150.28499757623598" stroke="#1f77b4" stroke-width="1.4211023622047245"/><line x1="311.96868686868686" y1="150.28499757623598" x2="320.6743434343434" y2="159.78443177821148" stroke="#1f77b4" stroke-width="1.4211023622047245"/><line x1="320.6743434343434" y1="159.78443177821148" x2="329.38" y2="169.50172324590565" stroke="#1f77b4" stroke-width="1.4211023622047245"/><line x1="329.38" y1="169.50172324590565" x2="338.08565656565656" y2="179.35612894860606" stroke="#1f77b4" stroke-width="1.4211023622047245"/><line x1="338.08565656565656" y1="179.35612894860606" x2="346.7913131313131" y2="189.26562041688476" stroke="#1f77b4" stroke-width="1.4211023622047245"/><line x1="346.7913131313131" y1="189.26562041688476" x2="355.49696969696976" y2="199.1460620335298" stroke="#1f77b4" stroke-width="1.4211023622047245"/><line x1="355.49696969696976" y1="199.1460620335298" x2="364.20262626262627" y2="208.91052912424723" stroke="#1f77b4" stroke-width="1.4211023622047245"/><line x1="364.20262626262627" y1="208.91052912424723" x2="372.90828282828284" y2="218.46887126027585" stroke="#1f77b4" stroke-width="1.4211023622047245"/><line x1="372.90828282828284" y1="218.46887126027585" x2="381.6139393939394" y2="227.72761494976356" stroke="#1f77b4" stroke-width="1.4211023622047245"/><line x1="381.6139393939394" y1="227.72761494976356" x2="390.319595959596" y2="236.59028449966732" stroke="#1f77b4" stroke-width="1.4211023622047245"/><line x1="390.319595959596" y1="236.59028449966732" x2="399.02525252525254" y2="244.95819994970216" stroke="#1f77b4" stroke-width="1.4211023622047245"/><line x1="399.02525252525254" y1="244.95819994970216" x2="407.7309090909091" y2="252.7317863318509" stroke="#1f77b4" stroke-width="1.4211023622047245"/><line x1="407.7309090909091" y1="252.7317863318509" x2="416.4365656565656" y2="259.81239907328677" stroke="#1f77b4" stroke-width="1.4211023622047245"/><line x1="416.4365656565656" y1="259.81239907328677" x2="425.14222222222224" y2="266.1046366011948" stroke="#1f77b4" stroke-width="1.4211023622047245"/><line x1="425.14222222222224" y1="266.1046366011948" x2="433.8478787878788" y2="271.51907425432717" stroke="#1f77b4" stroke-width="1.4211023622047245"/><line x1="433.8478787878788" y1="271.51907425432717" x2="442.55353535353527" y2="275.9753153547565" stroke="#1f77b4" stroke-width="1.4211023622047245"/><line x1="442.55353535353527" y1="275.9753153547565" x2="451.2591919191919" y2="279.4052183950732" stroke="#1f77b4" stroke-width="1.4211023622047245"/><line x1="451.2591919191919" y1="279.4052183950732" x2="459.9648484848485" y2="281.7561270080512" stroke="#1f77b4" stroke-width="1.4211023622047245"/><line x1="459.9648484848485" y1="281.7561270080512" x2="468.6705050505051" y2="282.993905284873" stroke="#1f77b4" stroke-width="1.4211023622047245"/><line x1="468.6705050505051" y1="282.993905284873" x2="477.37616161616154" y2="283.1055685910991" stroke="#1f77b4" stroke-width="1.4211023622047245"/><line x1="477.37616161616154" y1="283.1055685910991" x2="486.0818181818182" y2="282.10130224109025" stroke="#1f77b4" stroke-width="1.4211023622047245"/><line x1="486.0818181818182" y1="282.10130224109025" x2="494.7874747474748" y2="280.0156791447392" stroke="#1f77b4" stroke-width="1.4211023622047245"/><line x1="494.7874747474748" y1="280.0156791447392" x2="503.4931313131313" y2="276.9079233049429" stroke="#1f77b4" stroke-width="1.4211023622047245"/><line x1="503.4931313131313" y1="276.9079233049429" x2="512.1987878787879" y2="272.8611175739213" stroke="#1f77b4" stroke-width="1.4211023622047245"/><line x1="512.1987878787879" y1="272.8611175739213" x2="520.9044444444444" y2="267.98031833393145" stroke="#1f77b4" stroke-width="1.4211023622047245"/><line x1="520.9044444444444" y1="267.98031833393145" x2="529.6101010101011" y2="262.3896120813066" stroke="#1f77b4" stroke-width="1.4211023622047245"/><line x1="529.6101010101011" y1="262.3896120813066" x2="538.3157575757576" y2="256.22822334339844" stroke="#1f77b4" stroke-width="1.4211023622047245"/><line x1="538.3157575757576" y1="256.22822334339844" x2="547.0214141414141" y2="249.64585336346738" stroke="#1f77b4" stroke-width="1.4211023622047245"/><line x1="547.0214141414141" y1="249.64585336346738" x2="555.7270707070707" y2="242.79748801278254" stroke="#1f77b4" stroke-width="1.4211023622047245"/><line x1="555.7270707070707" y1="242.79748801278254" x2="564.4327272727273" y2="235.8379556883764" stroke="#1f77b4" stroke-width="1.4211023622047245"/><line x1="564.4327272727273" y1="235.8379556883764" x2="573.1383838383839" y2="228.9165372584725" stroke="#1f77b4" stroke-width="1.4211023622047245"/><line x1="573.1383838383839" y1="228.9165372584725" x2="581.8440404040405" y2="222.17192814948095" stroke="#1f77b4" stroke-width="1.4211023622047245"/><line x1="581.8440404040405" y1="222.17192814948095" x2="590.5496969696969" y2="215.72782743514654" stroke="#1f77b4" stroke-width="1.4211023622047245"/></svg>