<svg xmlns="http://www.w3.org/2000/svg" width="800" height="600" viewBox="0 0 800 600"><rect x="0.0" y="0.0" width="800.0" height="600.0" fill="#ffffff" fill-opacity="1.0" stroke="none"/><line x1="151.83522727272725" y1="5.5" x2="151.83522727272725" y2="578.55" stroke="#dddddd" stroke-width="0.5"/><line x1="325.52840909090907" y1="5.5" x2="325.52840909090907" y2="578.55" stroke="#dddddd" stroke-width="0.5"/><line x1="499.22159090909093" y1="5.5" x2="499.22159090909093" y2="578.55" stroke="#dddddd" stroke-width="0.5"/><line x1="672.9147727272726" y1="5.5" x2="672.9147727272726" y2="578.55" stroke="#dddddd" stroke-width="0.5"/><line x1="64.98863636363636" y1="5.5" x2="64.98863636363636" y2="578.55" stroke="#dddddd" stroke-width="1.0"/><line x1="238.68181818181816" y1="5.5" x2="238.68181818181816" y2="578.55" stroke="#dddddd" stroke-width="1.0"/><line x1="412.375" y1="5.5" x2="412.375" y2="578.55" stroke="#dddddd" stroke-width="1.0"/><line x1="586.0681818181819" y1="5.5" x2="586.0681818181819" y2="578.55" stroke="#dddddd" stroke-width="1.0"/><line x1="759.7613636363636" y1="5.5" x2="759.7613636363636" y2="578.55" stroke="#dddddd" stroke-width="1.0"/><line x1="30.249999999999996" y1="489.03106252942507" x2="794.5" y2="489.03106252942507" stroke="#dddddd" stroke-width="0.5"/><line x1="30.249999999999996" y1="372.3682795156335" x2="794.5" y2="372.3682795156335" stroke="#dddddd" stroke-width="0.5"/><line x1="30.249999999999996" y1="255.70549650184188" x2="794.5" y2="255.70549650184188" stroke="#dddddd" stroke-width="0.5"/><line x1="30.249999999999996" y1="139.0427134880503" x2="794.5" y2="139.0427134880503" stroke="#dddddd" stroke-width="0.5"/><line x1="30.249999999999996" y1="22.379930474258686" x2="794.5" y2="22.379930474258686" stroke="#dddddd" stroke-width="0.5"/><line x1="30.249999999999996" y1="547.3624540363209" x2="794.5" y2="547.3624540363209" stroke="#dddddd" stroke-width="1.0"/><line x1="30.249999999999996" y1="430.6996710225293" x2="794.5" y2="430.6996710225293" stroke="#dddddd" stroke-width="1.0"/><line x1="30.249999999999996" y1="314.03688800873766" x2="794.5" y2="314.03688800873766" stroke="#dddddd" stroke-width="1.0"/><line x1="30.249999999999996" y1="197.3741049949461" x2="794.5" y2="197.3741049949461" stroke="#dddddd" stroke-width="1.0"/><line x1="30.249999999999996" y1="80.71132198115447" x2="794.5" y2="80.71132198115447" stroke="#dddddd" stroke-width="1.0"/><rect x="30.249999999999996" y="5.5" width="764.25" height="573.05" fill="#ffffff" fill-opacity="0.0" stroke="#444444" stroke-width="1.0"/><line x1="64.98863636363636" y1="578.55" x2="64.98863636363636" y2="581.3" stroke="#444444" stroke-width="1.0"/><text x="64.98863636363636" y="592.3" fill="#333333" font-size="11.0" font-family="sans-serif" text-anchor="middle">0</text><line x1="238.68181818181816" y1="578.55" x2="238.68181818181816" y2="581.3" stroke="#444444" stroke-width="1.0"/><text x="238.68181818181816" y="592.3" fill="#333333" font-size="11.0" font-family="sans-serif" text-anchor="middle">2</text><line x1="412.375" y1="578.55" x2="412.375" y2="581.3" stroke="#444444" stroke-width="1.0"/><text x="412.375" y="592.3" fill="#333333" font-size="11.0" font-family="sans-serif" text-anchor="middle">4</text><line x1="586.0681818181819" y1="578.55" x2="586.0681818181819" y2="581.3" stroke="#444444" stroke-width="1.0"/><text x="586.0681818181819" y="592.3" fill="#333333" font-size="11.0" font-family="sans-serif" text-anchor="middle">6</text><line x1="759.7613636363636" y1="578.55" x2="759.7613636363636" y2="581.3" stroke="#444444" stroke-width="1.0"/><text x="759.7613636363636" y="592.3" fill="#333333" font-size="11.0" font-family="sans-serif" text-anchor="middle">8</text><line x1="30.249999999999996" y1="547.3624540363209" x2="27.499999999999996" y2="547.3624540363209" stroke="#444444" stroke-width="1.0"/><text x="25.299999999999997" y="551.2124540363209" fill="#333333" font-size="11.0" font-family="sans-serif" text-anchor="end">0</text><line x1="30.249999999999996" y1="430.6996710225293" x2="27.499999999999996" y2="430.6996710225293" stroke="#444444" stroke-width="1.0"/><text x="25.299999999999997" y="434.5496710225293" fill="#333333" font-size="11.0" font-family="sans-serif" text-anchor="end">0.5</text><line x1="30.249999999999996" y1="314.03688800873766" x2="27.499999999999996" y2="314.03688800873766" stroke="#444444" stroke-width="1.0"/><text x="25.299999999999997" y="317.8868880087377" fill="#333333" font-size="11.0" font-family="sans-serif" text-anchor="end">1</text><line x1="30.249999999999996" y1="197.3741049949461" x2="27.499999999999996" y2="197.3741049949461" stroke="#444444" stroke-width="1.0"/><text x="25.299999999999997" y="201.2241049949461" fill="#333333" font-size="11.0" font-family="sans-serif" text-anchor="end">1.5</text><line x1="30.249999999999996" y1="80.71132198115447" x2="27.499999999999996" y2="80.71132198115447" stroke="#444444" stroke-width="1.0"/><text x="25.299999999999997" y="84.56132198115446" fill="#333333" font-size="11.0" font-family="sans-serif" text-anchor="end">2</text><circle cx="64.98863636363636" cy="547.3624540363209" r="3.0" fill="#1f77b4" fill-opacity="0.85" stroke="#1f77b4" stroke-width="1.0"><title>(0, 0)</title></circle><circle cx="108.41193181818181" cy="418.00080142134755" r="3.0" fill="#1f77b4" fill-opacity="0.85" stroke="#1f77b4" stroke-width="1.0"><title>(0.5, 0.554425538604)</title></circle><circle cx="169.20454545454547" cy="287.89530485822155" r="3.0" fill="#1f77b4" fill-opacity="0.85" stroke="#1f77b4" stroke-width="1.0"><title>(1.2, 1.112039085967)</title></circle><circle cx="186.5738636363636" cy="268.43346912924187" r="3.0" fill="#1f77b4" fill-opacity="0.85" stroke="#1f77b4" stroke-width="1.0"><title>(1.4, 1.195449729988)</title></circle><circle cx="325.52840909090907" cy="409.4390435655228" r="3.0" fill="#1f77b4" fill-opacity="0.85" stroke="#1f77b4" stroke-width="1.0"><title>(3, 0.59112000806)</title></circle><circle cx="342.89772727272725" cy="448.9863623996964" r="3.0" fill="#1f77b4" fill-opacity="0.85" stroke="#1f77b4" stroke-width="1.0"><title>(3.2, 0.421625856572)</title></circle><circle cx="542.6448863636364" cy="519.4894578825617" r="3.0" fill="#1f77b4" fill-opacity="0.85" stroke="#1f77b4" stroke-width="1.0"><title>(5.5, 0.11945967443)</title></circle><circle cx="672.9147727272726" cy="149.0788396887604" r="3.0" fill="#1f77b4" fill-opacity="0.85" stroke="#1f77b4" stroke-width="1.0"><title>(7, 1.706986598719)</title></circle><circle cx="759.7613636363636" cy="36.52920190576333" r="3.0" fill="#1f77b4" fill-opacity="0.85" stroke="#1f77b4" stroke-width="1.0"><title>(8, 2.189358246623)</title></circle><path d="M 64.98863636363636 542.613204167366 L 108.41193181818181 412.7646007488747 L 169.20454545454547 285.73235918029883 L 186.5738636363636 263.90996730806665 L 325.52840909090907 405.278650832562 L 342.89772727272725 445.7010756342416 L 542.6448863636364 514.494191095875 L 672.9147727272726 144.10030088980153 L 759.7613636363636 31.547727272727343 L 759.7613636363636 41.51002756512287 L 672.9147727272726 154.06257027713127 L 542.6448863636364 524.4554968177456 L 342.89772727272725 453.49609223932595 L 325.52840909090907 412.2279474371454 L 186.5738636363636 271.7965930963299 L 169.20454545454547 292.17197948137317 L 108.41193181818181 422.06481300361065 L 64.98863636363636 552.5022727272727 Z" fill="#d62728" fill-opacity="0.15" stroke="none"/><line x1="64.98863636363636" y1="547.5577384473194" x2="108.41193181818181" y2="417.4147068762427" stroke="#d62728" stroke-width="2.0"/><line x1="108.41193181818181" y1="417.4147068762427" x2="169.20454545454547" y2="288.952169330836" stroke="#d62728" stroke-width="2.0"/><line x1="169.20454545454547" y1="288.952169330836" x2="186.5738636363636" y2="267.8532802021983" stroke="#d62728" stroke-width="2.0"/><line x1="186.5738636363636" y1="267.8532802021983" x2="325.52840909090907" y2="408.7532991348537" stroke="#d62728" stroke-width="2.0"/><line x1="325.52840909090907" y1="408.7532991348537" x2="342.89772727272725" y2="449.59858393678377" stroke="#d62728" stroke-width="2.0"/><line x1="342.89772727272725" y1="449.59858393678377" x2="542.6448863636364" y2="519.4748439568102" stroke="#d62728" stroke-width="2.0"/><line x1="542.6448863636364" y1="519.4748439568102" x2="672.9147727272726" y2="149.08143558346643" stroke="#d62728" stroke-width="2.0"/><line x1="672.9147727272726" y1="149.08143558346643" x2="759.7613636363636" y2="36.52887741892516" stroke="#d62728" stroke-width="2.0"/></svg>