<svg xmlns="http://www.w3.org/2000/svg" width="624" height="384" viewBox="0 0 624 384"><rect x="0.0" y="0.0" width="624.0" height="384.0" fill="#ffffff" fill-opacity="1.0" stroke="none"/><line x1="127.58272727272723" y1="7.333333333333333" x2="127.58272727272723" y2="358.3333333333333" stroke="#dddddd" stroke-width="0.6666666666666666"/><line x1="259.7675757575757" y1="7.333333333333333" x2="259.7675757575757" y2="358.3333333333333" stroke="#dddddd" stroke-width="0.6666666666666666"/><line x1="391.9524242424243" y1="7.333333333333333" x2="391.9524242424243" y2="358.3333333333333" stroke="#dddddd" stroke-width="0.6666666666666666"/><line x1="524.1372727272726" y1="7.333333333333333" x2="524.1372727272726" y2="358.3333333333333" stroke="#dddddd" stroke-width="0.6666666666666666"/><line x1="61.490303030303025" y1="7.333333333333333" x2="61.490303030303025" y2="358.3333333333333" stroke="#dddddd" stroke-width="1.3333333333333333"/><line x1="193.6751515151515" y1="7.333333333333333" x2="193.6751515151515" y2="358.3333333333333" stroke="#dddddd" stroke-width="1.3333333333333333"/><line x1="325.85999999999996" y1="7.333333333333333" x2="325.85999999999996" y2="358.3333333333333" stroke="#dddddd" stroke-width="1.3333333333333333"/><line x1="458.0448484848485" y1="7.333333333333333" x2="458.0448484848485" y2="358.3333333333333" stroke="#dddddd" stroke-width="1.3333333333333333"/><line x1="590.2296969696969" y1="7.333333333333333" x2="590.2296969696969" y2="358.3333333333333" stroke="#dddddd" stroke-width="1.3333333333333333"/><line x1="35.05333333333333" y1="303.5019101553004" x2="616.6666666666666" y2="303.5019101553004" stroke="#dddddd" stroke-width="0.6666666666666666"/><line x1="35.05333333333333" y1="232.04455593168836" x2="616.6666666666666" y2="232.04455593168836" stroke="#dddddd" stroke-width="0.6666666666666666"/><line x1="35.05333333333333" y1="160.58720170807638" x2="616.6666666666666" y2="160.58720170807638" stroke="#dddddd" stroke-width="0.6666666666666666"/><line x1="35.05333333333333" y1="89.1298474844644" x2="616.6666666666666" y2="89.1298474844644" stroke="#dddddd" stroke-width="0.6666666666666666"/><line x1="35.05333333333333" y1="17.672493260852395" x2="616.6666666666666" y2="17.672493260852395" stroke="#dddddd" stroke-width="0.6666666666666666"/><line x1="35.05333333333333" y1="339.23058726710633" x2="616.6666666666666" y2="339.23058726710633" stroke="#dddddd" stroke-width="1.3333333333333333"/><line x1="35.05333333333333" y1="267.7732330434943" x2="616.6666666666666" y2="267.7732330434943" stroke="#dddddd" stroke-width="1.3333333333333333"/><line x1="35.05333333333333" y1="196.31587881988236" x2="616.6666666666666" y2="196.31587881988236" stroke="#dddddd" stroke-width="1.3333333333333333"/><line x1="35.05333333333333" y1="124.8585245962704" x2="616.6666666666666" y2="124.8585245962704" stroke="#dddddd" stroke-width="1.3333333333333333"/><line x1="35.05333333333333" y1="53.401170372658385" x2="616.6666666666666" y2="53.401170372658385" stroke="#dddddd" stroke-width="1.3333333333333333"/><rect x="35.05333333333333" y="7.333333333333333" width="581.6133333333332" height="351.0" fill="#ffffff" fill-opacity="0.0" stroke="#444444" stroke-width="1.3333333333333333"/><line x1="61.490303030303025" y1="358.3333333333333" x2="61.490303030303025" y2="362.0" stroke="#444444" stroke-width="1.3333333333333333"/><text x="61.490303030303025" y="374.32" fill="#333333" font-size="11.733333333333334" font-family="sans-serif" text-anchor="middle">0</text><line x1="193.6751515151515" y1="358.3333333333333" x2="193.6751515151515" y2="362.0" stroke="#444444" stroke-width="1.3333333333333333"/><text x="193.6751515151515" y="374.32" fill="#333333" font-size="11.733333333333334" font-family="sans-serif" text-anchor="middle">2</text><line x1="325.85999999999996" y1="358.3333333333333" x2="325.85999999999996" y2="362.0" stroke="#444444" stroke-width="1.3333333333333333"/><text x="325.85999999999996" y="374.32" fill="#333333" font-size="11.733333333333334" font-family="sans-serif" text-anchor="middle">4</text><line x1="458.0448484848485" y1="358.3333333333333" x2="458.0448484848485" y2="362.0" stroke="#444444" stroke-width="1.3333333333333333"/><text x="458.0448484848485" y="374.32" fill="#333333" font-size="11.733333333333334" font-family="sans-serif" text-anchor="middle">6</text><line x1="590.2296969696969" y1="358.3333333333333" x2="590.2296969696969" y2="362.0" stroke="#444444" stroke-width="1.3333333333333333"/><text x="590.2296969696969" y="374.32" fill="#333333" font-size="11.733333333333334" font-family="sans-serif" text-anchor="middle">8</text><line x1="35.05333333333333" y1="339.23058726710633" x2="31.386666666666663" y2="339.23058726710633" stroke="#444444" stroke-width="1.3333333333333333"/><text x="28.453333333333333" y="343.337253933773" fill="#333333" font-size="11.733333333333334" font-family="sans-serif" text-anchor="end">0.0</text><line x1="35.05333333333333" y1="267.7732330434943" x2="31.386666666666663" y2="267.7732330434943" stroke="#444444" stroke-width="1.3333333333333333"/><text x="28.453333333333333" y="271.879899710161" fill="#333333" font-size="11.733333333333334" font-family="sans-serif" text-anchor="end">0.5</text><line x1="35.05333333333333" y1="196.31587881988236" x2="31.386666666666663" y2="196.31587881988236" stroke="#444444" stroke-width="1.3333333333333333"/><text x="28.453333333333333" y="200.42254548654904" fill="#333333" font-size="11.733333333333334" font-family="sans-serif" text-anchor="end">1.0</text><line x1="35.05333333333333" y1="124.8585245962704" x2="31.386666666666663" y2="124.8585245962704" stroke="#444444" stroke-width="1.3333333333333333"/><text x="28.453333333333333" y="128.96519126293705" fill="#333333" font-size="11.733333333333334" font-family="sans-serif" text-anchor="end">1.5</text><line x1="35.05333333333333" y1="53.401170372658385" x2="31.386666666666663" y2="53.401170372658385" stroke="#444444" stroke-width="1.3333333333333333"/><text x="28.453333333333333" y="57.50783703932505" fill="#333333" font-size="11.733333333333334" font-family="sans-serif" text-anchor="end">2.0</text><circle cx="61.490303030303025" cy="339.23058726710633" r="3.1181102362204727" fill="#1f77b4" fill-opacity="0.85" stroke="none"><title>(0, 0)</title></circle><circle cx="94.53651515151515" cy="259.9950230617915" r="3.1181102362204727" fill="#1f77b4" fill-opacity="0.85" stroke="none"><title>(0.5, 0.554425538604)</title></circle><circle cx="140.8012121212121" cy="180.30384551418277" r="3.1181102362204727" fill="#1f77b4" fill-opacity="0.85" stroke="none"><title>(1.2, 1.112039085967)</title></circle><circle cx="154.01969696969695" cy="168.38323764249293" r="3.1181102362204727" fill="#1f77b4" fill-opacity="0.85" stroke="none"><title>(1.4, 1.195449729988)</title></circle><circle cx="259.7675757575757" cy="254.75084365790977" r="3.1181102362204727" fill="#1f77b4" fill-opacity="0.85" stroke="none"><title>(3, 0.59112000806)</title></circle><circle cx="272.98606060606056" cy="278.9740509012479" r="3.1181102362204727" fill="#1f77b4" fill-opacity="0.85" stroke="none"><title>(3.2, 0.421625856572)</title></circle><circle cx="424.9986363636363" cy="322.15804272479863" r="3.1181102362204727" fill="#1f77b4" fill-opacity="0.85" stroke="none"><title>(5.5, 0.11945967443)</title></circle><circle cx="524.1372727272726" cy="95.27709518789209" r="3.1181102362204727" fill="#1f77b4" fill-opacity="0.85" stroke="none"><title>(7, 1.706986598719)</title></circle><circle cx="590.2296969696969" cy="26.33909176440026" r="3.1181102362204727" fill="#1f77b4" fill-opacity="0.85" stroke="none"><title>(8, 2.189358246623)</title></circle><path d="M 61.490303030303025 342.3787878787879 L 94.53651515151515 262.4842789127197 L 140.8012121212121 182.9233600290178 L 154.01969696969695 170.44319142043184 L 259.7675757575757 256.4590807383382 L 272.98606060606056 281.7363145321875 L 424.9986363636363 325.19980115120035 L 524.1372727272726 98.32968996412137 L 590.2296969696969 29.389907236759086 L 590.2296969696969 23.287878787878828 L 524.1372727272726 92.22768044496468 L 424.9986363636363 319.09838188869867 L 272.98606060606056 276.9617733431384 L 259.7675757575757 252.2025531958746 L 154.01969696969695 165.6125385076312 L 140.8012121212121 178.97901533714608 L 94.53651515151515 256.7877873301138 L 61.490303030303025 336.32161474463334 Z" fill="#1f77b4" fill-opacity="0.2" stroke="none"/><line x1="61.490303030303025" y1="339.3502013117106" x2="94.53651515151515" y2="259.63603312141674" stroke="#1f77b4" stroke-width="1.4211023622047245"/><line x1="94.53651515151515" y1="259.63603312141674" x2="140.8012121212121" y2="180.95118768308194" stroke="#1f77b4" stroke-width="1.4211023622047245"/><line x1="140.8012121212121" y1="180.95118768308194" x2="154.01969696969695" y2="168.02786496403155" stroke="#1f77b4" stroke-width="1.4211023622047245"/><line x1="154.01969696969695" y1="168.02786496403155" x2="259.7675757575757" y2="254.3308169671064" stroke="#1f77b4" stroke-width="1.4211023622047245"/><line x1="259.7675757575757" y1="254.3308169671064" x2="272.98606060606056" y2="279.34904393766294" stroke="#1f77b4" stroke-width="1.4211023622047245"/><line x1="272.98606060606056" y1="279.34904393766294" x2="424.9986363636363" y2="322.14909151994954" stroke="#1f77b4" stroke-width="1.4211023622047245"/><line x1="424.9986363636363" y1="322.14909151994954" x2="524.1372727272726" y2="95.278685204543" stroke="#1f77b4" stroke-width="1.4211023622047245"/><line x1="524.1372727272726" y1="95.278685204543" x2="590.2296969696969" y2="26.338893012318977" stroke="#1f77b4" stroke-width="1.4211023622047245"/></svg>