<svg xmlns="http://www.w3.org/2000/svg" width="624" height="384" viewBox="0 0 624 384"><rect x="0.0" y="0.0" width="624.0" height="384.0" fill="#ffffff" fill-opacity="1.0" stroke="none"/><line x1="78.6898461952862" y1="7.333333333333333" x2="78.6898461952862" y2="358.3333333333333" stroke="#dddddd" stroke-width="0.6666666666666666"/><line x1="209.3916778451179" y1="7.333333333333333" x2="209.3916778451179" y2="358.3333333333333" stroke="#dddddd" stroke-width="0.6666666666666666"/><line x1="340.09350949494956" y1="7.333333333333333" x2="340.09350949494956" y2="358.3333333333333" stroke="#dddddd" stroke-width="0.6666666666666666"/><line x1="470.7953411447811" y1="7.333333333333333" x2="470.7953411447811" y2="358.3333333333333" stroke="#dddddd" stroke-width="0.6666666666666666"/><line x1="144.04076202020204" y1="7.333333333333333" x2="144.04076202020204" y2="358.3333333333333" stroke="#dddddd" stroke-width="1.3333333333333333"/><line x1="274.74259367003367" y1="7.333333333333333" x2="274.74259367003367" y2="358.3333333333333" stroke="#dddddd" stroke-width="1.3333333333333333"/><line x1="405.44442531986533" y1="7.333333333333333" x2="405.44442531986533" y2="358.3333333333333" stroke="#dddddd" stroke-width="1.3333333333333333"/><line x1="536.1462569696969" y1="7.333333333333333" x2="536.1462569696969" y2="358.3333333333333" stroke="#dddddd" stroke-width="1.3333333333333333"/><line x1="42.093333333333334" y1="297.50110741971207" x2="559.6725866666666" y2="297.50110741971207" stroke="#dddddd" stroke-width="0.6666666666666666"/><line x1="42.093333333333334" y1="222.75027685492802" x2="559.6725866666666" y2="222.75027685492802" stroke="#dddddd" stroke-width="0.6666666666666666"/><line x1="42.093333333333334" y1="147.99944629014402" x2="559.6725866666666" y2="147.99944629014402" stroke="#dddddd" stroke-width="0.6666666666666666"/><line x1="42.093333333333334" y1="73.24861572536004" x2="559.6725866666666" y2="73.24861572536004" stroke="#dddddd" stroke-width="0.6666666666666666"/><line x1="42.093333333333334" y1="334.87652270210407" x2="559.6725866666666" y2="334.87652270210407" stroke="#dddddd" stroke-width="1.3333333333333333"/><line x1="42.093333333333334" y1="260.12569213732" x2="559.6725866666666" y2="260.12569213732" stroke="#dddddd" stroke-width="1.3333333333333333"/><line x1="42.093333333333334" y1="185.37486157253602" x2="559.6725866666666" y2="185.37486157253602" stroke="#dddddd" stroke-width="1.3333333333333333"/><line x1="42.093333333333334" y1="110.62403100775202" x2="559.6725866666666" y2="110.62403100775202" stroke="#dddddd" stroke-width="1.3333333333333333"/><line x1="42.093333333333334" y1="35.87320044296803" x2="559.6725866666666" y2="35.87320044296803" stroke="#dddddd" stroke-width="1.3333333333333333"/><rect x="42.093333333333334" y="7.333333333333333" width="517.5792533333333" height="351.0" fill="#ffffff" fill-opacity="0.0" stroke="#444444" stroke-width="1.3333333333333333"/><line x1="144.04076202020204" y1="358.3333333333333" x2="144.04076202020204" y2="362.0" stroke="#444444" stroke-width="1.3333333333333333"/><text x="144.04076202020204" y="374.32" fill="#333333" font-size="11.733333333333334" font-family="sans-serif" text-anchor="middle">2.5</text><line x1="274.74259367003367" y1="358.3333333333333" x2="274.74259367003367" y2="362.0" stroke="#444444" stroke-width="1.3333333333333333"/><text x="274.74259367003367" y="374.32" fill="#333333" font-size="11.733333333333334" font-family="sans-serif" text-anchor="middle">5.0</text><line x1="405.44442531986533" y1="358.3333333333333" x2="405.44442531986533" y2="362.0" stroke="#444444" stroke-width="1.3333333333333333"/><text x="405.44442531986533" y="374.32" fill="#333333" font-size="11.733333333333334" font-family="sans-serif" text-anchor="middle">7.5</text><line x1="536.1462569696969" y1="358.3333333333333" x2="536.1462569696969" y2="362.0" stroke="#444444" stroke-width="1.3333333333333333"/><text x="536.1462569696969" y="374.32" fill="#333333" font-size="11.733333333333334" font-family="sans-serif" text-anchor="middle">10.0</text><line x1="42.093333333333334" y1="334.87652270210407" x2="38.42666666666666" y2="334.87652270210407" stroke="#444444" stroke-width="1.3333333333333333"/><text x="35.49333333333333" y="338.98318936877075" fill="#333333" font-size="11.733333333333334" font-family="sans-serif" text-anchor="end">2.5</text><line x1="42.093333333333334" y1="260.12569213732" x2="38.42666666666666" y2="260.12569213732" stroke="#444444" stroke-width="1.3333333333333333"/><text x="35.49333333333333" y="264.2323588039867" fill="#333333" font-size="11.733333333333334" font-family="sans-serif" text-anchor="end">5.0</text><line x1="42.093333333333334" y1="185.37486157253602" x2="38.42666666666666" y2="185.37486157253602" stroke="#444444" stroke-width="1.3333333333333333"/><text x="35.49333333333333" y="189.4815282392027" fill="#333333" font-size="11.733333333333334" font-family="sans-serif" text-anchor="end">7.5</text><line x1="42.093333333333334" y1="110.62403100775202" x2="38.42666666666666" y2="110.62403100775202" stroke="#444444" stroke-width="1.3333333333333333"/><text x="35.49333333333333" y="114.73069767441868" fill="#333333" font-size="11.733333333333334" font-family="sans-serif" text-anchor="end">10.0</text><line x1="42.093333333333334" y1="35.87320044296803" x2="38.42666666666666" y2="35.87320044296803" stroke="#444444" stroke-width="1.3333333333333333"/><text x="35.49333333333333" y="39.97986710963469" fill="#333333" font-size="11.733333333333334" font-family="sans-serif" text-anchor="end">12.5</text><circle cx="65.61966303030303" cy="334.87652270210407" r="3.1181102362204727" fill="#1f77b4" fill-opacity="0.85" stroke="none"><title>(1, 2.5)</title></circle><circle cx="117.90039569023568" cy="319.92635658914725" r="3.1181102362204727" fill="#1f77b4" fill-opacity="0.85" stroke="none"><title>(2, 3)</title></circle><circle cx="170.18112835016836" cy="266.10575858250274" r="3.1181102362204727" fill="#1f77b4" fill-opacity="0.85" stroke="none"><title>(3, 4.8)</title></circle><circle cx="222.46186101010102" cy="242.1854928017719" r="3.1181102362204727" fill="#1f77b4" fill-opacity="0.85" stroke="none"><title>(4, 5.6)</title></circle><circle cx="274.74259367003367" cy="197.33499446290148" r="3.1181102362204727" fill="#1f77b4" fill-opacity="0.85" stroke="none"><title>(5, 7.1)</title></circle><circle cx="327.0233263299664" cy="167.4346622369879" r="3.1181102362204727" fill="#1f77b4" fill-opacity="0.85" stroke="none"><title>(6, 8.1)</title></circle><circle cx="379.30405898989903" cy="118.09911406423039" r="3.1181102362204727" fill="#1f77b4" fill-opacity="0.85" stroke="none"><title>(7, 9.75)</title></circle><circle cx="431.5847916498317" cy="100.15891472868228" r="3.1181102362204727" fill="#1f77b4" fill-opacity="0.85" stroke="none"><title>(8, 10.35)</title></circle><circle cx="483.8655243097643" cy="52.31838316722053" r="3.1181102362204727" fill="#1f77b4" fill-opacity="0.85" stroke="none"><title>(9, 11.95)</title></circle><circle cx="536.1462569696969" cy="29.893133997785334" r="3.1181102362204727" fill="#1f77b4" fill-opacity="0.85" stroke="none"><title>(10, 12.7)</title></circle><circle cx="65.61966303030303" cy="266.10575858250274" r="3.1181102362204727" fill="#ff7f0e" fill-opacity="0.85" stroke="none"><title>(1, 4.8)</title></circle><circle cx="117.90039569023568" cy="272.0858250276855" r="3.1181102362204727" fill="#ff7f0e" fill-opacity="0.85" stroke="none"><title>(2, 4.6)</title></circle><circle cx="170.18112835016836" cy="239.19545957918052" r="3.1181102362204727" fill="#ff7f0e" fill-opacity="0.85" stroke="none"><title>(3, 5.7)</title></circle><circle cx="222.46186101010102" cy="236.20542635658916" r="3.1181102362204727" fill="#ff7f0e" fill-opacity="0.85" stroke="none"><title>(4, 5.8)</title></circle><circle cx="274.74259367003367" cy="212.2851605758583" r="3.1181102362204727" fill="#ff7f0e" fill-opacity="0.85" stroke="none"><title>(5, 6.6)</title></circle><circle cx="327.0233263299664" cy="203.3150609080842" r="3.1181102362204727" fill="#ff7f0e" fill-opacity="0.85" stroke="none"><title>(6, 6.9)</title></circle><circle cx="379.30405898989903" cy="174.9097452934663" r="3.1181102362204727" fill="#ff7f0e" fill-opacity="0.85" stroke="none"><title>(7, 7.85)</title></circle><circle cx="431.5847916498317" cy="177.89977851605764" r="3.1181102362204727" fill="#ff7f0e" fill-opacity="0.85" stroke="none"><title>(8, 7.75)</title></circle><circle cx="483.8655243097643" cy="150.9894795127354" r="3.1181102362204727" fill="#ff7f0e" fill-opacity="0.85" stroke="none"><title>(9, 8.65)</title></circle><circle cx="536.1462569696969" cy="149.4944629014397" r="3.1181102362204727" fill="#ff7f0e" fill-opacity="0.85" stroke="none"><title>(10, 8.7)</title></circle><line x1="65.61966303030303" y1="342.3787878787878" x2="70.37245690847871" y2="339.15564738292005" stroke="#1f77b4" stroke-width="1.4211023622047245"/><line x1="70.37245690847871" y1="339.15564738292005" x2="75.12525078665442" y2="335.93250688705234" stroke="#1f77b4" stroke-width="1.4211023622047245"/><line x1="75.12525078665442" y1="335.93250688705234" x2="79.87804466483011" y2="332.7093663911845" stroke="#1f77b4" stroke-width="1.4211023622047245"/><line x1="79.87804466483011" y1="332.7093663911845" x2="84.63083854300582" y2="329.48622589531675" stroke="#1f77b4" stroke-width="1.4211023622047245"/><line x1="84.63083854300582" y1="329.48622589531675" x2="89.38363242118152" y2="326.263085399449" stroke="#1f77b4" stroke-width="1.4211023622047245"/><line x1="89.38363242118152" y1="326.263085399449" x2="94.13642629935721" y2="323.0399449035813" stroke="#1f77b4" stroke-width="1.4211023622047245"/><line x1="94.13642629935721" y1="323.0399449035813" x2="98.88922017753289" y2="319.81680440771345" stroke="#1f77b4" stroke-width="1.4211023622047245"/><line x1="98.88922017753289" y1="319.81680440771345" x2="103.64201405570861" y2="316.59366391184574" stroke="#1f77b4" stroke-width="1.4211023622047245"/><line x1="103.64201405570861" y1="316.59366391184574" x2="108.3948079338843" y2="313.3705234159779" stroke="#1f77b4" stroke-width="1.4211023622047245"/><line x1="108.3948079338843" y1="313.3705234159779" x2="113.14760181206" y2="310.1473829201102" stroke="#1f77b4" stroke-width="1.4211023622047245"/><line x1="113.14760181206" y1="310.1473829201102" x2="117.90039569023568" y2="306.9242424242424" stroke="#1f77b4" stroke-width="1.4211023622047245"/><line x1="117.90039569023568" y1="306.9242424242424" x2="122.65318956841139" y2="303.70110192837467" stroke="#1f77b4" stroke-width="1.4211023622047245"/><line x1="122.65318956841139" y1="303.70110192837467" x2="127.40598344658709" y2="300.47796143250685" stroke="#1f77b4" stroke-width="1.4211023622047245"/><line x1="127.40598344658709" y1="300.47796143250685" x2="132.15877732476275" y2="297.25482093663913" stroke="#1f77b4" stroke-width="1.4211023622047245"/><line x1="132.15877732476275" y1="297.25482093663913" x2="136.91157120293843" y2="294.0316804407713" stroke="#1f77b4" stroke-width="1.4211023622047245"/><line x1="136.91157120293843" y1="294.0316804407713" x2="141.6643650811142" y2="290.80853994490354" stroke="#1f77b4" stroke-width="1.4211023622047245"/><line x1="141.6643650811142" y1="290.80853994490354" x2="146.41715895928988" y2="287.5853994490358" stroke="#1f77b4" stroke-width="1.4211023622047245"/><line x1="146.41715895928988" y1="287.5853994490358" x2="151.1699528374656" y2="284.362258953168" stroke="#1f77b4" stroke-width="1.4211023622047245"/><line x1="151.1699528374656" y1="284.362258953168" x2="155.92274671564127" y2="281.13911845730024" stroke="#1f77b4" stroke-width="1.4211023622047245"/><line x1="155.92274671564127" y1="281.13911845730024" x2="160.675540593817" y2="277.9159779614325" stroke="#1f77b4" stroke-width="1.4211023622047245"/><line x1="160.675540593817" y1="277.9159779614325" x2="165.42833447199268" y2="274.6928374655647" stroke="#1f77b4" stroke-width="1.4211023622047245"/><line x1="165.42833447199268" y1="274.6928374655647" x2="170.18112835016836" y2="271.46969696969694" stroke="#1f77b4" stroke-width="1.4211023622047245"/><line x1="170.18112835016836" y1="271.46969696969694" x2="174.93392222834407" y2="268.2465564738292" stroke="#1f77b4" stroke-width="1.4211023622047245"/><line x1="174.93392222834407" y1="268.2465564738292" x2="179.68671610651975" y2="265.0234159779614" stroke="#1f77b4" stroke-width="1.4211023622047245"/><line x1="179.68671610651975" y1="265.0234159779614" x2="184.43950998469543" y2="261.80027548209364" stroke="#1f77b4" stroke-width="1.4211023622047245"/><line x1="184.43950998469543" y1="261.80027548209364" x2="189.1923038628711" y2="258.5771349862259" stroke="#1f77b4" stroke-width="1.4211023622047245"/><line x1="189.1923038628711" y1="258.5771349862259" x2="193.94509774104682" y2="255.35399449035813" stroke="#1f77b4" stroke-width="1.4211023622047245"/><line x1="193.94509774104682" y1="255.35399449035813" x2="198.6978916192225" y2="252.13085399449034" stroke="#1f77b4" stroke-width="1.4211023622047245"/><line x1="198.6978916192225" y1="252.13085399449034" x2="203.45068549739824" y2="248.90771349862257" stroke="#1f77b4" stroke-width="1.4211023622047245"/><line x1="203.45068549739824" y1="248.90771349862257" x2="208.20347937557392" y2="245.68457300275486" stroke="#1f77b4" stroke-width="1.4211023622047245"/><line x1="208.20347937557392" y1="245.68457300275486" x2="212.95627325374963" y2="242.46143250688706" stroke="#1f77b4" stroke-width="1.4211023622047245"/><line x1="212.95627325374963" y1="242.46143250688706" x2="217.7090671319253" y2="239.23829201101927" stroke="#1f77b4" stroke-width="1.4211023622047245"/><line x1="217.7090671319253" y1="239.23829201101927" x2="222.46186101010102" y2="236.0151515151515" stroke="#1f77b4" stroke-width="1.4211023622047245"/><line x1="222.46186101010102" y1="236.0151515151515" x2="227.2146548882767" y2="232.79201101928373" stroke="#1f77b4" stroke-width="1.4211023622047245"/><line x1="227.2146548882767" y1="232.79201101928373" x2="231.96744876645243" y2="229.56887052341597" stroke="#1f77b4" stroke-width="1.4211023622047245"/><line x1="231.96744876645243" y1="229.56887052341597" x2="236.72024264462814" y2="226.3457300275482" stroke="#1f77b4" stroke-width="1.4211023622047245"/><line x1="236.72024264462814" y1="226.3457300275482" x2="241.4730365228038" y2="223.12258953168043" stroke="#1f77b4" stroke-width="1.4211023622047245"/><line x1="241.4730365228038" y1="223.12258953168043" x2="246.22583040097953" y2="219.89944903581264" stroke="#1f77b4" stroke-width="1.4211023622047245"/><line x1="246.22583040097953" y1="219.89944903581264" x2="250.97862427915518" y2="216.67630853994493" stroke="#1f77b4" stroke-width="1.4211023622047245"/><line x1="250.97862427915518" y1="216.67630853994493" x2="255.7314181573309" y2="213.45316804407713" stroke="#1f77b4" stroke-width="1.4211023622047245"/><line x1="255.7314181573309" y1="213.45316804407713" x2="260.4842120355065" y2="210.23002754820936" stroke="#1f77b4" stroke-width="1.4211023622047245"/><line x1="260.4842120355065" y1="210.23002754820936" x2="265.2370059136823" y2="207.0068870523416" stroke="#1f77b4" stroke-width="1.4211023622047245"/><line x1="265.2370059136823" y1="207.0068870523416" x2="269.989799791858" y2="203.78374655647383" stroke="#1f77b4" stroke-width="1.4211023622047245"/><line x1="269.989799791858" y1="203.78374655647383" x2="274.74259367003367" y2="200.56060606060606" stroke="#1f77b4" stroke-width="1.4211023622047245"/><line x1="274.74259367003367" y1="200.56060606060606" x2="279.49538754820935" y2="197.3374655647383" stroke="#1f77b4" stroke-width="1.4211023622047245"/><line x1="279.49538754820935" y1="197.3374655647383" x2="284.24818142638503" y2="194.11432506887053" stroke="#1f77b4" stroke-width="1.4211023622047245"/><line x1="284.24818142638503" y1="194.11432506887053" x2="289.00097530456077" y2="190.8911845730028" stroke="#1f77b4" stroke-width="1.4211023622047245"/><line x1="289.00097530456077" y1="190.8911845730028" x2="293.75376918273645" y2="187.668044077135" stroke="#1f77b4" stroke-width="1.4211023622047245"/><line x1="293.75376918273645" y1="187.668044077135" x2="298.50656306091213" y2="184.44490358126723" stroke="#1f77b4" stroke-width="1.4211023622047245"/><line x1="298.50656306091213" y1="184.44490358126723" x2="303.25935693908787" y2="181.22176308539943" stroke="#1f77b4" stroke-width="1.4211023622047245"/><line x1="303.25935693908787" y1="181.22176308539943" x2="308.0121508172636" y2="177.99862258953164" stroke="#1f77b4" stroke-width="1.4211023622047245"/><line x1="308.0121508172636" y1="177.99862258953164" x2="312.7649446954393" y2="174.77548209366392" stroke="#1f77b4" stroke-width="1.4211023622047245"/><line x1="312.7649446954393" y1="174.77548209366392" x2="317.5177385736149" y2="171.5523415977961" stroke="#1f77b4" stroke-width="1.4211023622047245"/><line x1="317.5177385736149" y1="171.5523415977961" x2="322.27053245179064" y2="168.32920110192836" stroke="#1f77b4" stroke-width="1.4211023622047245"/><line x1="322.27053245179064" y1="168.32920110192836" x2="327.0233263299664" y2="165.10606060606062" stroke="#1f77b4" stroke-width="1.4211023622047245"/><line x1="327.0233263299664" y1="165.10606060606062" x2="331.77612020814206" y2="161.88292011019286" stroke="#1f77b4" stroke-width="1.4211023622047245"/><line x1="331.77612020814206" y1="161.88292011019286" x2="336.52891408631774" y2="158.65977961432503" stroke="#1f77b4" stroke-width="1.4211023622047245"/><line x1="336.52891408631774" y1="158.65977961432503" x2="341.2817079644934" y2="155.43663911845732" stroke="#1f77b4" stroke-width="1.4211023622047245"/><line x1="341.2817079644934" y1="155.43663911845732" x2="346.0345018426691" y2="152.21349862258955" stroke="#1f77b4" stroke-width="1.4211023622047245"/><line x1="346.0345018426691" y1="152.21349862258955" x2="350.7872957208449" y2="148.9903581267218" stroke="#1f77b4" stroke-width="1.4211023622047245"/><line x1="350.7872957208449" y1="148.9903581267218" x2="355.5400895990206" y2="145.76721763085396" stroke="#1f77b4" stroke-width="1.4211023622047245"/><line x1="355.5400895990206" y1="145.76721763085396" x2="360.29288347719626" y2="142.54407713498625" stroke="#1f77b4" stroke-width="1.4211023622047245"/><line x1="360.29288347719626" y1="142.54407713498625" x2="365.045677355372" y2="139.32093663911843" stroke="#1f77b4" stroke-width="1.4211023622047245"/><line x1="365.045677355372" y1="139.32093663911843" x2="369.7984712335477" y2="136.0977961432507" stroke="#1f77b4" stroke-width="1.4211023622047245"/><line x1="369.7984712335477" y1="136.0977961432507" x2="374.55126511172335" y2="132.87465564738295" stroke="#1f77b4" stroke-width="1.4211023622047245"/><line x1="374.55126511172335" y1="132.87465564738295" x2="379.30405898989903" y2="129.65151515151518" stroke="#1f77b4" stroke-width="1.4211023622047245"/><line x1="379.30405898989903" y1="129.65151515151518" x2="384.0568528680747" y2="126.42837465564737" stroke="#1f77b4" stroke-width="1.4211023622047245"/><line x1="384.0568528680747" y1="126.42837465564737" x2="388.8096467462504" y2="123.20523415977962" stroke="#1f77b4" stroke-width="1.4211023622047245"/><line x1="388.8096467462504" y1="123.20523415977962" x2="393.56244062442613" y2="119.98209366391188" stroke="#1f77b4" stroke-width="1.4211023622047245"/><line x1="393.56244062442613" y1="119.98209366391188" x2="398.31523450260175" y2="116.75895316804413" stroke="#1f77b4" stroke-width="1.4211023622047245"/><line x1="398.31523450260175" y1="116.75895316804413" x2="403.0680283807775" y2="113.5358126721763" stroke="#1f77b4" stroke-width="1.4211023622047245"/><line x1="403.0680283807775" y1="113.5358126721763" x2="407.8208222589533" y2="110.3126721763086" stroke="#1f77b4" stroke-width="1.4211023622047245"/><line x1="407.8208222589533" y1="110.3126721763086" x2="412.57361613712885" y2="107.08953168044077" stroke="#1f77b4" stroke-width="1.4211023622047245"/><line x1="412.57361613712885" y1="107.08953168044077" x2="417.32641001530465" y2="103.86639118457299" stroke="#1f77b4" stroke-width="1.4211023622047245"/><line x1="417.32641001530465" y1="103.86639118457299" x2="422.0792038934803" y2="100.64325068870528" stroke="#1f77b4" stroke-width="1.4211023622047245"/><line x1="422.0792038934803" y1="100.64325068870528" x2="426.831997771656" y2="97.42011019283753" stroke="#1f77b4" stroke-width="1.4211023622047245"/><line x1="426.831997771656" y1="97.42011019283753" x2="431.5847916498317" y2="94.1969696969697" stroke="#1f77b4" stroke-width="1.4211023622047245"/><line x1="431.5847916498317" y1="94.1969696969697" x2="436.33758552800725" y2="90.97382920110199" stroke="#1f77b4" stroke-width="1.4211023622047245"/><line x1="436.33758552800725" y1="90.97382920110199" x2="441.0903794061831" y2="87.75068870523421" stroke="#1f77b4" stroke-width="1.4211023622047245"/><line x1="441.0903794061831" y1="87.75068870523421" x2="445.84317328435884" y2="84.52754820936639" stroke="#1f77b4" stroke-width="1.4211023622047245"/><line x1="445.84317328435884" y1="84.52754820936639" x2="450.59596716253446" y2="81.30440771349863" stroke="#1f77b4" stroke-width="1.4211023622047245"/><line x1="450.59596716253446" y1="81.30440771349863" x2="455.34876104071014" y2="78.08126721763097" stroke="#1f77b4" stroke-width="1.4211023622047245"/><line x1="455.34876104071014" y1="78.08126721763097" x2="460.101554918886" y2="74.8581267217631" stroke="#1f77b4" stroke-width="1.4211023622047245"/><line x1="460.101554918886" y1="74.8581267217631" x2="464.8543487970615" y2="71.63498622589532" stroke="#1f77b4" stroke-width="1.4211023622047245"/><line x1="464.8543487970615" y1="71.63498622589532" x2="469.6071426752372" y2="68.41184573002757" stroke="#1f77b4" stroke-width="1.4211023622047245"/><line x1="469.6071426752372" y1="68.41184573002757" x2="474.35993655341287" y2="65.18870523415978" stroke="#1f77b4" stroke-width="1.4211023622047245"/><line x1="474.35993655341287" y1="65.18870523415978" x2="479.1127304315886" y2="61.96556473829203" stroke="#1f77b4" stroke-width="1.4211023622047245"/><line x1="479.1127304315886" y1="61.96556473829203" x2="483.8655243097643" y2="58.74242424242425" stroke="#1f77b4" stroke-width="1.4211023622047245"/><line x1="483.8655243097643" y1="58.74242424242425" x2="488.6183181879401" y2="55.519283746556496" stroke="#1f77b4" stroke-width="1.4211023622047245"/><line x1="488.6183181879401" y1="55.519283746556496" x2="493.37111206611564" y2="52.296143250688715" stroke="#1f77b4" stroke-width="1.4211023622047245"/><line x1="493.37111206611564" y1="52.296143250688715" x2="498.12390594429144" y2="49.07300275482096" stroke="#1f77b4" stroke-width="1.4211023622047245"/><line x1="498.12390594429144" y1="49.07300275482096" x2="502.8766998224671" y2="45.849862258953216" stroke="#1f77b4" stroke-width="1.4211023622047245"/><line x1="502.8766998224671" y1="45.849862258953216" x2="507.62949370064285" y2="42.62672176308543" stroke="#1f77b4" stroke-width="1.4211023622047245"/><line x1="507.62949370064285" y1="42.62672176308543" x2="512.3822875788185" y2="39.403581267217646" stroke="#1f77b4" stroke-width="1.4211023622047245"/><line x1="512.3822875788185" y1="39.403581267217646" x2="517.1350814569942" y2="36.18044077134989" stroke="#1f77b4" stroke-width="1.4211023622047245"/><line x1="517.1350814569942" y1="36.18044077134989" x2="521.8878753351698" y2="32.95730027548215" stroke="#1f77b4" stroke-width="1.4211023622047245"/><line x1="521.8878753351698" y1="32.95730027548215" x2="526.6406692133455" y2="29.734159779614362" stroke="#1f77b4" stroke-width="1.4211023622047245"/><line x1="526.6406692133455" y1="29.734159779614362" x2="531.3934630915212" y2="26.511019283746577" stroke="#1f77b4" stroke-width="1.4211023622047245"/><line x1="531.3934630915212" y1="26.511019283746577" x2="536.1462569696969" y2="23.28787878787879" stroke="#1f77b4" stroke-width="1.4211023622047245"/><line x1="65.61966303030303" y1="273.6080237591866" x2="70.37245690847871" y2="272.2876316776951" stroke="#ff7f0e" stroke-width="1.4211023622047245"/><line x1="70.37245690847871" y1="272.2876316776951" x2="75.12525078665442" y2="270.9672395962037" stroke="#ff7f0e" stroke-width="1.4211023622047245"/><line x1="75.12525078665442" y1="270.9672395962037" x2="79.87804466483011" y2="269.64684751471225" stroke="#ff7f0e" stroke-width="1.4211023622047245"/><line x1="79.87804466483011" y1="269.64684751471225" x2="84.63083854300582" y2="268.3264554332208" stroke="#ff7f0e" stroke-width="1.4211023622047245"/><line x1="84.63083854300582" y1="268.3264554332208" x2="89.38363242118152" y2="267.0060633517294" stroke="#ff7f0e" stroke-width="1.4211023622047245"/><line x1="89.38363242118152" y1="267.0060633517294" x2="94.13642629935721" y2="265.6856712702379" stroke="#ff7f0e" stroke-width="1.4211023622047245"/><line x1="94.13642629935721" y1="265.6856712702379" x2="98.88922017753289" y2="264.36527918874646" stroke="#ff7f0e" stroke-width="1.4211023622047245"/><line x1="98.88922017753289" y1="264.36527918874646" x2="103.64201405570861" y2="263.044887107255" stroke="#ff7f0e" stroke-width="1.4211023622047245"/><line x1="103.64201405570861" y1="263.044887107255" x2="108.3948079338843" y2="261.72449502576353" stroke="#ff7f0e" stroke-width="1.4211023622047245"/><line x1="108.3948079338843" y1="261.72449502576353" x2="113.14760181206" y2="260.4041029442721" stroke="#ff7f0e" stroke-width="1.4211023622047245"/><line x1="113.14760181206" y1="260.4041029442721" x2="117.90039569023568" y2="259.08371086278066" stroke="#ff7f0e" stroke-width="1.4211023622047245"/><line x1="117.90039569023568" y1="259.08371086278066" x2="122.65318956841139" y2="257.76331878128923" stroke="#ff7f0e" stroke-width="1.4211023622047245"/><line x1="122.65318956841139" y1="257.76331878128923" x2="127.40598344658709" y2="256.44292669979774" stroke="#ff7f0e" stroke-width="1.4211023622047245"/><line x1="127.40598344658709" y1="256.44292669979774" x2="132.15877732476275" y2="255.12253461830633" stroke="#ff7f0e" stroke-width="1.4211023622047245"/><line x1="132.15877732476275" y1="255.12253461830633" x2="136.91157120293843" y2="253.80214253681493" stroke="#ff7f0e" stroke-width="1.4211023622047245"/><line x1="136.91157120293843" y1="253.80214253681493" x2="141.6643650811142" y2="252.48175045532344" stroke="#ff7f0e" stroke-width="1.4211023622047245"/><line x1="141.6643650811142" y1="252.48175045532344" x2="146.41715895928988" y2="251.161358373832" stroke="#ff7f0e" stroke-width="1.4211023622047245"/><line x1="146.41715895928988" y1="251.161358373832" x2="151.1699528374656" y2="249.8409662923405" stroke="#ff7f0e" stroke-width="1.4211023622047245"/><line x1="151.1699528374656" y1="249.8409662923405" x2="155.92274671564127" y2="248.5205742108491" stroke="#ff7f0e" stroke-width="1.4211023622047245"/><line x1="155.92274671564127" y1="248.5205742108491" x2="160.675540593817" y2="247.20018212935764" stroke="#ff7f0e" stroke-width="1.4211023622047245"/><line x1="160.675540593817" y1="247.20018212935764" x2="165.42833447199268" y2="245.8797900478662" stroke="#ff7f0e" stroke-width="1.4211023622047245"/><line x1="165.42833447199268" y1="245.8797900478662" x2="170.18112835016836" y2="244.55939796637475" stroke="#ff7f0e" stroke-width="1.4211023622047245"/><line x1="170.18112835016836" y1="244.55939796637475" x2="174.93392222834407" y2="243.23900588488334" stroke="#ff7f0e" stroke-width="1.4211023622047245"/><line x1="174.93392222834407" y1="243.23900588488334" x2="179.68671610651975" y2="241.91861380339188" stroke="#ff7f0e" stroke-width="1.4211023622047245"/><line x1="179.68671610651975" y1="241.91861380339188" x2="184.43950998469543" y2="240.59822172190042" stroke="#ff7f0e" stroke-width="1.4211023622047245"/><line x1="184.43950998469543" y1="240.59822172190042" x2="189.1923038628711" y2="239.27782964040898" stroke="#ff7f0e" stroke-width="1.4211023622047245"/><line x1="189.1923038628711" y1="239.27782964040898" x2="193.94509774104682" y2="237.95743755891752" stroke="#ff7f0e" stroke-width="1.4211023622047245"/><line x1="193.94509774104682" y1="237.95743755891752" x2="198.6978916192225" y2="236.63704547742606" stroke="#ff7f0e" stroke-width="1.4211023622047245"/><line x1="198.6978916192225" y1="236.63704547742606" x2="203.45068549739824" y2="235.31665339593465" stroke="#ff7f0e" stroke-width="1.4211023622047245"/><line x1="203.45068549739824" y1="235.31665339593465" x2="208.20347937557392" y2="233.99626131444316" stroke="#ff7f0e" stroke-width="1.4211023622047245"/><line x1="208.20347937557392" y1="233.99626131444316" x2="212.95627325374963" y2="232.67586923295175" stroke="#ff7f0e" stroke-width="1.4211023622047245"/><line x1="212.95627325374963" y1="232.67586923295175" x2="217.7090671319253" y2="231.35547715146026" stroke="#ff7f0e" stroke-width="1.4211023622047245"/><line x1="217.7090671319253" y1="231.35547715146026" x2="222.46186101010102" y2="230.03508506996883" stroke="#ff7f0e" stroke-width="1.4211023622047245"/><line x1="222.46186101010102" y1="230.03508506996883" x2="227.2146548882767" y2="228.71469298847742" stroke="#ff7f0e" stroke-width="1.4211023622047245"/><line x1="227.2146548882767" y1="228.71469298847742" x2="231.96744876645243" y2="227.39430090698593" stroke="#ff7f0e" stroke-width="1.4211023622047245"/><line x1="231.96744876645243" y1="227.39430090698593" x2="236.72024264462814" y2="226.07390882549453" stroke="#ff7f0e" stroke-width="1.4211023622047245"/><line x1="236.72024264462814" y1="226.07390882549453" x2="241.4730365228038" y2="224.7535167440031" stroke="#ff7f0e" stroke-width="1.4211023622047245"/><line x1="241.4730365228038" y1="224.7535167440031" x2="246.22583040097953" y2="223.4331246625116" stroke="#ff7f0e" stroke-width="1.4211023622047245"/><line x1="246.22583040097953" y1="223.4331246625116" x2="250.97862427915518" y2="222.1127325810202" stroke="#ff7f0e" stroke-width="1.4211023622047245"/><line x1="250.97862427915518" y1="222.1127325810202" x2="255.7314181573309" y2="220.7923404995287" stroke="#ff7f0e" stroke-width="1.4211023622047245"/><line x1="255.7314181573309" y1="220.7923404995287" x2="260.4842120355065" y2="219.4719484180373" stroke="#ff7f0e" stroke-width="1.4211023622047245"/><line x1="260.4842120355065" y1="219.4719484180373" x2="265.2370059136823" y2="218.1515563365458" stroke="#ff7f0e" stroke-width="1.4211023622047245"/><line x1="265.2370059136823" y1="218.1515563365458" x2="269.989799791858" y2="216.83116425505438" stroke="#ff7f0e" stroke-width="1.4211023622047245"/><line x1="269.989799791858" y1="216.83116425505438" x2="274.74259367003367" y2="215.51077217356297" stroke="#ff7f0e" stroke-width="1.4211023622047245"/><line x1="274.74259367003367" y1="215.51077217356297" x2="279.49538754820935" y2="214.19038009207148" stroke="#ff7f0e" stroke-width="1.4211023622047245"/><line x1="279.49538754820935" y1="214.19038009207148" x2="284.24818142638503" y2="212.86998801058007" stroke="#ff7f0e" stroke-width="1.4211023622047245"/><line x1="284.24818142638503" y1="212.86998801058007" x2="289.00097530456077" y2="211.54959592908858" stroke="#ff7f0e" stroke-width="1.4211023622047245"/><line x1="289.00097530456077" y1="211.54959592908858" x2="293.75376918273645" y2="210.22920384759715" stroke="#ff7f0e" stroke-width="1.4211023622047245"/><line x1="293.75376918273645" y1="210.22920384759715" x2="298.50656306091213" y2="208.9088117661057" stroke="#ff7f0e" stroke-width="1.4211023622047245"/><line x1="298.50656306091213" y1="208.9088117661057" x2="303.25935693908787" y2="207.58841968461425" stroke="#ff7f0e" stroke-width="1.4211023622047245"/><line x1="303.25935693908787" y1="207.58841968461425" x2="308.0121508172636" y2="206.26802760312276" stroke="#ff7f0e" stroke-width="1.4211023622047245"/><line x1="308.0121508172636" y1="206.26802760312276" x2="312.7649446954393" y2="204.94763552163136" stroke="#ff7f0e" stroke-width="1.4211023622047245"/><line x1="312.7649446954393" y1="204.94763552163136" x2="317.5177385736149" y2="203.62724344013992" stroke="#ff7f0e" stroke-width="1.4211023622047245"/><line x1="317.5177385736149" y1="203.62724344013992" x2="322.27053245179064" y2="202.30685135864843" stroke="#ff7f0e" stroke-width="1.4211023622047245"/><line x1="322.27053245179064" y1="202.30685135864843" x2="327.0233263299664" y2="200.98645927715702" stroke="#ff7f0e" stroke-width="1.4211023622047245"/><line x1="327.0233263299664" y1="200.98645927715702" x2="331.77612020814206" y2="199.66606719566562" stroke="#ff7f0e" stroke-width="1.4211023622047245"/><line x1="331.77612020814206" y1="199.66606719566562" x2="336.52891408631774" y2="198.34567511417413" stroke="#ff7f0e" stroke-width="1.4211023622047245"/><line x1="336.52891408631774" y1="198.34567511417413" x2="341.2817079644934" y2="197.0252830326827" stroke="#ff7f0e" stroke-width="1.4211023622047245"/><line x1="341.2817079644934" y1="197.0252830326827" x2="346.0345018426691" y2="195.70489095119126" stroke="#ff7f0e" stroke-width="1.4211023622047245"/><line x1="346.0345018426691" y1="195.70489095119126" x2="350.7872957208449" y2="194.3844988696998" stroke="#ff7f0e" stroke-width="1.4211023622047245"/><line x1="350.7872957208449" y1="194.3844988696998" x2="355.5400895990206" y2="193.0641067882083" stroke="#ff7f0e" stroke-width="1.4211023622047245"/><line x1="355.5400895990206" y1="193.0641067882083" x2="360.29288347719626" y2="191.7437147067169" stroke="#ff7f0e" stroke-width="1.4211023622047245"/><line x1="360.29288347719626" y1="191.7437147067169" x2="365.045677355372" y2="190.42332262522547" stroke="#ff7f0e" stroke-width="1.4211023622047245"/><line x1="365.045677355372" y1="190.42332262522547" x2="369.7984712335477" y2="189.10293054373398" stroke="#ff7f0e" stroke-width="1.4211023622047245"/><line x1="369.7984712335477" y1="189.10293054373398" x2="374.55126511172335" y2="187.78253846224257" stroke="#ff7f0e" stroke-width="1.4211023622047245"/><line x1="374.55126511172335" y1="187.78253846224257" x2="379.30405898989903" y2="186.46214638075108" stroke="#ff7f0e" stroke-width="1.4211023622047245"/><line x1="379.30405898989903" y1="186.46214638075108" x2="384.0568528680747" y2="185.14175429925967" stroke="#ff7f0e" stroke-width="1.4211023622047245"/><line x1="384.0568528680747" y1="185.14175429925967" x2="388.8096467462504" y2="183.8213622177682" stroke="#ff7f0e" stroke-width="1.4211023622047245"/><line x1="388.8096467462504" y1="183.8213622177682" x2="393.56244062442613" y2="182.50097013627675" stroke="#ff7f0e" stroke-width="1.4211023622047245"/><line x1="393.56244062442613" y1="182.50097013627675" x2="398.31523450260175" y2="181.18057805478531" stroke="#ff7f0e" stroke-width="1.4211023622047245"/><line x1="398.31523450260175" y1="181.18057805478531" x2="403.0680283807775" y2="179.86018597329388" stroke="#ff7f0e" stroke-width="1.4211023622047245"/><line x1="403.0680283807775" y1="179.86018597329388" x2="407.8208222589533" y2="178.53979389180245" stroke="#ff7f0e" stroke-width="1.4211023622047245"/><line x1="407.8208222589533" y1="178.53979389180245" x2="412.57361613712885" y2="177.21940181031098" stroke="#ff7f0e" stroke-width="1.4211023622047245"/><line x1="412.57361613712885" y1="177.21940181031098" x2="417.32641001530465" y2="175.89900972881958" stroke="#ff7f0e" stroke-width="1.4211023622047245"/><line x1="417.32641001530465" y1="175.89900972881958" x2="422.0792038934803" y2="174.5786176473281" stroke="#ff7f0e" stroke-width="1.4211023622047245"/><line x1="422.0792038934803" y1="174.5786176473281" x2="426.831997771656" y2="173.25822556583663" stroke="#ff7f0e" stroke-width="1.4211023622047245"/><line x1="426.831997771656" y1="173.25822556583663" x2="431.5847916498317" y2="171.93783348434522" stroke="#ff7f0e" stroke-width="1.4211023622047245"/><line x1="431.5847916498317" y1="171.93783348434522" x2="436.33758552800725" y2="170.61744140285376" stroke="#ff7f0e" stroke-width="1.4211023622047245"/><line x1="436.33758552800725" y1="170.61744140285376" x2="441.0903794061831" y2="169.2970493213623" stroke="#ff7f0e" stroke-width="1.4211023622047245"/><line x1="441.0903794061831" y1="169.2970493213623" x2="445.84317328435884" y2="167.9766572398708" stroke="#ff7f0e" stroke-width="1.4211023622047245"/><line x1="445.84317328435884" y1="167.9766572398708" x2="450.59596716253446" y2="166.6562651583794" stroke="#ff7f0e" stroke-width="1.4211023622047245"/><line x1="450.59596716253446" y1="166.6562651583794" x2="455.34876104071014" y2="165.33587307688794" stroke="#ff7f0e" stroke-width="1.4211023622047245"/><line x1="455.34876104071014" y1="165.33587307688794" x2="460.101554918886" y2="164.0154809953965" stroke="#ff7f0e" stroke-width="1.4211023622047245"/><line x1="460.101554918886" y1="164.0154809953965" x2="464.8543487970615" y2="162.69508891390504" stroke="#ff7f0e" stroke-width="1.4211023622047245"/><line x1="464.8543487970615" y1="162.69508891390504" x2="469.6071426752372" y2="161.37469683241363" stroke="#ff7f0e" stroke-width="1.4211023622047245"/><line x1="469.6071426752372" y1="161.37469683241363" x2="474.35993655341287" y2="160.05430475092214" stroke="#ff7f0e" stroke-width="1.4211023622047245"/><line x1="474.35993655341287" y1="160.05430475092214" x2="479.1127304315886" y2="158.73391266943068" stroke="#ff7f0e" stroke-width="1.4211023622047245"/><line x1="479.1127304315886" y1="158.73391266943068" x2="483.8655243097643" y2="157.4135205879393" stroke="#ff7f0e" stroke-width="1.4211023622047245"/><line x1="483.8655243097643" y1="157.4135205879393" x2="488.6183181879401" y2="156.09312850644784" stroke="#ff7f0e" stroke-width="1.4211023622047245"/><line x1="488.6183181879401" y1="156.09312850644784" x2="493.37111206611564" y2="154.7727364249564" stroke="#ff7f0e" stroke-width="1.4211023622047245"/><line x1="493.37111206611564" y1="154.7727364249564" x2="498.12390594429144" y2="153.45234434346492" stroke="#ff7f0e" stroke-width="1.4211023622047245"/><line x1="498.12390594429144" y1="153.45234434346492" x2="502.8766998224671" y2="152.13195226197348" stroke="#ff7f0e" stroke-width="1.4211023622047245"/><line x1="502.8766998224671" y1="152.13195226197348" x2="507.62949370064285" y2="150.81156018048205" stroke="#ff7f0e" stroke-width="1.4211023622047245"/><line x1="507.62949370064285" y1="150.81156018048205" x2="512.3822875788185" y2="149.4911680989906" stroke="#ff7f0e" stroke-width="1.4211023622047245"/><line x1="512.3822875788185" y1="149.4911680989906" x2="517.1350814569942" y2="148.17077601749918" stroke="#ff7f0e" stroke-width="1.4211023622047245"/><line x1="517.1350814569942" y1="148.17077601749918" x2="521.8878753351698" y2="146.85038393600772" stroke="#ff7f0e" stroke-width="1.4211023622047245"/><line x1="521.8878753351698" y1="146.85038393600772" x2="526.6406692133455" y2="145.52999185451623" stroke="#ff7f0e" stroke-width="1.4211023622047245"/><line x1="526.6406692133455" y1="145.52999185451623" x2="531.3934630915212" y2="144.20959977302482" stroke="#ff7f0e" stroke-width="1.4211023622047245"/><line x1="531.3934630915212" y1="144.20959977302482" x2="536.1462569696969" y2="142.88920769153336" stroke="#ff7f0e" stroke-width="1.4211023622047245"/><rect x="574.3392533333333" y="159.71925333333334" width="23.114079999999994" height="46.22815999999999" fill="#ffffff" fill-opacity="1.0" stroke="none"/><circle cx="585.8962933333332" cy="171.27629333333334" r="3.1181102362204727" fill="#1f77b4" fill-opacity="1.0" stroke="none"/><text x="601.1199999999999" y="175.03096" fill="#333333" font-size="11.733333333333334" font-family="sans-serif" text-anchor="start">A</text><circle cx="585.8962933333332" cy="194.39037333333332" r="3.1181102362204727" fill="#ff7f0e" fill-opacity="1.0" stroke="none"/><text x="601.1199999999999" y="198.14504" fill="#333333" font-size="11.733333333333334" font-family="sans-serif" text-anchor="start">B</text></svg>