<svg xmlns="http://www.w3.org/2000/svg" width="624" height="384" viewBox="0 0 624 384"><rect x="0.0" y="0.0" width="624.0" height="384.0" fill="#ffffff" fill-opacity="1.0" stroke="none"/><line x1="90.33702570972886" y1="32.266666666666666" x2="90.33702570972886" y2="358.3333333333333" stroke="#dddddd" stroke-width="0.6666666666666666"/><line x1="217.52823464114832" y1="32.266666666666666" x2="217.52823464114832" y2="358.3333333333333" stroke="#dddddd" stroke-width="0.6666666666666666"/><line x1="344.7194435725678" y1="32.266666666666666" x2="344.7194435725678" y2="358.3333333333333" stroke="#dddddd" stroke-width="0.6666666666666666"/><line x1="471.9106525039872" y1="32.266666666666666" x2="471.9106525039872" y2="358.3333333333333" stroke="#dddddd" stroke-width="0.6666666666666666"/><line x1="153.9326301754386" y1="32.266666666666666" x2="153.9326301754386" y2="358.3333333333333" stroke="#dddddd" stroke-width="1.3333333333333333"/><line x1="281.123839106858" y1="32.266666666666666" x2="281.123839106858" y2="358.3333333333333" stroke="#dddddd" stroke-width="1.3333333333333333"/><line x1="408.3150480382775" y1="32.266666666666666" x2="408.3150480382775" y2="358.3333333333333" stroke="#dddddd" stroke-width="1.3333333333333333"/><line x1="535.506256969697" y1="32.266666666666666" x2="535.506256969697" y2="358.3333333333333" stroke="#dddddd" stroke-width="1.3333333333333333"/><line x1="28.01333333333333" y1="311.40042636322437" x2="559.6725866666666" y2="311.40042636322437" stroke="#dddddd" stroke-width="0.6666666666666666"/><line x1="28.01333333333333" y1="227.77394062727018" x2="559.6725866666666" y2="227.77394062727018" stroke="#dddddd" stroke-width="0.6666666666666666"/><line x1="28.01333333333333" y1="144.14745489131604" x2="559.6725866666666" y2="144.14745489131604" stroke="#dddddd" stroke-width="0.6666666666666666"/><line x1="28.01333333333333" y1="60.52096915536197" x2="559.6725866666666" y2="60.52096915536197" stroke="#dddddd" stroke-width="0.6666666666666666"/><line x1="28.01333333333333" y1="353.2136692312014" x2="559.6725866666666" y2="353.2136692312014" stroke="#dddddd" stroke-width="1.3333333333333333"/><line x1="28.01333333333333" y1="269.58718349524725" x2="559.6725866666666" y2="269.58718349524725" stroke="#dddddd" stroke-width="1.3333333333333333"/><line x1="28.01333333333333" y1="185.96069775929314" x2="559.6725866666666" y2="185.96069775929314" stroke="#dddddd" stroke-width="1.3333333333333333"/><line x1="28.01333333333333" y1="102.334212023339" x2="559.6725866666666" y2="102.334212023339" stroke="#dddddd" stroke-width="1.3333333333333333"/><rect x="28.01333333333333" y="32.266666666666666" width="531.6592533333333" height="326.06666666666666" fill="#ffffff" fill-opacity="0.0" stroke="#444444" stroke-width="1.3333333333333333"/><line x1="153.9326301754386" y1="358.3333333333333" x2="153.9326301754386" y2="362.0" stroke="#444444" stroke-width="1.3333333333333333"/><text x="153.9326301754386" y="374.32" fill="#333333" font-size="11.733333333333334" font-family="sans-serif" text-anchor="middle">5</text><line x1="281.123839106858" y1="358.3333333333333" x2="281.123839106858" y2="362.0" stroke="#444444" stroke-width="1.3333333333333333"/><text x="281.123839106858" y="374.32" fill="#333333" font-size="11.733333333333334" font-family="sans-serif" text-anchor="middle">10</text><line x1="408.3150480382775" y1="358.3333333333333" x2="408.3150480382775" y2="362.0" stroke="#444444" stroke-width="1.3333333333333333"/><text x="408.3150480382775" y="374.32" fill="#333333" font-size="11.733333333333334" font-family="sans-serif" text-anchor="middle">15</text><line x1="535.506256969697" y1="358.3333333333333" x2="535.506256969697" y2="362.0" stroke="#444444" stroke-width="1.3333333333333333"/><text x="535.506256969697" y="374.32" fill="#333333" font-size="11.733333333333334" font-family="sans-serif" text-anchor="middle">20</text><line x1="28.01333333333333" y1="353.2136692312014" x2="24.346666666666664" y2="353.2136692312014" stroke="#444444" stroke-width="1.3333333333333333"/><text x="21.41333333333333" y="357.32033589786806" fill="#333333" font-size="11.733333333333334" font-family="sans-serif" text-anchor="end">0</text><line x1="28.01333333333333" y1="269.58718349524725" x2="24.346666666666664" y2="269.58718349524725" stroke="#444444" stroke-width="1.3333333333333333"/><text x="21.41333333333333" y="273.69385016191393" fill="#333333" font-size="11.733333333333334" font-family="sans-serif" text-anchor="end">20</text><line x1="28.01333333333333" y1="185.96069775929314" x2="24.346666666666664" y2="185.96069775929314" stroke="#444444" stroke-width="1.3333333333333333"/><text x="21.41333333333333" y="190.06736442595982" fill="#333333" font-size="11.733333333333334" font-family="sans-serif" text-anchor="end">40</text><line x1="28.01333333333333" y1="102.334212023339" x2="24.346666666666664" y2="102.334212023339" stroke="#444444" stroke-width="1.3333333333333333"/><text x="21.41333333333333" y="106.44087869000568" fill="#333333" font-size="11.733333333333334" font-family="sans-serif" text-anchor="end">60</text><text x="28.01333333333333" y="21.413333333333334" fill="#333333" font-size="17.599999999999998" font-family="sans-serif" text-anchor="start">stat-in: group 別 lm (statLm &lt;&gt; colorBy g)</text><circle cx="52.17966303030303" cy="330.6654591489171" r="3.1181102362204727" fill="#F8766D" fill-opacity="0.85" stroke="none"><title>(1, 5.392600175375)</title></circle><circle cx="77.61790481658693" cy="337.4238003161481" r="3.1181102362204727" fill="#F8766D" fill-opacity="0.85" stroke="none"><title>(2, 3.776284218115)</title></circle><circle cx="103.05614660287081" cy="330.64025103432004" r="3.1181102362204727" fill="#F8766D" fill-opacity="0.85" stroke="none"><title>(3, 5.398628914805)</title></circle><circle cx="128.4943883891547" cy="311.6687028721507" r="3.1181102362204727" fill="#F8766D" fill-opacity="0.85" stroke="none"><title>(4, 9.935839344063)</title></circle><circle cx="153.9326301754386" cy="314.1195509169572" r="3.1181102362204727" fill="#F8766D" fill-opacity="0.85" stroke="none"><title>(5, 9.349697759076)</title></circle><circle cx="179.37087196172251" cy="314.9071234602419" r="3.1181102362204727" fill="#F8766D" fill-opacity="0.85" stroke="none"><title>(6, 9.161342948671)</title></circle><circle cx="204.80911374800635" cy="295.34773902947404" r="3.1181102362204727" fill="#F8766D" fill-opacity="0.85" stroke="none"><title>(7, 13.839139524393)</title></circle><circle cx="230.24735553429028" cy="290.6075479144916" r="3.1181102362204727" fill="#F8766D" fill-opacity="0.85" stroke="none"><title>(8, 14.972797377708)</title></circle><circle cx="255.68559732057417" cy="296.6325325969081" r="3.1181102362204727" fill="#F8766D" fill-opacity="0.85" stroke="none"><title>(9, 13.531869989837)</title></circle><circle cx="281.123839106858" cy="280.877785922038" r="3.1181102362204727" fill="#F8766D" fill-opacity="0.85" stroke="none"><title>(10, 17.299754419326)</title></circle><circle cx="306.5620808931419" cy="268.4401832835703" r="3.1181102362204727" fill="#F8766D" fill-opacity="0.85" stroke="none"><title>(11, 20.274315057385)</title></circle><circle cx="332.00032267942584" cy="275.6375158848844" r="3.1181102362204727" fill="#F8766D" fill-opacity="0.85" stroke="none"><title>(12, 18.553010487912)</title></circle><circle cx="357.43856446570965" cy="266.82216503167217" r="3.1181102362204727" fill="#F8766D" fill-opacity="0.85" stroke="none"><title>(13, 20.661278167854)</title></circle><circle cx="382.87680625199357" cy="248.72534593535056" r="3.1181102362204727" fill="#F8766D" fill-opacity="0.85" stroke="none"><title>(14, 24.989289547756)</title></circle><circle cx="408.3150480382775" cy="252.64241398989967" r="3.1181102362204727" fill="#F8766D" fill-opacity="0.85" stroke="none"><title>(15, 24.052488719626)</title></circle><circle cx="433.75328982456136" cy="251.60723020358404" r="3.1181102362204727" fill="#F8766D" fill-opacity="0.85" stroke="none"><title>(16, 24.300061908241)</title></circle><circle cx="459.1915316108453" cy="231.76018197166198" r="3.1181102362204727" fill="#F8766D" fill-opacity="0.85" stroke="none"><title>(17, 29.046655779132)</title></circle><circle cx="484.62977339712916" cy="229.02874459763467" r="3.1181102362204727" fill="#F8766D" fill-opacity="0.85" stroke="none"><title>(18, 29.699902737913)</title></circle><circle cx="510.0680151834131" cy="234.04257482750774" r="3.1181102362204727" fill="#F8766D" fill-opacity="0.85" stroke="none"><title>(19, 28.500801714894)</title></circle><circle cx="535.506256969697" cy="216.93286578167226" r="3.1181102362204727" fill="#F8766D" fill-opacity="0.85" stroke="none"><title>(20, 32.592737157419)</title></circle><circle cx="52.17966303030303" cy="322.30281057532164" r="3.1181102362204727" fill="#00BFC4" fill-opacity="0.85" stroke="none"><title>(1, 7.392600175375)</title></circle><circle cx="77.61790481658693" cy="320.69850316895725" r="3.1181102362204727" fill="#00BFC4" fill-opacity="0.85" stroke="none"><title>(2, 7.776284218115)</title></circle><circle cx="103.05614660287081" cy="305.5523053135338" r="3.1181102362204727" fill="#00BFC4" fill-opacity="0.85" stroke="none"><title>(3, 11.398628914805)</title></circle><circle cx="128.4943883891547" cy="278.21810857776904" r="3.1181102362204727" fill="#00BFC4" fill-opacity="0.85" stroke="none"><title>(4, 17.935839344063)</title></circle><circle cx="153.9326301754386" cy="272.30630804898016" r="3.1181102362204727" fill="#00BFC4" fill-opacity="0.85" stroke="none"><title>(5, 19.349697759076)</title></circle><circle cx="179.37087196172251" cy="264.7312320186694" r="3.1181102362204727" fill="#00BFC4" fill-opacity="0.85" stroke="none"><title>(6, 21.161342948671)</title></circle><circle cx="204.80911374800635" cy="236.80919901430616" r="3.1181102362204727" fill="#00BFC4" fill-opacity="0.85" stroke="none"><title>(7, 27.839139524393)</title></circle><circle cx="230.24735553429028" cy="223.7063593257283" r="3.1181102362204727" fill="#00BFC4" fill-opacity="0.85" stroke="none"><title>(8, 30.972797377708)</title></circle><circle cx="255.68559732057417" cy="221.3686954345494" r="3.1181102362204727" fill="#00BFC4" fill-opacity="0.85" stroke="none"><title>(9, 31.531869989837)</title></circle><circle cx="281.123839106858" cy="197.25130018608388" r="3.1181102362204727" fill="#00BFC4" fill-opacity="0.85" stroke="none"><title>(10, 37.299754419326)</title></circle><circle cx="306.5620808931419" cy="176.45104897402075" r="3.1181102362204727" fill="#00BFC4" fill-opacity="0.85" stroke="none"><title>(11, 42.274315057385)</title></circle><circle cx="332.00032267942584" cy="175.28573300173946" r="3.1181102362204727" fill="#00BFC4" fill-opacity="0.85" stroke="none"><title>(12, 42.553010487912)</title></circle><circle cx="357.43856446570965" cy="158.1077335749318" r="3.1181102362204727" fill="#00BFC4" fill-opacity="0.85" stroke="none"><title>(13, 46.661278167854)</title></circle><circle cx="382.87680625199357" cy="131.6482659050147" r="3.1181102362204727" fill="#00BFC4" fill-opacity="0.85" stroke="none"><title>(14, 52.989289547756)</title></circle><circle cx="408.3150480382775" cy="127.20268538596841" r="3.1181102362204727" fill="#00BFC4" fill-opacity="0.85" stroke="none"><title>(15, 54.052488719626)</title></circle><circle cx="433.75328982456136" cy="117.80485302605746" r="3.1181102362204727" fill="#00BFC4" fill-opacity="0.85" stroke="none"><title>(16, 56.300061908241)</title></circle><circle cx="459.1915316108453" cy="89.59515622053989" r="3.1181102362204727" fill="#00BFC4" fill-opacity="0.85" stroke="none"><title>(17, 63.046655779132)</title></circle><circle cx="484.62977339712916" cy="78.50107027291725" r="3.1181102362204727" fill="#00BFC4" fill-opacity="0.85" stroke="none"><title>(18, 65.699902737913)</title></circle><circle cx="510.0680151834131" cy="75.1522519291949" r="3.1181102362204727" fill="#00BFC4" fill-opacity="0.85" stroke="none"><title>(19, 66.500801714894)</title></circle><circle cx="535.506256969697" cy="49.679894309763995" r="3.1181102362204727" fill="#00BFC4" fill-opacity="0.85" stroke="none"><title>(20, 72.592737157419)</title></circle><path d="M 52.17966303030303 343.5121212121212 L 77.61790481658693 336.8806080110517 L 103.05614660287081 330.2648022440278 L 128.4943883891547 323.6691036123184 L 153.9326301754386 317.09935544709606 L 179.37087196172251 310.56323316646655 L 204.80911374800635 304.07053616508557 L 230.24735553429028 297.63308072746236 L 255.68559732057417 291.2637017049444 L 281.123839106858 284.97395002188154 L 306.5620808931419 278.7708615200252 L 332.00032267942584 272.6544361993756 L 357.43856446570965 266.61763821818096 L 382.87680625199357 260.64891665209154 L 408.3150480382775 254.73543664975995 L 433.75328982456136 248.8653819266769 L 459.1915316108453 243.02895308818665 L 484.62977339712916 237.2184747161835 L 510.0680151834131 231.42810347949484 L 535.506256969697 225.65343967685172 L 535.506256969697 214.3408502597872 L 510.0680151834131 220.97236346085666 L 484.62977339712916 227.5881692278806 L 459.1915316108453 234.18386785959 L 433.75328982456136 240.75361602481235 L 408.3150480382775 247.28973830544183 L 382.87680625199357 253.7824353068228 L 357.43856446570965 260.21989074444605 L 332.00032267942584 266.5892697669639 L 306.5620808931419 272.8790214500268 L 281.123839106858 279.0821099518831 L 255.68559732057417 285.1985352725328 L 230.24735553429028 291.23533325372745 L 204.80911374800635 297.2040548198168 L 179.37087196172251 303.1175348221484 L 153.9326301754386 308.9875895452315 L 128.4943883891547 314.82401838372175 L 103.05614660287081 320.63449675572485 L 77.61790481658693 326.4248679924135 L 52.17966303030303 332.19953179505666 Z" fill="#F8766D" fill-opacity="0.2" stroke="none"/><line x1="52.17966303030303" y1="337.8558265035889" x2="77.61790481658693" y2="331.65273800173264" stroke="#F8766D" stroke-width="2.6666666666666665"/><line x1="77.61790481658693" y1="331.65273800173264" x2="103.05614660287081" y2="325.4496494998764" stroke="#F8766D" stroke-width="2.6666666666666665"/><line x1="103.05614660287081" y1="325.4496494998764" x2="128.4943883891547" y2="319.2465609980201" stroke="#F8766D" stroke-width="2.6666666666666665"/><line x1="128.4943883891547" y1="319.2465609980201" x2="153.9326301754386" y2="313.04347249616376" stroke="#F8766D" stroke-width="2.6666666666666665"/><line x1="153.9326301754386" y1="313.04347249616376" x2="179.37087196172251" y2="306.84038399430744" stroke="#F8766D" stroke-width="2.6666666666666665"/><line x1="179.37087196172251" y1="306.84038399430744" x2="204.80911374800635" y2="300.6372954924512" stroke="#F8766D" stroke-width="2.6666666666666665"/><line x1="204.80911374800635" y1="300.6372954924512" x2="230.24735553429028" y2="294.43420699059493" stroke="#F8766D" stroke-width="2.6666666666666665"/><line x1="230.24735553429028" y1="294.43420699059493" x2="255.68559732057417" y2="288.2311184887386" stroke="#F8766D" stroke-width="2.6666666666666665"/><line x1="255.68559732057417" y1="288.2311184887386" x2="281.123839106858" y2="282.0280299868823" stroke="#F8766D" stroke-width="2.6666666666666665"/><line x1="281.123839106858" y1="282.0280299868823" x2="306.5620808931419" y2="275.82494148502605" stroke="#F8766D" stroke-width="2.6666666666666665"/><line x1="306.5620808931419" y1="275.82494148502605" x2="332.00032267942584" y2="269.62185298316973" stroke="#F8766D" stroke-width="2.6666666666666665"/><line x1="332.00032267942584" y1="269.62185298316973" x2="357.43856446570965" y2="263.4187644813135" stroke="#F8766D" stroke-width="2.6666666666666665"/><line x1="357.43856446570965" y1="263.4187644813135" x2="382.87680625199357" y2="257.21567597945716" stroke="#F8766D" stroke-width="2.6666666666666665"/><line x1="382.87680625199357" y1="257.21567597945716" x2="408.3150480382775" y2="251.0125874776009" stroke="#F8766D" stroke-width="2.6666666666666665"/><line x1="408.3150480382775" y1="251.0125874776009" x2="433.75328982456136" y2="244.8094989757446" stroke="#F8766D" stroke-width="2.6666666666666665"/><line x1="433.75328982456136" y1="244.8094989757446" x2="459.1915316108453" y2="238.60641047388833" stroke="#F8766D" stroke-width="2.6666666666666665"/><line x1="459.1915316108453" y1="238.60641047388833" x2="484.62977339712916" y2="232.40332197203202" stroke="#F8766D" stroke-width="2.6666666666666665"/><line x1="484.62977339712916" y1="232.40332197203202" x2="510.0680151834131" y2="226.20023347017573" stroke="#F8766D" stroke-width="2.6666666666666665"/><line x1="510.0680151834131" y1="226.20023347017573" x2="535.506256969697" y2="219.99714496831945" stroke="#F8766D" stroke-width="2.6666666666666665"/><path d="M 52.17966303030303 335.14947263852576 L 77.61790481658693 320.1553108638609 L 103.05614660287081 305.17685652324155 L 128.4943883891547 290.2185093179367 L 153.9326301754386 275.28611257911894 L 179.37087196172251 260.387341724894 L 204.80911374800635 245.53199614991763 L 230.24735553429028 230.731892138699 L 255.68559732057417 215.99986454258567 L 281.123839106858 201.34746428592734 L 306.5620808931419 186.78172721047565 L 332.00032267942584 172.30265331623053 L 357.43856446570965 157.90320676144043 L 382.87680625199357 143.5718366217557 L 408.3150480382775 129.29570804582866 L 433.75328982456136 115.06300474915011 L 459.1915316108453 100.86392733706448 L 484.62977339712916 86.69080039146593 L 510.0680151834131 72.53778058118185 L 535.506256969697 58.400468204943266 L 535.506256969697 47.08787878787874 L 510.0680151834131 62.082040562543625 L 484.62977339712916 77.060494903163 L 459.1915316108453 92.01884210846784 L 433.75328982456136 106.9512388472856 L 408.3150480382775 121.85000970151054 L 382.87680625199357 136.7053552764869 L 357.43856446570965 151.5054592877055 L 332.00032267942584 166.2374868838189 L 306.5620808931419 180.8898871404772 L 281.123839106858 195.4556242159289 L 255.68559732057417 209.934698110174 L 230.24735553429028 224.33414466496407 L 204.80911374800635 238.66551480464886 L 179.37087196172251 252.9416433805759 L 153.9326301754386 267.1743466772544 L 128.4943883891547 281.37342408934006 L 103.05614660287081 295.5465510349386 L 77.61790481658693 309.6995708452227 L 52.17966303030303 323.8368832214612 Z" fill="#00BFC4" fill-opacity="0.2" stroke="none"/><line x1="52.17966303030303" y1="329.4931779299935" x2="77.61790481658693" y2="314.9274408545418" stroke="#00BFC4" stroke-width="2.6666666666666665"/><line x1="77.61790481658693" y1="314.9274408545418" x2="103.05614660287081" y2="300.3617037790901" stroke="#00BFC4" stroke-width="2.6666666666666665"/><line x1="103.05614660287081" y1="300.3617037790901" x2="128.4943883891547" y2="285.7959667036384" stroke="#00BFC4" stroke-width="2.6666666666666665"/><line x1="128.4943883891547" y1="285.7959667036384" x2="153.9326301754386" y2="271.23022962818663" stroke="#00BFC4" stroke-width="2.6666666666666665"/><line x1="153.9326301754386" y1="271.23022962818663" x2="179.37087196172251" y2="256.66449255273494" stroke="#00BFC4" stroke-width="2.6666666666666665"/><line x1="179.37087196172251" y1="256.66449255273494" x2="204.80911374800635" y2="242.09875547728325" stroke="#00BFC4" stroke-width="2.6666666666666665"/><line x1="204.80911374800635" y1="242.09875547728325" x2="230.24735553429028" y2="227.53301840183155" stroke="#00BFC4" stroke-width="2.6666666666666665"/><line x1="230.24735553429028" y1="227.53301840183155" x2="255.68559732057417" y2="212.96728132637986" stroke="#00BFC4" stroke-width="2.6666666666666665"/><line x1="255.68559732057417" y1="212.96728132637986" x2="281.123839106858" y2="198.4015442509281" stroke="#00BFC4" stroke-width="2.6666666666666665"/><line x1="281.123839106858" y1="198.4015442509281" x2="306.5620808931419" y2="183.8358071754764" stroke="#00BFC4" stroke-width="2.6666666666666665"/><line x1="306.5620808931419" y1="183.8358071754764" x2="332.00032267942584" y2="169.27007010002472" stroke="#00BFC4" stroke-width="2.6666666666666665"/><line x1="332.00032267942584" y1="169.27007010002472" x2="357.43856446570965" y2="154.70433302457297" stroke="#00BFC4" stroke-width="2.6666666666666665"/><line x1="357.43856446570965" y1="154.70433302457297" x2="382.87680625199357" y2="140.1385959491213" stroke="#00BFC4" stroke-width="2.6666666666666665"/><line x1="382.87680625199357" y1="140.1385959491213" x2="408.3150480382775" y2="125.57285887366959" stroke="#00BFC4" stroke-width="2.6666666666666665"/><line x1="408.3150480382775" y1="125.57285887366959" x2="433.75328982456136" y2="111.00712179821785" stroke="#00BFC4" stroke-width="2.6666666666666665"/><line x1="433.75328982456136" y1="111.00712179821785" x2="459.1915316108453" y2="96.44138472276616" stroke="#00BFC4" stroke-width="2.6666666666666665"/><line x1="459.1915316108453" y1="96.44138472276616" x2="484.62977339712916" y2="81.87564764731447" stroke="#00BFC4" stroke-width="2.6666666666666665"/><line x1="484.62977339712916" y1="81.87564764731447" x2="510.0680151834131" y2="67.30991057186273" stroke="#00BFC4" stroke-width="2.6666666666666665"/><line x1="510.0680151834131" y1="67.30991057186273" x2="535.506256969697" y2="52.74417349641101" stroke="#00BFC4" stroke-width="2.6666666666666665"/><rect x="574.3392533333333" y="172.18592" width="23.114079999999994" height="46.22815999999999" fill="#ffffff" fill-opacity="1.0" stroke="none"/><circle cx="585.8962933333332" cy="183.74295999999998" r="3.1181102362204727" fill="#F8766D" fill-opacity="1.0" stroke="none"/><text x="601.1199999999999" y="187.49762666666666" fill="#333333" font-size="11.733333333333334" font-family="sans-serif" text-anchor="start">A</text><circle cx="585.8962933333332" cy="206.85703999999998" r="3.1181102362204727" fill="#00BFC4" fill-opacity="1.0" stroke="none"/><text x="601.1199999999999" y="210.61170666666663" fill="#333333" font-size="11.733333333333334" font-family="sans-serif" text-anchor="start">B</text></svg>