<svg xmlns="http://www.w3.org/2000/svg" width="624" height="384" viewBox="0 0 624 384"><rect x="0.0" y="0.0" width="624.0" height="384.0" fill="#ffffff" fill-opacity="1.0" stroke="none"/><line x1="69.6352861952862" y1="7.333333333333333" x2="69.6352861952862" y2="358.3333333333333" stroke="#dddddd" stroke-width="0.6666666666666666"/><line x1="218.28511784511787" y1="7.333333333333333" x2="218.28511784511787" y2="358.3333333333333" stroke="#dddddd" stroke-width="0.6666666666666666"/><line x1="366.9349494949496" y1="7.333333333333333" x2="366.9349494949496" y2="358.3333333333333" stroke="#dddddd" stroke-width="0.6666666666666666"/><line x1="515.5847811447811" y1="7.333333333333333" x2="515.5847811447811" y2="358.3333333333333" stroke="#dddddd" stroke-width="0.6666666666666666"/><line x1="143.96020202020202" y1="7.333333333333333" x2="143.96020202020202" y2="358.3333333333333" stroke="#dddddd" stroke-width="1.3333333333333333"/><line x1="292.61003367003366" y1="7.333333333333333" x2="292.61003367003366" y2="358.3333333333333" stroke="#dddddd" stroke-width="1.3333333333333333"/><line x1="441.2598653198653" y1="7.333333333333333" x2="441.2598653198653" y2="358.3333333333333" stroke="#dddddd" stroke-width="1.3333333333333333"/><line x1="589.9096969696969" y1="7.333333333333333" x2="589.9096969696969" y2="358.3333333333333" stroke="#dddddd" stroke-width="1.3333333333333333"/><line x1="28.01333333333333" y1="348.68882368962136" x2="616.6666666666666" y2="348.68882368962136" stroke="#dddddd" stroke-width="0.6666666666666666"/><line x1="28.01333333333333" y1="261.5107064321613" x2="616.6666666666666" y2="261.5107064321613" stroke="#dddddd" stroke-width="0.6666666666666666"/><line x1="28.01333333333333" y1="174.3325891747014" x2="616.6666666666666" y2="174.3325891747014" stroke="#dddddd" stroke-width="0.6666666666666666"/><line x1="28.01333333333333" y1="87.15447191724138" x2="616.6666666666666" y2="87.15447191724138" stroke="#dddddd" stroke-width="0.6666666666666666"/><line x1="28.01333333333333" y1="305.09976506089134" x2="616.6666666666666" y2="305.09976506089134" stroke="#dddddd" stroke-width="1.3333333333333333"/><line x1="28.01333333333333" y1="217.92164780343137" x2="616.6666666666666" y2="217.92164780343137" stroke="#dddddd" stroke-width="1.3333333333333333"/><line x1="28.01333333333333" y1="130.74353054597137" x2="616.6666666666666" y2="130.74353054597137" stroke="#dddddd" stroke-width="1.3333333333333333"/><line x1="28.01333333333333" y1="43.56541328851138" x2="616.6666666666666" y2="43.56541328851138" stroke="#dddddd" stroke-width="1.3333333333333333"/><rect x="28.01333333333333" y="7.333333333333333" width="588.6533333333333" height="351.0" fill="#ffffff" fill-opacity="0.0" stroke="#444444" stroke-width="1.3333333333333333"/><line x1="143.96020202020202" y1="358.3333333333333" x2="143.96020202020202" y2="362.0" stroke="#444444" stroke-width="1.3333333333333333"/><text x="143.96020202020202" y="374.32" fill="#333333" font-size="11.733333333333334" font-family="sans-serif" text-anchor="middle">2.5</text><line x1="292.61003367003366" y1="358.3333333333333" x2="292.61003367003366" y2="362.0" stroke="#444444" stroke-width="1.3333333333333333"/><text x="292.61003367003366" y="374.32" fill="#333333" font-size="11.733333333333334" font-family="sans-serif" text-anchor="middle">5.0</text><line x1="441.2598653198653" y1="358.3333333333333" x2="441.2598653198653" y2="362.0" stroke="#444444" stroke-width="1.3333333333333333"/><text x="441.2598653198653" y="374.32" fill="#333333" font-size="11.733333333333334" font-family="sans-serif" text-anchor="middle">7.5</text><line x1="589.9096969696969" y1="358.3333333333333" x2="589.9096969696969" y2="362.0" stroke="#444444" stroke-width="1.3333333333333333"/><text x="589.9096969696969" y="374.32" fill="#333333" font-size="11.733333333333334" font-family="sans-serif" text-anchor="middle">10.0</text><line x1="28.01333333333333" y1="305.09976506089134" x2="24.346666666666664" y2="305.09976506089134" stroke="#444444" stroke-width="1.3333333333333333"/><text x="21.41333333333333" y="309.206431727558" fill="#333333" font-size="11.733333333333334" font-family="sans-serif" text-anchor="end">5</text><line x1="28.01333333333333" y1="217.92164780343137" x2="24.346666666666664" y2="217.92164780343137" stroke="#444444" stroke-width="1.3333333333333333"/><text x="21.41333333333333" y="222.02831447009805" fill="#333333" font-size="11.733333333333334" font-family="sans-serif" text-anchor="end">10</text><line x1="28.01333333333333" y1="130.74353054597137" x2="24.346666666666664" y2="130.74353054597137" stroke="#444444" stroke-width="1.3333333333333333"/><text x="21.41333333333333" y="134.85019721263802" fill="#333333" font-size="11.733333333333334" font-family="sans-serif" text-anchor="end">15</text><line x1="28.01333333333333" y1="43.56541328851138" x2="24.346666666666664" y2="43.56541328851138" stroke="#444444" stroke-width="1.3333333333333333"/><text x="21.41333333333333" y="47.67207995517805" fill="#333333" font-size="11.733333333333334" font-family="sans-serif" text-anchor="end">20</text><circle cx="54.770303030303026" cy="337.8787371496963" r="3.1181102362204727" fill="#1f77b4" fill-opacity="0.85" stroke="none"><title>(1, 3.12)</title></circle><circle cx="114.23023569023572" cy="306.49461493701074" r="3.1181102362204727" fill="#1f77b4" fill-opacity="0.85" stroke="none"><title>(2, 4.92)</title></circle><circle cx="173.6901683501684" cy="269.35673698533276" r="3.1181102362204727" fill="#1f77b4" fill-opacity="0.85" stroke="none"><title>(3, 7.05)</title></circle><circle cx="233.15010101010105" cy="237.97261477264718" r="3.1181102362204727" fill="#1f77b4" fill-opacity="0.85" stroke="none"><title>(4, 8.85)</title></circle><circle cx="292.61003367003366" cy="198.74246200679016" r="3.1181102362204727" fill="#1f77b4" fill-opacity="0.85" stroke="none"><title>(5, 11.1)</title></circle><circle cx="352.06996632996635" cy="165.09170874541064" r="3.1181102362204727" fill="#1f77b4" fill-opacity="0.85" stroke="none"><title>(6, 13.03)</title></circle><circle cx="411.52989898989904" cy="131.96402418757583" r="3.1181102362204727" fill="#1f77b4" fill-opacity="0.85" stroke="none"><title>(7, 14.93)</title></circle><circle cx="470.9898316498317" cy="93.43129635977853" r="3.1181102362204727" fill="#1f77b4" fill-opacity="0.85" stroke="none"><title>(8, 17.14)</title></circle><circle cx="530.4497643097643" cy="61.69846167806304" r="3.1181102362204727" fill="#1f77b4" fill-opacity="0.85" stroke="none"><title>(9, 18.96)</title></circle><circle cx="589.9096969696969" cy="25.083652429929884" r="3.1181102362204727" fill="#1f77b4" fill-opacity="0.85" stroke="none"><title>(10, 21.06)</title></circle><path d="M 54.770303030303026 342.3787878787879 L 60.175751453933266 339.19295427529164 L 65.58119987756352 335.9895030557104 L 70.98664830119375 332.77802610248466 L 76.392096724824 329.570493380001 L 81.79754514845425 326.34651329163523 L 87.20299357208447 323.13324443334534 L 92.60844199571471 319.9483874020877 L 98.01389041934496 316.73167819798664 L 103.41933884297521 313.4956958597903 L 108.82478726660545 310.26444839017773 L 114.23023569023572 307.05724490518526 L 119.63568411386593 303.81694887876813 L 125.0411325374962 300.60121008997675 L 130.44658096112641 297.4127834285962 L 135.85202938475663 294.22020937850397 L 141.2574778083869 290.98253494228163 L 146.66292623201713 287.77597198044936 L 152.06837465564743 284.56686166799494 L 157.47382307927765 281.36883737385654 L 162.8792715029079 278.2144849788174 L 168.28471992653812 275.00295777499673 L 173.6901683501684 271.77476449144115 L 179.0956167737986 268.54938558543154 L 184.50106519742883 265.443859051152 L 189.90651362105908 262.2724815464114 L 195.3119620446893 259.0660841373332 L 200.71741046831954 255.75966630585674 L 206.12285889194976 252.5866187266105 L 211.52830731558004 249.48873012852488 L 216.93375573921028 246.28928477243983 L 222.3392041628406 243.09057108314693 L 227.7446525864708 239.93590637291987 L 233.15010101010105 236.80179489058116 L 238.55554943373127 233.62141088244215 L 243.96099785736152 230.34473395182673 L 249.3664462809918 227.16898559452503 L 254.771894704622 224.0578580848816 L 260.17734312825223 220.7645301279984 L 265.58279155188245 217.60429104476094 L 270.9882399755127 214.34602724660687 L 276.3936883991429 211.1885701606471 L 281.7991368227732 208.00634695747073 L 287.20458524640344 204.79901816210383 L 292.61003367003366 201.6142754175809 L 298.01548209366393 198.40590614778193 L 303.42093051729415 195.20819280212427 L 308.8263789409244 192.09001191299444 L 314.23182736455465 188.88051335898314 L 319.63727578818487 185.73384012394118 L 325.0427242118152 182.54670559875194 L 330.4481726354454 179.37886246508424 L 335.85362105907564 176.2087653245384 L 341.25906948270585 173.04674044675994 L 346.6645179063362 169.82707318715512 L 352.06996632996635 166.67430112042987 L 357.4754147535966 163.60645583326323 L 362.88086317722684 160.42062497674698 L 368.28631160085706 157.15257339367966 L 373.6917600244873 154.00294006605793 L 379.09720844811756 150.8996352188626 L 384.50265687174783 147.71017588034687 L 389.90810529537805 144.53317064560076 L 395.3135537190083 141.36547758548903 L 400.7190021426386 138.2661484800227 L 406.12445056626876 135.12982812672726 L 411.52989898989904 131.99712361470085 L 416.93534741352926 128.85306289785842 L 422.34079583715953 125.69064429560945 L 427.7462442607898 122.57353828470798 L 433.15169268441997 119.4264869726126 L 438.55714110805025 116.2672789821047 L 443.9625895316806 113.00595638472919 L 449.36803795531074 109.92703523185935 L 454.773486378941 106.68416947758524 L 460.17893480257123 103.56623290199138 L 465.5843832262015 100.40432306535482 L 470.9898316498317 97.29248760896769 L 476.3952800734619 94.11631457017559 L 481.8007284970922 90.95492671590405 L 487.20617692072244 87.81230558032897 L 492.6116253443527 84.68456077645381 L 498.0170737679829 81.53496529825463 L 503.4225221916132 78.41205217470272 L 508.82797061524343 75.28730329459233 L 514.2334190388735 72.13954357295177 L 519.6388674625039 69.0113403040923 L 525.0443158861341 65.93601280865303 L 530.4497643097643 62.79285293306346 L 535.8552127333946 59.58621448559559 L 541.2606611570247 56.4569519105446 L 546.6661095806551 53.32768933549353 L 552.0715580042852 50.233074763921266 L 557.4770064279155 47.10049156463848 L 562.8824548515457 43.93389367952568 L 568.287903275176 40.79073380393602 L 573.6933516988062 37.69190732524271 L 579.0988001224365 34.527800952875126 L 584.5042485460667 31.39212340964074 L 589.9096969696969 28.27808154220478 L 589.9096969696969 23.28787878787879 L 584.5042485460667 26.476568691417164 L 579.0988001224365 29.683459822211717 L 573.6933516988062 32.91383345235113 L 568.287903275176 36.08227247075099 L 562.8824548515457 39.28985361455962 L 557.4770064279155 42.52566948169124 L 552.0715580042852 45.71702938484293 L 546.6661095806551 48.877396150619305 L 541.2606611570247 52.076002413178266 L 535.8552127333946 55.263880314541055 L 530.4497643097643 58.5328936729292 L 525.0443158861341 61.73710239548726 L 519.6388674625039 64.87084450233222 L 514.2334190388735 68.06268054703499 L 508.82797061524343 71.26640463302434 L 503.4225221916132 74.44709429793306 L 498.0170737679829 77.6477512327483 L 492.6116253443527 80.85610184653243 L 487.20617692072244 84.0441316047717 L 481.8007284970922 87.24047656079131 L 476.3952800734619 90.45927053297683 L 470.9898316498317 93.68486906037249 L 465.5843832262015 96.85666313997365 L 460.17893480257123 100.08830708356757 L 454.773486378941 103.25426008786901 L 449.36803795531074 106.53712287536496 L 443.9625895316806 109.66379281662648 L 438.55714110805025 112.9766757115807 L 433.15169268441997 116.19833265724824 L 427.7462442607898 119.39727486714283 L 422.34079583715953 122.5528726620267 L 416.93534741352926 125.76068563271936 L 411.52989898989904 128.9462907531578 L 406.12445056626876 132.11419742726918 L 400.7190021426386 135.29521115206973 L 395.3135537190083 138.42848374086103 L 389.90810529537805 141.63577119394097 L 384.50265687174783 144.8537787558867 L 379.09720844811756 148.05316240890548 L 373.6917600244873 151.17096227503808 L 368.28631160085706 154.3480403893447 L 362.88086317722684 157.64510681237385 L 357.4754147535966 160.83153461260963 L 352.06996632996635 163.93527436167872 L 346.6645179063362 167.09142675647138 L 341.25906948270585 170.31161697562038 L 335.85362105907564 173.48305028120706 L 330.4481726354454 176.67003753328402 L 325.0427242118152 179.83739950583083 L 319.63727578818487 183.0286396241503 L 314.23182736455465 186.18802324897808 L 308.8263789409244 189.389774594741 L 303.42093051729415 192.50379674716842 L 298.01548209366393 195.70172109295905 L 292.61003367003366 198.90359047743414 L 287.20458524640344 202.0817762150544 L 281.7991368227732 205.25811215467573 L 276.3936883991429 208.42516022389015 L 270.9882399755127 211.55287666113338 L 265.58279155188245 214.79096740875028 L 260.17734312825223 217.9267584437576 L 254.771894704622 221.190515612877 L 249.3664462809918 224.26581550742685 L 243.96099785736152 227.41475165934463 L 238.55554943373127 230.65707835854505 L 233.15010101010105 233.79847297455217 L 227.7446525864708 236.8923572747483 L 222.3392041628406 240.01291878897018 L 216.93375573921028 243.17360028472444 L 211.52830731558004 246.32665794686648 L 206.12285889194976 249.37753873866 L 200.71741046831954 252.506816461456 L 195.3119620446893 255.76918023785575 L 189.90651362105908 258.9352431290659 L 184.50106519742883 262.0544693051377 L 179.0956167737986 265.1195068638358 L 173.6901683501684 268.2903173639346 L 168.28471992653812 271.48267523634786 L 162.8792715029079 274.6457060857716 L 157.47382307927765 277.742066949951 L 152.06837465564743 280.88241335611093 L 146.66292623201713 284.03428367960043 L 141.2574778083869 287.18453089513355 L 135.85202938475663 290.35561666332865 L 130.44658096112641 293.4799568081688 L 125.0411325374962 296.6135303933495 L 119.63568411386593 299.7552943249177 L 114.23023569023572 302.92630307874407 L 108.82478726660545 306.06790371432913 L 103.41933884297521 309.21775468805254 L 98.01389041934496 312.3913344315189 L 92.60844199571471 315.5412272917748 L 87.20299357208447 318.65955475336654 L 81.79754514845425 321.80089934864105 L 76.392096724824 324.969524898202 L 70.98664830119375 328.115911968487 L 65.58119987756352 331.25856872363624 L 60.175751453933266 334.39424630313124 L 54.770303030303026 337.5175078372651 Z" fill="#1f77b4" fill-opacity="0.2" stroke="none"/><line x1="54.770303030303026" y1="339.8901126033522" x2="60.175751453933266" y2="336.7161585497853" stroke="#1f77b4" stroke-width="1.4211023622047245"/><line x1="60.175751453933266" y1="336.7161585497853" x2="65.58119987756352" y2="333.54220449621823" stroke="#1f77b4" stroke-width="1.4211023622047245"/><line x1="65.58119987756352" y1="333.54220449621823" x2="70.98664830119375" y2="330.3682504426513" stroke="#1f77b4" stroke-width="1.4211023622047245"/><line x1="70.98664830119375" y1="330.3682504426513" x2="76.392096724824" y2="327.19429638908423" stroke="#1f77b4" stroke-width="1.4211023622047245"/><line x1="76.392096724824" y1="327.19429638908423" x2="81.79754514845425" y2="324.02034233551717" stroke="#1f77b4" stroke-width="1.4211023622047245"/><line x1="81.79754514845425" y1="324.02034233551717" x2="87.20299357208447" y2="320.8463882819501" stroke="#1f77b4" stroke-width="1.4211023622047245"/><line x1="87.20299357208447" y1="320.8463882819501" x2="92.60844199571471" y2="317.6724342283831" stroke="#1f77b4" stroke-width="1.4211023622047245"/><line x1="92.60844199571471" y1="317.6724342283831" x2="98.01389041934496" y2="314.49848017481605" stroke="#1f77b4" stroke-width="1.4211023622047245"/><line x1="98.01389041934496" y1="314.49848017481605" x2="103.41933884297521" y2="311.3245261212488" stroke="#1f77b4" stroke-width="1.4211023622047245"/><line x1="103.41933884297521" y1="311.3245261212488" x2="108.82478726660545" y2="308.15057206768216" stroke="#1f77b4" stroke-width="1.4211023622047245"/><line x1="108.82478726660545" y1="308.15057206768216" x2="114.23023569023572" y2="304.97661801411493" stroke="#1f77b4" stroke-width="1.4211023622047245"/><line x1="114.23023569023572" y1="304.97661801411493" x2="119.63568411386593" y2="301.80266396054793" stroke="#1f77b4" stroke-width="1.4211023622047245"/><line x1="119.63568411386593" y1="301.80266396054793" x2="125.0411325374962" y2="298.6287099069811" stroke="#1f77b4" stroke-width="1.4211023622047245"/><line x1="125.0411325374962" y1="298.6287099069811" x2="130.44658096112641" y2="295.45475585341393" stroke="#1f77b4" stroke-width="1.4211023622047245"/><line x1="130.44658096112641" y1="295.45475585341393" x2="135.85202938475663" y2="292.2808017998469" stroke="#1f77b4" stroke-width="1.4211023622047245"/><line x1="135.85202938475663" y1="292.2808017998469" x2="141.2574778083869" y2="289.10684774627987" stroke="#1f77b4" stroke-width="1.4211023622047245"/><line x1="141.2574778083869" y1="289.10684774627987" x2="146.66292623201713" y2="285.93289369271315" stroke="#1f77b4" stroke-width="1.4211023622047245"/><line x1="146.66292623201713" y1="285.93289369271315" x2="152.06837465564743" y2="282.758939639146" stroke="#1f77b4" stroke-width="1.4211023622047245"/><line x1="152.06837465564743" y1="282.758939639146" x2="157.47382307927765" y2="279.5849855855789" stroke="#1f77b4" stroke-width="1.4211023622047245"/><line x1="157.47382307927765" y1="279.5849855855789" x2="162.8792715029079" y2="276.41103153201203" stroke="#1f77b4" stroke-width="1.4211023622047245"/><line x1="162.8792715029079" y1="276.41103153201203" x2="168.28471992653812" y2="273.2370774784449" stroke="#1f77b4" stroke-width="1.4211023622047245"/><line x1="168.28471992653812" y1="273.2370774784449" x2="173.6901683501684" y2="270.06312342487837" stroke="#1f77b4" stroke-width="1.4211023622047245"/><line x1="173.6901683501684" y1="270.06312342487837" x2="179.0956167737986" y2="266.88916937131086" stroke="#1f77b4" stroke-width="1.4211023622047245"/><line x1="179.0956167737986" y1="266.88916937131086" x2="184.50106519742883" y2="263.71521531774374" stroke="#1f77b4" stroke-width="1.4211023622047245"/><line x1="184.50106519742883" y1="263.71521531774374" x2="189.90651362105908" y2="260.5412612641768" stroke="#1f77b4" stroke-width="1.4211023622047245"/><line x1="189.90651362105908" y1="260.5412612641768" x2="195.3119620446893" y2="257.36730721060997" stroke="#1f77b4" stroke-width="1.4211023622047245"/><line x1="195.3119620446893" y1="257.36730721060997" x2="200.71741046831954" y2="254.19335315704285" stroke="#1f77b4" stroke-width="1.4211023622047245"/><line x1="200.71741046831954" y1="254.19335315704285" x2="206.12285889194976" y2="251.01939910347573" stroke="#1f77b4" stroke-width="1.4211023622047245"/><line x1="206.12285889194976" y1="251.01939910347573" x2="211.52830731558004" y2="247.84544504990905" stroke="#1f77b4" stroke-width="1.4211023622047245"/><line x1="211.52830731558004" y1="247.84544504990905" x2="216.93375573921028" y2="244.6714909963419" stroke="#1f77b4" stroke-width="1.4211023622047245"/><line x1="216.93375573921028" y1="244.6714909963419" x2="222.3392041628406" y2="241.49753694277447" stroke="#1f77b4" stroke-width="1.4211023622047245"/><line x1="222.3392041628406" y1="241.49753694277447" x2="227.7446525864708" y2="238.32358288920753" stroke="#1f77b4" stroke-width="1.4211023622047245"/><line x1="227.7446525864708" y1="238.32358288920753" x2="233.15010101010105" y2="235.14962883564127" stroke="#1f77b4" stroke-width="1.4211023622047245"/><line x1="233.15010101010105" y1="235.14962883564127" x2="238.55554943373127" y2="231.97567478207353" stroke="#1f77b4" stroke-width="1.4211023622047245"/><line x1="238.55554943373127" y1="231.97567478207353" x2="243.96099785736152" y2="228.8017207285066" stroke="#1f77b4" stroke-width="1.4211023622047245"/><line x1="243.96099785736152" y1="228.8017207285066" x2="249.3664462809918" y2="225.62776667493955" stroke="#1f77b4" stroke-width="1.4211023622047245"/><line x1="249.3664462809918" y1="225.62776667493955" x2="254.771894704622" y2="222.4538126213727" stroke="#1f77b4" stroke-width="1.4211023622047245"/><line x1="254.771894704622" y1="222.4538126213727" x2="260.17734312825223" y2="219.27985856780597" stroke="#1f77b4" stroke-width="1.4211023622047245"/><line x1="260.17734312825223" y1="219.27985856780597" x2="265.58279155188245" y2="216.10590451423923" stroke="#1f77b4" stroke-width="1.4211023622047245"/><line x1="265.58279155188245" y1="216.10590451423923" x2="270.9882399755127" y2="212.931950460672" stroke="#1f77b4" stroke-width="1.4211023622047245"/><line x1="270.9882399755127" y1="212.931950460672" x2="276.3936883991429" y2="209.75799640710534" stroke="#1f77b4" stroke-width="1.4211023622047245"/><line x1="276.3936883991429" y1="209.75799640710534" x2="281.7991368227732" y2="206.5840423535381" stroke="#1f77b4" stroke-width="1.4211023622047245"/><line x1="281.7991368227732" y1="206.5840423535381" x2="287.20458524640344" y2="203.41008829997105" stroke="#1f77b4" stroke-width="1.4211023622047245"/><line x1="287.20458524640344" y1="203.41008829997105" x2="292.61003367003366" y2="200.2361342464037" stroke="#1f77b4" stroke-width="1.4211023622047245"/><line x1="292.61003367003366" y1="200.2361342464037" x2="298.01548209366393" y2="197.06218019283668" stroke="#1f77b4" stroke-width="1.4211023622047245"/><line x1="298.01548209366393" y1="197.06218019283668" x2="303.42093051729415" y2="193.8882261392701" stroke="#1f77b4" stroke-width="1.4211023622047245"/><line x1="303.42093051729415" y1="193.8882261392701" x2="308.8263789409244" y2="190.71427208570267" stroke="#1f77b4" stroke-width="1.4211023622047245"/><line x1="308.8263789409244" y1="190.71427208570267" x2="314.23182736455465" y2="187.54031803213536" stroke="#1f77b4" stroke-width="1.4211023622047245"/><line x1="314.23182736455465" y1="187.54031803213536" x2="319.63727578818487" y2="184.36636397856932" stroke="#1f77b4" stroke-width="1.4211023622047245"/><line x1="319.63727578818487" y1="184.36636397856932" x2="325.0427242118152" y2="181.19240992500113" stroke="#1f77b4" stroke-width="1.4211023622047245"/><line x1="325.0427242118152" y1="181.19240992500113" x2="330.4481726354454" y2="178.018455871435" stroke="#1f77b4" stroke-width="1.4211023622047245"/><line x1="330.4481726354454" y1="178.018455871435" x2="335.85362105907564" y2="174.8445018178681" stroke="#1f77b4" stroke-width="1.4211023622047245"/><line x1="335.85362105907564" y1="174.8445018178681" x2="341.25906948270585" y2="171.6705477643011" stroke="#1f77b4" stroke-width="1.4211023622047245"/><line x1="341.25906948270585" y1="171.6705477643011" x2="346.6645179063362" y2="168.49659371073398" stroke="#1f77b4" stroke-width="1.4211023622047245"/><line x1="346.6645179063362" y1="168.49659371073398" x2="352.06996632996635" y2="165.3226396571659" stroke="#1f77b4" stroke-width="1.4211023622047245"/><line x1="352.06996632996635" y1="165.3226396571659" x2="357.4754147535966" y2="162.14868560360063" stroke="#1f77b4" stroke-width="1.4211023622047245"/><line x1="357.4754147535966" y1="162.14868560360063" x2="362.88086317722684" y2="158.97473155003266" stroke="#1f77b4" stroke-width="1.4211023622047245"/><line x1="362.88086317722684" y1="158.97473155003266" x2="368.28631160085706" y2="155.80077749646526" stroke="#1f77b4" stroke-width="1.4211023622047245"/><line x1="368.28631160085706" y1="155.80077749646526" x2="373.6917600244873" y2="152.6268234428989" stroke="#1f77b4" stroke-width="1.4211023622047245"/><line x1="373.6917600244873" y1="152.6268234428989" x2="379.09720844811756" y2="149.45286938933216" stroke="#1f77b4" stroke-width="1.4211023622047245"/><line x1="379.09720844811756" y1="149.45286938933216" x2="384.50265687174783" y2="146.278915335764" stroke="#1f77b4" stroke-width="1.4211023622047245"/><line x1="384.50265687174783" y1="146.278915335764" x2="389.90810529537805" y2="143.10496128219702" stroke="#1f77b4" stroke-width="1.4211023622047245"/><line x1="389.90810529537805" y1="143.10496128219702" x2="395.3135537190083" y2="139.93100722863107" stroke="#1f77b4" stroke-width="1.4211023622047245"/><line x1="395.3135537190083" y1="139.93100722863107" x2="400.7190021426386" y2="136.75705317506396" stroke="#1f77b4" stroke-width="1.4211023622047245"/><line x1="400.7190021426386" y1="136.75705317506396" x2="406.12445056626876" y2="133.58309912149662" stroke="#1f77b4" stroke-width="1.4211023622047245"/><line x1="406.12445056626876" y1="133.58309912149662" x2="411.52989898989904" y2="130.40914506793024" stroke="#1f77b4" stroke-width="1.4211023622047245"/><line x1="411.52989898989904" y1="130.40914506793024" x2="416.93534741352926" y2="127.23519101436268" stroke="#1f77b4" stroke-width="1.4211023622047245"/><line x1="416.93534741352926" y1="127.23519101436268" x2="422.34079583715953" y2="124.0612369607951" stroke="#1f77b4" stroke-width="1.4211023622047245"/><line x1="422.34079583715953" y1="124.0612369607951" x2="427.7462442607898" y2="120.8872829072285" stroke="#1f77b4" stroke-width="1.4211023622047245"/><line x1="427.7462442607898" y1="120.8872829072285" x2="433.15169268441997" y2="117.71332885366124" stroke="#1f77b4" stroke-width="1.4211023622047245"/><line x1="433.15169268441997" y1="117.71332885366124" x2="438.55714110805025" y2="114.5393748000943" stroke="#1f77b4" stroke-width="1.4211023622047245"/><line x1="438.55714110805025" y1="114.5393748000943" x2="443.9625895316806" y2="111.36542074652678" stroke="#1f77b4" stroke-width="1.4211023622047245"/><line x1="443.9625895316806" y1="111.36542074652678" x2="449.36803795531074" y2="108.1914666929606" stroke="#1f77b4" stroke-width="1.4211023622047245"/><line x1="449.36803795531074" y1="108.1914666929606" x2="454.773486378941" y2="105.01751263939391" stroke="#1f77b4" stroke-width="1.4211023622047245"/><line x1="454.773486378941" y1="105.01751263939391" x2="460.17893480257123" y2="101.84355858582633" stroke="#1f77b4" stroke-width="1.4211023622047245"/><line x1="460.17893480257123" y1="101.84355858582633" x2="465.5843832262015" y2="98.6696045322603" stroke="#1f77b4" stroke-width="1.4211023622047245"/><line x1="465.5843832262015" y1="98.6696045322603" x2="470.9898316498317" y2="95.49565047869244" stroke="#1f77b4" stroke-width="1.4211023622047245"/><line x1="470.9898316498317" y1="95.49565047869244" x2="476.3952800734619" y2="92.32169642512493" stroke="#1f77b4" stroke-width="1.4211023622047245"/><line x1="476.3952800734619" y1="92.32169642512493" x2="481.8007284970922" y2="89.14774237155783" stroke="#1f77b4" stroke-width="1.4211023622047245"/><line x1="481.8007284970922" y1="89.14774237155783" x2="487.20617692072244" y2="85.97378831799134" stroke="#1f77b4" stroke-width="1.4211023622047245"/><line x1="487.20617692072244" y1="85.97378831799134" x2="492.6116253443527" y2="82.79983426442519" stroke="#1f77b4" stroke-width="1.4211023622047245"/><line x1="492.6116253443527" y1="82.79983426442519" x2="498.0170737679829" y2="79.62588021085753" stroke="#1f77b4" stroke-width="1.4211023622047245"/><line x1="498.0170737679829" y1="79.62588021085753" x2="503.4225221916132" y2="76.45192615728936" stroke="#1f77b4" stroke-width="1.4211023622047245"/><line x1="503.4225221916132" y1="76.45192615728936" x2="508.82797061524343" y2="73.27797210372303" stroke="#1f77b4" stroke-width="1.4211023622047245"/><line x1="508.82797061524343" y1="73.27797210372303" x2="514.2334190388735" y2="70.10401805015752" stroke="#1f77b4" stroke-width="1.4211023622047245"/><line x1="514.2334190388735" y1="70.10401805015752" x2="519.6388674625039" y2="66.93006399658887" stroke="#1f77b4" stroke-width="1.4211023622047245"/><line x1="519.6388674625039" y1="66.93006399658887" x2="525.0443158861341" y2="63.75610994302216" stroke="#1f77b4" stroke-width="1.4211023622047245"/><line x1="525.0443158861341" y1="63.75610994302216" x2="530.4497643097643" y2="60.58215588945427" stroke="#1f77b4" stroke-width="1.4211023622047245"/><line x1="530.4497643097643" y1="60.58215588945427" x2="535.8552127333946" y2="57.40820183588895" stroke="#1f77b4" stroke-width="1.4211023622047245"/><line x1="535.8552127333946" y1="57.40820183588895" x2="541.2606611570247" y2="54.23424778232095" stroke="#1f77b4" stroke-width="1.4211023622047245"/><line x1="541.2606611570247" y1="54.23424778232095" x2="546.6661095806551" y2="51.060293728753585" stroke="#1f77b4" stroke-width="1.4211023622047245"/><line x1="546.6661095806551" y1="51.060293728753585" x2="552.0715580042852" y2="47.886339675186946" stroke="#1f77b4" stroke-width="1.4211023622047245"/><line x1="552.0715580042852" y1="47.886339675186946" x2="557.4770064279155" y2="44.71238562162049" stroke="#1f77b4" stroke-width="1.4211023622047245"/><line x1="557.4770064279155" y1="44.71238562162049" x2="562.8824548515457" y2="41.53843156805324" stroke="#1f77b4" stroke-width="1.4211023622047245"/><line x1="562.8824548515457" y1="41.53843156805324" x2="568.287903275176" y2="38.36447751448668" stroke="#1f77b4" stroke-width="1.4211023622047245"/><line x1="568.287903275176" y1="38.36447751448668" x2="573.6933516988062" y2="35.19052346091901" stroke="#1f77b4" stroke-width="1.4211023622047245"/><line x1="573.6933516988062" y1="35.19052346091901" x2="579.0988001224365" y2="32.016569407351724" stroke="#1f77b4" stroke-width="1.4211023622047245"/><line x1="579.0988001224365" y1="32.016569407351724" x2="584.5042485460667" y2="28.842615353784254" stroke="#1f77b4" stroke-width="1.4211023622047245"/><line x1="584.5042485460667" y1="28.842615353784254" x2="589.9096969696969" y2="25.668661300218787" stroke="#1f77b4" stroke-width="1.4211023622047245"/></svg>