<svg xmlns="http://www.w3.org/2000/svg" width="800" height="600" viewBox="0 0 800 600"><rect x="0.0" y="0.0" width="800.0" height="600.0" fill="#ffffff" fill-opacity="1.0" stroke="none"/><line x1="78.15454545454546" y1="5.5" x2="78.15454545454546" y2="578.55" stroke="#dddddd" stroke-width="0.5"/><line x1="272.8136363636364" y1="5.5" x2="272.8136363636364" y2="578.55" stroke="#dddddd" stroke-width="0.5"/><line x1="467.47272727272735" y1="5.5" x2="467.47272727272735" y2="578.55" stroke="#dddddd" stroke-width="0.5"/><line x1="662.1318181818182" y1="5.5" x2="662.1318181818182" y2="578.55" stroke="#dddddd" stroke-width="0.5"/><line x1="175.48409090909092" y1="5.5" x2="175.48409090909092" y2="578.55" stroke="#dddddd" stroke-width="1.0"/><line x1="370.14318181818186" y1="5.5" x2="370.14318181818186" y2="578.55" stroke="#dddddd" stroke-width="1.0"/><line x1="564.8022727272728" y1="5.5" x2="564.8022727272728" y2="578.55" stroke="#dddddd" stroke-width="1.0"/><line x1="759.4613636363637" y1="5.5" x2="759.4613636363637" y2="578.55" stroke="#dddddd" stroke-width="1.0"/><line x1="23.65" y1="563.1478914057757" x2="794.5" y2="563.1478914057757" stroke="#dddddd" stroke-width="0.5"/><line x1="23.65" y1="420.7793210955315" x2="794.5" y2="420.7793210955315" stroke="#dddddd" stroke-width="0.5"/><line x1="23.65" y1="278.4107507852872" x2="794.5" y2="278.4107507852872" stroke="#dddddd" stroke-width="0.5"/><line x1="23.65" y1="136.04218047504298" x2="794.5" y2="136.04218047504298" stroke="#dddddd" stroke-width="0.5"/><line x1="23.65" y1="491.9636062506536" x2="794.5" y2="491.9636062506536" stroke="#dddddd" stroke-width="1.0"/><line x1="23.65" y1="349.59503594040933" x2="794.5" y2="349.59503594040933" stroke="#dddddd" stroke-width="1.0"/><line x1="23.65" y1="207.22646563016514" x2="794.5" y2="207.22646563016514" stroke="#dddddd" stroke-width="1.0"/><line x1="23.65" y1="64.85789531992077" x2="794.5" y2="64.85789531992077" stroke="#dddddd" stroke-width="1.0"/><rect x="23.65" y="5.5" width="770.85" height="573.05" fill="#ffffff" fill-opacity="0.0" stroke="#444444" stroke-width="1.0"/><line x1="175.48409090909092" y1="578.55" x2="175.48409090909092" y2="581.3" stroke="#444444" stroke-width="1.0"/><text x="175.48409090909092" y="592.3" fill="#333333" font-size="11.0" font-family="sans-serif" text-anchor="middle">2.5</text><line x1="370.14318181818186" y1="578.55" x2="370.14318181818186" y2="581.3" stroke="#444444" stroke-width="1.0"/><text x="370.14318181818186" y="592.3" fill="#333333" font-size="11.0" font-family="sans-serif" text-anchor="middle">5</text><line x1="564.8022727272728" y1="578.55" x2="564.8022727272728" y2="581.3" stroke="#444444" stroke-width="1.0"/><text x="564.8022727272728" y="592.3" fill="#333333" font-size="11.0" font-family="sans-serif" text-anchor="middle">7.5</text><line x1="759.4613636363637" y1="578.55" x2="759.4613636363637" y2="581.3" stroke="#444444" stroke-width="1.0"/><text x="759.4613636363637" y="592.3" fill="#333333" font-size="11.0" font-family="sans-serif" text-anchor="middle">10</text><line x1="23.65" y1="491.9636062506536" x2="20.9" y2="491.9636062506536" stroke="#444444" stroke-width="1.0"/><text x="18.7" y="495.8136062506536" fill="#333333" font-size="11.0" font-family="sans-serif" text-anchor="end">5</text><line x1="23.65" y1="349.59503594040933" x2="20.9" y2="349.59503594040933" stroke="#444444" stroke-width="1.0"/><text x="18.7" y="353.44503594040935" fill="#333333" font-size="11.0" font-family="sans-serif" text-anchor="end">10</text><line x1="23.65" y1="207.22646563016514" x2="20.9" y2="207.22646563016514" stroke="#444444" stroke-width="1.0"/><text x="18.7" y="211.07646563016513" fill="#333333" font-size="11.0" font-family="sans-serif" text-anchor="end">15</text><line x1="23.65" y1="64.85789531992077" x2="20.9" y2="64.85789531992077" stroke="#444444" stroke-width="1.0"/><text x="18.7" y="68.70789531992077" fill="#333333" font-size="11.0" font-family="sans-serif" text-anchor="end">20</text><circle cx="58.68863636363636" cy="545.4941886873055" r="3.0" fill="#1f77b4" fill-opacity="0.85" stroke="#1f77b4" stroke-width="1.0"><title>(1, 3.12)</title></circle><circle cx="136.55227272727274" cy="494.2415033756175" r="3.0" fill="#1f77b4" fill-opacity="0.85" stroke="#1f77b4" stroke-width="1.0"><title>(2, 4.92)</title></circle><circle cx="214.41590909090917" cy="433.59249242345345" r="3.0" fill="#1f77b4" fill-opacity="0.85" stroke="#1f77b4" stroke-width="1.0"><title>(3, 7.05)</title></circle><circle cx="292.2795454545455" cy="382.33980711176554" r="3.0" fill="#1f77b4" fill-opacity="0.85" stroke="#1f77b4" stroke-width="1.0"><title>(4, 8.85)</title></circle><circle cx="370.14318181818186" cy="318.2739504721556" r="3.0" fill="#1f77b4" fill-opacity="0.85" stroke="#1f77b4" stroke-width="1.0"><title>(5, 11.1)</title></circle><circle cx="448.00681818181823" cy="263.3196823324013" r="3.0" fill="#1f77b4" fill-opacity="0.85" stroke="#1f77b4" stroke-width="1.0"><title>(6, 13.03)</title></circle><circle cx="525.8704545454547" cy="209.21962561450852" r="3.0" fill="#1f77b4" fill-opacity="0.85" stroke="#1f77b4" stroke-width="1.0"><title>(7, 14.93)</title></circle><circle cx="603.7340909090909" cy="146.29271753738055" r="3.0" fill="#1f77b4" fill-opacity="0.85" stroke="#1f77b4" stroke-width="1.0"><title>(8, 17.14)</title></circle><circle cx="681.5977272727273" cy="94.47055794445157" r="3.0" fill="#1f77b4" fill-opacity="0.85" stroke="#1f77b4" stroke-width="1.0"><title>(9, 18.96)</title></circle><circle cx="759.4613636363637" cy="34.67575841414907" r="3.0" fill="#1f77b4" fill-opacity="0.85" stroke="#1f77b4" stroke-width="1.0"><title>(10, 21.06)</title></circle><path d="M 58.68863636363636 552.5022727272727 L 65.76714876033057 547.2494047102177 L 72.84566115702481 542.0281301904281 L 79.92417355371902 536.8234837110491 L 87.00268595041324 531.5644570931472 L 94.08119834710746 526.3483886384385 L 101.15971074380167 521.0908740021085 L 108.23822314049588 515.8680128481116 L 115.31673553719008 510.71423594649616 L 122.39524793388432 505.43380971489506 L 129.47376033057853 500.18259749372703 L 136.55227272727274 495.1795601201042 L 143.63078512396694 489.916877101521 L 150.70929752066115 484.6887281924936 L 157.7878099173554 479.4969209777163 L 164.8663223140496 474.2500591790007 L 171.94483471074383 469.0040697217976 L 179.02334710743804 463.80452296400483 L 186.1018595041323 458.57363944165735 L 193.18037190082651 453.29179483202887 L 200.25888429752072 448.121327907732 L 207.33739669421493 442.8836622652816 L 214.41590909090917 437.6418373915258 L 221.49442148760338 432.3021971991757 L 228.57293388429756 427.0657493687362 L 235.6514462809918 421.8463460349976 L 242.72995867768597 416.6236787015085 L 249.8084710743802 411.4026467973679 L 256.88698347107436 406.21518429016743 L 263.9654958677686 400.9454546937841 L 271.04400826446283 395.7623640976599 L 278.1225206611571 390.49899049149894 L 285.20103305785125 385.26931171584147 L 292.2795454545455 380.06251699649897 L 299.35805785123966 374.82354465353967 L 306.4365702479339 369.70771347491666 L 313.5150826446282 364.48281592072385 L 320.5935950413223 359.33190022653577 L 327.6721074380166 354.1309188661052 L 334.75061983471073 349.0194957871646 L 341.829132231405 343.78864654838895 L 348.90764462809915 338.58891229023163 L 355.98615702479344 333.3291180328637 L 363.0646694214877 327.8927979288522 L 370.14318181818186 322.6789541722507 L 377.2216942148761 317.52208379463934 L 384.3002066115703 312.4101248860205 L 391.3787190082645 307.3588380996523 L 398.4572314049587 302.1202880126768 L 405.5357438016529 296.90956656909793 L 412.61425619834716 291.7386889956411 L 419.6927685950414 286.6099458113073 L 426.77128099173564 281.3205986146961 L 433.8497933884298 276.1286939009173 L 440.928305785124 270.946809855084 L 448.00681818181823 265.7757630260536 L 455.08533057851247 260.62370167587164 L 462.16384297520665 255.47436007365633 L 469.2423553719008 250.29434751125177 L 476.32086776859506 245.058138959154 L 483.3993801652893 240.05177486329546 L 490.47789256198354 234.89816192377663 L 497.5564049586778 229.78878638154163 L 504.634917355372 224.58674424996082 L 511.71342975206625 219.42237749209528 L 518.7919421487604 214.31636571435735 L 525.8704545454547 209.1554668271209 L 532.9489669421489 204.01771957063056 L 540.027479338843 198.89270044045963 L 547.1059917355373 193.75183444493496 L 554.1845041322314 188.48091125016452 L 561.2630165289256 183.35173058266497 L 568.34152892562 178.19211737495527 L 575.4200413223141 173.06886245236473 L 582.4985537190083 167.9239519161219 L 589.5770661157026 162.70764781740058 L 596.6555785123968 157.56508328853403 L 603.7340909090909 152.43041332205138 L 610.812603305785 147.2789791273289 L 617.8911157024794 142.27121142103232 L 624.9696280991737 137.14283885386806 L 632.0481404958679 132.00419371619614 L 639.126652892562 126.8268423986417 L 646.2051652892565 121.7433792424261 L 653.2836776859505 116.57071702208037 L 660.3621900826446 111.51048288948158 L 667.4407024793388 106.3147596655503 L 674.5192148760332 101.23874725589485 L 681.5977272727273 96.01951739777479 L 688.6762396694216 90.85914386388583 L 695.7547520661157 85.82547947685907 L 702.83326446281 80.69671785515419 L 709.9117768595041 75.37477036303812 L 716.9902892561985 70.24080441377907 L 724.0688016528926 65.14702866965342 L 731.1473140495868 60.08982593968915 L 738.225826446281 54.977326179601164 L 745.3043388429753 49.750289872814164 L 752.3828512396694 44.633937643528384 L 759.4613636363637 39.43721291890006 L 759.4613636363637 31.547727272727343 L 752.3828512396694 36.87173128810673 L 745.3043388429753 42.10951259075716 L 738.225826446281 47.44487450169811 L 731.1473140495868 52.68734531749658 L 724.0688016528926 57.871834452814596 L 716.9902892561985 63.07356389019856 L 709.9117768595041 68.31671813534354 L 702.83326446281 73.76284003302123 L 695.7547520661157 79.00951712618746 L 688.6762396694216 84.1637244822004 L 681.5977272727273 89.43238110906964 L 674.5192148760332 94.73913288363968 L 667.4407024793388 99.91762896907352 L 660.3621900826446 105.21850384623542 L 653.2836776859505 110.37726291328948 L 646.2051652892565 115.6513846980921 L 639.126652892562 120.8214069945729 L 632.0481404958679 126.09123043030945 L 624.9696280991737 131.31303398118945 L 617.8911157024794 136.53177048097405 L 610.812603305785 141.65220010125182 L 603.7340909090909 146.89608913824895 L 596.6555785123968 152.10667128579394 L 589.5770661157026 157.3208943322556 L 582.4985537190083 162.6264326707647 L 575.4200413223141 167.86741222677136 L 568.34152892562 173.07206082246756 L 561.2630165289256 178.30159551688536 L 554.1845041322314 183.482304248076 L 547.1059917355373 188.82668748934452 L 540.027479338843 194.03093506604824 L 532.9489669421489 199.19670044122523 L 525.8704545454547 204.38803793236866 L 518.7919421487604 209.61356403233077 L 511.71342975206625 214.78386315411075 L 504.634917355372 220.02090805396517 L 497.5564049586778 225.27221480278217 L 490.47789256198354 230.43963309565606 L 483.3993801652893 235.61439333550015 L 476.32086776859506 240.65041367602356 L 469.2423553719008 245.91017437508094 L 462.16384297520665 251.11827766860995 L 455.08533057851247 256.2868088240383 L 448.00681818181823 261.4923015065274 L 440.928305785124 266.66385902983416 L 433.8497933884298 271.851644198289 L 426.77128099173564 277.04759612804395 L 419.6927685950414 282.33189202869056 L 412.61425619834716 287.484801490501 L 405.5357438016529 292.65655576942027 L 398.4572314049587 297.8210025393408 L 391.3787190082645 303.02343583650986 L 384.3002066115703 308.0529688605376 L 377.2216942148761 313.15667863737104 L 370.14318181818186 318.29287495970874 L 363.0646694214877 323.46728286461325 L 355.98615702479344 328.87783151574536 L 348.90764462809915 334.09975009423897 L 341.829132231405 339.2481677483312 L 334.75061983471073 344.4354292949438 L 327.6721074380166 349.5231039587218 L 320.5935950413223 354.6672587020591 L 313.5150826446282 359.7591614027941 L 306.4365702479339 364.9079585320188 L 299.35805785123966 369.97632696066114 L 292.2795454545455 375.1702188870846 L 285.20103305785125 380.2898468614534 L 278.1225206611571 385.4689124604689 L 271.04400826446283 390.64257801352 L 263.9654958677686 395.7414969710441 L 256.88698347107436 400.914980118862 L 249.8084710743802 406.0380958243269 L 242.72995867768597 411.16924185665766 L 235.6514462809918 416.31472036046904 L 228.57293388429756 421.470911034661 L 221.49442148760338 426.6066098173088 L 214.41590909090917 431.8989239031666 L 207.33739669421493 437.0606129772842 L 200.25888429752072 442.20176127606976 L 193.18037190082651 447.2913614136102 L 186.1018595041323 452.46697093661226 L 179.02334710743804 457.6110307078528 L 171.94483471074383 462.68008080963887 L 164.8663223140496 467.80699893235584 L 157.7878099173554 472.94130347284295 L 150.70929752066115 478.009499035636 L 143.63078512396694 483.14241110204375 L 136.55227272727274 488.2972396975806 L 129.47376033057853 493.19534535722863 L 122.39524793388432 498.3304666279209 L 115.31673553719008 503.51553738869984 L 108.23822314049588 508.5726138083443 L 101.15971074380167 513.7116961003734 L 94.08119834710746 518.8783290973811 L 87.00268595041324 524.0333264046185 L 79.92417355371902 529.1425291413636 L 72.84566115702481 534.2517314748656 L 65.76714876033057 539.3475135791035 L 58.68863636363636 544.4701361418693 Z" fill="#1f77b4" fill-opacity="0.2" stroke="none"/><line x1="58.68863636363636" y1="548.6649787219739" x2="65.76714876033057" y2="543.4832575017082" stroke="#1f77b4" stroke-width="1.5"/><line x1="65.76714876033057" y1="543.4832575017082" x2="72.84566115702481" y2="538.3015362814425" stroke="#1f77b4" stroke-width="1.5"/><line x1="72.84566115702481" y1="538.3015362814425" x2="79.92417355371902" y2="533.1198150611767" stroke="#1f77b4" stroke-width="1.5"/><line x1="79.92417355371902" y1="533.1198150611767" x2="87.00268595041324" y2="527.9380938409104" stroke="#1f77b4" stroke-width="1.5"/><line x1="87.00268595041324" y1="527.9380938409104" x2="94.08119834710746" y2="522.756372620645" stroke="#1f77b4" stroke-width="1.5"/><line x1="94.08119834710746" y1="522.756372620645" x2="101.15971074380167" y2="517.5746514003794" stroke="#1f77b4" stroke-width="1.5"/><line x1="101.15971074380167" y1="517.5746514003794" x2="108.23822314049588" y2="512.3929301801139" stroke="#1f77b4" stroke-width="1.5"/><line x1="108.23822314049588" y1="512.3929301801139" x2="115.31673553719008" y2="507.2112089598477" stroke="#1f77b4" stroke-width="1.5"/><line x1="115.31673553719008" y1="507.2112089598477" x2="122.39524793388432" y2="502.02948773958207" stroke="#1f77b4" stroke-width="1.5"/><line x1="122.39524793388432" y1="502.02948773958207" x2="129.47376033057853" y2="496.847766519316" stroke="#1f77b4" stroke-width="1.5"/><line x1="129.47376033057853" y1="496.847766519316" x2="136.55227272727274" y2="491.66604529905027" stroke="#1f77b4" stroke-width="1.5"/><line x1="136.55227272727274" y1="491.66604529905027" x2="143.63078512396694" y2="486.48432407878414" stroke="#1f77b4" stroke-width="1.5"/><line x1="143.63078512396694" y1="486.48432407878414" x2="150.70929752066115" y2="481.30260285851915" stroke="#1f77b4" stroke-width="1.5"/><line x1="150.70929752066115" y1="481.30260285851915" x2="157.7878099173554" y2="476.12088163825354" stroke="#1f77b4" stroke-width="1.5"/><line x1="157.7878099173554" y1="476.12088163825354" x2="164.8663223140496" y2="470.9391604179868" stroke="#1f77b4" stroke-width="1.5"/><line x1="164.8663223140496" y1="470.9391604179868" x2="171.94483471074383" y2="465.7574391977214" stroke="#1f77b4" stroke-width="1.5"/><line x1="171.94483471074383" y1="465.7574391977214" x2="179.02334710743804" y2="460.57571797745584" stroke="#1f77b4" stroke-width="1.5"/><line x1="179.02334710743804" y1="460.57571797745584" x2="186.1018595041323" y2="455.3939967571896" stroke="#1f77b4" stroke-width="1.5"/><line x1="186.1018595041323" y1="455.3939967571896" x2="193.18037190082651" y2="450.21227553692387" stroke="#1f77b4" stroke-width="1.5"/><line x1="193.18037190082651" y1="450.21227553692387" x2="200.25888429752072" y2="445.0305543166576" stroke="#1f77b4" stroke-width="1.5"/><line x1="200.25888429752072" y1="445.0305543166576" x2="207.33739669421493" y2="439.8488330963926" stroke="#1f77b4" stroke-width="1.5"/><line x1="207.33739669421493" y1="439.8488330963926" x2="214.41590909090917" y2="434.6671118761267" stroke="#1f77b4" stroke-width="1.5"/><line x1="214.41590909090917" y1="434.6671118761267" x2="221.49442148760338" y2="429.48539065586084" stroke="#1f77b4" stroke-width="1.5"/><line x1="221.49442148760338" y1="429.48539065586084" x2="228.57293388429756" y2="424.30366943559557" stroke="#1f77b4" stroke-width="1.5"/><line x1="228.57293388429756" y1="424.30366943559557" x2="235.6514462809918" y2="419.12194821532944" stroke="#1f77b4" stroke-width="1.5"/><line x1="235.6514462809918" y1="419.12194821532944" x2="242.72995867768597" y2="413.9402269950632" stroke="#1f77b4" stroke-width="1.5"/><line x1="242.72995867768597" y1="413.9402269950632" x2="249.8084710743802" y2="408.75850577479747" stroke="#1f77b4" stroke-width="1.5"/><line x1="249.8084710743802" y1="408.75850577479747" x2="256.88698347107436" y2="403.57678455453186" stroke="#1f77b4" stroke-width="1.5"/><line x1="256.88698347107436" y1="403.57678455453186" x2="263.9654958677686" y2="398.3950633342657" stroke="#1f77b4" stroke-width="1.5"/><line x1="263.9654958677686" y1="398.3950633342657" x2="271.04400826446283" y2="393.21334211400057" stroke="#1f77b4" stroke-width="1.5"/><line x1="271.04400826446283" y1="393.21334211400057" x2="278.1225206611571" y2="388.03162089373456" stroke="#1f77b4" stroke-width="1.5"/><line x1="278.1225206611571" y1="388.03162089373456" x2="285.20103305785125" y2="382.8498996734685" stroke="#1f77b4" stroke-width="1.5"/><line x1="285.20103305785125" y1="382.8498996734685" x2="292.2795454545455" y2="377.66817845320304" stroke="#1f77b4" stroke-width="1.5"/><line x1="292.2795454545455" y1="377.66817845320304" x2="299.35805785123966" y2="372.4864572329368" stroke="#1f77b4" stroke-width="1.5"/><line x1="299.35805785123966" y1="372.4864572329368" x2="306.4365702479339" y2="367.3047360126716" stroke="#1f77b4" stroke-width="1.5"/><line x1="306.4365702479339" y1="367.3047360126716" x2="313.5150826446282" y2="362.12301479240546" stroke="#1f77b4" stroke-width="1.5"/><line x1="313.5150826446282" y1="362.12301479240546" x2="320.5935950413223" y2="356.9412935721395" stroke="#1f77b4" stroke-width="1.5"/><line x1="320.5935950413223" y1="356.9412935721395" x2="327.6721074380166" y2="351.75957235187434" stroke="#1f77b4" stroke-width="1.5"/><line x1="327.6721074380166" y1="351.75957235187434" x2="334.75061983471073" y2="346.5778511316073" stroke="#1f77b4" stroke-width="1.5"/><line x1="334.75061983471073" y1="346.5778511316073" x2="341.829132231405" y2="341.39612991134203" stroke="#1f77b4" stroke-width="1.5"/><line x1="341.829132231405" y1="341.39612991134203" x2="348.90764462809915" y2="336.21440869107585" stroke="#1f77b4" stroke-width="1.5"/><line x1="348.90764462809915" y1="336.21440869107585" x2="355.98615702479344" y2="331.03268747081023" stroke="#1f77b4" stroke-width="1.5"/><line x1="355.98615702479344" y1="331.03268747081023" x2="363.0646694214877" y2="325.8509662505443" stroke="#1f77b4" stroke-width="1.5"/><line x1="363.0646694214877" y1="325.8509662505443" x2="370.14318181818186" y2="320.66924503027917" stroke="#1f77b4" stroke-width="1.5"/><line x1="370.14318181818186" y1="320.66924503027917" x2="377.2216942148761" y2="315.48752381001316" stroke="#1f77b4" stroke-width="1.5"/><line x1="377.2216942148761" y1="315.48752381001316" x2="384.3002066115703" y2="310.30580258974766" stroke="#1f77b4" stroke-width="1.5"/><line x1="384.3002066115703" y1="310.30580258974766" x2="391.3787190082645" y2="305.12408136948125" stroke="#1f77b4" stroke-width="1.5"/><line x1="391.3787190082645" y1="305.12408136948125" x2="398.4572314049587" y2="299.94236014921603" stroke="#1f77b4" stroke-width="1.5"/><line x1="398.4572314049587" y1="299.94236014921603" x2="405.5357438016529" y2="294.7606389289491" stroke="#1f77b4" stroke-width="1.5"/><line x1="405.5357438016529" y1="294.7606389289491" x2="412.61425619834716" y2="289.5789177086842" stroke="#1f77b4" stroke-width="1.5"/><line x1="412.61425619834716" y1="289.5789177086842" x2="419.6927685950414" y2="284.39719648841765" stroke="#1f77b4" stroke-width="1.5"/><line x1="419.6927685950414" y1="284.39719648841765" x2="426.77128099173564" y2="279.2154752681522" stroke="#1f77b4" stroke-width="1.5"/><line x1="426.77128099173564" y1="279.2154752681522" x2="433.8497933884298" y2="274.033754047888" stroke="#1f77b4" stroke-width="1.5"/><line x1="433.8497933884298" y1="274.033754047888" x2="440.928305785124" y2="268.85203282762035" stroke="#1f77b4" stroke-width="1.5"/><line x1="440.928305785124" y1="268.85203282762035" x2="448.00681818181823" y2="263.6703116073557" stroke="#1f77b4" stroke-width="1.5"/><line x1="448.00681818181823" y1="263.6703116073557" x2="455.08533057851247" y2="258.48859038708997" stroke="#1f77b4" stroke-width="1.5"/><line x1="455.08533057851247" y1="258.48859038708997" x2="462.16384297520665" y2="253.30686916682356" stroke="#1f77b4" stroke-width="1.5"/><line x1="462.16384297520665" y1="253.30686916682356" x2="469.2423553719008" y2="248.1251479465571" stroke="#1f77b4" stroke-width="1.5"/><line x1="469.2423553719008" y1="248.1251479465571" x2="476.32086776859506" y2="242.94342672629273" stroke="#1f77b4" stroke-width="1.5"/><line x1="476.32086776859506" y1="242.94342672629273" x2="483.3993801652893" y2="237.76170550602615" stroke="#1f77b4" stroke-width="1.5"/><line x1="483.3993801652893" y1="237.76170550602615" x2="490.47789256198354" y2="232.57998428575968" stroke="#1f77b4" stroke-width="1.5"/><line x1="490.47789256198354" y1="232.57998428575968" x2="497.5564049586778" y2="227.39826306549395" stroke="#1f77b4" stroke-width="1.5"/><line x1="497.5564049586778" y1="227.39826306549395" x2="504.634917355372" y2="222.216541845228" stroke="#1f77b4" stroke-width="1.5"/><line x1="504.634917355372" y1="222.216541845228" x2="511.71342975206625" y2="217.03482062496397" stroke="#1f77b4" stroke-width="1.5"/><line x1="511.71342975206625" y1="217.03482062496397" x2="518.7919421487604" y2="211.85309940469784" stroke="#1f77b4" stroke-width="1.5"/><line x1="518.7919421487604" y1="211.85309940469784" x2="525.8704545454547" y2="206.67137818443092" stroke="#1f77b4" stroke-width="1.5"/><line x1="525.8704545454547" y1="206.67137818443092" x2="532.9489669421489" y2="201.48965696416462" stroke="#1f77b4" stroke-width="1.5"/><line x1="532.9489669421489" y1="201.48965696416462" x2="540.027479338843" y2="196.3079357438993" stroke="#1f77b4" stroke-width="1.5"/><line x1="540.027479338843" y1="196.3079357438993" x2="547.1059917355373" y2="191.12621452363425" stroke="#1f77b4" stroke-width="1.5"/><line x1="547.1059917355373" y1="191.12621452363425" x2="554.1845041322314" y2="185.94449330336886" stroke="#1f77b4" stroke-width="1.5"/><line x1="554.1845041322314" y1="185.94449330336886" x2="561.2630165289256" y2="180.7627720831012" stroke="#1f77b4" stroke-width="1.5"/><line x1="561.2630165289256" y1="180.7627720831012" x2="568.34152892562" y2="175.58105086283592" stroke="#1f77b4" stroke-width="1.5"/><line x1="568.34152892562" y1="175.58105086283592" x2="575.4200413223141" y2="170.39932964257105" stroke="#1f77b4" stroke-width="1.5"/><line x1="575.4200413223141" y1="170.39932964257105" x2="582.4985537190083" y2="165.2176084223056" stroke="#1f77b4" stroke-width="1.5"/><line x1="582.4985537190083" y1="165.2176084223056" x2="589.5770661157026" y2="160.03588720203987" stroke="#1f77b4" stroke-width="1.5"/><line x1="589.5770661157026" y1="160.03588720203987" x2="596.6555785123968" y2="154.85416598177477" stroke="#1f77b4" stroke-width="1.5"/><line x1="596.6555785123968" y1="154.85416598177477" x2="603.7340909090909" y2="149.67244476150847" stroke="#1f77b4" stroke-width="1.5"/><line x1="603.7340909090909" y1="149.67244476150847" x2="610.812603305785" y2="144.49072354124098" stroke="#1f77b4" stroke-width="1.5"/><line x1="610.812603305785" y1="144.49072354124098" x2="617.8911157024794" y2="139.30900232097605" stroke="#1f77b4" stroke-width="1.5"/><line x1="617.8911157024794" y1="139.30900232097605" x2="624.9696280991737" y2="134.12728110071072" stroke="#1f77b4" stroke-width="1.5"/><line x1="624.9696280991737" y1="134.12728110071072" x2="632.0481404958679" y2="128.9455598804438" stroke="#1f77b4" stroke-width="1.5"/><line x1="632.0481404958679" y1="128.9455598804438" x2="639.126652892562" y2="123.76383866018028" stroke="#1f77b4" stroke-width="1.5"/><line x1="639.126652892562" y1="123.76383866018028" x2="646.2051652892565" y2="118.58211743991467" stroke="#1f77b4" stroke-width="1.5"/><line x1="646.2051652892565" y1="118.58211743991467" x2="653.2836776859505" y2="113.40039621964655" stroke="#1f77b4" stroke-width="1.5"/><line x1="653.2836776859505" y1="113.40039621964655" x2="660.3621900826446" y2="108.2186749993823" stroke="#1f77b4" stroke-width="1.5"/><line x1="660.3621900826446" y1="108.2186749993823" x2="667.4407024793388" y2="103.03695377911328" stroke="#1f77b4" stroke-width="1.5"/><line x1="667.4407024793388" y1="103.03695377911328" x2="674.5192148760332" y2="97.85523255884851" stroke="#1f77b4" stroke-width="1.5"/><line x1="674.5192148760332" y1="97.85523255884851" x2="681.5977272727273" y2="92.67351133858295" stroke="#1f77b4" stroke-width="1.5"/><line x1="681.5977272727273" y1="92.67351133858295" x2="688.6762396694216" y2="87.49179011831785" stroke="#1f77b4" stroke-width="1.5"/><line x1="688.6762396694216" y1="87.49179011831785" x2="695.7547520661157" y2="82.31006889805309" stroke="#1f77b4" stroke-width="1.5"/><line x1="695.7547520661157" y1="82.31006889805309" x2="702.83326446281" y2="77.1283476777873" stroke="#1f77b4" stroke-width="1.5"/><line x1="702.83326446281" y1="77.1283476777873" x2="709.9117768595041" y2="71.946626457521" stroke="#1f77b4" stroke-width="1.5"/><line x1="709.9117768595041" y1="71.946626457521" x2="716.9902892561985" y2="66.76490523725641" stroke="#1f77b4" stroke-width="1.5"/><line x1="716.9902892561985" y1="66.76490523725641" x2="724.0688016528926" y2="61.58318401698955" stroke="#1f77b4" stroke-width="1.5"/><line x1="724.0688016528926" y1="61.58318401698955" x2="731.1473140495868" y2="56.40146279672342" stroke="#1f77b4" stroke-width="1.5"/><line x1="731.1473140495868" y1="56.40146279672342" x2="738.225826446281" y2="51.21974157645775" stroke="#1f77b4" stroke-width="1.5"/><line x1="738.225826446281" y1="51.21974157645775" x2="745.3043388429753" y2="46.03802035619344" stroke="#1f77b4" stroke-width="1.5"/><line x1="745.3043388429753" y1="46.03802035619344" x2="752.3828512396694" y2="40.85629913592459" stroke="#1f77b4" stroke-width="1.5"/><line x1="752.3828512396694" y1="40.85629913592459" x2="759.4613636363637" y2="35.67457791566085" stroke="#1f77b4" stroke-width="1.5"/></svg>