<svg xmlns="http://www.w3.org/2000/svg" width="624" height="384" viewBox="0 0 624 384"><rect x="0.0" y="0.0" width="624.0" height="384.0" fill="#ffffff" fill-opacity="1.0" stroke="none"/><text x="35.346666666666664" y="21.413333333333334" fill="#333333" font-size="17.599999999999998" font-family="sans-serif" text-anchor="start">事後分布 (各変数・chain 重畳)</text><rect x="0.0" y="0.0" width="0.0" height="0.0" fill="#ffffff" fill-opacity="1.0" stroke="none"/><line x1="95.27458349266067" y1="64.53333333333333" x2="95.27458349266067" y2="116.51111111111109" stroke="#dddddd" stroke-width="0.6666666666666666"/><line x1="233.0354289760483" y1="64.53333333333333" x2="233.0354289760483" y2="116.51111111111109" stroke="#dddddd" stroke-width="0.6666666666666666"/><line x1="370.79627445943606" y1="64.53333333333333" x2="370.79627445943606" y2="116.51111111111109" stroke="#dddddd" stroke-width="0.6666666666666666"/><line x1="508.5571199428239" y1="64.53333333333333" x2="508.5571199428239" y2="116.51111111111109" stroke="#dddddd" stroke-width="0.6666666666666666"/><line x1="164.1550062343545" y1="64.53333333333333" x2="164.1550062343545" y2="116.51111111111109" stroke="#dddddd" stroke-width="1.3333333333333333"/><line x1="301.91585171774216" y1="64.53333333333333" x2="301.91585171774216" y2="116.51111111111109" stroke="#dddddd" stroke-width="1.3333333333333333"/><line x1="439.6766972011299" y1="64.53333333333333" x2="439.6766972011299" y2="116.51111111111109" stroke="#dddddd" stroke-width="1.3333333333333333"/><line x1="577.4375426845176" y1="64.53333333333333" x2="577.4375426845176" y2="116.51111111111109" stroke="#dddddd" stroke-width="1.3333333333333333"/><line x1="35.346666666666664" y1="111.89922011869027" x2="609.3333333333333" y2="111.89922011869027" stroke="#dddddd" stroke-width="0.6666666666666666"/><line x1="35.346666666666664" y1="102.67543813384857" x2="609.3333333333333" y2="102.67543813384857" stroke="#dddddd" stroke-width="0.6666666666666666"/><line x1="35.346666666666664" y1="93.45165614900688" x2="609.3333333333333" y2="93.45165614900688" stroke="#dddddd" stroke-width="0.6666666666666666"/><line x1="35.346666666666664" y1="84.2278741641652" x2="609.3333333333333" y2="84.2278741641652" stroke="#dddddd" stroke-width="0.6666666666666666"/><line x1="35.346666666666664" y1="75.00409217932352" x2="609.3333333333333" y2="75.00409217932352" stroke="#dddddd" stroke-width="0.6666666666666666"/><line x1="35.346666666666664" y1="65.78031019448184" x2="609.3333333333333" y2="65.78031019448184" stroke="#dddddd" stroke-width="0.6666666666666666"/><line x1="35.346666666666664" y1="116.51111111111109" x2="609.3333333333333" y2="116.51111111111109" stroke="#dddddd" stroke-width="1.3333333333333333"/><line x1="35.346666666666664" y1="107.28732912626941" x2="609.3333333333333" y2="107.28732912626941" stroke="#dddddd" stroke-width="1.3333333333333333"/><line x1="35.346666666666664" y1="98.06354714142773" x2="609.3333333333333" y2="98.06354714142773" stroke="#dddddd" stroke-width="1.3333333333333333"/><line x1="35.346666666666664" y1="88.83976515658605" x2="609.3333333333333" y2="88.83976515658605" stroke="#dddddd" stroke-width="1.3333333333333333"/><line x1="35.346666666666664" y1="79.61598317174436" x2="609.3333333333333" y2="79.61598317174436" stroke="#dddddd" stroke-width="1.3333333333333333"/><line x1="35.346666666666664" y1="70.39220118690268" x2="609.3333333333333" y2="70.39220118690268" stroke="#dddddd" stroke-width="1.3333333333333333"/><rect x="35.346666666666664" y="64.53333333333333" width="573.9866666666667" height="51.97777777777777" fill="#ffffff" fill-opacity="0.0" stroke="#444444" stroke-width="1.3333333333333333"/><line x1="164.1550062343545" y1="116.51111111111109" x2="164.1550062343545" y2="120.17777777777776" stroke="#444444" stroke-width="1.3333333333333333"/><text x="164.1550062343545" y="132.49777777777777" fill="#333333" font-size="11.733333333333334" font-family="sans-serif" text-anchor="middle">0.8</text><line x1="301.91585171774216" y1="116.51111111111109" x2="301.91585171774216" y2="120.17777777777776" stroke="#444444" stroke-width="1.3333333333333333"/><text x="301.91585171774216" y="132.49777777777777" fill="#333333" font-size="11.733333333333334" font-family="sans-serif" text-anchor="middle">1.0</text><line x1="439.6766972011299" y1="116.51111111111109" x2="439.6766972011299" y2="120.17777777777776" stroke="#444444" stroke-width="1.3333333333333333"/><text x="439.6766972011299" y="132.49777777777777" fill="#333333" font-size="11.733333333333334" font-family="sans-serif" text-anchor="middle">1.2</text><line x1="577.4375426845176" y1="116.51111111111109" x2="577.4375426845176" y2="120.17777777777776" stroke="#444444" stroke-width="1.3333333333333333"/><text x="577.4375426845176" y="132.49777777777777" fill="#333333" font-size="11.733333333333334" font-family="sans-serif" text-anchor="middle">1.4</text><line x1="35.346666666666664" y1="116.51111111111109" x2="31.679999999999996" y2="116.51111111111109" stroke="#444444" stroke-width="1.3333333333333333"/><text x="28.746666666666663" y="120.61777777777776" fill="#333333" font-size="11.733333333333334" font-family="sans-serif" text-anchor="end">0</text><line x1="35.346666666666664" y1="107.28732912626941" x2="31.679999999999996" y2="107.28732912626941" stroke="#444444" stroke-width="1.3333333333333333"/><text x="28.746666666666663" y="111.39399579293607" fill="#333333" font-size="11.733333333333334" font-family="sans-serif" text-anchor="end">1</text><line x1="35.346666666666664" y1="98.06354714142773" x2="31.679999999999996" y2="98.06354714142773" stroke="#444444" stroke-width="1.3333333333333333"/><text x="28.746666666666663" y="102.1702138080944" fill="#333333" font-size="11.733333333333334" font-family="sans-serif" text-anchor="end">2</text><line x1="35.346666666666664" y1="88.83976515658605" x2="31.679999999999996" y2="88.83976515658605" stroke="#444444" stroke-width="1.3333333333333333"/><text x="28.746666666666663" y="92.94643182325271" fill="#333333" font-size="11.733333333333334" font-family="sans-serif" text-anchor="end">3</text><line x1="35.346666666666664" y1="79.61598317174436" x2="31.679999999999996" y2="79.61598317174436" stroke="#444444" stroke-width="1.3333333333333333"/><text x="28.746666666666663" y="83.72264983841103" fill="#333333" font-size="11.733333333333334" font-family="sans-serif" text-anchor="end">4</text><line x1="35.346666666666664" y1="70.39220118690268" x2="31.679999999999996" y2="70.39220118690268" stroke="#444444" stroke-width="1.3333333333333333"/><text x="28.746666666666663" y="74.49886785356935" fill="#333333" font-size="11.733333333333334" font-family="sans-serif" text-anchor="end">5</text><text x="35.346666666666664" y="53.68000000000001" fill="#333333" font-size="17.599999999999998" font-family="sans-serif" text-anchor="start">a</text><path d="M 35.346666666666664 116.51083660697954 L 41.14451178451179 116.51013987777719 L 46.94235690235693 116.50811253311686 L 52.74020202020199 116.50302371999504 L 58.538047138047126 116.4920234699618 L 64.33589225589225 116.47158380009212 L 70.13373737373738 116.43900205350566 L 75.93158249158252 116.39452678499049 L 81.72942760942757 116.34258260767484 L 87.5272727272727 116.29053162611896 L 93.32511784511783 116.24506359878234 L 99.12296296296297 116.2082573231789 L 104.92080808080811 116.17547931301806 L 110.71865319865317 116.1355668778007 L 116.51649831649829 116.07229400393733 L 122.31434343434344 115.96633494492573 L 128.11218855218857 115.79832887846813 L 133.9100336700336 115.55481383720196 L 139.70787878787874 115.23744954585726 L 145.50572390572387 114.87036357983794 L 151.30356902356903 114.4949826426421 L 157.10141414141415 114.14652572016355 L 162.89925925925928 113.8232989617346 L 168.69710437710435 113.47238272768864 L 174.49494949494948 113.00523495578679 L 180.29279461279464 112.33205893784165 L 186.09063973063974 111.39229465503425 L 191.88848484848478 110.17058145210345 L 197.68632996632994 108.70191428038953 L 203.48417508417506 107.06674659815594 L 209.2820202020202 105.36786915172365 L 215.0798653198653 103.68910967829954 L 220.87771043771048 102.05688301177915 L 226.67555555555558 100.42944436603977 L 232.47340067340065 98.71425423216289 L 238.27124579124578 96.79133453515432 L 244.06909090909085 94.53173341141033 L 249.86693602693597 91.82835140196632 L 255.6647811447811 88.65386451032526 L 261.46262626262626 85.11919497398017 L 267.26047138047136 81.47761909244619 L 273.0583164983165 78.05004590441821 L 278.8561616161616 75.1131597094625 L 284.65400673400677 72.82573127483728 L 290.4518518518518 71.23377658456097 L 296.24969696969697 70.32730609104011 L 302.047542087542 70.08699801888012 L 307.84538720538717 70.48736150676132 L 313.64323232323227 71.47648153705059 L 319.44107744107737 72.97081618299217 L 325.2389225589226 74.87347129754656 L 331.0367676767677 77.09202972687282 L 336.8346127946128 79.53876824476728 L 342.63245791245777 82.12523503483564 L 348.4303030303029 84.77028639864201 L 354.2281481481481 87.41826099420241 L 360.0259932659932 90.04652377110918 L 365.8238383838384 92.6527186979647 L 371.6216835016835 95.2338986694801 L 377.4195286195286 97.77306216534978 L 383.21737373737375 100.23433839731919 L 389.01521885521885 102.56080355621046 L 394.81306397306395 104.67759434289741 L 400.6109090909091 106.50942147747307 L 406.4087542087543 108.0114758345231 L 412.2065993265994 109.19697149737989 L 418.0044444444445 110.1412014256588 L 423.8022895622895 110.95397857671142 L 429.6001346801346 111.7312675975605 L 435.3979797979798 112.51243122062635 L 441.1958249158249 113.27006932057844 L 446.99367003367007 113.93898419396278 L 452.791515151515 114.46267125235576 L 458.5893602693602 114.82500355919849 L 464.3872053872053 115.0509997290595 L 470.1850505050504 115.18638408795368 L 475.98289562289557 115.2767687759916 L 481.78074074074067 115.35782513484493 L 487.5785858585858 115.45278880308501 L 493.3764309764309 115.5699599321234 L 499.174276094276 115.70107028301612 L 504.97212121212124 115.8272525684038 L 510.7699663299664 115.93296087593336 L 516.5678114478114 116.01738957440507 L 522.3656565656565 116.09290356317649 L 528.1635016835017 116.17241804167944 L 533.9613468013468 116.2581710830371 L 539.7591919191918 116.34131021605992 L 545.5570370370369 116.4101794915107 L 551.3548821548821 116.45841789687074 L 557.1527272727272 116.48705040552576 L 562.9505723905723 116.50152210111021 L 568.7484175084173 116.50777919692821 L 574.5462626262624 116.51010222866553 L 580.3441077441076 116.5108449770797 L 586.1419528619527 116.51104995827461 L 591.939797979798 116.51109887169379 L 597.7376430976431 116.51110897748381 L 603.5354882154882 116.51111078715748 L 609.3333333333333 116.51111106827105" fill="" fill-opacity="0.0" stroke="#1f77b4" stroke-width="1.8897637795275593"/><path d="M 35.346666666666664 116.45415973979925 L 41.14451178451179 116.40789370238363 L 46.94235690235693 116.34386867323902 L 52.74020202020199 116.26746557210106 L 58.538047138047126 116.18933326549212 L 64.33589225589225 116.12111718500809 L 70.13373737373738 116.06931290059921 L 75.93158249158252 116.03112225491702 L 81.72942760942757 115.99572848932203 L 87.5272727272727 115.9513453122438 L 93.32511784511783 115.89426959794636 L 99.12296296296297 115.83344149978497 L 104.92080808080811 115.78547248134745 L 110.71865319865317 115.76151585121796 L 116.51649831649829 115.75449400043745 L 122.31434343434344 115.73592655696356 L 128.11218855218857 115.66401234250955 L 133.9100336700336 115.49619690151277 L 139.70787878787874 115.19908051407583 L 145.50572390572387 114.75487002047164 L 151.30356902356903 114.16669632838764 L 157.10141414141415 113.46088410749964 L 162.89925925925928 112.68110754607449 L 168.69710437710435 111.87545155524886 L 174.49494949494948 111.086190417531 L 180.29279461279464 110.34974763602611 L 186.09063973063974 109.70015158781406 L 191.88848484848478 109.15967264328293 L 197.68632996632994 108.70937943639639 L 203.48417508417506 108.25495987844093 L 209.2820202020202 107.61882520126619 L 215.0798653198653 106.5807845433045 L 220.87771043771048 104.95839998895691 L 226.67555555555558 102.68748029916628 L 232.47340067340065 99.85887075163164 L 238.27124579124578 96.69373468699787 L 244.06909090909085 93.47346829715777 L 249.86693602693597 90.45655705447166 L 255.6647811447811 87.80883059473965 L 261.46262626262626 85.56138038237822 L 267.26047138047136 83.60537922684617 L 273.0583164983165 81.73222554989829 L 278.8561616161616 79.71868797840794 L 284.65400673400677 77.43505203312685 L 290.4518518518518 74.93033055958634 L 296.24969696969697 72.44423890416701 L 302.047542087542 70.32705804963277 L 307.84538720538717 68.90478577165601 L 313.64323232323227 68.36719206018154 L 319.44107744107737 68.74192444507005 L 325.2389225589226 69.9541527262416 L 331.0367676767677 71.91036400000928 L 336.8346127946128 74.53811365338751 L 342.63245791245777 77.76243176061587 L 348.4303030303029 81.45642705122053 L 354.2281481481481 85.41930954759916 L 360.0259932659932 89.40441833031623 L 365.8238383838384 93.1788870858755 L 371.6216835016835 96.57980661739983 L 377.4195286195286 99.54151569698963 L 383.21737373737375 102.08674106650672 L 389.01521885521885 104.28885755489769 L 394.81306397306395 106.22305932828709 L 400.6109090909091 107.9293043632522 L 406.4087542087543 109.40421311768372 L 412.2065993265994 110.62273206118937 L 418.0044444444445 111.57294683850625 L 423.8022895622895 112.28087704829099 L 429.6001346801346 112.81071972771872 L 435.3979797979798 113.24292963295915 L 441.1958249158249 113.64513760973065 L 446.99367003367007 114.05175495902691 L 452.791515151515 114.46031241520726 L 458.5893602693602 114.84364512176893 L 464.3872053872053 115.17052440027835 L 470.1850505050504 115.4238856560902 L 475.98289562289557 115.60762388346737 L 481.78074074074067 115.7407680993789 L 487.5785858585858 115.84604484082837 L 493.3764309764309 115.94115180991993 L 499.174276094276 116.0356952557186 L 504.97212121212124 116.13162573088741 L 510.7699663299664 116.2245947624589 L 516.5678114478114 116.30578658497376 L 522.3656565656565 116.36463103881101 L 528.1635016835017 116.3920581271815 L 533.9613468013468 116.38357496434344 L 539.7591919191918 116.34180669316005 L 545.5570370370369 116.2778340552281 L 551.3548821548821 116.20965022437908 L 557.1527272727272 116.15663195391369 L 562.9505723905723 116.13212679271277 L 568.7484175084173 116.1389993924191 L 574.5462626262624 116.17123738390349 L 580.3441077441076 116.21951081516303 L 586.1419528619527 116.27563916947061 L 591.939797979798 116.33338225681271 L 597.7376430976431 116.38731488385213 L 603.5354882154882 116.43263566191683 L 609.3333333333333 116.46637440103422" fill="" fill-opacity="0.0" stroke="#ff7f0e" stroke-width="1.8897637795275593"/><path d="M 35.346666666666664 116.51110563793635 L 41.14451178451179 116.51108576913488 L 46.94235690235693 116.51100669634327 L 52.74020202020199 116.51072780760683 L 58.538047138047126 116.50985548936359 L 64.33589225589225 116.50743367408133 L 70.13373737373738 116.50145911656807 L 75.93158249158252 116.488345180237 L 81.72942760942757 116.46269706406788 L 87.5272727272727 116.41792989326342 L 93.32511784511783 116.348068959961 L 99.12296296296297 116.25033812478628 L 104.92080808080811 116.12711979702343 L 110.71865319865317 115.9853353476899 L 116.51649831649829 115.83216035561988 L 122.31434343434344 115.66844909111262 L 128.11218855218857 115.48394314830928 L 133.9100336700336 115.25866469510015 L 139.70787878787874 114.97119679921867 L 145.50572390572387 114.6088320800637 L 151.30356902356903 114.1719606924353 L 157.10141414141415 113.66893460271436 L 162.89925925925928 113.1051203922093 L 168.69710437710435 112.47396347402868 L 174.49494949494948 111.75508143271863 L 180.29279461279464 110.91866079483482 L 186.09063973063974 109.93303969818614 L 191.88848484848478 108.77342320987532 L 197.68632996632994 107.42861134938144 L 203.48417508417506 105.8988572527306 L 209.2820202020202 104.18064812473682 L 215.0798653198653 102.24846595395718 L 220.87771043771048 100.05552208820598 L 226.67555555555558 97.56445630305882 L 232.47340067340065 94.78920476218123 L 238.27124579124578 91.81339044792296 L 244.06909090909085 88.7702178381202 L 249.86693602693597 85.80288481856151 L 255.6647811447811 83.0347373546019 L 261.46262626262626 80.55903875421384 L 267.26047138047136 78.43967493571978 L 273.0583164983165 76.7173474779709 L 278.8561616161616 75.42497034493041 L 284.65400673400677 74.60703928111698 L 290.4518518518518 74.31938542634344 L 296.24969696969697 74.5915781585203 L 302.047542087542 75.37338399593645 L 307.84538720538717 76.51991519611093 L 313.64323232323227 77.85051452689501 L 319.44107744107737 79.24998360408134 L 325.2389225589226 80.7310354760192 L 331.0367676767677 82.40034333972599 L 336.8346127946128 84.35201241403024 L 342.63245791245777 86.57488759570393 L 348.4303030303029 88.94385642295074 L 354.2281481481481 91.289211431445 L 360.0259932659932 93.47794505971675 L 365.8238383838384 95.44890971362095 L 371.6216835016835 97.19950641598766 L 377.4195286195286 98.76173887081009 L 383.21737373737375 100.19444024462535 L 389.01521885521885 101.58085669292247 L 394.81306397306395 103.0062636311608 L 400.6109090909091 104.51522653453533 L 406.4087542087543 106.08003281699612 L 412.2065993265994 107.61095533746538 L 418.0044444444445 109.00473863674736 L 423.8022895622895 110.19623880200113 L 429.6001346801346 111.17949134150672 L 435.3979797979798 111.99237257831902 L 441.1958249158249 112.68433257671684 L 446.99367003367007 113.29055121796807 L 452.791515151515 113.82335921272846 L 458.5893602693602 114.27841600786007 L 464.3872053872053 114.64740873335013 L 470.1850505050504 114.92939609728998 L 475.98289562289557 115.1355752942973 L 481.78074074074067 115.2860513651826 L 487.5785858585858 115.40169796545044 L 493.3764309764309 115.49707341208057 L 499.174276094276 115.57899905406079 L 504.97212121212124 115.65055084487093 L 510.7699663299664 115.71607973402855 L 516.5678114478114 115.782950546943 L 522.3656565656565 115.85917164159129 L 528.1635016835017 115.94932854919865 L 533.9613468013468 116.05186616216852 L 539.7591919191918 116.15930910733529 L 545.5570370370369 116.26113641320268 L 551.3548821548821 116.34775050612902 L 557.1527272727272 116.41361959679627 L 562.9505723905723 116.45829324215919 L 568.7484175084173 116.48526107817929 L 574.5462626262624 116.49972783734844 L 580.3441077441076 116.50661546498898 L 586.1419528619527 116.50952289548249 L 591.939797979798 116.5106102418394 L 597.7376430976431 116.51097033459679 L 603.5354882154882 116.51107589258528 L 609.3333333333333 116.51110327660781" fill="" fill-opacity="0.0" stroke="#2ca02c" stroke-width="1.8897637795275593"/><path d="M 35.346666666666664 116.51111111007278 L 41.14451178451179 116.51111109881617 L 46.94235690235693 116.51111098747904 L 52.74020202020199 116.51111005511407 L 58.538047138047126 116.51110344745658 L 64.33589225589225 116.51106384337172 L 70.13373737373738 116.51086327583262 L 75.93158249158252 116.51000614801055 L 81.72942760942757 116.5069207704455 L 87.5272727272727 116.49758926674579 L 93.32511784511783 116.47396050307236 L 99.12296296296297 116.42411471887687 L 104.92080808080811 116.33711019810382 L 110.71865319865317 116.21257326799275 L 116.51649831649829 116.06770026822787 L 122.31434343434344 115.93013457202471 L 128.11218855218857 115.8149399282631 L 133.9100336700336 115.70343924982372 L 139.70787878787874 115.54768510166176 L 145.50572390572387 115.30228862419189 L 151.30356902356903 114.95550499464328 L 157.10141414141415 114.52880109945966 L 162.89925925925928 114.04468951948331 L 168.69710437710435 113.49491765942082 L 174.49494949494948 112.84111691534339 L 180.29279461279464 112.04691667035486 L 186.09063973063974 111.10762098668808 L 191.88848484848478 110.04625119868832 L 197.68632996632994 108.88376096862739 L 203.48417508417506 107.62360804148035 L 209.2820202020202 106.27075782341572 L 215.0798653198653 104.84867459761995 L 220.87771043771048 103.36342515187243 L 226.67555555555558 101.73068769301719 L 232.47340067340065 99.7518823979856 L 238.27124579124578 97.19515444213522 L 244.06909090909085 93.92883727143177 L 249.86693602693597 90.00280499449534 L 255.6647811447811 85.63570262925688 L 261.46262626262626 81.15321069615985 L 267.26047138047136 76.93155887411376 L 273.0583164983165 73.34204672533497 L 278.8561616161616 70.65673647511119 L 284.65400673400677 68.92771370025143 L 290.4518518518518 67.94687687637443 L 296.24969696969697 67.38654128722415 L 302.047542087542 67.05528713324611 L 307.84538720538717 67.05445877935969 L 313.64323232323227 67.69693829580443 L 319.44107744107737 69.27375322911564 L 325.2389225589226 71.86157259822113 L 331.0367676767677 75.27952437751082 L 336.8346127946128 79.17932341177615 L 342.63245791245777 83.19294178907593 L 348.4303030303029 87.04863883935528 L 354.2281481481481 90.59596069840691 L 360.0259932659932 93.75982144731513 L 365.8238383838384 96.49914572162638 L 371.6216835016835 98.80970850549119 L 377.4195286195286 100.74277132728453 L 383.21737373737375 102.40204639230724 L 389.01521885521885 103.9166207192253 L 394.81306397306395 105.40314539612325 L 400.6109090909091 106.92603367622638 L 406.4087542087543 108.47023685308183 L 412.2065993265994 109.94858165569237 L 418.0044444444445 111.25007635492219 L 423.8022895622895 112.30352725199111 L 429.6001346801346 113.11258642674808 L 435.3979797979798 113.73745520723696 L 441.1958249158249 114.24473099693267 L 446.99367003367007 114.67337164092193 L 452.791515151515 115.03908805108185 L 458.5893602693602 115.35443722021456 L 464.3872053872053 115.63410471109303 L 470.1850505050504 115.88489233469296 L 475.98289562289557 116.1002512001868 L 481.78074074074067 116.26825021380661 L 487.5785858585858 116.38358128961359 L 493.3764309764309 116.45220890181533 L 499.174276094276 116.4873610688734 L 504.97212121212124 116.50280140182659 L 510.7699663299664 116.5086009843592 L 516.5678114478114 116.5104592677355 L 522.3656565656565 116.51096610090902 L 528.1635016835017 116.51108355446082 L 533.9613468013468 116.5111066478433 L 539.7591919191918 116.51111049603988 L 545.5570370370369 116.51111103908809 L 551.3548821548821 116.51111110395198 L 557.1527272727272 116.51111111050746 L 562.9505723905723 116.51111111106795 L 568.7484175084173 116.51111111110848 L 574.5462626262624 116.51111111111096 L 580.3441077441076 116.51111111111109 L 586.1419528619527 116.51111111111109 L 591.939797979798 116.51111111111109 L 597.7376430976431 116.51111111111109 L 603.5354882154882 116.51111111111109 L 609.3333333333333 116.51111111111109" fill="" fill-opacity="0.0" stroke="#d62728" stroke-width="1.8897637795275593"/><rect x="0.0" y="0.0" width="0.0" height="0.0" fill="#ffffff" fill-opacity="1.0" stroke="none"/><line x1="118.24334898611252" y1="181.77777777777774" x2="118.24334898611252" y2="233.7555555555555" stroke="#dddddd" stroke-width="0.6666666666666666"/><line x1="259.89245582261333" y1="181.77777777777774" x2="259.89245582261333" y2="233.7555555555555" stroke="#dddddd" stroke-width="0.6666666666666666"/><line x1="401.54156265911416" y1="181.77777777777774" x2="401.54156265911416" y2="233.7555555555555" stroke="#dddddd" stroke-width="0.6666666666666666"/><line x1="543.1906694956149" y1="181.77777777777774" x2="543.1906694956149" y2="233.7555555555555" stroke="#dddddd" stroke-width="0.6666666666666666"/><line x1="47.41879556786212" y1="181.77777777777774" x2="47.41879556786212" y2="233.7555555555555" stroke="#dddddd" stroke-width="1.3333333333333333"/><line x1="189.06790240436294" y1="181.77777777777774" x2="189.06790240436294" y2="233.7555555555555" stroke="#dddddd" stroke-width="1.3333333333333333"/><line x1="330.7170092408637" y1="181.77777777777774" x2="330.7170092408637" y2="233.7555555555555" stroke="#dddddd" stroke-width="1.3333333333333333"/><line x1="472.36611607736455" y1="181.77777777777774" x2="472.36611607736455" y2="233.7555555555555" stroke="#dddddd" stroke-width="1.3333333333333333"/><line x1="35.346666666666664" y1="225.99936806146698" x2="609.3333333333333" y2="225.99936806146698" stroke="#dddddd" stroke-width="0.6666666666666666"/><line x1="35.346666666666664" y1="210.4869930732899" x2="609.3333333333333" y2="210.4869930732899" stroke="#dddddd" stroke-width="0.6666666666666666"/><line x1="35.346666666666664" y1="194.9746180851128" x2="609.3333333333333" y2="194.9746180851128" stroke="#dddddd" stroke-width="0.6666666666666666"/><line x1="35.346666666666664" y1="233.7555555555555" x2="609.3333333333333" y2="233.7555555555555" stroke="#dddddd" stroke-width="1.3333333333333333"/><line x1="35.346666666666664" y1="218.24318056737843" x2="609.3333333333333" y2="218.24318056737843" stroke="#dddddd" stroke-width="1.3333333333333333"/><line x1="35.346666666666664" y1="202.7308055792014" x2="609.3333333333333" y2="202.7308055792014" stroke="#dddddd" stroke-width="1.3333333333333333"/><line x1="35.346666666666664" y1="187.2184305910243" x2="609.3333333333333" y2="187.2184305910243" stroke="#dddddd" stroke-width="1.3333333333333333"/><rect x="35.346666666666664" y="181.77777777777774" width="573.9866666666667" height="51.97777777777776" fill="#ffffff" fill-opacity="0.0" stroke="#444444" stroke-width="1.3333333333333333"/><line x1="47.41879556786212" y1="233.7555555555555" x2="47.41879556786212" y2="237.42222222222216" stroke="#444444" stroke-width="1.3333333333333333"/><text x="47.41879556786212" y="249.74222222222215" fill="#333333" font-size="11.733333333333334" font-family="sans-serif" text-anchor="middle">1.92</text><line x1="189.06790240436294" y1="233.7555555555555" x2="189.06790240436294" y2="237.42222222222216" stroke="#444444" stroke-width="1.3333333333333333"/><text x="189.06790240436294" y="249.74222222222215" fill="#333333" font-size="11.733333333333334" font-family="sans-serif" text-anchor="middle">1.96</text><line x1="330.7170092408637" y1="233.7555555555555" x2="330.7170092408637" y2="237.42222222222216" stroke="#444444" stroke-width="1.3333333333333333"/><text x="330.7170092408637" y="249.74222222222215" fill="#333333" font-size="11.733333333333334" font-family="sans-serif" text-anchor="middle">2.00</text><line x1="472.36611607736455" y1="233.7555555555555" x2="472.36611607736455" y2="237.42222222222216" stroke="#444444" stroke-width="1.3333333333333333"/><text x="472.36611607736455" y="249.74222222222215" fill="#333333" font-size="11.733333333333334" font-family="sans-serif" text-anchor="middle">2.04</text><line x1="35.346666666666664" y1="233.7555555555555" x2="31.679999999999996" y2="233.7555555555555" stroke="#444444" stroke-width="1.3333333333333333"/><text x="28.746666666666663" y="237.8622222222222" fill="#333333" font-size="11.733333333333334" font-family="sans-serif" text-anchor="end">0</text><line x1="35.346666666666664" y1="218.24318056737843" x2="31.679999999999996" y2="218.24318056737843" stroke="#444444" stroke-width="1.3333333333333333"/><text x="28.746666666666663" y="222.34984723404511" fill="#333333" font-size="11.733333333333334" font-family="sans-serif" text-anchor="end">10</text><line x1="35.346666666666664" y1="202.7308055792014" x2="31.679999999999996" y2="202.7308055792014" stroke="#444444" stroke-width="1.3333333333333333"/><text x="28.746666666666663" y="206.83747224586807" fill="#333333" font-size="11.733333333333334" font-family="sans-serif" text-anchor="end">20</text><line x1="35.346666666666664" y1="187.2184305910243" x2="31.679999999999996" y2="187.2184305910243" stroke="#444444" stroke-width="1.3333333333333333"/><text x="28.746666666666663" y="191.32509725769097" fill="#333333" font-size="11.733333333333334" font-family="sans-serif" text-anchor="end">30</text><text x="35.346666666666664" y="170.92444444444442" fill="#333333" font-size="17.599999999999998" font-family="sans-serif" text-anchor="start">b</text><path d="M 35.346666666666664 233.7555555555555 L 41.1445117845119 233.7555555555555 L 46.94235690235713 233.7555555555555 L 52.74020202020237 233.7555555555555 L 58.53804713804682 233.7555555555555 L 64.33589225589205 233.7555555555555 L 70.13373737373729 233.75555555555508 L 75.93158249158253 233.75555555554604 L 81.72942760942777 233.75555555537463 L 87.527272727273 233.7555555527181 L 93.32511784511746 233.75555551900143 L 99.1229629629627 233.75555516876798 L 104.92080808080792 233.7555521939337 L 110.71865319865317 233.75553155606656 L 116.5164983164984 233.75541478464856 L 122.31434343434364 233.75487688495377 L 128.11218855218888 233.75286383356888 L 133.91003367003333 233.74675552829993 L 139.70787878787854 233.73173781019966 L 145.5057239057238 233.70168667889362 L 151.30356902356905 233.6517598468531 L 157.10141414141427 233.57893602633436 L 162.8992592592595 233.47553986011408 L 168.69710437710472 233.32049224816575 L 174.4949494949492 233.08543097903706 L 180.29279461279444 232.76282739050353 L 186.09063973063968 232.39065081979686 L 191.88848484848495 232.03832923366537 L 197.68632996633016 231.75831105436706 L 203.4841750841754 231.5481116929646 L 209.28202020201982 231.3533378538919 L 215.07986531986506 231.09801748744945 L 220.87771043771033 230.7142044949881 L 226.67555555555555 230.1579480400907 L 232.4734006734008 229.40809208214208 L 238.271245791246 228.45126934629002 L 244.06909090909124 227.2731859397284 L 249.86693602693572 225.8712334785784 L 255.66478114478093 224.26614417203717 L 261.46262626262615 222.48363849233192 L 267.2604713804714 220.52088095290736 L 273.05831649831663 218.3262855502308 L 278.8561616161619 215.78803194450987 L 284.6540067340063 212.73487473044122 L 290.45185185185153 208.99356275065784 L 296.2496969696968 204.5174741235376 L 302.047542087542 199.51798625566008 L 307.8453872053873 194.49616781194112 L 313.6432323232325 190.11731415072745 L 319.44107744107777 186.97651097370263 L 325.2389225589222 185.40151929785867 L 331.03676767676825 185.3996401296959 L 336.83461279461267 186.7056368478586 L 342.63245791245873 188.8524070180064 L 348.4303030303032 191.29471991694163 L 354.2281481481476 193.61805321669317 L 360.02599326599363 195.70426160189425 L 365.82383838383805 197.68764580362918 L 371.6216835016842 199.74707945062087 L 377.4195286195286 201.96429322318653 L 383.217373737373 204.37117002868223 L 389.015218855219 207.05559590485032 L 394.8130639730635 210.1361149485015 L 400.6109090909095 213.61102468199175 L 406.408754208754 217.2615832958998 L 412.2065993265999 220.72745413660198 L 418.0044444444444 223.6847333123259 L 423.8022895622888 225.97557374153888 L 429.60013468013494 227.61819355095167 L 435.39797979797936 228.73813071852965 L 441.19582491582537 229.49180319416365 L 446.9936700336698 230.01628441235624 L 452.79151515151585 230.40899665554593 L 458.58936026936027 230.7353364690112 L 464.38720538720474 231.0494174130854 L 470.18505050505075 231.39849282618536 L 475.98289562289517 231.8017617294338 L 481.7807407407412 232.23408994072526 L 487.5785858585857 232.64428753400722 L 493.37643097643013 232.99183854046774 L 499.1742760942762 233.26371743498953 L 504.9721212121206 233.46408102106355 L 510.7699663299666 233.60089608684854 L 516.5678114478111 233.6840290253948 L 522.3656565656571 233.72731315680238 L 528.1635016835016 233.74616484982863 L 533.9613468013475 233.7529485340216 L 539.7591919191921 233.75495439048433 L 545.5570370370365 233.75544077294697 L 551.3548821548825 233.75553744501286 L 557.1527272727269 233.75555319728352 L 562.9505723905729 233.75555530235192 L 568.7484175084173 233.7555555331544 L 574.5462626262619 233.7555555539233 L 580.3441077441079 233.75555555545762 L 586.1419528619524 233.75555555555064 L 591.9397979797984 233.7555555555553 L 597.7376430976428 233.7555555555555 L 603.5354882154888 233.7555555555555 L 609.3333333333333 233.7555555555555" fill="" fill-opacity="0.0" stroke="#1f77b4" stroke-width="1.8897637795275593"/><path d="M 35.346666666666664 233.73078373213707 L 41.1445117845119 233.70323220629592 L 46.94235690235713 233.66349305690545 L 52.74020202020237 233.61989582889447 L 58.53804713804682 233.58597437605624 L 64.33589225589205 233.57052200801456 L 70.13373737373729 233.5696747873283 L 75.93158249158253 233.57144994572846 L 81.72942760942777 233.569541266385 L 87.527272727273 233.5706406164358 L 93.32511784511746 233.58630019471642 L 99.1229629629627 233.61878641065053 L 104.92080808080792 233.65644562056508 L 110.71865319865317 233.68170283773804 L 116.5164983164984 233.68243866193123 L 122.31434343434364 233.65868113812434 L 128.11218855218888 233.6230727466824 L 133.91003367003333 233.5948789044524 L 139.70787878787854 233.58791615526414 L 145.5057239057238 233.59869655886564 L 151.30356902356905 233.604772391521 L 157.10141414141427 233.5765699695958 L 162.8992592592595 233.49528511186816 L 168.69710437710472 233.36457174138695 L 174.4949494949492 233.20588131278276 L 180.29279461279444 233.03653938534595 L 186.09063973063968 232.84602804279055 L 191.88848484848495 232.5957157484271 L 197.68632996633016 232.25190241683964 L 203.4841750841754 231.8284149072494 L 209.28202020201982 231.39678486908727 L 215.07986531986506 231.04377898574538 L 220.87771043771033 230.8032884785784 L 226.67555555555555 230.61750197948152 L 232.4734006734008 230.35900471848794 L 238.271245791246 229.89096414685542 L 244.06909090909124 229.11339487385675 L 249.86693602693572 227.9684795704511 L 255.66478114478093 226.42195289042377 L 261.46262626262615 224.44817762492954 L 267.2604713804714 222.02322999315655 L 273.05831649831663 219.11720364474039 L 278.8561616161619 215.69523141942835 L 284.6540067340063 211.7531204635101 L 290.45185185185153 207.38592265853143 L 296.2496969696968 202.83652462570967 L 302.047542087542 198.4643700058712 L 307.8453872053873 194.6263346931975 L 313.6432323232325 191.5237075697729 L 319.44107744107777 189.1163282257251 L 325.2389225589222 187.20860111908087 L 331.03676767676825 185.69240070265045 L 336.83461279461267 184.73792840120063 L 342.63245791245873 184.7140073116058 L 348.4303030303032 185.889698950253 L 354.2281481481476 188.2095133825299 L 360.02599326599363 191.3438516447892 L 365.82383838383805 194.92492462783605 L 371.6216835016842 198.7295707437193 L 377.4195286195286 202.6811086408218 L 383.217373737373 206.73424437948782 L 389.015218855219 210.7732711335155 L 394.8130639730635 214.58678029923502 L 400.6109090909095 217.91351835062736 L 406.408754208754 220.54123786556517 L 412.2065993265999 222.42237094592386 L 418.0044444444444 223.72493602729094 L 423.8022895622888 224.75137946027502 L 429.60013468013494 225.7709212851957 L 435.39797979797936 226.89791578941498 L 441.19582491582537 228.09351522705424 L 446.9936700336698 229.24769646069686 L 452.79151515151585 230.25708889381113 L 458.58936026936027 231.05986840355948 L 464.38720538720474 231.63945195035382 L 470.18505050505075 232.02043107918269 L 475.98289562289517 232.26254154335084 L 481.7807407407412 232.4421508407776 L 487.5785858585857 232.62105013012663 L 493.37643097643013 232.82295832808055 L 499.1742760942762 233.03364950825278 L 504.9721212121206 233.21848057547237 L 510.7699663299666 233.34432438558338 L 516.5678114478111 233.39969512880072 L 522.3656565656571 233.4053770313085 L 528.1635016835016 233.40439384141112 L 533.9613468013475 233.43375708329137 L 539.7591919191921 233.5006019949688 L 545.5570370370365 233.583158136547 L 551.3548821548825 233.6516323871207 L 557.1527272727269 233.68714687150327 L 562.9505723905729 233.68658338172364 L 568.7484175084173 233.65899782500279 L 574.5462626262619 233.6218034841998 L 580.3441077441079 233.59582824329192 L 586.1419528619524 233.59608994876146 L 591.9397979797984 233.62323971183358 L 597.7376430976428 233.66440898456892 L 603.5354882154888 233.70344027708532 L 609.3333333333333 233.73082294974054" fill="" fill-opacity="0.0" stroke="#ff7f0e" stroke-width="1.8897637795275593"/><path d="M 35.346666666666664 233.7555555555298 L 41.1445117845119 233.75555555516578 L 46.94235690235713 233.75555555058992 L 52.74020202020237 233.755555502434 L 58.53804713804682 233.75555507839172 L 64.33589225589205 233.7555519566745 L 70.13373737373729 233.75553276366077 L 75.93158249158253 233.75543434869553 L 81.72942760942777 233.75501423919332 L 87.527272727273 233.75352486963916 L 93.32511784511746 233.74915390497722 L 99.1229629629627 233.73858090540085 L 104.92080808080792 233.71762162407177 L 110.71865319865317 233.68380590288507 L 116.5164983164984 233.63963824360906 L 122.31434343434364 233.5924900078918 L 128.11218855218888 233.548203521068 L 133.91003367003333 233.50247234383224 L 139.70787878787854 233.4397113396069 L 145.5057239057238 233.34424923247911 L 151.30356902356905 233.216291373518 L 157.10141414141427 233.07842686285667 L 162.8992592592595 232.96440792132898 L 168.69710437710472 232.89562112818544 L 174.4949494949492 232.86245658931313 L 180.29279461279444 232.82713951146553 L 186.09063973063968 232.74657358154093 L 191.88848484848495 232.5920640043047 L 197.68632996633016 232.34427698375094 L 203.4841750841754 231.97236372185813 L 209.28202020201982 231.4306390053595 L 215.07986531986506 230.68659964632502 L 220.87771043771033 229.75031792984697 L 226.67555555555555 228.67037886070787 L 232.4734006734008 227.50711155763122 L 238.271245791246 226.31992535971045 L 244.06909090909124 225.16784494465722 L 249.86693602693572 224.0831513567162 L 255.66478114478093 223.01119672561722 L 261.46262626262615 221.77631368406438 L 267.2604713804714 220.13695942154223 L 273.05831649831663 217.9163981806746 L 278.8561616161619 215.11820792348925 L 284.6540067340063 211.93788103392092 L 290.45185185185153 208.66553444161895 L 296.2496969696968 205.56311534335498 L 302.047542087542 202.80500694335166 L 307.8453872053873 200.49063215670708 L 313.6432323232325 198.66117790696876 L 319.44107744107777 197.2646438012179 L 325.2389225589222 196.1052785551431 L 331.03676767676825 194.88294702980352 L 336.83461279461267 193.37233593129667 L 342.63245791245873 191.63822267905084 L 348.4303030303032 190.09728000075643 L 354.2281481481476 189.33911994570772 L 360.02599326599363 189.82286055954856 L 365.82383838383805 191.66666962413993 L 371.6216835016842 194.65246383839184 L 377.4195286195286 198.38314293371414 L 383.217373737373 202.43976239521464 L 389.015218855219 206.458247401662 L 394.8130639730635 210.16380275311954 L 400.6109090909095 213.41451319367633 L 406.408754208754 216.22454776344696 L 412.2065993265999 218.70980295442934 L 418.0044444444444 220.98034530759946 L 423.8022895622888 223.07253355773358 L 429.60013468013494 224.96535225202211 L 435.39797979797936 226.63233995412213 L 441.19582491582537 228.06611715356456 L 446.9936700336698 229.27122462435358 L 452.79151515151585 230.2571444351043 L 458.58936026936027 231.04288759249633 L 464.38720538720474 231.658171349361 L 470.18505050505075 232.13346330853872 L 475.98289562289517 232.49118079593404 L 481.7807407407412 232.74939074079356 L 487.5785858585857 232.93173263677014 L 493.37643097643013 233.06973677218107 L 499.1742760942762 233.19364945365956 L 504.9721212121206 233.32009399620804 L 510.7699663299666 233.44720742600714 L 516.5678114478111 233.5611006573668 L 522.3656565656571 233.6482581788407 L 528.1635016835016 233.7043716710711 L 533.9613468013475 233.73461859615765 L 539.7591919191921 233.74825231838628 L 545.5570370370365 233.75339148886647 L 551.3548821548825 233.7550122955539 L 557.1527272727269 233.75544024049714 L 562.9505723905729 233.755534888084 L 568.7484175084173 233.7555524313085 L 574.5462626262619 233.75555515754036 L 580.3441077441079 233.7555555128518 L 586.1419528619524 233.75555555169882 L 591.9397979797984 233.75555555526245 L 597.7376430976428 233.75555555553677 L 603.5354882154888 233.75555555555448 L 609.3333333333333 233.75555555555547" fill="" fill-opacity="0.0" stroke="#2ca02c" stroke-width="1.8897637795275593"/><path d="M 35.346666666666664 233.7555555555555 L 41.1445117845119 233.7555555555555 L 46.94235690235713 233.7555555555555 L 52.74020202020237 233.7555555555555 L 58.53804713804682 233.7555555555555 L 64.33589225589205 233.7555555555555 L 70.13373737373729 233.7555555555555 L 75.93158249158253 233.7555555555555 L 81.72942760942777 233.75555555555547 L 87.527272727273 233.75555555555437 L 93.32511784511746 233.75555555552393 L 99.1229629629627 233.75555555486315 L 104.92080808080792 233.75555554346374 L 110.71865319865317 233.75555538746875 L 116.5164983164984 233.75555369582256 L 122.31434343434364 233.755539178312 L 128.11218855218888 233.7554407653828 L 133.91003367003333 233.75491516608946 L 139.70787878787854 233.75271197280915 L 145.5057239057238 233.74550492507905 L 151.30356902356905 233.72727357030308 L 157.10141414141427 233.6921521912352 L 162.8992592592595 233.6420392246389 L 168.69710437710472 233.59183425126497 L 174.4949494949492 233.55958417983987 L 180.29279461279444 233.54246582603108 L 186.09063973063968 233.5027122414089 L 191.88848484848495 233.38493438801856 L 197.68632996633016 233.15180710106216 L 203.4841750841754 232.80210527144908 L 209.28202020201982 232.35921724265523 L 215.07986531986506 231.85743597433333 L 220.87771043771033 231.3394200427006 L 226.67555555555555 230.83265928907514 L 232.4734006734008 230.29894294178587 L 238.271245791246 229.6217707864725 L 244.06909090909124 228.67052196076025 L 249.86693602693572 227.38155150327515 L 255.66478114478093 225.7763473529085 L 261.46262626262615 223.90297083082498 L 267.2604713804714 221.75052059223975 L 273.05831649831663 219.22357095979947 L 278.8561616161619 216.24332095070332 L 284.6540067340063 212.89487119233766 L 290.45185185185153 209.3934393843375 L 296.2496969696968 205.82533885735043 L 302.047542087542 202.02252274326764 L 307.8453872053873 197.8587783156545 L 313.6432323232325 193.62917330110818 L 319.44107744107777 189.9550593065366 L 325.2389225589222 187.28159281922927 L 331.03676767676825 185.5888643549638 L 336.83461279461267 184.610704549915 L 342.63245791245873 184.19490051731782 L 348.4303030303032 184.40867908838095 L 354.2281481481476 185.44434645397953 L 360.02599326599363 187.5150466156737 L 365.82383838383805 190.7461232975005 L 371.6216835016842 195.04566365668535 L 377.4195286195286 200.035415517732 L 383.217373737373 205.11445124397335 L 389.015218855219 209.66111203098444 L 394.8130639730635 213.2897676354849 L 400.6109090909095 216.00120200079144 L 406.408754208754 218.12062350091026 L 412.2065993265999 220.06305569961137 L 418.0044444444444 222.06709678676125 L 423.8022895622888 224.0741648437217 L 429.60013468013494 225.8538962202246 L 435.39797979797936 227.25663689775985 L 441.19582491582537 228.34023550533936 L 446.9936700336698 229.2795797043007 L 452.79151515151585 230.20797751453313 L 458.58936026936027 231.14626309099617 L 464.38720538720474 232.02597085537423 L 470.18505050505075 232.74948681557888 L 475.98289562289517 233.2523550289266 L 481.7807407407412 233.5368537670561 L 487.5785858585857 233.65622633283687 L 493.37643097643013 233.6739028545697 L 499.1742760942762 233.64019596253866 L 504.9721212121206 233.5942400333484 L 510.7699663299666 233.5661371454418 L 516.5678114478111 233.56601107938167 L 522.3656565656571 233.5783271122289 L 528.1635016835016 233.5802136760349 L 533.9613468013475 233.5685984073669 L 539.7591919191921 233.56395716371975 L 545.5570370370365 233.58622618425161 L 551.3548821548825 233.63304074976128 L 557.1527272727269 233.68434910591446 L 562.9505723905729 233.72251868767046 L 568.7484175084173 233.7433444530987 L 574.5462626262619 233.7519621095022 L 580.3441077441079 233.75471381074126 L 586.1419528619524 233.75539861494053 L 591.9397979797984 233.75553226567993 L 597.7376430976428 233.7555528046658 L 603.5354882154888 233.75555529694122 L 609.3333333333333 233.75555553620444" fill="" fill-opacity="0.0" stroke="#d62728" stroke-width="1.8897637795275593"/><rect x="0.0" y="0.0" width="0.0" height="0.0" fill="#ffffff" fill-opacity="1.0" stroke="none"/><line x1="47.66330843249072" y1="299.0222222222221" x2="47.66330843249072" y2="350.9999999999999" stroke="#dddddd" stroke-width="0.6666666666666666"/><line x1="186.98453076468107" y1="299.0222222222221" x2="186.98453076468107" y2="350.9999999999999" stroke="#dddddd" stroke-width="0.6666666666666666"/><line x1="326.30575309687134" y1="299.0222222222221" x2="326.30575309687134" y2="350.9999999999999" stroke="#dddddd" stroke-width="0.6666666666666666"/><line x1="465.62697542906164" y1="299.0222222222221" x2="465.62697542906164" y2="350.9999999999999" stroke="#dddddd" stroke-width="0.6666666666666666"/><line x1="604.9481977612519" y1="299.0222222222221" x2="604.9481977612519" y2="350.9999999999999" stroke="#dddddd" stroke-width="0.6666666666666666"/><line x1="117.32391959858587" y1="299.0222222222221" x2="117.32391959858587" y2="350.9999999999999" stroke="#dddddd" stroke-width="1.3333333333333333"/><line x1="256.64514193077616" y1="299.0222222222221" x2="256.64514193077616" y2="350.9999999999999" stroke="#dddddd" stroke-width="1.3333333333333333"/><line x1="395.96636426296647" y1="299.0222222222221" x2="395.96636426296647" y2="350.9999999999999" stroke="#dddddd" stroke-width="1.3333333333333333"/><line x1="535.2875865951568" y1="299.0222222222221" x2="535.2875865951568" y2="350.9999999999999" stroke="#dddddd" stroke-width="1.3333333333333333"/><line x1="35.346666666666664" y1="342.2768372490573" x2="609.3333333333333" y2="342.2768372490573" stroke="#dddddd" stroke-width="0.6666666666666666"/><line x1="35.346666666666664" y1="324.83051174717207" x2="609.3333333333333" y2="324.83051174717207" stroke="#dddddd" stroke-width="0.6666666666666666"/><line x1="35.346666666666664" y1="307.38418624528686" x2="609.3333333333333" y2="307.38418624528686" stroke="#dddddd" stroke-width="0.6666666666666666"/><line x1="35.346666666666664" y1="350.9999999999999" x2="609.3333333333333" y2="350.9999999999999" stroke="#dddddd" stroke-width="1.3333333333333333"/><line x1="35.346666666666664" y1="333.5536744981147" x2="609.3333333333333" y2="333.5536744981147" stroke="#dddddd" stroke-width="1.3333333333333333"/><line x1="35.346666666666664" y1="316.10734899622946" x2="609.3333333333333" y2="316.10734899622946" stroke="#dddddd" stroke-width="1.3333333333333333"/><rect x="35.346666666666664" y="299.0222222222221" width="573.9866666666667" height="51.97777777777776" fill="#ffffff" fill-opacity="0.0" stroke="#444444" stroke-width="1.3333333333333333"/><line x1="117.32391959858587" y1="350.9999999999999" x2="117.32391959858587" y2="354.6666666666666" stroke="#444444" stroke-width="1.3333333333333333"/><text x="117.32391959858587" y="366.98666666666657" fill="#333333" font-size="11.733333333333334" font-family="sans-serif" text-anchor="middle">0.1</text><line x1="256.64514193077616" y1="350.9999999999999" x2="256.64514193077616" y2="354.6666666666666" stroke="#444444" stroke-width="1.3333333333333333"/><text x="256.64514193077616" y="366.98666666666657" fill="#333333" font-size="11.733333333333334" font-family="sans-serif" text-anchor="middle">0.2</text><line x1="395.96636426296647" y1="350.9999999999999" x2="395.96636426296647" y2="354.6666666666666" stroke="#444444" stroke-width="1.3333333333333333"/><text x="395.96636426296647" y="366.98666666666657" fill="#333333" font-size="11.733333333333334" font-family="sans-serif" text-anchor="middle">0.3</text><line x1="535.2875865951568" y1="350.9999999999999" x2="535.2875865951568" y2="354.6666666666666" stroke="#444444" stroke-width="1.3333333333333333"/><text x="535.2875865951568" y="366.98666666666657" fill="#333333" font-size="11.733333333333334" font-family="sans-serif" text-anchor="middle">0.4</text><line x1="35.346666666666664" y1="350.9999999999999" x2="31.679999999999996" y2="350.9999999999999" stroke="#444444" stroke-width="1.3333333333333333"/><text x="28.746666666666663" y="355.10666666666657" fill="#333333" font-size="11.733333333333334" font-family="sans-serif" text-anchor="end">0</text><line x1="35.346666666666664" y1="333.5536744981147" x2="31.679999999999996" y2="333.5536744981147" stroke="#444444" stroke-width="1.3333333333333333"/><text x="28.746666666666663" y="337.66034116478136" fill="#333333" font-size="11.733333333333334" font-family="sans-serif" text-anchor="end">5</text><line x1="35.346666666666664" y1="316.10734899622946" x2="31.679999999999996" y2="316.10734899622946" stroke="#444444" stroke-width="1.3333333333333333"/><text x="28.746666666666663" y="320.21401566289614" fill="#333333" font-size="11.733333333333334" font-family="sans-serif" text-anchor="end">10</text><text x="35.346666666666664" y="288.16888888888883" fill="#333333" font-size="17.599999999999998" font-family="sans-serif" text-anchor="start">s</text><path d="M 35.346666666666664 350.8654621739075 L 41.14451178451178 350.61604179740766 L 46.94235690235689 350.0458528775264 L 52.74020202020202 348.91918910547577 L 58.538047138047126 346.9797806817777 L 64.33589225589225 344.0425449476322 L 70.13373737373736 340.0827195243519 L 75.9315824915825 335.26935579211647 L 81.7294276094276 329.92404306350255 L 87.52727272727273 324.4311724724608 L 93.32511784511783 319.1507643323442 L 99.12296296296296 314.37974470481976 L 104.92080808080807 310.36844660654265 L 110.71865319865317 307.3440419743324 L 116.51649831649829 305.48337893997825 L 122.31434343434341 304.8430297088679 L 128.11218855218854 305.3186411136246 L 133.91003367003364 306.68377398878107 L 139.70787878787877 308.6811386756349 L 145.50572390572387 311.1010387869903 L 151.30356902356897 313.81009460960956 L 157.10141414141415 316.7377000348307 L 162.89925925925925 319.84323734633716 L 168.69710437710438 323.0773309487038 L 174.49494949494948 326.3455997134718 L 180.29279461279458 329.4963327841214 L 186.09063973063968 332.357352934805 L 191.88848484848484 334.8122134026808 L 197.68632996632996 336.85775883087126 L 203.48417508417506 338.5873361173374 L 209.28202020202016 340.10933768837623 L 215.07986531986526 341.47319474826986 L 220.87771043771036 342.66595759328345 L 226.6755555555555 343.6703578557739 L 232.47340067340065 344.5153804511565 L 238.27124579124575 345.26556587618217 L 244.06909090909085 345.9668352928064 L 249.86693602693597 346.61343232473814 L 255.66478114478107 347.17135663804 L 261.4626262626262 347.626725376736 L 267.2604713804713 348.00353385809296 L 273.05831649831646 348.33874121509587 L 278.85616161616156 348.6535161599107 L 284.65400673400666 348.9536388725058 L 290.4518518518518 349.2452503388606 L 296.24969696969697 349.5332359540583 L 302.04754208754207 349.80157627083446 L 307.84538720538717 350.00738919662086 L 313.64323232323227 350.10701391350926 L 319.44107744107737 350.09398382349383 L 325.23892255892247 350.0141304169234 L 331.03676767676757 349.9438410529059 L 336.83461279461267 349.9471707914773 L 342.6324579124578 350.0414956588868 L 348.4303030303029 350.1934870217522 L 354.2281481481481 350.3447671512448 L 360.0259932659932 350.44651522056824 L 365.8238383838384 350.4801109986174 L 371.6216835016834 350.45625789182577 L 377.4195286195286 350.4023032074863 L 383.2173737373737 350.3510403422082 L 389.01521885521885 350.333462140336 L 394.8130639730639 350.3692303512153 L 400.61090909090905 350.4555919315668 L 406.40875420875415 350.56677344573893 L 412.20659932659925 350.67027888982034 L 418.0044444444444 350.7477907125331 L 423.8022895622895 350.8020011131103 L 429.6001346801346 350.8458090682516 L 435.3979797979797 350.88750304518095 L 441.1958249158249 350.92543663067323 L 446.99367003367 350.9526265014666 L 452.79151515151517 350.9631136550805 L 458.58936026936027 350.95490357822564 L 464.38720538720537 350.9307462745136 L 470.1850505050504 350.8988658654378 L 475.9828956228955 350.8720446601626 L 481.78074074074067 350.86257561608033 L 487.57858585858577 350.87521416735746 L 493.3764309764309 350.9042750791589 L 499.17427609427597 350.93797339839693 L 504.9721212121211 350.96605219554453 L 510.7699663299662 350.98430635855044 L 516.5678114478114 350.9938720723734 L 522.3656565656565 350.99797893022617 L 528.1635016835016 350.9994369762076 L 533.9613468013467 350.99986752011375 L 539.7591919191918 350.9999736699973 L 545.5570370370369 350.99999557992516 L 551.354882154882 350.9999993732618 L 557.1527272727272 350.99999992493787 L 562.9505723905722 350.99999999240663 L 568.7484175084174 350.9999999993511 L 574.5462626262625 350.99999999995305 L 580.3441077441078 350.99999999999704 L 586.1419528619529 350.9999999999998 L 591.939797979798 350.9999999999999 L 597.7376430976431 350.9999999999999 L 603.535488215488 350.9999999999999 L 609.3333333333333 350.9999999999999" fill="" fill-opacity="0.0" stroke="#1f77b4" stroke-width="1.8897637795275593"/><path d="M 35.346666666666664 350.9180243061818 L 41.14451178451178 350.7462123710893 L 46.94235690235689 350.31568857094527 L 52.74020202020202 349.3890601192259 L 58.538047138047126 347.67331652676376 L 64.33589225589225 344.92626667099523 L 70.13373737373736 341.08279448641224 L 75.9315824915825 336.3003374496909 L 81.7294276094276 330.88016592175813 L 87.52727272727273 325.1495975443746 L 93.32511784511783 319.42480435548856 L 99.12296296296296 314.05245530685903 L 104.92080808080807 309.41864002378884 L 110.71865319865317 305.87172778233355 L 116.51649831649829 303.63288132261005 L 122.31434343434341 302.7727211530558 L 128.11218855218854 303.23252560885 L 133.91003367003364 304.8361180753503 L 139.70787878787877 307.30877563095777 L 145.50572390572387 310.34758494018615 L 151.30356902356897 313.71160716546206 L 157.10141414141415 317.2491381417448 L 162.89925925925925 320.84728863271306 L 168.69710437710438 324.376063222188 L 174.49494949494948 327.68733840023265 L 180.29279461279458 330.65964242140035 L 186.09063973063968 333.2448356906134 L 191.88848484848484 335.4793935153653 L 197.68632996632996 337.445301381327 L 203.48417508417506 339.2034757808237 L 209.28202020202016 340.7537687234845 L 215.07986531986526 342.0563012831857 L 220.87771043771036 343.08980655392594 L 226.6755555555555 343.8899530942705 L 232.47340067340065 344.53880789596707 L 238.27124579124575 345.1263282557477 L 244.06909090909085 345.7189844746531 L 249.86693602693597 346.3463669296382 L 255.66478114478107 346.99770358754523 L 261.4626262626262 347.6280793409899 L 267.2604713804713 348.1817363862076 L 273.05831649831646 348.6237340310354 L 278.85616161616156 348.95379645514873 L 284.65400673400666 349.18960674020934 L 290.4518518518518 349.3403516003152 L 296.24969696969697 349.40341227847154 L 302.04754208754207 349.3897710753829 L 307.84538720538717 349.346212544338 L 313.64323232323227 349.3401699769885 L 319.44107744107737 349.41375711515184 L 325.23892255892247 349.5510928596246 L 331.03676767676757 349.6920453942894 L 336.83461279461267 349.7799790867183 L 342.6324579124578 349.8024023264836 L 348.4303030303029 349.7949052546063 L 354.2281481481481 349.81112219632655 L 360.0259932659932 349.885901265966 L 365.8238383838384 350.01920829322 L 371.6216835016834 350.1865250674469 L 377.4195286195286 350.3589050918627 L 383.2173737373737 350.5143865402061 L 389.01521885521885 350.63873703943625 L 394.8130639730639 350.7247247841088 L 400.61090909090905 350.7741815771047 L 406.40875420875415 350.7978101276084 L 412.20659932659925 350.80875303748564 L 418.0044444444444 350.8151082619643 L 423.8022895622895 350.8194116298917 L 429.6001346801346 350.82439142050555 L 435.3979797979797 350.83612128219244 L 441.1958249158249 350.85984542632 L 446.99367003367 350.89411424342376 L 452.79151515151517 350.9309081868826 L 458.58936026936027 350.96152560790233 L 464.38720538720537 350.9818239034548 L 470.1850505050504 350.992735843446 L 475.9828956228955 350.9975472740319 L 481.78074074074067 350.99930076427137 L 487.57858585858577 350.999831738667 L 493.3764309764309 350.9999658277611 L 499.17427609427597 350.99999414314846 L 504.9721212121211 350.99999915288123 L 510.7699663299662 350.99999989660296 L 516.5678114478114 350.9999999893498 L 522.3656565656565 350.9999999990742 L 528.1635016835016 350.999999999932 L 533.9613468013467 350.99999999999574 L 539.7591919191918 350.99999999999966 L 545.5570370370369 350.9999999999999 L 551.354882154882 350.9999999999999 L 557.1527272727272 350.9999999999999 L 562.9505723905722 350.9999999999999 L 568.7484175084174 350.9999999999999 L 574.5462626262625 350.9999999999999 L 580.3441077441078 350.9999999999999 L 586.1419528619529 350.9999999999999 L 591.939797979798 350.9999999999999 L 597.7376430976431 350.9999999999999 L 603.535488215488 350.9999999999999 L 609.3333333333333 350.9999999999999" fill="" fill-opacity="0.0" stroke="#ff7f0e" stroke-width="1.8897637795275593"/><path d="M 35.346666666666664 350.85001469469705 L 41.14451178451178 350.59423557963703 L 46.94235690235689 350.0289815524651 L 52.74020202020202 348.93286193588034 L 58.538047138047126 347.0581588157825 L 64.33589225589225 344.2108274945401 L 70.13373737373736 340.33582236704547 L 75.9315824915825 335.55748178818277 L 81.7294276094276 330.1529086258724 L 87.52727272727273 324.48893423240435 L 93.32511784511783 318.9746262071485 L 99.12296296296296 314.042378698889 L 104.92080808080807 310.11451813867797 L 110.71865319865317 307.51432830576186 L 116.51649831649829 306.35332305424095 L 122.31434343434341 306.4875828613621 L 128.11218855218854 307.59872757308904 L 133.91003367003364 309.34771148257903 L 139.70787878787877 311.49155181941717 L 145.50572390572387 313.9036231802763 L 151.30356902356897 316.5256239854663 L 157.10141414141415 319.30910221883653 L 162.89925925925925 322.1760211268181 L 168.69710437710438 325.0019903625788 L 174.49494949494948 327.62701950868376 L 180.29279461279458 329.9002733506131 L 186.09063973063968 331.74463195114333 L 191.88848484848484 333.1999358011779 L 197.68632996632996 334.4077342547626 L 203.48417508417506 335.54543585629915 L 209.28202020202016 336.7604873730394 L 215.07986531986526 338.142906584039 L 220.87771043771036 339.72184651414085 L 226.6755555555555 341.45218730582553 L 232.47340067340065 343.19827263882127 L 238.27124579124575 344.75945875630896 L 244.06909090909085 345.9528695963948 L 249.86693602693597 346.70498430285215 L 255.66478114478107 347.08538616150446 L 261.4626262626262 347.2617652992661 L 267.2604713804713 347.4118419565762 L 273.05831649831646 347.64721928384586 L 278.85616161616156 347.98577022272514 L 284.65400673400666 348.3762796684364 L 290.4518518518518 348.750753383853 L 296.24969696969697 349.0684967851604 L 302.04754208754207 349.3277292568596 L 307.84538720538717 349.5469536860626 L 313.64323232323227 349.7391107262404 L 319.44107744107737 349.90127498218044 L 325.23892255892247 350.0246199805367 L 331.03676767676757 350.1109693430934 L 336.83461279461267 350.17861679617937 L 342.6324579124578 350.2521419449543 L 348.4303030303029 350.34611287522296 L 354.2281481481481 350.45684147543943 L 360.0259932659932 350.5674800620164 L 365.8238383838384 350.6602681474478 L 371.6216835016834 350.7262209402702 L 377.4195286195286 350.7670624306711 L 383.2173737373737 350.79041373336673 L 389.01521885521885 350.8031348407105 L 394.8130639730639 350.8080845964151 L 400.61090909090905 350.80592912057875 L 406.40875420875415 350.79870744319396 L 412.20659932659925 350.7909790371525 L 418.0044444444444 350.78821262720004 L 423.8022895622895 350.7949440519251 L 429.6001346801346 350.81378276177986 L 435.3979797979797 350.8443517323759 L 441.1958249158249 350.8823262561164 L 446.99367003367 350.9202757446811 L 452.79151515151517 350.9505430343591 L 458.58936026936027 350.96791882685363 L 464.38720538720537 350.9702509542124 L 470.1850505050504 350.95780963679573 L 475.9828956228955 350.9333973451174 L 481.78074074074067 350.90328110471535 L 487.57858585858577 350.8765831481136 L 493.3764309764309 350.8613494241554 L 499.17427609427597 350.8593479999873 L 504.9721212121211 350.8645301313014 L 510.7699663299662 350.86780410998756 L 516.5678114478114 350.8647482162788 L 522.3656565656565 350.859451673762 L 528.1635016835016 350.8609092610799 L 533.9613468013467 350.87525228103163 L 539.7591919191918 350.9006026061827 L 545.5570370370369 350.928219138876 L 551.354882154882 350.9477612054717 L 557.1527272727272 350.9521538233012 L 562.9505723905722 350.9399275897545 L 568.7484175084174 350.91568734798125 L 574.5462626262625 350.88915975506916 L 580.3441077441078 350.87194045559164 L 586.1419528619529 350.87215836295496 L 591.939797979798 350.89018026819554 L 597.7376430976431 350.91890271581616 L 603.535488215488 350.948530741355 L 609.3333333333333 350.9719275116179" fill="" fill-opacity="0.0" stroke="#2ca02c" stroke-width="1.8897637795275593"/><path d="M 35.346666666666664 350.85530211880143 L 41.14451178451178 350.62573726069706 L 46.94235690235689 350.14034374714424 L 52.74020202020202 349.21656427412205 L 58.538047138047126 347.6056005742531 L 64.33589225589225 345.009039202241 L 70.13373737373736 341.15320894840494 L 75.9315824915825 335.9334405962537 L 81.7294276094276 329.5593795895179 L 87.52727272727273 322.57904842286524 L 93.32511784511783 315.7325667153367 L 99.12296296296296 309.733120216272 L 104.92080808080807 305.1249811018754 L 110.71865319865317 302.2640849180069 L 116.51649831649829 301.3294039979048 L 122.31434343434341 302.26487477959324 L 128.11218855218854 304.6915211578528 L 133.91003367003364 307.9459060969401 L 139.70787878787877 311.3146589743443 L 145.50572390572387 314.3259541326104 L 151.30356902356897 316.89205972012746 L 157.10141414141415 319.23937447286704 L 162.89925925925925 321.70989821045697 L 168.69710437710438 324.5401020131517 L 174.49494949494948 327.70717138692896 L 180.29279461279458 330.93096761489926 L 186.09063973063968 333.8434512918987 L 191.88848484848484 336.1986296585301 L 197.68632996632996 337.9693401384837 L 203.48417508417506 339.3030902896925 L 209.28202020202016 340.4158191822824 L 215.07986531986526 341.4908600562363 L 220.87771043771036 342.608583668288 L 226.6755555555555 343.73099132123986 L 232.47340067340065 344.75627609209096 L 238.27124579124575 345.60732306634213 L 244.06909090909085 346.2839198621432 L 249.86693602693597 346.8426159499966 L 255.66478114478107 347.334961882335 L 261.4626262626262 347.7653511220392 L 267.2604713804713 348.1019369353596 L 273.05831649831646 348.32197444751114 L 278.85616161616156 348.44567808328844 L 284.65400673400666 348.5312186852016 L 290.4518518518518 348.6423718913589 L 296.24969696969697 348.81799796025837 L 302.04754208754207 349.0607243512796 L 307.84538720538717 349.34450338587556 L 313.64323232323227 349.6311246283297 L 319.44107744107737 349.88374452303134 L 325.23892255892247 350.07335172161834 L 331.03676767676757 350.1843301826083 L 336.83461279461267 350.22130207691004 L 342.6324579124578 350.2088050974217 L 348.4303030303029 350.1801929883848 L 354.2281481481481 350.16492045405687 L 360.0259932659932 350.18179492694577 L 365.8238383838384 350.2368151388622 L 371.6216835016834 350.3245783308387 L 377.4195286195286 350.43364123395355 L 383.2173737373737 350.55083653335925 L 389.01521885521885 350.66078930864774 L 394.8130639730639 350.7468310595732 L 400.61090909090905 350.7992239197029 L 406.40875420875415 350.823627222284 L 412.20659932659925 350.8381674941639 L 418.0044444444444 350.8597936442511 L 423.8022895622895 350.8929461421145 L 429.6001346801346 350.93024299437076 L 435.3979797979797 350.96170431645146 L 441.1958249158249 350.9823724271132 L 446.99367003367 350.9932088535109 L 452.79151515151517 350.9978116432954 L 458.58936026936027 350.99941032369685 L 464.38720538720537 350.9998671407852 L 470.1850505050504 350.99997497130846 L 475.9828956228955 350.99999605771575 L 481.78074074074067 350.9999994808185 L 487.57858585858577 350.9999999428322 L 493.3764309764309 350.9999999947368 L 499.17427609427597 350.9999999995948 L 504.9721212121211 350.99999999997385 L 510.7699663299662 350.99999999999847 L 516.5678114478114 350.99999999999983 L 522.3656565656565 350.9999999999999 L 528.1635016835016 350.9999999999999 L 533.9613468013467 350.9999999999999 L 539.7591919191918 350.9999999999999 L 545.5570370370369 350.9999999999999 L 551.354882154882 350.9999999999999 L 557.1527272727272 350.9999999999999 L 562.9505723905722 350.9999999999999 L 568.7484175084174 350.9999999999999 L 574.5462626262625 350.9999999999999 L 580.3441077441078 350.9999999999999 L 586.1419528619529 350.9999999999999 L 591.939797979798 350.9999999999999 L 597.7376430976431 350.9999999999999 L 603.535488215488 350.9999999999999 L 609.3333333333333 350.9999999999999" fill="" fill-opacity="0.0" stroke="#d62728" stroke-width="1.8897637795275593"/></svg>