<svg xmlns="http://www.w3.org/2000/svg" width="624" height="384" viewBox="0 0 624 384"><rect x="0.0" y="0.0" width="624.0" height="384.0" fill="#ffffff" fill-opacity="1.0" stroke="none"/><rect x="317.8141968566862" y="12.666666666666666" width="80.69997780145621" height="340.3333333333333" fill="#ffffff" fill-opacity="0.0" stroke="#444444" stroke-width="1.1513674302965726"/><text x="392.7573375066595" y="348.3945302788137" fill="#333333" font-size="10.132033386609839" font-family="sans-serif" text-anchor="end">obs (10)</text><line x1="221.74327462702593" y1="64.97290725194537" x2="320.10121135842184" y2="117.82194788374018" stroke="#444444" stroke-width="1.7270511454448587"/><path d="M 330.2435255727224 123.27154955112556 L 318.1938507748369 121.37175785874538 L 322.0085719420067 114.27213790873498 Z" fill="#444444" fill-opacity="1.0" stroke="none"/><line x1="297.0177938471602" y1="73.01239548078287" x2="330.53429930016" y2="111.9347889100729" stroke="#444444" stroke-width="1.7270511454448587"/><path d="M 338.0472381558436 120.65949209731843 L 327.480653184624 114.56431750956217 L 333.5879454156959 109.30526031058362 Z" fill="#444444" fill-opacity="1.0" stroke="none"/><line x1="350.3604731742931" y1="145.98957556384303" x2="353.71095853199705" y2="176.14394378317849" stroke="#444444" stroke-width="1.7270511454448587"/><path d="M 354.98243115600224 187.58719739922574 L 349.7058197663805 176.58895920158034 L 357.71609729761354 175.69892836477666 Z" fill="#444444" fill-opacity="1.0" stroke="none"/><line x1="358.1641857574143" y1="245.00717456934825" x2="358.1641857574143" y2="258.8235837329071" stroke="#444444" stroke-width="1.7270511454448587"/><path d="M 358.1641857574143 270.3372580358729 L 354.13439975137624 258.8235837329071 L 362.1939717634523 258.8235837329071 Z" fill="#444444" fill-opacity="1.0" stroke="none"/><line x1="425.336188157218" y1="156.5145422343307" x2="389.3026655493354" y2="188.54434010800404" stroke="#444444" stroke-width="1.7270511454448587"/><path d="M 380.69723808301023 196.19360896695974 L 386.625421448701 185.53244049479022 L 391.9799096499699 191.55623972121785 Z" fill="#444444" fill-opacity="1.0" stroke="none"/><line x1="351.9595946052605" y1="79.2102646066418" x2="350.29552348418025" y2="109.16354478608719" stroke="#444444" stroke-width="1.7270511454448587"/><path d="M 349.65685974466743 120.65949209731843 L 346.2719419252493 108.94001247725768 L 354.3191050431111 109.38707709491668 Z" fill="#444444" fill-opacity="1.0" stroke="none"/><rect x="329.90962901793637" y="21.64189309181318" width="47.2981740365832" height="57.56837151482863" fill="#cfcfcf" fill-opacity="1.0" stroke="#444444" stroke-width="1.3816409163558871"/><text x="353.55871603622796" y="40.054561037115974" fill="#333333" font-size="10.132033386609839" font-family="sans-serif" text-anchor="middle">x</text><text x="353.55871603622796" y="53.87097020067484" fill="#333333" font-size="10.362306872669153" font-family="sans-serif" text-anchor="middle">~</text><text x="353.55871603622796" y="67.68737936423372" fill="#333333" font-size="10.362306872669153" font-family="sans-serif" text-anchor="middle">Data</text><rect x="334.51509873912266" y="270.3372580358729" width="47.2981740365832" height="57.56837151482863" fill="#cfcfcf" fill-opacity="1.0" stroke="#444444" stroke-width="1.3816409163558871"/><text x="358.1641857574143" y="288.74992598117564" fill="#333333" font-size="10.132033386609839" font-family="sans-serif" text-anchor="middle">y</text><text x="358.1641857574143" y="302.56633514473447" fill="#333333" font-size="10.362306872669153" font-family="sans-serif" text-anchor="middle">~</text><text x="358.1641857574143" y="316.38274430829335" fill="#333333" font-size="10.362306872669153" font-family="sans-serif" text-anchor="middle">Data</text><path d="M 163.29524817971938 50.426078849227494 C 163.29524817971938 34.52901201999721 177.34220781143998 21.64189309181318 194.67001065530098 21.64189309181318 C 211.99781349916196 21.64189309181318 226.04477313088256 34.52901201999721 226.04477313088256 50.426078849227494 C 226.04477313088256 66.32314567845778 211.99781349916196 79.2102646066418 194.67001065530098 79.2102646066418 C 177.34220781143998 79.2102646066418 163.29524817971938 66.32314567845778 163.29524817971938 50.426078849227494 Z" fill="#ffffff" fill-opacity="1.0" stroke="#444444" stroke-width="1.3816409163558871"/><text x="194.67001065530098" y="40.054561037115974" fill="#333333" font-size="10.132033386609839" font-family="sans-serif" text-anchor="middle">a</text><text x="194.67001065530098" y="53.87097020067484" fill="#333333" font-size="10.362306872669153" font-family="sans-serif" text-anchor="middle">~</text><text x="194.67001065530098" y="67.68737936423372" fill="#333333" font-size="10.362306872669153" font-family="sans-serif" text-anchor="middle">Normal</text><path d="M 246.1937031610726 50.426078849227494 C 246.1937031610726 34.52901201999721 260.24066279279316 21.64189309181318 277.5684656366542 21.64189309181318 C 294.89626848051523 21.64189309181318 308.94322811223583 34.52901201999721 308.94322811223583 50.426078849227494 C 308.94322811223583 66.32314567845778 294.89626848051523 79.2102646066418 277.5684656366542 79.2102646066418 C 260.24066279279316 79.2102646066418 246.1937031610726 66.32314567845778 246.1937031610726 50.426078849227494 Z" fill="#ffffff" fill-opacity="1.0" stroke="#444444" stroke-width="1.3816409163558871"/><text x="277.5684656366542" y="40.054561037115974" fill="#333333" font-size="10.132033386609839" font-family="sans-serif" text-anchor="middle">b</text><text x="277.5684656366542" y="53.87097020067484" fill="#333333" font-size="10.362306872669153" font-family="sans-serif" text-anchor="middle">~</text><text x="277.5684656366542" y="67.68737936423372" fill="#333333" font-size="10.362306872669153" font-family="sans-serif" text-anchor="middle">Normal</text><path d="M 407.3851434025928 133.32453383058072 C 407.3851434025928 117.42746700135044 427.1024353627143 104.54034807316641 451.42494761143666 104.54034807316641 C 475.747459860159 104.54034807316641 495.4647518202806 117.42746700135044 495.4647518202806 133.32453383058072 C 495.4647518202806 149.221600659811 475.747459860159 162.10871958799504 451.42494761143666 162.10871958799504 C 427.1024353627143 162.10871958799504 407.3851434025928 149.221600659811 407.3851434025928 133.32453383058072 Z" fill="#ffffff" fill-opacity="1.0" stroke="#444444" stroke-width="1.3816409163558871"/><text x="451.42494761143666" y="122.95301601846919" fill="#333333" font-size="10.132033386609839" font-family="sans-serif" text-anchor="middle">s</text><text x="451.42494761143666" y="136.76942518202807" fill="#333333" font-size="10.362306872669153" font-family="sans-serif" text-anchor="middle">~</text><text x="451.42494761143666" y="150.58583434558693" fill="#333333" font-size="10.362306872669153" font-family="sans-serif" text-anchor="middle">HalfNormal</text><rect x="330.2435255727224" y="120.65949209731843" width="37.41944148463861" height="25.3300834665246" fill="#ffffff" fill-opacity="1.0" stroke="#444444" stroke-width="1.3816409163558871"/><text x="348.9532463150417" y="136.76942518202807" fill="#333333" font-size="10.132033386609839" font-family="sans-serif" text-anchor="middle">mu</text><path d="M 326.7894232818327 216.22298881193393 C 326.7894232818327 200.32592198270368 340.8363829135533 187.4388030545196 358.1641857574143 187.4388030545196 C 375.49198860127535 187.4388030545196 389.5389482329959 200.32592198270368 389.5389482329959 216.22298881193393 C 389.5389482329959 232.1200556411642 375.49198860127535 245.00717456934825 358.1641857574143 245.00717456934825 C 340.8363829135533 245.00717456934825 326.7894232818327 232.1200556411642 326.7894232818327 216.22298881193393 Z" fill="#cfcfcf" fill-opacity="1.0" stroke="#444444" stroke-width="1.3816409163558871"/><text x="358.1641857574143" y="205.8514709998224" fill="#333333" font-size="10.132033386609839" font-family="sans-serif" text-anchor="middle">obs</text><text x="358.1641857574143" y="219.66788016338128" fill="#333333" font-size="10.362306872669153" font-family="sans-serif" text-anchor="middle">~</text><text x="358.1641857574143" y="233.48428932694014" fill="#333333" font-size="10.362306872669153" font-family="sans-serif" text-anchor="middle">Normal</text></svg>