<svg xmlns="http://www.w3.org/2000/svg" width="800" height="600" viewBox="0 0 800 600"><rect x="0.0" y="0.0" width="800.0" height="600.0" fill="#ffffff" fill-opacity="1.0" stroke="none"/><line x1="139.50977713626668" y1="5.5" x2="139.50977713626668" y2="578.55" stroke="#dddddd" stroke-width="0.5"/><line x1="313.75205868152733" y1="5.5" x2="313.75205868152733" y2="578.55" stroke="#dddddd" stroke-width="0.5"/><line x1="487.99434022678804" y1="5.5" x2="487.99434022678804" y2="578.55" stroke="#dddddd" stroke-width="0.5"/><line x1="662.2366217720486" y1="5.5" x2="662.2366217720486" y2="578.55" stroke="#dddddd" stroke-width="0.5"/><line x1="52.388636363636365" y1="5.5" x2="52.388636363636365" y2="578.55" stroke="#dddddd" stroke-width="1.0"/><line x1="226.630917908897" y1="5.5" x2="226.630917908897" y2="578.55" stroke="#dddddd" stroke-width="1.0"/><line x1="400.87319945415766" y1="5.5" x2="400.87319945415766" y2="578.55" stroke="#dddddd" stroke-width="1.0"/><line x1="575.1154809994183" y1="5.5" x2="575.1154809994183" y2="578.55" stroke="#dddddd" stroke-width="1.0"/><line x1="749.3577625446788" y1="5.5" x2="749.3577625446788" y2="578.55" stroke="#dddddd" stroke-width="1.0"/><line x1="17.049999999999997" y1="471.103125" x2="794.5" y2="471.103125" stroke="#dddddd" stroke-width="1.0"/><line x1="17.049999999999997" y1="292.025" x2="794.5" y2="292.025" stroke="#dddddd" stroke-width="1.0"/><line x1="17.049999999999997" y1="112.94687499999998" x2="794.5" y2="112.94687499999998" stroke="#dddddd" stroke-width="1.0"/><rect x="17.049999999999997" y="5.5" width="777.45" height="573.05" fill="#ffffff" fill-opacity="0.0" stroke="#444444" stroke-width="1.0"/><line x1="52.388636363636365" y1="578.55" x2="52.388636363636365" y2="581.3" stroke="#444444" stroke-width="1.0"/><text x="52.388636363636365" y="592.3" fill="#333333" font-size="11.0" font-family="sans-serif" text-anchor="middle">0</text><line x1="226.630917908897" y1="578.55" x2="226.630917908897" y2="581.3" stroke="#444444" stroke-width="1.0"/><text x="226.630917908897" y="592.3" fill="#333333" font-size="11.0" font-family="sans-serif" text-anchor="middle">0.5</text><line x1="400.87319945415766" y1="578.55" x2="400.87319945415766" y2="581.3" stroke="#444444" stroke-width="1.0"/><text x="400.87319945415766" y="592.3" fill="#333333" font-size="11.0" font-family="sans-serif" text-anchor="middle">1</text><line x1="575.1154809994183" y1="578.55" x2="575.1154809994183" y2="581.3" stroke="#444444" stroke-width="1.0"/><text x="575.1154809994183" y="592.3" fill="#333333" font-size="11.0" font-family="sans-serif" text-anchor="middle">1.5</text><line x1="749.3577625446788" y1="578.55" x2="749.3577625446788" y2="581.3" stroke="#444444" stroke-width="1.0"/><text x="749.3577625446788" y="592.3" fill="#333333" font-size="11.0" font-family="sans-serif" text-anchor="middle">2</text><line x1="17.049999999999997" y1="471.103125" x2="14.299999999999997" y2="471.103125" stroke="#444444" stroke-width="1.0"/><text x="12.099999999999998" y="474.953125" fill="#333333" font-size="11.0" font-family="sans-serif" text-anchor="end">s</text><line x1="17.049999999999997" y1="292.025" x2="14.299999999999997" y2="292.025" stroke="#444444" stroke-width="1.0"/><text x="12.099999999999998" y="295.875" fill="#333333" font-size="11.0" font-family="sans-serif" text-anchor="end">b</text><line x1="17.049999999999997" y1="112.94687499999998" x2="14.299999999999997" y2="112.94687499999998" stroke="#444444" stroke-width="1.0"/><text x="12.099999999999998" y="116.79687499999997" fill="#333333" font-size="11.0" font-family="sans-serif" text-anchor="end">a</text><line x1="52.388636363636365" y1="5.5" x2="52.388636363636365" y2="578.55" stroke="#888" stroke-width="1.0"/><line x1="346.5560162973498" y1="112.94687499999998" x2="459.9525147970266" y2="112.94687499999998" stroke="#1f77b4" stroke-width="1.5"/><circle cx="403.2542655471882" cy="112.94687499999998" r="3.0" fill="#1f77b4" fill-opacity="0.9" stroke="#1f77b4" stroke-width="1.0"/><line x1="740.8148892610437" y1="292.025" x2="759.1613636363637" y2="292.025" stroke="#1f77b4" stroke-width="1.5"/><circle cx="749.9881264487037" cy="292.025" r="3.0" fill="#1f77b4" fill-opacity="0.9" stroke="#1f77b4" stroke-width="1.0"/><line x1="73.4098282865958" y1="471.103125" x2="115.98337936817654" y2="471.103125" stroke="#1f77b4" stroke-width="1.5"/><circle cx="94.69660382738616" cy="471.103125" r="3.0" fill="#1f77b4" fill-opacity="0.9" stroke="#1f77b4" stroke-width="1.0"/></svg>