<svg xmlns="http://www.w3.org/2000/svg" width="800" height="600" viewBox="0 0 800 600"><rect x="0.0" y="0.0" width="800.0" height="600.0" fill="#ffffff" fill-opacity="1.0" stroke="none"/><rect x="207.5625" y="256.825" width="243.31249999999997" height="337.92499999999995" fill="#ffffff" fill-opacity="0.0" stroke="#444444" stroke-width="1.0"/><text x="444.875" y="590.75" fill="#333333" font-size="10.0" font-family="sans-serif" text-anchor="end">obs (10)</text><line x1="84.38473697513176" y1="59.81088956333568" x2="232.25918671728624" y2="276.625" stroke="#444444" stroke-width="1.5"/><path d="M 232.25918671728624 276.625 L 222.4938821415112 271.1808447356502 L 230.75532818330103 265.5462631807701 Z" fill="#444444" fill-opacity="1.0" stroke="none"/><line x1="401.1402630248682" y1="59.81088956333568" x2="253.26581328271374" y2="276.625" stroke="#444444" stroke-width="1.5"/><path d="M 253.26581328271374 276.625 L 254.76967181669895 265.5462631807701 L 263.03111785848876 271.1808447356502 Z" fill="#444444" fill-opacity="1.0" stroke="none"/><line x1="253.26581328271374" y1="307.42499999999995" x2="401.1402630248682" y2="524.2391104366643" stroke="#444444" stroke-width="1.5"/><path d="M 401.1402630248682 524.2391104366643 L 391.3749584490932 518.7949551723145 L 399.63640449088297 513.1603736174345 Z" fill="#444444" fill-opacity="1.0" stroke="none"/><path d="M 765.5719677978169 63.376397887697124 C 746.6676496834743 102.11976506409411 706.7161332169175 217.92635537705408 652.1460591117614 295.8366009460791 C 597.5759850066053 373.74684651510415 473.81727915769363 491.67099290921925 438.1515231668801 530.8378713018473" fill="#000000" fill-opacity="0.0" stroke="#444444" stroke-width="1.5"/><path d="M 438.1515231668801 530.8378713018473 L 441.18749525849495 520.0776262554306 L 448.5813024589824 526.810501947289 Z" fill="#444444" fill-opacity="1.0" stroke="none"/><path d="M 42.05 38.5 C 42.05 24.692881255000003 54.496483955559995 13.5 69.85 13.5 C 85.20351604444 13.5 97.64999999999999 24.692881255000003 97.64999999999999 38.5 C 97.64999999999999 52.307118745 85.20351604444 63.5 69.85 63.5 C 54.496483955559995 63.5 42.05 52.307118745 42.05 38.5 Z" fill="#ffffff" fill-opacity="1.0" stroke="#444444" stroke-width="1.2"/><text x="69.85" y="30.5" fill="#333333" font-size="11.0" font-family="sans-serif" text-anchor="middle">a</text><text x="69.85" y="42.5" fill="#333333" font-size="9.0" font-family="sans-serif" text-anchor="middle">~</text><text x="69.85" y="54.5" fill="#333333" font-size="9.0" font-family="sans-serif" text-anchor="middle">Normal</text><path d="M 387.87499999999994 38.5 C 387.87499999999994 24.692881255000003 400.32148395556 13.5 415.67499999999995 13.5 C 431.0285160444399 13.5 443.47499999999997 24.692881255000003 443.47499999999997 38.5 C 443.47499999999997 52.307118745 431.0285160444399 63.5 415.67499999999995 63.5 C 400.32148395556 63.5 387.87499999999994 52.307118745 387.87499999999994 38.5 Z" fill="#ffffff" fill-opacity="1.0" stroke="#444444" stroke-width="1.2"/><text x="415.67499999999995" y="30.5" fill="#333333" font-size="11.0" font-family="sans-serif" text-anchor="middle">b</text><text x="415.67499999999995" y="42.5" fill="#333333" font-size="9.0" font-family="sans-serif" text-anchor="middle">~</text><text x="415.67499999999995" y="54.5" fill="#333333" font-size="9.0" font-family="sans-serif" text-anchor="middle">Normal</text><path d="M 720.5 38.5 C 720.5 24.692881255000003 738.8563252582001 13.5 761.5 13.5 C 784.1436747417999 13.5 802.5 24.692881255000003 802.5 38.5 C 802.5 52.307118745 784.1436747417999 63.5 761.5 63.5 C 738.8563252582001 63.5 720.5 52.307118745 720.5 38.5 Z" fill="#ffffff" fill-opacity="1.0" stroke="#444444" stroke-width="1.2"/><text x="761.5" y="30.5" fill="#333333" font-size="11.0" font-family="sans-serif" text-anchor="middle">s</text><text x="761.5" y="42.5" fill="#333333" font-size="9.0" font-family="sans-serif" text-anchor="middle">~</text><text x="761.5" y="54.5" fill="#333333" font-size="9.0" font-family="sans-serif" text-anchor="middle">HalfNormal</text><rect x="220.7625" y="276.625" width="44.0" height="30.799999999999997" fill="#ffffff" fill-opacity="1.0" stroke="#444444" stroke-width="1.2"/><text x="242.7625" y="296.025" fill="#333333" font-size="11.0" font-family="sans-serif" text-anchor="middle">mu</text><path d="M 387.87499999999994 545.55 C 387.87499999999994 531.7428812549999 400.32148395556 520.55 415.67499999999995 520.55 C 431.0285160444399 520.55 443.47499999999997 531.7428812549999 443.47499999999997 545.55 C 443.47499999999997 559.357118745 431.0285160444399 570.55 415.67499999999995 570.55 C 400.32148395556 570.55 387.87499999999994 559.357118745 387.87499999999994 545.55 Z" fill="#cfcfcf" fill-opacity="1.0" stroke="#444444" stroke-width="1.2"/><text x="415.67499999999995" y="537.55" fill="#333333" font-size="11.0" font-family="sans-serif" text-anchor="middle">obs</text><text x="415.67499999999995" y="549.55" fill="#333333" font-size="9.0" font-family="sans-serif" text-anchor="middle">~</text><text x="415.67499999999995" y="561.55" fill="#333333" font-size="9.0" font-family="sans-serif" text-anchor="middle">Normal</text></svg>