<svg xmlns="http://www.w3.org/2000/svg" width="800" height="600" viewBox="0 0 800 600"><rect x="0.0" y="0.0" width="800.0" height="600.0" fill="#ffffff" fill-opacity="1.0" stroke="none"/><line x1="161.91662679425838" y1="5.5" x2="161.91662679425838" y2="578.55" stroke="#dddddd" stroke-width="0.5"/><line x1="343.17260765550236" y1="5.5" x2="343.17260765550236" y2="578.55" stroke="#dddddd" stroke-width="0.5"/><line x1="524.4285885167463" y1="5.5" x2="524.4285885167463" y2="578.55" stroke="#dddddd" stroke-width="0.5"/><line x1="705.6845693779904" y1="5.5" x2="705.6845693779904" y2="578.55" stroke="#dddddd" stroke-width="0.5"/><line x1="71.28863636363636" y1="5.5" x2="71.28863636363636" y2="578.55" stroke="#dddddd" stroke-width="1.0"/><line x1="252.5446172248804" y1="5.5" x2="252.5446172248804" y2="578.55" stroke="#dddddd" stroke-width="1.0"/><line x1="433.8005980861244" y1="5.5" x2="433.8005980861244" y2="578.55" stroke="#dddddd" stroke-width="1.0"/><line x1="615.0565789473685" y1="5.5" x2="615.0565789473685" y2="578.55" stroke="#dddddd" stroke-width="1.0"/><line x1="36.849999999999994" y1="487.38295454545454" x2="794.5" y2="487.38295454545454" stroke="#dddddd" stroke-width="0.5"/><line x1="36.849999999999994" y1="357.1443181818182" x2="794.5" y2="357.1443181818182" stroke="#dddddd" stroke-width="0.5"/><line x1="36.849999999999994" y1="226.9056818181818" x2="794.5" y2="226.9056818181818" stroke="#dddddd" stroke-width="0.5"/><line x1="36.849999999999994" y1="96.66704545454547" x2="794.5" y2="96.66704545454547" stroke="#dddddd" stroke-width="0.5"/><line x1="36.849999999999994" y1="552.5022727272727" x2="794.5" y2="552.5022727272727" stroke="#dddddd" stroke-width="1.0"/><line x1="36.849999999999994" y1="422.26363636363635" x2="794.5" y2="422.26363636363635" stroke="#dddddd" stroke-width="1.0"/><line x1="36.849999999999994" y1="292.025" x2="794.5" y2="292.025" stroke="#dddddd" stroke-width="1.0"/><line x1="36.849999999999994" y1="161.7863636363636" x2="794.5" y2="161.7863636363636" stroke="#dddddd" stroke-width="1.0"/><line x1="36.849999999999994" y1="31.547727272727343" x2="794.5" y2="31.547727272727343" stroke="#dddddd" stroke-width="1.0"/><rect x="36.849999999999994" y="5.5" width="757.65" height="573.05" fill="#ffffff" fill-opacity="0.0" stroke="#444444" stroke-width="1.0"/><line x1="71.28863636363636" y1="578.55" x2="71.28863636363636" y2="581.3" stroke="#444444" stroke-width="1.0"/><text x="71.28863636363636" y="592.3" fill="#333333" font-size="11.0" font-family="sans-serif" text-anchor="middle">0</text><line x1="252.5446172248804" y1="578.55" x2="252.5446172248804" y2="581.3" stroke="#444444" stroke-width="1.0"/><text x="252.5446172248804" y="592.3" fill="#333333" font-size="11.0" font-family="sans-serif" text-anchor="middle">5</text><line x1="433.8005980861244" y1="578.55" x2="433.8005980861244" y2="581.3" stroke="#444444" stroke-width="1.0"/><text x="433.8005980861244" y="592.3" fill="#333333" font-size="11.0" font-family="sans-serif" text-anchor="middle">10</text><line x1="615.0565789473685" y1="578.55" x2="615.0565789473685" y2="581.3" stroke="#444444" stroke-width="1.0"/><text x="615.0565789473685" y="592.3" fill="#333333" font-size="11.0" font-family="sans-serif" text-anchor="middle">15</text><line x1="36.849999999999994" y1="552.5022727272727" x2="34.099999999999994" y2="552.5022727272727" stroke="#444444" stroke-width="1.0"/><text x="31.899999999999995" y="556.3522727272727" fill="#333333" font-size="11.0" font-family="sans-serif" text-anchor="end">0</text><line x1="36.849999999999994" y1="422.26363636363635" x2="34.099999999999994" y2="422.26363636363635" stroke="#444444" stroke-width="1.0"/><text x="31.899999999999995" y="426.1136363636364" fill="#333333" font-size="11.0" font-family="sans-serif" text-anchor="end">0.25</text><line x1="36.849999999999994" y1="292.025" x2="34.099999999999994" y2="292.025" stroke="#444444" stroke-width="1.0"/><text x="31.899999999999995" y="295.875" fill="#333333" font-size="11.0" font-family="sans-serif" text-anchor="end">0.5</text><line x1="36.849999999999994" y1="161.7863636363636" x2="34.099999999999994" y2="161.7863636363636" stroke="#444444" stroke-width="1.0"/><text x="31.899999999999995" y="165.6363636363636" fill="#333333" font-size="11.0" font-family="sans-serif" text-anchor="end">0.75</text><line x1="36.849999999999994" y1="31.547727272727343" x2="34.099999999999994" y2="31.547727272727343" stroke="#444444" stroke-width="1.0"/><text x="31.899999999999995" y="35.397727272727344" fill="#333333" font-size="11.0" font-family="sans-serif" text-anchor="end">1</text><line x1="71.28863636363636" y1="31.547727272727343" x2="143.79102870813398" y2="31.547727272727343" stroke="#1f77b4" stroke-width="1.5"/><line x1="143.79102870813398" y1="31.547727272727343" x2="143.79102870813398" y2="74.9606060606061" stroke="#1f77b4" stroke-width="1.5"/><line x1="143.79102870813398" y1="74.9606060606061" x2="180.04222488038278" y2="74.9606060606061" stroke="#1f77b4" stroke-width="1.5"/><line x1="180.04222488038278" y1="74.9606060606061" x2="180.04222488038278" y2="118.37348484848485" stroke="#1f77b4" stroke-width="1.5"/><line x1="180.04222488038278" y1="118.37348484848485" x2="252.5446172248804" y2="118.37348484848485" stroke="#1f77b4" stroke-width="1.5"/><line x1="252.5446172248804" y1="118.37348484848485" x2="252.5446172248804" y2="118.37348484848485" stroke="#1f77b4" stroke-width="1.5"/><line x1="252.5446172248804" y1="118.37348484848485" x2="288.7958133971292" y2="118.37348484848485" stroke="#1f77b4" stroke-width="1.5"/><line x1="288.7958133971292" y1="118.37348484848485" x2="288.7958133971292" y2="166.6100168350169" stroke="#1f77b4" stroke-width="1.5"/><line x1="288.7958133971292" y1="166.6100168350169" x2="361.2982057416268" y2="166.6100168350169" stroke="#1f77b4" stroke-width="1.5"/><line x1="361.2982057416268" y1="166.6100168350169" x2="361.2982057416268" y2="214.84654882154888" stroke="#1f77b4" stroke-width="1.5"/><line x1="361.2982057416268" y1="214.84654882154888" x2="397.5494019138756" y2="214.84654882154888" stroke="#1f77b4" stroke-width="1.5"/><line x1="397.5494019138756" y1="214.84654882154888" x2="397.5494019138756" y2="214.84654882154888" stroke="#1f77b4" stroke-width="1.5"/><line x1="397.5494019138756" y1="214.84654882154888" x2="470.0517942583732" y2="214.84654882154888" stroke="#1f77b4" stroke-width="1.5"/><line x1="470.0517942583732" y1="214.84654882154888" x2="470.0517942583732" y2="271.1225028058361" stroke="#1f77b4" stroke-width="1.5"/><line x1="470.0517942583732" y1="271.1225028058361" x2="506.302990430622" y2="271.1225028058361" stroke="#1f77b4" stroke-width="1.5"/><line x1="506.302990430622" y1="271.1225028058361" x2="506.302990430622" y2="327.3984567901234" stroke="#1f77b4" stroke-width="1.5"/><line x1="506.302990430622" y1="327.3984567901234" x2="578.8053827751196" y2="327.3984567901234" stroke="#1f77b4" stroke-width="1.5"/><line x1="578.8053827751196" y1="327.3984567901234" x2="578.8053827751196" y2="383.6744107744108" stroke="#1f77b4" stroke-width="1.5"/><line x1="578.8053827751196" y1="383.6744107744108" x2="615.0565789473685" y2="383.6744107744108" stroke="#1f77b4" stroke-width="1.5"/><line x1="615.0565789473685" y1="383.6744107744108" x2="615.0565789473685" y2="383.6744107744108" stroke="#1f77b4" stroke-width="1.5"/><line x1="615.0565789473685" y1="383.6744107744108" x2="687.558971291866" y2="383.6744107744108" stroke="#1f77b4" stroke-width="1.5"/><line x1="687.558971291866" y1="383.6744107744108" x2="687.558971291866" y2="468.0883417508417" stroke="#1f77b4" stroke-width="1.5"/><line x1="687.558971291866" y1="468.0883417508417" x2="760.0613636363637" y2="468.0883417508417" stroke="#1f77b4" stroke-width="1.5"/><line x1="760.0613636363637" y1="468.0883417508417" x2="760.0613636363637" y2="552.5022727272727" stroke="#1f77b4" stroke-width="1.5"/></svg>