<svg xmlns="http://www.w3.org/2000/svg" width="624" height="384" viewBox="0 0 624 384"><rect x="0.0" y="0.0" width="624.0" height="384.0" fill="#ffffff" fill-opacity="1.0" stroke="none"/><line x1="128.5826332288401" y1="32.266666666666666" x2="128.5826332288401" y2="358.3333333333333" stroke="#dddddd" stroke-width="0.6666666666666666"/><line x1="313.1134587251828" y1="32.266666666666666" x2="313.1134587251828" y2="358.3333333333333" stroke="#dddddd" stroke-width="0.6666666666666666"/><line x1="497.6442842215256" y1="32.266666666666666" x2="497.6442842215256" y2="358.3333333333333" stroke="#dddddd" stroke-width="0.6666666666666666"/><line x1="36.31722048066875" y1="32.266666666666666" x2="36.31722048066875" y2="358.3333333333333" stroke="#dddddd" stroke-width="1.3333333333333333"/><line x1="220.84804597701148" y1="32.266666666666666" x2="220.84804597701148" y2="358.3333333333333" stroke="#dddddd" stroke-width="1.3333333333333333"/><line x1="405.3788714733542" y1="32.266666666666666" x2="405.3788714733542" y2="358.3333333333333" stroke="#dddddd" stroke-width="1.3333333333333333"/><line x1="589.9096969696969" y1="32.266666666666666" x2="589.9096969696969" y2="358.3333333333333" stroke="#dddddd" stroke-width="1.3333333333333333"/><line x1="28.01333333333333" y1="312.1047742803173" x2="616.6666666666666" y2="312.1047742803173" stroke="#dddddd" stroke-width="0.6666666666666666"/><line x1="28.01333333333333" y1="214.76761255568377" x2="616.6666666666666" y2="214.76761255568377" stroke="#dddddd" stroke-width="0.6666666666666666"/><line x1="28.01333333333333" y1="117.43045083105017" x2="616.6666666666666" y2="117.43045083105017" stroke="#dddddd" stroke-width="0.6666666666666666"/><line x1="28.01333333333333" y1="263.4361934180006" x2="616.6666666666666" y2="263.4361934180006" stroke="#dddddd" stroke-width="1.3333333333333333"/><line x1="28.01333333333333" y1="166.09903169336692" x2="616.6666666666666" y2="166.09903169336692" stroke="#dddddd" stroke-width="1.3333333333333333"/><line x1="28.01333333333333" y1="68.76186996873335" x2="616.6666666666666" y2="68.76186996873335" stroke="#dddddd" stroke-width="1.3333333333333333"/><rect x="28.01333333333333" y="32.266666666666666" width="588.6533333333333" height="326.06666666666666" fill="#ffffff" fill-opacity="0.0" stroke="#444444" stroke-width="1.3333333333333333"/><line x1="36.31722048066875" y1="358.3333333333333" x2="36.31722048066875" y2="362.0" stroke="#444444" stroke-width="1.3333333333333333"/><text x="36.31722048066875" y="374.32" fill="#333333" font-size="11.733333333333334" font-family="sans-serif" text-anchor="middle">0</text><line x1="220.84804597701148" y1="358.3333333333333" x2="220.84804597701148" y2="362.0" stroke="#444444" stroke-width="1.3333333333333333"/><text x="220.84804597701148" y="374.32" fill="#333333" font-size="11.733333333333334" font-family="sans-serif" text-anchor="middle">10</text><line x1="405.3788714733542" y1="358.3333333333333" x2="405.3788714733542" y2="362.0" stroke="#444444" stroke-width="1.3333333333333333"/><text x="405.3788714733542" y="374.32" fill="#333333" font-size="11.733333333333334" font-family="sans-serif" text-anchor="middle">20</text><line x1="589.9096969696969" y1="358.3333333333333" x2="589.9096969696969" y2="362.0" stroke="#444444" stroke-width="1.3333333333333333"/><text x="589.9096969696969" y="374.32" fill="#333333" font-size="11.733333333333334" font-family="sans-serif" text-anchor="middle">30</text><line x1="28.01333333333333" y1="263.4361934180006" x2="24.346666666666664" y2="263.4361934180006" stroke="#444444" stroke-width="1.3333333333333333"/><text x="21.41333333333333" y="267.54286008466727" fill="#333333" font-size="11.733333333333334" font-family="sans-serif" text-anchor="end">20</text><line x1="28.01333333333333" y1="166.09903169336692" x2="24.346666666666664" y2="166.09903169336692" stroke="#444444" stroke-width="1.3333333333333333"/><text x="21.41333333333333" y="170.20569836003358" fill="#333333" font-size="11.733333333333334" font-family="sans-serif" text-anchor="end">40</text><line x1="28.01333333333333" y1="68.76186996873335" x2="24.346666666666664" y2="68.76186996873335" stroke="#444444" stroke-width="1.3333333333333333"/><text x="21.41333333333333" y="72.86853663540002" fill="#333333" font-size="11.733333333333334" font-family="sans-serif" text-anchor="end">60</text><text x="28.01333333333333" y="21.413333333333334" fill="#333333" font-size="17.599999999999998" font-family="sans-serif" text-anchor="start">stat-in: statLmLevel 0.99 (帯が広い)</text><circle cx="54.770303030303026" cy="336.43906471147574" r="3.1181102362204727" fill="#1f77b4" fill-opacity="0.85" stroke="none"><title>(1, 5)</title></circle><circle cx="73.2233855799373" cy="314.9815961733814" r="3.1181102362204727" fill="#1f77b4" fill-opacity="0.85" stroke="none"><title>(2, 9.408895463543)</title></circle><circle cx="91.67646812957157" cy="310.69945231676695" r="3.1181102362204727" fill="#1f77b4" fill-opacity="0.85" stroke="none"><title>(3, 10.288753429554)</title></circle><circle cx="110.12955067920586" cy="315.6060669272382" r="3.1181102362204727" fill="#1f77b4" fill-opacity="0.85" stroke="none"><title>(4, 9.28058460204)</title></circle><circle cx="128.5826332288401" cy="308.25332110914894" r="3.1181102362204727" fill="#1f77b4" fill-opacity="0.85" stroke="none"><title>(5, 10.7913633607)</title></circle><circle cx="147.0357157784744" cy="285.1530877153208" r="3.1181102362204727" fill="#1f77b4" fill-opacity="0.85" stroke="none"><title>(6, 15.53779997022)</title></circle><circle cx="165.48879832810866" cy="265.8873457894725" r="3.1181102362204727" fill="#1f77b4" fill-opacity="0.85" stroke="none"><title>(7, 19.496358363437)</title></circle><circle cx="183.94188087774296" cy="264.4205353914741" r="3.1181102362204727" fill="#1f77b4" fill-opacity="0.85" stroke="none"><title>(8, 19.797745905873)</title></circle><circle cx="202.3949634273772" cy="268.6416201944342" r="3.1181102362204727" fill="#1f77b4" fill-opacity="0.85" stroke="none"><title>(9, 18.930433827286)</title></circle><circle cx="220.84804597701148" cy="258.10678407673583" r="3.1181102362204727" fill="#1f77b4" fill-opacity="0.85" stroke="none"><title>(10, 21.095041040202)</title></circle><circle cx="239.30112852664573" cy="233.9896696349728" r="3.1181102362204727" fill="#1f77b4" fill-opacity="0.85" stroke="none"><title>(11, 26.050417592067)</title></circle><circle cx="257.75421107628" cy="217.36198903038724" r="3.1181102362204727" fill="#1f77b4" fill-opacity="0.85" stroke="none"><title>(12, 29.466929910687)</title></circle><circle cx="276.2072936259143" cy="218.32341630687907" r="3.1181102362204727" fill="#1f77b4" fill-opacity="0.85" stroke="none"><title>(13, 29.269384130749)</title></circle><circle cx="294.66037617554855" cy="221.20554125567278" r="3.1181102362204727" fill="#1f77b4" fill-opacity="0.85" stroke="none"><title>(14, 28.677189968164)</title></circle><circle cx="313.1134587251828" cy="207.5261270783546" r="3.1181102362204727" fill="#1f77b4" fill-opacity="0.85" stroke="none"><title>(15, 31.487917943984)</title></circle><circle cx="331.5665412748171" cy="183.06563059582408" r="3.1181102362204727" fill="#1f77b4" fill-opacity="0.85" stroke="none"><title>(16, 36.513849674299)</title></circle><circle cx="350.0196238244514" cy="169.39881946350636" r="3.1181102362204727" fill="#1f77b4" fill-opacity="0.85" stroke="none"><title>(17, 39.321988085193)</title></circle><circle cx="368.47270637408565" cy="172.28768701184953" r="3.1181102362204727" fill="#1f77b4" fill-opacity="0.85" stroke="none"><title>(18, 38.72840851144)</title></circle><circle cx="386.92578892371995" cy="173.24011851830358" r="3.1181102362204727" fill="#1f77b4" fill-opacity="0.85" stroke="none"><title>(19, 38.532711104698)</title></circle><circle cx="405.3788714733542" cy="156.60088259827322" r="3.1181102362204727" fill="#1f77b4" fill-opacity="0.85" stroke="none"><title>(20, 41.951597709817)</title></circle><circle cx="423.8319540229885" cy="132.4865818598562" r="3.1181102362204727" fill="#1f77b4" fill-opacity="0.85" stroke="none"><title>(21, 46.906396126199)</title></circle><circle cx="442.28503657262274" cy="121.96480638230096" r="3.1181102362204727" fill="#1f77b4" fill-opacity="0.85" stroke="none"><title>(22, 49.068319751488)</title></circle><circle cx="460.738119122257" cy="126.19006489379376" r="3.1181102362204727" fill="#1f77b4" fill-opacity="0.85" stroke="none"><title>(23, 48.20015009529)</title></circle><circle cx="479.19120167189135" cy="124.71242677993935" r="3.1181102362204727" fill="#1f77b4" fill-opacity="0.85" stroke="none"><title>(24, 48.50376242334)</title></circle><circle cx="497.6442842215256" cy="105.43671834294192" r="3.1181102362204727" fill="#1f77b4" fill-opacity="0.85" stroke="none"><title>(25, 52.46436864926)</title></circle><circle cx="516.0973667711598" cy="82.34198060485414" r="3.1181102362204727" fill="#1f77b4" fill-opacity="0.85" stroke="none"><title>(26, 57.209676058865)</title></circle><circle cx="534.5504493207941" cy="75.00214146086014" r="3.1181102362204727" fill="#1f77b4" fill-opacity="0.85" stroke="none"><title>(27, 58.717802865512)</title></circle><circle cx="553.0035318704284" cy="79.91016545599484" r="3.1181102362204727" fill="#1f77b4" fill-opacity="0.85" stroke="none"><title>(28, 57.7093444498)</title></circle><circle cx="571.4566144200626" cy="75.61586894277828" r="3.1181102362204727" fill="#1f77b4" fill-opacity="0.85" stroke="none"><title>(29, 58.591699438816)</title></circle><circle cx="589.9096969696969" cy="54.15048937720894" r="3.1181102362204727" fill="#1f77b4" fill-opacity="0.85" stroke="none"><title>(30, 63.002220392014)</title></circle><path d="M 54.770303030303026 343.5121212121212 L 73.2233855799373 333.4500241641357 L 91.67646812957157 323.39716895442507 L 110.12955067920586 313.35515890799013 L 128.5826332288401 303.3259330964314 L 147.0357157784744 293.31183663319985 L 165.48879832810866 283.3156982251529 L 183.94188087774296 273.34090806480714 L 202.3949634273772 263.3914816759392 L 220.84804597701148 253.47208413744488 L 239.30112852664573 243.58797526554955 L 257.75421107628 233.74482508566953 L 276.2072936259143 223.94835228973426 L 294.66037617554855 214.20377347437014 L 313.1134587251828 204.51512712409786 L 331.5665412748171 194.8846314810164 L 350.0196238244514 185.31228654512577 L 368.47270637408565 175.79587407432695 L 386.92578892371995 166.33135558409938 L 405.3788714733542 156.91351447781645 L 423.8319540229885 147.5366320635489 L 442.28503657262274 138.19503831588034 L 460.738119122257 128.8834734185853 L 479.19120167189135 119.59727229276828 L 497.6442842215256 110.3324194146523 L 516.0973667711598 101.08552459172097 L 534.5504493207941 91.85375911711674 L 553.0035318704284 82.63477787738884 L 571.4566144200626 73.42664180093652 L 589.9096969696969 64.2277475627591 L 589.9096969696969 47.08787878787878 L 571.4566144200626 57.149975835864396 L 553.0035318704284 67.20283104557491 L 534.5504493207941 77.24484109200985 L 516.0973667711598 87.27406690356857 L 497.6442842215256 97.28816336680018 L 479.19120167189135 107.28430177484707 L 460.738119122257 117.25909193519286 L 442.28503657262274 127.20851832406086 L 423.8319540229885 137.12791586255508 L 405.3788714733542 147.01202473445045 L 386.92578892371995 156.85517491433046 L 368.47270637408565 166.65164771026576 L 350.0196238244514 176.39622652562986 L 331.5665412748171 186.08487287590214 L 313.1134587251828 195.71536851898364 L 294.66037617554855 205.28771345487422 L 276.2072936259143 214.80412592567305 L 257.75421107628 224.2686444159006 L 239.30112852664573 233.68648552218355 L 220.84804597701148 243.0633679364511 L 202.3949634273772 252.40496168411966 L 183.94188087774296 261.71652658141466 L 165.48879832810866 271.00272770723177 L 147.0357157784744 280.26758058534773 L 128.5826332288401 289.51447540827905 L 110.12955067920586 298.7462408828833 L 91.67646812957157 307.9652221226112 L 73.2233855799373 317.1733581990635 L 54.770303030303026 326.37225243724095 Z" fill="#d62728" fill-opacity="0.2" stroke="none"/><line x1="54.770303030303026" y1="334.942186824681" x2="73.2233855799373" y2="325.3116911815996" stroke="#d62728" stroke-width="2.6666666666666665"/><line x1="73.2233855799373" y1="325.3116911815996" x2="91.67646812957157" y2="315.6811955385181" stroke="#d62728" stroke-width="2.6666666666666665"/><line x1="91.67646812957157" y1="315.6811955385181" x2="110.12955067920586" y2="306.0506998954367" stroke="#d62728" stroke-width="2.6666666666666665"/><line x1="110.12955067920586" y1="306.0506998954367" x2="128.5826332288401" y2="296.42020425235523" stroke="#d62728" stroke-width="2.6666666666666665"/><line x1="128.5826332288401" y1="296.42020425235523" x2="147.0357157784744" y2="286.7897086092738" stroke="#d62728" stroke-width="2.6666666666666665"/><line x1="147.0357157784744" y1="286.7897086092738" x2="165.48879832810866" y2="277.15921296619234" stroke="#d62728" stroke-width="2.6666666666666665"/><line x1="165.48879832810866" y1="277.15921296619234" x2="183.94188087774296" y2="267.52871732311087" stroke="#d62728" stroke-width="2.6666666666666665"/><line x1="183.94188087774296" y1="267.52871732311087" x2="202.3949634273772" y2="257.89822168002945" stroke="#d62728" stroke-width="2.6666666666666665"/><line x1="202.3949634273772" y1="257.89822168002945" x2="220.84804597701148" y2="248.26772603694803" stroke="#d62728" stroke-width="2.6666666666666665"/><line x1="220.84804597701148" y1="248.26772603694803" x2="239.30112852664573" y2="238.63723039386656" stroke="#d62728" stroke-width="2.6666666666666665"/><line x1="239.30112852664573" y1="238.63723039386656" x2="257.75421107628" y2="229.0067347507851" stroke="#d62728" stroke-width="2.6666666666666665"/><line x1="257.75421107628" y1="229.0067347507851" x2="276.2072936259143" y2="219.37623910770367" stroke="#d62728" stroke-width="2.6666666666666665"/><line x1="276.2072936259143" y1="219.37623910770367" x2="294.66037617554855" y2="209.7457434646222" stroke="#d62728" stroke-width="2.6666666666666665"/><line x1="294.66037617554855" y1="209.7457434646222" x2="313.1134587251828" y2="200.11524782154075" stroke="#d62728" stroke-width="2.6666666666666665"/><line x1="313.1134587251828" y1="200.11524782154075" x2="331.5665412748171" y2="190.4847521784593" stroke="#d62728" stroke-width="2.6666666666666665"/><line x1="331.5665412748171" y1="190.4847521784593" x2="350.0196238244514" y2="180.85425653537783" stroke="#d62728" stroke-width="2.6666666666666665"/><line x1="350.0196238244514" y1="180.85425653537783" x2="368.47270637408565" y2="171.22376089229635" stroke="#d62728" stroke-width="2.6666666666666665"/><line x1="368.47270637408565" y1="171.22376089229635" x2="386.92578892371995" y2="161.59326524921497" stroke="#d62728" stroke-width="2.6666666666666665"/><line x1="386.92578892371995" y1="161.59326524921497" x2="405.3788714733542" y2="151.96276960613352" stroke="#d62728" stroke-width="2.6666666666666665"/><line x1="405.3788714733542" y1="151.96276960613352" x2="423.8319540229885" y2="142.33227396305205" stroke="#d62728" stroke-width="2.6666666666666665"/><line x1="423.8319540229885" y1="142.33227396305205" x2="442.28503657262274" y2="132.70177831997057" stroke="#d62728" stroke-width="2.6666666666666665"/><line x1="442.28503657262274" y1="132.70177831997057" x2="460.738119122257" y2="123.07128267688911" stroke="#d62728" stroke-width="2.6666666666666665"/><line x1="460.738119122257" y1="123.07128267688911" x2="479.19120167189135" y2="113.44078703380765" stroke="#d62728" stroke-width="2.6666666666666665"/><line x1="479.19120167189135" y1="113.44078703380765" x2="497.6442842215256" y2="103.81029139072628" stroke="#d62728" stroke-width="2.6666666666666665"/><line x1="497.6442842215256" y1="103.81029139072628" x2="516.0973667711598" y2="94.17979574764479" stroke="#d62728" stroke-width="2.6666666666666665"/><line x1="516.0973667711598" y1="94.17979574764479" x2="534.5504493207941" y2="84.54930010456333" stroke="#d62728" stroke-width="2.6666666666666665"/><line x1="534.5504493207941" y1="84.54930010456333" x2="553.0035318704284" y2="74.91880446148187" stroke="#d62728" stroke-width="2.6666666666666665"/><line x1="553.0035318704284" y1="74.91880446148187" x2="571.4566144200626" y2="65.28830881840042" stroke="#d62728" stroke-width="2.6666666666666665"/><line x1="571.4566144200626" y1="65.28830881840042" x2="589.9096969696969" y2="55.657813175318964" stroke="#d62728" stroke-width="2.6666666666666665"/></svg>