<svg xmlns="http://www.w3.org/2000/svg" width="800" height="600" viewBox="0 0 800 600"><rect x="0.0" y="0.0" width="800.0" height="600.0" fill="#ffffff" fill-opacity="1.0" stroke="none"/><line x1="155.34694357366772" y1="27.0" x2="155.34694357366772" y2="578.55" stroke="#dddddd" stroke-width="0.5"/><line x1="396.99271159874604" y1="27.0" x2="396.99271159874604" y2="578.55" stroke="#dddddd" stroke-width="0.5"/><line x1="638.6384796238244" y1="27.0" x2="638.6384796238244" y2="578.55" stroke="#dddddd" stroke-width="0.5"/><line x1="34.52405956112853" y1="27.0" x2="34.52405956112853" y2="578.55" stroke="#dddddd" stroke-width="1.0"/><line x1="276.1698275862069" y1="27.0" x2="276.1698275862069" y2="578.55" stroke="#dddddd" stroke-width="1.0"/><line x1="517.8155956112853" y1="27.0" x2="517.8155956112853" y2="578.55" stroke="#dddddd" stroke-width="1.0"/><line x1="759.4613636363637" y1="27.0" x2="759.4613636363637" y2="578.55" stroke="#dddddd" stroke-width="1.0"/><line x1="23.65" y1="500.3532250694409" x2="794.5" y2="500.3532250694409" stroke="#dddddd" stroke-width="0.5"/><line x1="23.65" y1="335.7049582041118" x2="794.5" y2="335.7049582041118" stroke="#dddddd" stroke-width="0.5"/><line x1="23.65" y1="171.05669133878263" x2="794.5" y2="171.05669133878263" stroke="#dddddd" stroke-width="0.5"/><line x1="23.65" y1="418.02909163677634" x2="794.5" y2="418.02909163677634" stroke="#dddddd" stroke-width="1.0"/><line x1="23.65" y1="253.38082477144718" x2="794.5" y2="253.38082477144718" stroke="#dddddd" stroke-width="1.0"/><line x1="23.65" y1="88.73255790611807" x2="794.5" y2="88.73255790611807" stroke="#dddddd" stroke-width="1.0"/><rect x="23.65" y="27.0" width="770.85" height="551.55" fill="#ffffff" fill-opacity="0.0" stroke="#444444" stroke-width="1.0"/><line x1="34.52405956112853" y1="578.55" x2="34.52405956112853" y2="581.3" stroke="#444444" stroke-width="1.0"/><text x="34.52405956112853" y="592.3" fill="#333333" font-size="11.0" font-family="sans-serif" text-anchor="middle">0</text><line x1="276.1698275862069" y1="578.55" x2="276.1698275862069" y2="581.3" stroke="#444444" stroke-width="1.0"/><text x="276.1698275862069" y="592.3" fill="#333333" font-size="11.0" font-family="sans-serif" text-anchor="middle">10</text><line x1="517.8155956112853" y1="578.55" x2="517.8155956112853" y2="581.3" stroke="#444444" stroke-width="1.0"/><text x="517.8155956112853" y="592.3" fill="#333333" font-size="11.0" font-family="sans-serif" text-anchor="middle">20</text><line x1="759.4613636363637" y1="578.55" x2="759.4613636363637" y2="581.3" stroke="#444444" stroke-width="1.0"/><text x="759.4613636363637" y="592.3" fill="#333333" font-size="11.0" font-family="sans-serif" text-anchor="middle">30</text><line x1="23.65" y1="418.02909163677634" x2="20.9" y2="418.02909163677634" stroke="#444444" stroke-width="1.0"/><text x="18.7" y="421.87909163677637" fill="#333333" font-size="11.0" font-family="sans-serif" text-anchor="end">20</text><line x1="23.65" y1="253.38082477144718" x2="20.9" y2="253.38082477144718" stroke="#444444" stroke-width="1.0"/><text x="18.7" y="257.2308247714472" fill="#333333" font-size="11.0" font-family="sans-serif" text-anchor="end">40</text><line x1="23.65" y1="88.73255790611807" x2="20.9" y2="88.73255790611807" stroke="#444444" stroke-width="1.0"/><text x="18.7" y="92.58255790611807" fill="#333333" font-size="11.0" font-family="sans-serif" text-anchor="end">60</text><text x="409.075" y="18.3" fill="#333333" font-size="16.0" font-family="sans-serif" text-anchor="middle">stat-in: statLmLevel 0.99 (帯が広い)</text><circle cx="58.68863636363637" cy="541.5152917857731" r="3.0" fill="#1f77b4" fill-opacity="0.85" stroke="#1f77b4" stroke-width="1.0"><title>(1, 5)</title></circle><circle cx="82.8532131661442" cy="505.21944194263494" r="3.0" fill="#1f77b4" fill-opacity="0.85" stroke="#1f77b4" stroke-width="1.0"><title>(2, 9.408895463543)</title></circle><circle cx="107.01778996865204" cy="497.97608748306936" r="3.0" fill="#1f77b4" fill-opacity="0.85" stroke="#1f77b4" stroke-width="1.0"><title>(3, 10.288753429554)</title></circle><circle cx="131.18236677115988" cy="506.2757499909576" r="3.0" fill="#1f77b4" fill-opacity="0.85" stroke="#1f77b4" stroke-width="1.0"><title>(4, 9.28058460204)</title></circle><circle cx="155.34694357366772" cy="493.8383947794452" r="3.0" fill="#1f77b4" fill-opacity="0.85" stroke="#1f77b4" stroke-width="1.0"><title>(5, 10.7913633607)</title></circle><circle cx="179.51152037617558" cy="454.763766702265" r="3.0" fill="#1f77b4" fill-opacity="0.85" stroke="#1f77b4" stroke-width="1.0"><title>(6, 15.53779997022)</title></circle><circle cx="203.67609717868342" cy="422.1752777658461" r="3.0" fill="#1f77b4" fill-opacity="0.85" stroke="#1f77b4" stroke-width="1.0"><title>(7, 19.496358363437)</title></circle><circle cx="227.84067398119123" cy="419.6941309399946" r="3.0" fill="#1f77b4" fill-opacity="0.85" stroke="#1f77b4" stroke-width="1.0"><title>(8, 19.797745905873)</title></circle><circle cx="252.00525078369907" cy="426.8342024685346" r="3.0" fill="#1f77b4" fill-opacity="0.85" stroke="#1f77b4" stroke-width="1.0"><title>(9, 18.930433827286)</title></circle><circle cx="276.1698275862069" cy="409.0142611659895" r="3.0" fill="#1f77b4" fill-opacity="0.85" stroke="#1f77b4" stroke-width="1.0"><title>(10, 21.095041040202)</title></circle><circle cx="300.3344043887147" cy="368.2195531195132" r="3.0" fill="#1f77b4" fill-opacity="0.85" stroke="#1f77b4" stroke-width="1.0"><title>(11, 26.050417592067)</title></circle><circle cx="324.4989811912225" cy="340.0934115202722" r="3.0" fill="#1f77b4" fill-opacity="0.85" stroke="#1f77b4" stroke-width="1.0"><title>(12, 29.466929910687)</title></circle><circle cx="348.66355799373036" cy="341.71969003493916" r="3.0" fill="#1f77b4" fill-opacity="0.85" stroke="#1f77b4" stroke-width="1.0"><title>(13, 29.269384130749)</title></circle><circle cx="372.8281347962382" cy="346.5948771608046" r="3.0" fill="#1f77b4" fill-opacity="0.85" stroke="#1f77b4" stroke-width="1.0"><title>(14, 28.677189968164)</title></circle><circle cx="396.99271159874604" cy="323.45580266836987" r="3.0" fill="#1f77b4" fill-opacity="0.85" stroke="#1f77b4" stroke-width="1.0"><title>(15, 31.487917943984)</title></circle><circle cx="421.1572884012539" cy="282.0802552293808" r="3.0" fill="#1f77b4" fill-opacity="0.85" stroke="#1f77b4" stroke-width="1.0"><title>(16, 36.513849674299)</title></circle><circle cx="445.3218652037618" cy="258.9624991057972" r="3.0" fill="#1f77b4" fill-opacity="0.85" stroke="#1f77b4" stroke-width="1.0"><title>(17, 39.321988085193)</title></circle><circle cx="469.48644200626956" cy="263.84909150905423" r="3.0" fill="#1f77b4" fill-opacity="0.85" stroke="#1f77b4" stroke-width="1.0"><title>(18, 38.72840851144)</title></circle><circle cx="493.65101880877745" cy="265.4601534515549" r="3.0" fill="#1f77b4" fill-opacity="0.85" stroke="#1f77b4" stroke-width="1.0"><title>(19, 38.532711104698)</title></circle><circle cx="517.8155956112853" cy="237.3144657444621" r="3.0" fill="#1f77b4" fill-opacity="0.85" stroke="#1f77b4" stroke-width="1.0"><title>(20, 41.951597709817)</title></circle><circle cx="541.9801724137931" cy="196.52451714824275" r="3.0" fill="#1f77b4" fill-opacity="0.85" stroke="#1f77b4" stroke-width="1.0"><title>(21, 46.906396126199)</title></circle><circle cx="566.144749216301" cy="178.72666824828696" r="3.0" fill="#1f77b4" fill-opacity="0.85" stroke="#1f77b4" stroke-width="1.0"><title>(22, 49.068319751488)</title></circle><circle cx="590.3093260188087" cy="185.87379971019817" r="3.0" fill="#1f77b4" fill-opacity="0.85" stroke="#1f77b4" stroke-width="1.0"><title>(23, 48.20015009529)</title></circle><circle cx="614.4739028213166" cy="183.37433752957128" r="3.0" fill="#1f77b4" fill-opacity="0.85" stroke="#1f77b4" stroke-width="1.0"><title>(24, 48.50376242334)</title></circle><circle cx="638.6384796238244" cy="150.7689899878847" r="3.0" fill="#1f77b4" fill-opacity="0.85" stroke="#1f77b4" stroke-width="1.0"><title>(25, 52.46436864926)</title></circle><circle cx="662.8030564263323" cy="111.70365795115714" r="3.0" fill="#1f77b4" fill-opacity="0.85" stroke="#1f77b4" stroke-width="1.0"><title>(26, 57.209676058865)</title></circle><circle cx="686.9676332288401" cy="99.28813470477638" r="3.0" fill="#1f77b4" fill-opacity="0.85" stroke="#1f77b4" stroke-width="1.0"><title>(27, 58.717802865512)</title></circle><circle cx="711.132210031348" cy="107.59018122241042" r="3.0" fill="#1f77b4" fill-opacity="0.85" stroke="#1f77b4" stroke-width="1.0"><title>(28, 57.7093444498)</title></circle><circle cx="735.2967868338558" cy="100.32627023734216" r="3.0" fill="#1f77b4" fill-opacity="0.85" stroke="#1f77b4" stroke-width="1.0"><title>(29, 58.591699438816)</title></circle><circle cx="759.4613636363637" cy="64.01703869147286" r="3.0" fill="#1f77b4" fill-opacity="0.85" stroke="#1f77b4" stroke-width="1.0"><title>(30, 63.002220392014)</title></circle><path d="M 58.68863636363637 553.4795454545454 L 82.8532131661442 536.4592542252987 L 107.01778996865204 519.4545957988545 L 131.18236677115988 502.46828223993646 L 155.34694357366772 485.5035935371195 L 179.51152037617558 468.5644965090207 L 203.67609717868342 451.6557759847162 L 227.84067398119123 434.7831665604509 L 252.00525078369907 417.9534605960875 L 276.1698275862069 401.17454919037334 L 300.3344043887147 384.45532945526634 L 324.4989811912225 367.8053923819292 L 348.66355799373036 351.2344112821599 L 372.8281347962382 334.7512101608736 L 396.99271159874604 318.36262021661065 L 421.1572884012539 302.0723936618931 L 445.3218652037618 285.8805304967209 L 469.48644200626956 269.783278508572 L 493.65101880877745 253.7738064989062 L 517.8155956112853 237.84329046280823 L 541.9801724137931 221.98205708848008 L 566.144749216301 206.1805153847592 L 590.3093260188087 190.4297682396874 L 614.4739028213166 174.72192455451756 L 638.6384796238244 159.05019196938707 L 662.8030564263323 143.4088358880506 L 686.9676332288401 127.79307148143249 L 711.132210031348 112.19893193091542 L 735.2967868338558 96.62313724792438 L 759.4613636363637 81.06297536773604 L 759.4613636363637 52.070454545454595 L 735.2967868338558 69.09074577470153 L 711.132210031348 86.09540420114553 L 686.9676332288401 103.0817177600635 L 662.8030564263323 120.04640646288055 L 638.6384796238244 136.98550349097928 L 614.4739028213166 153.8942240152839 L 590.3093260188087 170.76683343954903 L 566.144749216301 187.59653940391263 L 541.9801724137931 204.37545080962667 L 517.8155956112853 221.09467054473367 L 493.65101880877745 237.74460761807092 L 469.48644200626956 254.31558871784017 L 445.3218652037618 270.7987898391264 L 421.1572884012539 287.1873797833894 L 396.99271159874604 303.47760633810697 L 372.8281347962382 319.6694695032792 L 348.66355799373036 335.76672149142803 L 324.4989811912225 351.77619350109387 L 300.3344043887147 367.7067095371918 L 276.1698275862069 383.56794291151994 L 252.00525078369907 399.3694846152409 L 227.84067398119123 415.12023176031255 L 203.67609717868342 430.8280754454825 L 179.51152037617558 446.49980803061305 L 155.34694357366772 462.1411641119494 L 131.18236677115988 477.7569285185676 L 107.01778996865204 493.3510680690847 L 82.8532131661442 508.9268627520757 L 58.68863636363637 524.487024632264 Z" fill="#d62728" fill-opacity="0.2" stroke="none"/><line x1="58.68863636363637" y1="538.9832850434047" x2="82.8532131661442" y2="522.6930584886871" stroke="#d62728" stroke-width="2.0"/><line x1="82.8532131661442" y1="522.6930584886871" x2="107.01778996865204" y2="506.4028319339696" stroke="#d62728" stroke-width="2.0"/><line x1="107.01778996865204" y1="506.4028319339696" x2="131.18236677115988" y2="490.11260537925205" stroke="#d62728" stroke-width="2.0"/><line x1="131.18236677115988" y1="490.11260537925205" x2="155.34694357366772" y2="473.82237882453444" stroke="#d62728" stroke-width="2.0"/><line x1="155.34694357366772" y1="473.82237882453444" x2="179.51152037617558" y2="457.5321522698169" stroke="#d62728" stroke-width="2.0"/><line x1="179.51152037617558" y1="457.5321522698169" x2="203.67609717868342" y2="441.24192571509934" stroke="#d62728" stroke-width="2.0"/><line x1="203.67609717868342" y1="441.24192571509934" x2="227.84067398119123" y2="424.95169916038174" stroke="#d62728" stroke-width="2.0"/><line x1="227.84067398119123" y1="424.95169916038174" x2="252.00525078369907" y2="408.6614726056642" stroke="#d62728" stroke-width="2.0"/><line x1="252.00525078369907" y1="408.6614726056642" x2="276.1698275862069" y2="392.37124605094664" stroke="#d62728" stroke-width="2.0"/><line x1="276.1698275862069" y1="392.37124605094664" x2="300.3344043887147" y2="376.0810194962291" stroke="#d62728" stroke-width="2.0"/><line x1="300.3344043887147" y1="376.0810194962291" x2="324.4989811912225" y2="359.7907929415115" stroke="#d62728" stroke-width="2.0"/><line x1="324.4989811912225" y1="359.7907929415115" x2="348.66355799373036" y2="343.50056638679393" stroke="#d62728" stroke-width="2.0"/><line x1="348.66355799373036" y1="343.50056638679393" x2="372.8281347962382" y2="327.2103398320764" stroke="#d62728" stroke-width="2.0"/><line x1="372.8281347962382" y1="327.2103398320764" x2="396.99271159874604" y2="310.92011327735884" stroke="#d62728" stroke-width="2.0"/><line x1="396.99271159874604" y1="310.92011327735884" x2="421.1572884012539" y2="294.62988672264123" stroke="#d62728" stroke-width="2.0"/><line x1="421.1572884012539" y1="294.62988672264123" x2="445.3218652037618" y2="278.3396601679237" stroke="#d62728" stroke-width="2.0"/><line x1="445.3218652037618" y1="278.3396601679237" x2="469.48644200626956" y2="262.0494336132061" stroke="#d62728" stroke-width="2.0"/><line x1="469.48644200626956" y1="262.0494336132061" x2="493.65101880877745" y2="245.75920705848864" stroke="#d62728" stroke-width="2.0"/><line x1="493.65101880877745" y1="245.75920705848864" x2="517.8155956112853" y2="229.46898050377104" stroke="#d62728" stroke-width="2.0"/><line x1="517.8155956112853" y1="229.46898050377104" x2="541.9801724137931" y2="213.17875394905343" stroke="#d62728" stroke-width="2.0"/><line x1="541.9801724137931" y1="213.17875394905343" x2="566.144749216301" y2="196.88852739433588" stroke="#d62728" stroke-width="2.0"/><line x1="566.144749216301" y1="196.88852739433588" x2="590.3093260188087" y2="180.59830083961828" stroke="#d62728" stroke-width="2.0"/><line x1="590.3093260188087" y1="180.59830083961828" x2="614.4739028213166" y2="164.30807428490067" stroke="#d62728" stroke-width="2.0"/><line x1="614.4739028213166" y1="164.30807428490067" x2="638.6384796238244" y2="148.01784773018323" stroke="#d62728" stroke-width="2.0"/><line x1="638.6384796238244" y1="148.01784773018323" x2="662.8030564263323" y2="131.72762117546563" stroke="#d62728" stroke-width="2.0"/><line x1="662.8030564263323" y1="131.72762117546563" x2="686.9676332288401" y2="115.43739462074808" stroke="#d62728" stroke-width="2.0"/><line x1="686.9676332288401" y1="115.43739462074808" x2="711.132210031348" y2="99.14716806603047" stroke="#d62728" stroke-width="2.0"/><line x1="711.132210031348" y1="99.14716806603047" x2="735.2967868338558" y2="82.85694151131287" stroke="#d62728" stroke-width="2.0"/><line x1="735.2967868338558" y1="82.85694151131287" x2="759.4613636363637" y2="66.56671495659532" stroke="#d62728" stroke-width="2.0"/></svg>