<svg xmlns="http://www.w3.org/2000/svg" width="624" height="384" viewBox="0 0 624 384"><rect x="0.0" y="0.0" width="624.0" height="384.0" fill="#ffffff" fill-opacity="1.0" stroke="none"/><line x1="128.5826332288401" y1="32.266666666666666" x2="128.5826332288401" y2="358.3333333333333" stroke="#dddddd" stroke-width="0.6666666666666666"/><line x1="313.1134587251828" y1="32.266666666666666" x2="313.1134587251828" y2="358.3333333333333" stroke="#dddddd" stroke-width="0.6666666666666666"/><line x1="497.6442842215256" y1="32.266666666666666" x2="497.6442842215256" y2="358.3333333333333" stroke="#dddddd" stroke-width="0.6666666666666666"/><line x1="36.31722048066875" y1="32.266666666666666" x2="36.31722048066875" y2="358.3333333333333" stroke="#dddddd" stroke-width="1.3333333333333333"/><line x1="220.84804597701148" y1="32.266666666666666" x2="220.84804597701148" y2="358.3333333333333" stroke="#dddddd" stroke-width="1.3333333333333333"/><line x1="405.3788714733542" y1="32.266666666666666" x2="405.3788714733542" y2="358.3333333333333" stroke="#dddddd" stroke-width="1.3333333333333333"/><line x1="589.9096969696969" y1="32.266666666666666" x2="589.9096969696969" y2="358.3333333333333" stroke="#dddddd" stroke-width="1.3333333333333333"/><line x1="28.01333333333333" y1="313.87853846113285" x2="616.6666666666666" y2="313.87853846113285" stroke="#dddddd" stroke-width="0.6666666666666666"/><line x1="28.01333333333333" y1="215.06324219967752" x2="616.6666666666666" y2="215.06324219967752" stroke="#dddddd" stroke-width="0.6666666666666666"/><line x1="28.01333333333333" y1="116.24794593822214" x2="616.6666666666666" y2="116.24794593822214" stroke="#dddddd" stroke-width="0.6666666666666666"/><line x1="28.01333333333333" y1="264.4708903304052" x2="616.6666666666666" y2="264.4708903304052" stroke="#dddddd" stroke-width="1.3333333333333333"/><line x1="28.01333333333333" y1="165.65559406894982" x2="616.6666666666666" y2="165.65559406894982" stroke="#dddddd" stroke-width="1.3333333333333333"/><line x1="28.01333333333333" y1="66.8402978074945" x2="616.6666666666666" y2="66.8402978074945" stroke="#dddddd" stroke-width="1.3333333333333333"/><rect x="28.01333333333333" y="32.266666666666666" width="588.6533333333333" height="326.06666666666666" fill="#ffffff" fill-opacity="0.0" stroke="#444444" stroke-width="1.3333333333333333"/><line x1="36.31722048066875" y1="358.3333333333333" x2="36.31722048066875" y2="362.0" stroke="#444444" stroke-width="1.3333333333333333"/><text x="36.31722048066875" y="374.32" fill="#333333" font-size="11.733333333333334" font-family="sans-serif" text-anchor="middle">0</text><line x1="220.84804597701148" y1="358.3333333333333" x2="220.84804597701148" y2="362.0" stroke="#444444" stroke-width="1.3333333333333333"/><text x="220.84804597701148" y="374.32" fill="#333333" font-size="11.733333333333334" font-family="sans-serif" text-anchor="middle">10</text><line x1="405.3788714733542" y1="358.3333333333333" x2="405.3788714733542" y2="362.0" stroke="#444444" stroke-width="1.3333333333333333"/><text x="405.3788714733542" y="374.32" fill="#333333" font-size="11.733333333333334" font-family="sans-serif" text-anchor="middle">20</text><line x1="589.9096969696969" y1="358.3333333333333" x2="589.9096969696969" y2="362.0" stroke="#444444" stroke-width="1.3333333333333333"/><text x="589.9096969696969" y="374.32" fill="#333333" font-size="11.733333333333334" font-family="sans-serif" text-anchor="middle">30</text><line x1="28.01333333333333" y1="264.4708903304052" x2="24.346666666666664" y2="264.4708903304052" stroke="#444444" stroke-width="1.3333333333333333"/><text x="21.41333333333333" y="268.5775569970719" fill="#333333" font-size="11.733333333333334" font-family="sans-serif" text-anchor="end">20</text><line x1="28.01333333333333" y1="165.65559406894982" x2="24.346666666666664" y2="165.65559406894982" stroke="#444444" stroke-width="1.3333333333333333"/><text x="21.41333333333333" y="169.7622607356165" fill="#333333" font-size="11.733333333333334" font-family="sans-serif" text-anchor="end">40</text><line x1="28.01333333333333" y1="66.8402978074945" x2="24.346666666666664" y2="66.8402978074945" stroke="#444444" stroke-width="1.3333333333333333"/><text x="21.41333333333333" y="70.94696447416115" fill="#333333" font-size="11.733333333333334" font-family="sans-serif" text-anchor="end">60</text><text x="28.01333333333333" y="21.413333333333334" fill="#333333" font-size="17.599999999999998" font-family="sans-serif" text-anchor="start">stat-in: lm (df 1 回・装飾込み)</text><circle cx="54.770303030303026" cy="338.5823625264967" r="3.1181102362204727" fill="#1f77b4" fill-opacity="0.85" stroke="none"><title>(1, 5)</title></circle><circle cx="73.2233855799373" cy="316.7990469557074" r="3.1181102362204727" fill="#1f77b4" fill-opacity="0.85" stroke="none"><title>(2, 9.408895463543)</title></circle><circle cx="91.67646812957157" cy="312.4518756767401" r="3.1181102362204727" fill="#1f77b4" fill-opacity="0.85" stroke="none"><title>(3, 10.288753429554)</title></circle><circle cx="110.12955067920586" cy="317.433000745356" r="3.1181102362204727" fill="#1f77b4" fill-opacity="0.85" stroke="none"><title>(4, 9.28058460204)</title></circle><circle cx="128.5826332288401" cy="309.9685982142332" r="3.1181102362204727" fill="#1f77b4" fill-opacity="0.85" stroke="none"><title>(5, 10.7913633607)</title></circle><circle cx="147.0357157784744" cy="286.51757122643676" r="3.1181102362204727" fill="#1f77b4" fill-opacity="0.85" stroke="none"><title>(6, 15.53779997022)</title></circle><circle cx="165.48879832810866" cy="266.9592652067364" r="3.1181102362204727" fill="#1f77b4" fill-opacity="0.85" stroke="none"><title>(7, 19.496358363437)</title></circle><circle cx="183.94188087774296" cy="265.4701802419659" r="3.1181102362204727" fill="#1f77b4" fill-opacity="0.85" stroke="none"><title>(8, 19.797745905873)</title></circle><circle cx="202.3949634273772" cy="269.75536524180404" r="3.1181102362204727" fill="#1f77b4" fill-opacity="0.85" stroke="none"><title>(9, 18.930433827286)</title></circle><circle cx="220.84804597701148" cy="259.0605500901025" r="3.1181102362204727" fill="#1f77b4" fill-opacity="0.85" stroke="none"><title>(10, 21.095041040202)</title></circle><circle cx="239.30112852664573" cy="234.57719998712605" r="3.1181102362204727" fill="#1f77b4" fill-opacity="0.85" stroke="none"><title>(11, 26.050417592067)</title></circle><circle cx="257.75421107628" cy="217.69701613985904" r="3.1181102362204727" fill="#1f77b4" fill-opacity="0.85" stroke="none"><title>(12, 29.466929910687)</title></circle><circle cx="276.2072936259143" cy="218.67304337834736" r="3.1181102362204727" fill="#1f77b4" fill-opacity="0.85" stroke="none"><title>(13, 29.269384130749)</title></circle><circle cx="294.66037617554855" cy="221.5989354593521" r="3.1181102362204727" fill="#1f77b4" fill-opacity="0.85" stroke="none"><title>(14, 28.677189968164)</title></circle><circle cx="313.1134587251828" cy="207.71178957730035" r="3.1181102362204727" fill="#1f77b4" fill-opacity="0.85" stroke="none"><title>(15, 31.487917943984)</title></circle><circle cx="331.5665412748171" cy="182.8798429312555" r="3.1181102362204727" fill="#1f77b4" fill-opacity="0.85" stroke="none"><title>(16, 36.513849674299)</title></circle><circle cx="350.0196238244514" cy="169.00549148047185" r="3.1181102362204727" fill="#1f77b4" fill-opacity="0.85" stroke="none"><title>(17, 39.321988085193)</title></circle><circle cx="368.47270637408565" cy="171.93822855223087" r="3.1181102362204727" fill="#1f77b4" fill-opacity="0.85" stroke="none"><title>(18, 38.72840851144)</title></circle><circle cx="386.92578892371995" cy="172.9051234134685" r="3.1181102362204727" fill="#1f77b4" fill-opacity="0.85" stroke="none"><title>(19, 38.532711104698)</title></circle><circle cx="405.3788714733542" cy="156.01320877501297" r="3.1181102362204727" fill="#1f77b4" fill-opacity="0.85" stroke="none"><title>(20, 41.951597709817)</title></circle><circle cx="423.8319540229885" cy="131.53271510348372" r="3.1181102362204727" fill="#1f77b4" fill-opacity="0.85" stroke="none"><title>(21, 46.906396126199)</title></circle><circle cx="442.28503657262274" cy="120.85115892710294" r="3.1181102362204727" fill="#1f77b4" fill-opacity="0.85" stroke="none"><title>(22, 49.068319751488)</title></circle><circle cx="460.738119122257" cy="125.14058101622818" r="3.1181102362204727" fill="#1f77b4" fill-opacity="0.85" stroke="none"><title>(23, 48.20015009529)</title></circle><circle cx="479.19120167189135" cy="123.64050390897887" r="3.1181102362204727" fill="#1f77b4" fill-opacity="0.85" stroke="none"><title>(24, 48.50376242334)</title></circle><circle cx="497.6442842215256" cy="104.0720800295173" r="3.1181102362204727" fill="#1f77b4" fill-opacity="0.85" stroke="none"><title>(25, 52.46436864926)</title></circle><circle cx="516.0973667711598" cy="80.62663215293094" r="3.1181102362204727" fill="#1f77b4" fill-opacity="0.85" stroke="none"><title>(26, 57.209676058865)</title></circle><circle cx="534.5504493207941" cy="73.17533229299627" r="3.1181102362204727" fill="#1f77b4" fill-opacity="0.85" stroke="none"><title>(27, 58.717802865512)</title></circle><circle cx="553.0035318704284" cy="78.15788814879159" r="3.1181102362204727" fill="#1f77b4" fill-opacity="0.85" stroke="none"><title>(28, 57.7093444498)</title></circle><circle cx="571.4566144200626" cy="73.79837966642503" r="3.1181102362204727" fill="#1f77b4" fill-opacity="0.85" stroke="none"><title>(29, 58.591699438816)</title></circle><circle cx="589.9096969696969" cy="52.007032933540735" r="3.1181102362204727" fill="#1f77b4" fill-opacity="0.85" stroke="none"><title>(30, 63.002220392014)</title></circle><path d="M 54.770303030303026 343.5121212121212 L 73.2233855799373 333.41057475212745 L 91.67646812957157 323.3159833061271 L 110.12955067920586 313.2295534682506 L 128.5826332288401 303.152744501224 L 147.0357157784744 293.08732123758205 L 165.48879832810866 283.03541244166706 L 183.94188087774296 272.99956942802174 L 202.3949634273772 262.98281410887046 L 220.84804597701148 252.98865722396377 L 239.30112852664573 243.0210570870443 L 257.75421107628 233.08428071782615 L 276.2072936259143 223.18263176036908 L 294.66037617554855 213.3200360031857 L 313.1134587251828 203.49953263777857 L 331.5665412748171 193.72279101870473 L 350.0196238244514 183.9898111459641 L 368.47270637408565 174.29892366499976 L 386.92578892371995 164.64708938430914 L 405.3788714733542 155.03038251537953 L 423.8319540229885 145.44449941415127 L 442.28503657262274 135.88517306091023 L 460.738119122257 126.3484451419138 L 479.19120167189135 116.83080491741141 L 497.6442842215256 107.32923047517866 L 516.0973667711598 97.84117050067292 L 534.5504493207941 88.36449622955172 L 553.0035318704284 78.89744282928059 L 571.4566144200626 69.43855103713315 L 589.9096969696969 59.98661425897917 L 589.9096969696969 47.08787878787871 L 571.4566144200626 57.1894252478725 L 553.0035318704284 67.28401669387281 L 534.5504493207941 77.37044653174935 L 516.0973667711598 87.44725549877592 L 497.6442842215256 97.51267876241789 L 479.19120167189135 107.56458755833285 L 460.738119122257 117.60043057197814 L 442.28503657262274 127.61718589112948 L 423.8319540229885 137.6113427760361 L 405.3788714733542 147.57894291295565 L 386.92578892371995 157.5157192821738 L 368.47270637408565 167.41736823963083 L 350.0196238244514 177.27996399681427 L 331.5665412748171 187.1004673622214 L 313.1134587251828 196.87720898129524 L 294.66037617554855 206.61018885403587 L 276.2072936259143 216.3010763350002 L 257.75421107628 225.95291061569083 L 239.30112852664573 235.5696174846204 L 220.84804597701148 245.15550058584864 L 202.3949634273772 254.7148269390897 L 183.94188087774296 264.25155485808614 L 165.48879832810866 273.7691950825885 L 147.0357157784744 283.2707695248213 L 128.5826332288401 292.758829499327 L 110.12955067920586 302.2355037704482 L 91.67646812957157 311.7025571707194 L 73.2233855799373 321.16144896286676 L 54.770303030303026 330.61338574102075 Z" fill="#d62728" fill-opacity="0.2" stroke="none"/><line x1="54.770303030303026" y1="337.06275347657095" x2="73.2233855799373" y2="327.2860118574971" stroke="#d62728" stroke-width="2.6666666666666665"/><line x1="73.2233855799373" y1="327.2860118574971" x2="91.67646812957157" y2="317.50927023842326" stroke="#d62728" stroke-width="2.6666666666666665"/><line x1="91.67646812957157" y1="317.50927023842326" x2="110.12955067920586" y2="307.7325286193494" stroke="#d62728" stroke-width="2.6666666666666665"/><line x1="110.12955067920586" y1="307.7325286193494" x2="128.5826332288401" y2="297.9557870002755" stroke="#d62728" stroke-width="2.6666666666666665"/><line x1="128.5826332288401" y1="297.9557870002755" x2="147.0357157784744" y2="288.17904538120166" stroke="#d62728" stroke-width="2.6666666666666665"/><line x1="147.0357157784744" y1="288.17904538120166" x2="165.48879832810866" y2="278.4023037621278" stroke="#d62728" stroke-width="2.6666666666666665"/><line x1="165.48879832810866" y1="278.4023037621278" x2="183.94188087774296" y2="268.6255621430539" stroke="#d62728" stroke-width="2.6666666666666665"/><line x1="183.94188087774296" y1="268.6255621430539" x2="202.3949634273772" y2="258.84882052398007" stroke="#d62728" stroke-width="2.6666666666666665"/><line x1="202.3949634273772" y1="258.84882052398007" x2="220.84804597701148" y2="249.07207890490622" stroke="#d62728" stroke-width="2.6666666666666665"/><line x1="220.84804597701148" y1="249.07207890490622" x2="239.30112852664573" y2="239.29533728583237" stroke="#d62728" stroke-width="2.6666666666666665"/><line x1="239.30112852664573" y1="239.29533728583237" x2="257.75421107628" y2="229.51859566675844" stroke="#d62728" stroke-width="2.6666666666666665"/><line x1="257.75421107628" y1="229.51859566675844" x2="276.2072936259143" y2="219.74185404768463" stroke="#d62728" stroke-width="2.6666666666666665"/><line x1="276.2072936259143" y1="219.74185404768463" x2="294.66037617554855" y2="209.96511242861075" stroke="#d62728" stroke-width="2.6666666666666665"/><line x1="294.66037617554855" y1="209.96511242861075" x2="313.1134587251828" y2="200.1883708095369" stroke="#d62728" stroke-width="2.6666666666666665"/><line x1="313.1134587251828" y1="200.1883708095369" x2="331.5665412748171" y2="190.41162919046306" stroke="#d62728" stroke-width="2.6666666666666665"/><line x1="331.5665412748171" y1="190.41162919046306" x2="350.0196238244514" y2="180.63488757138919" stroke="#d62728" stroke-width="2.6666666666666665"/><line x1="350.0196238244514" y1="180.63488757138919" x2="368.47270637408565" y2="170.85814595231528" stroke="#d62728" stroke-width="2.6666666666666665"/><line x1="368.47270637408565" y1="170.85814595231528" x2="386.92578892371995" y2="161.08140433324144" stroke="#d62728" stroke-width="2.6666666666666665"/><line x1="386.92578892371995" y1="161.08140433324144" x2="405.3788714733542" y2="151.30466271416756" stroke="#d62728" stroke-width="2.6666666666666665"/><line x1="405.3788714733542" y1="151.30466271416756" x2="423.8319540229885" y2="141.52792109509372" stroke="#d62728" stroke-width="2.6666666666666665"/><line x1="423.8319540229885" y1="141.52792109509372" x2="442.28503657262274" y2="131.75117947601987" stroke="#d62728" stroke-width="2.6666666666666665"/><line x1="442.28503657262274" y1="131.75117947601987" x2="460.738119122257" y2="121.974437856946" stroke="#d62728" stroke-width="2.6666666666666665"/><line x1="460.738119122257" y1="121.974437856946" x2="479.19120167189135" y2="112.19769623787211" stroke="#d62728" stroke-width="2.6666666666666665"/><line x1="479.19120167189135" y1="112.19769623787211" x2="497.6442842215256" y2="102.42095461879826" stroke="#d62728" stroke-width="2.6666666666666665"/><line x1="497.6442842215256" y1="102.42095461879826" x2="516.0973667711598" y2="92.64421299972442" stroke="#d62728" stroke-width="2.6666666666666665"/><line x1="516.0973667711598" y1="92.64421299972442" x2="534.5504493207941" y2="82.86747138065053" stroke="#d62728" stroke-width="2.6666666666666665"/><line x1="534.5504493207941" y1="82.86747138065053" x2="553.0035318704284" y2="73.09072976157668" stroke="#d62728" stroke-width="2.6666666666666665"/><line x1="553.0035318704284" y1="73.09072976157668" x2="571.4566144200626" y2="63.31398814250281" stroke="#d62728" stroke-width="2.6666666666666665"/><line x1="571.4566144200626" y1="63.31398814250281" x2="589.9096969696969" y2="53.53724652342896" stroke="#d62728" stroke-width="2.6666666666666665"/></svg>