<svg xmlns="http://www.w3.org/2000/svg" width="800" height="600" viewBox="0 0 800 600"><rect x="0.0" y="0.0" width="800.0" height="600.0" fill="#ffffff" fill-opacity="1.0" stroke="none"/><line x1="58.68863636363638" y1="5.5" x2="58.68863636363638" y2="578.55" stroke="#dddddd" stroke-width="0.5"/><line x1="258.9094155844156" y1="5.5" x2="258.9094155844156" y2="578.55" stroke="#dddddd" stroke-width="0.5"/><line x1="459.13019480519483" y1="5.5" x2="459.13019480519483" y2="578.55" stroke="#dddddd" stroke-width="0.5"/><line x1="659.350974025974" y1="5.5" x2="659.350974025974" y2="578.55" stroke="#dddddd" stroke-width="0.5"/><line x1="158.799025974026" y1="5.5" x2="158.799025974026" y2="578.55" stroke="#dddddd" stroke-width="1.0"/><line x1="359.0198051948052" y1="5.5" x2="359.0198051948052" y2="578.55" stroke="#dddddd" stroke-width="1.0"/><line x1="559.2405844155844" y1="5.5" x2="559.2405844155844" y2="578.55" stroke="#dddddd" stroke-width="1.0"/><line x1="759.4613636363637" y1="5.5" x2="759.4613636363637" y2="578.55" stroke="#dddddd" stroke-width="1.0"/><line x1="23.65" y1="541.7110365515169" x2="794.5" y2="541.7110365515169" stroke="#dddddd" stroke-width="0.5"/><line x1="23.65" y1="399.2876288928977" x2="794.5" y2="399.2876288928977" stroke="#dddddd" stroke-width="0.5"/><line x1="23.65" y1="256.8642212342784" x2="794.5" y2="256.8642212342784" stroke="#dddddd" stroke-width="0.5"/><line x1="23.65" y1="114.44081357565909" x2="794.5" y2="114.44081357565909" stroke="#dddddd" stroke-width="0.5"/><line x1="23.65" y1="470.4993327222073" x2="794.5" y2="470.4993327222073" stroke="#dddddd" stroke-width="1.0"/><line x1="23.65" y1="328.07592506358804" x2="794.5" y2="328.07592506358804" stroke="#dddddd" stroke-width="1.0"/><line x1="23.65" y1="185.6525174049687" x2="794.5" y2="185.6525174049687" stroke="#dddddd" stroke-width="1.0"/><line x1="23.65" y1="43.229109746349536" x2="794.5" y2="43.229109746349536" stroke="#dddddd" stroke-width="1.0"/><rect x="23.65" y="5.5" width="770.85" height="573.05" fill="#ffffff" fill-opacity="0.0" stroke="#444444" stroke-width="1.0"/><line x1="158.799025974026" y1="578.55" x2="158.799025974026" y2="581.3" stroke="#444444" stroke-width="1.0"/><text x="158.799025974026" y="592.3" fill="#333333" font-size="11.0" font-family="sans-serif" text-anchor="middle">2</text><line x1="359.0198051948052" y1="578.55" x2="359.0198051948052" y2="581.3" stroke="#444444" stroke-width="1.0"/><text x="359.0198051948052" y="592.3" fill="#333333" font-size="11.0" font-family="sans-serif" text-anchor="middle">4</text><line x1="559.2405844155844" y1="578.55" x2="559.2405844155844" y2="581.3" stroke="#444444" stroke-width="1.0"/><text x="559.2405844155844" y="592.3" fill="#333333" font-size="11.0" font-family="sans-serif" text-anchor="middle">6</text><line x1="759.4613636363637" y1="578.55" x2="759.4613636363637" y2="581.3" stroke="#444444" stroke-width="1.0"/><text x="759.4613636363637" y="592.3" fill="#333333" font-size="11.0" font-family="sans-serif" text-anchor="middle">8</text><line x1="23.65" y1="470.4993327222073" x2="20.9" y2="470.4993327222073" stroke="#444444" stroke-width="1.0"/><text x="18.7" y="474.34933272220735" fill="#333333" font-size="11.0" font-family="sans-serif" text-anchor="end">4</text><line x1="23.65" y1="328.07592506358804" x2="20.9" y2="328.07592506358804" stroke="#444444" stroke-width="1.0"/><text x="18.7" y="331.92592506358807" fill="#333333" font-size="11.0" font-family="sans-serif" text-anchor="end">8</text><line x1="23.65" y1="185.6525174049687" x2="20.9" y2="185.6525174049687" stroke="#444444" stroke-width="1.0"/><text x="18.7" y="189.5025174049687" fill="#333333" font-size="11.0" font-family="sans-serif" text-anchor="end">12</text><line x1="23.65" y1="43.229109746349536" x2="20.9" y2="43.229109746349536" stroke="#444444" stroke-width="1.0"/><text x="18.7" y="47.07910974634954" fill="#333333" font-size="11.0" font-family="sans-serif" text-anchor="end">16</text><circle cx="58.68863636363638" cy="538.1504513600514" r="3.0" fill="#1f77b4" fill-opacity="0.85" stroke="#1f77b4" stroke-width="1.0"><title>(1, 2.1)</title></circle><circle cx="158.799025974026" cy="474.0599179136728" r="3.0" fill="#1f77b4" fill-opacity="0.85" stroke="#1f77b4" stroke-width="1.0"><title>(2, 3.9)</title></circle><circle cx="258.9094155844156" cy="392.1664585099667" r="3.0" fill="#1f77b4" fill-opacity="0.85" stroke="#1f77b4" stroke-width="1.0"><title>(3, 6.2)</title></circle><circle cx="359.0198051948052" cy="335.19709544651903" r="3.0" fill="#1f77b4" fill-opacity="0.85" stroke="#1f77b4" stroke-width="1.0"><title>(4, 7.8)</title></circle><circle cx="459.13019480519483" cy="246.18246565988193" r="3.0" fill="#1f77b4" fill-opacity="0.85" stroke="#1f77b4" stroke-width="1.0"><title>(5, 10.3)</title></circle><circle cx="559.2405844155844" cy="196.33427297936527" r="3.0" fill="#1f77b4" fill-opacity="0.85" stroke="#1f77b4" stroke-width="1.0"><title>(6, 11.7)</title></circle><circle cx="659.350974025974" cy="110.88022838419374" r="3.0" fill="#1f77b4" fill-opacity="0.85" stroke="#1f77b4" stroke-width="1.0"><title>(7, 14.1)</title></circle><circle cx="759.4613636363637" cy="43.229109746349536" r="3.0" fill="#1f77b4" fill-opacity="0.85" stroke="#1f77b4" stroke-width="1.0"><title>(8, 16)</title></circle><path d="M 58.68863636363638 527.9526460495396 L 158.799025974026 459.3619735488878 L 258.9094155844156 390.36173098548693 L 359.0198051948052 320.6010876404118 L 459.13019480519483 249.6860992437243 L 559.2405844155844 177.6167657954246 L 659.350974025974 104.78703156545049 L 759.4613636363637 31.547727272727343 L 759.4613636363637 56.09735395046039 L 659.350974025974 124.68802645111208 L 559.2405844155844 193.68826901451303 L 459.13019480519483 263.4489123595881 L 359.0198051948052 334.3639007562756 L 258.9094155844156 406.43323420457546 L 158.799025974026 479.2629684345495 L 58.68863636363638 552.5022727272727 Z" fill="#d62728" fill-opacity="0.15" stroke="none"/><line x1="58.68863636363638" y1="540.2274593884061" x2="158.799025974026" y2="469.31247099171867" stroke="#d62728" stroke-width="2.0"/><line x1="158.799025974026" y1="469.31247099171867" x2="258.9094155844156" y2="398.3974825950312" stroke="#d62728" stroke-width="2.0"/><line x1="258.9094155844156" y1="398.3974825950312" x2="359.0198051948052" y2="327.4824941983437" stroke="#d62728" stroke-width="2.0"/><line x1="359.0198051948052" y1="327.4824941983437" x2="459.13019480519483" y2="256.56750580165624" stroke="#d62728" stroke-width="2.0"/><line x1="459.13019480519483" y1="256.56750580165624" x2="559.2405844155844" y2="185.6525174049687" stroke="#d62728" stroke-width="2.0"/><line x1="559.2405844155844" y1="185.6525174049687" x2="659.350974025974" y2="114.73752900828134" stroke="#d62728" stroke-width="2.0"/><line x1="659.350974025974" y1="114.73752900828134" x2="759.4613636363637" y2="43.82254061159381" stroke="#d62728" stroke-width="2.0"/></svg>