<svg xmlns="http://www.w3.org/2000/svg" width="800" height="600" viewBox="0 0 800 600"><rect x="0.0" y="0.0" width="800.0" height="600.0" fill="#ffffff" fill-opacity="1.0" stroke="none"/><line x1="137.62755824577437" y1="5.5" x2="137.62755824577437" y2="578.55" stroke="#dddddd" stroke-width="0.5"/><line x1="315.2086455002285" y1="5.5" x2="315.2086455002285" y2="578.55" stroke="#dddddd" stroke-width="0.5"/><line x1="492.7897327546826" y1="5.5" x2="492.7897327546826" y2="578.55" stroke="#dddddd" stroke-width="0.5"/><line x1="670.3708200091365" y1="5.5" x2="670.3708200091365" y2="578.55" stroke="#dddddd" stroke-width="0.5"/><line x1="48.837014618547286" y1="5.5" x2="48.837014618547286" y2="578.55" stroke="#dddddd" stroke-width="1.0"/><line x1="226.41810187300138" y1="5.5" x2="226.41810187300138" y2="578.55" stroke="#dddddd" stroke-width="1.0"/><line x1="403.99918912745557" y1="5.5" x2="403.99918912745557" y2="578.55" stroke="#dddddd" stroke-width="1.0"/><line x1="581.5802763819095" y1="5.5" x2="581.5802763819095" y2="578.55" stroke="#dddddd" stroke-width="1.0"/><line x1="759.1613636363637" y1="5.5" x2="759.1613636363637" y2="578.55" stroke="#dddddd" stroke-width="1.0"/><line x1="17.049999999999997" y1="497.2835261840446" x2="794.5" y2="497.2835261840446" stroke="#dddddd" stroke-width="0.5"/><line x1="17.049999999999997" y1="360.2670138746093" x2="794.5" y2="360.2670138746093" stroke="#dddddd" stroke-width="0.5"/><line x1="17.049999999999997" y1="223.25050156517392" x2="794.5" y2="223.25050156517392" stroke="#dddddd" stroke-width="0.5"/><line x1="17.049999999999997" y1="86.2339892557386" x2="794.5" y2="86.2339892557386" stroke="#dddddd" stroke-width="0.5"/><line x1="17.049999999999997" y1="565.7917823387623" x2="794.5" y2="565.7917823387623" stroke="#dddddd" stroke-width="1.0"/><line x1="17.049999999999997" y1="428.775270029327" x2="794.5" y2="428.775270029327" stroke="#dddddd" stroke-width="1.0"/><line x1="17.049999999999997" y1="291.7587577198916" x2="794.5" y2="291.7587577198916" stroke="#dddddd" stroke-width="1.0"/><line x1="17.049999999999997" y1="154.74224541045623" x2="794.5" y2="154.74224541045623" stroke="#dddddd" stroke-width="1.0"/><line x1="17.049999999999997" y1="17.725733101020865" x2="794.5" y2="17.725733101020865" stroke="#dddddd" stroke-width="1.0"/><rect x="17.049999999999997" y="5.5" width="777.45" height="573.05" fill="#ffffff" fill-opacity="0.0" stroke="#444444" stroke-width="1.0"/><line x1="48.837014618547286" y1="578.55" x2="48.837014618547286" y2="581.3" stroke="#444444" stroke-width="1.0"/><text x="48.837014618547286" y="592.3" fill="#333333" font-size="11.0" font-family="sans-serif" text-anchor="middle">0</text><line x1="226.41810187300138" y1="578.55" x2="226.41810187300138" y2="581.3" stroke="#444444" stroke-width="1.0"/><text x="226.41810187300138" y="592.3" fill="#333333" font-size="11.0" font-family="sans-serif" text-anchor="middle">50</text><line x1="403.99918912745557" y1="578.55" x2="403.99918912745557" y2="581.3" stroke="#444444" stroke-width="1.0"/><text x="403.99918912745557" y="592.3" fill="#333333" font-size="11.0" font-family="sans-serif" text-anchor="middle">100</text><line x1="581.5802763819095" y1="578.55" x2="581.5802763819095" y2="581.3" stroke="#444444" stroke-width="1.0"/><text x="581.5802763819095" y="592.3" fill="#333333" font-size="11.0" font-family="sans-serif" text-anchor="middle">150</text><line x1="759.1613636363637" y1="578.55" x2="759.1613636363637" y2="581.3" stroke="#444444" stroke-width="1.0"/><text x="759.1613636363637" y="592.3" fill="#333333" font-size="11.0" font-family="sans-serif" text-anchor="middle">200</text><line x1="17.049999999999997" y1="565.7917823387623" x2="14.299999999999997" y2="565.7917823387623" stroke="#444444" stroke-width="1.0"/><text x="12.099999999999998" y="569.6417823387624" fill="#333333" font-size="11.0" font-family="sans-serif" text-anchor="end">3</text><line x1="17.049999999999997" y1="428.775270029327" x2="14.299999999999997" y2="428.775270029327" stroke="#444444" stroke-width="1.0"/><text x="12.099999999999998" y="432.625270029327" fill="#333333" font-size="11.0" font-family="sans-serif" text-anchor="end">4</text><line x1="17.049999999999997" y1="291.7587577198916" x2="14.299999999999997" y2="291.7587577198916" stroke="#444444" stroke-width="1.0"/><text x="12.099999999999998" y="295.6087577198916" fill="#333333" font-size="11.0" font-family="sans-serif" text-anchor="end">5</text><line x1="17.049999999999997" y1="154.74224541045623" x2="14.299999999999997" y2="154.74224541045623" stroke="#444444" stroke-width="1.0"/><text x="12.099999999999998" y="158.59224541045623" fill="#333333" font-size="11.0" font-family="sans-serif" text-anchor="end">6</text><line x1="17.049999999999997" y1="17.725733101020865" x2="14.299999999999997" y2="17.725733101020865" stroke="#444444" stroke-width="1.0"/><text x="12.099999999999998" y="21.575733101020866" fill="#333333" font-size="11.0" font-family="sans-serif" text-anchor="end">7</text><line x1="52.38863636363637" y1="221.65093563448846" x2="55.94025810872545" y2="184.6230385074785" stroke="#1f77b4" stroke-width="1.5"/><line x1="55.94025810872545" y1="184.6230385074785" x2="59.49187985381454" y2="299.0655094455144" stroke="#1f77b4" stroke-width="1.5"/><line x1="59.49187985381454" y1="299.0655094455144" x2="63.04350159890362" y2="90.40369466115209" stroke="#1f77b4" stroke-width="1.5"/><line x1="63.04350159890362" y1="90.40369466115209" x2="66.5951233439927" y2="108.58051577739462" stroke="#1f77b4" stroke-width="1.5"/><line x1="66.5951233439927" y1="108.58051577739462" x2="70.14674508908178" y2="211.34049051296404" stroke="#1f77b4" stroke-width="1.5"/><line x1="70.14674508908178" y1="211.34049051296404" x2="73.69836683417086" y2="222.84938685161472" stroke="#1f77b4" stroke-width="1.5"/><line x1="73.69836683417086" y1="222.84938685161472" x2="77.24998857925995" y2="156.35440507464074" stroke="#1f77b4" stroke-width="1.5"/><line x1="77.24998857925995" y1="156.35440507464074" x2="80.80161032434904" y2="180.84919997579652" stroke="#1f77b4" stroke-width="1.5"/><line x1="80.80161032434904" y1="180.84919997579652" x2="84.35323206943812" y2="406.0964126319111" stroke="#1f77b4" stroke-width="1.5"/><line x1="84.35323206943812" y1="406.0964126319111" x2="87.9048538145272" y2="291.8345210171408" stroke="#1f77b4" stroke-width="1.5"/><line x1="87.9048538145272" y1="291.8345210171408" x2="91.45647555961628" y2="337.67483023494424" stroke="#1f77b4" stroke-width="1.5"/><line x1="91.45647555961628" y1="337.67483023494424" x2="95.00809730470536" y2="352.2173543524318" stroke="#1f77b4" stroke-width="1.5"/><line x1="95.00809730470536" y1="352.2173543524318" x2="98.55971904979445" y2="552.5022727272727" stroke="#1f77b4" stroke-width="1.5"/><line x1="98.55971904979445" y1="552.5022727272727" x2="102.11134079488353" y2="350.43562743292273" stroke="#1f77b4" stroke-width="1.5"/><line x1="102.11134079488353" y1="350.43562743292273" x2="105.66296253997261" y2="393.3744412851989" stroke="#1f77b4" stroke-width="1.5"/><line x1="105.66296253997261" y1="393.3744412851989" x2="109.21458428506169" y2="424.9793655153799" stroke="#1f77b4" stroke-width="1.5"/><line x1="109.21458428506169" y1="424.9793655153799" x2="112.76620603015077" y2="459.7367429323011" stroke="#1f77b4" stroke-width="1.5"/><line x1="112.76620603015077" y1="459.7367429323011" x2="116.31782777523986" y2="274.00221123885706" stroke="#1f77b4" stroke-width="1.5"/><line x1="116.31782777523986" y1="274.00221123885706" x2="119.86944952032894" y2="253.11568068022933" stroke="#1f77b4" stroke-width="1.5"/><line x1="119.86944952032894" y1="253.11568068022933" x2="123.42107126541802" y2="355.09193770655384" stroke="#1f77b4" stroke-width="1.5"/><line x1="123.42107126541802" y1="355.09193770655384" x2="126.97269301050711" y2="214.84738651135365" stroke="#1f77b4" stroke-width="1.5"/><line x1="126.97269301050711" y1="214.84738651135365" x2="130.5243147555962" y2="149.04956582346392" stroke="#1f77b4" stroke-width="1.5"/><line x1="130.5243147555962" y1="149.04956582346392" x2="134.07593650068526" y2="114.48411793353517" stroke="#1f77b4" stroke-width="1.5"/><line x1="134.07593650068526" y1="114.48411793353517" x2="137.62755824577437" y2="290.56202582641794" stroke="#1f77b4" stroke-width="1.5"/><line x1="137.62755824577437" y1="290.56202582641794" x2="141.17917999086342" y2="85.0768985583897" stroke="#1f77b4" stroke-width="1.5"/><line x1="141.17917999086342" y1="85.0768985583897" x2="144.73080173595253" y2="148.50862134531758" stroke="#1f77b4" stroke-width="1.5"/><line x1="144.73080173595253" y1="148.50862134531758" x2="148.28242348104158" y2="187.98921139008172" stroke="#1f77b4" stroke-width="1.5"/><line x1="148.28242348104158" y1="187.98921139008172" x2="151.83404522613068" y2="342.7445662116871" stroke="#1f77b4" stroke-width="1.5"/><line x1="151.83404522613068" y1="342.7445662116871" x2="155.38566697121973" y2="188.38088672095353" stroke="#1f77b4" stroke-width="1.5"/><line x1="155.38566697121973" y1="188.38088672095353" x2="158.93728871630884" y2="283.13093914094156" stroke="#1f77b4" stroke-width="1.5"/><line x1="158.93728871630884" y1="283.13093914094156" x2="162.48891046139795" y2="419.0088300813363" stroke="#1f77b4" stroke-width="1.5"/><line x1="162.48891046139795" y1="419.0088300813363" x2="166.040532206487" y2="419.72184135677355" stroke="#1f77b4" stroke-width="1.5"/><line x1="166.040532206487" y1="419.72184135677355" x2="169.5921539515761" y2="356.06594917102615" stroke="#1f77b4" stroke-width="1.5"/><line x1="169.5921539515761" y1="356.06594917102615" x2="173.14377569666516" y2="380.7531617593237" stroke="#1f77b4" stroke-width="1.5"/><line x1="173.14377569666516" y1="380.7531617593237" x2="176.69539744175427" y2="549.9178030246476" stroke="#1f77b4" stroke-width="1.5"/><line x1="176.69539744175427" y1="549.9178030246476" x2="180.24701918684332" y2="359.58019387148863" stroke="#1f77b4" stroke-width="1.5"/><line x1="180.24701918684332" y1="359.58019387148863" x2="183.79864093193243" y2="361.3038557659446" stroke="#1f77b4" stroke-width="1.5"/><line x1="183.79864093193243" y1="361.3038557659446" x2="187.35026267702148" y2="326.1536154437282" stroke="#1f77b4" stroke-width="1.5"/><line x1="187.35026267702148" y1="326.1536154437282" x2="190.90188442211058" y2="441.517485071004" stroke="#1f77b4" stroke-width="1.5"/><line x1="190.90188442211058" y1="441.517485071004" x2="194.4535061671997" y2="178.15313185556158" stroke="#1f77b4" stroke-width="1.5"/><line x1="194.4535061671997" y1="178.15313185556158" x2="198.00512791228874" y2="210.7202472306198" stroke="#1f77b4" stroke-width="1.5"/><line x1="198.00512791228874" y1="210.7202472306198" x2="201.55674965737785" y2="227.14079959214507" stroke="#1f77b4" stroke-width="1.5"/><line x1="201.55674965737785" y1="227.14079959214507" x2="205.1083714024669" y2="237.2170933736333" stroke="#1f77b4" stroke-width="1.5"/><line x1="205.1083714024669" y1="237.2170933736333" x2="208.659993147556" y2="77.0295510935407" stroke="#1f77b4" stroke-width="1.5"/><line x1="208.659993147556" y1="77.0295510935407" x2="212.21161489264512" y2="121.93769965570397" stroke="#1f77b4" stroke-width="1.5"/><line x1="212.21161489264512" y1="121.93769965570397" x2="215.76323663773417" y2="267.0411165836972" stroke="#1f77b4" stroke-width="1.5"/><line x1="215.76323663773417" y1="267.0411165836972" x2="219.31485838282322" y2="166.53813696860306" stroke="#1f77b4" stroke-width="1.5"/><line x1="219.31485838282322" y1="166.53813696860306" x2="222.86648012791233" y2="182.70570329669567" stroke="#1f77b4" stroke-width="1.5"/><line x1="222.86648012791233" y1="182.70570329669567" x2="226.41810187300138" y2="229.50291311887378" stroke="#1f77b4" stroke-width="1.5"/><line x1="226.41810187300138" y1="229.50291311887378" x2="229.96972361809048" y2="437.2691671541487" stroke="#1f77b4" stroke-width="1.5"/><line x1="229.96972361809048" y1="437.2691671541487" x2="233.52134536317953" y2="257.1500286472427" stroke="#1f77b4" stroke-width="1.5"/><line x1="233.52134536317953" y1="257.1500286472427" x2="237.0729671082687" y2="366.12539047342545" stroke="#1f77b4" stroke-width="1.5"/><line x1="237.0729671082687" y1="366.12539047342545" x2="240.62458885335775" y2="413.314870910801" stroke="#1f77b4" stroke-width="1.5"/><line x1="240.62458885335775" y1="413.314870910801" x2="244.17621059844686" y2="522.2691417161433" stroke="#1f77b4" stroke-width="1.5"/><line x1="244.17621059844686" y1="522.2691417161433" x2="247.7278323435359" y2="330.04049693381273" stroke="#1f77b4" stroke-width="1.5"/><line x1="247.7278323435359" y1="330.04049693381273" x2="251.27945408862496" y2="399.41139141168503" stroke="#1f77b4" stroke-width="1.5"/><line x1="251.27945408862496" y1="399.41139141168503" x2="254.83107583371407" y2="466.5585611026192" stroke="#1f77b4" stroke-width="1.5"/><line x1="254.83107583371407" y1="466.5585611026192" x2="258.3826975788031" y2="376.9208718119934" stroke="#1f77b4" stroke-width="1.5"/><line x1="258.3826975788031" y1="376.9208718119934" x2="261.9343193238922" y2="263.03807330809997" stroke="#1f77b4" stroke-width="1.5"/><line x1="261.9343193238922" y1="263.03807330809997" x2="265.4859410689813" y2="254.79226432171055" stroke="#1f77b4" stroke-width="1.5"/><line x1="265.4859410689813" y1="254.79226432171055" x2="269.03756281407044" y2="364.22710416985626" stroke="#1f77b4" stroke-width="1.5"/><line x1="269.03756281407044" y1="364.22710416985626" x2="272.5891845591595" y2="133.9567017887012" stroke="#1f77b4" stroke-width="1.5"/><line x1="272.5891845591595" y1="133.9567017887012" x2="276.1408063042486" y2="155.10232995089245" stroke="#1f77b4" stroke-width="1.5"/><line x1="276.1408063042486" y1="155.10232995089245" x2="279.69242804933765" y2="147.47991533618563" stroke="#1f77b4" stroke-width="1.5"/><line x1="279.69242804933765" y1="147.47991533618563" x2="283.24404979442676" y2="272.3833907997471" stroke="#1f77b4" stroke-width="1.5"/><line x1="283.24404979442676" y1="272.3833907997471" x2="286.7956715395158" y2="55.261547954603316" stroke="#1f77b4" stroke-width="1.5"/><line x1="286.7956715395158" y1="55.261547954603316" x2="290.3472932846049" y2="175.65424701974246" stroke="#1f77b4" stroke-width="1.5"/><line x1="290.3472932846049" y1="175.65424701974246" x2="293.89891502969397" y2="254.676897845959" stroke="#1f77b4" stroke-width="1.5"/><line x1="293.89891502969397" y1="254.676897845959" x2="297.4505367747831" y2="302.64044168836716" stroke="#1f77b4" stroke-width="1.5"/><line x1="297.4505367747831" y1="302.64044168836716" x2="301.0021585198722" y2="207.8441800335923" stroke="#1f77b4" stroke-width="1.5"/><line x1="301.0021585198722" y1="207.8441800335923" x2="304.55378026496123" y2="319.6565860600111" stroke="#1f77b4" stroke-width="1.5"/><line x1="304.55378026496123" y1="319.6565860600111" x2="308.10540201005034" y2="474.8448251098777" stroke="#1f77b4" stroke-width="1.5"/><line x1="308.10540201005034" y1="474.8448251098777" x2="311.6570237551394" y2="361.0431825525081" stroke="#1f77b4" stroke-width="1.5"/><line x1="311.6570237551394" y1="361.0431825525081" x2="315.2086455002285" y2="383.66977109292395" stroke="#1f77b4" stroke-width="1.5"/><line x1="315.2086455002285" y1="383.66977109292395" x2="318.76026724531755" y2="411.99144487594594" stroke="#1f77b4" stroke-width="1.5"/><line x1="318.76026724531755" y1="411.99144487594594" x2="322.31188899040666" y2="546.6528008412604" stroke="#1f77b4" stroke-width="1.5"/><line x1="322.31188899040666" y1="546.6528008412604" x2="325.8635107354957" y2="298.66682424231607" stroke="#1f77b4" stroke-width="1.5"/><line x1="325.8635107354957" y1="298.66682424231607" x2="329.4151324805848" y2="368.8590932518431" stroke="#1f77b4" stroke-width="1.5"/><line x1="329.4151324805848" y1="368.8590932518431" x2="332.96675422567387" y2="352.8272833732061" stroke="#1f77b4" stroke-width="1.5"/><line x1="332.96675422567387" y1="352.8272833732061" x2="336.518375970763" y2="377.66353159058986" stroke="#1f77b4" stroke-width="1.5"/><line x1="336.518375970763" y1="377.66353159058986" x2="340.0699977158521" y2="145.8603808383378" stroke="#1f77b4" stroke-width="1.5"/><line x1="340.0699977158521" y1="145.8603808383378" x2="343.62161946094113" y2="212.36845341976232" stroke="#1f77b4" stroke-width="1.5"/><line x1="343.62161946094113" y1="212.36845341976232" x2="347.17324120603024" y2="258.27333545528643" stroke="#1f77b4" stroke-width="1.5"/><line x1="347.17324120603024" y1="258.27333545528643" x2="350.7248629511193" y2="158.01628947001035" stroke="#1f77b4" stroke-width="1.5"/><line x1="350.7248629511193" y1="158.01628947001035" x2="354.2764846962084" y2="92.34737491313251" stroke="#1f77b4" stroke-width="1.5"/><line x1="354.2764846962084" y1="92.34737491313251" x2="357.82810644129745" y2="148.6648353120877" stroke="#1f77b4" stroke-width="1.5"/><line x1="357.82810644129745" y1="148.6648353120877" x2="361.37972818638656" y2="294.20527486320873" stroke="#1f77b4" stroke-width="1.5"/><line x1="361.37972818638656" y1="294.20527486320873" x2="364.9313499314756" y2="117.10014659531805" stroke="#1f77b4" stroke-width="1.5"/><line x1="364.9313499314756" y1="117.10014659531805" x2="368.4829716765647" y2="228.4965652020826" stroke="#1f77b4" stroke-width="1.5"/><line x1="368.4829716765647" y1="228.4965652020826" x2="372.0345934216538" y2="284.8973387325504" stroke="#1f77b4" stroke-width="1.5"/><line x1="372.0345934216538" y1="284.8973387325504" x2="375.5862151667429" y2="430.04646064882763" stroke="#1f77b4" stroke-width="1.5"/><line x1="375.5862151667429" y1="430.04646064882763" x2="379.137836911832" y2="245.27903641644957" stroke="#1f77b4" stroke-width="1.5"/><line x1="379.137836911832" y1="245.27903641644957" x2="382.68945865692103" y2="403.74253584543885" stroke="#1f77b4" stroke-width="1.5"/><line x1="382.68945865692103" y1="403.74253584543885" x2="386.24108040201014" y2="465.5213248948692" stroke="#1f77b4" stroke-width="1.5"/><line x1="386.24108040201014" y1="465.5213248948692" x2="389.7927021470992" y2="461.3756405462414" stroke="#1f77b4" stroke-width="1.5"/><line x1="389.7927021470992" y1="461.3756405462414" x2="393.3443238921883" y2="336.1955447412115" stroke="#1f77b4" stroke-width="1.5"/><line x1="393.3443238921883" y1="336.1955447412115" x2="396.89594563727735" y2="411.24350269696833" stroke="#1f77b4" stroke-width="1.5"/><line x1="396.89594563727735" y1="411.24350269696833" x2="400.44756738236646" y2="481.94341845691525" stroke="#1f77b4" stroke-width="1.5"/><line x1="400.44756738236646" y1="481.94341845691525" x2="403.99918912745557" y2="287.79574710506654" stroke="#1f77b4" stroke-width="1.5"/><line x1="403.99918912745557" y1="287.79574710506654" x2="407.5508108725446" y2="274.21899131697427" stroke="#1f77b4" stroke-width="1.5"/><line x1="407.5508108725446" y1="274.21899131697427" x2="411.10243261763367" y2="262.8980654590276" stroke="#1f77b4" stroke-width="1.5"/><line x1="411.10243261763367" y1="262.8980654590276" x2="414.6540543627228" y2="338.12450666731445" stroke="#1f77b4" stroke-width="1.5"/><line x1="414.6540543627228" y1="338.12450666731445" x2="418.20567610781194" y2="73.51614385715374" stroke="#1f77b4" stroke-width="1.5"/><line x1="418.20567610781194" y1="73.51614385715374" x2="421.75729785290093" y2="176.4918340756269" stroke="#1f77b4" stroke-width="1.5"/><line x1="421.75729785290093" y1="176.4918340756269" x2="425.3089195979901" y2="181.45312824186652" stroke="#1f77b4" stroke-width="1.5"/><line x1="425.3089195979901" y1="181.45312824186652" x2="428.8605413430791" y2="223.58957902815393" stroke="#1f77b4" stroke-width="1.5"/><line x1="428.8605413430791" y1="223.58957902815393" x2="432.4121630881682" y2="58.776265849437436" stroke="#1f77b4" stroke-width="1.5"/><line x1="432.4121630881682" y1="58.776265849437436" x2="435.96378483325725" y2="212.00238416783043" stroke="#1f77b4" stroke-width="1.5"/><line x1="435.96378483325725" y1="212.00238416783043" x2="439.51540657834636" y2="306.19774590052015" stroke="#1f77b4" stroke-width="1.5"/><line x1="439.51540657834636" y1="306.19774590052015" x2="443.0670283234354" y2="248.73577444688118" stroke="#1f77b4" stroke-width="1.5"/><line x1="443.0670283234354" y1="248.73577444688118" x2="446.6186500685245" y2="255.28904231046374" stroke="#1f77b4" stroke-width="1.5"/><line x1="446.6186500685245" y1="255.28904231046374" x2="450.1702718136137" y2="360.03655122525856" stroke="#1f77b4" stroke-width="1.5"/><line x1="450.1702718136137" y1="360.03655122525856" x2="453.7218935587027" y2="497.31760035221464" stroke="#1f77b4" stroke-width="1.5"/><line x1="453.7218935587027" y1="497.31760035221464" x2="457.27351530379184" y2="310.7853780231508" stroke="#1f77b4" stroke-width="1.5"/><line x1="457.27351530379184" y1="310.7853780231508" x2="460.82513704888083" y2="425.7186203361641" stroke="#1f77b4" stroke-width="1.5"/><line x1="460.82513704888083" y1="425.7186203361641" x2="464.37675879396994" y2="440.8571144299489" stroke="#1f77b4" stroke-width="1.5"/><line x1="464.37675879396994" y1="440.8571144299489" x2="467.928380539059" y2="504.9913702450608" stroke="#1f77b4" stroke-width="1.5"/><line x1="467.928380539059" y1="504.9913702450608" x2="471.4800022841481" y2="264.478669542582" stroke="#1f77b4" stroke-width="1.5"/><line x1="471.4800022841481" y1="264.478669542582" x2="475.03162402923715" y2="382.04476449623405" stroke="#1f77b4" stroke-width="1.5"/><line x1="475.03162402923715" y1="382.04476449623405" x2="478.5832457743262" y2="367.9935090779633" stroke="#1f77b4" stroke-width="1.5"/><line x1="478.5832457743262" y1="367.9935090779633" x2="482.1348675194153" y2="290.5867216371546" stroke="#1f77b4" stroke-width="1.5"/><line x1="482.1348675194153" y1="290.5867216371546" x2="485.68648926450436" y2="146.64596726549644" stroke="#1f77b4" stroke-width="1.5"/><line x1="485.68648926450436" y1="146.64596726549644" x2="489.23811100959347" y2="218.47174992883345" stroke="#1f77b4" stroke-width="1.5"/><line x1="489.23811100959347" y1="218.47174992883345" x2="492.7897327546826" y2="266.13522619303336" stroke="#1f77b4" stroke-width="1.5"/><line x1="492.7897327546826" y1="266.13522619303336" x2="496.3413544997716" y2="82.52480832887846" stroke="#1f77b4" stroke-width="1.5"/><line x1="496.3413544997716" y1="82.52480832887846" x2="499.89297624486073" y2="133.30472445402256" stroke="#1f77b4" stroke-width="1.5"/><line x1="499.89297624486073" y1="133.30472445402256" x2="503.4445979899498" y2="178.47002421234066" stroke="#1f77b4" stroke-width="1.5"/><line x1="503.4445979899498" y1="178.47002421234066" x2="506.9962197350389" y2="289.04906339971325" stroke="#1f77b4" stroke-width="1.5"/><line x1="506.9962197350389" y1="289.04906339971325" x2="510.54784148012794" y2="93.59347232703169" stroke="#1f77b4" stroke-width="1.5"/><line x1="510.54784148012794" y1="93.59347232703169" x2="514.099463225217" y2="285.33017866613784" stroke="#1f77b4" stroke-width="1.5"/><line x1="514.099463225217" y1="285.33017866613784" x2="517.6510849703061" y2="334.01393543362695" stroke="#1f77b4" stroke-width="1.5"/><line x1="517.6510849703061" y1="334.01393543362695" x2="521.2027067153952" y2="392.88470548965734" stroke="#1f77b4" stroke-width="1.5"/><line x1="521.2027067153952" y1="392.88470548965734" x2="524.7543284604843" y2="266.2471548196541" stroke="#1f77b4" stroke-width="1.5"/><line x1="524.7543284604843" y1="266.2471548196541" x2="528.3059502055734" y2="441.0445135007048" stroke="#1f77b4" stroke-width="1.5"/><line x1="528.3059502055734" y1="441.0445135007048" x2="531.8575719506624" y2="496.06098462957436" stroke="#1f77b4" stroke-width="1.5"/><line x1="531.8575719506624" y1="496.06098462957436" x2="535.4091936957515" y2="388.7614221411848" stroke="#1f77b4" stroke-width="1.5"/><line x1="535.4091936957515" y1="388.7614221411848" x2="538.9608154408406" y2="368.49990060150265" stroke="#1f77b4" stroke-width="1.5"/><line x1="538.9608154408406" y1="368.49990060150265" x2="542.5124371859296" y2="419.4525066238098" stroke="#1f77b4" stroke-width="1.5"/><line x1="542.5124371859296" y1="419.4525066238098" x2="546.0640589310187" y2="464.4822163320234" stroke="#1f77b4" stroke-width="1.5"/><line x1="546.0640589310187" y1="464.4822163320234" x2="549.6156806761078" y2="213.9886460614993" stroke="#1f77b4" stroke-width="1.5"/><line x1="549.6156806761078" y1="213.9886460614993" x2="553.167302421197" y2="300.07489835394017" stroke="#1f77b4" stroke-width="1.5"/><line x1="553.167302421197" y1="300.07489835394017" x2="556.718924166286" y2="266.81200178970965" stroke="#1f77b4" stroke-width="1.5"/><line x1="556.718924166286" y1="266.81200178970965" x2="560.270545911375" y2="281.21985336193273" stroke="#1f77b4" stroke-width="1.5"/><line x1="560.270545911375" y1="281.21985336193273" x2="563.8221676564642" y2="48.46857817432476" stroke="#1f77b4" stroke-width="1.5"/><line x1="563.8221676564642" y1="48.46857817432476" x2="567.3737894015532" y2="203.13488356259808" stroke="#1f77b4" stroke-width="1.5"/><line x1="567.3737894015532" y1="203.13488356259808" x2="570.9254111466423" y2="204.5429931728454" stroke="#1f77b4" stroke-width="1.5"/><line x1="570.9254111466423" y1="204.5429931728454" x2="574.4770328917314" y2="159.81752938562" stroke="#1f77b4" stroke-width="1.5"/><line x1="574.4770328917314" y1="159.81752938562" x2="578.0286546368205" y2="98.7832285992854" stroke="#1f77b4" stroke-width="1.5"/><line x1="578.0286546368205" y1="98.7832285992854" x2="581.5802763819095" y2="247.29628058260357" stroke="#1f77b4" stroke-width="1.5"/><line x1="581.5802763819095" y1="247.29628058260357" x2="585.1318981269986" y2="333.2936185259041" stroke="#1f77b4" stroke-width="1.5"/><line x1="585.1318981269986" y1="333.2936185259041" x2="588.6835198720877" y2="202.1986712453063" stroke="#1f77b4" stroke-width="1.5"/><line x1="588.6835198720877" y1="202.1986712453063" x2="592.2351416171769" y2="323.7946114300748" stroke="#1f77b4" stroke-width="1.5"/><line x1="592.2351416171769" y1="323.7946114300748" x2="595.7867633622659" y2="393.8986339479045" stroke="#1f77b4" stroke-width="1.5"/><line x1="595.7867633622659" y1="393.8986339479045" x2="599.338385107355" y2="485.8892894550046" stroke="#1f77b4" stroke-width="1.5"/><line x1="599.338385107355" y1="485.8892894550046" x2="602.8900068524441" y2="287.0199868206145" stroke="#1f77b4" stroke-width="1.5"/><line x1="602.8900068524441" y1="287.0199868206145" x2="606.441628597533" y2="470.989919686417" stroke="#1f77b4" stroke-width="1.5"/><line x1="606.441628597533" y1="470.989919686417" x2="609.9932503426222" y2="456.64355291172353" stroke="#1f77b4" stroke-width="1.5"/><line x1="609.9932503426222" y1="456.64355291172353" x2="613.5448720877113" y2="436.5314299717602" stroke="#1f77b4" stroke-width="1.5"/><line x1="613.5448720877113" y1="436.5314299717602" x2="617.0964938328004" y2="265.1246429597802" stroke="#1f77b4" stroke-width="1.5"/><line x1="617.0964938328004" y1="265.1246429597802" x2="620.6481155778894" y2="390.04670400310033" stroke="#1f77b4" stroke-width="1.5"/><line x1="620.6481155778894" y1="390.04670400310033" x2="624.1997373229785" y2="362.50293420713535" stroke="#1f77b4" stroke-width="1.5"/><line x1="624.1997373229785" y1="362.50293420713535" x2="627.7513590680677" y2="200.85147992291775" stroke="#1f77b4" stroke-width="1.5"/><line x1="627.7513590680677" y1="200.85147992291775" x2="631.3029808131568" y2="177.08550255883478" stroke="#1f77b4" stroke-width="1.5"/><line x1="631.3029808131568" y1="177.08550255883478" x2="634.8546025582458" y2="219.44612657037823" stroke="#1f77b4" stroke-width="1.5"/><line x1="634.8546025582458" y1="219.44612657037823" x2="638.4062243033349" y2="247.43892194492412" stroke="#1f77b4" stroke-width="1.5"/><line x1="638.4062243033349" y1="247.43892194492412" x2="641.957846048424" y2="31.547727272727343" stroke="#1f77b4" stroke-width="1.5"/><line x1="641.957846048424" y1="31.547727272727343" x2="645.509467793513" y2="188.74299246352234" stroke="#1f77b4" stroke-width="1.5"/><line x1="645.509467793513" y1="188.74299246352234" x2="649.0610895386021" y2="201.62825684460506" stroke="#1f77b4" stroke-width="1.5"/><line x1="649.0610895386021" y1="201.62825684460506" x2="652.6127112836912" y2="258.2941266406951" stroke="#1f77b4" stroke-width="1.5"/><line x1="652.6127112836912" y1="258.2941266406951" x2="656.1643330287803" y2="108.17137334566291" stroke="#1f77b4" stroke-width="1.5"/><line x1="656.1643330287803" y1="108.17137334566291" x2="659.7159547738694" y2="340.18338359750754" stroke="#1f77b4" stroke-width="1.5"/><line x1="659.7159547738694" y1="340.18338359750754" x2="663.2675765189584" y2="367.2946359238706" stroke="#1f77b4" stroke-width="1.5"/><line x1="663.2675765189584" y1="367.2946359238706" x2="666.8191982640476" y2="342.7019529146613" stroke="#1f77b4" stroke-width="1.5"/><line x1="666.8191982640476" y1="342.7019529146613" x2="670.3708200091365" y2="319.8649860674505" stroke="#1f77b4" stroke-width="1.5"/><line x1="670.3708200091365" y1="319.8649860674505" x2="673.9224417542257" y2="466.9932077413721" stroke="#1f77b4" stroke-width="1.5"/><line x1="673.9224417542257" y1="466.9932077413721" x2="677.4740634993148" y2="499.3054437175556" stroke="#1f77b4" stroke-width="1.5"/><line x1="677.4740634993148" y1="499.3054437175556" x2="681.0256852444039" y2="325.9118168453116" stroke="#1f77b4" stroke-width="1.5"/><line x1="681.0256852444039" y1="325.9118168453116" x2="684.5773069894929" y2="417.1664534001176" stroke="#1f77b4" stroke-width="1.5"/><line x1="684.5773069894929" y1="417.1664534001176" x2="688.128928734582" y2="415.21758190077804" stroke="#1f77b4" stroke-width="1.5"/><line x1="688.128928734582" y1="415.21758190077804" x2="691.6805504796712" y2="417.40290281467895" stroke="#1f77b4" stroke-width="1.5"/><line x1="691.6805504796712" y1="417.40290281467895" x2="695.2321722247602" y2="172.41779385614205" stroke="#1f77b4" stroke-width="1.5"/><line x1="695.2321722247602" y1="172.41779385614205" x2="698.7837939698493" y2="327.18350442108107" stroke="#1f77b4" stroke-width="1.5"/><line x1="698.7837939698493" y1="327.18350442108107" x2="702.3354157149383" y2="258.6465637646385" stroke="#1f77b4" stroke-width="1.5"/><line x1="702.3354157149383" y1="258.6465637646385" x2="705.8870374600275" y2="207.3485618549501" stroke="#1f77b4" stroke-width="1.5"/><line x1="705.8870374600275" y1="207.3485618549501" x2="709.4386592051164" y2="63.94980489099112" stroke="#1f77b4" stroke-width="1.5"/><line x1="709.4386592051164" y1="63.94980489099112" x2="712.9902809502056" y2="222.71859374599802" stroke="#1f77b4" stroke-width="1.5"/><line x1="712.9902809502056" y1="222.71859374599802" x2="716.5419026952947" y2="210.5509155261073" stroke="#1f77b4" stroke-width="1.5"/><line x1="716.5419026952947" y1="210.5509155261073" x2="720.0935244403838" y2="101.55877049374749" stroke="#1f77b4" stroke-width="1.5"/><line x1="720.0935244403838" y1="101.55877049374749" x2="723.6451461854729" y2="167.8407214057802" stroke="#1f77b4" stroke-width="1.5"/><line x1="723.6451461854729" y1="167.8407214057802" x2="727.1967679305619" y2="271.7649983405922" stroke="#1f77b4" stroke-width="1.5"/><line x1="727.1967679305619" y1="271.7649983405922" x2="730.7483896756511" y2="335.3857877418047" stroke="#1f77b4" stroke-width="1.5"/><line x1="730.7483896756511" y1="335.3857877418047" x2="734.3000114207401" y2="182.02540513747812" stroke="#1f77b4" stroke-width="1.5"/><line x1="734.3000114207401" y1="182.02540513747812" x2="737.8516331658292" y2="398.83690466836146" stroke="#1f77b4" stroke-width="1.5"/><line x1="737.8516331658292" y1="398.83690466836146" x2="741.4032549109182" y2="413.3768411963234" stroke="#1f77b4" stroke-width="1.5"/><line x1="741.4032549109182" y1="413.3768411963234" x2="744.9548766560074" y2="449.6962373357157" stroke="#1f77b4" stroke-width="1.5"/><line x1="744.9548766560074" y1="449.6962373357157" x2="748.5064984010963" y2="299.3882394283958" stroke="#1f77b4" stroke-width="1.5"/><line x1="748.5064984010963" y1="299.3882394283958" x2="752.0581201461855" y2="505.0462176644053" stroke="#1f77b4" stroke-width="1.5"/><line x1="752.0581201461855" y1="505.0462176644053" x2="755.6097418912747" y2="453.43832257480346" stroke="#1f77b4" stroke-width="1.5"/><line x1="755.6097418912747" y1="453.43832257480346" x2="759.1613636363637" y2="359.70979709819574" stroke="#1f77b4" stroke-width="1.5"/></svg>