<svg xmlns="http://www.w3.org/2000/svg" width="624" height="384" viewBox="0 0 624 384"><rect x="0.0" y="0.0" width="624.0" height="384.0" fill="#ffffff" fill-opacity="1.0" stroke="none"/><line x1="117.53420712156094" y1="7.333333333333333" x2="117.53420712156094" y2="358.3333333333333" stroke="#dddddd" stroke-width="0.6666666666666666"/><line x1="256.59821627608216" y1="7.333333333333333" x2="256.59821627608216" y2="358.3333333333333" stroke="#dddddd" stroke-width="0.6666666666666666"/><line x1="395.6622254306035" y1="7.333333333333333" x2="395.6622254306035" y2="358.3333333333333" stroke="#dddddd" stroke-width="0.6666666666666666"/><line x1="534.7262345851246" y1="7.333333333333333" x2="534.7262345851246" y2="358.3333333333333" stroke="#dddddd" stroke-width="0.6666666666666666"/><line x1="48.00220254430033" y1="7.333333333333333" x2="48.00220254430033" y2="358.3333333333333" stroke="#dddddd" stroke-width="1.3333333333333333"/><line x1="187.06621169882158" y1="7.333333333333333" x2="187.06621169882158" y2="358.3333333333333" stroke="#dddddd" stroke-width="1.3333333333333333"/><line x1="326.13022085334273" y1="7.333333333333333" x2="326.13022085334273" y2="358.3333333333333" stroke="#dddddd" stroke-width="1.3333333333333333"/><line x1="465.19423000786406" y1="7.333333333333333" x2="465.19423000786406" y2="358.3333333333333" stroke="#dddddd" stroke-width="1.3333333333333333"/><line x1="604.2582391623853" y1="7.333333333333333" x2="604.2582391623853" y2="358.3333333333333" stroke="#dddddd" stroke-width="1.3333333333333333"/><line x1="35.05333333333333" y1="313.93154357543654" x2="616.6666666666666" y2="313.93154357543654" stroke="#dddddd" stroke-width="0.6666666666666666"/><line x1="35.05333333333333" y1="225.12796405964292" x2="616.6666666666666" y2="225.12796405964292" stroke="#dddddd" stroke-width="0.6666666666666666"/><line x1="35.05333333333333" y1="136.3243845438493" x2="616.6666666666666" y2="136.3243845438493" stroke="#dddddd" stroke-width="0.6666666666666666"/><line x1="35.05333333333333" y1="47.520805028055705" x2="616.6666666666666" y2="47.520805028055705" stroke="#dddddd" stroke-width="0.6666666666666666"/><line x1="35.05333333333333" y1="358.3333333333333" x2="616.6666666666666" y2="358.3333333333333" stroke="#dddddd" stroke-width="1.3333333333333333"/><line x1="35.05333333333333" y1="269.5297538175397" x2="616.6666666666666" y2="269.5297538175397" stroke="#dddddd" stroke-width="1.3333333333333333"/><line x1="35.05333333333333" y1="180.72617430174614" x2="616.6666666666666" y2="180.72617430174614" stroke="#dddddd" stroke-width="1.3333333333333333"/><line x1="35.05333333333333" y1="91.92259478595254" x2="616.6666666666666" y2="91.92259478595254" stroke="#dddddd" stroke-width="1.3333333333333333"/><rect x="35.05333333333333" y="7.333333333333333" width="581.6133333333332" height="351.0" fill="#ffffff" fill-opacity="0.0" stroke="#444444" stroke-width="1.3333333333333333"/><line x1="48.00220254430033" y1="358.3333333333333" x2="48.00220254430033" y2="362.0" stroke="#444444" stroke-width="1.3333333333333333"/><text x="48.00220254430033" y="374.32" fill="#333333" font-size="11.733333333333334" font-family="sans-serif" text-anchor="middle">3</text><line x1="187.06621169882158" y1="358.3333333333333" x2="187.06621169882158" y2="362.0" stroke="#444444" stroke-width="1.3333333333333333"/><text x="187.06621169882158" y="374.32" fill="#333333" font-size="11.733333333333334" font-family="sans-serif" text-anchor="middle">4</text><line x1="326.13022085334273" y1="358.3333333333333" x2="326.13022085334273" y2="362.0" stroke="#444444" stroke-width="1.3333333333333333"/><text x="326.13022085334273" y="374.32" fill="#333333" font-size="11.733333333333334" font-family="sans-serif" text-anchor="middle">5</text><line x1="465.19423000786406" y1="358.3333333333333" x2="465.19423000786406" y2="362.0" stroke="#444444" stroke-width="1.3333333333333333"/><text x="465.19423000786406" y="374.32" fill="#333333" font-size="11.733333333333334" font-family="sans-serif" text-anchor="middle">6</text><line x1="604.2582391623853" y1="358.3333333333333" x2="604.2582391623853" y2="362.0" stroke="#444444" stroke-width="1.3333333333333333"/><text x="604.2582391623853" y="374.32" fill="#333333" font-size="11.733333333333334" font-family="sans-serif" text-anchor="middle">7</text><line x1="35.05333333333333" y1="358.3333333333333" x2="31.386666666666663" y2="358.3333333333333" stroke="#444444" stroke-width="1.3333333333333333"/><text x="28.453333333333333" y="362.43999999999994" fill="#333333" font-size="11.733333333333334" font-family="sans-serif" text-anchor="end">0.0</text><line x1="35.05333333333333" y1="269.5297538175397" x2="31.386666666666663" y2="269.5297538175397" stroke="#444444" stroke-width="1.3333333333333333"/><text x="28.453333333333333" y="273.6364204842064" fill="#333333" font-size="11.733333333333334" font-family="sans-serif" text-anchor="end">0.1</text><line x1="35.05333333333333" y1="180.72617430174614" x2="31.386666666666663" y2="180.72617430174614" stroke="#444444" stroke-width="1.3333333333333333"/><text x="28.453333333333333" y="184.83284096841282" fill="#333333" font-size="11.733333333333334" font-family="sans-serif" text-anchor="end">0.2</text><line x1="35.05333333333333" y1="91.92259478595254" x2="31.386666666666663" y2="91.92259478595254" stroke="#444444" stroke-width="1.3333333333333333"/><text x="28.453333333333333" y="96.02926145261921" fill="#333333" font-size="11.733333333333334" font-family="sans-serif" text-anchor="end">0.3</text><path d="M 35.05333333333333 333.27253176903514 L 40.92821548821546 329.02539379898997 L 46.803097643097644 324.3376421283152 L 52.677979797979766 319.1965049893891 L 58.55286195286195 313.5901503836424 L 64.42774410774408 307.50811779776507 L 70.30262626262626 300.9422105171051 L 76.17750841750839 293.8878029746784 L 82.05239057239058 286.345434458725 L 87.92727272727271 278.32249315550257 L 93.8021548821549 269.8347565012358 L 99.67703703703702 260.9075535283391 L 105.55191919191914 251.57635357182767 L 111.42680134680133 241.88665712356345 L 117.30168350168351 231.89315635772073 L 123.17656565656564 221.65822892257114 L 129.05144781144776 211.24991284561526 L 134.92632996632997 200.73956978278812 L 140.80121212121213 190.19947082914518 L 146.67609427609426 179.70053267807612 L 152.5509764309764 169.31039695447367 L 158.4258585858586 159.0919909085178 L 164.30074074074074 149.102643508303 L 170.1756228956229 139.39376622517534 L 176.05050505050502 130.01104840833125 L 181.92538720538715 120.99506568900831 L 187.80026936026925 112.38215659610492 L 193.67515151515153 104.20538739842439 L 199.55003367003363 96.49539978613188 L 205.42491582491576 89.28092519210414 L 211.29979797979803 82.58876117000887 L 217.17468013468013 76.44304817770026 L 223.04956228956226 70.86376585325414 L 228.9244444444444 65.86448651623898 L 234.79932659932652 61.44957066255904 L 240.67420875420876 57.61114438797464 L 246.5490909090909 54.32633283990632 L 252.42397306397302 51.55530394615247 L 258.29885521885524 49.240673232063 L 264.17373737373737 47.3087154286447 L 270.0486195286195 45.67262189626145 L 275.9235016835016 44.23775632099826 L 281.79838383838376 42.90853665667877 L 287.673265993266 41.596264905290354 L 293.54814814814813 40.226997831910275 L 299.42303030303026 38.74845232065941 L 305.2979124579124 37.134999795669195 L 311.1727946127945 35.3900274409735 L 317.04767676767676 33.54530104066009 L 322.9225589225589 31.6573987178405 L 328.797441077441 29.801722443239516 L 334.67232323232327 28.06495684640716 L 340.5472053872053 26.53706607625338 L 346.4220875420875 25.30395774543274 L 352.29696969696965 24.441790589740624 L 358.1718518518518 24.013587230749028 L 364.046734006734 24.06839347635601 L 369.92161616161616 24.642777865682962 L 375.7964983164983 25.764070269767366 L 381.67138047138053 27.454465025331462 L 387.54626262626255 29.73500645926693 L 393.4211447811448 32.62854504509558 L 399.296026936027 36.16098060257123 L 405.17090909090905 40.360447911704114 L 411.0457912457913 45.254486525015366 L 416.9206734006733 50.865603352156654 L 422.79555555555555 57.205924964442296 L 428.67043771043774 64.27180513847225 L 434.5453198653198 72.03928283367402 L 440.42020202020205 80.46118016276105 L 446.2950841750842 89.46641186398236 L 452.16996632996626 98.96178375980021 L 458.04484848484856 108.83623099967681 L 463.9197306397305 118.96713139433855 L 469.7946127946128 129.22806406064586 L 475.66949494949495 139.49719965743114 L 481.5443771043771 149.66542551579283 L 487.4192592592593 159.6433344849113 L 493.29414141414145 169.36633523921438 L 499.1690235690236 178.7973571014407 L 505.0439057239058 187.92689699812428 L 510.91878787878784 196.7704557921842 L 516.7936700336701 205.36369884158285 L 522.6685521885522 213.75591605885893 L 528.5434343434343 222.002521602386 L 534.4183164983166 230.15740496510162 L 540.2931986531986 238.26591908344736 L 546.1680808080808 246.35917595001501 L 552.042962962963 254.45013627352324 L 557.9178451178451 262.5317549067628 L 563.7927272727272 270.57720899602293 L 569.6676094276095 278.54202027391545 L 575.5424915824915 286.36771004849635 L 581.4173737373737 293.9865103227433 L 587.2922558922558 301.32660293593983 L 593.1671380471381 308.3173678531737 L 599.0420202020201 314.8941821226569 L 604.9169023569024 321.0024085791217 L 610.7917845117846 326.60033227522337 L 616.6666666666666 331.66092746128896" fill="" fill-opacity="0.0" stroke="#1f77b4" stroke-width="1.8897637795275593"/></svg>