<svg xmlns="http://www.w3.org/2000/svg" width="624" height="384" viewBox="0 0 624 384"><rect x="0.0" y="0.0" width="624.0" height="384.0" fill="#ffffff" fill-opacity="1.0" stroke="none"/><line x1="113.36158672148623" y1="7.333333333333333" x2="113.36158672148623" y2="358.3333333333333" stroke="#dddddd" stroke-width="0.6666666666666666"/><line x1="249.42676107811786" y1="7.333333333333333" x2="249.42676107811786" y2="358.3333333333333" stroke="#dddddd" stroke-width="0.6666666666666666"/><line x1="385.4919354347495" y1="7.333333333333333" x2="385.4919354347495" y2="358.3333333333333" stroke="#dddddd" stroke-width="0.6666666666666666"/><line x1="521.5571097913811" y1="7.333333333333333" x2="521.5571097913811" y2="358.3333333333333" stroke="#dddddd" stroke-width="0.6666666666666666"/><line x1="45.328999543170404" y1="7.333333333333333" x2="45.328999543170404" y2="358.3333333333333" stroke="#dddddd" stroke-width="1.3333333333333333"/><line x1="181.39417389980204" y1="7.333333333333333" x2="181.39417389980204" y2="358.3333333333333" stroke="#dddddd" stroke-width="1.3333333333333333"/><line x1="317.4593482564337" y1="7.333333333333333" x2="317.4593482564337" y2="358.3333333333333" stroke="#dddddd" stroke-width="1.3333333333333333"/><line x1="453.5245226130653" y1="7.333333333333333" x2="453.5245226130653" y2="358.3333333333333" stroke="#dddddd" stroke-width="1.3333333333333333"/><line x1="589.5896969696969" y1="7.333333333333333" x2="589.5896969696969" y2="358.3333333333333" stroke="#dddddd" stroke-width="1.3333333333333333"/><line x1="20.973333333333333" y1="308.5566431502772" x2="616.6666666666666" y2="308.5566431502772" stroke="#dddddd" stroke-width="0.6666666666666666"/><line x1="20.973333333333333" y1="224.63238554516104" x2="616.6666666666666" y2="224.63238554516104" stroke="#dddddd" stroke-width="0.6666666666666666"/><line x1="20.973333333333333" y1="140.70812794004488" x2="616.6666666666666" y2="140.70812794004488" stroke="#dddddd" stroke-width="0.6666666666666666"/><line x1="20.973333333333333" y1="56.78387033492875" x2="616.6666666666666" y2="56.78387033492875" stroke="#dddddd" stroke-width="0.6666666666666666"/><line x1="20.973333333333333" y1="350.5187719528352" x2="616.6666666666666" y2="350.5187719528352" stroke="#dddddd" stroke-width="1.3333333333333333"/><line x1="20.973333333333333" y1="266.5945143477191" x2="616.6666666666666" y2="266.5945143477191" stroke="#dddddd" stroke-width="1.3333333333333333"/><line x1="20.973333333333333" y1="182.670256742603" x2="616.6666666666666" y2="182.670256742603" stroke="#dddddd" stroke-width="1.3333333333333333"/><line x1="20.973333333333333" y1="98.74599913748682" x2="616.6666666666666" y2="98.74599913748682" stroke="#dddddd" stroke-width="1.3333333333333333"/><line x1="20.973333333333333" y1="14.821741532370652" x2="616.6666666666666" y2="14.821741532370652" stroke="#dddddd" stroke-width="1.3333333333333333"/><rect x="20.973333333333333" y="7.333333333333333" width="595.6933333333333" height="351.0" fill="#ffffff" fill-opacity="0.0" stroke="#444444" stroke-width="1.3333333333333333"/><line x1="45.328999543170404" y1="358.3333333333333" x2="45.328999543170404" y2="362.0" stroke="#444444" stroke-width="1.3333333333333333"/><text x="45.328999543170404" y="374.32" fill="#333333" font-size="11.733333333333334" font-family="sans-serif" text-anchor="middle">0</text><line x1="181.39417389980204" y1="358.3333333333333" x2="181.39417389980204" y2="362.0" stroke="#444444" stroke-width="1.3333333333333333"/><text x="181.39417389980204" y="374.32" fill="#333333" font-size="11.733333333333334" font-family="sans-serif" text-anchor="middle">50</text><line x1="317.4593482564337" y1="358.3333333333333" x2="317.4593482564337" y2="362.0" stroke="#444444" stroke-width="1.3333333333333333"/><text x="317.4593482564337" y="374.32" fill="#333333" font-size="11.733333333333334" font-family="sans-serif" text-anchor="middle">100</text><line x1="453.5245226130653" y1="358.3333333333333" x2="453.5245226130653" y2="362.0" stroke="#444444" stroke-width="1.3333333333333333"/><text x="453.5245226130653" y="374.32" fill="#333333" font-size="11.733333333333334" font-family="sans-serif" text-anchor="middle">150</text><line x1="589.5896969696969" y1="358.3333333333333" x2="589.5896969696969" y2="362.0" stroke="#444444" stroke-width="1.3333333333333333"/><text x="589.5896969696969" y="374.32" fill="#333333" font-size="11.733333333333334" font-family="sans-serif" text-anchor="middle">200</text><line x1="20.973333333333333" y1="350.5187719528352" x2="17.306666666666665" y2="350.5187719528352" stroke="#444444" stroke-width="1.3333333333333333"/><text x="14.373333333333335" y="354.6254386195019" fill="#333333" font-size="11.733333333333334" font-family="sans-serif" text-anchor="end">3</text><line x1="20.973333333333333" y1="266.5945143477191" x2="17.306666666666665" y2="266.5945143477191" stroke="#444444" stroke-width="1.3333333333333333"/><text x="14.373333333333335" y="270.7011810143858" fill="#333333" font-size="11.733333333333334" font-family="sans-serif" text-anchor="end">4</text><line x1="20.973333333333333" y1="182.670256742603" x2="17.306666666666665" y2="182.670256742603" stroke="#444444" stroke-width="1.3333333333333333"/><text x="14.373333333333335" y="186.77692340926967" fill="#333333" font-size="11.733333333333334" font-family="sans-serif" text-anchor="end">5</text><line x1="20.973333333333333" y1="98.74599913748682" x2="17.306666666666665" y2="98.74599913748682" stroke="#444444" stroke-width="1.3333333333333333"/><text x="14.373333333333335" y="102.85266580415347" fill="#333333" font-size="11.733333333333334" font-family="sans-serif" text-anchor="end">6</text><line x1="20.973333333333333" y1="14.821741532370652" x2="17.306666666666665" y2="14.821741532370652" stroke="#444444" stroke-width="1.3333333333333333"/><text x="14.373333333333335" y="18.928408199037317" fill="#333333" font-size="11.733333333333334" font-family="sans-serif" text-anchor="end">7</text><line x1="48.05030303030304" y1="139.72837461717498" x2="50.771606517435664" y2="117.0483433955006" stroke="#1f77b4" stroke-width="1.4211023622047245"/><line x1="50.771606517435664" y1="117.0483433955006" x2="53.4929100045683" y2="187.1457298351666" stroke="#1f77b4" stroke-width="1.4211023622047245"/><line x1="53.4929100045683" y1="187.1457298351666" x2="56.21421349170093" y2="59.337864920567235" stroke="#1f77b4" stroke-width="1.4211023622047245"/><line x1="56.21421349170093" y1="59.337864920567235" x2="58.93551697883356" y2="70.47138592536808" stroke="#1f77b4" stroke-width="1.4211023622047245"/><line x1="58.93551697883356" y1="70.47138592536808" x2="61.65682046596619" y2="133.4131032836874" stroke="#1f77b4" stroke-width="1.4211023622047245"/><line x1="61.65682046596619" y1="133.4131032836874" x2="64.37812395309882" y2="140.46244036573324" stroke="#1f77b4" stroke-width="1.4211023622047245"/><line x1="64.37812395309882" y1="140.46244036573324" x2="67.09942744023147" y2="99.7334662732145" stroke="#1f77b4" stroke-width="1.4211023622047245"/><line x1="67.09942744023147" y1="99.7334662732145" x2="69.8207309273641" y2="114.73682201931986" stroke="#1f77b4" stroke-width="1.4211023622047245"/><line x1="69.8207309273641" y1="114.73682201931986" x2="72.54203441449673" y2="252.70344210883422" stroke="#1f77b4" stroke-width="1.4211023622047245"/><line x1="72.54203441449673" y1="252.70344210883422" x2="75.26333790162937" y2="182.7166626711161" stroke="#1f77b4" stroke-width="1.4211023622047245"/><line x1="75.26333790162937" y1="182.7166626711161" x2="77.984641388762" y2="210.79440202274162" stroke="#1f77b4" stroke-width="1.4211023622047245"/><line x1="77.984641388762" y1="210.79440202274162" x2="80.70594487589463" y2="219.7018725143883" stroke="#1f77b4" stroke-width="1.4211023622047245"/><line x1="80.70594487589463" y1="219.7018725143883" x2="83.42724836302727" y2="342.3787878787879" stroke="#1f77b4" stroke-width="1.4211023622047245"/><line x1="83.42724836302727" y1="342.3787878787879" x2="86.1485518501599" y2="218.61054340044075" stroke="#1f77b4" stroke-width="1.4211023622047245"/><line x1="86.1485518501599" y1="218.61054340044075" x2="88.86985533729253" y2="244.91108203083758" stroke="#1f77b4" stroke-width="1.4211023622047245"/><line x1="88.86985533729253" y1="244.91108203083758" x2="91.59115882442515" y2="264.26947729267084" stroke="#1f77b4" stroke-width="1.4211023622047245"/><line x1="91.59115882442515" y1="264.26947729267084" x2="94.3124623115578" y2="285.5587879520188" stroke="#1f77b4" stroke-width="1.4211023622047245"/><line x1="94.3124623115578" y1="285.5587879520188" x2="97.03376579869042" y2="171.79415899398919" stroke="#1f77b4" stroke-width="1.4211023622047245"/><line x1="97.03376579869042" y1="171.79415899398919" x2="99.75506928582305" y2="159.00090844677982" stroke="#1f77b4" stroke-width="1.4211023622047245"/><line x1="99.75506928582305" y1="159.00090844677982" x2="102.4763727729557" y2="221.46258930576224" stroke="#1f77b4" stroke-width="1.4211023622047245"/><line x1="102.4763727729557" y1="221.46258930576224" x2="105.19767626008833" y2="135.56111915566146" stroke="#1f77b4" stroke-width="1.4211023622047245"/><line x1="105.19767626008833" y1="135.56111915566146" x2="107.91897974722096" y2="95.25916459419336" stroke="#1f77b4" stroke-width="1.4211023622047245"/><line x1="107.91897974722096" y1="95.25916459419336" x2="110.6402832343536" y2="74.08741307274673" stroke="#1f77b4" stroke-width="1.4211023622047245"/><line x1="110.6402832343536" y1="74.08741307274673" x2="113.36158672148623" y2="181.93724410040898" stroke="#1f77b4" stroke-width="1.4211023622047245"/><line x1="113.36158672148623" y1="181.93724410040898" x2="116.08289020861886" y2="56.075138400944866" stroke="#1f77b4" stroke-width="1.4211023622047245"/><line x1="116.08289020861886" y1="56.075138400944866" x2="118.80419369575151" y2="94.92782961150533" stroke="#1f77b4" stroke-width="1.4211023622047245"/><line x1="118.80419369575151" y1="94.92782961150533" x2="121.52549718288414" y2="119.11016467077104" stroke="#1f77b4" stroke-width="1.4211023622047245"/><line x1="121.52549718288414" y1="119.11016467077104" x2="124.24680067001677" y2="213.89967613117324" stroke="#1f77b4" stroke-width="1.4211023622047245"/><line x1="124.24680067001677" y1="213.89967613117324" x2="126.96810415714938" y2="119.35007050994041" stroke="#1f77b4" stroke-width="1.4211023622047245"/><line x1="126.96810415714938" y1="119.35007050994041" x2="129.68940764428203" y2="177.3856143532626" stroke="#1f77b4" stroke-width="1.4211023622047245"/><line x1="129.68940764428203" y1="177.3856143532626" x2="132.41071113141467" y2="260.61245270956414" stroke="#1f77b4" stroke-width="1.4211023622047245"/><line x1="132.41071113141467" y1="260.61245270956414" x2="135.1320146185473" y2="261.04918066991394" stroke="#1f77b4" stroke-width="1.4211023622047245"/><line x1="135.1320146185473" y1="261.04918066991394" x2="137.85331810567993" y2="222.05918301316962" stroke="#1f77b4" stroke-width="1.4211023622047245"/><line x1="137.85331810567993" y1="222.05918301316962" x2="140.57462159281255" y2="237.18039690112428" stroke="#1f77b4" stroke-width="1.4211023622047245"/><line x1="140.57462159281255" y1="237.18039690112428" x2="143.2959250799452" y2="340.79576917950953" stroke="#1f77b4" stroke-width="1.4211023622047245"/><line x1="143.2959250799452" y1="340.79576917950953" x2="146.01722856707784" y2="224.2117000533273" stroke="#1f77b4" stroke-width="1.4211023622047245"/><line x1="146.01722856707784" y1="224.2117000533273" x2="148.73853205421045" y2="225.26746364281166" stroke="#1f77b4" stroke-width="1.4211023622047245"/><line x1="148.73853205421045" y1="225.26746364281166" x2="151.4598355413431" y2="203.73751974071243" stroke="#1f77b4" stroke-width="1.4211023622047245"/><line x1="151.4598355413431" y1="203.73751974071243" x2="154.1811390284757" y2="274.3992739317496" stroke="#1f77b4" stroke-width="1.4211023622047245"/><line x1="154.1811390284757" y1="274.3992739317496" x2="156.90244251560836" y2="113.08544795038615" stroke="#1f77b4" stroke-width="1.4211023622047245"/><line x1="156.90244251560836" y1="113.08544795038615" x2="159.623746002741" y2="133.03319683206388" stroke="#1f77b4" stroke-width="1.4211023622047245"/><line x1="159.623746002741" y1="133.03319683206388" x2="162.34504948987362" y2="143.090982154279" stroke="#1f77b4" stroke-width="1.4211023622047245"/><line x1="162.34504948987362" y1="143.090982154279" x2="165.06635297700626" y2="149.26283298283215" stroke="#1f77b4" stroke-width="1.4211023622047245"/><line x1="165.06635297700626" y1="149.26283298283215" x2="167.78765646413888" y2="51.14604153302412" stroke="#1f77b4" stroke-width="1.4211023622047245"/><line x1="167.78765646413888" y1="51.14604153302412" x2="170.50895995127152" y2="78.65282129974483" stroke="#1f77b4" stroke-width="1.4211023622047245"/><line x1="170.50895995127152" y1="78.65282129974483" x2="173.23026343840414" y2="167.53040500400382" stroke="#1f77b4" stroke-width="1.4211023622047245"/><line x1="173.23026343840414" y1="167.53040500400382" x2="175.95156692553678" y2="105.9711242346154" stroke="#1f77b4" stroke-width="1.4211023622047245"/><line x1="175.95156692553678" y1="105.9711242346154" x2="178.6728704126694" y2="115.87395257622696" stroke="#1f77b4" stroke-width="1.4211023622047245"/><line x1="178.6728704126694" y1="115.87395257622696" x2="181.39417389980204" y2="144.53780502816747" stroke="#1f77b4" stroke-width="1.4211023622047245"/><line x1="181.39417389980204" y1="144.53780502816747" x2="184.11547738693469" y2="271.7971282397223" stroke="#1f77b4" stroke-width="1.4211023622047245"/><line x1="184.11547738693469" y1="271.7971282397223" x2="186.8367808740673" y2="161.47199497748693" stroke="#1f77b4" stroke-width="1.4211023622047245"/><line x1="186.8367808740673" y1="161.47199497748693" x2="189.55808436119995" y2="228.22071149609806" stroke="#1f77b4" stroke-width="1.4211023622047245"/><line x1="189.55808436119995" y1="228.22071149609806" x2="192.2793878483326" y2="257.12483440599914" stroke="#1f77b4" stroke-width="1.4211023622047245"/><line x1="192.2793878483326" y1="257.12483440599914" x2="195.0006913354652" y2="323.86063242131223" stroke="#1f77b4" stroke-width="1.4211023622047245"/><line x1="195.0006913354652" y1="323.86063242131223" x2="197.72199482259785" y2="206.11828128511462" stroke="#1f77b4" stroke-width="1.4211023622047245"/><line x1="197.72199482259785" y1="206.11828128511462" x2="200.44329830973044" y2="248.6087864098562" stroke="#1f77b4" stroke-width="1.4211023622047245"/><line x1="200.44329830973044" y1="248.6087864098562" x2="203.16460179686308" y2="289.7372334241096" stroke="#1f77b4" stroke-width="1.4211023622047245"/><line x1="203.16460179686308" y1="289.7372334241096" x2="205.88590528399573" y2="234.8330733316052" stroke="#1f77b4" stroke-width="1.4211023622047245"/><line x1="205.88590528399573" y1="234.8330733316052" x2="208.60720877112834" y2="165.078492972358" stroke="#1f77b4" stroke-width="1.4211023622047245"/><line x1="208.60720877112834" y1="165.078492972358" x2="211.328512258261" y2="160.02783604150957" stroke="#1f77b4" stroke-width="1.4211023622047245"/><line x1="211.328512258261" y1="160.02783604150957" x2="214.04981574539366" y2="227.05798836102645" stroke="#1f77b4" stroke-width="1.4211023622047245"/><line x1="214.04981574539366" y1="227.05798836102645" x2="216.7711192325263" y2="86.01460430067323" stroke="#1f77b4" stroke-width="1.4211023622047245"/><line x1="216.7711192325263" y1="86.01460430067323" x2="219.4924227196589" y2="98.96655523851305" stroke="#1f77b4" stroke-width="1.4211023622047245"/><line x1="219.4924227196589" y1="98.96655523851305" x2="222.21372620679153" y2="94.29773483931217" stroke="#1f77b4" stroke-width="1.4211023622047245"/><line x1="222.21372620679153" y1="94.29773483931217" x2="224.93502969392415" y2="170.8026120537089" stroke="#1f77b4" stroke-width="1.4211023622047245"/><line x1="224.93502969392415" y1="170.8026120537089" x2="227.6563331810568" y2="37.81287845516522" stroke="#1f77b4" stroke-width="1.4211023622047245"/><line x1="227.6563331810568" y1="37.81287845516522" x2="230.37763666818944" y2="111.55485100880597" stroke="#1f77b4" stroke-width="1.4211023622047245"/><line x1="230.37763666818944" y1="111.55485100880597" x2="233.09894015532205" y2="159.95717269103616" stroke="#1f77b4" stroke-width="1.4211023622047245"/><line x1="233.09894015532205" y1="159.95717269103616" x2="235.8202436424547" y2="189.33541872311935" stroke="#1f77b4" stroke-width="1.4211023622047245"/><line x1="235.8202436424547" y1="189.33541872311935" x2="238.54154712958734" y2="131.2715711691084" stroke="#1f77b4" stroke-width="1.4211023622047245"/><line x1="238.54154712958734" y1="131.2715711691084" x2="241.26285061671996" y2="199.75801129697334" stroke="#1f77b4" stroke-width="1.4211023622047245"/><line x1="241.26285061671996" y1="199.75801129697334" x2="243.9841541038526" y2="294.81266954058765" stroke="#1f77b4" stroke-width="1.4211023622047245"/><line x1="243.9841541038526" y1="294.81266954058765" x2="246.70545759098525" y2="225.10779817223107" stroke="#1f77b4" stroke-width="1.4211023622047245"/><line x1="246.70545759098525" y1="225.10779817223107" x2="249.42676107811786" y2="238.96685510912303" stroke="#1f77b4" stroke-width="1.4211023622047245"/><line x1="249.42676107811786" y1="238.96685510912303" x2="252.1480645652505" y2="256.31422008223313" stroke="#1f77b4" stroke-width="1.4211023622047245"/><line x1="252.1480645652505" y1="256.31422008223313" x2="254.8693680523831" y2="338.7959161712749" stroke="#1f77b4" stroke-width="1.4211023622047245"/><line x1="254.8693680523831" y1="338.7959161712749" x2="257.5906715395157" y2="186.90153036509835" stroke="#1f77b4" stroke-width="1.4211023622047245"/><line x1="257.5906715395157" y1="186.90153036509835" x2="260.3119750266484" y2="229.89513724467952" stroke="#1f77b4" stroke-width="1.4211023622047245"/><line x1="260.3119750266484" y1="229.89513724467952" x2="263.033278513781" y2="220.0754613570579" stroke="#1f77b4" stroke-width="1.4211023622047245"/><line x1="263.033278513781" y1="220.0754613570579" x2="265.7545820009137" y2="235.28796135583934" stroke="#1f77b4" stroke-width="1.4211023622047245"/><line x1="265.7545820009137" y1="235.28796135583934" x2="268.4758854880463" y2="93.30575052948825" stroke="#1f77b4" stroke-width="1.4211023622047245"/><line x1="268.4758854880463" y1="93.30575052948825" x2="271.1971889751789" y2="134.04274289678602" stroke="#1f77b4" stroke-width="1.4211023622047245"/><line x1="271.1971889751789" y1="134.04274289678602" x2="273.9184924623115" y2="162.16003387395898" stroke="#1f77b4" stroke-width="1.4211023622047245"/><line x1="273.9184924623115" y1="162.16003387395898" x2="276.6397959494442" y2="100.75139040335102" stroke="#1f77b4" stroke-width="1.4211023622047245"/><line x1="276.6397959494442" y1="100.75139040335102" x2="279.3610994365768" y2="60.52839239364133" stroke="#1f77b4" stroke-width="1.4211023622047245"/><line x1="279.3610994365768" y1="60.52839239364133" x2="282.0824029237094" y2="95.02351254028349" stroke="#1f77b4" stroke-width="1.4211023622047245"/><line x1="282.0824029237094" y1="95.02351254028349" x2="284.8037064108421" y2="184.16877784425952" stroke="#1f77b4" stroke-width="1.4211023622047245"/><line x1="284.8037064108421" y1="184.16877784425952" x2="287.5250098979747" y2="75.68976201312853" stroke="#1f77b4" stroke-width="1.4211023622047245"/><line x1="287.5250098979747" y1="75.68976201312853" x2="290.2463133851073" y2="143.92140485576766" stroke="#1f77b4" stroke-width="1.4211023622047245"/><line x1="290.2463133851073" y1="143.92140485576766" x2="292.96761687224" y2="178.46755529498625" stroke="#1f77b4" stroke-width="1.4211023622047245"/><line x1="292.96761687224" y1="178.46755529498625" x2="295.6889203593726" y2="267.37313385290145" stroke="#1f77b4" stroke-width="1.4211023622047245"/><line x1="295.6889203593726" y1="267.37313385290145" x2="298.41022384650523" y2="154.20086981736407" stroke="#1f77b4" stroke-width="1.4211023622047245"/><line x1="298.41022384650523" y1="154.20086981736407" x2="301.1315273336379" y2="251.26166433717074" stroke="#1f77b4" stroke-width="1.4211023622047245"/><line x1="301.1315273336379" y1="251.26166433717074" x2="303.8528308207705" y2="289.1019138029243" stroke="#1f77b4" stroke-width="1.4211023622047245"/><line x1="303.8528308207705" y1="289.1019138029243" x2="306.57413430790314" y2="286.5626324027526" stroke="#1f77b4" stroke-width="1.4211023622047245"/><line x1="306.57413430790314" y1="286.5626324027526" x2="309.29543779503575" y2="209.88832191053467" stroke="#1f77b4" stroke-width="1.4211023622047245"/><line x1="309.29543779503575" y1="209.88832191053467" x2="312.01674128216837" y2="255.8560965243915" stroke="#1f77b4" stroke-width="1.4211023622047245"/><line x1="312.01674128216837" y1="255.8560965243915" x2="314.73804476930104" y2="299.16064312894844" stroke="#1f77b4" stroke-width="1.4211023622047245"/><line x1="314.73804476930104" y1="299.16064312894844" x2="317.4593482564337" y2="180.24286519596026" stroke="#1f77b4" stroke-width="1.4211023622047245"/><line x1="317.4593482564337" y1="180.24286519596026" x2="320.18065174356633" y2="171.92693939259163" stroke="#1f77b4" stroke-width="1.4211023622047245"/><line x1="320.18065174356633" y1="171.92693939259163" x2="322.90195523069895" y2="164.9927364850979" stroke="#1f77b4" stroke-width="1.4211023622047245"/><line x1="322.90195523069895" y1="164.9927364850979" x2="325.62325871783156" y2="211.06983423243005" stroke="#1f77b4" stroke-width="1.4211023622047245"/><line x1="325.62325871783156" y1="211.06983423243005" x2="328.34456220496423" y2="48.99403744965995" stroke="#1f77b4" stroke-width="1.4211023622047245"/><line x1="328.34456220496423" y1="48.99403744965995" x2="331.06586569209685" y2="112.0678831292413" stroke="#1f77b4" stroke-width="1.4211023622047245"/><line x1="331.06586569209685" y1="112.0678831292413" x2="333.7871691792295" y2="115.10673532774072" stroke="#1f77b4" stroke-width="1.4211023622047245"/><line x1="333.7871691792295" y1="115.10673532774072" x2="336.5084726663621" y2="140.91581695410298" stroke="#1f77b4" stroke-width="1.4211023622047245"/><line x1="336.5084726663621" y1="140.91581695410298" x2="339.22977615349475" y2="39.965685332552496" stroke="#1f77b4" stroke-width="1.4211023622047245"/><line x1="339.22977615349475" y1="39.965685332552496" x2="341.95107964062737" y2="133.81852108816884" stroke="#1f77b4" stroke-width="1.4211023622047245"/><line x1="341.95107964062737" y1="133.81852108816884" x2="344.67238312776004" y2="191.51431023078135" stroke="#1f77b4" stroke-width="1.4211023622047245"/><line x1="344.67238312776004" y1="191.51431023078135" x2="347.39368661489266" y2="156.31816333220826" stroke="#1f77b4" stroke-width="1.4211023622047245"/><line x1="347.39368661489266" y1="156.31816333220826" x2="350.11499010202533" y2="160.33211851956975" stroke="#1f77b4" stroke-width="1.4211023622047245"/><line x1="350.11499010202533" y1="160.33211851956975" x2="352.836293589158" y2="224.49122440752538" stroke="#1f77b4" stroke-width="1.4211023622047245"/><line x1="352.836293589158" y1="224.49122440752538" x2="355.55759707629056" y2="308.57751398707614" stroke="#1f77b4" stroke-width="1.4211023622047245"/><line x1="355.55759707629056" y1="308.57751398707614" x2="358.27890056342324" y2="194.3242899446691" stroke="#1f77b4" stroke-width="1.4211023622047245"/><line x1="358.27890056342324" y1="194.3242899446691" x2="361.00020405055585" y2="264.72227973939493" stroke="#1f77b4" stroke-width="1.4211023622047245"/><line x1="361.00020405055585" y1="264.72227973939493" x2="363.7215075376885" y2="273.99478899149943" stroke="#1f77b4" stroke-width="1.4211023622047245"/><line x1="363.7215075376885" y1="273.99478899149943" x2="366.44281102482114" y2="313.27779011025746" stroke="#1f77b4" stroke-width="1.4211023622047245"/><line x1="366.44281102482114" y1="313.27779011025746" x2="369.1641145119537" y2="165.9608754491108" stroke="#1f77b4" stroke-width="1.4211023622047245"/><line x1="369.1641145119537" y1="165.9608754491108" x2="371.8854179990863" y2="237.97151907310848" stroke="#1f77b4" stroke-width="1.4211023622047245"/><line x1="371.8854179990863" y1="237.97151907310848" x2="374.60672148621893" y2="229.36495655358482" stroke="#1f77b4" stroke-width="1.4211023622047245"/><line x1="374.60672148621893" y1="229.36495655358482" x2="377.3280249733516" y2="181.952370580766" stroke="#1f77b4" stroke-width="1.4211023622047245"/><line x1="377.3280249733516" y1="181.952370580766" x2="380.04932846048416" y2="93.7869316409666" stroke="#1f77b4" stroke-width="1.4211023622047245"/><line x1="380.04932846048416" y1="93.7869316409666" x2="382.77063194761683" y2="137.78108523110933" stroke="#1f77b4" stroke-width="1.4211023622047245"/><line x1="382.77063194761683" y1="137.78108523110933" x2="385.4919354347495" y2="166.97553627156685" stroke="#1f77b4" stroke-width="1.4211023622047245"/><line x1="385.4919354347495" y1="166.97553627156685" x2="388.2132389218821" y2="54.511952517412126" stroke="#1f77b4" stroke-width="1.4211023622047245"/><line x1="388.2132389218821" y1="54.511952517412126" x2="390.9345424090148" y2="85.61526036127489" stroke="#1f77b4" stroke-width="1.4211023622047245"/><line x1="390.9345424090148" y1="85.61526036127489" x2="393.6558458961474" y2="113.27954832073681" stroke="#1f77b4" stroke-width="1.4211023622047245"/><line x1="393.6558458961474" y1="113.27954832073681" x2="396.3771493832801" y2="181.01053646272754" stroke="#1f77b4" stroke-width="1.4211023622047245"/><line x1="396.3771493832801" y1="181.01053646272754" x2="399.09845287041264" y2="61.2916420093444" stroke="#1f77b4" stroke-width="1.4211023622047245"/><line x1="399.09845287041264" y1="61.2916420093444" x2="401.8197563575453" y2="178.73267494717925" stroke="#1f77b4" stroke-width="1.4211023622047245"/><line x1="401.8197563575453" y1="178.73267494717925" x2="404.54105984467793" y2="208.55206003641868" stroke="#1f77b4" stroke-width="1.4211023622047245"/><line x1="404.54105984467793" y1="208.55206003641868" x2="407.2623633318106" y2="244.61111298060624" stroke="#1f77b4" stroke-width="1.4211023622047245"/><line x1="407.2623633318106" y1="244.61111298060624" x2="409.9836668189432" y2="167.04409389820307" stroke="#1f77b4" stroke-width="1.4211023622047245"/><line x1="409.9836668189432" y1="167.04409389820307" x2="412.7049703060758" y2="274.10957317060297" stroke="#1f77b4" stroke-width="1.4211023622047245"/><line x1="412.7049703060758" y1="274.10957317060297" x2="415.42627379320845" y2="307.8078217810789" stroke="#1f77b4" stroke-width="1.4211023622047245"/><line x1="415.42627379320845" y1="307.8078217810789" x2="418.14757728034107" y2="242.08555246177917" stroke="#1f77b4" stroke-width="1.4211023622047245"/><line x1="418.14757728034107" y1="242.08555246177917" x2="420.86888076747374" y2="229.67512743703708" stroke="#1f77b4" stroke-width="1.4211023622047245"/><line x1="420.86888076747374" y1="229.67512743703708" x2="423.59018425460636" y2="260.8842099147089" stroke="#1f77b4" stroke-width="1.4211023622047245"/><line x1="423.59018425460636" y1="260.8842099147089" x2="426.31148774173903" y2="288.46544734177974" stroke="#1f77b4" stroke-width="1.4211023622047245"/><line x1="426.31148774173903" y1="288.46544734177974" x2="429.0327912288716" y2="135.03513032763794" stroke="#1f77b4" stroke-width="1.4211023622047245"/><line x1="429.0327912288716" y1="135.03513032763794" x2="431.75409471600426" y2="187.763992651426" stroke="#1f77b4" stroke-width="1.4211023622047245"/><line x1="431.75409471600426" y1="187.763992651426" x2="434.47539820313693" y2="167.39006944394865" stroke="#1f77b4" stroke-width="1.4211023622047245"/><line x1="434.47539820313693" y1="167.39006944394865" x2="437.19670169026955" y2="176.21505138592627" stroke="#1f77b4" stroke-width="1.4211023622047245"/><line x1="437.19670169026955" y1="176.21505138592627" x2="439.9180051774022" y2="33.65210296807371" stroke="#1f77b4" stroke-width="1.4211023622047245"/><line x1="439.9180051774022" y1="33.65210296807371" x2="442.63930866453484" y2="128.38707058221547" stroke="#1f77b4" stroke-width="1.4211023622047245"/><line x1="442.63930866453484" y1="128.38707058221547" x2="445.3606121516674" y2="129.24955461187577" stroke="#1f77b4" stroke-width="1.4211023622047245"/><line x1="445.3606121516674" y1="129.24955461187577" x2="448.0819156388" y2="101.85467146151169" stroke="#1f77b4" stroke-width="1.4211023622047245"/><line x1="448.0819156388" y1="101.85467146151169" x2="450.8032191259327" y2="64.47042998868483" stroke="#1f77b4" stroke-width="1.4211023622047245"/><line x1="450.8032191259327" y1="64.47042998868483" x2="453.5245226130653" y2="155.4364560704311" stroke="#1f77b4" stroke-width="1.4211023622047245"/><line x1="453.5245226130653" y1="155.4364560704311" x2="456.245826100198" y2="208.11085728864674" stroke="#1f77b4" stroke-width="1.4211023622047245"/><line x1="456.245826100198" y1="208.11085728864674" x2="458.96712958733053" y2="127.81362930594048" stroke="#1f77b4" stroke-width="1.4211023622047245"/><line x1="458.96712958733053" y1="127.81362930594048" x2="461.6884330744632" y2="202.29260148088807" stroke="#1f77b4" stroke-width="1.4211023622047245"/><line x1="461.6884330744632" y1="202.29260148088807" x2="464.4097365615959" y2="245.23215632559314" stroke="#1f77b4" stroke-width="1.4211023622047245"/><line x1="464.4097365615959" y1="245.23215632559314" x2="467.1310400487285" y2="301.57753645471297" stroke="#1f77b4" stroke-width="1.4211023622047245"/><line x1="467.1310400487285" y1="301.57753645471297" x2="469.85234353586117" y2="179.76770271477596" stroke="#1f77b4" stroke-width="1.4211023622047245"/><line x1="469.85234353586117" y1="179.76770271477596" x2="472.5736470229938" y2="292.45149372061604" stroke="#1f77b4" stroke-width="1.4211023622047245"/><line x1="472.5736470229938" y1="292.45149372061604" x2="475.29495051012645" y2="283.6641719547712" stroke="#1f77b4" stroke-width="1.4211023622047245"/><line x1="475.29495051012645" y1="283.6641719547712" x2="478.016253997259" y2="271.345255364723" stroke="#1f77b4" stroke-width="1.4211023622047245"/><line x1="478.016253997259" y1="271.345255364723" x2="480.73755748439163" y2="166.35654191702213" stroke="#1f77b4" stroke-width="1.4211023622047245"/><line x1="480.73755748439163" y1="166.35654191702213" x2="483.45886097152425" y2="242.87280302199613" stroke="#1f77b4" stroke-width="1.4211023622047245"/><line x1="483.45886097152425" y1="242.87280302199613" x2="486.1801644586569" y2="226.00191357363443" stroke="#1f77b4" stroke-width="1.4211023622047245"/><line x1="486.1801644586569" y1="226.00191357363443" x2="488.9014679457896" y2="126.98845845844308" stroke="#1f77b4" stroke-width="1.4211023622047245"/><line x1="488.9014679457896" y1="126.98845845844308" x2="491.62277143292215" y2="112.43151219757033" stroke="#1f77b4" stroke-width="1.4211023622047245"/><line x1="491.62277143292215" y1="112.43151219757033" x2="494.3440749200548" y2="138.37790261385467" stroke="#1f77b4" stroke-width="1.4211023622047245"/><line x1="494.3440749200548" y1="138.37790261385467" x2="497.06537840718744" y2="155.5238256161505" stroke="#1f77b4" stroke-width="1.4211023622047245"/><line x1="497.06537840718744" y1="155.5238256161505" x2="499.7866818943201" y2="23.287878787878867" stroke="#1f77b4" stroke-width="1.4211023622047245"/><line x1="499.7866818943201" y1="23.287878787878867" x2="502.5079853814527" y2="119.5718646215217" stroke="#1f77b4" stroke-width="1.4211023622047245"/><line x1="502.5079853814527" y1="119.5718646215217" x2="505.2292888685854" y2="127.46424364213078" stroke="#1f77b4" stroke-width="1.4211023622047245"/><line x1="505.2292888685854" y1="127.46424364213078" x2="507.95059235571796" y2="162.17276872445797" stroke="#1f77b4" stroke-width="1.4211023622047245"/><line x1="507.95059235571796" y1="162.17276872445797" x2="510.67189584285063" y2="70.22078127736559" stroke="#1f77b4" stroke-width="1.4211023622047245"/><line x1="510.67189584285063" y1="70.22078127736559" x2="513.3931993299832" y2="212.33092105294796" stroke="#1f77b4" stroke-width="1.4211023622047245"/><line x1="513.3931993299832" y1="212.33092105294796" x2="516.1145028171159" y2="228.93688836217655" stroke="#1f77b4" stroke-width="1.4211023622047245"/><line x1="516.1145028171159" y1="228.93688836217655" x2="518.8358063042485" y2="213.87357497550443" stroke="#1f77b4" stroke-width="1.4211023622047245"/><line x1="518.8358063042485" y1="213.87357497550443" x2="521.5571097913811" y2="199.8856588017482" stroke="#1f77b4" stroke-width="1.4211023622047245"/><line x1="521.5571097913811" y1="199.8856588017482" x2="524.2784132785138" y2="290.00345970489184" stroke="#1f77b4" stroke-width="1.4211023622047245"/><line x1="524.2784132785138" y1="290.00345970489184" x2="526.9997167656463" y2="309.7950918969177" stroke="#1f77b4" stroke-width="1.4211023622047245"/><line x1="526.9997167656463" y1="309.7950918969177" x2="529.721020252779" y2="203.58941519827422" stroke="#1f77b4" stroke-width="1.4211023622047245"/><line x1="529.721020252779" y1="203.58941519827422" x2="532.4423237399117" y2="259.48397488894153" stroke="#1f77b4" stroke-width="1.4211023622047245"/><line x1="532.4423237399117" y1="259.48397488894153" x2="535.1636272270443" y2="258.29026771457944" stroke="#1f77b4" stroke-width="1.4211023622047245"/><line x1="535.1636272270443" y1="258.29026771457944" x2="537.884930714177" y2="259.62880299209314" stroke="#1f77b4" stroke-width="1.4211023622047245"/><line x1="537.884930714177" y1="259.62880299209314" x2="540.6062342013096" y2="109.57248461769923" stroke="#1f77b4" stroke-width="1.4211023622047245"/><line x1="540.6062342013096" y1="109.57248461769923" x2="543.3275376884422" y2="204.36833909513328" stroke="#1f77b4" stroke-width="1.4211023622047245"/><line x1="543.3275376884422" y1="204.36833909513328" x2="546.0488411755748" y2="162.38864069113475" stroke="#1f77b4" stroke-width="1.4211023622047245"/><line x1="546.0488411755748" y1="162.38864069113475" x2="548.7701446627075" y2="130.96799908865572" stroke="#1f77b4" stroke-width="1.4211023622047245"/><line x1="548.7701446627075" y1="130.96799908865572" x2="551.4914481498402" y2="43.13454006352769" stroke="#1f77b4" stroke-width="1.4211023622047245"/><line x1="551.4914481498402" y1="43.13454006352769" x2="554.2127516369727" y2="140.38232801939094" stroke="#1f77b4" stroke-width="1.4211023622047245"/><line x1="554.2127516369727" y1="140.38232801939094" x2="556.9340551241053" y2="132.9294791315423" stroke="#1f77b4" stroke-width="1.4211023622047245"/><line x1="556.9340551241053" y1="132.9294791315423" x2="559.655358611238" y2="66.17048269779605" stroke="#1f77b4" stroke-width="1.4211023622047245"/><line x1="559.655358611238" y1="66.17048269779605" x2="562.3766620983706" y2="106.7689728297627" stroke="#1f77b4" stroke-width="1.4211023622047245"/><line x1="562.3766620983706" y1="106.7689728297627" x2="565.0979655855033" y2="170.4238392534936" stroke="#1f77b4" stroke-width="1.4211023622047245"/><line x1="565.0979655855033" y1="170.4238392534936" x2="567.819269072636" y2="209.39233603357494" stroke="#1f77b4" stroke-width="1.4211023622047245"/><line x1="567.819269072636" y1="209.39233603357494" x2="570.5405725597685" y2="115.45726179202775" stroke="#1f77b4" stroke-width="1.4211023622047245"/><line x1="570.5405725597685" y1="115.45726179202775" x2="573.2618760469012" y2="248.25690638733363" stroke="#1f77b4" stroke-width="1.4211023622047245"/><line x1="573.2618760469012" y1="248.25690638733363" x2="575.9831795340338" y2="257.162791949352" stroke="#1f77b4" stroke-width="1.4211023622047245"/><line x1="575.9831795340338" y1="257.162791949352" x2="578.7044830211664" y2="279.40885781607693" stroke="#1f77b4" stroke-width="1.4211023622047245"/><line x1="578.7044830211664" y1="279.40885781607693" x2="581.4257865082991" y2="187.3434058215402" stroke="#1f77b4" stroke-width="1.4211023622047245"/><line x1="581.4257865082991" y1="187.3434058215402" x2="584.1470899954318" y2="313.3113848126218" stroke="#1f77b4" stroke-width="1.4211023622047245"/><line x1="584.1470899954318" y1="313.3113848126218" x2="586.8683934825643" y2="281.70092991959285" stroke="#1f77b4" stroke-width="1.4211023622047245"/><line x1="586.8683934825643" y1="281.70092991959285" x2="589.5896969696969" y2="224.29108358456224" stroke="#1f77b4" stroke-width="1.4211023622047245"/></svg>