<svg xmlns="http://www.w3.org/2000/svg" width="624" height="384" viewBox="0 0 624 384"><rect x="0.0" y="0.0" width="624.0" height="384.0" fill="#ffffff" fill-opacity="1.0" stroke="none"/><line x1="71.8886900275482" y1="32.266666666666666" x2="71.8886900275482" y2="358.3333333333333" stroke="#dddddd" stroke-width="0.6666666666666666"/><line x1="197.24685201101923" y1="32.266666666666666" x2="197.24685201101923" y2="358.3333333333333" stroke="#dddddd" stroke-width="0.6666666666666666"/><line x1="322.60501399449026" y1="32.266666666666666" x2="322.60501399449026" y2="358.3333333333333" stroke="#dddddd" stroke-width="0.6666666666666666"/><line x1="447.9631759779614" y1="32.266666666666666" x2="447.9631759779614" y2="358.3333333333333" stroke="#dddddd" stroke-width="0.6666666666666666"/><line x1="134.5677710192837" y1="32.266666666666666" x2="134.5677710192837" y2="358.3333333333333" stroke="#dddddd" stroke-width="1.3333333333333333"/><line x1="259.92593300275473" y1="32.266666666666666" x2="259.92593300275473" y2="358.3333333333333" stroke="#dddddd" stroke-width="1.3333333333333333"/><line x1="385.2840949862258" y1="32.266666666666666" x2="385.2840949862258" y2="358.3333333333333" stroke="#dddddd" stroke-width="1.3333333333333333"/><line x1="510.64225696969686" y1="32.266666666666666" x2="510.64225696969686" y2="358.3333333333333" stroke="#dddddd" stroke-width="1.3333333333333333"/><line x1="28.01333333333333" y1="307.51436792800047" x2="533.6245866666666" y2="307.51436792800047" stroke="#dddddd" stroke-width="0.6666666666666666"/><line x1="28.01333333333333" y1="235.51886135975906" x2="533.6245866666666" y2="235.51886135975906" stroke="#dddddd" stroke-width="0.6666666666666666"/><line x1="28.01333333333333" y1="163.52335479151765" x2="533.6245866666666" y2="163.52335479151765" stroke="#dddddd" stroke-width="0.6666666666666666"/><line x1="28.01333333333333" y1="91.52784822327624" x2="533.6245866666666" y2="91.52784822327624" stroke="#dddddd" stroke-width="0.6666666666666666"/><line x1="28.01333333333333" y1="343.5121212121212" x2="533.6245866666666" y2="343.5121212121212" stroke="#dddddd" stroke-width="1.3333333333333333"/><line x1="28.01333333333333" y1="271.51661464387973" x2="533.6245866666666" y2="271.51661464387973" stroke="#dddddd" stroke-width="1.3333333333333333"/><line x1="28.01333333333333" y1="199.52110807563832" x2="533.6245866666666" y2="199.52110807563832" stroke="#dddddd" stroke-width="1.3333333333333333"/><line x1="28.01333333333333" y1="127.52560150739691" x2="533.6245866666666" y2="127.52560150739691" stroke="#dddddd" stroke-width="1.3333333333333333"/><line x1="28.01333333333333" y1="55.53009493915552" x2="533.6245866666666" y2="55.53009493915552" stroke="#dddddd" stroke-width="1.3333333333333333"/><rect x="28.01333333333333" y="32.266666666666666" width="505.6112533333333" height="326.06666666666666" fill="#ffffff" fill-opacity="0.0" stroke="#444444" stroke-width="1.3333333333333333"/><line x1="134.5677710192837" y1="358.3333333333333" x2="134.5677710192837" y2="362.0" stroke="#444444" stroke-width="1.3333333333333333"/><text x="134.5677710192837" y="374.32" fill="#333333" font-size="11.733333333333334" font-family="sans-serif" text-anchor="middle">3</text><line x1="259.92593300275473" y1="358.3333333333333" x2="259.92593300275473" y2="362.0" stroke="#444444" stroke-width="1.3333333333333333"/><text x="259.92593300275473" y="374.32" fill="#333333" font-size="11.733333333333334" font-family="sans-serif" text-anchor="middle">6</text><line x1="385.2840949862258" y1="358.3333333333333" x2="385.2840949862258" y2="362.0" stroke="#444444" stroke-width="1.3333333333333333"/><text x="385.2840949862258" y="374.32" fill="#333333" font-size="11.733333333333334" font-family="sans-serif" text-anchor="middle">9</text><line x1="510.64225696969686" y1="358.3333333333333" x2="510.64225696969686" y2="362.0" stroke="#444444" stroke-width="1.3333333333333333"/><text x="510.64225696969686" y="374.32" fill="#333333" font-size="11.733333333333334" font-family="sans-serif" text-anchor="middle">12</text><line x1="28.01333333333333" y1="343.5121212121212" x2="24.346666666666664" y2="343.5121212121212" stroke="#444444" stroke-width="1.3333333333333333"/><text x="21.41333333333333" y="347.6187878787878" fill="#333333" font-size="11.733333333333334" font-family="sans-serif" text-anchor="end">0</text><line x1="28.01333333333333" y1="271.51661464387973" x2="24.346666666666664" y2="271.51661464387973" stroke="#444444" stroke-width="1.3333333333333333"/><text x="21.41333333333333" y="275.6232813105464" fill="#333333" font-size="11.733333333333334" font-family="sans-serif" text-anchor="end">4</text><line x1="28.01333333333333" y1="199.52110807563832" x2="24.346666666666664" y2="199.52110807563832" stroke="#444444" stroke-width="1.3333333333333333"/><text x="21.41333333333333" y="203.627774742305" fill="#333333" font-size="11.733333333333334" font-family="sans-serif" text-anchor="end">8</text><line x1="28.01333333333333" y1="127.52560150739691" x2="24.346666666666664" y2="127.52560150739691" stroke="#444444" stroke-width="1.3333333333333333"/><text x="21.41333333333333" y="131.63226817406357" fill="#333333" font-size="11.733333333333334" font-family="sans-serif" text-anchor="end">12</text><line x1="28.01333333333333" y1="55.53009493915552" x2="24.346666666666664" y2="55.53009493915552" stroke="#444444" stroke-width="1.3333333333333333"/><text x="21.41333333333333" y="59.63676160582219" fill="#333333" font-size="11.733333333333334" font-family="sans-serif" text-anchor="end">16</text><text x="28.01333333333333" y="21.413333333333334" fill="#333333" font-size="17.599999999999998" font-family="sans-serif" text-anchor="start">モデル比較 (statColor + statLabel ─ 3 色 + 凡例 3 件)</text><circle cx="50.99566303030302" cy="305.7144802637945" r="3.1181102362204727" fill="#1f77b4" fill-opacity="0.85" stroke="none"><title>(1, 2.1)</title></circle><circle cx="92.78171702479338" cy="307.51436792800047" r="3.1181102362204727" fill="#1f77b4" fill-opacity="0.85" stroke="none"><title>(2, 2)</title></circle><circle cx="134.5677710192837" cy="282.31594062911597" r="3.1181102362204727" fill="#1f77b4" fill-opacity="0.85" stroke="none"><title>(3, 3.4)</title></circle><circle cx="176.3538250137741" cy="257.1175133302315" r="3.1181102362204727" fill="#1f77b4" fill-opacity="0.85" stroke="none"><title>(4, 4.8)</title></circle><circle cx="218.13987900826442" cy="253.5177380018194" r="3.1181102362204727" fill="#1f77b4" fill-opacity="0.85" stroke="none"><title>(5, 5)</title></circle><circle cx="259.92593300275473" cy="213.92020938928664" r="3.1181102362204727" fill="#1f77b4" fill-opacity="0.85" stroke="none"><title>(6, 7.2)</title></circle><circle cx="301.71198699724516" cy="217.5199847176987" r="3.1181102362204727" fill="#1f77b4" fill-opacity="0.85" stroke="none"><title>(7, 7)</title></circle><circle cx="343.4980409917355" cy="172.5227931125478" r="3.1181102362204727" fill="#1f77b4" fill-opacity="0.85" stroke="none"><title>(8, 9.5)</title></circle><circle cx="385.2840949862258" cy="145.52447814945725" r="3.1181102362204727" fill="#1f77b4" fill-opacity="0.85" stroke="none"><title>(9, 11)</title></circle><circle cx="427.07014898071617" cy="149.1242534778693" r="3.1181102362204727" fill="#1f77b4" fill-opacity="0.85" stroke="none"><title>(10, 10.8)</title></circle><circle cx="468.8562029752066" cy="93.32773588748223" r="3.1181102362204727" fill="#1f77b4" fill-opacity="0.85" stroke="none"><title>(11, 13.9)</title></circle><circle cx="510.64225696969686" cy="69.92919625280379" r="3.1181102362204727" fill="#1f77b4" fill-opacity="0.85" stroke="none"><title>(12, 15.2)</title></circle><line x1="50.99566303030302" y1="325.88245229605184" x2="55.63855791857973" y2="323.4539325377816" stroke="#1f77b4" stroke-width="1.4211023622047245"/><line x1="55.63855791857973" y1="323.4539325377816" x2="60.28145280685644" y2="321.0254127795114" stroke="#1f77b4" stroke-width="1.4211023622047245"/><line x1="60.28145280685644" y1="321.0254127795114" x2="64.92434769513314" y2="318.59689302124116" stroke="#1f77b4" stroke-width="1.4211023622047245"/><line x1="64.92434769513314" y1="318.59689302124116" x2="69.56724258340985" y2="316.16837326297093" stroke="#1f77b4" stroke-width="1.4211023622047245"/><line x1="69.56724258340985" y1="316.16837326297093" x2="74.21013747168655" y2="313.7398535047007" stroke="#1f77b4" stroke-width="1.4211023622047245"/><line x1="74.21013747168655" y1="313.7398535047007" x2="78.85303235996325" y2="311.3113337464305" stroke="#1f77b4" stroke-width="1.4211023622047245"/><line x1="78.85303235996325" y1="311.3113337464305" x2="83.49592724823995" y2="308.8828139881603" stroke="#1f77b4" stroke-width="1.4211023622047245"/><line x1="83.49592724823995" y1="308.8828139881603" x2="88.13882213651667" y2="306.45429422989" stroke="#1f77b4" stroke-width="1.4211023622047245"/><line x1="88.13882213651667" y1="306.45429422989" x2="92.78171702479338" y2="304.0257744716198" stroke="#1f77b4" stroke-width="1.4211023622047245"/><line x1="92.78171702479338" y1="304.0257744716198" x2="97.42461191307008" y2="301.59725471334957" stroke="#1f77b4" stroke-width="1.4211023622047245"/><line x1="97.42461191307008" y1="301.59725471334957" x2="102.0675068013468" y2="299.16873495507934" stroke="#1f77b4" stroke-width="1.4211023622047245"/><line x1="102.0675068013468" y1="299.16873495507934" x2="106.7104016896235" y2="296.7402151968092" stroke="#1f77b4" stroke-width="1.4211023622047245"/><line x1="106.7104016896235" y1="296.7402151968092" x2="111.35329657790021" y2="294.31169543853895" stroke="#1f77b4" stroke-width="1.4211023622047245"/><line x1="111.35329657790021" y1="294.31169543853895" x2="115.99619146617688" y2="291.88317568026866" stroke="#1f77b4" stroke-width="1.4211023622047245"/><line x1="115.99619146617688" y1="291.88317568026866" x2="120.6390863544536" y2="289.45465592199844" stroke="#1f77b4" stroke-width="1.4211023622047245"/><line x1="120.6390863544536" y1="289.45465592199844" x2="125.28198124273031" y2="287.02613616372827" stroke="#1f77b4" stroke-width="1.4211023622047245"/><line x1="125.28198124273031" y1="287.02613616372827" x2="129.924876131007" y2="284.59761640545804" stroke="#1f77b4" stroke-width="1.4211023622047245"/><line x1="129.924876131007" y1="284.59761640545804" x2="134.5677710192837" y2="282.16909664718776" stroke="#1f77b4" stroke-width="1.4211023622047245"/><line x1="134.5677710192837" y1="282.16909664718776" x2="139.21066590756044" y2="279.7405768889176" stroke="#1f77b4" stroke-width="1.4211023622047245"/><line x1="139.21066590756044" y1="279.7405768889176" x2="143.85356079583713" y2="277.3120571306473" stroke="#1f77b4" stroke-width="1.4211023622047245"/><line x1="143.85356079583713" y1="277.3120571306473" x2="148.49645568411384" y2="274.8835373723771" stroke="#1f77b4" stroke-width="1.4211023622047245"/><line x1="148.49645568411384" y1="274.8835373723771" x2="153.13935057239055" y2="272.45501761410685" stroke="#1f77b4" stroke-width="1.4211023622047245"/><line x1="153.13935057239055" y1="272.45501761410685" x2="157.78224546066724" y2="270.0264978558367" stroke="#1f77b4" stroke-width="1.4211023622047245"/><line x1="157.78224546066724" y1="270.0264978558367" x2="162.42514034894396" y2="267.5979780975664" stroke="#1f77b4" stroke-width="1.4211023622047245"/><line x1="162.42514034894396" y1="267.5979780975664" x2="167.06803523722067" y2="265.1694583392962" stroke="#1f77b4" stroke-width="1.4211023622047245"/><line x1="167.06803523722067" y1="265.1694583392962" x2="171.71093012549738" y2="262.74093858102594" stroke="#1f77b4" stroke-width="1.4211023622047245"/><line x1="171.71093012549738" y1="262.74093858102594" x2="176.3538250137741" y2="260.3124188227558" stroke="#1f77b4" stroke-width="1.4211023622047245"/><line x1="176.3538250137741" y1="260.3124188227558" x2="180.99671990205076" y2="257.8838990644855" stroke="#1f77b4" stroke-width="1.4211023622047245"/><line x1="180.99671990205076" y1="257.8838990644855" x2="185.63961479032747" y2="255.45537930621532" stroke="#1f77b4" stroke-width="1.4211023622047245"/><line x1="185.63961479032747" y1="255.45537930621532" x2="190.28250967860424" y2="253.02685954794507" stroke="#1f77b4" stroke-width="1.4211023622047245"/><line x1="190.28250967860424" y1="253.02685954794507" x2="194.9254045668809" y2="250.59833978967487" stroke="#1f77b4" stroke-width="1.4211023622047245"/><line x1="194.9254045668809" y1="250.59833978967487" x2="199.5682994551576" y2="248.1698200314046" stroke="#1f77b4" stroke-width="1.4211023622047245"/><line x1="199.5682994551576" y1="248.1698200314046" x2="204.21119434343427" y2="245.7413002731344" stroke="#1f77b4" stroke-width="1.4211023622047245"/><line x1="204.21119434343427" y1="245.7413002731344" x2="208.854089231711" y2="243.31278051486416" stroke="#1f77b4" stroke-width="1.4211023622047245"/><line x1="208.854089231711" y1="243.31278051486416" x2="213.4969841199877" y2="240.88426075659393" stroke="#1f77b4" stroke-width="1.4211023622047245"/><line x1="213.4969841199877" y1="240.88426075659393" x2="218.13987900826442" y2="238.4557409983237" stroke="#1f77b4" stroke-width="1.4211023622047245"/><line x1="218.13987900826442" y1="238.4557409983237" x2="222.78277389654113" y2="236.0272212400535" stroke="#1f77b4" stroke-width="1.4211023622047245"/><line x1="222.78277389654113" y1="236.0272212400535" x2="227.42566878481784" y2="233.59870148178325" stroke="#1f77b4" stroke-width="1.4211023622047245"/><line x1="227.42566878481784" y1="233.59870148178325" x2="232.0685636730945" y2="231.17018172351305" stroke="#1f77b4" stroke-width="1.4211023622047245"/><line x1="232.0685636730945" y1="231.17018172351305" x2="236.71145856137122" y2="228.7416619652428" stroke="#1f77b4" stroke-width="1.4211023622047245"/><line x1="236.71145856137122" y1="228.7416619652428" x2="241.3543534496479" y2="226.3131422069726" stroke="#1f77b4" stroke-width="1.4211023622047245"/><line x1="241.3543534496479" y1="226.3131422069726" x2="245.99724833792465" y2="223.88462244870234" stroke="#1f77b4" stroke-width="1.4211023622047245"/><line x1="245.99724833792465" y1="223.88462244870234" x2="250.64014322620133" y2="221.45610269043215" stroke="#1f77b4" stroke-width="1.4211023622047245"/><line x1="250.64014322620133" y1="221.45610269043215" x2="255.28303811447807" y2="219.0275829321619" stroke="#1f77b4" stroke-width="1.4211023622047245"/><line x1="255.28303811447807" y1="219.0275829321619" x2="259.92593300275473" y2="216.5990631738917" stroke="#1f77b4" stroke-width="1.4211023622047245"/><line x1="259.92593300275473" y1="216.5990631738917" x2="264.56882789103145" y2="214.17054341562152" stroke="#1f77b4" stroke-width="1.4211023622047245"/><line x1="264.56882789103145" y1="214.17054341562152" x2="269.21172277930816" y2="211.74202365735124" stroke="#1f77b4" stroke-width="1.4211023622047245"/><line x1="269.21172277930816" y1="211.74202365735124" x2="273.8546176675849" y2="209.31350389908098" stroke="#1f77b4" stroke-width="1.4211023622047245"/><line x1="273.8546176675849" y1="209.31350389908098" x2="278.4975125558616" y2="206.8849841408108" stroke="#1f77b4" stroke-width="1.4211023622047245"/><line x1="278.4975125558616" y1="206.8849841408108" x2="283.1404074441383" y2="204.45646438254056" stroke="#1f77b4" stroke-width="1.4211023622047245"/><line x1="283.1404074441383" y1="204.45646438254056" x2="287.783302332415" y2="202.02794462427033" stroke="#1f77b4" stroke-width="1.4211023622047245"/><line x1="287.783302332415" y1="202.02794462427033" x2="292.42619722069173" y2="199.59942486600016" stroke="#1f77b4" stroke-width="1.4211023622047245"/><line x1="292.42619722069173" y1="199.59942486600016" x2="297.06909210896845" y2="197.17090510772988" stroke="#1f77b4" stroke-width="1.4211023622047245"/><line x1="297.06909210896845" y1="197.17090510772988" x2="301.71198699724516" y2="194.74238534945962" stroke="#1f77b4" stroke-width="1.4211023622047245"/><line x1="301.71198699724516" y1="194.74238534945962" x2="306.35488188552176" y2="192.31386559118943" stroke="#1f77b4" stroke-width="1.4211023622047245"/><line x1="306.35488188552176" y1="192.31386559118943" x2="310.9977767737985" y2="189.8853458329192" stroke="#1f77b4" stroke-width="1.4211023622047245"/><line x1="310.9977767737985" y1="189.8853458329192" x2="315.6406716620752" y2="187.45682607464897" stroke="#1f77b4" stroke-width="1.4211023622047245"/><line x1="315.6406716620752" y1="187.45682607464897" x2="320.2835665503519" y2="185.02830631637872" stroke="#1f77b4" stroke-width="1.4211023622047245"/><line x1="320.2835665503519" y1="185.02830631637872" x2="324.9264614386286" y2="182.59978655810852" stroke="#1f77b4" stroke-width="1.4211023622047245"/><line x1="324.9264614386286" y1="182.59978655810852" x2="329.56935632690534" y2="180.1712667998383" stroke="#1f77b4" stroke-width="1.4211023622047245"/><line x1="329.56935632690534" y1="180.1712667998383" x2="334.21225121518205" y2="177.74274704156804" stroke="#1f77b4" stroke-width="1.4211023622047245"/><line x1="334.21225121518205" y1="177.74274704156804" x2="338.85514610345876" y2="175.31422728329784" stroke="#1f77b4" stroke-width="1.4211023622047245"/><line x1="338.85514610345876" y1="175.31422728329784" x2="343.4980409917355" y2="172.8857075250276" stroke="#1f77b4" stroke-width="1.4211023622047245"/><line x1="343.4980409917355" y1="172.8857075250276" x2="348.1409358800122" y2="170.4571877667574" stroke="#1f77b4" stroke-width="1.4211023622047245"/><line x1="348.1409358800122" y1="170.4571877667574" x2="352.7838307682889" y2="168.02866800848716" stroke="#1f77b4" stroke-width="1.4211023622047245"/><line x1="352.7838307682889" y1="168.02866800848716" x2="357.4267256565656" y2="165.600148250217" stroke="#1f77b4" stroke-width="1.4211023622047245"/><line x1="357.4267256565656" y1="165.600148250217" x2="362.06962054484234" y2="163.17162849194668" stroke="#1f77b4" stroke-width="1.4211023622047245"/><line x1="362.06962054484234" y1="163.17162849194668" x2="366.71251543311905" y2="160.74310873367648" stroke="#1f77b4" stroke-width="1.4211023622047245"/><line x1="366.71251543311905" y1="160.74310873367648" x2="371.35541032139577" y2="158.31458897540622" stroke="#1f77b4" stroke-width="1.4211023622047245"/><line x1="371.35541032139577" y1="158.31458897540622" x2="375.9983052096725" y2="155.886069217136" stroke="#1f77b4" stroke-width="1.4211023622047245"/><line x1="375.9983052096725" y1="155.886069217136" x2="380.6412000979491" y2="153.45754945886577" stroke="#1f77b4" stroke-width="1.4211023622047245"/><line x1="380.6412000979491" y1="153.45754945886577" x2="385.2840949862258" y2="151.02902970059563" stroke="#1f77b4" stroke-width="1.4211023622047245"/><line x1="385.2840949862258" y1="151.02902970059563" x2="389.9269898745025" y2="148.60050994232535" stroke="#1f77b4" stroke-width="1.4211023622047245"/><line x1="389.9269898745025" y1="148.60050994232535" x2="394.5698847627792" y2="146.17199018405518" stroke="#1f77b4" stroke-width="1.4211023622047245"/><line x1="394.5698847627792" y1="146.17199018405518" x2="399.21277965105605" y2="143.7434704257849" stroke="#1f77b4" stroke-width="1.4211023622047245"/><line x1="399.21277965105605" y1="143.7434704257849" x2="403.85567453933265" y2="141.31495066751467" stroke="#1f77b4" stroke-width="1.4211023622047245"/><line x1="403.85567453933265" y1="141.31495066751467" x2="408.49856942760937" y2="138.88643090924444" stroke="#1f77b4" stroke-width="1.4211023622047245"/><line x1="408.49856942760937" y1="138.88643090924444" x2="413.141464315886" y2="136.45791115097427" stroke="#1f77b4" stroke-width="1.4211023622047245"/><line x1="413.141464315886" y1="136.45791115097427" x2="417.7843592041628" y2="134.02939139270396" stroke="#1f77b4" stroke-width="1.4211023622047245"/><line x1="417.7843592041628" y1="134.02939139270396" x2="422.4272540924395" y2="131.60087163443376" stroke="#1f77b4" stroke-width="1.4211023622047245"/><line x1="422.4272540924395" y1="131.60087163443376" x2="427.07014898071617" y2="129.17235187616353" stroke="#1f77b4" stroke-width="1.4211023622047245"/><line x1="427.07014898071617" y1="129.17235187616353" x2="431.7130438689929" y2="126.74383211789332" stroke="#1f77b4" stroke-width="1.4211023622047245"/><line x1="431.7130438689929" y1="126.74383211789332" x2="436.35593875726954" y2="124.31531235962314" stroke="#1f77b4" stroke-width="1.4211023622047245"/><line x1="436.35593875726954" y1="124.31531235962314" x2="440.9988336455463" y2="121.88679260135291" stroke="#1f77b4" stroke-width="1.4211023622047245"/><line x1="440.9988336455463" y1="121.88679260135291" x2="445.641728533823" y2="119.45827284308264" stroke="#1f77b4" stroke-width="1.4211023622047245"/><line x1="445.641728533823" y1="119.45827284308264" x2="450.2846234220997" y2="117.02975308481241" stroke="#1f77b4" stroke-width="1.4211023622047245"/><line x1="450.2846234220997" y1="117.02975308481241" x2="454.92751831037646" y2="114.60123332654223" stroke="#1f77b4" stroke-width="1.4211023622047245"/><line x1="454.92751831037646" y1="114.60123332654223" x2="459.57041319865317" y2="112.17271356827192" stroke="#1f77b4" stroke-width="1.4211023622047245"/><line x1="459.57041319865317" y1="112.17271356827192" x2="464.2133080869299" y2="109.74419381000173" stroke="#1f77b4" stroke-width="1.4211023622047245"/><line x1="464.2133080869299" y1="109.74419381000173" x2="468.8562029752066" y2="107.3156740517315" stroke="#1f77b4" stroke-width="1.4211023622047245"/><line x1="468.8562029752066" y1="107.3156740517315" x2="473.49909786348326" y2="104.88715429346128" stroke="#1f77b4" stroke-width="1.4211023622047245"/><line x1="473.49909786348326" y1="104.88715429346128" x2="478.14199275176" y2="102.45863453519105" stroke="#1f77b4" stroke-width="1.4211023622047245"/><line x1="478.14199275176" y1="102.45863453519105" x2="482.78488764003674" y2="100.03011477692083" stroke="#1f77b4" stroke-width="1.4211023622047245"/><line x1="482.78488764003674" y1="100.03011477692083" x2="487.4277825283134" y2="97.60159501865056" stroke="#1f77b4" stroke-width="1.4211023622047245"/><line x1="487.4277825283134" y1="97.60159501865056" x2="492.0706774165901" y2="95.17307526038041" stroke="#1f77b4" stroke-width="1.4211023622047245"/><line x1="492.0706774165901" y1="95.17307526038041" x2="496.7135723048667" y2="92.74455550211019" stroke="#1f77b4" stroke-width="1.4211023622047245"/><line x1="496.7135723048667" y1="92.74455550211019" x2="501.35646719314354" y2="90.31603574383992" stroke="#1f77b4" stroke-width="1.4211023622047245"/><line x1="501.35646719314354" y1="90.31603574383992" x2="505.99936208142026" y2="87.88751598556969" stroke="#1f77b4" stroke-width="1.4211023622047245"/><line x1="505.99936208142026" y1="87.88751598556969" x2="510.64225696969686" y2="85.45899622729951" stroke="#1f77b4" stroke-width="1.4211023622047245"/><line x1="50.99566303030302" y1="297.4398263240615" x2="55.63855791857973" y2="296.5652938740623" stroke="#ff7f0e" stroke-width="1.4211023622047245"/><line x1="55.63855791857973" y1="296.5652938740623" x2="60.28145280685644" y2="295.67416127406057" stroke="#ff7f0e" stroke-width="1.4211023622047245"/><line x1="60.28145280685644" y1="295.67416127406057" x2="64.92434769513314" y2="294.7661134242792" stroke="#ff7f0e" stroke-width="1.4211023622047245"/><line x1="64.92434769513314" y1="294.7661134242792" x2="69.56724258340985" y2="293.84082924379805" stroke="#ff7f0e" stroke-width="1.4211023622047245"/><line x1="69.56724258340985" y1="293.84082924379805" x2="74.21013747168655" y2="292.8979815570217" stroke="#ff7f0e" stroke-width="1.4211023622047245"/><line x1="74.21013747168655" y1="292.8979815570217" x2="78.85303235996325" y2="291.9372369779917" stroke="#ff7f0e" stroke-width="1.4211023622047245"/><line x1="78.85303235996325" y1="291.9372369779917" x2="83.49592724823995" y2="290.95825579250294" stroke="#ff7f0e" stroke-width="1.4211023622047245"/><line x1="83.49592724823995" y1="290.95825579250294" x2="88.13882213651667" y2="289.96069183798284" stroke="#ff7f0e" stroke-width="1.4211023622047245"/><line x1="88.13882213651667" y1="289.96069183798284" x2="92.78171702479338" y2="288.94419238108986" stroke="#ff7f0e" stroke-width="1.4211023622047245"/><line x1="92.78171702479338" y1="288.94419238108986" x2="97.42461191307008" y2="287.90839799298885" stroke="#ff7f0e" stroke-width="1.4211023622047245"/><line x1="97.42461191307008" y1="287.90839799298885" x2="102.0675068013468" y2="286.8529424222591" stroke="#ff7f0e" stroke-width="1.4211023622047245"/><line x1="102.0675068013468" y1="286.8529424222591" x2="106.7104016896235" y2="285.7774524653895" stroke="#ff7f0e" stroke-width="1.4211023622047245"/><line x1="106.7104016896235" y1="285.7774524653895" x2="111.35329657790021" y2="284.681547834816" stroke="#ff7f0e" stroke-width="1.4211023622047245"/><line x1="111.35329657790021" y1="284.681547834816" x2="115.99619146617688" y2="283.56484102445376" stroke="#ff7f0e" stroke-width="1.4211023622047245"/><line x1="115.99619146617688" y1="283.56484102445376" x2="120.6390863544536" y2="282.4269371726771" stroke="#ff7f0e" stroke-width="1.4211023622047245"/><line x1="120.6390863544536" y1="282.4269371726771" x2="125.28198124273031" y2="281.26743392269873" stroke="#ff7f0e" stroke-width="1.4211023622047245"/><line x1="125.28198124273031" y1="281.26743392269873" x2="129.924876131007" y2="280.08592128029807" stroke="#ff7f0e" stroke-width="1.4211023622047245"/><line x1="129.924876131007" y1="280.08592128029807" x2="134.5677710192837" y2="278.8819814688498" stroke="#ff7f0e" stroke-width="1.4211023622047245"/><line x1="134.5677710192837" y1="278.8819814688498" x2="139.21066590756044" y2="277.65518878160026" stroke="#ff7f0e" stroke-width="1.4211023622047245"/><line x1="139.21066590756044" y1="277.65518878160026" x2="143.85356079583713" y2="276.40510943113964" stroke="#ff7f0e" stroke-width="1.4211023622047245"/><line x1="143.85356079583713" y1="276.40510943113964" x2="148.49645568411384" y2="275.131301396017" stroke="#ff7f0e" stroke-width="1.4211023622047245"/><line x1="148.49645568411384" y1="275.131301396017" x2="153.13935057239055" y2="273.8333142644441" stroke="#ff7f0e" stroke-width="1.4211023622047245"/><line x1="153.13935057239055" y1="273.8333142644441" x2="157.78224546066724" y2="272.5106890750319" stroke="#ff7f0e" stroke-width="1.4211023622047245"/><line x1="157.78224546066724" y1="272.5106890750319" x2="162.42514034894396" y2="271.1629581545043" stroke="#ff7f0e" stroke-width="1.4211023622047245"/><line x1="162.42514034894396" y1="271.1629581545043" x2="167.06803523722067" y2="269.7896449523315" stroke="#ff7f0e" stroke-width="1.4211023622047245"/><line x1="167.06803523722067" y1="269.7896449523315" x2="171.71093012549738" y2="268.39026387222395" stroke="#ff7f0e" stroke-width="1.4211023622047245"/><line x1="171.71093012549738" y1="268.39026387222395" x2="176.3538250137741" y2="266.9643201004285" stroke="#ff7f0e" stroke-width="1.4211023622047245"/><line x1="176.3538250137741" y1="266.9643201004285" x2="180.99671990205076" y2="265.5113094307644" stroke="#ff7f0e" stroke-width="1.4211023622047245"/><line x1="180.99671990205076" y1="265.5113094307644" x2="185.63961479032747" y2="264.03071808633894" stroke="#ff7f0e" stroke-width="1.4211023622047245"/><line x1="185.63961479032747" y1="264.03071808633894" x2="190.28250967860424" y2="262.5220225378786" stroke="#ff7f0e" stroke-width="1.4211023622047245"/><line x1="190.28250967860424" y1="262.5220225378786" x2="194.9254045668809" y2="260.9846893186119" stroke="#ff7f0e" stroke-width="1.4211023622047245"/><line x1="194.9254045668809" y1="260.9846893186119" x2="199.5682994551576" y2="259.4181748356384" stroke="#ff7f0e" stroke-width="1.4211023622047245"/><line x1="199.5682994551576" y1="259.4181748356384" x2="204.21119434343427" y2="257.82192517771676" stroke="#ff7f0e" stroke-width="1.4211023622047245"/><line x1="204.21119434343427" y1="257.82192517771676" x2="208.854089231711" y2="256.19537591940525" stroke="#ff7f0e" stroke-width="1.4211023622047245"/><line x1="208.854089231711" y1="256.19537591940525" x2="213.4969841199877" y2="254.53795192148348" stroke="#ff7f0e" stroke-width="1.4211023622047245"/><line x1="213.4969841199877" y1="254.53795192148348" x2="218.13987900826442" y2="252.84906712758635" stroke="#ff7f0e" stroke-width="1.4211023622047245"/><line x1="218.13987900826442" y1="252.84906712758635" x2="222.78277389654113" y2="251.12812435697765" stroke="#ff7f0e" stroke-width="1.4211023622047245"/><line x1="222.78277389654113" y1="251.12812435697765" x2="227.42566878481784" y2="249.37451509338985" stroke="#ff7f0e" stroke-width="1.4211023622047245"/><line x1="227.42566878481784" y1="249.37451509338985" x2="232.0685636730945" y2="247.58761926985636" stroke="#ff7f0e" stroke-width="1.4211023622047245"/><line x1="232.0685636730945" y1="247.58761926985636" x2="236.71145856137122" y2="245.7668050494589" stroke="#ff7f0e" stroke-width="1.4211023622047245"/><line x1="236.71145856137122" y1="245.7668050494589" x2="241.3543534496479" y2="243.91142860191331" stroke="#ff7f0e" stroke-width="1.4211023622047245"/><line x1="241.3543534496479" y1="243.91142860191331" x2="245.99724833792465" y2="242.0208338759145" stroke="#ff7f0e" stroke-width="1.4211023622047245"/><line x1="245.99724833792465" y1="242.0208338759145" x2="250.64014322620133" y2="240.0943523671605" stroke="#ff7f0e" stroke-width="1.4211023622047245"/><line x1="250.64014322620133" y1="240.0943523671605" x2="255.28303811447807" y2="238.13130288197243" stroke="#ff7f0e" stroke-width="1.4211023622047245"/><line x1="255.28303811447807" y1="238.13130288197243" x2="259.92593300275473" y2="236.13099129642842" stroke="#ff7f0e" stroke-width="1.4211023622047245"/><line x1="259.92593300275473" y1="236.13099129642842" x2="264.56882789103145" y2="234.0927103109246" stroke="#ff7f0e" stroke-width="1.4211023622047245"/><line x1="264.56882789103145" y1="234.0927103109246" x2="269.21172277930816" y2="232.01573920007814" stroke="#ff7f0e" stroke-width="1.4211023622047245"/><line x1="269.21172277930816" y1="232.01573920007814" x2="273.8546176675849" y2="229.89934355788256" stroke="#ff7f0e" stroke-width="1.4211023622047245"/><line x1="273.8546176675849" y1="229.89934355788256" x2="278.4975125558616" y2="227.74277503802506" stroke="#ff7f0e" stroke-width="1.4211023622047245"/><line x1="278.4975125558616" y1="227.74277503802506" x2="283.1404074441383" y2="225.545271089276" stroke="#ff7f0e" stroke-width="1.4211023622047245"/><line x1="283.1404074441383" y1="225.545271089276" x2="287.783302332415" y2="223.30605468585435" stroke="#ff7f0e" stroke-width="1.4211023622047245"/><line x1="287.783302332415" y1="223.30605468585435" x2="292.42619722069173" y2="221.02433405267553" stroke="#ff7f0e" stroke-width="1.4211023622047245"/><line x1="292.42619722069173" y1="221.02433405267553" x2="297.06909210896845" y2="218.69930238538396" stroke="#ff7f0e" stroke-width="1.4211023622047245"/><line x1="297.06909210896845" y1="218.69930238538396" x2="301.71198699724516" y2="216.3301375650714" stroke="#ff7f0e" stroke-width="1.4211023622047245"/><line x1="301.71198699724516" y1="216.3301375650714" x2="306.35488188552176" y2="213.91600186758" stroke="#ff7f0e" stroke-width="1.4211023622047245"/><line x1="306.35488188552176" y1="213.91600186758" x2="310.9977767737985" y2="211.4560416672873" stroke="#ff7f0e" stroke-width="1.4211023622047245"/><line x1="310.9977767737985" y1="211.4560416672873" x2="315.6406716620752" y2="208.9493871352691" stroke="#ff7f0e" stroke-width="1.4211023622047245"/><line x1="315.6406716620752" y1="208.9493871352691" x2="320.2835665503519" y2="206.39515193173193" stroke="#ff7f0e" stroke-width="1.4211023622047245"/><line x1="320.2835665503519" y1="206.39515193173193" x2="324.9264614386286" y2="203.79243289260882" stroke="#ff7f0e" stroke-width="1.4211023622047245"/><line x1="324.9264614386286" y1="203.79243289260882" x2="329.56935632690534" y2="201.14030971020452" stroke="#ff7f0e" stroke-width="1.4211023622047245"/><line x1="329.56935632690534" y1="201.14030971020452" x2="334.21225121518205" y2="198.4378446077798" stroke="#ff7f0e" stroke-width="1.4211023622047245"/><line x1="334.21225121518205" y1="198.4378446077798" x2="338.85514610345876" y2="195.6840820079588" stroke="#ff7f0e" stroke-width="1.4211023622047245"/><line x1="338.85514610345876" y1="195.6840820079588" x2="343.4980409917355" y2="192.87804819484177" stroke="#ff7f0e" stroke-width="1.4211023622047245"/><line x1="343.4980409917355" y1="192.87804819484177" x2="348.1409358800122" y2="190.0187509697039" stroke="#ff7f0e" stroke-width="1.4211023622047245"/><line x1="348.1409358800122" y1="190.0187509697039" x2="352.7838307682889" y2="187.1051793001596" stroke="#ff7f0e" stroke-width="1.4211023622047245"/><line x1="352.7838307682889" y1="187.1051793001596" x2="357.4267256565656" y2="184.13630296266672" stroke="#ff7f0e" stroke-width="1.4211023622047245"/><line x1="357.4267256565656" y1="184.13630296266672" x2="362.06962054484234" y2="181.11107217824465" stroke="#ff7f0e" stroke-width="1.4211023622047245"/><line x1="362.06962054484234" y1="181.11107217824465" x2="366.71251543311905" y2="178.02841724127842" stroke="#ff7f0e" stroke-width="1.4211023622047245"/><line x1="366.71251543311905" y1="178.02841724127842" x2="371.35541032139577" y2="174.88724814127607" stroke="#ff7f0e" stroke-width="1.4211023622047245"/><line x1="371.35541032139577" y1="174.88724814127607" x2="375.9983052096725" y2="171.686454177447" stroke="#ff7f0e" stroke-width="1.4211023622047245"/><line x1="375.9983052096725" y1="171.686454177447" x2="380.6412000979491" y2="168.42490356596377" stroke="#ff7f0e" stroke-width="1.4211023622047245"/><line x1="380.6412000979491" y1="168.42490356596377" x2="385.2840949862258" y2="165.1014430397696" stroke="#ff7f0e" stroke-width="1.4211023622047245"/><line x1="385.2840949862258" y1="165.1014430397696" x2="389.9269898745025" y2="161.71489744078917" stroke="#ff7f0e" stroke-width="1.4211023622047245"/><line x1="389.9269898745025" y1="161.71489744078917" x2="394.5698847627792" y2="158.26406930439853" stroke="#ff7f0e" stroke-width="1.4211023622047245"/><line x1="394.5698847627792" y1="158.26406930439853" x2="399.21277965105605" y2="154.74773843600866" stroke="#ff7f0e" stroke-width="1.4211023622047245"/><line x1="399.21277965105605" y1="154.74773843600866" x2="403.85567453933265" y2="151.1646614796105" stroke="#ff7f0e" stroke-width="1.4211023622047245"/><line x1="403.85567453933265" y1="151.1646614796105" x2="408.49856942760937" y2="147.5135714781312" stroke="#ff7f0e" stroke-width="1.4211023622047245"/><line x1="408.49856942760937" y1="147.5135714781312" x2="413.141464315886" y2="143.79317742544464" stroke="#ff7f0e" stroke-width="1.4211023622047245"/><line x1="413.141464315886" y1="143.79317742544464" x2="417.7843592041628" y2="140.00216380987823" stroke="#ff7f0e" stroke-width="1.4211023622047245"/><line x1="417.7843592041628" y1="140.00216380987823" x2="422.4272540924395" y2="136.1391901490557" stroke="#ff7f0e" stroke-width="1.4211023622047245"/><line x1="422.4272540924395" y1="136.1391901490557" x2="427.07014898071617" y2="132.2028905159089" stroke="#ff7f0e" stroke-width="1.4211023622047245"/><line x1="427.07014898071617" y1="132.2028905159089" x2="431.7130438689929" y2="128.19187305569326" stroke="#ff7f0e" stroke-width="1.4211023622047245"/><line x1="431.7130438689929" y1="128.19187305569326" x2="436.35593875726954" y2="124.10471949383573" stroke="#ff7f0e" stroke-width="1.4211023622047245"/><line x1="436.35593875726954" y1="124.10471949383573" x2="440.9988336455463" y2="119.93998463444007" stroke="#ff7f0e" stroke-width="1.4211023622047245"/><line x1="440.9988336455463" y1="119.93998463444007" x2="445.641728533823" y2="115.69619584927332" stroke="#ff7f0e" stroke-width="1.4211023622047245"/><line x1="445.641728533823" y1="115.69619584927332" x2="450.2846234220997" y2="111.37185255705234" stroke="#ff7f0e" stroke-width="1.4211023622047245"/><line x1="450.2846234220997" y1="111.37185255705234" x2="454.92751831037646" y2="106.96542569284561" stroke="#ff7f0e" stroke-width="1.4211023622047245"/><line x1="454.92751831037646" y1="106.96542569284561" x2="459.57041319865317" y2="102.47535716740495" stroke="#ff7f0e" stroke-width="1.4211023622047245"/><line x1="459.57041319865317" y1="102.47535716740495" x2="464.2133080869299" y2="97.90005931623284" stroke="#ff7f0e" stroke-width="1.4211023622047245"/><line x1="464.2133080869299" y1="97.90005931623284" x2="468.8562029752066" y2="93.2379143381922" stroke="#ff7f0e" stroke-width="1.4211023622047245"/><line x1="468.8562029752066" y1="93.2379143381922" x2="473.49909786348326" y2="88.48727372346134" stroke="#ff7f0e" stroke-width="1.4211023622047245"/><line x1="473.49909786348326" y1="88.48727372346134" x2="478.14199275176" y2="83.64645767062927" stroke="#ff7f0e" stroke-width="1.4211023622047245"/><line x1="478.14199275176" y1="83.64645767062927" x2="482.78488764003674" y2="78.71375449272614" stroke="#ff7f0e" stroke-width="1.4211023622047245"/><line x1="482.78488764003674" y1="78.71375449272614" x2="487.4277825283134" y2="73.68742001198109" stroke="#ff7f0e" stroke-width="1.4211023622047245"/><line x1="487.4277825283134" y1="73.68742001198109" x2="492.0706774165901" y2="68.56567694308917" stroke="#ff7f0e" stroke-width="1.4211023622047245"/><line x1="492.0706774165901" y1="68.56567694308917" x2="496.7135723048667" y2="63.34671426477272" stroke="#ff7f0e" stroke-width="1.4211023622047245"/><line x1="496.7135723048667" y1="63.34671426477272" x2="501.35646719314354" y2="58.0286865794144" stroke="#ff7f0e" stroke-width="1.4211023622047245"/><line x1="501.35646719314354" y1="58.0286865794144" x2="505.99936208142026" y2="52.609713460533726" stroke="#ff7f0e" stroke-width="1.4211023622047245"/><line x1="505.99936208142026" y1="52.609713460533726" x2="510.64225696969686" y2="47.08787878787874" stroke="#ff7f0e" stroke-width="1.4211023622047245"/><line x1="50.99566303030302" y1="343.5121212121212" x2="55.63855791857973" y2="343.5121212121212" stroke="#2ca02c" stroke-width="1.4211023622047245"/><line x1="55.63855791857973" y1="343.5121212121212" x2="60.28145280685644" y2="343.5121212121212" stroke="#2ca02c" stroke-width="1.4211023622047245"/><line x1="60.28145280685644" y1="343.5121212121212" x2="64.92434769513314" y2="343.5121212121212" stroke="#2ca02c" stroke-width="1.4211023622047245"/><line x1="64.92434769513314" y1="343.5121212121212" x2="69.56724258340985" y2="343.5121212121212" stroke="#2ca02c" stroke-width="1.4211023622047245"/><line x1="69.56724258340985" y1="343.5121212121212" x2="74.21013747168655" y2="343.5121212121212" stroke="#2ca02c" stroke-width="1.4211023622047245"/><line x1="74.21013747168655" y1="343.5121212121212" x2="78.85303235996325" y2="343.5121212121212" stroke="#2ca02c" stroke-width="1.4211023622047245"/><line x1="78.85303235996325" y1="343.5121212121212" x2="83.49592724823995" y2="343.5121212121212" stroke="#2ca02c" stroke-width="1.4211023622047245"/><line x1="83.49592724823995" y1="343.5121212121212" x2="88.13882213651667" y2="343.5121212121212" stroke="#2ca02c" stroke-width="1.4211023622047245"/><line x1="88.13882213651667" y1="343.5121212121212" x2="92.78171702479338" y2="343.5121212121212" stroke="#2ca02c" stroke-width="1.4211023622047245"/><line x1="92.78171702479338" y1="343.5121212121212" x2="97.42461191307008" y2="343.5121212121212" stroke="#2ca02c" stroke-width="1.4211023622047245"/><line x1="97.42461191307008" y1="343.5121212121212" x2="102.0675068013468" y2="343.5121212121212" stroke="#2ca02c" stroke-width="1.4211023622047245"/><line x1="102.0675068013468" y1="343.5121212121212" x2="106.7104016896235" y2="343.5121212121212" stroke="#2ca02c" stroke-width="1.4211023622047245"/><line x1="106.7104016896235" y1="343.5121212121212" x2="111.35329657790021" y2="343.5121212121212" stroke="#2ca02c" stroke-width="1.4211023622047245"/><line x1="111.35329657790021" y1="343.5121212121212" x2="115.99619146617688" y2="343.5121212121212" stroke="#2ca02c" stroke-width="1.4211023622047245"/><line x1="115.99619146617688" y1="343.5121212121212" x2="120.6390863544536" y2="343.5121212121212" stroke="#2ca02c" stroke-width="1.4211023622047245"/><line x1="120.6390863544536" y1="343.5121212121212" x2="125.28198124273031" y2="343.5121212121212" stroke="#2ca02c" stroke-width="1.4211023622047245"/><line x1="125.28198124273031" y1="343.5121212121212" x2="129.924876131007" y2="343.5121212121212" stroke="#2ca02c" stroke-width="1.4211023622047245"/><line x1="129.924876131007" y1="343.5121212121212" x2="134.5677710192837" y2="343.5121212121212" stroke="#2ca02c" stroke-width="1.4211023622047245"/><line x1="134.5677710192837" y1="343.5121212121212" x2="139.21066590756044" y2="343.5121212121212" stroke="#2ca02c" stroke-width="1.4211023622047245"/><line x1="139.21066590756044" y1="343.5121212121212" x2="143.85356079583713" y2="343.5121212121212" stroke="#2ca02c" stroke-width="1.4211023622047245"/><line x1="143.85356079583713" y1="343.5121212121212" x2="148.49645568411384" y2="343.5121212121212" stroke="#2ca02c" stroke-width="1.4211023622047245"/><line x1="148.49645568411384" y1="343.5121212121212" x2="153.13935057239055" y2="343.5121212121212" stroke="#2ca02c" stroke-width="1.4211023622047245"/><line x1="153.13935057239055" y1="343.5121212121212" x2="157.78224546066724" y2="343.5121212121212" stroke="#2ca02c" stroke-width="1.4211023622047245"/><line x1="157.78224546066724" y1="343.5121212121212" x2="162.42514034894396" y2="343.5121212121212" stroke="#2ca02c" stroke-width="1.4211023622047245"/><line x1="162.42514034894396" y1="343.5121212121212" x2="167.06803523722067" y2="343.5121212121212" stroke="#2ca02c" stroke-width="1.4211023622047245"/><line x1="167.06803523722067" y1="343.5121212121212" x2="171.71093012549738" y2="343.5121212121212" stroke="#2ca02c" stroke-width="1.4211023622047245"/><line x1="171.71093012549738" y1="343.5121212121212" x2="176.3538250137741" y2="260.73546934211987" stroke="#2ca02c" stroke-width="1.4211023622047245"/><line x1="176.3538250137741" y1="260.73546934211987" x2="180.99671990205076" y2="258.9492709285794" stroke="#2ca02c" stroke-width="1.4211023622047245"/><line x1="180.99671990205076" y1="258.9492709285794" x2="185.63961479032747" y2="257.1400999406593" stroke="#2ca02c" stroke-width="1.4211023622047245"/><line x1="185.63961479032747" y1="257.1400999406593" x2="190.28250967860424" y2="255.30789403033683" stroke="#2ca02c" stroke-width="1.4211023622047245"/><line x1="190.28250967860424" y1="255.30789403033683" x2="194.9254045668809" y2="253.45259084958911" stroke="#2ca02c" stroke-width="1.4211023622047245"/><line x1="194.9254045668809" y1="253.45259084958911" x2="199.5682994551576" y2="251.57412805039317" stroke="#2ca02c" stroke-width="1.4211023622047245"/><line x1="199.5682994551576" y1="251.57412805039317" x2="204.21119434343427" y2="249.67244328472617" stroke="#2ca02c" stroke-width="1.4211023622047245"/><line x1="204.21119434343427" y1="249.67244328472617" x2="208.854089231711" y2="247.74747420456515" stroke="#2ca02c" stroke-width="1.4211023622047245"/><line x1="208.854089231711" y1="247.74747420456515" x2="213.4969841199877" y2="245.7991584618872" stroke="#2ca02c" stroke-width="1.4211023622047245"/><line x1="213.4969841199877" y1="245.7991584618872" x2="218.13987900826442" y2="243.82743370866956" stroke="#2ca02c" stroke-width="1.4211023622047245"/><line x1="218.13987900826442" y1="243.82743370866956" x2="222.78277389654113" y2="241.8322375968892" stroke="#2ca02c" stroke-width="1.4211023622047245"/><line x1="222.78277389654113" y1="241.8322375968892" x2="227.42566878481784" y2="239.81350777852322" stroke="#2ca02c" stroke-width="1.4211023622047245"/><line x1="227.42566878481784" y1="239.81350777852322" x2="232.0685636730945" y2="237.77118190554884" stroke="#2ca02c" stroke-width="1.4211023622047245"/><line x1="232.0685636730945" y1="237.77118190554884" x2="236.71145856137122" y2="235.70519762994303" stroke="#2ca02c" stroke-width="1.4211023622047245"/><line x1="236.71145856137122" y1="235.70519762994303" x2="241.3543534496479" y2="233.61549260368298" stroke="#2ca02c" stroke-width="1.4211023622047245"/><line x1="241.3543534496479" y1="233.61549260368298" x2="245.99724833792465" y2="231.50200447874573" stroke="#2ca02c" stroke-width="1.4211023622047245"/><line x1="245.99724833792465" y1="231.50200447874573" x2="250.64014322620133" y2="229.36467090710846" stroke="#2ca02c" stroke-width="1.4211023622047245"/><line x1="250.64014322620133" y1="229.36467090710846" x2="255.28303811447807" y2="227.2034295407482" stroke="#2ca02c" stroke-width="1.4211023622047245"/><line x1="255.28303811447807" y1="227.2034295407482" x2="259.92593300275473" y2="225.01821803164208" stroke="#2ca02c" stroke-width="1.4211023622047245"/><line x1="259.92593300275473" y1="225.01821803164208" x2="264.56882789103145" y2="222.80897403176724" stroke="#2ca02c" stroke-width="1.4211023622047245"/><line x1="264.56882789103145" y1="222.80897403176724" x2="269.21172277930816" y2="220.5756351931007" stroke="#2ca02c" stroke-width="1.4211023622047245"/><line x1="269.21172277930816" y1="220.5756351931007" x2="273.8546176675849" y2="218.31813916761965" stroke="#2ca02c" stroke-width="1.4211023622047245"/><line x1="273.8546176675849" y1="218.31813916761965" x2="278.4975125558616" y2="216.03642360730115" stroke="#2ca02c" stroke-width="1.4211023622047245"/><line x1="278.4975125558616" y1="216.03642360730115" x2="283.1404074441383" y2="213.7304261641223" stroke="#2ca02c" stroke-width="1.4211023622047245"/><line x1="283.1404074441383" y1="213.7304261641223" x2="287.783302332415" y2="211.4000844900602" stroke="#2ca02c" stroke-width="1.4211023622047245"/><line x1="287.783302332415" y1="211.4000844900602" x2="292.42619722069173" y2="209.045336237092" stroke="#2ca02c" stroke-width="1.4211023622047245"/><line x1="292.42619722069173" y1="209.045336237092" x2="297.06909210896845" y2="206.6661190571947" stroke="#2ca02c" stroke-width="1.4211023622047245"/><line x1="297.06909210896845" y1="206.6661190571947" x2="301.71198699724516" y2="204.26237060234553" stroke="#2ca02c" stroke-width="1.4211023622047245"/><line x1="301.71198699724516" y1="204.26237060234553" x2="306.35488188552176" y2="201.8340285245215" stroke="#2ca02c" stroke-width="1.4211023622047245"/><line x1="306.35488188552176" y1="201.8340285245215" x2="310.9977767737985" y2="199.38103047569973" stroke="#2ca02c" stroke-width="1.4211023622047245"/><line x1="310.9977767737985" y1="199.38103047569973" x2="315.6406716620752" y2="196.9033141078574" stroke="#2ca02c" stroke-width="1.4211023622047245"/><line x1="315.6406716620752" y1="196.9033141078574" x2="320.2835665503519" y2="194.40081707297145" stroke="#2ca02c" stroke-width="1.4211023622047245"/><line x1="320.2835665503519" y1="194.40081707297145" x2="324.9264614386286" y2="191.87347702301918" stroke="#2ca02c" stroke-width="1.4211023622047245"/><line x1="324.9264614386286" y1="191.87347702301918" x2="329.56935632690534" y2="189.32123160997753" stroke="#2ca02c" stroke-width="1.4211023622047245"/><line x1="329.56935632690534" y1="189.32123160997753" x2="334.21225121518205" y2="186.7440184858237" stroke="#2ca02c" stroke-width="1.4211023622047245"/><line x1="334.21225121518205" y1="186.7440184858237" x2="338.85514610345876" y2="184.1417753025347" stroke="#2ca02c" stroke-width="1.4211023622047245"/><line x1="338.85514610345876" y1="184.1417753025347" x2="343.4980409917355" y2="181.5144397120878" stroke="#2ca02c" stroke-width="1.4211023622047245"/><line x1="343.4980409917355" y1="181.5144397120878" x2="348.1409358800122" y2="178.86194936646" stroke="#2ca02c" stroke-width="1.4211023622047245"/><line x1="348.1409358800122" y1="178.86194936646" x2="352.7838307682889" y2="176.1842419176283" stroke="#2ca02c" stroke-width="1.4211023622047245"/><line x1="352.7838307682889" y1="176.1842419176283" x2="357.4267256565656" y2="173.48125501756994" stroke="#2ca02c" stroke-width="1.4211023622047245"/><line x1="357.4267256565656" y1="173.48125501756994" x2="362.06962054484234" y2="170.75292631826198" stroke="#2ca02c" stroke-width="1.4211023622047245"/><line x1="362.06962054484234" y1="170.75292631826198" x2="366.71251543311905" y2="167.9991934716815" stroke="#2ca02c" stroke-width="1.4211023622047245"/><line x1="366.71251543311905" y1="167.9991934716815" x2="371.35541032139577" y2="165.21999412980568" stroke="#2ca02c" stroke-width="1.4211023622047245"/><line x1="371.35541032139577" y1="165.21999412980568" x2="375.9983052096725" y2="162.41526594461158" stroke="#2ca02c" stroke-width="1.4211023622047245"/><line x1="375.9983052096725" y1="162.41526594461158" x2="380.6412000979491" y2="159.58494656807636" stroke="#2ca02c" stroke-width="1.4211023622047245"/><line x1="380.6412000979491" y1="159.58494656807636" x2="385.2840949862258" y2="156.72897365217696" stroke="#2ca02c" stroke-width="1.4211023622047245"/><line x1="385.2840949862258" y1="156.72897365217696" x2="389.9269898745025" y2="153.84728484889064" stroke="#2ca02c" stroke-width="1.4211023622047245"/><line x1="389.9269898745025" y1="153.84728484889064" x2="394.5698847627792" y2="150.93981781019437" stroke="#2ca02c" stroke-width="1.4211023622047245"/><line x1="394.5698847627792" y1="150.93981781019437" x2="399.21277965105605" y2="148.0065101880654" stroke="#2ca02c" stroke-width="1.4211023622047245"/><line x1="399.21277965105605" y1="148.0065101880654" x2="403.85567453933265" y2="145.04729963448068" stroke="#2ca02c" stroke-width="1.4211023622047245"/><line x1="403.85567453933265" y1="145.04729963448068" x2="408.49856942760937" y2="142.0621238014175" stroke="#2ca02c" stroke-width="1.4211023622047245"/><line x1="408.49856942760937" y1="142.0621238014175" x2="413.141464315886" y2="139.05092034085277" stroke="#2ca02c" stroke-width="1.4211023622047245"/><line x1="413.141464315886" y1="139.05092034085277" x2="417.7843592041628" y2="136.01362690476378" stroke="#2ca02c" stroke-width="1.4211023622047245"/><line x1="417.7843592041628" y1="136.01362690476378" x2="422.4272540924395" y2="132.9501811451275" stroke="#2ca02c" stroke-width="1.4211023622047245"/><line x1="422.4272540924395" y1="132.9501811451275" x2="427.07014898071617" y2="129.860520713921" stroke="#2ca02c" stroke-width="1.4211023622047245"/><line x1="427.07014898071617" y1="129.860520713921" x2="431.7130438689929" y2="126.74458326312151" stroke="#2ca02c" stroke-width="1.4211023622047245"/><line x1="431.7130438689929" y1="126.74458326312151" x2="436.35593875726954" y2="123.6023064447061" stroke="#2ca02c" stroke-width="1.4211023622047245"/><line x1="436.35593875726954" y1="123.6023064447061" x2="440.9988336455463" y2="120.43362791065161" stroke="#2ca02c" stroke-width="1.4211023622047245"/><line x1="440.9988336455463" y1="120.43362791065161" x2="445.641728533823" y2="117.23848531293568" stroke="#2ca02c" stroke-width="1.4211023622047245"/><line x1="445.641728533823" y1="117.23848531293568" x2="450.2846234220997" y2="114.01681630353508" stroke="#2ca02c" stroke-width="1.4211023622047245"/><line x1="450.2846234220997" y1="114.01681630353508" x2="454.92751831037646" y2="110.76855853442683" stroke="#2ca02c" stroke-width="1.4211023622047245"/><line x1="454.92751831037646" y1="110.76855853442683" x2="459.57041319865317" y2="107.49364965758816" stroke="#2ca02c" stroke-width="1.4211023622047245"/><line x1="459.57041319865317" y1="107.49364965758816" x2="464.2133080869299" y2="104.192027324996" stroke="#2ca02c" stroke-width="1.4211023622047245"/><line x1="464.2133080869299" y1="104.192027324996" x2="468.8562029752066" y2="100.86362918862797" stroke="#2ca02c" stroke-width="1.4211023622047245"/><line x1="468.8562029752066" y1="100.86362918862797" x2="473.49909786348326" y2="97.5083929004606" stroke="#2ca02c" stroke-width="1.4211023622047245"/><line x1="473.49909786348326" y1="97.5083929004606" x2="478.14199275176" y2="94.12625611247134" stroke="#2ca02c" stroke-width="1.4211023622047245"/><line x1="478.14199275176" y1="94.12625611247134" x2="482.78488764003674" y2="90.71715647663703" stroke="#2ca02c" stroke-width="1.4211023622047245"/><line x1="482.78488764003674" y1="90.71715647663703" x2="487.4277825283134" y2="87.28103164493507" stroke="#2ca02c" stroke-width="1.4211023622047245"/><line x1="487.4277825283134" y1="87.28103164493507" x2="492.0706774165901" y2="83.81781926934202" stroke="#2ca02c" stroke-width="1.4211023622047245"/><line x1="492.0706774165901" y1="83.81781926934202" x2="496.7135723048667" y2="80.32745700183548" stroke="#2ca02c" stroke-width="1.4211023622047245"/><line x1="496.7135723048667" y1="80.32745700183548" x2="501.35646719314354" y2="76.80988249439277" stroke="#2ca02c" stroke-width="1.4211023622047245"/><line x1="501.35646719314354" y1="76.80988249439277" x2="505.99936208142026" y2="73.26503339899037" stroke="#2ca02c" stroke-width="1.4211023622047245"/><line x1="505.99936208142026" y1="73.26503339899037" x2="510.64225696969686" y2="69.69284736760581" stroke="#2ca02c" stroke-width="1.4211023622047245"/><rect x="548.2912533333333" y="160.62888" width="23.114079999999994" height="69.34223999999998" fill="#ffffff" fill-opacity="1.0" stroke="none"/><rect x="549.2361352230971" y="161.57376188976377" width="21.224316220472435" height="21.224316220472435" fill="#ff7f0e" fill-opacity="0.0" stroke="#ff7f0e" stroke-width="1.3333333333333333"/><text x="575.0719999999999" y="175.94058666666666" fill="#333333" font-size="11.733333333333334" font-family="sans-serif" text-anchor="start">GLM</text><rect x="549.2361352230971" y="184.68784188976375" width="21.224316220472435" height="21.224316220472435" fill="#1f77b4" fill-opacity="0.0" stroke="#1f77b4" stroke-width="1.3333333333333333"/><text x="575.0719999999999" y="199.05466666666666" fill="#333333" font-size="11.733333333333334" font-family="sans-serif" text-anchor="start">LM</text><rect x="549.2361352230971" y="207.8019218897638" width="21.224316220472435" height="21.224316220472435" fill="#2ca02c" fill-opacity="0.0" stroke="#2ca02c" stroke-width="1.3333333333333333"/><text x="575.0719999999999" y="222.16874666666666" fill="#333333" font-size="11.733333333333334" font-family="sans-serif" text-anchor="start">spline</text></svg>