<svg xmlns="http://www.w3.org/2000/svg" width="800" height="600" viewBox="0 0 800 600"><rect x="0.0" y="0.0" width="800.0" height="600.0" fill="#ffffff" fill-opacity="1.0" stroke="none"/><line x1="153.184375" y1="5.5" x2="153.184375" y2="578.55" stroke="#dddddd" stroke-width="1.0"/><line x1="369.075" y1="5.5" x2="369.075" y2="578.55" stroke="#dddddd" stroke-width="1.0"/><line x1="584.965625" y1="5.5" x2="584.965625" y2="578.55" stroke="#dddddd" stroke-width="1.0"/><line x1="23.65" y1="471.103125" x2="714.5" y2="471.103125" stroke="#dddddd" stroke-width="1.0"/><line x1="23.65" y1="292.025" x2="714.5" y2="292.025" stroke="#dddddd" stroke-width="1.0"/><line x1="23.65" y1="112.94687499999998" x2="714.5" y2="112.94687499999998" stroke="#dddddd" stroke-width="1.0"/><rect x="23.65" y="5.5" width="690.85" height="573.05" fill="#ffffff" fill-opacity="0.0" stroke="#444444" stroke-width="1.0"/><line x1="153.184375" y1="578.55" x2="153.184375" y2="581.3" stroke="#444444" stroke-width="1.0"/><text x="153.184375" y="592.3" fill="#333333" font-size="11.0" font-family="sans-serif" text-anchor="middle">y1</text><line x1="369.075" y1="578.55" x2="369.075" y2="581.3" stroke="#444444" stroke-width="1.0"/><text x="369.075" y="592.3" fill="#333333" font-size="11.0" font-family="sans-serif" text-anchor="middle">y2</text><line x1="584.965625" y1="578.55" x2="584.965625" y2="581.3" stroke="#444444" stroke-width="1.0"/><text x="584.965625" y="592.3" fill="#333333" font-size="11.0" font-family="sans-serif" text-anchor="middle">y3</text><line x1="23.65" y1="471.103125" x2="20.9" y2="471.103125" stroke="#444444" stroke-width="1.0"/><text x="18.7" y="474.953125" fill="#333333" font-size="11.0" font-family="sans-serif" text-anchor="end">y1</text><line x1="23.65" y1="292.025" x2="20.9" y2="292.025" stroke="#444444" stroke-width="1.0"/><text x="18.7" y="295.875" fill="#333333" font-size="11.0" font-family="sans-serif" text-anchor="end">y2</text><line x1="23.65" y1="112.94687499999998" x2="20.9" y2="112.94687499999998" stroke="#444444" stroke-width="1.0"/><text x="18.7" y="116.79687499999997" fill="#333333" font-size="11.0" font-family="sans-serif" text-anchor="end">y3</text><rect x="45.239062499999996" y="381.5640625" width="215.890625" height="179.078125" fill="#fde725" fill-opacity="1.0" stroke="#ffffff" stroke-width="1.0"/><rect x="261.1296875" y="381.5640625" width="215.890625" height="179.078125" fill="#fde725" fill-opacity="1.0" stroke="#ffffff" stroke-width="1.0"/><rect x="477.0203125" y="381.5640625" width="215.89062500000006" height="179.078125" fill="#440154" fill-opacity="1.0" stroke="#ffffff" stroke-width="1.0"/><rect x="45.239062499999996" y="202.48593749999998" width="215.890625" height="179.078125" fill="#fde725" fill-opacity="1.0" stroke="#ffffff" stroke-width="1.0"/><rect x="261.1296875" y="202.48593749999998" width="215.890625" height="179.078125" fill="#fde725" fill-opacity="1.0" stroke="#ffffff" stroke-width="1.0"/><rect x="477.0203125" y="202.48593749999998" width="215.89062500000006" height="179.078125" fill="#440154" fill-opacity="1.0" stroke="#ffffff" stroke-width="1.0"/><rect x="45.239062499999996" y="23.407812499999977" width="215.890625" height="179.078125" fill="#440154" fill-opacity="1.0" stroke="#ffffff" stroke-width="1.0"/><rect x="261.1296875" y="23.407812499999977" width="215.890625" height="179.078125" fill="#440154" fill-opacity="1.0" stroke="#ffffff" stroke-width="1.0"/><rect x="477.0203125" y="23.407812499999977" width="215.89062500000006" height="179.078125" fill="#fde725" fill-opacity="1.0" stroke="#ffffff" stroke-width="1.0"/><rect x="724.5" y="142.5" width="14.0" height="3.5" fill="#440154" fill-opacity="1.0" stroke="none"/><rect x="724.5" y="139.5" width="14.0" height="3.5" fill="#43095a" fill-opacity="1.0" stroke="none"/><rect x="724.5" y="136.5" width="14.0" height="3.5" fill="#42125f" fill-opacity="1.0" stroke="none"/><rect x="724.5" y="133.5" width="14.0" height="3.5" fill="#411a65" fill-opacity="1.0" stroke="none"/><rect x="724.5" y="130.5" width="14.0" height="3.5" fill="#40226b" fill-opacity="1.0" stroke="none"/><rect x="724.5" y="127.5" width="14.0" height="3.5" fill="#3f2b70" fill-opacity="1.0" stroke="none"/><rect x="724.5" y="124.5" width="14.0" height="3.5" fill="#3e3376" fill-opacity="1.0" stroke="none"/><rect x="724.5" y="121.5" width="14.0" height="3.5" fill="#3e3b7b" fill-opacity="1.0" stroke="none"/><rect x="724.5" y="118.5" width="14.0" height="3.5" fill="#3d4381" fill-opacity="1.0" stroke="none"/><rect x="724.5" y="115.5" width="14.0" height="3.5" fill="#3c4c87" fill-opacity="1.0" stroke="none"/><rect x="724.5" y="112.5" width="14.0" height="3.5" fill="#3a548b" fill-opacity="1.0" stroke="none"/><rect x="724.5" y="109.5" width="14.0" height="3.5" fill="#385a8b" fill-opacity="1.0" stroke="none"/><rect x="724.5" y="106.5" width="14.0" height="3.5" fill="#35618b" fill-opacity="1.0" stroke="none"/><rect x="724.5" y="103.5" width="14.0" height="3.5" fill="#32678b" fill-opacity="1.0" stroke="none"/><rect x="724.5" y="100.5" width="14.0" height="3.5" fill="#306d8b" fill-opacity="1.0" stroke="none"/><rect x="724.5" y="97.5" width="14.0" height="3.5" fill="#2d748c" fill-opacity="1.0" stroke="none"/><rect x="724.5" y="94.5" width="14.0" height="3.5" fill="#2a7a8c" fill-opacity="1.0" stroke="none"/><rect x="724.5" y="91.5" width="14.0" height="3.5" fill="#28818c" fill-opacity="1.0" stroke="none"/><rect x="724.5" y="88.5" width="14.0" height="3.5" fill="#25878c" fill-opacity="1.0" stroke="none"/><rect x="724.5" y="85.5" width="14.0" height="3.5" fill="#228e8c" fill-opacity="1.0" stroke="none"/><rect x="724.5" y="82.5" width="14.0" height="3.5" fill="#24948a" fill-opacity="1.0" stroke="none"/><rect x="724.5" y="79.5" width="14.0" height="3.5" fill="#2a9a86" fill-opacity="1.0" stroke="none"/><rect x="724.5" y="76.5" width="14.0" height="3.5" fill="#319f81" fill-opacity="1.0" stroke="none"/><rect x="724.5" y="73.5" width="14.0" height="3.5" fill="#37a57d" fill-opacity="1.0" stroke="none"/><rect x="724.5" y="70.5" width="14.0" height="3.5" fill="#3dab79" fill-opacity="1.0" stroke="none"/><rect x="724.5" y="67.5" width="14.0" height="3.5" fill="#43b174" fill-opacity="1.0" stroke="none"/><rect x="724.5" y="64.5" width="14.0" height="3.5" fill="#4ab670" fill-opacity="1.0" stroke="none"/><rect x="724.5" y="61.5" width="14.0" height="3.5" fill="#50bc6c" fill-opacity="1.0" stroke="none"/><rect x="724.5" y="58.5" width="14.0" height="3.5" fill="#56c267" fill-opacity="1.0" stroke="none"/><rect x="724.5" y="55.5" width="14.0" height="3.5" fill="#5cc863" fill-opacity="1.0" stroke="none"/><rect x="724.5" y="52.5" width="14.0" height="3.5" fill="#6acb5d" fill-opacity="1.0" stroke="none"/><rect x="724.5" y="49.5" width="14.0" height="3.5" fill="#7bce57" fill-opacity="1.0" stroke="none"/><rect x="724.5" y="46.5" width="14.0" height="3.5" fill="#8bd151" fill-opacity="1.0" stroke="none"/><rect x="724.5" y="43.5" width="14.0" height="3.5" fill="#9bd54b" fill-opacity="1.0" stroke="none"/><rect x="724.5" y="40.5" width="14.0" height="3.5" fill="#abd844" fill-opacity="1.0" stroke="none"/><rect x="724.5" y="37.5" width="14.0" height="3.5" fill="#bcdb3e" fill-opacity="1.0" stroke="none"/><rect x="724.5" y="34.5" width="14.0" height="3.5" fill="#ccde38" fill-opacity="1.0" stroke="none"/><rect x="724.5" y="31.5" width="14.0" height="3.5" fill="#dce132" fill-opacity="1.0" stroke="none"/><rect x="724.5" y="28.5" width="14.0" height="3.5" fill="#ede42b" fill-opacity="1.0" stroke="none"/><rect x="724.5" y="25.5" width="14.0" height="3.5" fill="#fde725" fill-opacity="1.0" stroke="none"/><text x="742.5" y="29.5" fill="#333333" font-size="10.0" font-family="sans-serif" text-anchor="start">1</text><text x="742.5" y="89.5" fill="#333333" font-size="10.0" font-family="sans-serif" text-anchor="start">0</text><text x="742.5" y="149.5" fill="#333333" font-size="10.0" font-family="sans-serif" text-anchor="start">-1</text></svg>