<svg xmlns="http://www.w3.org/2000/svg" width="800" height="600" viewBox="0 0 800 600"><rect x="0.0" y="0.0" width="800.0" height="600.0" fill="#ffffff" fill-opacity="1.0" stroke="none"/><line x1="145.0857142857143" y1="5.5" x2="145.0857142857143" y2="578.55" stroke="#dddddd" stroke-width="1.0"/><line x1="325.4785714285714" y1="5.5" x2="325.4785714285714" y2="578.55" stroke="#dddddd" stroke-width="1.0"/><line x1="505.8714285714286" y1="5.5" x2="505.8714285714286" y2="578.55" stroke="#dddddd" stroke-width="1.0"/><line x1="686.2642857142857" y1="5.5" x2="686.2642857142857" y2="578.55" stroke="#dddddd" stroke-width="1.0"/><line x1="36.849999999999994" y1="505.99348828674346" x2="794.5" y2="505.99348828674346" stroke="#dddddd" stroke-width="0.5"/><line x1="36.849999999999994" y1="360.8804648602305" x2="794.5" y2="360.8804648602305" stroke="#dddddd" stroke-width="0.5"/><line x1="36.849999999999994" y1="215.76744143371747" x2="794.5" y2="215.76744143371747" stroke="#dddddd" stroke-width="0.5"/><line x1="36.849999999999994" y1="70.65441800720453" x2="794.5" y2="70.65441800720453" stroke="#dddddd" stroke-width="0.5"/><line x1="36.849999999999994" y1="578.55" x2="794.5" y2="578.55" stroke="#dddddd" stroke-width="1.0"/><line x1="36.849999999999994" y1="433.43697657348696" x2="794.5" y2="433.43697657348696" stroke="#dddddd" stroke-width="1.0"/><line x1="36.849999999999994" y1="288.323953146974" x2="794.5" y2="288.323953146974" stroke="#dddddd" stroke-width="1.0"/><line x1="36.849999999999994" y1="143.21092972046102" x2="794.5" y2="143.21092972046102" stroke="#dddddd" stroke-width="1.0"/><rect x="36.849999999999994" y="5.5" width="757.65" height="573.05" fill="#ffffff" fill-opacity="0.0" stroke="#444444" stroke-width="1.0"/><line x1="145.0857142857143" y1="578.55" x2="145.0857142857143" y2="581.3" stroke="#444444" stroke-width="1.0"/><text x="145.0857142857143" y="592.3" fill="#333333" font-size="11.0" font-family="sans-serif" text-anchor="middle">PC1</text><line x1="325.4785714285714" y1="578.55" x2="325.4785714285714" y2="581.3" stroke="#444444" stroke-width="1.0"/><text x="325.4785714285714" y="592.3" fill="#333333" font-size="11.0" font-family="sans-serif" text-anchor="middle">PC2</text><line x1="505.8714285714286" y1="578.55" x2="505.8714285714286" y2="581.3" stroke="#444444" stroke-width="1.0"/><text x="505.8714285714286" y="592.3" fill="#333333" font-size="11.0" font-family="sans-serif" text-anchor="middle">PC3</text><line x1="686.2642857142857" y1="578.55" x2="686.2642857142857" y2="581.3" stroke="#444444" stroke-width="1.0"/><text x="686.2642857142857" y="592.3" fill="#333333" font-size="11.0" font-family="sans-serif" text-anchor="middle">PC4</text><line x1="36.849999999999994" y1="578.55" x2="34.099999999999994" y2="578.55" stroke="#444444" stroke-width="1.0"/><text x="31.899999999999995" y="582.4" fill="#333333" font-size="11.0" font-family="sans-serif" text-anchor="end">0</text><line x1="36.849999999999994" y1="433.43697657348696" x2="34.099999999999994" y2="433.43697657348696" stroke="#444444" stroke-width="1.0"/><text x="31.899999999999995" y="437.286976573487" fill="#333333" font-size="11.0" font-family="sans-serif" text-anchor="end">0.25</text><line x1="36.849999999999994" y1="288.323953146974" x2="34.099999999999994" y2="288.323953146974" stroke="#444444" stroke-width="1.0"/><text x="31.899999999999995" y="292.17395314697404" fill="#333333" font-size="11.0" font-family="sans-serif" text-anchor="end">0.5</text><line x1="36.849999999999994" y1="143.21092972046102" x2="34.099999999999994" y2="143.21092972046102" stroke="#444444" stroke-width="1.0"/><text x="31.899999999999995" y="147.06092972046102" fill="#333333" font-size="11.0" font-family="sans-serif" text-anchor="end">0.75</text><rect x="63.90892857142859" y="32.78809523809525" width="162.3535714285714" height="545.7619047619047" fill="#1f77b4" fill-opacity="0.85" stroke="none"/><rect x="244.3017857142857" y="548.1704787038627" width="162.3535714285714" height="30.379521296137227" fill="#1f77b4" fill-opacity="0.85" stroke="none"/><rect x="424.6946428571429" y="575.082025441033" width="162.3535714285714" height="3.4679745589669437" fill="#1f77b4" fill-opacity="0.85" stroke="none"/><rect x="605.0875000000001" y="577.7073069109571" width="162.3535714285714" height="0.8426930890428821" fill="#1f77b4" fill-opacity="0.85" stroke="none"/></svg>