<svg xmlns="http://www.w3.org/2000/svg" width="624" height="384" viewBox="0 0 624 384"><rect x="0.0" y="0.0" width="624.0" height="384.0" fill="#ffffff" fill-opacity="1.0" stroke="none"/><line x1="143.96020202020202" y1="32.266666666666666" x2="143.96020202020202" y2="358.3333333333333" stroke="#dddddd" stroke-width="0.6666666666666666"/><line x1="322.34" y1="32.266666666666666" x2="322.34" y2="358.3333333333333" stroke="#dddddd" stroke-width="0.6666666666666666"/><line x1="500.71979797979793" y1="32.266666666666666" x2="500.71979797979793" y2="358.3333333333333" stroke="#dddddd" stroke-width="0.6666666666666666"/><line x1="54.770303030303026" y1="32.266666666666666" x2="54.770303030303026" y2="358.3333333333333" stroke="#dddddd" stroke-width="1.3333333333333333"/><line x1="233.15010101010103" y1="32.266666666666666" x2="233.15010101010103" y2="358.3333333333333" stroke="#dddddd" stroke-width="1.3333333333333333"/><line x1="411.5298989898989" y1="32.266666666666666" x2="411.5298989898989" y2="358.3333333333333" stroke="#dddddd" stroke-width="1.3333333333333333"/><line x1="589.9096969696969" y1="32.266666666666666" x2="589.9096969696969" y2="358.3333333333333" stroke="#dddddd" stroke-width="1.3333333333333333"/><line x1="28.01333333333333" y1="296.38051251668946" x2="616.6666666666666" y2="296.38051251668946" stroke="#dddddd" stroke-width="0.6666666666666666"/><line x1="28.01333333333333" y1="205.60482859903772" x2="616.6666666666666" y2="205.60482859903772" stroke="#dddddd" stroke-width="0.6666666666666666"/><line x1="28.01333333333333" y1="114.82914468138593" x2="616.6666666666666" y2="114.82914468138593" stroke="#dddddd" stroke-width="0.6666666666666666"/><line x1="28.01333333333333" y1="341.76835447551537" x2="616.6666666666666" y2="341.76835447551537" stroke="#dddddd" stroke-width="1.3333333333333333"/><line x1="28.01333333333333" y1="250.9926705578636" x2="616.6666666666666" y2="250.9926705578636" stroke="#dddddd" stroke-width="1.3333333333333333"/><line x1="28.01333333333333" y1="160.21698664021181" x2="616.6666666666666" y2="160.21698664021181" stroke="#dddddd" stroke-width="1.3333333333333333"/><line x1="28.01333333333333" y1="69.44130272256002" x2="616.6666666666666" y2="69.44130272256002" stroke="#dddddd" stroke-width="1.3333333333333333"/><rect x="28.01333333333333" y="32.266666666666666" width="588.6533333333333" height="326.06666666666666" fill="#ffffff" fill-opacity="0.0" stroke="#444444" stroke-width="1.3333333333333333"/><line x1="54.770303030303026" y1="358.3333333333333" x2="54.770303030303026" y2="362.0" stroke="#444444" stroke-width="1.3333333333333333"/><text x="54.770303030303026" y="374.32" fill="#333333" font-size="11.733333333333334" font-family="sans-serif" text-anchor="middle">0</text><line x1="233.15010101010103" y1="358.3333333333333" x2="233.15010101010103" y2="362.0" stroke="#444444" stroke-width="1.3333333333333333"/><text x="233.15010101010103" y="374.32" fill="#333333" font-size="11.733333333333334" font-family="sans-serif" text-anchor="middle">5</text><line x1="411.5298989898989" y1="358.3333333333333" x2="411.5298989898989" y2="362.0" stroke="#444444" stroke-width="1.3333333333333333"/><text x="411.5298989898989" y="374.32" fill="#333333" font-size="11.733333333333334" font-family="sans-serif" text-anchor="middle">10</text><line x1="589.9096969696969" y1="358.3333333333333" x2="589.9096969696969" y2="362.0" stroke="#444444" stroke-width="1.3333333333333333"/><text x="589.9096969696969" y="374.32" fill="#333333" font-size="11.733333333333334" font-family="sans-serif" text-anchor="middle">15</text><line x1="28.01333333333333" y1="341.76835447551537" x2="24.346666666666664" y2="341.76835447551537" stroke="#444444" stroke-width="1.3333333333333333"/><text x="21.41333333333333" y="345.87502114218205" fill="#333333" font-size="11.733333333333334" font-family="sans-serif" text-anchor="end">0</text><line x1="28.01333333333333" y1="250.9926705578636" x2="24.346666666666664" y2="250.9926705578636" stroke="#444444" stroke-width="1.3333333333333333"/><text x="21.41333333333333" y="255.09933722453027" fill="#333333" font-size="11.733333333333334" font-family="sans-serif" text-anchor="end">20</text><line x1="28.01333333333333" y1="160.21698664021181" x2="24.346666666666664" y2="160.21698664021181" stroke="#444444" stroke-width="1.3333333333333333"/><text x="21.41333333333333" y="164.3236533068785" fill="#333333" font-size="11.733333333333334" font-family="sans-serif" text-anchor="end">40</text><line x1="28.01333333333333" y1="69.44130272256002" x2="24.346666666666664" y2="69.44130272256002" stroke="#444444" stroke-width="1.3333333333333333"/><text x="21.41333333333333" y="73.5479693892267" fill="#333333" font-size="11.733333333333334" font-family="sans-serif" text-anchor="end">60</text><text x="28.01333333333333" y="21.413333333333334" fill="#333333" font-size="17.599999999999998" font-family="sans-serif" text-anchor="start">stat-in: statPoly deg=2 (二次回帰 + 帯)</text><circle cx="54.770303030303026" cy="296.38051251668946" r="3.1181102362204727" fill="#1f77b4" fill-opacity="0.85" stroke="none"><title>(0, 10)</title></circle><circle cx="72.60828282828282" cy="291.3878751760857" r="3.1181102362204727" fill="#1f77b4" fill-opacity="0.85" stroke="none"><title>(0.5, 11.099994431357)</title></circle><circle cx="90.44626262626264" cy="315.745794948112" r="3.1181102362204727" fill="#1f77b4" fill-opacity="0.85" stroke="none"><title>(1, 5.73337669392)</title></circle><circle cx="108.28424242424242" cy="331.11330461701266" r="3.1181102362204727" fill="#1f77b4" fill-opacity="0.85" stroke="none"><title>(1.5, 2.347555953017)</title></circle><circle cx="126.12222222222222" cy="316.8851960846175" r="3.1181102362204727" fill="#1f77b4" fill-opacity="0.85" stroke="none"><title>(2, 5.482340053416)</title></circle><circle cx="143.96020202020202" cy="316.71217180120806" r="3.1181102362204727" fill="#1f77b4" fill-opacity="0.85" stroke="none"><title>(2.5, 5.52046133787)</title></circle><circle cx="161.7981818181818" cy="339.9511344992524" r="3.1181102362204727" fill="#1f77b4" fill-opacity="0.85" stroke="none"><title>(3, 0.400375937219)</title></circle><circle cx="179.6361616161616" cy="340.54021092699475" r="3.1181102362204727" fill="#1f77b4" fill-opacity="0.85" stroke="none"><title>(3.5, 0.270588663289)</title></circle><circle cx="197.47414141414143" cy="320.99213588282083" r="3.1181102362204727" fill="#1f77b4" fill-opacity="0.85" stroke="none"><title>(4, 4.577485444569)</title></circle><circle cx="215.31212121212118" cy="326.721278529693" r="3.1181102362204727" fill="#1f77b4" fill-opacity="0.85" stroke="none"><title>(4.5, 3.315221719392)</title></circle><circle cx="233.15010101010103" cy="343.5121212121212" r="3.1181102362204727" fill="#1f77b4" fill-opacity="0.85" stroke="none"><title>(5, -0.384192475639)</title></circle><circle cx="250.98808080808078" cy="329.61347713408446" r="3.1181102362204727" fill="#1f77b4" fill-opacity="0.85" stroke="none"><title>(5.5, 2.678002922557)</title></circle><circle cx="268.8260606060606" cy="309.9996850490155" r="3.1181102362204727" fill="#1f77b4" fill-opacity="0.85" stroke="none"><title>(6, 6.999378700428)</title></circle><circle cx="286.6640404040404" cy="319.986319658833" r="3.1181102362204727" fill="#1f77b4" fill-opacity="0.85" stroke="none"><title>(6.5, 4.799090213728)</title></circle><circle cx="304.50202020202016" cy="325.49860748365506" r="3.1181102362204727" fill="#1f77b4" fill-opacity="0.85" stroke="none"><title>(7, 3.584604662768)</title></circle><circle cx="322.34" cy="300.00166773606304" r="3.1181102362204727" fill="#1f77b4" fill-opacity="0.85" stroke="none"><title>(7.5, 9.202175062067)</title></circle><circle cx="340.1779797979798" cy="284.40802048843267" r="3.1181102362204727" fill="#1f77b4" fill-opacity="0.85" stroke="none"><title>(8, 12.637819184952)</title></circle><circle cx="358.01595959595954" cy="294.70984061002116" r="3.1181102362204727" fill="#1f77b4" fill-opacity="0.85" stroke="none"><title>(8.5, 10.368087980077)</title></circle><circle cx="375.85393939393936" cy="285.8736006610227" r="3.1181102362204727" fill="#1f77b4" fill-opacity="0.85" stroke="none"><title>(9, 12.314917696505)</title></circle><circle cx="393.69191919191917" cy="253.51176991083085" r="3.1181102362204727" fill="#1f77b4" fill-opacity="0.85" stroke="none"><title>(9.5, 19.444983668699)</title></circle><circle cx="411.5298989898989" cy="243.7884941556336" r="3.1181102362204727" fill="#1f77b4" fill-opacity="0.85" stroke="none"><title>(10, 21.58724805836)</title></circle><circle cx="429.36787878787874" cy="249.19531208664787" r="3.1181102362204727" fill="#1f77b4" fill-opacity="0.85" stroke="none"><title>(10.5, 20.395999984499)</title></circle><circle cx="447.2058585858586" cy="225.50292570822108" r="3.1181102362204727" fill="#1f77b4" fill-opacity="0.85" stroke="none"><title>(11, 25.615985195499)</title></circle><circle cx="465.0438383838384" cy="191.61719939572814" r="3.1181102362204727" fill="#1f77b4" fill-opacity="0.85" stroke="none"><title>(11.5, 33.081800896372)</title></circle><circle cx="482.8818181818181" cy="186.8955980754917" r="3.1181102362204727" fill="#1f77b4" fill-opacity="0.85" stroke="none"><title>(12, 34.12207977205)</title></circle><circle cx="500.71979797979793" cy="182.29027204176515" r="3.1181102362204727" fill="#1f77b4" fill-opacity="0.85" stroke="none"><title>(12.5, 35.136740490641)</title></circle><circle cx="518.5577777777778" cy="145.92906737964444" r="3.1181102362204727" fill="#1f77b4" fill-opacity="0.85" stroke="none"><title>(13, 43.147961798565)</title></circle><circle cx="536.3957575757576" cy="115.07293690142603" r="3.1181102362204727" fill="#1f77b4" fill-opacity="0.85" stroke="none"><title>(13.5, 49.946286888841)</title></circle><circle cx="554.2337373737373" cy="111.99229727787454" r="3.1181102362204727" fill="#1f77b4" fill-opacity="0.85" stroke="none"><title>(14, 50.625023636525)</title></circle><circle cx="572.0717171717172" cy="93.6873545493028" r="3.1181102362204727" fill="#1f77b4" fill-opacity="0.85" stroke="none"><title>(14.5, 54.6580293796)</title></circle><circle cx="589.9096969696969" cy="48.96826546004164" r="3.1181102362204727" fill="#1f77b4" fill-opacity="0.85" stroke="none"><title>(15, 64.51068752753)</title></circle><path d="M 54.770303030303026 305.15080978879797 L 72.60828282828282 312.58979611499433 L 90.44626262626264 319.036271608398 L 108.28424242424242 324.5037654734211 L 126.12222222222222 329.00638279888864 L 143.96020202020202 332.554898038414 L 161.7981818181818 335.15043518951666 L 179.6361616161616 336.7783766887515 L 197.47414141414143 337.4073654882685 L 215.31212121212118 336.9954727577561 L 233.15010101010103 335.49956361017627 L 250.98808080808078 332.88231278692075 L 268.8260606060606 329.114972348272 L 286.6640404040404 324.17720300565816 L 304.50202020202016 318.0557966289635 L 322.34 310.7433935956186 L 340.1779797979798 302.2376367558581 L 358.01595959595954 292.5408832594474 L 375.85393939393936 281.6604927289558 L 393.69191919191917 269.6096732944992 L 411.5298989898989 256.4087642446494 L 429.36787878787874 242.0865135191238 L 447.2058585858586 226.68024637653085 L 465.0438383838384 210.23309770390847 L 482.8818181818181 192.78699633156816 L 500.71979797979793 174.37329930736018 L 518.5577777777778 155.00662419472943 L 536.3957575757576 134.6858469961565 L 554.2337373737373 113.40019325802803 L 572.0717171717172 91.13555789151901 L 589.9096969696969 67.87841169221727 L 589.9096969696969 47.08787878787886 L 572.0717171717172 72.92353472000312 L 554.2337373737373 97.45689857055314 L 536.3957575757576 120.67444113511677 L 518.5577777777778 142.56205732486904 L 500.71979797979793 163.1089726861965 L 482.8818181818181 182.3140632215798 L 465.0438383838384 200.1919464944639 L 447.2058585858586 216.773979552699 L 429.36787878787874 232.10209122659649 L 411.5298989898989 246.21941640319443 L 393.69191919191917 259.1632803411012 L 375.85393939393936 270.9624309800343 L 358.01595959595954 281.6372076085654 L 340.1779797979798 291.2008183568105 L 322.34 299.66062284733886 L 304.50202020202016 307.0189782299159 L 286.6640404040404 313.27352735477615 L 268.8260606060606 318.41691059935044 L 250.98808080808078 322.4359198335227 L 233.15010101010103 325.3102157687214 L 215.31212121212118 327.0110504652288 L 197.47414141414143 327.50109866443665 L 179.6361616161616 326.73722547930697 L 161.7981818181818 324.67750207952827 L 143.96020202020202 321.2905714172503 L 126.12222222222222 316.5618159290282 L 108.28424242424242 310.4923596123814 L 90.44626262626264 303.0929769209231 L 72.60828282828282 294.3777729434785 L 54.770303030303026 284.3602768844596 Z" fill="#2ca02c" fill-opacity="0.2" stroke="none"/><line x1="54.770303030303026" y1="294.75554333662876" x2="72.60828282828282" y2="303.4837845292364" stroke="#2ca02c" stroke-width="2.6666666666666665"/><line x1="72.60828282828282" y1="303.4837845292364" x2="90.44626262626264" y2="311.06462426466055" stroke="#2ca02c" stroke-width="2.6666666666666665"/><line x1="90.44626262626264" y1="311.06462426466055" x2="108.28424242424242" y2="317.4980625429012" stroke="#2ca02c" stroke-width="2.6666666666666665"/><line x1="108.28424242424242" y1="317.4980625429012" x2="126.12222222222222" y2="322.78409936395843" stroke="#2ca02c" stroke-width="2.6666666666666665"/><line x1="126.12222222222222" y1="322.78409936395843" x2="143.96020202020202" y2="326.92273472783216" stroke="#2ca02c" stroke-width="2.6666666666666665"/><line x1="143.96020202020202" y1="326.92273472783216" x2="161.7981818181818" y2="329.91396863452246" stroke="#2ca02c" stroke-width="2.6666666666666665"/><line x1="161.7981818181818" y1="329.91396863452246" x2="179.6361616161616" y2="331.7578010840292" stroke="#2ca02c" stroke-width="2.6666666666666665"/><line x1="179.6361616161616" y1="331.7578010840292" x2="197.47414141414143" y2="332.4542320763526" stroke="#2ca02c" stroke-width="2.6666666666666665"/><line x1="197.47414141414143" y1="332.4542320763526" x2="215.31212121212118" y2="332.0032616114924" stroke="#2ca02c" stroke-width="2.6666666666666665"/><line x1="215.31212121212118" y1="332.0032616114924" x2="233.15010101010103" y2="330.40488968944885" stroke="#2ca02c" stroke-width="2.6666666666666665"/><line x1="233.15010101010103" y1="330.40488968944885" x2="250.98808080808078" y2="327.65911631022175" stroke="#2ca02c" stroke-width="2.6666666666666665"/><line x1="250.98808080808078" y1="327.65911631022175" x2="268.8260606060606" y2="323.76594147381115" stroke="#2ca02c" stroke-width="2.6666666666666665"/><line x1="268.8260606060606" y1="323.76594147381115" x2="286.6640404040404" y2="318.7253651802172" stroke="#2ca02c" stroke-width="2.6666666666666665"/><line x1="286.6640404040404" y1="318.7253651802172" x2="304.50202020202016" y2="312.53738742943966" stroke="#2ca02c" stroke-width="2.6666666666666665"/><line x1="304.50202020202016" y1="312.53738742943966" x2="322.34" y2="305.20200822147876" stroke="#2ca02c" stroke-width="2.6666666666666665"/><line x1="322.34" y1="305.20200822147876" x2="340.1779797979798" y2="296.7192275563343" stroke="#2ca02c" stroke-width="2.6666666666666665"/><line x1="340.1779797979798" y1="296.7192275563343" x2="358.01595959595954" y2="287.0890454340064" stroke="#2ca02c" stroke-width="2.6666666666666665"/><line x1="358.01595959595954" y1="287.0890454340064" x2="375.85393939393936" y2="276.31146185449506" stroke="#2ca02c" stroke-width="2.6666666666666665"/><line x1="375.85393939393936" y1="276.31146185449506" x2="393.69191919191917" y2="264.3864768178002" stroke="#2ca02c" stroke-width="2.6666666666666665"/><line x1="393.69191919191917" y1="264.3864768178002" x2="411.5298989898989" y2="251.3140903239219" stroke="#2ca02c" stroke-width="2.6666666666666665"/><line x1="411.5298989898989" y1="251.3140903239219" x2="429.36787878787874" y2="237.0943023728601" stroke="#2ca02c" stroke-width="2.6666666666666665"/><line x1="429.36787878787874" y1="237.0943023728601" x2="447.2058585858586" y2="221.72711296461492" stroke="#2ca02c" stroke-width="2.6666666666666665"/><line x1="447.2058585858586" y1="221.72711296461492" x2="465.0438383838384" y2="205.21252209918617" stroke="#2ca02c" stroke-width="2.6666666666666665"/><line x1="465.0438383838384" y1="205.21252209918617" x2="482.8818181818181" y2="187.550529776574" stroke="#2ca02c" stroke-width="2.6666666666666665"/><line x1="482.8818181818181" y1="187.550529776574" x2="500.71979797979793" y2="168.74113599677833" stroke="#2ca02c" stroke-width="2.6666666666666665"/><line x1="500.71979797979793" y1="168.74113599677833" x2="518.5577777777778" y2="148.78434075979922" stroke="#2ca02c" stroke-width="2.6666666666666665"/><line x1="518.5577777777778" y1="148.78434075979922" x2="536.3957575757576" y2="127.68014406563664" stroke="#2ca02c" stroke-width="2.6666666666666665"/><line x1="536.3957575757576" y1="127.68014406563664" x2="554.2337373737373" y2="105.4285459142906" stroke="#2ca02c" stroke-width="2.6666666666666665"/><line x1="554.2337373737373" y1="105.4285459142906" x2="572.0717171717172" y2="82.02954630576107" stroke="#2ca02c" stroke-width="2.6666666666666665"/><line x1="572.0717171717172" y1="82.02954630576107" x2="589.9096969696969" y2="57.48314524004809" stroke="#2ca02c" stroke-width="2.6666666666666665"/></svg>