<svg xmlns="http://www.w3.org/2000/svg" width="800" height="600" viewBox="0 0 800 600"><rect x="0.0" y="0.0" width="800.0" height="600.0" fill="#ffffff" fill-opacity="1.0" stroke="none"/><line x1="151.83522727272725" y1="5.5" x2="151.83522727272725" y2="578.55" stroke="#dddddd" stroke-width="0.5"/><line x1="325.52840909090907" y1="5.5" x2="325.52840909090907" y2="578.55" stroke="#dddddd" stroke-width="0.5"/><line x1="499.22159090909093" y1="5.5" x2="499.22159090909093" y2="578.55" stroke="#dddddd" stroke-width="0.5"/><line x1="672.9147727272726" y1="5.5" x2="672.9147727272726" y2="578.55" stroke="#dddddd" stroke-width="0.5"/><line x1="64.98863636363636" y1="5.5" x2="64.98863636363636" y2="578.55" stroke="#dddddd" stroke-width="1.0"/><line x1="238.68181818181816" y1="5.5" x2="238.68181818181816" y2="578.55" stroke="#dddddd" stroke-width="1.0"/><line x1="412.375" y1="5.5" x2="412.375" y2="578.55" stroke="#dddddd" stroke-width="1.0"/><line x1="586.0681818181819" y1="5.5" x2="586.0681818181819" y2="578.55" stroke="#dddddd" stroke-width="1.0"/><line x1="759.7613636363636" y1="5.5" x2="759.7613636363636" y2="578.55" stroke="#dddddd" stroke-width="1.0"/><line x1="30.249999999999996" y1="541.6114441077932" x2="794.5" y2="541.6114441077932" stroke="#dddddd" stroke-width="0.5"/><line x1="30.249999999999996" y1="438.56026618386136" x2="794.5" y2="438.56026618386136" stroke="#dddddd" stroke-width="0.5"/><line x1="30.249999999999996" y1="335.5090882599295" x2="794.5" y2="335.5090882599295" stroke="#dddddd" stroke-width="0.5"/><line x1="30.249999999999996" y1="232.45791033599772" x2="794.5" y2="232.45791033599772" stroke="#dddddd" stroke-width="0.5"/><line x1="30.249999999999996" y1="129.40673241206594" x2="794.5" y2="129.40673241206594" stroke="#dddddd" stroke-width="0.5"/><line x1="30.249999999999996" y1="26.35555448813409" x2="794.5" y2="26.35555448813409" stroke="#dddddd" stroke-width="0.5"/><line x1="30.249999999999996" y1="490.0858551458273" x2="794.5" y2="490.0858551458273" stroke="#dddddd" stroke-width="1.0"/><line x1="30.249999999999996" y1="387.0346772218955" x2="794.5" y2="387.0346772218955" stroke="#dddddd" stroke-width="1.0"/><line x1="30.249999999999996" y1="283.98349929796365" x2="794.5" y2="283.98349929796365" stroke="#dddddd" stroke-width="1.0"/><line x1="30.249999999999996" y1="180.9323213740318" x2="794.5" y2="180.9323213740318" stroke="#dddddd" stroke-width="1.0"/><line x1="30.249999999999996" y1="77.88114345010001" x2="794.5" y2="77.88114345010001" stroke="#dddddd" stroke-width="1.0"/><rect x="30.249999999999996" y="5.5" width="764.25" height="573.05" fill="#ffffff" fill-opacity="0.0" stroke="#444444" stroke-width="1.0"/><line x1="64.98863636363636" y1="578.55" x2="64.98863636363636" y2="581.3" stroke="#444444" stroke-width="1.0"/><text x="64.98863636363636" y="592.3" fill="#333333" font-size="11.0" font-family="sans-serif" text-anchor="middle">0</text><line x1="238.68181818181816" y1="578.55" x2="238.68181818181816" y2="581.3" stroke="#444444" stroke-width="1.0"/><text x="238.68181818181816" y="592.3" fill="#333333" font-size="11.0" font-family="sans-serif" text-anchor="middle">2</text><line x1="412.375" y1="578.55" x2="412.375" y2="581.3" stroke="#444444" stroke-width="1.0"/><text x="412.375" y="592.3" fill="#333333" font-size="11.0" font-family="sans-serif" text-anchor="middle">4</text><line x1="586.0681818181819" y1="578.55" x2="586.0681818181819" y2="581.3" stroke="#444444" stroke-width="1.0"/><text x="586.0681818181819" y="592.3" fill="#333333" font-size="11.0" font-family="sans-serif" text-anchor="middle">6</text><line x1="759.7613636363636" y1="578.55" x2="759.7613636363636" y2="581.3" stroke="#444444" stroke-width="1.0"/><text x="759.7613636363636" y="592.3" fill="#333333" font-size="11.0" font-family="sans-serif" text-anchor="middle">8</text><line x1="30.249999999999996" y1="490.0858551458273" x2="27.499999999999996" y2="490.0858551458273" stroke="#444444" stroke-width="1.0"/><text x="25.299999999999997" y="493.9358551458273" fill="#333333" font-size="11.0" font-family="sans-serif" text-anchor="end">0</text><line x1="30.249999999999996" y1="387.0346772218955" x2="27.499999999999996" y2="387.0346772218955" stroke="#444444" stroke-width="1.0"/><text x="25.299999999999997" y="390.8846772218955" fill="#333333" font-size="11.0" font-family="sans-serif" text-anchor="end">0.5</text><line x1="30.249999999999996" y1="283.98349929796365" x2="27.499999999999996" y2="283.98349929796365" stroke="#444444" stroke-width="1.0"/><text x="25.299999999999997" y="287.83349929796367" fill="#333333" font-size="11.0" font-family="sans-serif" text-anchor="end">1</text><line x1="30.249999999999996" y1="180.9323213740318" x2="27.499999999999996" y2="180.9323213740318" stroke="#444444" stroke-width="1.0"/><text x="25.299999999999997" y="184.7823213740318" fill="#333333" font-size="11.0" font-family="sans-serif" text-anchor="end">1.5</text><line x1="30.249999999999996" y1="77.88114345010001" x2="27.499999999999996" y2="77.88114345010001" stroke="#444444" stroke-width="1.0"/><text x="25.299999999999997" y="81.7311434501" fill="#333333" font-size="11.0" font-family="sans-serif" text-anchor="end">2</text><circle cx="64.98863636363636" cy="490.0858551458273" r="3.0" fill="#1f77b4" fill-opacity="0.85" stroke="#1f77b4" stroke-width="1.0"><title>(0, 0)</title></circle><circle cx="108.41193181818181" cy="375.81744549728035" r="3.0" fill="#1f77b4" fill-opacity="0.85" stroke="#1f77b4" stroke-width="1.0"><title>(0.5, 0.554425538604)</title></circle><circle cx="169.20454545454547" cy="260.891979733077" r="3.0" fill="#1f77b4" fill-opacity="0.85" stroke="#1f77b4" stroke-width="1.0"><title>(1.2, 1.112039085967)</title></circle><circle cx="186.5738636363636" cy="243.70084949751316" r="3.0" fill="#1f77b4" fill-opacity="0.85" stroke="#1f77b4" stroke-width="1.0"><title>(1.4, 1.195449729988)</title></circle><circle cx="325.52840909090907" cy="368.2546288958805" r="3.0" fill="#1f77b4" fill-opacity="0.85" stroke="#1f77b4" stroke-width="1.0"><title>(3, 0.59112000806)</title></circle><circle cx="342.89772727272725" cy="403.1877728198781" r="3.0" fill="#1f77b4" fill-opacity="0.85" stroke="#1f77b4" stroke-width="1.0"><title>(3.2, 0.421625856572)</title></circle><circle cx="542.6448863636364" cy="465.4649348170663" r="3.0" fill="#1f77b4" fill-opacity="0.85" stroke="#1f77b4" stroke-width="1.0"><title>(5.5, 0.11945967443)</title></circle><circle cx="672.9147727272726" cy="138.27189574915297" r="3.0" fill="#1f77b4" fill-opacity="0.85" stroke="#1f77b4" stroke-width="1.0"><title>(7, 1.706986598719)</title></circle><circle cx="759.7613636363636" cy="38.85396272180026" r="3.0" fill="#1f77b4" fill-opacity="0.85" stroke="#1f77b4" stroke-width="1.0"><title>(8, 2.189358246623)</title></circle><path d="M 64.98863636363636 494.62598659764956 L 68.47995660118775 484.195102552061 L 71.97127683873914 474.0084188193397 L 75.46259707629054 464.0666683373728 L 78.95391731384194 454.35952805636794 L 82.44523755139333 444.8676693130345 L 85.93655778894471 435.5684707993742 L 89.4278780264961 426.4415720183606 L 92.9191982640475 417.47176373089826 L 96.4105185015989 408.64939832197047 L 99.90183873915029 399.9695629197869 L 103.39315897670168 391.4309634517958 L 106.88447921425308 383.0349420576125 L 110.37579945180448 374.78473328147567 L 113.86711968935586 366.6849390873001 L 117.35843992690724 358.7411723087116 L 120.84976016445866 350.9598218752893 L 124.34108040201005 343.3479049659378 L 127.83240063956143 335.91298238660784 L 131.32372087711283 328.6631218820819 L 134.8150411146642 321.60689970797284 L 138.30636135221562 314.75343377960604 L 141.79768158976702 308.11244180623856 L 145.28900182731837 301.69431399218746 L 148.78032206486978 295.5101803458249 L 152.27164230242116 289.571935545319 L 155.76296253997256 283.8921604662956 L 159.254282777524 278.48385824048324 L 162.74560301507535 273.35992912236225 L 166.23692325262678 268.5323791440363 L 169.72824349017813 264.0114046926084 L 173.21956372772954 259.80464792131215 L 176.71088396528094 255.9169307034461 L 180.20220420283232 252.3505752979753 L 183.69352444038373 249.1061408231031 L 187.18484467793513 246.1832635870934 L 190.6761649154865 243.5813508589178 L 194.16748515303792 241.3000301170906 L 197.6588053905893 239.3393749786913 L 201.1501256281407 237.69997657975387 L 204.6414458656921 236.38292757120524 L 208.13276610324348 235.38976632293873 L 211.62408634079486 234.72240934492874 L 215.11540657834627 234.38308608387996 L 218.60672681589764 234.37428203193417 L 222.09804705344905 234.69869178149878 L 225.58936729100046 235.3591816855876 L 229.08068752855183 236.3587610583594 L 232.5720077661032 237.70056074629014 L 236.06332800365462 239.3878180843139 L 239.554648241206 241.4238244880455 L 243.0459684787574 243.80675474116936 L 246.53728871630884 246.52476915118405 L 250.02860895386016 249.56496955294176 L 253.5199291914116 252.91454761823616 L 257.0112494289629 256.56077564559473 L 260.5025696665144 260.4910024234626 L 263.9938899040658 264.69265343819234 L 267.48521014161713 269.1532351509904 L 270.97653037916854 273.8603434391392 L 274.46785061671994 278.80167663681385 L 277.9591708542713 283.96505395404995 L 281.4504910918227 289.3384404198764 L 284.9418113293741 294.90997989012396 L 288.4331315669255 300.66803805053377 L 291.9244518044769 306.6012576302533 L 295.41577204202827 312.6986279781293 L 298.90709227957973 318.94957023635885 L 302.3984125171311 325.34403659874033 L 305.8897327546825 331.8726158840803 L 309.3810529922339 338.5266254472117 L 312.87237322978524 345.2981489194084 L 316.36369346733665 352.17995135058425 L 319.85501370488805 359.1651795191236 L 323.3463339424394 366.246766132616 L 326.83765417999086 373.4165459556608 L 330.3289744175422 380.6642689119874 L 333.8202946550936 387.9768637672766 L 337.31161489264497 395.33828838113243 L 340.80293513019643 402.7300363930973 L 344.2942553677478 410.1320485587055 L 347.7855756052992 417.52365543473843 L 351.2768958428506 424.8842916732474 L 354.768216080402 432.19391064149875 L 358.25953631795335 439.4331530385185 L 361.7508565555048 446.58336016390086 L 365.24217679305616 453.6265088541309 L 368.73349703060757 460.54511787208446 L 372.224817268159 467.32215250062154 L 375.7161375057104 473.94093925399153 L 379.2074577432617 480.3850944880527 L 382.69877798081313 486.6384668044055 L 386.19009821836454 492.68509159472273 L 389.68141845591595 498.50915567849574 L 393.1727386934673 504.09497010341323 L 396.6640589310187 509.4269494786246 L 400.1553791685701 514.489596548791 L 403.6466994061215 519.2674910317711 L 407.1380196436729 523.7452820183489 L 410.62933988122427 527.9076834712673 L 414.1206601187757 531.7398592151978 L 417.6119803563271 535.2359289308707 L 421.10330059387843 538.3989626601452 L 424.5946208314299 541.2324659408001 L 428.0859410689813 543.7399867538188 L 431.57726130653265 545.9251111305306 L 435.068581544084 547.7914602983185 L 438.55990178163546 549.342689037871 L 442.05122201918687 550.582485020202 L 445.54254225673833 551.5145689558659 L 449.03386249428956 552.1426954304989 L 452.52518273184097 552.470654324953 L 456.01650296939243 552.5022727272727 L 459.50782320694384 552.2414172380501 L 462.9991434444952 551.6919965491844 L 466.49046368204654 550.8579641362593 L 469.981783919598 549.7433208430028 L 473.47310415714935 548.352117048191 L 476.96442439470076 546.6884539865002 L 480.4557446322522 544.756483642256 L 483.94706486980357 542.5604064498043 L 487.43838510735486 540.1044658253476 L 490.9297053449063 537.3929383450404 L 494.42102558245773 534.430118215739 L 497.9123458200092 531.2202946271125 L 501.40366605756054 527.7677207236657 L 504.8949862951119 524.0765734071658 L 508.3863065326633 520.150904077492 L 511.87762677021476 515.994581782646 L 515.3689470077661 511.6112319831499 L 518.8602672453175 507.00417595740083 L 522.3515874828688 502.1763773067243 L 525.8429077204203 497.13040250014933 L 529.3342279579716 491.8684014953755 L 532.8255481955231 486.3921121211847 L 536.3168684330744 480.7028885473109 L 539.8081886706258 474.8017506439881 L 543.2995089081772 468.6894482760518 L 546.7908291457286 462.3665332319566 L 550.2821493832801 455.83343169602244 L 553.7734696208315 449.09051159555565 L 557.2647898583828 442.1381412017636 L 560.7561100959342 434.976737451781 L 564.2474303334856 427.60680418978154 L 567.7387505710369 420.02896173070553 L 571.2300708085884 412.2439698486446 L 574.7213910461397 404.252746605574 L 578.2127112836912 396.05638551937113 L 581.7040315212425 387.6561735650653 L 585.195351758794 379.053612521624 L 588.6866719963454 370.25152715577997 L 592.1779922338967 361.2624082580252 L 595.669312471448 352.1038099036392 L 599.1606327089995 342.79350488824844 L 602.651952946551 333.34941416568256 L 606.1432731841023 323.7895783736019 L 609.6345934216537 314.13212886149597 L 613.125913659205 304.39525597144825 L 616.6172338967565 294.5971726596032 L 620.108554134308 284.7560720599099 L 623.5998743718593 274.89007838004227 L 627.0911946094106 265.0171916363875 L 630.5825148469621 255.15522814344206 L 634.0738350845135 245.32176020156908 L 637.5651553220648 235.5340597611672 L 641.0564755596163 225.80905157858558 L 644.5477957971676 216.1632811597467 L 648.0391160347191 206.61290146126055 L 651.5304362722704 197.17368006642278 L 655.0217565098218 187.86102587633695 L 658.5130767473732 178.6900319134757 L 662.0043969849246 169.6755291981898 L 665.495717222476 160.83214611327963 L 668.9870374600274 152.17436815838772 L 672.4783576975788 143.71659419950538 L 675.9696779351301 135.47318683228974 L 679.4609981726816 127.45851595018053 L 682.9523184102329 119.68699582397409 L 686.4436386477844 112.17311688594225 L 689.9349588853357 104.93147400295646 L 693.4262791228872 97.97679341280713 L 696.9175993604385 91.32396080046857 L 700.4089195979899 84.988053320159 L 703.9002398355412 78.98437882990731 L 707.3915600730927 73.32852629440993 L 710.8828803106442 68.03643231505907 L 714.3742005481955 63.12447012222037 L 717.8655207857469 58.6095690927109 L 721.3568410232982 54.50937469667565 L 724.8481612608497 50.84245997369237 L 728.339481498401 47.628598302999876 L 731.8308017359525 44.88909932579122 L 735.3221219735038 42.64718795934493 L 738.8134422110552 40.92835981993085 L 742.3047624486067 39.76056763202655 L 745.7960826861579 39.17399995252549 L 749.2874029237095 39.200184791314314 L 752.7787231612608 39.870327796849665 L 756.2700433988122 41.213239141826875 L 759.7613636363636 43.25365161975901 L 759.7613636363636 34.45370056902914 L 756.2700433988122 32.97172741790121 L 752.7787231612608 32.005699975374455 L 749.2874029237095 31.54772727272723 L 745.7960826861579 31.593995720419798 L 742.3047624486067 32.14308720467409 L 738.8134422110552 33.19390597314157 L 735.3221219735038 34.74401682048108 L 731.8308017359525 36.78874870893526 L 728.339481498401 39.32097349253934 L 724.8481612608497 42.331292326337234 L 721.3568410232982 45.80839108928626 L 717.8655207857469 49.73941939839085 L 714.3742005481955 54.110326530993916 L 710.8828803106442 58.906134195006075 L 707.3915600730927 64.11114800500877 L 703.9002398355412 69.70911742913307 L 700.4089195979899 75.68335530653644 L 696.9175993604385 82.01682683968016 L 693.4262791228872 88.69221612435882 L 689.9349588853357 95.69197655255545 L 686.4436386477844 102.99837004700964 L 682.9523184102329 110.59349908327664 L 679.4609981726816 118.45933476599288 L 675.9696779351301 126.5777437651962 L 672.4783576975788 134.9305165894475 L 668.9870374600274 143.4993993699518 L 665.495717222476 152.2661309401314 L 662.0043969849246 161.21248640374267 L 658.5130767473732 170.32032749819274 L 655.0217565098218 179.57165884404844 L 651.5304362722704 188.94868769942468 L 648.0391160347191 198.43388332455976 L 644.5477957971676 208.01003085832195 L 641.0564755596163 217.6602741217721 L 637.5651553220648 227.3681423092857 L 634.0738350845135 237.1175571645503 L 630.5825148469621 246.89281968168007 L 627.0911946094106 256.6785780488388 L 623.5998743718593 266.45978080415443 L 620.108554134308 276.2216204998895 L 616.6172338967565 285.9494733901957 L 613.125913659205 295.6288399205121 L 609.6345934216537 305.2452894625532 L 606.1432731841023 314.78441121022786 L 602.651952946551 324.2317717433857 L 599.1606327089995 333.57287864928117 L 595.669312471448 342.79314880333936 L 592.1779922338967 351.8778793971554 L 588.6866719963454 360.8122194641203 L 585.195351758794 369.58117117756836 L 581.7040315212425 378.17336852099095 L 578.2127112836912 386.58466662198964 L 574.7213910461397 394.81153784819924 L 571.2300708085884 402.8502397633155 L 567.7387505710369 410.69683647388365 L 564.2474303334856 418.34721663054546 L 560.7561100959342 425.79711059605955 L 557.2647898583828 433.0421092740334 L 553.7734696208315 440.07768709730715 L 550.2821493832801 446.89923159168313 L 546.7908291457286 453.5020816170355 L 543.2995089081772 459.88157568933764 L 539.8081886706258 466.0331105815763 L 536.3168684330744 471.9522086708729 L 532.8255481955231 477.6345904107304 L 529.3342279579716 483.0762462600496 L 525.8429077204203 488.27350097723127 L 522.3515874828688 493.22306297972455 L 518.8602672453175 497.9220528138956 L 515.3689470077661 502.368007537441 L 511.87762677021476 506.55886134035285 L 508.3863065326633 510.49290608969545 L 504.8949862951119 514.1687378346577 L 501.40366605756054 517.5851962119083 L 497.9123458200092 520.7413032099936 L 494.42102558245773 523.6362063193478 L 490.9297053449063 526.2691292731425 L 487.43838510735486 528.6393318497142 L 483.94706486980357 530.7460788445854 L 480.4557446322522 532.5886174225783 L 476.96442439470076 534.1661615885621 L 473.47310415714935 535.4778823655497 L 469.981783919598 536.5229023265338 L 466.49046368204654 537.3002932948575 L 462.9991434444952 537.8090762379641 L 459.50782320694384 538.0482225882484 L 456.01650296939243 538.0166564099612 L 452.52518273184097 537.7132569836687 L 449.03386249428956 537.1368614986299 L 445.54254225673833 536.2862676315563 L 442.05122201918687 535.160235851967 L 438.55990178163546 533.7574913341648 L 435.068581544084 532.0767253773715 L 431.57726130653265 530.116596241268 L 428.0859410689813 527.8757292952097 L 424.5946208314299 525.3527163552462 L 421.10330059387843 522.5461140413744 L 417.6119803563271 519.4544409232443 L 414.1206601187757 516.0761731273018 L 410.62933988122427 512.4100385353954 L 407.1380196436729 508.4616214486538 L 403.6466994061215 504.24335709255644 L 400.1553791685701 499.7679180819764 L 396.6640589310187 495.04791215982846 L 393.1727386934673 490.09587769610073 L 389.68141845591595 484.9242760875851 L 386.19009821836454 479.54548059556083 L 382.69877798081313 473.9717609198468 L 379.2074577432617 468.21526253206497 L 375.7161375057104 462.2879794760179 L 372.224817268159 456.20171900543653 L 368.73349703060757 449.9680561283092 L 365.24217679305616 443.59827601101523 L 361.7508565555048 437.10330258854543 L 358.25953631795335 430.4936132759052 L 354.768216080402 423.7791435617103 L 351.2768958428506 416.9691933976851 L 347.7855756052992 410.0723621349854 L 344.2942553677478 403.0965617930082 L 340.80293513019643 396.04918567593467 L 337.31161489264497 388.9375229926766 L 333.8202946550936 381.76947315089853 L 330.3289744175422 374.55448844227266 L 326.83765417999086 367.30448537853385 L 323.3463339424394 360.0343513774925 L 319.85501370488805 352.7617950150085 L 316.36369346733665 345.50660970781166 L 312.87237322978524 338.2896868156213 L 309.3810529922339 331.13213176895215 L 305.8897327546825 324.0546682698481 L 302.3984125171311 317.0773386017134 L 298.90709227957973 310.2194187715112 L 295.41577204202827 303.49945625017807 L 291.9244518044769 296.9353618836429 L 288.4331315669255 290.54451546623255 L 284.9418113293741 284.3438649989241 L 281.4504910918227 278.3500118629956 L 277.9591708542713 272.57928039631804 L 274.46785061671994 267.04777310685233 L 270.97653037916854 261.77141367575786 L 267.48521014161713 256.7659799652 L 263.9938899040658 252.04712896148453 L 260.5025696665144 247.63041519402378 L 257.0112494289629 243.5313037761543 L 253.5199291914116 239.76517884635905 L 250.02860895386016 236.3473478452135 L 246.53728871630884 233.29304172337504 L 243.0459684787574 230.6174108047677 L 239.554648241206 228.33551557637384 L 236.06332800365462 226.46072335577242 L 232.5720077661032 224.99246645962847 L 229.08068752855183 223.92296240364817 L 225.58936729100046 223.24427271018783 L 222.09804705344905 222.94835241314615 L 218.60672681589764 223.02703501410429 L 215.11540657834627 223.47201105349876 L 211.62408634079486 224.27479931115943 L 208.13276610324348 225.42670946665066 L 204.6414458656921 226.91879515409966 L 201.1501256281407 228.74179707090343 L 197.6588053905893 230.88607777437772 L 194.16748515303792 233.34155410287218 L 190.6761649154865 236.09764137984297 L 187.18484467793513 239.14323740979245 L 183.69352444038373 242.4667938586574 L 180.20220420283232 246.05654218283195 L 176.71088396528094 249.90094287800252 L 173.21956372772954 253.98937924979504 L 169.72824349017813 258.31299774459717 L 166.23692325262678 262.86544442312965 L 162.74560301507535 267.64318562604916 L 159.254282777524 272.6452419278808 L 155.76296253997256 277.87244354815095 L 152.27164230242116 283.3265149287626 L 148.78032206486978 289.0092833888667 L 145.28900182731837 294.9221539915117 L 141.79768158976702 301.06584560228816 L 138.30636135221562 307.4403124169909 L 134.8150411146642 314.04476882735935 L 131.32372087711283 320.8777567300734 L 127.83240063956143 327.93721822788063 L 124.34108040201005 335.22055376381684 L 120.84976016445866 342.7246552700867 L 117.35843992690724 350.4459077400636 L 113.86711968935586 358.38015254007485 L 110.37579945180448 366.52260278712174 L 106.88447921425308 374.867695502253 L 103.39315897670168 383.40885683680597 L 99.90183873915029 392.13814552244156 L 96.4105185015989 401.0457278861978 L 92.9191982640475 410.1191340429456 L 89.4278780264961 419.34227530831686 L 85.93655778894471 428.6943282547178 L 82.44523755139333 438.1489078304753 L 78.95391731384194 447.6744777259854 L 75.46259707629054 457.2372408206726 L 71.97127683873914 466.8066926386686 L 68.47995660118775 476.36133431760373 L 64.98863636363636 485.89072298278757 Z" fill="#1f77b4" fill-opacity="0.2" stroke="none"/><line x1="64.98863636363636" y1="490.2583547902185" x2="68.47995660118775" y2="480.27821843483235" stroke="#1f77b4" stroke-width="1.5"/><line x1="68.47995660118775" y1="480.27821843483235" x2="71.97127683873914" y2="470.4075557290041" stroke="#1f77b4" stroke-width="1.5"/><line x1="71.97127683873914" y1="470.4075557290041" x2="75.46259707629054" y2="460.6519545790227" stroke="#1f77b4" stroke-width="1.5"/><line x1="75.46259707629054" y1="460.6519545790227" x2="78.95391731384194" y2="451.0170028911767" stroke="#1f77b4" stroke-width="1.5"/><line x1="78.95391731384194" y1="451.0170028911767" x2="82.44523755139333" y2="441.50828857175486" stroke="#1f77b4" stroke-width="1.5"/><line x1="82.44523755139333" y1="441.50828857175486" x2="85.93655778894471" y2="432.131399527046" stroke="#1f77b4" stroke-width="1.5"/><line x1="85.93655778894471" y1="432.131399527046" x2="89.4278780264961" y2="422.89192366333873" stroke="#1f77b4" stroke-width="1.5"/><line x1="89.4278780264961" y1="422.89192366333873" x2="92.9191982640475" y2="413.7954488869219" stroke="#1f77b4" stroke-width="1.5"/><line x1="92.9191982640475" y1="413.7954488869219" x2="96.4105185015989" y2="404.84756310408414" stroke="#1f77b4" stroke-width="1.5"/><line x1="96.4105185015989" y1="404.84756310408414" x2="99.90183873915029" y2="396.0538542211142" stroke="#1f77b4" stroke-width="1.5"/><line x1="99.90183873915029" y1="396.0538542211142" x2="103.39315897670168" y2="387.41991014430084" stroke="#1f77b4" stroke-width="1.5"/><line x1="103.39315897670168" y1="387.41991014430084" x2="106.88447921425308" y2="378.95131877993276" stroke="#1f77b4" stroke-width="1.5"/><line x1="106.88447921425308" y1="378.95131877993276" x2="110.37579945180448" y2="370.6536680342987" stroke="#1f77b4" stroke-width="1.5"/><line x1="110.37579945180448" y1="370.6536680342987" x2="113.86711968935586" y2="362.5325458136874" stroke="#1f77b4" stroke-width="1.5"/><line x1="113.86711968935586" y1="362.5325458136874" x2="117.35843992690724" y2="354.5935400243876" stroke="#1f77b4" stroke-width="1.5"/><line x1="117.35843992690724" y1="354.5935400243876" x2="120.84976016445866" y2="346.842238572688" stroke="#1f77b4" stroke-width="1.5"/><line x1="120.84976016445866" y1="346.842238572688" x2="124.34108040201005" y2="339.2842293648773" stroke="#1f77b4" stroke-width="1.5"/><line x1="124.34108040201005" y1="339.2842293648773" x2="127.83240063956143" y2="331.92510030724424" stroke="#1f77b4" stroke-width="1.5"/><line x1="127.83240063956143" y1="331.92510030724424" x2="131.32372087711283" y2="324.77043930607766" stroke="#1f77b4" stroke-width="1.5"/><line x1="131.32372087711283" y1="324.77043930607766" x2="134.8150411146642" y2="317.82583426766604" stroke="#1f77b4" stroke-width="1.5"/><line x1="134.8150411146642" y1="317.82583426766604" x2="138.30636135221562" y2="311.0968730982985" stroke="#1f77b4" stroke-width="1.5"/><line x1="138.30636135221562" y1="311.0968730982985" x2="141.79768158976702" y2="304.5891437042634" stroke="#1f77b4" stroke-width="1.5"/><line x1="141.79768158976702" y1="304.5891437042634" x2="145.28900182731837" y2="298.30823399184953" stroke="#1f77b4" stroke-width="1.5"/><line x1="145.28900182731837" y1="298.30823399184953" x2="148.78032206486978" y2="292.2597318673458" stroke="#1f77b4" stroke-width="1.5"/><line x1="148.78032206486978" y1="292.2597318673458" x2="152.27164230242116" y2="286.4492252370408" stroke="#1f77b4" stroke-width="1.5"/><line x1="152.27164230242116" y1="286.4492252370408" x2="155.76296253997256" y2="280.88230200722325" stroke="#1f77b4" stroke-width="1.5"/><line x1="155.76296253997256" y1="280.88230200722325" x2="159.254282777524" y2="275.5645500841821" stroke="#1f77b4" stroke-width="1.5"/><line x1="159.254282777524" y1="275.5645500841821" x2="162.74560301507535" y2="270.50155737420573" stroke="#1f77b4" stroke-width="1.5"/><line x1="162.74560301507535" y1="270.50155737420573" x2="166.23692325262678" y2="265.69891178358296" stroke="#1f77b4" stroke-width="1.5"/><line x1="166.23692325262678" y1="265.69891178358296" x2="169.72824349017813" y2="261.1622012186027" stroke="#1f77b4" stroke-width="1.5"/><line x1="169.72824349017813" y1="261.1622012186027" x2="173.21956372772954" y2="256.89701358555357" stroke="#1f77b4" stroke-width="1.5"/><line x1="173.21956372772954" y1="256.89701358555357" x2="176.71088396528094" y2="252.90893679072428" stroke="#1f77b4" stroke-width="1.5"/><line x1="176.71088396528094" y1="252.90893679072428" x2="180.20220420283232" y2="249.2035587404036" stroke="#1f77b4" stroke-width="1.5"/><line x1="180.20220420283232" y1="249.2035587404036" x2="183.69352444038373" y2="245.78646734088028" stroke="#1f77b4" stroke-width="1.5"/><line x1="183.69352444038373" y1="245.78646734088028" x2="187.18484467793513" y2="242.6632504984429" stroke="#1f77b4" stroke-width="1.5"/><line x1="187.18484467793513" y1="242.6632504984429" x2="190.6761649154865" y2="239.83949611938039" stroke="#1f77b4" stroke-width="1.5"/><line x1="190.6761649154865" y1="239.83949611938039" x2="194.16748515303792" y2="237.32079210998137" stroke="#1f77b4" stroke-width="1.5"/><line x1="194.16748515303792" y1="237.32079210998137" x2="197.6588053905893" y2="235.11272637653457" stroke="#1f77b4" stroke-width="1.5"/><line x1="197.6588053905893" y1="235.11272637653457" x2="201.1501256281407" y2="233.2208868253286" stroke="#1f77b4" stroke-width="1.5"/><line x1="201.1501256281407" y1="233.2208868253286" x2="204.6414458656921" y2="231.65086136265245" stroke="#1f77b4" stroke-width="1.5"/><line x1="204.6414458656921" y1="231.65086136265245" x2="208.13276610324348" y2="230.4082378947947" stroke="#1f77b4" stroke-width="1.5"/><line x1="208.13276610324348" y1="230.4082378947947" x2="211.62408634079486" y2="229.4986043280441" stroke="#1f77b4" stroke-width="1.5"/><line x1="211.62408634079486" y1="229.4986043280441" x2="215.11540657834627" y2="228.92754856868936" stroke="#1f77b4" stroke-width="1.5"/><line x1="215.11540657834627" y1="228.92754856868936" x2="218.60672681589764" y2="228.70065852301929" stroke="#1f77b4" stroke-width="1.5"/><line x1="218.60672681589764" y1="228.70065852301929" x2="222.09804705344905" y2="228.82352209732244" stroke="#1f77b4" stroke-width="1.5"/><line x1="222.09804705344905" y1="228.82352209732244" x2="225.58936729100046" y2="229.30172719788771" stroke="#1f77b4" stroke-width="1.5"/><line x1="225.58936729100046" y1="229.30172719788771" x2="229.08068752855183" y2="230.14086173100378" stroke="#1f77b4" stroke-width="1.5"/><line x1="229.08068752855183" y1="230.14086173100378" x2="232.5720077661032" y2="231.3465136029593" stroke="#1f77b4" stroke-width="1.5"/><line x1="232.5720077661032" y1="231.3465136029593" x2="236.06332800365462" y2="232.92427072004313" stroke="#1f77b4" stroke-width="1.5"/><line x1="236.06332800365462" y1="232.92427072004313" x2="239.554648241206" y2="234.87967003220967" stroke="#1f77b4" stroke-width="1.5"/><line x1="239.554648241206" y1="234.87967003220967" x2="243.0459684787574" y2="237.21208277296853" stroke="#1f77b4" stroke-width="1.5"/><line x1="243.0459684787574" y1="237.21208277296853" x2="246.53728871630884" y2="239.90890543727954" stroke="#1f77b4" stroke-width="1.5"/><line x1="246.53728871630884" y1="239.90890543727954" x2="250.02860895386016" y2="242.95615869907766" stroke="#1f77b4" stroke-width="1.5"/><line x1="250.02860895386016" y1="242.95615869907766" x2="253.5199291914116" y2="246.33986323229766" stroke="#1f77b4" stroke-width="1.5"/><line x1="253.5199291914116" y1="246.33986323229766" x2="257.0112494289629" y2="250.04603971087448" stroke="#1f77b4" stroke-width="1.5"/><line x1="257.0112494289629" y1="250.04603971087448" x2="260.5025696665144" y2="254.06070880874313" stroke="#1f77b4" stroke-width="1.5"/><line x1="260.5025696665144" y1="254.06070880874313" x2="263.9938899040658" y2="258.3698911998384" stroke="#1f77b4" stroke-width="1.5"/><line x1="263.9938899040658" y1="258.3698911998384" x2="267.48521014161713" y2="262.9596075580952" stroke="#1f77b4" stroke-width="1.5"/><line x1="267.48521014161713" y1="262.9596075580952" x2="270.97653037916854" y2="267.8158785574485" stroke="#1f77b4" stroke-width="1.5"/><line x1="270.97653037916854" y1="267.8158785574485" x2="274.46785061671994" y2="272.9247248718331" stroke="#1f77b4" stroke-width="1.5"/><line x1="274.46785061671994" y1="272.9247248718331" x2="277.9591708542713" y2="278.272167175184" stroke="#1f77b4" stroke-width="1.5"/><line x1="277.9591708542713" y1="278.272167175184" x2="281.4504910918227" y2="283.844226141436" stroke="#1f77b4" stroke-width="1.5"/><line x1="281.4504910918227" y1="283.844226141436" x2="284.9418113293741" y2="289.6269224445241" stroke="#1f77b4" stroke-width="1.5"/><line x1="284.9418113293741" y1="289.6269224445241" x2="288.4331315669255" y2="295.60627675838316" stroke="#1f77b4" stroke-width="1.5"/><line x1="288.4331315669255" y1="295.60627675838316" x2="291.9244518044769" y2="301.7683097569481" stroke="#1f77b4" stroke-width="1.5"/><line x1="291.9244518044769" y1="301.7683097569481" x2="295.41577204202827" y2="308.0990421141537" stroke="#1f77b4" stroke-width="1.5"/><line x1="295.41577204202827" y1="308.0990421141537" x2="298.90709227957973" y2="314.584494503935" stroke="#1f77b4" stroke-width="1.5"/><line x1="298.90709227957973" y1="314.584494503935" x2="302.3984125171311" y2="321.21068760022683" stroke="#1f77b4" stroke-width="1.5"/><line x1="302.3984125171311" y1="321.21068760022683" x2="305.8897327546825" y2="327.9636420769641" stroke="#1f77b4" stroke-width="1.5"/><line x1="305.8897327546825" y1="327.9636420769641" x2="309.3810529922339" y2="334.8293786080819" stroke="#1f77b4" stroke-width="1.5"/><line x1="309.3810529922339" y1="334.8293786080819" x2="312.87237322978524" y2="341.7939178675148" stroke="#1f77b4" stroke-width="1.5"/><line x1="312.87237322978524" y1="341.7939178675148" x2="316.36369346733665" y2="348.84328052919795" stroke="#1f77b4" stroke-width="1.5"/><line x1="316.36369346733665" y1="348.84328052919795" x2="319.85501370488805" y2="355.96348726706606" stroke="#1f77b4" stroke-width="1.5"/><line x1="319.85501370488805" y1="355.96348726706606" x2="323.3463339424394" y2="363.14055875505426" stroke="#1f77b4" stroke-width="1.5"/><line x1="323.3463339424394" y1="363.14055875505426" x2="326.83765417999086" y2="370.3605156670973" stroke="#1f77b4" stroke-width="1.5"/><line x1="326.83765417999086" y1="370.3605156670973" x2="330.3289744175422" y2="377.60937867713005" stroke="#1f77b4" stroke-width="1.5"/><line x1="330.3289744175422" y1="377.60937867713005" x2="333.8202946550936" y2="384.87316845908754" stroke="#1f77b4" stroke-width="1.5"/><line x1="333.8202946550936" y1="384.87316845908754" x2="337.31161489264497" y2="392.1379056869045" stroke="#1f77b4" stroke-width="1.5"/><line x1="337.31161489264497" y1="392.1379056869045" x2="340.80293513019643" y2="399.38961103451595" stroke="#1f77b4" stroke-width="1.5"/><line x1="340.80293513019643" y1="399.38961103451595" x2="344.2942553677478" y2="406.6143051758569" stroke="#1f77b4" stroke-width="1.5"/><line x1="344.2942553677478" y1="406.6143051758569" x2="347.7855756052992" y2="413.79800878486196" stroke="#1f77b4" stroke-width="1.5"/><line x1="347.7855756052992" y1="413.79800878486196" x2="351.2768958428506" y2="420.92674253546625" stroke="#1f77b4" stroke-width="1.5"/><line x1="351.2768958428506" y1="420.92674253546625" x2="354.768216080402" y2="427.98652710160457" stroke="#1f77b4" stroke-width="1.5"/><line x1="354.768216080402" y1="427.98652710160457" x2="358.25953631795335" y2="434.96338315721187" stroke="#1f77b4" stroke-width="1.5"/><line x1="358.25953631795335" y1="434.96338315721187" x2="361.7508565555048" y2="441.84333137622315" stroke="#1f77b4" stroke-width="1.5"/><line x1="361.7508565555048" y1="441.84333137622315" x2="365.24217679305616" y2="448.6123924325731" stroke="#1f77b4" stroke-width="1.5"/><line x1="365.24217679305616" y1="448.6123924325731" x2="368.73349703060757" y2="455.25658700019676" stroke="#1f77b4" stroke-width="1.5"/><line x1="368.73349703060757" y1="455.25658700019676" x2="372.224817268159" y2="461.76193575302904" stroke="#1f77b4" stroke-width="1.5"/><line x1="372.224817268159" y1="461.76193575302904" x2="375.7161375057104" y2="468.1144593650047" stroke="#1f77b4" stroke-width="1.5"/><line x1="375.7161375057104" y1="468.1144593650047" x2="379.2074577432617" y2="474.30017851005886" stroke="#1f77b4" stroke-width="1.5"/><line x1="379.2074577432617" y1="474.30017851005886" x2="382.69877798081313" y2="480.3051138621262" stroke="#1f77b4" stroke-width="1.5"/><line x1="382.69877798081313" y1="480.3051138621262" x2="386.19009821836454" y2="486.11528609514176" stroke="#1f77b4" stroke-width="1.5"/><line x1="386.19009821836454" y1="486.11528609514176" x2="389.68141845591595" y2="491.7167158830404" stroke="#1f77b4" stroke-width="1.5"/><line x1="389.68141845591595" y1="491.7167158830404" x2="393.1727386934673" y2="497.095423899757" stroke="#1f77b4" stroke-width="1.5"/><line x1="393.1727386934673" y1="497.095423899757" x2="396.6640589310187" y2="502.2374308192265" stroke="#1f77b4" stroke-width="1.5"/><line x1="396.6640589310187" y1="502.2374308192265" x2="400.1553791685701" y2="507.1287573153838" stroke="#1f77b4" stroke-width="1.5"/><line x1="400.1553791685701" y1="507.1287573153838" x2="403.6466994061215" y2="511.7554240621638" stroke="#1f77b4" stroke-width="1.5"/><line x1="403.6466994061215" y1="511.7554240621638" x2="407.1380196436729" y2="516.1034517335014" stroke="#1f77b4" stroke-width="1.5"/><line x1="407.1380196436729" y1="516.1034517335014" x2="410.62933988122427" y2="520.1588610033314" stroke="#1f77b4" stroke-width="1.5"/><line x1="410.62933988122427" y1="520.1588610033314" x2="414.1206601187757" y2="523.9080161712499" stroke="#1f77b4" stroke-width="1.5"/><line x1="414.1206601187757" y1="523.9080161712499" x2="417.6119803563271" y2="527.3451849270575" stroke="#1f77b4" stroke-width="1.5"/><line x1="417.6119803563271" y1="527.3451849270575" x2="421.10330059387843" y2="530.4725383507598" stroke="#1f77b4" stroke-width="1.5"/><line x1="421.10330059387843" y1="530.4725383507598" x2="424.5946208314299" y2="533.2925911480231" stroke="#1f77b4" stroke-width="1.5"/><line x1="424.5946208314299" y1="533.2925911480231" x2="428.0859410689813" y2="535.8078580245142" stroke="#1f77b4" stroke-width="1.5"/><line x1="428.0859410689813" y1="535.8078580245142" x2="431.57726130653265" y2="538.0208536858993" stroke="#1f77b4" stroke-width="1.5"/><line x1="431.57726130653265" y1="538.0208536858993" x2="435.068581544084" y2="539.934092837845" stroke="#1f77b4" stroke-width="1.5"/><line x1="435.068581544084" y1="539.934092837845" x2="438.55990178163546" y2="541.5500901860179" stroke="#1f77b4" stroke-width="1.5"/><line x1="438.55990178163546" y1="541.5500901860179" x2="442.05122201918687" y2="542.8713604360844" stroke="#1f77b4" stroke-width="1.5"/><line x1="442.05122201918687" y1="542.8713604360844" x2="445.54254225673833" y2="543.900418293711" stroke="#1f77b4" stroke-width="1.5"/><line x1="445.54254225673833" y1="543.900418293711" x2="449.03386249428956" y2="544.6397784645643" stroke="#1f77b4" stroke-width="1.5"/><line x1="449.03386249428956" y1="544.6397784645643" x2="452.52518273184097" y2="545.0919556543108" stroke="#1f77b4" stroke-width="1.5"/><line x1="452.52518273184097" y1="545.0919556543108" x2="456.01650296939243" y2="545.259464568617" stroke="#1f77b4" stroke-width="1.5"/><line x1="456.01650296939243" y1="545.259464568617" x2="459.50782320694384" y2="545.1448199131493" stroke="#1f77b4" stroke-width="1.5"/><line x1="459.50782320694384" y1="545.1448199131493" x2="462.9991434444952" y2="544.7505363935743" stroke="#1f77b4" stroke-width="1.5"/><line x1="462.9991434444952" y1="544.7505363935743" x2="466.49046368204654" y2="544.0791287155585" stroke="#1f77b4" stroke-width="1.5"/><line x1="466.49046368204654" y1="544.0791287155585" x2="469.981783919598" y2="543.1331115847684" stroke="#1f77b4" stroke-width="1.5"/><line x1="469.981783919598" y1="543.1331115847684" x2="473.47310415714935" y2="541.9149997068704" stroke="#1f77b4" stroke-width="1.5"/><line x1="473.47310415714935" y1="541.9149997068704" x2="476.96442439470076" y2="540.4273077875312" stroke="#1f77b4" stroke-width="1.5"/><line x1="476.96442439470076" y1="540.4273077875312" x2="480.4557446322522" y2="538.6725505324172" stroke="#1f77b4" stroke-width="1.5"/><line x1="480.4557446322522" y1="538.6725505324172" x2="483.94706486980357" y2="536.6532426471949" stroke="#1f77b4" stroke-width="1.5"/><line x1="483.94706486980357" y1="536.6532426471949" x2="487.43838510735486" y2="534.3718988375308" stroke="#1f77b4" stroke-width="1.5"/><line x1="487.43838510735486" y1="534.3718988375308" x2="490.9297053449063" y2="531.8310338090915" stroke="#1f77b4" stroke-width="1.5"/><line x1="490.9297053449063" y1="531.8310338090915" x2="494.42102558245773" y2="529.0331622675434" stroke="#1f77b4" stroke-width="1.5"/><line x1="494.42102558245773" y1="529.0331622675434" x2="497.9123458200092" y2="525.9807989185531" stroke="#1f77b4" stroke-width="1.5"/><line x1="497.9123458200092" y1="525.9807989185531" x2="501.40366605756054" y2="522.676458467787" stroke="#1f77b4" stroke-width="1.5"/><line x1="501.40366605756054" y1="522.676458467787" x2="504.8949862951119" y2="519.1226556209117" stroke="#1f77b4" stroke-width="1.5"/><line x1="504.8949862951119" y1="519.1226556209117" x2="508.3863065326633" y2="515.3219050835937" stroke="#1f77b4" stroke-width="1.5"/><line x1="508.3863065326633" y1="515.3219050835937" x2="511.87762677021476" y2="511.2767215614994" stroke="#1f77b4" stroke-width="1.5"/><line x1="511.87762677021476" y1="511.2767215614994" x2="515.3689470077661" y2="506.98961976029545" stroke="#1f77b4" stroke-width="1.5"/><line x1="515.3689470077661" y1="506.98961976029545" x2="518.8602672453175" y2="502.4631143856482" stroke="#1f77b4" stroke-width="1.5"/><line x1="518.8602672453175" y1="502.4631143856482" x2="522.3515874828688" y2="497.6997201432244" stroke="#1f77b4" stroke-width="1.5"/><line x1="522.3515874828688" y1="497.6997201432244" x2="525.8429077204203" y2="492.70195173869035" stroke="#1f77b4" stroke-width="1.5"/><line x1="525.8429077204203" y1="492.70195173869035" x2="529.3342279579716" y2="487.47232387771254" stroke="#1f77b4" stroke-width="1.5"/><line x1="529.3342279579716" y1="487.47232387771254" x2="532.8255481955231" y2="482.01335126595757" stroke="#1f77b4" stroke-width="1.5"/><line x1="532.8255481955231" y1="482.01335126595757" x2="536.3168684330744" y2="476.3275486090919" stroke="#1f77b4" stroke-width="1.5"/><line x1="536.3168684330744" y1="476.3275486090919" x2="539.8081886706258" y2="470.4174306127822" stroke="#1f77b4" stroke-width="1.5"/><line x1="539.8081886706258" y1="470.4174306127822" x2="543.2995089081772" y2="464.28551198269474" stroke="#1f77b4" stroke-width="1.5"/><line x1="543.2995089081772" y1="464.28551198269474" x2="546.7908291457286" y2="457.93430742449607" stroke="#1f77b4" stroke-width="1.5"/><line x1="546.7908291457286" y1="457.93430742449607" x2="550.2821493832801" y2="451.36633164385285" stroke="#1f77b4" stroke-width="1.5"/><line x1="550.2821493832801" y1="451.36633164385285" x2="553.7734696208315" y2="444.5840993464314" stroke="#1f77b4" stroke-width="1.5"/><line x1="553.7734696208315" y1="444.5840993464314" x2="557.2647898583828" y2="437.5901252378985" stroke="#1f77b4" stroke-width="1.5"/><line x1="557.2647898583828" y1="437.5901252378985" x2="560.7561100959342" y2="430.3869240239203" stroke="#1f77b4" stroke-width="1.5"/><line x1="560.7561100959342" y1="430.3869240239203" x2="564.2474303334856" y2="422.97701041016353" stroke="#1f77b4" stroke-width="1.5"/><line x1="564.2474303334856" y1="422.97701041016353" x2="567.7387505710369" y2="415.3628991022946" stroke="#1f77b4" stroke-width="1.5"/><line x1="567.7387505710369" y1="415.3628991022946" x2="571.2300708085884" y2="407.5471048059801" stroke="#1f77b4" stroke-width="1.5"/><line x1="571.2300708085884" y1="407.5471048059801" x2="574.7213910461397" y2="399.53214222688666" stroke="#1f77b4" stroke-width="1.5"/><line x1="574.7213910461397" y1="399.53214222688666" x2="578.2127112836912" y2="391.3205260706804" stroke="#1f77b4" stroke-width="1.5"/><line x1="578.2127112836912" y1="391.3205260706804" x2="581.7040315212425" y2="382.91477104302805" stroke="#1f77b4" stroke-width="1.5"/><line x1="581.7040315212425" y1="382.91477104302805" x2="585.195351758794" y2="374.3173918495962" stroke="#1f77b4" stroke-width="1.5"/><line x1="585.195351758794" y1="374.3173918495962" x2="588.6866719963454" y2="365.53187330995013" stroke="#1f77b4" stroke-width="1.5"/><line x1="588.6866719963454" y1="365.53187330995013" x2="592.1779922338967" y2="356.5701438275903" stroke="#1f77b4" stroke-width="1.5"/><line x1="592.1779922338967" y1="356.5701438275903" x2="595.669312471448" y2="347.44847935348935" stroke="#1f77b4" stroke-width="1.5"/><line x1="595.669312471448" y1="347.44847935348935" x2="599.1606327089995" y2="338.1831917687648" stroke="#1f77b4" stroke-width="1.5"/><line x1="599.1606327089995" y1="338.1831917687648" x2="602.651952946551" y2="328.7905929545342" stroke="#1f77b4" stroke-width="1.5"/><line x1="602.651952946551" y1="328.7905929545342" x2="606.1432731841023" y2="319.28699479191494" stroke="#1f77b4" stroke-width="1.5"/><line x1="606.1432731841023" y1="319.28699479191494" x2="609.6345934216537" y2="309.68870916202457" stroke="#1f77b4" stroke-width="1.5"/><line x1="609.6345934216537" y1="309.68870916202457" x2="613.125913659205" y2="300.0120479459802" stroke="#1f77b4" stroke-width="1.5"/><line x1="613.125913659205" y1="300.0120479459802" x2="616.6172338967565" y2="290.2733230248994" stroke="#1f77b4" stroke-width="1.5"/><line x1="616.6172338967565" y1="290.2733230248994" x2="620.108554134308" y2="280.48884627989975" stroke="#1f77b4" stroke-width="1.5"/><line x1="620.108554134308" y1="280.48884627989975" x2="623.5998743718593" y2="270.67492959209835" stroke="#1f77b4" stroke-width="1.5"/><line x1="623.5998743718593" y1="270.67492959209835" x2="627.0911946094106" y2="260.84788484261315" stroke="#1f77b4" stroke-width="1.5"/><line x1="627.0911946094106" y1="260.84788484261315" x2="630.5825148469621" y2="251.02402391256106" stroke="#1f77b4" stroke-width="1.5"/><line x1="630.5825148469621" y1="251.02402391256106" x2="634.0738350845135" y2="241.21965868305972" stroke="#1f77b4" stroke-width="1.5"/><line x1="634.0738350845135" y1="241.21965868305972" x2="637.5651553220648" y2="231.4511010352265" stroke="#1f77b4" stroke-width="1.5"/><line x1="637.5651553220648" y1="231.4511010352265" x2="641.0564755596163" y2="221.73466285017884" stroke="#1f77b4" stroke-width="1.5"/><line x1="641.0564755596163" y1="221.73466285017884" x2="644.5477957971676" y2="212.08665600903436" stroke="#1f77b4" stroke-width="1.5"/><line x1="644.5477957971676" y1="212.08665600903436" x2="648.0391160347191" y2="202.52339239291018" stroke="#1f77b4" stroke-width="1.5"/><line x1="648.0391160347191" y1="202.52339239291018" x2="651.5304362722704" y2="193.06118388292379" stroke="#1f77b4" stroke-width="1.5"/><line x1="651.5304362722704" y1="193.06118388292379" x2="655.0217565098218" y2="183.7163423601927" stroke="#1f77b4" stroke-width="1.5"/><line x1="655.0217565098218" y1="183.7163423601927" x2="658.5130767473732" y2="174.50517970583422" stroke="#1f77b4" stroke-width="1.5"/><line x1="658.5130767473732" y1="174.50517970583422" x2="662.0043969849246" y2="165.44400780096623" stroke="#1f77b4" stroke-width="1.5"/><line x1="662.0043969849246" y1="165.44400780096623" x2="665.495717222476" y2="156.54913852670546" stroke="#1f77b4" stroke-width="1.5"/><line x1="665.495717222476" y1="156.54913852670546" x2="668.9870374600274" y2="147.83688376416978" stroke="#1f77b4" stroke-width="1.5"/><line x1="668.9870374600274" y1="147.83688376416978" x2="672.4783576975788" y2="139.3235553944765" stroke="#1f77b4" stroke-width="1.5"/><line x1="672.4783576975788" y1="139.3235553944765" x2="675.9696779351301" y2="131.02546529874297" stroke="#1f77b4" stroke-width="1.5"/><line x1="675.9696779351301" y1="131.02546529874297" x2="679.4609981726816" y2="122.95892535808673" stroke="#1f77b4" stroke-width="1.5"/><line x1="679.4609981726816" y1="122.95892535808673" x2="682.9523184102329" y2="115.14024745362536" stroke="#1f77b4" stroke-width="1.5"/><line x1="682.9523184102329" y1="115.14024745362536" x2="686.4436386477844" y2="107.58574346647595" stroke="#1f77b4" stroke-width="1.5"/><line x1="686.4436386477844" y1="107.58574346647595" x2="689.9349588853357" y2="100.31172527775595" stroke="#1f77b4" stroke-width="1.5"/><line x1="689.9349588853357" y1="100.31172527775595" x2="693.4262791228872" y2="93.33450476858303" stroke="#1f77b4" stroke-width="1.5"/><line x1="693.4262791228872" y1="93.33450476858303" x2="696.9175993604385" y2="86.67039382007431" stroke="#1f77b4" stroke-width="1.5"/><line x1="696.9175993604385" y1="86.67039382007431" x2="700.4089195979899" y2="80.33570431334772" stroke="#1f77b4" stroke-width="1.5"/><line x1="700.4089195979899" y1="80.33570431334772" x2="703.9002398355412" y2="74.34674812952017" stroke="#1f77b4" stroke-width="1.5"/><line x1="703.9002398355412" y1="74.34674812952017" x2="707.3915600730927" y2="68.71983714970924" stroke="#1f77b4" stroke-width="1.5"/><line x1="707.3915600730927" y1="68.71983714970924" x2="710.8828803106442" y2="63.471283255032404" stroke="#1f77b4" stroke-width="1.5"/><line x1="710.8828803106442" y1="63.471283255032404" x2="714.3742005481955" y2="58.61739832660726" stroke="#1f77b4" stroke-width="1.5"/><line x1="714.3742005481955" y1="58.61739832660726" x2="717.8655207857469" y2="54.17449424555082" stroke="#1f77b4" stroke-width="1.5"/><line x1="717.8655207857469" y1="54.17449424555082" x2="721.3568410232982" y2="50.158882892980955" stroke="#1f77b4" stroke-width="1.5"/><line x1="721.3568410232982" y1="50.158882892980955" x2="724.8481612608497" y2="46.586876150014746" stroke="#1f77b4" stroke-width="1.5"/><line x1="724.8481612608497" y1="46.586876150014746" x2="728.339481498401" y2="43.47478589776961" stroke="#1f77b4" stroke-width="1.5"/><line x1="728.339481498401" y1="43.47478589776961" x2="731.8308017359525" y2="40.8389240173633" stroke="#1f77b4" stroke-width="1.5"/><line x1="731.8308017359525" y1="40.8389240173633" x2="735.3221219735038" y2="38.695602389913006" stroke="#1f77b4" stroke-width="1.5"/><line x1="735.3221219735038" y1="38.695602389913006" x2="738.8134422110552" y2="37.06113289653615" stroke="#1f77b4" stroke-width="1.5"/><line x1="738.8134422110552" y1="37.06113289653615" x2="742.3047624486067" y2="35.95182741835015" stroke="#1f77b4" stroke-width="1.5"/><line x1="742.3047624486067" y1="35.95182741835015" x2="745.7960826861579" y2="35.38399783647253" stroke="#1f77b4" stroke-width="1.5"/><line x1="745.7960826861579" y1="35.38399783647253" x2="749.2874029237095" y2="35.37395603202083" stroke="#1f77b4" stroke-width="1.5"/><line x1="749.2874029237095" y1="35.37395603202083" x2="752.7787231612608" y2="35.93801388611212" stroke="#1f77b4" stroke-width="1.5"/><line x1="752.7787231612608" y1="35.93801388611212" x2="756.2700433988122" y2="37.09248327986404" stroke="#1f77b4" stroke-width="1.5"/><line x1="756.2700433988122" y1="37.09248327986404" x2="759.7613636363636" y2="38.85367609439413" stroke="#1f77b4" stroke-width="1.5"/><line x1="151.83522727272725" y1="290.30034468534143" x2="151.83522727272725" y2="284.02431970335704" stroke="#1f77b4" stroke-width="1.5"/><line x1="412.375" y1="529.8658535109618" x2="412.375" y2="514.2790768856097" stroke="#1f77b4" stroke-width="1.5"/><line x1="672.9147727272726" y1="142.67415064415616" x2="672.9147727272726" y2="133.87422689265009" stroke="#1f77b4" stroke-width="1.5"/><circle cx="151.83522727272725" cy="287.1623321943492" r="3.0" fill="#1f77b4" fill-opacity="0.85" stroke="#1f77b4" stroke-width="1.0"><title>(1, 0.984576435901)</title></circle><circle cx="412.375" cy="522.0724651982857" r="3.0" fill="#1f77b4" fill-opacity="0.85" stroke="#1f77b4" stroke-width="1.0"><title>(4, -0.155197692529)</title></circle><circle cx="672.9147727272726" cy="138.27418876840318" r="3.0" fill="#1f77b4" fill-opacity="0.85" stroke="#1f77b4" stroke-width="1.0"><title>(7, 1.706975473085)</title></circle></svg>