<svg xmlns="http://www.w3.org/2000/svg" width="624" height="384" viewBox="0 0 624 384"><rect x="0.0" y="0.0" width="624.0" height="384.0" fill="#ffffff" fill-opacity="1.0" stroke="none"/><line x1="127.58272727272723" y1="7.333333333333333" x2="127.58272727272723" y2="358.3333333333333" stroke="#dddddd" stroke-width="0.6666666666666666"/><line x1="259.7675757575757" y1="7.333333333333333" x2="259.7675757575757" y2="358.3333333333333" stroke="#dddddd" stroke-width="0.6666666666666666"/><line x1="391.9524242424243" y1="7.333333333333333" x2="391.9524242424243" y2="358.3333333333333" stroke="#dddddd" stroke-width="0.6666666666666666"/><line x1="524.1372727272726" y1="7.333333333333333" x2="524.1372727272726" y2="358.3333333333333" stroke="#dddddd" stroke-width="0.6666666666666666"/><line x1="61.490303030303025" y1="7.333333333333333" x2="61.490303030303025" y2="358.3333333333333" stroke="#dddddd" stroke-width="1.3333333333333333"/><line x1="193.6751515151515" y1="7.333333333333333" x2="193.6751515151515" y2="358.3333333333333" stroke="#dddddd" stroke-width="1.3333333333333333"/><line x1="325.85999999999996" y1="7.333333333333333" x2="325.85999999999996" y2="358.3333333333333" stroke="#dddddd" stroke-width="1.3333333333333333"/><line x1="458.0448484848485" y1="7.333333333333333" x2="458.0448484848485" y2="358.3333333333333" stroke="#dddddd" stroke-width="1.3333333333333333"/><line x1="590.2296969696969" y1="7.333333333333333" x2="590.2296969696969" y2="358.3333333333333" stroke="#dddddd" stroke-width="1.3333333333333333"/><line x1="35.05333333333333" y1="335.7080246898213" x2="616.6666666666666" y2="335.7080246898213" stroke="#dddddd" stroke-width="0.6666666666666666"/><line x1="35.05333333333333" y1="272.58794188500485" x2="616.6666666666666" y2="272.58794188500485" stroke="#dddddd" stroke-width="0.6666666666666666"/><line x1="35.05333333333333" y1="209.46785908018836" x2="616.6666666666666" y2="209.46785908018836" stroke="#dddddd" stroke-width="0.6666666666666666"/><line x1="35.05333333333333" y1="146.3477762753719" x2="616.6666666666666" y2="146.3477762753719" stroke="#dddddd" stroke-width="0.6666666666666666"/><line x1="35.05333333333333" y1="83.22769347055547" x2="616.6666666666666" y2="83.22769347055547" stroke="#dddddd" stroke-width="0.6666666666666666"/><line x1="35.05333333333333" y1="20.107610665739003" x2="616.6666666666666" y2="20.107610665739003" stroke="#dddddd" stroke-width="0.6666666666666666"/><line x1="35.05333333333333" y1="304.14798328741307" x2="616.6666666666666" y2="304.14798328741307" stroke="#dddddd" stroke-width="1.3333333333333333"/><line x1="35.05333333333333" y1="241.0279004825966" x2="616.6666666666666" y2="241.0279004825966" stroke="#dddddd" stroke-width="1.3333333333333333"/><line x1="35.05333333333333" y1="177.90781767778014" x2="616.6666666666666" y2="177.90781767778014" stroke="#dddddd" stroke-width="1.3333333333333333"/><line x1="35.05333333333333" y1="114.78773487296367" x2="616.6666666666666" y2="114.78773487296367" stroke="#dddddd" stroke-width="1.3333333333333333"/><line x1="35.05333333333333" y1="51.667652068147234" x2="616.6666666666666" y2="51.667652068147234" stroke="#dddddd" stroke-width="1.3333333333333333"/><rect x="35.05333333333333" y="7.333333333333333" width="581.6133333333332" height="351.0" fill="#ffffff" fill-opacity="0.0" stroke="#444444" stroke-width="1.3333333333333333"/><line x1="61.490303030303025" y1="358.3333333333333" x2="61.490303030303025" y2="362.0" stroke="#444444" stroke-width="1.3333333333333333"/><text x="61.490303030303025" y="374.32" fill="#333333" font-size="11.733333333333334" font-family="sans-serif" text-anchor="middle">0</text><line x1="193.6751515151515" y1="358.3333333333333" x2="193.6751515151515" y2="362.0" stroke="#444444" stroke-width="1.3333333333333333"/><text x="193.6751515151515" y="374.32" fill="#333333" font-size="11.733333333333334" font-family="sans-serif" text-anchor="middle">2</text><line x1="325.85999999999996" y1="358.3333333333333" x2="325.85999999999996" y2="362.0" stroke="#444444" stroke-width="1.3333333333333333"/><text x="325.85999999999996" y="374.32" fill="#333333" font-size="11.733333333333334" font-family="sans-serif" text-anchor="middle">4</text><line x1="458.0448484848485" y1="358.3333333333333" x2="458.0448484848485" y2="362.0" stroke="#444444" stroke-width="1.3333333333333333"/><text x="458.0448484848485" y="374.32" fill="#333333" font-size="11.733333333333334" font-family="sans-serif" text-anchor="middle">6</text><line x1="590.2296969696969" y1="358.3333333333333" x2="590.2296969696969" y2="362.0" stroke="#444444" stroke-width="1.3333333333333333"/><text x="590.2296969696969" y="374.32" fill="#333333" font-size="11.733333333333334" font-family="sans-serif" text-anchor="middle">8</text><line x1="35.05333333333333" y1="304.14798328741307" x2="31.386666666666663" y2="304.14798328741307" stroke="#444444" stroke-width="1.3333333333333333"/><text x="28.453333333333333" y="308.25464995407975" fill="#333333" font-size="11.733333333333334" font-family="sans-serif" text-anchor="end">0.0</text><line x1="35.05333333333333" y1="241.0279004825966" x2="31.386666666666663" y2="241.0279004825966" stroke="#444444" stroke-width="1.3333333333333333"/><text x="28.453333333333333" y="245.1345671492633" fill="#333333" font-size="11.733333333333334" font-family="sans-serif" text-anchor="end">0.5</text><line x1="35.05333333333333" y1="177.90781767778014" x2="31.386666666666663" y2="177.90781767778014" stroke="#444444" stroke-width="1.3333333333333333"/><text x="28.453333333333333" y="182.01448434444683" fill="#333333" font-size="11.733333333333334" font-family="sans-serif" text-anchor="end">1.0</text><line x1="35.05333333333333" y1="114.78773487296367" x2="31.386666666666663" y2="114.78773487296367" stroke="#444444" stroke-width="1.3333333333333333"/><text x="28.453333333333333" y="118.89440153963034" fill="#333333" font-size="11.733333333333334" font-family="sans-serif" text-anchor="end">1.5</text><line x1="35.05333333333333" y1="51.667652068147234" x2="31.386666666666663" y2="51.667652068147234" stroke="#444444" stroke-width="1.3333333333333333"/><text x="28.453333333333333" y="55.7743187348139" fill="#333333" font-size="11.733333333333334" font-family="sans-serif" text-anchor="end">2.0</text><circle cx="61.490303030303025" cy="304.14798328741307" r="3.1181102362204727" fill="#1f77b4" fill-opacity="0.85" stroke="none"><title>(0, 0)</title></circle><circle cx="94.53651515151515" cy="234.15721147580854" r="3.1181102362204727" fill="#1f77b4" fill-opacity="0.85" stroke="none"><title>(0.5, 0.554425538604)</title></circle><circle cx="140.8012121212121" cy="163.76398491052558" r="3.1181102362204727" fill="#1f77b4" fill-opacity="0.85" stroke="none"><title>(1.2, 1.112039085967)</title></circle><circle cx="154.01969696969695" cy="153.23421139567893" r="3.1181102362204727" fill="#1f77b4" fill-opacity="0.85" stroke="none"><title>(1.4, 1.195449729988)</title></circle><circle cx="259.7675757575757" cy="229.52489557476784" r="3.1181102362204727" fill="#1f77b4" fill-opacity="0.85" stroke="none"><title>(3, 0.59112000806)</title></circle><circle cx="272.98606060606056" cy="250.92186532840745" r="3.1181102362204727" fill="#1f77b4" fill-opacity="0.85" stroke="none"><title>(3.2, 0.421625856572)</title></circle><circle cx="424.9986363636363" cy="289.0673742037465" r="3.1181102362204727" fill="#1f77b4" fill-opacity="0.85" stroke="none"><title>(5.5, 0.11945967443)</title></circle><circle cx="524.1372727272726" cy="88.6577123717291" r="3.1181102362204727" fill="#1f77b4" fill-opacity="0.85" stroke="none"><title>(7, 1.706986598719)</title></circle><circle cx="590.2296969696969" cy="27.763035654861824" r="3.1181102362204727" fill="#1f77b4" fill-opacity="0.85" stroke="none"><title>(8, 2.189358246623)</title></circle><path d="M 61.490303030303025 306.9288682705552 L 64.14728490939547 300.5398266511475 L 66.8042667884879 294.3003606530929 L 69.46124866758032 288.21091920964056 L 72.11823054667275 282.2651793289448 L 74.77521242576518 276.45130197285016 L 77.43219430485762 270.7554313188151 L 80.08917618395004 265.16509631814193 L 82.74615806304247 259.6709811294162 L 85.40313994213491 254.26717647269575 L 88.06012182122734 248.95067315506824 L 90.71710370031977 243.72067854157052 L 93.3740855794122 238.57801470881887 L 96.03106745850462 233.524662853965 L 98.68804933759705 228.56344173511735 L 101.34503121668948 223.6977892802102 L 104.00201309578193 218.93161878525999 L 106.65899497487436 214.26922835653232 L 109.31597685396676 209.71524907838062 L 111.97295873305923 205.27462254127465 L 114.62994061215166 200.95260180466826 L 117.28692249124408 196.75477170108786 L 119.94390437033651 192.68708444403876 L 122.60088624942894 188.75590415831857 L 125.25786812852137 184.96804810758434 L 127.9148500076138 181.3308019249169 L 130.5718318867062 177.85187154757253 L 133.2288137657987 174.53922154973614 L 135.88579564489112 171.40075349204398 L 138.54277752398355 168.4438212131985 L 141.19975940307597 165.6746701226284 L 143.8567412821684 163.09798113087382 L 146.51372316126086 160.71670769317905 L 149.17070504035325 158.53227222102083 L 151.8276869194457 156.54501718100664 L 154.48466879853814 154.75471980758476 L 157.14165067763057 153.1610170458892 L 159.798632556723 151.76368072204076 L 162.45561443581542 150.56275592738385 L 165.11259631490785 149.5586047398312 L 167.7695781940003 148.75189642118437 L 170.4265600730927 148.14357324145914 L 173.08354195218513 147.7348090860076 L 175.74052383127756 147.5269695176835 L 178.39750571036998 147.52157693024267 L 181.05448758946244 147.72028179386223 L 183.71146946855487 148.1248397841513 L 186.3684513476473 148.73709414213562 L 189.02543322673972 149.55896254884306 L 191.68241510583215 150.59242791075968 L 194.33939698492458 151.83950625943748 L 196.996378864017 153.29907962798555 L 199.6533607431095 154.96389606270355 L 202.31034262220186 156.82605528269647 L 204.96732450129434 158.87771203327384 L 207.6243063803867 161.1110704445867 L 210.2812882594792 163.51838149777862 L 212.93827013857162 166.09194315238142 L 215.59525201766405 168.82410296599647 L 218.25223389675648 171.7072632646445 L 220.9092157758489 174.733889130422 L 223.56619765494133 177.89651968334036 L 226.22317953403376 181.18778335929375 L 228.8801614131262 184.60041812773787 L 231.53714329221862 188.12729783160984 L 234.19412517131107 191.76146600625702 L 236.85110705040347 195.4961784957509 L 239.50808892949593 199.32495562277046 L 242.16507080858833 203.24164298547163 L 244.82205268768078 207.2404761224655 L 247.4790345667732 211.31613680941973 L 250.13601644586564 215.46377617551525 L 252.79299832495806 219.67896272702512 L 255.4499802040505 223.95749878349017 L 258.1069620831429 228.2950555435213 L 260.7639439622354 232.68663170247555 L 263.42092584132774 237.12594896566486 L 266.0779077204202 241.60500104525045 L 268.7348895995126 246.11396193777878 L 271.3918714786051 250.64149627544512 L 274.0488533576975 255.1753175303591 L 276.70583523678994 259.7027654205739 L 279.36281711588236 264.211243423744 L 282.0197989949748 268.6884727368166 L 284.6767808740672 273.12259555568744 L 287.3337627531597 277.50218320250565 L 289.9907446322521 281.8161962733908 L 292.64772651134456 286.0539273008783 L 295.304708390437 290.2049423163508 L 297.9616902695294 294.25902860975077 L 300.61867214862184 298.2061510024835 L 303.27565402771427 302.0364165692575 L 305.9326359068067 305.7400467959416 L 308.5896177858991 309.30735591976037 L 311.24659966499155 312.7287342691994 L 313.903581544084 315.9946356053815 L 316.5605634231764 319.09556767348806 L 319.21754530226883 322.02208536570686 L 321.8745271813613 324.7647860659753 L 324.5315090604537 327.31430689308354 L 327.18849093954617 329.6615605116502 L 329.8454728186386 331.8029451555751 L 332.502454697731 333.740341262329 L 335.1594365768235 335.4758960158581 L 337.81641845591594 337.0117825970807 L 340.47340033500836 338.3501974932081 L 343.1303822141008 339.49335874945723 L 345.7873640931932 340.4435049628469 L 348.4443459722857 341.2028948761147 L 351.10132785137813 341.77380746911365 L 353.7583097304705 342.1585424705903 L 356.4152916095629 342.35942122803453 L 359.0722734886554 342.3787878787879 L 361.72925536774784 342.21901076210145 L 364.38623724684027 341.882483998657 L 367.04321912593264 341.3716291396802 L 369.7002010050251 340.6888967499532 L 372.3571828841175 339.8367677350697 L 375.01416476321 338.81775415047247 L 377.6711466423024 337.6343991363729 L 380.32812852139483 336.2892755092016 L 382.98511040048726 334.7849824122915 L 385.6420922795797 333.12413929984444 L 388.2990741586721 331.30937642507814 L 390.9560560377646 329.34332096812346 L 393.61303791685697 327.22857803101533 L 396.2700197959494 324.9677060161973 L 398.9270016750419 322.5631864547009 L 401.5839835541343 320.017389184845 L 404.24096543322673 317.3325348446947 L 406.89794731231916 314.5106577571143 L 409.5549291914116 311.55357316347073 L 412.211911070504 308.46285305683466 L 414.86889294959644 305.2398143120905 L 417.52587482868887 301.88552137021634 L 420.1828567077813 298.40080367642054 L 422.8398385868737 294.78628591345694 L 425.49682046596615 291.04242738253356 L 428.1538023450586 287.1695660606988 L 430.8107842241511 283.16796299096166 L 433.46776610324355 279.03784353321123 L 436.12474798233586 274.77943325798043 L 438.7817298614283 270.3929875442663 L 441.43871174052083 265.8788150026699 L 444.09569361961314 261.23729558353426 L 446.7526754987057 256.4688946576057 L 449.409657377798 251.57417454885814 L 452.06663925689054 246.55380505011073 L 454.72362113598285 241.40857444900894 L 457.3806030150754 236.1394026031877 L 460.0375848941678 230.74801971615992 L 462.69456677326025 225.24207654695664 L 465.35154865235256 219.63232517728653 L 468.0085305314451 213.92965165769456 L 470.66551241053753 208.1450327874029 L 473.32249428963 202.28951867341584 L 475.9794761687223 196.3742149848211 L 478.6364580478148 190.4102635243783 L 481.29343992690724 184.4088199462305 L 483.9504218059997 178.38102776318829 L 486.6074036850921 172.3379882698918 L 489.2643855641845 166.29072669232818 L 491.92136744327695 160.25015573687259 L 494.57834932236943 154.2270386483159 L 497.2353312014618 148.23195470349245 L 499.8923130805543 142.27527051871598 L 502.54929495964666 136.3671204148639 L 505.20627683873914 130.51739827165014 L 507.8632587178315 124.7357619230103 L 510.520240596924 119.03164950573412 L 513.1772224760164 113.4143056771602 L 515.8342043551088 107.8928146151842 L 518.4911862342012 102.4761363797711 L 521.1481681132937 97.17314351323753 L 523.8051499923861 91.99265549374934 L 526.4621318714785 86.94346958345757 L 529.1191137505709 82.03438751449269 L 531.7760956296634 77.2742382006484 L 534.4330775087558 72.67189720553597 L 537.0900593878482 68.23630406021182 L 539.7470412669406 63.97647876199626 L 542.4040231460332 59.901538971522804 L 545.0610050251256 56.02071962663376 L 547.7179869042179 52.34339697402345 L 550.3749687833105 48.87911944159244 L 553.0319506624029 45.63764838888824 L 555.6889325414953 42.62901261594284 L 558.3459144205876 39.86358156916185 L 561.0028962996802 37.35216331070558 L 563.6598781787726 35.10613405013991 L 566.316860057865 33.13760521947411 L 568.9738419369575 31.459629229594952 L 571.6308238160499 30.086431620969808 L 574.2878056951422 29.033628764440056 L 576.9447875742349 28.318342039102994 L 579.601769453327 27.959062298234205 L 582.2587513324197 27.97510082613735 L 584.915733211512 28.385571456872675 L 587.5727150906044 29.208120766857895 L 590.2296969696969 30.45789788884406 L 590.2296969696969 25.06782229542955 L 587.5727150906044 24.160095960823618 L 584.915733211512 23.568392562643908 L 582.2587513324197 23.28787878787879 L 579.601769453327 23.316218767182665 L 576.9447875742349 23.65254388885311 L 574.2878056951422 24.296182991430705 L 571.6308238160499 25.245644482428247 L 568.9738419369575 26.498067295180096 L 566.316860057865 28.049085354764845 L 563.6598781787726 29.892941755886984 L 561.0028962996802 32.022706463670104 L 558.3459144205876 34.430508464360585 L 555.6889325414953 37.10774152176168 L 553.0319506624029 40.04523125227081 L 550.3749687833105 43.2333646565304 L 547.7179869042179 46.66218808880967 L 545.0610050251256 50.32148046289323 L 542.4040231460332 54.2008077609186 L 539.7470412669406 58.28956378381747 L 537.0900593878482 62.577001023669176 L 534.4330775087558 67.0522546953443 L 531.7760956296634 71.70436235040009 L 529.1191137505709 76.52228107412994 L 526.4621318714785 81.49490398438274 L 523.8051499923861 86.61107754918896 L 521.1481681132937 91.85962105491622 L 518.4911862342012 97.22934931795267 L 515.8342043551088 102.70909937070124 L 513.1772224760164 108.28776130971524 L 510.520240596924 113.95431274919758 L 507.8632587178315 119.69785542128041 L 505.20627683873914 125.50765153753976 L 502.54929495964666 131.37315678900214 L 499.8923130805543 137.28404656384026 L 497.2353312014618 143.2302322960055 L 494.57834932236943 149.20186586061223 L 491.92136744327695 155.1893314282111 L 489.2643855641845 161.1832258298736 L 486.6074036850921 167.17432986462768 L 483.9504218059997 173.15357379308594 L 481.29343992690724 179.1120003954722 L 478.6364580478148 185.04072852066386 L 475.9794761687223 190.93091923570864 L 473.32249428963 196.77374574898639 L 470.66551241053753 202.56036741749426 L 468.0085305314451 208.28190746455698 L 465.35154865235256 213.92943355141574 L 462.69456677326025 219.49394003152992 L 460.0375848941678 224.9663305096813 L 457.3806030150754 230.33741863710526 L 454.72362113598285 235.6002425923296 L 452.06663925689054 240.7522635912835 L 449.409657377798 245.79132091682155 L 446.7526754987057 250.7151222818086 L 444.09569361961314 255.5212569042838 L 441.43871174052083 260.20720653344057 L 438.7817298614283 264.77035596524485 L 436.12474798233586 269.2080045752594 L 433.46776610324355 273.51738039930456 L 430.8107842241511 277.69565824159747 L 428.1538023450586 281.73998309789044 L 425.49682046596615 285.6474997532923 L 422.8398385868737 289.4153886760317 L 420.1828567077813 293.0409072683763 L 417.52587482868887 296.5214342567543 L 414.86889294959644 299.85451374913896 L 412.211911070504 303.0378946159582 L 409.5549291914116 306.0695607234098 L 406.89794731231916 308.94774837159764 L 404.24096543322673 311.67094897881236 L 401.5839835541343 314.23789721164036 L 398.9270016750419 316.64754681816555 L 396.2700197959494 318.89903786167264 L 393.61303791685697 320.9916596057002 L 390.9560560377646 322.92481300649933 L 388.2990741586721 324.69797589173334 L 385.6420922795797 326.3106727886567 L 382.98511040048726 327.76245030261987 L 380.32812852139483 329.05285811206033 L 377.6711466423024 330.18143509639935 L 375.01416476321 331.1476998241898 L 372.3571828841175 331.95114453708163 L 369.7002010050251 332.5912318005061 L 367.04321912593264 333.06739309512545 L 364.38623724684027 333.379028751753 L 361.72925536774784 333.5255087603906 L 359.0722734886554 333.5061740974837 L 356.4152916095629 333.3203383089335 L 353.7583097304705 332.9672891592108 L 351.10132785137813 332.4462902108767 L 348.4443459722857 331.75658223664084 L 345.7873640931932 330.8973843904695 L 343.1303822141008 329.8678950774349 L 340.47340033500836 328.6672924654947 L 337.81641845591594 327.29473457688727 L 335.1594365768235 325.7493588820489 L 332.502454697731 324.03028129341084 L 329.8454728186386 322.1365944171109 L 327.18849093954617 320.067364862315 L 324.5315090604537 317.8218134413933 L 321.8745271813613 315.40336060578335 L 319.21754530226883 312.8196230802792 L 316.5605634231764 310.0783629935265 L 313.903581544084 307.1873027393185 L 311.24659966499155 304.15412221969814 L 308.5896177858991 300.98645418970256 L 305.9326359068067 297.69187742030977 L 303.27565402771427 294.27790724986113 L 300.61867214862184 290.75198292543666 L 297.9616902695294 287.1214509427606 L 295.304708390437 283.39354338639714 L 292.64772651134456 279.575350087607 L 289.9907446322521 275.673783346188 L 287.3337627531597 271.69553420337866 L 284.6767808740672 267.6470202015695 L 282.0197989949748 263.53432694673586 L 279.36281711588236 259.3631507708824 L 276.70583523678994 255.1387588797601 L 274.0488533576975 250.86599748017198 L 271.3918714786051 246.54939505962784 L 268.7348895995126 242.19341634603637 L 266.0779077204202 237.80289982136293 L 263.42092584132774 233.38363512765795 L 260.7639439622354 228.9429212713237 L 258.1069620831429 224.48987697437667 L 255.4499802040505 220.0353489519844 L 252.79299832495806 215.59146090935965 L 250.13601644586564 211.17100905496855 L 247.4790345667732 206.78692071820763 L 244.82205268768078 202.4518894152052 L 242.16507080858833 198.17819128499792 L 239.50808892949593 193.97763311310896 L 236.85110705040347 189.86157544800483 L 234.19412517131107 185.84098889769712 L 231.53714329221862 181.92651879471998 L 228.8801614131262 178.1285459930007 L 226.22317953403376 174.4572390377421 L 223.56619765494133 170.92259678173684 L 220.9092157758489 167.534482204296 L 218.25223389675648 164.3026487511695 L 215.59525201766405 161.23676055222384 L 212.93827013857162 158.34640769941146 L 210.2812882594792 155.64111752860833 L 207.6243063803867 153.1303626072713 L 204.96732450129434 150.8235659047879 L 202.31034262220186 148.73010341215706 L 199.6533607431095 146.8593042693854 L 196.996378864017 145.22044823163793 L 194.33939698492458 143.82276002787518 L 191.68241510583215 142.67442730048472 L 189.02543322673972 141.77510233661332 L 186.3684513476473 141.12001827126284 L 183.71146946855487 140.70431269163706 L 181.05448758946244 140.52305795948166 L 178.39750571036998 140.57125199654004 L 175.74052383127756 140.84380515913927 L 173.08354195218513 141.335522598174 L 170.4265600730927 142.04108138811807 L 167.7695781940003 142.9550017725428 L 165.11259631490785 144.07161231751815 L 162.45561443581542 145.38500997377758 L 159.798632556723 146.8890186838405 L 157.14165067763057 148.57715520633724 L 154.48466879853814 150.44261931333008 L 151.8276869194457 152.47833751165766 L 149.17070504035325 154.6771014271716 L 146.51372316126086 157.03184297503802 L 143.8567412821684 159.5360593025822 L 141.19975940307597 162.18432750199855 L 138.54277752398355 164.97275570924904 L 135.88579564489112 167.89917951559187 L 133.2288137657987 170.96299901117325 L 130.5718318867062 174.1647227154134 L 127.9148500076138 177.50540686966644 L 125.25786812852137 180.986170728835 L 122.60088624942894 184.6078749108931 L 119.94390437033651 188.3709597296393 L 117.28692249124408 192.2753971294485 L 114.62994061215166 196.32070591583596 L 111.97295873305923 200.5059929830249 L 109.31597685396676 204.82999784425925 L 106.65899497487436 209.29112823971096 L 104.00201309578193 213.88748044056732 L 101.34503121668948 218.6168402118995 L 98.68804933759705 223.4766603406909 L 96.03106745850462 228.46400880367577 L 93.3740855794122 233.57547820950612 L 90.71710370031977 238.80704199700824 L 88.06012182122734 244.1538360440514 L 85.40313994213491 249.60983710796987 L 82.74615806304247 255.16740723451804 L 80.08917618395004 260.81669191150144 L 77.43219430485762 266.5449365396957 L 74.77521242576518 272.33597995840415 L 72.11823054667275 278.1705057996467 L 69.46124866758032 284.0278129215998 L 66.8042667884879 289.88921696682553 L 64.14728490939547 295.7415496241961 L 61.490303030303025 301.5784145076784 Z" fill="#1f77b4" fill-opacity="0.2" stroke="none"/><line x1="61.490303030303025" y1="304.25364138911675" x2="64.14728490939547" y2="298.1406881376718" stroke="#1f77b4" stroke-width="1.4211023622047245"/><line x1="64.14728490939547" y1="298.1406881376718" x2="66.8042667884879" y2="292.0947888099592" stroke="#1f77b4" stroke-width="1.4211023622047245"/><line x1="66.8042667884879" y1="292.0947888099592" x2="69.46124866758032" y2="286.11936606562017" stroke="#1f77b4" stroke-width="1.4211023622047245"/><line x1="69.46124866758032" y1="286.11936606562017" x2="72.11823054667275" y2="280.2178425642958" stroke="#1f77b4" stroke-width="1.4211023622047245"/><line x1="72.11823054667275" y1="280.2178425642958" x2="74.77521242576518" y2="274.3936409656271" stroke="#1f77b4" stroke-width="1.4211023622047245"/><line x1="74.77521242576518" y1="274.3936409656271" x2="77.43219430485762" y2="268.6501839292554" stroke="#1f77b4" stroke-width="1.4211023622047245"/><line x1="77.43219430485762" y1="268.6501839292554" x2="80.08917618395004" y2="262.9908941148217" stroke="#1f77b4" stroke-width="1.4211023622047245"/><line x1="80.08917618395004" y1="262.9908941148217" x2="82.74615806304247" y2="257.4191941819671" stroke="#1f77b4" stroke-width="1.4211023622047245"/><line x1="82.74615806304247" y1="257.4191941819671" x2="85.40313994213491" y2="251.9385067903328" stroke="#1f77b4" stroke-width="1.4211023622047245"/><line x1="85.40313994213491" y1="251.9385067903328" x2="88.06012182122734" y2="246.55225459955983" stroke="#1f77b4" stroke-width="1.4211023622047245"/><line x1="88.06012182122734" y1="246.55225459955983" x2="90.71710370031977" y2="241.26386026928935" stroke="#1f77b4" stroke-width="1.4211023622047245"/><line x1="90.71710370031977" y1="241.26386026928935" x2="93.3740855794122" y2="236.0767464591625" stroke="#1f77b4" stroke-width="1.4211023622047245"/><line x1="93.3740855794122" y1="236.0767464591625" x2="96.03106745850462" y2="230.99433582882037" stroke="#1f77b4" stroke-width="1.4211023622047245"/><line x1="96.03106745850462" y1="230.99433582882037" x2="98.68804933759705" y2="226.02005103790412" stroke="#1f77b4" stroke-width="1.4211023622047245"/><line x1="98.68804933759705" y1="226.02005103790412" x2="101.34503121668948" y2="221.15731474605482" stroke="#1f77b4" stroke-width="1.4211023622047245"/><line x1="101.34503121668948" y1="221.15731474605482" x2="104.00201309578193" y2="216.40954961291362" stroke="#1f77b4" stroke-width="1.4211023622047245"/><line x1="104.00201309578193" y1="216.40954961291362" x2="106.65899497487436" y2="211.78017829812165" stroke="#1f77b4" stroke-width="1.4211023622047245"/><line x1="106.65899497487436" y1="211.78017829812165" x2="109.31597685396676" y2="207.27262346131994" stroke="#1f77b4" stroke-width="1.4211023622047245"/><line x1="109.31597685396676" y1="207.27262346131994" x2="111.97295873305923" y2="202.89030776214977" stroke="#1f77b4" stroke-width="1.4211023622047245"/><line x1="111.97295873305923" y1="202.89030776214977" x2="114.62994061215166" y2="198.6366538602521" stroke="#1f77b4" stroke-width="1.4211023622047245"/><line x1="114.62994061215166" y1="198.6366538602521" x2="117.28692249124408" y2="194.51508441526818" stroke="#1f77b4" stroke-width="1.4211023622047245"/><line x1="117.28692249124408" y1="194.51508441526818" x2="119.94390437033651" y2="190.52902208683906" stroke="#1f77b4" stroke-width="1.4211023622047245"/><line x1="119.94390437033651" y1="190.52902208683906" x2="122.60088624942894" y2="186.68188953460583" stroke="#1f77b4" stroke-width="1.4211023622047245"/><line x1="122.60088624942894" y1="186.68188953460583" x2="125.25786812852137" y2="182.9771094182097" stroke="#1f77b4" stroke-width="1.4211023622047245"/><line x1="125.25786812852137" y1="182.9771094182097" x2="127.9148500076138" y2="179.4181043972917" stroke="#1f77b4" stroke-width="1.4211023622047245"/><line x1="127.9148500076138" y1="179.4181043972917" x2="130.5718318867062" y2="176.00829713149295" stroke="#1f77b4" stroke-width="1.4211023622047245"/><line x1="130.5718318867062" y1="176.00829713149295" x2="133.2288137657987" y2="172.75111028045472" stroke="#1f77b4" stroke-width="1.4211023622047245"/><line x1="133.2288137657987" y1="172.75111028045472" x2="135.88579564489112" y2="169.64996650381795" stroke="#1f77b4" stroke-width="1.4211023622047245"/><line x1="135.88579564489112" y1="169.64996650381795" x2="138.54277752398355" y2="166.7082884612238" stroke="#1f77b4" stroke-width="1.4211023622047245"/><line x1="138.54277752398355" y1="166.7082884612238" x2="141.19975940307597" y2="163.92949881231345" stroke="#1f77b4" stroke-width="1.4211023622047245"/><line x1="141.19975940307597" y1="163.92949881231345" x2="143.8567412821684" y2="161.317020216728" stroke="#1f77b4" stroke-width="1.4211023622047245"/><line x1="143.8567412821684" y1="161.317020216728" x2="146.51372316126086" y2="158.87427533410852" stroke="#1f77b4" stroke-width="1.4211023622047245"/><line x1="146.51372316126086" y1="158.87427533410852" x2="149.17070504035325" y2="156.60468682409623" stroke="#1f77b4" stroke-width="1.4211023622047245"/><line x1="149.17070504035325" y1="156.60468682409623" x2="151.8276869194457" y2="154.51167734633216" stroke="#1f77b4" stroke-width="1.4211023622047245"/><line x1="151.8276869194457" y1="154.51167734633216" x2="154.48466879853814" y2="152.59866956045744" stroke="#1f77b4" stroke-width="1.4211023622047245"/><line x1="154.48466879853814" y1="152.59866956045744" x2="157.14165067763057" y2="150.86908612611322" stroke="#1f77b4" stroke-width="1.4211023622047245"/><line x1="157.14165067763057" y1="150.86908612611322" x2="159.798632556723" y2="149.3263497029406" stroke="#1f77b4" stroke-width="1.4211023622047245"/><line x1="159.798632556723" y1="149.3263497029406" x2="162.45561443581542" y2="147.97388295058073" stroke="#1f77b4" stroke-width="1.4211023622047245"/><line x1="162.45561443581542" y1="147.97388295058073" x2="165.11259631490785" y2="146.81510852867464" stroke="#1f77b4" stroke-width="1.4211023622047245"/><line x1="165.11259631490785" y1="146.81510852867464" x2="167.7695781940003" y2="145.85344909686359" stroke="#1f77b4" stroke-width="1.4211023622047245"/><line x1="167.7695781940003" y1="145.85344909686359" x2="170.4265600730927" y2="145.0923273147886" stroke="#1f77b4" stroke-width="1.4211023622047245"/><line x1="170.4265600730927" y1="145.0923273147886" x2="173.08354195218513" y2="144.53516584209083" stroke="#1f77b4" stroke-width="1.4211023622047245"/><line x1="173.08354195218513" y1="144.53516584209083" x2="175.74052383127756" y2="144.18538733841137" stroke="#1f77b4" stroke-width="1.4211023622047245"/><line x1="175.74052383127756" y1="144.18538733841137" x2="178.39750571036998" y2="144.0464144633914" stroke="#1f77b4" stroke-width="1.4211023622047245"/><line x1="178.39750571036998" y1="144.0464144633914" x2="181.05448758946244" y2="144.12166987667194" stroke="#1f77b4" stroke-width="1.4211023622047245"/><line x1="181.05448758946244" y1="144.12166987667194" x2="183.71146946855487" y2="144.41457623789418" stroke="#1f77b4" stroke-width="1.4211023622047245"/><line x1="183.71146946855487" y1="144.41457623789418" x2="186.3684513476473" y2="144.92855620669926" stroke="#1f77b4" stroke-width="1.4211023622047245"/><line x1="186.3684513476473" y1="144.92855620669926" x2="189.02543322673972" y2="145.6670324427282" stroke="#1f77b4" stroke-width="1.4211023622047245"/><line x1="189.02543322673972" y1="145.6670324427282" x2="191.68241510583215" y2="146.63342760562222" stroke="#1f77b4" stroke-width="1.4211023622047245"/><line x1="191.68241510583215" y1="146.63342760562222" x2="194.33939698492458" y2="147.83113314365633" stroke="#1f77b4" stroke-width="1.4211023622047245"/><line x1="194.33939698492458" y1="147.83113314365633" x2="196.996378864017" y2="149.25976392981175" stroke="#1f77b4" stroke-width="1.4211023622047245"/><line x1="196.996378864017" y1="149.25976392981175" x2="199.6533607431095" y2="150.91160016604448" stroke="#1f77b4" stroke-width="1.4211023622047245"/><line x1="199.6533607431095" y1="150.91160016604448" x2="202.31034262220186" y2="152.7780793474268" stroke="#1f77b4" stroke-width="1.4211023622047245"/><line x1="202.31034262220186" y1="152.7780793474268" x2="204.96732450129434" y2="154.85063896903085" stroke="#1f77b4" stroke-width="1.4211023622047245"/><line x1="204.96732450129434" y1="154.85063896903085" x2="207.6243063803867" y2="157.120716525929" stroke="#1f77b4" stroke-width="1.4211023622047245"/><line x1="207.6243063803867" y1="157.120716525929" x2="210.2812882594792" y2="159.57974951319346" stroke="#1f77b4" stroke-width="1.4211023622047245"/><line x1="210.2812882594792" y1="159.57974951319346" x2="212.93827013857162" y2="162.21917542589642" stroke="#1f77b4" stroke-width="1.4211023622047245"/><line x1="212.93827013857162" y1="162.21917542589642" x2="215.59525201766405" y2="165.03043175911014" stroke="#1f77b4" stroke-width="1.4211023622047245"/><line x1="215.59525201766405" y1="165.03043175911014" x2="218.25223389675648" y2="168.00495600790697" stroke="#1f77b4" stroke-width="1.4211023622047245"/><line x1="218.25223389675648" y1="168.00495600790697" x2="220.9092157758489" y2="171.13418566735905" stroke="#1f77b4" stroke-width="1.4211023622047245"/><line x1="220.9092157758489" y1="171.13418566735905" x2="223.56619765494133" y2="174.4095582325386" stroke="#1f77b4" stroke-width="1.4211023622047245"/><line x1="223.56619765494133" y1="174.4095582325386" x2="226.22317953403376" y2="177.82251119851793" stroke="#1f77b4" stroke-width="1.4211023622047245"/><line x1="226.22317953403376" y1="177.82251119851793" x2="228.8801614131262" y2="181.36448206036928" stroke="#1f77b4" stroke-width="1.4211023622047245"/><line x1="228.8801614131262" y1="181.36448206036928" x2="231.53714329221862" y2="185.0269083131649" stroke="#1f77b4" stroke-width="1.4211023622047245"/><line x1="231.53714329221862" y1="185.0269083131649" x2="234.19412517131107" y2="188.80122745197707" stroke="#1f77b4" stroke-width="1.4211023622047245"/><line x1="234.19412517131107" y1="188.80122745197707" x2="236.85110705040347" y2="192.67887697187786" stroke="#1f77b4" stroke-width="1.4211023622047245"/><line x1="236.85110705040347" y1="192.67887697187786" x2="239.50808892949593" y2="196.65129436793973" stroke="#1f77b4" stroke-width="1.4211023622047245"/><line x1="239.50808892949593" y1="196.65129436793973" x2="242.16507080858833" y2="200.70991713523478" stroke="#1f77b4" stroke-width="1.4211023622047245"/><line x1="242.16507080858833" y1="200.70991713523478" x2="244.82205268768078" y2="204.84618276883535" stroke="#1f77b4" stroke-width="1.4211023622047245"/><line x1="244.82205268768078" y1="204.84618276883535" x2="247.4790345667732" y2="209.05152876381368" stroke="#1f77b4" stroke-width="1.4211023622047245"/><line x1="247.4790345667732" y1="209.05152876381368" x2="250.13601644586564" y2="213.31739261524186" stroke="#1f77b4" stroke-width="1.4211023622047245"/><line x1="250.13601644586564" y1="213.31739261524186" x2="252.79299832495806" y2="217.63521181819237" stroke="#1f77b4" stroke-width="1.4211023622047245"/><line x1="252.79299832495806" y1="217.63521181819237" x2="255.4499802040505" y2="221.9964238677373" stroke="#1f77b4" stroke-width="1.4211023622047245"/><line x1="255.4499802040505" y1="221.9964238677373" x2="258.1069620831429" y2="226.39246625894899" stroke="#1f77b4" stroke-width="1.4211023622047245"/><line x1="258.1069620831429" y1="226.39246625894899" x2="260.7639439622354" y2="230.81477648689958" stroke="#1f77b4" stroke-width="1.4211023622047245"/><line x1="260.7639439622354" y1="230.81477648689958" x2="263.42092584132774" y2="235.25479204666138" stroke="#1f77b4" stroke-width="1.4211023622047245"/><line x1="263.42092584132774" y1="235.25479204666138" x2="266.0779077204202" y2="239.7039504333067" stroke="#1f77b4" stroke-width="1.4211023622047245"/><line x1="266.0779077204202" y1="239.7039504333067" x2="268.7348895995126" y2="244.1536891419076" stroke="#1f77b4" stroke-width="1.4211023622047245"/><line x1="268.7348895995126" y1="244.1536891419076" x2="271.3918714786051" y2="248.59544566753647" stroke="#1f77b4" stroke-width="1.4211023622047245"/><line x1="271.3918714786051" y1="248.59544566753647" x2="274.0488533576975" y2="253.02065750526555" stroke="#1f77b4" stroke-width="1.4211023622047245"/><line x1="274.0488533576975" y1="253.02065750526555" x2="276.70583523678994" y2="257.420762150167" stroke="#1f77b4" stroke-width="1.4211023622047245"/><line x1="276.70583523678994" y1="257.420762150167" x2="279.36281711588236" y2="261.7871970973132" stroke="#1f77b4" stroke-width="1.4211023622047245"/><line x1="279.36281711588236" y1="261.7871970973132" x2="282.0197989949748" y2="266.11139984177623" stroke="#1f77b4" stroke-width="1.4211023622047245"/><line x1="282.0197989949748" y1="266.11139984177623" x2="284.6767808740672" y2="270.38480787862846" stroke="#1f77b4" stroke-width="1.4211023622047245"/><line x1="284.6767808740672" y1="270.38480787862846" x2="287.3337627531597" y2="274.59885870294215" stroke="#1f77b4" stroke-width="1.4211023622047245"/><line x1="287.3337627531597" y1="274.59885870294215" x2="289.9907446322521" y2="278.7449898097894" stroke="#1f77b4" stroke-width="1.4211023622047245"/><line x1="289.9907446322521" y1="278.7449898097894" x2="292.64772651134456" y2="282.81463869424266" stroke="#1f77b4" stroke-width="1.4211023622047245"/><line x1="292.64772651134456" y1="282.81463869424266" x2="295.304708390437" y2="286.79924285137395" stroke="#1f77b4" stroke-width="1.4211023622047245"/><line x1="295.304708390437" y1="286.79924285137395" x2="297.9616902695294" y2="290.6902397762557" stroke="#1f77b4" stroke-width="1.4211023622047245"/><line x1="297.9616902695294" y1="290.6902397762557" x2="300.61867214862184" y2="294.4790669639601" stroke="#1f77b4" stroke-width="1.4211023622047245"/><line x1="300.61867214862184" y1="294.4790669639601" x2="303.27565402771427" y2="298.1571619095593" stroke="#1f77b4" stroke-width="1.4211023622047245"/><line x1="303.27565402771427" y1="298.1571619095593" x2="305.9326359068067" y2="301.7159621081257" stroke="#1f77b4" stroke-width="1.4211023622047245"/><line x1="305.9326359068067" y1="301.7159621081257" x2="308.5896177858991" y2="305.14690505473146" stroke="#1f77b4" stroke-width="1.4211023622047245"/><line x1="308.5896177858991" y1="305.14690505473146" x2="311.24659966499155" y2="308.4414282444488" stroke="#1f77b4" stroke-width="1.4211023622047245"/><line x1="311.24659966499155" y1="308.4414282444488" x2="313.903581544084" y2="311.59096917235" stroke="#1f77b4" stroke-width="1.4211023622047245"/><line x1="313.903581544084" y1="311.59096917235" x2="316.5605634231764" y2="314.58696533350735" stroke="#1f77b4" stroke-width="1.4211023622047245"/><line x1="316.5605634231764" y1="314.58696533350735" x2="319.21754530226883" y2="317.42085422299306" stroke="#1f77b4" stroke-width="1.4211023622047245"/><line x1="319.21754530226883" y1="317.42085422299306" x2="321.8745271813613" y2="320.08407333587934" stroke="#1f77b4" stroke-width="1.4211023622047245"/><line x1="321.8745271813613" y1="320.08407333587934" x2="324.5315090604537" y2="322.5680601672384" stroke="#1f77b4" stroke-width="1.4211023622047245"/><line x1="324.5315090604537" y1="322.5680601672384" x2="327.18849093954617" y2="324.86446268698256" stroke="#1f77b4" stroke-width="1.4211023622047245"/><line x1="327.18849093954617" y1="324.86446268698256" x2="329.8454728186386" y2="326.969769786343" stroke="#1f77b4" stroke-width="1.4211023622047245"/><line x1="329.8454728186386" y1="326.969769786343" x2="332.502454697731" y2="328.88531127786996" stroke="#1f77b4" stroke-width="1.4211023622047245"/><line x1="332.502454697731" y1="328.88531127786996" x2="335.1594365768235" y2="330.6126274489535" stroke="#1f77b4" stroke-width="1.4211023622047245"/><line x1="335.1594365768235" y1="330.6126274489535" x2="337.81641845591594" y2="332.15325858698395" stroke="#1f77b4" stroke-width="1.4211023622047245"/><line x1="337.81641845591594" y1="332.15325858698395" x2="340.47340033500836" y2="333.5087449793514" stroke="#1f77b4" stroke-width="1.4211023622047245"/><line x1="340.47340033500836" y1="333.5087449793514" x2="343.1303822141008" y2="334.6806269134461" stroke="#1f77b4" stroke-width="1.4211023622047245"/><line x1="343.1303822141008" y1="334.6806269134461" x2="345.7873640931932" y2="335.6704446766581" stroke="#1f77b4" stroke-width="1.4211023622047245"/><line x1="345.7873640931932" y1="335.6704446766581" x2="348.4443459722857" y2="336.4797385563778" stroke="#1f77b4" stroke-width="1.4211023622047245"/><line x1="348.4443459722857" y1="336.4797385563778" x2="351.10132785137813" y2="337.1100488399952" stroke="#1f77b4" stroke-width="1.4211023622047245"/><line x1="351.10132785137813" y1="337.1100488399952" x2="353.7583097304705" y2="337.5629158149005" stroke="#1f77b4" stroke-width="1.4211023622047245"/><line x1="353.7583097304705" y1="337.5629158149005" x2="356.4152916095629" y2="337.839879768484" stroke="#1f77b4" stroke-width="1.4211023622047245"/><line x1="356.4152916095629" y1="337.839879768484" x2="359.0722734886554" y2="337.9424809881358" stroke="#1f77b4" stroke-width="1.4211023622047245"/><line x1="359.0722734886554" y1="337.9424809881358" x2="361.72925536774784" y2="337.8722597612461" stroke="#1f77b4" stroke-width="1.4211023622047245"/><line x1="361.72925536774784" y1="337.8722597612461" x2="364.38623724684027" y2="337.630756375205" stroke="#1f77b4" stroke-width="1.4211023622047245"/><line x1="364.38623724684027" y1="337.630756375205" x2="367.04321912593264" y2="337.2195111174028" stroke="#1f77b4" stroke-width="1.4211023622047245"/><line x1="367.04321912593264" y1="337.2195111174028" x2="369.7002010050251" y2="336.64006427522963" stroke="#1f77b4" stroke-width="1.4211023622047245"/><line x1="369.7002010050251" y1="336.64006427522963" x2="372.3571828841175" y2="335.89395613607564" stroke="#1f77b4" stroke-width="1.4211023622047245"/><line x1="372.3571828841175" y1="335.89395613607564" x2="375.01416476321" y2="334.98272698733115" stroke="#1f77b4" stroke-width="1.4211023622047245"/><line x1="375.01416476321" y1="334.98272698733115" x2="377.6711466423024" y2="333.90791711638616" stroke="#1f77b4" stroke-width="1.4211023622047245"/><line x1="377.6711466423024" y1="333.90791711638616" x2="380.32812852139483" y2="332.671066810631" stroke="#1f77b4" stroke-width="1.4211023622047245"/><line x1="380.32812852139483" y1="332.671066810631" x2="382.98511040048726" y2="331.27371635745567" stroke="#1f77b4" stroke-width="1.4211023622047245"/><line x1="382.98511040048726" y1="331.27371635745567" x2="385.6420922795797" y2="329.71740604425054" stroke="#1f77b4" stroke-width="1.4211023622047245"/><line x1="385.6420922795797" y1="329.71740604425054" x2="388.2990741586721" y2="328.0036761584057" stroke="#1f77b4" stroke-width="1.4211023622047245"/><line x1="388.2990741586721" y1="328.0036761584057" x2="390.9560560377646" y2="326.13406698731137" stroke="#1f77b4" stroke-width="1.4211023622047245"/><line x1="390.9560560377646" y1="326.13406698731137" x2="393.61303791685697" y2="324.1101188183577" stroke="#1f77b4" stroke-width="1.4211023622047245"/><line x1="393.61303791685697" y1="324.1101188183577" x2="396.2700197959494" y2="321.933371938935" stroke="#1f77b4" stroke-width="1.4211023622047245"/><line x1="396.2700197959494" y1="321.933371938935" x2="398.9270016750419" y2="319.60536663643325" stroke="#1f77b4" stroke-width="1.4211023622047245"/><line x1="398.9270016750419" y1="319.60536663643325" x2="401.5839835541343" y2="317.1276431982427" stroke="#1f77b4" stroke-width="1.4211023622047245"/><line x1="401.5839835541343" y1="317.1276431982427" x2="404.24096543322673" y2="314.5017419117535" stroke="#1f77b4" stroke-width="1.4211023622047245"/><line x1="404.24096543322673" y1="314.5017419117535" x2="406.89794731231916" y2="311.72920306435594" stroke="#1f77b4" stroke-width="1.4211023622047245"/><line x1="406.89794731231916" y1="311.72920306435594" x2="409.5549291914116" y2="308.81156694344025" stroke="#1f77b4" stroke-width="1.4211023622047245"/><line x1="409.5549291914116" y1="308.81156694344025" x2="412.211911070504" y2="305.7503738363964" stroke="#1f77b4" stroke-width="1.4211023622047245"/><line x1="412.211911070504" y1="305.7503738363964" x2="414.86889294959644" y2="302.54716403061474" stroke="#1f77b4" stroke-width="1.4211023622047245"/><line x1="414.86889294959644" y1="302.54716403061474" x2="417.52587482868887" y2="299.20347781348534" stroke="#1f77b4" stroke-width="1.4211023622047245"/><line x1="417.52587482868887" y1="299.20347781348534" x2="420.1828567077813" y2="295.72085547239845" stroke="#1f77b4" stroke-width="1.4211023622047245"/><line x1="420.1828567077813" y1="295.72085547239845" x2="422.8398385868737" y2="292.10083729474434" stroke="#1f77b4" stroke-width="1.4211023622047245"/><line x1="422.8398385868737" y1="292.10083729474434" x2="425.49682046596615" y2="288.34496356791294" stroke="#1f77b4" stroke-width="1.4211023622047245"/><line x1="425.49682046596615" y1="288.34496356791294" x2="428.1538023450586" y2="284.4547745792946" stroke="#1f77b4" stroke-width="1.4211023622047245"/><line x1="428.1538023450586" y1="284.4547745792946" x2="430.8107842241511" y2="280.43181061627956" stroke="#1f77b4" stroke-width="1.4211023622047245"/><line x1="430.8107842241511" y1="280.43181061627956" x2="433.46776610324355" y2="276.2776119662579" stroke="#1f77b4" stroke-width="1.4211023622047245"/><line x1="433.46776610324355" y1="276.2776119662579" x2="436.12474798233586" y2="271.9937189166199" stroke="#1f77b4" stroke-width="1.4211023622047245"/><line x1="436.12474798233586" y1="271.9937189166199" x2="438.7817298614283" y2="267.5816717547556" stroke="#1f77b4" stroke-width="1.4211023622047245"/><line x1="438.7817298614283" y1="267.5816717547556" x2="441.43871174052083" y2="263.04301076805524" stroke="#1f77b4" stroke-width="1.4211023622047245"/><line x1="441.43871174052083" y1="263.04301076805524" x2="444.09569361961314" y2="258.379276243909" stroke="#1f77b4" stroke-width="1.4211023622047245"/><line x1="444.09569361961314" y1="258.379276243909" x2="446.7526754987057" y2="253.59200846970714" stroke="#1f77b4" stroke-width="1.4211023622047245"/><line x1="446.7526754987057" y1="253.59200846970714" x2="449.409657377798" y2="248.68274773283986" stroke="#1f77b4" stroke-width="1.4211023622047245"/><line x1="449.409657377798" y1="248.68274773283986" x2="452.06663925689054" y2="243.65303432069712" stroke="#1f77b4" stroke-width="1.4211023622047245"/><line x1="452.06663925689054" y1="243.65303432069712" x2="454.72362113598285" y2="238.50440852066927" stroke="#1f77b4" stroke-width="1.4211023622047245"/><line x1="454.72362113598285" y1="238.50440852066927" x2="457.3806030150754" y2="233.23841062014645" stroke="#1f77b4" stroke-width="1.4211023622047245"/><line x1="457.3806030150754" y1="233.23841062014645" x2="460.0375848941678" y2="227.85717511292063" stroke="#1f77b4" stroke-width="1.4211023622047245"/><line x1="460.0375848941678" y1="227.85717511292063" x2="462.69456677326025" y2="222.36800828924328" stroke="#1f77b4" stroke-width="1.4211023622047245"/><line x1="462.69456677326025" y1="222.36800828924328" x2="465.35154865235256" y2="216.78087936435114" stroke="#1f77b4" stroke-width="1.4211023622047245"/><line x1="465.35154865235256" y1="216.78087936435114" x2="468.0085305314451" y2="211.10577956112576" stroke="#1f77b4" stroke-width="1.4211023622047245"/><line x1="468.0085305314451" y1="211.10577956112576" x2="470.66551241053753" y2="205.35270010244858" stroke="#1f77b4" stroke-width="1.4211023622047245"/><line x1="470.66551241053753" y1="205.35270010244858" x2="473.32249428963" y2="199.53163221120113" stroke="#1f77b4" stroke-width="1.4211023622047245"/><line x1="473.32249428963" y1="199.53163221120113" x2="475.9794761687223" y2="193.65256711026487" stroke="#1f77b4" stroke-width="1.4211023622047245"/><line x1="475.9794761687223" y1="193.65256711026487" x2="478.6364580478148" y2="187.7254960225211" stroke="#1f77b4" stroke-width="1.4211023622047245"/><line x1="478.6364580478148" y1="187.7254960225211" x2="481.29343992690724" y2="181.76041017085134" stroke="#1f77b4" stroke-width="1.4211023622047245"/><line x1="481.29343992690724" y1="181.76041017085134" x2="483.9504218059997" y2="175.7673007781371" stroke="#1f77b4" stroke-width="1.4211023622047245"/><line x1="483.9504218059997" y1="175.7673007781371" x2="486.6074036850921" y2="169.75615906725972" stroke="#1f77b4" stroke-width="1.4211023622047245"/><line x1="486.6074036850921" y1="169.75615906725972" x2="489.2643855641845" y2="163.73697626110095" stroke="#1f77b4" stroke-width="1.4211023622047245"/><line x1="489.2643855641845" y1="163.73697626110095" x2="491.92136744327695" y2="157.71974358254184" stroke="#1f77b4" stroke-width="1.4211023622047245"/><line x1="491.92136744327695" y1="157.71974358254184" x2="494.57834932236943" y2="151.71445225446408" stroke="#1f77b4" stroke-width="1.4211023622047245"/><line x1="494.57834932236943" y1="151.71445225446408" x2="497.2353312014618" y2="145.73109349974902" stroke="#1f77b4" stroke-width="1.4211023622047245"/><line x1="497.2353312014618" y1="145.73109349974902" x2="499.8923130805543" y2="139.7796585412781" stroke="#1f77b4" stroke-width="1.4211023622047245"/><line x1="499.8923130805543" y1="139.7796585412781" x2="502.54929495964666" y2="133.87013860193304" stroke="#1f77b4" stroke-width="1.4211023622047245"/><line x1="502.54929495964666" y1="133.87013860193304" x2="505.20627683873914" y2="128.01252490459495" stroke="#1f77b4" stroke-width="1.4211023622047245"/><line x1="505.20627683873914" y1="128.01252490459495" x2="507.8632587178315" y2="122.21680867214539" stroke="#1f77b4" stroke-width="1.4211023622047245"/><line x1="507.8632587178315" y1="122.21680867214539" x2="510.520240596924" y2="116.49298112746585" stroke="#1f77b4" stroke-width="1.4211023622047245"/><line x1="510.520240596924" y1="116.49298112746585" x2="513.1772224760164" y2="110.85103349343774" stroke="#1f77b4" stroke-width="1.4211023622047245"/><line x1="513.1772224760164" y1="110.85103349343774" x2="515.8342043551088" y2="105.30095699294273" stroke="#1f77b4" stroke-width="1.4211023622047245"/><line x1="515.8342043551088" y1="105.30095699294273" x2="518.4911862342012" y2="99.85274284886187" stroke="#1f77b4" stroke-width="1.4211023622047245"/><line x1="518.4911862342012" y1="99.85274284886187" x2="521.1481681132937" y2="94.51638228407685" stroke="#1f77b4" stroke-width="1.4211023622047245"/><line x1="521.1481681132937" y1="94.51638228407685" x2="523.8051499923861" y2="89.30186652146918" stroke="#1f77b4" stroke-width="1.4211023622047245"/><line x1="523.8051499923861" y1="89.30186652146918" x2="526.4621318714785" y2="84.21918678392015" stroke="#1f77b4" stroke-width="1.4211023622047245"/><line x1="526.4621318714785" y1="84.21918678392015" x2="529.1191137505709" y2="79.27833429431132" stroke="#1f77b4" stroke-width="1.4211023622047245"/><line x1="529.1191137505709" y1="79.27833429431132" x2="531.7760956296634" y2="74.48930027552424" stroke="#1f77b4" stroke-width="1.4211023622047245"/><line x1="531.7760956296634" y1="74.48930027552424" x2="534.4330775087558" y2="69.86207595044016" stroke="#1f77b4" stroke-width="1.4211023622047245"/><line x1="534.4330775087558" y1="69.86207595044016" x2="537.0900593878482" y2="65.40665254194053" stroke="#1f77b4" stroke-width="1.4211023622047245"/><line x1="537.0900593878482" y1="65.40665254194053" x2="539.7470412669406" y2="61.1330212729069" stroke="#1f77b4" stroke-width="1.4211023622047245"/><line x1="539.7470412669406" y1="61.1330212729069" x2="542.4040231460332" y2="57.05117336622068" stroke="#1f77b4" stroke-width="1.4211023622047245"/><line x1="542.4040231460332" y1="57.05117336622068" x2="545.0610050251256" y2="53.17110004476349" stroke="#1f77b4" stroke-width="1.4211023622047245"/><line x1="545.0610050251256" y1="53.17110004476349" x2="547.7179869042179" y2="49.50279253141654" stroke="#1f77b4" stroke-width="1.4211023622047245"/><line x1="547.7179869042179" y1="49.50279253141654" x2="550.3749687833105" y2="46.05624204906136" stroke="#1f77b4" stroke-width="1.4211023622047245"/><line x1="550.3749687833105" y1="46.05624204906136" x2="553.0319506624029" y2="42.84143982057947" stroke="#1f77b4" stroke-width="1.4211023622047245"/><line x1="553.0319506624029" y1="42.84143982057947" x2="555.6889325414953" y2="39.86837706885232" stroke="#1f77b4" stroke-width="1.4211023622047245"/><line x1="555.6889325414953" y1="39.86837706885232" x2="558.3459144205876" y2="37.14704501676124" stroke="#1f77b4" stroke-width="1.4211023622047245"/><line x1="558.3459144205876" y1="37.14704501676124" x2="561.0028962996802" y2="34.68743488718784" stroke="#1f77b4" stroke-width="1.4211023622047245"/><line x1="561.0028962996802" y1="34.68743488718784" x2="563.6598781787726" y2="32.49953790301345" stroke="#1f77b4" stroke-width="1.4211023622047245"/><line x1="563.6598781787726" y1="32.49953790301345" x2="566.316860057865" y2="30.59334528711944" stroke="#1f77b4" stroke-width="1.4211023622047245"/><line x1="566.316860057865" y1="30.59334528711944" x2="568.9738419369575" y2="28.978848262387523" stroke="#1f77b4" stroke-width="1.4211023622047245"/><line x1="568.9738419369575" y1="28.978848262387523" x2="571.6308238160499" y2="27.666038051699008" stroke="#1f77b4" stroke-width="1.4211023622047245"/><line x1="571.6308238160499" y1="27.666038051699008" x2="574.2878056951422" y2="26.6649058779354" stroke="#1f77b4" stroke-width="1.4211023622047245"/><line x1="574.2878056951422" y1="26.6649058779354" x2="576.9447875742349" y2="25.985442963977977" stroke="#1f77b4" stroke-width="1.4211023622047245"/><line x1="576.9447875742349" y1="25.985442963977977" x2="579.601769453327" y2="25.637640532708396" stroke="#1f77b4" stroke-width="1.4211023622047245"/><line x1="579.601769453327" y1="25.637640532708396" x2="582.2587513324197" y2="25.63148980700805" stroke="#1f77b4" stroke-width="1.4211023622047245"/><line x1="582.2587513324197" y1="25.63148980700805" x2="584.915733211512" y2="25.976982009758366" stroke="#1f77b4" stroke-width="1.4211023622047245"/><line x1="584.915733211512" y1="25.976982009758366" x2="587.5727150906044" y2="26.684108363840778" stroke="#1f77b4" stroke-width="1.4211023622047245"/><line x1="587.5727150906044" y1="26.684108363840778" x2="590.2296969696969" y2="27.762860092136783" stroke="#1f77b4" stroke-width="1.4211023622047245"/><line x1="127.58272727272723" y1="181.77696126205655" x2="127.58272727272723" y2="177.9328206658145" stroke="#1f77b4" stroke-width="1.8897637795275593"/><line x1="325.85999999999996" y1="328.5137095349695" x2="325.85999999999996" y2="318.9666218541413" stroke="#1f77b4" stroke-width="1.8897637795275593"/><line x1="524.1372727272726" y1="91.35414630968583" x2="524.1372727272726" y2="85.96408743737345" stroke="#1f77b4" stroke-width="1.8897637795275593"/><circle cx="127.58272727272723" cy="179.85489096393547" r="3.1181102362204727" fill="#1f77b4" fill-opacity="0.85" stroke="none"><title>(1, 0.984576435901)</title></circle><circle cx="325.85999999999996" cy="323.74016569455534" r="3.1181102362204727" fill="#1f77b4" fill-opacity="0.85" stroke="none"><title>(4, -0.155197692529)</title></circle><circle cx="524.1372727272726" cy="88.65911687352968" r="3.1181102362204727" fill="#1f77b4" fill-opacity="0.85" stroke="none"><title>(7, 1.706975473085)</title></circle></svg>