<svg xmlns="http://www.w3.org/2000/svg" width="624" height="384" viewBox="0 0 624 384"><rect x="0.0" y="0.0" width="624.0" height="384.0" fill="#ffffff" fill-opacity="1.0" stroke="none"/><line x1="109.6563947163947" y1="7.333333333333333" x2="109.6563947163947" y2="358.3333333333333" stroke="#dddddd" stroke-width="0.6666666666666666"/><line x1="246.87162393162387" y1="7.333333333333333" x2="246.87162393162387" y2="358.3333333333333" stroke="#dddddd" stroke-width="0.6666666666666666"/><line x1="384.08685314685306" y1="7.333333333333333" x2="384.08685314685306" y2="358.3333333333333" stroke="#dddddd" stroke-width="0.6666666666666666"/><line x1="521.3020823620823" y1="7.333333333333333" x2="521.3020823620823" y2="358.3333333333333" stroke="#dddddd" stroke-width="0.6666666666666666"/><line x1="41.04878010878011" y1="7.333333333333333" x2="41.04878010878011" y2="358.3333333333333" stroke="#dddddd" stroke-width="1.3333333333333333"/><line x1="178.2640093240093" y1="7.333333333333333" x2="178.2640093240093" y2="358.3333333333333" stroke="#dddddd" stroke-width="1.3333333333333333"/><line x1="315.47923853923845" y1="7.333333333333333" x2="315.47923853923845" y2="358.3333333333333" stroke="#dddddd" stroke-width="1.3333333333333333"/><line x1="452.6944677544677" y1="7.333333333333333" x2="452.6944677544677" y2="358.3333333333333" stroke="#dddddd" stroke-width="1.3333333333333333"/><line x1="589.9096969696968" y1="7.333333333333333" x2="589.9096969696968" y2="358.3333333333333" stroke="#dddddd" stroke-width="1.3333333333333333"/><line x1="28.01333333333333" y1="311.69744127876424" x2="616.6666666666666" y2="311.69744127876424" stroke="#dddddd" stroke-width="0.6666666666666666"/><line x1="28.01333333333333" y1="236.37257499057665" x2="616.6666666666666" y2="236.37257499057665" stroke="#dddddd" stroke-width="0.6666666666666666"/><line x1="28.01333333333333" y1="161.04770870238897" x2="616.6666666666666" y2="161.04770870238897" stroke="#dddddd" stroke-width="0.6666666666666666"/><line x1="28.01333333333333" y1="85.7228424142013" x2="616.6666666666666" y2="85.7228424142013" stroke="#dddddd" stroke-width="0.6666666666666666"/><line x1="28.01333333333333" y1="10.39797612601372" x2="616.6666666666666" y2="10.39797612601372" stroke="#dddddd" stroke-width="0.6666666666666666"/><line x1="28.01333333333333" y1="349.35987442285807" x2="616.6666666666666" y2="349.35987442285807" stroke="#dddddd" stroke-width="1.3333333333333333"/><line x1="28.01333333333333" y1="274.0350081346704" x2="616.6666666666666" y2="274.0350081346704" stroke="#dddddd" stroke-width="1.3333333333333333"/><line x1="28.01333333333333" y1="198.7101418464828" x2="616.6666666666666" y2="198.7101418464828" stroke="#dddddd" stroke-width="1.3333333333333333"/><line x1="28.01333333333333" y1="123.38527555829515" x2="616.6666666666666" y2="123.38527555829515" stroke="#dddddd" stroke-width="1.3333333333333333"/><line x1="28.01333333333333" y1="48.060409270107506" x2="616.6666666666666" y2="48.060409270107506" stroke="#dddddd" stroke-width="1.3333333333333333"/><rect x="28.01333333333333" y="7.333333333333333" width="588.6533333333333" height="351.0" fill="#ffffff" fill-opacity="0.0" stroke="#444444" stroke-width="1.3333333333333333"/><line x1="41.04878010878011" y1="358.3333333333333" x2="41.04878010878011" y2="362.0" stroke="#444444" stroke-width="1.3333333333333333"/><text x="41.04878010878011" y="374.32" fill="#333333" font-size="11.733333333333334" font-family="sans-serif" text-anchor="middle">0</text><line x1="178.2640093240093" y1="358.3333333333333" x2="178.2640093240093" y2="362.0" stroke="#444444" stroke-width="1.3333333333333333"/><text x="178.2640093240093" y="374.32" fill="#333333" font-size="11.733333333333334" font-family="sans-serif" text-anchor="middle">10</text><line x1="315.47923853923845" y1="358.3333333333333" x2="315.47923853923845" y2="362.0" stroke="#444444" stroke-width="1.3333333333333333"/><text x="315.47923853923845" y="374.32" fill="#333333" font-size="11.733333333333334" font-family="sans-serif" text-anchor="middle">20</text><line x1="452.6944677544677" y1="358.3333333333333" x2="452.6944677544677" y2="362.0" stroke="#444444" stroke-width="1.3333333333333333"/><text x="452.6944677544677" y="374.32" fill="#333333" font-size="11.733333333333334" font-family="sans-serif" text-anchor="middle">30</text><line x1="589.9096969696968" y1="358.3333333333333" x2="589.9096969696968" y2="362.0" stroke="#444444" stroke-width="1.3333333333333333"/><text x="589.9096969696968" y="374.32" fill="#333333" font-size="11.733333333333334" font-family="sans-serif" text-anchor="middle">40</text><line x1="28.01333333333333" y1="349.35987442285807" x2="24.346666666666664" y2="349.35987442285807" stroke="#444444" stroke-width="1.3333333333333333"/><text x="21.41333333333333" y="353.46654108952475" fill="#333333" font-size="11.733333333333334" font-family="sans-serif" text-anchor="end">0</text><line x1="28.01333333333333" y1="274.0350081346704" x2="24.346666666666664" y2="274.0350081346704" stroke="#444444" stroke-width="1.3333333333333333"/><text x="21.41333333333333" y="278.1416748013371" fill="#333333" font-size="11.733333333333334" font-family="sans-serif" text-anchor="end">20</text><line x1="28.01333333333333" y1="198.7101418464828" x2="24.346666666666664" y2="198.7101418464828" stroke="#444444" stroke-width="1.3333333333333333"/><text x="21.41333333333333" y="202.81680851314948" fill="#333333" font-size="11.733333333333334" font-family="sans-serif" text-anchor="end">40</text><line x1="28.01333333333333" y1="123.38527555829515" x2="24.346666666666664" y2="123.38527555829515" stroke="#444444" stroke-width="1.3333333333333333"/><text x="21.41333333333333" y="127.49194222496182" fill="#333333" font-size="11.733333333333334" font-family="sans-serif" text-anchor="end">60</text><line x1="28.01333333333333" y1="48.060409270107506" x2="24.346666666666664" y2="48.060409270107506" stroke="#444444" stroke-width="1.3333333333333333"/><text x="21.41333333333333" y="52.16707593677417" fill="#333333" font-size="11.733333333333334" font-family="sans-serif" text-anchor="end">80</text><circle cx="54.770303030303026" cy="341.22255536506066" r="3.1181102362204727" fill="#1f77b4" fill-opacity="0.85" stroke="none"><title>(1, 2.160593030903)</title></circle><circle cx="68.49182595182594" cy="333.64773330015674" r="3.1181102362204727" fill="#1f77b4" fill-opacity="0.85" stroke="none"><title>(2, 4.171833790607)</title></circle><circle cx="82.21334887334886" cy="328.0575618858536" r="3.1181102362204727" fill="#1f77b4" fill-opacity="0.85" stroke="none"><title>(3, 5.656116920408)</title></circle><circle cx="95.93487179487178" cy="321.44813136804294" r="3.1181102362204727" fill="#1f77b4" fill-opacity="0.85" stroke="none"><title>(4, 7.41103022952)</title></circle><circle cx="109.6563947163947" cy="311.0222794313213" r="3.1181102362204727" fill="#1f77b4" fill-opacity="0.85" stroke="none"><title>(5, 10.17926665674)</title></circle><circle cx="123.37791763791763" cy="300.4041974512804" r="3.1181102362204727" fill="#1f77b4" fill-opacity="0.85" stroke="none"><title>(6, 12.998543345375)</title></circle><circle cx="137.09944055944052" cy="295.23036560164996" r="3.1181102362204727" fill="#1f77b4" fill-opacity="0.85" stroke="none"><title>(7, 14.372281422741)</title></circle><circle cx="150.82096348096346" cy="293.2570425985546" r="3.1181102362204727" fill="#1f77b4" fill-opacity="0.85" stroke="none"><title>(8, 14.896231374552)</title></circle><circle cx="164.54248640248636" cy="285.87221813142634" r="3.1181102362204727" fill="#1f77b4" fill-opacity="0.85" stroke="none"><title>(9, 16.857024624121)</title></circle><circle cx="178.2640093240093" cy="271.3975893123645" r="3.1181102362204727" fill="#1f77b4" fill-opacity="0.85" stroke="none"><title>(10, 20.700278394711)</title></circle><circle cx="191.98553224553223" cy="259.6890787648092" r="3.1181102362204727" fill="#1f77b4" fill-opacity="0.85" stroke="none"><title>(11, 23.809081934503)</title></circle><circle cx="205.7070551670551" cy="258.15838193188097" r="3.1181102362204727" fill="#1f77b4" fill-opacity="0.85" stroke="none"><title>(12, 24.215507304599)</title></circle><circle cx="219.42857808857804" cy="259.01938030085324" r="3.1181102362204727" fill="#1f77b4" fill-opacity="0.85" stroke="none"><title>(13, 23.986897972409)</title></circle><circle cx="233.15010101010094" cy="249.22027262474913" r="3.1181102362204727" fill="#1f77b4" fill-opacity="0.85" stroke="none"><title>(14, 26.588723414385)</title></circle><circle cx="246.87162393162387" cy="230.67104877572717" r="3.1181102362204727" fill="#1f77b4" fill-opacity="0.85" stroke="none"><title>(15, 31.513849674299)</title></circle><circle cx="260.5931468531468" cy="219.51190478629462" r="3.1181102362204727" fill="#1f77b4" fill-opacity="0.85" stroke="none"><title>(16, 34.476787290873)</title></circle><circle cx="274.3146697746697" cy="222.46686531138485" r="3.1181102362204727" fill="#1f77b4" fill-opacity="0.85" stroke="none"><title>(17, 33.692196312965)</title></circle><circle cx="288.03619269619264" cy="224.92600747209582" r="3.1181102362204727" fill="#1f77b4" fill-opacity="0.85" stroke="none"><title>(18, 33.039253325638)</title></circle><circle cx="301.7577156177155" cy="211.244110089172" r="3.1181102362204727" fill="#1f77b4" fill-opacity="0.85" stroke="none"><title>(19, 36.672023765768)</title></circle><circle cx="315.47923853923845" cy="189.1368729599322" r="3.1181102362204727" fill="#1f77b4" fill-opacity="0.85" stroke="none"><title>(20, 42.541861501599)</title></circle><circle cx="329.2007614607614" cy="180.2719416071181" r="3.1181102362204727" fill="#1f77b4" fill-opacity="0.85" stroke="none"><title>(21, 44.895647652084)</title></circle><circle cx="342.9222843822843" cy="188.063398311194" r="3.1181102362204727" fill="#1f77b4" fill-opacity="0.85" stroke="none"><title>(22, 42.826886806425)</title></circle><circle cx="356.6438073038072" cy="190.52822035590944" r="3.1181102362204727" fill="#1f77b4" fill-opacity="0.85" stroke="none"><title>(23, 42.172435715789)</title></circle><circle cx="370.3653302253301" cy="171.80790412114612" r="3.1181102362204727" fill="#1f77b4" fill-opacity="0.85" stroke="none"><title>(24, 47.142989838816)</title></circle><circle cx="384.08685314685306" cy="147.1774125628736" r="3.1181102362204727" fill="#1f77b4" fill-opacity="0.85" stroke="none"><title>(25, 53.682793431441)</title></circle><circle cx="397.808376068376" cy="142.30113857354428" r="3.1181102362204727" fill="#1f77b4" fill-opacity="0.85" stroke="none"><title>(26, 54.977524966887)</title></circle><circle cx="411.52989898989887" cy="154.7323965516132" r="3.1181102362204727" fill="#1f77b4" fill-opacity="0.85" stroke="none"><title>(27, 51.67682000964)</title></circle><circle cx="425.25142191142186" cy="155.38137447287767" r="3.1181102362204727" fill="#1f77b4" fill-opacity="0.85" stroke="none"><title>(28, 51.504505619122)</title></circle><circle cx="438.97294483294473" cy="130.9015946163941" r="3.1181102362204727" fill="#1f77b4" fill-opacity="0.85" stroke="none"><title>(29, 58.004292757894)</title></circle><circle cx="452.6944677544677" cy="105.23583590803987" r="3.1181102362204727" fill="#1f77b4" fill-opacity="0.85" stroke="none"><title>(30, 64.81897693142)</title></circle><circle cx="466.4159906759906" cy="105.83650022202585" r="3.1181102362204727" fill="#1f77b4" fill-opacity="0.85" stroke="none"><title>(31, 64.659490604106)</title></circle><circle cx="480.1375135975135" cy="122.14815260167748" r="3.1181102362204727" fill="#1f77b4" fill-opacity="0.85" stroke="none"><title>(32, 60.328476641932)</title></circle><circle cx="493.8590365190365" cy="119.07936742967156" r="3.1181102362204727" fill="#1f77b4" fill-opacity="0.85" stroke="none"><title>(33, 61.14328994947)</title></circle><circle cx="507.58055944055945" cy="88.64571899177265" r="3.1181102362204727" fill="#1f77b4" fill-opacity="0.85" stroke="none"><title>(34, 69.223927841733)</title></circle><circle cx="521.3020823620823" cy="63.78404793140343" r="3.1181102362204727" fill="#1f77b4" fill-opacity="0.85" stroke="none"><title>(35, 75.825113422402)</title></circle><circle cx="535.0236052836052" cy="70.99856704214069" r="3.1181102362204727" fill="#1f77b4" fill-opacity="0.85" stroke="none"><title>(36, 73.909539066615)</title></circle><circle cx="548.7451282051281" cy="89.8958414057281" r="3.1181102362204727" fill="#1f77b4" fill-opacity="0.85" stroke="none"><title>(37, 68.8919996285)</title></circle><circle cx="562.4666511266511" cy="81.28715463530048" r="3.1181102362204727" fill="#1f77b4" fill-opacity="0.85" stroke="none"><title>(38, 71.177748596839)</title></circle><circle cx="576.188174048174" cy="45.28723630087275" r="3.1181102362204727" fill="#1f77b4" fill-opacity="0.85" stroke="none"><title>(39, 80.736323369928)</title></circle><circle cx="589.9096969696968" cy="23.287878787878828" r="3.1181102362204727" fill="#1f77b4" fill-opacity="0.85" stroke="none"><title>(40, 86.57751728027)</title></circle><line x1="54.770303030303026" y1="342.3787878787879" x2="68.49182595182594" y2="335.40192611605204" stroke="#4575b4" stroke-width="1.4211023622047245"/><line x1="68.49182595182594" y1="335.40192611605204" x2="82.21334887334886" y2="328.4250643533162" stroke="#4575b4" stroke-width="1.4211023622047245"/><line x1="82.21334887334886" y1="328.4250643533162" x2="95.93487179487178" y2="321.44820259058037" stroke="#4575b4" stroke-width="1.4211023622047245"/><line x1="95.93487179487178" y1="321.44820259058037" x2="109.6563947163947" y2="314.47134082784453" stroke="#4575b4" stroke-width="1.4211023622047245"/><line x1="109.6563947163947" y1="314.47134082784453" x2="123.37791763791763" y2="307.4944790651087" stroke="#4575b4" stroke-width="1.4211023622047245"/><line x1="123.37791763791763" y1="307.4944790651087" x2="137.09944055944052" y2="300.51761730237286" stroke="#4575b4" stroke-width="1.4211023622047245"/><line x1="137.09944055944052" y1="300.51761730237286" x2="150.82096348096346" y2="293.5407555396371" stroke="#4575b4" stroke-width="1.4211023622047245"/><line x1="150.82096348096346" y1="293.5407555396371" x2="164.54248640248636" y2="286.5638937769012" stroke="#4575b4" stroke-width="1.4211023622047245"/><line x1="164.54248640248636" y1="286.5638937769012" x2="178.2640093240093" y2="279.5870320141654" stroke="#4575b4" stroke-width="1.4211023622047245"/><line x1="178.2640093240093" y1="279.5870320141654" x2="191.98553224553223" y2="272.61017025142957" stroke="#4575b4" stroke-width="1.4211023622047245"/><line x1="191.98553224553223" y1="272.61017025142957" x2="205.7070551670551" y2="265.63330848869373" stroke="#4575b4" stroke-width="1.4211023622047245"/><line x1="205.7070551670551" y1="265.63330848869373" x2="219.42857808857804" y2="258.65644672595795" stroke="#4575b4" stroke-width="1.4211023622047245"/><line x1="219.42857808857804" y1="258.65644672595795" x2="233.15010101010094" y2="251.67958496322208" stroke="#4575b4" stroke-width="1.4211023622047245"/><line x1="233.15010101010094" y1="251.67958496322208" x2="246.87162393162387" y2="244.70272320048622" stroke="#4575b4" stroke-width="1.4211023622047245"/><line x1="246.87162393162387" y1="244.70272320048622" x2="260.5931468531468" y2="237.7258614377504" stroke="#4575b4" stroke-width="1.4211023622047245"/><line x1="260.5931468531468" y1="237.7258614377504" x2="274.3146697746697" y2="230.7489996750146" stroke="#4575b4" stroke-width="1.4211023622047245"/><line x1="274.3146697746697" y1="230.7489996750146" x2="288.03619269619264" y2="223.77213791227877" stroke="#4575b4" stroke-width="1.4211023622047245"/><line x1="288.03619269619264" y1="223.77213791227877" x2="301.7577156177155" y2="216.79527614954296" stroke="#4575b4" stroke-width="1.4211023622047245"/><line x1="301.7577156177155" y1="216.79527614954296" x2="315.47923853923845" y2="209.8184143868071" stroke="#4575b4" stroke-width="1.4211023622047245"/><line x1="315.47923853923845" y1="209.8184143868071" x2="329.2007614607614" y2="202.84155262407126" stroke="#4575b4" stroke-width="1.4211023622047245"/><line x1="329.2007614607614" y1="202.84155262407126" x2="342.9222843822843" y2="195.8646908613354" stroke="#4575b4" stroke-width="1.4211023622047245"/><line x1="342.9222843822843" y1="195.8646908613354" x2="356.6438073038072" y2="188.8878290985996" stroke="#4575b4" stroke-width="1.4211023622047245"/><line x1="356.6438073038072" y1="188.8878290985996" x2="370.3653302253301" y2="181.9109673358638" stroke="#4575b4" stroke-width="1.4211023622047245"/><line x1="370.3653302253301" y1="181.9109673358638" x2="384.08685314685306" y2="174.93410557312797" stroke="#4575b4" stroke-width="1.4211023622047245"/><line x1="384.08685314685306" y1="174.93410557312797" x2="397.808376068376" y2="167.95724381039213" stroke="#4575b4" stroke-width="1.4211023622047245"/><line x1="397.808376068376" y1="167.95724381039213" x2="411.52989898989887" y2="160.98038204765626" stroke="#4575b4" stroke-width="1.4211023622047245"/><line x1="411.52989898989887" y1="160.98038204765626" x2="425.25142191142186" y2="154.00352028492048" stroke="#4575b4" stroke-width="1.4211023622047245"/><line x1="425.25142191142186" y1="154.00352028492048" x2="438.97294483294473" y2="147.02665852218462" stroke="#4575b4" stroke-width="1.4211023622047245"/><line x1="438.97294483294473" y1="147.02665852218462" x2="452.6944677544677" y2="140.04979675944878" stroke="#4575b4" stroke-width="1.4211023622047245"/><line x1="452.6944677544677" y1="140.04979675944878" x2="466.4159906759906" y2="133.07293499671295" stroke="#4575b4" stroke-width="1.4211023622047245"/><line x1="466.4159906759906" y1="133.07293499671295" x2="480.1375135975135" y2="126.09607323397714" stroke="#4575b4" stroke-width="1.4211023622047245"/><line x1="480.1375135975135" y1="126.09607323397714" x2="493.8590365190365" y2="119.11921147124136" stroke="#4575b4" stroke-width="1.4211023622047245"/><line x1="493.8590365190365" y1="119.11921147124136" x2="507.58055944055945" y2="112.1423497085055" stroke="#4575b4" stroke-width="1.4211023622047245"/><line x1="507.58055944055945" y1="112.1423497085055" x2="521.3020823620823" y2="105.16548794576966" stroke="#4575b4" stroke-width="1.4211023622047245"/><line x1="521.3020823620823" y1="105.16548794576966" x2="535.0236052836052" y2="98.18862618303388" stroke="#4575b4" stroke-width="1.4211023622047245"/><line x1="535.0236052836052" y1="98.18862618303388" x2="548.7451282051281" y2="91.21176442029801" stroke="#4575b4" stroke-width="1.4211023622047245"/><line x1="548.7451282051281" y1="91.21176442029801" x2="562.4666511266511" y2="84.2349026575622" stroke="#4575b4" stroke-width="1.4211023622047245"/><line x1="562.4666511266511" y1="84.2349026575622" x2="576.188174048174" y2="77.25804089482634" stroke="#4575b4" stroke-width="1.4211023622047245"/><line x1="576.188174048174" y1="77.25804089482634" x2="589.9096969696968" y2="70.28117913209049" stroke="#4575b4" stroke-width="1.4211023622047245"/><line x1="54.770303030303026" y1="341.6539084991239" x2="68.49182595182594" y2="334.06323289446516" stroke="#d73027" stroke-width="1.4211023622047245"/><line x1="68.49182595182594" y1="334.06323289446516" x2="82.21334887334886" y2="326.47255728980645" stroke="#d73027" stroke-width="1.4211023622047245"/><line x1="82.21334887334886" y1="326.47255728980645" x2="95.93487179487178" y2="318.88188168514773" stroke="#d73027" stroke-width="1.4211023622047245"/><line x1="95.93487179487178" y1="318.88188168514773" x2="109.6563947163947" y2="311.2912060804891" stroke="#d73027" stroke-width="1.4211023622047245"/><line x1="109.6563947163947" y1="311.2912060804891" x2="123.37791763791763" y2="303.70053047583036" stroke="#d73027" stroke-width="1.4211023622047245"/><line x1="123.37791763791763" y1="303.70053047583036" x2="137.09944055944052" y2="296.10985487117165" stroke="#d73027" stroke-width="1.4211023622047245"/><line x1="137.09944055944052" y1="296.10985487117165" x2="150.82096348096346" y2="288.519179266513" stroke="#d73027" stroke-width="1.4211023622047245"/><line x1="150.82096348096346" y1="288.519179266513" x2="164.54248640248636" y2="280.9285036618543" stroke="#d73027" stroke-width="1.4211023622047245"/><line x1="164.54248640248636" y1="280.9285036618543" x2="178.2640093240093" y2="273.33782805719557" stroke="#d73027" stroke-width="1.4211023622047245"/><line x1="178.2640093240093" y1="273.33782805719557" x2="191.98553224553223" y2="265.74715245253685" stroke="#d73027" stroke-width="1.4211023622047245"/><line x1="191.98553224553223" y1="265.74715245253685" x2="205.7070551670551" y2="258.1564768478782" stroke="#d73027" stroke-width="1.4211023622047245"/><line x1="205.7070551670551" y1="258.1564768478782" x2="219.42857808857804" y2="250.56580124321954" stroke="#d73027" stroke-width="1.4211023622047245"/><line x1="219.42857808857804" y1="250.56580124321954" x2="233.15010101010094" y2="242.97512563856083" stroke="#d73027" stroke-width="1.4211023622047245"/><line x1="233.15010101010094" y1="242.97512563856083" x2="246.87162393162387" y2="235.3844500339021" stroke="#d73027" stroke-width="1.4211023622047245"/><line x1="246.87162393162387" y1="235.3844500339021" x2="260.5931468531468" y2="227.7937744292434" stroke="#d73027" stroke-width="1.4211023622047245"/><line x1="260.5931468531468" y1="227.7937744292434" x2="274.3146697746697" y2="220.20309882458474" stroke="#d73027" stroke-width="1.4211023622047245"/><line x1="274.3146697746697" y1="220.20309882458474" x2="288.03619269619264" y2="212.612423219926" stroke="#d73027" stroke-width="1.4211023622047245"/><line x1="288.03619269619264" y1="212.612423219926" x2="301.7577156177155" y2="205.02174761526732" stroke="#d73027" stroke-width="1.4211023622047245"/><line x1="301.7577156177155" y1="205.02174761526732" x2="315.47923853923845" y2="197.4310720106086" stroke="#d73027" stroke-width="1.4211023622047245"/><line x1="315.47923853923845" y1="197.4310720106086" x2="329.2007614607614" y2="189.8403964059499" stroke="#d73027" stroke-width="1.4211023622047245"/><line x1="329.2007614607614" y1="189.8403964059499" x2="342.9222843822843" y2="182.24972080129126" stroke="#d73027" stroke-width="1.4211023622047245"/><line x1="342.9222843822843" y1="182.24972080129126" x2="356.6438073038072" y2="174.65904519663255" stroke="#d73027" stroke-width="1.4211023622047245"/><line x1="356.6438073038072" y1="174.65904519663255" x2="370.3653302253301" y2="167.06836959197383" stroke="#d73027" stroke-width="1.4211023622047245"/><line x1="370.3653302253301" y1="167.06836959197383" x2="384.08685314685306" y2="159.47769398731512" stroke="#d73027" stroke-width="1.4211023622047245"/><line x1="384.08685314685306" y1="159.47769398731512" x2="397.808376068376" y2="151.88701838265644" stroke="#d73027" stroke-width="1.4211023622047245"/><line x1="397.808376068376" y1="151.88701838265644" x2="411.52989898989887" y2="144.29634277799778" stroke="#d73027" stroke-width="1.4211023622047245"/><line x1="411.52989898989887" y1="144.29634277799778" x2="425.25142191142186" y2="136.70566717333907" stroke="#d73027" stroke-width="1.4211023622047245"/><line x1="425.25142191142186" y1="136.70566717333907" x2="438.97294483294473" y2="129.11499156868035" stroke="#d73027" stroke-width="1.4211023622047245"/><line x1="438.97294483294473" y1="129.11499156868035" x2="452.6944677544677" y2="121.52431596402164" stroke="#d73027" stroke-width="1.4211023622047245"/><line x1="452.6944677544677" y1="121.52431596402164" x2="466.4159906759906" y2="113.93364035936295" stroke="#d73027" stroke-width="1.4211023622047245"/><line x1="466.4159906759906" y1="113.93364035936295" x2="480.1375135975135" y2="106.34296475470428" stroke="#d73027" stroke-width="1.4211023622047245"/><line x1="480.1375135975135" y1="106.34296475470428" x2="493.8590365190365" y2="98.75228915004557" stroke="#d73027" stroke-width="1.4211023622047245"/><line x1="493.8590365190365" y1="98.75228915004557" x2="507.58055944055945" y2="91.1616135453869" stroke="#d73027" stroke-width="1.4211023622047245"/><line x1="507.58055944055945" y1="91.1616135453869" x2="521.3020823620823" y2="83.57093794072819" stroke="#d73027" stroke-width="1.4211023622047245"/><line x1="521.3020823620823" y1="83.57093794072819" x2="535.0236052836052" y2="75.98026233606947" stroke="#d73027" stroke-width="1.4211023622047245"/><line x1="535.0236052836052" y1="75.98026233606947" x2="548.7451282051281" y2="68.38958673141079" stroke="#d73027" stroke-width="1.4211023622047245"/><line x1="548.7451282051281" y1="68.38958673141079" x2="562.4666511266511" y2="60.79891112675208" stroke="#d73027" stroke-width="1.4211023622047245"/><line x1="562.4666511266511" y1="60.79891112675208" x2="576.188174048174" y2="53.2082355220934" stroke="#d73027" stroke-width="1.4211023622047245"/><line x1="576.188174048174" y1="53.2082355220934" x2="589.9096969696968" y2="45.61755991743469" stroke="#d73027" stroke-width="1.4211023622047245"/><line x1="54.770303030303026" y1="341.22255353082977" x2="68.49182595182594" y2="333.0703825760439" stroke="#1a9850" stroke-width="1.4211023622047245"/><line x1="68.49182595182594" y1="333.0703825760439" x2="82.21334887334886" y2="324.918211621258" stroke="#1a9850" stroke-width="1.4211023622047245"/><line x1="82.21334887334886" y1="324.918211621258" x2="95.93487179487178" y2="316.7660406664721" stroke="#1a9850" stroke-width="1.4211023622047245"/><line x1="95.93487179487178" y1="316.7660406664721" x2="109.6563947163947" y2="308.6138697116863" stroke="#1a9850" stroke-width="1.4211023622047245"/><line x1="109.6563947163947" y1="308.6138697116863" x2="123.37791763791763" y2="300.46169875690043" stroke="#1a9850" stroke-width="1.4211023622047245"/><line x1="123.37791763791763" y1="300.46169875690043" x2="137.09944055944052" y2="292.30952780211453" stroke="#1a9850" stroke-width="1.4211023622047245"/><line x1="137.09944055944052" y1="292.30952780211453" x2="150.82096348096346" y2="284.15735684732863" stroke="#1a9850" stroke-width="1.4211023622047245"/><line x1="150.82096348096346" y1="284.15735684732863" x2="164.54248640248636" y2="276.0051858925427" stroke="#1a9850" stroke-width="1.4211023622047245"/><line x1="164.54248640248636" y1="276.0051858925427" x2="178.2640093240093" y2="267.8530149377569" stroke="#1a9850" stroke-width="1.4211023622047245"/><line x1="178.2640093240093" y1="267.8530149377569" x2="191.98553224553223" y2="259.70084398297104" stroke="#1a9850" stroke-width="1.4211023622047245"/><line x1="191.98553224553223" y1="259.70084398297104" x2="205.7070551670551" y2="251.54867302818516" stroke="#1a9850" stroke-width="1.4211023622047245"/><line x1="205.7070551670551" y1="251.54867302818516" x2="219.42857808857804" y2="243.39650207339926" stroke="#1a9850" stroke-width="1.4211023622047245"/><line x1="219.42857808857804" y1="243.39650207339926" x2="233.15010101010094" y2="235.24433111861336" stroke="#1a9850" stroke-width="1.4211023622047245"/><line x1="233.15010101010094" y1="235.24433111861336" x2="246.87162393162387" y2="227.0921601638275" stroke="#1a9850" stroke-width="1.4211023622047245"/><line x1="246.87162393162387" y1="227.0921601638275" x2="260.5931468531468" y2="218.93998920904164" stroke="#1a9850" stroke-width="1.4211023622047245"/><line x1="260.5931468531468" y1="218.93998920904164" x2="274.3146697746697" y2="210.78781825425577" stroke="#1a9850" stroke-width="1.4211023622047245"/><line x1="274.3146697746697" y1="210.78781825425577" x2="288.03619269619264" y2="202.6356472994699" stroke="#1a9850" stroke-width="1.4211023622047245"/><line x1="288.03619269619264" y1="202.6356472994699" x2="301.7577156177155" y2="194.48347634468396" stroke="#1a9850" stroke-width="1.4211023622047245"/><line x1="301.7577156177155" y1="194.48347634468396" x2="315.47923853923845" y2="186.33130538989815" stroke="#1a9850" stroke-width="1.4211023622047245"/><line x1="315.47923853923845" y1="186.33130538989815" x2="329.2007614607614" y2="178.17913443511225" stroke="#1a9850" stroke-width="1.4211023622047245"/><line x1="329.2007614607614" y1="178.17913443511225" x2="342.9222843822843" y2="170.02696348032634" stroke="#1a9850" stroke-width="1.4211023622047245"/><line x1="342.9222843822843" y1="170.02696348032634" x2="356.6438073038072" y2="161.8747925255405" stroke="#1a9850" stroke-width="1.4211023622047245"/><line x1="356.6438073038072" y1="161.8747925255405" x2="370.3653302253301" y2="153.7226215707546" stroke="#1a9850" stroke-width="1.4211023622047245"/><line x1="370.3653302253301" y1="153.7226215707546" x2="384.08685314685306" y2="145.57045061596875" stroke="#1a9850" stroke-width="1.4211023622047245"/><line x1="384.08685314685306" y1="145.57045061596875" x2="397.808376068376" y2="137.41827966118285" stroke="#1a9850" stroke-width="1.4211023622047245"/><line x1="397.808376068376" y1="137.41827966118285" x2="411.52989898989887" y2="129.26610870639695" stroke="#1a9850" stroke-width="1.4211023622047245"/><line x1="411.52989898989887" y1="129.26610870639695" x2="425.25142191142186" y2="121.11393775161112" stroke="#1a9850" stroke-width="1.4211023622047245"/><line x1="425.25142191142186" y1="121.11393775161112" x2="438.97294483294473" y2="112.96176679682522" stroke="#1a9850" stroke-width="1.4211023622047245"/><line x1="438.97294483294473" y1="112.96176679682522" x2="452.6944677544677" y2="104.80959584203936" stroke="#1a9850" stroke-width="1.4211023622047245"/><line x1="452.6944677544677" y1="104.80959584203936" x2="466.4159906759906" y2="96.65742488725348" stroke="#1a9850" stroke-width="1.4211023622047245"/><line x1="466.4159906759906" y1="96.65742488725348" x2="480.1375135975135" y2="88.50525393246758" stroke="#1a9850" stroke-width="1.4211023622047245"/><line x1="480.1375135975135" y1="88.50525393246758" x2="493.8590365190365" y2="80.35308297768172" stroke="#1a9850" stroke-width="1.4211023622047245"/><line x1="493.8590365190365" y1="80.35308297768172" x2="507.58055944055945" y2="72.20091202289582" stroke="#1a9850" stroke-width="1.4211023622047245"/><line x1="507.58055944055945" y1="72.20091202289582" x2="521.3020823620823" y2="64.04874106810999" stroke="#1a9850" stroke-width="1.4211023622047245"/><line x1="521.3020823620823" y1="64.04874106810999" x2="535.0236052836052" y2="55.896570113324096" stroke="#1a9850" stroke-width="1.4211023622047245"/><line x1="535.0236052836052" y1="55.896570113324096" x2="548.7451282051281" y2="47.744399158538194" stroke="#1a9850" stroke-width="1.4211023622047245"/><line x1="548.7451282051281" y1="47.744399158538194" x2="562.4666511266511" y2="39.59222820375237" stroke="#1a9850" stroke-width="1.4211023622047245"/><line x1="562.4666511266511" y1="39.59222820375237" x2="576.188174048174" y2="31.44005724896643" stroke="#1a9850" stroke-width="1.4211023622047245"/><line x1="576.188174048174" y1="31.44005724896643" x2="589.9096969696968" y2="23.287886294180602" stroke="#1a9850" stroke-width="1.4211023622047245"/></svg>