<svg xmlns="http://www.w3.org/2000/svg" width="800" height="600" viewBox="0 0 800 600"><rect x="0.0" y="0.0" width="800.0" height="600.0" fill="#ffffff" fill-opacity="1.0" stroke="none"/><line x1="130.56276223776223" y1="5.5" x2="130.56276223776223" y2="578.55" stroke="#dddddd" stroke-width="0.5"/><line x1="310.2480769230769" y1="5.5" x2="310.2480769230769" y2="578.55" stroke="#dddddd" stroke-width="0.5"/><line x1="489.9333916083915" y1="5.5" x2="489.9333916083915" y2="578.55" stroke="#dddddd" stroke-width="0.5"/><line x1="669.6187062937063" y1="5.5" x2="669.6187062937063" y2="578.55" stroke="#dddddd" stroke-width="0.5"/><line x1="40.720104895104896" y1="5.5" x2="40.720104895104896" y2="578.55" stroke="#dddddd" stroke-width="1.0"/><line x1="220.40541958041956" y1="5.5" x2="220.40541958041956" y2="578.55" stroke="#dddddd" stroke-width="1.0"/><line x1="400.09073426573417" y1="5.5" x2="400.09073426573417" y2="578.55" stroke="#dddddd" stroke-width="1.0"/><line x1="579.7760489510489" y1="5.5" x2="579.7760489510489" y2="578.55" stroke="#dddddd" stroke-width="1.0"/><line x1="759.4613636363636" y1="5.5" x2="759.4613636363636" y2="578.55" stroke="#dddddd" stroke-width="1.0"/><line x1="23.65" y1="502.4112594248695" x2="794.5" y2="502.4112594248695" stroke="#dddddd" stroke-width="0.5"/><line x1="23.65" y1="379.4342946771603" x2="794.5" y2="379.4342946771603" stroke="#dddddd" stroke-width="0.5"/><line x1="23.65" y1="256.4573299294511" x2="794.5" y2="256.4573299294511" stroke="#dddddd" stroke-width="0.5"/><line x1="23.65" y1="133.48036518174183" x2="794.5" y2="133.48036518174183" stroke="#dddddd" stroke-width="0.5"/><line x1="23.65" y1="10.503400434032756" x2="794.5" y2="10.503400434032756" stroke="#dddddd" stroke-width="0.5"/><line x1="23.65" y1="563.8997417987241" x2="794.5" y2="563.8997417987241" stroke="#dddddd" stroke-width="1.0"/><line x1="23.65" y1="440.9227770510149" x2="794.5" y2="440.9227770510149" stroke="#dddddd" stroke-width="1.0"/><line x1="23.65" y1="317.94581230330573" x2="794.5" y2="317.94581230330573" stroke="#dddddd" stroke-width="1.0"/><line x1="23.65" y1="194.96884755559648" x2="794.5" y2="194.96884755559648" stroke="#dddddd" stroke-width="1.0"/><line x1="23.65" y1="71.9918828078873" x2="794.5" y2="71.9918828078873" stroke="#dddddd" stroke-width="1.0"/><rect x="23.65" y="5.5" width="770.85" height="573.05" fill="#ffffff" fill-opacity="0.0" stroke="#444444" stroke-width="1.0"/><line x1="40.720104895104896" y1="578.55" x2="40.720104895104896" y2="581.3" stroke="#444444" stroke-width="1.0"/><text x="40.720104895104896" y="592.3" fill="#333333" font-size="11.0" font-family="sans-serif" text-anchor="middle">0</text><line x1="220.40541958041956" y1="578.55" x2="220.40541958041956" y2="581.3" stroke="#444444" stroke-width="1.0"/><text x="220.40541958041956" y="592.3" fill="#333333" font-size="11.0" font-family="sans-serif" text-anchor="middle">10</text><line x1="400.09073426573417" y1="578.55" x2="400.09073426573417" y2="581.3" stroke="#444444" stroke-width="1.0"/><text x="400.09073426573417" y="592.3" fill="#333333" font-size="11.0" font-family="sans-serif" text-anchor="middle">20</text><line x1="579.7760489510489" y1="578.55" x2="579.7760489510489" y2="581.3" stroke="#444444" stroke-width="1.0"/><text x="579.7760489510489" y="592.3" fill="#333333" font-size="11.0" font-family="sans-serif" text-anchor="middle">30</text><line x1="759.4613636363636" y1="578.55" x2="759.4613636363636" y2="581.3" stroke="#444444" stroke-width="1.0"/><text x="759.4613636363636" y="592.3" fill="#333333" font-size="11.0" font-family="sans-serif" text-anchor="middle">40</text><line x1="23.65" y1="563.8997417987241" x2="20.9" y2="563.8997417987241" stroke="#444444" stroke-width="1.0"/><text x="18.7" y="567.7497417987241" fill="#333333" font-size="11.0" font-family="sans-serif" text-anchor="end">0</text><line x1="23.65" y1="440.9227770510149" x2="20.9" y2="440.9227770510149" stroke="#444444" stroke-width="1.0"/><text x="18.7" y="444.77277705101494" fill="#333333" font-size="11.0" font-family="sans-serif" text-anchor="end">20</text><line x1="23.65" y1="317.94581230330573" x2="20.9" y2="317.94581230330573" stroke="#444444" stroke-width="1.0"/><text x="18.7" y="321.79581230330575" fill="#333333" font-size="11.0" font-family="sans-serif" text-anchor="end">40</text><line x1="23.65" y1="194.96884755559648" x2="20.9" y2="194.96884755559648" stroke="#444444" stroke-width="1.0"/><text x="18.7" y="198.81884755559648" fill="#333333" font-size="11.0" font-family="sans-serif" text-anchor="end">60</text><line x1="23.65" y1="71.9918828078873" x2="20.9" y2="71.9918828078873" stroke="#444444" stroke-width="1.0"/><text x="18.7" y="75.84188280788729" fill="#333333" font-size="11.0" font-family="sans-serif" text-anchor="end">80</text><circle cx="58.68863636363636" cy="550.6145831489497" r="3.0" fill="#1f77b4" fill-opacity="0.85" stroke="#1f77b4" stroke-width="1.0"><title>(1, 2.160593030903)</title></circle><circle cx="76.65716783216783" cy="538.2477689486842" r="3.0" fill="#1f77b4" fill-opacity="0.85" stroke="#1f77b4" stroke-width="1.0"><title>(2, 4.171833790607)</title></circle><circle cx="94.6256993006993" cy="529.1211372422272" r="3.0" fill="#1f77b4" fill-opacity="0.85" stroke="#1f77b4" stroke-width="1.0"><title>(3, 5.656116920408)</title></circle><circle cx="112.59423076923076" cy="518.3304416347303" r="3.0" fill="#1f77b4" fill-opacity="0.85" stroke="#1f77b4" stroke-width="1.0"><title>(4, 7.41103022952)</title></circle><circle cx="130.56276223776223" cy="501.3089759585527" r="3.0" fill="#1f77b4" fill-opacity="0.85" stroke="#1f77b4" stroke-width="1.0"><title>(5, 10.17926665674)</title></circle><circle cx="148.5312937062937" cy="483.97367146093893" r="3.0" fill="#1f77b4" fill-opacity="0.85" stroke="#1f77b4" stroke-width="1.0"><title>(6, 12.998543345375)</title></circle><circle cx="166.49982517482516" cy="475.52676450529583" r="3.0" fill="#1f77b4" fill-opacity="0.85" stroke="#1f77b4" stroke-width="1.0"><title>(7, 14.372281422741)</title></circle><circle cx="184.46835664335663" cy="472.3050757676212" r="3.0" fill="#1f77b4" fill-opacity="0.85" stroke="#1f77b4" stroke-width="1.0"><title>(8, 14.896231374552)</title></circle><circle cx="202.4368881118881" cy="460.2484556511316" r="3.0" fill="#1f77b4" fill-opacity="0.85" stroke="#1f77b4" stroke-width="1.0"><title>(9, 16.857024624121)</title></circle><circle cx="220.40541958041956" cy="436.6168714780166" r="3.0" fill="#1f77b4" fill-opacity="0.85" stroke="#1f77b4" stroke-width="1.0"><title>(10, 20.700278394711)</title></circle><circle cx="238.37395104895103" cy="417.50131031198646" r="3.0" fill="#1f77b4" fill-opacity="0.85" stroke="#1f77b4" stroke-width="1.0"><title>(11, 23.809081934503)</title></circle><circle cx="256.3424825174825" cy="415.0022623914465" r="3.0" fill="#1f77b4" fill-opacity="0.85" stroke="#1f77b4" stroke-width="1.0"><title>(12, 24.215507304599)</title></circle><circle cx="274.3110139860139" cy="416.407946480733" r="3.0" fill="#1f77b4" fill-opacity="0.85" stroke="#1f77b4" stroke-width="1.0"><title>(13, 23.986897972409)</title></circle><circle cx="292.27954545454537" cy="400.4097166978513" r="3.0" fill="#1f77b4" fill-opacity="0.85" stroke="#1f77b4" stroke-width="1.0"><title>(14, 26.588723414385)</title></circle><circle cx="310.2480769230769" cy="370.1258627756803" r="3.0" fill="#1f77b4" fill-opacity="0.85" stroke="#1f77b4" stroke-width="1.0"><title>(15, 31.513849674299)</title></circle><circle cx="328.21660839160836" cy="351.90720903452836" r="3.0" fill="#1f77b4" fill-opacity="0.85" stroke="#1f77b4" stroke-width="1.0"><title>(16, 34.476787290873)</title></circle><circle cx="346.18513986013977" cy="356.73153988610375" r="3.0" fill="#1f77b4" fill-opacity="0.85" stroke="#1f77b4" stroke-width="1.0"><title>(17, 33.692196312965)</title></circle><circle cx="364.15367132867124" cy="360.7463872228428" r="3.0" fill="#1f77b4" fill-opacity="0.85" stroke="#1f77b4" stroke-width="1.0"><title>(18, 33.039253325638)</title></circle><circle cx="382.1222027972027" cy="338.4090331052232" r="3.0" fill="#1f77b4" fill-opacity="0.85" stroke="#1f77b4" stroke-width="1.0"><title>(19, 36.672023765768)</title></circle><circle cx="400.09073426573417" cy="302.3162916895227" r="3.0" fill="#1f77b4" fill-opacity="0.85" stroke="#1f77b4" stroke-width="1.0"><title>(20, 42.541861501599)</title></circle><circle cx="418.0592657342657" cy="287.8432178669298" r="3.0" fill="#1f77b4" fill-opacity="0.85" stroke="#1f77b4" stroke-width="1.0"><title>(21, 44.895647652084)</title></circle><circle cx="436.02779720279716" cy="300.5637143463335" r="3.0" fill="#1f77b4" fill-opacity="0.85" stroke="#1f77b4" stroke-width="1.0"><title>(22, 42.826886806425)</title></circle><circle cx="453.99632867132857" cy="304.5878347814451" r="3.0" fill="#1f77b4" fill-opacity="0.85" stroke="#1f77b4" stroke-width="1.0"><title>(23, 42.172435715789)</title></circle><circle cx="471.96486013986004" cy="274.02465182323687" r="3.0" fill="#1f77b4" fill-opacity="0.85" stroke="#1f77b4" stroke-width="1.0"><title>(24, 47.142989838816)</title></circle><circle cx="489.9333916083915" cy="233.81239202988053" r="3.0" fill="#1f77b4" fill-opacity="0.85" stroke="#1f77b4" stroke-width="1.0"><title>(25, 53.682793431441)</title></circle><circle cx="507.90192307692297" cy="225.8512843102646" r="3.0" fill="#1f77b4" fill-opacity="0.85" stroke="#1f77b4" stroke-width="1.0"><title>(26, 54.977524966887)</title></circle><circle cx="525.8704545454544" cy="246.1468181687614" r="3.0" fill="#1f77b4" fill-opacity="0.85" stroke="#1f77b4" stroke-width="1.0"><title>(27, 51.67682000964)</title></circle><circle cx="543.8389860139858" cy="247.20635320517346" r="3.0" fill="#1f77b4" fill-opacity="0.85" stroke="#1f77b4" stroke-width="1.0"><title>(28, 51.504505619122)</title></circle><circle cx="561.8075174825174" cy="207.24014851355548" r="3.0" fill="#1f77b4" fill-opacity="0.85" stroke="#1f77b4" stroke-width="1.0"><title>(29, 58.004292757894)</title></circle><circle cx="579.7760489510489" cy="165.33768974483075" r="3.0" fill="#1f77b4" fill-opacity="0.85" stroke="#1f77b4" stroke-width="1.0"><title>(30, 64.81897693142)</title></circle><circle cx="597.7445804195803" cy="166.31834696742237" r="3.0" fill="#1f77b4" fill-opacity="0.85" stroke="#1f77b4" stroke-width="1.0"><title>(31, 64.659490604106)</title></circle><circle cx="615.7131118881118" cy="192.94909453482796" r="3.0" fill="#1f77b4" fill-opacity="0.85" stroke="#1f77b4" stroke-width="1.0"><title>(32, 60.328476641932)</title></circle><circle cx="633.6816433566433" cy="187.93893116497617" r="3.0" fill="#1f77b4" fill-opacity="0.85" stroke="#1f77b4" stroke-width="1.0"><title>(33, 61.14328994947)</title></circle><circle cx="651.6501748251749" cy="138.25231510418422" r="3.0" fill="#1f77b4" fill-opacity="0.85" stroke="#1f77b4" stroke-width="1.0"><title>(34, 69.223927841733)</title></circle><circle cx="669.6187062937063" cy="97.66262678183494" r="3.0" fill="#1f77b4" fill-opacity="0.85" stroke="#1f77b4" stroke-width="1.0"><title>(35, 75.825113422402)</title></circle><circle cx="687.5872377622377" cy="109.44120278299732" r="3.0" fill="#1f77b4" fill-opacity="0.85" stroke="#1f77b4" stroke-width="1.0"><title>(36, 73.909539066615)</title></circle><circle cx="705.5557692307692" cy="140.29329131306503" r="3.0" fill="#1f77b4" fill-opacity="0.85" stroke="#1f77b4" stroke-width="1.0"><title>(37, 68.8919996285)</title></circle><circle cx="723.5243006993006" cy="126.2385677979837" r="3.0" fill="#1f77b4" fill-opacity="0.85" stroke="#1f77b4" stroke-width="1.0"><title>(38, 71.177748596839)</title></circle><circle cx="741.4928321678321" cy="67.46434215255971" r="3.0" fill="#1f77b4" fill-opacity="0.85" stroke="#1f77b4" stroke-width="1.0"><title>(39, 80.736323369928)</title></circle><circle cx="759.4613636363636" cy="31.547727272727343" r="3.0" fill="#1f77b4" fill-opacity="0.85" stroke="#1f77b4" stroke-width="1.0"><title>(40, 86.57751728027)</title></circle><line x1="58.68863636363636" y1="552.5022727272727" x2="76.65716783216783" y2="541.1117011228973" stroke="#4575b4" stroke-width="1.5"/><line x1="76.65716783216783" y1="541.1117011228973" x2="94.6256993006993" y2="529.7211295185218" stroke="#4575b4" stroke-width="1.5"/><line x1="94.6256993006993" y1="529.7211295185218" x2="112.59423076923076" y2="518.3305579141464" stroke="#4575b4" stroke-width="1.5"/><line x1="112.59423076923076" y1="518.3305579141464" x2="130.56276223776223" y2="506.9399863097711" stroke="#4575b4" stroke-width="1.5"/><line x1="130.56276223776223" y1="506.9399863097711" x2="148.5312937062937" y2="495.54941470539563" stroke="#4575b4" stroke-width="1.5"/><line x1="148.5312937062937" y1="495.54941470539563" x2="166.49982517482516" y2="484.15884310102024" stroke="#4575b4" stroke-width="1.5"/><line x1="166.49982517482516" y1="484.15884310102024" x2="184.46835664335663" y2="472.76827149664484" stroke="#4575b4" stroke-width="1.5"/><line x1="184.46835664335663" y1="472.76827149664484" x2="202.4368881118881" y2="461.37769989226945" stroke="#4575b4" stroke-width="1.5"/><line x1="202.4368881118881" y1="461.37769989226945" x2="220.40541958041956" y2="449.98712828789405" stroke="#4575b4" stroke-width="1.5"/><line x1="220.40541958041956" y1="449.98712828789405" x2="238.37395104895103" y2="438.59655668351866" stroke="#4575b4" stroke-width="1.5"/><line x1="238.37395104895103" y1="438.59655668351866" x2="256.3424825174825" y2="427.20598507914326" stroke="#4575b4" stroke-width="1.5"/><line x1="256.3424825174825" y1="427.20598507914326" x2="274.3110139860139" y2="415.81541347476787" stroke="#4575b4" stroke-width="1.5"/><line x1="274.3110139860139" y1="415.81541347476787" x2="292.27954545454537" y2="404.4248418703924" stroke="#4575b4" stroke-width="1.5"/><line x1="292.27954545454537" y1="404.4248418703924" x2="310.2480769230769" y2="393.03427026601696" stroke="#4575b4" stroke-width="1.5"/><line x1="310.2480769230769" y1="393.03427026601696" x2="328.21660839160836" y2="381.64369866164157" stroke="#4575b4" stroke-width="1.5"/><line x1="328.21660839160836" y1="381.64369866164157" x2="346.18513986013977" y2="370.25312705726617" stroke="#4575b4" stroke-width="1.5"/><line x1="346.18513986013977" y1="370.25312705726617" x2="364.15367132867124" y2="358.86255545289083" stroke="#4575b4" stroke-width="1.5"/><line x1="364.15367132867124" y1="358.86255545289083" x2="382.1222027972027" y2="347.47198384851544" stroke="#4575b4" stroke-width="1.5"/><line x1="382.1222027972027" y1="347.47198384851544" x2="400.09073426573417" y2="336.08141224414" stroke="#4575b4" stroke-width="1.5"/><line x1="400.09073426573417" y1="336.08141224414" x2="418.0592657342657" y2="324.6908406397646" stroke="#4575b4" stroke-width="1.5"/><line x1="418.0592657342657" y1="324.6908406397646" x2="436.02779720279716" y2="313.30026903538914" stroke="#4575b4" stroke-width="1.5"/><line x1="436.02779720279716" y1="313.30026903538914" x2="453.99632867132857" y2="301.9096974310138" stroke="#4575b4" stroke-width="1.5"/><line x1="453.99632867132857" y1="301.9096974310138" x2="471.96486013986004" y2="290.5191258266384" stroke="#4575b4" stroke-width="1.5"/><line x1="471.96486013986004" y1="290.5191258266384" x2="489.9333916083915" y2="279.128554222263" stroke="#4575b4" stroke-width="1.5"/><line x1="489.9333916083915" y1="279.128554222263" x2="507.90192307692297" y2="267.73798261788755" stroke="#4575b4" stroke-width="1.5"/><line x1="507.90192307692297" y1="267.73798261788755" x2="525.8704545454544" y2="256.3474110135121" stroke="#4575b4" stroke-width="1.5"/><line x1="525.8704545454544" y1="256.3474110135121" x2="543.8389860139858" y2="244.95683940913682" stroke="#4575b4" stroke-width="1.5"/><line x1="543.8389860139858" y1="244.95683940913682" x2="561.8075174825174" y2="233.56626780476137" stroke="#4575b4" stroke-width="1.5"/><line x1="561.8075174825174" y1="233.56626780476137" x2="579.7760489510489" y2="222.17569620038591" stroke="#4575b4" stroke-width="1.5"/><line x1="579.7760489510489" y1="222.17569620038591" x2="597.7445804195803" y2="210.78512459601052" stroke="#4575b4" stroke-width="1.5"/><line x1="597.7445804195803" y1="210.78512459601052" x2="615.7131118881118" y2="199.39455299163518" stroke="#4575b4" stroke-width="1.5"/><line x1="615.7131118881118" y1="199.39455299163518" x2="633.6816433566433" y2="188.00398138725978" stroke="#4575b4" stroke-width="1.5"/><line x1="633.6816433566433" y1="188.00398138725978" x2="651.6501748251749" y2="176.61340978288433" stroke="#4575b4" stroke-width="1.5"/><line x1="651.6501748251749" y1="176.61340978288433" x2="669.6187062937063" y2="165.22283817850888" stroke="#4575b4" stroke-width="1.5"/><line x1="669.6187062937063" y1="165.22283817850888" x2="687.5872377622377" y2="153.8322665741336" stroke="#4575b4" stroke-width="1.5"/><line x1="687.5872377622377" y1="153.8322665741336" x2="705.5557692307692" y2="142.44169496975815" stroke="#4575b4" stroke-width="1.5"/><line x1="705.5557692307692" y1="142.44169496975815" x2="723.5243006993006" y2="131.05112336538275" stroke="#4575b4" stroke-width="1.5"/><line x1="723.5243006993006" y1="131.05112336538275" x2="741.4928321678321" y2="119.6605517610073" stroke="#4575b4" stroke-width="1.5"/><line x1="741.4928321678321" y1="119.6605517610073" x2="759.4613636363636" y2="108.2699801566319" stroke="#4575b4" stroke-width="1.5"/><line x1="58.68863636363636" y1="551.3188193696759" x2="76.65716783216783" y2="538.9261223461726" stroke="#d73027" stroke-width="1.5"/><line x1="76.65716783216783" y1="538.9261223461726" x2="94.6256993006993" y2="526.5334253226692" stroke="#d73027" stroke-width="1.5"/><line x1="94.6256993006993" y1="526.5334253226692" x2="112.59423076923076" y2="514.140728299166" stroke="#d73027" stroke-width="1.5"/><line x1="112.59423076923076" y1="514.140728299166" x2="130.56276223776223" y2="501.74803127566264" stroke="#d73027" stroke-width="1.5"/><line x1="130.56276223776223" y1="501.74803127566264" x2="148.5312937062937" y2="489.3553342521593" stroke="#d73027" stroke-width="1.5"/><line x1="148.5312937062937" y1="489.3553342521593" x2="166.49982517482516" y2="476.96263722865604" stroke="#d73027" stroke-width="1.5"/><line x1="166.49982517482516" y1="476.96263722865604" x2="184.46835664335663" y2="464.5699402051527" stroke="#d73027" stroke-width="1.5"/><line x1="184.46835664335663" y1="464.5699402051527" x2="202.4368881118881" y2="452.1772431816494" stroke="#d73027" stroke-width="1.5"/><line x1="202.4368881118881" y1="452.1772431816494" x2="220.40541958041956" y2="439.78454615814604" stroke="#d73027" stroke-width="1.5"/><line x1="220.40541958041956" y1="439.78454615814604" x2="238.37395104895103" y2="427.3918491346427" stroke="#d73027" stroke-width="1.5"/><line x1="238.37395104895103" y1="427.3918491346427" x2="256.3424825174825" y2="414.99915211113944" stroke="#d73027" stroke-width="1.5"/><line x1="256.3424825174825" y1="414.99915211113944" x2="274.3110139860139" y2="402.60645508763605" stroke="#d73027" stroke-width="1.5"/><line x1="274.3110139860139" y1="402.60645508763605" x2="292.27954545454537" y2="390.2137580641328" stroke="#d73027" stroke-width="1.5"/><line x1="292.27954545454537" y1="390.2137580641328" x2="310.2480769230769" y2="377.8210610406294" stroke="#d73027" stroke-width="1.5"/><line x1="310.2480769230769" y1="377.8210610406294" x2="328.21660839160836" y2="365.42836401712606" stroke="#d73027" stroke-width="1.5"/><line x1="328.21660839160836" y1="365.42836401712606" x2="346.18513986013977" y2="353.03566699362284" stroke="#d73027" stroke-width="1.5"/><line x1="346.18513986013977" y1="353.03566699362284" x2="364.15367132867124" y2="340.64296997011945" stroke="#d73027" stroke-width="1.5"/><line x1="364.15367132867124" y1="340.64296997011945" x2="382.1222027972027" y2="328.2502729466162" stroke="#d73027" stroke-width="1.5"/><line x1="382.1222027972027" y1="328.2502729466162" x2="400.09073426573417" y2="315.8575759231128" stroke="#d73027" stroke-width="1.5"/><line x1="400.09073426573417" y1="315.8575759231128" x2="418.0592657342657" y2="303.46487889960946" stroke="#d73027" stroke-width="1.5"/><line x1="418.0592657342657" y1="303.46487889960946" x2="436.02779720279716" y2="291.07218187610624" stroke="#d73027" stroke-width="1.5"/><line x1="436.02779720279716" y1="291.07218187610624" x2="453.99632867132857" y2="278.67948485260285" stroke="#d73027" stroke-width="1.5"/><line x1="453.99632867132857" y1="278.67948485260285" x2="471.96486013986004" y2="266.2867878290995" stroke="#d73027" stroke-width="1.5"/><line x1="471.96486013986004" y1="266.2867878290995" x2="489.9333916083915" y2="253.8940908055962" stroke="#d73027" stroke-width="1.5"/><line x1="489.9333916083915" y1="253.8940908055962" x2="507.90192307692297" y2="241.50139378209286" stroke="#d73027" stroke-width="1.5"/><line x1="507.90192307692297" y1="241.50139378209286" x2="525.8704545454544" y2="229.1086967585896" stroke="#d73027" stroke-width="1.5"/><line x1="525.8704545454544" y1="229.1086967585896" x2="543.8389860139858" y2="216.71599973508626" stroke="#d73027" stroke-width="1.5"/><line x1="543.8389860139858" y1="216.71599973508626" x2="561.8075174825174" y2="204.32330271158293" stroke="#d73027" stroke-width="1.5"/><line x1="561.8075174825174" y1="204.32330271158293" x2="579.7760489510489" y2="191.93060568807954" stroke="#d73027" stroke-width="1.5"/><line x1="579.7760489510489" y1="191.93060568807954" x2="597.7445804195803" y2="179.53790866457626" stroke="#d73027" stroke-width="1.5"/><line x1="597.7445804195803" y1="179.53790866457626" x2="615.7131118881118" y2="167.145211641073" stroke="#d73027" stroke-width="1.5"/><line x1="615.7131118881118" y1="167.145211641073" x2="633.6816433566433" y2="154.75251461756966" stroke="#d73027" stroke-width="1.5"/><line x1="633.6816433566433" y1="154.75251461756966" x2="651.6501748251749" y2="142.35981759406633" stroke="#d73027" stroke-width="1.5"/><line x1="651.6501748251749" y1="142.35981759406633" x2="669.6187062937063" y2="129.967120570563" stroke="#d73027" stroke-width="1.5"/><line x1="669.6187062937063" y1="129.967120570563" x2="687.5872377622377" y2="117.57442354705967" stroke="#d73027" stroke-width="1.5"/><line x1="687.5872377622377" y1="117.57442354705967" x2="705.5557692307692" y2="105.18172652355634" stroke="#d73027" stroke-width="1.5"/><line x1="705.5557692307692" y1="105.18172652355634" x2="723.5243006993006" y2="92.789029500053" stroke="#d73027" stroke-width="1.5"/><line x1="723.5243006993006" y1="92.789029500053" x2="741.4928321678321" y2="80.39633247654973" stroke="#d73027" stroke-width="1.5"/><line x1="741.4928321678321" y1="80.39633247654973" x2="759.4613636363636" y2="68.0036354530464" stroke="#d73027" stroke-width="1.5"/><line x1="58.68863636363636" y1="550.6145801543457" x2="76.65716783216783" y2="537.305173984431" stroke="#1a9850" stroke-width="1.5"/><line x1="76.65716783216783" y1="537.305173984431" x2="94.6256993006993" y2="523.9957678145164" stroke="#1a9850" stroke-width="1.5"/><line x1="94.6256993006993" y1="523.9957678145164" x2="112.59423076923076" y2="510.6863616446017" stroke="#1a9850" stroke-width="1.5"/><line x1="112.59423076923076" y1="510.6863616446017" x2="130.56276223776223" y2="497.37695547468707" stroke="#1a9850" stroke-width="1.5"/><line x1="130.56276223776223" y1="497.37695547468707" x2="148.5312937062937" y2="484.06754930477234" stroke="#1a9850" stroke-width="1.5"/><line x1="148.5312937062937" y1="484.06754930477234" x2="166.49982517482516" y2="470.7581431348577" stroke="#1a9850" stroke-width="1.5"/><line x1="166.49982517482516" y1="470.7581431348577" x2="184.46835664335663" y2="457.44873696494307" stroke="#1a9850" stroke-width="1.5"/><line x1="184.46835664335663" y1="457.44873696494307" x2="202.4368881118881" y2="444.1393307950284" stroke="#1a9850" stroke-width="1.5"/><line x1="202.4368881118881" y1="444.1393307950284" x2="220.40541958041956" y2="430.82992462511373" stroke="#1a9850" stroke-width="1.5"/><line x1="220.40541958041956" y1="430.82992462511373" x2="238.37395104895103" y2="417.52051845519907" stroke="#1a9850" stroke-width="1.5"/><line x1="238.37395104895103" y1="417.52051845519907" x2="256.3424825174825" y2="404.2111122852844" stroke="#1a9850" stroke-width="1.5"/><line x1="256.3424825174825" y1="404.2111122852844" x2="274.3110139860139" y2="390.90170611536973" stroke="#1a9850" stroke-width="1.5"/><line x1="274.3110139860139" y1="390.90170611536973" x2="292.27954545454537" y2="377.592299945455" stroke="#1a9850" stroke-width="1.5"/><line x1="292.27954545454537" y1="377.592299945455" x2="310.2480769230769" y2="364.2828937755404" stroke="#1a9850" stroke-width="1.5"/><line x1="310.2480769230769" y1="364.2828937755404" x2="328.21660839160836" y2="350.9734876056258" stroke="#1a9850" stroke-width="1.5"/><line x1="328.21660839160836" y1="350.9734876056258" x2="346.18513986013977" y2="337.66408143571107" stroke="#1a9850" stroke-width="1.5"/><line x1="346.18513986013977" y1="337.66408143571107" x2="364.15367132867124" y2="324.35467526579646" stroke="#1a9850" stroke-width="1.5"/><line x1="364.15367132867124" y1="324.35467526579646" x2="382.1222027972027" y2="311.04526909588174" stroke="#1a9850" stroke-width="1.5"/><line x1="382.1222027972027" y1="311.04526909588174" x2="400.09073426573417" y2="297.73586292596707" stroke="#1a9850" stroke-width="1.5"/><line x1="400.09073426573417" y1="297.73586292596707" x2="418.0592657342657" y2="284.4264567560524" stroke="#1a9850" stroke-width="1.5"/><line x1="418.0592657342657" y1="284.4264567560524" x2="436.02779720279716" y2="271.11705058613774" stroke="#1a9850" stroke-width="1.5"/><line x1="436.02779720279716" y1="271.11705058613774" x2="453.99632867132857" y2="257.8076444162231" stroke="#1a9850" stroke-width="1.5"/><line x1="453.99632867132857" y1="257.8076444162231" x2="471.96486013986004" y2="244.4982382463084" stroke="#1a9850" stroke-width="1.5"/><line x1="471.96486013986004" y1="244.4982382463084" x2="489.9333916083915" y2="231.1888320763938" stroke="#1a9850" stroke-width="1.5"/><line x1="489.9333916083915" y1="231.1888320763938" x2="507.90192307692297" y2="217.87942590647907" stroke="#1a9850" stroke-width="1.5"/><line x1="507.90192307692297" y1="217.87942590647907" x2="525.8704545454544" y2="204.5700197365644" stroke="#1a9850" stroke-width="1.5"/><line x1="525.8704545454544" y1="204.5700197365644" x2="543.8389860139858" y2="191.2606135666498" stroke="#1a9850" stroke-width="1.5"/><line x1="543.8389860139858" y1="191.2606135666498" x2="561.8075174825174" y2="177.95120739673507" stroke="#1a9850" stroke-width="1.5"/><line x1="561.8075174825174" y1="177.95120739673507" x2="579.7760489510489" y2="164.64180122682046" stroke="#1a9850" stroke-width="1.5"/><line x1="579.7760489510489" y1="164.64180122682046" x2="597.7445804195803" y2="151.33239505690585" stroke="#1a9850" stroke-width="1.5"/><line x1="597.7445804195803" y1="151.33239505690585" x2="615.7131118881118" y2="138.02298888699107" stroke="#1a9850" stroke-width="1.5"/><line x1="615.7131118881118" y1="138.02298888699107" x2="633.6816433566433" y2="124.71358271707652" stroke="#1a9850" stroke-width="1.5"/><line x1="633.6816433566433" y1="124.71358271707652" x2="651.6501748251749" y2="111.4041765471618" stroke="#1a9850" stroke-width="1.5"/><line x1="651.6501748251749" y1="111.4041765471618" x2="669.6187062937063" y2="98.09477037724719" stroke="#1a9850" stroke-width="1.5"/><line x1="669.6187062937063" y1="98.09477037724719" x2="687.5872377622377" y2="84.78536420733252" stroke="#1a9850" stroke-width="1.5"/><line x1="687.5872377622377" y1="84.78536420733252" x2="705.5557692307692" y2="71.4759580374178" stroke="#1a9850" stroke-width="1.5"/><line x1="705.5557692307692" y1="71.4759580374178" x2="723.5243006993006" y2="58.16655186750313" stroke="#1a9850" stroke-width="1.5"/><line x1="723.5243006993006" y1="58.16655186750313" x2="741.4928321678321" y2="44.85714569758841" stroke="#1a9850" stroke-width="1.5"/><line x1="741.4928321678321" y1="44.85714569758841" x2="759.4613636363636" y2="31.54773952767391" stroke="#1a9850" stroke-width="1.5"/></svg>