<svg xmlns="http://www.w3.org/2000/svg" width="800" height="600" viewBox="0 0 800 600"><rect x="0.0" y="0.0" width="800.0" height="600.0" fill="#ffffff" fill-opacity="1.0" stroke="none"/><line x1="84.2878787878788" y1="5.5" x2="84.2878787878788" y2="578.55" stroke="#dddddd" stroke-width="0.5"/><line x1="277.28030303030306" y1="5.5" x2="277.28030303030306" y2="578.55" stroke="#dddddd" stroke-width="0.5"/><line x1="470.27272727272737" y1="5.5" x2="470.27272727272737" y2="578.55" stroke="#dddddd" stroke-width="0.5"/><line x1="663.2651515151515" y1="5.5" x2="663.2651515151515" y2="578.55" stroke="#dddddd" stroke-width="0.5"/><line x1="180.78409090909093" y1="5.5" x2="180.78409090909093" y2="578.55" stroke="#dddddd" stroke-width="1.0"/><line x1="373.7765151515152" y1="5.5" x2="373.7765151515152" y2="578.55" stroke="#dddddd" stroke-width="1.0"/><line x1="566.7689393939395" y1="5.5" x2="566.7689393939395" y2="578.55" stroke="#dddddd" stroke-width="1.0"/><line x1="759.7613636363636" y1="5.5" x2="759.7613636363636" y2="578.55" stroke="#dddddd" stroke-width="1.0"/><line x1="30.249999999999996" y1="506.9112922583157" x2="794.5" y2="506.9112922583157" stroke="#dddddd" stroke-width="0.5"/><line x1="30.249999999999996" y1="411.83857926119805" x2="794.5" y2="411.83857926119805" stroke="#dddddd" stroke-width="0.5"/><line x1="30.249999999999996" y1="316.76586626408033" x2="794.5" y2="316.76586626408033" stroke="#dddddd" stroke-width="0.5"/><line x1="30.249999999999996" y1="221.6931532669626" x2="794.5" y2="221.6931532669626" stroke="#dddddd" stroke-width="0.5"/><line x1="30.249999999999996" y1="126.62044026984495" x2="794.5" y2="126.62044026984495" stroke="#dddddd" stroke-width="0.5"/><line x1="30.249999999999996" y1="31.54772727272723" x2="794.5" y2="31.54772727272723" stroke="#dddddd" stroke-width="0.5"/><line x1="30.249999999999996" y1="554.4476487568746" x2="794.5" y2="554.4476487568746" stroke="#dddddd" stroke-width="1.0"/><line x1="30.249999999999996" y1="459.3749357597569" x2="794.5" y2="459.3749357597569" stroke="#dddddd" stroke-width="1.0"/><line x1="30.249999999999996" y1="364.3022227626392" x2="794.5" y2="364.3022227626392" stroke="#dddddd" stroke-width="1.0"/><line x1="30.249999999999996" y1="269.22950976552147" x2="794.5" y2="269.22950976552147" stroke="#dddddd" stroke-width="1.0"/><line x1="30.249999999999996" y1="174.15679676840375" x2="794.5" y2="174.15679676840375" stroke="#dddddd" stroke-width="1.0"/><line x1="30.249999999999996" y1="79.08408377128609" x2="794.5" y2="79.08408377128609" stroke="#dddddd" stroke-width="1.0"/><rect x="30.249999999999996" y="5.5" width="764.25" height="573.05" fill="#ffffff" fill-opacity="0.0" stroke="#444444" stroke-width="1.0"/><line x1="180.78409090909093" y1="578.55" x2="180.78409090909093" y2="581.3" stroke="#444444" stroke-width="1.0"/><text x="180.78409090909093" y="592.3" fill="#333333" font-size="11.0" font-family="sans-serif" text-anchor="middle">2.5</text><line x1="373.7765151515152" y1="578.55" x2="373.7765151515152" y2="581.3" stroke="#444444" stroke-width="1.0"/><text x="373.7765151515152" y="592.3" fill="#333333" font-size="11.0" font-family="sans-serif" text-anchor="middle">5</text><line x1="566.7689393939395" y1="578.55" x2="566.7689393939395" y2="581.3" stroke="#444444" stroke-width="1.0"/><text x="566.7689393939395" y="592.3" fill="#333333" font-size="11.0" font-family="sans-serif" text-anchor="middle">7.5</text><line x1="759.7613636363636" y1="578.55" x2="759.7613636363636" y2="581.3" stroke="#444444" stroke-width="1.0"/><text x="759.7613636363636" y="592.3" fill="#333333" font-size="11.0" font-family="sans-serif" text-anchor="middle">10</text><line x1="30.249999999999996" y1="554.4476487568746" x2="27.499999999999996" y2="554.4476487568746" stroke="#444444" stroke-width="1.0"/><text x="25.299999999999997" y="558.2976487568747" fill="#333333" font-size="11.0" font-family="sans-serif" text-anchor="end">-10</text><line x1="30.249999999999996" y1="459.3749357597569" x2="27.499999999999996" y2="459.3749357597569" stroke="#444444" stroke-width="1.0"/><text x="25.299999999999997" y="463.22493575975693" fill="#333333" font-size="11.0" font-family="sans-serif" text-anchor="end">0</text><line x1="30.249999999999996" y1="364.3022227626392" x2="27.499999999999996" y2="364.3022227626392" stroke="#444444" stroke-width="1.0"/><text x="25.299999999999997" y="368.1522227626392" fill="#333333" font-size="11.0" font-family="sans-serif" text-anchor="end">10</text><line x1="30.249999999999996" y1="269.22950976552147" x2="27.499999999999996" y2="269.22950976552147" stroke="#444444" stroke-width="1.0"/><text x="25.299999999999997" y="273.0795097655215" fill="#333333" font-size="11.0" font-family="sans-serif" text-anchor="end">20</text><line x1="30.249999999999996" y1="174.15679676840375" x2="27.499999999999996" y2="174.15679676840375" stroke="#444444" stroke-width="1.0"/><text x="25.299999999999997" y="178.00679676840375" fill="#333333" font-size="11.0" font-family="sans-serif" text-anchor="end">30</text><line x1="30.249999999999996" y1="79.08408377128609" x2="27.499999999999996" y2="79.08408377128609" stroke="#444444" stroke-width="1.0"/><text x="25.299999999999997" y="82.93408377128608" fill="#333333" font-size="11.0" font-family="sans-serif" text-anchor="end">40</text><circle cx="64.98863636363636" cy="430.8531218606216" r="3.0" fill="#1f77b4" fill-opacity="0.85" stroke="#1f77b4" stroke-width="1.0"><title>(1, 3)</title></circle><circle cx="142.18560606060606" cy="411.83857926119805" r="3.0" fill="#1f77b4" fill-opacity="0.85" stroke="#1f77b4" stroke-width="1.0"><title>(2, 5)</title></circle><circle cx="219.3825757575758" cy="392.8240366617745" r="3.0" fill="#1f77b4" fill-opacity="0.85" stroke="#1f77b4" stroke-width="1.0"><title>(3, 7)</title></circle><circle cx="296.5795454545455" cy="373.80949406235095" r="3.0" fill="#1f77b4" fill-opacity="0.85" stroke="#1f77b4" stroke-width="1.0"><title>(4, 9)</title></circle><circle cx="373.7765151515152" cy="354.79495146292743" r="3.0" fill="#1f77b4" fill-opacity="0.85" stroke="#1f77b4" stroke-width="1.0"><title>(5, 11)</title></circle><circle cx="450.97348484848493" cy="335.7804088635039" r="3.0" fill="#1f77b4" fill-opacity="0.85" stroke="#1f77b4" stroke-width="1.0"><title>(6, 13)</title></circle><circle cx="528.1704545454546" cy="316.76586626408033" r="3.0" fill="#1f77b4" fill-opacity="0.85" stroke="#1f77b4" stroke-width="1.0"><title>(7, 15)</title></circle><circle cx="605.3674242424242" cy="297.7513236646568" r="3.0" fill="#1f77b4" fill-opacity="0.85" stroke="#1f77b4" stroke-width="1.0"><title>(8, 17)</title></circle><circle cx="682.564393939394" cy="278.7367810652333" r="3.0" fill="#1f77b4" fill-opacity="0.85" stroke="#1f77b4" stroke-width="1.0"><title>(9, 19)</title></circle><circle cx="759.7613636363636" cy="31.54772727272723" r="3.0" fill="#1f77b4" fill-opacity="0.85" stroke="#1f77b4" stroke-width="1.0"><title>(10, 45)</title></circle><path d="M 64.98863636363636 375.5820106137761 L 142.18560606060606 357.55739470894366 L 219.3825757575758 338.02422787258377 L 296.5795454545455 315.9676035048114 L 373.7765151515152 289.89071144004987 L 450.97348484848493 258.4302864119128 L 528.1704545454546 221.58632842040004 L 605.3674242424242 180.72210273189813 L 682.564393939394 137.33441951198387 L 759.7613636363636 92.43818536054204 L 759.7613636363636 269.3584474740386 L 682.564393939394 287.38306337887104 L 605.3674242424242 306.916230215231 L 528.1704545454546 328.97285458300337 L 450.97348484848493 355.0497466477649 L 373.7765151515152 386.5101716759019 L 296.5795454545455 423.3541296674147 L 219.3825757575758 464.21835535591663 L 142.18560606060606 507.6060385758309 L 64.98863636363636 552.5022727272727 Z" fill="#d62728" fill-opacity="0.15" stroke="none"/><line x1="64.98863636363636" y1="464.0421416705244" x2="142.18560606060606" y2="432.5817166423873" stroke="#d62728" stroke-width="2.0"/><line x1="142.18560606060606" y1="432.5817166423873" x2="219.3825757575758" y2="401.12129161425014" stroke="#d62728" stroke-width="2.0"/><line x1="219.3825757575758" y1="401.12129161425014" x2="296.5795454545455" y2="369.66086658611306" stroke="#d62728" stroke-width="2.0"/><line x1="296.5795454545455" y1="369.66086658611306" x2="373.7765151515152" y2="338.20044155797586" stroke="#d62728" stroke-width="2.0"/><line x1="373.7765151515152" y1="338.20044155797586" x2="450.97348484848493" y2="306.74001652983884" stroke="#d62728" stroke-width="2.0"/><line x1="450.97348484848493" y1="306.74001652983884" x2="528.1704545454546" y2="275.2795915017017" stroke="#d62728" stroke-width="2.0"/><line x1="528.1704545454546" y1="275.2795915017017" x2="605.3674242424242" y2="243.81916647356456" stroke="#d62728" stroke-width="2.0"/><line x1="605.3674242424242" y1="243.81916647356456" x2="682.564393939394" y2="212.35874144542743" stroke="#d62728" stroke-width="2.0"/><line x1="682.564393939394" y1="212.35874144542743" x2="759.7613636363636" y2="180.8983164172903" stroke="#d62728" stroke-width="2.0"/><line x1="64.98863636363636" y1="430.85312636113633" x2="142.18560606060606" y2="411.83858206899697" stroke="#1f77b4" stroke-width="1.5"/><line x1="142.18560606060606" y1="411.83858206899697" x2="219.3825757575758" y2="392.8240377768576" stroke="#1f77b4" stroke-width="1.5"/><line x1="219.3825757575758" y1="392.8240377768576" x2="296.5795454545455" y2="373.80949348471825" stroke="#1f77b4" stroke-width="1.5"/><line x1="296.5795454545455" y1="373.80949348471825" x2="373.7765151515152" y2="354.7949491925789" stroke="#1f77b4" stroke-width="1.5"/><line x1="373.7765151515152" y1="354.7949491925789" x2="450.97348484848493" y2="335.78040490043946" stroke="#1f77b4" stroke-width="1.5"/><line x1="450.97348484848493" y1="335.78040490043946" x2="528.1704545454546" y2="316.76586060830004" stroke="#1f77b4" stroke-width="1.5"/><line x1="528.1704545454546" y1="316.76586060830004" x2="605.3674242424242" y2="297.7513163161607" stroke="#1f77b4" stroke-width="1.5"/><line x1="605.3674242424242" y1="297.7513163161607" x2="682.564393939394" y2="278.7367720240213" stroke="#1f77b4" stroke-width="1.5"/><line x1="682.564393939394" y1="278.7367720240213" x2="759.7613636363636" y2="259.72222773188196" stroke="#1f77b4" stroke-width="1.5"/></svg>