<svg xmlns="http://www.w3.org/2000/svg" width="624" height="384" viewBox="0 0 624 384"><rect x="0.0" y="0.0" width="624.0" height="384.0" fill="#ffffff" fill-opacity="1.0" stroke="none"/><line x1="76.17750841750842" y1="7.333333333333333" x2="76.17750841750842" y2="358.3333333333333" stroke="#dddddd" stroke-width="0.6666666666666666"/><line x1="223.0495622895623" y1="7.333333333333333" x2="223.0495622895623" y2="358.3333333333333" stroke="#dddddd" stroke-width="0.6666666666666666"/><line x1="369.9216161616162" y1="7.333333333333333" x2="369.9216161616162" y2="358.3333333333333" stroke="#dddddd" stroke-width="0.6666666666666666"/><line x1="516.79367003367" y1="7.333333333333333" x2="516.79367003367" y2="358.3333333333333" stroke="#dddddd" stroke-width="0.6666666666666666"/><line x1="149.61353535353535" y1="7.333333333333333" x2="149.61353535353535" y2="358.3333333333333" stroke="#dddddd" stroke-width="1.3333333333333333"/><line x1="296.48558922558925" y1="7.333333333333333" x2="296.48558922558925" y2="358.3333333333333" stroke="#dddddd" stroke-width="1.3333333333333333"/><line x1="443.3576430976432" y1="7.333333333333333" x2="443.3576430976432" y2="358.3333333333333" stroke="#dddddd" stroke-width="1.3333333333333333"/><line x1="590.229696969697" y1="7.333333333333333" x2="590.229696969697" y2="358.3333333333333" stroke="#dddddd" stroke-width="1.3333333333333333"/><line x1="35.05333333333333" y1="314.45376537707966" x2="616.6666666666666" y2="314.45376537707966" stroke="#dddddd" stroke-width="0.6666666666666666"/><line x1="35.05333333333333" y1="256.2205880592395" x2="616.6666666666666" y2="256.2205880592395" stroke="#dddddd" stroke-width="0.6666666666666666"/><line x1="35.05333333333333" y1="197.9874107413993" x2="616.6666666666666" y2="197.9874107413993" stroke="#dddddd" stroke-width="0.6666666666666666"/><line x1="35.05333333333333" y1="139.7542334235591" x2="616.6666666666666" y2="139.7542334235591" stroke="#dddddd" stroke-width="0.6666666666666666"/><line x1="35.05333333333333" y1="81.52105610571894" x2="616.6666666666666" y2="81.52105610571894" stroke="#dddddd" stroke-width="0.6666666666666666"/><line x1="35.05333333333333" y1="23.28787878787879" x2="616.6666666666666" y2="23.28787878787879" stroke="#dddddd" stroke-width="0.6666666666666666"/><line x1="35.05333333333333" y1="343.5703540359997" x2="616.6666666666666" y2="343.5703540359997" stroke="#dddddd" stroke-width="1.3333333333333333"/><line x1="35.05333333333333" y1="285.3371767181596" x2="616.6666666666666" y2="285.3371767181596" stroke="#dddddd" stroke-width="1.3333333333333333"/><line x1="35.05333333333333" y1="227.1039994003194" x2="616.6666666666666" y2="227.1039994003194" stroke="#dddddd" stroke-width="1.3333333333333333"/><line x1="35.05333333333333" y1="168.8708220824792" x2="616.6666666666666" y2="168.8708220824792" stroke="#dddddd" stroke-width="1.3333333333333333"/><line x1="35.05333333333333" y1="110.63764476463905" x2="616.6666666666666" y2="110.63764476463905" stroke="#dddddd" stroke-width="1.3333333333333333"/><line x1="35.05333333333333" y1="52.40446744679885" x2="616.6666666666666" y2="52.40446744679885" stroke="#dddddd" stroke-width="1.3333333333333333"/><rect x="35.05333333333333" y="7.333333333333333" width="581.6133333333332" height="351.0" fill="#ffffff" fill-opacity="0.0" stroke="#444444" stroke-width="1.3333333333333333"/><line x1="149.61353535353535" y1="358.3333333333333" x2="149.61353535353535" y2="362.0" stroke="#444444" stroke-width="1.3333333333333333"/><text x="149.61353535353535" y="374.32" fill="#333333" font-size="11.733333333333334" font-family="sans-serif" text-anchor="middle">2.5</text><line x1="296.48558922558925" y1="358.3333333333333" x2="296.48558922558925" y2="362.0" stroke="#444444" stroke-width="1.3333333333333333"/><text x="296.48558922558925" y="374.32" fill="#333333" font-size="11.733333333333334" font-family="sans-serif" text-anchor="middle">5.0</text><line x1="443.3576430976432" y1="358.3333333333333" x2="443.3576430976432" y2="362.0" stroke="#444444" stroke-width="1.3333333333333333"/><text x="443.3576430976432" y="374.32" fill="#333333" font-size="11.733333333333334" font-family="sans-serif" text-anchor="middle">7.5</text><line x1="590.229696969697" y1="358.3333333333333" x2="590.229696969697" y2="362.0" stroke="#444444" stroke-width="1.3333333333333333"/><text x="590.229696969697" y="374.32" fill="#333333" font-size="11.733333333333334" font-family="sans-serif" text-anchor="middle">10.0</text><line x1="35.05333333333333" y1="343.5703540359997" x2="31.386666666666663" y2="343.5703540359997" stroke="#444444" stroke-width="1.3333333333333333"/><text x="28.453333333333333" y="347.67702070266637" fill="#333333" font-size="11.733333333333334" font-family="sans-serif" text-anchor="end">-10</text><line x1="35.05333333333333" y1="285.3371767181596" x2="31.386666666666663" y2="285.3371767181596" stroke="#444444" stroke-width="1.3333333333333333"/><text x="28.453333333333333" y="289.44384338482627" fill="#333333" font-size="11.733333333333334" font-family="sans-serif" text-anchor="end">0</text><line x1="35.05333333333333" y1="227.1039994003194" x2="31.386666666666663" y2="227.1039994003194" stroke="#444444" stroke-width="1.3333333333333333"/><text x="28.453333333333333" y="231.21066606698608" fill="#333333" font-size="11.733333333333334" font-family="sans-serif" text-anchor="end">10</text><line x1="35.05333333333333" y1="168.8708220824792" x2="31.386666666666663" y2="168.8708220824792" stroke="#444444" stroke-width="1.3333333333333333"/><text x="28.453333333333333" y="172.9774887491459" fill="#333333" font-size="11.733333333333334" font-family="sans-serif" text-anchor="end">20</text><line x1="35.05333333333333" y1="110.63764476463905" x2="31.386666666666663" y2="110.63764476463905" stroke="#444444" stroke-width="1.3333333333333333"/><text x="28.453333333333333" y="114.7443114313057" fill="#333333" font-size="11.733333333333334" font-family="sans-serif" text-anchor="end">30</text><line x1="35.05333333333333" y1="52.40446744679885" x2="31.386666666666663" y2="52.40446744679885" stroke="#444444" stroke-width="1.3333333333333333"/><text x="28.453333333333333" y="56.511134113465516" fill="#333333" font-size="11.733333333333334" font-family="sans-serif" text-anchor="end">40</text><circle cx="61.490303030303025" cy="267.86722352280754" r="3.1181102362204727" fill="#1f77b4" fill-opacity="0.85" stroke="none"><title>(1, 3)</title></circle><circle cx="120.23912457912459" cy="256.2205880592395" r="3.1181102362204727" fill="#1f77b4" fill-opacity="0.85" stroke="none"><title>(2, 5)</title></circle><circle cx="178.98794612794615" cy="244.57395259567147" r="3.1181102362204727" fill="#1f77b4" fill-opacity="0.85" stroke="none"><title>(3, 7)</title></circle><circle cx="237.73676767676767" cy="232.92731713210344" r="3.1181102362204727" fill="#1f77b4" fill-opacity="0.85" stroke="none"><title>(4, 9)</title></circle><circle cx="296.48558922558925" cy="221.28068166853535" r="3.1181102362204727" fill="#1f77b4" fill-opacity="0.85" stroke="none"><title>(5, 11)</title></circle><circle cx="355.2344107744108" cy="209.63404620496732" r="3.1181102362204727" fill="#1f77b4" fill-opacity="0.85" stroke="none"><title>(6, 13)</title></circle><circle cx="413.9832323232324" cy="197.9874107413993" r="3.1181102362204727" fill="#1f77b4" fill-opacity="0.85" stroke="none"><title>(7, 15)</title></circle><circle cx="472.73205387205394" cy="186.34077527783126" r="3.1181102362204727" fill="#1f77b4" fill-opacity="0.85" stroke="none"><title>(8, 17)</title></circle><circle cx="531.4808754208755" cy="174.69413981426322" r="3.1181102362204727" fill="#1f77b4" fill-opacity="0.85" stroke="none"><title>(9, 19)</title></circle><circle cx="590.229696969697" cy="23.28787878787879" r="3.1181102362204727" fill="#1f77b4" fill-opacity="0.85" stroke="none"><title>(10, 45)</title></circle><path d="M 61.490303030303025 342.3787878787879 L 120.23912457912459 314.87930583157373 L 178.98794612794615 288.30382932831935 L 237.73676767676767 263.2740008374997 L 296.48558922558925 240.70663454307345 L 355.2344107744108 221.4367467760791 L 413.9832323232324 205.4643375365166 L 472.73205387205394 191.95439049334746 L 531.4808754208755 179.99009146261304 L 590.229696969697 168.9497979758384 L 590.229696969697 60.58401488215152 L 531.4808754208755 88.08349692936568 L 472.73205387205394 114.65897343262004 L 413.9832323232324 139.68880192343966 L 355.2344107744108 162.25616821786588 L 296.48558922558925 181.52605598486028 L 237.73676767676767 197.49846522442277 L 178.98794612794615 211.00841226759195 L 120.23912457912459 222.97271129832635 L 61.490303030303025 234.01300478510097 Z" fill="#1f77b4" fill-opacity="0.2" stroke="none"/><line x1="61.490303030303025" y1="288.19589633194437" x2="120.23912457912459" y2="268.92600856495005" stroke="#1f77b4" stroke-width="1.4211023622047245"/><line x1="120.23912457912459" y1="268.92600856495005" x2="178.98794612794615" y2="249.65612079795565" stroke="#1f77b4" stroke-width="1.4211023622047245"/><line x1="178.98794612794615" y1="249.65612079795565" x2="237.73676767676767" y2="230.38623303096125" stroke="#1f77b4" stroke-width="1.4211023622047245"/><line x1="237.73676767676767" y1="230.38623303096125" x2="296.48558922558925" y2="211.11634526396688" stroke="#1f77b4" stroke-width="1.4211023622047245"/><line x1="296.48558922558925" y1="211.11634526396688" x2="355.2344107744108" y2="191.8464574969725" stroke="#1f77b4" stroke-width="1.4211023622047245"/><line x1="355.2344107744108" y1="191.8464574969725" x2="413.9832323232324" y2="172.57656972997813" stroke="#1f77b4" stroke-width="1.4211023622047245"/><line x1="413.9832323232324" y1="172.57656972997813" x2="472.73205387205394" y2="153.30668196298373" stroke="#1f77b4" stroke-width="1.4211023622047245"/><line x1="472.73205387205394" y1="153.30668196298373" x2="531.4808754208755" y2="134.03679419598933" stroke="#1f77b4" stroke-width="1.4211023622047245"/><line x1="531.4808754208755" y1="134.03679419598933" x2="590.229696969697" y2="114.76690642899496" stroke="#1f77b4" stroke-width="1.4211023622047245"/><line x1="61.490303030303025" y1="267.8672262794268" x2="120.23912457912459" y2="256.22058977905" stroke="#1f77b4" stroke-width="1.4211023622047245"/><line x1="120.23912457912459" y1="256.22058977905" x2="178.98794612794615" y2="244.57395327867323" stroke="#1f77b4" stroke-width="1.4211023622047245"/><line x1="178.98794612794615" y1="244.57395327867323" x2="237.73676767676767" y2="232.92731677829642" stroke="#1f77b4" stroke-width="1.4211023622047245"/><line x1="237.73676767676767" y1="232.92731677829642" x2="296.48558922558925" y2="221.28068027791966" stroke="#1f77b4" stroke-width="1.4211023622047245"/><line x1="296.48558922558925" y1="221.28068027791966" x2="355.2344107744108" y2="209.63404377754284" stroke="#1f77b4" stroke-width="1.4211023622047245"/><line x1="355.2344107744108" y1="209.63404377754284" x2="413.9832323232324" y2="197.98740727716603" stroke="#1f77b4" stroke-width="1.4211023622047245"/><line x1="413.9832323232324" y1="197.98740727716603" x2="472.73205387205394" y2="186.34077077678924" stroke="#1f77b4" stroke-width="1.4211023622047245"/><line x1="472.73205387205394" y1="186.34077077678924" x2="531.4808754208755" y2="174.69413427641246" stroke="#1f77b4" stroke-width="1.4211023622047245"/><line x1="531.4808754208755" y1="174.69413427641246" x2="590.229696969697" y2="163.04749777603564" stroke="#1f77b4" stroke-width="1.4211023622047245"/></svg>