<svg xmlns="http://www.w3.org/2000/svg" width="800" height="600" viewBox="0 0 800 600"><rect x="0.0" y="0.0" width="800.0" height="600.0" fill="#ffffff" fill-opacity="1.0" stroke="none"/><line x1="157.38522727272726" y1="27.0" x2="157.38522727272726" y2="578.55" stroke="#dddddd" stroke-width="0.5"/><line x1="329.5784090909091" y1="27.0" x2="329.5784090909091" y2="578.55" stroke="#dddddd" stroke-width="0.5"/><line x1="501.77159090909095" y1="27.0" x2="501.77159090909095" y2="578.55" stroke="#dddddd" stroke-width="0.5"/><line x1="673.9647727272727" y1="27.0" x2="673.9647727272727" y2="578.55" stroke="#dddddd" stroke-width="0.5"/><line x1="71.28863636363636" y1="27.0" x2="71.28863636363636" y2="578.55" stroke="#dddddd" stroke-width="1.0"/><line x1="243.4818181818182" y1="27.0" x2="243.4818181818182" y2="578.55" stroke="#dddddd" stroke-width="1.0"/><line x1="415.67499999999995" y1="27.0" x2="415.67499999999995" y2="578.55" stroke="#dddddd" stroke-width="1.0"/><line x1="587.8681818181818" y1="27.0" x2="587.8681818181818" y2="578.55" stroke="#dddddd" stroke-width="1.0"/><line x1="760.0613636363637" y1="27.0" x2="760.0613636363637" y2="578.55" stroke="#dddddd" stroke-width="1.0"/><line x1="36.849999999999994" y1="567.7505943639607" x2="794.5" y2="567.7505943639607" stroke="#dddddd" stroke-width="0.5"/><line x1="36.849999999999994" y1="459.46839735975294" x2="794.5" y2="459.46839735975294" stroke="#dddddd" stroke-width="0.5"/><line x1="36.849999999999994" y1="351.1862003555452" x2="794.5" y2="351.1862003555452" stroke="#dddddd" stroke-width="0.5"/><line x1="36.849999999999994" y1="242.90400335133756" x2="794.5" y2="242.90400335133756" stroke="#dddddd" stroke-width="0.5"/><line x1="36.849999999999994" y1="134.6218063471299" x2="794.5" y2="134.6218063471299" stroke="#dddddd" stroke-width="0.5"/><line x1="36.849999999999994" y1="513.6094958618568" x2="794.5" y2="513.6094958618568" stroke="#dddddd" stroke-width="1.0"/><line x1="36.849999999999994" y1="405.3272988576491" x2="794.5" y2="405.3272988576491" stroke="#dddddd" stroke-width="1.0"/><line x1="36.849999999999994" y1="297.04510185344145" x2="794.5" y2="297.04510185344145" stroke="#dddddd" stroke-width="1.0"/><line x1="36.849999999999994" y1="188.76290484923368" x2="794.5" y2="188.76290484923368" stroke="#dddddd" stroke-width="1.0"/><line x1="36.849999999999994" y1="80.48070784502607" x2="794.5" y2="80.48070784502607" stroke="#dddddd" stroke-width="1.0"/><rect x="36.849999999999994" y="27.0" width="757.65" height="551.55" fill="#ffffff" fill-opacity="0.0" stroke="#444444" stroke-width="1.0"/><line x1="71.28863636363636" y1="578.55" x2="71.28863636363636" y2="581.3" stroke="#444444" stroke-width="1.0"/><text x="71.28863636363636" y="592.3" fill="#333333" font-size="11.0" font-family="sans-serif" text-anchor="middle">0</text><line x1="243.4818181818182" y1="578.55" x2="243.4818181818182" y2="581.3" stroke="#444444" stroke-width="1.0"/><text x="243.4818181818182" y="592.3" fill="#333333" font-size="11.0" font-family="sans-serif" text-anchor="middle">3</text><line x1="415.67499999999995" y1="578.55" x2="415.67499999999995" y2="581.3" stroke="#444444" stroke-width="1.0"/><text x="415.67499999999995" y="592.3" fill="#333333" font-size="11.0" font-family="sans-serif" text-anchor="middle">6</text><line x1="587.8681818181818" y1="578.55" x2="587.8681818181818" y2="581.3" stroke="#444444" stroke-width="1.0"/><text x="587.8681818181818" y="592.3" fill="#333333" font-size="11.0" font-family="sans-serif" text-anchor="middle">9</text><line x1="760.0613636363637" y1="578.55" x2="760.0613636363637" y2="581.3" stroke="#444444" stroke-width="1.0"/><text x="760.0613636363637" y="592.3" fill="#333333" font-size="11.0" font-family="sans-serif" text-anchor="middle">12</text><line x1="36.849999999999994" y1="513.6094958618568" x2="34.099999999999994" y2="513.6094958618568" stroke="#444444" stroke-width="1.0"/><text x="31.899999999999995" y="517.4594958618568" fill="#333333" font-size="11.0" font-family="sans-serif" text-anchor="end">-1</text><line x1="36.849999999999994" y1="405.3272988576491" x2="34.099999999999994" y2="405.3272988576491" stroke="#444444" stroke-width="1.0"/><text x="31.899999999999995" y="409.17729885764913" fill="#333333" font-size="11.0" font-family="sans-serif" text-anchor="end">-0.5</text><line x1="36.849999999999994" y1="297.04510185344145" x2="34.099999999999994" y2="297.04510185344145" stroke="#444444" stroke-width="1.0"/><text x="31.899999999999995" y="300.8951018534415" fill="#333333" font-size="11.0" font-family="sans-serif" text-anchor="end">0</text><line x1="36.849999999999994" y1="188.76290484923368" x2="34.099999999999994" y2="188.76290484923368" stroke="#444444" stroke-width="1.0"/><text x="31.899999999999995" y="192.61290484923367" fill="#333333" font-size="11.0" font-family="sans-serif" text-anchor="end">0.5</text><line x1="36.849999999999994" y1="80.48070784502607" x2="34.099999999999994" y2="80.48070784502607" stroke="#444444" stroke-width="1.0"/><text x="31.899999999999995" y="84.33070784502607" fill="#333333" font-size="11.0" font-family="sans-serif" text-anchor="end">1</text><text x="415.67499999999995" y="18.3" fill="#333333" font-size="16.0" font-family="sans-serif" text-anchor="middle">stat-in: statSmoothCI (B-spline + 帯)</text><circle cx="71.28863636363636" cy="297.04510185344145" r="3.0" fill="#1f77b4" fill-opacity="0.85" stroke="#1f77b4" stroke-width="1.0"><title>(0, 0)</title></circle><circle cx="88.50795454545454" cy="219.16265766445247" r="3.0" fill="#1f77b4" fill-opacity="0.85" stroke="#1f77b4" stroke-width="1.0"><title>(0.3, 0.359627188696)</title></circle><circle cx="105.72727272727273" cy="199.86663771505067" r="3.0" fill="#1f77b4" fill-opacity="0.85" stroke="#1f77b4" stroke-width="1.0"><title>(0.6, 0.448727800262)</title></circle><circle cx="122.94659090909092" cy="95.89784448839038" r="3.0" fill="#1f77b4" fill-opacity="0.85" stroke="#1f77b4" stroke-width="1.0"><title>(0.9, 0.928810381254)</title></circle><circle cx="140.1659090909091" cy="127.0640010425791" r="3.0" fill="#1f77b4" fill-opacity="0.85" stroke="#1f77b4" stroke-width="1.0"><title>(1.2, 0.784898651457)</title></circle><circle cx="157.38522727272726" cy="54.91254146566894" r="3.0" fill="#1f77b4" fill-opacity="0.85" stroke="#1f77b4" stroke-width="1.0"><title>(1.5, 1.118062650587)</title></circle><circle cx="174.60454545454544" cy="101.49084699586945" r="3.0" fill="#1f77b4" fill-opacity="0.85" stroke="#1f77b4" stroke-width="1.0"><title>(1.8, 0.902984332918)</title></circle><circle cx="191.82386363636363" cy="108.4667246383662" r="3.0" fill="#1f77b4" fill-opacity="0.85" stroke="#1f77b4" stroke-width="1.0"><title>(2.1, 0.87077276982)</title></circle><circle cx="209.04318181818184" cy="138.37903522878514" r="3.0" fill="#1f77b4" fill-opacity="0.85" stroke="#1f77b4" stroke-width="1.0"><title>(2.4, 0.732650754299)</title></circle><circle cx="226.2625" cy="228.52129222588235" r="3.0" fill="#1f77b4" fill-opacity="0.85" stroke="#1f77b4" stroke-width="1.0"><title>(2.7, 0.316413092472)</title></circle><circle cx="243.4818181818182" cy="235.41598681862" r="3.0" fill="#1f77b4" fill-opacity="0.85" stroke="#1f77b4" stroke-width="1.0"><title>(3, 0.284576397321)</title></circle><circle cx="260.70113636363635" cy="363.35035309763674" r="3.0" fill="#1f77b4" fill-opacity="0.85" stroke="#1f77b4" stroke-width="1.0"><title>(3.3, -0.306168756631)</title></circle><circle cx="277.9204545454545" cy="365.8273654983604" r="3.0" fill="#1f77b4" fill-opacity="0.85" stroke="#1f77b4" stroke-width="1.0"><title>(3.6, -0.317606520499)</title></circle><circle cx="295.13977272727277" cy="462.7613655627713" r="3.0" fill="#1f77b4" fill-opacity="0.85" stroke="#1f77b4" stroke-width="1.0"><title>(3.9, -0.765205492196)</title></circle><circle cx="312.3590909090909" cy="482.5256202771363" r="3.0" fill="#1f77b4" fill-opacity="0.85" stroke="#1f77b4" stroke-width="1.0"><title>(4.2, -0.856468207865)</title></circle><circle cx="329.5784090909091" cy="497.8885323423516" r="3.0" fill="#1f77b4" fill-opacity="0.85" stroke="#1f77b4" stroke-width="1.0"><title>(4.5, -0.927407441138)</title></circle><circle cx="346.79772727272723" cy="535.6776684518608" r="3.0" fill="#1f77b4" fill-opacity="0.85" stroke="#1f77b4" stroke-width="1.0"><title>(4.8, -1.101901204448)</title></circle><circle cx="364.0170454545454" cy="466.9940832255533" r="3.0" fill="#1f77b4" fill-opacity="0.85" stroke="#1f77b4" stroke-width="1.0"><title>(5.1, -0.784750337886)</title></circle><circle cx="381.23636363636365" cy="496.7375226668106" r="3.0" fill="#1f77b4" fill-opacity="0.85" stroke="#1f77b4" stroke-width="1.0"><title>(5.4, -0.922092580028)</title></circle><circle cx="398.4556818181819" cy="388.3796516017825" r="3.0" fill="#1f77b4" fill-opacity="0.85" stroke="#1f77b4" stroke-width="1.0"><title>(5.7, -0.421743150191)</title></circle><circle cx="415.67499999999995" cy="375.70862165891464" r="3.0" fill="#1f77b4" fill-opacity="0.85" stroke="#1f77b4" stroke-width="1.0"><title>(6, -0.363233855527)</title></circle><circle cx="432.8943181818182" cy="288.5065759587747" r="3.0" fill="#1f77b4" fill-opacity="0.85" stroke="#1f77b4" stroke-width="1.0"><title>(6.3, 0.039427191777)</title></circle><circle cx="450.11363636363626" cy="220.27916866222893" r="3.0" fill="#1f77b4" fill-opacity="0.85" stroke="#1f77b4" stroke-width="1.0"><title>(6.6, 0.354471627447)</title></circle><circle cx="467.3329545454545" cy="193.48349716723357" r="3.0" fill="#1f77b4" fill-opacity="0.85" stroke="#1f77b4" stroke-width="1.0"><title>(6.9, 0.478202361752)</title></circle><circle cx="484.5522727272727" cy="95.21113930698942" r="3.0" fill="#1f77b4" fill-opacity="0.85" stroke="#1f77b4" stroke-width="1.0"><title>(7.2, 0.931981286539)</title></circle><circle cx="501.77159090909095" cy="126.36057751707597" r="3.0" fill="#1f77b4" fill-opacity="0.85" stroke="#1f77b4" stroke-width="1.0"><title>(7.5, 0.78814675477)</title></circle><circle cx="518.9909090909091" cy="52.07045454545448" r="3.0" fill="#1f77b4" fill-opacity="0.85" stroke="#1f77b4" stroke-width="1.0"><title>(7.8, 1.131186169498)</title></circle><circle cx="536.2102272727273" cy="106.48886394985055" r="3.0" fill="#1f77b4" fill-opacity="0.85" stroke="#1f77b4" stroke-width="1.0"><title>(8.1, 0.879905668594)</title></circle><circle cx="553.4295454545455" cy="105.45915919723808" r="3.0" fill="#1f77b4" fill-opacity="0.85" stroke="#1f77b4" stroke-width="1.0"><title>(8.4, 0.88466039643)</title></circle><circle cx="570.6488636363636" cy="145.75367877680833" r="3.0" fill="#1f77b4" fill-opacity="0.85" stroke="#1f77b4" stroke-width="1.0"><title>(8.7, 0.698597864018)</title></circle><circle cx="587.8681818181818" cy="228.2566086033778" r="3.0" fill="#1f77b4" fill-opacity="0.85" stroke="#1f77b4" stroke-width="1.0"><title>(9, 0.317635286101)</title></circle><circle cx="605.0875" cy="240.81089851357478" r="3.0" fill="#1f77b4" fill-opacity="0.85" stroke="#1f77b4" stroke-width="1.0"><title>(9.3, 0.259665046036)</title></circle><circle cx="622.3068181818181" cy="367.2821099283811" r="3.0" fill="#1f77b4" fill-opacity="0.85" stroke="#1f77b4" stroke-width="1.0"><title>(9.6, -0.324323896347)</title></circle><circle cx="639.5261363636364" cy="366.6770709432411" r="3.0" fill="#1f77b4" fill-opacity="0.85" stroke="#1f77b4" stroke-width="1.0"><title>(9.9, -0.32153008997)</title></circle><circle cx="656.7454545454545" cy="469.3861130428638" r="3.0" fill="#1f77b4" fill-opacity="0.85" stroke="#1f77b4" stroke-width="1.0"><title>(10.2, -0.795795689215)</title></circle><circle cx="673.9647727272727" cy="479.44918123464447" r="3.0" fill="#1f77b4" fill-opacity="0.85" stroke="#1f77b4" stroke-width="1.0"><title>(10.5, -0.842262552976)</title></circle><circle cx="691.1840909090909" cy="503.36597137535404" r="3.0" fill="#1f77b4" fill-opacity="0.85" stroke="#1f77b4" stroke-width="1.0"><title>(10.8, -0.952699867707)</title></circle><circle cx="708.4034090909091" cy="531.5932657033333" r="3.0" fill="#1f77b4" fill-opacity="0.85" stroke="#1f77b4" stroke-width="1.0"><title>(11.1, -1.083041212402)</title></circle><circle cx="725.6227272727274" cy="467.60357124803795" r="3.0" fill="#1f77b4" fill-opacity="0.85" stroke="#1f77b4" stroke-width="1.0"><title>(11.4, -0.787564687979)</title></circle><circle cx="742.8420454545454" cy="494.4961699038714" r="3.0" fill="#1f77b4" fill-opacity="0.85" stroke="#1f77b4" stroke-width="1.0"><title>(11.7, -0.911742989675)</title></circle><circle cx="760.0613636363637" cy="383.14030748429457" r="3.0" fill="#1f77b4" fill-opacity="0.85" stroke="#1f77b4" stroke-width="1.0"><title>(12, -0.397550142188)</title></circle><path d="M 71.28863636363636 349.27673979719697 L 88.50795454545454 254.6119274267034 L 105.72727272727273 192.7333716493726 L 122.94659090909092 151.64340670541162 L 140.1659090909091 124.69093389327321 L 157.38522727272726 111.71844636638565 L 174.60454545454544 114.74793785467108 L 191.82386363636363 135.58381627257808 L 209.04318181818184 173.24945233127875 L 226.2625 224.12179289289998 L 243.4818181818182 283.0113936045003 L 260.70113636363635 345.2498029059484 L 277.9204545454545 406.65607128877036 L 295.13977272727277 463.03780308761725 L 312.3590909090909 509.43438018901594 L 329.5784090909091 539.8235493988641 L 346.79772727272723 547.7582432091858 L 364.0170454545454 529.0481080787882 L 381.23636363636365 488.1423504044164 L 398.4556818181819 431.89797900916153 L 415.67499999999995 367.21941427609033 L 432.8943181818182 300.5006869933211 L 450.11363636363626 237.25535645617634 L 467.3329545454545 182.48659236503096 L 484.5522727272727 141.24497598023476 L 501.77159090909095 117.75070202737123 L 518.9909090909091 111.91076932551499 L 536.2102272727273 122.65070169941015 L 553.4295454545455 148.47120865992866 L 570.6488636363636 186.81136463731173 L 587.8681818181818 234.3420216136779 L 605.0875 287.7225854142696 L 622.3068181818181 344.0999639159873 L 639.5261363636364 401.4084397284904 L 656.7454545454545 457.0814320061651 L 673.9647727272727 506.1723179943023 L 691.1840909090909 540.9534377349155 L 708.4034090909091 553.4795454545454 L 725.6227272727274 537.9848959562258 L 742.8420454545454 495.19733589796687 L 760.0613636363637 431.19127899602336 L 760.0613636363637 336.1014302148577 L 742.8420454545454 437.49992731558416 L 725.6227272727274 485.8784447035054 L 708.4034090909091 498.570554343079 L 691.1840909090909 487.56326114051524 L 673.9647727272727 458.34997814705 L 656.7454545454545 414.24461783742464 L 639.5261363636364 358.77867850185453 L 622.3068181818181 298.26469563383097 L 605.0875 240.27691350687797 L 587.8681818181818 188.41710733353722 L 570.6488636363636 144.38134446452574 L 553.4295454545455 109.3781901989048 L 536.2102272727273 84.6276559926099 L 518.9909090909091 72.11797574970075 L 501.77159090909095 74.8990184548664 L 484.5522727272727 96.44546740666948 L 467.3329545454545 138.47068930512518 L 450.11363636363626 196.0300803852528 L 432.8943181818182 262.2666318239609 L 415.67499999999995 330.2759232381833 L 398.4556818181819 393.6639238398014 L 381.23636363636365 446.9170743334928 L 364.0170454545454 485.03220501888245 L 346.79772727272723 502.9587346356206 L 329.5784090909091 496.97186582635925 L 312.3590909090909 469.64158661320175 L 295.13977272727277 425.014757380817 L 277.9204545454545 367.56305282774656 L 260.70113636363635 302.81978273316247 L 243.4818181818182 237.08647932435963 L 226.2625 176.67612098550836 L 209.04318181818184 127.41418404912235 L 191.82386363636363 92.95405504594214 L 174.60454545454544 71.91112368593065 L 157.38522727272726 63.89610651913324 L 140.1659090909091 71.30075729887295 L 122.94659090909092 96.73441559394519 L 105.72727272727273 140.62692039665217 L 88.50795454545454 196.9145188443207 L 71.28863636363636 254.18689101603138 Z" fill="#1f77b4" fill-opacity="0.2" stroke="none"/><line x1="71.28863636363636" y1="301.73181540661415" x2="88.50795454545454" y2="225.76322313551208" stroke="#1f77b4" stroke-width="2.0"/><line x1="88.50795454545454" y1="225.76322313551208" x2="105.72727272727273" y2="166.68014602301236" stroke="#1f77b4" stroke-width="2.0"/><line x1="105.72727272727273" y1="166.68014602301236" x2="122.94659090909092" y2="124.1889111496784" stroke="#1f77b4" stroke-width="2.0"/><line x1="122.94659090909092" y1="124.1889111496784" x2="140.1659090909091" y2="97.99584559607308" stroke="#1f77b4" stroke-width="2.0"/><line x1="140.1659090909091" y1="97.99584559607308" x2="157.38522727272726" y2="87.80727644275959" stroke="#1f77b4" stroke-width="2.0"/><line x1="157.38522727272726" y1="87.80727644275959" x2="174.60454545454544" y2="93.32953077030083" stroke="#1f77b4" stroke-width="2.0"/><line x1="174.60454545454544" y1="93.32953077030083" x2="191.82386363636363" y2="114.26893565926008" stroke="#1f77b4" stroke-width="2.0"/><line x1="191.82386363636363" y1="114.26893565926008" x2="209.04318181818184" y2="150.33181819020052" stroke="#1f77b4" stroke-width="2.0"/><line x1="209.04318181818184" y1="150.33181819020052" x2="226.2625" y2="200.3989569392042" stroke="#1f77b4" stroke-width="2.0"/><line x1="226.2625" y1="200.3989569392042" x2="243.4818181818182" y2="260.04893646442997" stroke="#1f77b4" stroke-width="2.0"/><line x1="243.4818181818182" y1="260.04893646442997" x2="260.70113636363635" y2="324.0347928195555" stroke="#1f77b4" stroke-width="2.0"/><line x1="260.70113636363635" y1="324.0347928195555" x2="277.9204545454545" y2="387.10956205825846" stroke="#1f77b4" stroke-width="2.0"/><line x1="277.9204545454545" y1="387.10956205825846" x2="295.13977272727277" y2="444.0262802342171" stroke="#1f77b4" stroke-width="2.0"/><line x1="295.13977272727277" y1="444.0262802342171" x2="312.3590909090909" y2="489.5379834011088" stroke="#1f77b4" stroke-width="2.0"/><line x1="312.3590909090909" y1="489.5379834011088" x2="329.5784090909091" y2="518.3977076126116" stroke="#1f77b4" stroke-width="2.0"/><line x1="329.5784090909091" y1="518.3977076126116" x2="346.79772727272723" y2="525.3584889224032" stroke="#1f77b4" stroke-width="2.0"/><line x1="346.79772727272723" y1="525.3584889224032" x2="364.0170454545454" y2="507.0401565488353" stroke="#1f77b4" stroke-width="2.0"/><line x1="364.0170454545454" y1="507.0401565488353" x2="381.23636363636365" y2="467.5297123689546" stroke="#1f77b4" stroke-width="2.0"/><line x1="381.23636363636365" y1="467.5297123689546" x2="398.4556818181819" y2="412.7809514244815" stroke="#1f77b4" stroke-width="2.0"/><line x1="398.4556818181819" y1="412.7809514244815" x2="415.67499999999995" y2="348.7476687571368" stroke="#1f77b4" stroke-width="2.0"/><line x1="415.67499999999995" y1="348.7476687571368" x2="432.8943181818182" y2="281.38365940864105" stroke="#1f77b4" stroke-width="2.0"/><line x1="432.8943181818182" y1="281.38365940864105" x2="450.11363636363626" y2="216.64271842071457" stroke="#1f77b4" stroke-width="2.0"/><line x1="450.11363636363626" y1="216.64271842071457" x2="467.3329545454545" y2="160.47864083507807" stroke="#1f77b4" stroke-width="2.0"/><line x1="467.3329545454545" y1="160.47864083507807" x2="484.5522727272727" y2="118.84522169345212" stroke="#1f77b4" stroke-width="2.0"/><line x1="484.5522727272727" y1="118.84522169345212" x2="501.77159090909095" y2="96.32486024111887" stroke="#1f77b4" stroke-width="2.0"/><line x1="501.77159090909095" y1="96.32486024111887" x2="518.9909090909091" y2="92.01437253760787" stroke="#1f77b4" stroke-width="2.0"/><line x1="518.9909090909091" y1="92.01437253760787" x2="536.2102272727273" y2="103.63917884601" stroke="#1f77b4" stroke-width="2.0"/><line x1="536.2102272727273" y1="103.63917884601" x2="553.4295454545455" y2="128.92469942941682" stroke="#1f77b4" stroke-width="2.0"/><line x1="553.4295454545455" y1="128.92469942941682" x2="570.6488636363636" y2="165.59635455091876" stroke="#1f77b4" stroke-width="2.0"/><line x1="570.6488636363636" y1="165.59635455091876" x2="587.8681818181818" y2="211.37956447360756" stroke="#1f77b4" stroke-width="2.0"/><line x1="587.8681818181818" y1="211.37956447360756" x2="605.0875" y2="263.99974946057375" stroke="#1f77b4" stroke-width="2.0"/><line x1="605.0875" y1="263.99974946057375" x2="622.3068181818181" y2="321.18232977490914" stroke="#1f77b4" stroke-width="2.0"/><line x1="622.3068181818181" y1="321.18232977490914" x2="639.5261363636364" y2="380.09355911517247" stroke="#1f77b4" stroke-width="2.0"/><line x1="639.5261363636364" y1="380.09355911517247" x2="656.7454545454545" y2="435.6630249217949" stroke="#1f77b4" stroke-width="2.0"/><line x1="656.7454545454545" y1="435.6630249217949" x2="673.9647727272727" y2="482.2611480706762" stroke="#1f77b4" stroke-width="2.0"/><line x1="673.9647727272727" y1="482.2611480706762" x2="691.1840909090909" y2="514.2583494377153" stroke="#1f77b4" stroke-width="2.0"/><line x1="691.1840909090909" y1="514.2583494377153" x2="708.4034090909091" y2="526.0250498988122" stroke="#1f77b4" stroke-width="2.0"/><line x1="708.4034090909091" y1="526.0250498988122" x2="725.6227272727274" y2="511.9316703298656" stroke="#1f77b4" stroke-width="2.0"/><line x1="725.6227272727274" y1="511.9316703298656" x2="742.8420454545454" y2="466.3486316067755" stroke="#1f77b4" stroke-width="2.0"/><line x1="742.8420454545454" y1="466.3486316067755" x2="760.0613636363637" y2="383.6463546054406" stroke="#1f77b4" stroke-width="2.0"/></svg>