<svg xmlns="http://www.w3.org/2000/svg" width="624" height="384" viewBox="0 0 624 384"><rect x="0.0" y="0.0" width="624.0" height="384.0" fill="#ffffff" fill-opacity="1.0" stroke="none"/><line x1="133.50272727272727" y1="32.266666666666666" x2="133.50272727272727" y2="358.3333333333333" stroke="#dddddd" stroke-width="0.6666666666666666"/><line x1="264.08757575757573" y1="32.266666666666666" x2="264.08757575757573" y2="358.3333333333333" stroke="#dddddd" stroke-width="0.6666666666666666"/><line x1="394.6724242424242" y1="32.266666666666666" x2="394.6724242424242" y2="358.3333333333333" stroke="#dddddd" stroke-width="0.6666666666666666"/><line x1="525.2572727272727" y1="32.266666666666666" x2="525.2572727272727" y2="358.3333333333333" stroke="#dddddd" stroke-width="0.6666666666666666"/><line x1="68.21030303030304" y1="32.266666666666666" x2="68.21030303030304" y2="358.3333333333333" stroke="#dddddd" stroke-width="1.3333333333333333"/><line x1="198.79515151515153" y1="32.266666666666666" x2="198.79515151515153" y2="358.3333333333333" stroke="#dddddd" stroke-width="1.3333333333333333"/><line x1="329.38" y1="32.266666666666666" x2="329.38" y2="358.3333333333333" stroke="#dddddd" stroke-width="1.3333333333333333"/><line x1="459.9648484848485" y1="32.266666666666666" x2="459.9648484848485" y2="358.3333333333333" stroke="#dddddd" stroke-width="1.3333333333333333"/><line x1="590.5496969696969" y1="32.266666666666666" x2="590.5496969696969" y2="358.3333333333333" stroke="#dddddd" stroke-width="1.3333333333333333"/><line x1="42.093333333333334" y1="351.9489145177689" x2="616.6666666666666" y2="351.9489145177689" stroke="#dddddd" stroke-width="0.6666666666666666"/><line x1="42.093333333333334" y1="287.93438267749093" x2="616.6666666666666" y2="287.93438267749093" stroke="#dddddd" stroke-width="0.6666666666666666"/><line x1="42.093333333333334" y1="223.9198508372129" x2="616.6666666666666" y2="223.9198508372129" stroke="#dddddd" stroke-width="0.6666666666666666"/><line x1="42.093333333333334" y1="159.90531899693497" x2="616.6666666666666" y2="159.90531899693497" stroke="#dddddd" stroke-width="0.6666666666666666"/><line x1="42.093333333333334" y1="95.89078715665698" x2="616.6666666666666" y2="95.89078715665698" stroke="#dddddd" stroke-width="0.6666666666666666"/><line x1="42.093333333333334" y1="319.9416485976299" x2="616.6666666666666" y2="319.9416485976299" stroke="#dddddd" stroke-width="1.3333333333333333"/><line x1="42.093333333333334" y1="255.9271167573519" x2="616.6666666666666" y2="255.9271167573519" stroke="#dddddd" stroke-width="1.3333333333333333"/><line x1="42.093333333333334" y1="191.91258491707396" x2="616.6666666666666" y2="191.91258491707396" stroke="#dddddd" stroke-width="1.3333333333333333"/><line x1="42.093333333333334" y1="127.89805307679595" x2="616.6666666666666" y2="127.89805307679595" stroke="#dddddd" stroke-width="1.3333333333333333"/><line x1="42.093333333333334" y1="63.88352123651801" x2="616.6666666666666" y2="63.88352123651801" stroke="#dddddd" stroke-width="1.3333333333333333"/><rect x="42.093333333333334" y="32.266666666666666" width="574.5733333333333" height="326.06666666666666" fill="#ffffff" fill-opacity="0.0" stroke="#444444" stroke-width="1.3333333333333333"/><line x1="68.21030303030304" y1="358.3333333333333" x2="68.21030303030304" y2="362.0" stroke="#444444" stroke-width="1.3333333333333333"/><text x="68.21030303030304" y="374.32" fill="#333333" font-size="11.733333333333334" font-family="sans-serif" text-anchor="middle">0</text><line x1="198.79515151515153" y1="358.3333333333333" x2="198.79515151515153" y2="362.0" stroke="#444444" stroke-width="1.3333333333333333"/><text x="198.79515151515153" y="374.32" fill="#333333" font-size="11.733333333333334" font-family="sans-serif" text-anchor="middle">3</text><line x1="329.38" y1="358.3333333333333" x2="329.38" y2="362.0" stroke="#444444" stroke-width="1.3333333333333333"/><text x="329.38" y="374.32" fill="#333333" font-size="11.733333333333334" font-family="sans-serif" text-anchor="middle">6</text><line x1="459.9648484848485" y1="358.3333333333333" x2="459.9648484848485" y2="362.0" stroke="#444444" stroke-width="1.3333333333333333"/><text x="459.9648484848485" y="374.32" fill="#333333" font-size="11.733333333333334" font-family="sans-serif" text-anchor="middle">9</text><line x1="590.5496969696969" y1="358.3333333333333" x2="590.5496969696969" y2="362.0" stroke="#444444" stroke-width="1.3333333333333333"/><text x="590.5496969696969" y="374.32" fill="#333333" font-size="11.733333333333334" font-family="sans-serif" text-anchor="middle">12</text><line x1="42.093333333333334" y1="319.9416485976299" x2="38.42666666666666" y2="319.9416485976299" stroke="#444444" stroke-width="1.3333333333333333"/><text x="35.49333333333333" y="324.0483152642966" fill="#333333" font-size="11.733333333333334" font-family="sans-serif" text-anchor="end">-1.0</text><line x1="42.093333333333334" y1="255.9271167573519" x2="38.42666666666666" y2="255.9271167573519" stroke="#444444" stroke-width="1.3333333333333333"/><text x="35.49333333333333" y="260.03378342401857" fill="#333333" font-size="11.733333333333334" font-family="sans-serif" text-anchor="end">-0.5</text><line x1="42.093333333333334" y1="191.91258491707396" x2="38.42666666666666" y2="191.91258491707396" stroke="#444444" stroke-width="1.3333333333333333"/><text x="35.49333333333333" y="196.01925158374064" fill="#333333" font-size="11.733333333333334" font-family="sans-serif" text-anchor="end">0.0</text><line x1="42.093333333333334" y1="127.89805307679595" x2="38.42666666666666" y2="127.89805307679595" stroke="#444444" stroke-width="1.3333333333333333"/><text x="35.49333333333333" y="132.0047197434626" fill="#333333" font-size="11.733333333333334" font-family="sans-serif" text-anchor="end">0.5</text><line x1="42.093333333333334" y1="63.88352123651801" x2="38.42666666666666" y2="63.88352123651801" stroke="#444444" stroke-width="1.3333333333333333"/><text x="35.49333333333333" y="67.99018790318468" fill="#333333" font-size="11.733333333333334" font-family="sans-serif" text-anchor="end">1.0</text><text x="42.093333333333334" y="21.413333333333334" fill="#333333" font-size="17.599999999999998" font-family="sans-serif" text-anchor="start">stat-in: statSmoothCI (B-spline + 帯)</text><circle cx="68.21030303030304" cy="191.91258491707396" r="3.1181102362204727" fill="#1f77b4" fill-opacity="0.85" stroke="none"><title>(0, 0)</title></circle><circle cx="81.26878787878788" cy="145.86985267420144" r="3.1181102362204727" fill="#1f77b4" fill-opacity="0.85" stroke="none"><title>(0.3, 0.359627188696)</title></circle><circle cx="94.32727272727273" cy="134.46238480214097" r="3.1181102362204727" fill="#1f77b4" fill-opacity="0.85" stroke="none"><title>(0.6, 0.448727800262)</title></circle><circle cx="107.38575757575758" cy="72.99786146831259" r="3.1181102362204727" fill="#1f77b4" fill-opacity="0.85" stroke="none"><title>(0.9, 0.928810381254)</title></circle><circle cx="120.44424242424243" cy="91.42274548687085" r="3.1181102362204727" fill="#1f77b4" fill-opacity="0.85" stroke="none"><title>(1.2, 0.784898651457)</title></circle><circle cx="133.50272727272727" cy="48.76807062624562" r="3.1181102362204727" fill="#1f77b4" fill-opacity="0.85" stroke="none"><title>(1.5, 1.118062650587)</title></circle><circle cx="146.56121212121212" cy="76.30434625531655" r="3.1181102362204727" fill="#1f77b4" fill-opacity="0.85" stroke="none"><title>(1.8, 0.902984332918)</title></circle><circle cx="159.61969696969697" cy="80.42836251850834" r="3.1181102362204727" fill="#1f77b4" fill-opacity="0.85" stroke="none"><title>(2.1, 0.87077276982)</title></circle><circle cx="172.67818181818183" cy="98.11199483926971" r="3.1181102362204727" fill="#1f77b4" fill-opacity="0.85" stroke="none"><title>(2.4, 0.732650754299)</title></circle><circle cx="185.73666666666668" cy="151.4025129515959" r="3.1181102362204727" fill="#1f77b4" fill-opacity="0.85" stroke="none"><title>(2.7, 0.316413092472)</title></circle><circle cx="198.79515151515153" cy="155.478535222539" r="3.1181102362204727" fill="#1f77b4" fill-opacity="0.85" stroke="none"><title>(3, 0.284576397321)</title></circle><circle cx="211.85363636363638" cy="231.11108415683572" r="3.1181102362204727" fill="#1f77b4" fill-opacity="0.85" stroke="none"><title>(3.3, -0.306168756631)</title></circle><circle cx="224.91212121212118" cy="232.57545035535986" r="3.1181102362204727" fill="#1f77b4" fill-opacity="0.85" stroke="none"><title>(3.6, -0.317606520499)</title></circle><circle cx="237.9706060606061" cy="289.88112760614206" r="3.1181102362204727" fill="#1f77b4" fill-opacity="0.85" stroke="none"><title>(3.9, -0.765205492196)</title></circle><circle cx="251.02909090909094" cy="301.5654076421568" r="3.1181102362204727" fill="#1f77b4" fill-opacity="0.85" stroke="none"><title>(4.2, -0.856468207865)</title></circle><circle cx="264.08757575757573" cy="310.64769125633114" r="3.1181102362204727" fill="#1f77b4" fill-opacity="0.85" stroke="none"><title>(4.5, -0.927407441138)</title></circle><circle cx="277.1460606060606" cy="332.9879643910254" r="3.1181102362204727" fill="#1f77b4" fill-opacity="0.85" stroke="none"><title>(4.8, -1.101901204448)</title></circle><circle cx="290.2045454545454" cy="292.3834358995777" r="3.1181102362204727" fill="#1f77b4" fill-opacity="0.85" stroke="none"><title>(5.1, -0.784750337886)</title></circle><circle cx="303.2630303030303" cy="309.9672345648168" r="3.1181102362204727" fill="#1f77b4" fill-opacity="0.85" stroke="none"><title>(5.4, -0.922092580028)</title></circle><circle cx="316.3215151515152" cy="245.90796554973178" r="3.1181102362204727" fill="#1f77b4" fill-opacity="0.85" stroke="none"><title>(5.7, -0.421743150191)</title></circle><circle cx="329.38" cy="238.4170753372316" r="3.1181102362204727" fill="#1f77b4" fill-opacity="0.85" stroke="none"><title>(6, -0.363233855527)</title></circle><circle cx="342.4384848484849" cy="186.86475847029487" r="3.1181102362204727" fill="#1f77b4" fill-opacity="0.85" stroke="none"><title>(6.3, 0.039427191777)</title></circle><circle cx="355.4969696969697" cy="146.52991435372576" r="3.1181102362204727" fill="#1f77b4" fill-opacity="0.85" stroke="none"><title>(6.6, 0.354471627447)</title></circle><circle cx="368.55545454545455" cy="130.68878429213902" r="3.1181102362204727" fill="#1f77b4" fill-opacity="0.85" stroke="none"><title>(6.9, 0.478202361752)</title></circle><circle cx="381.61393939393935" cy="72.59189343371531" r="3.1181102362204727" fill="#1f77b4" fill-opacity="0.85" stroke="none"><title>(7.2, 0.931981286539)</title></circle><circle cx="394.6724242424242" cy="91.00689386106046" r="3.1181102362204727" fill="#1f77b4" fill-opacity="0.85" stroke="none"><title>(7.5, 0.78814675477)</title></circle><circle cx="407.7309090909091" cy="47.08787878787874" r="3.1181102362204727" fill="#1f77b4" fill-opacity="0.85" stroke="none"><title>(7.8, 1.131186169498)</title></circle><circle cx="420.7893939393939" cy="79.25908603979317" r="3.1181102362204727" fill="#1f77b4" fill-opacity="0.85" stroke="none"><title>(8.1, 0.879905668594)</title></circle><circle cx="433.8478787878788" cy="78.65034268681487" r="3.1181102362204727" fill="#1f77b4" fill-opacity="0.85" stroke="none"><title>(8.4, 0.88466039643)</title></circle><circle cx="446.90636363636355" cy="102.47175449761212" r="3.1181102362204727" fill="#1f77b4" fill-opacity="0.85" stroke="none"><title>(8.7, 0.698597864018)</title></circle><circle cx="459.9648484848485" cy="151.2460366457101" r="3.1181102362204727" fill="#1f77b4" fill-opacity="0.85" stroke="none"><title>(9, 0.317635286101)</title></circle><circle cx="473.0233333333332" cy="158.6679122025678" r="3.1181102362204727" fill="#1f77b4" fill-opacity="0.85" stroke="none"><title>(9.3, 0.259665046036)</title></circle><circle cx="486.08181818181816" cy="233.4354696956712" r="3.1181102362204727" fill="#1f77b4" fill-opacity="0.85" stroke="none"><title>(9.6, -0.324323896347)</title></circle><circle cx="499.140303030303" cy="233.0777812810434" r="3.1181102362204727" fill="#1f77b4" fill-opacity="0.85" stroke="none"><title>(9.9, -0.32153008997)</title></circle><circle cx="512.1987878787878" cy="293.79756188833255" r="3.1181102362204727" fill="#1f77b4" fill-opacity="0.85" stroke="none"><title>(10.2, -0.795795689215)</title></circle><circle cx="525.2572727272727" cy="299.74667094777095" r="3.1181102362204727" fill="#1f77b4" fill-opacity="0.85" stroke="none"><title>(10.5, -0.842262552976)</title></circle><circle cx="538.3157575757575" cy="313.8858569482195" r="3.1181102362204727" fill="#1f77b4" fill-opacity="0.85" stroke="none"><title>(10.8, -0.952699867707)</title></circle><circle cx="551.3742424242423" cy="330.57333726830484" r="3.1181102362204727" fill="#1f77b4" fill-opacity="0.85" stroke="none"><title>(11.1, -1.083041212402)</title></circle><circle cx="564.4327272727273" cy="292.74375450689314" r="3.1181102362204727" fill="#1f77b4" fill-opacity="0.85" stroke="none"><title>(11.4, -0.787564687979)</title></circle><circle cx="577.4912121212121" cy="308.6421862025002" r="3.1181102362204727" fill="#1f77b4" fill-opacity="0.85" stroke="none"><title>(11.7, -0.911742989675)</title></circle><circle cx="590.5496969696969" cy="242.81055738744567" r="3.1181102362204727" fill="#1f77b4" fill-opacity="0.85" stroke="none"><title>(12, -0.397550142188)</title></circle><path d="M 68.21030303030304 222.79101131334005 L 81.26878787878788 166.82683794687773 L 94.32727272727273 130.24532326922082 L 107.38575757575758 105.95365813872036 L 120.44424242424243 90.01982989417691 L 133.50272727272727 82.35072325603508 L 146.56121212121212 84.14170538146391 L 159.61969696969697 96.45951051753293 L 172.67818181818183 118.72677259266723 L 185.73666666666668 148.80160626587784 L 198.79515151515153 183.61610323870437 L 211.85363636363638 220.41035699549676 L 224.91212121212118 256.71266366583575 L 237.9706060606061 290.0445526125206 L 251.02909090909094 317.4733935883089 L 264.08757575757573 335.4389363442232 L 277.1460606060606 340.1297878749135 L 290.2045454545454 329.0686848110903 L 303.2630303030303 304.88591978098094 L 316.3215151515152 271.63523589083 L 329.38 233.39840512789505 L 342.4384848484849 193.95546612085138 L 355.4969696969697 156.5659382258675 L 368.55545454545455 124.1876074405302 L 381.61393939393935 99.80628864343853 L 394.6724242424242 85.91688678764365 L 407.7309090909091 82.46442120945137 L 420.7893939393939 88.81368047766173 L 433.8478787878788 104.07831040470322 L 446.90636363636355 126.74433680126813 L 459.9648484848485 154.8436258680082 L 473.0233333333332 186.40127703879278 L 486.08181818181816 219.7305923927228 L 499.140303030303 253.6103561130205 L 512.1987878787878 286.5232507106824 L 525.2572727272727 315.5449197486033 L 538.3157575757575 336.10690647103274 L 551.3742424242423 343.5121212121212 L 564.4327272727273 334.35195674274325 L 577.4912121212121 309.0567032154179 L 590.5496969696969 271.21744726311306 L 590.5496969696969 215.00199984055467 L 577.4912121212121 274.9470092769494 L 564.4327272727273 303.54753851809687 L 551.3742424242423 311.0508906768198 L 538.3157575757575 304.54357238549056 L 525.2572727272727 287.27319289483836 L 512.1987878787878 261.19887901886733 L 499.140303030303 228.4083904816814 L 486.08181818181816 192.6335873260287 L 473.0233333333332 158.35222965124228 L 459.9648484848485 127.69362366280848 L 446.90636363636355 101.66045457057328 L 433.8478787878788 80.96720493915248 L 420.7893939393939 66.33512409994319 L 407.7309090909091 58.93962099438386 L 394.6724242424242 60.58372456564852 L 381.61393939393935 73.3216065132832 L 368.55545454545455 98.16617911840777 L 355.4969696969697 132.19427953516106 L 342.4384848484849 171.35216465729823 L 329.38 211.55806249756193 L 316.3215151515152 249.0319344272769 L 303.2630303030303 280.5142610902745 L 290.2045454545454 303.04725648896795 L 277.1460606060606 313.64510574475815 L 264.08757575757573 310.10577412222807 L 251.02909090909094 293.94859337324147 L 237.9706060606061 267.565996234802 L 224.91212121212118 233.60155820028513 L 211.85363636363638 195.32647476480193 L 198.79515151515153 156.46610103350474 L 185.73666666666668 120.75255887832732 L 172.67818181818183 91.62976752597315 L 159.61969696969697 71.2575448861938 L 146.56121212121212 58.8173336896488 L 133.50272727272727 54.07899640227007 L 120.44424242424243 58.45649580863475 L 107.38575757575758 73.49242760341895 L 94.32727272727273 99.44090504457449 L 81.26878787878788 132.71714400840932 L 68.21030303030304 166.57556389078167 Z" fill="#1f77b4" fill-opacity="0.2" stroke="none"/><line x1="68.21030303030304" y1="194.68328760206083" x2="81.26878787878788" y2="149.77199097764355" stroke="#1f77b4" stroke-width="2.6666666666666665"/><line x1="81.26878787878788" y1="149.77199097764355" x2="94.32727272727273" y2="114.84311415689763" stroke="#1f77b4" stroke-width="2.6666666666666665"/><line x1="94.32727272727273" y1="114.84311415689763" x2="107.38575757575758" y2="89.72304287106965" stroke="#1f77b4" stroke-width="2.6666666666666665"/><line x1="107.38575757575758" y1="89.72304287106965" x2="120.44424242424243" y2="74.23816285140583" stroke="#1f77b4" stroke-width="2.6666666666666665"/><line x1="120.44424242424243" y1="74.23816285140583" x2="133.50272727272727" y2="68.21485982915263" stroke="#1f77b4" stroke-width="2.6666666666666665"/><line x1="133.50272727272727" y1="68.21485982915263" x2="146.56121212121212" y2="71.4795195355563" stroke="#1f77b4" stroke-width="2.6666666666666665"/><line x1="146.56121212121212" y1="71.4795195355563" x2="159.61969696969697" y2="83.85852770186332" stroke="#1f77b4" stroke-width="2.6666666666666665"/><line x1="159.61969696969697" y1="83.85852770186332" x2="172.67818181818183" y2="105.1782700593202" stroke="#1f77b4" stroke-width="2.6666666666666665"/><line x1="172.67818181818183" y1="105.1782700593202" x2="185.73666666666668" y2="134.7770825721026" stroke="#1f77b4" stroke-width="2.6666666666666665"/><line x1="185.73666666666668" y1="134.7770825721026" x2="198.79515151515153" y2="170.04110213610454" stroke="#1f77b4" stroke-width="2.6666666666666665"/><line x1="198.79515151515153" y1="170.04110213610454" x2="211.85363636363638" y2="207.86841588014937" stroke="#1f77b4" stroke-width="2.6666666666666665"/><line x1="211.85363636363638" y1="207.86841588014937" x2="224.91212121212118" y2="245.15711093306044" stroke="#1f77b4" stroke-width="2.6666666666666665"/><line x1="224.91212121212118" y1="245.15711093306044" x2="237.9706060606061" y2="278.80527442366133" stroke="#1f77b4" stroke-width="2.6666666666666665"/><line x1="237.9706060606061" y1="278.80527442366133" x2="251.02909090909094" y2="305.7109934807752" stroke="#1f77b4" stroke-width="2.6666666666666665"/><line x1="251.02909090909094" y1="305.7109934807752" x2="264.08757575757573" y2="322.7723552332256" stroke="#1f77b4" stroke-width="2.6666666666666665"/><line x1="264.08757575757573" y1="322.7723552332256" x2="277.1460606060606" y2="326.8874468098358" stroke="#1f77b4" stroke-width="2.6666666666666665"/><line x1="277.1460606060606" y1="326.8874468098358" x2="290.2045454545454" y2="316.0579706500291" stroke="#1f77b4" stroke-width="2.6666666666666665"/><line x1="290.2045454545454" y1="316.0579706500291" x2="303.2630303030303" y2="292.7000904356277" stroke="#1f77b4" stroke-width="2.6666666666666665"/><line x1="303.2630303030303" y1="292.7000904356277" x2="316.3215151515152" y2="260.3335851590534" stroke="#1f77b4" stroke-width="2.6666666666666665"/><line x1="316.3215151515152" y1="260.3335851590534" x2="329.38" y2="222.47823381272852" stroke="#1f77b4" stroke-width="2.6666666666666665"/><line x1="329.38" y1="222.47823381272852" x2="342.4384848484849" y2="182.65381538907482" stroke="#1f77b4" stroke-width="2.6666666666666665"/><line x1="342.4384848484849" y1="182.65381538907482" x2="355.4969696969697" y2="144.3801088805143" stroke="#1f77b4" stroke-width="2.6666666666666665"/><line x1="355.4969696969697" y1="144.3801088805143" x2="368.55545454545455" y2="111.17689327946898" stroke="#1f77b4" stroke-width="2.6666666666666665"/><line x1="368.55545454545455" y1="111.17689327946898" x2="381.61393939393935" y2="86.56394757836088" stroke="#1f77b4" stroke-width="2.6666666666666665"/><line x1="381.61393939393935" y1="86.56394757836088" x2="394.6724242424242" y2="73.25030567664608" stroke="#1f77b4" stroke-width="2.6666666666666665"/><line x1="394.6724242424242" y1="73.25030567664608" x2="407.7309090909091" y2="70.70202110191765" stroke="#1f77b4" stroke-width="2.6666666666666665"/><line x1="407.7309090909091" y1="70.70202110191765" x2="420.7893939393939" y2="77.57440228880242" stroke="#1f77b4" stroke-width="2.6666666666666665"/><line x1="420.7893939393939" y1="77.57440228880242" x2="433.8478787878788" y2="92.52275767192789" stroke="#1f77b4" stroke-width="2.6666666666666665"/><line x1="433.8478787878788" y1="92.52275767192789" x2="446.90636363636355" y2="114.20239568592072" stroke="#1f77b4" stroke-width="2.6666666666666665"/><line x1="446.90636363636355" y1="114.20239568592072" x2="459.9648484848485" y2="141.26862476540833" stroke="#1f77b4" stroke-width="2.6666666666666665"/><line x1="459.9648484848485" y1="141.26862476540833" x2="473.0233333333332" y2="172.37675334501753" stroke="#1f77b4" stroke-width="2.6666666666666665"/><line x1="473.0233333333332" y1="172.37675334501753" x2="486.08181818181816" y2="206.18208985937576" stroke="#1f77b4" stroke-width="2.6666666666666665"/><line x1="486.08181818181816" y1="206.18208985937576" x2="499.140303030303" y2="241.00937329735092" stroke="#1f77b4" stroke-width="2.6666666666666665"/><line x1="499.140303030303" y1="241.00937329735092" x2="512.1987878787878" y2="273.86106486477485" stroke="#1f77b4" stroke-width="2.6666666666666665"/><line x1="512.1987878787878" y1="273.86106486477485" x2="525.2572727272727" y2="301.40905632172087" stroke="#1f77b4" stroke-width="2.6666666666666665"/><line x1="525.2572727272727" y1="301.40905632172087" x2="538.3157575757575" y2="320.3252394282616" stroke="#1f77b4" stroke-width="2.6666666666666665"/><line x1="538.3157575757575" y1="320.3252394282616" x2="551.3742424242423" y2="327.2815059444705" stroke="#1f77b4" stroke-width="2.6666666666666665"/><line x1="551.3742424242423" y1="327.2815059444705" x2="564.4327272727273" y2="318.94974763042006" stroke="#1f77b4" stroke-width="2.6666666666666665"/><line x1="564.4327272727273" y1="318.94974763042006" x2="577.4912121212121" y2="292.00185624618365" stroke="#1f77b4" stroke-width="2.6666666666666665"/><line x1="577.4912121212121" y1="292.00185624618365" x2="590.5496969696969" y2="243.1097235518339" stroke="#1f77b4" stroke-width="2.6666666666666665"/></svg>