<svg xmlns="http://www.w3.org/2000/svg" width="624" height="384" viewBox="0 0 624 384"><rect x="0.0" y="0.0" width="624.0" height="384.0" fill="#ffffff" fill-opacity="1.0" stroke="none"/><line x1="127.58272727272723" y1="7.333333333333333" x2="127.58272727272723" y2="358.3333333333333" stroke="#dddddd" stroke-width="0.6666666666666666"/><line x1="259.7675757575757" y1="7.333333333333333" x2="259.7675757575757" y2="358.3333333333333" stroke="#dddddd" stroke-width="0.6666666666666666"/><line x1="391.9524242424243" y1="7.333333333333333" x2="391.9524242424243" y2="358.3333333333333" stroke="#dddddd" stroke-width="0.6666666666666666"/><line x1="524.1372727272726" y1="7.333333333333333" x2="524.1372727272726" y2="358.3333333333333" stroke="#dddddd" stroke-width="0.6666666666666666"/><line x1="61.490303030303025" y1="7.333333333333333" x2="61.490303030303025" y2="358.3333333333333" stroke="#dddddd" stroke-width="1.3333333333333333"/><line x1="193.6751515151515" y1="7.333333333333333" x2="193.6751515151515" y2="358.3333333333333" stroke="#dddddd" stroke-width="1.3333333333333333"/><line x1="325.85999999999996" y1="7.333333333333333" x2="325.85999999999996" y2="358.3333333333333" stroke="#dddddd" stroke-width="1.3333333333333333"/><line x1="458.0448484848485" y1="7.333333333333333" x2="458.0448484848485" y2="358.3333333333333" stroke="#dddddd" stroke-width="1.3333333333333333"/><line x1="590.2296969696969" y1="7.333333333333333" x2="590.2296969696969" y2="358.3333333333333" stroke="#dddddd" stroke-width="1.3333333333333333"/><line x1="35.05333333333333" y1="335.50322332646545" x2="616.6666666666666" y2="335.50322332646545" stroke="#dddddd" stroke-width="0.6666666666666666"/><line x1="35.05333333333333" y1="272.3838017053077" x2="616.6666666666666" y2="272.3838017053077" stroke="#dddddd" stroke-width="0.6666666666666666"/><line x1="35.05333333333333" y1="209.26438008414996" x2="616.6666666666666" y2="209.26438008414996" stroke="#dddddd" stroke-width="0.6666666666666666"/><line x1="35.05333333333333" y1="146.14495846299218" x2="616.6666666666666" y2="146.14495846299218" stroke="#dddddd" stroke-width="0.6666666666666666"/><line x1="35.05333333333333" y1="83.02553684183445" x2="616.6666666666666" y2="83.02553684183445" stroke="#dddddd" stroke-width="0.6666666666666666"/><line x1="35.05333333333333" y1="19.906115220676725" x2="616.6666666666666" y2="19.906115220676725" stroke="#dddddd" stroke-width="0.6666666666666666"/><line x1="35.05333333333333" y1="303.9435125158866" x2="616.6666666666666" y2="303.9435125158866" stroke="#dddddd" stroke-width="1.3333333333333333"/><line x1="35.05333333333333" y1="240.8240908947288" x2="616.6666666666666" y2="240.8240908947288" stroke="#dddddd" stroke-width="1.3333333333333333"/><line x1="35.05333333333333" y1="177.70466927357108" x2="616.6666666666666" y2="177.70466927357108" stroke="#dddddd" stroke-width="1.3333333333333333"/><line x1="35.05333333333333" y1="114.58524765241334" x2="616.6666666666666" y2="114.58524765241334" stroke="#dddddd" stroke-width="1.3333333333333333"/><line x1="35.05333333333333" y1="51.46582603125561" x2="616.6666666666666" y2="51.46582603125561" stroke="#dddddd" stroke-width="1.3333333333333333"/><rect x="35.05333333333333" y="7.333333333333333" width="581.6133333333332" height="351.0" fill="#ffffff" fill-opacity="0.0" stroke="#444444" stroke-width="1.3333333333333333"/><line x1="61.490303030303025" y1="358.3333333333333" x2="61.490303030303025" y2="362.0" stroke="#444444" stroke-width="1.3333333333333333"/><text x="61.490303030303025" y="374.32" fill="#333333" font-size="11.733333333333334" font-family="sans-serif" text-anchor="middle">0</text><line x1="193.6751515151515" y1="358.3333333333333" x2="193.6751515151515" y2="362.0" stroke="#444444" stroke-width="1.3333333333333333"/><text x="193.6751515151515" y="374.32" fill="#333333" font-size="11.733333333333334" font-family="sans-serif" text-anchor="middle">2</text><line x1="325.85999999999996" y1="358.3333333333333" x2="325.85999999999996" y2="362.0" stroke="#444444" stroke-width="1.3333333333333333"/><text x="325.85999999999996" y="374.32" fill="#333333" font-size="11.733333333333334" font-family="sans-serif" text-anchor="middle">4</text><line x1="458.0448484848485" y1="358.3333333333333" x2="458.0448484848485" y2="362.0" stroke="#444444" stroke-width="1.3333333333333333"/><text x="458.0448484848485" y="374.32" fill="#333333" font-size="11.733333333333334" font-family="sans-serif" text-anchor="middle">6</text><line x1="590.2296969696969" y1="358.3333333333333" x2="590.2296969696969" y2="362.0" stroke="#444444" stroke-width="1.3333333333333333"/><text x="590.2296969696969" y="374.32" fill="#333333" font-size="11.733333333333334" font-family="sans-serif" text-anchor="middle">8</text><line x1="35.05333333333333" y1="303.9435125158866" x2="31.386666666666663" y2="303.9435125158866" stroke="#444444" stroke-width="1.3333333333333333"/><text x="28.453333333333333" y="308.0501791825533" fill="#333333" font-size="11.733333333333334" font-family="sans-serif" text-anchor="end">0.0</text><line x1="35.05333333333333" y1="240.8240908947288" x2="31.386666666666663" y2="240.8240908947288" stroke="#444444" stroke-width="1.3333333333333333"/><text x="28.453333333333333" y="244.9307575613955" fill="#333333" font-size="11.733333333333334" font-family="sans-serif" text-anchor="end">0.5</text><line x1="35.05333333333333" y1="177.70466927357108" x2="31.386666666666663" y2="177.70466927357108" stroke="#444444" stroke-width="1.3333333333333333"/><text x="28.453333333333333" y="181.81133594023777" fill="#333333" font-size="11.733333333333334" font-family="sans-serif" text-anchor="end">1.0</text><line x1="35.05333333333333" y1="114.58524765241334" x2="31.386666666666663" y2="114.58524765241334" stroke="#444444" stroke-width="1.3333333333333333"/><text x="28.453333333333333" y="118.69191431908001" fill="#333333" font-size="11.733333333333334" font-family="sans-serif" text-anchor="end">1.5</text><line x1="35.05333333333333" y1="51.46582603125561" x2="31.386666666666663" y2="51.46582603125561" stroke="#444444" stroke-width="1.3333333333333333"/><text x="28.453333333333333" y="55.57249269792227" fill="#333333" font-size="11.733333333333334" font-family="sans-serif" text-anchor="end">2.0</text><circle cx="61.490303030303025" cy="303.9435125158866" r="3.1181102362204727" fill="#1f77b4" fill-opacity="0.85" stroke="none"><title>(0, 0)</title></circle><circle cx="87.92727272727271" cy="247.20946085096355" r="3.1181102362204727" fill="#1f77b4" fill-opacity="0.85" stroke="none"><title>(0.4, 0.449418342309)</title></circle><circle cx="114.36424242424243" cy="198.23664821882363" r="3.1181102362204727" fill="#1f77b4" fill-opacity="0.85" stroke="none"><title>(0.8, 0.8373560909)</title></circle><circle cx="140.8012121212121" cy="163.5609846631421" r="3.1181102362204727" fill="#1f77b4" fill-opacity="0.85" stroke="none"><title>(1.2, 1.112039085967)</title></circle><circle cx="167.23818181818177" cy="147.46117475421778" r="3.1181102362204727" fill="#1f77b4" fill-opacity="0.85" stroke="none"><title>(1.6, 1.239573603042)</title></circle><circle cx="193.6751515151515" cy="151.28320421750385" r="3.1181102362204727" fill="#1f77b4" fill-opacity="0.85" stroke="none"><title>(2, 1.209297426826)</title></circle><circle cx="220.11212121212117" cy="173.2278383831004" r="3.1181102362204727" fill="#1f77b4" fill-opacity="0.85" stroke="none"><title>(2.4, 1.035463180551)</title></circle><circle cx="246.5490909090909" cy="208.63468177854958" r="3.1181102362204727" fill="#1f77b4" fill-opacity="0.85" stroke="none"><title>(2.8, 0.754988150156)</title></circle><circle cx="272.98606060606056" cy="250.71795210113387" r="3.1181102362204727" fill="#1f77b4" fill-opacity="0.85" stroke="none"><title>(3.2, 0.421625856572)</title></circle><circle cx="299.42303030303026" cy="291.6378060376551" r="3.1181102362204727" fill="#1f77b4" fill-opacity="0.85" stroke="none"><title>(3.6, 0.097479556705)</title></circle><circle cx="325.85999999999996" cy="323.73807814106806" r="3.1181102362204727" fill="#1f77b4" fill-opacity="0.85" stroke="none"><title>(4, -0.156802495308)</title></circle><circle cx="352.2969696969697" cy="340.75502101075926" r="3.1181102362204727" fill="#1f77b4" fill-opacity="0.85" stroke="none"><title>(4.4, -0.29160207389)</title></circle><circle cx="378.7339393939394" cy="338.80621327978963" r="3.1181102362204727" fill="#1f77b4" fill-opacity="0.85" stroke="none"><title>(4.8, -0.276164608836)</title></circle><circle cx="405.17090909090905" cy="317.0035085820307" r="3.1181102362204727" fill="#1f77b4" fill-opacity="0.85" stroke="none"><title>(5.2, -0.10345465572)</title></circle><circle cx="431.6078787878788" cy="277.593254334809" r="3.1181102362204727" fill="#1f77b4" fill-opacity="0.85" stroke="none"><title>(5.6, 0.208733362128)</title></circle><circle cx="458.0448484848485" cy="225.60164287441035" r="3.1181102362204727" fill="#1f77b4" fill-opacity="0.85" stroke="none"><title>(6, 0.620584501801)</title></circle><circle cx="484.4818181818182" cy="168.04118620212571" r="3.1181102362204727" fill="#1f77b4" fill-opacity="0.85" stroke="none"><title>(6.4, 1.07654920485)</title></circle><circle cx="510.91878787878784" cy="112.80359453040276" r="3.1181102362204727" fill="#1f77b4" fill-opacity="0.85" stroke="none"><title>(6.8, 1.514113351139)</title></circle><circle cx="537.3557575757575" cy="67.4138487632692" r="3.1181102362204727" fill="#1f77b4" fill-opacity="0.85" stroke="none"><title>(7.2, 1.873667863849)</title></circle><circle cx="563.7927272727272" cy="37.84217147091067" r="3.1181102362204727" fill="#1f77b4" fill-opacity="0.85" stroke="none"><title>(7.6, 2.107919672031)</title></circle><circle cx="590.2296969696969" cy="27.561460019126834" r="3.1181102362204727" fill="#1f77b4" fill-opacity="0.85" stroke="none"><title>(8, 2.189358246623)</title></circle><path d="M 61.490303030303025 310.58583858592647 L 87.92727272727271 251.1561680160873 L 114.36424242424243 203.9723358346742 L 140.8012121212121 168.7764711494122 L 167.23818181818177 150.0357326847202 L 193.6751515151515 152.09427679055764 L 220.11212121212117 175.29152971393677 L 246.5490909090909 212.8382585658202 L 272.98606060606056 256.80337567564885 L 299.42303030303026 298.8986437027602 L 325.85999999999996 329.8939250857115 L 352.2969696969697 342.3787878787879 L 378.7339393939394 336.9539132896658 L 405.17090909090905 316.03968814174993 L 431.6078787878788 281.1145990376643 L 458.0448484848485 233.2999829099299 L 484.4818181818182 175.89662036417985 L 510.91878787878784 118.36182668853544 L 537.3557575757575 69.46948552280472 L 563.7927272727272 37.87047813233653 L 590.2296969696969 36.940715399173314 L 590.2296969696969 23.28787878787879 L 563.7927272727272 29.413746700922804 L 537.3557575757575 60.37656726796122 L 510.91878787878784 110.38905620341484 L 484.4818181818182 168.93889960501113 L 458.0448484848485 225.63678594493652 L 431.6078787878788 273.36264775291016 L 405.17090909090905 309.18313251304306 L 378.7339393939394 330.5712564455531 L 352.2969696969697 335.3571854407618 L 325.85999999999996 322.31298560977075 L 299.42303030303026 291.8770412647342 L 272.98606060606056 250.42071883153622 L 246.5490909090909 205.98170293711337 L 220.11212121212117 167.53957842918263 L 193.6751515151515 144.43107982556435 L 167.23818181818177 143.07801192555146 L 140.8012121212121 160.8037006642916 L 114.36424242424243 194.87941757983063 L 87.92727272727271 242.69943658467358 L 61.490303030303025 296.93300197463196 Z" fill="#1f77b4" fill-opacity="0.2" stroke="none"/><line x1="61.490303030303025" y1="303.7594202802792" x2="87.92727272727271" y2="246.9278023003804" stroke="#1f77b4" stroke-width="1.4211023622047245"/><line x1="87.92727272727271" y1="246.9278023003804" x2="114.36424242424243" y2="199.42587670725243" stroke="#1f77b4" stroke-width="1.4211023622047245"/><line x1="114.36424242424243" y1="199.42587670725243" x2="140.8012121212121" y2="164.79008590685194" stroke="#1f77b4" stroke-width="1.4211023622047245"/><line x1="140.8012121212121" y1="164.79008590685194" x2="167.23818181818177" y2="146.5568723051358" stroke="#1f77b4" stroke-width="1.4211023622047245"/><line x1="167.23818181818177" y1="146.5568723051358" x2="193.6751515151515" y2="148.26267830806094" stroke="#1f77b4" stroke-width="1.4211023622047245"/><line x1="193.6751515151515" y1="148.26267830806094" x2="220.11212121212117" y2="171.4155540715597" stroke="#1f77b4" stroke-width="1.4211023622047245"/><line x1="220.11212121212117" y1="171.4155540715597" x2="246.5490909090909" y2="209.40998075146678" stroke="#1f77b4" stroke-width="1.4211023622047245"/><line x1="246.5490909090909" y1="209.40998075146678" x2="272.98606060606056" y2="253.61204725359255" stroke="#1f77b4" stroke-width="1.4211023622047245"/><line x1="272.98606060606056" y1="253.61204725359255" x2="299.42303030303026" y2="295.3878424837472" stroke="#1f77b4" stroke-width="1.4211023622047245"/><line x1="299.42303030303026" y1="295.3878424837472" x2="325.85999999999996" y2="326.10345534774115" stroke="#1f77b4" stroke-width="1.4211023622047245"/><line x1="325.85999999999996" y1="326.10345534774115" x2="352.2969696969697" y2="338.86798665977483" stroke="#1f77b4" stroke-width="1.4211023622047245"/><line x1="352.2969696969697" y1="338.86798665977483" x2="378.7339393939394" y2="333.76258486760946" stroke="#1f77b4" stroke-width="1.4211023622047245"/><line x1="378.7339393939394" y1="333.76258486760946" x2="405.17090909090905" y2="312.61141032739647" stroke="#1f77b4" stroke-width="1.4211023622047245"/><line x1="405.17090909090905" y1="312.61141032739647" x2="431.6078787878788" y2="277.2386233952872" stroke="#1f77b4" stroke-width="1.4211023622047245"/><line x1="431.6078787878788" y1="277.2386233952872" x2="458.0448484848485" y2="229.4683844274332" stroke="#1f77b4" stroke-width="1.4211023622047245"/><line x1="458.0448484848485" y1="229.4683844274332" x2="484.4818181818182" y2="172.41775998459548" stroke="#1f77b4" stroke-width="1.4211023622047245"/><line x1="484.4818181818182" y1="172.41775998459548" x2="510.91878787878784" y2="114.3754414459751" stroke="#1f77b4" stroke-width="1.4211023622047245"/><line x1="510.91878787878784" y1="114.3754414459751" x2="537.3557575757575" y2="64.92302639538293" stroke="#1f77b4" stroke-width="1.4211023622047245"/><line x1="537.3557575757575" y1="64.92302639538293" x2="563.7927272727272" y2="33.642112416629665" stroke="#1f77b4" stroke-width="1.4211023622047245"/><line x1="563.7927272727272" y1="33.642112416629665" x2="590.2296969696969" y2="30.114297093526034" stroke="#1f77b4" stroke-width="1.4211023622047245"/></svg>