<svg xmlns="http://www.w3.org/2000/svg" width="800" height="600" viewBox="0 0 800 600"><rect x="0.0" y="0.0" width="800.0" height="600.0" fill="#ffffff" fill-opacity="1.0" stroke="none"/><line x1="151.83522727272725" y1="5.5" x2="151.83522727272725" y2="578.55" stroke="#dddddd" stroke-width="0.5"/><line x1="325.52840909090907" y1="5.5" x2="325.52840909090907" y2="578.55" stroke="#dddddd" stroke-width="0.5"/><line x1="499.22159090909093" y1="5.5" x2="499.22159090909093" y2="578.55" stroke="#dddddd" stroke-width="0.5"/><line x1="672.9147727272726" y1="5.5" x2="672.9147727272726" y2="578.55" stroke="#dddddd" stroke-width="0.5"/><line x1="64.98863636363636" y1="5.5" x2="64.98863636363636" y2="578.55" stroke="#dddddd" stroke-width="1.0"/><line x1="238.68181818181816" y1="5.5" x2="238.68181818181816" y2="578.55" stroke="#dddddd" stroke-width="1.0"/><line x1="412.375" y1="5.5" x2="412.375" y2="578.55" stroke="#dddddd" stroke-width="1.0"/><line x1="586.0681818181819" y1="5.5" x2="586.0681818181819" y2="578.55" stroke="#dddddd" stroke-width="1.0"/><line x1="759.7613636363636" y1="5.5" x2="759.7613636363636" y2="578.55" stroke="#dddddd" stroke-width="1.0"/><line x1="30.249999999999996" y1="541.2770810842289" x2="794.5" y2="541.2770810842289" stroke="#dddddd" stroke-width="0.5"/><line x1="30.249999999999996" y1="438.2269826226778" x2="794.5" y2="438.2269826226778" stroke="#dddddd" stroke-width="0.5"/><line x1="30.249999999999996" y1="335.1768841611267" x2="794.5" y2="335.1768841611267" stroke="#dddddd" stroke-width="0.5"/><line x1="30.249999999999996" y1="232.12678569957552" x2="794.5" y2="232.12678569957552" stroke="#dddddd" stroke-width="0.5"/><line x1="30.249999999999996" y1="129.07668723802442" x2="794.5" y2="129.07668723802442" stroke="#dddddd" stroke-width="0.5"/><line x1="30.249999999999996" y1="26.026588776473318" x2="794.5" y2="26.026588776473318" stroke="#dddddd" stroke-width="0.5"/><line x1="30.249999999999996" y1="489.75203185345333" x2="794.5" y2="489.75203185345333" stroke="#dddddd" stroke-width="1.0"/><line x1="30.249999999999996" y1="386.70193339190223" x2="794.5" y2="386.70193339190223" stroke="#dddddd" stroke-width="1.0"/><line x1="30.249999999999996" y1="283.65183493035113" x2="794.5" y2="283.65183493035113" stroke="#dddddd" stroke-width="1.0"/><line x1="30.249999999999996" y1="180.60173646880003" x2="794.5" y2="180.60173646880003" stroke="#dddddd" stroke-width="1.0"/><line x1="30.249999999999996" y1="77.55163800724893" x2="794.5" y2="77.55163800724893" stroke="#dddddd" stroke-width="1.0"/><rect x="30.249999999999996" y="5.5" width="764.25" height="573.05" fill="#ffffff" fill-opacity="0.0" stroke="#444444" stroke-width="1.0"/><line x1="64.98863636363636" y1="578.55" x2="64.98863636363636" y2="581.3" stroke="#444444" stroke-width="1.0"/><text x="64.98863636363636" y="592.3" fill="#333333" font-size="11.0" font-family="sans-serif" text-anchor="middle">0</text><line x1="238.68181818181816" y1="578.55" x2="238.68181818181816" y2="581.3" stroke="#444444" stroke-width="1.0"/><text x="238.68181818181816" y="592.3" fill="#333333" font-size="11.0" font-family="sans-serif" text-anchor="middle">2</text><line x1="412.375" y1="578.55" x2="412.375" y2="581.3" stroke="#444444" stroke-width="1.0"/><text x="412.375" y="592.3" fill="#333333" font-size="11.0" font-family="sans-serif" text-anchor="middle">4</text><line x1="586.0681818181819" y1="578.55" x2="586.0681818181819" y2="581.3" stroke="#444444" stroke-width="1.0"/><text x="586.0681818181819" y="592.3" fill="#333333" font-size="11.0" font-family="sans-serif" text-anchor="middle">6</text><line x1="759.7613636363636" y1="578.55" x2="759.7613636363636" y2="581.3" stroke="#444444" stroke-width="1.0"/><text x="759.7613636363636" y="592.3" fill="#333333" font-size="11.0" font-family="sans-serif" text-anchor="middle">8</text><line x1="30.249999999999996" y1="489.75203185345333" x2="27.499999999999996" y2="489.75203185345333" stroke="#444444" stroke-width="1.0"/><text x="25.299999999999997" y="493.60203185345335" fill="#333333" font-size="11.0" font-family="sans-serif" text-anchor="end">0</text><line x1="30.249999999999996" y1="386.70193339190223" x2="27.499999999999996" y2="386.70193339190223" stroke="#444444" stroke-width="1.0"/><text x="25.299999999999997" y="390.55193339190225" fill="#333333" font-size="11.0" font-family="sans-serif" text-anchor="end">0.5</text><line x1="30.249999999999996" y1="283.65183493035113" x2="27.499999999999996" y2="283.65183493035113" stroke="#444444" stroke-width="1.0"/><text x="25.299999999999997" y="287.50183493035115" fill="#333333" font-size="11.0" font-family="sans-serif" text-anchor="end">1</text><line x1="30.249999999999996" y1="180.60173646880003" x2="27.499999999999996" y2="180.60173646880003" stroke="#444444" stroke-width="1.0"/><text x="25.299999999999997" y="184.45173646880002" fill="#333333" font-size="11.0" font-family="sans-serif" text-anchor="end">1.5</text><line x1="30.249999999999996" y1="77.55163800724893" x2="27.499999999999996" y2="77.55163800724893" stroke="#444444" stroke-width="1.0"/><text x="25.299999999999997" y="81.40163800724892" fill="#333333" font-size="11.0" font-family="sans-serif" text-anchor="end">2</text><circle cx="64.98863636363636" cy="489.75203185345333" r="3.0" fill="#1f77b4" fill-opacity="0.85" stroke="#1f77b4" stroke-width="1.0"><title>(0, 0)</title></circle><circle cx="99.72727272727273" cy="397.1268230027863" r="3.0" fill="#1f77b4" fill-opacity="0.85" stroke="#1f77b4" stroke-width="1.0"><title>(0.4, 0.449418342309)</title></circle><circle cx="134.4659090909091" cy="317.1727766243026" r="3.0" fill="#1f77b4" fill-opacity="0.85" stroke="#1f77b4" stroke-width="1.0"><title>(0.8, 0.8373560909)</title></circle><circle cx="169.20454545454547" cy="260.5605572494214" r="3.0" fill="#1f77b4" fill-opacity="0.85" stroke="#1f77b4" stroke-width="1.0"><title>(1.2, 1.112039085967)</title></circle><circle cx="203.9431818181818" cy="234.27566816591974" r="3.0" fill="#1f77b4" fill-opacity="0.85" stroke="#1f77b4" stroke-width="1.0"><title>(1.6, 1.239573603042)</title></circle><circle cx="238.68181818181816" cy="240.51559404607957" r="3.0" fill="#1f77b4" fill-opacity="0.85" stroke="#1f77b4" stroke-width="1.0"><title>(2, 1.209297426826)</title></circle><circle cx="273.4204545454545" cy="276.3428664352394" r="3.0" fill="#1f77b4" fill-opacity="0.85" stroke="#1f77b4" stroke-width="1.0"><title>(2.4, 1.035463180551)</title></circle><circle cx="308.15909090909093" cy="334.1488254317127" r="3.0" fill="#1f77b4" fill-opacity="0.85" stroke="#1f77b4" stroke-width="1.0"><title>(2.8, 0.754988150156)</title></circle><circle cx="342.89772727272725" cy="402.85485978600593" r="3.0" fill="#1f77b4" fill-opacity="0.85" stroke="#1f77b4" stroke-width="1.0"><title>(3.2, 0.421625856572)</title></circle><circle cx="377.6363636363636" cy="469.6614760205457" r="3.0" fill="#1f77b4" fill-opacity="0.85" stroke="#1f77b4" stroke-width="1.0"><title>(3.6, 0.097479556705)</title></circle><circle cx="412.375" cy="522.0690570144511" r="3.0" fill="#1f77b4" fill-opacity="0.85" stroke="#1f77b4" stroke-width="1.0"><title>(4, -0.156802495308)</title></circle><circle cx="447.11363636363643" cy="549.8512767052677" r="3.0" fill="#1f77b4" fill-opacity="0.85" stroke="#1f77b4" stroke-width="1.0"><title>(4.4, -0.29160207389)</title></circle><circle cx="481.85227272727275" cy="546.6696121177116" r="3.0" fill="#1f77b4" fill-opacity="0.85" stroke="#1f77b4" stroke-width="1.0"><title>(4.8, -0.276164608836)</title></circle><circle cx="516.590909090909" cy="511.07405676998866" r="3.0" fill="#1f77b4" fill-opacity="0.85" stroke="#1f77b4" stroke-width="1.0"><title>(5.2, -0.10345465572)</title></circle><circle cx="551.3295454545455" cy="446.73204481451745" r="3.0" fill="#1f77b4" fill-opacity="0.85" stroke="#1f77b4" stroke-width="1.0"><title>(5.6, 0.208733362128)</title></circle><circle cx="586.0681818181819" cy="361.8494438248267" r="3.0" fill="#1f77b4" fill-opacity="0.85" stroke="#1f77b4" stroke-width="1.0"><title>(6, 0.620584501801)</title></circle><circle cx="620.8068181818181" cy="267.8750287363575" r="3.0" fill="#1f77b4" fill-opacity="0.85" stroke="#1f77b4" stroke-width="1.0"><title>(6.4, 1.07654920485)</title></circle><circle cx="655.5454545454546" cy="177.69297201988786" r="3.0" fill="#1f77b4" fill-opacity="0.85" stroke="#1f77b4" stroke-width="1.0"><title>(6.8, 1.514113351139)</title></circle><circle cx="690.2840909090909" cy="103.58871614565453" r="3.0" fill="#1f77b4" fill-opacity="0.85" stroke="#1f77b4" stroke-width="1.0"><title>(7.2, 1.873667863849)</title></circle><circle cx="725.0227272727273" cy="55.30937234968292" r="3.0" fill="#1f77b4" fill-opacity="0.85" stroke="#1f77b4" stroke-width="1.0"><title>(7.6, 2.107919672031)</title></circle><circle cx="759.7613636363636" cy="38.5248660891566" r="3.0" fill="#1f77b4" fill-opacity="0.85" stroke="#1f77b4" stroke-width="1.0"><title>(8, 2.189358246623)</title></circle><path d="M 64.98863636363636 478.30652454386376 L 99.72727272727273 389.7636623025086 L 134.4659090909091 311.6916911038612 L 169.20454545454547 256.0589572621243 L 203.9431818181818 227.11962412327802 L 238.68181818181816 229.32867130305692 L 273.4204545454545 267.056093311044 L 308.15909090909093 329.81751624343633 L 342.89772727272725 402.3695904836044 L 377.6363636363636 470.05205649598076 L 412.375 519.7424209031694 L 447.11363636363643 541.0386565531678 L 481.85227272727275 533.2250479756626 L 516.590909090909 498.3063459257341 L 551.3295454545455 439.82506731663386 L 586.0681818181819 361.9068191426758 L 620.8068181818181 269.3406545640597 L 655.5454545454546 173.75094584245068 L 690.2840909090909 92.09950201207556 L 725.0227272727273 41.54894837691495 L 759.7613636363636 31.54772727272723 L 759.7613636363636 53.83763616190765 L 725.0227272727273 55.355586401905384 L 690.2840909090909 106.94479205748314 L 655.5454545454546 186.76745902335773 L 620.8068181818181 280.69997616246894 L 586.0681818181819 374.41791606800183 L 551.3295454545455 452.48106641557507 L 516.590909090909 509.5005031993251 L 481.85227272727275 543.6455081024966 L 447.11363636363643 552.5022727272727 L 412.375 532.1192225176646 L 377.6363636363636 481.5156726700857 L 342.89772727272725 412.79005061043847 L 308.15909090909093 341.01167351702736 L 273.4204545454545 279.7120924099852 L 238.68181818181816 241.83976822838292 L 203.9431818181818 238.4789457216873 L 169.20454545454547 269.07547044303135 L 134.4659090909091 326.53698114926885 L 99.72727272727273 403.570300327499 L 64.98863636363636 500.5964334330442 Z" fill="#d62728" fill-opacity="0.15" stroke="none"/><line x1="64.98863636363636" y1="489.45147898845397" x2="99.72727272727273" y2="396.6669813150038" stroke="#d62728" stroke-width="2.0"/><line x1="99.72727272727273" y1="396.6669813150038" x2="134.4659090909091" y2="319.11433612656504" stroke="#d62728" stroke-width="2.0"/><line x1="134.4659090909091" y1="319.11433612656504" x2="169.20454545454547" y2="262.5672138525779" stroke="#d62728" stroke-width="2.0"/><line x1="169.20454545454547" y1="262.5672138525779" x2="203.9431818181818" y2="232.79928492248263" stroke="#d62728" stroke-width="2.0"/><line x1="203.9431818181818" y1="232.79928492248263" x2="238.68181818181816" y2="235.58421976571987" stroke="#d62728" stroke-width="2.0"/><line x1="238.68181818181816" y1="235.58421976571987" x2="273.4204545454545" y2="273.3840928605146" stroke="#d62728" stroke-width="2.0"/><line x1="273.4204545454545" y1="273.3840928605146" x2="308.15909090909093" y2="335.4145948802318" stroke="#d62728" stroke-width="2.0"/><line x1="308.15909090909093" y1="335.4145948802318" x2="342.89772727272725" y2="407.5798205470214" stroke="#d62728" stroke-width="2.0"/><line x1="342.89772727272725" y1="407.5798205470214" x2="377.6363636363636" y2="475.7838645830332" stroke="#d62728" stroke-width="2.0"/><line x1="377.6363636363636" y1="475.7838645830332" x2="412.375" y2="525.930821710417" stroke="#d62728" stroke-width="2.0"/><line x1="412.375" y1="525.930821710417" x2="447.11363636363643" y2="546.7704646402202" stroke="#d62728" stroke-width="2.0"/><line x1="447.11363636363643" y1="546.7704646402202" x2="481.85227272727275" y2="538.4352780390795" stroke="#d62728" stroke-width="2.0"/><line x1="481.85227272727275" y1="538.4352780390795" x2="516.590909090909" y2="503.9034245625296" stroke="#d62728" stroke-width="2.0"/><line x1="516.590909090909" y1="503.9034245625296" x2="551.3295454545455" y2="446.1530668661045" stroke="#d62728" stroke-width="2.0"/><line x1="551.3295454545455" y1="446.1530668661045" x2="586.0681818181819" y2="368.1623676053388" stroke="#d62728" stroke-width="2.0"/><line x1="586.0681818181819" y1="368.1623676053388" x2="620.8068181818181" y2="275.0203153632643" stroke="#d62728" stroke-width="2.0"/><line x1="620.8068181818181" y1="275.0203153632643" x2="655.5454545454546" y2="180.25920243290415" stroke="#d62728" stroke-width="2.0"/><line x1="655.5454545454546" y1="180.25920243290415" x2="690.2840909090909" y2="99.52214703477927" stroke="#d62728" stroke-width="2.0"/><line x1="690.2840909090909" y1="99.52214703477927" x2="725.0227272727273" y2="48.45226738941017" stroke="#d62728" stroke-width="2.0"/><line x1="725.0227272727273" y1="48.45226738941017" x2="759.7613636363636" y2="42.69268171731744" stroke="#d62728" stroke-width="2.0"/></svg>