<svg xmlns="http://www.w3.org/2000/svg" width="800" height="600" viewBox="0 0 800 600"><rect x="0.0" y="0.0" width="800.0" height="600.0" fill="#ffffff" fill-opacity="1.0" stroke="none"/><line x1="147.5189820742638" y1="5.5" x2="147.5189820742638" y2="578.55" stroke="#dddddd" stroke-width="0.5"/><line x1="344.9197503201024" y1="5.5" x2="344.9197503201024" y2="578.55" stroke="#dddddd" stroke-width="0.5"/><line x1="542.320518565941" y1="5.5" x2="542.320518565941" y2="578.55" stroke="#dddddd" stroke-width="0.5"/><line x1="739.7212868117798" y1="5.5" x2="739.7212868117798" y2="578.55" stroke="#dddddd" stroke-width="0.5"/><line x1="48.81859795134444" y1="5.5" x2="48.81859795134444" y2="578.55" stroke="#dddddd" stroke-width="1.0"/><line x1="246.21936619718312" y1="5.5" x2="246.21936619718312" y2="578.55" stroke="#dddddd" stroke-width="1.0"/><line x1="443.62013444302175" y1="5.5" x2="443.62013444302175" y2="578.55" stroke="#dddddd" stroke-width="1.0"/><line x1="641.0209026888605" y1="5.5" x2="641.0209026888605" y2="578.55" stroke="#dddddd" stroke-width="1.0"/><line x1="23.65" y1="551.217305475232" x2="794.5" y2="551.217305475232" stroke="#dddddd" stroke-width="0.5"/><line x1="23.65" y1="447.51163202402404" x2="794.5" y2="447.51163202402404" stroke="#dddddd" stroke-width="0.5"/><line x1="23.65" y1="343.80595857281605" x2="794.5" y2="343.80595857281605" stroke="#dddddd" stroke-width="0.5"/><line x1="23.65" y1="240.10028512160807" x2="794.5" y2="240.10028512160807" stroke="#dddddd" stroke-width="0.5"/><line x1="23.65" y1="136.39461167039997" x2="794.5" y2="136.39461167039997" stroke="#dddddd" stroke-width="0.5"/><line x1="23.65" y1="32.68893821919198" x2="794.5" y2="32.68893821919198" stroke="#dddddd" stroke-width="0.5"/><line x1="23.65" y1="499.36446874962803" x2="794.5" y2="499.36446874962803" stroke="#dddddd" stroke-width="1.0"/><line x1="23.65" y1="395.65879529842005" x2="794.5" y2="395.65879529842005" stroke="#dddddd" stroke-width="1.0"/><line x1="23.65" y1="291.953121847212" x2="794.5" y2="291.953121847212" stroke="#dddddd" stroke-width="1.0"/><line x1="23.65" y1="188.24744839600402" x2="794.5" y2="188.24744839600402" stroke="#dddddd" stroke-width="1.0"/><line x1="23.65" y1="84.54177494479597" x2="794.5" y2="84.54177494479597" stroke="#dddddd" stroke-width="1.0"/><rect x="23.65" y="5.5" width="770.85" height="573.05" fill="#ffffff" fill-opacity="0.0" stroke="#444444" stroke-width="1.0"/><line x1="48.81859795134444" y1="578.55" x2="48.81859795134444" y2="581.3" stroke="#444444" stroke-width="1.0"/><text x="48.81859795134444" y="592.3" fill="#333333" font-size="11.0" font-family="sans-serif" text-anchor="middle">0</text><line x1="246.21936619718312" y1="578.55" x2="246.21936619718312" y2="581.3" stroke="#444444" stroke-width="1.0"/><text x="246.21936619718312" y="592.3" fill="#333333" font-size="11.0" font-family="sans-serif" text-anchor="middle">20</text><line x1="443.62013444302175" y1="578.55" x2="443.62013444302175" y2="581.3" stroke="#444444" stroke-width="1.0"/><text x="443.62013444302175" y="592.3" fill="#333333" font-size="11.0" font-family="sans-serif" text-anchor="middle">40</text><line x1="641.0209026888605" y1="578.55" x2="641.0209026888605" y2="581.3" stroke="#444444" stroke-width="1.0"/><text x="641.0209026888605" y="592.3" fill="#333333" font-size="11.0" font-family="sans-serif" text-anchor="middle">60</text><line x1="23.65" y1="499.36446874962803" x2="20.9" y2="499.36446874962803" stroke="#444444" stroke-width="1.0"/><text x="18.7" y="503.21446874962805" fill="#333333" font-size="11.0" font-family="sans-serif" text-anchor="end">8</text><line x1="23.65" y1="395.65879529842005" x2="20.9" y2="395.65879529842005" stroke="#444444" stroke-width="1.0"/><text x="18.7" y="399.50879529842007" fill="#333333" font-size="11.0" font-family="sans-serif" text-anchor="end">9</text><line x1="23.65" y1="291.953121847212" x2="20.9" y2="291.953121847212" stroke="#444444" stroke-width="1.0"/><text x="18.7" y="295.803121847212" fill="#333333" font-size="11.0" font-family="sans-serif" text-anchor="end">10</text><line x1="23.65" y1="188.24744839600402" x2="20.9" y2="188.24744839600402" stroke="#444444" stroke-width="1.0"/><text x="18.7" y="192.097448396004" fill="#333333" font-size="11.0" font-family="sans-serif" text-anchor="end">11</text><line x1="23.65" y1="84.54177494479597" x2="20.9" y2="84.54177494479597" stroke="#444444" stroke-width="1.0"/><text x="18.7" y="88.39177494479597" fill="#333333" font-size="11.0" font-family="sans-serif" text-anchor="end">12</text><path d="M 650.8909411011524 544.7106612975012 L 660.7609795134443 404.35299283519214 L 670.6310179257363 552.5022727272727 L 680.5010563380281 460.87489739399007 L 690.3710947503201 544.828181035788 L 700.2411331626121 486.5235053812969 L 710.111171574904 537.0917939676197 L 719.9812099871959 499.8060287318376 L 729.8512483994879 531.156717192889 L 739.7212868117798 507.2245330001865 L 749.5913252240717 526.9694368439488 L 759.4613636363637 511.5916717057439 L 759.4613636363637 50.69786481315464 L 749.5913252240717 66.6363671097215 L 739.7212868117798 47.18943280695157 L 729.8512483994879 72.30522465214682 L 719.9812099871959 42.27302194737251 L 710.111171574904 81.80652118304937 L 700.2411331626121 36.23396192264761 L 690.3710947503201 98.23338953207838 L 680.5010563380281 31.54772727272723 L 670.6310179257363 128.00578933550776 L 660.7609795134443 38.388052749073495 L 650.8909411011524 182.61777734970792 Z" fill="#1f77b4" fill-opacity="0.2" stroke="none"/><line x1="58.68863636363637" y1="235.8208563913965" x2="68.55867477592831" y2="112.26188504475806" stroke="#1f77b4" stroke-width="1.5"/><line x1="68.55867477592831" y1="112.26188504475806" x2="78.42871318822024" y2="316.38316931670175" stroke="#1f77b4" stroke-width="1.5"/><line x1="78.42871318822024" y1="316.38316931670175" x2="88.29875160051216" y2="464.1931542021621" stroke="#1f77b4" stroke-width="1.5"/><line x1="88.29875160051216" y1="464.1931542021621" x2="98.16879001280412" y2="300.1367483653962" stroke="#1f77b4" stroke-width="1.5"/><line x1="98.16879001280412" y1="300.1367483653962" x2="108.03882842509606" y2="232.93471027906264" stroke="#1f77b4" stroke-width="1.5"/><line x1="108.03882842509606" y1="232.93471027906264" x2="117.90886683738799" y2="103.32985262185332" stroke="#1f77b4" stroke-width="1.5"/><line x1="117.90886683738799" y1="103.32985262185332" x2="127.77890524967992" y2="403.4275805319944" stroke="#1f77b4" stroke-width="1.5"/><line x1="127.77890524967992" y1="403.4275805319944" x2="137.64894366197186" y2="407.59242549925284" stroke="#1f77b4" stroke-width="1.5"/><line x1="137.64894366197186" y1="407.59242549925284" x2="147.5189820742638" y2="326.2725976652545" stroke="#1f77b4" stroke-width="1.5"/><line x1="147.5189820742638" y1="326.2725976652545" x2="157.38902048655572" y2="174.0420770124282" stroke="#1f77b4" stroke-width="1.5"/><line x1="157.38902048655572" y1="174.0420770124282" x2="167.25905889884766" y2="147.0294137002047" stroke="#1f77b4" stroke-width="1.5"/><line x1="167.25905889884766" y1="147.0294137002047" x2="177.1290973111396" y2="438.3487531081702" stroke="#1f77b4" stroke-width="1.5"/><line x1="177.1290973111396" y1="438.3487531081702" x2="186.99913572343155" y2="370.69905236127033" stroke="#1f77b4" stroke-width="1.5"/><line x1="186.99913572343155" y1="370.69905236127033" x2="196.86917413572345" y2="342.7484187297266" stroke="#1f77b4" stroke-width="1.5"/><line x1="196.86917413572345" y1="342.7484187297266" x2="206.7392125480154" y2="104.3902647614749" stroke="#1f77b4" stroke-width="1.5"/><line x1="206.7392125480154" y1="104.3902647614749" x2="216.60925096030735" y2="231.57367169585132" stroke="#1f77b4" stroke-width="1.5"/><line x1="216.60925096030735" y1="231.57367169585132" x2="226.47928937259928" y2="419.0533884572841" stroke="#1f77b4" stroke-width="1.5"/><line x1="226.47928937259928" y1="419.0533884572841" x2="236.34932778489122" y2="380.46098966011493" stroke="#1f77b4" stroke-width="1.5"/><line x1="236.34932778489122" y1="380.46098966011493" x2="246.21936619718312" y2="312.4395207723901" stroke="#1f77b4" stroke-width="1.5"/><line x1="246.21936619718312" y1="312.4395207723901" x2="256.089404609475" y2="73.02663245041839" stroke="#1f77b4" stroke-width="1.5"/><line x1="256.089404609475" y1="73.02663245041839" x2="265.95944302176696" y2="309.7342124292483" stroke="#1f77b4" stroke-width="1.5"/><line x1="265.95944302176696" y1="309.7342124292483" x2="275.8294814340589" y2="380.79565000546165" stroke="#1f77b4" stroke-width="1.5"/><line x1="275.8294814340589" y1="380.79565000546165" x2="285.6995198463508" y2="418.71912614648625" stroke="#1f77b4" stroke-width="1.5"/><line x1="285.6995198463508" y1="418.71912614648625" x2="295.56955825864276" y2="235.10581333652004" stroke="#1f77b4" stroke-width="1.5"/><line x1="295.56955825864276" y1="235.10581333652004" x2="305.43959667093475" y2="102.53217913472082" stroke="#1f77b4" stroke-width="1.5"/><line x1="305.43959667093475" y1="102.53217913472082" x2="315.3096350832267" y2="341.5822983576765" stroke="#1f77b4" stroke-width="1.5"/><line x1="315.3096350832267" y1="341.5822983576765" x2="325.17967349551856" y2="369.98158018099457" stroke="#1f77b4" stroke-width="1.5"/><line x1="325.17967349551856" y1="369.98158018099457" x2="335.0497119078105" y2="439.3698210591246" stroke="#1f77b4" stroke-width="1.5"/><line x1="335.0497119078105" y1="439.3698210591246" x2="344.9197503201024" y2="149.92982414305567" stroke="#1f77b4" stroke-width="1.5"/><line x1="344.9197503201024" y1="149.92982414305567" x2="354.78978873239436" y2="171.56928558445998" stroke="#1f77b4" stroke-width="1.5"/><line x1="354.78978873239436" y1="171.56928558445998" x2="364.6598271446863" y2="326.16777083703664" stroke="#1f77b4" stroke-width="1.5"/><line x1="364.6598271446863" y1="326.16777083703664" x2="374.5298655569782" y2="406.1066329766876" stroke="#1f77b4" stroke-width="1.5"/><line x1="374.5298655569782" y1="406.1066329766876" x2="384.39990396927016" y2="406.57686896816483" stroke="#1f77b4" stroke-width="1.5"/><line x1="384.39990396927016" y1="406.57686896816483" x2="394.2699423815621" y2="104.96356320677194" stroke="#1f77b4" stroke-width="1.5"/><line x1="394.2699423815621" y1="104.96356320677194" x2="404.139980793854" y2="232.1035631371251" stroke="#1f77b4" stroke-width="1.5"/><line x1="404.139980793854" y1="232.1035631371251" x2="414.01001920614596" y2="301.1582499468872" stroke="#1f77b4" stroke-width="1.5"/><line x1="414.01001920614596" y1="301.1582499468872" x2="423.8800576184379" y2="465.4784911172053" stroke="#1f77b4" stroke-width="1.5"/><line x1="423.8800576184379" y1="465.4784911172053" x2="433.7500960307299" y2="324.71105648103423" stroke="#1f77b4" stroke-width="1.5"/><line x1="433.7500960307299" y1="324.71105648103423" x2="443.62013444302175" y2="119.18708858653173" stroke="#1f77b4" stroke-width="1.5"/><line x1="443.62013444302175" y1="119.18708858653173" x2="453.49017285531363" y2="247.95386296691942" stroke="#1f77b4" stroke-width="1.5"/><line x1="453.49017285531363" y1="247.95386296691942" x2="463.3602112676056" y2="311.14593998579016" stroke="#1f77b4" stroke-width="1.5"/><line x1="463.3602112676056" y1="311.14593998579016" x2="473.23024967989755" y2="500.1521125151678" stroke="#1f77b4" stroke-width="1.5"/><line x1="473.23024967989755" y1="500.1521125151678" x2="483.10028809218954" y2="235.84941347344153" stroke="#1f77b4" stroke-width="1.5"/><line x1="483.10028809218954" y1="235.84941347344153" x2="492.9703265044814" y2="167.94928378671642" stroke="#1f77b4" stroke-width="1.5"/><line x1="492.9703265044814" y1="167.94928378671642" x2="502.8403649167734" y2="223.50285776269448" stroke="#1f77b4" stroke-width="1.5"/><line x1="502.8403649167734" y1="223.50285776269448" x2="512.7104033290653" y2="370.3817978786043" stroke="#1f77b4" stroke-width="1.5"/><line x1="512.7104033290653" y1="370.3817978786043" x2="522.5804417413573" y2="476.7656568871254" stroke="#1f77b4" stroke-width="1.5"/><line x1="522.5804417413573" y1="476.7656568871254" x2="532.4504801536492" y2="186.82158667583326" stroke="#1f77b4" stroke-width="1.5"/><line x1="532.4504801536492" y1="186.82158667583326" x2="542.320518565941" y2="203.553922951316" stroke="#1f77b4" stroke-width="1.5"/><line x1="542.320518565941" y1="203.553922951316" x2="552.1905569782331" y2="199.33990115857569" stroke="#1f77b4" stroke-width="1.5"/><line x1="552.1905569782331" y1="199.33990115857569" x2="562.0605953905249" y2="450.1838271319693" stroke="#1f77b4" stroke-width="1.5"/><line x1="562.0605953905249" y1="450.1838271319693" x2="571.9306338028169" y2="403.8156788017942" stroke="#1f77b4" stroke-width="1.5"/><line x1="571.9306338028169" y1="403.8156788017942" x2="581.8006722151089" y2="192.44862311389545" stroke="#1f77b4" stroke-width="1.5"/><line x1="581.8006722151089" y1="192.44862311389545" x2="591.6707106274008" y2="194.28473197911092" stroke="#1f77b4" stroke-width="1.5"/><line x1="591.6707106274008" y1="194.28473197911092" x2="601.5407490396927" y2="218.40418710506611" stroke="#1f77b4" stroke-width="1.5"/><line x1="601.5407490396927" y1="218.40418710506611" x2="611.4107874519846" y2="501.2699340720568" stroke="#1f77b4" stroke-width="1.5"/><line x1="611.4107874519846" y1="501.2699340720568" x2="621.2808258642766" y2="325.2628983273315" stroke="#1f77b4" stroke-width="1.5"/><line x1="621.2808258642766" y1="325.2628983273315" x2="631.1508642765685" y2="224.70147290241573" stroke="#1f77b4" stroke-width="1.5"/><line x1="631.1508642765685" y1="224.70147290241573" x2="641.0209026888605" y2="150.23503095475053" stroke="#1f77b4" stroke-width="1.5"/><line x1="641.0209026888605" y1="150.23503095475053" x2="650.8909411011524" y2="363.6642193236047" stroke="#1f77b4" stroke-width="1.5"/><line x1="650.8909411011524" y1="363.6642193236047" x2="660.7609795134443" y2="221.37052279213282" stroke="#1f77b4" stroke-width="1.5"/><line x1="660.7609795134443" y1="221.37052279213282" x2="670.6310179257363" y2="340.25403103139024" stroke="#1f77b4" stroke-width="1.5"/><line x1="670.6310179257363" y1="340.25403103139024" x2="680.5010563380281" y2="246.2113123333587" stroke="#1f77b4" stroke-width="1.5"/><line x1="680.5010563380281" y1="246.2113123333587" x2="690.3710947503201" y2="321.53078528393326" stroke="#1f77b4" stroke-width="1.5"/><line x1="690.3710947503201" y1="321.53078528393326" x2="700.2411331626121" y2="261.37873365197225" stroke="#1f77b4" stroke-width="1.5"/><line x1="700.2411331626121" y1="261.37873365197225" x2="710.111171574904" y2="309.44915757533454" stroke="#1f77b4" stroke-width="1.5"/><line x1="710.111171574904" y1="309.44915757533454" x2="719.9812099871959" y2="271.03952533960506" stroke="#1f77b4" stroke-width="1.5"/><line x1="719.9812099871959" y1="271.03952533960506" x2="729.8512483994879" y2="301.73097092251794" stroke="#1f77b4" stroke-width="1.5"/><line x1="729.8512483994879" y1="301.73097092251794" x2="739.7212868117798" y2="277.2069829035691" stroke="#1f77b4" stroke-width="1.5"/><line x1="739.7212868117798" y1="277.2069829035691" x2="749.5913252240717" y2="296.80290197683513" stroke="#1f77b4" stroke-width="1.5"/><line x1="749.5913252240717" y1="296.80290197683513" x2="759.4613636363637" y2="281.1447682594493" stroke="#1f77b4" stroke-width="1.5"/></svg>