<svg xmlns="http://www.w3.org/2000/svg" width="624" height="384" viewBox="0 0 624 384"><rect x="0.0" y="0.0" width="624.0" height="384.0" fill="#ffffff" fill-opacity="1.0" stroke="none"/><line x1="122.60487409304312" y1="7.333333333333333" x2="122.60487409304312" y2="358.3333333333333" stroke="#dddddd" stroke-width="0.6666666666666666"/><line x1="273.3483653435766" y1="7.333333333333333" x2="273.3483653435766" y2="358.3333333333333" stroke="#dddddd" stroke-width="0.6666666666666666"/><line x1="424.09185659411" y1="7.333333333333333" x2="424.09185659411" y2="358.3333333333333" stroke="#dddddd" stroke-width="0.6666666666666666"/><line x1="574.8353478446436" y1="7.333333333333333" x2="574.8353478446436" y2="358.3333333333333" stroke="#dddddd" stroke-width="0.6666666666666666"/><line x1="47.23312846777635" y1="7.333333333333333" x2="47.23312846777635" y2="358.3333333333333" stroke="#dddddd" stroke-width="1.3333333333333333"/><line x1="197.97661971830985" y1="7.333333333333333" x2="197.97661971830985" y2="358.3333333333333" stroke="#dddddd" stroke-width="1.3333333333333333"/><line x1="348.72011096884336" y1="7.333333333333333" x2="348.72011096884336" y2="358.3333333333333" stroke="#dddddd" stroke-width="1.3333333333333333"/><line x1="499.46360221937687" y1="7.333333333333333" x2="499.46360221937687" y2="358.3333333333333" stroke="#dddddd" stroke-width="1.3333333333333333"/><line x1="28.01333333333333" y1="341.5917300208937" x2="616.6666666666666" y2="341.5917300208937" stroke="#dddddd" stroke-width="0.6666666666666666"/><line x1="28.01333333333333" y1="278.0707608535016" x2="616.6666666666666" y2="278.0707608535016" stroke="#dddddd" stroke-width="0.6666666666666666"/><line x1="28.01333333333333" y1="214.5497916861096" x2="616.6666666666666" y2="214.5497916861096" stroke="#dddddd" stroke-width="0.6666666666666666"/><line x1="28.01333333333333" y1="151.02882251871756" x2="616.6666666666666" y2="151.02882251871756" stroke="#dddddd" stroke-width="0.6666666666666666"/><line x1="28.01333333333333" y1="87.50785335132548" x2="616.6666666666666" y2="87.50785335132548" stroke="#dddddd" stroke-width="0.6666666666666666"/><line x1="28.01333333333333" y1="23.986884183933434" x2="616.6666666666666" y2="23.986884183933434" stroke="#dddddd" stroke-width="0.6666666666666666"/><line x1="28.01333333333333" y1="309.83124543719765" x2="616.6666666666666" y2="309.83124543719765" stroke="#dddddd" stroke-width="1.3333333333333333"/><line x1="28.01333333333333" y1="246.31027626980563" x2="616.6666666666666" y2="246.31027626980563" stroke="#dddddd" stroke-width="1.3333333333333333"/><line x1="28.01333333333333" y1="182.78930710241355" x2="616.6666666666666" y2="182.78930710241355" stroke="#dddddd" stroke-width="1.3333333333333333"/><line x1="28.01333333333333" y1="119.26833793502149" x2="616.6666666666666" y2="119.26833793502149" stroke="#dddddd" stroke-width="1.3333333333333333"/><line x1="28.01333333333333" y1="55.74736876762945" x2="616.6666666666666" y2="55.74736876762945" stroke="#dddddd" stroke-width="1.3333333333333333"/><rect x="28.01333333333333" y="7.333333333333333" width="588.6533333333333" height="351.0" fill="#ffffff" fill-opacity="0.0" stroke="#444444" stroke-width="1.3333333333333333"/><line x1="47.23312846777635" y1="358.3333333333333" x2="47.23312846777635" y2="362.0" stroke="#444444" stroke-width="1.3333333333333333"/><text x="47.23312846777635" y="374.32" fill="#333333" font-size="11.733333333333334" font-family="sans-serif" text-anchor="middle">0</text><line x1="197.97661971830985" y1="358.3333333333333" x2="197.97661971830985" y2="362.0" stroke="#444444" stroke-width="1.3333333333333333"/><text x="197.97661971830985" y="374.32" fill="#333333" font-size="11.733333333333334" font-family="sans-serif" text-anchor="middle">20</text><line x1="348.72011096884336" y1="358.3333333333333" x2="348.72011096884336" y2="362.0" stroke="#444444" stroke-width="1.3333333333333333"/><text x="348.72011096884336" y="374.32" fill="#333333" font-size="11.733333333333334" font-family="sans-serif" text-anchor="middle">40</text><line x1="499.46360221937687" y1="358.3333333333333" x2="499.46360221937687" y2="362.0" stroke="#444444" stroke-width="1.3333333333333333"/><text x="499.46360221937687" y="374.32" fill="#333333" font-size="11.733333333333334" font-family="sans-serif" text-anchor="middle">60</text><line x1="28.01333333333333" y1="309.83124543719765" x2="24.346666666666664" y2="309.83124543719765" stroke="#444444" stroke-width="1.3333333333333333"/><text x="21.41333333333333" y="313.93791210386433" fill="#333333" font-size="11.733333333333334" font-family="sans-serif" text-anchor="end">8</text><line x1="28.01333333333333" y1="246.31027626980563" x2="24.346666666666664" y2="246.31027626980563" stroke="#444444" stroke-width="1.3333333333333333"/><text x="21.41333333333333" y="250.4169429364723" fill="#333333" font-size="11.733333333333334" font-family="sans-serif" text-anchor="end">9</text><line x1="28.01333333333333" y1="182.78930710241355" x2="24.346666666666664" y2="182.78930710241355" stroke="#444444" stroke-width="1.3333333333333333"/><text x="21.41333333333333" y="186.89597376908023" fill="#333333" font-size="11.733333333333334" font-family="sans-serif" text-anchor="end">10</text><line x1="28.01333333333333" y1="119.26833793502149" x2="24.346666666666664" y2="119.26833793502149" stroke="#444444" stroke-width="1.3333333333333333"/><text x="21.41333333333333" y="123.37500460168816" fill="#333333" font-size="11.733333333333334" font-family="sans-serif" text-anchor="end">11</text><line x1="28.01333333333333" y1="55.74736876762945" x2="24.346666666666664" y2="55.74736876762945" stroke="#444444" stroke-width="1.3333333333333333"/><text x="21.41333333333333" y="59.85403543429612" fill="#333333" font-size="11.733333333333334" font-family="sans-serif" text-anchor="end">12</text><path d="M 507.0007767819035 337.6063324004705 L 514.5379513444302 251.63557656717413 L 522.0751259069568 342.3787878787878 L 529.6123004694834 286.255921214479 L 537.1494750320103 337.67831465007987 L 544.6866495945369 301.9660013183874 L 552.2238241570635 332.93968475578254 L 559.7609987195902 310.1017062237879 L 567.298173282117 329.3043790269098 L 574.8353478446436 314.64562908948983 L 582.3725224071702 326.739619577511 L 589.9096969696969 317.3205539401148 L 589.9096969696969 35.017567779572346 L 582.3725224071702 44.78009165374559 L 574.8353478446436 32.868611084384725 L 567.298173282117 48.252334908943716 L 559.7609987195902 29.857250449689218 L 552.2238241570635 54.07199302315155 L 544.6866495945369 26.15825373268649 L 537.1494750320103 64.13364696348692 L 529.6123004694834 23.28787878787879 L 522.0751259069568 82.36959902875822 L 514.5379513444302 27.477660206947878 L 507.0007767819035 115.82009687883108 Z" fill="#1f77b4" fill-opacity="0.2" stroke="none"/><line x1="54.770303030303026" y1="148.40762108026672" x2="62.30747759282971" y2="72.72626876778072" stroke="#1f77b4" stroke-width="1.4211023622047245"/><line x1="62.30747759282971" y1="72.72626876778072" x2="69.84465215535639" y2="197.75300426983506" stroke="#1f77b4" stroke-width="1.4211023622047245"/><line x1="69.84465215535639" y1="197.75300426983506" x2="77.38182671788306" y2="288.2883933193012" stroke="#1f77b4" stroke-width="1.4211023622047245"/><line x1="77.38182671788306" y1="288.2883933193012" x2="84.91900128040973" y2="187.80187652547025" stroke="#1f77b4" stroke-width="1.4211023622047245"/><line x1="84.91900128040973" y1="187.80187652547025" x2="92.4561758429364" y2="146.63982196076725" stroke="#1f77b4" stroke-width="1.4211023622047245"/><line x1="92.4561758429364" y1="146.63982196076725" x2="99.99335040546308" y2="67.25529174930143" stroke="#1f77b4" stroke-width="1.4211023622047245"/><line x1="99.99335040546308" y1="67.25529174930143" x2="107.53052496798978" y2="251.06875042910167" stroke="#1f77b4" stroke-width="1.4211023622047245"/><line x1="107.53052496798978" y1="251.06875042910167" x2="115.06769953051642" y2="253.6197679380585" stroke="#1f77b4" stroke-width="1.4211023622047245"/><line x1="115.06769953051642" y1="253.6197679380585" x2="122.60487409304312" y2="203.81039777885178" stroke="#1f77b4" stroke-width="1.4211023622047245"/><line x1="122.60487409304312" y1="203.81039777885178" x2="130.14204865556977" y2="110.56737753778721" stroke="#1f77b4" stroke-width="1.4211023622047245"/><line x1="130.14204865556977" y1="110.56737753778721" x2="137.67922321809647" y2="94.02179718251205" stroke="#1f77b4" stroke-width="1.4211023622047245"/><line x1="137.67922321809647" y1="94.02179718251205" x2="145.21639778062314" y2="272.4583875885776" stroke="#1f77b4" stroke-width="1.4211023622047245"/><line x1="145.21639778062314" y1="272.4583875885776" x2="152.7535723431498" y2="231.02213427357574" stroke="#1f77b4" stroke-width="1.4211023622047245"/><line x1="152.7535723431498" y1="231.02213427357574" x2="160.29074690567649" y2="213.90203584469197" stroke="#1f77b4" stroke-width="1.4211023622047245"/><line x1="160.29074690567649" y1="213.90203584469197" x2="167.82792146820316" y2="67.90480690680457" stroke="#1f77b4" stroke-width="1.4211023622047245"/><line x1="167.82792146820316" y1="67.90480690680457" x2="175.36509603072983" y2="145.8061694998874" stroke="#1f77b4" stroke-width="1.4211023622047245"/><line x1="175.36509603072983" y1="145.8061694998874" x2="182.90227059325653" y2="260.63974524940824" stroke="#1f77b4" stroke-width="1.4211023622047245"/><line x1="182.90227059325653" y1="260.63974524940824" x2="190.43944515578323" y2="237.00143798510953" stroke="#1f77b4" stroke-width="1.4211023622047245"/><line x1="190.43944515578323" y1="237.00143798510953" x2="197.97661971830985" y2="195.33747222367265" stroke="#1f77b4" stroke-width="1.4211023622047245"/><line x1="197.97661971830985" y1="195.33747222367265" x2="205.51379428083652" y2="48.69420584026439" stroke="#1f77b4" stroke-width="1.4211023622047245"/><line x1="205.51379428083652" y1="48.69420584026439" x2="213.05096884336322" y2="193.68043840735163" stroke="#1f77b4" stroke-width="1.4211023622047245"/><line x1="213.05096884336322" y1="193.68043840735163" x2="220.58814340588987" y2="237.20642146162413" stroke="#1f77b4" stroke-width="1.4211023622047245"/><line x1="220.58814340588987" y1="237.20642146162413" x2="228.12531796841657" y2="260.4350055738301" stroke="#1f77b4" stroke-width="1.4211023622047245"/><line x1="228.12531796841657" y1="260.4350055738301" x2="235.66249253094327" y2="147.96964863063468" stroke="#1f77b4" stroke-width="1.4211023622047245"/><line x1="235.66249253094327" y1="147.96964863063468" x2="243.1996670934699" y2="66.7667071685781" stroke="#1f77b4" stroke-width="1.4211023622047245"/><line x1="243.1996670934699" y1="66.7667071685781" x2="250.7368416559966" y2="213.1877731266227" stroke="#1f77b4" stroke-width="1.4211023622047245"/><line x1="250.7368416559966" y1="213.1877731266227" x2="258.27401621852323" y2="230.58267395549387" stroke="#1f77b4" stroke-width="1.4211023622047245"/><line x1="258.27401621852323" y1="230.58267395549387" x2="265.81119078104996" y2="273.0838039585017" stroke="#1f77b4" stroke-width="1.4211023622047245"/><line x1="265.81119078104996" y1="273.0838039585017" x2="273.3483653435766" y2="95.79833337558541" stroke="#1f77b4" stroke-width="1.4211023622047245"/><line x1="273.3483653435766" y1="95.79833337558541" x2="280.88553990610325" y2="109.05276312156377" stroke="#1f77b4" stroke-width="1.4211023622047245"/><line x1="280.88553990610325" y1="109.05276312156377" x2="288.4227144686299" y2="203.7461900889391" stroke="#1f77b4" stroke-width="1.4211023622047245"/><line x1="288.4227144686299" y1="203.7461900889391" x2="295.9598890311566" y2="252.70970219262546" stroke="#1f77b4" stroke-width="1.4211023622047245"/><line x1="295.9598890311566" y1="252.70970219262546" x2="303.49706359368327" y2="252.99772737892422" stroke="#1f77b4" stroke-width="1.4211023622047245"/><line x1="303.49706359368327" y1="252.99772737892422" x2="311.03423815621" y2="68.25595908252967" stroke="#1f77b4" stroke-width="1.4211023622047245"/><line x1="311.03423815621" y1="68.25595908252967" x2="318.57141271873667" y2="146.1307343648854" stroke="#1f77b4" stroke-width="1.4211023622047245"/><line x1="318.57141271873667" y1="146.1307343648854" x2="326.10858728126334" y2="188.4275584993004" stroke="#1f77b4" stroke-width="1.4211023622047245"/><line x1="326.10858728126334" y1="188.4275584993004" x2="333.64576184378996" y2="289.07567760021936" stroke="#1f77b4" stroke-width="1.4211023622047245"/><line x1="333.64576184378996" y1="289.07567760021936" x2="341.1829364063167" y2="202.8539350693826" stroke="#1f77b4" stroke-width="1.4211023622047245"/><line x1="341.1829364063167" y1="202.8539350693826" x2="348.72011096884336" y2="76.96803902022387" stroke="#1f77b4" stroke-width="1.4211023622047245"/><line x1="348.72011096884336" y1="76.96803902022387" x2="356.25728553137" y2="155.83923316997712" stroke="#1f77b4" stroke-width="1.4211023622047245"/><line x1="356.25728553137" y1="155.83923316997712" x2="363.79446009389676" y2="194.5451384725225" stroke="#1f77b4" stroke-width="1.4211023622047245"/><line x1="363.79446009389676" y1="194.5451384725225" x2="371.3316346564234" y2="310.3136866931168" stroke="#1f77b4" stroke-width="1.4211023622047245"/><line x1="371.3316346564234" y1="310.3136866931168" x2="378.86880921895005" y2="148.42511263562454" stroke="#1f77b4" stroke-width="1.4211023622047245"/><line x1="378.86880921895005" y1="148.42511263562454" x2="386.4059837814767" y2="106.8354685905316" stroke="#1f77b4" stroke-width="1.4211023622047245"/><line x1="386.4059837814767" y1="106.8354685905316" x2="393.94315834400345" y2="140.86269913859599" stroke="#1f77b4" stroke-width="1.4211023622047245"/><line x1="393.94315834400345" y1="140.86269913859599" x2="401.48033290653007" y2="230.82781209677478" stroke="#1f77b4" stroke-width="1.4211023622047245"/><line x1="401.48033290653007" y1="230.82781209677478" x2="409.01750746905674" y2="295.98920204877004" stroke="#1f77b4" stroke-width="1.4211023622047245"/><line x1="409.01750746905674" y1="295.98920204877004" x2="416.5546820315834" y2="118.39498052505738" stroke="#1f77b4" stroke-width="1.4211023622047245"/><line x1="416.5546820315834" y1="118.39498052505738" x2="424.09185659411" y2="128.64373723510792" stroke="#1f77b4" stroke-width="1.4211023622047245"/><line x1="424.09185659411" y1="128.64373723510792" x2="431.6290311566368" y2="126.06259833055886" stroke="#1f77b4" stroke-width="1.4211023622047245"/><line x1="431.6290311566368" y1="126.06259833055886" x2="439.16620571916343" y2="279.7075124159984" stroke="#1f77b4" stroke-width="1.4211023622047245"/><line x1="439.16620571916343" y1="279.7075124159984" x2="446.7033802816901" y2="251.30646527544968" stroke="#1f77b4" stroke-width="1.4211023622047245"/><line x1="446.7033802816901" y1="251.30646527544968" x2="454.24055484421683" y2="121.84160785209663" stroke="#1f77b4" stroke-width="1.4211023622047245"/><line x1="454.24055484421683" y1="121.84160785209663" x2="461.7777294067435" y2="122.96624656022091" stroke="#1f77b4" stroke-width="1.4211023622047245"/><line x1="461.7777294067435" y1="122.96624656022091" x2="469.3149039692701" y2="137.7397021909866" stroke="#1f77b4" stroke-width="1.4211023622047245"/><line x1="469.3149039692701" y1="137.7397021909866" x2="476.8520785317968" y2="310.9983658074489" stroke="#1f77b4" stroke-width="1.4211023622047245"/><line x1="476.8520785317968" y1="310.9983658074489" x2="484.3892530943235" y2="203.19194482080107" stroke="#1f77b4" stroke-width="1.4211023622047245"/><line x1="484.3892530943235" y1="203.19194482080107" x2="491.9264276568502" y2="141.5968652917103" stroke="#1f77b4" stroke-width="1.4211023622047245"/><line x1="491.9264276568502" y1="141.5968652917103" x2="499.46360221937687" y2="95.98527620937807" stroke="#1f77b4" stroke-width="1.4211023622047245"/><line x1="499.46360221937687" y1="95.98527620937807" x2="507.0007767819035" y2="226.71321463965083" stroke="#1f77b4" stroke-width="1.4211023622047245"/><line x1="507.0007767819035" y1="226.71321463965083" x2="514.5379513444302" y2="139.55661838706095" stroke="#1f77b4" stroke-width="1.4211023622047245"/><line x1="514.5379513444302" y1="139.55661838706095" x2="522.0751259069568" y2="212.374193453773" stroke="#1f77b4" stroke-width="1.4211023622047245"/><line x1="522.0751259069568" y1="212.374193453773" x2="529.6123004694834" y2="154.77190000117892" stroke="#1f77b4" stroke-width="1.4211023622047245"/><line x1="529.6123004694834" y1="154.77190000117892" x2="537.1494750320103" y2="200.90598080678342" stroke="#1f77b4" stroke-width="1.4211023622047245"/><line x1="537.1494750320103" y1="200.90598080678342" x2="544.6866495945369" y2="164.0621275255369" stroke="#1f77b4" stroke-width="1.4211023622047245"/><line x1="544.6866495945369" y1="164.0621275255369" x2="552.2238241570635" y2="193.50583888946704" stroke="#1f77b4" stroke-width="1.4211023622047245"/><line x1="552.2238241570635" y1="193.50583888946704" x2="559.7609987195902" y2="169.9794783367386" stroke="#1f77b4" stroke-width="1.4211023622047245"/><line x1="559.7609987195902" y1="169.9794783367386" x2="567.298173282117" y2="188.7783569679268" stroke="#1f77b4" stroke-width="1.4211023622047245"/><line x1="567.298173282117" y1="188.7783569679268" x2="574.8353478446436" y2="173.75712008693728" stroke="#1f77b4" stroke-width="1.4211023622047245"/><line x1="574.8353478446436" y1="173.75712008693728" x2="582.3725224071702" y2="185.75985561562828" stroke="#1f77b4" stroke-width="1.4211023622047245"/><line x1="582.3725224071702" y1="185.75985561562828" x2="589.9096969696969" y2="176.16906085984357" stroke="#1f77b4" stroke-width="1.4211023622047245"/></svg>