<svg xmlns="http://www.w3.org/2000/svg" width="624" height="384" viewBox="0 0 624 384"><rect x="0.0" y="0.0" width="624.0" height="384.0" fill="#ffffff" fill-opacity="1.0" stroke="none"/><line x1="79.09482093663911" y1="7.333333333333333" x2="79.09482093663911" y2="358.3333333333333" stroke="#dddddd" stroke-width="0.6666666666666666"/><line x1="225.04192837465558" y1="7.333333333333333" x2="225.04192837465558" y2="358.3333333333333" stroke="#dddddd" stroke-width="0.6666666666666666"/><line x1="370.9890358126721" y1="7.333333333333333" x2="370.9890358126721" y2="358.3333333333333" stroke="#dddddd" stroke-width="0.6666666666666666"/><line x1="516.9361432506887" y1="7.333333333333333" x2="516.9361432506887" y2="358.3333333333333" stroke="#dddddd" stroke-width="0.6666666666666666"/><line x1="152.06837465564735" y1="7.333333333333333" x2="152.06837465564735" y2="358.3333333333333" stroke="#dddddd" stroke-width="1.3333333333333333"/><line x1="298.0154820936638" y1="7.333333333333333" x2="298.0154820936638" y2="358.3333333333333" stroke="#dddddd" stroke-width="1.3333333333333333"/><line x1="443.9625895316804" y1="7.333333333333333" x2="443.9625895316804" y2="358.3333333333333" stroke="#dddddd" stroke-width="1.3333333333333333"/><line x1="589.9096969696968" y1="7.333333333333333" x2="589.9096969696968" y2="358.3333333333333" stroke="#dddddd" stroke-width="1.3333333333333333"/><line x1="28.01333333333333" y1="346.99062210400564" x2="616.6666666666666" y2="346.99062210400564" stroke="#dddddd" stroke-width="0.6666666666666666"/><line x1="28.01333333333333" y1="241.72494259037126" x2="616.6666666666666" y2="241.72494259037126" stroke="#dddddd" stroke-width="0.6666666666666666"/><line x1="28.01333333333333" y1="136.4592630767368" x2="616.6666666666666" y2="136.4592630767368" stroke="#dddddd" stroke-width="0.6666666666666666"/><line x1="28.01333333333333" y1="31.19358356310238" x2="616.6666666666666" y2="31.19358356310238" stroke="#dddddd" stroke-width="0.6666666666666666"/><line x1="28.01333333333333" y1="294.35778234718845" x2="616.6666666666666" y2="294.35778234718845" stroke="#dddddd" stroke-width="1.3333333333333333"/><line x1="28.01333333333333" y1="189.092102833554" x2="616.6666666666666" y2="189.092102833554" stroke="#dddddd" stroke-width="1.3333333333333333"/><line x1="28.01333333333333" y1="83.82642331991958" x2="616.6666666666666" y2="83.82642331991958" stroke="#dddddd" stroke-width="1.3333333333333333"/><rect x="28.01333333333333" y="7.333333333333333" width="588.6533333333333" height="351.0" fill="#ffffff" fill-opacity="0.0" stroke="#444444" stroke-width="1.3333333333333333"/><line x1="152.06837465564735" y1="358.3333333333333" x2="152.06837465564735" y2="362.0" stroke="#444444" stroke-width="1.3333333333333333"/><text x="152.06837465564735" y="374.32" fill="#333333" font-size="11.733333333333334" font-family="sans-serif" text-anchor="middle">3</text><line x1="298.0154820936638" y1="358.3333333333333" x2="298.0154820936638" y2="362.0" stroke="#444444" stroke-width="1.3333333333333333"/><text x="298.0154820936638" y="374.32" fill="#333333" font-size="11.733333333333334" font-family="sans-serif" text-anchor="middle">6</text><line x1="443.9625895316804" y1="358.3333333333333" x2="443.9625895316804" y2="362.0" stroke="#444444" stroke-width="1.3333333333333333"/><text x="443.9625895316804" y="374.32" fill="#333333" font-size="11.733333333333334" font-family="sans-serif" text-anchor="middle">9</text><line x1="589.9096969696968" y1="358.3333333333333" x2="589.9096969696968" y2="362.0" stroke="#444444" stroke-width="1.3333333333333333"/><text x="589.9096969696968" y="374.32" fill="#333333" font-size="11.733333333333334" font-family="sans-serif" text-anchor="middle">12</text><line x1="28.01333333333333" y1="294.35778234718845" x2="24.346666666666664" y2="294.35778234718845" stroke="#444444" stroke-width="1.3333333333333333"/><text x="21.41333333333333" y="298.46444901385513" fill="#333333" font-size="11.733333333333334" font-family="sans-serif" text-anchor="end">5</text><line x1="28.01333333333333" y1="189.092102833554" x2="24.346666666666664" y2="189.092102833554" stroke="#444444" stroke-width="1.3333333333333333"/><text x="21.41333333333333" y="193.1987695002207" fill="#333333" font-size="11.733333333333334" font-family="sans-serif" text-anchor="end">10</text><line x1="28.01333333333333" y1="83.82642331991958" x2="24.346666666666664" y2="83.82642331991958" stroke="#444444" stroke-width="1.3333333333333333"/><text x="21.41333333333333" y="87.93308998658625" fill="#333333" font-size="11.733333333333334" font-family="sans-serif" text-anchor="end">15</text><circle cx="54.770303030303026" cy="319.6215454304607" r="3.1181102362204727" fill="#1f77b4" fill-opacity="0.85" stroke="none"><title>(1, 3.8)</title></circle><circle cx="103.41933884297521" cy="315.4109182499153" r="3.1181102362204727" fill="#1f77b4" fill-opacity="0.85" stroke="none"><title>(2, 4)</title></circle><circle cx="152.06837465564735" cy="269.09401926391615" r="3.1181102362204727" fill="#1f77b4" fill-opacity="0.85" stroke="none"><title>(3, 6.2)</title></circle><circle cx="200.7174104683195" cy="256.46213772228003" r="3.1181102362204727" fill="#1f77b4" fill-opacity="0.85" stroke="none"><title>(4, 6.8)</title></circle><circle cx="249.3664462809917" cy="216.46117950709896" r="3.1181102362204727" fill="#1f77b4" fill-opacity="0.85" stroke="none"><title>(5, 8.7)</title></circle><circle cx="298.0154820936638" cy="199.61867078491747" r="3.1181102362204727" fill="#1f77b4" fill-opacity="0.85" stroke="none"><title>(6, 9.5)</title></circle><circle cx="346.6645179063361" cy="155.40708538919097" r="3.1181102362204727" fill="#1f77b4" fill-opacity="0.85" stroke="none"><title>(7, 11.6)</title></circle><circle cx="395.31355371900815" cy="151.19645820864562" r="3.1181102362204727" fill="#1f77b4" fill-opacity="0.85" stroke="none"><title>(8, 11.8)</title></circle><circle cx="443.9625895316804" cy="104.87955922264644" r="3.1181102362204727" fill="#1f77b4" fill-opacity="0.85" stroke="none"><title>(9, 14)</title></circle><circle cx="492.61162534435255" cy="92.24767768101037" r="3.1181102362204727" fill="#1f77b4" fill-opacity="0.85" stroke="none"><title>(10, 14.6)</title></circle><circle cx="541.2606611570247" cy="52.24671946582926" r="3.1181102362204727" fill="#1f77b4" fill-opacity="0.85" stroke="none"><title>(11, 16.5)</title></circle><circle cx="589.9096969696968" cy="35.40421074364773" r="3.1181102362204727" fill="#1f77b4" fill-opacity="0.85" stroke="none"><title>(12, 17.3)</title></circle><path d="M 54.770303030303026 342.3787878787879 L 60.175751453933266 339.20093595098115 L 65.58119987756352 336.02348918015275 L 70.98664830119374 332.846463721442 L 76.39209672482399 329.66987655957416 L 81.79754514845423 326.49374555982354 L 87.20299357208447 323.318089522514 L 92.60844199571471 320.14292824131996 L 98.01389041934495 316.9682825656472 L 103.41933884297521 313.794174467395 L 108.82478726660543 310.620627112419 L 114.23023569023567 307.447664937038 L 119.63568411386589 304.2753137299485 L 125.0411325374962 301.10360071993534 L 130.44658096112636 297.9325546697871 L 135.85202938475663 294.7622059768495 L 141.25747780838688 291.592586780673 L 146.66292623201713 288.4237310782297 L 152.06837465564735 285.2556748471958 L 157.47382307927762 282.08845617781157 L 162.87927150290784 278.9221154138432 L 168.2847199265381 275.7566953031791 L 173.69016835016834 272.59224115859126 L 179.09561677379855 269.42880102918497 L 184.50106519742883 266.26642588303616 L 189.90651362105905 263.1051698014827 L 195.3119620446893 259.9450901854756 L 200.7174104683195 256.78624797432036 L 206.12285889194973 253.6287078770277 L 211.52830731557998 250.47253861635005 L 216.93375573921028 247.3178131853922 L 222.3392041628405 244.16460911644427 L 227.74465258647072 241.01300876138694 L 233.15010101010094 237.86309958264235 L 238.5555494337312 234.71497445318653 L 243.96099785736146 231.56873196358117 L 249.3664462809917 228.42447673331156 L 254.77189470462193 225.28231972291852 L 260.1773431282522 222.14237854247244 L 265.5827915518824 219.00477775084323 L 270.98823997551267 215.8696491389585 L 276.3936883991429 212.73713198881924 L 281.7991368227731 209.6073732984462 L 287.2045852464033 206.48052796119066 L 292.6100336700336 203.3567588859778 L 298.0154820936638 200.23623704312018 L 303.42093051729404 197.11914141840657 L 308.8263789409243 194.00565885635325 L 314.23182736455453 190.8959837719383 L 319.6372757881848 187.79031770899542 L 325.042724211815 184.68886872295917 L 330.4481726354453 181.5918505660591 L 335.8536210590755 178.49948165465815 L 341.2590694827058 175.4119838014903 L 346.6645179063361 172.32958070035392 L 352.0699663299663 169.25249615756752 L 357.4754147535965 166.18095207330362 L 362.8808631772268 163.11516618674239 L 368.28631160085706 160.05534961157116 L 373.69176002448717 157.00170420220857 L 379.0972084481175 153.95441980547665 L 384.50265687174766 150.91367146625822 L 389.90810529537794 147.87961666773157 L 395.31355371900815 144.8523926957472 L 400.7190021426384 141.83211422152652 L 406.1244505662686 138.81887119607723 L 411.52989898989887 135.81272714289554 L 416.93534741352914 132.81371792259154 L 422.3407958371595 129.8218510245827 L 427.7462442607897 126.83710541816909 L 433.15169268441997 123.85943196984802 L 438.55714110805013 120.88875440770683 L 443.9625895316804 117.92497078928348 L 449.3680379553107 114.96795540832855 L 454.77348637894085 112.01756105994203 L 460.1789348025712 109.07362157349704 L 465.58438322620134 106.13595451885854 L 470.9898316498316 103.20436399329287 L 476.3952800734618 100.27864340330139 L 481.8007284970921 97.35857816621478 L 487.2061769207224 94.44394826943713 L 492.61162534435255 91.53453063943864 L 498.0170737679828 88.63010128681908 L 503.422522191613 85.73043720709275 L 508.8279706152433 82.83531802864077 L 514.2334190388735 79.9445274091615 L 519.6388674625038 77.05785418977419 L 525.044315886134 74.17509332173361 L 530.4497643097643 71.29604658465753 L 535.8552127333945 68.42052311749606 L 541.2606611570247 65.54833978446834 L 546.666109580655 62.679321398139635 L 552.0715580042852 59.813300820987024 L 557.4770064279155 56.95011896542735 L 562.8824548515456 54.08962471058044 L 568.287903275176 51.23167475214734 L 573.6933516988062 48.376133399846175 L 579.0988001224364 45.52287233493644 L 584.5042485460667 42.6717703385547 L 589.9096969696968 39.82271299990862 L 589.9096969696968 23.287878787878828 L 584.5042485460667 26.433092221150332 L 579.0988001224364 29.576260996686223 L 573.6933516988062 32.717270703694226 L 568.287903275176 35.85600012331061 L 562.8824548515456 38.992320936795025 L 557.4770064279155 42.12609745386567 L 552.0715580042852 45.25718637022377 L 546.666109580655 48.38543656498878 L 541.2606611570247 51.51068895057771 L 535.8552127333945 54.63277638946738 L 530.4497643097643 57.75152369422365 L 525.044315886134 60.866747729065196 L 519.6388674625038 63.978257632942245 L 514.2334190388735 67.08585518547241 L 508.8279706152433 70.1893353379108 L 503.422522191613 73.28848693137645 L 498.0170737679828 76.3830936235677 L 492.61162534435255 79.47293504286581 L 487.2061769207224 82.5577881847848 L 481.8007284970921 85.63742905992478 L 476.3952800734618 88.71163459475588 L 470.9898316498316 91.78018477668195 L 465.58438322620134 94.84286502303382 L 460.1789348025712 97.89946874031295 L 454.77348637894085 100.94980002578563 L 449.3680379553107 103.9936764493167 L 443.9625895316804 107.03093184027935 L 438.55714110805013 110.06141899377356 L 433.15169268441997 113.08501220354995 L 427.7462442607897 116.10160952714651 L 422.3407958371595 119.11113469265058 L 416.93534741352914 122.11353856655933 L 411.52989898989887 125.10880011817301 L 406.1244505662686 128.09692683690892 L 400.7190021426384 131.07795458337716 L 395.31355371900815 134.05194688107412 L 389.90810529537794 137.01899368100732 L 384.50265687174766 139.97920965439826 L 379.0972084481175 142.93273208709743 L 373.69176002448717 145.87971846228314 L 368.28631160085706 148.82034382483815 L 362.8808631772268 151.75479802158452 L 357.4754147535965 154.68328290694092 L 352.0699663299663 157.60600959459467 L 346.6645179063361 160.5231958237258 L 341.2590694827058 163.43506349450706 L 335.8536210590755 166.34183641325677 L 330.4481726354453 169.2437382737735 L 325.042724211815 172.14099088879098 L 319.6372757881848 175.03381267467233 L 314.23182736455453 177.92241738364717 L 308.8263789409243 180.8070130711497 L 303.42093051729404 183.68780128101412 L 298.0154820936638 186.56497642821796 L 292.6100336700336 189.43872535727797 L 287.2045852464033 192.3092270539828 L 281.7991368227731 195.17665248864478 L 276.3936883991429 198.0411645701894 L 270.98823997551267 200.90291819196773 L 265.5827915518824 203.76206035200067 L 260.1773431282522 206.61873033228906 L 254.77189470462193 209.47305992376056 L 249.3664462809917 212.3251736852851 L 243.96099785736146 215.17518922693307 L 238.5555494337312 218.0232175092454 L 233.15010101010094 220.86936315170715 L 227.74465258647072 223.71372474488015 L 222.3392041628405 226.55639516174043 L 216.93375573921028 229.3974618647101 L 211.52830731557998 232.2370072056699 L 206.12285889194973 235.07510871690988 L 200.7174104683195 237.91183939153476 L 195.3119620446893 240.7472679522971 L 189.90651362105905 243.58145910820764 L 184.50106519742883 246.41447379857178 L 179.09561677379855 249.24636942434063 L 173.69016835016834 252.07720006685182 L 168.2847199265381 254.90701669418164 L 162.87927150290784 257.7358673554352 L 157.47382307927762 260.56379736338437 L 152.06837465564735 263.39084946591777 L 146.66292623201713 266.2170640068015 L 141.25747780838688 269.04247907627575 L 135.85202938475663 271.8671306520169 L 130.44658096112636 274.69105273099683 L 125.0411325374962 277.5142774527662 L 119.63568411386589 280.3368352146707 L 114.23023569023567 283.15875477949885 L 108.82478726660543 285.9800633760354 L 103.41933884297521 288.80078679297696 L 98.01389041934495 291.6209494666424 L 92.60844199571471 294.44057456288726 L 87.20299357208447 297.2596840536108 L 81.79754514845423 300.0782987882189 L 76.39209672482399 302.8964385603859 L 70.98664830119374 305.7141221704357 L 65.58119987756352 308.5313674836425 L 60.175751453933266 311.3481914847317 L 54.770303030303026 314.1646103288426 Z" fill="#1f77b4" fill-opacity="0.2" stroke="none"/><line x1="54.770303030303026" y1="328.2716991038152" x2="60.175751453933266" y2="325.27456371785644" stroke="#1f77b4" stroke-width="1.4211023622047245"/><line x1="60.175751453933266" y1="325.27456371785644" x2="65.58119987756352" y2="322.2774283318976" stroke="#1f77b4" stroke-width="1.4211023622047245"/><line x1="65.58119987756352" y1="322.2774283318976" x2="70.98664830119374" y2="319.2802929459388" stroke="#1f77b4" stroke-width="1.4211023622047245"/><line x1="70.98664830119374" y1="319.2802929459388" x2="76.39209672482399" y2="316.28315755998005" stroke="#1f77b4" stroke-width="1.4211023622047245"/><line x1="76.39209672482399" y1="316.28315755998005" x2="81.79754514845423" y2="313.28602217402124" stroke="#1f77b4" stroke-width="1.4211023622047245"/><line x1="81.79754514845423" y1="313.28602217402124" x2="87.20299357208447" y2="310.2888867880624" stroke="#1f77b4" stroke-width="1.4211023622047245"/><line x1="87.20299357208447" y1="310.2888867880624" x2="92.60844199571471" y2="307.2917514021036" stroke="#1f77b4" stroke-width="1.4211023622047245"/><line x1="92.60844199571471" y1="307.2917514021036" x2="98.01389041934495" y2="304.2946160161448" stroke="#1f77b4" stroke-width="1.4211023622047245"/><line x1="98.01389041934495" y1="304.2946160161448" x2="103.41933884297521" y2="301.297480630186" stroke="#1f77b4" stroke-width="1.4211023622047245"/><line x1="103.41933884297521" y1="301.297480630186" x2="108.82478726660543" y2="298.3003452442272" stroke="#1f77b4" stroke-width="1.4211023622047245"/><line x1="108.82478726660543" y1="298.3003452442272" x2="114.23023569023567" y2="295.30320985826836" stroke="#1f77b4" stroke-width="1.4211023622047245"/><line x1="114.23023569023567" y1="295.30320985826836" x2="119.63568411386589" y2="292.3060744723096" stroke="#1f77b4" stroke-width="1.4211023622047245"/><line x1="119.63568411386589" y1="292.3060744723096" x2="125.0411325374962" y2="289.3089390863508" stroke="#1f77b4" stroke-width="1.4211023622047245"/><line x1="125.0411325374962" y1="289.3089390863508" x2="130.44658096112636" y2="286.311803700392" stroke="#1f77b4" stroke-width="1.4211023622047245"/><line x1="130.44658096112636" y1="286.311803700392" x2="135.85202938475663" y2="283.31466831443316" stroke="#1f77b4" stroke-width="1.4211023622047245"/><line x1="135.85202938475663" y1="283.31466831443316" x2="141.25747780838688" y2="280.3175329284744" stroke="#1f77b4" stroke-width="1.4211023622047245"/><line x1="141.25747780838688" y1="280.3175329284744" x2="146.66292623201713" y2="277.3203975425156" stroke="#1f77b4" stroke-width="1.4211023622047245"/><line x1="146.66292623201713" y1="277.3203975425156" x2="152.06837465564735" y2="274.3232621565568" stroke="#1f77b4" stroke-width="1.4211023622047245"/><line x1="152.06837465564735" y1="274.3232621565568" x2="157.47382307927762" y2="271.32612677059797" stroke="#1f77b4" stroke-width="1.4211023622047245"/><line x1="157.47382307927762" y1="271.32612677059797" x2="162.87927150290784" y2="268.32899138463915" stroke="#1f77b4" stroke-width="1.4211023622047245"/><line x1="162.87927150290784" y1="268.32899138463915" x2="168.2847199265381" y2="265.33185599868034" stroke="#1f77b4" stroke-width="1.4211023622047245"/><line x1="168.2847199265381" y1="265.33185599868034" x2="173.69016835016834" y2="262.3347206127215" stroke="#1f77b4" stroke-width="1.4211023622047245"/><line x1="173.69016835016834" y1="262.3347206127215" x2="179.09561677379855" y2="259.33758522676277" stroke="#1f77b4" stroke-width="1.4211023622047245"/><line x1="179.09561677379855" y1="259.33758522676277" x2="184.50106519742883" y2="256.34044984080396" stroke="#1f77b4" stroke-width="1.4211023622047245"/><line x1="184.50106519742883" y1="256.34044984080396" x2="189.90651362105905" y2="253.34331445484514" stroke="#1f77b4" stroke-width="1.4211023622047245"/><line x1="189.90651362105905" y1="253.34331445484514" x2="195.3119620446893" y2="250.34617906888639" stroke="#1f77b4" stroke-width="1.4211023622047245"/><line x1="195.3119620446893" y1="250.34617906888639" x2="200.7174104683195" y2="247.34904368292757" stroke="#1f77b4" stroke-width="1.4211023622047245"/><line x1="200.7174104683195" y1="247.34904368292757" x2="206.12285889194973" y2="244.3519082969688" stroke="#1f77b4" stroke-width="1.4211023622047245"/><line x1="206.12285889194973" y1="244.3519082969688" x2="211.52830731557998" y2="241.35477291100997" stroke="#1f77b4" stroke-width="1.4211023622047245"/><line x1="211.52830731557998" y1="241.35477291100997" x2="216.93375573921028" y2="238.35763752505113" stroke="#1f77b4" stroke-width="1.4211023622047245"/><line x1="216.93375573921028" y1="238.35763752505113" x2="222.3392041628405" y2="235.36050213909235" stroke="#1f77b4" stroke-width="1.4211023622047245"/><line x1="222.3392041628405" y1="235.36050213909235" x2="227.74465258647072" y2="232.36336675313356" stroke="#1f77b4" stroke-width="1.4211023622047245"/><line x1="227.74465258647072" y1="232.36336675313356" x2="233.15010101010094" y2="229.36623136717475" stroke="#1f77b4" stroke-width="1.4211023622047245"/><line x1="233.15010101010094" y1="229.36623136717475" x2="238.5555494337312" y2="226.36909598121593" stroke="#1f77b4" stroke-width="1.4211023622047245"/><line x1="238.5555494337312" y1="226.36909598121593" x2="243.96099785736146" y2="223.3719605952571" stroke="#1f77b4" stroke-width="1.4211023622047245"/><line x1="243.96099785736146" y1="223.3719605952571" x2="249.3664462809917" y2="220.37482520929836" stroke="#1f77b4" stroke-width="1.4211023622047245"/><line x1="249.3664462809917" y1="220.37482520929836" x2="254.77189470462193" y2="217.37768982333955" stroke="#1f77b4" stroke-width="1.4211023622047245"/><line x1="254.77189470462193" y1="217.37768982333955" x2="260.1773431282522" y2="214.38055443738077" stroke="#1f77b4" stroke-width="1.4211023622047245"/><line x1="260.1773431282522" y1="214.38055443738077" x2="265.5827915518824" y2="211.38341905142192" stroke="#1f77b4" stroke-width="1.4211023622047245"/><line x1="265.5827915518824" y1="211.38341905142192" x2="270.98823997551267" y2="208.3862836654631" stroke="#1f77b4" stroke-width="1.4211023622047245"/><line x1="270.98823997551267" y1="208.3862836654631" x2="276.3936883991429" y2="205.38914827950435" stroke="#1f77b4" stroke-width="1.4211023622047245"/><line x1="276.3936883991429" y1="205.38914827950435" x2="281.7991368227731" y2="202.3920128935455" stroke="#1f77b4" stroke-width="1.4211023622047245"/><line x1="281.7991368227731" y1="202.3920128935455" x2="287.2045852464033" y2="199.39487750758673" stroke="#1f77b4" stroke-width="1.4211023622047245"/><line x1="287.2045852464033" y1="199.39487750758673" x2="292.6100336700336" y2="196.39774212162789" stroke="#1f77b4" stroke-width="1.4211023622047245"/><line x1="292.6100336700336" y1="196.39774212162789" x2="298.0154820936638" y2="193.4006067356691" stroke="#1f77b4" stroke-width="1.4211023622047245"/><line x1="298.0154820936638" y1="193.4006067356691" x2="303.42093051729404" y2="190.40347134971034" stroke="#1f77b4" stroke-width="1.4211023622047245"/><line x1="303.42093051729404" y1="190.40347134971034" x2="308.8263789409243" y2="187.40633596375145" stroke="#1f77b4" stroke-width="1.4211023622047245"/><line x1="308.8263789409243" y1="187.40633596375145" x2="314.23182736455453" y2="184.40920057779272" stroke="#1f77b4" stroke-width="1.4211023622047245"/><line x1="314.23182736455453" y1="184.40920057779272" x2="319.6372757881848" y2="181.41206519183385" stroke="#1f77b4" stroke-width="1.4211023622047245"/><line x1="319.6372757881848" y1="181.41206519183385" x2="325.042724211815" y2="178.41492980587512" stroke="#1f77b4" stroke-width="1.4211023622047245"/><line x1="325.042724211815" y1="178.41492980587512" x2="330.4481726354453" y2="175.41779441991628" stroke="#1f77b4" stroke-width="1.4211023622047245"/><line x1="330.4481726354453" y1="175.41779441991628" x2="335.8536210590755" y2="172.42065903395746" stroke="#1f77b4" stroke-width="1.4211023622047245"/><line x1="335.8536210590755" y1="172.42065903395746" x2="341.2590694827058" y2="169.42352364799865" stroke="#1f77b4" stroke-width="1.4211023622047245"/><line x1="341.2590694827058" y1="169.42352364799865" x2="346.6645179063361" y2="166.42638826203986" stroke="#1f77b4" stroke-width="1.4211023622047245"/><line x1="346.6645179063361" y1="166.42638826203986" x2="352.0699663299663" y2="163.42925287608114" stroke="#1f77b4" stroke-width="1.4211023622047245"/><line x1="352.0699663299663" y1="163.42925287608114" x2="357.4754147535965" y2="160.43211749012227" stroke="#1f77b4" stroke-width="1.4211023622047245"/><line x1="357.4754147535965" y1="160.43211749012227" x2="362.8808631772268" y2="157.43498210416345" stroke="#1f77b4" stroke-width="1.4211023622047245"/><line x1="362.8808631772268" y1="157.43498210416345" x2="368.28631160085706" y2="154.43784671820464" stroke="#1f77b4" stroke-width="1.4211023622047245"/><line x1="368.28631160085706" y1="154.43784671820464" x2="373.69176002448717" y2="151.44071133224583" stroke="#1f77b4" stroke-width="1.4211023622047245"/><line x1="373.69176002448717" y1="151.44071133224583" x2="379.0972084481175" y2="148.443575946287" stroke="#1f77b4" stroke-width="1.4211023622047245"/><line x1="379.0972084481175" y1="148.443575946287" x2="384.50265687174766" y2="145.44644056032826" stroke="#1f77b4" stroke-width="1.4211023622047245"/><line x1="384.50265687174766" y1="145.44644056032826" x2="389.90810529537794" y2="142.44930517436944" stroke="#1f77b4" stroke-width="1.4211023622047245"/><line x1="389.90810529537794" y1="142.44930517436944" x2="395.31355371900815" y2="139.45216978841066" stroke="#1f77b4" stroke-width="1.4211023622047245"/><line x1="395.31355371900815" y1="139.45216978841066" x2="400.7190021426384" y2="136.45503440245184" stroke="#1f77b4" stroke-width="1.4211023622047245"/><line x1="400.7190021426384" y1="136.45503440245184" x2="406.1244505662686" y2="133.45789901649306" stroke="#1f77b4" stroke-width="1.4211023622047245"/><line x1="406.1244505662686" y1="133.45789901649306" x2="411.52989898989887" y2="130.4607636305343" stroke="#1f77b4" stroke-width="1.4211023622047245"/><line x1="411.52989898989887" y1="130.4607636305343" x2="416.93534741352914" y2="127.46362824457545" stroke="#1f77b4" stroke-width="1.4211023622047245"/><line x1="416.93534741352914" y1="127.46362824457545" x2="422.3407958371595" y2="124.46649285861663" stroke="#1f77b4" stroke-width="1.4211023622047245"/><line x1="422.3407958371595" y1="124.46649285861663" x2="427.7462442607897" y2="121.46935747265778" stroke="#1f77b4" stroke-width="1.4211023622047245"/><line x1="427.7462442607897" y1="121.46935747265778" x2="433.15169268441997" y2="118.47222208669896" stroke="#1f77b4" stroke-width="1.4211023622047245"/><line x1="433.15169268441997" y1="118.47222208669896" x2="438.55714110805013" y2="115.47508670074019" stroke="#1f77b4" stroke-width="1.4211023622047245"/><line x1="438.55714110805013" y1="115.47508670074019" x2="443.9625895316804" y2="112.47795131478145" stroke="#1f77b4" stroke-width="1.4211023622047245"/><line x1="443.9625895316804" y1="112.47795131478145" x2="449.3680379553107" y2="109.48081592882264" stroke="#1f77b4" stroke-width="1.4211023622047245"/><line x1="449.3680379553107" y1="109.48081592882264" x2="454.77348637894085" y2="106.48368054286382" stroke="#1f77b4" stroke-width="1.4211023622047245"/><line x1="454.77348637894085" y1="106.48368054286382" x2="460.1789348025712" y2="103.48654515690498" stroke="#1f77b4" stroke-width="1.4211023622047245"/><line x1="460.1789348025712" y1="103.48654515690498" x2="465.58438322620134" y2="100.48940977094617" stroke="#1f77b4" stroke-width="1.4211023622047245"/><line x1="465.58438322620134" y1="100.48940977094617" x2="470.9898316498316" y2="97.49227438498743" stroke="#1f77b4" stroke-width="1.4211023622047245"/><line x1="470.9898316498316" y1="97.49227438498743" x2="476.3952800734618" y2="94.49513899902861" stroke="#1f77b4" stroke-width="1.4211023622047245"/><line x1="476.3952800734618" y1="94.49513899902861" x2="481.8007284970921" y2="91.4980036130698" stroke="#1f77b4" stroke-width="1.4211023622047245"/><line x1="481.8007284970921" y1="91.4980036130698" x2="487.2061769207224" y2="88.50086822711098" stroke="#1f77b4" stroke-width="1.4211023622047245"/><line x1="487.2061769207224" y1="88.50086822711098" x2="492.61162534435255" y2="85.50373284115221" stroke="#1f77b4" stroke-width="1.4211023622047245"/><line x1="492.61162534435255" y1="85.50373284115221" x2="498.0170737679828" y2="82.50659745519343" stroke="#1f77b4" stroke-width="1.4211023622047245"/><line x1="498.0170737679828" y1="82.50659745519343" x2="503.422522191613" y2="79.50946206923462" stroke="#1f77b4" stroke-width="1.4211023622047245"/><line x1="503.422522191613" y1="79.50946206923462" x2="508.8279706152433" y2="76.51232668327577" stroke="#1f77b4" stroke-width="1.4211023622047245"/><line x1="508.8279706152433" y1="76.51232668327577" x2="514.2334190388735" y2="73.51519129731696" stroke="#1f77b4" stroke-width="1.4211023622047245"/><line x1="514.2334190388735" y1="73.51519129731696" x2="519.6388674625038" y2="70.51805591135818" stroke="#1f77b4" stroke-width="1.4211023622047245"/><line x1="519.6388674625038" y1="70.51805591135818" x2="525.044315886134" y2="67.52092052539936" stroke="#1f77b4" stroke-width="1.4211023622047245"/><line x1="525.044315886134" y1="67.52092052539936" x2="530.4497643097643" y2="64.52378513944063" stroke="#1f77b4" stroke-width="1.4211023622047245"/><line x1="530.4497643097643" y1="64.52378513944063" x2="535.8552127333945" y2="61.52664975348174" stroke="#1f77b4" stroke-width="1.4211023622047245"/><line x1="535.8552127333945" y1="61.52664975348174" x2="541.2606611570247" y2="58.52951436752301" stroke="#1f77b4" stroke-width="1.4211023622047245"/><line x1="541.2606611570247" y1="58.52951436752301" x2="546.666109580655" y2="55.53237898156419" stroke="#1f77b4" stroke-width="1.4211023622047245"/><line x1="546.666109580655" y1="55.53237898156419" x2="552.0715580042852" y2="52.53524359560538" stroke="#1f77b4" stroke-width="1.4211023622047245"/><line x1="552.0715580042852" y1="52.53524359560538" x2="557.4770064279155" y2="49.53810820964652" stroke="#1f77b4" stroke-width="1.4211023622047245"/><line x1="557.4770064279155" y1="49.53810820964652" x2="562.8824548515456" y2="46.54097282368771" stroke="#1f77b4" stroke-width="1.4211023622047245"/><line x1="562.8824548515456" y1="46.54097282368771" x2="568.287903275176" y2="43.543837437728975" stroke="#1f77b4" stroke-width="1.4211023622047245"/><line x1="568.287903275176" y1="43.543837437728975" x2="573.6933516988062" y2="40.5467020517702" stroke="#1f77b4" stroke-width="1.4211023622047245"/><line x1="573.6933516988062" y1="40.5467020517702" x2="579.0988001224364" y2="37.54956666581131" stroke="#1f77b4" stroke-width="1.4211023622047245"/><line x1="579.0988001224364" y1="37.54956666581131" x2="584.5042485460667" y2="34.552431279852534" stroke="#1f77b4" stroke-width="1.4211023622047245"/><line x1="584.5042485460667" y1="34.552431279852534" x2="589.9096969696968" y2="31.55529589389372" stroke="#1f77b4" stroke-width="1.4211023622047245"/></svg>