<svg xmlns="http://www.w3.org/2000/svg" width="800" height="600" viewBox="0 0 800 600"><rect x="0.0" y="0.0" width="800.0" height="600.0" fill="#ffffff" fill-opacity="1.0" stroke="none"/><line x1="131.01933744221878" y1="27.0" x2="131.01933744221878" y2="563.8" stroke="#dddddd" stroke-width="0.5"/><line x1="247.52164869029275" y1="27.0" x2="247.52164869029275" y2="563.8" stroke="#dddddd" stroke-width="0.5"/><line x1="364.0239599383667" y1="27.0" x2="364.0239599383667" y2="563.8" stroke="#dddddd" stroke-width="0.5"/><line x1="480.5262711864407" y1="27.0" x2="480.5262711864407" y2="563.8" stroke="#dddddd" stroke-width="0.5"/><line x1="597.0285824345146" y1="27.0" x2="597.0285824345146" y2="563.8" stroke="#dddddd" stroke-width="0.5"/><line x1="713.5308936825885" y1="27.0" x2="713.5308936825885" y2="563.8" stroke="#dddddd" stroke-width="0.5"/><line x1="72.76818181818182" y1="27.0" x2="72.76818181818182" y2="563.8" stroke="#dddddd" stroke-width="1.0"/><line x1="189.27049306625577" y1="27.0" x2="189.27049306625577" y2="563.8" stroke="#dddddd" stroke-width="1.0"/><line x1="305.7728043143297" y1="27.0" x2="305.7728043143297" y2="563.8" stroke="#dddddd" stroke-width="1.0"/><line x1="422.27511556240364" y1="27.0" x2="422.27511556240364" y2="563.8" stroke="#dddddd" stroke-width="1.0"/><line x1="538.7774268104777" y1="27.0" x2="538.7774268104777" y2="563.8" stroke="#dddddd" stroke-width="1.0"/><line x1="655.2797380585516" y1="27.0" x2="655.2797380585516" y2="563.8" stroke="#dddddd" stroke-width="1.0"/><line x1="771.7820493066256" y1="27.0" x2="771.7820493066256" y2="563.8" stroke="#dddddd" stroke-width="1.0"/><line x1="38.4" y1="529.9514104750134" x2="794.5" y2="529.9514104750134" stroke="#dddddd" stroke-width="0.5"/><line x1="38.4" y1="409.8193436573265" x2="794.5" y2="409.8193436573265" stroke="#dddddd" stroke-width="0.5"/><line x1="38.4" y1="289.68727683963965" x2="794.5" y2="289.68727683963965" stroke="#dddddd" stroke-width="0.5"/><line x1="38.4" y1="169.5552100219528" x2="794.5" y2="169.5552100219528" stroke="#dddddd" stroke-width="0.5"/><line x1="38.4" y1="49.4231432042659" x2="794.5" y2="49.4231432042659" stroke="#dddddd" stroke-width="0.5"/><line x1="38.4" y1="469.8853770661699" x2="794.5" y2="469.8853770661699" stroke="#dddddd" stroke-width="1.0"/><line x1="38.4" y1="349.7533102484831" x2="794.5" y2="349.7533102484831" stroke="#dddddd" stroke-width="1.0"/><line x1="38.4" y1="229.6212434307962" x2="794.5" y2="229.6212434307962" stroke="#dddddd" stroke-width="1.0"/><line x1="38.4" y1="109.48917661310935" x2="794.5" y2="109.48917661310935" stroke="#dddddd" stroke-width="1.0"/><rect x="38.4" y="27.0" width="756.1" height="536.8" fill="#ffffff" fill-opacity="0.0" stroke="#444444" stroke-width="1.0"/><line x1="72.76818181818182" y1="563.8" x2="72.76818181818182" y2="566.55" stroke="#444444" stroke-width="1.0"/><text x="72.76818181818182" y="577.55" fill="#333333" font-size="11.0" font-family="sans-serif" text-anchor="middle">0</text><line x1="189.27049306625577" y1="563.8" x2="189.27049306625577" y2="566.55" stroke="#444444" stroke-width="1.0"/><text x="189.27049306625577" y="577.55" fill="#333333" font-size="11.0" font-family="sans-serif" text-anchor="middle">10</text><line x1="305.7728043143297" y1="563.8" x2="305.7728043143297" y2="566.55" stroke="#444444" stroke-width="1.0"/><text x="305.7728043143297" y="577.55" fill="#333333" font-size="11.0" font-family="sans-serif" text-anchor="middle">20</text><line x1="422.27511556240364" y1="563.8" x2="422.27511556240364" y2="566.55" stroke="#444444" stroke-width="1.0"/><text x="422.27511556240364" y="577.55" fill="#333333" font-size="11.0" font-family="sans-serif" text-anchor="middle">30</text><line x1="538.7774268104777" y1="563.8" x2="538.7774268104777" y2="566.55" stroke="#444444" stroke-width="1.0"/><text x="538.7774268104777" y="577.55" fill="#333333" font-size="11.0" font-family="sans-serif" text-anchor="middle">40</text><line x1="655.2797380585516" y1="563.8" x2="655.2797380585516" y2="566.55" stroke="#444444" stroke-width="1.0"/><text x="655.2797380585516" y="577.55" fill="#333333" font-size="11.0" font-family="sans-serif" text-anchor="middle">50</text><line x1="771.7820493066256" y1="563.8" x2="771.7820493066256" y2="566.55" stroke="#444444" stroke-width="1.0"/><text x="771.7820493066256" y="577.55" fill="#333333" font-size="11.0" font-family="sans-serif" text-anchor="middle">60</text><line x1="38.4" y1="469.8853770661699" x2="35.65" y2="469.8853770661699" stroke="#444444" stroke-width="1.0"/><text x="33.449999999999996" y="473.7353770661699" fill="#333333" font-size="11.0" font-family="sans-serif" text-anchor="end">5</text><line x1="38.4" y1="349.7533102484831" x2="35.65" y2="349.7533102484831" stroke="#444444" stroke-width="1.0"/><text x="33.449999999999996" y="353.6033102484831" fill="#333333" font-size="11.0" font-family="sans-serif" text-anchor="end">10</text><line x1="38.4" y1="229.6212434307962" x2="35.65" y2="229.6212434307962" stroke="#444444" stroke-width="1.0"/><text x="33.449999999999996" y="233.4712434307962" fill="#333333" font-size="11.0" font-family="sans-serif" text-anchor="end">15</text><line x1="38.4" y1="109.48917661310935" x2="35.65" y2="109.48917661310935" stroke="#444444" stroke-width="1.0"/><text x="33.449999999999996" y="113.33917661310934" fill="#333333" font-size="11.0" font-family="sans-serif" text-anchor="end">20</text><text x="416.45" y="18.3" fill="#333333" font-size="16.0" font-family="sans-serif" text-anchor="middle">出発「分」 ごとの平均遅延</text><text x="416.45" y="592.1" fill="#333333" font-size="12.0" font-family="sans-serif" text-anchor="middle">minute (0-59)</text><text x="13.899999999999999" y="295.4" fill="#333333" font-size="12.0" font-family="sans-serif" text-anchor="middle" transform="rotate(-90.0 13.899999999999999 295.4)">平均 dep_delay</text><line x1="72.76818181818182" y1="290.34596441226927" x2="84.41841294298922" y2="302.1454171022146" stroke="#2c7fb8" stroke-width="1.5"/><line x1="84.41841294298922" y1="302.1454171022146" x2="96.06864406779661" y2="246.82659876315978" stroke="#2c7fb8" stroke-width="1.5"/><line x1="96.06864406779661" y1="246.82659876315978" x2="107.718875192604" y2="275.41852931149805" stroke="#2c7fb8" stroke-width="1.5"/><line x1="107.718875192604" y1="275.41852931149805" x2="119.3691063174114" y2="186.61506060656495" stroke="#2c7fb8" stroke-width="1.5"/><line x1="119.3691063174114" y1="186.61506060656495" x2="131.01933744221878" y2="250.64435512389144" stroke="#2c7fb8" stroke-width="1.5"/><line x1="131.01933744221878" y1="250.64435512389144" x2="142.66956856702618" y2="148.3526181493491" stroke="#2c7fb8" stroke-width="1.5"/><line x1="142.66956856702618" y1="148.3526181493491" x2="154.31979969183357" y2="108.68829616765805" stroke="#2c7fb8" stroke-width="1.5"/><line x1="154.31979969183357" y1="108.68829616765805" x2="165.97003081664096" y2="269.3301692826676" stroke="#2c7fb8" stroke-width="1.5"/><line x1="165.97003081664096" y1="269.3301692826676" x2="177.62026194144838" y2="181.9191672637731" stroke="#2c7fb8" stroke-width="1.5"/><line x1="177.62026194144838" y1="181.9191672637731" x2="189.27049306625577" y2="194.293868840931" stroke="#2c7fb8" stroke-width="1.5"/><line x1="189.27049306625577" y1="194.293868840931" x2="200.92072419106316" y2="217.60803674902752" stroke="#2c7fb8" stroke-width="1.5"/><line x1="200.92072419106316" y1="217.60803674902752" x2="212.57095531587058" y2="91.83711781540842" stroke="#2c7fb8" stroke-width="1.5"/><line x1="212.57095531587058" y1="91.83711781540842" x2="224.22118644067794" y2="247.52772131494197" stroke="#2c7fb8" stroke-width="1.5"/><line x1="224.22118644067794" y1="247.52772131494197" x2="235.87141756548536" y2="163.20861026554667" stroke="#2c7fb8" stroke-width="1.5"/><line x1="235.87141756548536" y1="163.20861026554667" x2="247.52164869029275" y2="260.6051124015355" stroke="#2c7fb8" stroke-width="1.5"/><line x1="247.52164869029275" y1="260.6051124015355" x2="259.17187981510017" y2="204.94193839977146" stroke="#2c7fb8" stroke-width="1.5"/><line x1="259.17187981510017" y1="204.94193839977146" x2="270.82211093990753" y2="233.26160909193828" stroke="#2c7fb8" stroke-width="1.5"/><line x1="270.82211093990753" y1="233.26160909193828" x2="282.4723420647149" y2="143.14882174976316" stroke="#2c7fb8" stroke-width="1.5"/><line x1="282.4723420647149" y1="143.14882174976316" x2="294.1225731895223" y2="187.15872080315836" stroke="#2c7fb8" stroke-width="1.5"/><line x1="294.1225731895223" y1="187.15872080315836" x2="305.7728043143297" y2="317.4678172912297" stroke="#2c7fb8" stroke-width="1.5"/><line x1="305.7728043143297" y1="317.4678172912297" x2="317.4230354391371" y2="321.99370915116896" stroke="#2c7fb8" stroke-width="1.5"/><line x1="317.4230354391371" y1="321.99370915116896" x2="329.07326656394446" y2="276.85124778240726" stroke="#2c7fb8" stroke-width="1.5"/><line x1="329.07326656394446" y1="276.85124778240726" x2="340.7234976887519" y2="415.94220383706664" stroke="#2c7fb8" stroke-width="1.5"/><line x1="340.7234976887519" y1="415.94220383706664" x2="352.3737288135593" y2="413.7964120809837" stroke="#2c7fb8" stroke-width="1.5"/><line x1="352.3737288135593" y1="413.7964120809837" x2="364.0239599383667" y2="408.7203436769754" stroke="#2c7fb8" stroke-width="1.5"/><line x1="364.0239599383667" y1="408.7203436769754" x2="375.6741910631741" y2="338.8388724705346" stroke="#2c7fb8" stroke-width="1.5"/><line x1="375.6741910631741" y1="338.8388724705346" x2="387.32442218798144" y2="337.87284618198254" stroke="#2c7fb8" stroke-width="1.5"/><line x1="387.32442218798144" y1="337.87284618198254" x2="398.97465331278886" y2="413.94772118573616" stroke="#2c7fb8" stroke-width="1.5"/><line x1="398.97465331278886" y1="413.94772118573616" x2="410.6248844375962" y2="186.0964715299266" stroke="#2c7fb8" stroke-width="1.5"/><line x1="410.6248844375962" y1="186.0964715299266" x2="422.27511556240364" y2="301.3191118807173" stroke="#2c7fb8" stroke-width="1.5"/><line x1="422.27511556240364" y1="301.3191118807173" x2="433.92534668721106" y2="168.8239713543669" stroke="#2c7fb8" stroke-width="1.5"/><line x1="433.92534668721106" y1="168.8239713543669" x2="445.5755778120185" y2="151.86910018490443" stroke="#2c7fb8" stroke-width="1.5"/><line x1="445.5755778120185" y1="151.86910018490443" x2="457.2258089368259" y2="195.2327276213731" stroke="#2c7fb8" stroke-width="1.5"/><line x1="457.2258089368259" y1="195.2327276213731" x2="468.87604006163326" y2="86.93162694865282" stroke="#2c7fb8" stroke-width="1.5"/><line x1="468.87604006163326" y1="86.93162694865282" x2="480.5262711864407" y2="231.42057835229463" stroke="#2c7fb8" stroke-width="1.5"/><line x1="480.5262711864407" y1="231.42057835229463" x2="492.1765023112481" y2="174.9325501556969" stroke="#2c7fb8" stroke-width="1.5"/><line x1="492.1765023112481" y1="174.9325501556969" x2="503.8267334360554" y2="144.46568102286068" stroke="#2c7fb8" stroke-width="1.5"/><line x1="503.8267334360554" y1="144.46568102286068" x2="515.4769645608628" y2="275.1560181023037" stroke="#2c7fb8" stroke-width="1.5"/><line x1="515.4769645608628" y1="275.1560181023037" x2="527.1271956856702" y2="238.56130421722872" stroke="#2c7fb8" stroke-width="1.5"/><line x1="527.1271956856702" y1="238.56130421722872" x2="538.7774268104777" y2="310.4043917587653" stroke="#2c7fb8" stroke-width="1.5"/><line x1="538.7774268104777" y1="310.4043917587653" x2="550.427657935285" y2="261.86448214376844" stroke="#2c7fb8" stroke-width="1.5"/><line x1="550.427657935285" y1="261.86448214376844" x2="562.0778890600924" y2="211.72108686114888" stroke="#2c7fb8" stroke-width="1.5"/><line x1="562.0778890600924" y1="211.72108686114888" x2="573.7281201848998" y2="51.39999999999998" stroke="#2c7fb8" stroke-width="1.5"/><line x1="573.7281201848998" y1="51.39999999999998" x2="585.3783513097072" y2="230.30445897667875" stroke="#2c7fb8" stroke-width="1.5"/><line x1="585.3783513097072" y1="230.30445897667875" x2="597.0285824345146" y2="222.0591452008382" stroke="#2c7fb8" stroke-width="1.5"/><line x1="597.0285824345146" y1="222.0591452008382" x2="608.6788135593221" y2="93.60232369517848" stroke="#2c7fb8" stroke-width="1.5"/><line x1="608.6788135593221" y1="93.60232369517848" x2="620.3290446841295" y2="251.25828971950665" stroke="#2c7fb8" stroke-width="1.5"/><line x1="620.3290446841295" y1="251.25828971950665" x2="631.9792758089368" y2="353.5361923525294" stroke="#2c7fb8" stroke-width="1.5"/><line x1="631.9792758089368" y1="353.5361923525294" x2="643.6295069337442" y2="180.02455078477925" stroke="#2c7fb8" stroke-width="1.5"/><line x1="643.6295069337442" y1="180.02455078477925" x2="655.2797380585516" y2="384.5501847749855" stroke="#2c7fb8" stroke-width="1.5"/><line x1="655.2797380585516" y1="384.5501847749855" x2="666.929969183359" y2="374.3586733316238" stroke="#2c7fb8" stroke-width="1.5"/><line x1="666.929969183359" y1="374.3586733316238" x2="678.5802003081664" y2="539.4" stroke="#2c7fb8" stroke-width="1.5"/><line x1="678.5802003081664" y1="539.4" x2="690.2304314329738" y2="462.41447738845307" stroke="#2c7fb8" stroke-width="1.5"/><line x1="690.2304314329738" y1="462.41447738845307" x2="701.8806625577812" y2="516.2256292558018" stroke="#2c7fb8" stroke-width="1.5"/><line x1="701.8806625577812" y1="516.2256292558018" x2="713.5308936825885" y2="432.86106794858773" stroke="#2c7fb8" stroke-width="1.5"/><line x1="713.5308936825885" y1="432.86106794858773" x2="725.1811248073959" y2="480.266499989391" stroke="#2c7fb8" stroke-width="1.5"/><line x1="725.1811248073959" y1="480.266499989391" x2="736.8313559322033" y2="402.34259264559637" stroke="#2c7fb8" stroke-width="1.5"/><line x1="736.8313559322033" y1="402.34259264559637" x2="748.4815870570108" y2="421.7761503077254" stroke="#2c7fb8" stroke-width="1.5"/><line x1="748.4815870570108" y1="421.7761503077254" x2="760.1318181818182" y2="257.5677558168054" stroke="#2c7fb8" stroke-width="1.5"/></svg>