<svg xmlns="http://www.w3.org/2000/svg" width="800" height="600" viewBox="0 0 800 600"><rect x="0.0" y="0.0" width="800.0" height="600.0" fill="#ffffff" fill-opacity="1.0" stroke="none"/><line x1="389.65000000000003" y1="27.0" x2="389.65000000000003" y2="563.8" stroke="#dddddd" stroke-width="0.5"/><line x1="94.33181818179376" y1="27.0" x2="94.33181818179376" y2="563.8" stroke="#dddddd" stroke-width="1.0"/><line x1="684.9681818182062" y1="27.0" x2="684.9681818182062" y2="563.8" stroke="#dddddd" stroke-width="1.0"/><line x1="64.8" y1="483.8353373611052" x2="714.5" y2="483.8353373611052" stroke="#dddddd" stroke-width="0.5"/><line x1="64.8" y1="369.2926396928002" x2="714.5" y2="369.2926396928002" stroke="#dddddd" stroke-width="0.5"/><line x1="64.8" y1="254.74994202449517" x2="714.5" y2="254.74994202449517" stroke="#dddddd" stroke-width="0.5"/><line x1="64.8" y1="140.2072443561902" x2="714.5" y2="140.2072443561902" stroke="#dddddd" stroke-width="0.5"/><line x1="64.8" y1="541.1066861952577" x2="714.5" y2="541.1066861952577" stroke="#dddddd" stroke-width="1.0"/><line x1="64.8" y1="426.5639885269527" x2="714.5" y2="426.5639885269527" stroke="#dddddd" stroke-width="1.0"/><line x1="64.8" y1="312.0212908586477" x2="714.5" y2="312.0212908586477" stroke="#dddddd" stroke-width="1.0"/><line x1="64.8" y1="197.47859319034274" x2="714.5" y2="197.47859319034274" stroke="#dddddd" stroke-width="1.0"/><line x1="64.8" y1="82.93589552203775" x2="714.5" y2="82.93589552203775" stroke="#dddddd" stroke-width="1.0"/><rect x="64.8" y="27.0" width="649.7" height="536.8" fill="#ffffff" fill-opacity="0.0" stroke="#444444" stroke-width="1.0"/><line x1="94.33181818179376" y1="563.8" x2="94.33181818179376" y2="566.55" stroke="#444444" stroke-width="1.0"/><text x="94.33181818179376" y="577.55" fill="#333333" font-size="11.0" font-family="sans-serif" text-anchor="middle">1999</text><line x1="684.9681818182062" y1="563.8" x2="684.9681818182062" y2="566.55" stroke="#444444" stroke-width="1.0"/><text x="684.9681818182062" y="577.55" fill="#333333" font-size="11.0" font-family="sans-serif" text-anchor="middle">2000</text><line x1="64.8" y1="541.1066861952577" x2="62.05" y2="541.1066861952577" stroke="#444444" stroke-width="1.0"/><text x="59.849999999999994" y="544.9566861952577" fill="#333333" font-size="11.0" font-family="sans-serif" text-anchor="end">0</text><line x1="64.8" y1="426.5639885269527" x2="62.05" y2="426.5639885269527" stroke="#444444" stroke-width="1.0"/><text x="59.849999999999994" y="430.4139885269527" fill="#333333" font-size="11.0" font-family="sans-serif" text-anchor="end">50000</text><line x1="64.8" y1="312.0212908586477" x2="62.05" y2="312.0212908586477" stroke="#444444" stroke-width="1.0"/><text x="59.849999999999994" y="315.87129085864774" fill="#333333" font-size="11.0" font-family="sans-serif" text-anchor="end">100000</text><line x1="64.8" y1="197.47859319034274" x2="62.05" y2="197.47859319034274" stroke="#444444" stroke-width="1.0"/><text x="59.849999999999994" y="201.32859319034273" fill="#333333" font-size="11.0" font-family="sans-serif" text-anchor="end">150000</text><line x1="64.8" y1="82.93589552203775" x2="62.05" y2="82.93589552203775" stroke="#444444" stroke-width="1.0"/><text x="59.849999999999994" y="86.78589552203775" fill="#333333" font-size="11.0" font-family="sans-serif" text-anchor="end">200000</text><text x="389.65000000000003" y="18.3" fill="#333333" font-size="16.0" font-family="sans-serif" text-anchor="middle">結核の罹患者数 (年次・国別)</text><text x="389.65000000000003" y="592.1" fill="#333333" font-size="12.0" font-family="sans-serif" text-anchor="middle">year</text><text x="13.899999999999999" y="295.4" fill="#333333" font-size="12.0" font-family="sans-serif" text-anchor="middle" transform="rotate(-90.0 13.899999999999999 295.4)">cases</text><line x1="94.33181818179376" y1="539.4" x2="684.9681818182062" y2="534.9992695555836" stroke="#000000" stroke-width="1.5"/><line x1="94.33181818179376" y1="454.6567305570812" x2="684.9681818182062" y2="356.720433196727" stroke="#E69F00" stroke-width="1.5"/><line x1="94.33181818179376" y1="54.85460776167605" x2="684.9681818182062" y2="51.39999999999998" stroke="#56B4E9" stroke-width="1.5"/><circle cx="94.33181818179376" cy="539.4" r="7.0" fill="#000000" fill-opacity="0.85" stroke="none"><title>(1999, 745)</title></circle><circle cx="684.9681818182062" cy="534.9992695555836" r="7.0" fill="#000000" fill-opacity="0.85" stroke="none"><title>(2000, 2666)</title></circle><path d="M 94.33181818179376 447.6567305570812 L 101.33181818179376 461.6567305570812 L 87.33181818179376 461.6567305570812 Z" fill="#E69F00" fill-opacity="0.85" stroke="none"/><path d="M 684.9681818182062 349.720433196727 L 691.9681818182062 363.720433196727 L 677.9681818182062 363.720433196727 Z" fill="#E69F00" fill-opacity="0.85" stroke="none"/><path d="M 87.33181818179376 47.85460776167605 L 101.33181818179376 47.85460776167605 L 101.33181818179376 61.85460776167605 L 87.33181818179376 61.85460776167605 Z" fill="#56B4E9" fill-opacity="0.85" stroke="none"/><path d="M 677.9681818182062 44.39999999999998 L 691.9681818182062 44.39999999999998 L 691.9681818182062 58.39999999999998 L 677.9681818182062 58.39999999999998 Z" fill="#56B4E9" fill-opacity="0.85" stroke="none"/><rect x="724.5" y="40.0" width="10.0" height="10.0" fill="#000000" fill-opacity="1.0" stroke="#444444" stroke-width="0.5"/><text x="738.5" y="49.0" fill="#333333" font-size="10.0" font-family="sans-serif" text-anchor="start">Afghanistan</text><rect x="724.5" y="56.0" width="10.0" height="10.0" fill="#E69F00" fill-opacity="1.0" stroke="#444444" stroke-width="0.5"/><text x="738.5" y="65.0" fill="#333333" font-size="10.0" font-family="sans-serif" text-anchor="start">Brazil</text><rect x="724.5" y="72.0" width="10.0" height="10.0" fill="#56B4E9" fill-opacity="1.0" stroke="#444444" stroke-width="0.5"/><text x="738.5" y="81.0" fill="#333333" font-size="10.0" font-family="sans-serif" text-anchor="start">China</text></svg>