<svg xmlns="http://www.w3.org/2000/svg" width="800" height="600" viewBox="0 0 800 600"><rect x="0.0" y="0.0" width="800.0" height="600.0" fill="#ffffff" fill-opacity="1.0" stroke="none"/><line x1="57.7496632996633" y1="27.0" x2="57.7496632996633" y2="563.8" stroke="#dddddd" stroke-width="0.5"/><line x1="171.5712121212121" y1="27.0" x2="171.5712121212121" y2="563.8" stroke="#dddddd" stroke-width="0.5"/><line x1="285.39276094276096" y1="27.0" x2="285.39276094276096" y2="563.8" stroke="#dddddd" stroke-width="0.5"/><line x1="399.2143097643098" y1="27.0" x2="399.2143097643098" y2="563.8" stroke="#dddddd" stroke-width="0.5"/><line x1="513.0358585858587" y1="27.0" x2="513.0358585858587" y2="563.8" stroke="#dddddd" stroke-width="0.5"/><line x1="626.8574074074074" y1="27.0" x2="626.8574074074074" y2="563.8" stroke="#dddddd" stroke-width="0.5"/><line x1="114.66043771043772" y1="27.0" x2="114.66043771043772" y2="563.8" stroke="#dddddd" stroke-width="1.0"/><line x1="228.48198653198654" y1="27.0" x2="228.48198653198654" y2="563.8" stroke="#dddddd" stroke-width="1.0"/><line x1="342.3035353535353" y1="27.0" x2="342.3035353535353" y2="563.8" stroke="#dddddd" stroke-width="1.0"/><line x1="456.12508417508417" y1="27.0" x2="456.12508417508417" y2="563.8" stroke="#dddddd" stroke-width="1.0"/><line x1="569.946632996633" y1="27.0" x2="569.946632996633" y2="563.8" stroke="#dddddd" stroke-width="1.0"/><line x1="683.7681818181818" y1="27.0" x2="683.7681818181818" y2="563.8" stroke="#dddddd" stroke-width="1.0"/><line x1="38.4" y1="493.65" x2="714.5" y2="493.65" stroke="#dddddd" stroke-width="0.5"/><line x1="38.4" y1="341.15" x2="714.5" y2="341.15" stroke="#dddddd" stroke-width="0.5"/><line x1="38.4" y1="188.64999999999998" x2="714.5" y2="188.64999999999998" stroke="#dddddd" stroke-width="0.5"/><line x1="38.4" y1="36.14999999999998" x2="714.5" y2="36.14999999999998" stroke="#dddddd" stroke-width="0.5"/><line x1="38.4" y1="417.4" x2="714.5" y2="417.4" stroke="#dddddd" stroke-width="1.0"/><line x1="38.4" y1="264.90000000000003" x2="714.5" y2="264.90000000000003" stroke="#dddddd" stroke-width="1.0"/><line x1="38.4" y1="112.40000000000003" x2="714.5" y2="112.40000000000003" stroke="#dddddd" stroke-width="1.0"/><rect x="38.4" y="27.0" width="676.1" height="536.8" fill="#ffffff" fill-opacity="0.0" stroke="#444444" stroke-width="1.0"/><line x1="114.66043771043772" y1="563.8" x2="114.66043771043772" y2="566.55" stroke="#444444" stroke-width="1.0"/><text x="114.66043771043772" y="577.55" fill="#333333" font-size="11.0" font-family="sans-serif" text-anchor="middle">2</text><line x1="228.48198653198654" y1="563.8" x2="228.48198653198654" y2="566.55" stroke="#444444" stroke-width="1.0"/><text x="228.48198653198654" y="577.55" fill="#333333" font-size="11.0" font-family="sans-serif" text-anchor="middle">3</text><line x1="342.3035353535353" y1="563.8" x2="342.3035353535353" y2="566.55" stroke="#444444" stroke-width="1.0"/><text x="342.3035353535353" y="577.55" fill="#333333" font-size="11.0" font-family="sans-serif" text-anchor="middle">4</text><line x1="456.12508417508417" y1="563.8" x2="456.12508417508417" y2="566.55" stroke="#444444" stroke-width="1.0"/><text x="456.12508417508417" y="577.55" fill="#333333" font-size="11.0" font-family="sans-serif" text-anchor="middle">5</text><line x1="569.946632996633" y1="563.8" x2="569.946632996633" y2="566.55" stroke="#444444" stroke-width="1.0"/><text x="569.946632996633" y="577.55" fill="#333333" font-size="11.0" font-family="sans-serif" text-anchor="middle">6</text><line x1="683.7681818181818" y1="563.8" x2="683.7681818181818" y2="566.55" stroke="#444444" stroke-width="1.0"/><text x="683.7681818181818" y="577.55" fill="#333333" font-size="11.0" font-family="sans-serif" text-anchor="middle">7</text><line x1="38.4" y1="417.4" x2="35.65" y2="417.4" stroke="#444444" stroke-width="1.0"/><text x="33.449999999999996" y="421.25" fill="#333333" font-size="11.0" font-family="sans-serif" text-anchor="end">20</text><line x1="38.4" y1="264.90000000000003" x2="35.65" y2="264.90000000000003" stroke="#444444" stroke-width="1.0"/><text x="33.449999999999996" y="268.75000000000006" fill="#333333" font-size="11.0" font-family="sans-serif" text-anchor="end">30</text><line x1="38.4" y1="112.40000000000003" x2="35.65" y2="112.40000000000003" stroke="#444444" stroke-width="1.0"/><text x="33.449999999999996" y="116.25000000000003" fill="#333333" font-size="11.0" font-family="sans-serif" text-anchor="end">40</text><text x="376.45" y="18.3" fill="#333333" font-size="16.0" font-family="sans-serif" text-anchor="middle">aes(shape = drv, color = drv)</text><text x="376.45" y="592.1" fill="#333333" font-size="12.0" font-family="sans-serif" text-anchor="middle">displ</text><text x="13.899999999999999" y="295.4" fill="#333333" font-size="12.0" font-family="sans-serif" text-anchor="middle" transform="rotate(-90.0 13.899999999999999 295.4)">hwy</text><circle cx="91.89612794612795" cy="280.15" r="6.0" fill="#000000" fill-opacity="0.85" stroke="none"><title>(1.8, 29)</title></circle><circle cx="91.89612794612795" cy="280.15" r="6.0" fill="#000000" fill-opacity="0.85" stroke="none"><title>(1.8, 29)</title></circle><circle cx="114.66043771043772" cy="249.64999999999998" r="6.0" fill="#000000" fill-opacity="0.85" stroke="none"><title>(2, 31)</title></circle><circle cx="114.66043771043772" cy="264.90000000000003" r="6.0" fill="#000000" fill-opacity="0.85" stroke="none"><title>(2, 30)</title></circle><circle cx="205.71767676767678" cy="325.9" r="6.0" fill="#000000" fill-opacity="0.85" stroke="none"><title>(2.8, 26)</title></circle><circle cx="205.71767676767678" cy="325.9" r="6.0" fill="#000000" fill-opacity="0.85" stroke="none"><title>(2.8, 26)</title></circle><circle cx="239.86414141414144" cy="310.65" r="6.0" fill="#000000" fill-opacity="0.85" stroke="none"><title>(3.1, 27)</title></circle><path d="M 91.89612794612795 319.9 L 97.89612794612795 331.9 L 85.89612794612795 331.9 Z" fill="#E69F00" fill-opacity="0.85" stroke="none"/><path d="M 91.89612794612795 335.15 L 97.89612794612795 347.15 L 85.89612794612795 347.15 Z" fill="#E69F00" fill-opacity="0.85" stroke="none"/><path d="M 114.66043771043772 289.4 L 120.66043771043772 301.4 L 108.66043771043772 301.4 Z" fill="#E69F00" fill-opacity="0.85" stroke="none"/><path d="M 114.66043771043772 304.65 L 120.66043771043772 316.65 L 108.66043771043772 316.65 Z" fill="#E69F00" fill-opacity="0.85" stroke="none"/><path d="M 205.71767676767678 335.15 L 211.71767676767678 347.15 L 199.71767676767678 347.15 Z" fill="#E69F00" fill-opacity="0.85" stroke="none"/><path d="M 205.71767676767678 335.15 L 211.71767676767678 347.15 L 199.71767676767678 347.15 Z" fill="#E69F00" fill-opacity="0.85" stroke="none"/><path d="M 239.86414141414144 335.15 L 245.86414141414144 347.15 L 233.86414141414144 347.15 Z" fill="#E69F00" fill-opacity="0.85" stroke="none"/><path d="M 239.86414141414144 335.15 L 245.86414141414144 347.15 L 233.86414141414144 347.15 Z" fill="#E69F00" fill-opacity="0.85" stroke="none"/><path d="M 205.71767676767678 350.4 L 211.71767676767678 362.4 L 199.71767676767678 362.4 Z" fill="#E69F00" fill-opacity="0.85" stroke="none"/><path d="M 239.86414141414144 335.15 L 245.86414141414144 347.15 L 233.86414141414144 347.15 Z" fill="#E69F00" fill-opacity="0.85" stroke="none"/><path d="M 365.06784511784514 365.65 L 371.06784511784514 377.65 L 359.06784511784514 377.65 Z" fill="#E69F00" fill-opacity="0.85" stroke="none"/><path d="M 484.27154882154883 411.4 L 496.27154882154883 411.4 L 496.27154882154883 423.4 L 484.27154882154883 423.4 Z" fill="#56B4E9" fill-opacity="0.85" stroke="none"/><path d="M 484.27154882154883 487.65 L 496.27154882154883 487.65 L 496.27154882154883 499.65 L 484.27154882154883 499.65 Z" fill="#56B4E9" fill-opacity="0.85" stroke="none"/><path d="M 484.27154882154883 411.4 L 496.27154882154883 411.4 L 496.27154882154883 423.4 L 484.27154882154883 423.4 Z" fill="#56B4E9" fill-opacity="0.85" stroke="none"/><path d="M 529.8001683501684 457.15 L 541.8001683501684 457.15 L 541.8001683501684 469.15 L 529.8001683501684 469.15 Z" fill="#56B4E9" fill-opacity="0.85" stroke="none"/><path d="M 563.946632996633 457.15 L 575.946632996633 457.15 L 575.946632996633 469.15 L 563.946632996633 469.15 Z" fill="#56B4E9" fill-opacity="0.85" stroke="none"/><path d="M 529.8001683501684 319.9 L 541.8001683501684 319.9 L 541.8001683501684 331.9 L 529.8001683501684 331.9 Z" fill="#56B4E9" fill-opacity="0.85" stroke="none"/><path d="M 529.8001683501684 365.65 L 541.8001683501684 365.65 L 541.8001683501684 377.65 L 529.8001683501684 377.65 Z" fill="#56B4E9" fill-opacity="0.85" stroke="none"/><path d="M 586.7109427609428 319.9 L 598.7109427609428 319.9 L 598.7109427609428 331.9 L 586.7109427609428 331.9 Z" fill="#56B4E9" fill-opacity="0.85" stroke="none"/><path d="M 586.7109427609428 335.15 L 598.7109427609428 335.15 L 598.7109427609428 347.15 L 586.7109427609428 347.15 Z" fill="#56B4E9" fill-opacity="0.85" stroke="none"/><path d="M 677.7681818181818 350.4 L 689.7681818181818 350.4 L 689.7681818181818 362.4 L 677.7681818181818 362.4 Z" fill="#56B4E9" fill-opacity="0.85" stroke="none"/><path d="M 490.27154882154883 426.65 L 496.27154882154883 438.65 L 484.27154882154883 438.65 Z" fill="#E69F00" fill-opacity="0.85" stroke="none"/><path d="M 490.27154882154883 502.9 L 496.27154882154883 514.9 L 484.27154882154883 514.9 Z" fill="#E69F00" fill-opacity="0.85" stroke="none"/><path d="M 535.8001683501684 487.65 L 541.8001683501684 499.65 L 529.8001683501684 499.65 Z" fill="#E69F00" fill-opacity="0.85" stroke="none"/><path d="M 626.8574074074074 457.15 L 632.8574074074074 469.15 L 620.8574074074074 469.15 Z" fill="#E69F00" fill-opacity="0.85" stroke="none"/><circle cx="160.18905723905723" cy="310.65" r="6.0" fill="#000000" fill-opacity="0.85" stroke="none"><title>(2.4, 27)</title></circle><circle cx="160.18905723905723" cy="264.90000000000003" r="6.0" fill="#000000" fill-opacity="0.85" stroke="none"><title>(2.4, 30)</title></circle><circle cx="239.86414141414144" cy="325.9" r="6.0" fill="#000000" fill-opacity="0.85" stroke="none"><title>(3.1, 26)</title></circle><circle cx="285.39276094276096" cy="280.15" r="6.0" fill="#000000" fill-opacity="0.85" stroke="none"><title>(3.5, 29)</title></circle><circle cx="296.7749158249158" cy="325.9" r="6.0" fill="#000000" fill-opacity="0.85" stroke="none"><title>(3.6, 26)</title></circle><circle cx="160.18905723905723" cy="356.4" r="6.0" fill="#000000" fill-opacity="0.85" stroke="none"><title>(2.4, 24)</title></circle><circle cx="228.48198653198654" cy="356.4" r="6.0" fill="#000000" fill-opacity="0.85" stroke="none"><title>(3, 24)</title></circle><circle cx="262.62845117845114" cy="386.9" r="6.0" fill="#000000" fill-opacity="0.85" stroke="none"><title>(3.3, 22)</title></circle><circle cx="262.62845117845114" cy="386.9" r="6.0" fill="#000000" fill-opacity="0.85" stroke="none"><title>(3.3, 22)</title></circle><circle cx="262.62845117845114" cy="356.4" r="6.0" fill="#000000" fill-opacity="0.85" stroke="none"><title>(3.3, 24)</title></circle><circle cx="262.62845117845114" cy="356.4" r="6.0" fill="#000000" fill-opacity="0.85" stroke="none"><title>(3.3, 24)</title></circle><circle cx="262.62845117845114" cy="463.15" r="6.0" fill="#000000" fill-opacity="0.85" stroke="none"><title>(3.3, 17)</title></circle><circle cx="319.53922558922557" cy="386.9" r="6.0" fill="#000000" fill-opacity="0.85" stroke="none"><title>(3.8, 22)</title></circle><circle cx="319.53922558922557" cy="402.15" r="6.0" fill="#000000" fill-opacity="0.85" stroke="none"><title>(3.8, 21)</title></circle><circle cx="319.53922558922557" cy="371.65" r="6.0" fill="#000000" fill-opacity="0.85" stroke="none"><title>(3.8, 23)</title></circle><circle cx="342.3035353535353" cy="371.65" r="6.0" fill="#000000" fill-opacity="0.85" stroke="none"><title>(4, 23)</title></circle><path d="M 308.1570707070707 426.65 L 314.1570707070707 438.65 L 302.1570707070707 438.65 Z" fill="#E69F00" fill-opacity="0.85" stroke="none"/><path d="M 308.1570707070707 441.9 L 314.1570707070707 453.9 L 302.1570707070707 453.9 Z" fill="#E69F00" fill-opacity="0.85" stroke="none"/><path d="M 330.9213804713805 457.15 L 336.9213804713805 469.15 L 324.9213804713805 469.15 Z" fill="#E69F00" fill-opacity="0.85" stroke="none"/><path d="M 330.9213804713805 457.15 L 336.9213804713805 469.15 L 324.9213804713805 469.15 Z" fill="#E69F00" fill-opacity="0.85" stroke="none"/><path d="M 421.97861952861956 426.65 L 427.97861952861956 438.65 L 415.97861952861956 438.65 Z" fill="#E69F00" fill-opacity="0.85" stroke="none"/><path d="M 421.97861952861956 426.65 L 427.97861952861956 438.65 L 415.97861952861956 438.65 Z" fill="#E69F00" fill-opacity="0.85" stroke="none"/><path d="M 421.97861952861956 533.4 L 427.97861952861956 545.4 L 415.97861952861956 545.4 Z" fill="#E69F00" fill-opacity="0.85" stroke="none"/><path d="M 478.889393939394 457.15 L 484.889393939394 469.15 L 472.889393939394 469.15 Z" fill="#E69F00" fill-opacity="0.85" stroke="none"/><path d="M 478.889393939394 487.65 L 484.889393939394 499.65 L 472.889393939394 499.65 Z" fill="#E69F00" fill-opacity="0.85" stroke="none"/><path d="M 330.9213804713805 457.15 L 336.9213804713805 469.15 L 324.9213804713805 469.15 Z" fill="#E69F00" fill-opacity="0.85" stroke="none"/><path d="M 421.97861952861956 457.15 L 427.97861952861956 469.15 L 415.97861952861956 469.15 Z" fill="#E69F00" fill-opacity="0.85" stroke="none"/><path d="M 421.97861952861956 533.4 L 427.97861952861956 545.4 L 415.97861952861956 545.4 Z" fill="#E69F00" fill-opacity="0.85" stroke="none"/><path d="M 421.97861952861956 457.15 L 427.97861952861956 469.15 L 415.97861952861956 469.15 Z" fill="#E69F00" fill-opacity="0.85" stroke="none"/><path d="M 478.889393939394 472.4 L 484.889393939394 484.4 L 472.889393939394 484.4 Z" fill="#E69F00" fill-opacity="0.85" stroke="none"/><path d="M 535.8001683501684 441.9 L 541.8001683501684 453.9 L 529.8001683501684 453.9 Z" fill="#E69F00" fill-opacity="0.85" stroke="none"/><path d="M 558.5644781144782 487.65 L 564.5644781144782 499.65 L 552.5644781144782 499.65 Z" fill="#E69F00" fill-opacity="0.85" stroke="none"/><path d="M 421.97861952861956 472.4 L 427.97861952861956 484.4 L 415.97861952861956 484.4 Z" fill="#E69F00" fill-opacity="0.85" stroke="none"/><path d="M 421.97861952861956 533.4 L 427.97861952861956 545.4 L 415.97861952861956 545.4 Z" fill="#E69F00" fill-opacity="0.85" stroke="none"/><path d="M 421.97861952861956 457.15 L 427.97861952861956 469.15 L 415.97861952861956 469.15 Z" fill="#E69F00" fill-opacity="0.85" stroke="none"/><path d="M 421.97861952861956 457.15 L 427.97861952861956 469.15 L 415.97861952861956 469.15 Z" fill="#E69F00" fill-opacity="0.85" stroke="none"/><path d="M 421.97861952861956 472.4 L 427.97861952861956 484.4 L 415.97861952861956 484.4 Z" fill="#E69F00" fill-opacity="0.85" stroke="none"/><path d="M 421.97861952861956 533.4 L 427.97861952861956 545.4 L 415.97861952861956 545.4 Z" fill="#E69F00" fill-opacity="0.85" stroke="none"/><path d="M 478.889393939394 487.65 L 484.889393939394 499.65 L 472.889393939394 499.65 Z" fill="#E69F00" fill-opacity="0.85" stroke="none"/><path d="M 478.889393939394 472.4 L 484.889393939394 484.4 L 472.889393939394 484.4 Z" fill="#E69F00" fill-opacity="0.85" stroke="none"/><path d="M 535.8001683501684 457.15 L 541.8001683501684 469.15 L 529.8001683501684 469.15 Z" fill="#E69F00" fill-opacity="0.85" stroke="none"/><path d="M 558.5644781144782 487.65 L 564.5644781144782 499.65 L 552.5644781144782 499.65 Z" fill="#E69F00" fill-opacity="0.85" stroke="none"/><path d="M 404.59646464646465 457.15 L 416.59646464646465 457.15 L 416.59646464646465 469.15 L 404.59646464646465 469.15 Z" fill="#56B4E9" fill-opacity="0.85" stroke="none"/><path d="M 495.6537037037038 457.15 L 507.6537037037038 457.15 L 507.6537037037038 469.15 L 495.6537037037038 469.15 Z" fill="#56B4E9" fill-opacity="0.85" stroke="none"/><path d="M 495.6537037037038 441.9 L 507.6537037037038 441.9 L 507.6537037037038 453.9 L 495.6537037037038 453.9 Z" fill="#56B4E9" fill-opacity="0.85" stroke="none"/><path d="M 342.3035353535353 457.15 L 348.3035353535353 469.15 L 336.3035353535353 469.15 Z" fill="#E69F00" fill-opacity="0.85" stroke="none"/><path d="M 342.3035353535353 426.65 L 348.3035353535353 438.65 L 336.3035353535353 438.65 Z" fill="#E69F00" fill-opacity="0.85" stroke="none"/><path d="M 342.3035353535353 457.15 L 348.3035353535353 469.15 L 336.3035353535353 469.15 Z" fill="#E69F00" fill-opacity="0.85" stroke="none"/><path d="M 342.3035353535353 426.65 L 348.3035353535353 438.65 L 336.3035353535353 438.65 Z" fill="#E69F00" fill-opacity="0.85" stroke="none"/><path d="M 410.59646464646465 426.65 L 416.59646464646465 438.65 L 404.59646464646465 438.65 Z" fill="#E69F00" fill-opacity="0.85" stroke="none"/><path d="M 456.12508417508417 457.15 L 462.12508417508417 469.15 L 450.12508417508417 469.15 Z" fill="#E69F00" fill-opacity="0.85" stroke="none"/><path d="M 365.06784511784514 457.15 L 371.06784511784514 469.15 L 359.06784511784514 469.15 Z" fill="#E69F00" fill-opacity="0.85" stroke="none"/><path d="M 365.06784511784514 457.15 L 371.06784511784514 469.15 L 359.06784511784514 469.15 Z" fill="#E69F00" fill-opacity="0.85" stroke="none"/><path d="M 410.59646464646465 472.4 L 416.59646464646465 484.4 L 404.59646464646465 484.4 Z" fill="#E69F00" fill-opacity="0.85" stroke="none"/><path d="M 410.59646464646465 472.4 L 416.59646464646465 484.4 L 404.59646464646465 484.4 Z" fill="#E69F00" fill-opacity="0.85" stroke="none"/><path d="M 410.59646464646465 457.15 L 416.59646464646465 469.15 L 404.59646464646465 469.15 Z" fill="#E69F00" fill-opacity="0.85" stroke="none"/><path d="M 501.6537037037038 487.65 L 507.6537037037038 499.65 L 495.6537037037038 499.65 Z" fill="#E69F00" fill-opacity="0.85" stroke="none"/><path d="M 501.6537037037038 457.15 L 507.6537037037038 469.15 L 495.6537037037038 469.15 Z" fill="#E69F00" fill-opacity="0.85" stroke="none"/><path d="M 313.53922558922557 319.9 L 325.53922558922557 319.9 L 325.53922558922557 331.9 L 313.53922558922557 331.9 Z" fill="#56B4E9" fill-opacity="0.85" stroke="none"/><path d="M 313.53922558922557 335.15 L 325.53922558922557 335.15 L 325.53922558922557 347.15 L 313.53922558922557 347.15 Z" fill="#56B4E9" fill-opacity="0.85" stroke="none"/><path d="M 336.3035353535353 319.9 L 348.3035353535353 319.9 L 348.3035353535353 331.9 L 336.3035353535353 331.9 Z" fill="#56B4E9" fill-opacity="0.85" stroke="none"/><path d="M 336.3035353535353 350.4 L 348.3035353535353 350.4 L 348.3035353535353 362.4 L 336.3035353535353 362.4 Z" fill="#56B4E9" fill-opacity="0.85" stroke="none"/><path d="M 404.59646464646465 396.15 L 416.59646464646465 396.15 L 416.59646464646465 408.15 L 404.59646464646465 408.15 Z" fill="#56B4E9" fill-opacity="0.85" stroke="none"/><path d="M 404.59646464646465 380.9 L 416.59646464646465 380.9 L 416.59646464646465 392.9 L 404.59646464646465 392.9 Z" fill="#56B4E9" fill-opacity="0.85" stroke="none"/><path d="M 404.59646464646465 365.65 L 416.59646464646465 365.65 L 416.59646464646465 377.65 L 404.59646464646465 377.65 Z" fill="#56B4E9" fill-opacity="0.85" stroke="none"/><path d="M 404.59646464646465 380.9 L 416.59646464646465 380.9 L 416.59646464646465 392.9 L 404.59646464646465 392.9 Z" fill="#56B4E9" fill-opacity="0.85" stroke="none"/><path d="M 495.6537037037038 411.4 L 507.6537037037038 411.4 L 507.6537037037038 423.4 L 495.6537037037038 423.4 Z" fill="#56B4E9" fill-opacity="0.85" stroke="none"/><circle cx="69.13181818181819" cy="219.14999999999998" r="6.0" fill="#000000" fill-opacity="0.85" stroke="none"><title>(1.6, 33)</title></circle><circle cx="69.13181818181819" cy="234.39999999999998" r="6.0" fill="#000000" fill-opacity="0.85" stroke="none"><title>(1.6, 32)</title></circle><circle cx="69.13181818181819" cy="234.39999999999998" r="6.0" fill="#000000" fill-opacity="0.85" stroke="none"><title>(1.6, 32)</title></circle><circle cx="69.13181818181819" cy="280.15" r="6.0" fill="#000000" fill-opacity="0.85" stroke="none"><title>(1.6, 29)</title></circle><circle cx="69.13181818181819" cy="234.39999999999998" r="6.0" fill="#000000" fill-opacity="0.85" stroke="none"><title>(1.6, 32)</title></circle><circle cx="91.89612794612795" cy="203.90000000000003" r="6.0" fill="#000000" fill-opacity="0.85" stroke="none"><title>(1.8, 34)</title></circle><circle cx="91.89612794612795" cy="173.39999999999998" r="6.0" fill="#000000" fill-opacity="0.85" stroke="none"><title>(1.8, 36)</title></circle><circle cx="91.89612794612795" cy="173.39999999999998" r="6.0" fill="#000000" fill-opacity="0.85" stroke="none"><title>(1.8, 36)</title></circle><circle cx="114.66043771043772" cy="280.15" r="6.0" fill="#000000" fill-opacity="0.85" stroke="none"><title>(2, 29)</title></circle><circle cx="160.18905723905723" cy="325.9" r="6.0" fill="#000000" fill-opacity="0.85" stroke="none"><title>(2.4, 26)</title></circle><circle cx="160.18905723905723" cy="310.65" r="6.0" fill="#000000" fill-opacity="0.85" stroke="none"><title>(2.4, 27)</title></circle><circle cx="160.18905723905723" cy="264.90000000000003" r="6.0" fill="#000000" fill-opacity="0.85" stroke="none"><title>(2.4, 30)</title></circle><circle cx="160.18905723905723" cy="249.64999999999998" r="6.0" fill="#000000" fill-opacity="0.85" stroke="none"><title>(2.4, 31)</title></circle><circle cx="171.5712121212121" cy="325.9" r="6.0" fill="#000000" fill-opacity="0.85" stroke="none"><title>(2.5, 26)</title></circle><circle cx="171.5712121212121" cy="325.9" r="6.0" fill="#000000" fill-opacity="0.85" stroke="none"><title>(2.5, 26)</title></circle><circle cx="262.62845117845114" cy="295.4" r="6.0" fill="#000000" fill-opacity="0.85" stroke="none"><title>(3.3, 28)</title></circle><circle cx="114.66043771043772" cy="325.9" r="6.0" fill="#000000" fill-opacity="0.85" stroke="none"><title>(2, 26)</title></circle><circle cx="114.66043771043772" cy="280.15" r="6.0" fill="#000000" fill-opacity="0.85" stroke="none"><title>(2, 29)</title></circle><circle cx="114.66043771043772" cy="295.4" r="6.0" fill="#000000" fill-opacity="0.85" stroke="none"><title>(2, 28)</title></circle><circle cx="114.66043771043772" cy="310.65" r="6.0" fill="#000000" fill-opacity="0.85" stroke="none"><title>(2, 27)</title></circle><circle cx="194.33552188552193" cy="356.4" r="6.0" fill="#000000" fill-opacity="0.85" stroke="none"><title>(2.7, 24)</title></circle><circle cx="194.33552188552193" cy="356.4" r="6.0" fill="#000000" fill-opacity="0.85" stroke="none"><title>(2.7, 24)</title></circle><circle cx="194.33552188552193" cy="356.4" r="6.0" fill="#000000" fill-opacity="0.85" stroke="none"><title>(2.7, 24)</title></circle><path d="M 228.48198653198654 380.9 L 234.48198653198654 392.9 L 222.48198653198654 392.9 Z" fill="#E69F00" fill-opacity="0.85" stroke="none"/><path d="M 308.1570707070707 426.65 L 314.1570707070707 438.65 L 302.1570707070707 438.65 Z" fill="#E69F00" fill-opacity="0.85" stroke="none"/><path d="M 342.3035353535353 411.4 L 348.3035353535353 423.4 L 336.3035353535353 423.4 Z" fill="#E69F00" fill-opacity="0.85" stroke="none"/><path d="M 421.97861952861956 457.15 L 427.97861952861956 469.15 L 415.97861952861956 469.15 Z" fill="#E69F00" fill-opacity="0.85" stroke="none"/><path d="M 421.97861952861956 533.4 L 427.97861952861956 545.4 L 415.97861952861956 545.4 Z" fill="#E69F00" fill-opacity="0.85" stroke="none"/><path d="M 421.97861952861956 426.65 L 427.97861952861956 438.65 L 415.97861952861956 438.65 Z" fill="#E69F00" fill-opacity="0.85" stroke="none"/><path d="M 535.8001683501684 441.9 L 541.8001683501684 453.9 L 529.8001683501684 453.9 Z" fill="#E69F00" fill-opacity="0.85" stroke="none"/><path d="M 581.3287878787878 502.9 L 587.3287878787878 514.9 L 575.3287878787878 514.9 Z" fill="#E69F00" fill-opacity="0.85" stroke="none"/><path d="M 342.3035353535353 487.65 L 348.3035353535353 499.65 L 336.3035353535353 499.65 Z" fill="#E69F00" fill-opacity="0.85" stroke="none"/><path d="M 365.06784511784514 441.9 L 371.06784511784514 453.9 L 359.06784511784514 453.9 Z" fill="#E69F00" fill-opacity="0.85" stroke="none"/><path d="M 387.83215488215495 441.9 L 393.83215488215495 453.9 L 381.83215488215495 453.9 Z" fill="#E69F00" fill-opacity="0.85" stroke="none"/><path d="M 410.59646464646465 487.65 L 416.59646464646465 499.65 L 404.59646464646465 499.65 Z" fill="#E69F00" fill-opacity="0.85" stroke="none"/><path d="M 495.6537037037038 457.15 L 507.6537037037038 457.15 L 507.6537037037038 469.15 L 495.6537037037038 469.15 Z" fill="#56B4E9" fill-opacity="0.85" stroke="none"/><path d="M 495.6537037037038 472.4 L 507.6537037037038 472.4 L 507.6537037037038 484.4 L 495.6537037037038 484.4 Z" fill="#56B4E9" fill-opacity="0.85" stroke="none"/><path d="M 495.6537037037038 441.9 L 507.6537037037038 441.9 L 507.6537037037038 453.9 L 495.6537037037038 453.9 Z" fill="#56B4E9" fill-opacity="0.85" stroke="none"/><path d="M 342.3035353535353 457.15 L 348.3035353535353 469.15 L 336.3035353535353 469.15 Z" fill="#E69F00" fill-opacity="0.85" stroke="none"/><path d="M 342.3035353535353 426.65 L 348.3035353535353 438.65 L 336.3035353535353 438.65 Z" fill="#E69F00" fill-opacity="0.85" stroke="none"/><path d="M 410.59646464646465 426.65 L 416.59646464646465 438.65 L 404.59646464646465 438.65 Z" fill="#E69F00" fill-opacity="0.85" stroke="none"/><path d="M 456.12508417508417 457.15 L 462.12508417508417 469.15 L 450.12508417508417 469.15 Z" fill="#E69F00" fill-opacity="0.85" stroke="none"/><circle cx="160.18905723905723" cy="280.15" r="6.0" fill="#000000" fill-opacity="0.85" stroke="none"><title>(2.4, 29)</title></circle><circle cx="160.18905723905723" cy="310.65" r="6.0" fill="#000000" fill-opacity="0.85" stroke="none"><title>(2.4, 27)</title></circle><circle cx="171.5712121212121" cy="249.64999999999998" r="6.0" fill="#000000" fill-opacity="0.85" stroke="none"><title>(2.5, 31)</title></circle><circle cx="171.5712121212121" cy="234.39999999999998" r="6.0" fill="#000000" fill-opacity="0.85" stroke="none"><title>(2.5, 32)</title></circle><circle cx="285.39276094276096" cy="310.65" r="6.0" fill="#000000" fill-opacity="0.85" stroke="none"><title>(3.5, 27)</title></circle><circle cx="285.39276094276096" cy="325.9" r="6.0" fill="#000000" fill-opacity="0.85" stroke="none"><title>(3.5, 26)</title></circle><circle cx="228.48198653198654" cy="325.9" r="6.0" fill="#000000" fill-opacity="0.85" stroke="none"><title>(3, 26)</title></circle><circle cx="228.48198653198654" cy="341.15" r="6.0" fill="#000000" fill-opacity="0.85" stroke="none"><title>(3, 25)</title></circle><circle cx="285.39276094276096" cy="341.15" r="6.0" fill="#000000" fill-opacity="0.85" stroke="none"><title>(3.5, 25)</title></circle><path d="M 262.62845117845114 457.15 L 268.62845117845114 469.15 L 256.62845117845114 469.15 Z" fill="#E69F00" fill-opacity="0.85" stroke="none"/><path d="M 262.62845117845114 457.15 L 268.62845117845114 469.15 L 256.62845117845114 469.15 Z" fill="#E69F00" fill-opacity="0.85" stroke="none"/><path d="M 342.3035353535353 411.4 L 348.3035353535353 423.4 L 336.3035353535353 423.4 Z" fill="#E69F00" fill-opacity="0.85" stroke="none"/><path d="M 524.4180134680134 441.9 L 530.4180134680134 453.9 L 518.4180134680134 453.9 Z" fill="#E69F00" fill-opacity="0.85" stroke="none"/><circle cx="239.86414141414144" cy="325.9" r="6.0" fill="#000000" fill-opacity="0.85" stroke="none"><title>(3.1, 26)</title></circle><circle cx="319.53922558922557" cy="325.9" r="6.0" fill="#000000" fill-opacity="0.85" stroke="none"><title>(3.8, 26)</title></circle><circle cx="319.53922558922557" cy="310.65" r="6.0" fill="#000000" fill-opacity="0.85" stroke="none"><title>(3.8, 27)</title></circle><circle cx="319.53922558922557" cy="295.4" r="6.0" fill="#000000" fill-opacity="0.85" stroke="none"><title>(3.8, 28)</title></circle><circle cx="490.27154882154883" cy="341.15" r="6.0" fill="#000000" fill-opacity="0.85" stroke="none"><title>(5.3, 25)</title></circle><path d="M 171.5712121212121 335.15 L 177.5712121212121 347.15 L 165.5712121212121 347.15 Z" fill="#E69F00" fill-opacity="0.85" stroke="none"/><path d="M 171.5712121212121 350.4 L 177.5712121212121 362.4 L 165.5712121212121 362.4 Z" fill="#E69F00" fill-opacity="0.85" stroke="none"/><path d="M 171.5712121212121 304.65 L 177.5712121212121 316.65 L 165.5712121212121 316.65 Z" fill="#E69F00" fill-opacity="0.85" stroke="none"/><path d="M 171.5712121212121 335.15 L 177.5712121212121 347.15 L 165.5712121212121 347.15 Z" fill="#E69F00" fill-opacity="0.85" stroke="none"/><path d="M 171.5712121212121 319.9 L 177.5712121212121 331.9 L 165.5712121212121 331.9 Z" fill="#E69F00" fill-opacity="0.85" stroke="none"/><path d="M 171.5712121212121 365.65 L 177.5712121212121 377.65 L 165.5712121212121 377.65 Z" fill="#E69F00" fill-opacity="0.85" stroke="none"/><path d="M 137.4247474747475 319.9 L 143.4247474747475 331.9 L 131.4247474747475 331.9 Z" fill="#E69F00" fill-opacity="0.85" stroke="none"/><path d="M 137.4247474747475 319.9 L 143.4247474747475 331.9 L 131.4247474747475 331.9 Z" fill="#E69F00" fill-opacity="0.85" stroke="none"/><path d="M 171.5712121212121 319.9 L 177.5712121212121 331.9 L 165.5712121212121 331.9 Z" fill="#E69F00" fill-opacity="0.85" stroke="none"/><path d="M 171.5712121212121 319.9 L 177.5712121212121 331.9 L 165.5712121212121 331.9 Z" fill="#E69F00" fill-opacity="0.85" stroke="none"/><path d="M 171.5712121212121 335.15 L 177.5712121212121 347.15 L 165.5712121212121 347.15 Z" fill="#E69F00" fill-opacity="0.85" stroke="none"/><path d="M 171.5712121212121 304.65 L 177.5712121212121 316.65 L 165.5712121212121 316.65 Z" fill="#E69F00" fill-opacity="0.85" stroke="none"/><path d="M 171.5712121212121 335.15 L 177.5712121212121 347.15 L 165.5712121212121 347.15 Z" fill="#E69F00" fill-opacity="0.85" stroke="none"/><path d="M 171.5712121212121 304.65 L 177.5712121212121 316.65 L 165.5712121212121 316.65 Z" fill="#E69F00" fill-opacity="0.85" stroke="none"/><path d="M 194.33552188552193 411.4 L 200.33552188552193 423.4 L 188.33552188552193 423.4 Z" fill="#E69F00" fill-opacity="0.85" stroke="none"/><path d="M 194.33552188552193 411.4 L 200.33552188552193 423.4 L 188.33552188552193 423.4 Z" fill="#E69F00" fill-opacity="0.85" stroke="none"/><path d="M 274.01060606060605 426.65 L 280.01060606060605 438.65 L 268.01060606060605 438.65 Z" fill="#E69F00" fill-opacity="0.85" stroke="none"/><path d="M 274.01060606060605 457.15 L 280.01060606060605 469.15 L 268.01060606060605 469.15 Z" fill="#E69F00" fill-opacity="0.85" stroke="none"/><path d="M 342.3035353535353 411.4 L 348.3035353535353 423.4 L 336.3035353535353 423.4 Z" fill="#E69F00" fill-opacity="0.85" stroke="none"/><path d="M 421.97861952861956 457.15 L 427.97861952861956 469.15 L 415.97861952861956 469.15 Z" fill="#E69F00" fill-opacity="0.85" stroke="none"/><circle cx="137.4247474747475" cy="280.15" r="6.0" fill="#000000" fill-opacity="0.85" stroke="none"><title>(2.2, 29)</title></circle><circle cx="137.4247474747475" cy="310.65" r="6.0" fill="#000000" fill-opacity="0.85" stroke="none"><title>(2.2, 27)</title></circle><circle cx="160.18905723905723" cy="249.64999999999998" r="6.0" fill="#000000" fill-opacity="0.85" stroke="none"><title>(2.4, 31)</title></circle><circle cx="160.18905723905723" cy="249.64999999999998" r="6.0" fill="#000000" fill-opacity="0.85" stroke="none"><title>(2.4, 31)</title></circle><circle cx="228.48198653198654" cy="325.9" r="6.0" fill="#000000" fill-opacity="0.85" stroke="none"><title>(3, 26)</title></circle><circle cx="228.48198653198654" cy="325.9" r="6.0" fill="#000000" fill-opacity="0.85" stroke="none"><title>(3, 26)</title></circle><circle cx="285.39276094276096" cy="295.4" r="6.0" fill="#000000" fill-opacity="0.85" stroke="none"><title>(3.5, 28)</title></circle><circle cx="137.4247474747475" cy="310.65" r="6.0" fill="#000000" fill-opacity="0.85" stroke="none"><title>(2.2, 27)</title></circle><circle cx="137.4247474747475" cy="280.15" r="6.0" fill="#000000" fill-opacity="0.85" stroke="none"><title>(2.2, 29)</title></circle><circle cx="160.18905723905723" cy="249.64999999999998" r="6.0" fill="#000000" fill-opacity="0.85" stroke="none"><title>(2.4, 31)</title></circle><circle cx="160.18905723905723" cy="249.64999999999998" r="6.0" fill="#000000" fill-opacity="0.85" stroke="none"><title>(2.4, 31)</title></circle><circle cx="228.48198653198654" cy="325.9" r="6.0" fill="#000000" fill-opacity="0.85" stroke="none"><title>(3, 26)</title></circle><circle cx="228.48198653198654" cy="325.9" r="6.0" fill="#000000" fill-opacity="0.85" stroke="none"><title>(3, 26)</title></circle><circle cx="262.62845117845114" cy="310.65" r="6.0" fill="#000000" fill-opacity="0.85" stroke="none"><title>(3.3, 27)</title></circle><circle cx="91.89612794612795" cy="264.90000000000003" r="6.0" fill="#000000" fill-opacity="0.85" stroke="none"><title>(1.8, 30)</title></circle><circle cx="91.89612794612795" cy="219.14999999999998" r="6.0" fill="#000000" fill-opacity="0.85" stroke="none"><title>(1.8, 33)</title></circle><circle cx="91.89612794612795" cy="188.64999999999998" r="6.0" fill="#000000" fill-opacity="0.85" stroke="none"><title>(1.8, 35)</title></circle><circle cx="91.89612794612795" cy="158.15000000000003" r="6.0" fill="#000000" fill-opacity="0.85" stroke="none"><title>(1.8, 37)</title></circle><circle cx="91.89612794612795" cy="188.64999999999998" r="6.0" fill="#000000" fill-opacity="0.85" stroke="none"><title>(1.8, 35)</title></circle><path d="M 421.97861952861956 487.65 L 427.97861952861956 499.65 L 415.97861952861956 499.65 Z" fill="#E69F00" fill-opacity="0.85" stroke="none"/><path d="M 535.8001683501684 441.9 L 541.8001683501684 453.9 L 529.8001683501684 453.9 Z" fill="#E69F00" fill-opacity="0.85" stroke="none"/><path d="M 194.33552188552193 411.4 L 200.33552188552193 423.4 L 188.33552188552193 423.4 Z" fill="#E69F00" fill-opacity="0.85" stroke="none"/><path d="M 194.33552188552193 411.4 L 200.33552188552193 423.4 L 188.33552188552193 423.4 Z" fill="#E69F00" fill-opacity="0.85" stroke="none"/><path d="M 194.33552188552193 380.9 L 200.33552188552193 392.9 L 188.33552188552193 392.9 Z" fill="#E69F00" fill-opacity="0.85" stroke="none"/><path d="M 274.01060606060605 457.15 L 280.01060606060605 469.15 L 268.01060606060605 469.15 Z" fill="#E69F00" fill-opacity="0.85" stroke="none"/><path d="M 274.01060606060605 426.65 L 280.01060606060605 438.65 L 268.01060606060605 438.65 Z" fill="#E69F00" fill-opacity="0.85" stroke="none"/><path d="M 342.3035353535353 441.9 L 348.3035353535353 453.9 L 336.3035353535353 453.9 Z" fill="#E69F00" fill-opacity="0.85" stroke="none"/><path d="M 342.3035353535353 411.4 L 348.3035353535353 423.4 L 336.3035353535353 423.4 Z" fill="#E69F00" fill-opacity="0.85" stroke="none"/><circle cx="114.66043771043772" cy="280.15" r="6.0" fill="#000000" fill-opacity="0.85" stroke="none"><title>(2, 29)</title></circle><circle cx="114.66043771043772" cy="325.9" r="6.0" fill="#000000" fill-opacity="0.85" stroke="none"><title>(2, 26)</title></circle><circle cx="114.66043771043772" cy="280.15" r="6.0" fill="#000000" fill-opacity="0.85" stroke="none"><title>(2, 29)</title></circle><circle cx="114.66043771043772" cy="280.15" r="6.0" fill="#000000" fill-opacity="0.85" stroke="none"><title>(2, 29)</title></circle><circle cx="205.71767676767678" cy="356.4" r="6.0" fill="#000000" fill-opacity="0.85" stroke="none"><title>(2.8, 24)</title></circle><circle cx="103.27828282828281" cy="51.40000000000009" r="6.0" fill="#000000" fill-opacity="0.85" stroke="none"><title>(1.9, 44)</title></circle><circle cx="114.66043771043772" cy="280.15" r="6.0" fill="#000000" fill-opacity="0.85" stroke="none"><title>(2, 29)</title></circle><circle cx="114.66043771043772" cy="325.9" r="6.0" fill="#000000" fill-opacity="0.85" stroke="none"><title>(2, 26)</title></circle><circle cx="114.66043771043772" cy="280.15" r="6.0" fill="#000000" fill-opacity="0.85" stroke="none"><title>(2, 29)</title></circle><circle cx="114.66043771043772" cy="280.15" r="6.0" fill="#000000" fill-opacity="0.85" stroke="none"><title>(2, 29)</title></circle><circle cx="171.5712121212121" cy="280.15" r="6.0" fill="#000000" fill-opacity="0.85" stroke="none"><title>(2.5, 29)</title></circle><circle cx="171.5712121212121" cy="280.15" r="6.0" fill="#000000" fill-opacity="0.85" stroke="none"><title>(2.5, 29)</title></circle><circle cx="205.71767676767678" cy="371.65" r="6.0" fill="#000000" fill-opacity="0.85" stroke="none"><title>(2.8, 23)</title></circle><circle cx="205.71767676767678" cy="356.4" r="6.0" fill="#000000" fill-opacity="0.85" stroke="none"><title>(2.8, 24)</title></circle><circle cx="103.27828282828281" cy="51.40000000000009" r="6.0" fill="#000000" fill-opacity="0.85" stroke="none"><title>(1.9, 44)</title></circle><circle cx="103.27828282828281" cy="97.15000000000003" r="6.0" fill="#000000" fill-opacity="0.85" stroke="none"><title>(1.9, 41)</title></circle><circle cx="114.66043771043772" cy="280.15" r="6.0" fill="#000000" fill-opacity="0.85" stroke="none"><title>(2, 29)</title></circle><circle cx="114.66043771043772" cy="325.9" r="6.0" fill="#000000" fill-opacity="0.85" stroke="none"><title>(2, 26)</title></circle><circle cx="171.5712121212121" cy="295.4" r="6.0" fill="#000000" fill-opacity="0.85" stroke="none"><title>(2.5, 28)</title></circle><circle cx="171.5712121212121" cy="280.15" r="6.0" fill="#000000" fill-opacity="0.85" stroke="none"><title>(2.5, 29)</title></circle><circle cx="91.89612794612795" cy="280.15" r="6.0" fill="#000000" fill-opacity="0.85" stroke="none"><title>(1.8, 29)</title></circle><circle cx="91.89612794612795" cy="280.15" r="6.0" fill="#000000" fill-opacity="0.85" stroke="none"><title>(1.8, 29)</title></circle><circle cx="114.66043771043772" cy="295.4" r="6.0" fill="#000000" fill-opacity="0.85" stroke="none"><title>(2, 28)</title></circle><circle cx="114.66043771043772" cy="280.15" r="6.0" fill="#000000" fill-opacity="0.85" stroke="none"><title>(2, 29)</title></circle><circle cx="205.71767676767678" cy="325.9" r="6.0" fill="#000000" fill-opacity="0.85" stroke="none"><title>(2.8, 26)</title></circle><circle cx="205.71767676767678" cy="325.9" r="6.0" fill="#000000" fill-opacity="0.85" stroke="none"><title>(2.8, 26)</title></circle><circle cx="296.7749158249158" cy="325.9" r="6.0" fill="#000000" fill-opacity="0.85" stroke="none"><title>(3.6, 26)</title></circle><circle cx="729.5" cy="45.0" r="5.0" fill="#000000" fill-opacity="1.0" stroke="#000000" stroke-width="1.0"/><text x="738.5" y="49.0" fill="#333333" font-size="10.0" font-family="sans-serif" text-anchor="start">f</text><circle cx="729.5" cy="61.0" r="5.0" fill="#E69F00" fill-opacity="1.0" stroke="#E69F00" stroke-width="1.0"/><text x="738.5" y="65.0" fill="#333333" font-size="10.0" font-family="sans-serif" text-anchor="start">4</text><circle cx="729.5" cy="77.0" r="5.0" fill="#56B4E9" fill-opacity="1.0" stroke="#56B4E9" stroke-width="1.0"/><text x="738.5" y="81.0" fill="#333333" font-size="10.0" font-family="sans-serif" text-anchor="start">r</text></svg>