<svg xmlns="http://www.w3.org/2000/svg" width="800" height="600" viewBox="0 0 800 600"><rect x="0.0" y="0.0" width="800.0" height="600.0" fill="#ffffff" fill-opacity="1.0" stroke="none"/><line x1="180.16875" y1="27.0" x2="180.16875" y2="563.8" stroke="#dddddd" stroke-width="1.0"/><line x1="416.45" y1="27.0" x2="416.45" y2="563.8" stroke="#dddddd" stroke-width="1.0"/><line x1="652.73125" y1="27.0" x2="652.73125" y2="563.8" stroke="#dddddd" stroke-width="1.0"/><line x1="38.4" y1="527.7809523809523" x2="794.5" y2="527.7809523809523" stroke="#dddddd" stroke-width="0.5"/><line x1="38.4" y1="411.5904761904761" x2="794.5" y2="411.5904761904761" stroke="#dddddd" stroke-width="0.5"/><line x1="38.4" y1="295.3999999999999" x2="794.5" y2="295.3999999999999" stroke="#dddddd" stroke-width="0.5"/><line x1="38.4" y1="179.20952380952372" x2="794.5" y2="179.20952380952372" stroke="#dddddd" stroke-width="0.5"/><line x1="38.4" y1="63.01904761904757" x2="794.5" y2="63.01904761904757" stroke="#dddddd" stroke-width="0.5"/><line x1="38.4" y1="469.6857142857142" x2="794.5" y2="469.6857142857142" stroke="#dddddd" stroke-width="1.0"/><line x1="38.4" y1="353.49523809523805" x2="794.5" y2="353.49523809523805" stroke="#dddddd" stroke-width="1.0"/><line x1="38.4" y1="237.30476190476185" x2="794.5" y2="237.30476190476185" stroke="#dddddd" stroke-width="1.0"/><line x1="38.4" y1="121.11428571428564" x2="794.5" y2="121.11428571428564" stroke="#dddddd" stroke-width="1.0"/><rect x="38.4" y="27.0" width="756.1" height="536.8" fill="#ffffff" fill-opacity="0.0" stroke="#444444" stroke-width="1.0"/><line x1="180.16875" y1="563.8" x2="180.16875" y2="566.55" stroke="#444444" stroke-width="1.0"/><text x="180.16875" y="577.55" fill="#333333" font-size="11.0" font-family="sans-serif" text-anchor="middle">f</text><line x1="416.45" y1="563.8" x2="416.45" y2="566.55" stroke="#444444" stroke-width="1.0"/><text x="416.45" y="577.55" fill="#333333" font-size="11.0" font-family="sans-serif" text-anchor="middle">4</text><line x1="652.73125" y1="563.8" x2="652.73125" y2="566.55" stroke="#444444" stroke-width="1.0"/><text x="652.73125" y="577.55" fill="#333333" font-size="11.0" font-family="sans-serif" text-anchor="middle">r</text><line x1="38.4" y1="469.6857142857142" x2="35.65" y2="469.6857142857142" stroke="#444444" stroke-width="1.0"/><text x="33.449999999999996" y="473.5357142857142" fill="#333333" font-size="11.0" font-family="sans-serif" text-anchor="end">15</text><line x1="38.4" y1="353.49523809523805" x2="35.65" y2="353.49523809523805" stroke="#444444" stroke-width="1.0"/><text x="33.449999999999996" y="357.3452380952381" fill="#333333" font-size="11.0" font-family="sans-serif" text-anchor="end">20</text><line x1="38.4" y1="237.30476190476185" x2="35.65" y2="237.30476190476185" stroke="#444444" stroke-width="1.0"/><text x="33.449999999999996" y="241.15476190476184" fill="#333333" font-size="11.0" font-family="sans-serif" text-anchor="end">25</text><line x1="38.4" y1="121.11428571428564" x2="35.65" y2="121.11428571428564" stroke="#444444" stroke-width="1.0"/><text x="33.449999999999996" y="124.96428571428564" fill="#333333" font-size="11.0" font-family="sans-serif" text-anchor="end">30</text><text x="416.45" y="18.3" fill="#333333" font-size="16.0" font-family="sans-serif" text-anchor="middle">geom_boxplot(drv, hwy)</text><text x="416.45" y="592.1" fill="#333333" font-size="12.0" font-family="sans-serif" text-anchor="middle">drv</text><text x="13.899999999999999" y="295.4" fill="#333333" font-size="12.0" font-family="sans-serif" text-anchor="middle" transform="rotate(-90.0 13.899999999999999 295.4)">hwy</text><rect x="121.09843749999999" y="260.54285714285703" width="118.140625" height="162.66666666666669" fill="#1f77b4" fill-opacity="0.4" stroke="#1f77b4" stroke-width="1.0"/><line x1="121.09843749999999" y1="330.25714285714275" x2="239.2390625" y2="330.25714285714275" stroke="#1f77b4" stroke-width="2.0"/><line x1="180.16875" y1="423.2095238095237" x2="180.16875" y2="469.6857142857142" stroke="#1f77b4" stroke-width="1.0"/><line x1="180.16875" y1="260.54285714285703" x2="180.16875" y2="214.0666666666666" stroke="#1f77b4" stroke-width="1.0"/><line x1="150.63359375" y1="469.6857142857142" x2="209.70390625" y2="469.6857142857142" stroke="#1f77b4" stroke-width="1.0"/><line x1="150.63359375" y1="214.0666666666666" x2="209.70390625" y2="214.0666666666666" stroke="#1f77b4" stroke-width="1.0"/><rect x="357.3796875" y="307.01904761904757" width="118.140625" height="116.19047619047615" fill="#1f77b4" fill-opacity="0.4" stroke="#1f77b4" stroke-width="1.0"/><line x1="357.3796875" y1="399.97142857142853" x2="475.5203125" y2="399.97142857142853" stroke="#1f77b4" stroke-width="2.0"/><line x1="416.45" y1="423.2095238095237" x2="416.45" y2="539.4" stroke="#1f77b4" stroke-width="1.0"/><line x1="416.45" y1="307.01904761904757" x2="416.45" y2="167.59047619047612" stroke="#1f77b4" stroke-width="1.0"/><line x1="386.91484375" y1="539.4" x2="445.98515625" y2="539.4" stroke="#1f77b4" stroke-width="1.0"/><line x1="386.91484375" y1="167.59047619047612" x2="445.98515625" y2="167.59047619047612" stroke="#1f77b4" stroke-width="1.0"/><rect x="593.6609375" y="144.35238095238088" width="118.140625" height="69.71428571428572" fill="#1f77b4" fill-opacity="0.4" stroke="#1f77b4" stroke-width="1.0"/><line x1="593.6609375" y1="167.59047619047612" x2="711.8015625" y2="167.59047619047612" stroke="#1f77b4" stroke-width="2.0"/><line x1="652.73125" y1="214.0666666666666" x2="652.73125" y2="307.01904761904757" stroke="#1f77b4" stroke-width="1.0"/><line x1="652.73125" y1="144.35238095238088" x2="652.73125" y2="51.399999999999864" stroke="#1f77b4" stroke-width="1.0"/><line x1="623.19609375" y1="307.01904761904757" x2="682.26640625" y2="307.01904761904757" stroke="#1f77b4" stroke-width="1.0"/><line x1="623.19609375" y1="51.399999999999864" x2="682.26640625" y2="51.399999999999864" stroke="#1f77b4" stroke-width="1.0"/></svg>