<svg xmlns="http://www.w3.org/2000/svg" width="800" height="600" viewBox="0 0 800 600"><rect x="0.0" y="0.0" width="800.0" height="600.0" fill="#ffffff" fill-opacity="1.0" stroke="none"/><line x1="175.89374999999995" y1="27.0" x2="175.89374999999995" y2="563.8" stroke="#dddddd" stroke-width="1.0"/><line x1="383.04999999999995" y1="27.0" x2="383.04999999999995" y2="563.8" stroke="#dddddd" stroke-width="1.0"/><line x1="590.20625" y1="27.0" x2="590.20625" y2="563.8" stroke="#dddddd" stroke-width="1.0"/><line x1="51.599999999999994" y1="499.895238095238" x2="714.5" y2="499.895238095238" stroke="#dddddd" stroke-width="0.5"/><line x1="51.599999999999994" y1="372.0857142857143" x2="714.5" y2="372.0857142857143" stroke="#dddddd" stroke-width="0.5"/><line x1="51.599999999999994" y1="244.27619047619044" x2="714.5" y2="244.27619047619044" stroke="#dddddd" stroke-width="0.5"/><line x1="51.599999999999994" y1="116.4666666666667" x2="714.5" y2="116.4666666666667" stroke="#dddddd" stroke-width="0.5"/><line x1="51.599999999999994" y1="563.8" x2="714.5" y2="563.8" stroke="#dddddd" stroke-width="1.0"/><line x1="51.599999999999994" y1="435.99047619047616" x2="714.5" y2="435.99047619047616" stroke="#dddddd" stroke-width="1.0"/><line x1="51.599999999999994" y1="308.18095238095236" x2="714.5" y2="308.18095238095236" stroke="#dddddd" stroke-width="1.0"/><line x1="51.599999999999994" y1="180.37142857142857" x2="714.5" y2="180.37142857142857" stroke="#dddddd" stroke-width="1.0"/><line x1="51.599999999999994" y1="52.56190476190477" x2="714.5" y2="52.56190476190477" stroke="#dddddd" stroke-width="1.0"/><rect x="51.599999999999994" y="27.0" width="662.9" height="536.8" fill="#ffffff" fill-opacity="0.0" stroke="#444444" stroke-width="1.0"/><line x1="175.89374999999995" y1="563.8" x2="175.89374999999995" y2="566.55" stroke="#444444" stroke-width="1.0"/><text x="175.89374999999995" y="577.55" fill="#333333" font-size="11.0" font-family="sans-serif" text-anchor="middle">4</text><line x1="383.04999999999995" y1="563.8" x2="383.04999999999995" y2="566.55" stroke="#444444" stroke-width="1.0"/><text x="383.04999999999995" y="577.55" fill="#333333" font-size="11.0" font-family="sans-serif" text-anchor="middle">r</text><line x1="590.20625" y1="563.8" x2="590.20625" y2="566.55" stroke="#444444" stroke-width="1.0"/><text x="590.20625" y="577.55" fill="#333333" font-size="11.0" font-family="sans-serif" text-anchor="middle">f</text><line x1="51.599999999999994" y1="563.8" x2="48.849999999999994" y2="563.8" stroke="#444444" stroke-width="1.0"/><text x="46.64999999999999" y="567.65" fill="#333333" font-size="11.0" font-family="sans-serif" text-anchor="end">0</text><line x1="51.599999999999994" y1="435.99047619047616" x2="48.849999999999994" y2="435.99047619047616" stroke="#444444" stroke-width="1.0"/><text x="46.64999999999999" y="439.8404761904762" fill="#333333" font-size="11.0" font-family="sans-serif" text-anchor="end">0.25</text><line x1="51.599999999999994" y1="308.18095238095236" x2="48.849999999999994" y2="308.18095238095236" stroke="#444444" stroke-width="1.0"/><text x="46.64999999999999" y="312.0309523809524" fill="#333333" font-size="11.0" font-family="sans-serif" text-anchor="end">0.5</text><line x1="51.599999999999994" y1="180.37142857142857" x2="48.849999999999994" y2="180.37142857142857" stroke="#444444" stroke-width="1.0"/><text x="46.64999999999999" y="184.22142857142856" fill="#333333" font-size="11.0" font-family="sans-serif" text-anchor="end">0.75</text><line x1="51.599999999999994" y1="52.56190476190477" x2="48.849999999999994" y2="52.56190476190477" stroke="#444444" stroke-width="1.0"/><text x="46.64999999999999" y="56.41190476190477" fill="#333333" font-size="11.0" font-family="sans-serif" text-anchor="end">1</text><text x="383.04999999999995" y="18.3" fill="#333333" font-size="16.0" font-family="sans-serif" text-anchor="middle">position = fill</text><text x="383.04999999999995" y="592.1" fill="#333333" font-size="12.0" font-family="sans-serif" text-anchor="middle">drv</text><text x="13.899999999999999" y="295.4" fill="#333333" font-size="12.0" font-family="sans-serif" text-anchor="middle" transform="rotate(-90.0 13.899999999999999 295.4)">proportion</text><rect x="82.67343749999995" y="504.23828016643546" width="186.440625" height="59.561719833564496" fill="#000000" fill-opacity="0.85" stroke="none"/><rect x="82.67343749999995" y="251.10097087378642" width="186.440625" height="253.13730929264904" fill="#E69F00" fill-opacity="0.85" stroke="none"/><rect x="82.67343749999995" y="231.24706426259831" width="186.440625" height="19.85390661118811" fill="#56B4E9" fill-opacity="0.85" stroke="none"/><rect x="82.67343749999995" y="216.3566343042072" width="186.440625" height="14.89042995839111" fill="#009E73" fill-opacity="0.85" stroke="none"/><rect x="82.67343749999995" y="52.56190476190477" width="186.440625" height="163.79472954230243" fill="#F0E442" fill-opacity="0.85" stroke="none"/><rect x="289.8296875" y="338.85523809523806" width="186.440625" height="224.9447619047619" fill="#E69F00" fill-opacity="0.85" stroke="none"/><rect x="289.8296875" y="154.8095238095238" width="186.440625" height="184.04571428571427" fill="#56B4E9" fill-opacity="0.85" stroke="none"/><rect x="289.8296875" y="52.56190476190477" width="186.440625" height="102.24761904761903" fill="#D55E00" fill-opacity="0.85" stroke="none"/><rect x="496.9859375" y="394.9949685534591" width="186.440625" height="168.80503144654085" fill="#000000" fill-opacity="0.85" stroke="none"/><rect x="496.9859375" y="288.888948787062" width="186.440625" height="106.10601976639708" fill="#56B4E9" fill-opacity="0.85" stroke="none"/><rect x="496.9859375" y="105.6149146451034" width="186.440625" height="183.27403414195862" fill="#009E73" fill-opacity="0.85" stroke="none"/><rect x="496.9859375" y="52.56190476190483" width="186.440625" height="53.05300988319857" fill="#0072B2" fill-opacity="0.85" stroke="none"/><rect x="724.5" y="40.0" width="10.0" height="10.0" fill="#000000" fill-opacity="1.0" stroke="#444444" stroke-width="0.5"/><text x="738.5" y="49.0" fill="#333333" font-size="10.0" font-family="sans-serif" text-anchor="start">compact</text><rect x="724.5" y="56.0" width="10.0" height="10.0" fill="#E69F00" fill-opacity="1.0" stroke="#444444" stroke-width="0.5"/><text x="738.5" y="65.0" fill="#333333" font-size="10.0" font-family="sans-serif" text-anchor="start">suv</text><rect x="724.5" y="72.0" width="10.0" height="10.0" fill="#56B4E9" fill-opacity="1.0" stroke="#444444" stroke-width="0.5"/><text x="738.5" y="81.0" fill="#333333" font-size="10.0" font-family="sans-serif" text-anchor="start">subcompact</text><rect x="724.5" y="88.0" width="10.0" height="10.0" fill="#009E73" fill-opacity="1.0" stroke="#444444" stroke-width="0.5"/><text x="738.5" y="97.0" fill="#333333" font-size="10.0" font-family="sans-serif" text-anchor="start">midsize</text><rect x="724.5" y="104.0" width="10.0" height="10.0" fill="#F0E442" fill-opacity="1.0" stroke="#444444" stroke-width="0.5"/><text x="738.5" y="113.0" fill="#333333" font-size="10.0" font-family="sans-serif" text-anchor="start">pickup</text><rect x="724.5" y="120.0" width="10.0" height="10.0" fill="#0072B2" fill-opacity="1.0" stroke="#444444" stroke-width="0.5"/><text x="738.5" y="129.0" fill="#333333" font-size="10.0" font-family="sans-serif" text-anchor="start">minivan</text><rect x="724.5" y="136.0" width="10.0" height="10.0" fill="#D55E00" fill-opacity="1.0" stroke="#444444" stroke-width="0.5"/><text x="738.5" y="145.0" fill="#333333" font-size="10.0" font-family="sans-serif" text-anchor="start">2seater</text></svg>