<svg xmlns="http://www.w3.org/2000/svg" width="800" height="600" viewBox="0 0 800 600"><rect x="0.0" y="0.0" width="800.0" height="600.0" fill="#ffffff" fill-opacity="1.0" stroke="none"/><line x1="137.2085227272727" y1="27.0" x2="137.2085227272727" y2="563.8" stroke="#dddddd" stroke-width="0.5"/><line x1="352.00965909090905" y1="27.0" x2="352.00965909090905" y2="563.8" stroke="#dddddd" stroke-width="0.5"/><line x1="566.8107954545454" y1="27.0" x2="566.8107954545454" y2="563.8" stroke="#dddddd" stroke-width="0.5"/><line x1="781.6119318181818" y1="27.0" x2="781.6119318181818" y2="563.8" stroke="#dddddd" stroke-width="0.5"/><line x1="244.6090909090909" y1="27.0" x2="244.6090909090909" y2="563.8" stroke="#dddddd" stroke-width="1.0"/><line x1="459.41022727272724" y1="27.0" x2="459.41022727272724" y2="563.8" stroke="#dddddd" stroke-width="1.0"/><line x1="674.2113636363636" y1="27.0" x2="674.2113636363636" y2="563.8" stroke="#dddddd" stroke-width="1.0"/><line x1="38.4" y1="509.41296859169194" x2="794.5" y2="509.41296859169194" stroke="#dddddd" stroke-width="0.5"/><line x1="38.4" y1="400.63890577507595" x2="794.5" y2="400.63890577507595" stroke="#dddddd" stroke-width="0.5"/><line x1="38.4" y1="291.8648429584599" x2="794.5" y2="291.8648429584599" stroke="#dddddd" stroke-width="0.5"/><line x1="38.4" y1="183.09078014184394" x2="794.5" y2="183.09078014184394" stroke="#dddddd" stroke-width="0.5"/><line x1="38.4" y1="74.31671732522796" x2="794.5" y2="74.31671732522796" stroke="#dddddd" stroke-width="0.5"/><line x1="38.4" y1="563.8" x2="794.5" y2="563.8" stroke="#dddddd" stroke-width="1.0"/><line x1="38.4" y1="455.025937183384" x2="794.5" y2="455.025937183384" stroke="#dddddd" stroke-width="1.0"/><line x1="38.4" y1="346.251874366768" x2="794.5" y2="346.251874366768" stroke="#dddddd" stroke-width="1.0"/><line x1="38.4" y1="237.47781155015196" x2="794.5" y2="237.47781155015196" stroke="#dddddd" stroke-width="1.0"/><line x1="38.4" y1="128.70374873353597" x2="794.5" y2="128.70374873353597" stroke="#dddddd" stroke-width="1.0"/><rect x="38.4" y="27.0" width="756.1" height="536.8" fill="#ffffff" fill-opacity="0.0" stroke="#444444" stroke-width="1.0"/><line x1="244.6090909090909" y1="563.8" x2="244.6090909090909" y2="566.55" stroke="#444444" stroke-width="1.0"/><text x="244.6090909090909" y="577.55" fill="#333333" font-size="11.0" font-family="sans-serif" text-anchor="middle">20</text><line x1="459.41022727272724" y1="563.8" x2="459.41022727272724" y2="566.55" stroke="#444444" stroke-width="1.0"/><text x="459.41022727272724" y="577.55" fill="#333333" font-size="11.0" font-family="sans-serif" text-anchor="middle">30</text><line x1="674.2113636363636" y1="563.8" x2="674.2113636363636" y2="566.55" stroke="#444444" stroke-width="1.0"/><text x="674.2113636363636" y="577.55" fill="#333333" font-size="11.0" font-family="sans-serif" text-anchor="middle">40</text><line x1="38.4" y1="563.8" x2="35.65" y2="563.8" stroke="#444444" stroke-width="1.0"/><text x="33.449999999999996" y="567.65" fill="#333333" font-size="11.0" font-family="sans-serif" text-anchor="end">0</text><line x1="38.4" y1="455.025937183384" x2="35.65" y2="455.025937183384" stroke="#444444" stroke-width="1.0"/><text x="33.449999999999996" y="458.875937183384" fill="#333333" font-size="11.0" font-family="sans-serif" text-anchor="end">10</text><line x1="38.4" y1="346.251874366768" x2="35.65" y2="346.251874366768" stroke="#444444" stroke-width="1.0"/><text x="33.449999999999996" y="350.101874366768" fill="#333333" font-size="11.0" font-family="sans-serif" text-anchor="end">20</text><line x1="38.4" y1="237.47781155015196" x2="35.65" y2="237.47781155015196" stroke="#444444" stroke-width="1.0"/><text x="33.449999999999996" y="241.32781155015195" fill="#333333" font-size="11.0" font-family="sans-serif" text-anchor="end">30</text><line x1="38.4" y1="128.70374873353597" x2="35.65" y2="128.70374873353597" stroke="#444444" stroke-width="1.0"/><text x="33.449999999999996" y="132.55374873353597" fill="#333333" font-size="11.0" font-family="sans-serif" text-anchor="end">40</text><text x="416.45" y="18.3" fill="#333333" font-size="16.0" font-family="sans-serif" text-anchor="middle">geom_histogram(hwy)</text><text x="416.45" y="592.1" fill="#333333" font-size="12.0" font-family="sans-serif" text-anchor="middle">hwy</text><text x="13.899999999999999" y="295.4" fill="#333333" font-size="12.0" font-family="sans-serif" text-anchor="middle" transform="rotate(-90.0 13.899999999999999 295.4)">count</text><rect x="72.7681818181818" y="509.41296859169194" width="38.186868686868706" height="54.38703140830802" fill="#1f77b4" fill-opacity="0.85" stroke="none"/><rect x="110.95505050505051" y="433.27112462006073" width="38.18686868686868" height="130.52887537993922" fill="#1f77b4" fill-opacity="0.85" stroke="none"/><rect x="149.1419191919192" y="150.45856129685916" width="38.18686868686865" height="413.3414387031408" fill="#1f77b4" fill-opacity="0.85" stroke="none"/><rect x="187.32878787878784" y="313.61965552178316" width="38.186868686868706" height="250.1803444782168" fill="#1f77b4" fill-opacity="0.85" stroke="none"/><rect x="225.51565656565654" y="444.1485309017224" width="38.18686868686868" height="119.65146909827757" fill="#1f77b4" fill-opacity="0.85" stroke="none"/><rect x="263.7025252525252" y="465.90334346504557" width="38.18686868686865" height="97.89665653495439" fill="#1f77b4" fill-opacity="0.85" stroke="none"/><rect x="301.88939393939387" y="346.251874366768" width="38.18686868686865" height="217.54812563323196" fill="#1f77b4" fill-opacity="0.85" stroke="none"/><rect x="340.0762626262625" y="52.56190476190477" width="38.18686868686876" height="511.2380952380952" fill="#1f77b4" fill-opacity="0.85" stroke="none"/><rect x="378.2631313131313" y="411.51631205673755" width="38.186868686868706" height="152.2836879432624" fill="#1f77b4" fill-opacity="0.85" stroke="none"/><rect x="416.45" y="248.35521783181355" width="38.186868686868706" height="315.4447821681864" fill="#1f77b4" fill-opacity="0.85" stroke="none"/><rect x="454.6368686868687" y="444.1485309017224" width="38.18686868686859" height="119.65146909827757" fill="#1f77b4" fill-opacity="0.85" stroke="none"/><rect x="492.8237373737373" y="498.53556231003034" width="38.18686868686865" height="65.26443768996961" fill="#1f77b4" fill-opacity="0.85" stroke="none"/><rect x="531.0106060606059" y="531.1677811550152" width="38.18686868686882" height="32.63221884498478" fill="#1f77b4" fill-opacity="0.85" stroke="none"/><rect x="569.1974747474748" y="542.0451874366768" width="38.18686868686859" height="21.754812563323185" fill="#1f77b4" fill-opacity="0.85" stroke="none"/><rect x="607.3843434343434" y="552.9225937183384" width="38.186868686868706" height="10.877406281661592" fill="#1f77b4" fill-opacity="0.85" stroke="none"/><rect x="683.7580808080808" y="552.9225937183384" width="38.186868686868706" height="10.877406281661592" fill="#1f77b4" fill-opacity="0.85" stroke="none"/><rect x="721.9449494949495" y="542.0451874366768" width="38.186868686868706" height="21.754812563323185" fill="#1f77b4" fill-opacity="0.85" stroke="none"/></svg>