<svg xmlns="http://www.w3.org/2000/svg" width="800" height="600" viewBox="0 0 800 600"><rect x="0.0" y="0.0" width="800.0" height="600.0" fill="#ffffff" fill-opacity="1.0" stroke="none"/><line x1="170.53125" y1="27.0" x2="170.53125" y2="563.8" stroke="#dddddd" stroke-width="1.0"/><line x1="379.75" y1="27.0" x2="379.75" y2="563.8" stroke="#dddddd" stroke-width="1.0"/><line x1="588.96875" y1="27.0" x2="588.96875" y2="563.8" stroke="#dddddd" stroke-width="1.0"/><line x1="45.0" y1="503.5124887690925" x2="714.5" y2="503.5124887690925" stroke="#dddddd" stroke-width="0.5"/><line x1="45.0" y1="382.93746630727765" x2="714.5" y2="382.93746630727765" stroke="#dddddd" stroke-width="0.5"/><line x1="45.0" y1="262.3624438454627" x2="714.5" y2="262.3624438454627" stroke="#dddddd" stroke-width="0.5"/><line x1="45.0" y1="141.78742138364777" x2="714.5" y2="141.78742138364777" stroke="#dddddd" stroke-width="0.5"/><line x1="45.0" y1="563.8" x2="714.5" y2="563.8" stroke="#dddddd" stroke-width="1.0"/><line x1="45.0" y1="443.22497753818504" x2="714.5" y2="443.22497753818504" stroke="#dddddd" stroke-width="1.0"/><line x1="45.0" y1="322.64995507637013" x2="714.5" y2="322.64995507637013" stroke="#dddddd" stroke-width="1.0"/><line x1="45.0" y1="202.07493261455528" x2="714.5" y2="202.07493261455528" stroke="#dddddd" stroke-width="1.0"/><line x1="45.0" y1="81.49991015274031" x2="714.5" y2="81.49991015274031" stroke="#dddddd" stroke-width="1.0"/><rect x="45.0" y="27.0" width="669.5" height="536.8" fill="#ffffff" fill-opacity="0.0" stroke="#444444" stroke-width="1.0"/><line x1="170.53125" y1="563.8" x2="170.53125" y2="566.55" stroke="#444444" stroke-width="1.0"/><text x="170.53125" y="577.55" fill="#333333" font-size="11.0" font-family="sans-serif" text-anchor="middle">4</text><line x1="379.75" y1="563.8" x2="379.75" y2="566.55" stroke="#444444" stroke-width="1.0"/><text x="379.75" y="577.55" fill="#333333" font-size="11.0" font-family="sans-serif" text-anchor="middle">r</text><line x1="588.96875" y1="563.8" x2="588.96875" y2="566.55" stroke="#444444" stroke-width="1.0"/><text x="588.96875" y="577.55" fill="#333333" font-size="11.0" font-family="sans-serif" text-anchor="middle">f</text><line x1="45.0" y1="563.8" x2="42.25" y2="563.8" stroke="#444444" stroke-width="1.0"/><text x="40.05" y="567.65" fill="#333333" font-size="11.0" font-family="sans-serif" text-anchor="end">0</text><line x1="45.0" y1="443.22497753818504" x2="42.25" y2="443.22497753818504" stroke="#444444" stroke-width="1.0"/><text x="40.05" y="447.07497753818507" fill="#333333" font-size="11.0" font-family="sans-serif" text-anchor="end">25</text><line x1="45.0" y1="322.64995507637013" x2="42.25" y2="322.64995507637013" stroke="#444444" stroke-width="1.0"/><text x="40.05" y="326.49995507637016" fill="#333333" font-size="11.0" font-family="sans-serif" text-anchor="end">50</text><line x1="45.0" y1="202.07493261455528" x2="42.25" y2="202.07493261455528" stroke="#444444" stroke-width="1.0"/><text x="40.05" y="205.92493261455527" fill="#333333" font-size="11.0" font-family="sans-serif" text-anchor="end">75</text><line x1="45.0" y1="81.49991015274031" x2="42.25" y2="81.49991015274031" stroke="#444444" stroke-width="1.0"/><text x="40.05" y="85.3499101527403" fill="#333333" font-size="11.0" font-family="sans-serif" text-anchor="end">100</text><text x="379.75" y="18.3" fill="#333333" font-size="16.0" font-family="sans-serif" text-anchor="middle">position = stack</text><text x="379.75" y="592.1" fill="#333333" font-size="12.0" font-family="sans-serif" text-anchor="middle">drv</text><text x="13.899999999999999" y="295.4" fill="#333333" font-size="12.0" font-family="sans-serif" text-anchor="middle" transform="rotate(-90.0 13.899999999999999 295.4)">count</text><rect x="76.3828125" y="505.9239892183288" width="188.296875" height="57.87601078167114" fill="#000000" fill-opacity="0.85" stroke="none"/><rect x="76.3828125" y="259.9509433962264" width="188.296875" height="245.9730458221024" fill="#E69F00" fill-opacity="0.85" stroke="none"/><rect x="76.3828125" y="240.65893980233596" width="188.296875" height="19.292003593890456" fill="#56B4E9" fill-opacity="0.85" stroke="none"/><rect x="76.3828125" y="226.18993710691825" width="188.296875" height="14.469002695417714" fill="#009E73" fill-opacity="0.85" stroke="none"/><rect x="76.3828125" y="67.03090745732254" width="188.296875" height="159.1590296495957" fill="#F0E442" fill-opacity="0.85" stroke="none"/><rect x="285.6015625" y="510.7469901168014" width="188.296875" height="53.05300988319857" fill="#E69F00" fill-opacity="0.85" stroke="none"/><rect x="285.6015625" y="467.339982030548" width="188.296875" height="43.40700808625337" fill="#56B4E9" fill-opacity="0.85" stroke="none"/><rect x="285.6015625" y="443.22497753818504" width="188.296875" height="24.11500449236297" fill="#D55E00" fill-opacity="0.85" stroke="none"/><rect x="494.8203125" y="394.9949685534591" width="188.296875" height="168.80503144654085" fill="#000000" fill-opacity="0.85" stroke="none"/><rect x="494.8203125" y="288.88894878706196" width="188.296875" height="106.10601976639714" fill="#56B4E9" fill-opacity="0.85" stroke="none"/><rect x="494.8203125" y="105.61491464510334" width="188.296875" height="183.27403414195862" fill="#009E73" fill-opacity="0.85" stroke="none"/><rect x="494.8203125" y="52.561904761904714" width="188.296875" height="53.05300988319863" fill="#0072B2" fill-opacity="0.85" stroke="none"/><rect x="724.5" y="40.0" width="10.0" height="10.0" fill="#000000" fill-opacity="1.0" stroke="#444444" stroke-width="0.5"/><text x="738.5" y="49.0" fill="#333333" font-size="10.0" font-family="sans-serif" text-anchor="start">compact</text><rect x="724.5" y="56.0" width="10.0" height="10.0" fill="#E69F00" fill-opacity="1.0" stroke="#444444" stroke-width="0.5"/><text x="738.5" y="65.0" fill="#333333" font-size="10.0" font-family="sans-serif" text-anchor="start">suv</text><rect x="724.5" y="72.0" width="10.0" height="10.0" fill="#56B4E9" fill-opacity="1.0" stroke="#444444" stroke-width="0.5"/><text x="738.5" y="81.0" fill="#333333" font-size="10.0" font-family="sans-serif" text-anchor="start">subcompact</text><rect x="724.5" y="88.0" width="10.0" height="10.0" fill="#009E73" fill-opacity="1.0" stroke="#444444" stroke-width="0.5"/><text x="738.5" y="97.0" fill="#333333" font-size="10.0" font-family="sans-serif" text-anchor="start">midsize</text><rect x="724.5" y="104.0" width="10.0" height="10.0" fill="#F0E442" fill-opacity="1.0" stroke="#444444" stroke-width="0.5"/><text x="738.5" y="113.0" fill="#333333" font-size="10.0" font-family="sans-serif" text-anchor="start">pickup</text><rect x="724.5" y="120.0" width="10.0" height="10.0" fill="#0072B2" fill-opacity="1.0" stroke="#444444" stroke-width="0.5"/><text x="738.5" y="129.0" fill="#333333" font-size="10.0" font-family="sans-serif" text-anchor="start">minivan</text><rect x="724.5" y="136.0" width="10.0" height="10.0" fill="#D55E00" fill-opacity="1.0" stroke="#444444" stroke-width="0.5"/><text x="738.5" y="145.0" fill="#333333" font-size="10.0" font-family="sans-serif" text-anchor="start">2seater</text></svg>