<svg xmlns="http://www.w3.org/2000/svg" width="800" height="600" viewBox="0 0 800 600"><rect x="0.0" y="0.0" width="800.0" height="600.0" fill="#ffffff" fill-opacity="1.0" stroke="none"/><line x1="165.16875" y1="27.0" x2="165.16875" y2="563.8" stroke="#dddddd" stroke-width="1.0"/><line x1="376.45" y1="27.0" x2="376.45" y2="563.8" stroke="#dddddd" stroke-width="1.0"/><line x1="587.73125" y1="27.0" x2="587.73125" y2="563.8" stroke="#dddddd" stroke-width="1.0"/><line x1="38.4" y1="513.6786181139122" x2="714.5" y2="513.6786181139122" stroke="#dddddd" stroke-width="0.5"/><line x1="38.4" y1="413.4358543417367" x2="714.5" y2="413.4358543417367" stroke="#dddddd" stroke-width="0.5"/><line x1="38.4" y1="313.19309056956115" x2="714.5" y2="313.19309056956115" stroke="#dddddd" stroke-width="0.5"/><line x1="38.4" y1="212.95032679738563" x2="714.5" y2="212.95032679738563" stroke="#dddddd" stroke-width="0.5"/><line x1="38.4" y1="112.70756302521005" x2="714.5" y2="112.70756302521005" stroke="#dddddd" stroke-width="0.5"/><line x1="38.4" y1="563.8" x2="714.5" y2="563.8" stroke="#dddddd" stroke-width="1.0"/><line x1="38.4" y1="463.55723622782443" x2="714.5" y2="463.55723622782443" stroke="#dddddd" stroke-width="1.0"/><line x1="38.4" y1="363.3144724556489" x2="714.5" y2="363.3144724556489" stroke="#dddddd" stroke-width="1.0"/><line x1="38.4" y1="263.0717086834734" x2="714.5" y2="263.0717086834734" stroke="#dddddd" stroke-width="1.0"/><line x1="38.4" y1="162.8289449112978" x2="714.5" y2="162.8289449112978" stroke="#dddddd" stroke-width="1.0"/><line x1="38.4" y1="62.58618113912229" x2="714.5" y2="62.58618113912229" stroke="#dddddd" stroke-width="1.0"/><rect x="38.4" y="27.0" width="676.1" height="536.8" fill="#ffffff" fill-opacity="0.0" stroke="#444444" stroke-width="1.0"/><line x1="165.16875" y1="563.8" x2="165.16875" y2="566.55" stroke="#444444" stroke-width="1.0"/><text x="165.16875" y="577.55" fill="#333333" font-size="11.0" font-family="sans-serif" text-anchor="middle">4</text><line x1="376.45" y1="563.8" x2="376.45" y2="566.55" stroke="#444444" stroke-width="1.0"/><text x="376.45" y="577.55" fill="#333333" font-size="11.0" font-family="sans-serif" text-anchor="middle">r</text><line x1="587.73125" y1="563.8" x2="587.73125" y2="566.55" stroke="#444444" stroke-width="1.0"/><text x="587.73125" y="577.55" fill="#333333" font-size="11.0" font-family="sans-serif" text-anchor="middle">f</text><line x1="38.4" y1="563.8" x2="35.65" y2="563.8" stroke="#444444" stroke-width="1.0"/><text x="33.449999999999996" y="567.65" fill="#333333" font-size="11.0" font-family="sans-serif" text-anchor="end">0</text><line x1="38.4" y1="463.55723622782443" x2="35.65" y2="463.55723622782443" stroke="#444444" stroke-width="1.0"/><text x="33.449999999999996" y="467.40723622782446" fill="#333333" font-size="11.0" font-family="sans-serif" text-anchor="end">10</text><line x1="38.4" y1="363.3144724556489" x2="35.65" y2="363.3144724556489" stroke="#444444" stroke-width="1.0"/><text x="33.449999999999996" y="367.16447245564893" fill="#333333" font-size="11.0" font-family="sans-serif" text-anchor="end">20</text><line x1="38.4" y1="263.0717086834734" x2="35.65" y2="263.0717086834734" stroke="#444444" stroke-width="1.0"/><text x="33.449999999999996" y="266.9217086834734" fill="#333333" font-size="11.0" font-family="sans-serif" text-anchor="end">30</text><line x1="38.4" y1="162.8289449112978" x2="35.65" y2="162.8289449112978" stroke="#444444" stroke-width="1.0"/><text x="33.449999999999996" y="166.6789449112978" fill="#333333" font-size="11.0" font-family="sans-serif" text-anchor="end">40</text><line x1="38.4" y1="62.58618113912229" x2="35.65" y2="62.58618113912229" stroke="#444444" stroke-width="1.0"/><text x="33.449999999999996" y="66.43618113912228" fill="#333333" font-size="11.0" font-family="sans-serif" text-anchor="end">50</text><text x="376.45" y="18.3" fill="#333333" font-size="16.0" font-family="sans-serif" text-anchor="middle">position = dodge</text><text x="376.45" y="592.1" fill="#333333" font-size="12.0" font-family="sans-serif" text-anchor="middle">drv</text><text x="13.899999999999999" y="295.4" fill="#333333" font-size="12.0" font-family="sans-serif" text-anchor="middle" transform="rotate(-90.0 13.899999999999999 295.4)">count</text><rect x="70.0921875" y="443.5086834733893" width="27.164732142857144" height="120.29131652661067" fill="#000000" fill-opacity="0.85" stroke="none"/><rect x="97.25691964285716" y="52.561904761904714" width="27.164732142857144" height="511.23809523809524" fill="#E69F00" fill-opacity="0.85" stroke="none"/><rect x="124.42165178571429" y="523.7028944911298" width="27.164732142857144" height="40.097105508870186" fill="#56B4E9" fill-opacity="0.85" stroke="none"/><rect x="151.58638392857142" y="533.7271708683473" width="27.164732142857144" height="30.07282913165261" fill="#009E73" fill-opacity="0.85" stroke="none"/><rect x="178.75111607142856" y="232.99887955182072" width="27.164732142857144" height="330.80112044817923" fill="#F0E442" fill-opacity="0.85" stroke="none"/><rect x="308.53816964285716" y="453.53295985060686" width="27.164732142857144" height="110.2670401493931" fill="#E69F00" fill-opacity="0.85" stroke="none"/><rect x="335.7029017857143" y="473.58151260504195" width="27.164732142857144" height="90.218487394958" fill="#56B4E9" fill-opacity="0.85" stroke="none"/><rect x="444.3618303571429" y="513.6786181139122" width="27.164732142857144" height="50.12138188608776" fill="#D55E00" fill-opacity="0.85" stroke="none"/><rect x="492.65468749999997" y="212.95032679738563" width="27.164732142857144" height="350.8496732026143" fill="#000000" fill-opacity="0.85" stroke="none"/><rect x="546.9841517857143" y="343.26591970121376" width="27.164732142857144" height="220.5340802987862" fill="#56B4E9" fill-opacity="0.85" stroke="none"/><rect x="574.1488839285714" y="182.8774976657329" width="27.164732142857144" height="380.92250233426705" fill="#009E73" fill-opacity="0.85" stroke="none"/><rect x="628.4783482142856" y="453.53295985060686" width="27.164732142857144" height="110.2670401493931" fill="#0072B2" fill-opacity="0.85" stroke="none"/><rect x="724.5" y="40.0" width="10.0" height="10.0" fill="#000000" fill-opacity="1.0" stroke="#444444" stroke-width="0.5"/><text x="738.5" y="49.0" fill="#333333" font-size="10.0" font-family="sans-serif" text-anchor="start">compact</text><rect x="724.5" y="56.0" width="10.0" height="10.0" fill="#E69F00" fill-opacity="1.0" stroke="#444444" stroke-width="0.5"/><text x="738.5" y="65.0" fill="#333333" font-size="10.0" font-family="sans-serif" text-anchor="start">suv</text><rect x="724.5" y="72.0" width="10.0" height="10.0" fill="#56B4E9" fill-opacity="1.0" stroke="#444444" stroke-width="0.5"/><text x="738.5" y="81.0" fill="#333333" font-size="10.0" font-family="sans-serif" text-anchor="start">subcompact</text><rect x="724.5" y="88.0" width="10.0" height="10.0" fill="#009E73" fill-opacity="1.0" stroke="#444444" stroke-width="0.5"/><text x="738.5" y="97.0" fill="#333333" font-size="10.0" font-family="sans-serif" text-anchor="start">midsize</text><rect x="724.5" y="104.0" width="10.0" height="10.0" fill="#F0E442" fill-opacity="1.0" stroke="#444444" stroke-width="0.5"/><text x="738.5" y="113.0" fill="#333333" font-size="10.0" font-family="sans-serif" text-anchor="start">pickup</text><rect x="724.5" y="120.0" width="10.0" height="10.0" fill="#0072B2" fill-opacity="1.0" stroke="#444444" stroke-width="0.5"/><text x="738.5" y="129.0" fill="#333333" font-size="10.0" font-family="sans-serif" text-anchor="start">minivan</text><rect x="724.5" y="136.0" width="10.0" height="10.0" fill="#D55E00" fill-opacity="1.0" stroke="#444444" stroke-width="0.5"/><text x="738.5" y="145.0" fill="#333333" font-size="10.0" font-family="sans-serif" text-anchor="start">2seater</text></svg>