<svg xmlns="http://www.w3.org/2000/svg" width="800" height="600" viewBox="0 0 800 600"><rect x="0.0" y="0.0" width="800.0" height="600.0" fill="#ffffff" fill-opacity="1.0" stroke="none"/><line x1="57.7496632996633" y1="27.0" x2="57.7496632996633" y2="563.8" stroke="#dddddd" stroke-width="0.5"/><line x1="171.5712121212121" y1="27.0" x2="171.5712121212121" y2="563.8" stroke="#dddddd" stroke-width="0.5"/><line x1="285.39276094276096" y1="27.0" x2="285.39276094276096" y2="563.8" stroke="#dddddd" stroke-width="0.5"/><line x1="399.2143097643098" y1="27.0" x2="399.2143097643098" y2="563.8" stroke="#dddddd" stroke-width="0.5"/><line x1="513.0358585858587" y1="27.0" x2="513.0358585858587" y2="563.8" stroke="#dddddd" stroke-width="0.5"/><line x1="626.8574074074074" y1="27.0" x2="626.8574074074074" y2="563.8" stroke="#dddddd" stroke-width="0.5"/><line x1="114.66043771043772" y1="27.0" x2="114.66043771043772" y2="563.8" stroke="#dddddd" stroke-width="1.0"/><line x1="228.48198653198654" y1="27.0" x2="228.48198653198654" y2="563.8" stroke="#dddddd" stroke-width="1.0"/><line x1="342.3035353535353" y1="27.0" x2="342.3035353535353" y2="563.8" stroke="#dddddd" stroke-width="1.0"/><line x1="456.12508417508417" y1="27.0" x2="456.12508417508417" y2="563.8" stroke="#dddddd" stroke-width="1.0"/><line x1="569.946632996633" y1="27.0" x2="569.946632996633" y2="563.8" stroke="#dddddd" stroke-width="1.0"/><line x1="683.7681818181818" y1="27.0" x2="683.7681818181818" y2="563.8" stroke="#dddddd" stroke-width="1.0"/><line x1="38.4" y1="493.65" x2="714.5" y2="493.65" stroke="#dddddd" stroke-width="0.5"/><line x1="38.4" y1="341.15" x2="714.5" y2="341.15" stroke="#dddddd" stroke-width="0.5"/><line x1="38.4" y1="188.64999999999998" x2="714.5" y2="188.64999999999998" stroke="#dddddd" stroke-width="0.5"/><line x1="38.4" y1="36.14999999999998" x2="714.5" y2="36.14999999999998" stroke="#dddddd" stroke-width="0.5"/><line x1="38.4" y1="417.4" x2="714.5" y2="417.4" stroke="#dddddd" stroke-width="1.0"/><line x1="38.4" y1="264.90000000000003" x2="714.5" y2="264.90000000000003" stroke="#dddddd" stroke-width="1.0"/><line x1="38.4" y1="112.40000000000003" x2="714.5" y2="112.40000000000003" stroke="#dddddd" stroke-width="1.0"/><rect x="38.4" y="27.0" width="676.1" height="536.8" fill="#ffffff" fill-opacity="0.0" stroke="#444444" stroke-width="1.0"/><line x1="114.66043771043772" y1="563.8" x2="114.66043771043772" y2="566.55" stroke="#444444" stroke-width="1.0"/><text x="114.66043771043772" y="577.55" fill="#333333" font-size="11.0" font-family="sans-serif" text-anchor="middle">2</text><line x1="228.48198653198654" y1="563.8" x2="228.48198653198654" y2="566.55" stroke="#444444" stroke-width="1.0"/><text x="228.48198653198654" y="577.55" fill="#333333" font-size="11.0" font-family="sans-serif" text-anchor="middle">3</text><line x1="342.3035353535353" y1="563.8" x2="342.3035353535353" y2="566.55" stroke="#444444" stroke-width="1.0"/><text x="342.3035353535353" y="577.55" fill="#333333" font-size="11.0" font-family="sans-serif" text-anchor="middle">4</text><line x1="456.12508417508417" y1="563.8" x2="456.12508417508417" y2="566.55" stroke="#444444" stroke-width="1.0"/><text x="456.12508417508417" y="577.55" fill="#333333" font-size="11.0" font-family="sans-serif" text-anchor="middle">5</text><line x1="569.946632996633" y1="563.8" x2="569.946632996633" y2="566.55" stroke="#444444" stroke-width="1.0"/><text x="569.946632996633" y="577.55" fill="#333333" font-size="11.0" font-family="sans-serif" text-anchor="middle">6</text><line x1="683.7681818181818" y1="563.8" x2="683.7681818181818" y2="566.55" stroke="#444444" stroke-width="1.0"/><text x="683.7681818181818" y="577.55" fill="#333333" font-size="11.0" font-family="sans-serif" text-anchor="middle">7</text><line x1="38.4" y1="417.4" x2="35.65" y2="417.4" stroke="#444444" stroke-width="1.0"/><text x="33.449999999999996" y="421.25" fill="#333333" font-size="11.0" font-family="sans-serif" text-anchor="end">20</text><line x1="38.4" y1="264.90000000000003" x2="35.65" y2="264.90000000000003" stroke="#444444" stroke-width="1.0"/><text x="33.449999999999996" y="268.75000000000006" fill="#333333" font-size="11.0" font-family="sans-serif" text-anchor="end">30</text><line x1="38.4" y1="112.40000000000003" x2="35.65" y2="112.40000000000003" stroke="#444444" stroke-width="1.0"/><text x="33.449999999999996" y="116.25000000000003" fill="#333333" font-size="11.0" font-family="sans-serif" text-anchor="end">40</text><text x="376.45" y="18.3" fill="#333333" font-size="16.0" font-family="sans-serif" text-anchor="middle">色 + 形で冗長に符号化 (色覚配慮)</text><text x="376.45" y="592.1" fill="#333333" font-size="12.0" font-family="sans-serif" text-anchor="middle">displ</text><text x="13.899999999999999" y="295.4" fill="#333333" font-size="12.0" font-family="sans-serif" text-anchor="middle" transform="rotate(-90.0 13.899999999999999 295.4)">hwy</text><circle cx="91.89612794612795" cy="280.15" r="5.0" fill="#4477AA" fill-opacity="0.85" stroke="none"><title>(1.8, 29)</title></circle><circle cx="91.89612794612795" cy="280.15" r="5.0" fill="#4477AA" fill-opacity="0.85" stroke="none"><title>(1.8, 29)</title></circle><circle cx="114.66043771043772" cy="249.64999999999998" r="5.0" fill="#4477AA" fill-opacity="0.85" stroke="none"><title>(2, 31)</title></circle><circle cx="114.66043771043772" cy="264.90000000000003" r="5.0" fill="#4477AA" fill-opacity="0.85" stroke="none"><title>(2, 30)</title></circle><circle cx="205.71767676767678" cy="325.9" r="5.0" fill="#4477AA" fill-opacity="0.85" stroke="none"><title>(2.8, 26)</title></circle><circle cx="205.71767676767678" cy="325.9" r="5.0" fill="#4477AA" fill-opacity="0.85" stroke="none"><title>(2.8, 26)</title></circle><circle cx="239.86414141414144" cy="310.65" r="5.0" fill="#4477AA" fill-opacity="0.85" stroke="none"><title>(3.1, 27)</title></circle><path d="M 91.89612794612795 320.9 L 96.89612794612795 330.9 L 86.89612794612795 330.9 Z" fill="#EE6677" fill-opacity="0.85" stroke="none"/><path d="M 91.89612794612795 336.15 L 96.89612794612795 346.15 L 86.89612794612795 346.15 Z" fill="#EE6677" fill-opacity="0.85" stroke="none"/><path d="M 114.66043771043772 290.4 L 119.66043771043772 300.4 L 109.66043771043772 300.4 Z" fill="#EE6677" fill-opacity="0.85" stroke="none"/><path d="M 114.66043771043772 305.65 L 119.66043771043772 315.65 L 109.66043771043772 315.65 Z" fill="#EE6677" fill-opacity="0.85" stroke="none"/><path d="M 205.71767676767678 336.15 L 210.71767676767678 346.15 L 200.71767676767678 346.15 Z" fill="#EE6677" fill-opacity="0.85" stroke="none"/><path d="M 205.71767676767678 336.15 L 210.71767676767678 346.15 L 200.71767676767678 346.15 Z" fill="#EE6677" fill-opacity="0.85" stroke="none"/><path d="M 239.86414141414144 336.15 L 244.86414141414144 346.15 L 234.86414141414144 346.15 Z" fill="#EE6677" fill-opacity="0.85" stroke="none"/><path d="M 239.86414141414144 336.15 L 244.86414141414144 346.15 L 234.86414141414144 346.15 Z" fill="#EE6677" fill-opacity="0.85" stroke="none"/><path d="M 205.71767676767678 351.4 L 210.71767676767678 361.4 L 200.71767676767678 361.4 Z" fill="#EE6677" fill-opacity="0.85" stroke="none"/><path d="M 239.86414141414144 336.15 L 244.86414141414144 346.15 L 234.86414141414144 346.15 Z" fill="#EE6677" fill-opacity="0.85" stroke="none"/><path d="M 365.06784511784514 366.65 L 370.06784511784514 376.65 L 360.06784511784514 376.65 Z" fill="#EE6677" fill-opacity="0.85" stroke="none"/><path d="M 485.27154882154883 412.4 L 495.27154882154883 412.4 L 495.27154882154883 422.4 L 485.27154882154883 422.4 Z" fill="#228833" fill-opacity="0.85" stroke="none"/><path d="M 485.27154882154883 488.65 L 495.27154882154883 488.65 L 495.27154882154883 498.65 L 485.27154882154883 498.65 Z" fill="#228833" fill-opacity="0.85" stroke="none"/><path d="M 485.27154882154883 412.4 L 495.27154882154883 412.4 L 495.27154882154883 422.4 L 485.27154882154883 422.4 Z" fill="#228833" fill-opacity="0.85" stroke="none"/><path d="M 530.8001683501684 458.15 L 540.8001683501684 458.15 L 540.8001683501684 468.15 L 530.8001683501684 468.15 Z" fill="#228833" fill-opacity="0.85" stroke="none"/><path d="M 564.946632996633 458.15 L 574.946632996633 458.15 L 574.946632996633 468.15 L 564.946632996633 468.15 Z" fill="#228833" fill-opacity="0.85" stroke="none"/><path d="M 530.8001683501684 320.9 L 540.8001683501684 320.9 L 540.8001683501684 330.9 L 530.8001683501684 330.9 Z" fill="#228833" fill-opacity="0.85" stroke="none"/><path d="M 530.8001683501684 366.65 L 540.8001683501684 366.65 L 540.8001683501684 376.65 L 530.8001683501684 376.65 Z" fill="#228833" fill-opacity="0.85" stroke="none"/><path d="M 587.7109427609428 320.9 L 597.7109427609428 320.9 L 597.7109427609428 330.9 L 587.7109427609428 330.9 Z" fill="#228833" fill-opacity="0.85" stroke="none"/><path d="M 587.7109427609428 336.15 L 597.7109427609428 336.15 L 597.7109427609428 346.15 L 587.7109427609428 346.15 Z" fill="#228833" fill-opacity="0.85" stroke="none"/><path d="M 678.7681818181818 351.4 L 688.7681818181818 351.4 L 688.7681818181818 361.4 L 678.7681818181818 361.4 Z" fill="#228833" fill-opacity="0.85" stroke="none"/><path d="M 490.27154882154883 427.65 L 495.27154882154883 437.65 L 485.27154882154883 437.65 Z" fill="#EE6677" fill-opacity="0.85" stroke="none"/><path d="M 490.27154882154883 503.9 L 495.27154882154883 513.9 L 485.27154882154883 513.9 Z" fill="#EE6677" fill-opacity="0.85" stroke="none"/><path d="M 535.8001683501684 488.65 L 540.8001683501684 498.65 L 530.8001683501684 498.65 Z" fill="#EE6677" fill-opacity="0.85" stroke="none"/><path d="M 626.8574074074074 458.15 L 631.8574074074074 468.15 L 621.8574074074074 468.15 Z" fill="#EE6677" fill-opacity="0.85" stroke="none"/><circle cx="160.18905723905723" cy="310.65" r="5.0" fill="#4477AA" fill-opacity="0.85" stroke="none"><title>(2.4, 27)</title></circle><circle cx="160.18905723905723" cy="264.90000000000003" r="5.0" fill="#4477AA" fill-opacity="0.85" stroke="none"><title>(2.4, 30)</title></circle><circle cx="239.86414141414144" cy="325.9" r="5.0" fill="#4477AA" fill-opacity="0.85" stroke="none"><title>(3.1, 26)</title></circle><circle cx="285.39276094276096" cy="280.15" r="5.0" fill="#4477AA" fill-opacity="0.85" stroke="none"><title>(3.5, 29)</title></circle><circle cx="296.7749158249158" cy="325.9" r="5.0" fill="#4477AA" fill-opacity="0.85" stroke="none"><title>(3.6, 26)</title></circle><circle cx="160.18905723905723" cy="356.4" r="5.0" fill="#4477AA" fill-opacity="0.85" stroke="none"><title>(2.4, 24)</title></circle><circle cx="228.48198653198654" cy="356.4" r="5.0" fill="#4477AA" fill-opacity="0.85" stroke="none"><title>(3, 24)</title></circle><circle cx="262.62845117845114" cy="386.9" r="5.0" fill="#4477AA" fill-opacity="0.85" stroke="none"><title>(3.3, 22)</title></circle><circle cx="262.62845117845114" cy="386.9" r="5.0" fill="#4477AA" fill-opacity="0.85" stroke="none"><title>(3.3, 22)</title></circle><circle cx="262.62845117845114" cy="356.4" r="5.0" fill="#4477AA" fill-opacity="0.85" stroke="none"><title>(3.3, 24)</title></circle><circle cx="262.62845117845114" cy="356.4" r="5.0" fill="#4477AA" fill-opacity="0.85" stroke="none"><title>(3.3, 24)</title></circle><circle cx="262.62845117845114" cy="463.15" r="5.0" fill="#4477AA" fill-opacity="0.85" stroke="none"><title>(3.3, 17)</title></circle><circle cx="319.53922558922557" cy="386.9" r="5.0" fill="#4477AA" fill-opacity="0.85" stroke="none"><title>(3.8, 22)</title></circle><circle cx="319.53922558922557" cy="402.15" r="5.0" fill="#4477AA" fill-opacity="0.85" stroke="none"><title>(3.8, 21)</title></circle><circle cx="319.53922558922557" cy="371.65" r="5.0" fill="#4477AA" fill-opacity="0.85" stroke="none"><title>(3.8, 23)</title></circle><circle cx="342.3035353535353" cy="371.65" r="5.0" fill="#4477AA" fill-opacity="0.85" stroke="none"><title>(4, 23)</title></circle><path d="M 308.1570707070707 427.65 L 313.1570707070707 437.65 L 303.1570707070707 437.65 Z" fill="#EE6677" fill-opacity="0.85" stroke="none"/><path d="M 308.1570707070707 442.9 L 313.1570707070707 452.9 L 303.1570707070707 452.9 Z" fill="#EE6677" fill-opacity="0.85" stroke="none"/><path d="M 330.9213804713805 458.15 L 335.9213804713805 468.15 L 325.9213804713805 468.15 Z" fill="#EE6677" fill-opacity="0.85" stroke="none"/><path d="M 330.9213804713805 458.15 L 335.9213804713805 468.15 L 325.9213804713805 468.15 Z" fill="#EE6677" fill-opacity="0.85" stroke="none"/><path d="M 421.97861952861956 427.65 L 426.97861952861956 437.65 L 416.97861952861956 437.65 Z" fill="#EE6677" fill-opacity="0.85" stroke="none"/><path d="M 421.97861952861956 427.65 L 426.97861952861956 437.65 L 416.97861952861956 437.65 Z" fill="#EE6677" fill-opacity="0.85" stroke="none"/><path d="M 421.97861952861956 534.4 L 426.97861952861956 544.4 L 416.97861952861956 544.4 Z" fill="#EE6677" fill-opacity="0.85" stroke="none"/><path d="M 478.889393939394 458.15 L 483.889393939394 468.15 L 473.889393939394 468.15 Z" fill="#EE6677" fill-opacity="0.85" stroke="none"/><path d="M 478.889393939394 488.65 L 483.889393939394 498.65 L 473.889393939394 498.65 Z" fill="#EE6677" fill-opacity="0.85" stroke="none"/><path d="M 330.9213804713805 458.15 L 335.9213804713805 468.15 L 325.9213804713805 468.15 Z" fill="#EE6677" fill-opacity="0.85" stroke="none"/><path d="M 421.97861952861956 458.15 L 426.97861952861956 468.15 L 416.97861952861956 468.15 Z" fill="#EE6677" fill-opacity="0.85" stroke="none"/><path d="M 421.97861952861956 534.4 L 426.97861952861956 544.4 L 416.97861952861956 544.4 Z" fill="#EE6677" fill-opacity="0.85" stroke="none"/><path d="M 421.97861952861956 458.15 L 426.97861952861956 468.15 L 416.97861952861956 468.15 Z" fill="#EE6677" fill-opacity="0.85" stroke="none"/><path d="M 478.889393939394 473.4 L 483.889393939394 483.4 L 473.889393939394 483.4 Z" fill="#EE6677" fill-opacity="0.85" stroke="none"/><path d="M 535.8001683501684 442.9 L 540.8001683501684 452.9 L 530.8001683501684 452.9 Z" fill="#EE6677" fill-opacity="0.85" stroke="none"/><path d="M 558.5644781144782 488.65 L 563.5644781144782 498.65 L 553.5644781144782 498.65 Z" fill="#EE6677" fill-opacity="0.85" stroke="none"/><path d="M 421.97861952861956 473.4 L 426.97861952861956 483.4 L 416.97861952861956 483.4 Z" fill="#EE6677" fill-opacity="0.85" stroke="none"/><path d="M 421.97861952861956 534.4 L 426.97861952861956 544.4 L 416.97861952861956 544.4 Z" fill="#EE6677" fill-opacity="0.85" stroke="none"/><path d="M 421.97861952861956 458.15 L 426.97861952861956 468.15 L 416.97861952861956 468.15 Z" fill="#EE6677" fill-opacity="0.85" stroke="none"/><path d="M 421.97861952861956 458.15 L 426.97861952861956 468.15 L 416.97861952861956 468.15 Z" fill="#EE6677" fill-opacity="0.85" stroke="none"/><path d="M 421.97861952861956 473.4 L 426.97861952861956 483.4 L 416.97861952861956 483.4 Z" fill="#EE6677" fill-opacity="0.85" stroke="none"/><path d="M 421.97861952861956 534.4 L 426.97861952861956 544.4 L 416.97861952861956 544.4 Z" fill="#EE6677" fill-opacity="0.85" stroke="none"/><path d="M 478.889393939394 488.65 L 483.889393939394 498.65 L 473.889393939394 498.65 Z" fill="#EE6677" fill-opacity="0.85" stroke="none"/><path d="M 478.889393939394 473.4 L 483.889393939394 483.4 L 473.889393939394 483.4 Z" fill="#EE6677" fill-opacity="0.85" stroke="none"/><path d="M 535.8001683501684 458.15 L 540.8001683501684 468.15 L 530.8001683501684 468.15 Z" fill="#EE6677" fill-opacity="0.85" stroke="none"/><path d="M 558.5644781144782 488.65 L 563.5644781144782 498.65 L 553.5644781144782 498.65 Z" fill="#EE6677" fill-opacity="0.85" stroke="none"/><path d="M 405.59646464646465 458.15 L 415.59646464646465 458.15 L 415.59646464646465 468.15 L 405.59646464646465 468.15 Z" fill="#228833" fill-opacity="0.85" stroke="none"/><path d="M 496.6537037037038 458.15 L 506.6537037037038 458.15 L 506.6537037037038 468.15 L 496.6537037037038 468.15 Z" fill="#228833" fill-opacity="0.85" stroke="none"/><path d="M 496.6537037037038 442.9 L 506.6537037037038 442.9 L 506.6537037037038 452.9 L 496.6537037037038 452.9 Z" fill="#228833" fill-opacity="0.85" stroke="none"/><path d="M 342.3035353535353 458.15 L 347.3035353535353 468.15 L 337.3035353535353 468.15 Z" fill="#EE6677" fill-opacity="0.85" stroke="none"/><path d="M 342.3035353535353 427.65 L 347.3035353535353 437.65 L 337.3035353535353 437.65 Z" fill="#EE6677" fill-opacity="0.85" stroke="none"/><path d="M 342.3035353535353 458.15 L 347.3035353535353 468.15 L 337.3035353535353 468.15 Z" fill="#EE6677" fill-opacity="0.85" stroke="none"/><path d="M 342.3035353535353 427.65 L 347.3035353535353 437.65 L 337.3035353535353 437.65 Z" fill="#EE6677" fill-opacity="0.85" stroke="none"/><path d="M 410.59646464646465 427.65 L 415.59646464646465 437.65 L 405.59646464646465 437.65 Z" fill="#EE6677" fill-opacity="0.85" stroke="none"/><path d="M 456.12508417508417 458.15 L 461.12508417508417 468.15 L 451.12508417508417 468.15 Z" fill="#EE6677" fill-opacity="0.85" stroke="none"/><path d="M 365.06784511784514 458.15 L 370.06784511784514 468.15 L 360.06784511784514 468.15 Z" fill="#EE6677" fill-opacity="0.85" stroke="none"/><path d="M 365.06784511784514 458.15 L 370.06784511784514 468.15 L 360.06784511784514 468.15 Z" fill="#EE6677" fill-opacity="0.85" stroke="none"/><path d="M 410.59646464646465 473.4 L 415.59646464646465 483.4 L 405.59646464646465 483.4 Z" fill="#EE6677" fill-opacity="0.85" stroke="none"/><path d="M 410.59646464646465 473.4 L 415.59646464646465 483.4 L 405.59646464646465 483.4 Z" fill="#EE6677" fill-opacity="0.85" stroke="none"/><path d="M 410.59646464646465 458.15 L 415.59646464646465 468.15 L 405.59646464646465 468.15 Z" fill="#EE6677" fill-opacity="0.85" stroke="none"/><path d="M 501.6537037037038 488.65 L 506.6537037037038 498.65 L 496.6537037037038 498.65 Z" fill="#EE6677" fill-opacity="0.85" stroke="none"/><path d="M 501.6537037037038 458.15 L 506.6537037037038 468.15 L 496.6537037037038 468.15 Z" fill="#EE6677" fill-opacity="0.85" stroke="none"/><path d="M 314.53922558922557 320.9 L 324.53922558922557 320.9 L 324.53922558922557 330.9 L 314.53922558922557 330.9 Z" fill="#228833" fill-opacity="0.85" stroke="none"/><path d="M 314.53922558922557 336.15 L 324.53922558922557 336.15 L 324.53922558922557 346.15 L 314.53922558922557 346.15 Z" fill="#228833" fill-opacity="0.85" stroke="none"/><path d="M 337.3035353535353 320.9 L 347.3035353535353 320.9 L 347.3035353535353 330.9 L 337.3035353535353 330.9 Z" fill="#228833" fill-opacity="0.85" stroke="none"/><path d="M 337.3035353535353 351.4 L 347.3035353535353 351.4 L 347.3035353535353 361.4 L 337.3035353535353 361.4 Z" fill="#228833" fill-opacity="0.85" stroke="none"/><path d="M 405.59646464646465 397.15 L 415.59646464646465 397.15 L 415.59646464646465 407.15 L 405.59646464646465 407.15 Z" fill="#228833" fill-opacity="0.85" stroke="none"/><path d="M 405.59646464646465 381.9 L 415.59646464646465 381.9 L 415.59646464646465 391.9 L 405.59646464646465 391.9 Z" fill="#228833" fill-opacity="0.85" stroke="none"/><path d="M 405.59646464646465 366.65 L 415.59646464646465 366.65 L 415.59646464646465 376.65 L 405.59646464646465 376.65 Z" fill="#228833" fill-opacity="0.85" stroke="none"/><path d="M 405.59646464646465 381.9 L 415.59646464646465 381.9 L 415.59646464646465 391.9 L 405.59646464646465 391.9 Z" fill="#228833" fill-opacity="0.85" stroke="none"/><path d="M 496.6537037037038 412.4 L 506.6537037037038 412.4 L 506.6537037037038 422.4 L 496.6537037037038 422.4 Z" fill="#228833" fill-opacity="0.85" stroke="none"/><circle cx="69.13181818181819" cy="219.14999999999998" r="5.0" fill="#4477AA" fill-opacity="0.85" stroke="none"><title>(1.6, 33)</title></circle><circle cx="69.13181818181819" cy="234.39999999999998" r="5.0" fill="#4477AA" fill-opacity="0.85" stroke="none"><title>(1.6, 32)</title></circle><circle cx="69.13181818181819" cy="234.39999999999998" r="5.0" fill="#4477AA" fill-opacity="0.85" stroke="none"><title>(1.6, 32)</title></circle><circle cx="69.13181818181819" cy="280.15" r="5.0" fill="#4477AA" fill-opacity="0.85" stroke="none"><title>(1.6, 29)</title></circle><circle cx="69.13181818181819" cy="234.39999999999998" r="5.0" fill="#4477AA" fill-opacity="0.85" stroke="none"><title>(1.6, 32)</title></circle><circle cx="91.89612794612795" cy="203.90000000000003" r="5.0" fill="#4477AA" fill-opacity="0.85" stroke="none"><title>(1.8, 34)</title></circle><circle cx="91.89612794612795" cy="173.39999999999998" r="5.0" fill="#4477AA" fill-opacity="0.85" stroke="none"><title>(1.8, 36)</title></circle><circle cx="91.89612794612795" cy="173.39999999999998" r="5.0" fill="#4477AA" fill-opacity="0.85" stroke="none"><title>(1.8, 36)</title></circle><circle cx="114.66043771043772" cy="280.15" r="5.0" fill="#4477AA" fill-opacity="0.85" stroke="none"><title>(2, 29)</title></circle><circle cx="160.18905723905723" cy="325.9" r="5.0" fill="#4477AA" fill-opacity="0.85" stroke="none"><title>(2.4, 26)</title></circle><circle cx="160.18905723905723" cy="310.65" r="5.0" fill="#4477AA" fill-opacity="0.85" stroke="none"><title>(2.4, 27)</title></circle><circle cx="160.18905723905723" cy="264.90000000000003" r="5.0" fill="#4477AA" fill-opacity="0.85" stroke="none"><title>(2.4, 30)</title></circle><circle cx="160.18905723905723" cy="249.64999999999998" r="5.0" fill="#4477AA" fill-opacity="0.85" stroke="none"><title>(2.4, 31)</title></circle><circle cx="171.5712121212121" cy="325.9" r="5.0" fill="#4477AA" fill-opacity="0.85" stroke="none"><title>(2.5, 26)</title></circle><circle cx="171.5712121212121" cy="325.9" r="5.0" fill="#4477AA" fill-opacity="0.85" stroke="none"><title>(2.5, 26)</title></circle><circle cx="262.62845117845114" cy="295.4" r="5.0" fill="#4477AA" fill-opacity="0.85" stroke="none"><title>(3.3, 28)</title></circle><circle cx="114.66043771043772" cy="325.9" r="5.0" fill="#4477AA" fill-opacity="0.85" stroke="none"><title>(2, 26)</title></circle><circle cx="114.66043771043772" cy="280.15" r="5.0" fill="#4477AA" fill-opacity="0.85" stroke="none"><title>(2, 29)</title></circle><circle cx="114.66043771043772" cy="295.4" r="5.0" fill="#4477AA" fill-opacity="0.85" stroke="none"><title>(2, 28)</title></circle><circle cx="114.66043771043772" cy="310.65" r="5.0" fill="#4477AA" fill-opacity="0.85" stroke="none"><title>(2, 27)</title></circle><circle cx="194.33552188552193" cy="356.4" r="5.0" fill="#4477AA" fill-opacity="0.85" stroke="none"><title>(2.7, 24)</title></circle><circle cx="194.33552188552193" cy="356.4" r="5.0" fill="#4477AA" fill-opacity="0.85" stroke="none"><title>(2.7, 24)</title></circle><circle cx="194.33552188552193" cy="356.4" r="5.0" fill="#4477AA" fill-opacity="0.85" stroke="none"><title>(2.7, 24)</title></circle><path d="M 228.48198653198654 381.9 L 233.48198653198654 391.9 L 223.48198653198654 391.9 Z" fill="#EE6677" fill-opacity="0.85" stroke="none"/><path d="M 308.1570707070707 427.65 L 313.1570707070707 437.65 L 303.1570707070707 437.65 Z" fill="#EE6677" fill-opacity="0.85" stroke="none"/><path d="M 342.3035353535353 412.4 L 347.3035353535353 422.4 L 337.3035353535353 422.4 Z" fill="#EE6677" fill-opacity="0.85" stroke="none"/><path d="M 421.97861952861956 458.15 L 426.97861952861956 468.15 L 416.97861952861956 468.15 Z" fill="#EE6677" fill-opacity="0.85" stroke="none"/><path d="M 421.97861952861956 534.4 L 426.97861952861956 544.4 L 416.97861952861956 544.4 Z" fill="#EE6677" fill-opacity="0.85" stroke="none"/><path d="M 421.97861952861956 427.65 L 426.97861952861956 437.65 L 416.97861952861956 437.65 Z" fill="#EE6677" fill-opacity="0.85" stroke="none"/><path d="M 535.8001683501684 442.9 L 540.8001683501684 452.9 L 530.8001683501684 452.9 Z" fill="#EE6677" fill-opacity="0.85" stroke="none"/><path d="M 581.3287878787878 503.9 L 586.3287878787878 513.9 L 576.3287878787878 513.9 Z" fill="#EE6677" fill-opacity="0.85" stroke="none"/><path d="M 342.3035353535353 488.65 L 347.3035353535353 498.65 L 337.3035353535353 498.65 Z" fill="#EE6677" fill-opacity="0.85" stroke="none"/><path d="M 365.06784511784514 442.9 L 370.06784511784514 452.9 L 360.06784511784514 452.9 Z" fill="#EE6677" fill-opacity="0.85" stroke="none"/><path d="M 387.83215488215495 442.9 L 392.83215488215495 452.9 L 382.83215488215495 452.9 Z" fill="#EE6677" fill-opacity="0.85" stroke="none"/><path d="M 410.59646464646465 488.65 L 415.59646464646465 498.65 L 405.59646464646465 498.65 Z" fill="#EE6677" fill-opacity="0.85" stroke="none"/><path d="M 496.6537037037038 458.15 L 506.6537037037038 458.15 L 506.6537037037038 468.15 L 496.6537037037038 468.15 Z" fill="#228833" fill-opacity="0.85" stroke="none"/><path d="M 496.6537037037038 473.4 L 506.6537037037038 473.4 L 506.6537037037038 483.4 L 496.6537037037038 483.4 Z" fill="#228833" fill-opacity="0.85" stroke="none"/><path d="M 496.6537037037038 442.9 L 506.6537037037038 442.9 L 506.6537037037038 452.9 L 496.6537037037038 452.9 Z" fill="#228833" fill-opacity="0.85" stroke="none"/><path d="M 342.3035353535353 458.15 L 347.3035353535353 468.15 L 337.3035353535353 468.15 Z" fill="#EE6677" fill-opacity="0.85" stroke="none"/><path d="M 342.3035353535353 427.65 L 347.3035353535353 437.65 L 337.3035353535353 437.65 Z" fill="#EE6677" fill-opacity="0.85" stroke="none"/><path d="M 410.59646464646465 427.65 L 415.59646464646465 437.65 L 405.59646464646465 437.65 Z" fill="#EE6677" fill-opacity="0.85" stroke="none"/><path d="M 456.12508417508417 458.15 L 461.12508417508417 468.15 L 451.12508417508417 468.15 Z" fill="#EE6677" fill-opacity="0.85" stroke="none"/><circle cx="160.18905723905723" cy="280.15" r="5.0" fill="#4477AA" fill-opacity="0.85" stroke="none"><title>(2.4, 29)</title></circle><circle cx="160.18905723905723" cy="310.65" r="5.0" fill="#4477AA" fill-opacity="0.85" stroke="none"><title>(2.4, 27)</title></circle><circle cx="171.5712121212121" cy="249.64999999999998" r="5.0" fill="#4477AA" fill-opacity="0.85" stroke="none"><title>(2.5, 31)</title></circle><circle cx="171.5712121212121" cy="234.39999999999998" r="5.0" fill="#4477AA" fill-opacity="0.85" stroke="none"><title>(2.5, 32)</title></circle><circle cx="285.39276094276096" cy="310.65" r="5.0" fill="#4477AA" fill-opacity="0.85" stroke="none"><title>(3.5, 27)</title></circle><circle cx="285.39276094276096" cy="325.9" r="5.0" fill="#4477AA" fill-opacity="0.85" stroke="none"><title>(3.5, 26)</title></circle><circle cx="228.48198653198654" cy="325.9" r="5.0" fill="#4477AA" fill-opacity="0.85" stroke="none"><title>(3, 26)</title></circle><circle cx="228.48198653198654" cy="341.15" r="5.0" fill="#4477AA" fill-opacity="0.85" stroke="none"><title>(3, 25)</title></circle><circle cx="285.39276094276096" cy="341.15" r="5.0" fill="#4477AA" fill-opacity="0.85" stroke="none"><title>(3.5, 25)</title></circle><path d="M 262.62845117845114 458.15 L 267.62845117845114 468.15 L 257.62845117845114 468.15 Z" fill="#EE6677" fill-opacity="0.85" stroke="none"/><path d="M 262.62845117845114 458.15 L 267.62845117845114 468.15 L 257.62845117845114 468.15 Z" fill="#EE6677" fill-opacity="0.85" stroke="none"/><path d="M 342.3035353535353 412.4 L 347.3035353535353 422.4 L 337.3035353535353 422.4 Z" fill="#EE6677" fill-opacity="0.85" stroke="none"/><path d="M 524.4180134680134 442.9 L 529.4180134680134 452.9 L 519.4180134680134 452.9 Z" fill="#EE6677" fill-opacity="0.85" stroke="none"/><circle cx="239.86414141414144" cy="325.9" r="5.0" fill="#4477AA" fill-opacity="0.85" stroke="none"><title>(3.1, 26)</title></circle><circle cx="319.53922558922557" cy="325.9" r="5.0" fill="#4477AA" fill-opacity="0.85" stroke="none"><title>(3.8, 26)</title></circle><circle cx="319.53922558922557" cy="310.65" r="5.0" fill="#4477AA" fill-opacity="0.85" stroke="none"><title>(3.8, 27)</title></circle><circle cx="319.53922558922557" cy="295.4" r="5.0" fill="#4477AA" fill-opacity="0.85" stroke="none"><title>(3.8, 28)</title></circle><circle cx="490.27154882154883" cy="341.15" r="5.0" fill="#4477AA" fill-opacity="0.85" stroke="none"><title>(5.3, 25)</title></circle><path d="M 171.5712121212121 336.15 L 176.5712121212121 346.15 L 166.5712121212121 346.15 Z" fill="#EE6677" fill-opacity="0.85" stroke="none"/><path d="M 171.5712121212121 351.4 L 176.5712121212121 361.4 L 166.5712121212121 361.4 Z" fill="#EE6677" fill-opacity="0.85" stroke="none"/><path d="M 171.5712121212121 305.65 L 176.5712121212121 315.65 L 166.5712121212121 315.65 Z" fill="#EE6677" fill-opacity="0.85" stroke="none"/><path d="M 171.5712121212121 336.15 L 176.5712121212121 346.15 L 166.5712121212121 346.15 Z" fill="#EE6677" fill-opacity="0.85" stroke="none"/><path d="M 171.5712121212121 320.9 L 176.5712121212121 330.9 L 166.5712121212121 330.9 Z" fill="#EE6677" fill-opacity="0.85" stroke="none"/><path d="M 171.5712121212121 366.65 L 176.5712121212121 376.65 L 166.5712121212121 376.65 Z" fill="#EE6677" fill-opacity="0.85" stroke="none"/><path d="M 137.4247474747475 320.9 L 142.4247474747475 330.9 L 132.4247474747475 330.9 Z" fill="#EE6677" fill-opacity="0.85" stroke="none"/><path d="M 137.4247474747475 320.9 L 142.4247474747475 330.9 L 132.4247474747475 330.9 Z" fill="#EE6677" fill-opacity="0.85" stroke="none"/><path d="M 171.5712121212121 320.9 L 176.5712121212121 330.9 L 166.5712121212121 330.9 Z" fill="#EE6677" fill-opacity="0.85" stroke="none"/><path d="M 171.5712121212121 320.9 L 176.5712121212121 330.9 L 166.5712121212121 330.9 Z" fill="#EE6677" fill-opacity="0.85" stroke="none"/><path d="M 171.5712121212121 336.15 L 176.5712121212121 346.15 L 166.5712121212121 346.15 Z" fill="#EE6677" fill-opacity="0.85" stroke="none"/><path d="M 171.5712121212121 305.65 L 176.5712121212121 315.65 L 166.5712121212121 315.65 Z" fill="#EE6677" fill-opacity="0.85" stroke="none"/><path d="M 171.5712121212121 336.15 L 176.5712121212121 346.15 L 166.5712121212121 346.15 Z" fill="#EE6677" fill-opacity="0.85" stroke="none"/><path d="M 171.5712121212121 305.65 L 176.5712121212121 315.65 L 166.5712121212121 315.65 Z" fill="#EE6677" fill-opacity="0.85" stroke="none"/><path d="M 194.33552188552193 412.4 L 199.33552188552193 422.4 L 189.33552188552193 422.4 Z" fill="#EE6677" fill-opacity="0.85" stroke="none"/><path d="M 194.33552188552193 412.4 L 199.33552188552193 422.4 L 189.33552188552193 422.4 Z" fill="#EE6677" fill-opacity="0.85" stroke="none"/><path d="M 274.01060606060605 427.65 L 279.01060606060605 437.65 L 269.01060606060605 437.65 Z" fill="#EE6677" fill-opacity="0.85" stroke="none"/><path d="M 274.01060606060605 458.15 L 279.01060606060605 468.15 L 269.01060606060605 468.15 Z" fill="#EE6677" fill-opacity="0.85" stroke="none"/><path d="M 342.3035353535353 412.4 L 347.3035353535353 422.4 L 337.3035353535353 422.4 Z" fill="#EE6677" fill-opacity="0.85" stroke="none"/><path d="M 421.97861952861956 458.15 L 426.97861952861956 468.15 L 416.97861952861956 468.15 Z" fill="#EE6677" fill-opacity="0.85" stroke="none"/><circle cx="137.4247474747475" cy="280.15" r="5.0" fill="#4477AA" fill-opacity="0.85" stroke="none"><title>(2.2, 29)</title></circle><circle cx="137.4247474747475" cy="310.65" r="5.0" fill="#4477AA" fill-opacity="0.85" stroke="none"><title>(2.2, 27)</title></circle><circle cx="160.18905723905723" cy="249.64999999999998" r="5.0" fill="#4477AA" fill-opacity="0.85" stroke="none"><title>(2.4, 31)</title></circle><circle cx="160.18905723905723" cy="249.64999999999998" r="5.0" fill="#4477AA" fill-opacity="0.85" stroke="none"><title>(2.4, 31)</title></circle><circle cx="228.48198653198654" cy="325.9" r="5.0" fill="#4477AA" fill-opacity="0.85" stroke="none"><title>(3, 26)</title></circle><circle cx="228.48198653198654" cy="325.9" r="5.0" fill="#4477AA" fill-opacity="0.85" stroke="none"><title>(3, 26)</title></circle><circle cx="285.39276094276096" cy="295.4" r="5.0" fill="#4477AA" fill-opacity="0.85" stroke="none"><title>(3.5, 28)</title></circle><circle cx="137.4247474747475" cy="310.65" r="5.0" fill="#4477AA" fill-opacity="0.85" stroke="none"><title>(2.2, 27)</title></circle><circle cx="137.4247474747475" cy="280.15" r="5.0" fill="#4477AA" fill-opacity="0.85" stroke="none"><title>(2.2, 29)</title></circle><circle cx="160.18905723905723" cy="249.64999999999998" r="5.0" fill="#4477AA" fill-opacity="0.85" stroke="none"><title>(2.4, 31)</title></circle><circle cx="160.18905723905723" cy="249.64999999999998" r="5.0" fill="#4477AA" fill-opacity="0.85" stroke="none"><title>(2.4, 31)</title></circle><circle cx="228.48198653198654" cy="325.9" r="5.0" fill="#4477AA" fill-opacity="0.85" stroke="none"><title>(3, 26)</title></circle><circle cx="228.48198653198654" cy="325.9" r="5.0" fill="#4477AA" fill-opacity="0.85" stroke="none"><title>(3, 26)</title></circle><circle cx="262.62845117845114" cy="310.65" r="5.0" fill="#4477AA" fill-opacity="0.85" stroke="none"><title>(3.3, 27)</title></circle><circle cx="91.89612794612795" cy="264.90000000000003" r="5.0" fill="#4477AA" fill-opacity="0.85" stroke="none"><title>(1.8, 30)</title></circle><circle cx="91.89612794612795" cy="219.14999999999998" r="5.0" fill="#4477AA" fill-opacity="0.85" stroke="none"><title>(1.8, 33)</title></circle><circle cx="91.89612794612795" cy="188.64999999999998" r="5.0" fill="#4477AA" fill-opacity="0.85" stroke="none"><title>(1.8, 35)</title></circle><circle cx="91.89612794612795" cy="158.15000000000003" r="5.0" fill="#4477AA" fill-opacity="0.85" stroke="none"><title>(1.8, 37)</title></circle><circle cx="91.89612794612795" cy="188.64999999999998" r="5.0" fill="#4477AA" fill-opacity="0.85" stroke="none"><title>(1.8, 35)</title></circle><path d="M 421.97861952861956 488.65 L 426.97861952861956 498.65 L 416.97861952861956 498.65 Z" fill="#EE6677" fill-opacity="0.85" stroke="none"/><path d="M 535.8001683501684 442.9 L 540.8001683501684 452.9 L 530.8001683501684 452.9 Z" fill="#EE6677" fill-opacity="0.85" stroke="none"/><path d="M 194.33552188552193 412.4 L 199.33552188552193 422.4 L 189.33552188552193 422.4 Z" fill="#EE6677" fill-opacity="0.85" stroke="none"/><path d="M 194.33552188552193 412.4 L 199.33552188552193 422.4 L 189.33552188552193 422.4 Z" fill="#EE6677" fill-opacity="0.85" stroke="none"/><path d="M 194.33552188552193 381.9 L 199.33552188552193 391.9 L 189.33552188552193 391.9 Z" fill="#EE6677" fill-opacity="0.85" stroke="none"/><path d="M 274.01060606060605 458.15 L 279.01060606060605 468.15 L 269.01060606060605 468.15 Z" fill="#EE6677" fill-opacity="0.85" stroke="none"/><path d="M 274.01060606060605 427.65 L 279.01060606060605 437.65 L 269.01060606060605 437.65 Z" fill="#EE6677" fill-opacity="0.85" stroke="none"/><path d="M 342.3035353535353 442.9 L 347.3035353535353 452.9 L 337.3035353535353 452.9 Z" fill="#EE6677" fill-opacity="0.85" stroke="none"/><path d="M 342.3035353535353 412.4 L 347.3035353535353 422.4 L 337.3035353535353 422.4 Z" fill="#EE6677" fill-opacity="0.85" stroke="none"/><circle cx="114.66043771043772" cy="280.15" r="5.0" fill="#4477AA" fill-opacity="0.85" stroke="none"><title>(2, 29)</title></circle><circle cx="114.66043771043772" cy="325.9" r="5.0" fill="#4477AA" fill-opacity="0.85" stroke="none"><title>(2, 26)</title></circle><circle cx="114.66043771043772" cy="280.15" r="5.0" fill="#4477AA" fill-opacity="0.85" stroke="none"><title>(2, 29)</title></circle><circle cx="114.66043771043772" cy="280.15" r="5.0" fill="#4477AA" fill-opacity="0.85" stroke="none"><title>(2, 29)</title></circle><circle cx="205.71767676767678" cy="356.4" r="5.0" fill="#4477AA" fill-opacity="0.85" stroke="none"><title>(2.8, 24)</title></circle><circle cx="103.27828282828281" cy="51.40000000000009" r="5.0" fill="#4477AA" fill-opacity="0.85" stroke="none"><title>(1.9, 44)</title></circle><circle cx="114.66043771043772" cy="280.15" r="5.0" fill="#4477AA" fill-opacity="0.85" stroke="none"><title>(2, 29)</title></circle><circle cx="114.66043771043772" cy="325.9" r="5.0" fill="#4477AA" fill-opacity="0.85" stroke="none"><title>(2, 26)</title></circle><circle cx="114.66043771043772" cy="280.15" r="5.0" fill="#4477AA" fill-opacity="0.85" stroke="none"><title>(2, 29)</title></circle><circle cx="114.66043771043772" cy="280.15" r="5.0" fill="#4477AA" fill-opacity="0.85" stroke="none"><title>(2, 29)</title></circle><circle cx="171.5712121212121" cy="280.15" r="5.0" fill="#4477AA" fill-opacity="0.85" stroke="none"><title>(2.5, 29)</title></circle><circle cx="171.5712121212121" cy="280.15" r="5.0" fill="#4477AA" fill-opacity="0.85" stroke="none"><title>(2.5, 29)</title></circle><circle cx="205.71767676767678" cy="371.65" r="5.0" fill="#4477AA" fill-opacity="0.85" stroke="none"><title>(2.8, 23)</title></circle><circle cx="205.71767676767678" cy="356.4" r="5.0" fill="#4477AA" fill-opacity="0.85" stroke="none"><title>(2.8, 24)</title></circle><circle cx="103.27828282828281" cy="51.40000000000009" r="5.0" fill="#4477AA" fill-opacity="0.85" stroke="none"><title>(1.9, 44)</title></circle><circle cx="103.27828282828281" cy="97.15000000000003" r="5.0" fill="#4477AA" fill-opacity="0.85" stroke="none"><title>(1.9, 41)</title></circle><circle cx="114.66043771043772" cy="280.15" r="5.0" fill="#4477AA" fill-opacity="0.85" stroke="none"><title>(2, 29)</title></circle><circle cx="114.66043771043772" cy="325.9" r="5.0" fill="#4477AA" fill-opacity="0.85" stroke="none"><title>(2, 26)</title></circle><circle cx="171.5712121212121" cy="295.4" r="5.0" fill="#4477AA" fill-opacity="0.85" stroke="none"><title>(2.5, 28)</title></circle><circle cx="171.5712121212121" cy="280.15" r="5.0" fill="#4477AA" fill-opacity="0.85" stroke="none"><title>(2.5, 29)</title></circle><circle cx="91.89612794612795" cy="280.15" r="5.0" fill="#4477AA" fill-opacity="0.85" stroke="none"><title>(1.8, 29)</title></circle><circle cx="91.89612794612795" cy="280.15" r="5.0" fill="#4477AA" fill-opacity="0.85" stroke="none"><title>(1.8, 29)</title></circle><circle cx="114.66043771043772" cy="295.4" r="5.0" fill="#4477AA" fill-opacity="0.85" stroke="none"><title>(2, 28)</title></circle><circle cx="114.66043771043772" cy="280.15" r="5.0" fill="#4477AA" fill-opacity="0.85" stroke="none"><title>(2, 29)</title></circle><circle cx="205.71767676767678" cy="325.9" r="5.0" fill="#4477AA" fill-opacity="0.85" stroke="none"><title>(2.8, 26)</title></circle><circle cx="205.71767676767678" cy="325.9" r="5.0" fill="#4477AA" fill-opacity="0.85" stroke="none"><title>(2.8, 26)</title></circle><circle cx="296.7749158249158" cy="325.9" r="5.0" fill="#4477AA" fill-opacity="0.85" stroke="none"><title>(3.6, 26)</title></circle><text x="724.5" y="29.0" fill="#333333" font-size="11.0" font-family="sans-serif" text-anchor="start">drive</text><circle cx="729.5" cy="45.0" r="5.0" fill="#4477AA" fill-opacity="1.0" stroke="#4477AA" stroke-width="1.0"/><text x="738.5" y="49.0" fill="#333333" font-size="10.0" font-family="sans-serif" text-anchor="start">f</text><circle cx="729.5" cy="61.0" r="5.0" fill="#EE6677" fill-opacity="1.0" stroke="#EE6677" stroke-width="1.0"/><text x="738.5" y="65.0" fill="#333333" font-size="10.0" font-family="sans-serif" text-anchor="start">4</text><circle cx="729.5" cy="77.0" r="5.0" fill="#228833" fill-opacity="1.0" stroke="#228833" stroke-width="1.0"/><text x="738.5" y="81.0" fill="#333333" font-size="10.0" font-family="sans-serif" text-anchor="start">r</text></svg>