<svg xmlns="http://www.w3.org/2000/svg" width="800" height="600" viewBox="0 0 800 600"><rect x="0.0" y="0.0" width="800.0" height="600.0" fill="#ffffff" fill-opacity="1.0" stroke="none"/><line x1="60.03922558922558" y1="5.5" x2="60.03922558922558" y2="563.8" stroke="#dddddd" stroke-width="0.5"/><line x1="187.3287878787879" y1="5.5" x2="187.3287878787879" y2="563.8" stroke="#dddddd" stroke-width="0.5"/><line x1="314.61835016835016" y1="5.5" x2="314.61835016835016" y2="563.8" stroke="#dddddd" stroke-width="0.5"/><line x1="441.9079124579125" y1="5.5" x2="441.9079124579125" y2="563.8" stroke="#dddddd" stroke-width="0.5"/><line x1="569.1974747474748" y1="5.5" x2="569.1974747474748" y2="563.8" stroke="#dddddd" stroke-width="0.5"/><line x1="696.4870370370371" y1="5.5" x2="696.4870370370371" y2="563.8" stroke="#dddddd" stroke-width="0.5"/><line x1="123.68400673400674" y1="5.5" x2="123.68400673400674" y2="563.8" stroke="#dddddd" stroke-width="1.0"/><line x1="250.97356902356904" y1="5.5" x2="250.97356902356904" y2="563.8" stroke="#dddddd" stroke-width="1.0"/><line x1="378.2631313131313" y1="5.5" x2="378.2631313131313" y2="563.8" stroke="#dddddd" stroke-width="1.0"/><line x1="505.5526936026936" y1="5.5" x2="505.5526936026936" y2="563.8" stroke="#dddddd" stroke-width="1.0"/><line x1="632.8422558922559" y1="5.5" x2="632.8422558922559" y2="563.8" stroke="#dddddd" stroke-width="1.0"/><line x1="760.1318181818182" y1="5.5" x2="760.1318181818182" y2="563.8" stroke="#dddddd" stroke-width="1.0"/><line x1="38.4" y1="490.84034090909086" x2="794.5" y2="490.84034090909086" stroke="#dddddd" stroke-width="0.5"/><line x1="38.4" y1="332.23238636363635" x2="794.5" y2="332.23238636363635" stroke="#dddddd" stroke-width="0.5"/><line x1="38.4" y1="173.6244318181818" x2="794.5" y2="173.6244318181818" stroke="#dddddd" stroke-width="0.5"/><line x1="38.4" y1="15.016477272727343" x2="794.5" y2="15.016477272727343" stroke="#dddddd" stroke-width="0.5"/><line x1="38.4" y1="411.5363636363636" x2="794.5" y2="411.5363636363636" stroke="#dddddd" stroke-width="1.0"/><line x1="38.4" y1="252.9284090909091" x2="794.5" y2="252.9284090909091" stroke="#dddddd" stroke-width="1.0"/><line x1="38.4" y1="94.3204545454546" x2="794.5" y2="94.3204545454546" stroke="#dddddd" stroke-width="1.0"/><rect x="38.4" y="5.5" width="756.1" height="558.3" fill="#ffffff" fill-opacity="0.0" stroke="#444444" stroke-width="1.0"/><line x1="123.68400673400674" y1="563.8" x2="123.68400673400674" y2="566.55" stroke="#444444" stroke-width="1.0"/><text x="123.68400673400674" y="577.55" fill="#333333" font-size="11.0" font-family="sans-serif" text-anchor="middle">2</text><line x1="250.97356902356904" y1="563.8" x2="250.97356902356904" y2="566.55" stroke="#444444" stroke-width="1.0"/><text x="250.97356902356904" y="577.55" fill="#333333" font-size="11.0" font-family="sans-serif" text-anchor="middle">3</text><line x1="378.2631313131313" y1="563.8" x2="378.2631313131313" y2="566.55" stroke="#444444" stroke-width="1.0"/><text x="378.2631313131313" y="577.55" fill="#333333" font-size="11.0" font-family="sans-serif" text-anchor="middle">4</text><line x1="505.5526936026936" y1="563.8" x2="505.5526936026936" y2="566.55" stroke="#444444" stroke-width="1.0"/><text x="505.5526936026936" y="577.55" fill="#333333" font-size="11.0" font-family="sans-serif" text-anchor="middle">5</text><line x1="632.8422558922559" y1="563.8" x2="632.8422558922559" y2="566.55" stroke="#444444" stroke-width="1.0"/><text x="632.8422558922559" y="577.55" fill="#333333" font-size="11.0" font-family="sans-serif" text-anchor="middle">6</text><line x1="760.1318181818182" y1="563.8" x2="760.1318181818182" y2="566.55" stroke="#444444" stroke-width="1.0"/><text x="760.1318181818182" y="577.55" fill="#333333" font-size="11.0" font-family="sans-serif" text-anchor="middle">7</text><line x1="38.4" y1="411.5363636363636" x2="35.65" y2="411.5363636363636" stroke="#444444" stroke-width="1.0"/><text x="33.449999999999996" y="415.3863636363636" fill="#333333" font-size="11.0" font-family="sans-serif" text-anchor="end">20</text><line x1="38.4" y1="252.9284090909091" x2="35.65" y2="252.9284090909091" stroke="#444444" stroke-width="1.0"/><text x="33.449999999999996" y="256.7784090909091" fill="#333333" font-size="11.0" font-family="sans-serif" text-anchor="end">30</text><line x1="38.4" y1="94.3204545454546" x2="35.65" y2="94.3204545454546" stroke="#444444" stroke-width="1.0"/><text x="33.449999999999996" y="98.17045454545459" fill="#333333" font-size="11.0" font-family="sans-serif" text-anchor="end">40</text><text x="416.45" y="592.1" fill="#333333" font-size="12.0" font-family="sans-serif" text-anchor="middle">displ</text><text x="13.899999999999999" y="284.65" fill="#333333" font-size="12.0" font-family="sans-serif" text-anchor="middle" transform="rotate(-90.0 13.899999999999999 284.65)">hwy</text><path d="M 98.22609427609427 264.7892045454545 L 102.22609427609427 272.7892045454545 L 94.22609427609427 272.7892045454545 Z" fill="#1f77b4" fill-opacity="0.9" stroke="none"/><path d="M 98.22609427609427 264.7892045454545 L 102.22609427609427 272.7892045454545 L 94.22609427609427 272.7892045454545 Z" fill="#1f77b4" fill-opacity="0.9" stroke="none"/><path d="M 123.68400673400674 233.0676136363636 L 127.68400673400674 241.0676136363636 L 119.68400673400674 241.0676136363636 Z" fill="#1f77b4" fill-opacity="0.9" stroke="none"/><path d="M 123.68400673400674 248.9284090909091 L 127.68400673400674 256.9284090909091 L 119.68400673400674 256.9284090909091 Z" fill="#1f77b4" fill-opacity="0.9" stroke="none"/><path d="M 225.51565656565657 312.3715909090909 L 229.51565656565657 320.3715909090909 L 221.51565656565657 320.3715909090909 Z" fill="#1f77b4" fill-opacity="0.9" stroke="none"/><path d="M 225.51565656565657 312.3715909090909 L 229.51565656565657 320.3715909090909 L 221.51565656565657 320.3715909090909 Z" fill="#1f77b4" fill-opacity="0.9" stroke="none"/><path d="M 263.7025252525253 296.5107954545454 L 267.7025252525253 304.5107954545454 L 259.7025252525253 304.5107954545454 Z" fill="#1f77b4" fill-opacity="0.9" stroke="none"/><path d="M 98.22609427609427 312.3715909090909 L 102.22609427609427 320.3715909090909 L 94.22609427609427 320.3715909090909 Z" fill="#1f77b4" fill-opacity="0.9" stroke="none"/><path d="M 98.22609427609427 328.23238636363635 L 102.22609427609427 336.23238636363635 L 94.22609427609427 336.23238636363635 Z" fill="#1f77b4" fill-opacity="0.9" stroke="none"/><path d="M 123.68400673400674 280.65 L 127.68400673400674 288.65 L 119.68400673400674 288.65 Z" fill="#1f77b4" fill-opacity="0.9" stroke="none"/><path d="M 123.68400673400674 296.5107954545454 L 127.68400673400674 304.5107954545454 L 119.68400673400674 304.5107954545454 Z" fill="#1f77b4" fill-opacity="0.9" stroke="none"/><path d="M 225.51565656565657 328.23238636363635 L 229.51565656565657 336.23238636363635 L 221.51565656565657 336.23238636363635 Z" fill="#1f77b4" fill-opacity="0.9" stroke="none"/><path d="M 225.51565656565657 328.23238636363635 L 229.51565656565657 336.23238636363635 L 221.51565656565657 336.23238636363635 Z" fill="#1f77b4" fill-opacity="0.9" stroke="none"/><path d="M 263.7025252525253 328.23238636363635 L 267.7025252525253 336.23238636363635 L 259.7025252525253 336.23238636363635 Z" fill="#1f77b4" fill-opacity="0.9" stroke="none"/><path d="M 263.7025252525253 328.23238636363635 L 267.7025252525253 336.23238636363635 L 259.7025252525253 336.23238636363635 Z" fill="#1f77b4" fill-opacity="0.9" stroke="none"/><path d="M 221.51565656565657 344.09318181818185 L 229.51565656565657 344.09318181818185 L 229.51565656565657 352.09318181818185 L 221.51565656565657 352.09318181818185 Z" fill="#1f77b4" fill-opacity="0.9" stroke="none"/><path d="M 259.7025252525253 328.23238636363635 L 267.7025252525253 328.23238636363635 L 267.7025252525253 336.23238636363635 L 259.7025252525253 336.23238636363635 Z" fill="#1f77b4" fill-opacity="0.9" stroke="none"/><path d="M 399.7210437710438 359.95397727272723 L 407.7210437710438 359.95397727272723 L 407.7210437710438 367.95397727272723 L 399.7210437710438 367.95397727272723 Z" fill="#1f77b4" fill-opacity="0.9" stroke="none"/><path d="M 543.7395622895623 413.9363636363636 C 538.9395622895623 409.9363636363636 541.3395622895623 406.7363636363636 543.7395622895623 410.7363636363636 C 546.1395622895623 406.7363636363636 548.5395622895622 409.9363636363636 543.7395622895623 413.9363636363636 Z" fill="#1f77b4" fill-opacity="0.9" stroke="none"/><path d="M 543.7395622895623 493.24034090909083 C 538.9395622895623 489.24034090909083 541.3395622895623 486.04034090909084 543.7395622895623 490.04034090909084 C 546.1395622895623 486.04034090909084 548.5395622895622 489.24034090909083 543.7395622895623 493.24034090909083 Z" fill="#1f77b4" fill-opacity="0.9" stroke="none"/><path d="M 543.7395622895623 413.9363636363636 C 538.9395622895623 409.9363636363636 541.3395622895623 406.7363636363636 543.7395622895623 410.7363636363636 C 546.1395622895623 406.7363636363636 548.5395622895622 409.9363636363636 543.7395622895623 413.9363636363636 Z" fill="#1f77b4" fill-opacity="0.9" stroke="none"/><path d="M 594.6553872053872 461.51874999999995 C 589.8553872053873 457.51874999999995 592.2553872053873 454.31874999999997 594.6553872053872 458.31874999999997 C 597.0553872053872 454.31874999999997 599.4553872053872 457.51874999999995 594.6553872053872 461.51874999999995 Z" fill="#1f77b4" fill-opacity="0.9" stroke="none"/><path d="M 632.8422558922559 461.51874999999995 C 628.042255892256 457.51874999999995 630.442255892256 454.31874999999997 632.8422558922559 458.31874999999997 C 635.2422558922559 454.31874999999997 637.6422558922559 457.51874999999995 632.8422558922559 461.51874999999995 Z" fill="#1f77b4" fill-opacity="0.9" stroke="none"/><circle cx="594.6553872053872" cy="316.3715909090909" r="4.0" fill="#1f77b4" fill-opacity="0.9" stroke="none"><title>(5.7, 26)</title></circle><circle cx="594.6553872053872" cy="363.95397727272723" r="4.0" fill="#1f77b4" fill-opacity="0.9" stroke="none"><title>(5.7, 23)</title></circle><circle cx="658.3001683501684" cy="316.3715909090909" r="4.0" fill="#1f77b4" fill-opacity="0.9" stroke="none"><title>(6.2, 26)</title></circle><circle cx="658.3001683501684" cy="332.23238636363635" r="4.0" fill="#1f77b4" fill-opacity="0.9" stroke="none"><title>(6.2, 25)</title></circle><circle cx="760.1318181818182" cy="348.09318181818185" r="4.0" fill="#1f77b4" fill-opacity="0.9" stroke="none"><title>(7, 24)</title></circle><path d="M 543.7395622895623 429.7971590909091 C 538.9395622895623 425.7971590909091 541.3395622895623 422.5971590909091 543.7395622895623 426.5971590909091 C 546.1395622895623 422.5971590909091 548.5395622895622 425.7971590909091 543.7395622895623 429.7971590909091 Z" fill="#1f77b4" fill-opacity="0.9" stroke="none"/><path d="M 543.7395622895623 509.10113636363633 C 538.9395622895623 505.10113636363633 541.3395622895623 501.90113636363634 543.7395622895623 505.90113636363634 C 546.1395622895623 501.90113636363634 548.5395622895622 505.10113636363633 543.7395622895623 509.10113636363633 Z" fill="#1f77b4" fill-opacity="0.9" stroke="none"/><path d="M 594.6553872053872 493.24034090909083 C 589.8553872053873 489.24034090909083 592.2553872053873 486.04034090909084 594.6553872053872 490.04034090909084 C 597.0553872053872 486.04034090909084 599.4553872053872 489.24034090909083 594.6553872053872 493.24034090909083 Z" fill="#1f77b4" fill-opacity="0.9" stroke="none"/><path d="M 696.4870370370371 461.51874999999995 C 691.6870370370372 457.51874999999995 694.0870370370371 454.31874999999997 696.4870370370371 458.31874999999997 C 698.8870370370371 454.31874999999997 701.2870370370371 457.51874999999995 696.4870370370371 461.51874999999995 Z" fill="#1f77b4" fill-opacity="0.9" stroke="none"/><path d="M 170.59983164983166 296.5107954545454 L 178.59983164983166 296.5107954545454 L 178.59983164983166 304.5107954545454 L 170.59983164983166 304.5107954545454 Z" fill="#1f77b4" fill-opacity="0.9" stroke="none"/><path d="M 170.59983164983166 248.9284090909091 L 178.59983164983166 248.9284090909091 L 178.59983164983166 256.9284090909091 L 170.59983164983166 256.9284090909091 Z" fill="#1f77b4" fill-opacity="0.9" stroke="none"/><path d="M 259.7025252525253 312.3715909090909 L 267.7025252525253 312.3715909090909 L 267.7025252525253 320.3715909090909 L 259.7025252525253 320.3715909090909 Z" fill="#1f77b4" fill-opacity="0.9" stroke="none"/><path d="M 310.61835016835016 264.7892045454545 L 318.61835016835016 264.7892045454545 L 318.61835016835016 272.7892045454545 L 310.61835016835016 272.7892045454545 Z" fill="#1f77b4" fill-opacity="0.9" stroke="none"/><path d="M 323.3473063973064 312.3715909090909 L 331.3473063973064 312.3715909090909 L 331.3473063973064 320.3715909090909 L 323.3473063973064 320.3715909090909 Z" fill="#1f77b4" fill-opacity="0.9" stroke="none"/><path d="M 174.59983164983166 344.09318181818185 L 178.59983164983166 348.09318181818185 L 174.59983164983166 352.09318181818185 L 170.59983164983166 348.09318181818185 Z" fill="#1f77b4" fill-opacity="0.9" stroke="none"/><path d="M 250.97356902356904 344.09318181818185 L 254.97356902356904 348.09318181818185 L 250.97356902356904 352.09318181818185 L 246.97356902356904 348.09318181818185 Z" fill="#1f77b4" fill-opacity="0.9" stroke="none"/><path d="M 289.1604377104377 375.8147727272727 L 293.1604377104377 379.8147727272727 L 289.1604377104377 383.8147727272727 L 285.1604377104377 379.8147727272727 Z" fill="#1f77b4" fill-opacity="0.9" stroke="none"/><path d="M 289.1604377104377 375.8147727272727 L 293.1604377104377 379.8147727272727 L 289.1604377104377 383.8147727272727 L 285.1604377104377 379.8147727272727 Z" fill="#1f77b4" fill-opacity="0.9" stroke="none"/><path d="M 289.1604377104377 344.09318181818185 L 293.1604377104377 348.09318181818185 L 289.1604377104377 352.09318181818185 L 285.1604377104377 348.09318181818185 Z" fill="#1f77b4" fill-opacity="0.9" stroke="none"/><path d="M 289.1604377104377 344.09318181818185 L 293.1604377104377 348.09318181818185 L 289.1604377104377 352.09318181818185 L 285.1604377104377 348.09318181818185 Z" fill="#1f77b4" fill-opacity="0.9" stroke="none"/><path d="M 289.1604377104377 455.11875 L 293.1604377104377 459.11875 L 289.1604377104377 463.11875 L 285.1604377104377 459.11875 Z" fill="#1f77b4" fill-opacity="0.9" stroke="none"/><path d="M 352.8052188552188 375.8147727272727 L 356.8052188552188 379.8147727272727 L 352.8052188552188 383.8147727272727 L 348.8052188552188 379.8147727272727 Z" fill="#1f77b4" fill-opacity="0.9" stroke="none"/><path d="M 352.8052188552188 391.67556818181816 L 356.8052188552188 395.67556818181816 L 352.8052188552188 399.67556818181816 L 348.8052188552188 395.67556818181816 Z" fill="#1f77b4" fill-opacity="0.9" stroke="none"/><path d="M 352.8052188552188 359.95397727272723 L 356.8052188552188 363.95397727272723 L 352.8052188552188 367.95397727272723 L 348.8052188552188 363.95397727272723 Z" fill="#1f77b4" fill-opacity="0.9" stroke="none"/><path d="M 378.2631313131313 359.95397727272723 L 382.2631313131313 363.95397727272723 L 378.2631313131313 367.95397727272723 L 374.2631313131313 363.95397727272723 Z" fill="#1f77b4" fill-opacity="0.9" stroke="none"/><path d="M 338.47626262626267 423.3971590909091 L 341.6762626262627 423.3971590909091 L 341.6762626262627 425.7971590909091 L 344.0762626262627 425.7971590909091 L 344.0762626262627 428.9971590909091 L 341.6762626262627 428.9971590909091 L 341.6762626262627 431.3971590909091 L 338.47626262626267 431.3971590909091 L 338.47626262626267 428.9971590909091 L 336.0762626262627 428.9971590909091 L 336.0762626262627 425.7971590909091 L 338.47626262626267 425.7971590909091 Z" fill="#1f77b4" fill-opacity="0.9" stroke="none"/><path d="M 338.47626262626267 439.25795454545454 L 341.6762626262627 439.25795454545454 L 341.6762626262627 441.6579545454545 L 344.0762626262627 441.6579545454545 L 344.0762626262627 444.85795454545456 L 341.6762626262627 444.85795454545456 L 341.6762626262627 447.25795454545454 L 338.47626262626267 447.25795454545454 L 338.47626262626267 444.85795454545456 L 336.0762626262627 444.85795454545456 L 336.0762626262627 441.6579545454545 L 338.47626262626267 441.6579545454545 Z" fill="#1f77b4" fill-opacity="0.9" stroke="none"/><path d="M 363.9341750841751 455.11875 L 367.1341750841751 455.11875 L 367.1341750841751 457.51874999999995 L 369.5341750841751 457.51874999999995 L 369.5341750841751 460.71875 L 367.1341750841751 460.71875 L 367.1341750841751 463.11875 L 363.9341750841751 463.11875 L 363.9341750841751 460.71875 L 361.5341750841751 460.71875 L 361.5341750841751 457.51874999999995 L 363.9341750841751 457.51874999999995 Z" fill="#1f77b4" fill-opacity="0.9" stroke="none"/><path d="M 363.9341750841751 455.11875 L 367.1341750841751 455.11875 L 367.1341750841751 457.51874999999995 L 369.5341750841751 457.51874999999995 L 369.5341750841751 460.71875 L 367.1341750841751 460.71875 L 367.1341750841751 463.11875 L 363.9341750841751 463.11875 L 363.9341750841751 460.71875 L 361.5341750841751 460.71875 L 361.5341750841751 457.51874999999995 L 363.9341750841751 457.51874999999995 Z" fill="#1f77b4" fill-opacity="0.9" stroke="none"/><path d="M 465.7658249158249 423.3971590909091 L 468.96582491582495 423.3971590909091 L 468.96582491582495 425.7971590909091 L 471.36582491582493 425.7971590909091 L 471.36582491582493 428.9971590909091 L 468.96582491582495 428.9971590909091 L 468.96582491582495 431.3971590909091 L 465.7658249158249 431.3971590909091 L 465.7658249158249 428.9971590909091 L 463.36582491582493 428.9971590909091 L 463.36582491582493 425.7971590909091 L 465.7658249158249 425.7971590909091 Z" fill="#1f77b4" fill-opacity="0.9" stroke="none"/><path d="M 465.7658249158249 423.3971590909091 L 468.96582491582495 423.3971590909091 L 468.96582491582495 425.7971590909091 L 471.36582491582493 425.7971590909091 L 471.36582491582493 428.9971590909091 L 468.96582491582495 428.9971590909091 L 468.96582491582495 431.3971590909091 L 465.7658249158249 431.3971590909091 L 465.7658249158249 428.9971590909091 L 463.36582491582493 428.9971590909091 L 463.36582491582493 425.7971590909091 L 465.7658249158249 425.7971590909091 Z" fill="#1f77b4" fill-opacity="0.9" stroke="none"/><path d="M 465.7658249158249 534.4227272727272 L 468.96582491582495 534.4227272727272 L 468.96582491582495 536.8227272727272 L 471.36582491582493 536.8227272727272 L 471.36582491582493 540.0227272727273 L 468.96582491582495 540.0227272727273 L 468.96582491582495 542.4227272727272 L 465.7658249158249 542.4227272727272 L 465.7658249158249 540.0227272727273 L 463.36582491582493 540.0227272727273 L 463.36582491582493 536.8227272727272 L 465.7658249158249 536.8227272727272 Z" fill="#1f77b4" fill-opacity="0.9" stroke="none"/><path d="M 529.4106060606061 455.11875 L 532.6106060606062 455.11875 L 532.6106060606062 457.51874999999995 L 535.0106060606062 457.51874999999995 L 535.0106060606062 460.71875 L 532.6106060606062 460.71875 L 532.6106060606062 463.11875 L 529.4106060606061 463.11875 L 529.4106060606061 460.71875 L 527.0106060606062 460.71875 L 527.0106060606062 457.51874999999995 L 529.4106060606061 457.51874999999995 Z" fill="#1f77b4" fill-opacity="0.9" stroke="none"/><path d="M 529.4106060606061 486.84034090909086 L 532.6106060606062 486.84034090909086 L 532.6106060606062 489.24034090909083 L 535.0106060606062 489.24034090909083 L 535.0106060606062 492.4403409090909 L 532.6106060606062 492.4403409090909 L 532.6106060606062 494.84034090909086 L 529.4106060606061 494.84034090909086 L 529.4106060606061 492.4403409090909 L 527.0106060606062 492.4403409090909 L 527.0106060606062 489.24034090909083 L 529.4106060606061 489.24034090909083 Z" fill="#1f77b4" fill-opacity="0.9" stroke="none"/><path d="M 365.5341750841751 461.51874999999995 C 360.7341750841751 457.51874999999995 363.1341750841751 454.31874999999997 365.5341750841751 458.31874999999997 C 367.9341750841751 454.31874999999997 370.3341750841751 457.51874999999995 365.5341750841751 461.51874999999995 Z" fill="#1f77b4" fill-opacity="0.9" stroke="none"/><path d="M 467.36582491582493 461.51874999999995 C 462.5658249158249 457.51874999999995 464.96582491582495 454.31874999999997 467.36582491582493 458.31874999999997 C 469.7658249158249 454.31874999999997 472.16582491582494 457.51874999999995 467.36582491582493 461.51874999999995 Z" fill="#1f77b4" fill-opacity="0.9" stroke="none"/><path d="M 467.36582491582493 540.8227272727272 C 462.5658249158249 536.8227272727272 464.96582491582495 533.6227272727273 467.36582491582493 537.6227272727273 C 469.7658249158249 533.6227272727273 472.16582491582494 536.8227272727272 467.36582491582493 540.8227272727272 Z" fill="#1f77b4" fill-opacity="0.9" stroke="none"/><path d="M 467.36582491582493 461.51874999999995 C 462.5658249158249 457.51874999999995 464.96582491582495 454.31874999999997 467.36582491582493 458.31874999999997 C 469.7658249158249 454.31874999999997 472.16582491582494 457.51874999999995 467.36582491582493 461.51874999999995 Z" fill="#1f77b4" fill-opacity="0.9" stroke="none"/><path d="M 531.0106060606062 477.3795454545454 C 526.2106060606062 473.3795454545454 528.6106060606062 470.1795454545454 531.0106060606062 474.1795454545454 C 533.4106060606061 470.1795454545454 535.8106060606061 473.3795454545454 531.0106060606062 477.3795454545454 Z" fill="#1f77b4" fill-opacity="0.9" stroke="none"/><path d="M 594.6553872053872 445.6579545454545 C 589.8553872053873 441.6579545454545 592.2553872053873 438.4579545454545 594.6553872053872 442.4579545454545 C 597.0553872053872 438.4579545454545 599.4553872053872 441.6579545454545 594.6553872053872 445.6579545454545 Z" fill="#1f77b4" fill-opacity="0.9" stroke="none"/><path d="M 620.1132996632997 493.24034090909083 C 615.3132996632997 489.24034090909083 617.7132996632997 486.04034090909084 620.1132996632997 490.04034090909084 C 622.5132996632997 486.04034090909084 624.9132996632997 489.24034090909083 620.1132996632997 493.24034090909083 Z" fill="#1f77b4" fill-opacity="0.9" stroke="none"/><path d="M 465.7658249158249 470.9795454545454 L 468.96582491582495 470.9795454545454 L 468.96582491582495 473.3795454545454 L 471.36582491582493 473.3795454545454 L 471.36582491582493 476.57954545454544 L 468.96582491582495 476.57954545454544 L 468.96582491582495 478.9795454545454 L 465.7658249158249 478.9795454545454 L 465.7658249158249 476.57954545454544 L 463.36582491582493 476.57954545454544 L 463.36582491582493 473.3795454545454 L 465.7658249158249 473.3795454545454 Z" fill="#1f77b4" fill-opacity="0.9" stroke="none"/><path d="M 465.7658249158249 534.4227272727272 L 468.96582491582495 534.4227272727272 L 468.96582491582495 536.8227272727272 L 471.36582491582493 536.8227272727272 L 471.36582491582493 540.0227272727273 L 468.96582491582495 540.0227272727273 L 468.96582491582495 542.4227272727272 L 465.7658249158249 542.4227272727272 L 465.7658249158249 540.0227272727273 L 463.36582491582493 540.0227272727273 L 463.36582491582493 536.8227272727272 L 465.7658249158249 536.8227272727272 Z" fill="#1f77b4" fill-opacity="0.9" stroke="none"/><path d="M 465.7658249158249 455.11875 L 468.96582491582495 455.11875 L 468.96582491582495 457.51874999999995 L 471.36582491582493 457.51874999999995 L 471.36582491582493 460.71875 L 468.96582491582495 460.71875 L 468.96582491582495 463.11875 L 465.7658249158249 463.11875 L 465.7658249158249 460.71875 L 463.36582491582493 460.71875 L 463.36582491582493 457.51874999999995 L 465.7658249158249 457.51874999999995 Z" fill="#1f77b4" fill-opacity="0.9" stroke="none"/><path d="M 465.7658249158249 455.11875 L 468.96582491582495 455.11875 L 468.96582491582495 457.51874999999995 L 471.36582491582493 457.51874999999995 L 471.36582491582493 460.71875 L 468.96582491582495 460.71875 L 468.96582491582495 463.11875 L 465.7658249158249 463.11875 L 465.7658249158249 460.71875 L 463.36582491582493 460.71875 L 463.36582491582493 457.51874999999995 L 465.7658249158249 457.51874999999995 Z" fill="#1f77b4" fill-opacity="0.9" stroke="none"/><path d="M 465.7658249158249 470.9795454545454 L 468.96582491582495 470.9795454545454 L 468.96582491582495 473.3795454545454 L 471.36582491582493 473.3795454545454 L 471.36582491582493 476.57954545454544 L 468.96582491582495 476.57954545454544 L 468.96582491582495 478.9795454545454 L 465.7658249158249 478.9795454545454 L 465.7658249158249 476.57954545454544 L 463.36582491582493 476.57954545454544 L 463.36582491582493 473.3795454545454 L 465.7658249158249 473.3795454545454 Z" fill="#1f77b4" fill-opacity="0.9" stroke="none"/><path d="M 465.7658249158249 534.4227272727272 L 468.96582491582495 534.4227272727272 L 468.96582491582495 536.8227272727272 L 471.36582491582493 536.8227272727272 L 471.36582491582493 540.0227272727273 L 468.96582491582495 540.0227272727273 L 468.96582491582495 542.4227272727272 L 465.7658249158249 542.4227272727272 L 465.7658249158249 540.0227272727273 L 463.36582491582493 540.0227272727273 L 463.36582491582493 536.8227272727272 L 465.7658249158249 536.8227272727272 Z" fill="#1f77b4" fill-opacity="0.9" stroke="none"/><path d="M 529.4106060606061 486.84034090909086 L 532.6106060606062 486.84034090909086 L 532.6106060606062 489.24034090909083 L 535.0106060606062 489.24034090909083 L 535.0106060606062 492.4403409090909 L 532.6106060606062 492.4403409090909 L 532.6106060606062 494.84034090909086 L 529.4106060606061 494.84034090909086 L 529.4106060606061 492.4403409090909 L 527.0106060606062 492.4403409090909 L 527.0106060606062 489.24034090909083 L 529.4106060606061 489.24034090909083 Z" fill="#1f77b4" fill-opacity="0.9" stroke="none"/><path d="M 529.4106060606061 470.9795454545454 L 532.6106060606062 470.9795454545454 L 532.6106060606062 473.3795454545454 L 535.0106060606062 473.3795454545454 L 535.0106060606062 476.57954545454544 L 532.6106060606062 476.57954545454544 L 532.6106060606062 478.9795454545454 L 529.4106060606061 478.9795454545454 L 529.4106060606061 476.57954545454544 L 527.0106060606062 476.57954545454544 L 527.0106060606062 473.3795454545454 L 529.4106060606061 473.3795454545454 Z" fill="#1f77b4" fill-opacity="0.9" stroke="none"/><path d="M 593.0553872053872 455.11875 L 596.2553872053873 455.11875 L 596.2553872053873 457.51874999999995 L 598.6553872053872 457.51874999999995 L 598.6553872053872 460.71875 L 596.2553872053873 460.71875 L 596.2553872053873 463.11875 L 593.0553872053872 463.11875 L 593.0553872053872 460.71875 L 590.6553872053872 460.71875 L 590.6553872053872 457.51874999999995 L 593.0553872053872 457.51874999999995 Z" fill="#1f77b4" fill-opacity="0.9" stroke="none"/><path d="M 618.5132996632997 486.84034090909086 L 621.7132996632997 486.84034090909086 L 621.7132996632997 489.24034090909083 L 624.1132996632997 489.24034090909083 L 624.1132996632997 492.4403409090909 L 621.7132996632997 492.4403409090909 L 621.7132996632997 494.84034090909086 L 618.5132996632997 494.84034090909086 L 618.5132996632997 492.4403409090909 L 616.1132996632997 492.4403409090909 L 616.1132996632997 489.24034090909083 L 618.5132996632997 489.24034090909083 Z" fill="#1f77b4" fill-opacity="0.9" stroke="none"/><path d="M 454.6368686868687 461.51874999999995 C 449.8368686868687 457.51874999999995 452.2368686868687 454.31874999999997 454.6368686868687 458.31874999999997 C 457.0368686868687 454.31874999999997 459.4368686868687 457.51874999999995 454.6368686868687 461.51874999999995 Z" fill="#1f77b4" fill-opacity="0.9" stroke="none"/><path d="M 556.4685185185186 461.51874999999995 C 551.6685185185187 457.51874999999995 554.0685185185187 454.31874999999997 556.4685185185186 458.31874999999997 C 558.8685185185186 454.31874999999997 561.2685185185186 457.51874999999995 556.4685185185186 461.51874999999995 Z" fill="#1f77b4" fill-opacity="0.9" stroke="none"/><path d="M 556.4685185185186 445.6579545454545 C 551.6685185185187 441.6579545454545 554.0685185185187 438.4579545454545 556.4685185185186 442.4579545454545 C 558.8685185185186 438.4579545454545 561.2685185185186 441.6579545454545 556.4685185185186 445.6579545454545 Z" fill="#1f77b4" fill-opacity="0.9" stroke="none"/><path d="M 378.2631313131313 461.51874999999995 C 373.46313131313127 457.51874999999995 375.8631313131313 454.31874999999997 378.2631313131313 458.31874999999997 C 380.66313131313126 454.31874999999997 383.0631313131313 457.51874999999995 378.2631313131313 461.51874999999995 Z" fill="#1f77b4" fill-opacity="0.9" stroke="none"/><path d="M 378.2631313131313 429.7971590909091 C 373.46313131313127 425.7971590909091 375.8631313131313 422.5971590909091 378.2631313131313 426.5971590909091 C 380.66313131313126 422.5971590909091 383.0631313131313 425.7971590909091 378.2631313131313 429.7971590909091 Z" fill="#1f77b4" fill-opacity="0.9" stroke="none"/><path d="M 378.2631313131313 461.51874999999995 C 373.46313131313127 457.51874999999995 375.8631313131313 454.31874999999997 378.2631313131313 458.31874999999997 C 380.66313131313126 454.31874999999997 383.0631313131313 457.51874999999995 378.2631313131313 461.51874999999995 Z" fill="#1f77b4" fill-opacity="0.9" stroke="none"/><path d="M 378.2631313131313 429.7971590909091 C 373.46313131313127 425.7971590909091 375.8631313131313 422.5971590909091 378.2631313131313 426.5971590909091 C 380.66313131313126 422.5971590909091 383.0631313131313 425.7971590909091 378.2631313131313 429.7971590909091 Z" fill="#1f77b4" fill-opacity="0.9" stroke="none"/><path d="M 454.6368686868687 429.7971590909091 C 449.8368686868687 425.7971590909091 452.2368686868687 422.5971590909091 454.6368686868687 426.5971590909091 C 457.0368686868687 422.5971590909091 459.4368686868687 425.7971590909091 454.6368686868687 429.7971590909091 Z" fill="#1f77b4" fill-opacity="0.9" stroke="none"/><path d="M 505.5526936026936 461.51874999999995 C 500.75269360269357 457.51874999999995 503.1526936026936 454.31874999999997 505.5526936026936 458.31874999999997 C 507.95269360269356 454.31874999999997 510.3526936026936 457.51874999999995 505.5526936026936 461.51874999999995 Z" fill="#1f77b4" fill-opacity="0.9" stroke="none"/><path d="M 402.1210437710438 455.11875 L 405.32104377104383 455.11875 L 405.32104377104383 457.51874999999995 L 407.7210437710438 457.51874999999995 L 407.7210437710438 460.71875 L 405.32104377104383 460.71875 L 405.32104377104383 463.11875 L 402.1210437710438 463.11875 L 402.1210437710438 460.71875 L 399.7210437710438 460.71875 L 399.7210437710438 457.51874999999995 L 402.1210437710438 457.51874999999995 Z" fill="#1f77b4" fill-opacity="0.9" stroke="none"/><path d="M 402.1210437710438 455.11875 L 405.32104377104383 455.11875 L 405.32104377104383 457.51874999999995 L 407.7210437710438 457.51874999999995 L 407.7210437710438 460.71875 L 405.32104377104383 460.71875 L 405.32104377104383 463.11875 L 402.1210437710438 463.11875 L 402.1210437710438 460.71875 L 399.7210437710438 460.71875 L 399.7210437710438 457.51874999999995 L 402.1210437710438 457.51874999999995 Z" fill="#1f77b4" fill-opacity="0.9" stroke="none"/><path d="M 453.0368686868687 470.9795454545454 L 456.2368686868687 470.9795454545454 L 456.2368686868687 473.3795454545454 L 458.6368686868687 473.3795454545454 L 458.6368686868687 476.57954545454544 L 456.2368686868687 476.57954545454544 L 456.2368686868687 478.9795454545454 L 453.0368686868687 478.9795454545454 L 453.0368686868687 476.57954545454544 L 450.6368686868687 476.57954545454544 L 450.6368686868687 473.3795454545454 L 453.0368686868687 473.3795454545454 Z" fill="#1f77b4" fill-opacity="0.9" stroke="none"/><path d="M 453.0368686868687 470.9795454545454 L 456.2368686868687 470.9795454545454 L 456.2368686868687 473.3795454545454 L 458.6368686868687 473.3795454545454 L 458.6368686868687 476.57954545454544 L 456.2368686868687 476.57954545454544 L 456.2368686868687 478.9795454545454 L 453.0368686868687 478.9795454545454 L 453.0368686868687 476.57954545454544 L 450.6368686868687 476.57954545454544 L 450.6368686868687 473.3795454545454 L 453.0368686868687 473.3795454545454 Z" fill="#1f77b4" fill-opacity="0.9" stroke="none"/><path d="M 453.0368686868687 455.11875 L 456.2368686868687 455.11875 L 456.2368686868687 457.51874999999995 L 458.6368686868687 457.51874999999995 L 458.6368686868687 460.71875 L 456.2368686868687 460.71875 L 456.2368686868687 463.11875 L 453.0368686868687 463.11875 L 453.0368686868687 460.71875 L 450.6368686868687 460.71875 L 450.6368686868687 457.51874999999995 L 453.0368686868687 457.51874999999995 Z" fill="#1f77b4" fill-opacity="0.9" stroke="none"/><path d="M 554.8685185185186 486.84034090909086 L 558.0685185185187 486.84034090909086 L 558.0685185185187 489.24034090909083 L 560.4685185185186 489.24034090909083 L 560.4685185185186 492.4403409090909 L 558.0685185185187 492.4403409090909 L 558.0685185185187 494.84034090909086 L 554.8685185185186 494.84034090909086 L 554.8685185185186 492.4403409090909 L 552.4685185185186 492.4403409090909 L 552.4685185185186 489.24034090909083 L 554.8685185185186 489.24034090909083 Z" fill="#1f77b4" fill-opacity="0.9" stroke="none"/><path d="M 554.8685185185186 455.11875 L 558.0685185185187 455.11875 L 558.0685185185187 457.51874999999995 L 560.4685185185186 457.51874999999995 L 560.4685185185186 460.71875 L 558.0685185185187 460.71875 L 558.0685185185187 463.11875 L 554.8685185185186 463.11875 L 554.8685185185186 460.71875 L 552.4685185185186 460.71875 L 552.4685185185186 457.51874999999995 L 554.8685185185186 457.51874999999995 Z" fill="#1f77b4" fill-opacity="0.9" stroke="none"/><path d="M 352.8052188552188 312.3715909090909 C 357.2052188552188 315.5715909090909 354.8052188552188 318.3715909090909 352.8052188552188 317.97159090909093 C 350.8052188552188 318.3715909090909 348.40521885521883 315.5715909090909 352.8052188552188 312.3715909090909 Z M 351.2052188552188 320.3715909090909 L 354.40521885521883 320.3715909090909 L 352.8052188552188 317.97159090909093 Z" fill="#1f77b4" fill-opacity="0.9" stroke="none"/><path d="M 352.8052188552188 328.23238636363635 C 357.2052188552188 331.43238636363634 354.8052188552188 334.23238636363635 352.8052188552188 333.8323863636364 C 350.8052188552188 334.23238636363635 348.40521885521883 331.43238636363634 352.8052188552188 328.23238636363635 Z M 351.2052188552188 336.23238636363635 L 354.40521885521883 336.23238636363635 L 352.8052188552188 333.8323863636364 Z" fill="#1f77b4" fill-opacity="0.9" stroke="none"/><path d="M 378.2631313131313 312.3715909090909 C 382.66313131313126 315.5715909090909 380.2631313131313 318.3715909090909 378.2631313131313 317.97159090909093 C 376.2631313131313 318.3715909090909 373.8631313131313 315.5715909090909 378.2631313131313 312.3715909090909 Z M 376.66313131313126 320.3715909090909 L 379.8631313131313 320.3715909090909 L 378.2631313131313 317.97159090909093 Z" fill="#1f77b4" fill-opacity="0.9" stroke="none"/><path d="M 378.2631313131313 344.09318181818185 C 382.66313131313126 347.29318181818184 380.2631313131313 350.09318181818185 378.2631313131313 349.69318181818187 C 376.2631313131313 350.09318181818185 373.8631313131313 347.29318181818184 378.2631313131313 344.09318181818185 Z M 376.66313131313126 352.09318181818185 L 379.8631313131313 352.09318181818185 L 378.2631313131313 349.69318181818187 Z" fill="#1f77b4" fill-opacity="0.9" stroke="none"/><path d="M 454.6368686868687 391.67556818181816 C 459.0368686868687 394.87556818181815 456.6368686868687 397.67556818181816 454.6368686868687 397.2755681818182 C 452.6368686868687 397.67556818181816 450.2368686868687 394.87556818181815 454.6368686868687 391.67556818181816 Z M 453.0368686868687 399.67556818181816 L 456.2368686868687 399.67556818181816 L 454.6368686868687 397.2755681818182 Z" fill="#1f77b4" fill-opacity="0.9" stroke="none"/><path d="M 454.6368686868687 375.8147727272727 C 459.0368686868687 379.0147727272727 456.6368686868687 381.8147727272727 454.6368686868687 381.41477272727275 C 452.6368686868687 381.8147727272727 450.2368686868687 379.0147727272727 454.6368686868687 375.8147727272727 Z M 453.0368686868687 383.8147727272727 L 456.2368686868687 383.8147727272727 L 454.6368686868687 381.41477272727275 Z" fill="#1f77b4" fill-opacity="0.9" stroke="none"/><path d="M 454.6368686868687 359.95397727272723 C 459.0368686868687 363.1539772727272 456.6368686868687 365.95397727272723 454.6368686868687 365.55397727272725 C 452.6368686868687 365.95397727272723 450.2368686868687 363.1539772727272 454.6368686868687 359.95397727272723 Z M 453.0368686868687 367.95397727272723 L 456.2368686868687 367.95397727272723 L 454.6368686868687 365.55397727272725 Z" fill="#1f77b4" fill-opacity="0.9" stroke="none"/><path d="M 454.6368686868687 375.8147727272727 C 459.0368686868687 379.0147727272727 456.6368686868687 381.8147727272727 454.6368686868687 381.41477272727275 C 452.6368686868687 381.8147727272727 450.2368686868687 379.0147727272727 454.6368686868687 375.8147727272727 Z M 453.0368686868687 383.8147727272727 L 456.2368686868687 383.8147727272727 L 454.6368686868687 381.41477272727275 Z" fill="#1f77b4" fill-opacity="0.9" stroke="none"/><path d="M 556.4685185185186 407.5363636363636 C 560.8685185185186 410.7363636363636 558.4685185185186 413.5363636363636 556.4685185185186 413.1363636363636 C 554.4685185185186 413.5363636363636 552.0685185185187 410.7363636363636 556.4685185185186 407.5363636363636 Z M 554.8685185185186 415.5363636363636 L 558.0685185185187 415.5363636363636 L 556.4685185185186 413.1363636363636 Z" fill="#1f77b4" fill-opacity="0.9" stroke="none"/><path d="M 72.76818181818183 201.34602272727267 C 77.16818181818184 204.54602272727266 74.76818181818183 207.34602272727267 72.76818181818183 206.94602272727266 C 70.76818181818183 207.34602272727267 68.36818181818182 204.54602272727266 72.76818181818183 201.34602272727267 Z M 71.16818181818184 209.34602272727267 L 74.36818181818182 209.34602272727267 L 72.76818181818183 206.94602272727266 Z" fill="#1f77b4" fill-opacity="0.9" stroke="none"/><path d="M 72.76818181818183 217.20681818181816 C 77.16818181818184 220.40681818181815 74.76818181818183 223.20681818181816 72.76818181818183 222.80681818181816 C 70.76818181818183 223.20681818181816 68.36818181818182 220.40681818181815 72.76818181818183 217.20681818181816 Z M 71.16818181818184 225.20681818181816 L 74.36818181818182 225.20681818181816 L 72.76818181818183 222.80681818181816 Z" fill="#1f77b4" fill-opacity="0.9" stroke="none"/><path d="M 72.76818181818183 217.20681818181816 C 77.16818181818184 220.40681818181815 74.76818181818183 223.20681818181816 72.76818181818183 222.80681818181816 C 70.76818181818183 223.20681818181816 68.36818181818182 220.40681818181815 72.76818181818183 217.20681818181816 Z M 71.16818181818184 225.20681818181816 L 74.36818181818182 225.20681818181816 L 72.76818181818183 222.80681818181816 Z" fill="#1f77b4" fill-opacity="0.9" stroke="none"/><path d="M 72.76818181818183 264.7892045454545 C 77.16818181818184 267.98920454545447 74.76818181818183 270.7892045454545 72.76818181818183 270.3892045454545 C 70.76818181818183 270.7892045454545 68.36818181818182 267.98920454545447 72.76818181818183 264.7892045454545 Z M 71.16818181818184 272.7892045454545 L 74.36818181818182 272.7892045454545 L 72.76818181818183 270.3892045454545 Z" fill="#1f77b4" fill-opacity="0.9" stroke="none"/><path d="M 72.76818181818183 217.20681818181816 C 77.16818181818184 220.40681818181815 74.76818181818183 223.20681818181816 72.76818181818183 222.80681818181816 C 70.76818181818183 223.20681818181816 68.36818181818182 220.40681818181815 72.76818181818183 217.20681818181816 Z M 71.16818181818184 225.20681818181816 L 74.36818181818182 225.20681818181816 L 72.76818181818183 222.80681818181816 Z" fill="#1f77b4" fill-opacity="0.9" stroke="none"/><path d="M 98.22609427609427 185.4852272727273 C 102.62609427609428 188.68522727272727 100.22609427609427 191.4852272727273 98.22609427609427 191.08522727272728 C 96.22609427609427 191.4852272727273 93.82609427609427 188.68522727272727 98.22609427609427 185.4852272727273 Z M 96.62609427609428 193.4852272727273 L 99.82609427609427 193.4852272727273 L 98.22609427609427 191.08522727272728 Z" fill="#1f77b4" fill-opacity="0.9" stroke="none"/><path d="M 98.22609427609427 153.76363636363635 C 102.62609427609428 156.96363636363634 100.22609427609427 159.76363636363635 98.22609427609427 159.36363636363635 C 96.22609427609427 159.76363636363635 93.82609427609427 156.96363636363634 98.22609427609427 153.76363636363635 Z M 96.62609427609428 161.76363636363635 L 99.82609427609427 161.76363636363635 L 98.22609427609427 159.36363636363635 Z" fill="#1f77b4" fill-opacity="0.9" stroke="none"/><path d="M 98.22609427609427 153.76363636363635 C 102.62609427609428 156.96363636363634 100.22609427609427 159.76363636363635 98.22609427609427 159.36363636363635 C 96.22609427609427 159.76363636363635 93.82609427609427 156.96363636363634 98.22609427609427 153.76363636363635 Z M 96.62609427609428 161.76363636363635 L 99.82609427609427 161.76363636363635 L 98.22609427609427 159.36363636363635 Z" fill="#1f77b4" fill-opacity="0.9" stroke="none"/><path d="M 123.68400673400674 264.7892045454545 C 128.08400673400675 267.98920454545447 125.68400673400674 270.7892045454545 123.68400673400674 270.3892045454545 C 121.68400673400674 270.7892045454545 119.28400673400674 267.98920454545447 123.68400673400674 264.7892045454545 Z M 122.08400673400675 272.7892045454545 L 125.28400673400674 272.7892045454545 L 123.68400673400674 270.3892045454545 Z" fill="#1f77b4" fill-opacity="0.9" stroke="none"/><path d="M 170.59983164983166 312.3715909090909 L 178.59983164983166 312.3715909090909 L 178.59983164983166 320.3715909090909 L 170.59983164983166 320.3715909090909 Z" fill="#1f77b4" fill-opacity="0.9" stroke="none"/><path d="M 170.59983164983166 296.5107954545454 L 178.59983164983166 296.5107954545454 L 178.59983164983166 304.5107954545454 L 170.59983164983166 304.5107954545454 Z" fill="#1f77b4" fill-opacity="0.9" stroke="none"/><path d="M 170.59983164983166 248.9284090909091 L 178.59983164983166 248.9284090909091 L 178.59983164983166 256.9284090909091 L 170.59983164983166 256.9284090909091 Z" fill="#1f77b4" fill-opacity="0.9" stroke="none"/><path d="M 170.59983164983166 233.0676136363636 L 178.59983164983166 233.0676136363636 L 178.59983164983166 241.0676136363636 L 170.59983164983166 241.0676136363636 Z" fill="#1f77b4" fill-opacity="0.9" stroke="none"/><path d="M 183.3287878787879 312.3715909090909 L 191.3287878787879 312.3715909090909 L 191.3287878787879 320.3715909090909 L 183.3287878787879 320.3715909090909 Z" fill="#1f77b4" fill-opacity="0.9" stroke="none"/><path d="M 183.3287878787879 312.3715909090909 L 191.3287878787879 312.3715909090909 L 191.3287878787879 320.3715909090909 L 183.3287878787879 320.3715909090909 Z" fill="#1f77b4" fill-opacity="0.9" stroke="none"/><path d="M 285.1604377104377 280.65 L 293.1604377104377 280.65 L 293.1604377104377 288.65 L 285.1604377104377 288.65 Z" fill="#1f77b4" fill-opacity="0.9" stroke="none"/><path d="M 123.68400673400674 312.3715909090909 C 128.08400673400675 315.5715909090909 125.68400673400674 318.3715909090909 123.68400673400674 317.97159090909093 C 121.68400673400674 318.3715909090909 119.28400673400674 315.5715909090909 123.68400673400674 312.3715909090909 Z M 122.08400673400675 320.3715909090909 L 125.28400673400674 320.3715909090909 L 123.68400673400674 317.97159090909093 Z" fill="#1f77b4" fill-opacity="0.9" stroke="none"/><path d="M 123.68400673400674 264.7892045454545 C 128.08400673400675 267.98920454545447 125.68400673400674 270.7892045454545 123.68400673400674 270.3892045454545 C 121.68400673400674 270.7892045454545 119.28400673400674 267.98920454545447 123.68400673400674 264.7892045454545 Z M 122.08400673400675 272.7892045454545 L 125.28400673400674 272.7892045454545 L 123.68400673400674 270.3892045454545 Z" fill="#1f77b4" fill-opacity="0.9" stroke="none"/><path d="M 123.68400673400674 280.65 C 128.08400673400675 283.84999999999997 125.68400673400674 286.65 123.68400673400674 286.25 C 121.68400673400674 286.65 119.28400673400674 283.84999999999997 123.68400673400674 280.65 Z M 122.08400673400675 288.65 L 125.28400673400674 288.65 L 123.68400673400674 286.25 Z" fill="#1f77b4" fill-opacity="0.9" stroke="none"/><path d="M 123.68400673400674 296.5107954545454 C 128.08400673400675 299.7107954545454 125.68400673400674 302.5107954545454 123.68400673400674 302.11079545454544 C 121.68400673400674 302.5107954545454 119.28400673400674 299.7107954545454 123.68400673400674 296.5107954545454 Z M 122.08400673400675 304.5107954545454 L 125.28400673400674 304.5107954545454 L 123.68400673400674 302.11079545454544 Z" fill="#1f77b4" fill-opacity="0.9" stroke="none"/><path d="M 212.78670033670036 344.09318181818185 C 217.18670033670037 347.29318181818184 214.78670033670036 350.09318181818185 212.78670033670036 349.69318181818187 C 210.78670033670036 350.09318181818185 208.38670033670036 347.29318181818184 212.78670033670036 344.09318181818185 Z M 211.18670033670037 352.09318181818185 L 214.38670033670036 352.09318181818185 L 212.78670033670036 349.69318181818187 Z" fill="#1f77b4" fill-opacity="0.9" stroke="none"/><path d="M 212.78670033670036 344.09318181818185 C 217.18670033670037 347.29318181818184 214.78670033670036 350.09318181818185 212.78670033670036 349.69318181818187 C 210.78670033670036 350.09318181818185 208.38670033670036 347.29318181818184 212.78670033670036 344.09318181818185 Z M 211.18670033670037 352.09318181818185 L 214.38670033670036 352.09318181818185 L 212.78670033670036 349.69318181818187 Z" fill="#1f77b4" fill-opacity="0.9" stroke="none"/><path d="M 212.78670033670036 344.09318181818185 C 217.18670033670037 347.29318181818184 214.78670033670036 350.09318181818185 212.78670033670036 349.69318181818187 C 210.78670033670036 350.09318181818185 208.38670033670036 347.29318181818184 212.78670033670036 344.09318181818185 Z M 211.18670033670037 352.09318181818185 L 214.38670033670036 352.09318181818185 L 212.78670033670036 349.69318181818187 Z" fill="#1f77b4" fill-opacity="0.9" stroke="none"/><path d="M 250.97356902356904 382.2147727272727 C 246.17356902356903 378.2147727272727 248.57356902356904 375.0147727272727 250.97356902356904 379.0147727272727 C 253.37356902356905 375.0147727272727 255.77356902356905 378.2147727272727 250.97356902356904 382.2147727272727 Z" fill="#1f77b4" fill-opacity="0.9" stroke="none"/><path d="M 340.0762626262627 429.7971590909091 C 335.2762626262627 425.7971590909091 337.6762626262627 422.5971590909091 340.0762626262627 426.5971590909091 C 342.47626262626267 422.5971590909091 344.8762626262627 425.7971590909091 340.0762626262627 429.7971590909091 Z" fill="#1f77b4" fill-opacity="0.9" stroke="none"/><path d="M 378.2631313131313 413.9363636363636 C 373.46313131313127 409.9363636363636 375.8631313131313 406.7363636363636 378.2631313131313 410.7363636363636 C 380.66313131313126 406.7363636363636 383.0631313131313 409.9363636363636 378.2631313131313 413.9363636363636 Z" fill="#1f77b4" fill-opacity="0.9" stroke="none"/><path d="M 467.36582491582493 461.51874999999995 C 462.5658249158249 457.51874999999995 464.96582491582495 454.31874999999997 467.36582491582493 458.31874999999997 C 469.7658249158249 454.31874999999997 472.16582491582494 457.51874999999995 467.36582491582493 461.51874999999995 Z" fill="#1f77b4" fill-opacity="0.9" stroke="none"/><path d="M 467.36582491582493 540.8227272727272 C 462.5658249158249 536.8227272727272 464.96582491582495 533.6227272727273 467.36582491582493 537.6227272727273 C 469.7658249158249 533.6227272727273 472.16582491582494 536.8227272727272 467.36582491582493 540.8227272727272 Z" fill="#1f77b4" fill-opacity="0.9" stroke="none"/><path d="M 467.36582491582493 429.7971590909091 C 462.5658249158249 425.7971590909091 464.96582491582495 422.5971590909091 467.36582491582493 426.5971590909091 C 469.7658249158249 422.5971590909091 472.16582491582494 425.7971590909091 467.36582491582493 429.7971590909091 Z" fill="#1f77b4" fill-opacity="0.9" stroke="none"/><path d="M 594.6553872053872 445.6579545454545 C 589.8553872053873 441.6579545454545 592.2553872053873 438.4579545454545 594.6553872053872 442.4579545454545 C 597.0553872053872 438.4579545454545 599.4553872053872 441.6579545454545 594.6553872053872 445.6579545454545 Z" fill="#1f77b4" fill-opacity="0.9" stroke="none"/><path d="M 645.571212121212 509.10113636363633 C 640.7712121212121 505.10113636363633 643.1712121212121 501.90113636363634 645.571212121212 505.90113636363634 C 647.971212121212 501.90113636363634 650.371212121212 505.10113636363633 645.571212121212 509.10113636363633 Z" fill="#1f77b4" fill-opacity="0.9" stroke="none"/><path d="M 378.2631313131313 493.24034090909083 C 373.46313131313127 489.24034090909083 375.8631313131313 486.04034090909084 378.2631313131313 490.04034090909084 C 380.66313131313126 486.04034090909084 383.0631313131313 489.24034090909083 378.2631313131313 493.24034090909083 Z" fill="#1f77b4" fill-opacity="0.9" stroke="none"/><path d="M 403.7210437710438 445.6579545454545 C 398.9210437710438 441.6579545454545 401.32104377104383 438.4579545454545 403.7210437710438 442.4579545454545 C 406.1210437710438 438.4579545454545 408.5210437710438 441.6579545454545 403.7210437710438 445.6579545454545 Z" fill="#1f77b4" fill-opacity="0.9" stroke="none"/><path d="M 429.17895622895634 445.6579545454545 C 424.3789562289563 441.6579545454545 426.77895622895636 438.4579545454545 429.17895622895634 442.4579545454545 C 431.5789562289563 438.4579545454545 433.97895622895635 441.6579545454545 429.17895622895634 445.6579545454545 Z" fill="#1f77b4" fill-opacity="0.9" stroke="none"/><path d="M 454.6368686868687 493.24034090909083 C 449.8368686868687 489.24034090909083 452.2368686868687 486.04034090909084 454.6368686868687 490.04034090909084 C 457.0368686868687 486.04034090909084 459.4368686868687 489.24034090909083 454.6368686868687 493.24034090909083 Z" fill="#1f77b4" fill-opacity="0.9" stroke="none"/><path d="M 556.4685185185186 461.51874999999995 C 551.6685185185187 457.51874999999995 554.0685185185187 454.31874999999997 556.4685185185186 458.31874999999997 C 558.8685185185186 454.31874999999997 561.2685185185186 457.51874999999995 556.4685185185186 461.51874999999995 Z" fill="#1f77b4" fill-opacity="0.9" stroke="none"/><path d="M 556.4685185185186 477.3795454545454 C 551.6685185185187 473.3795454545454 554.0685185185187 470.1795454545454 556.4685185185186 474.1795454545454 C 558.8685185185186 470.1795454545454 561.2685185185186 473.3795454545454 556.4685185185186 477.3795454545454 Z" fill="#1f77b4" fill-opacity="0.9" stroke="none"/><path d="M 556.4685185185186 445.6579545454545 C 551.6685185185187 441.6579545454545 554.0685185185187 438.4579545454545 556.4685185185186 442.4579545454545 C 558.8685185185186 438.4579545454545 561.2685185185186 441.6579545454545 556.4685185185186 445.6579545454545 Z" fill="#1f77b4" fill-opacity="0.9" stroke="none"/><path d="M 378.2631313131313 461.51874999999995 C 373.46313131313127 457.51874999999995 375.8631313131313 454.31874999999997 378.2631313131313 458.31874999999997 C 380.66313131313126 454.31874999999997 383.0631313131313 457.51874999999995 378.2631313131313 461.51874999999995 Z" fill="#1f77b4" fill-opacity="0.9" stroke="none"/><path d="M 378.2631313131313 429.7971590909091 C 373.46313131313127 425.7971590909091 375.8631313131313 422.5971590909091 378.2631313131313 426.5971590909091 C 380.66313131313126 422.5971590909091 383.0631313131313 425.7971590909091 378.2631313131313 429.7971590909091 Z" fill="#1f77b4" fill-opacity="0.9" stroke="none"/><path d="M 454.6368686868687 429.7971590909091 C 449.8368686868687 425.7971590909091 452.2368686868687 422.5971590909091 454.6368686868687 426.5971590909091 C 457.0368686868687 422.5971590909091 459.4368686868687 425.7971590909091 454.6368686868687 429.7971590909091 Z" fill="#1f77b4" fill-opacity="0.9" stroke="none"/><path d="M 505.5526936026936 461.51874999999995 C 500.75269360269357 457.51874999999995 503.1526936026936 454.31874999999997 505.5526936026936 458.31874999999997 C 507.95269360269356 454.31874999999997 510.3526936026936 457.51874999999995 505.5526936026936 461.51874999999995 Z" fill="#1f77b4" fill-opacity="0.9" stroke="none"/><path d="M 174.59983164983166 264.7892045454545 L 178.59983164983166 272.7892045454545 L 170.59983164983166 272.7892045454545 Z" fill="#1f77b4" fill-opacity="0.9" stroke="none"/><path d="M 174.59983164983166 296.5107954545454 L 178.59983164983166 304.5107954545454 L 170.59983164983166 304.5107954545454 Z" fill="#1f77b4" fill-opacity="0.9" stroke="none"/><path d="M 183.3287878787879 233.0676136363636 L 191.3287878787879 233.0676136363636 L 191.3287878787879 241.0676136363636 L 183.3287878787879 241.0676136363636 Z" fill="#1f77b4" fill-opacity="0.9" stroke="none"/><path d="M 183.3287878787879 217.20681818181816 L 191.3287878787879 217.20681818181816 L 191.3287878787879 225.20681818181816 L 183.3287878787879 225.20681818181816 Z" fill="#1f77b4" fill-opacity="0.9" stroke="none"/><path d="M 310.61835016835016 296.5107954545454 L 318.61835016835016 296.5107954545454 L 318.61835016835016 304.5107954545454 L 310.61835016835016 304.5107954545454 Z" fill="#1f77b4" fill-opacity="0.9" stroke="none"/><path d="M 310.61835016835016 312.3715909090909 L 318.61835016835016 312.3715909090909 L 318.61835016835016 320.3715909090909 L 310.61835016835016 320.3715909090909 Z" fill="#1f77b4" fill-opacity="0.9" stroke="none"/><path d="M 246.97356902356904 312.3715909090909 L 254.97356902356904 312.3715909090909 L 254.97356902356904 320.3715909090909 L 246.97356902356904 320.3715909090909 Z" fill="#1f77b4" fill-opacity="0.9" stroke="none"/><path d="M 246.97356902356904 328.23238636363635 L 254.97356902356904 328.23238636363635 L 254.97356902356904 336.23238636363635 L 246.97356902356904 336.23238636363635 Z" fill="#1f77b4" fill-opacity="0.9" stroke="none"/><path d="M 310.61835016835016 328.23238636363635 L 318.61835016835016 328.23238636363635 L 318.61835016835016 336.23238636363635 L 310.61835016835016 336.23238636363635 Z" fill="#1f77b4" fill-opacity="0.9" stroke="none"/><path d="M 289.1604377104377 461.51874999999995 C 284.3604377104377 457.51874999999995 286.7604377104377 454.31874999999997 289.1604377104377 458.31874999999997 C 291.56043771043767 454.31874999999997 293.9604377104377 457.51874999999995 289.1604377104377 461.51874999999995 Z" fill="#1f77b4" fill-opacity="0.9" stroke="none"/><path d="M 289.1604377104377 461.51874999999995 C 284.3604377104377 457.51874999999995 286.7604377104377 454.31874999999997 289.1604377104377 458.31874999999997 C 291.56043771043767 454.31874999999997 293.9604377104377 457.51874999999995 289.1604377104377 461.51874999999995 Z" fill="#1f77b4" fill-opacity="0.9" stroke="none"/><path d="M 378.2631313131313 413.9363636363636 C 373.46313131313127 409.9363636363636 375.8631313131313 406.7363636363636 378.2631313131313 410.7363636363636 C 380.66313131313126 406.7363636363636 383.0631313131313 409.9363636363636 378.2631313131313 413.9363636363636 Z" fill="#1f77b4" fill-opacity="0.9" stroke="none"/><path d="M 581.926430976431 445.6579545454545 C 577.126430976431 441.6579545454545 579.526430976431 438.4579545454545 581.926430976431 442.4579545454545 C 584.326430976431 438.4579545454545 586.726430976431 441.6579545454545 581.926430976431 445.6579545454545 Z" fill="#1f77b4" fill-opacity="0.9" stroke="none"/><path d="M 259.7025252525253 312.3715909090909 L 267.7025252525253 312.3715909090909 L 267.7025252525253 320.3715909090909 L 259.7025252525253 320.3715909090909 Z" fill="#1f77b4" fill-opacity="0.9" stroke="none"/><path d="M 348.8052188552188 312.3715909090909 L 356.8052188552188 312.3715909090909 L 356.8052188552188 320.3715909090909 L 348.8052188552188 320.3715909090909 Z" fill="#1f77b4" fill-opacity="0.9" stroke="none"/><path d="M 348.8052188552188 296.5107954545454 L 356.8052188552188 296.5107954545454 L 356.8052188552188 304.5107954545454 L 348.8052188552188 304.5107954545454 Z" fill="#1f77b4" fill-opacity="0.9" stroke="none"/><path d="M 348.8052188552188 280.65 L 356.8052188552188 280.65 L 356.8052188552188 288.65 L 348.8052188552188 288.65 Z" fill="#1f77b4" fill-opacity="0.9" stroke="none"/><path d="M 539.7395622895623 328.23238636363635 L 547.7395622895623 328.23238636363635 L 547.7395622895623 336.23238636363635 L 539.7395622895623 336.23238636363635 Z" fill="#1f77b4" fill-opacity="0.9" stroke="none"/><path d="M 187.3287878787879 334.63238636363633 C 182.52878787878788 330.63238636363633 184.9287878787879 327.43238636363634 187.3287878787879 331.43238636363634 C 189.7287878787879 327.43238636363634 192.1287878787879 330.63238636363633 187.3287878787879 334.63238636363633 Z" fill="#1f77b4" fill-opacity="0.9" stroke="none"/><path d="M 187.3287878787879 350.4931818181818 C 182.52878787878788 346.4931818181818 184.9287878787879 343.29318181818184 187.3287878787879 347.29318181818184 C 189.7287878787879 343.29318181818184 192.1287878787879 346.4931818181818 187.3287878787879 350.4931818181818 Z" fill="#1f77b4" fill-opacity="0.9" stroke="none"/><path d="M 187.3287878787879 302.9107954545454 C 182.52878787878788 298.9107954545454 184.9287878787879 295.7107954545454 187.3287878787879 299.7107954545454 C 189.7287878787879 295.7107954545454 192.1287878787879 298.9107954545454 187.3287878787879 302.9107954545454 Z" fill="#1f77b4" fill-opacity="0.9" stroke="none"/><path d="M 187.3287878787879 334.63238636363633 C 182.52878787878788 330.63238636363633 184.9287878787879 327.43238636363634 187.3287878787879 331.43238636363634 C 189.7287878787879 327.43238636363634 192.1287878787879 330.63238636363633 187.3287878787879 334.63238636363633 Z" fill="#1f77b4" fill-opacity="0.9" stroke="none"/><path d="M 187.3287878787879 318.7715909090909 C 182.52878787878788 314.7715909090909 184.9287878787879 311.5715909090909 187.3287878787879 315.5715909090909 C 189.7287878787879 311.5715909090909 192.1287878787879 314.7715909090909 187.3287878787879 318.7715909090909 Z" fill="#1f77b4" fill-opacity="0.9" stroke="none"/><path d="M 187.3287878787879 366.3539772727272 C 182.52878787878788 362.3539772727272 184.9287878787879 359.1539772727272 187.3287878787879 363.1539772727272 C 189.7287878787879 359.1539772727272 192.1287878787879 362.3539772727272 187.3287878787879 366.3539772727272 Z" fill="#1f77b4" fill-opacity="0.9" stroke="none"/><path d="M 149.14191919191921 312.3715909090909 C 153.54191919191922 315.5715909090909 151.14191919191921 318.3715909090909 149.14191919191921 317.97159090909093 C 147.14191919191921 318.3715909090909 144.7419191919192 315.5715909090909 149.14191919191921 312.3715909090909 Z M 147.54191919191922 320.3715909090909 L 150.7419191919192 320.3715909090909 L 149.14191919191921 317.97159090909093 Z" fill="#1f77b4" fill-opacity="0.9" stroke="none"/><path d="M 149.14191919191921 312.3715909090909 C 153.54191919191922 315.5715909090909 151.14191919191921 318.3715909090909 149.14191919191921 317.97159090909093 C 147.14191919191921 318.3715909090909 144.7419191919192 315.5715909090909 149.14191919191921 312.3715909090909 Z M 147.54191919191922 320.3715909090909 L 150.7419191919192 320.3715909090909 L 149.14191919191921 317.97159090909093 Z" fill="#1f77b4" fill-opacity="0.9" stroke="none"/><path d="M 187.3287878787879 312.3715909090909 C 191.7287878787879 315.5715909090909 189.3287878787879 318.3715909090909 187.3287878787879 317.97159090909093 C 185.3287878787879 318.3715909090909 182.9287878787879 315.5715909090909 187.3287878787879 312.3715909090909 Z M 185.7287878787879 320.3715909090909 L 188.9287878787879 320.3715909090909 L 187.3287878787879 317.97159090909093 Z" fill="#1f77b4" fill-opacity="0.9" stroke="none"/><path d="M 187.3287878787879 312.3715909090909 C 191.7287878787879 315.5715909090909 189.3287878787879 318.3715909090909 187.3287878787879 317.97159090909093 C 185.3287878787879 318.3715909090909 182.9287878787879 315.5715909090909 187.3287878787879 312.3715909090909 Z M 185.7287878787879 320.3715909090909 L 188.9287878787879 320.3715909090909 L 187.3287878787879 317.97159090909093 Z" fill="#1f77b4" fill-opacity="0.9" stroke="none"/><path d="M 187.3287878787879 328.23238636363635 L 191.3287878787879 336.23238636363635 L 183.3287878787879 336.23238636363635 Z" fill="#1f77b4" fill-opacity="0.9" stroke="none"/><path d="M 187.3287878787879 296.5107954545454 L 191.3287878787879 304.5107954545454 L 183.3287878787879 304.5107954545454 Z" fill="#1f77b4" fill-opacity="0.9" stroke="none"/><path d="M 187.3287878787879 328.23238636363635 L 191.3287878787879 336.23238636363635 L 183.3287878787879 336.23238636363635 Z" fill="#1f77b4" fill-opacity="0.9" stroke="none"/><path d="M 187.3287878787879 296.5107954545454 L 191.3287878787879 304.5107954545454 L 183.3287878787879 304.5107954545454 Z" fill="#1f77b4" fill-opacity="0.9" stroke="none"/><path d="M 212.78670033670036 413.9363636363636 C 207.98670033670035 409.9363636363636 210.38670033670036 406.7363636363636 212.78670033670036 410.7363636363636 C 215.18670033670037 406.7363636363636 217.58670033670037 409.9363636363636 212.78670033670036 413.9363636363636 Z" fill="#1f77b4" fill-opacity="0.9" stroke="none"/><path d="M 212.78670033670036 413.9363636363636 C 207.98670033670035 409.9363636363636 210.38670033670036 406.7363636363636 212.78670033670036 410.7363636363636 C 215.18670033670037 406.7363636363636 217.58670033670037 409.9363636363636 212.78670033670036 413.9363636363636 Z" fill="#1f77b4" fill-opacity="0.9" stroke="none"/><path d="M 301.8893939393939 429.7971590909091 C 297.0893939393939 425.7971590909091 299.48939393939395 422.5971590909091 301.8893939393939 426.5971590909091 C 304.2893939393939 422.5971590909091 306.68939393939394 425.7971590909091 301.8893939393939 429.7971590909091 Z" fill="#1f77b4" fill-opacity="0.9" stroke="none"/><path d="M 301.8893939393939 461.51874999999995 C 297.0893939393939 457.51874999999995 299.48939393939395 454.31874999999997 301.8893939393939 458.31874999999997 C 304.2893939393939 454.31874999999997 306.68939393939394 457.51874999999995 301.8893939393939 461.51874999999995 Z" fill="#1f77b4" fill-opacity="0.9" stroke="none"/><path d="M 378.2631313131313 413.9363636363636 C 373.46313131313127 409.9363636363636 375.8631313131313 406.7363636363636 378.2631313131313 410.7363636363636 C 380.66313131313126 406.7363636363636 383.0631313131313 409.9363636363636 378.2631313131313 413.9363636363636 Z" fill="#1f77b4" fill-opacity="0.9" stroke="none"/><path d="M 467.36582491582493 461.51874999999995 C 462.5658249158249 457.51874999999995 464.96582491582495 454.31874999999997 467.36582491582493 458.31874999999997 C 469.7658249158249 454.31874999999997 472.16582491582494 457.51874999999995 467.36582491582493 461.51874999999995 Z" fill="#1f77b4" fill-opacity="0.9" stroke="none"/><path d="M 145.14191919191921 264.7892045454545 L 153.14191919191921 264.7892045454545 L 153.14191919191921 272.7892045454545 L 145.14191919191921 272.7892045454545 Z" fill="#1f77b4" fill-opacity="0.9" stroke="none"/><path d="M 145.14191919191921 296.5107954545454 L 153.14191919191921 296.5107954545454 L 153.14191919191921 304.5107954545454 L 145.14191919191921 304.5107954545454 Z" fill="#1f77b4" fill-opacity="0.9" stroke="none"/><path d="M 170.59983164983166 233.0676136363636 L 178.59983164983166 233.0676136363636 L 178.59983164983166 241.0676136363636 L 170.59983164983166 241.0676136363636 Z" fill="#1f77b4" fill-opacity="0.9" stroke="none"/><path d="M 170.59983164983166 233.0676136363636 L 178.59983164983166 233.0676136363636 L 178.59983164983166 241.0676136363636 L 170.59983164983166 241.0676136363636 Z" fill="#1f77b4" fill-opacity="0.9" stroke="none"/><path d="M 246.97356902356904 312.3715909090909 L 254.97356902356904 312.3715909090909 L 254.97356902356904 320.3715909090909 L 246.97356902356904 320.3715909090909 Z" fill="#1f77b4" fill-opacity="0.9" stroke="none"/><path d="M 246.97356902356904 312.3715909090909 L 254.97356902356904 312.3715909090909 L 254.97356902356904 320.3715909090909 L 246.97356902356904 320.3715909090909 Z" fill="#1f77b4" fill-opacity="0.9" stroke="none"/><path d="M 310.61835016835016 280.65 L 318.61835016835016 280.65 L 318.61835016835016 288.65 L 310.61835016835016 288.65 Z" fill="#1f77b4" fill-opacity="0.9" stroke="none"/><path d="M 149.14191919191921 296.5107954545454 L 153.14191919191921 304.5107954545454 L 145.14191919191921 304.5107954545454 Z" fill="#1f77b4" fill-opacity="0.9" stroke="none"/><path d="M 149.14191919191921 264.7892045454545 L 153.14191919191921 272.7892045454545 L 145.14191919191921 272.7892045454545 Z" fill="#1f77b4" fill-opacity="0.9" stroke="none"/><path d="M 174.59983164983166 233.0676136363636 L 178.59983164983166 241.0676136363636 L 170.59983164983166 241.0676136363636 Z" fill="#1f77b4" fill-opacity="0.9" stroke="none"/><path d="M 174.59983164983166 233.0676136363636 L 178.59983164983166 241.0676136363636 L 170.59983164983166 241.0676136363636 Z" fill="#1f77b4" fill-opacity="0.9" stroke="none"/><path d="M 250.97356902356904 312.3715909090909 L 254.97356902356904 320.3715909090909 L 246.97356902356904 320.3715909090909 Z" fill="#1f77b4" fill-opacity="0.9" stroke="none"/><path d="M 250.97356902356904 312.3715909090909 L 254.97356902356904 320.3715909090909 L 246.97356902356904 320.3715909090909 Z" fill="#1f77b4" fill-opacity="0.9" stroke="none"/><path d="M 289.1604377104377 296.5107954545454 L 293.1604377104377 304.5107954545454 L 285.1604377104377 304.5107954545454 Z" fill="#1f77b4" fill-opacity="0.9" stroke="none"/><path d="M 98.22609427609427 248.9284090909091 L 102.22609427609427 256.9284090909091 L 94.22609427609427 256.9284090909091 Z" fill="#1f77b4" fill-opacity="0.9" stroke="none"/><path d="M 98.22609427609427 201.34602272727267 L 102.22609427609427 209.34602272727267 L 94.22609427609427 209.34602272727267 Z" fill="#1f77b4" fill-opacity="0.9" stroke="none"/><path d="M 98.22609427609427 169.6244318181818 L 102.22609427609427 177.6244318181818 L 94.22609427609427 177.6244318181818 Z" fill="#1f77b4" fill-opacity="0.9" stroke="none"/><path d="M 98.22609427609427 137.9028409090909 L 102.22609427609427 145.9028409090909 L 94.22609427609427 145.9028409090909 Z" fill="#1f77b4" fill-opacity="0.9" stroke="none"/><path d="M 98.22609427609427 169.6244318181818 L 102.22609427609427 177.6244318181818 L 94.22609427609427 177.6244318181818 Z" fill="#1f77b4" fill-opacity="0.9" stroke="none"/><path d="M 467.36582491582493 493.24034090909083 C 462.5658249158249 489.24034090909083 464.96582491582495 486.04034090909084 467.36582491582493 490.04034090909084 C 469.7658249158249 486.04034090909084 472.16582491582494 489.24034090909083 467.36582491582493 493.24034090909083 Z" fill="#1f77b4" fill-opacity="0.9" stroke="none"/><path d="M 594.6553872053872 445.6579545454545 C 589.8553872053873 441.6579545454545 592.2553872053873 438.4579545454545 594.6553872053872 442.4579545454545 C 597.0553872053872 438.4579545454545 599.4553872053872 441.6579545454545 594.6553872053872 445.6579545454545 Z" fill="#1f77b4" fill-opacity="0.9" stroke="none"/><path d="M 211.18670033670037 407.5363636363636 L 214.38670033670036 407.5363636363636 L 214.38670033670036 409.9363636363636 L 216.78670033670036 409.9363636363636 L 216.78670033670036 413.1363636363636 L 214.38670033670036 413.1363636363636 L 214.38670033670036 415.5363636363636 L 211.18670033670037 415.5363636363636 L 211.18670033670037 413.1363636363636 L 208.78670033670036 413.1363636363636 L 208.78670033670036 409.9363636363636 L 211.18670033670037 409.9363636363636 Z" fill="#1f77b4" fill-opacity="0.9" stroke="none"/><path d="M 211.18670033670037 407.5363636363636 L 214.38670033670036 407.5363636363636 L 214.38670033670036 409.9363636363636 L 216.78670033670036 409.9363636363636 L 216.78670033670036 413.1363636363636 L 214.38670033670036 413.1363636363636 L 214.38670033670036 415.5363636363636 L 211.18670033670037 415.5363636363636 L 211.18670033670037 413.1363636363636 L 208.78670033670036 413.1363636363636 L 208.78670033670036 409.9363636363636 L 211.18670033670037 409.9363636363636 Z" fill="#1f77b4" fill-opacity="0.9" stroke="none"/><path d="M 211.18670033670037 375.8147727272727 L 214.38670033670036 375.8147727272727 L 214.38670033670036 378.2147727272727 L 216.78670033670036 378.2147727272727 L 216.78670033670036 381.41477272727275 L 214.38670033670036 381.41477272727275 L 214.38670033670036 383.8147727272727 L 211.18670033670037 383.8147727272727 L 211.18670033670037 381.41477272727275 L 208.78670033670036 381.41477272727275 L 208.78670033670036 378.2147727272727 L 211.18670033670037 378.2147727272727 Z" fill="#1f77b4" fill-opacity="0.9" stroke="none"/><path d="M 300.2893939393939 455.11875 L 303.48939393939395 455.11875 L 303.48939393939395 457.51874999999995 L 305.8893939393939 457.51874999999995 L 305.8893939393939 460.71875 L 303.48939393939395 460.71875 L 303.48939393939395 463.11875 L 300.2893939393939 463.11875 L 300.2893939393939 460.71875 L 297.8893939393939 460.71875 L 297.8893939393939 457.51874999999995 L 300.2893939393939 457.51874999999995 Z" fill="#1f77b4" fill-opacity="0.9" stroke="none"/><path d="M 300.2893939393939 423.3971590909091 L 303.48939393939395 423.3971590909091 L 303.48939393939395 425.7971590909091 L 305.8893939393939 425.7971590909091 L 305.8893939393939 428.9971590909091 L 303.48939393939395 428.9971590909091 L 303.48939393939395 431.3971590909091 L 300.2893939393939 431.3971590909091 L 300.2893939393939 428.9971590909091 L 297.8893939393939 428.9971590909091 L 297.8893939393939 425.7971590909091 L 300.2893939393939 425.7971590909091 Z" fill="#1f77b4" fill-opacity="0.9" stroke="none"/><path d="M 376.66313131313126 439.25795454545454 L 379.8631313131313 439.25795454545454 L 379.8631313131313 441.6579545454545 L 382.2631313131313 441.6579545454545 L 382.2631313131313 444.85795454545456 L 379.8631313131313 444.85795454545456 L 379.8631313131313 447.25795454545454 L 376.66313131313126 447.25795454545454 L 376.66313131313126 444.85795454545456 L 374.2631313131313 444.85795454545456 L 374.2631313131313 441.6579545454545 L 376.66313131313126 441.6579545454545 Z" fill="#1f77b4" fill-opacity="0.9" stroke="none"/><path d="M 376.66313131313126 407.5363636363636 L 379.8631313131313 407.5363636363636 L 379.8631313131313 409.9363636363636 L 382.2631313131313 409.9363636363636 L 382.2631313131313 413.1363636363636 L 379.8631313131313 413.1363636363636 L 379.8631313131313 415.5363636363636 L 376.66313131313126 415.5363636363636 L 376.66313131313126 413.1363636363636 L 374.2631313131313 413.1363636363636 L 374.2631313131313 409.9363636363636 L 376.66313131313126 409.9363636363636 Z" fill="#1f77b4" fill-opacity="0.9" stroke="none"/><path d="M 123.68400673400674 264.7892045454545 L 127.68400673400674 272.7892045454545 L 119.68400673400674 272.7892045454545 Z" fill="#1f77b4" fill-opacity="0.9" stroke="none"/><path d="M 123.68400673400674 312.3715909090909 L 127.68400673400674 320.3715909090909 L 119.68400673400674 320.3715909090909 Z" fill="#1f77b4" fill-opacity="0.9" stroke="none"/><path d="M 123.68400673400674 264.7892045454545 L 127.68400673400674 272.7892045454545 L 119.68400673400674 272.7892045454545 Z" fill="#1f77b4" fill-opacity="0.9" stroke="none"/><path d="M 123.68400673400674 264.7892045454545 L 127.68400673400674 272.7892045454545 L 119.68400673400674 272.7892045454545 Z" fill="#1f77b4" fill-opacity="0.9" stroke="none"/><path d="M 225.51565656565657 344.09318181818185 L 229.51565656565657 352.09318181818185 L 221.51565656565657 352.09318181818185 Z" fill="#1f77b4" fill-opacity="0.9" stroke="none"/><path d="M 110.95505050505048 26.877272727272725 L 114.95505050505048 34.877272727272725 L 106.95505050505048 34.877272727272725 Z" fill="#1f77b4" fill-opacity="0.9" stroke="none"/><path d="M 123.68400673400674 264.7892045454545 L 127.68400673400674 272.7892045454545 L 119.68400673400674 272.7892045454545 Z" fill="#1f77b4" fill-opacity="0.9" stroke="none"/><path d="M 123.68400673400674 312.3715909090909 L 127.68400673400674 320.3715909090909 L 119.68400673400674 320.3715909090909 Z" fill="#1f77b4" fill-opacity="0.9" stroke="none"/><path d="M 123.68400673400674 264.7892045454545 L 127.68400673400674 272.7892045454545 L 119.68400673400674 272.7892045454545 Z" fill="#1f77b4" fill-opacity="0.9" stroke="none"/><path d="M 123.68400673400674 264.7892045454545 L 127.68400673400674 272.7892045454545 L 119.68400673400674 272.7892045454545 Z" fill="#1f77b4" fill-opacity="0.9" stroke="none"/><path d="M 187.3287878787879 264.7892045454545 L 191.3287878787879 272.7892045454545 L 183.3287878787879 272.7892045454545 Z" fill="#1f77b4" fill-opacity="0.9" stroke="none"/><path d="M 187.3287878787879 264.7892045454545 L 191.3287878787879 272.7892045454545 L 183.3287878787879 272.7892045454545 Z" fill="#1f77b4" fill-opacity="0.9" stroke="none"/><path d="M 225.51565656565657 359.95397727272723 L 229.51565656565657 367.95397727272723 L 221.51565656565657 367.95397727272723 Z" fill="#1f77b4" fill-opacity="0.9" stroke="none"/><path d="M 225.51565656565657 344.09318181818185 L 229.51565656565657 352.09318181818185 L 221.51565656565657 352.09318181818185 Z" fill="#1f77b4" fill-opacity="0.9" stroke="none"/><path d="M 110.95505050505048 26.877272727272725 C 115.35505050505049 30.077272727272724 112.95505050505048 32.877272727272725 110.95505050505048 32.47727272727273 C 108.95505050505048 32.877272727272725 106.55505050505047 30.077272727272724 110.95505050505048 26.877272727272725 Z M 109.35505050505049 34.877272727272725 L 112.55505050505047 34.877272727272725 L 110.95505050505048 32.47727272727273 Z" fill="#1f77b4" fill-opacity="0.9" stroke="none"/><path d="M 110.95505050505048 74.4596590909091 C 115.35505050505049 77.6596590909091 112.95505050505048 80.4596590909091 110.95505050505048 80.0596590909091 C 108.95505050505048 80.4596590909091 106.55505050505047 77.6596590909091 110.95505050505048 74.4596590909091 Z M 109.35505050505049 82.4596590909091 L 112.55505050505047 82.4596590909091 L 110.95505050505048 80.0596590909091 Z" fill="#1f77b4" fill-opacity="0.9" stroke="none"/><path d="M 123.68400673400674 264.7892045454545 C 128.08400673400675 267.98920454545447 125.68400673400674 270.7892045454545 123.68400673400674 270.3892045454545 C 121.68400673400674 270.7892045454545 119.28400673400674 267.98920454545447 123.68400673400674 264.7892045454545 Z M 122.08400673400675 272.7892045454545 L 125.28400673400674 272.7892045454545 L 123.68400673400674 270.3892045454545 Z" fill="#1f77b4" fill-opacity="0.9" stroke="none"/><path d="M 123.68400673400674 312.3715909090909 C 128.08400673400675 315.5715909090909 125.68400673400674 318.3715909090909 123.68400673400674 317.97159090909093 C 121.68400673400674 318.3715909090909 119.28400673400674 315.5715909090909 123.68400673400674 312.3715909090909 Z M 122.08400673400675 320.3715909090909 L 125.28400673400674 320.3715909090909 L 123.68400673400674 317.97159090909093 Z" fill="#1f77b4" fill-opacity="0.9" stroke="none"/><path d="M 187.3287878787879 280.65 C 191.7287878787879 283.84999999999997 189.3287878787879 286.65 187.3287878787879 286.25 C 185.3287878787879 286.65 182.9287878787879 283.84999999999997 187.3287878787879 280.65 Z M 185.7287878787879 288.65 L 188.9287878787879 288.65 L 187.3287878787879 286.25 Z" fill="#1f77b4" fill-opacity="0.9" stroke="none"/><path d="M 187.3287878787879 264.7892045454545 C 191.7287878787879 267.98920454545447 189.3287878787879 270.7892045454545 187.3287878787879 270.3892045454545 C 185.3287878787879 270.7892045454545 182.9287878787879 267.98920454545447 187.3287878787879 264.7892045454545 Z M 185.7287878787879 272.7892045454545 L 188.9287878787879 272.7892045454545 L 187.3287878787879 270.3892045454545 Z" fill="#1f77b4" fill-opacity="0.9" stroke="none"/><path d="M 94.22609427609427 264.7892045454545 L 102.22609427609427 264.7892045454545 L 102.22609427609427 272.7892045454545 L 94.22609427609427 272.7892045454545 Z" fill="#1f77b4" fill-opacity="0.9" stroke="none"/><path d="M 94.22609427609427 264.7892045454545 L 102.22609427609427 264.7892045454545 L 102.22609427609427 272.7892045454545 L 94.22609427609427 272.7892045454545 Z" fill="#1f77b4" fill-opacity="0.9" stroke="none"/><path d="M 119.68400673400674 280.65 L 127.68400673400674 280.65 L 127.68400673400674 288.65 L 119.68400673400674 288.65 Z" fill="#1f77b4" fill-opacity="0.9" stroke="none"/><path d="M 119.68400673400674 264.7892045454545 L 127.68400673400674 264.7892045454545 L 127.68400673400674 272.7892045454545 L 119.68400673400674 272.7892045454545 Z" fill="#1f77b4" fill-opacity="0.9" stroke="none"/><path d="M 221.51565656565657 312.3715909090909 L 229.51565656565657 312.3715909090909 L 229.51565656565657 320.3715909090909 L 221.51565656565657 320.3715909090909 Z" fill="#1f77b4" fill-opacity="0.9" stroke="none"/><path d="M 221.51565656565657 312.3715909090909 L 229.51565656565657 312.3715909090909 L 229.51565656565657 320.3715909090909 L 221.51565656565657 320.3715909090909 Z" fill="#1f77b4" fill-opacity="0.9" stroke="none"/><path d="M 323.3473063973064 312.3715909090909 L 331.3473063973064 312.3715909090909 L 331.3473063973064 320.3715909090909 L 323.3473063973064 320.3715909090909 Z" fill="#1f77b4" fill-opacity="0.9" stroke="none"/></svg>