<svg xmlns="http://www.w3.org/2000/svg" width="624" height="384" viewBox="0 0 624 384"><rect x="0.0" y="0.0" width="624.0" height="384.0" fill="#ffffff" fill-opacity="1.0" stroke="none"/><rect x="46.346666666666664" y="7.333333333333333" width="570.3199999999999" height="332.66666666666663" fill="#ebebeb" fill-opacity="1.0" stroke="none"/><line x1="62.66895622895622" y1="7.333333333333333" x2="62.66895622895622" y2="340.0" stroke="#ffffff" stroke-width="0.6666666666666666"/><line x1="158.68242424242422" y1="7.333333333333333" x2="158.68242424242422" y2="340.0" stroke="#ffffff" stroke-width="0.6666666666666666"/><line x1="254.69589225589223" y1="7.333333333333333" x2="254.69589225589223" y2="340.0" stroke="#ffffff" stroke-width="0.6666666666666666"/><line x1="350.70936026936033" y1="7.333333333333333" x2="350.70936026936033" y2="340.0" stroke="#ffffff" stroke-width="0.6666666666666666"/><line x1="446.7228282828283" y1="7.333333333333333" x2="446.7228282828283" y2="340.0" stroke="#ffffff" stroke-width="0.6666666666666666"/><line x1="542.7362962962964" y1="7.333333333333333" x2="542.7362962962964" y2="340.0" stroke="#ffffff" stroke-width="0.6666666666666666"/><line x1="110.67569023569024" y1="7.333333333333333" x2="110.67569023569024" y2="340.0" stroke="#ffffff" stroke-width="1.3333333333333333"/><line x1="206.68915824915825" y1="7.333333333333333" x2="206.68915824915825" y2="340.0" stroke="#ffffff" stroke-width="1.3333333333333333"/><line x1="302.70262626262627" y1="7.333333333333333" x2="302.70262626262627" y2="340.0" stroke="#ffffff" stroke-width="1.3333333333333333"/><line x1="398.7160942760943" y1="7.333333333333333" x2="398.7160942760943" y2="340.0" stroke="#ffffff" stroke-width="1.3333333333333333"/><line x1="494.7295622895623" y1="7.333333333333333" x2="494.7295622895623" y2="340.0" stroke="#ffffff" stroke-width="1.3333333333333333"/><line x1="590.7430303030303" y1="7.333333333333333" x2="590.7430303030303" y2="340.0" stroke="#ffffff" stroke-width="1.3333333333333333"/><line x1="46.346666666666664" y1="293.1769551121383" x2="616.6666666666666" y2="293.1769551121383" stroke="#ffffff" stroke-width="0.6666666666666666"/><line x1="46.346666666666664" y1="215.8617366465615" x2="616.6666666666666" y2="215.8617366465615" stroke="#ffffff" stroke-width="0.6666666666666666"/><line x1="46.346666666666664" y1="138.54651818098466" x2="616.6666666666666" y2="138.54651818098466" stroke="#ffffff" stroke-width="0.6666666666666666"/><line x1="46.346666666666664" y1="61.23129971540792" x2="616.6666666666666" y2="61.23129971540792" stroke="#ffffff" stroke-width="0.6666666666666666"/><line x1="46.346666666666664" y1="331.83456434492666" x2="616.6666666666666" y2="331.83456434492666" stroke="#ffffff" stroke-width="1.3333333333333333"/><line x1="46.346666666666664" y1="254.51934587934988" x2="616.6666666666666" y2="254.51934587934988" stroke="#ffffff" stroke-width="1.3333333333333333"/><line x1="46.346666666666664" y1="177.20412741377305" x2="616.6666666666666" y2="177.20412741377305" stroke="#ffffff" stroke-width="1.3333333333333333"/><line x1="46.346666666666664" y1="99.88890894819629" x2="616.6666666666666" y2="99.88890894819629" stroke="#ffffff" stroke-width="1.3333333333333333"/><line x1="46.346666666666664" y1="22.573690482619515" x2="616.6666666666666" y2="22.573690482619515" stroke="#ffffff" stroke-width="1.3333333333333333"/><line x1="110.67569023569024" y1="340.0" x2="110.67569023569024" y2="343.66666666666663" stroke="#333333" stroke-width="1.3333333333333333"/><text x="110.67569023569024" y="355.9866666666667" fill="#4d4d4d" font-size="11.733333333333334" font-family="sans-serif" text-anchor="middle">2</text><line x1="206.68915824915825" y1="340.0" x2="206.68915824915825" y2="343.66666666666663" stroke="#333333" stroke-width="1.3333333333333333"/><text x="206.68915824915825" y="355.9866666666667" fill="#4d4d4d" font-size="11.733333333333334" font-family="sans-serif" text-anchor="middle">3</text><line x1="302.70262626262627" y1="340.0" x2="302.70262626262627" y2="343.66666666666663" stroke="#333333" stroke-width="1.3333333333333333"/><text x="302.70262626262627" y="355.9866666666667" fill="#4d4d4d" font-size="11.733333333333334" font-family="sans-serif" text-anchor="middle">4</text><line x1="398.7160942760943" y1="340.0" x2="398.7160942760943" y2="343.66666666666663" stroke="#333333" stroke-width="1.3333333333333333"/><text x="398.7160942760943" y="355.9866666666667" fill="#4d4d4d" font-size="11.733333333333334" font-family="sans-serif" text-anchor="middle">5</text><line x1="494.7295622895623" y1="340.0" x2="494.7295622895623" y2="343.66666666666663" stroke="#333333" stroke-width="1.3333333333333333"/><text x="494.7295622895623" y="355.9866666666667" fill="#4d4d4d" font-size="11.733333333333334" font-family="sans-serif" text-anchor="middle">6</text><line x1="590.7430303030303" y1="340.0" x2="590.7430303030303" y2="343.66666666666663" stroke="#333333" stroke-width="1.3333333333333333"/><text x="590.7430303030303" y="355.9866666666667" fill="#4d4d4d" font-size="11.733333333333334" font-family="sans-serif" text-anchor="middle">7</text><line x1="46.346666666666664" y1="331.83456434492666" x2="42.67999999999999" y2="331.83456434492666" stroke="#333333" stroke-width="1.3333333333333333"/><text x="39.74666666666666" y="335.94123101159335" fill="#4d4d4d" font-size="11.733333333333334" font-family="sans-serif" text-anchor="end">15</text><line x1="46.346666666666664" y1="254.51934587934988" x2="42.67999999999999" y2="254.51934587934988" stroke="#333333" stroke-width="1.3333333333333333"/><text x="39.74666666666666" y="258.62601254601657" fill="#4d4d4d" font-size="11.733333333333334" font-family="sans-serif" text-anchor="end">20</text><line x1="46.346666666666664" y1="177.20412741377305" x2="42.67999999999999" y2="177.20412741377305" stroke="#333333" stroke-width="1.3333333333333333"/><text x="39.74666666666666" y="181.31079408043973" fill="#4d4d4d" font-size="11.733333333333334" font-family="sans-serif" text-anchor="end">25</text><line x1="46.346666666666664" y1="99.88890894819629" x2="42.67999999999999" y2="99.88890894819629" stroke="#333333" stroke-width="1.3333333333333333"/><text x="39.74666666666666" y="103.99557561486296" fill="#4d4d4d" font-size="11.733333333333334" font-family="sans-serif" text-anchor="end">30</text><line x1="46.346666666666664" y1="22.573690482619515" x2="42.67999999999999" y2="22.573690482619515" stroke="#333333" stroke-width="1.3333333333333333"/><text x="39.74666666666666" y="26.68035714928618" fill="#4d4d4d" font-size="11.733333333333334" font-family="sans-serif" text-anchor="end">35</text><text x="331.50666666666666" y="373.73333333333335" fill="#000000" font-size="14.666666666666666" font-family="sans-serif" text-anchor="middle">displ</text><text x="17.599999999999998" y="173.66666666666666" fill="#000000" font-size="14.666666666666666" font-family="sans-serif" text-anchor="middle" transform="rotate(-90.0 17.599999999999998 173.66666666666666)">hwy</text><path d="M 72.27030303030303 110.51370452020231 L 72.27030303030303 110.51370452020231 L 72.27030303030303 110.51370452020231 L 72.27030303030303 110.51370452020231 L 72.27030303030303 110.51370452020231 L 91.47299663299664 93.66889886904812 L 91.47299663299664 93.66889886904812 L 91.47299663299664 93.66889886904812 L 91.47299663299664 93.66889886904812 L 91.47299663299664 93.66889886904812 L 91.47299663299664 93.66889886904812 L 91.47299663299664 93.66889886904812 L 91.47299663299664 93.66889886904812 L 91.47299663299664 93.66889886904812 L 91.47299663299664 93.66889886904812 L 91.47299663299664 93.66889886904812 L 91.47299663299664 93.66889886904812 L 91.47299663299664 93.66889886904812 L 91.47299663299664 93.66889886904812 L 101.07434343434342 102.48745501553333 L 101.07434343434342 102.48745501553333 L 101.07434343434342 102.48745501553333 L 110.67569023569024 112.95812057115282 L 110.67569023569024 112.95812057115282 L 110.67569023569024 112.95812057115282 L 110.67569023569024 112.95812057115282 L 110.67569023569024 112.95812057115282 L 110.67569023569024 112.95812057115282 L 110.67569023569024 112.95812057115282 L 110.67569023569024 112.95812057115282 L 110.67569023569024 112.95812057115282 L 110.67569023569024 112.95812057115282 L 110.67569023569024 112.95812057115282 L 110.67569023569024 112.95812057115282 L 110.67569023569024 112.95812057115282 L 110.67569023569024 112.95812057115282 L 110.67569023569024 112.95812057115282 L 110.67569023569024 112.95812057115282 L 110.67569023569024 112.95812057115282 L 110.67569023569024 112.95812057115282 L 110.67569023569024 112.95812057115282 L 110.67569023569024 112.95812057115282 L 110.67569023569024 112.95812057115282 L 129.87838383838385 141.07074971904277 L 129.87838383838385 141.07074971904277 L 129.87838383838385 141.07074971904277 L 129.87838383838385 141.07074971904277 L 129.87838383838385 141.07074971904277 L 129.87838383838385 141.07074971904277 L 149.0810774410774 163.8138049977216 L 149.0810774410774 163.8138049977216 L 149.0810774410774 163.8138049977216 L 149.0810774410774 163.8138049977216 L 149.0810774410774 163.8138049977216 L 149.0810774410774 163.8138049977216 L 149.0810774410774 163.8138049977216 L 149.0810774410774 163.8138049977216 L 149.0810774410774 163.8138049977216 L 149.0810774410774 163.8138049977216 L 149.0810774410774 163.8138049977216 L 149.0810774410774 163.8138049977216 L 149.0810774410774 163.8138049977216 L 158.68242424242422 171.37584682442173 L 158.68242424242422 171.37584682442173 L 158.68242424242422 171.37584682442173 L 158.68242424242422 171.37584682442173 L 158.68242424242422 171.37584682442173 L 158.68242424242422 171.37584682442173 L 158.68242424242422 171.37584682442173 L 158.68242424242422 171.37584682442173 L 158.68242424242422 171.37584682442173 L 158.68242424242422 171.37584682442173 L 158.68242424242422 171.37584682442173 L 158.68242424242422 171.37584682442173 L 158.68242424242422 171.37584682442173 L 158.68242424242422 171.37584682442173 L 158.68242424242422 171.37584682442173 L 158.68242424242422 171.37584682442173 L 158.68242424242422 171.37584682442173 L 158.68242424242422 171.37584682442173 L 158.68242424242422 171.37584682442173 L 158.68242424242422 171.37584682442173 L 177.88511784511786 186.5246478722422 L 177.88511784511786 186.5246478722422 L 177.88511784511786 186.5246478722422 L 177.88511784511786 186.5246478722422 L 177.88511784511786 186.5246478722422 L 177.88511784511786 186.5246478722422 L 177.88511784511786 186.5246478722422 L 177.88511784511786 186.5246478722422 L 187.4864646464646 194.80473282377852 L 187.4864646464646 194.80473282377852 L 187.4864646464646 194.80473282377852 L 187.4864646464646 194.80473282377852 L 187.4864646464646 194.80473282377852 L 187.4864646464646 194.80473282377852 L 187.4864646464646 194.80473282377852 L 187.4864646464646 194.80473282377852 L 187.4864646464646 194.80473282377852 L 187.4864646464646 194.80473282377852 L 206.68915824915825 207.45803233680823 L 206.68915824915825 207.45803233680823 L 206.68915824915825 207.45803233680823 L 206.68915824915825 207.45803233680823 L 206.68915824915825 207.45803233680823 L 206.68915824915825 207.45803233680823 L 206.68915824915825 207.45803233680823 L 206.68915824915825 207.45803233680823 L 216.29050505050503 211.737403521898 L 216.29050505050503 211.737403521898 L 216.29050505050503 211.737403521898 L 216.29050505050503 211.737403521898 L 216.29050505050503 211.737403521898 L 216.29050505050503 211.737403521898 L 235.49319865319865 218.73998062360545 L 235.49319865319865 218.73998062360545 L 235.49319865319865 218.73998062360545 L 235.49319865319865 218.73998062360545 L 235.49319865319865 218.73998062360545 L 235.49319865319865 218.73998062360545 L 235.49319865319865 218.73998062360545 L 235.49319865319865 218.73998062360545 L 235.49319865319865 218.73998062360545 L 245.09454545454543 222.75923798710906 L 245.09454545454543 222.75923798710906 L 245.09454545454543 222.75923798710906 L 245.09454545454543 222.75923798710906 L 254.69589225589223 227.79337805510264 L 254.69589225589223 227.79337805510264 L 254.69589225589223 227.79337805510264 L 254.69589225589223 227.79337805510264 L 254.69589225589223 227.79337805510264 L 264.29723905723904 233.9225711170099 L 264.29723905723904 233.9225711170099 L 273.8985858585859 240.91818057271874 L 273.8985858585859 240.91818057271874 L 273.8985858585859 240.91818057271874 L 283.4999326599326 248.4651182447125 L 283.4999326599326 248.4651182447125 L 283.4999326599326 248.4651182447125 L 283.4999326599326 248.4651182447125 L 283.4999326599326 248.4651182447125 L 283.4999326599326 248.4651182447125 L 283.4999326599326 248.4651182447125 L 283.4999326599326 248.4651182447125 L 293.10127946127943 256.31392659207233 L 293.10127946127943 256.31392659207233 L 293.10127946127943 256.31392659207233 L 302.70262626262627 264.3207736113337 L 302.70262626262627 264.3207736113337 L 302.70262626262627 264.3207736113337 L 302.70262626262627 264.3207736113337 L 302.70262626262627 264.3207736113337 L 302.70262626262627 264.3207736113337 L 302.70262626262627 264.3207736113337 L 302.70262626262627 264.3207736113337 L 302.70262626262627 264.3207736113337 L 302.70262626262627 264.3207736113337 L 302.70262626262627 264.3207736113337 L 302.70262626262627 264.3207736113337 L 302.70262626262627 264.3207736113337 L 302.70262626262627 264.3207736113337 L 302.70262626262627 264.3207736113337 L 321.9053198653199 280.7952918622559 L 321.9053198653199 280.7952918622559 L 321.9053198653199 280.7952918622559 L 321.9053198653199 280.7952918622559 L 341.1080134680135 297.95390336708306 L 360.31070707070705 313.63696943751256 L 360.31070707070705 313.63696943751256 L 360.31070707070705 313.63696943751256 L 360.31070707070705 313.63696943751256 L 360.31070707070705 313.63696943751256 L 360.31070707070705 313.63696943751256 L 360.31070707070705 313.63696943751256 L 360.31070707070705 313.63696943751256 L 360.31070707070705 313.63696943751256 L 360.31070707070705 313.63696943751256 L 360.31070707070705 313.63696943751256 L 369.9120538720539 319.44349540783844 L 369.9120538720539 319.44349540783844 L 369.9120538720539 319.44349540783844 L 369.9120538720539 319.44349540783844 L 369.9120538720539 319.44349540783844 L 369.9120538720539 319.44349540783844 L 369.9120538720539 319.44349540783844 L 369.9120538720539 319.44349540783844 L 369.9120538720539 319.44349540783844 L 369.9120538720539 319.44349540783844 L 369.9120538720539 319.44349540783844 L 369.9120538720539 319.44349540783844 L 369.9120538720539 319.44349540783844 L 369.9120538720539 319.44349540783844 L 369.9120538720539 319.44349540783844 L 369.9120538720539 319.44349540783844 L 369.9120538720539 319.44349540783844 L 398.7160942760943 324.8787878787879 L 398.7160942760943 324.8787878787879 L 417.91878787878795 321.0847383066492 L 417.91878787878795 321.0847383066492 L 417.91878787878795 321.0847383066492 L 417.91878787878795 321.0847383066492 L 417.91878787878795 321.0847383066492 L 427.5201346801347 318.0381107291444 L 427.5201346801347 318.0381107291444 L 427.5201346801347 318.0381107291444 L 427.5201346801347 318.0381107291444 L 427.5201346801347 318.0381107291444 L 427.5201346801347 318.0381107291444 L 437.1214814814815 314.61070112172126 L 437.1214814814815 314.61070112172126 L 437.1214814814815 314.61070112172126 L 437.1214814814815 314.61070112172126 L 437.1214814814815 314.61070112172126 L 437.1214814814815 314.61070112172126 L 437.1214814814815 314.61070112172126 L 437.1214814814815 314.61070112172126 L 456.32417508417507 307.01733190603807 L 465.9255218855219 302.8346731559775 L 465.9255218855219 302.8346731559775 L 465.9255218855219 302.8346731559775 L 465.9255218855219 302.8346731559775 L 465.9255218855219 302.8346731559775 L 465.9255218855219 302.8346731559775 L 465.9255218855219 302.8346731559775 L 465.9255218855219 302.8346731559775 L 485.1282154882156 293.63201547528877 L 485.1282154882156 293.63201547528877 L 494.7295622895623 288.73251054401817 L 504.3309090909091 283.8436735558158 L 513.9322558922559 279.2465280494531 L 513.9322558922559 279.2465280494531 L 542.7362962962964 271.67293420714054 L 590.7430303030303 310.42169355175656 L 590.7430303030303 122.54868146680163 L 542.7362962962964 190.454513301725 L 513.9322558922559 218.51072423389928 L 513.9322558922559 218.51072423389928 L 504.3309090909091 227.22413829185555 L 494.7295622895623 235.92155219496965 L 485.1282154882156 244.61921688636312 L 485.1282154882156 244.61921688636312 L 465.9255218855219 261.58456426245164 L 465.9255218855219 261.58456426245164 L 465.9255218855219 261.58456426245164 L 465.9255218855219 261.58456426245164 L 465.9255218855219 261.58456426245164 L 465.9255218855219 261.58456426245164 L 465.9255218855219 261.58456426245164 L 465.9255218855219 261.58456426245164 L 456.32417508417507 269.44319575520626 L 437.1214814814815 282.5231194757616 L 437.1214814814815 282.5231194757616 L 437.1214814814815 282.5231194757616 L 437.1214814814815 282.5231194757616 L 437.1214814814815 282.5231194757616 L 437.1214814814815 282.5231194757616 L 437.1214814814815 282.5231194757616 L 437.1214814814815 282.5231194757616 L 427.5201346801347 287.1981673704642 L 427.5201346801347 287.1981673704642 L 427.5201346801347 287.1981673704642 L 427.5201346801347 287.1981673704642 L 427.5201346801347 287.1981673704642 L 427.5201346801347 287.1981673704642 L 417.91878787878795 290.4115078568907 L 417.91878787878795 290.4115078568907 L 417.91878787878795 290.4115078568907 L 417.91878787878795 290.4115078568907 L 417.91878787878795 290.4115078568907 L 398.7160942760943 292.5508357154364 L 398.7160942760943 292.5508357154364 L 369.9120538720539 286.4482086547327 L 369.9120538720539 286.4482086547327 L 369.9120538720539 286.4482086547327 L 369.9120538720539 286.4482086547327 L 369.9120538720539 286.4482086547327 L 369.9120538720539 286.4482086547327 L 369.9120538720539 286.4482086547327 L 369.9120538720539 286.4482086547327 L 369.9120538720539 286.4482086547327 L 369.9120538720539 286.4482086547327 L 369.9120538720539 286.4482086547327 L 369.9120538720539 286.4482086547327 L 369.9120538720539 286.4482086547327 L 369.9120538720539 286.4482086547327 L 369.9120538720539 286.4482086547327 L 369.9120538720539 286.4482086547327 L 369.9120538720539 286.4482086547327 L 360.31070707070705 282.04506282477223 L 360.31070707070705 282.04506282477223 L 360.31070707070705 282.04506282477223 L 360.31070707070705 282.04506282477223 L 360.31070707070705 282.04506282477223 L 360.31070707070705 282.04506282477223 L 360.31070707070705 282.04506282477223 L 360.31070707070705 282.04506282477223 L 360.31070707070705 282.04506282477223 L 360.31070707070705 282.04506282477223 L 360.31070707070705 282.04506282477223 L 341.1080134680135 269.4488304415721 L 321.9053198653199 251.90390399403555 L 321.9053198653199 251.90390399403555 L 321.9053198653199 251.90390399403555 L 321.9053198653199 251.90390399403555 L 302.70262626262627 232.11748516027174 L 302.70262626262627 232.11748516027174 L 302.70262626262627 232.11748516027174 L 302.70262626262627 232.11748516027174 L 302.70262626262627 232.11748516027174 L 302.70262626262627 232.11748516027174 L 302.70262626262627 232.11748516027174 L 302.70262626262627 232.11748516027174 L 302.70262626262627 232.11748516027174 L 302.70262626262627 232.11748516027174 L 302.70262626262627 232.11748516027174 L 302.70262626262627 232.11748516027174 L 302.70262626262627 232.11748516027174 L 302.70262626262627 232.11748516027174 L 302.70262626262627 232.11748516027174 L 293.10127946127943 222.93072657707287 L 293.10127946127943 222.93072657707287 L 293.10127946127943 222.93072657707287 L 283.4999326599326 215.021644676296 L 283.4999326599326 215.021644676296 L 283.4999326599326 215.021644676296 L 283.4999326599326 215.021644676296 L 283.4999326599326 215.021644676296 L 283.4999326599326 215.021644676296 L 283.4999326599326 215.021644676296 L 283.4999326599326 215.021644676296 L 273.8985858585859 208.69401014482764 L 273.8985858585859 208.69401014482764 L 273.8985858585859 208.69401014482764 L 264.29723905723904 203.50295871029735 L 264.29723905723904 203.50295871029735 L 254.69589225589223 198.77724310828617 L 254.69589225589223 198.77724310828617 L 254.69589225589223 198.77724310828617 L 254.69589225589223 198.77724310828617 L 254.69589225589223 198.77724310828617 L 245.09454545454543 193.9320676517804 L 245.09454545454543 193.9320676517804 L 245.09454545454543 193.9320676517804 L 245.09454545454543 193.9320676517804 L 235.49319865319865 188.69144354330138 L 235.49319865319865 188.69144354330138 L 235.49319865319865 188.69144354330138 L 235.49319865319865 188.69144354330138 L 235.49319865319865 188.69144354330138 L 235.49319865319865 188.69144354330138 L 235.49319865319865 188.69144354330138 L 235.49319865319865 188.69144354330138 L 235.49319865319865 188.69144354330138 L 216.29050505050503 177.6079235109856 L 216.29050505050503 177.6079235109856 L 216.29050505050503 177.6079235109856 L 216.29050505050503 177.6079235109856 L 216.29050505050503 177.6079235109856 L 216.29050505050503 177.6079235109856 L 206.68915824915825 172.34876086023047 L 206.68915824915825 172.34876086023047 L 206.68915824915825 172.34876086023047 L 206.68915824915825 172.34876086023047 L 206.68915824915825 172.34876086023047 L 206.68915824915825 172.34876086023047 L 206.68915824915825 172.34876086023047 L 206.68915824915825 172.34876086023047 L 187.4864646464646 163.15322672939388 L 187.4864646464646 163.15322672939388 L 187.4864646464646 163.15322672939388 L 187.4864646464646 163.15322672939388 L 187.4864646464646 163.15322672939388 L 187.4864646464646 163.15322672939388 L 187.4864646464646 163.15322672939388 L 187.4864646464646 163.15322672939388 L 187.4864646464646 163.15322672939388 L 187.4864646464646 163.15322672939388 L 177.88511784511786 158.426336124699 L 177.88511784511786 158.426336124699 L 177.88511784511786 158.426336124699 L 177.88511784511786 158.426336124699 L 177.88511784511786 158.426336124699 L 177.88511784511786 158.426336124699 L 177.88511784511786 158.426336124699 L 177.88511784511786 158.426336124699 L 158.68242424242422 141.95940652002855 L 158.68242424242422 141.95940652002855 L 158.68242424242422 141.95940652002855 L 158.68242424242422 141.95940652002855 L 158.68242424242422 141.95940652002855 L 158.68242424242422 141.95940652002855 L 158.68242424242422 141.95940652002855 L 158.68242424242422 141.95940652002855 L 158.68242424242422 141.95940652002855 L 158.68242424242422 141.95940652002855 L 158.68242424242422 141.95940652002855 L 158.68242424242422 141.95940652002855 L 158.68242424242422 141.95940652002855 L 158.68242424242422 141.95940652002855 L 158.68242424242422 141.95940652002855 L 158.68242424242422 141.95940652002855 L 158.68242424242422 141.95940652002855 L 158.68242424242422 141.95940652002855 L 158.68242424242422 141.95940652002855 L 158.68242424242422 141.95940652002855 L 149.0810774410774 130.38808418379793 L 149.0810774410774 130.38808418379793 L 149.0810774410774 130.38808418379793 L 149.0810774410774 130.38808418379793 L 149.0810774410774 130.38808418379793 L 149.0810774410774 130.38808418379793 L 149.0810774410774 130.38808418379793 L 149.0810774410774 130.38808418379793 L 149.0810774410774 130.38808418379793 L 149.0810774410774 130.38808418379793 L 149.0810774410774 130.38808418379793 L 149.0810774410774 130.38808418379793 L 149.0810774410774 130.38808418379793 L 129.87838383838385 106.90189079656878 L 129.87838383838385 106.90189079656878 L 129.87838383838385 106.90189079656878 L 129.87838383838385 106.90189079656878 L 129.87838383838385 106.90189079656878 L 129.87838383838385 106.90189079656878 L 110.67569023569024 80.35578595763698 L 110.67569023569024 80.35578595763698 L 110.67569023569024 80.35578595763698 L 110.67569023569024 80.35578595763698 L 110.67569023569024 80.35578595763698 L 110.67569023569024 80.35578595763698 L 110.67569023569024 80.35578595763698 L 110.67569023569024 80.35578595763698 L 110.67569023569024 80.35578595763698 L 110.67569023569024 80.35578595763698 L 110.67569023569024 80.35578595763698 L 110.67569023569024 80.35578595763698 L 110.67569023569024 80.35578595763698 L 110.67569023569024 80.35578595763698 L 110.67569023569024 80.35578595763698 L 110.67569023569024 80.35578595763698 L 110.67569023569024 80.35578595763698 L 110.67569023569024 80.35578595763698 L 110.67569023569024 80.35578595763698 L 110.67569023569024 80.35578595763698 L 110.67569023569024 80.35578595763698 L 101.07434343434342 65.5841242232412 L 101.07434343434342 65.5841242232412 L 101.07434343434342 65.5841242232412 L 91.47299663299664 54.13787885891236 L 91.47299663299664 54.13787885891236 L 91.47299663299664 54.13787885891236 L 91.47299663299664 54.13787885891236 L 91.47299663299664 54.13787885891236 L 91.47299663299664 54.13787885891236 L 91.47299663299664 54.13787885891236 L 91.47299663299664 54.13787885891236 L 91.47299663299664 54.13787885891236 L 91.47299663299664 54.13787885891236 L 91.47299663299664 54.13787885891236 L 91.47299663299664 54.13787885891236 L 91.47299663299664 54.13787885891236 L 91.47299663299664 54.13787885891236 L 72.27030303030303 22.45454545454553 L 72.27030303030303 22.45454545454553 L 72.27030303030303 22.45454545454553 L 72.27030303030303 22.45454545454553 L 72.27030303030303 22.45454545454553 Z" fill="#3366ff" fill-opacity="0.2" stroke="none"/><line x1="72.27030303030303" y1="66.48412498737392" x2="72.27030303030303" y2="66.48412498737392" stroke="#3366ff" stroke-width="2.8459842519685044"/><line x1="72.27030303030303" y1="66.48412498737392" x2="72.27030303030303" y2="66.48412498737392" stroke="#3366ff" stroke-width="2.8459842519685044"/><line x1="72.27030303030303" y1="66.48412498737392" x2="72.27030303030303" y2="66.48412498737392" stroke="#3366ff" stroke-width="2.8459842519685044"/><line x1="72.27030303030303" y1="66.48412498737392" x2="72.27030303030303" y2="66.48412498737392" stroke="#3366ff" stroke-width="2.8459842519685044"/><line x1="72.27030303030303" y1="66.48412498737392" x2="91.47299663299664" y2="73.90338886398027" stroke="#3366ff" stroke-width="2.8459842519685044"/><line x1="91.47299663299664" y1="73.90338886398027" x2="91.47299663299664" y2="73.90338886398027" stroke="#3366ff" stroke-width="2.8459842519685044"/><line x1="91.47299663299664" y1="73.90338886398027" x2="91.47299663299664" y2="73.90338886398027" stroke="#3366ff" stroke-width="2.8459842519685044"/><line x1="91.47299663299664" y1="73.90338886398027" x2="91.47299663299664" y2="73.90338886398027" stroke="#3366ff" stroke-width="2.8459842519685044"/><line x1="91.47299663299664" y1="73.90338886398027" x2="91.47299663299664" y2="73.90338886398027" stroke="#3366ff" stroke-width="2.8459842519685044"/><line x1="91.47299663299664" y1="73.90338886398027" x2="91.47299663299664" y2="73.90338886398027" stroke="#3366ff" stroke-width="2.8459842519685044"/><line x1="91.47299663299664" y1="73.90338886398027" x2="91.47299663299664" y2="73.90338886398027" stroke="#3366ff" stroke-width="2.8459842519685044"/><line x1="91.47299663299664" y1="73.90338886398027" x2="91.47299663299664" y2="73.90338886398027" stroke="#3366ff" stroke-width="2.8459842519685044"/><line x1="91.47299663299664" y1="73.90338886398027" x2="91.47299663299664" y2="73.90338886398027" stroke="#3366ff" stroke-width="2.8459842519685044"/><line x1="91.47299663299664" y1="73.90338886398027" x2="91.47299663299664" y2="73.90338886398027" stroke="#3366ff" stroke-width="2.8459842519685044"/><line x1="91.47299663299664" y1="73.90338886398027" x2="91.47299663299664" y2="73.90338886398027" stroke="#3366ff" stroke-width="2.8459842519685044"/><line x1="91.47299663299664" y1="73.90338886398027" x2="91.47299663299664" y2="73.90338886398027" stroke="#3366ff" stroke-width="2.8459842519685044"/><line x1="91.47299663299664" y1="73.90338886398027" x2="91.47299663299664" y2="73.90338886398027" stroke="#3366ff" stroke-width="2.8459842519685044"/><line x1="91.47299663299664" y1="73.90338886398027" x2="91.47299663299664" y2="73.90338886398027" stroke="#3366ff" stroke-width="2.8459842519685044"/><line x1="91.47299663299664" y1="73.90338886398027" x2="101.07434343434342" y2="84.03578961938729" stroke="#3366ff" stroke-width="2.8459842519685044"/><line x1="101.07434343434342" y1="84.03578961938729" x2="101.07434343434342" y2="84.03578961938729" stroke="#3366ff" stroke-width="2.8459842519685044"/><line x1="101.07434343434342" y1="84.03578961938729" x2="101.07434343434342" y2="84.03578961938729" stroke="#3366ff" stroke-width="2.8459842519685044"/><line x1="101.07434343434342" y1="84.03578961938729" x2="110.67569023569024" y2="96.65695326439489" stroke="#3366ff" stroke-width="2.8459842519685044"/><line x1="110.67569023569024" y1="96.65695326439489" x2="110.67569023569024" y2="96.65695326439489" stroke="#3366ff" stroke-width="2.8459842519685044"/><line x1="110.67569023569024" y1="96.65695326439489" x2="110.67569023569024" y2="96.65695326439489" stroke="#3366ff" stroke-width="2.8459842519685044"/><line x1="110.67569023569024" y1="96.65695326439489" x2="110.67569023569024" y2="96.65695326439489" stroke="#3366ff" stroke-width="2.8459842519685044"/><line x1="110.67569023569024" y1="96.65695326439489" x2="110.67569023569024" y2="96.65695326439489" stroke="#3366ff" stroke-width="2.8459842519685044"/><line x1="110.67569023569024" y1="96.65695326439489" x2="110.67569023569024" y2="96.65695326439489" stroke="#3366ff" stroke-width="2.8459842519685044"/><line x1="110.67569023569024" y1="96.65695326439489" x2="110.67569023569024" y2="96.65695326439489" stroke="#3366ff" stroke-width="2.8459842519685044"/><line x1="110.67569023569024" y1="96.65695326439489" x2="110.67569023569024" y2="96.65695326439489" stroke="#3366ff" stroke-width="2.8459842519685044"/><line x1="110.67569023569024" y1="96.65695326439489" x2="110.67569023569024" y2="96.65695326439489" stroke="#3366ff" stroke-width="2.8459842519685044"/><line x1="110.67569023569024" y1="96.65695326439489" x2="110.67569023569024" y2="96.65695326439489" stroke="#3366ff" stroke-width="2.8459842519685044"/><line x1="110.67569023569024" y1="96.65695326439489" x2="110.67569023569024" y2="96.65695326439489" stroke="#3366ff" stroke-width="2.8459842519685044"/><line x1="110.67569023569024" y1="96.65695326439489" x2="110.67569023569024" y2="96.65695326439489" stroke="#3366ff" stroke-width="2.8459842519685044"/><line x1="110.67569023569024" y1="96.65695326439489" x2="110.67569023569024" y2="96.65695326439489" stroke="#3366ff" stroke-width="2.8459842519685044"/><line x1="110.67569023569024" y1="96.65695326439489" x2="110.67569023569024" y2="96.65695326439489" stroke="#3366ff" stroke-width="2.8459842519685044"/><line x1="110.67569023569024" y1="96.65695326439489" x2="110.67569023569024" y2="96.65695326439489" stroke="#3366ff" stroke-width="2.8459842519685044"/><line x1="110.67569023569024" y1="96.65695326439489" x2="110.67569023569024" y2="96.65695326439489" stroke="#3366ff" stroke-width="2.8459842519685044"/><line x1="110.67569023569024" y1="96.65695326439489" x2="110.67569023569024" y2="96.65695326439489" stroke="#3366ff" stroke-width="2.8459842519685044"/><line x1="110.67569023569024" y1="96.65695326439489" x2="110.67569023569024" y2="96.65695326439489" stroke="#3366ff" stroke-width="2.8459842519685044"/><line x1="110.67569023569024" y1="96.65695326439489" x2="110.67569023569024" y2="96.65695326439489" stroke="#3366ff" stroke-width="2.8459842519685044"/><line x1="110.67569023569024" y1="96.65695326439489" x2="110.67569023569024" y2="96.65695326439489" stroke="#3366ff" stroke-width="2.8459842519685044"/><line x1="110.67569023569024" y1="96.65695326439489" x2="110.67569023569024" y2="96.65695326439489" stroke="#3366ff" stroke-width="2.8459842519685044"/><line x1="110.67569023569024" y1="96.65695326439489" x2="129.87838383838385" y2="123.98632025780576" stroke="#3366ff" stroke-width="2.8459842519685044"/><line x1="129.87838383838385" y1="123.98632025780576" x2="129.87838383838385" y2="123.98632025780576" stroke="#3366ff" stroke-width="2.8459842519685044"/><line x1="129.87838383838385" y1="123.98632025780576" x2="129.87838383838385" y2="123.98632025780576" stroke="#3366ff" stroke-width="2.8459842519685044"/><line x1="129.87838383838385" y1="123.98632025780576" x2="129.87838383838385" y2="123.98632025780576" stroke="#3366ff" stroke-width="2.8459842519685044"/><line x1="129.87838383838385" y1="123.98632025780576" x2="129.87838383838385" y2="123.98632025780576" stroke="#3366ff" stroke-width="2.8459842519685044"/><line x1="129.87838383838385" y1="123.98632025780576" x2="129.87838383838385" y2="123.98632025780576" stroke="#3366ff" stroke-width="2.8459842519685044"/><line x1="129.87838383838385" y1="123.98632025780576" x2="149.0810774410774" y2="147.10094459075975" stroke="#3366ff" stroke-width="2.8459842519685044"/><line x1="149.0810774410774" y1="147.10094459075975" x2="149.0810774410774" y2="147.10094459075975" stroke="#3366ff" stroke-width="2.8459842519685044"/><line x1="149.0810774410774" y1="147.10094459075975" x2="149.0810774410774" y2="147.10094459075975" stroke="#3366ff" stroke-width="2.8459842519685044"/><line x1="149.0810774410774" y1="147.10094459075975" x2="149.0810774410774" y2="147.10094459075975" stroke="#3366ff" stroke-width="2.8459842519685044"/><line x1="149.0810774410774" y1="147.10094459075975" x2="149.0810774410774" y2="147.10094459075975" stroke="#3366ff" stroke-width="2.8459842519685044"/><line x1="149.0810774410774" y1="147.10094459075975" x2="149.0810774410774" y2="147.10094459075975" stroke="#3366ff" stroke-width="2.8459842519685044"/><line x1="149.0810774410774" y1="147.10094459075975" x2="149.0810774410774" y2="147.10094459075975" stroke="#3366ff" stroke-width="2.8459842519685044"/><line x1="149.0810774410774" y1="147.10094459075975" x2="149.0810774410774" y2="147.10094459075975" stroke="#3366ff" stroke-width="2.8459842519685044"/><line x1="149.0810774410774" y1="147.10094459075975" x2="149.0810774410774" y2="147.10094459075975" stroke="#3366ff" stroke-width="2.8459842519685044"/><line x1="149.0810774410774" y1="147.10094459075975" x2="149.0810774410774" y2="147.10094459075975" stroke="#3366ff" stroke-width="2.8459842519685044"/><line x1="149.0810774410774" y1="147.10094459075975" x2="149.0810774410774" y2="147.10094459075975" stroke="#3366ff" stroke-width="2.8459842519685044"/><line x1="149.0810774410774" y1="147.10094459075975" x2="149.0810774410774" y2="147.10094459075975" stroke="#3366ff" stroke-width="2.8459842519685044"/><line x1="149.0810774410774" y1="147.10094459075975" x2="149.0810774410774" y2="147.10094459075975" stroke="#3366ff" stroke-width="2.8459842519685044"/><line x1="149.0810774410774" y1="147.10094459075975" x2="158.68242424242422" y2="156.6676266722251" stroke="#3366ff" stroke-width="2.8459842519685044"/><line x1="158.68242424242422" y1="156.6676266722251" x2="158.68242424242422" y2="156.6676266722251" stroke="#3366ff" stroke-width="2.8459842519685044"/><line x1="158.68242424242422" y1="156.6676266722251" x2="158.68242424242422" y2="156.6676266722251" stroke="#3366ff" stroke-width="2.8459842519685044"/><line x1="158.68242424242422" y1="156.6676266722251" x2="158.68242424242422" y2="156.6676266722251" stroke="#3366ff" stroke-width="2.8459842519685044"/><line x1="158.68242424242422" y1="156.6676266722251" x2="158.68242424242422" y2="156.6676266722251" stroke="#3366ff" stroke-width="2.8459842519685044"/><line x1="158.68242424242422" y1="156.6676266722251" x2="158.68242424242422" y2="156.6676266722251" stroke="#3366ff" stroke-width="2.8459842519685044"/><line x1="158.68242424242422" y1="156.6676266722251" x2="158.68242424242422" y2="156.6676266722251" stroke="#3366ff" stroke-width="2.8459842519685044"/><line x1="158.68242424242422" y1="156.6676266722251" x2="158.68242424242422" y2="156.6676266722251" stroke="#3366ff" stroke-width="2.8459842519685044"/><line x1="158.68242424242422" y1="156.6676266722251" x2="158.68242424242422" y2="156.6676266722251" stroke="#3366ff" stroke-width="2.8459842519685044"/><line x1="158.68242424242422" y1="156.6676266722251" x2="158.68242424242422" y2="156.6676266722251" stroke="#3366ff" stroke-width="2.8459842519685044"/><line x1="158.68242424242422" y1="156.6676266722251" x2="158.68242424242422" y2="156.6676266722251" stroke="#3366ff" stroke-width="2.8459842519685044"/><line x1="158.68242424242422" y1="156.6676266722251" x2="158.68242424242422" y2="156.6676266722251" stroke="#3366ff" stroke-width="2.8459842519685044"/><line x1="158.68242424242422" y1="156.6676266722251" x2="158.68242424242422" y2="156.6676266722251" stroke="#3366ff" stroke-width="2.8459842519685044"/><line x1="158.68242424242422" y1="156.6676266722251" x2="158.68242424242422" y2="156.6676266722251" stroke="#3366ff" stroke-width="2.8459842519685044"/><line x1="158.68242424242422" y1="156.6676266722251" x2="158.68242424242422" y2="156.6676266722251" stroke="#3366ff" stroke-width="2.8459842519685044"/><line x1="158.68242424242422" y1="156.6676266722251" x2="158.68242424242422" y2="156.6676266722251" stroke="#3366ff" stroke-width="2.8459842519685044"/><line x1="158.68242424242422" y1="156.6676266722251" x2="158.68242424242422" y2="156.6676266722251" stroke="#3366ff" stroke-width="2.8459842519685044"/><line x1="158.68242424242422" y1="156.6676266722251" x2="158.68242424242422" y2="156.6676266722251" stroke="#3366ff" stroke-width="2.8459842519685044"/><line x1="158.68242424242422" y1="156.6676266722251" x2="158.68242424242422" y2="156.6676266722251" stroke="#3366ff" stroke-width="2.8459842519685044"/><line x1="158.68242424242422" y1="156.6676266722251" x2="158.68242424242422" y2="156.6676266722251" stroke="#3366ff" stroke-width="2.8459842519685044"/><line x1="158.68242424242422" y1="156.6676266722251" x2="177.88511784511786" y2="172.4754919984706" stroke="#3366ff" stroke-width="2.8459842519685044"/><line x1="177.88511784511786" y1="172.4754919984706" x2="177.88511784511786" y2="172.4754919984706" stroke="#3366ff" stroke-width="2.8459842519685044"/><line x1="177.88511784511786" y1="172.4754919984706" x2="177.88511784511786" y2="172.4754919984706" stroke="#3366ff" stroke-width="2.8459842519685044"/><line x1="177.88511784511786" y1="172.4754919984706" x2="177.88511784511786" y2="172.4754919984706" stroke="#3366ff" stroke-width="2.8459842519685044"/><line x1="177.88511784511786" y1="172.4754919984706" x2="177.88511784511786" y2="172.4754919984706" stroke="#3366ff" stroke-width="2.8459842519685044"/><line x1="177.88511784511786" y1="172.4754919984706" x2="177.88511784511786" y2="172.4754919984706" stroke="#3366ff" stroke-width="2.8459842519685044"/><line x1="177.88511784511786" y1="172.4754919984706" x2="177.88511784511786" y2="172.4754919984706" stroke="#3366ff" stroke-width="2.8459842519685044"/><line x1="177.88511784511786" y1="172.4754919984706" x2="177.88511784511786" y2="172.4754919984706" stroke="#3366ff" stroke-width="2.8459842519685044"/><line x1="177.88511784511786" y1="172.4754919984706" x2="187.4864646464646" y2="178.9789797765862" stroke="#3366ff" stroke-width="2.8459842519685044"/><line x1="187.4864646464646" y1="178.9789797765862" x2="187.4864646464646" y2="178.9789797765862" stroke="#3366ff" stroke-width="2.8459842519685044"/><line x1="187.4864646464646" y1="178.9789797765862" x2="187.4864646464646" y2="178.9789797765862" stroke="#3366ff" stroke-width="2.8459842519685044"/><line x1="187.4864646464646" y1="178.9789797765862" x2="187.4864646464646" y2="178.9789797765862" stroke="#3366ff" stroke-width="2.8459842519685044"/><line x1="187.4864646464646" y1="178.9789797765862" x2="187.4864646464646" y2="178.9789797765862" stroke="#3366ff" stroke-width="2.8459842519685044"/><line x1="187.4864646464646" y1="178.9789797765862" x2="187.4864646464646" y2="178.9789797765862" stroke="#3366ff" stroke-width="2.8459842519685044"/><line x1="187.4864646464646" y1="178.9789797765862" x2="187.4864646464646" y2="178.9789797765862" stroke="#3366ff" stroke-width="2.8459842519685044"/><line x1="187.4864646464646" y1="178.9789797765862" x2="187.4864646464646" y2="178.9789797765862" stroke="#3366ff" stroke-width="2.8459842519685044"/><line x1="187.4864646464646" y1="178.9789797765862" x2="187.4864646464646" y2="178.9789797765862" stroke="#3366ff" stroke-width="2.8459842519685044"/><line x1="187.4864646464646" y1="178.9789797765862" x2="187.4864646464646" y2="178.9789797765862" stroke="#3366ff" stroke-width="2.8459842519685044"/><line x1="187.4864646464646" y1="178.9789797765862" x2="206.68915824915825" y2="189.90339659851932" stroke="#3366ff" stroke-width="2.8459842519685044"/><line x1="206.68915824915825" y1="189.90339659851932" x2="206.68915824915825" y2="189.90339659851932" stroke="#3366ff" stroke-width="2.8459842519685044"/><line x1="206.68915824915825" y1="189.90339659851932" x2="206.68915824915825" y2="189.90339659851932" stroke="#3366ff" stroke-width="2.8459842519685044"/><line x1="206.68915824915825" y1="189.90339659851932" x2="206.68915824915825" y2="189.90339659851932" stroke="#3366ff" stroke-width="2.8459842519685044"/><line x1="206.68915824915825" y1="189.90339659851932" x2="206.68915824915825" y2="189.90339659851932" stroke="#3366ff" stroke-width="2.8459842519685044"/><line x1="206.68915824915825" y1="189.90339659851932" x2="206.68915824915825" y2="189.90339659851932" stroke="#3366ff" stroke-width="2.8459842519685044"/><line x1="206.68915824915825" y1="189.90339659851932" x2="206.68915824915825" y2="189.90339659851932" stroke="#3366ff" stroke-width="2.8459842519685044"/><line x1="206.68915824915825" y1="189.90339659851932" x2="206.68915824915825" y2="189.90339659851932" stroke="#3366ff" stroke-width="2.8459842519685044"/><line x1="206.68915824915825" y1="189.90339659851932" x2="216.29050505050503" y2="194.67266351644184" stroke="#3366ff" stroke-width="2.8459842519685044"/><line x1="216.29050505050503" y1="194.67266351644184" x2="216.29050505050503" y2="194.67266351644184" stroke="#3366ff" stroke-width="2.8459842519685044"/><line x1="216.29050505050503" y1="194.67266351644184" x2="216.29050505050503" y2="194.67266351644184" stroke="#3366ff" stroke-width="2.8459842519685044"/><line x1="216.29050505050503" y1="194.67266351644184" x2="216.29050505050503" y2="194.67266351644184" stroke="#3366ff" stroke-width="2.8459842519685044"/><line x1="216.29050505050503" y1="194.67266351644184" x2="216.29050505050503" y2="194.67266351644184" stroke="#3366ff" stroke-width="2.8459842519685044"/><line x1="216.29050505050503" y1="194.67266351644184" x2="216.29050505050503" y2="194.67266351644184" stroke="#3366ff" stroke-width="2.8459842519685044"/><line x1="216.29050505050503" y1="194.67266351644184" x2="235.49319865319865" y2="203.71571208345338" stroke="#3366ff" stroke-width="2.8459842519685044"/><line x1="235.49319865319865" y1="203.71571208345338" x2="235.49319865319865" y2="203.71571208345338" stroke="#3366ff" stroke-width="2.8459842519685044"/><line x1="235.49319865319865" y1="203.71571208345338" x2="235.49319865319865" y2="203.71571208345338" stroke="#3366ff" stroke-width="2.8459842519685044"/><line x1="235.49319865319865" y1="203.71571208345338" x2="235.49319865319865" y2="203.71571208345338" stroke="#3366ff" stroke-width="2.8459842519685044"/><line x1="235.49319865319865" y1="203.71571208345338" x2="235.49319865319865" y2="203.71571208345338" stroke="#3366ff" stroke-width="2.8459842519685044"/><line x1="235.49319865319865" y1="203.71571208345338" x2="235.49319865319865" y2="203.71571208345338" stroke="#3366ff" stroke-width="2.8459842519685044"/><line x1="235.49319865319865" y1="203.71571208345338" x2="235.49319865319865" y2="203.71571208345338" stroke="#3366ff" stroke-width="2.8459842519685044"/><line x1="235.49319865319865" y1="203.71571208345338" x2="235.49319865319865" y2="203.71571208345338" stroke="#3366ff" stroke-width="2.8459842519685044"/><line x1="235.49319865319865" y1="203.71571208345338" x2="235.49319865319865" y2="203.71571208345338" stroke="#3366ff" stroke-width="2.8459842519685044"/><line x1="235.49319865319865" y1="203.71571208345338" x2="245.09454545454543" y2="208.34565281944472" stroke="#3366ff" stroke-width="2.8459842519685044"/><line x1="245.09454545454543" y1="208.34565281944472" x2="245.09454545454543" y2="208.34565281944472" stroke="#3366ff" stroke-width="2.8459842519685044"/><line x1="245.09454545454543" y1="208.34565281944472" x2="245.09454545454543" y2="208.34565281944472" stroke="#3366ff" stroke-width="2.8459842519685044"/><line x1="245.09454545454543" y1="208.34565281944472" x2="245.09454545454543" y2="208.34565281944472" stroke="#3366ff" stroke-width="2.8459842519685044"/><line x1="245.09454545454543" y1="208.34565281944472" x2="254.69589225589223" y2="213.2853105816944" stroke="#3366ff" stroke-width="2.8459842519685044"/><line x1="254.69589225589223" y1="213.2853105816944" x2="254.69589225589223" y2="213.2853105816944" stroke="#3366ff" stroke-width="2.8459842519685044"/><line x1="254.69589225589223" y1="213.2853105816944" x2="254.69589225589223" y2="213.2853105816944" stroke="#3366ff" stroke-width="2.8459842519685044"/><line x1="254.69589225589223" y1="213.2853105816944" x2="254.69589225589223" y2="213.2853105816944" stroke="#3366ff" stroke-width="2.8459842519685044"/><line x1="254.69589225589223" y1="213.2853105816944" x2="254.69589225589223" y2="213.2853105816944" stroke="#3366ff" stroke-width="2.8459842519685044"/><line x1="254.69589225589223" y1="213.2853105816944" x2="264.29723905723904" y2="218.71276491365361" stroke="#3366ff" stroke-width="2.8459842519685044"/><line x1="264.29723905723904" y1="218.71276491365361" x2="264.29723905723904" y2="218.71276491365361" stroke="#3366ff" stroke-width="2.8459842519685044"/><line x1="264.29723905723904" y1="218.71276491365361" x2="273.8985858585859" y2="224.80609535877318" stroke="#3366ff" stroke-width="2.8459842519685044"/><line x1="273.8985858585859" y1="224.80609535877318" x2="273.8985858585859" y2="224.80609535877318" stroke="#3366ff" stroke-width="2.8459842519685044"/><line x1="273.8985858585859" y1="224.80609535877318" x2="273.8985858585859" y2="224.80609535877318" stroke="#3366ff" stroke-width="2.8459842519685044"/><line x1="273.8985858585859" y1="224.80609535877318" x2="283.4999326599326" y2="231.74338146050425" stroke="#3366ff" stroke-width="2.8459842519685044"/><line x1="283.4999326599326" y1="231.74338146050425" x2="283.4999326599326" y2="231.74338146050425" stroke="#3366ff" stroke-width="2.8459842519685044"/><line x1="283.4999326599326" y1="231.74338146050425" x2="283.4999326599326" y2="231.74338146050425" stroke="#3366ff" stroke-width="2.8459842519685044"/><line x1="283.4999326599326" y1="231.74338146050425" x2="283.4999326599326" y2="231.74338146050425" stroke="#3366ff" stroke-width="2.8459842519685044"/><line x1="283.4999326599326" y1="231.74338146050425" x2="283.4999326599326" y2="231.74338146050425" stroke="#3366ff" stroke-width="2.8459842519685044"/><line x1="283.4999326599326" y1="231.74338146050425" x2="283.4999326599326" y2="231.74338146050425" stroke="#3366ff" stroke-width="2.8459842519685044"/><line x1="283.4999326599326" y1="231.74338146050425" x2="283.4999326599326" y2="231.74338146050425" stroke="#3366ff" stroke-width="2.8459842519685044"/><line x1="283.4999326599326" y1="231.74338146050425" x2="283.4999326599326" y2="231.74338146050425" stroke="#3366ff" stroke-width="2.8459842519685044"/><line x1="283.4999326599326" y1="231.74338146050425" x2="293.10127946127943" y2="239.6223265845726" stroke="#3366ff" stroke-width="2.8459842519685044"/><line x1="293.10127946127943" y1="239.6223265845726" x2="293.10127946127943" y2="239.6223265845726" stroke="#3366ff" stroke-width="2.8459842519685044"/><line x1="293.10127946127943" y1="239.6223265845726" x2="293.10127946127943" y2="239.6223265845726" stroke="#3366ff" stroke-width="2.8459842519685044"/><line x1="293.10127946127943" y1="239.6223265845726" x2="302.70262626262627" y2="248.21912938580272" stroke="#3366ff" stroke-width="2.8459842519685044"/><line x1="302.70262626262627" y1="248.21912938580272" x2="302.70262626262627" y2="248.21912938580272" stroke="#3366ff" stroke-width="2.8459842519685044"/><line x1="302.70262626262627" y1="248.21912938580272" x2="302.70262626262627" y2="248.21912938580272" stroke="#3366ff" stroke-width="2.8459842519685044"/><line x1="302.70262626262627" y1="248.21912938580272" x2="302.70262626262627" y2="248.21912938580272" stroke="#3366ff" stroke-width="2.8459842519685044"/><line x1="302.70262626262627" y1="248.21912938580272" x2="302.70262626262627" y2="248.21912938580272" stroke="#3366ff" stroke-width="2.8459842519685044"/><line x1="302.70262626262627" y1="248.21912938580272" x2="302.70262626262627" y2="248.21912938580272" stroke="#3366ff" stroke-width="2.8459842519685044"/><line x1="302.70262626262627" y1="248.21912938580272" x2="302.70262626262627" y2="248.21912938580272" stroke="#3366ff" stroke-width="2.8459842519685044"/><line x1="302.70262626262627" y1="248.21912938580272" x2="302.70262626262627" y2="248.21912938580272" stroke="#3366ff" stroke-width="2.8459842519685044"/><line x1="302.70262626262627" y1="248.21912938580272" x2="302.70262626262627" y2="248.21912938580272" stroke="#3366ff" stroke-width="2.8459842519685044"/><line x1="302.70262626262627" y1="248.21912938580272" x2="302.70262626262627" y2="248.21912938580272" stroke="#3366ff" stroke-width="2.8459842519685044"/><line x1="302.70262626262627" y1="248.21912938580272" x2="302.70262626262627" y2="248.21912938580272" stroke="#3366ff" stroke-width="2.8459842519685044"/><line x1="302.70262626262627" y1="248.21912938580272" x2="302.70262626262627" y2="248.21912938580272" stroke="#3366ff" stroke-width="2.8459842519685044"/><line x1="302.70262626262627" y1="248.21912938580272" x2="302.70262626262627" y2="248.21912938580272" stroke="#3366ff" stroke-width="2.8459842519685044"/><line x1="302.70262626262627" y1="248.21912938580272" x2="302.70262626262627" y2="248.21912938580272" stroke="#3366ff" stroke-width="2.8459842519685044"/><line x1="302.70262626262627" y1="248.21912938580272" x2="302.70262626262627" y2="248.21912938580272" stroke="#3366ff" stroke-width="2.8459842519685044"/><line x1="302.70262626262627" y1="248.21912938580272" x2="321.9053198653199" y2="266.3495979281457" stroke="#3366ff" stroke-width="2.8459842519685044"/><line x1="321.9053198653199" y1="266.3495979281457" x2="321.9053198653199" y2="266.3495979281457" stroke="#3366ff" stroke-width="2.8459842519685044"/><line x1="321.9053198653199" y1="266.3495979281457" x2="321.9053198653199" y2="266.3495979281457" stroke="#3366ff" stroke-width="2.8459842519685044"/><line x1="321.9053198653199" y1="266.3495979281457" x2="321.9053198653199" y2="266.3495979281457" stroke="#3366ff" stroke-width="2.8459842519685044"/><line x1="321.9053198653199" y1="266.3495979281457" x2="341.1080134680135" y2="283.7013669043276" stroke="#3366ff" stroke-width="2.8459842519685044"/><line x1="341.1080134680135" y1="283.7013669043276" x2="360.31070707070705" y2="297.8410161311424" stroke="#3366ff" stroke-width="2.8459842519685044"/><line x1="360.31070707070705" y1="297.8410161311424" x2="360.31070707070705" y2="297.8410161311424" stroke="#3366ff" stroke-width="2.8459842519685044"/><line x1="360.31070707070705" y1="297.8410161311424" x2="360.31070707070705" y2="297.8410161311424" stroke="#3366ff" stroke-width="2.8459842519685044"/><line x1="360.31070707070705" y1="297.8410161311424" x2="360.31070707070705" y2="297.8410161311424" stroke="#3366ff" stroke-width="2.8459842519685044"/><line x1="360.31070707070705" y1="297.8410161311424" x2="360.31070707070705" y2="297.8410161311424" stroke="#3366ff" stroke-width="2.8459842519685044"/><line x1="360.31070707070705" y1="297.8410161311424" x2="360.31070707070705" y2="297.8410161311424" stroke="#3366ff" stroke-width="2.8459842519685044"/><line x1="360.31070707070705" y1="297.8410161311424" x2="360.31070707070705" y2="297.8410161311424" stroke="#3366ff" stroke-width="2.8459842519685044"/><line x1="360.31070707070705" y1="297.8410161311424" x2="360.31070707070705" y2="297.8410161311424" stroke="#3366ff" stroke-width="2.8459842519685044"/><line x1="360.31070707070705" y1="297.8410161311424" x2="360.31070707070705" y2="297.8410161311424" stroke="#3366ff" stroke-width="2.8459842519685044"/><line x1="360.31070707070705" y1="297.8410161311424" x2="360.31070707070705" y2="297.8410161311424" stroke="#3366ff" stroke-width="2.8459842519685044"/><line x1="360.31070707070705" y1="297.8410161311424" x2="360.31070707070705" y2="297.8410161311424" stroke="#3366ff" stroke-width="2.8459842519685044"/><line x1="360.31070707070705" y1="297.8410161311424" x2="369.9120538720539" y2="302.94585203128554" stroke="#3366ff" stroke-width="2.8459842519685044"/><line x1="369.9120538720539" y1="302.94585203128554" x2="369.9120538720539" y2="302.94585203128554" stroke="#3366ff" stroke-width="2.8459842519685044"/><line x1="369.9120538720539" y1="302.94585203128554" x2="369.9120538720539" y2="302.94585203128554" stroke="#3366ff" stroke-width="2.8459842519685044"/><line x1="369.9120538720539" y1="302.94585203128554" x2="369.9120538720539" y2="302.94585203128554" stroke="#3366ff" stroke-width="2.8459842519685044"/><line x1="369.9120538720539" y1="302.94585203128554" x2="369.9120538720539" y2="302.94585203128554" stroke="#3366ff" stroke-width="2.8459842519685044"/><line x1="369.9120538720539" y1="302.94585203128554" x2="369.9120538720539" y2="302.94585203128554" stroke="#3366ff" stroke-width="2.8459842519685044"/><line x1="369.9120538720539" y1="302.94585203128554" x2="369.9120538720539" y2="302.94585203128554" stroke="#3366ff" stroke-width="2.8459842519685044"/><line x1="369.9120538720539" y1="302.94585203128554" x2="369.9120538720539" y2="302.94585203128554" stroke="#3366ff" stroke-width="2.8459842519685044"/><line x1="369.9120538720539" y1="302.94585203128554" x2="369.9120538720539" y2="302.94585203128554" stroke="#3366ff" stroke-width="2.8459842519685044"/><line x1="369.9120538720539" y1="302.94585203128554" x2="369.9120538720539" y2="302.94585203128554" stroke="#3366ff" stroke-width="2.8459842519685044"/><line x1="369.9120538720539" y1="302.94585203128554" x2="369.9120538720539" y2="302.94585203128554" stroke="#3366ff" stroke-width="2.8459842519685044"/><line x1="369.9120538720539" y1="302.94585203128554" x2="369.9120538720539" y2="302.94585203128554" stroke="#3366ff" stroke-width="2.8459842519685044"/><line x1="369.9120538720539" y1="302.94585203128554" x2="369.9120538720539" y2="302.94585203128554" stroke="#3366ff" stroke-width="2.8459842519685044"/><line x1="369.9120538720539" y1="302.94585203128554" x2="369.9120538720539" y2="302.94585203128554" stroke="#3366ff" stroke-width="2.8459842519685044"/><line x1="369.9120538720539" y1="302.94585203128554" x2="369.9120538720539" y2="302.94585203128554" stroke="#3366ff" stroke-width="2.8459842519685044"/><line x1="369.9120538720539" y1="302.94585203128554" x2="369.9120538720539" y2="302.94585203128554" stroke="#3366ff" stroke-width="2.8459842519685044"/><line x1="369.9120538720539" y1="302.94585203128554" x2="369.9120538720539" y2="302.94585203128554" stroke="#3366ff" stroke-width="2.8459842519685044"/><line x1="369.9120538720539" y1="302.94585203128554" x2="398.7160942760943" y2="308.71481179711213" stroke="#3366ff" stroke-width="2.8459842519685044"/><line x1="398.7160942760943" y1="308.71481179711213" x2="398.7160942760943" y2="308.71481179711213" stroke="#3366ff" stroke-width="2.8459842519685044"/><line x1="398.7160942760943" y1="308.71481179711213" x2="417.91878787878795" y2="305.7481230817699" stroke="#3366ff" stroke-width="2.8459842519685044"/><line x1="417.91878787878795" y1="305.7481230817699" x2="417.91878787878795" y2="305.7481230817699" stroke="#3366ff" stroke-width="2.8459842519685044"/><line x1="417.91878787878795" y1="305.7481230817699" x2="417.91878787878795" y2="305.7481230817699" stroke="#3366ff" stroke-width="2.8459842519685044"/><line x1="417.91878787878795" y1="305.7481230817699" x2="417.91878787878795" y2="305.7481230817699" stroke="#3366ff" stroke-width="2.8459842519685044"/><line x1="417.91878787878795" y1="305.7481230817699" x2="417.91878787878795" y2="305.7481230817699" stroke="#3366ff" stroke-width="2.8459842519685044"/><line x1="417.91878787878795" y1="305.7481230817699" x2="427.5201346801347" y2="302.6181390498043" stroke="#3366ff" stroke-width="2.8459842519685044"/><line x1="427.5201346801347" y1="302.6181390498043" x2="427.5201346801347" y2="302.6181390498043" stroke="#3366ff" stroke-width="2.8459842519685044"/><line x1="427.5201346801347" y1="302.6181390498043" x2="427.5201346801347" y2="302.6181390498043" stroke="#3366ff" stroke-width="2.8459842519685044"/><line x1="427.5201346801347" y1="302.6181390498043" x2="427.5201346801347" y2="302.6181390498043" stroke="#3366ff" stroke-width="2.8459842519685044"/><line x1="427.5201346801347" y1="302.6181390498043" x2="427.5201346801347" y2="302.6181390498043" stroke="#3366ff" stroke-width="2.8459842519685044"/><line x1="427.5201346801347" y1="302.6181390498043" x2="427.5201346801347" y2="302.6181390498043" stroke="#3366ff" stroke-width="2.8459842519685044"/><line x1="427.5201346801347" y1="302.6181390498043" x2="437.1214814814815" y2="298.5669102987414" stroke="#3366ff" stroke-width="2.8459842519685044"/><line x1="437.1214814814815" y1="298.5669102987414" x2="437.1214814814815" y2="298.5669102987414" stroke="#3366ff" stroke-width="2.8459842519685044"/><line x1="437.1214814814815" y1="298.5669102987414" x2="437.1214814814815" y2="298.5669102987414" stroke="#3366ff" stroke-width="2.8459842519685044"/><line x1="437.1214814814815" y1="298.5669102987414" x2="437.1214814814815" y2="298.5669102987414" stroke="#3366ff" stroke-width="2.8459842519685044"/><line x1="437.1214814814815" y1="298.5669102987414" x2="437.1214814814815" y2="298.5669102987414" stroke="#3366ff" stroke-width="2.8459842519685044"/><line x1="437.1214814814815" y1="298.5669102987414" x2="437.1214814814815" y2="298.5669102987414" stroke="#3366ff" stroke-width="2.8459842519685044"/><line x1="437.1214814814815" y1="298.5669102987414" x2="437.1214814814815" y2="298.5669102987414" stroke="#3366ff" stroke-width="2.8459842519685044"/><line x1="437.1214814814815" y1="298.5669102987414" x2="437.1214814814815" y2="298.5669102987414" stroke="#3366ff" stroke-width="2.8459842519685044"/><line x1="437.1214814814815" y1="298.5669102987414" x2="456.32417508417507" y2="288.2302638306221" stroke="#3366ff" stroke-width="2.8459842519685044"/><line x1="456.32417508417507" y1="288.2302638306221" x2="465.9255218855219" y2="282.2096187092146" stroke="#3366ff" stroke-width="2.8459842519685044"/><line x1="465.9255218855219" y1="282.2096187092146" x2="465.9255218855219" y2="282.2096187092146" stroke="#3366ff" stroke-width="2.8459842519685044"/><line x1="465.9255218855219" y1="282.2096187092146" x2="465.9255218855219" y2="282.2096187092146" stroke="#3366ff" stroke-width="2.8459842519685044"/><line x1="465.9255218855219" y1="282.2096187092146" x2="465.9255218855219" y2="282.2096187092146" stroke="#3366ff" stroke-width="2.8459842519685044"/><line x1="465.9255218855219" y1="282.2096187092146" x2="465.9255218855219" y2="282.2096187092146" stroke="#3366ff" stroke-width="2.8459842519685044"/><line x1="465.9255218855219" y1="282.2096187092146" x2="465.9255218855219" y2="282.2096187092146" stroke="#3366ff" stroke-width="2.8459842519685044"/><line x1="465.9255218855219" y1="282.2096187092146" x2="465.9255218855219" y2="282.2096187092146" stroke="#3366ff" stroke-width="2.8459842519685044"/><line x1="465.9255218855219" y1="282.2096187092146" x2="465.9255218855219" y2="282.2096187092146" stroke="#3366ff" stroke-width="2.8459842519685044"/><line x1="465.9255218855219" y1="282.2096187092146" x2="485.1282154882156" y2="269.12561618082594" stroke="#3366ff" stroke-width="2.8459842519685044"/><line x1="485.1282154882156" y1="269.12561618082594" x2="485.1282154882156" y2="269.12561618082594" stroke="#3366ff" stroke-width="2.8459842519685044"/><line x1="485.1282154882156" y1="269.12561618082594" x2="494.7295622895623" y2="262.3270313694939" stroke="#3366ff" stroke-width="2.8459842519685044"/><line x1="494.7295622895623" y1="262.3270313694939" x2="504.3309090909091" y2="255.53390592383573" stroke="#3366ff" stroke-width="2.8459842519685044"/><line x1="504.3309090909091" y1="255.53390592383573" x2="513.9322558922559" y2="248.8786261416762" stroke="#3366ff" stroke-width="2.8459842519685044"/><line x1="513.9322558922559" y1="248.8786261416762" x2="513.9322558922559" y2="248.8786261416762" stroke="#3366ff" stroke-width="2.8459842519685044"/><line x1="513.9322558922559" y1="248.8786261416762" x2="542.7362962962964" y2="231.06372375443277" stroke="#3366ff" stroke-width="2.8459842519685044"/><line x1="542.7362962962964" y1="231.06372375443277" x2="590.7430303030303" y2="216.48518750927911" stroke="#3366ff" stroke-width="2.8459842519685044"/></svg>