<svg xmlns="http://www.w3.org/2000/svg" width="800" height="600" viewBox="0 0 800 600"><rect x="0.0" y="0.0" width="800.0" height="600.0" fill="#ffffff" fill-opacity="1.0" stroke="none"/><line x1="60.03922558922558" y1="5.5" x2="60.03922558922558" y2="563.8" stroke="#dddddd" stroke-width="0.5"/><line x1="187.3287878787879" y1="5.5" x2="187.3287878787879" y2="563.8" stroke="#dddddd" stroke-width="0.5"/><line x1="314.61835016835016" y1="5.5" x2="314.61835016835016" y2="563.8" stroke="#dddddd" stroke-width="0.5"/><line x1="441.9079124579125" y1="5.5" x2="441.9079124579125" y2="563.8" stroke="#dddddd" stroke-width="0.5"/><line x1="569.1974747474748" y1="5.5" x2="569.1974747474748" y2="563.8" stroke="#dddddd" stroke-width="0.5"/><line x1="696.4870370370371" y1="5.5" x2="696.4870370370371" y2="563.8" stroke="#dddddd" stroke-width="0.5"/><line x1="123.68400673400674" y1="5.5" x2="123.68400673400674" y2="563.8" stroke="#dddddd" stroke-width="1.0"/><line x1="250.97356902356904" y1="5.5" x2="250.97356902356904" y2="563.8" stroke="#dddddd" stroke-width="1.0"/><line x1="378.2631313131313" y1="5.5" x2="378.2631313131313" y2="563.8" stroke="#dddddd" stroke-width="1.0"/><line x1="505.5526936026936" y1="5.5" x2="505.5526936026936" y2="563.8" stroke="#dddddd" stroke-width="1.0"/><line x1="632.8422558922559" y1="5.5" x2="632.8422558922559" y2="563.8" stroke="#dddddd" stroke-width="1.0"/><line x1="760.1318181818182" y1="5.5" x2="760.1318181818182" y2="563.8" stroke="#dddddd" stroke-width="1.0"/><line x1="38.4" y1="485.21891995723485" x2="794.5" y2="485.21891995723485" stroke="#dddddd" stroke-width="0.5"/><line x1="38.4" y1="355.4641510113485" x2="794.5" y2="355.4641510113485" stroke="#dddddd" stroke-width="0.5"/><line x1="38.4" y1="225.70938206546214" x2="794.5" y2="225.70938206546214" stroke="#dddddd" stroke-width="0.5"/><line x1="38.4" y1="95.95461311957587" x2="794.5" y2="95.95461311957587" stroke="#dddddd" stroke-width="0.5"/><line x1="38.4" y1="550.0963044301781" x2="794.5" y2="550.0963044301781" stroke="#dddddd" stroke-width="1.0"/><line x1="38.4" y1="420.3415354842917" x2="794.5" y2="420.3415354842917" stroke="#dddddd" stroke-width="1.0"/><line x1="38.4" y1="290.58676653840536" x2="794.5" y2="290.58676653840536" stroke="#dddddd" stroke-width="1.0"/><line x1="38.4" y1="160.83199759251897" x2="794.5" y2="160.83199759251897" stroke="#dddddd" stroke-width="1.0"/><line x1="38.4" y1="31.077228646632648" x2="794.5" y2="31.077228646632648" stroke="#dddddd" stroke-width="1.0"/><rect x="38.4" y="5.5" width="756.1" height="558.3" fill="#ffffff" fill-opacity="0.0" stroke="#444444" stroke-width="1.0"/><line x1="123.68400673400674" y1="563.8" x2="123.68400673400674" y2="566.55" stroke="#444444" stroke-width="1.0"/><text x="123.68400673400674" y="577.55" fill="#333333" font-size="11.0" font-family="sans-serif" text-anchor="middle">2</text><line x1="250.97356902356904" y1="563.8" x2="250.97356902356904" y2="566.55" stroke="#444444" stroke-width="1.0"/><text x="250.97356902356904" y="577.55" fill="#333333" font-size="11.0" font-family="sans-serif" text-anchor="middle">3</text><line x1="378.2631313131313" y1="563.8" x2="378.2631313131313" y2="566.55" stroke="#444444" stroke-width="1.0"/><text x="378.2631313131313" y="577.55" fill="#333333" font-size="11.0" font-family="sans-serif" text-anchor="middle">4</text><line x1="505.5526936026936" y1="563.8" x2="505.5526936026936" y2="566.55" stroke="#444444" stroke-width="1.0"/><text x="505.5526936026936" y="577.55" fill="#333333" font-size="11.0" font-family="sans-serif" text-anchor="middle">5</text><line x1="632.8422558922559" y1="563.8" x2="632.8422558922559" y2="566.55" stroke="#444444" stroke-width="1.0"/><text x="632.8422558922559" y="577.55" fill="#333333" font-size="11.0" font-family="sans-serif" text-anchor="middle">6</text><line x1="760.1318181818182" y1="563.8" x2="760.1318181818182" y2="566.55" stroke="#444444" stroke-width="1.0"/><text x="760.1318181818182" y="577.55" fill="#333333" font-size="11.0" font-family="sans-serif" text-anchor="middle">7</text><line x1="38.4" y1="550.0963044301781" x2="35.65" y2="550.0963044301781" stroke="#444444" stroke-width="1.0"/><text x="33.449999999999996" y="553.9463044301781" fill="#333333" font-size="11.0" font-family="sans-serif" text-anchor="end">15</text><line x1="38.4" y1="420.3415354842917" x2="35.65" y2="420.3415354842917" stroke="#444444" stroke-width="1.0"/><text x="33.449999999999996" y="424.1915354842917" fill="#333333" font-size="11.0" font-family="sans-serif" text-anchor="end">20</text><line x1="38.4" y1="290.58676653840536" x2="35.65" y2="290.58676653840536" stroke="#444444" stroke-width="1.0"/><text x="33.449999999999996" y="294.4367665384054" fill="#333333" font-size="11.0" font-family="sans-serif" text-anchor="end">25</text><line x1="38.4" y1="160.83199759251897" x2="35.65" y2="160.83199759251897" stroke="#444444" stroke-width="1.0"/><text x="33.449999999999996" y="164.68199759251897" fill="#333333" font-size="11.0" font-family="sans-serif" text-anchor="end">30</text><line x1="38.4" y1="31.077228646632648" x2="35.65" y2="31.077228646632648" stroke="#444444" stroke-width="1.0"/><text x="33.449999999999996" y="34.92722864663265" fill="#333333" font-size="11.0" font-family="sans-serif" text-anchor="end">35</text><text x="416.45" y="592.1" fill="#333333" font-size="12.0" font-family="sans-serif" text-anchor="middle">displ</text><text x="13.899999999999999" y="284.65" fill="#333333" font-size="12.0" font-family="sans-serif" text-anchor="middle" transform="rotate(-90.0 13.899999999999999 284.65)">hwy</text><path d="M 72.76818181818183 178.66312996080848 L 72.76818181818183 178.66312996080848 L 72.76818181818183 178.66312996080848 L 72.76818181818183 178.66312996080848 L 72.76818181818183 178.66312996080848 L 98.22609427609427 150.39322516610088 L 98.22609427609427 150.39322516610088 L 98.22609427609427 150.39322516610088 L 98.22609427609427 150.39322516610088 L 98.22609427609427 150.39322516610088 L 98.22609427609427 150.39322516610088 L 98.22609427609427 150.39322516610088 L 98.22609427609427 150.39322516610088 L 98.22609427609427 150.39322516610088 L 98.22609427609427 150.39322516610088 L 98.22609427609427 150.39322516610088 L 98.22609427609427 150.39322516610088 L 98.22609427609427 150.39322516610088 L 98.22609427609427 150.39322516610088 L 110.95505050505048 165.1930244544256 L 110.95505050505048 165.1930244544256 L 110.95505050505048 165.1930244544256 L 123.68400673400674 182.76548711886153 L 123.68400673400674 182.76548711886153 L 123.68400673400674 182.76548711886153 L 123.68400673400674 182.76548711886153 L 123.68400673400674 182.76548711886153 L 123.68400673400674 182.76548711886153 L 123.68400673400674 182.76548711886153 L 123.68400673400674 182.76548711886153 L 123.68400673400674 182.76548711886153 L 123.68400673400674 182.76548711886153 L 123.68400673400674 182.76548711886153 L 123.68400673400674 182.76548711886153 L 123.68400673400674 182.76548711886153 L 123.68400673400674 182.76548711886153 L 123.68400673400674 182.76548711886153 L 123.68400673400674 182.76548711886153 L 123.68400673400674 182.76548711886153 L 123.68400673400674 182.76548711886153 L 123.68400673400674 182.76548711886153 L 123.68400673400674 182.76548711886153 L 123.68400673400674 182.76548711886153 L 149.14191919191921 229.94569008459393 L 149.14191919191921 229.94569008459393 L 149.14191919191921 229.94569008459393 L 149.14191919191921 229.94569008459393 L 149.14191919191921 229.94569008459393 L 149.14191919191921 229.94569008459393 L 174.59983164983166 268.1143707321482 L 174.59983164983166 268.1143707321482 L 174.59983164983166 268.1143707321482 L 174.59983164983166 268.1143707321482 L 174.59983164983166 268.1143707321482 L 174.59983164983166 268.1143707321482 L 174.59983164983166 268.1143707321482 L 174.59983164983166 268.1143707321482 L 174.59983164983166 268.1143707321482 L 174.59983164983166 268.1143707321482 L 174.59983164983166 268.1143707321482 L 174.59983164983166 268.1143707321482 L 174.59983164983166 268.1143707321482 L 187.3287878787879 280.8054166795831 L 187.3287878787879 280.8054166795831 L 187.3287878787879 280.8054166795831 L 187.3287878787879 280.8054166795831 L 187.3287878787879 280.8054166795831 L 187.3287878787879 280.8054166795831 L 187.3287878787879 280.8054166795831 L 187.3287878787879 280.8054166795831 L 187.3287878787879 280.8054166795831 L 187.3287878787879 280.8054166795831 L 187.3287878787879 280.8054166795831 L 187.3287878787879 280.8054166795831 L 187.3287878787879 280.8054166795831 L 187.3287878787879 280.8054166795831 L 187.3287878787879 280.8054166795831 L 187.3287878787879 280.8054166795831 L 187.3287878787879 280.8054166795831 L 187.3287878787879 280.8054166795831 L 187.3287878787879 280.8054166795831 L 187.3287878787879 280.8054166795831 L 212.78670033670036 306.22899070262366 L 212.78670033670036 306.22899070262366 L 212.78670033670036 306.22899070262366 L 212.78670033670036 306.22899070262366 L 212.78670033670036 306.22899070262366 L 212.78670033670036 306.22899070262366 L 212.78670033670036 306.22899070262366 L 212.78670033670036 306.22899070262366 L 225.51565656565657 320.1250972009485 L 225.51565656565657 320.1250972009485 L 225.51565656565657 320.1250972009485 L 225.51565656565657 320.1250972009485 L 225.51565656565657 320.1250972009485 L 225.51565656565657 320.1250972009485 L 225.51565656565657 320.1250972009485 L 225.51565656565657 320.1250972009485 L 225.51565656565657 320.1250972009485 L 225.51565656565657 320.1250972009485 L 250.97356902356904 341.36057951996 L 250.97356902356904 341.36057951996 L 250.97356902356904 341.36057951996 L 250.97356902356904 341.36057951996 L 250.97356902356904 341.36057951996 L 250.97356902356904 341.36057951996 L 250.97356902356904 341.36057951996 L 250.97356902356904 341.36057951996 L 263.7025252525253 348.542462082993 L 263.7025252525253 348.542462082993 L 263.7025252525253 348.542462082993 L 263.7025252525253 348.542462082993 L 263.7025252525253 348.542462082993 L 263.7025252525253 348.542462082993 L 289.1604377104377 360.2945827119005 L 289.1604377104377 360.2945827119005 L 289.1604377104377 360.2945827119005 L 289.1604377104377 360.2945827119005 L 289.1604377104377 360.2945827119005 L 289.1604377104377 360.2945827119005 L 289.1604377104377 360.2945827119005 L 289.1604377104377 360.2945827119005 L 289.1604377104377 360.2945827119005 L 301.8893939393939 367.03992755972837 L 301.8893939393939 367.03992755972837 L 301.8893939393939 367.03992755972837 L 301.8893939393939 367.03992755972837 L 314.61835016835016 375.488505916324 L 314.61835016835016 375.488505916324 L 314.61835016835016 375.488505916324 L 314.61835016835016 375.488505916324 L 314.61835016835016 375.488505916324 L 327.3473063973064 385.77486409206404 L 327.3473063973064 385.77486409206404 L 340.0762626262627 397.515291223694 L 340.0762626262627 397.515291223694 L 340.0762626262627 397.515291223694 L 352.8052188552188 410.18098852511923 L 352.8052188552188 410.18098852511923 L 352.8052188552188 410.18098852511923 L 352.8052188552188 410.18098852511923 L 352.8052188552188 410.18098852511923 L 352.8052188552188 410.18098852511923 L 352.8052188552188 410.18098852511923 L 352.8052188552188 410.18098852511923 L 365.5341750841751 423.35330225356904 L 365.5341750841751 423.35330225356904 L 365.5341750841751 423.35330225356904 L 378.2631313131313 436.7908454124477 L 378.2631313131313 436.7908454124477 L 378.2631313131313 436.7908454124477 L 378.2631313131313 436.7908454124477 L 378.2631313131313 436.7908454124477 L 378.2631313131313 436.7908454124477 L 378.2631313131313 436.7908454124477 L 378.2631313131313 436.7908454124477 L 378.2631313131313 436.7908454124477 L 378.2631313131313 436.7908454124477 L 378.2631313131313 436.7908454124477 L 378.2631313131313 436.7908454124477 L 378.2631313131313 436.7908454124477 L 378.2631313131313 436.7908454124477 L 378.2631313131313 436.7908454124477 L 403.7210437710438 464.4393129660245 L 403.7210437710438 464.4393129660245 L 403.7210437710438 464.4393129660245 L 403.7210437710438 464.4393129660245 L 429.17895622895634 493.2358644784844 L 454.6368686868687 519.5560722554006 L 454.6368686868687 519.5560722554006 L 454.6368686868687 519.5560722554006 L 454.6368686868687 519.5560722554006 L 454.6368686868687 519.5560722554006 L 454.6368686868687 519.5560722554006 L 454.6368686868687 519.5560722554006 L 454.6368686868687 519.5560722554006 L 454.6368686868687 519.5560722554006 L 454.6368686868687 519.5560722554006 L 454.6368686868687 519.5560722554006 L 467.36582491582493 529.3009122831548 L 467.36582491582493 529.3009122831548 L 467.36582491582493 529.3009122831548 L 467.36582491582493 529.3009122831548 L 467.36582491582493 529.3009122831548 L 467.36582491582493 529.3009122831548 L 467.36582491582493 529.3009122831548 L 467.36582491582493 529.3009122831548 L 467.36582491582493 529.3009122831548 L 467.36582491582493 529.3009122831548 L 467.36582491582493 529.3009122831548 L 467.36582491582493 529.3009122831548 L 467.36582491582493 529.3009122831548 L 467.36582491582493 529.3009122831548 L 467.36582491582493 529.3009122831548 L 467.36582491582493 529.3009122831548 L 467.36582491582493 529.3009122831548 L 505.5526936026936 538.4227272727272 L 505.5526936026936 538.4227272727272 L 531.0106060606062 532.0553388675418 L 531.0106060606062 532.0553388675418 L 531.0106060606062 532.0553388675418 L 531.0106060606062 532.0553388675418 L 531.0106060606062 532.0553388675418 L 543.7395622895623 526.9423162928297 L 543.7395622895623 526.9423162928297 L 543.7395622895623 526.9423162928297 L 543.7395622895623 526.9423162928297 L 543.7395622895623 526.9423162928297 L 543.7395622895623 526.9423162928297 L 556.4685185185186 521.1902437963637 L 556.4685185185186 521.1902437963637 L 556.4685185185186 521.1902437963637 L 556.4685185185186 521.1902437963637 L 556.4685185185186 521.1902437963637 L 556.4685185185186 521.1902437963637 L 556.4685185185186 521.1902437963637 L 556.4685185185186 521.1902437963637 L 581.926430976431 508.44662245433176 L 594.6553872053872 501.42704816527726 L 594.6553872053872 501.42704816527726 L 594.6553872053872 501.42704816527726 L 594.6553872053872 501.42704816527726 L 594.6553872053872 501.42704816527726 L 594.6553872053872 501.42704816527726 L 594.6553872053872 501.42704816527726 L 594.6553872053872 501.42704816527726 L 620.1132996632997 485.9826279755122 L 620.1132996632997 485.9826279755122 L 632.8422558922559 477.760001914004 L 645.571212121212 469.5552793974308 L 658.3001683501684 461.84009001004915 L 658.3001683501684 461.84009001004915 L 696.4870370370371 449.129656817174 L 760.1318181818182 514.1600145589549 L 760.1318181818182 198.86090840555715 L 696.4870370370371 312.8243129549692 L 658.3001683501684 359.9098316827233 L 658.3001683501684 359.9098316827233 L 645.571212121212 374.5331755761812 L 632.8422558922559 389.1296671055658 L 620.1132996632997 403.7265795220136 L 620.1132996632997 403.7265795220136 L 594.6553872053872 432.1987842516837 L 594.6553872053872 432.1987842516837 L 594.6553872053872 432.1987842516837 L 594.6553872053872 432.1987842516837 L 594.6553872053872 432.1987842516837 L 594.6553872053872 432.1987842516837 L 594.6553872053872 432.1987842516837 L 594.6553872053872 432.1987842516837 L 581.926430976431 445.3875837378706 L 556.4685185185186 467.3390509117766 L 556.4685185185186 467.3390509117766 L 556.4685185185186 467.3390509117766 L 556.4685185185186 467.3390509117766 L 556.4685185185186 467.3390509117766 L 556.4685185185186 467.3390509117766 L 556.4685185185186 467.3390509117766 L 556.4685185185186 467.3390509117766 L 543.7395622895623 475.18498048977006 L 543.7395622895623 475.18498048977006 L 543.7395622895623 475.18498048977006 L 543.7395622895623 475.18498048977006 L 543.7395622895623 475.18498048977006 L 543.7395622895623 475.18498048977006 L 531.0106060606062 480.57779008968566 L 531.0106060606062 480.57779008968566 L 531.0106060606062 480.57779008968566 L 531.0106060606062 480.57779008968566 L 531.0106060606062 480.57779008968566 L 505.5526936026936 484.16813100178797 L 505.5526936026936 484.16813100178797 L 467.36582491582493 473.92635739059295 L 467.36582491582493 473.92635739059295 L 467.36582491582493 473.92635739059295 L 467.36582491582493 473.92635739059295 L 467.36582491582493 473.92635739059295 L 467.36582491582493 473.92635739059295 L 467.36582491582493 473.92635739059295 L 467.36582491582493 473.92635739059295 L 467.36582491582493 473.92635739059295 L 467.36582491582493 473.92635739059295 L 467.36582491582493 473.92635739059295 L 467.36582491582493 473.92635739059295 L 467.36582491582493 473.92635739059295 L 467.36582491582493 473.92635739059295 L 467.36582491582493 473.92635739059295 L 467.36582491582493 473.92635739059295 L 467.36582491582493 473.92635739059295 L 454.6368686868687 466.53674922365826 L 454.6368686868687 466.53674922365826 L 454.6368686868687 466.53674922365826 L 454.6368686868687 466.53674922365826 L 454.6368686868687 466.53674922365826 L 454.6368686868687 466.53674922365826 L 454.6368686868687 466.53674922365826 L 454.6368686868687 466.53674922365826 L 454.6368686868687 466.53674922365826 L 454.6368686868687 466.53674922365826 L 454.6368686868687 466.53674922365826 L 429.17895622895634 445.397040186963 L 403.7210437710438 415.9521531058217 L 403.7210437710438 415.9521531058217 L 403.7210437710438 415.9521531058217 L 403.7210437710438 415.9521531058217 L 378.2631313131313 382.74546682859636 L 378.2631313131313 382.74546682859636 L 378.2631313131313 382.74546682859636 L 378.2631313131313 382.74546682859636 L 378.2631313131313 382.74546682859636 L 378.2631313131313 382.74546682859636 L 378.2631313131313 382.74546682859636 L 378.2631313131313 382.74546682859636 L 378.2631313131313 382.74546682859636 L 378.2631313131313 382.74546682859636 L 378.2631313131313 382.74546682859636 L 378.2631313131313 382.74546682859636 L 378.2631313131313 382.74546682859636 L 378.2631313131313 382.74546682859636 L 378.2631313131313 382.74546682859636 L 365.5341750841751 367.3277294027448 L 365.5341750841751 367.3277294027448 L 365.5341750841751 367.3277294027448 L 352.8052188552188 354.05426119070955 L 352.8052188552188 354.05426119070955 L 352.8052188552188 354.05426119070955 L 352.8052188552188 354.05426119070955 L 352.8052188552188 354.05426119070955 L 352.8052188552188 354.05426119070955 L 352.8052188552188 354.05426119070955 L 352.8052188552188 354.05426119070955 L 340.0762626262627 343.4348673262242 L 340.0762626262627 343.4348673262242 L 340.0762626262627 343.4348673262242 L 327.3473063973064 334.72295144677054 L 327.3473063973064 334.72295144677054 L 314.61835016835016 326.7919884589865 L 314.61835016835016 326.7919884589865 L 314.61835016835016 326.7919884589865 L 314.61835016835016 326.7919884589865 L 314.61835016835016 326.7919884589865 L 301.8893939393939 318.6605411923516 L 301.8893939393939 318.6605411923516 L 301.8893939393939 318.6605411923516 L 301.8893939393939 318.6605411923516 L 289.1604377104377 309.86542964997534 L 289.1604377104377 309.86542964997534 L 289.1604377104377 309.86542964997534 L 289.1604377104377 309.86542964997534 L 289.1604377104377 309.86542964997534 L 289.1604377104377 309.86542964997534 L 289.1604377104377 309.86542964997534 L 289.1604377104377 309.86542964997534 L 289.1604377104377 309.86542964997534 L 263.7025252525253 291.2644399684868 L 263.7025252525253 291.2644399684868 L 263.7025252525253 291.2644399684868 L 263.7025252525253 291.2644399684868 L 263.7025252525253 291.2644399684868 L 263.7025252525253 291.2644399684868 L 250.97356902356904 282.4382159967936 L 250.97356902356904 282.4382159967936 L 250.97356902356904 282.4382159967936 L 250.97356902356904 282.4382159967936 L 250.97356902356904 282.4382159967936 L 250.97356902356904 282.4382159967936 L 250.97356902356904 282.4382159967936 L 250.97356902356904 282.4382159967936 L 225.51565656565657 267.0057509509637 L 225.51565656565657 267.0057509509637 L 225.51565656565657 267.0057509509637 L 225.51565656565657 267.0057509509637 L 225.51565656565657 267.0057509509637 L 225.51565656565657 267.0057509509637 L 225.51565656565657 267.0057509509637 L 225.51565656565657 267.0057509509637 L 225.51565656565657 267.0057509509637 L 225.51565656565657 267.0057509509637 L 212.78670033670036 259.0728160072729 L 212.78670033670036 259.0728160072729 L 212.78670033670036 259.0728160072729 L 212.78670033670036 259.0728160072729 L 212.78670033670036 259.0728160072729 L 212.78670033670036 259.0728160072729 L 212.78670033670036 259.0728160072729 L 212.78670033670036 259.0728160072729 L 187.3287878787879 231.4370841486932 L 187.3287878787879 231.4370841486932 L 187.3287878787879 231.4370841486932 L 187.3287878787879 231.4370841486932 L 187.3287878787879 231.4370841486932 L 187.3287878787879 231.4370841486932 L 187.3287878787879 231.4370841486932 L 187.3287878787879 231.4370841486932 L 187.3287878787879 231.4370841486932 L 187.3287878787879 231.4370841486932 L 187.3287878787879 231.4370841486932 L 187.3287878787879 231.4370841486932 L 187.3287878787879 231.4370841486932 L 187.3287878787879 231.4370841486932 L 187.3287878787879 231.4370841486932 L 187.3287878787879 231.4370841486932 L 187.3287878787879 231.4370841486932 L 187.3287878787879 231.4370841486932 L 187.3287878787879 231.4370841486932 L 187.3287878787879 231.4370841486932 L 174.59983164983166 212.01743707359032 L 174.59983164983166 212.01743707359032 L 174.59983164983166 212.01743707359032 L 174.59983164983166 212.01743707359032 L 174.59983164983166 212.01743707359032 L 174.59983164983166 212.01743707359032 L 174.59983164983166 212.01743707359032 L 174.59983164983166 212.01743707359032 L 174.59983164983166 212.01743707359032 L 174.59983164983166 212.01743707359032 L 174.59983164983166 212.01743707359032 L 174.59983164983166 212.01743707359032 L 174.59983164983166 212.01743707359032 L 149.14191919191921 172.6015800552836 L 149.14191919191921 172.6015800552836 L 149.14191919191921 172.6015800552836 L 149.14191919191921 172.6015800552836 L 149.14191919191921 172.6015800552836 L 149.14191919191921 172.6015800552836 L 123.68400673400674 128.05040671387394 L 123.68400673400674 128.05040671387394 L 123.68400673400674 128.05040671387394 L 123.68400673400674 128.05040671387394 L 123.68400673400674 128.05040671387394 L 123.68400673400674 128.05040671387394 L 123.68400673400674 128.05040671387394 L 123.68400673400674 128.05040671387394 L 123.68400673400674 128.05040671387394 L 123.68400673400674 128.05040671387394 L 123.68400673400674 128.05040671387394 L 123.68400673400674 128.05040671387394 L 123.68400673400674 128.05040671387394 L 123.68400673400674 128.05040671387394 L 123.68400673400674 128.05040671387394 L 123.68400673400674 128.05040671387394 L 123.68400673400674 128.05040671387394 L 123.68400673400674 128.05040671387394 L 123.68400673400674 128.05040671387394 L 123.68400673400674 128.05040671387394 L 123.68400673400674 128.05040671387394 L 110.95505050505048 103.25976919990654 L 110.95505050505048 103.25976919990654 L 110.95505050505048 103.25976919990654 L 98.22609427609427 84.05003336752736 L 98.22609427609427 84.05003336752736 L 98.22609427609427 84.05003336752736 L 98.22609427609427 84.05003336752736 L 98.22609427609427 84.05003336752736 L 98.22609427609427 84.05003336752736 L 98.22609427609427 84.05003336752736 L 98.22609427609427 84.05003336752736 L 98.22609427609427 84.05003336752736 L 98.22609427609427 84.05003336752736 L 98.22609427609427 84.05003336752736 L 98.22609427609427 84.05003336752736 L 98.22609427609427 84.05003336752736 L 98.22609427609427 84.05003336752736 L 72.76818181818183 30.87727272727284 L 72.76818181818183 30.87727272727284 L 72.76818181818183 30.87727272727284 L 72.76818181818183 30.87727272727284 L 72.76818181818183 30.87727272727284 Z" fill="#3366FF" fill-opacity="0.2" stroke="none"/><line x1="72.76818181818183" y1="104.77020134404063" x2="72.76818181818183" y2="104.77020134404063" stroke="#3366FF" stroke-width="2.0"/><line x1="72.76818181818183" y1="104.77020134404063" x2="72.76818181818183" y2="104.77020134404063" stroke="#3366FF" stroke-width="2.0"/><line x1="72.76818181818183" y1="104.77020134404063" x2="72.76818181818183" y2="104.77020134404063" stroke="#3366FF" stroke-width="2.0"/><line x1="72.76818181818183" y1="104.77020134404063" x2="72.76818181818183" y2="104.77020134404063" stroke="#3366FF" stroke-width="2.0"/><line x1="72.76818181818183" y1="104.77020134404063" x2="98.22609427609427" y2="117.2216292668142" stroke="#3366FF" stroke-width="2.0"/><line x1="98.22609427609427" y1="117.2216292668142" x2="98.22609427609427" y2="117.2216292668142" stroke="#3366FF" stroke-width="2.0"/><line x1="98.22609427609427" y1="117.2216292668142" x2="98.22609427609427" y2="117.2216292668142" stroke="#3366FF" stroke-width="2.0"/><line x1="98.22609427609427" y1="117.2216292668142" x2="98.22609427609427" y2="117.2216292668142" stroke="#3366FF" stroke-width="2.0"/><line x1="98.22609427609427" y1="117.2216292668142" x2="98.22609427609427" y2="117.2216292668142" stroke="#3366FF" stroke-width="2.0"/><line x1="98.22609427609427" y1="117.2216292668142" x2="98.22609427609427" y2="117.2216292668142" stroke="#3366FF" stroke-width="2.0"/><line x1="98.22609427609427" y1="117.2216292668142" x2="98.22609427609427" y2="117.2216292668142" stroke="#3366FF" stroke-width="2.0"/><line x1="98.22609427609427" y1="117.2216292668142" x2="98.22609427609427" y2="117.2216292668142" stroke="#3366FF" stroke-width="2.0"/><line x1="98.22609427609427" y1="117.2216292668142" x2="98.22609427609427" y2="117.2216292668142" stroke="#3366FF" stroke-width="2.0"/><line x1="98.22609427609427" y1="117.2216292668142" x2="98.22609427609427" y2="117.2216292668142" stroke="#3366FF" stroke-width="2.0"/><line x1="98.22609427609427" y1="117.2216292668142" x2="98.22609427609427" y2="117.2216292668142" stroke="#3366FF" stroke-width="2.0"/><line x1="98.22609427609427" y1="117.2216292668142" x2="98.22609427609427" y2="117.2216292668142" stroke="#3366FF" stroke-width="2.0"/><line x1="98.22609427609427" y1="117.2216292668142" x2="98.22609427609427" y2="117.2216292668142" stroke="#3366FF" stroke-width="2.0"/><line x1="98.22609427609427" y1="117.2216292668142" x2="98.22609427609427" y2="117.2216292668142" stroke="#3366FF" stroke-width="2.0"/><line x1="98.22609427609427" y1="117.2216292668142" x2="110.95505050505048" y2="134.22639682716607" stroke="#3366FF" stroke-width="2.0"/><line x1="110.95505050505048" y1="134.22639682716607" x2="110.95505050505048" y2="134.22639682716607" stroke="#3366FF" stroke-width="2.0"/><line x1="110.95505050505048" y1="134.22639682716607" x2="110.95505050505048" y2="134.22639682716607" stroke="#3366FF" stroke-width="2.0"/><line x1="110.95505050505048" y1="134.22639682716607" x2="123.68400673400674" y2="155.40794691636773" stroke="#3366FF" stroke-width="2.0"/><line x1="123.68400673400674" y1="155.40794691636773" x2="123.68400673400674" y2="155.40794691636773" stroke="#3366FF" stroke-width="2.0"/><line x1="123.68400673400674" y1="155.40794691636773" x2="123.68400673400674" y2="155.40794691636773" stroke="#3366FF" stroke-width="2.0"/><line x1="123.68400673400674" y1="155.40794691636773" x2="123.68400673400674" y2="155.40794691636773" stroke="#3366FF" stroke-width="2.0"/><line x1="123.68400673400674" y1="155.40794691636773" x2="123.68400673400674" y2="155.40794691636773" stroke="#3366FF" stroke-width="2.0"/><line x1="123.68400673400674" y1="155.40794691636773" x2="123.68400673400674" y2="155.40794691636773" stroke="#3366FF" stroke-width="2.0"/><line x1="123.68400673400674" y1="155.40794691636773" x2="123.68400673400674" y2="155.40794691636773" stroke="#3366FF" stroke-width="2.0"/><line x1="123.68400673400674" y1="155.40794691636773" x2="123.68400673400674" y2="155.40794691636773" stroke="#3366FF" stroke-width="2.0"/><line x1="123.68400673400674" y1="155.40794691636773" x2="123.68400673400674" y2="155.40794691636773" stroke="#3366FF" stroke-width="2.0"/><line x1="123.68400673400674" y1="155.40794691636773" x2="123.68400673400674" y2="155.40794691636773" stroke="#3366FF" stroke-width="2.0"/><line x1="123.68400673400674" y1="155.40794691636773" x2="123.68400673400674" y2="155.40794691636773" stroke="#3366FF" stroke-width="2.0"/><line x1="123.68400673400674" y1="155.40794691636773" x2="123.68400673400674" y2="155.40794691636773" stroke="#3366FF" stroke-width="2.0"/><line x1="123.68400673400674" y1="155.40794691636773" x2="123.68400673400674" y2="155.40794691636773" stroke="#3366FF" stroke-width="2.0"/><line x1="123.68400673400674" y1="155.40794691636773" x2="123.68400673400674" y2="155.40794691636773" stroke="#3366FF" stroke-width="2.0"/><line x1="123.68400673400674" y1="155.40794691636773" x2="123.68400673400674" y2="155.40794691636773" stroke="#3366FF" stroke-width="2.0"/><line x1="123.68400673400674" y1="155.40794691636773" x2="123.68400673400674" y2="155.40794691636773" stroke="#3366FF" stroke-width="2.0"/><line x1="123.68400673400674" y1="155.40794691636773" x2="123.68400673400674" y2="155.40794691636773" stroke="#3366FF" stroke-width="2.0"/><line x1="123.68400673400674" y1="155.40794691636773" x2="123.68400673400674" y2="155.40794691636773" stroke="#3366FF" stroke-width="2.0"/><line x1="123.68400673400674" y1="155.40794691636773" x2="123.68400673400674" y2="155.40794691636773" stroke="#3366FF" stroke-width="2.0"/><line x1="123.68400673400674" y1="155.40794691636773" x2="123.68400673400674" y2="155.40794691636773" stroke="#3366FF" stroke-width="2.0"/><line x1="123.68400673400674" y1="155.40794691636773" x2="123.68400673400674" y2="155.40794691636773" stroke="#3366FF" stroke-width="2.0"/><line x1="123.68400673400674" y1="155.40794691636773" x2="149.14191919191921" y2="201.27363506993873" stroke="#3366FF" stroke-width="2.0"/><line x1="149.14191919191921" y1="201.27363506993873" x2="149.14191919191921" y2="201.27363506993873" stroke="#3366FF" stroke-width="2.0"/><line x1="149.14191919191921" y1="201.27363506993873" x2="149.14191919191921" y2="201.27363506993873" stroke="#3366FF" stroke-width="2.0"/><line x1="149.14191919191921" y1="201.27363506993873" x2="149.14191919191921" y2="201.27363506993873" stroke="#3366FF" stroke-width="2.0"/><line x1="149.14191919191921" y1="201.27363506993873" x2="149.14191919191921" y2="201.27363506993873" stroke="#3366FF" stroke-width="2.0"/><line x1="149.14191919191921" y1="201.27363506993873" x2="149.14191919191921" y2="201.27363506993873" stroke="#3366FF" stroke-width="2.0"/><line x1="149.14191919191921" y1="201.27363506993873" x2="174.59983164983166" y2="240.06590390286925" stroke="#3366FF" stroke-width="2.0"/><line x1="174.59983164983166" y1="240.06590390286925" x2="174.59983164983166" y2="240.06590390286925" stroke="#3366FF" stroke-width="2.0"/><line x1="174.59983164983166" y1="240.06590390286925" x2="174.59983164983166" y2="240.06590390286925" stroke="#3366FF" stroke-width="2.0"/><line x1="174.59983164983166" y1="240.06590390286925" x2="174.59983164983166" y2="240.06590390286925" stroke="#3366FF" stroke-width="2.0"/><line x1="174.59983164983166" y1="240.06590390286925" x2="174.59983164983166" y2="240.06590390286925" stroke="#3366FF" stroke-width="2.0"/><line x1="174.59983164983166" y1="240.06590390286925" x2="174.59983164983166" y2="240.06590390286925" stroke="#3366FF" stroke-width="2.0"/><line x1="174.59983164983166" y1="240.06590390286925" x2="174.59983164983166" y2="240.06590390286925" stroke="#3366FF" stroke-width="2.0"/><line x1="174.59983164983166" y1="240.06590390286925" x2="174.59983164983166" y2="240.06590390286925" stroke="#3366FF" stroke-width="2.0"/><line x1="174.59983164983166" y1="240.06590390286925" x2="174.59983164983166" y2="240.06590390286925" stroke="#3366FF" stroke-width="2.0"/><line x1="174.59983164983166" y1="240.06590390286925" x2="174.59983164983166" y2="240.06590390286925" stroke="#3366FF" stroke-width="2.0"/><line x1="174.59983164983166" y1="240.06590390286925" x2="174.59983164983166" y2="240.06590390286925" stroke="#3366FF" stroke-width="2.0"/><line x1="174.59983164983166" y1="240.06590390286925" x2="174.59983164983166" y2="240.06590390286925" stroke="#3366FF" stroke-width="2.0"/><line x1="174.59983164983166" y1="240.06590390286925" x2="174.59983164983166" y2="240.06590390286925" stroke="#3366FF" stroke-width="2.0"/><line x1="174.59983164983166" y1="240.06590390286925" x2="187.3287878787879" y2="256.12125041413816" stroke="#3366FF" stroke-width="2.0"/><line x1="187.3287878787879" y1="256.12125041413816" x2="187.3287878787879" y2="256.12125041413816" stroke="#3366FF" stroke-width="2.0"/><line x1="187.3287878787879" y1="256.12125041413816" x2="187.3287878787879" y2="256.12125041413816" stroke="#3366FF" stroke-width="2.0"/><line x1="187.3287878787879" y1="256.12125041413816" x2="187.3287878787879" y2="256.12125041413816" stroke="#3366FF" stroke-width="2.0"/><line x1="187.3287878787879" y1="256.12125041413816" x2="187.3287878787879" y2="256.12125041413816" stroke="#3366FF" stroke-width="2.0"/><line x1="187.3287878787879" y1="256.12125041413816" x2="187.3287878787879" y2="256.12125041413816" stroke="#3366FF" stroke-width="2.0"/><line x1="187.3287878787879" y1="256.12125041413816" x2="187.3287878787879" y2="256.12125041413816" stroke="#3366FF" stroke-width="2.0"/><line x1="187.3287878787879" y1="256.12125041413816" x2="187.3287878787879" y2="256.12125041413816" stroke="#3366FF" stroke-width="2.0"/><line x1="187.3287878787879" y1="256.12125041413816" x2="187.3287878787879" y2="256.12125041413816" stroke="#3366FF" stroke-width="2.0"/><line x1="187.3287878787879" y1="256.12125041413816" x2="187.3287878787879" y2="256.12125041413816" stroke="#3366FF" stroke-width="2.0"/><line x1="187.3287878787879" y1="256.12125041413816" x2="187.3287878787879" y2="256.12125041413816" stroke="#3366FF" stroke-width="2.0"/><line x1="187.3287878787879" y1="256.12125041413816" x2="187.3287878787879" y2="256.12125041413816" stroke="#3366FF" stroke-width="2.0"/><line x1="187.3287878787879" y1="256.12125041413816" x2="187.3287878787879" y2="256.12125041413816" stroke="#3366FF" stroke-width="2.0"/><line x1="187.3287878787879" y1="256.12125041413816" x2="187.3287878787879" y2="256.12125041413816" stroke="#3366FF" stroke-width="2.0"/><line x1="187.3287878787879" y1="256.12125041413816" x2="187.3287878787879" y2="256.12125041413816" stroke="#3366FF" stroke-width="2.0"/><line x1="187.3287878787879" y1="256.12125041413816" x2="187.3287878787879" y2="256.12125041413816" stroke="#3366FF" stroke-width="2.0"/><line x1="187.3287878787879" y1="256.12125041413816" x2="187.3287878787879" y2="256.12125041413816" stroke="#3366FF" stroke-width="2.0"/><line x1="187.3287878787879" y1="256.12125041413816" x2="187.3287878787879" y2="256.12125041413816" stroke="#3366FF" stroke-width="2.0"/><line x1="187.3287878787879" y1="256.12125041413816" x2="187.3287878787879" y2="256.12125041413816" stroke="#3366FF" stroke-width="2.0"/><line x1="187.3287878787879" y1="256.12125041413816" x2="187.3287878787879" y2="256.12125041413816" stroke="#3366FF" stroke-width="2.0"/><line x1="187.3287878787879" y1="256.12125041413816" x2="212.78670033670036" y2="282.6509033549483" stroke="#3366FF" stroke-width="2.0"/><line x1="212.78670033670036" y1="282.6509033549483" x2="212.78670033670036" y2="282.6509033549483" stroke="#3366FF" stroke-width="2.0"/><line x1="212.78670033670036" y1="282.6509033549483" x2="212.78670033670036" y2="282.6509033549483" stroke="#3366FF" stroke-width="2.0"/><line x1="212.78670033670036" y1="282.6509033549483" x2="212.78670033670036" y2="282.6509033549483" stroke="#3366FF" stroke-width="2.0"/><line x1="212.78670033670036" y1="282.6509033549483" x2="212.78670033670036" y2="282.6509033549483" stroke="#3366FF" stroke-width="2.0"/><line x1="212.78670033670036" y1="282.6509033549483" x2="212.78670033670036" y2="282.6509033549483" stroke="#3366FF" stroke-width="2.0"/><line x1="212.78670033670036" y1="282.6509033549483" x2="212.78670033670036" y2="282.6509033549483" stroke="#3366FF" stroke-width="2.0"/><line x1="212.78670033670036" y1="282.6509033549483" x2="212.78670033670036" y2="282.6509033549483" stroke="#3366FF" stroke-width="2.0"/><line x1="212.78670033670036" y1="282.6509033549483" x2="225.51565656565657" y2="293.5654240759561" stroke="#3366FF" stroke-width="2.0"/><line x1="225.51565656565657" y1="293.5654240759561" x2="225.51565656565657" y2="293.5654240759561" stroke="#3366FF" stroke-width="2.0"/><line x1="225.51565656565657" y1="293.5654240759561" x2="225.51565656565657" y2="293.5654240759561" stroke="#3366FF" stroke-width="2.0"/><line x1="225.51565656565657" y1="293.5654240759561" x2="225.51565656565657" y2="293.5654240759561" stroke="#3366FF" stroke-width="2.0"/><line x1="225.51565656565657" y1="293.5654240759561" x2="225.51565656565657" y2="293.5654240759561" stroke="#3366FF" stroke-width="2.0"/><line x1="225.51565656565657" y1="293.5654240759561" x2="225.51565656565657" y2="293.5654240759561" stroke="#3366FF" stroke-width="2.0"/><line x1="225.51565656565657" y1="293.5654240759561" x2="225.51565656565657" y2="293.5654240759561" stroke="#3366FF" stroke-width="2.0"/><line x1="225.51565656565657" y1="293.5654240759561" x2="225.51565656565657" y2="293.5654240759561" stroke="#3366FF" stroke-width="2.0"/><line x1="225.51565656565657" y1="293.5654240759561" x2="225.51565656565657" y2="293.5654240759561" stroke="#3366FF" stroke-width="2.0"/><line x1="225.51565656565657" y1="293.5654240759561" x2="225.51565656565657" y2="293.5654240759561" stroke="#3366FF" stroke-width="2.0"/><line x1="225.51565656565657" y1="293.5654240759561" x2="250.97356902356904" y2="311.8993977583768" stroke="#3366FF" stroke-width="2.0"/><line x1="250.97356902356904" y1="311.8993977583768" x2="250.97356902356904" y2="311.8993977583768" stroke="#3366FF" stroke-width="2.0"/><line x1="250.97356902356904" y1="311.8993977583768" x2="250.97356902356904" y2="311.8993977583768" stroke="#3366FF" stroke-width="2.0"/><line x1="250.97356902356904" y1="311.8993977583768" x2="250.97356902356904" y2="311.8993977583768" stroke="#3366FF" stroke-width="2.0"/><line x1="250.97356902356904" y1="311.8993977583768" x2="250.97356902356904" y2="311.8993977583768" stroke="#3366FF" stroke-width="2.0"/><line x1="250.97356902356904" y1="311.8993977583768" x2="250.97356902356904" y2="311.8993977583768" stroke="#3366FF" stroke-width="2.0"/><line x1="250.97356902356904" y1="311.8993977583768" x2="250.97356902356904" y2="311.8993977583768" stroke="#3366FF" stroke-width="2.0"/><line x1="250.97356902356904" y1="311.8993977583768" x2="250.97356902356904" y2="311.8993977583768" stroke="#3366FF" stroke-width="2.0"/><line x1="250.97356902356904" y1="311.8993977583768" x2="263.7025252525253" y2="319.90345102573986" stroke="#3366FF" stroke-width="2.0"/><line x1="263.7025252525253" y1="319.90345102573986" x2="263.7025252525253" y2="319.90345102573986" stroke="#3366FF" stroke-width="2.0"/><line x1="263.7025252525253" y1="319.90345102573986" x2="263.7025252525253" y2="319.90345102573986" stroke="#3366FF" stroke-width="2.0"/><line x1="263.7025252525253" y1="319.90345102573986" x2="263.7025252525253" y2="319.90345102573986" stroke="#3366FF" stroke-width="2.0"/><line x1="263.7025252525253" y1="319.90345102573986" x2="263.7025252525253" y2="319.90345102573986" stroke="#3366FF" stroke-width="2.0"/><line x1="263.7025252525253" y1="319.90345102573986" x2="263.7025252525253" y2="319.90345102573986" stroke="#3366FF" stroke-width="2.0"/><line x1="263.7025252525253" y1="319.90345102573986" x2="289.1604377104377" y2="335.08000618093797" stroke="#3366FF" stroke-width="2.0"/><line x1="289.1604377104377" y1="335.08000618093797" x2="289.1604377104377" y2="335.08000618093797" stroke="#3366FF" stroke-width="2.0"/><line x1="289.1604377104377" y1="335.08000618093797" x2="289.1604377104377" y2="335.08000618093797" stroke="#3366FF" stroke-width="2.0"/><line x1="289.1604377104377" y1="335.08000618093797" x2="289.1604377104377" y2="335.08000618093797" stroke="#3366FF" stroke-width="2.0"/><line x1="289.1604377104377" y1="335.08000618093797" x2="289.1604377104377" y2="335.08000618093797" stroke="#3366FF" stroke-width="2.0"/><line x1="289.1604377104377" y1="335.08000618093797" x2="289.1604377104377" y2="335.08000618093797" stroke="#3366FF" stroke-width="2.0"/><line x1="289.1604377104377" y1="335.08000618093797" x2="289.1604377104377" y2="335.08000618093797" stroke="#3366FF" stroke-width="2.0"/><line x1="289.1604377104377" y1="335.08000618093797" x2="289.1604377104377" y2="335.08000618093797" stroke="#3366FF" stroke-width="2.0"/><line x1="289.1604377104377" y1="335.08000618093797" x2="289.1604377104377" y2="335.08000618093797" stroke="#3366FF" stroke-width="2.0"/><line x1="289.1604377104377" y1="335.08000618093797" x2="301.8893939393939" y2="342.85023437604" stroke="#3366FF" stroke-width="2.0"/><line x1="301.8893939393939" y1="342.85023437604" x2="301.8893939393939" y2="342.85023437604" stroke="#3366FF" stroke-width="2.0"/><line x1="301.8893939393939" y1="342.85023437604" x2="301.8893939393939" y2="342.85023437604" stroke="#3366FF" stroke-width="2.0"/><line x1="301.8893939393939" y1="342.85023437604" x2="301.8893939393939" y2="342.85023437604" stroke="#3366FF" stroke-width="2.0"/><line x1="301.8893939393939" y1="342.85023437604" x2="314.61835016835016" y2="351.1402471876553" stroke="#3366FF" stroke-width="2.0"/><line x1="314.61835016835016" y1="351.1402471876553" x2="314.61835016835016" y2="351.1402471876553" stroke="#3366FF" stroke-width="2.0"/><line x1="314.61835016835016" y1="351.1402471876553" x2="314.61835016835016" y2="351.1402471876553" stroke="#3366FF" stroke-width="2.0"/><line x1="314.61835016835016" y1="351.1402471876553" x2="314.61835016835016" y2="351.1402471876553" stroke="#3366FF" stroke-width="2.0"/><line x1="314.61835016835016" y1="351.1402471876553" x2="314.61835016835016" y2="351.1402471876553" stroke="#3366FF" stroke-width="2.0"/><line x1="314.61835016835016" y1="351.1402471876553" x2="327.3473063973064" y2="360.24890776941726" stroke="#3366FF" stroke-width="2.0"/><line x1="327.3473063973064" y1="360.24890776941726" x2="327.3473063973064" y2="360.24890776941726" stroke="#3366FF" stroke-width="2.0"/><line x1="327.3473063973064" y1="360.24890776941726" x2="340.0762626262627" y2="370.47507927495906" stroke="#3366FF" stroke-width="2.0"/><line x1="340.0762626262627" y1="370.47507927495906" x2="340.0762626262627" y2="370.47507927495906" stroke="#3366FF" stroke-width="2.0"/><line x1="340.0762626262627" y1="370.47507927495906" x2="340.0762626262627" y2="370.47507927495906" stroke="#3366FF" stroke-width="2.0"/><line x1="340.0762626262627" y1="370.47507927495906" x2="352.8052188552188" y2="382.1176248579144" stroke="#3366FF" stroke-width="2.0"/><line x1="352.8052188552188" y1="382.1176248579144" x2="352.8052188552188" y2="382.1176248579144" stroke="#3366FF" stroke-width="2.0"/><line x1="352.8052188552188" y1="382.1176248579144" x2="352.8052188552188" y2="382.1176248579144" stroke="#3366FF" stroke-width="2.0"/><line x1="352.8052188552188" y1="382.1176248579144" x2="352.8052188552188" y2="382.1176248579144" stroke="#3366FF" stroke-width="2.0"/><line x1="352.8052188552188" y1="382.1176248579144" x2="352.8052188552188" y2="382.1176248579144" stroke="#3366FF" stroke-width="2.0"/><line x1="352.8052188552188" y1="382.1176248579144" x2="352.8052188552188" y2="382.1176248579144" stroke="#3366FF" stroke-width="2.0"/><line x1="352.8052188552188" y1="382.1176248579144" x2="352.8052188552188" y2="382.1176248579144" stroke="#3366FF" stroke-width="2.0"/><line x1="352.8052188552188" y1="382.1176248579144" x2="352.8052188552188" y2="382.1176248579144" stroke="#3366FF" stroke-width="2.0"/><line x1="352.8052188552188" y1="382.1176248579144" x2="365.5341750841751" y2="395.340515828157" stroke="#3366FF" stroke-width="2.0"/><line x1="365.5341750841751" y1="395.340515828157" x2="365.5341750841751" y2="395.340515828157" stroke="#3366FF" stroke-width="2.0"/><line x1="365.5341750841751" y1="395.340515828157" x2="365.5341750841751" y2="395.340515828157" stroke="#3366FF" stroke-width="2.0"/><line x1="365.5341750841751" y1="395.340515828157" x2="378.2631313131313" y2="409.768156120522" stroke="#3366FF" stroke-width="2.0"/><line x1="378.2631313131313" y1="409.768156120522" x2="378.2631313131313" y2="409.768156120522" stroke="#3366FF" stroke-width="2.0"/><line x1="378.2631313131313" y1="409.768156120522" x2="378.2631313131313" y2="409.768156120522" stroke="#3366FF" stroke-width="2.0"/><line x1="378.2631313131313" y1="409.768156120522" x2="378.2631313131313" y2="409.768156120522" stroke="#3366FF" stroke-width="2.0"/><line x1="378.2631313131313" y1="409.768156120522" x2="378.2631313131313" y2="409.768156120522" stroke="#3366FF" stroke-width="2.0"/><line x1="378.2631313131313" y1="409.768156120522" x2="378.2631313131313" y2="409.768156120522" stroke="#3366FF" stroke-width="2.0"/><line x1="378.2631313131313" y1="409.768156120522" x2="378.2631313131313" y2="409.768156120522" stroke="#3366FF" stroke-width="2.0"/><line x1="378.2631313131313" y1="409.768156120522" x2="378.2631313131313" y2="409.768156120522" stroke="#3366FF" stroke-width="2.0"/><line x1="378.2631313131313" y1="409.768156120522" x2="378.2631313131313" y2="409.768156120522" stroke="#3366FF" stroke-width="2.0"/><line x1="378.2631313131313" y1="409.768156120522" x2="378.2631313131313" y2="409.768156120522" stroke="#3366FF" stroke-width="2.0"/><line x1="378.2631313131313" y1="409.768156120522" x2="378.2631313131313" y2="409.768156120522" stroke="#3366FF" stroke-width="2.0"/><line x1="378.2631313131313" y1="409.768156120522" x2="378.2631313131313" y2="409.768156120522" stroke="#3366FF" stroke-width="2.0"/><line x1="378.2631313131313" y1="409.768156120522" x2="378.2631313131313" y2="409.768156120522" stroke="#3366FF" stroke-width="2.0"/><line x1="378.2631313131313" y1="409.768156120522" x2="378.2631313131313" y2="409.768156120522" stroke="#3366FF" stroke-width="2.0"/><line x1="378.2631313131313" y1="409.768156120522" x2="378.2631313131313" y2="409.768156120522" stroke="#3366FF" stroke-width="2.0"/><line x1="378.2631313131313" y1="409.768156120522" x2="403.7210437710438" y2="440.1957330359231" stroke="#3366FF" stroke-width="2.0"/><line x1="403.7210437710438" y1="440.1957330359231" x2="403.7210437710438" y2="440.1957330359231" stroke="#3366FF" stroke-width="2.0"/><line x1="403.7210437710438" y1="440.1957330359231" x2="403.7210437710438" y2="440.1957330359231" stroke="#3366FF" stroke-width="2.0"/><line x1="403.7210437710438" y1="440.1957330359231" x2="403.7210437710438" y2="440.1957330359231" stroke="#3366FF" stroke-width="2.0"/><line x1="403.7210437710438" y1="440.1957330359231" x2="429.17895622895634" y2="469.3164523327237" stroke="#3366FF" stroke-width="2.0"/><line x1="429.17895622895634" y1="469.3164523327237" x2="454.6368686868687" y2="493.04641073952945" stroke="#3366FF" stroke-width="2.0"/><line x1="454.6368686868687" y1="493.04641073952945" x2="454.6368686868687" y2="493.04641073952945" stroke="#3366FF" stroke-width="2.0"/><line x1="454.6368686868687" y1="493.04641073952945" x2="454.6368686868687" y2="493.04641073952945" stroke="#3366FF" stroke-width="2.0"/><line x1="454.6368686868687" y1="493.04641073952945" x2="454.6368686868687" y2="493.04641073952945" stroke="#3366FF" stroke-width="2.0"/><line x1="454.6368686868687" y1="493.04641073952945" x2="454.6368686868687" y2="493.04641073952945" stroke="#3366FF" stroke-width="2.0"/><line x1="454.6368686868687" y1="493.04641073952945" x2="454.6368686868687" y2="493.04641073952945" stroke="#3366FF" stroke-width="2.0"/><line x1="454.6368686868687" y1="493.04641073952945" x2="454.6368686868687" y2="493.04641073952945" stroke="#3366FF" stroke-width="2.0"/><line x1="454.6368686868687" y1="493.04641073952945" x2="454.6368686868687" y2="493.04641073952945" stroke="#3366FF" stroke-width="2.0"/><line x1="454.6368686868687" y1="493.04641073952945" x2="454.6368686868687" y2="493.04641073952945" stroke="#3366FF" stroke-width="2.0"/><line x1="454.6368686868687" y1="493.04641073952945" x2="454.6368686868687" y2="493.04641073952945" stroke="#3366FF" stroke-width="2.0"/><line x1="454.6368686868687" y1="493.04641073952945" x2="454.6368686868687" y2="493.04641073952945" stroke="#3366FF" stroke-width="2.0"/><line x1="454.6368686868687" y1="493.04641073952945" x2="467.36582491582493" y2="501.61363483687387" stroke="#3366FF" stroke-width="2.0"/><line x1="467.36582491582493" y1="501.61363483687387" x2="467.36582491582493" y2="501.61363483687387" stroke="#3366FF" stroke-width="2.0"/><line x1="467.36582491582493" y1="501.61363483687387" x2="467.36582491582493" y2="501.61363483687387" stroke="#3366FF" stroke-width="2.0"/><line x1="467.36582491582493" y1="501.61363483687387" x2="467.36582491582493" y2="501.61363483687387" stroke="#3366FF" stroke-width="2.0"/><line x1="467.36582491582493" y1="501.61363483687387" x2="467.36582491582493" y2="501.61363483687387" stroke="#3366FF" stroke-width="2.0"/><line x1="467.36582491582493" y1="501.61363483687387" x2="467.36582491582493" y2="501.61363483687387" stroke="#3366FF" stroke-width="2.0"/><line x1="467.36582491582493" y1="501.61363483687387" x2="467.36582491582493" y2="501.61363483687387" stroke="#3366FF" stroke-width="2.0"/><line x1="467.36582491582493" y1="501.61363483687387" x2="467.36582491582493" y2="501.61363483687387" stroke="#3366FF" stroke-width="2.0"/><line x1="467.36582491582493" y1="501.61363483687387" x2="467.36582491582493" y2="501.61363483687387" stroke="#3366FF" stroke-width="2.0"/><line x1="467.36582491582493" y1="501.61363483687387" x2="467.36582491582493" y2="501.61363483687387" stroke="#3366FF" stroke-width="2.0"/><line x1="467.36582491582493" y1="501.61363483687387" x2="467.36582491582493" y2="501.61363483687387" stroke="#3366FF" stroke-width="2.0"/><line x1="467.36582491582493" y1="501.61363483687387" x2="467.36582491582493" y2="501.61363483687387" stroke="#3366FF" stroke-width="2.0"/><line x1="467.36582491582493" y1="501.61363483687387" x2="467.36582491582493" y2="501.61363483687387" stroke="#3366FF" stroke-width="2.0"/><line x1="467.36582491582493" y1="501.61363483687387" x2="467.36582491582493" y2="501.61363483687387" stroke="#3366FF" stroke-width="2.0"/><line x1="467.36582491582493" y1="501.61363483687387" x2="467.36582491582493" y2="501.61363483687387" stroke="#3366FF" stroke-width="2.0"/><line x1="467.36582491582493" y1="501.61363483687387" x2="467.36582491582493" y2="501.61363483687387" stroke="#3366FF" stroke-width="2.0"/><line x1="467.36582491582493" y1="501.61363483687387" x2="467.36582491582493" y2="501.61363483687387" stroke="#3366FF" stroke-width="2.0"/><line x1="467.36582491582493" y1="501.61363483687387" x2="505.5526936026936" y2="511.2954291372576" stroke="#3366FF" stroke-width="2.0"/><line x1="505.5526936026936" y1="511.2954291372576" x2="505.5526936026936" y2="511.2954291372576" stroke="#3366FF" stroke-width="2.0"/><line x1="505.5526936026936" y1="511.2954291372576" x2="531.0106060606062" y2="506.3165644786137" stroke="#3366FF" stroke-width="2.0"/><line x1="531.0106060606062" y1="506.3165644786137" x2="531.0106060606062" y2="506.3165644786137" stroke="#3366FF" stroke-width="2.0"/><line x1="531.0106060606062" y1="506.3165644786137" x2="531.0106060606062" y2="506.3165644786137" stroke="#3366FF" stroke-width="2.0"/><line x1="531.0106060606062" y1="506.3165644786137" x2="531.0106060606062" y2="506.3165644786137" stroke="#3366FF" stroke-width="2.0"/><line x1="531.0106060606062" y1="506.3165644786137" x2="531.0106060606062" y2="506.3165644786137" stroke="#3366FF" stroke-width="2.0"/><line x1="531.0106060606062" y1="506.3165644786137" x2="543.7395622895623" y2="501.0636483912998" stroke="#3366FF" stroke-width="2.0"/><line x1="543.7395622895623" y1="501.0636483912998" x2="543.7395622895623" y2="501.0636483912998" stroke="#3366FF" stroke-width="2.0"/><line x1="543.7395622895623" y1="501.0636483912998" x2="543.7395622895623" y2="501.0636483912998" stroke="#3366FF" stroke-width="2.0"/><line x1="543.7395622895623" y1="501.0636483912998" x2="543.7395622895623" y2="501.0636483912998" stroke="#3366FF" stroke-width="2.0"/><line x1="543.7395622895623" y1="501.0636483912998" x2="543.7395622895623" y2="501.0636483912998" stroke="#3366FF" stroke-width="2.0"/><line x1="543.7395622895623" y1="501.0636483912998" x2="543.7395622895623" y2="501.0636483912998" stroke="#3366FF" stroke-width="2.0"/><line x1="543.7395622895623" y1="501.0636483912998" x2="556.4685185185186" y2="494.2646473540701" stroke="#3366FF" stroke-width="2.0"/><line x1="556.4685185185186" y1="494.2646473540701" x2="556.4685185185186" y2="494.2646473540701" stroke="#3366FF" stroke-width="2.0"/><line x1="556.4685185185186" y1="494.2646473540701" x2="556.4685185185186" y2="494.2646473540701" stroke="#3366FF" stroke-width="2.0"/><line x1="556.4685185185186" y1="494.2646473540701" x2="556.4685185185186" y2="494.2646473540701" stroke="#3366FF" stroke-width="2.0"/><line x1="556.4685185185186" y1="494.2646473540701" x2="556.4685185185186" y2="494.2646473540701" stroke="#3366FF" stroke-width="2.0"/><line x1="556.4685185185186" y1="494.2646473540701" x2="556.4685185185186" y2="494.2646473540701" stroke="#3366FF" stroke-width="2.0"/><line x1="556.4685185185186" y1="494.2646473540701" x2="556.4685185185186" y2="494.2646473540701" stroke="#3366FF" stroke-width="2.0"/><line x1="556.4685185185186" y1="494.2646473540701" x2="556.4685185185186" y2="494.2646473540701" stroke="#3366FF" stroke-width="2.0"/><line x1="556.4685185185186" y1="494.2646473540701" x2="581.926430976431" y2="476.9171030961012" stroke="#3366FF" stroke-width="2.0"/><line x1="581.926430976431" y1="476.9171030961012" x2="594.6553872053872" y2="466.8129162084805" stroke="#3366FF" stroke-width="2.0"/><line x1="594.6553872053872" y1="466.8129162084805" x2="594.6553872053872" y2="466.8129162084805" stroke="#3366FF" stroke-width="2.0"/><line x1="594.6553872053872" y1="466.8129162084805" x2="594.6553872053872" y2="466.8129162084805" stroke="#3366FF" stroke-width="2.0"/><line x1="594.6553872053872" y1="466.8129162084805" x2="594.6553872053872" y2="466.8129162084805" stroke="#3366FF" stroke-width="2.0"/><line x1="594.6553872053872" y1="466.8129162084805" x2="594.6553872053872" y2="466.8129162084805" stroke="#3366FF" stroke-width="2.0"/><line x1="594.6553872053872" y1="466.8129162084805" x2="594.6553872053872" y2="466.8129162084805" stroke="#3366FF" stroke-width="2.0"/><line x1="594.6553872053872" y1="466.8129162084805" x2="594.6553872053872" y2="466.8129162084805" stroke="#3366FF" stroke-width="2.0"/><line x1="594.6553872053872" y1="466.8129162084805" x2="594.6553872053872" y2="466.8129162084805" stroke="#3366FF" stroke-width="2.0"/><line x1="594.6553872053872" y1="466.8129162084805" x2="620.1132996632997" y2="444.8546037487629" stroke="#3366FF" stroke-width="2.0"/><line x1="620.1132996632997" y1="444.8546037487629" x2="620.1132996632997" y2="444.8546037487629" stroke="#3366FF" stroke-width="2.0"/><line x1="620.1132996632997" y1="444.8546037487629" x2="632.8422558922559" y2="433.44483450978487" stroke="#3366FF" stroke-width="2.0"/><line x1="632.8422558922559" y1="433.44483450978487" x2="645.571212121212" y2="422.044227486806" stroke="#3366FF" stroke-width="2.0"/><line x1="645.571212121212" y1="422.044227486806" x2="658.3001683501684" y2="410.8749608463862" stroke="#3366FF" stroke-width="2.0"/><line x1="658.3001683501684" y1="410.8749608463862" x2="658.3001683501684" y2="410.8749608463862" stroke="#3366FF" stroke-width="2.0"/><line x1="658.3001683501684" y1="410.8749608463862" x2="696.4870370370371" y2="380.9769848860716" stroke="#3366FF" stroke-width="2.0"/><line x1="696.4870370370371" y1="380.9769848860716" x2="760.1318181818182" y2="356.51046148225606" stroke="#3366FF" stroke-width="2.0"/></svg>