<svg xmlns="http://www.w3.org/2000/svg" width="800" height="600" viewBox="0 0 800 600"><rect x="0.0" y="0.0" width="800.0" height="600.0" fill="#ffffff" fill-opacity="1.0" stroke="none"/><line x1="60.03922558922558" y1="5.5" x2="60.03922558922558" y2="563.8" stroke="#dddddd" stroke-width="0.5"/><line x1="187.3287878787879" y1="5.5" x2="187.3287878787879" y2="563.8" stroke="#dddddd" stroke-width="0.5"/><line x1="314.61835016835016" y1="5.5" x2="314.61835016835016" y2="563.8" stroke="#dddddd" stroke-width="0.5"/><line x1="441.9079124579125" y1="5.5" x2="441.9079124579125" y2="563.8" stroke="#dddddd" stroke-width="0.5"/><line x1="569.1974747474748" y1="5.5" x2="569.1974747474748" y2="563.8" stroke="#dddddd" stroke-width="0.5"/><line x1="696.4870370370371" y1="5.5" x2="696.4870370370371" y2="563.8" stroke="#dddddd" stroke-width="0.5"/><line x1="123.68400673400674" y1="5.5" x2="123.68400673400674" y2="563.8" stroke="#dddddd" stroke-width="1.0"/><line x1="250.97356902356904" y1="5.5" x2="250.97356902356904" y2="563.8" stroke="#dddddd" stroke-width="1.0"/><line x1="378.2631313131313" y1="5.5" x2="378.2631313131313" y2="563.8" stroke="#dddddd" stroke-width="1.0"/><line x1="505.5526936026936" y1="5.5" x2="505.5526936026936" y2="563.8" stroke="#dddddd" stroke-width="1.0"/><line x1="632.8422558922559" y1="5.5" x2="632.8422558922559" y2="563.8" stroke="#dddddd" stroke-width="1.0"/><line x1="760.1318181818182" y1="5.5" x2="760.1318181818182" y2="563.8" stroke="#dddddd" stroke-width="1.0"/><line x1="38.4" y1="526.139459765694" x2="794.5" y2="526.139459765694" stroke="#dddddd" stroke-width="0.5"/><line x1="38.4" y1="420.1615217828189" x2="794.5" y2="420.1615217828189" stroke="#dddddd" stroke-width="0.5"/><line x1="38.4" y1="314.1835837999438" x2="794.5" y2="314.1835837999438" stroke="#dddddd" stroke-width="0.5"/><line x1="38.4" y1="208.2056458170686" x2="794.5" y2="208.2056458170686" stroke="#dddddd" stroke-width="0.5"/><line x1="38.4" y1="102.2277078341935" x2="794.5" y2="102.2277078341935" stroke="#dddddd" stroke-width="0.5"/><line x1="38.4" y1="473.15049077425647" x2="794.5" y2="473.15049077425647" stroke="#dddddd" stroke-width="1.0"/><line x1="38.4" y1="367.17255279138135" x2="794.5" y2="367.17255279138135" stroke="#dddddd" stroke-width="1.0"/><line x1="38.4" y1="261.1946148085062" x2="794.5" y2="261.1946148085062" stroke="#dddddd" stroke-width="1.0"/><line x1="38.4" y1="155.21667682563105" x2="794.5" y2="155.21667682563105" stroke="#dddddd" stroke-width="1.0"/><line x1="38.4" y1="49.23873884275588" x2="794.5" y2="49.23873884275588" stroke="#dddddd" stroke-width="1.0"/><rect x="38.4" y="5.5" width="756.1" height="558.3" fill="#ffffff" fill-opacity="0.0" stroke="#444444" stroke-width="1.0"/><line x1="123.68400673400674" y1="563.8" x2="123.68400673400674" y2="566.55" stroke="#444444" stroke-width="1.0"/><text x="123.68400673400674" y="577.55" fill="#333333" font-size="11.0" font-family="sans-serif" text-anchor="middle">2</text><line x1="250.97356902356904" y1="563.8" x2="250.97356902356904" y2="566.55" stroke="#444444" stroke-width="1.0"/><text x="250.97356902356904" y="577.55" fill="#333333" font-size="11.0" font-family="sans-serif" text-anchor="middle">3</text><line x1="378.2631313131313" y1="563.8" x2="378.2631313131313" y2="566.55" stroke="#444444" stroke-width="1.0"/><text x="378.2631313131313" y="577.55" fill="#333333" font-size="11.0" font-family="sans-serif" text-anchor="middle">4</text><line x1="505.5526936026936" y1="563.8" x2="505.5526936026936" y2="566.55" stroke="#444444" stroke-width="1.0"/><text x="505.5526936026936" y="577.55" fill="#333333" font-size="11.0" font-family="sans-serif" text-anchor="middle">5</text><line x1="632.8422558922559" y1="563.8" x2="632.8422558922559" y2="566.55" stroke="#444444" stroke-width="1.0"/><text x="632.8422558922559" y="577.55" fill="#333333" font-size="11.0" font-family="sans-serif" text-anchor="middle">6</text><line x1="760.1318181818182" y1="563.8" x2="760.1318181818182" y2="566.55" stroke="#444444" stroke-width="1.0"/><text x="760.1318181818182" y="577.55" fill="#333333" font-size="11.0" font-family="sans-serif" text-anchor="middle">7</text><line x1="38.4" y1="473.15049077425647" x2="35.65" y2="473.15049077425647" stroke="#444444" stroke-width="1.0"/><text x="33.449999999999996" y="477.0004907742565" fill="#333333" font-size="11.0" font-family="sans-serif" text-anchor="end">15</text><line x1="38.4" y1="367.17255279138135" x2="35.65" y2="367.17255279138135" stroke="#444444" stroke-width="1.0"/><text x="33.449999999999996" y="371.0225527913814" fill="#333333" font-size="11.0" font-family="sans-serif" text-anchor="end">20</text><line x1="38.4" y1="261.1946148085062" x2="35.65" y2="261.1946148085062" stroke="#444444" stroke-width="1.0"/><text x="33.449999999999996" y="265.0446148085062" fill="#333333" font-size="11.0" font-family="sans-serif" text-anchor="end">25</text><line x1="38.4" y1="155.21667682563105" x2="35.65" y2="155.21667682563105" stroke="#444444" stroke-width="1.0"/><text x="33.449999999999996" y="159.06667682563105" fill="#333333" font-size="11.0" font-family="sans-serif" text-anchor="end">30</text><line x1="38.4" y1="49.23873884275588" x2="35.65" y2="49.23873884275588" stroke="#444444" stroke-width="1.0"/><text x="33.449999999999996" y="53.08873884275588" fill="#333333" font-size="11.0" font-family="sans-serif" text-anchor="end">35</text><text x="416.45" y="592.1" fill="#333333" font-size="12.0" font-family="sans-serif" text-anchor="middle">displ</text><text x="13.899999999999999" y="284.65" fill="#333333" font-size="12.0" font-family="sans-serif" text-anchor="middle" transform="rotate(-90.0 13.899999999999999 284.65)">hwy</text><path d="M 98.22609427609427 308.0973077080628 L 98.22609427609427 308.0973077080628 L 123.68400673400674 250.76875454848164 L 123.68400673400674 250.76875454848164 L 149.14191919191921 251.84005494311282 L 149.14191919191921 251.84005494311282 L 187.3287878787879 281.5807987223414 L 187.3287878787879 281.5807987223414 L 187.3287878787879 281.5807987223414 L 187.3287878787879 281.5807987223414 L 187.3287878787879 281.5807987223414 L 187.3287878787879 281.5807987223414 L 187.3287878787879 281.5807987223414 L 187.3287878787879 281.5807987223414 L 187.3287878787879 281.5807987223414 L 187.3287878787879 281.5807987223414 L 187.3287878787879 281.5807987223414 L 187.3287878787879 281.5807987223414 L 212.78670033670036 317.59643092019326 L 212.78670033670036 317.59643092019326 L 212.78670033670036 317.59643092019326 L 212.78670033670036 317.59643092019326 L 212.78670033670036 317.59643092019326 L 225.51565656565657 335.7786092523227 L 225.51565656565657 335.7786092523227 L 225.51565656565657 335.7786092523227 L 250.97356902356904 363.5346238054633 L 263.7025252525253 373.4686836226994 L 263.7025252525253 373.4686836226994 L 263.7025252525253 373.4686836226994 L 289.1604377104377 388.39083537718045 L 289.1604377104377 388.39083537718045 L 301.8893939393939 394.6772925318718 L 301.8893939393939 394.6772925318718 L 301.8893939393939 394.6772925318718 L 301.8893939393939 394.6772925318718 L 340.0762626262627 412.7109838307424 L 340.0762626262627 412.7109838307424 L 340.0762626262627 412.7109838307424 L 365.5341750841751 422.9713249924471 L 365.5341750841751 422.9713249924471 L 365.5341750841751 422.9713249924471 L 378.2631313131313 427.52801615937756 L 378.2631313131313 427.52801615937756 L 378.2631313131313 427.52801615937756 L 378.2631313131313 427.52801615937756 L 378.2631313131313 427.52801615937756 L 378.2631313131313 427.52801615937756 L 378.2631313131313 427.52801615937756 L 378.2631313131313 427.52801615937756 L 378.2631313131313 427.52801615937756 L 378.2631313131313 427.52801615937756 L 378.2631313131313 427.52801615937756 L 378.2631313131313 427.52801615937756 L 403.7210437710438 438.86884135122256 L 403.7210437710438 438.86884135122256 L 403.7210437710438 438.86884135122256 L 403.7210437710438 438.86884135122256 L 429.17895622895634 452.9610756966036 L 454.6368686868687 461.50362956252377 L 454.6368686868687 461.50362956252377 L 454.6368686868687 461.50362956252377 L 454.6368686868687 461.50362956252377 L 454.6368686868687 461.50362956252377 L 454.6368686868687 461.50362956252377 L 467.36582491582493 462.9600829837974 L 467.36582491582493 462.9600829837974 L 467.36582491582493 462.9600829837974 L 467.36582491582493 462.9600829837974 L 467.36582491582493 462.9600829837974 L 467.36582491582493 462.9600829837974 L 467.36582491582493 462.9600829837974 L 467.36582491582493 462.9600829837974 L 467.36582491582493 462.9600829837974 L 467.36582491582493 462.9600829837974 L 467.36582491582493 462.9600829837974 L 467.36582491582493 462.9600829837974 L 467.36582491582493 462.9600829837974 L 467.36582491582493 462.9600829837974 L 467.36582491582493 462.9600829837974 L 467.36582491582493 462.9600829837974 L 467.36582491582493 462.9600829837974 L 505.5526936026936 476.13199667709836 L 505.5526936026936 476.13199667709836 L 531.0106060606062 477.7150933912684 L 531.0106060606062 477.7150933912684 L 531.0106060606062 477.7150933912684 L 531.0106060606062 477.7150933912684 L 531.0106060606062 477.7150933912684 L 543.7395622895623 475.23911124547016 L 543.7395622895623 475.23911124547016 L 556.4685185185186 472.2426157772876 L 556.4685185185186 472.2426157772876 L 581.926430976431 470.10853685733275 L 594.6553872053872 471.8052812141136 L 594.6553872053872 471.8052812141136 L 594.6553872053872 471.8052812141136 L 594.6553872053872 471.8052812141136 L 594.6553872053872 471.8052812141136 L 620.1132996632997 477.33114061299807 L 620.1132996632997 477.33114061299807 L 645.571212121212 483.22674241757534 L 696.4870370370371 538.4227272727272 L 696.4870370370371 367.1657963371494 L 645.571212121212 401.9734420772195 L 620.1132996632997 407.9951710459205 L 620.1132996632997 407.9951710459205 L 594.6553872053872 417.5802439191695 L 594.6553872053872 417.5802439191695 L 594.6553872053872 417.5802439191695 L 594.6553872053872 417.5802439191695 L 594.6553872053872 417.5802439191695 L 581.926430976431 422.09077312067564 L 556.4685185185186 425.77116158766205 L 556.4685185185186 425.77116158766205 L 543.7395622895623 425.2227652546581 L 543.7395622895623 425.2227652546581 L 531.0106060606062 424.52040360048466 L 531.0106060606062 424.52040360048466 L 531.0106060606062 424.52040360048466 L 531.0106060606062 424.52040360048466 L 531.0106060606062 424.52040360048466 L 505.5526936026936 426.5221385531678 L 505.5526936026936 426.5221385531678 L 467.36582491582493 429.2095422833515 L 467.36582491582493 429.2095422833515 L 467.36582491582493 429.2095422833515 L 467.36582491582493 429.2095422833515 L 467.36582491582493 429.2095422833515 L 467.36582491582493 429.2095422833515 L 467.36582491582493 429.2095422833515 L 467.36582491582493 429.2095422833515 L 467.36582491582493 429.2095422833515 L 467.36582491582493 429.2095422833515 L 467.36582491582493 429.2095422833515 L 467.36582491582493 429.2095422833515 L 467.36582491582493 429.2095422833515 L 467.36582491582493 429.2095422833515 L 467.36582491582493 429.2095422833515 L 467.36582491582493 429.2095422833515 L 467.36582491582493 429.2095422833515 L 454.6368686868687 423.760113319117 L 454.6368686868687 423.760113319117 L 454.6368686868687 423.760113319117 L 454.6368686868687 423.760113319117 L 454.6368686868687 423.760113319117 L 454.6368686868687 423.760113319117 L 429.17895622895634 413.4655008759862 L 403.7210437710438 404.2938831068122 L 403.7210437710438 404.2938831068122 L 403.7210437710438 404.2938831068122 L 403.7210437710438 404.2938831068122 L 378.2631313131313 390.9172020681008 L 378.2631313131313 390.9172020681008 L 378.2631313131313 390.9172020681008 L 378.2631313131313 390.9172020681008 L 378.2631313131313 390.9172020681008 L 378.2631313131313 390.9172020681008 L 378.2631313131313 390.9172020681008 L 378.2631313131313 390.9172020681008 L 378.2631313131313 390.9172020681008 L 378.2631313131313 390.9172020681008 L 378.2631313131313 390.9172020681008 L 378.2631313131313 390.9172020681008 L 365.5341750841751 383.49909222922224 L 365.5341750841751 383.49909222922224 L 365.5341750841751 383.49909222922224 L 340.0762626262627 371.36110752324976 L 340.0762626262627 371.36110752324976 L 340.0762626262627 371.36110752324976 L 301.8893939393939 353.8304729383297 L 301.8893939393939 353.8304729383297 L 301.8893939393939 353.8304729383297 L 301.8893939393939 353.8304729383297 L 289.1604377104377 345.9998621117605 L 289.1604377104377 345.9998621117605 L 263.7025252525253 326.6877346766387 L 263.7025252525253 326.6877346766387 L 263.7025252525253 326.6877346766387 L 250.97356902356904 315.63568188650436 L 225.51565656565657 291.5092717021943 L 225.51565656565657 291.5092717021943 L 225.51565656565657 291.5092717021943 L 212.78670033670036 277.9262365052152 L 212.78670033670036 277.9262365052152 L 212.78670033670036 277.9262365052152 L 212.78670033670036 277.9262365052152 L 212.78670033670036 277.9262365052152 L 187.3287878787879 241.4518834115981 L 187.3287878787879 241.4518834115981 L 187.3287878787879 241.4518834115981 L 187.3287878787879 241.4518834115981 L 187.3287878787879 241.4518834115981 L 187.3287878787879 241.4518834115981 L 187.3287878787879 241.4518834115981 L 187.3287878787879 241.4518834115981 L 187.3287878787879 241.4518834115981 L 187.3287878787879 241.4518834115981 L 187.3287878787879 241.4518834115981 L 187.3287878787879 241.4518834115981 L 149.14191919191921 185.1869050193257 L 149.14191919191921 185.1869050193257 L 123.68400673400674 181.53640685193199 L 123.68400673400674 181.53640685193199 L 98.22609427609427 191.5483446723124 L 98.22609427609427 191.5483446723124 Z" fill="#F8766D" fill-opacity="0.2" stroke="none"/><line x1="98.22609427609427" y1="249.82282619018758" x2="98.22609427609427" y2="249.82282619018758" stroke="#F8766D" stroke-width="2.0"/><line x1="98.22609427609427" y1="249.82282619018758" x2="123.68400673400674" y2="216.15258070020684" stroke="#F8766D" stroke-width="2.0"/><line x1="123.68400673400674" y1="216.15258070020684" x2="123.68400673400674" y2="216.15258070020684" stroke="#F8766D" stroke-width="2.0"/><line x1="123.68400673400674" y1="216.15258070020684" x2="149.14191919191921" y2="218.5134799812193" stroke="#F8766D" stroke-width="2.0"/><line x1="149.14191919191921" y1="218.5134799812193" x2="149.14191919191921" y2="218.5134799812193" stroke="#F8766D" stroke-width="2.0"/><line x1="149.14191919191921" y1="218.5134799812193" x2="187.3287878787879" y2="261.51634106696974" stroke="#F8766D" stroke-width="2.0"/><line x1="187.3287878787879" y1="261.51634106696974" x2="187.3287878787879" y2="261.51634106696974" stroke="#F8766D" stroke-width="2.0"/><line x1="187.3287878787879" y1="261.51634106696974" x2="187.3287878787879" y2="261.51634106696974" stroke="#F8766D" stroke-width="2.0"/><line x1="187.3287878787879" y1="261.51634106696974" x2="187.3287878787879" y2="261.51634106696974" stroke="#F8766D" stroke-width="2.0"/><line x1="187.3287878787879" y1="261.51634106696974" x2="187.3287878787879" y2="261.51634106696974" stroke="#F8766D" stroke-width="2.0"/><line x1="187.3287878787879" y1="261.51634106696974" x2="187.3287878787879" y2="261.51634106696974" stroke="#F8766D" stroke-width="2.0"/><line x1="187.3287878787879" y1="261.51634106696974" x2="187.3287878787879" y2="261.51634106696974" stroke="#F8766D" stroke-width="2.0"/><line x1="187.3287878787879" y1="261.51634106696974" x2="187.3287878787879" y2="261.51634106696974" stroke="#F8766D" stroke-width="2.0"/><line x1="187.3287878787879" y1="261.51634106696974" x2="187.3287878787879" y2="261.51634106696974" stroke="#F8766D" stroke-width="2.0"/><line x1="187.3287878787879" y1="261.51634106696974" x2="187.3287878787879" y2="261.51634106696974" stroke="#F8766D" stroke-width="2.0"/><line x1="187.3287878787879" y1="261.51634106696974" x2="187.3287878787879" y2="261.51634106696974" stroke="#F8766D" stroke-width="2.0"/><line x1="187.3287878787879" y1="261.51634106696974" x2="187.3287878787879" y2="261.51634106696974" stroke="#F8766D" stroke-width="2.0"/><line x1="187.3287878787879" y1="261.51634106696974" x2="212.78670033670036" y2="297.7613337127042" stroke="#F8766D" stroke-width="2.0"/><line x1="212.78670033670036" y1="297.7613337127042" x2="212.78670033670036" y2="297.7613337127042" stroke="#F8766D" stroke-width="2.0"/><line x1="212.78670033670036" y1="297.7613337127042" x2="212.78670033670036" y2="297.7613337127042" stroke="#F8766D" stroke-width="2.0"/><line x1="212.78670033670036" y1="297.7613337127042" x2="212.78670033670036" y2="297.7613337127042" stroke="#F8766D" stroke-width="2.0"/><line x1="212.78670033670036" y1="297.7613337127042" x2="212.78670033670036" y2="297.7613337127042" stroke="#F8766D" stroke-width="2.0"/><line x1="212.78670033670036" y1="297.7613337127042" x2="225.51565656565657" y2="313.6439404772585" stroke="#F8766D" stroke-width="2.0"/><line x1="225.51565656565657" y1="313.6439404772585" x2="225.51565656565657" y2="313.6439404772585" stroke="#F8766D" stroke-width="2.0"/><line x1="225.51565656565657" y1="313.6439404772585" x2="225.51565656565657" y2="313.6439404772585" stroke="#F8766D" stroke-width="2.0"/><line x1="225.51565656565657" y1="313.6439404772585" x2="250.97356902356904" y2="339.5851528459838" stroke="#F8766D" stroke-width="2.0"/><line x1="250.97356902356904" y1="339.5851528459838" x2="263.7025252525253" y2="350.0782091496691" stroke="#F8766D" stroke-width="2.0"/><line x1="263.7025252525253" y1="350.0782091496691" x2="263.7025252525253" y2="350.0782091496691" stroke="#F8766D" stroke-width="2.0"/><line x1="263.7025252525253" y1="350.0782091496691" x2="263.7025252525253" y2="350.0782091496691" stroke="#F8766D" stroke-width="2.0"/><line x1="263.7025252525253" y1="350.0782091496691" x2="289.1604377104377" y2="367.1953487444705" stroke="#F8766D" stroke-width="2.0"/><line x1="289.1604377104377" y1="367.1953487444705" x2="289.1604377104377" y2="367.1953487444705" stroke="#F8766D" stroke-width="2.0"/><line x1="289.1604377104377" y1="367.1953487444705" x2="301.8893939393939" y2="374.2538827351008" stroke="#F8766D" stroke-width="2.0"/><line x1="301.8893939393939" y1="374.2538827351008" x2="301.8893939393939" y2="374.2538827351008" stroke="#F8766D" stroke-width="2.0"/><line x1="301.8893939393939" y1="374.2538827351008" x2="301.8893939393939" y2="374.2538827351008" stroke="#F8766D" stroke-width="2.0"/><line x1="301.8893939393939" y1="374.2538827351008" x2="301.8893939393939" y2="374.2538827351008" stroke="#F8766D" stroke-width="2.0"/><line x1="301.8893939393939" y1="374.2538827351008" x2="340.0762626262627" y2="392.0360456769961" stroke="#F8766D" stroke-width="2.0"/><line x1="340.0762626262627" y1="392.0360456769961" x2="340.0762626262627" y2="392.0360456769961" stroke="#F8766D" stroke-width="2.0"/><line x1="340.0762626262627" y1="392.0360456769961" x2="340.0762626262627" y2="392.0360456769961" stroke="#F8766D" stroke-width="2.0"/><line x1="340.0762626262627" y1="392.0360456769961" x2="365.5341750841751" y2="403.23520861083466" stroke="#F8766D" stroke-width="2.0"/><line x1="365.5341750841751" y1="403.23520861083466" x2="365.5341750841751" y2="403.23520861083466" stroke="#F8766D" stroke-width="2.0"/><line x1="365.5341750841751" y1="403.23520861083466" x2="365.5341750841751" y2="403.23520861083466" stroke="#F8766D" stroke-width="2.0"/><line x1="365.5341750841751" y1="403.23520861083466" x2="378.2631313131313" y2="409.22260911373917" stroke="#F8766D" stroke-width="2.0"/><line x1="378.2631313131313" y1="409.22260911373917" x2="378.2631313131313" y2="409.22260911373917" stroke="#F8766D" stroke-width="2.0"/><line x1="378.2631313131313" y1="409.22260911373917" x2="378.2631313131313" y2="409.22260911373917" stroke="#F8766D" stroke-width="2.0"/><line x1="378.2631313131313" y1="409.22260911373917" x2="378.2631313131313" y2="409.22260911373917" stroke="#F8766D" stroke-width="2.0"/><line x1="378.2631313131313" y1="409.22260911373917" x2="378.2631313131313" y2="409.22260911373917" stroke="#F8766D" stroke-width="2.0"/><line x1="378.2631313131313" y1="409.22260911373917" x2="378.2631313131313" y2="409.22260911373917" stroke="#F8766D" stroke-width="2.0"/><line x1="378.2631313131313" y1="409.22260911373917" x2="378.2631313131313" y2="409.22260911373917" stroke="#F8766D" stroke-width="2.0"/><line x1="378.2631313131313" y1="409.22260911373917" x2="378.2631313131313" y2="409.22260911373917" stroke="#F8766D" stroke-width="2.0"/><line x1="378.2631313131313" y1="409.22260911373917" x2="378.2631313131313" y2="409.22260911373917" stroke="#F8766D" stroke-width="2.0"/><line x1="378.2631313131313" y1="409.22260911373917" x2="378.2631313131313" y2="409.22260911373917" stroke="#F8766D" stroke-width="2.0"/><line x1="378.2631313131313" y1="409.22260911373917" x2="378.2631313131313" y2="409.22260911373917" stroke="#F8766D" stroke-width="2.0"/><line x1="378.2631313131313" y1="409.22260911373917" x2="378.2631313131313" y2="409.22260911373917" stroke="#F8766D" stroke-width="2.0"/><line x1="378.2631313131313" y1="409.22260911373917" x2="403.7210437710438" y2="421.5813622290174" stroke="#F8766D" stroke-width="2.0"/><line x1="403.7210437710438" y1="421.5813622290174" x2="403.7210437710438" y2="421.5813622290174" stroke="#F8766D" stroke-width="2.0"/><line x1="403.7210437710438" y1="421.5813622290174" x2="403.7210437710438" y2="421.5813622290174" stroke="#F8766D" stroke-width="2.0"/><line x1="403.7210437710438" y1="421.5813622290174" x2="403.7210437710438" y2="421.5813622290174" stroke="#F8766D" stroke-width="2.0"/><line x1="403.7210437710438" y1="421.5813622290174" x2="429.17895622895634" y2="433.21328828629487" stroke="#F8766D" stroke-width="2.0"/><line x1="429.17895622895634" y1="433.21328828629487" x2="454.6368686868687" y2="442.63187144082036" stroke="#F8766D" stroke-width="2.0"/><line x1="454.6368686868687" y1="442.63187144082036" x2="454.6368686868687" y2="442.63187144082036" stroke="#F8766D" stroke-width="2.0"/><line x1="454.6368686868687" y1="442.63187144082036" x2="454.6368686868687" y2="442.63187144082036" stroke="#F8766D" stroke-width="2.0"/><line x1="454.6368686868687" y1="442.63187144082036" x2="454.6368686868687" y2="442.63187144082036" stroke="#F8766D" stroke-width="2.0"/><line x1="454.6368686868687" y1="442.63187144082036" x2="454.6368686868687" y2="442.63187144082036" stroke="#F8766D" stroke-width="2.0"/><line x1="454.6368686868687" y1="442.63187144082036" x2="454.6368686868687" y2="442.63187144082036" stroke="#F8766D" stroke-width="2.0"/><line x1="454.6368686868687" y1="442.63187144082036" x2="467.36582491582493" y2="446.0848126335744" stroke="#F8766D" stroke-width="2.0"/><line x1="467.36582491582493" y1="446.0848126335744" x2="467.36582491582493" y2="446.0848126335744" stroke="#F8766D" stroke-width="2.0"/><line x1="467.36582491582493" y1="446.0848126335744" x2="467.36582491582493" y2="446.0848126335744" stroke="#F8766D" stroke-width="2.0"/><line x1="467.36582491582493" y1="446.0848126335744" x2="467.36582491582493" y2="446.0848126335744" stroke="#F8766D" stroke-width="2.0"/><line x1="467.36582491582493" y1="446.0848126335744" x2="467.36582491582493" y2="446.0848126335744" stroke="#F8766D" stroke-width="2.0"/><line x1="467.36582491582493" y1="446.0848126335744" x2="467.36582491582493" y2="446.0848126335744" stroke="#F8766D" stroke-width="2.0"/><line x1="467.36582491582493" y1="446.0848126335744" x2="467.36582491582493" y2="446.0848126335744" stroke="#F8766D" stroke-width="2.0"/><line x1="467.36582491582493" y1="446.0848126335744" x2="467.36582491582493" y2="446.0848126335744" stroke="#F8766D" stroke-width="2.0"/><line x1="467.36582491582493" y1="446.0848126335744" x2="467.36582491582493" y2="446.0848126335744" stroke="#F8766D" stroke-width="2.0"/><line x1="467.36582491582493" y1="446.0848126335744" x2="467.36582491582493" y2="446.0848126335744" stroke="#F8766D" stroke-width="2.0"/><line x1="467.36582491582493" y1="446.0848126335744" x2="467.36582491582493" y2="446.0848126335744" stroke="#F8766D" stroke-width="2.0"/><line x1="467.36582491582493" y1="446.0848126335744" x2="467.36582491582493" y2="446.0848126335744" stroke="#F8766D" stroke-width="2.0"/><line x1="467.36582491582493" y1="446.0848126335744" x2="467.36582491582493" y2="446.0848126335744" stroke="#F8766D" stroke-width="2.0"/><line x1="467.36582491582493" y1="446.0848126335744" x2="467.36582491582493" y2="446.0848126335744" stroke="#F8766D" stroke-width="2.0"/><line x1="467.36582491582493" y1="446.0848126335744" x2="467.36582491582493" y2="446.0848126335744" stroke="#F8766D" stroke-width="2.0"/><line x1="467.36582491582493" y1="446.0848126335744" x2="467.36582491582493" y2="446.0848126335744" stroke="#F8766D" stroke-width="2.0"/><line x1="467.36582491582493" y1="446.0848126335744" x2="467.36582491582493" y2="446.0848126335744" stroke="#F8766D" stroke-width="2.0"/><line x1="467.36582491582493" y1="446.0848126335744" x2="505.5526936026936" y2="451.32706761513305" stroke="#F8766D" stroke-width="2.0"/><line x1="505.5526936026936" y1="451.32706761513305" x2="505.5526936026936" y2="451.32706761513305" stroke="#F8766D" stroke-width="2.0"/><line x1="505.5526936026936" y1="451.32706761513305" x2="531.0106060606062" y2="451.1177484958765" stroke="#F8766D" stroke-width="2.0"/><line x1="531.0106060606062" y1="451.1177484958765" x2="531.0106060606062" y2="451.1177484958765" stroke="#F8766D" stroke-width="2.0"/><line x1="531.0106060606062" y1="451.1177484958765" x2="531.0106060606062" y2="451.1177484958765" stroke="#F8766D" stroke-width="2.0"/><line x1="531.0106060606062" y1="451.1177484958765" x2="531.0106060606062" y2="451.1177484958765" stroke="#F8766D" stroke-width="2.0"/><line x1="531.0106060606062" y1="451.1177484958765" x2="531.0106060606062" y2="451.1177484958765" stroke="#F8766D" stroke-width="2.0"/><line x1="531.0106060606062" y1="451.1177484958765" x2="543.7395622895623" y2="450.2309382500641" stroke="#F8766D" stroke-width="2.0"/><line x1="543.7395622895623" y1="450.2309382500641" x2="543.7395622895623" y2="450.2309382500641" stroke="#F8766D" stroke-width="2.0"/><line x1="543.7395622895623" y1="450.2309382500641" x2="556.4685185185186" y2="449.0068886824748" stroke="#F8766D" stroke-width="2.0"/><line x1="556.4685185185186" y1="449.0068886824748" x2="556.4685185185186" y2="449.0068886824748" stroke="#F8766D" stroke-width="2.0"/><line x1="556.4685185185186" y1="449.0068886824748" x2="581.926430976431" y2="446.09965498900425" stroke="#F8766D" stroke-width="2.0"/><line x1="581.926430976431" y1="446.09965498900425" x2="594.6553872053872" y2="444.6927625666416" stroke="#F8766D" stroke-width="2.0"/><line x1="594.6553872053872" y1="444.6927625666416" x2="594.6553872053872" y2="444.6927625666416" stroke="#F8766D" stroke-width="2.0"/><line x1="594.6553872053872" y1="444.6927625666416" x2="594.6553872053872" y2="444.6927625666416" stroke="#F8766D" stroke-width="2.0"/><line x1="594.6553872053872" y1="444.6927625666416" x2="594.6553872053872" y2="444.6927625666416" stroke="#F8766D" stroke-width="2.0"/><line x1="594.6553872053872" y1="444.6927625666416" x2="594.6553872053872" y2="444.6927625666416" stroke="#F8766D" stroke-width="2.0"/><line x1="594.6553872053872" y1="444.6927625666416" x2="620.1132996632997" y2="442.66315582945924" stroke="#F8766D" stroke-width="2.0"/><line x1="620.1132996632997" y1="442.66315582945924" x2="620.1132996632997" y2="442.66315582945924" stroke="#F8766D" stroke-width="2.0"/><line x1="620.1132996632997" y1="442.66315582945924" x2="645.571212121212" y2="442.6000922473974" stroke="#F8766D" stroke-width="2.0"/><line x1="645.571212121212" y1="442.6000922473974" x2="696.4870370370371" y2="452.7942618049383" stroke="#F8766D" stroke-width="2.0"/><path d="M 72.76818181818183 186.73639257067384 L 72.76818181818183 186.73639257067384 L 72.76818181818183 186.73639257067384 L 72.76818181818183 186.73639257067384 L 72.76818181818183 186.73639257067384 L 98.22609427609427 104.05067856938774 L 98.22609427609427 104.05067856938774 L 98.22609427609427 104.05067856938774 L 98.22609427609427 104.05067856938774 L 98.22609427609427 104.05067856938774 L 98.22609427609427 104.05067856938774 L 98.22609427609427 104.05067856938774 L 98.22609427609427 104.05067856938774 L 98.22609427609427 104.05067856938774 L 98.22609427609427 104.05067856938774 L 98.22609427609427 104.05067856938774 L 98.22609427609427 104.05067856938774 L 110.95505050505048 147.30620082512291 L 110.95505050505048 147.30620082512291 L 110.95505050505048 147.30620082512291 L 123.68400673400674 198.19106743805924 L 123.68400673400674 198.19106743805924 L 123.68400673400674 198.19106743805924 L 123.68400673400674 198.19106743805924 L 123.68400673400674 198.19106743805924 L 123.68400673400674 198.19106743805924 L 123.68400673400674 198.19106743805924 L 123.68400673400674 198.19106743805924 L 123.68400673400674 198.19106743805924 L 123.68400673400674 198.19106743805924 L 123.68400673400674 198.19106743805924 L 123.68400673400674 198.19106743805924 L 123.68400673400674 198.19106743805924 L 123.68400673400674 198.19106743805924 L 123.68400673400674 198.19106743805924 L 123.68400673400674 198.19106743805924 L 123.68400673400674 198.19106743805924 L 123.68400673400674 198.19106743805924 L 123.68400673400674 198.19106743805924 L 149.14191919191921 209.09908663218403 L 149.14191919191921 209.09908663218403 L 149.14191919191921 209.09908663218403 L 149.14191919191921 209.09908663218403 L 174.59983164983166 216.8460769117146 L 174.59983164983166 216.8460769117146 L 174.59983164983166 216.8460769117146 L 174.59983164983166 216.8460769117146 L 174.59983164983166 216.8460769117146 L 174.59983164983166 216.8460769117146 L 174.59983164983166 216.8460769117146 L 174.59983164983166 216.8460769117146 L 174.59983164983166 216.8460769117146 L 174.59983164983166 216.8460769117146 L 174.59983164983166 216.8460769117146 L 174.59983164983166 216.8460769117146 L 174.59983164983166 216.8460769117146 L 187.3287878787879 232.6257506109436 L 187.3287878787879 232.6257506109436 L 187.3287878787879 232.6257506109436 L 187.3287878787879 232.6257506109436 L 187.3287878787879 232.6257506109436 L 187.3287878787879 232.6257506109436 L 187.3287878787879 232.6257506109436 L 187.3287878787879 232.6257506109436 L 212.78670033670036 267.49176793465597 L 212.78670033670036 267.49176793465597 L 212.78670033670036 267.49176793465597 L 225.51565656565657 275.4479683306465 L 225.51565656565657 275.4479683306465 L 225.51565656565657 275.4479683306465 L 225.51565656565657 275.4479683306465 L 225.51565656565657 275.4479683306465 L 225.51565656565657 275.4479683306465 L 225.51565656565657 275.4479683306465 L 250.97356902356904 281.633849709119 L 250.97356902356904 281.633849709119 L 250.97356902356904 281.633849709119 L 250.97356902356904 281.633849709119 L 250.97356902356904 281.633849709119 L 250.97356902356904 281.633849709119 L 250.97356902356904 281.633849709119 L 263.7025252525253 285.30533079163024 L 263.7025252525253 285.30533079163024 L 263.7025252525253 285.30533079163024 L 289.1604377104377 293.1776940014211 L 289.1604377104377 293.1776940014211 L 289.1604377104377 293.1776940014211 L 289.1604377104377 293.1776940014211 L 289.1604377104377 293.1776940014211 L 289.1604377104377 293.1776940014211 L 289.1604377104377 293.1776940014211 L 314.61835016835016 293.32914118373793 L 314.61835016835016 293.32914118373793 L 314.61835016835016 293.32914118373793 L 314.61835016835016 293.32914118373793 L 314.61835016835016 293.32914118373793 L 327.3473063973064 293.5133482672925 L 327.3473063973064 293.5133482672925 L 352.8052188552188 307.5353982547307 L 352.8052188552188 307.5353982547307 L 352.8052188552188 307.5353982547307 L 352.8052188552188 307.5353982547307 L 352.8052188552188 307.5353982547307 L 352.8052188552188 307.5353982547307 L 378.2631313131313 336.9598242011533 L 543.7395622895623 393.5475524641678 L 543.7395622895623 132.57870253398409 L 378.2631313131313 195.6416671973023 L 352.8052188552188 222.29089353810122 L 352.8052188552188 222.29089353810122 L 352.8052188552188 222.29089353810122 L 352.8052188552188 222.29089353810122 L 352.8052188552188 222.29089353810122 L 352.8052188552188 222.29089353810122 L 327.3473063973064 233.03303515752157 L 327.3473063973064 233.03303515752157 L 314.61835016835016 231.44327909358316 L 314.61835016835016 231.44327909358316 L 314.61835016835016 231.44327909358316 L 314.61835016835016 231.44327909358316 L 314.61835016835016 231.44327909358316 L 289.1604377104377 227.88929569877467 L 289.1604377104377 227.88929569877467 L 289.1604377104377 227.88929569877467 L 289.1604377104377 227.88929569877467 L 289.1604377104377 227.88929569877467 L 289.1604377104377 227.88929569877467 L 289.1604377104377 227.88929569877467 L 263.7025252525253 230.548127064161 L 263.7025252525253 230.548127064161 L 263.7025252525253 230.548127064161 L 250.97356902356904 228.93439044535916 L 250.97356902356904 228.93439044535916 L 250.97356902356904 228.93439044535916 L 250.97356902356904 228.93439044535916 L 250.97356902356904 228.93439044535916 L 250.97356902356904 228.93439044535916 L 250.97356902356904 228.93439044535916 L 225.51565656565657 213.88301994207308 L 225.51565656565657 213.88301994207308 L 225.51565656565657 213.88301994207308 L 225.51565656565657 213.88301994207308 L 225.51565656565657 213.88301994207308 L 225.51565656565657 213.88301994207308 L 225.51565656565657 213.88301994207308 L 212.78670033670036 203.7632209892546 L 212.78670033670036 203.7632209892546 L 212.78670033670036 203.7632209892546 L 187.3287878787879 182.25257987857822 L 187.3287878787879 182.25257987857822 L 187.3287878787879 182.25257987857822 L 187.3287878787879 182.25257987857822 L 187.3287878787879 182.25257987857822 L 187.3287878787879 182.25257987857822 L 187.3287878787879 182.25257987857822 L 187.3287878787879 182.25257987857822 L 174.59983164983166 160.40710676880428 L 174.59983164983166 160.40710676880428 L 174.59983164983166 160.40710676880428 L 174.59983164983166 160.40710676880428 L 174.59983164983166 160.40710676880428 L 174.59983164983166 160.40710676880428 L 174.59983164983166 160.40710676880428 L 174.59983164983166 160.40710676880428 L 174.59983164983166 160.40710676880428 L 174.59983164983166 160.40710676880428 L 174.59983164983166 160.40710676880428 L 174.59983164983166 160.40710676880428 L 174.59983164983166 160.40710676880428 L 149.14191919191921 130.30875911449192 L 149.14191919191921 130.30875911449192 L 149.14191919191921 130.30875911449192 L 149.14191919191921 130.30875911449192 L 123.68400673400674 140.55813095616094 L 123.68400673400674 140.55813095616094 L 123.68400673400674 140.55813095616094 L 123.68400673400674 140.55813095616094 L 123.68400673400674 140.55813095616094 L 123.68400673400674 140.55813095616094 L 123.68400673400674 140.55813095616094 L 123.68400673400674 140.55813095616094 L 123.68400673400674 140.55813095616094 L 123.68400673400674 140.55813095616094 L 123.68400673400674 140.55813095616094 L 123.68400673400674 140.55813095616094 L 123.68400673400674 140.55813095616094 L 123.68400673400674 140.55813095616094 L 123.68400673400674 140.55813095616094 L 123.68400673400674 140.55813095616094 L 123.68400673400674 140.55813095616094 L 123.68400673400674 140.55813095616094 L 123.68400673400674 140.55813095616094 L 110.95505050505048 95.72977182693722 L 110.95505050505048 95.72977182693722 L 110.95505050505048 95.72977182693722 L 98.22609427609427 30.87727272727261 L 98.22609427609427 30.87727272727261 L 98.22609427609427 30.87727272727261 L 98.22609427609427 30.87727272727261 L 98.22609427609427 30.87727272727261 L 98.22609427609427 30.87727272727261 L 98.22609427609427 30.87727272727261 L 98.22609427609427 30.87727272727261 L 98.22609427609427 30.87727272727261 L 98.22609427609427 30.87727272727261 L 98.22609427609427 30.87727272727261 L 98.22609427609427 30.87727272727261 L 72.76818181818183 70.07518729361067 L 72.76818181818183 70.07518729361067 L 72.76818181818183 70.07518729361067 L 72.76818181818183 70.07518729361067 L 72.76818181818183 70.07518729361067 Z" fill="#00BA38" fill-opacity="0.2" stroke="none"/><line x1="72.76818181818183" y1="128.40578993214228" x2="72.76818181818183" y2="128.40578993214228" stroke="#00BA38" stroke-width="2.0"/><line x1="72.76818181818183" y1="128.40578993214228" x2="72.76818181818183" y2="128.40578993214228" stroke="#00BA38" stroke-width="2.0"/><line x1="72.76818181818183" y1="128.40578993214228" x2="72.76818181818183" y2="128.40578993214228" stroke="#00BA38" stroke-width="2.0"/><line x1="72.76818181818183" y1="128.40578993214228" x2="72.76818181818183" y2="128.40578993214228" stroke="#00BA38" stroke-width="2.0"/><line x1="72.76818181818183" y1="128.40578993214228" x2="98.22609427609427" y2="67.46397564833023" stroke="#00BA38" stroke-width="2.0"/><line x1="98.22609427609427" y1="67.46397564833023" x2="98.22609427609427" y2="67.46397564833023" stroke="#00BA38" stroke-width="2.0"/><line x1="98.22609427609427" y1="67.46397564833023" x2="98.22609427609427" y2="67.46397564833023" stroke="#00BA38" stroke-width="2.0"/><line x1="98.22609427609427" y1="67.46397564833023" x2="98.22609427609427" y2="67.46397564833023" stroke="#00BA38" stroke-width="2.0"/><line x1="98.22609427609427" y1="67.46397564833023" x2="98.22609427609427" y2="67.46397564833023" stroke="#00BA38" stroke-width="2.0"/><line x1="98.22609427609427" y1="67.46397564833023" x2="98.22609427609427" y2="67.46397564833023" stroke="#00BA38" stroke-width="2.0"/><line x1="98.22609427609427" y1="67.46397564833023" x2="98.22609427609427" y2="67.46397564833023" stroke="#00BA38" stroke-width="2.0"/><line x1="98.22609427609427" y1="67.46397564833023" x2="98.22609427609427" y2="67.46397564833023" stroke="#00BA38" stroke-width="2.0"/><line x1="98.22609427609427" y1="67.46397564833023" x2="98.22609427609427" y2="67.46397564833023" stroke="#00BA38" stroke-width="2.0"/><line x1="98.22609427609427" y1="67.46397564833023" x2="98.22609427609427" y2="67.46397564833023" stroke="#00BA38" stroke-width="2.0"/><line x1="98.22609427609427" y1="67.46397564833023" x2="98.22609427609427" y2="67.46397564833023" stroke="#00BA38" stroke-width="2.0"/><line x1="98.22609427609427" y1="67.46397564833023" x2="98.22609427609427" y2="67.46397564833023" stroke="#00BA38" stroke-width="2.0"/><line x1="98.22609427609427" y1="67.46397564833023" x2="110.95505050505048" y2="121.51798632603004" stroke="#00BA38" stroke-width="2.0"/><line x1="110.95505050505048" y1="121.51798632603004" x2="110.95505050505048" y2="121.51798632603004" stroke="#00BA38" stroke-width="2.0"/><line x1="110.95505050505048" y1="121.51798632603004" x2="110.95505050505048" y2="121.51798632603004" stroke="#00BA38" stroke-width="2.0"/><line x1="110.95505050505048" y1="121.51798632603004" x2="123.68400673400674" y2="169.37459919711006" stroke="#00BA38" stroke-width="2.0"/><line x1="123.68400673400674" y1="169.37459919711006" x2="123.68400673400674" y2="169.37459919711006" stroke="#00BA38" stroke-width="2.0"/><line x1="123.68400673400674" y1="169.37459919711006" x2="123.68400673400674" y2="169.37459919711006" stroke="#00BA38" stroke-width="2.0"/><line x1="123.68400673400674" y1="169.37459919711006" x2="123.68400673400674" y2="169.37459919711006" stroke="#00BA38" stroke-width="2.0"/><line x1="123.68400673400674" y1="169.37459919711006" x2="123.68400673400674" y2="169.37459919711006" stroke="#00BA38" stroke-width="2.0"/><line x1="123.68400673400674" y1="169.37459919711006" x2="123.68400673400674" y2="169.37459919711006" stroke="#00BA38" stroke-width="2.0"/><line x1="123.68400673400674" y1="169.37459919711006" x2="123.68400673400674" y2="169.37459919711006" stroke="#00BA38" stroke-width="2.0"/><line x1="123.68400673400674" y1="169.37459919711006" x2="123.68400673400674" y2="169.37459919711006" stroke="#00BA38" stroke-width="2.0"/><line x1="123.68400673400674" y1="169.37459919711006" x2="123.68400673400674" y2="169.37459919711006" stroke="#00BA38" stroke-width="2.0"/><line x1="123.68400673400674" y1="169.37459919711006" x2="123.68400673400674" y2="169.37459919711006" stroke="#00BA38" stroke-width="2.0"/><line x1="123.68400673400674" y1="169.37459919711006" x2="123.68400673400674" y2="169.37459919711006" stroke="#00BA38" stroke-width="2.0"/><line x1="123.68400673400674" y1="169.37459919711006" x2="123.68400673400674" y2="169.37459919711006" stroke="#00BA38" stroke-width="2.0"/><line x1="123.68400673400674" y1="169.37459919711006" x2="123.68400673400674" y2="169.37459919711006" stroke="#00BA38" stroke-width="2.0"/><line x1="123.68400673400674" y1="169.37459919711006" x2="123.68400673400674" y2="169.37459919711006" stroke="#00BA38" stroke-width="2.0"/><line x1="123.68400673400674" y1="169.37459919711006" x2="123.68400673400674" y2="169.37459919711006" stroke="#00BA38" stroke-width="2.0"/><line x1="123.68400673400674" y1="169.37459919711006" x2="123.68400673400674" y2="169.37459919711006" stroke="#00BA38" stroke-width="2.0"/><line x1="123.68400673400674" y1="169.37459919711006" x2="123.68400673400674" y2="169.37459919711006" stroke="#00BA38" stroke-width="2.0"/><line x1="123.68400673400674" y1="169.37459919711006" x2="123.68400673400674" y2="169.37459919711006" stroke="#00BA38" stroke-width="2.0"/><line x1="123.68400673400674" y1="169.37459919711006" x2="123.68400673400674" y2="169.37459919711006" stroke="#00BA38" stroke-width="2.0"/><line x1="123.68400673400674" y1="169.37459919711006" x2="149.14191919191921" y2="169.703922873338" stroke="#00BA38" stroke-width="2.0"/><line x1="149.14191919191921" y1="169.703922873338" x2="149.14191919191921" y2="169.703922873338" stroke="#00BA38" stroke-width="2.0"/><line x1="149.14191919191921" y1="169.703922873338" x2="149.14191919191921" y2="169.703922873338" stroke="#00BA38" stroke-width="2.0"/><line x1="149.14191919191921" y1="169.703922873338" x2="149.14191919191921" y2="169.703922873338" stroke="#00BA38" stroke-width="2.0"/><line x1="149.14191919191921" y1="169.703922873338" x2="174.59983164983166" y2="188.62659184025938" stroke="#00BA38" stroke-width="2.0"/><line x1="174.59983164983166" y1="188.62659184025938" x2="174.59983164983166" y2="188.62659184025938" stroke="#00BA38" stroke-width="2.0"/><line x1="174.59983164983166" y1="188.62659184025938" x2="174.59983164983166" y2="188.62659184025938" stroke="#00BA38" stroke-width="2.0"/><line x1="174.59983164983166" y1="188.62659184025938" x2="174.59983164983166" y2="188.62659184025938" stroke="#00BA38" stroke-width="2.0"/><line x1="174.59983164983166" y1="188.62659184025938" x2="174.59983164983166" y2="188.62659184025938" stroke="#00BA38" stroke-width="2.0"/><line x1="174.59983164983166" y1="188.62659184025938" x2="174.59983164983166" y2="188.62659184025938" stroke="#00BA38" stroke-width="2.0"/><line x1="174.59983164983166" y1="188.62659184025938" x2="174.59983164983166" y2="188.62659184025938" stroke="#00BA38" stroke-width="2.0"/><line x1="174.59983164983166" y1="188.62659184025938" x2="174.59983164983166" y2="188.62659184025938" stroke="#00BA38" stroke-width="2.0"/><line x1="174.59983164983166" y1="188.62659184025938" x2="174.59983164983166" y2="188.62659184025938" stroke="#00BA38" stroke-width="2.0"/><line x1="174.59983164983166" y1="188.62659184025938" x2="174.59983164983166" y2="188.62659184025938" stroke="#00BA38" stroke-width="2.0"/><line x1="174.59983164983166" y1="188.62659184025938" x2="174.59983164983166" y2="188.62659184025938" stroke="#00BA38" stroke-width="2.0"/><line x1="174.59983164983166" y1="188.62659184025938" x2="174.59983164983166" y2="188.62659184025938" stroke="#00BA38" stroke-width="2.0"/><line x1="174.59983164983166" y1="188.62659184025938" x2="174.59983164983166" y2="188.62659184025938" stroke="#00BA38" stroke-width="2.0"/><line x1="174.59983164983166" y1="188.62659184025938" x2="187.3287878787879" y2="207.43916524476094" stroke="#00BA38" stroke-width="2.0"/><line x1="187.3287878787879" y1="207.43916524476094" x2="187.3287878787879" y2="207.43916524476094" stroke="#00BA38" stroke-width="2.0"/><line x1="187.3287878787879" y1="207.43916524476094" x2="187.3287878787879" y2="207.43916524476094" stroke="#00BA38" stroke-width="2.0"/><line x1="187.3287878787879" y1="207.43916524476094" x2="187.3287878787879" y2="207.43916524476094" stroke="#00BA38" stroke-width="2.0"/><line x1="187.3287878787879" y1="207.43916524476094" x2="187.3287878787879" y2="207.43916524476094" stroke="#00BA38" stroke-width="2.0"/><line x1="187.3287878787879" y1="207.43916524476094" x2="187.3287878787879" y2="207.43916524476094" stroke="#00BA38" stroke-width="2.0"/><line x1="187.3287878787879" y1="207.43916524476094" x2="187.3287878787879" y2="207.43916524476094" stroke="#00BA38" stroke-width="2.0"/><line x1="187.3287878787879" y1="207.43916524476094" x2="187.3287878787879" y2="207.43916524476094" stroke="#00BA38" stroke-width="2.0"/><line x1="187.3287878787879" y1="207.43916524476094" x2="212.78670033670036" y2="235.62749446195528" stroke="#00BA38" stroke-width="2.0"/><line x1="212.78670033670036" y1="235.62749446195528" x2="212.78670033670036" y2="235.62749446195528" stroke="#00BA38" stroke-width="2.0"/><line x1="212.78670033670036" y1="235.62749446195528" x2="212.78670033670036" y2="235.62749446195528" stroke="#00BA38" stroke-width="2.0"/><line x1="212.78670033670036" y1="235.62749446195528" x2="225.51565656565657" y2="244.66549413635983" stroke="#00BA38" stroke-width="2.0"/><line x1="225.51565656565657" y1="244.66549413635983" x2="225.51565656565657" y2="244.66549413635983" stroke="#00BA38" stroke-width="2.0"/><line x1="225.51565656565657" y1="244.66549413635983" x2="225.51565656565657" y2="244.66549413635983" stroke="#00BA38" stroke-width="2.0"/><line x1="225.51565656565657" y1="244.66549413635983" x2="225.51565656565657" y2="244.66549413635983" stroke="#00BA38" stroke-width="2.0"/><line x1="225.51565656565657" y1="244.66549413635983" x2="225.51565656565657" y2="244.66549413635983" stroke="#00BA38" stroke-width="2.0"/><line x1="225.51565656565657" y1="244.66549413635983" x2="225.51565656565657" y2="244.66549413635983" stroke="#00BA38" stroke-width="2.0"/><line x1="225.51565656565657" y1="244.66549413635983" x2="225.51565656565657" y2="244.66549413635983" stroke="#00BA38" stroke-width="2.0"/><line x1="225.51565656565657" y1="244.66549413635983" x2="250.97356902356904" y2="255.2841200772391" stroke="#00BA38" stroke-width="2.0"/><line x1="250.97356902356904" y1="255.2841200772391" x2="250.97356902356904" y2="255.2841200772391" stroke="#00BA38" stroke-width="2.0"/><line x1="250.97356902356904" y1="255.2841200772391" x2="250.97356902356904" y2="255.2841200772391" stroke="#00BA38" stroke-width="2.0"/><line x1="250.97356902356904" y1="255.2841200772391" x2="250.97356902356904" y2="255.2841200772391" stroke="#00BA38" stroke-width="2.0"/><line x1="250.97356902356904" y1="255.2841200772391" x2="250.97356902356904" y2="255.2841200772391" stroke="#00BA38" stroke-width="2.0"/><line x1="250.97356902356904" y1="255.2841200772391" x2="250.97356902356904" y2="255.2841200772391" stroke="#00BA38" stroke-width="2.0"/><line x1="250.97356902356904" y1="255.2841200772391" x2="250.97356902356904" y2="255.2841200772391" stroke="#00BA38" stroke-width="2.0"/><line x1="250.97356902356904" y1="255.2841200772391" x2="263.7025252525253" y2="257.9267289278956" stroke="#00BA38" stroke-width="2.0"/><line x1="263.7025252525253" y1="257.9267289278956" x2="263.7025252525253" y2="257.9267289278956" stroke="#00BA38" stroke-width="2.0"/><line x1="263.7025252525253" y1="257.9267289278956" x2="263.7025252525253" y2="257.9267289278956" stroke="#00BA38" stroke-width="2.0"/><line x1="263.7025252525253" y1="257.9267289278956" x2="289.1604377104377" y2="260.5334948500979" stroke="#00BA38" stroke-width="2.0"/><line x1="289.1604377104377" y1="260.5334948500979" x2="289.1604377104377" y2="260.5334948500979" stroke="#00BA38" stroke-width="2.0"/><line x1="289.1604377104377" y1="260.5334948500979" x2="289.1604377104377" y2="260.5334948500979" stroke="#00BA38" stroke-width="2.0"/><line x1="289.1604377104377" y1="260.5334948500979" x2="289.1604377104377" y2="260.5334948500979" stroke="#00BA38" stroke-width="2.0"/><line x1="289.1604377104377" y1="260.5334948500979" x2="289.1604377104377" y2="260.5334948500979" stroke="#00BA38" stroke-width="2.0"/><line x1="289.1604377104377" y1="260.5334948500979" x2="289.1604377104377" y2="260.5334948500979" stroke="#00BA38" stroke-width="2.0"/><line x1="289.1604377104377" y1="260.5334948500979" x2="289.1604377104377" y2="260.5334948500979" stroke="#00BA38" stroke-width="2.0"/><line x1="289.1604377104377" y1="260.5334948500979" x2="314.61835016835016" y2="262.38621013866054" stroke="#00BA38" stroke-width="2.0"/><line x1="314.61835016835016" y1="262.38621013866054" x2="314.61835016835016" y2="262.38621013866054" stroke="#00BA38" stroke-width="2.0"/><line x1="314.61835016835016" y1="262.38621013866054" x2="314.61835016835016" y2="262.38621013866054" stroke="#00BA38" stroke-width="2.0"/><line x1="314.61835016835016" y1="262.38621013866054" x2="314.61835016835016" y2="262.38621013866054" stroke="#00BA38" stroke-width="2.0"/><line x1="314.61835016835016" y1="262.38621013866054" x2="314.61835016835016" y2="262.38621013866054" stroke="#00BA38" stroke-width="2.0"/><line x1="314.61835016835016" y1="262.38621013866054" x2="327.3473063973064" y2="263.273191712407" stroke="#00BA38" stroke-width="2.0"/><line x1="327.3473063973064" y1="263.273191712407" x2="327.3473063973064" y2="263.273191712407" stroke="#00BA38" stroke-width="2.0"/><line x1="327.3473063973064" y1="263.273191712407" x2="352.8052188552188" y2="264.913145896416" stroke="#00BA38" stroke-width="2.0"/><line x1="352.8052188552188" y1="264.913145896416" x2="352.8052188552188" y2="264.913145896416" stroke="#00BA38" stroke-width="2.0"/><line x1="352.8052188552188" y1="264.913145896416" x2="352.8052188552188" y2="264.913145896416" stroke="#00BA38" stroke-width="2.0"/><line x1="352.8052188552188" y1="264.913145896416" x2="352.8052188552188" y2="264.913145896416" stroke="#00BA38" stroke-width="2.0"/><line x1="352.8052188552188" y1="264.913145896416" x2="352.8052188552188" y2="264.913145896416" stroke="#00BA38" stroke-width="2.0"/><line x1="352.8052188552188" y1="264.913145896416" x2="352.8052188552188" y2="264.913145896416" stroke="#00BA38" stroke-width="2.0"/><line x1="352.8052188552188" y1="264.913145896416" x2="378.2631313131313" y2="266.3007456992278" stroke="#00BA38" stroke-width="2.0"/><line x1="378.2631313131313" y1="266.3007456992278" x2="543.7395622895623" y2="263.0631274990759" stroke="#00BA38" stroke-width="2.0"/><path d="M 352.8052188552188 341.483253508701 L 352.8052188552188 341.483253508701 L 378.2631313131313 352.24631442996474 L 378.2631313131313 352.24631442996474 L 454.6368686868687 403.3847149616133 L 454.6368686868687 403.3847149616133 L 454.6368686868687 403.3847149616133 L 454.6368686868687 403.3847149616133 L 454.6368686868687 403.3847149616133 L 543.7395622895623 486.85349510182084 L 543.7395622895623 486.85349510182084 L 543.7395622895623 486.85349510182084 L 556.4685185185186 456.90418994525936 L 556.4685185185186 456.90418994525936 L 556.4685185185186 456.90418994525936 L 556.4685185185186 456.90418994525936 L 556.4685185185186 456.90418994525936 L 556.4685185185186 456.90418994525936 L 594.6553872053872 425.78149447042483 L 594.6553872053872 425.78149447042483 L 594.6553872053872 425.78149447042483 L 632.8422558922559 377.6682114933102 L 658.3001683501684 368.8992980393884 L 658.3001683501684 368.8992980393884 L 760.1318181818182 408.87426389584687 L 760.1318181818182 151.69649933938194 L 658.3001683501684 195.82333701577818 L 658.3001683501684 195.82333701577818 L 632.8422558922559 238.15909675950138 L 594.6553872053872 288.6988998839932 L 594.6553872053872 288.6988998839932 L 594.6553872053872 288.6988998839932 L 556.4685185185186 353.7926998562968 L 556.4685185185186 353.7926998562968 L 556.4685185185186 353.7926998562968 L 556.4685185185186 353.7926998562968 L 556.4685185185186 353.7926998562968 L 556.4685185185186 353.7926998562968 L 543.7395622895623 339.55532206273756 L 543.7395622895623 339.55532206273756 L 543.7395622895623 339.55532206273756 L 454.6368686868687 288.3595527487027 L 454.6368686868687 288.3595527487027 L 454.6368686868687 288.3595527487027 L 454.6368686868687 288.3595527487027 L 454.6368686868687 288.3595527487027 L 378.2631313131313 170.37544530526583 L 378.2631313131313 170.37544530526583 L 352.8052188552188 159.61228986811255 L 352.8052188552188 159.61228986811255 Z" fill="#619CFF" fill-opacity="0.2" stroke="none"/><line x1="352.8052188552188" y1="250.54777168840673" x2="352.8052188552188" y2="250.54777168840673" stroke="#619CFF" stroke-width="2.0"/><line x1="352.8052188552188" y1="250.54777168840673" x2="378.2631313131313" y2="261.3108798676153" stroke="#619CFF" stroke-width="2.0"/><line x1="378.2631313131313" y1="261.3108798676153" x2="378.2631313131313" y2="261.3108798676153" stroke="#619CFF" stroke-width="2.0"/><line x1="378.2631313131313" y1="261.3108798676153" x2="454.6368686868687" y2="345.87213385515804" stroke="#619CFF" stroke-width="2.0"/><line x1="454.6368686868687" y1="345.87213385515804" x2="454.6368686868687" y2="345.87213385515804" stroke="#619CFF" stroke-width="2.0"/><line x1="454.6368686868687" y1="345.87213385515804" x2="454.6368686868687" y2="345.87213385515804" stroke="#619CFF" stroke-width="2.0"/><line x1="454.6368686868687" y1="345.87213385515804" x2="454.6368686868687" y2="345.87213385515804" stroke="#619CFF" stroke-width="2.0"/><line x1="454.6368686868687" y1="345.87213385515804" x2="454.6368686868687" y2="345.87213385515804" stroke="#619CFF" stroke-width="2.0"/><line x1="454.6368686868687" y1="345.87213385515804" x2="543.7395622895623" y2="413.2044085822792" stroke="#619CFF" stroke-width="2.0"/><line x1="543.7395622895623" y1="413.2044085822792" x2="543.7395622895623" y2="413.2044085822792" stroke="#619CFF" stroke-width="2.0"/><line x1="543.7395622895623" y1="413.2044085822792" x2="543.7395622895623" y2="413.2044085822792" stroke="#619CFF" stroke-width="2.0"/><line x1="543.7395622895623" y1="413.2044085822792" x2="556.4685185185186" y2="405.3484449007781" stroke="#619CFF" stroke-width="2.0"/><line x1="556.4685185185186" y1="405.3484449007781" x2="556.4685185185186" y2="405.3484449007781" stroke="#619CFF" stroke-width="2.0"/><line x1="556.4685185185186" y1="405.3484449007781" x2="556.4685185185186" y2="405.3484449007781" stroke="#619CFF" stroke-width="2.0"/><line x1="556.4685185185186" y1="405.3484449007781" x2="556.4685185185186" y2="405.3484449007781" stroke="#619CFF" stroke-width="2.0"/><line x1="556.4685185185186" y1="405.3484449007781" x2="556.4685185185186" y2="405.3484449007781" stroke="#619CFF" stroke-width="2.0"/><line x1="556.4685185185186" y1="405.3484449007781" x2="556.4685185185186" y2="405.3484449007781" stroke="#619CFF" stroke-width="2.0"/><line x1="556.4685185185186" y1="405.3484449007781" x2="594.6553872053872" y2="357.240197177209" stroke="#619CFF" stroke-width="2.0"/><line x1="594.6553872053872" y1="357.240197177209" x2="594.6553872053872" y2="357.240197177209" stroke="#619CFF" stroke-width="2.0"/><line x1="594.6553872053872" y1="357.240197177209" x2="594.6553872053872" y2="357.240197177209" stroke="#619CFF" stroke-width="2.0"/><line x1="594.6553872053872" y1="357.240197177209" x2="632.8422558922559" y2="307.91365412640573" stroke="#619CFF" stroke-width="2.0"/><line x1="632.8422558922559" y1="307.91365412640573" x2="658.3001683501684" y2="282.36131752758325" stroke="#619CFF" stroke-width="2.0"/><line x1="658.3001683501684" y1="282.36131752758325" x2="658.3001683501684" y2="282.36131752758325" stroke="#619CFF" stroke-width="2.0"/><line x1="658.3001683501684" y1="282.36131752758325" x2="760.1318181818182" y2="280.2853816176144" stroke="#619CFF" stroke-width="2.0"/></svg>