<svg xmlns="http://www.w3.org/2000/svg" width="800" height="600" viewBox="0 0 800 600"><rect x="0.0" y="0.0" width="800.0" height="600.0" fill="#ffffff" fill-opacity="1.0" stroke="none"/><line x1="57.7496632996633" y1="5.5" x2="57.7496632996633" y2="563.8" stroke="#dddddd" stroke-width="0.5"/><line x1="171.5712121212121" y1="5.5" x2="171.5712121212121" y2="563.8" stroke="#dddddd" stroke-width="0.5"/><line x1="285.39276094276096" y1="5.5" x2="285.39276094276096" y2="563.8" stroke="#dddddd" stroke-width="0.5"/><line x1="399.2143097643098" y1="5.5" x2="399.2143097643098" y2="563.8" stroke="#dddddd" stroke-width="0.5"/><line x1="513.0358585858587" y1="5.5" x2="513.0358585858587" y2="563.8" stroke="#dddddd" stroke-width="0.5"/><line x1="626.8574074074074" y1="5.5" x2="626.8574074074074" y2="563.8" stroke="#dddddd" stroke-width="0.5"/><line x1="114.66043771043772" y1="5.5" x2="114.66043771043772" y2="563.8" stroke="#dddddd" stroke-width="1.0"/><line x1="228.48198653198654" y1="5.5" x2="228.48198653198654" y2="563.8" stroke="#dddddd" stroke-width="1.0"/><line x1="342.3035353535353" y1="5.5" x2="342.3035353535353" y2="563.8" stroke="#dddddd" stroke-width="1.0"/><line x1="456.12508417508417" y1="5.5" x2="456.12508417508417" y2="563.8" stroke="#dddddd" stroke-width="1.0"/><line x1="569.946632996633" y1="5.5" x2="569.946632996633" y2="563.8" stroke="#dddddd" stroke-width="1.0"/><line x1="683.7681818181818" y1="5.5" x2="683.7681818181818" y2="563.8" stroke="#dddddd" stroke-width="1.0"/><line x1="38.4" y1="489.70016562581037" x2="714.5" y2="489.70016562581037" stroke="#dddddd" stroke-width="0.5"/><line x1="38.4" y1="331.4853749711422" x2="714.5" y2="331.4853749711422" stroke="#dddddd" stroke-width="0.5"/><line x1="38.4" y1="173.27058431647407" x2="714.5" y2="173.27058431647407" stroke="#dddddd" stroke-width="0.5"/><line x1="38.4" y1="15.055793661805978" x2="714.5" y2="15.055793661805978" stroke="#dddddd" stroke-width="0.5"/><line x1="38.4" y1="410.59277029847624" x2="714.5" y2="410.59277029847624" stroke="#dddddd" stroke-width="1.0"/><line x1="38.4" y1="252.37797964380815" x2="714.5" y2="252.37797964380815" stroke="#dddddd" stroke-width="1.0"/><line x1="38.4" y1="94.16318898914" x2="714.5" y2="94.16318898914" stroke="#dddddd" stroke-width="1.0"/><rect x="38.4" y="5.5" width="676.1" height="558.3" fill="#ffffff" fill-opacity="0.0" stroke="#444444" stroke-width="1.0"/><line x1="114.66043771043772" y1="563.8" x2="114.66043771043772" y2="566.55" stroke="#444444" stroke-width="1.0"/><text x="114.66043771043772" y="577.55" fill="#333333" font-size="11.0" font-family="sans-serif" text-anchor="middle">2</text><line x1="228.48198653198654" y1="563.8" x2="228.48198653198654" y2="566.55" stroke="#444444" stroke-width="1.0"/><text x="228.48198653198654" y="577.55" fill="#333333" font-size="11.0" font-family="sans-serif" text-anchor="middle">3</text><line x1="342.3035353535353" y1="563.8" x2="342.3035353535353" y2="566.55" stroke="#444444" stroke-width="1.0"/><text x="342.3035353535353" y="577.55" fill="#333333" font-size="11.0" font-family="sans-serif" text-anchor="middle">4</text><line x1="456.12508417508417" y1="563.8" x2="456.12508417508417" y2="566.55" stroke="#444444" stroke-width="1.0"/><text x="456.12508417508417" y="577.55" fill="#333333" font-size="11.0" font-family="sans-serif" text-anchor="middle">5</text><line x1="569.946632996633" y1="563.8" x2="569.946632996633" y2="566.55" stroke="#444444" stroke-width="1.0"/><text x="569.946632996633" y="577.55" fill="#333333" font-size="11.0" font-family="sans-serif" text-anchor="middle">6</text><line x1="683.7681818181818" y1="563.8" x2="683.7681818181818" y2="566.55" stroke="#444444" stroke-width="1.0"/><text x="683.7681818181818" y="577.55" fill="#333333" font-size="11.0" font-family="sans-serif" text-anchor="middle">7</text><line x1="38.4" y1="410.59277029847624" x2="35.65" y2="410.59277029847624" stroke="#444444" stroke-width="1.0"/><text x="33.449999999999996" y="414.44277029847626" fill="#333333" font-size="11.0" font-family="sans-serif" text-anchor="end">20</text><line x1="38.4" y1="252.37797964380815" x2="35.65" y2="252.37797964380815" stroke="#444444" stroke-width="1.0"/><text x="33.449999999999996" y="256.22797964380817" fill="#333333" font-size="11.0" font-family="sans-serif" text-anchor="end">30</text><line x1="38.4" y1="94.16318898914" x2="35.65" y2="94.16318898914" stroke="#444444" stroke-width="1.0"/><text x="33.449999999999996" y="98.01318898913999" fill="#333333" font-size="11.0" font-family="sans-serif" text-anchor="end">40</text><text x="376.45" y="592.1" fill="#333333" font-size="12.0" font-family="sans-serif" text-anchor="middle">displ</text><text x="13.899999999999999" y="284.65" fill="#333333" font-size="12.0" font-family="sans-serif" text-anchor="middle" transform="rotate(-90.0 13.899999999999999 284.65)">hwy</text><circle cx="91.89612794612795" cy="268.199458709275" r="4.0" fill="#00BA38" fill-opacity="0.9" stroke="none"><title>(1.8, 29)</title></circle><circle cx="91.89612794612795" cy="268.199458709275" r="4.0" fill="#00BA38" fill-opacity="0.9" stroke="none"><title>(1.8, 29)</title></circle><circle cx="114.66043771043772" cy="236.55650057834134" r="4.0" fill="#00BA38" fill-opacity="0.9" stroke="none"><title>(2, 31)</title></circle><circle cx="114.66043771043772" cy="252.37797964380815" r="4.0" fill="#00BA38" fill-opacity="0.9" stroke="none"><title>(2, 30)</title></circle><circle cx="205.71767676767678" cy="315.6638959056754" r="4.0" fill="#00BA38" fill-opacity="0.9" stroke="none"><title>(2.8, 26)</title></circle><circle cx="205.71767676767678" cy="315.6638959056754" r="4.0" fill="#00BA38" fill-opacity="0.9" stroke="none"><title>(2.8, 26)</title></circle><circle cx="239.86414141414144" cy="299.8424168402086" r="4.0" fill="#00BA38" fill-opacity="0.9" stroke="none"><title>(3.1, 27)</title></circle><circle cx="91.89612794612795" cy="315.6638959056754" r="4.0" fill="#F8766D" fill-opacity="0.9" stroke="none"><title>(1.8, 26)</title></circle><circle cx="91.89612794612795" cy="331.4853749711422" r="4.0" fill="#F8766D" fill-opacity="0.9" stroke="none"><title>(1.8, 25)</title></circle><circle cx="114.66043771043772" cy="284.0209377747418" r="4.0" fill="#F8766D" fill-opacity="0.9" stroke="none"><title>(2, 28)</title></circle><circle cx="114.66043771043772" cy="299.8424168402086" r="4.0" fill="#F8766D" fill-opacity="0.9" stroke="none"><title>(2, 27)</title></circle><circle cx="205.71767676767678" cy="331.4853749711422" r="4.0" fill="#F8766D" fill-opacity="0.9" stroke="none"><title>(2.8, 25)</title></circle><circle cx="205.71767676767678" cy="331.4853749711422" r="4.0" fill="#F8766D" fill-opacity="0.9" stroke="none"><title>(2.8, 25)</title></circle><circle cx="239.86414141414144" cy="331.4853749711422" r="4.0" fill="#F8766D" fill-opacity="0.9" stroke="none"><title>(3.1, 25)</title></circle><circle cx="239.86414141414144" cy="331.4853749711422" r="4.0" fill="#F8766D" fill-opacity="0.9" stroke="none"><title>(3.1, 25)</title></circle><circle cx="205.71767676767678" cy="347.306854036609" r="4.0" fill="#F8766D" fill-opacity="0.9" stroke="none"><title>(2.8, 24)</title></circle><circle cx="239.86414141414144" cy="331.4853749711422" r="4.0" fill="#F8766D" fill-opacity="0.9" stroke="none"><title>(3.1, 25)</title></circle><circle cx="365.06784511784514" cy="363.1283331020758" r="4.0" fill="#F8766D" fill-opacity="0.9" stroke="none"><title>(4.2, 23)</title></circle><circle cx="490.27154882154883" cy="410.59277029847624" r="4.0" fill="#619CFF" fill-opacity="0.9" stroke="none"><title>(5.3, 20)</title></circle><circle cx="490.27154882154883" cy="489.70016562581037" r="4.0" fill="#619CFF" fill-opacity="0.9" stroke="none"><title>(5.3, 15)</title></circle><circle cx="490.27154882154883" cy="410.59277029847624" r="4.0" fill="#619CFF" fill-opacity="0.9" stroke="none"><title>(5.3, 20)</title></circle><circle cx="535.8001683501684" cy="458.0572074948767" r="4.0" fill="#619CFF" fill-opacity="0.9" stroke="none"><title>(5.7, 17)</title></circle><circle cx="569.946632996633" cy="458.0572074948767" r="4.0" fill="#619CFF" fill-opacity="0.9" stroke="none"><title>(6, 17)</title></circle><circle cx="535.8001683501684" cy="315.6638959056754" r="4.0" fill="#619CFF" fill-opacity="0.9" stroke="none"><title>(5.7, 26)</title></circle><circle cx="535.8001683501684" cy="363.1283331020758" r="4.0" fill="#619CFF" fill-opacity="0.9" stroke="none"><title>(5.7, 23)</title></circle><circle cx="592.7109427609428" cy="315.6638959056754" r="4.0" fill="#619CFF" fill-opacity="0.9" stroke="none"><title>(6.2, 26)</title></circle><circle cx="592.7109427609428" cy="331.4853749711422" r="4.0" fill="#619CFF" fill-opacity="0.9" stroke="none"><title>(6.2, 25)</title></circle><circle cx="683.7681818181818" cy="347.306854036609" r="4.0" fill="#619CFF" fill-opacity="0.9" stroke="none"><title>(7, 24)</title></circle><circle cx="490.27154882154883" cy="426.4142493639431" r="4.0" fill="#F8766D" fill-opacity="0.9" stroke="none"><title>(5.3, 19)</title></circle><circle cx="490.27154882154883" cy="505.5216446912772" r="4.0" fill="#F8766D" fill-opacity="0.9" stroke="none"><title>(5.3, 14)</title></circle><circle cx="535.8001683501684" cy="489.70016562581037" r="4.0" fill="#F8766D" fill-opacity="0.9" stroke="none"><title>(5.7, 15)</title></circle><circle cx="626.8574074074074" cy="458.0572074948767" r="4.0" fill="#F8766D" fill-opacity="0.9" stroke="none"><title>(6.5, 17)</title></circle><circle cx="160.18905723905723" cy="299.8424168402086" r="4.0" fill="#00BA38" fill-opacity="0.9" stroke="none"><title>(2.4, 27)</title></circle><circle cx="160.18905723905723" cy="252.37797964380815" r="4.0" fill="#00BA38" fill-opacity="0.9" stroke="none"><title>(2.4, 30)</title></circle><circle cx="239.86414141414144" cy="315.6638959056754" r="4.0" fill="#00BA38" fill-opacity="0.9" stroke="none"><title>(3.1, 26)</title></circle><circle cx="285.39276094276096" cy="268.199458709275" r="4.0" fill="#00BA38" fill-opacity="0.9" stroke="none"><title>(3.5, 29)</title></circle><circle cx="296.7749158249158" cy="315.6638959056754" r="4.0" fill="#00BA38" fill-opacity="0.9" stroke="none"><title>(3.6, 26)</title></circle><circle cx="160.18905723905723" cy="347.306854036609" r="4.0" fill="#00BA38" fill-opacity="0.9" stroke="none"><title>(2.4, 24)</title></circle><circle cx="228.48198653198654" cy="347.306854036609" r="4.0" fill="#00BA38" fill-opacity="0.9" stroke="none"><title>(3, 24)</title></circle><circle cx="262.62845117845114" cy="378.94981216754263" r="4.0" fill="#00BA38" fill-opacity="0.9" stroke="none"><title>(3.3, 22)</title></circle><circle cx="262.62845117845114" cy="378.94981216754263" r="4.0" fill="#00BA38" fill-opacity="0.9" stroke="none"><title>(3.3, 22)</title></circle><circle cx="262.62845117845114" cy="347.306854036609" r="4.0" fill="#00BA38" fill-opacity="0.9" stroke="none"><title>(3.3, 24)</title></circle><circle cx="262.62845117845114" cy="347.306854036609" r="4.0" fill="#00BA38" fill-opacity="0.9" stroke="none"><title>(3.3, 24)</title></circle><circle cx="262.62845117845114" cy="458.0572074948767" r="4.0" fill="#00BA38" fill-opacity="0.9" stroke="none"><title>(3.3, 17)</title></circle><circle cx="319.53922558922557" cy="378.94981216754263" r="4.0" fill="#00BA38" fill-opacity="0.9" stroke="none"><title>(3.8, 22)</title></circle><circle cx="319.53922558922557" cy="394.7712912330095" r="4.0" fill="#00BA38" fill-opacity="0.9" stroke="none"><title>(3.8, 21)</title></circle><circle cx="319.53922558922557" cy="363.1283331020758" r="4.0" fill="#00BA38" fill-opacity="0.9" stroke="none"><title>(3.8, 23)</title></circle><circle cx="342.3035353535353" cy="363.1283331020758" r="4.0" fill="#00BA38" fill-opacity="0.9" stroke="none"><title>(4, 23)</title></circle><circle cx="308.1570707070707" cy="426.4142493639431" r="4.0" fill="#F8766D" fill-opacity="0.9" stroke="none"><title>(3.7, 19)</title></circle><circle cx="308.1570707070707" cy="442.2357284294099" r="4.0" fill="#F8766D" fill-opacity="0.9" stroke="none"><title>(3.7, 18)</title></circle><circle cx="330.9213804713805" cy="458.0572074948767" r="4.0" fill="#F8766D" fill-opacity="0.9" stroke="none"><title>(3.9, 17)</title></circle><circle cx="330.9213804713805" cy="458.0572074948767" r="4.0" fill="#F8766D" fill-opacity="0.9" stroke="none"><title>(3.9, 17)</title></circle><circle cx="421.97861952861956" cy="426.4142493639431" r="4.0" fill="#F8766D" fill-opacity="0.9" stroke="none"><title>(4.7, 19)</title></circle><circle cx="421.97861952861956" cy="426.4142493639431" r="4.0" fill="#F8766D" fill-opacity="0.9" stroke="none"><title>(4.7, 19)</title></circle><circle cx="421.97861952861956" cy="537.1646028222108" r="4.0" fill="#F8766D" fill-opacity="0.9" stroke="none"><title>(4.7, 12)</title></circle><circle cx="478.889393939394" cy="458.0572074948767" r="4.0" fill="#F8766D" fill-opacity="0.9" stroke="none"><title>(5.2, 17)</title></circle><circle cx="478.889393939394" cy="489.70016562581037" r="4.0" fill="#F8766D" fill-opacity="0.9" stroke="none"><title>(5.2, 15)</title></circle><circle cx="330.9213804713805" cy="458.0572074948767" r="4.0" fill="#F8766D" fill-opacity="0.9" stroke="none"><title>(3.9, 17)</title></circle><circle cx="421.97861952861956" cy="458.0572074948767" r="4.0" fill="#F8766D" fill-opacity="0.9" stroke="none"><title>(4.7, 17)</title></circle><circle cx="421.97861952861956" cy="537.1646028222108" r="4.0" fill="#F8766D" fill-opacity="0.9" stroke="none"><title>(4.7, 12)</title></circle><circle cx="421.97861952861956" cy="458.0572074948767" r="4.0" fill="#F8766D" fill-opacity="0.9" stroke="none"><title>(4.7, 17)</title></circle><circle cx="478.889393939394" cy="473.87868656034357" r="4.0" fill="#F8766D" fill-opacity="0.9" stroke="none"><title>(5.2, 16)</title></circle><circle cx="535.8001683501684" cy="442.2357284294099" r="4.0" fill="#F8766D" fill-opacity="0.9" stroke="none"><title>(5.7, 18)</title></circle><circle cx="558.5644781144782" cy="489.70016562581037" r="4.0" fill="#F8766D" fill-opacity="0.9" stroke="none"><title>(5.9, 15)</title></circle><circle cx="421.97861952861956" cy="473.87868656034357" r="4.0" fill="#F8766D" fill-opacity="0.9" stroke="none"><title>(4.7, 16)</title></circle><circle cx="421.97861952861956" cy="537.1646028222108" r="4.0" fill="#F8766D" fill-opacity="0.9" stroke="none"><title>(4.7, 12)</title></circle><circle cx="421.97861952861956" cy="458.0572074948767" r="4.0" fill="#F8766D" fill-opacity="0.9" stroke="none"><title>(4.7, 17)</title></circle><circle cx="421.97861952861956" cy="458.0572074948767" r="4.0" fill="#F8766D" fill-opacity="0.9" stroke="none"><title>(4.7, 17)</title></circle><circle cx="421.97861952861956" cy="473.87868656034357" r="4.0" fill="#F8766D" fill-opacity="0.9" stroke="none"><title>(4.7, 16)</title></circle><circle cx="421.97861952861956" cy="537.1646028222108" r="4.0" fill="#F8766D" fill-opacity="0.9" stroke="none"><title>(4.7, 12)</title></circle><circle cx="478.889393939394" cy="489.70016562581037" r="4.0" fill="#F8766D" fill-opacity="0.9" stroke="none"><title>(5.2, 15)</title></circle><circle cx="478.889393939394" cy="473.87868656034357" r="4.0" fill="#F8766D" fill-opacity="0.9" stroke="none"><title>(5.2, 16)</title></circle><circle cx="535.8001683501684" cy="458.0572074948767" r="4.0" fill="#F8766D" fill-opacity="0.9" stroke="none"><title>(5.7, 17)</title></circle><circle cx="558.5644781144782" cy="489.70016562581037" r="4.0" fill="#F8766D" fill-opacity="0.9" stroke="none"><title>(5.9, 15)</title></circle><circle cx="410.59646464646465" cy="458.0572074948767" r="4.0" fill="#619CFF" fill-opacity="0.9" stroke="none"><title>(4.6, 17)</title></circle><circle cx="501.6537037037038" cy="458.0572074948767" r="4.0" fill="#619CFF" fill-opacity="0.9" stroke="none"><title>(5.4, 17)</title></circle><circle cx="501.6537037037038" cy="442.2357284294099" r="4.0" fill="#619CFF" fill-opacity="0.9" stroke="none"><title>(5.4, 18)</title></circle><circle cx="342.3035353535353" cy="458.0572074948767" r="4.0" fill="#F8766D" fill-opacity="0.9" stroke="none"><title>(4, 17)</title></circle><circle cx="342.3035353535353" cy="426.4142493639431" r="4.0" fill="#F8766D" fill-opacity="0.9" stroke="none"><title>(4, 19)</title></circle><circle cx="342.3035353535353" cy="458.0572074948767" r="4.0" fill="#F8766D" fill-opacity="0.9" stroke="none"><title>(4, 17)</title></circle><circle cx="342.3035353535353" cy="426.4142493639431" r="4.0" fill="#F8766D" fill-opacity="0.9" stroke="none"><title>(4, 19)</title></circle><circle cx="410.59646464646465" cy="426.4142493639431" r="4.0" fill="#F8766D" fill-opacity="0.9" stroke="none"><title>(4.6, 19)</title></circle><circle cx="456.12508417508417" cy="458.0572074948767" r="4.0" fill="#F8766D" fill-opacity="0.9" stroke="none"><title>(5, 17)</title></circle><circle cx="365.06784511784514" cy="458.0572074948767" r="4.0" fill="#F8766D" fill-opacity="0.9" stroke="none"><title>(4.2, 17)</title></circle><circle cx="365.06784511784514" cy="458.0572074948767" r="4.0" fill="#F8766D" fill-opacity="0.9" stroke="none"><title>(4.2, 17)</title></circle><circle cx="410.59646464646465" cy="473.87868656034357" r="4.0" fill="#F8766D" fill-opacity="0.9" stroke="none"><title>(4.6, 16)</title></circle><circle cx="410.59646464646465" cy="473.87868656034357" r="4.0" fill="#F8766D" fill-opacity="0.9" stroke="none"><title>(4.6, 16)</title></circle><circle cx="410.59646464646465" cy="458.0572074948767" r="4.0" fill="#F8766D" fill-opacity="0.9" stroke="none"><title>(4.6, 17)</title></circle><circle cx="501.6537037037038" cy="489.70016562581037" r="4.0" fill="#F8766D" fill-opacity="0.9" stroke="none"><title>(5.4, 15)</title></circle><circle cx="501.6537037037038" cy="458.0572074948767" r="4.0" fill="#F8766D" fill-opacity="0.9" stroke="none"><title>(5.4, 17)</title></circle><circle cx="319.53922558922557" cy="315.6638959056754" r="4.0" fill="#619CFF" fill-opacity="0.9" stroke="none"><title>(3.8, 26)</title></circle><circle cx="319.53922558922557" cy="331.4853749711422" r="4.0" fill="#619CFF" fill-opacity="0.9" stroke="none"><title>(3.8, 25)</title></circle><circle cx="342.3035353535353" cy="315.6638959056754" r="4.0" fill="#619CFF" fill-opacity="0.9" stroke="none"><title>(4, 26)</title></circle><circle cx="342.3035353535353" cy="347.306854036609" r="4.0" fill="#619CFF" fill-opacity="0.9" stroke="none"><title>(4, 24)</title></circle><circle cx="410.59646464646465" cy="394.7712912330095" r="4.0" fill="#619CFF" fill-opacity="0.9" stroke="none"><title>(4.6, 21)</title></circle><circle cx="410.59646464646465" cy="378.94981216754263" r="4.0" fill="#619CFF" fill-opacity="0.9" stroke="none"><title>(4.6, 22)</title></circle><circle cx="410.59646464646465" cy="363.1283331020758" r="4.0" fill="#619CFF" fill-opacity="0.9" stroke="none"><title>(4.6, 23)</title></circle><circle cx="410.59646464646465" cy="378.94981216754263" r="4.0" fill="#619CFF" fill-opacity="0.9" stroke="none"><title>(4.6, 22)</title></circle><circle cx="501.6537037037038" cy="410.59277029847624" r="4.0" fill="#619CFF" fill-opacity="0.9" stroke="none"><title>(5.4, 20)</title></circle><circle cx="69.13181818181819" cy="204.91354244740774" r="4.0" fill="#00BA38" fill-opacity="0.9" stroke="none"><title>(1.6, 33)</title></circle><circle cx="69.13181818181819" cy="220.73502151287454" r="4.0" fill="#00BA38" fill-opacity="0.9" stroke="none"><title>(1.6, 32)</title></circle><circle cx="69.13181818181819" cy="220.73502151287454" r="4.0" fill="#00BA38" fill-opacity="0.9" stroke="none"><title>(1.6, 32)</title></circle><circle cx="69.13181818181819" cy="268.199458709275" r="4.0" fill="#00BA38" fill-opacity="0.9" stroke="none"><title>(1.6, 29)</title></circle><circle cx="69.13181818181819" cy="220.73502151287454" r="4.0" fill="#00BA38" fill-opacity="0.9" stroke="none"><title>(1.6, 32)</title></circle><circle cx="91.89612794612795" cy="189.09206338194093" r="4.0" fill="#00BA38" fill-opacity="0.9" stroke="none"><title>(1.8, 34)</title></circle><circle cx="91.89612794612795" cy="157.44910525100727" r="4.0" fill="#00BA38" fill-opacity="0.9" stroke="none"><title>(1.8, 36)</title></circle><circle cx="91.89612794612795" cy="157.44910525100727" r="4.0" fill="#00BA38" fill-opacity="0.9" stroke="none"><title>(1.8, 36)</title></circle><circle cx="114.66043771043772" cy="268.199458709275" r="4.0" fill="#00BA38" fill-opacity="0.9" stroke="none"><title>(2, 29)</title></circle><circle cx="160.18905723905723" cy="315.6638959056754" r="4.0" fill="#00BA38" fill-opacity="0.9" stroke="none"><title>(2.4, 26)</title></circle><circle cx="160.18905723905723" cy="299.8424168402086" r="4.0" fill="#00BA38" fill-opacity="0.9" stroke="none"><title>(2.4, 27)</title></circle><circle cx="160.18905723905723" cy="252.37797964380815" r="4.0" fill="#00BA38" fill-opacity="0.9" stroke="none"><title>(2.4, 30)</title></circle><circle cx="160.18905723905723" cy="236.55650057834134" r="4.0" fill="#00BA38" fill-opacity="0.9" stroke="none"><title>(2.4, 31)</title></circle><circle cx="171.5712121212121" cy="315.6638959056754" r="4.0" fill="#00BA38" fill-opacity="0.9" stroke="none"><title>(2.5, 26)</title></circle><circle cx="171.5712121212121" cy="315.6638959056754" r="4.0" fill="#00BA38" fill-opacity="0.9" stroke="none"><title>(2.5, 26)</title></circle><circle cx="262.62845117845114" cy="284.0209377747418" r="4.0" fill="#00BA38" fill-opacity="0.9" stroke="none"><title>(3.3, 28)</title></circle><circle cx="114.66043771043772" cy="315.6638959056754" r="4.0" fill="#00BA38" fill-opacity="0.9" stroke="none"><title>(2, 26)</title></circle><circle cx="114.66043771043772" cy="268.199458709275" r="4.0" fill="#00BA38" fill-opacity="0.9" stroke="none"><title>(2, 29)</title></circle><circle cx="114.66043771043772" cy="284.0209377747418" r="4.0" fill="#00BA38" fill-opacity="0.9" stroke="none"><title>(2, 28)</title></circle><circle cx="114.66043771043772" cy="299.8424168402086" r="4.0" fill="#00BA38" fill-opacity="0.9" stroke="none"><title>(2, 27)</title></circle><circle cx="194.33552188552193" cy="347.306854036609" r="4.0" fill="#00BA38" fill-opacity="0.9" stroke="none"><title>(2.7, 24)</title></circle><circle cx="194.33552188552193" cy="347.306854036609" r="4.0" fill="#00BA38" fill-opacity="0.9" stroke="none"><title>(2.7, 24)</title></circle><circle cx="194.33552188552193" cy="347.306854036609" r="4.0" fill="#00BA38" fill-opacity="0.9" stroke="none"><title>(2.7, 24)</title></circle><circle cx="228.48198653198654" cy="378.94981216754263" r="4.0" fill="#F8766D" fill-opacity="0.9" stroke="none"><title>(3, 22)</title></circle><circle cx="308.1570707070707" cy="426.4142493639431" r="4.0" fill="#F8766D" fill-opacity="0.9" stroke="none"><title>(3.7, 19)</title></circle><circle cx="342.3035353535353" cy="410.59277029847624" r="4.0" fill="#F8766D" fill-opacity="0.9" stroke="none"><title>(4, 20)</title></circle><circle cx="421.97861952861956" cy="458.0572074948767" r="4.0" fill="#F8766D" fill-opacity="0.9" stroke="none"><title>(4.7, 17)</title></circle><circle cx="421.97861952861956" cy="537.1646028222108" r="4.0" fill="#F8766D" fill-opacity="0.9" stroke="none"><title>(4.7, 12)</title></circle><circle cx="421.97861952861956" cy="426.4142493639431" r="4.0" fill="#F8766D" fill-opacity="0.9" stroke="none"><title>(4.7, 19)</title></circle><circle cx="535.8001683501684" cy="442.2357284294099" r="4.0" fill="#F8766D" fill-opacity="0.9" stroke="none"><title>(5.7, 18)</title></circle><circle cx="581.3287878787878" cy="505.5216446912772" r="4.0" fill="#F8766D" fill-opacity="0.9" stroke="none"><title>(6.1, 14)</title></circle><circle cx="342.3035353535353" cy="489.70016562581037" r="4.0" fill="#F8766D" fill-opacity="0.9" stroke="none"><title>(4, 15)</title></circle><circle cx="365.06784511784514" cy="442.2357284294099" r="4.0" fill="#F8766D" fill-opacity="0.9" stroke="none"><title>(4.2, 18)</title></circle><circle cx="387.83215488215495" cy="442.2357284294099" r="4.0" fill="#F8766D" fill-opacity="0.9" stroke="none"><title>(4.4, 18)</title></circle><circle cx="410.59646464646465" cy="489.70016562581037" r="4.0" fill="#F8766D" fill-opacity="0.9" stroke="none"><title>(4.6, 15)</title></circle><circle cx="501.6537037037038" cy="458.0572074948767" r="4.0" fill="#619CFF" fill-opacity="0.9" stroke="none"><title>(5.4, 17)</title></circle><circle cx="501.6537037037038" cy="473.87868656034357" r="4.0" fill="#619CFF" fill-opacity="0.9" stroke="none"><title>(5.4, 16)</title></circle><circle cx="501.6537037037038" cy="442.2357284294099" r="4.0" fill="#619CFF" fill-opacity="0.9" stroke="none"><title>(5.4, 18)</title></circle><circle cx="342.3035353535353" cy="458.0572074948767" r="4.0" fill="#F8766D" fill-opacity="0.9" stroke="none"><title>(4, 17)</title></circle><circle cx="342.3035353535353" cy="426.4142493639431" r="4.0" fill="#F8766D" fill-opacity="0.9" stroke="none"><title>(4, 19)</title></circle><circle cx="410.59646464646465" cy="426.4142493639431" r="4.0" fill="#F8766D" fill-opacity="0.9" stroke="none"><title>(4.6, 19)</title></circle><circle cx="456.12508417508417" cy="458.0572074948767" r="4.0" fill="#F8766D" fill-opacity="0.9" stroke="none"><title>(5, 17)</title></circle><circle cx="160.18905723905723" cy="268.199458709275" r="4.0" fill="#00BA38" fill-opacity="0.9" stroke="none"><title>(2.4, 29)</title></circle><circle cx="160.18905723905723" cy="299.8424168402086" r="4.0" fill="#00BA38" fill-opacity="0.9" stroke="none"><title>(2.4, 27)</title></circle><circle cx="171.5712121212121" cy="236.55650057834134" r="4.0" fill="#00BA38" fill-opacity="0.9" stroke="none"><title>(2.5, 31)</title></circle><circle cx="171.5712121212121" cy="220.73502151287454" r="4.0" fill="#00BA38" fill-opacity="0.9" stroke="none"><title>(2.5, 32)</title></circle><circle cx="285.39276094276096" cy="299.8424168402086" r="4.0" fill="#00BA38" fill-opacity="0.9" stroke="none"><title>(3.5, 27)</title></circle><circle cx="285.39276094276096" cy="315.6638959056754" r="4.0" fill="#00BA38" fill-opacity="0.9" stroke="none"><title>(3.5, 26)</title></circle><circle cx="228.48198653198654" cy="315.6638959056754" r="4.0" fill="#00BA38" fill-opacity="0.9" stroke="none"><title>(3, 26)</title></circle><circle cx="228.48198653198654" cy="331.4853749711422" r="4.0" fill="#00BA38" fill-opacity="0.9" stroke="none"><title>(3, 25)</title></circle><circle cx="285.39276094276096" cy="331.4853749711422" r="4.0" fill="#00BA38" fill-opacity="0.9" stroke="none"><title>(3.5, 25)</title></circle><circle cx="262.62845117845114" cy="458.0572074948767" r="4.0" fill="#F8766D" fill-opacity="0.9" stroke="none"><title>(3.3, 17)</title></circle><circle cx="262.62845117845114" cy="458.0572074948767" r="4.0" fill="#F8766D" fill-opacity="0.9" stroke="none"><title>(3.3, 17)</title></circle><circle cx="342.3035353535353" cy="410.59277029847624" r="4.0" fill="#F8766D" fill-opacity="0.9" stroke="none"><title>(4, 20)</title></circle><circle cx="524.4180134680134" cy="442.2357284294099" r="4.0" fill="#F8766D" fill-opacity="0.9" stroke="none"><title>(5.6, 18)</title></circle><circle cx="239.86414141414144" cy="315.6638959056754" r="4.0" fill="#00BA38" fill-opacity="0.9" stroke="none"><title>(3.1, 26)</title></circle><circle cx="319.53922558922557" cy="315.6638959056754" r="4.0" fill="#00BA38" fill-opacity="0.9" stroke="none"><title>(3.8, 26)</title></circle><circle cx="319.53922558922557" cy="299.8424168402086" r="4.0" fill="#00BA38" fill-opacity="0.9" stroke="none"><title>(3.8, 27)</title></circle><circle cx="319.53922558922557" cy="284.0209377747418" r="4.0" fill="#00BA38" fill-opacity="0.9" stroke="none"><title>(3.8, 28)</title></circle><circle cx="490.27154882154883" cy="331.4853749711422" r="4.0" fill="#00BA38" fill-opacity="0.9" stroke="none"><title>(5.3, 25)</title></circle><circle cx="171.5712121212121" cy="331.4853749711422" r="4.0" fill="#F8766D" fill-opacity="0.9" stroke="none"><title>(2.5, 25)</title></circle><circle cx="171.5712121212121" cy="347.306854036609" r="4.0" fill="#F8766D" fill-opacity="0.9" stroke="none"><title>(2.5, 24)</title></circle><circle cx="171.5712121212121" cy="299.8424168402086" r="4.0" fill="#F8766D" fill-opacity="0.9" stroke="none"><title>(2.5, 27)</title></circle><circle cx="171.5712121212121" cy="331.4853749711422" r="4.0" fill="#F8766D" fill-opacity="0.9" stroke="none"><title>(2.5, 25)</title></circle><circle cx="171.5712121212121" cy="315.6638959056754" r="4.0" fill="#F8766D" fill-opacity="0.9" stroke="none"><title>(2.5, 26)</title></circle><circle cx="171.5712121212121" cy="363.1283331020758" r="4.0" fill="#F8766D" fill-opacity="0.9" stroke="none"><title>(2.5, 23)</title></circle><circle cx="137.4247474747475" cy="315.6638959056754" r="4.0" fill="#F8766D" fill-opacity="0.9" stroke="none"><title>(2.2, 26)</title></circle><circle cx="137.4247474747475" cy="315.6638959056754" r="4.0" fill="#F8766D" fill-opacity="0.9" stroke="none"><title>(2.2, 26)</title></circle><circle cx="171.5712121212121" cy="315.6638959056754" r="4.0" fill="#F8766D" fill-opacity="0.9" stroke="none"><title>(2.5, 26)</title></circle><circle cx="171.5712121212121" cy="315.6638959056754" r="4.0" fill="#F8766D" fill-opacity="0.9" stroke="none"><title>(2.5, 26)</title></circle><circle cx="171.5712121212121" cy="331.4853749711422" r="4.0" fill="#F8766D" fill-opacity="0.9" stroke="none"><title>(2.5, 25)</title></circle><circle cx="171.5712121212121" cy="299.8424168402086" r="4.0" fill="#F8766D" fill-opacity="0.9" stroke="none"><title>(2.5, 27)</title></circle><circle cx="171.5712121212121" cy="331.4853749711422" r="4.0" fill="#F8766D" fill-opacity="0.9" stroke="none"><title>(2.5, 25)</title></circle><circle cx="171.5712121212121" cy="299.8424168402086" r="4.0" fill="#F8766D" fill-opacity="0.9" stroke="none"><title>(2.5, 27)</title></circle><circle cx="194.33552188552193" cy="410.59277029847624" r="4.0" fill="#F8766D" fill-opacity="0.9" stroke="none"><title>(2.7, 20)</title></circle><circle cx="194.33552188552193" cy="410.59277029847624" r="4.0" fill="#F8766D" fill-opacity="0.9" stroke="none"><title>(2.7, 20)</title></circle><circle cx="274.01060606060605" cy="426.4142493639431" r="4.0" fill="#F8766D" fill-opacity="0.9" stroke="none"><title>(3.4, 19)</title></circle><circle cx="274.01060606060605" cy="458.0572074948767" r="4.0" fill="#F8766D" fill-opacity="0.9" stroke="none"><title>(3.4, 17)</title></circle><circle cx="342.3035353535353" cy="410.59277029847624" r="4.0" fill="#F8766D" fill-opacity="0.9" stroke="none"><title>(4, 20)</title></circle><circle cx="421.97861952861956" cy="458.0572074948767" r="4.0" fill="#F8766D" fill-opacity="0.9" stroke="none"><title>(4.7, 17)</title></circle><circle cx="137.4247474747475" cy="268.199458709275" r="4.0" fill="#00BA38" fill-opacity="0.9" stroke="none"><title>(2.2, 29)</title></circle><circle cx="137.4247474747475" cy="299.8424168402086" r="4.0" fill="#00BA38" fill-opacity="0.9" stroke="none"><title>(2.2, 27)</title></circle><circle cx="160.18905723905723" cy="236.55650057834134" r="4.0" fill="#00BA38" fill-opacity="0.9" stroke="none"><title>(2.4, 31)</title></circle><circle cx="160.18905723905723" cy="236.55650057834134" r="4.0" fill="#00BA38" fill-opacity="0.9" stroke="none"><title>(2.4, 31)</title></circle><circle cx="228.48198653198654" cy="315.6638959056754" r="4.0" fill="#00BA38" fill-opacity="0.9" stroke="none"><title>(3, 26)</title></circle><circle cx="228.48198653198654" cy="315.6638959056754" r="4.0" fill="#00BA38" fill-opacity="0.9" stroke="none"><title>(3, 26)</title></circle><circle cx="285.39276094276096" cy="284.0209377747418" r="4.0" fill="#00BA38" fill-opacity="0.9" stroke="none"><title>(3.5, 28)</title></circle><circle cx="137.4247474747475" cy="299.8424168402086" r="4.0" fill="#00BA38" fill-opacity="0.9" stroke="none"><title>(2.2, 27)</title></circle><circle cx="137.4247474747475" cy="268.199458709275" r="4.0" fill="#00BA38" fill-opacity="0.9" stroke="none"><title>(2.2, 29)</title></circle><circle cx="160.18905723905723" cy="236.55650057834134" r="4.0" fill="#00BA38" fill-opacity="0.9" stroke="none"><title>(2.4, 31)</title></circle><circle cx="160.18905723905723" cy="236.55650057834134" r="4.0" fill="#00BA38" fill-opacity="0.9" stroke="none"><title>(2.4, 31)</title></circle><circle cx="228.48198653198654" cy="315.6638959056754" r="4.0" fill="#00BA38" fill-opacity="0.9" stroke="none"><title>(3, 26)</title></circle><circle cx="228.48198653198654" cy="315.6638959056754" r="4.0" fill="#00BA38" fill-opacity="0.9" stroke="none"><title>(3, 26)</title></circle><circle cx="262.62845117845114" cy="299.8424168402086" r="4.0" fill="#00BA38" fill-opacity="0.9" stroke="none"><title>(3.3, 27)</title></circle><circle cx="91.89612794612795" cy="252.37797964380815" r="4.0" fill="#00BA38" fill-opacity="0.9" stroke="none"><title>(1.8, 30)</title></circle><circle cx="91.89612794612795" cy="204.91354244740774" r="4.0" fill="#00BA38" fill-opacity="0.9" stroke="none"><title>(1.8, 33)</title></circle><circle cx="91.89612794612795" cy="173.27058431647407" r="4.0" fill="#00BA38" fill-opacity="0.9" stroke="none"><title>(1.8, 35)</title></circle><circle cx="91.89612794612795" cy="141.62762618554046" r="4.0" fill="#00BA38" fill-opacity="0.9" stroke="none"><title>(1.8, 37)</title></circle><circle cx="91.89612794612795" cy="173.27058431647407" r="4.0" fill="#00BA38" fill-opacity="0.9" stroke="none"><title>(1.8, 35)</title></circle><circle cx="421.97861952861956" cy="489.70016562581037" r="4.0" fill="#F8766D" fill-opacity="0.9" stroke="none"><title>(4.7, 15)</title></circle><circle cx="535.8001683501684" cy="442.2357284294099" r="4.0" fill="#F8766D" fill-opacity="0.9" stroke="none"><title>(5.7, 18)</title></circle><circle cx="194.33552188552193" cy="410.59277029847624" r="4.0" fill="#F8766D" fill-opacity="0.9" stroke="none"><title>(2.7, 20)</title></circle><circle cx="194.33552188552193" cy="410.59277029847624" r="4.0" fill="#F8766D" fill-opacity="0.9" stroke="none"><title>(2.7, 20)</title></circle><circle cx="194.33552188552193" cy="378.94981216754263" r="4.0" fill="#F8766D" fill-opacity="0.9" stroke="none"><title>(2.7, 22)</title></circle><circle cx="274.01060606060605" cy="458.0572074948767" r="4.0" fill="#F8766D" fill-opacity="0.9" stroke="none"><title>(3.4, 17)</title></circle><circle cx="274.01060606060605" cy="426.4142493639431" r="4.0" fill="#F8766D" fill-opacity="0.9" stroke="none"><title>(3.4, 19)</title></circle><circle cx="342.3035353535353" cy="442.2357284294099" r="4.0" fill="#F8766D" fill-opacity="0.9" stroke="none"><title>(4, 18)</title></circle><circle cx="342.3035353535353" cy="410.59277029847624" r="4.0" fill="#F8766D" fill-opacity="0.9" stroke="none"><title>(4, 20)</title></circle><circle cx="114.66043771043772" cy="268.199458709275" r="4.0" fill="#00BA38" fill-opacity="0.9" stroke="none"><title>(2, 29)</title></circle><circle cx="114.66043771043772" cy="315.6638959056754" r="4.0" fill="#00BA38" fill-opacity="0.9" stroke="none"><title>(2, 26)</title></circle><circle cx="114.66043771043772" cy="268.199458709275" r="4.0" fill="#00BA38" fill-opacity="0.9" stroke="none"><title>(2, 29)</title></circle><circle cx="114.66043771043772" cy="268.199458709275" r="4.0" fill="#00BA38" fill-opacity="0.9" stroke="none"><title>(2, 29)</title></circle><circle cx="205.71767676767678" cy="347.306854036609" r="4.0" fill="#00BA38" fill-opacity="0.9" stroke="none"><title>(2.8, 24)</title></circle><circle cx="103.27828282828281" cy="30.877272727272725" r="4.0" fill="#00BA38" fill-opacity="0.9" stroke="none"><title>(1.9, 44)</title></circle><circle cx="114.66043771043772" cy="268.199458709275" r="4.0" fill="#00BA38" fill-opacity="0.9" stroke="none"><title>(2, 29)</title></circle><circle cx="114.66043771043772" cy="315.6638959056754" r="4.0" fill="#00BA38" fill-opacity="0.9" stroke="none"><title>(2, 26)</title></circle><circle cx="114.66043771043772" cy="268.199458709275" r="4.0" fill="#00BA38" fill-opacity="0.9" stroke="none"><title>(2, 29)</title></circle><circle cx="114.66043771043772" cy="268.199458709275" r="4.0" fill="#00BA38" fill-opacity="0.9" stroke="none"><title>(2, 29)</title></circle><circle cx="171.5712121212121" cy="268.199458709275" r="4.0" fill="#00BA38" fill-opacity="0.9" stroke="none"><title>(2.5, 29)</title></circle><circle cx="171.5712121212121" cy="268.199458709275" r="4.0" fill="#00BA38" fill-opacity="0.9" stroke="none"><title>(2.5, 29)</title></circle><circle cx="205.71767676767678" cy="363.1283331020758" r="4.0" fill="#00BA38" fill-opacity="0.9" stroke="none"><title>(2.8, 23)</title></circle><circle cx="205.71767676767678" cy="347.306854036609" r="4.0" fill="#00BA38" fill-opacity="0.9" stroke="none"><title>(2.8, 24)</title></circle><circle cx="103.27828282828281" cy="30.877272727272725" r="4.0" fill="#00BA38" fill-opacity="0.9" stroke="none"><title>(1.9, 44)</title></circle><circle cx="103.27828282828281" cy="78.34170992367319" r="4.0" fill="#00BA38" fill-opacity="0.9" stroke="none"><title>(1.9, 41)</title></circle><circle cx="114.66043771043772" cy="268.199458709275" r="4.0" fill="#00BA38" fill-opacity="0.9" stroke="none"><title>(2, 29)</title></circle><circle cx="114.66043771043772" cy="315.6638959056754" r="4.0" fill="#00BA38" fill-opacity="0.9" stroke="none"><title>(2, 26)</title></circle><circle cx="171.5712121212121" cy="284.0209377747418" r="4.0" fill="#00BA38" fill-opacity="0.9" stroke="none"><title>(2.5, 28)</title></circle><circle cx="171.5712121212121" cy="268.199458709275" r="4.0" fill="#00BA38" fill-opacity="0.9" stroke="none"><title>(2.5, 29)</title></circle><circle cx="91.89612794612795" cy="268.199458709275" r="4.0" fill="#00BA38" fill-opacity="0.9" stroke="none"><title>(1.8, 29)</title></circle><circle cx="91.89612794612795" cy="268.199458709275" r="4.0" fill="#00BA38" fill-opacity="0.9" stroke="none"><title>(1.8, 29)</title></circle><circle cx="114.66043771043772" cy="284.0209377747418" r="4.0" fill="#00BA38" fill-opacity="0.9" stroke="none"><title>(2, 28)</title></circle><circle cx="114.66043771043772" cy="268.199458709275" r="4.0" fill="#00BA38" fill-opacity="0.9" stroke="none"><title>(2, 29)</title></circle><circle cx="205.71767676767678" cy="315.6638959056754" r="4.0" fill="#00BA38" fill-opacity="0.9" stroke="none"><title>(2.8, 26)</title></circle><circle cx="205.71767676767678" cy="315.6638959056754" r="4.0" fill="#00BA38" fill-opacity="0.9" stroke="none"><title>(2.8, 26)</title></circle><circle cx="296.7749158249158" cy="315.6638959056754" r="4.0" fill="#00BA38" fill-opacity="0.9" stroke="none"><title>(3.6, 26)</title></circle><path d="M 91.89612794612795 366.495962455127 L 91.89612794612795 366.495962455127 L 114.66043771043772 323.70297549333225 L 114.66043771043772 323.70297549333225 L 137.4247474747475 324.5026493258814 L 137.4247474747475 324.5026493258814 L 171.5712121212121 346.70267340874807 L 171.5712121212121 346.70267340874807 L 171.5712121212121 346.70267340874807 L 171.5712121212121 346.70267340874807 L 171.5712121212121 346.70267340874807 L 171.5712121212121 346.70267340874807 L 171.5712121212121 346.70267340874807 L 171.5712121212121 346.70267340874807 L 171.5712121212121 346.70267340874807 L 171.5712121212121 346.70267340874807 L 171.5712121212121 346.70267340874807 L 171.5712121212121 346.70267340874807 L 194.33552188552193 373.5865976336156 L 194.33552188552193 373.5865976336156 L 194.33552188552193 373.5865976336156 L 194.33552188552193 373.5865976336156 L 194.33552188552193 373.5865976336156 L 205.71767676767678 387.15871270405864 L 205.71767676767678 387.15871270405864 L 205.71767676767678 387.15871270405864 L 228.48198653198654 407.87723259374866 L 239.86414141414144 415.29252687220935 L 239.86414141414144 415.29252687220935 L 239.86414141414144 415.29252687220935 L 262.62845117845114 426.4311900736669 L 262.62845117845114 426.4311900736669 L 274.01060606060605 431.1237257165559 L 274.01060606060605 431.1237257165559 L 274.01060606060605 431.1237257165559 L 274.01060606060605 431.1237257165559 L 308.1570707070707 444.58500241191285 L 308.1570707070707 444.58500241191285 L 308.1570707070707 444.58500241191285 L 330.9213804713805 452.2438499033921 L 330.9213804713805 452.2438499033921 L 330.9213804713805 452.2438499033921 L 342.3035353535353 455.6451990557524 L 342.3035353535353 455.6451990557524 L 342.3035353535353 455.6451990557524 L 342.3035353535353 455.6451990557524 L 342.3035353535353 455.6451990557524 L 342.3035353535353 455.6451990557524 L 342.3035353535353 455.6451990557524 L 342.3035353535353 455.6451990557524 L 342.3035353535353 455.6451990557524 L 342.3035353535353 455.6451990557524 L 342.3035353535353 455.6451990557524 L 342.3035353535353 455.6451990557524 L 365.06784511784514 464.11057551867657 L 365.06784511784514 464.11057551867657 L 365.06784511784514 464.11057551867657 L 365.06784511784514 464.11057551867657 L 387.83215488215495 474.6297455895798 L 410.59646464646465 481.00634810363874 L 410.59646464646465 481.00634810363874 L 410.59646464646465 481.00634810363874 L 410.59646464646465 481.00634810363874 L 410.59646464646465 481.00634810363874 L 410.59646464646465 481.00634810363874 L 421.97861952861956 482.09352000720196 L 421.97861952861956 482.09352000720196 L 421.97861952861956 482.09352000720196 L 421.97861952861956 482.09352000720196 L 421.97861952861956 482.09352000720196 L 421.97861952861956 482.09352000720196 L 421.97861952861956 482.09352000720196 L 421.97861952861956 482.09352000720196 L 421.97861952861956 482.09352000720196 L 421.97861952861956 482.09352000720196 L 421.97861952861956 482.09352000720196 L 421.97861952861956 482.09352000720196 L 421.97861952861956 482.09352000720196 L 421.97861952861956 482.09352000720196 L 421.97861952861956 482.09352000720196 L 421.97861952861956 482.09352000720196 L 421.97861952861956 482.09352000720196 L 456.12508417508417 491.9257153073394 L 456.12508417508417 491.9257153073394 L 478.889393939394 493.10742029229095 L 478.889393939394 493.10742029229095 L 478.889393939394 493.10742029229095 L 478.889393939394 493.10742029229095 L 478.889393939394 493.10742029229095 L 490.27154882154883 491.2592195992115 L 490.27154882154883 491.2592195992115 L 501.6537037037038 489.02248093350556 L 501.6537037037038 489.02248093350556 L 524.4180134680134 487.4294944309009 L 535.8001683501684 488.6960318740334 L 535.8001683501684 488.6960318740334 L 535.8001683501684 488.6960318740334 L 535.8001683501684 488.6960318740334 L 535.8001683501684 488.6960318740334 L 558.5644781144782 492.82081814852626 L 558.5644781144782 492.82081814852626 L 581.3287878787878 497.22159921224727 L 626.8574074074074 538.4227272727272 L 626.8574074074074 410.5877269327899 L 581.3287878787878 436.5699478023681 L 558.5644781144782 441.0648766823588 L 558.5644781144782 441.0648766823588 L 535.8001683501684 448.2196691180065 L 535.8001683501684 448.2196691180065 L 535.8001683501684 448.2196691180065 L 535.8001683501684 448.2196691180065 L 535.8001683501684 448.2196691180065 L 524.4180134680134 451.58656060004955 L 501.6537037037038 454.33379224993405 L 501.6537037037038 454.33379224993405 L 490.27154882154883 453.92444096100814 L 490.27154882154883 453.92444096100814 L 478.889393939394 453.40016202053243 L 478.889393939394 453.40016202053243 L 478.889393939394 453.40016202053243 L 478.889393939394 453.40016202053243 L 478.889393939394 453.40016202053243 L 456.12508417508417 454.89436016456534 L 456.12508417508417 454.89436016456534 L 421.97861952861956 456.900376825525 L 421.97861952861956 456.900376825525 L 421.97861952861956 456.900376825525 L 421.97861952861956 456.900376825525 L 421.97861952861956 456.900376825525 L 421.97861952861956 456.900376825525 L 421.97861952861956 456.900376825525 L 421.97861952861956 456.900376825525 L 421.97861952861956 456.900376825525 L 421.97861952861956 456.900376825525 L 421.97861952861956 456.900376825525 L 421.97861952861956 456.900376825525 L 421.97861952861956 456.900376825525 L 421.97861952861956 456.900376825525 L 421.97861952861956 456.900376825525 L 421.97861952861956 456.900376825525 L 421.97861952861956 456.900376825525 L 410.59646464646465 452.83264216690594 L 410.59646464646465 452.83264216690594 L 410.59646464646465 452.83264216690594 L 410.59646464646465 452.83264216690594 L 410.59646464646465 452.83264216690594 L 410.59646464646465 452.83264216690594 L 387.83215488215495 445.1482128245268 L 365.06784511784514 438.30204458926175 L 365.06784511784514 438.30204458926175 L 365.06784511784514 438.30204458926175 L 365.06784511784514 438.30204458926175 L 342.3035353535353 428.3170003881943 L 342.3035353535353 428.3170003881943 L 342.3035353535353 428.3170003881943 L 342.3035353535353 428.3170003881943 L 342.3035353535353 428.3170003881943 L 342.3035353535353 428.3170003881943 L 342.3035353535353 428.3170003881943 L 342.3035353535353 428.3170003881943 L 342.3035353535353 428.3170003881943 L 342.3035353535353 428.3170003881943 L 342.3035353535353 428.3170003881943 L 342.3035353535353 428.3170003881943 L 330.9213804713805 422.77974085309575 L 330.9213804713805 422.77974085309575 L 330.9213804713805 422.77974085309575 L 308.1570707070707 413.7193234408636 L 308.1570707070707 413.7193234408636 L 308.1570707070707 413.7193234408636 L 274.01060606060605 400.63355420583287 L 274.01060606060605 400.63355420583287 L 274.01060606060605 400.63355420583287 L 274.01060606060605 400.63355420583287 L 262.62845117845114 394.788382671999 L 262.62845117845114 394.788382671999 L 239.86414141414144 380.37281535015796 L 239.86414141414144 380.37281535015796 L 239.86414141414144 380.37281535015796 L 228.48198653198654 372.1229934920558 L 205.71767676767678 354.1137973838239 L 205.71767676767678 354.1137973838239 L 205.71767676767678 354.1137973838239 L 194.33552188552193 343.9747198029206 L 194.33552188552193 343.9747198029206 L 194.33552188552193 343.9747198029206 L 194.33552188552193 343.9747198029206 L 194.33552188552193 343.9747198029206 L 171.5712121212121 316.7483826576199 L 171.5712121212121 316.7483826576199 L 171.5712121212121 316.7483826576199 L 171.5712121212121 316.7483826576199 L 171.5712121212121 316.7483826576199 L 171.5712121212121 316.7483826576199 L 171.5712121212121 316.7483826576199 L 171.5712121212121 316.7483826576199 L 171.5712121212121 316.7483826576199 L 171.5712121212121 316.7483826576199 L 171.5712121212121 316.7483826576199 L 171.5712121212121 316.7483826576199 L 137.4247474747475 274.749302721939 L 137.4247474747475 274.749302721939 L 114.66043771043772 272.0243827323051 L 114.66043771043772 272.0243827323051 L 91.89612794612795 279.4978091663757 L 91.89612794612795 279.4978091663757 Z" fill="#F8766D" fill-opacity="0.2" stroke="none"/><line x1="91.89612794612795" y1="322.9968858107514" x2="91.89612794612795" y2="322.9968858107514" stroke="#F8766D" stroke-width="2.0"/><line x1="91.89612794612795" y1="322.9968858107514" x2="114.66043771043772" y2="297.86367911281866" stroke="#F8766D" stroke-width="2.0"/><line x1="114.66043771043772" y1="297.86367911281866" x2="114.66043771043772" y2="297.86367911281866" stroke="#F8766D" stroke-width="2.0"/><line x1="114.66043771043772" y1="297.86367911281866" x2="137.4247474747475" y2="299.6259760239102" stroke="#F8766D" stroke-width="2.0"/><line x1="137.4247474747475" y1="299.6259760239102" x2="137.4247474747475" y2="299.6259760239102" stroke="#F8766D" stroke-width="2.0"/><line x1="137.4247474747475" y1="299.6259760239102" x2="171.5712121212121" y2="331.725528033184" stroke="#F8766D" stroke-width="2.0"/><line x1="171.5712121212121" y1="331.725528033184" x2="171.5712121212121" y2="331.725528033184" stroke="#F8766D" stroke-width="2.0"/><line x1="171.5712121212121" y1="331.725528033184" x2="171.5712121212121" y2="331.725528033184" stroke="#F8766D" stroke-width="2.0"/><line x1="171.5712121212121" y1="331.725528033184" x2="171.5712121212121" y2="331.725528033184" stroke="#F8766D" stroke-width="2.0"/><line x1="171.5712121212121" y1="331.725528033184" x2="171.5712121212121" y2="331.725528033184" stroke="#F8766D" stroke-width="2.0"/><line x1="171.5712121212121" y1="331.725528033184" x2="171.5712121212121" y2="331.725528033184" stroke="#F8766D" stroke-width="2.0"/><line x1="171.5712121212121" y1="331.725528033184" x2="171.5712121212121" y2="331.725528033184" stroke="#F8766D" stroke-width="2.0"/><line x1="171.5712121212121" y1="331.725528033184" x2="171.5712121212121" y2="331.725528033184" stroke="#F8766D" stroke-width="2.0"/><line x1="171.5712121212121" y1="331.725528033184" x2="171.5712121212121" y2="331.725528033184" stroke="#F8766D" stroke-width="2.0"/><line x1="171.5712121212121" y1="331.725528033184" x2="171.5712121212121" y2="331.725528033184" stroke="#F8766D" stroke-width="2.0"/><line x1="171.5712121212121" y1="331.725528033184" x2="171.5712121212121" y2="331.725528033184" stroke="#F8766D" stroke-width="2.0"/><line x1="171.5712121212121" y1="331.725528033184" x2="171.5712121212121" y2="331.725528033184" stroke="#F8766D" stroke-width="2.0"/><line x1="171.5712121212121" y1="331.725528033184" x2="194.33552188552193" y2="358.7806587182681" stroke="#F8766D" stroke-width="2.0"/><line x1="194.33552188552193" y1="358.7806587182681" x2="194.33552188552193" y2="358.7806587182681" stroke="#F8766D" stroke-width="2.0"/><line x1="194.33552188552193" y1="358.7806587182681" x2="194.33552188552193" y2="358.7806587182681" stroke="#F8766D" stroke-width="2.0"/><line x1="194.33552188552193" y1="358.7806587182681" x2="194.33552188552193" y2="358.7806587182681" stroke="#F8766D" stroke-width="2.0"/><line x1="194.33552188552193" y1="358.7806587182681" x2="194.33552188552193" y2="358.7806587182681" stroke="#F8766D" stroke-width="2.0"/><line x1="194.33552188552193" y1="358.7806587182681" x2="205.71767676767678" y2="370.6362550439413" stroke="#F8766D" stroke-width="2.0"/><line x1="205.71767676767678" y1="370.6362550439413" x2="205.71767676767678" y2="370.6362550439413" stroke="#F8766D" stroke-width="2.0"/><line x1="205.71767676767678" y1="370.6362550439413" x2="205.71767676767678" y2="370.6362550439413" stroke="#F8766D" stroke-width="2.0"/><line x1="205.71767676767678" y1="370.6362550439413" x2="228.48198653198654" y2="390.00011304290217" stroke="#F8766D" stroke-width="2.0"/><line x1="228.48198653198654" y1="390.00011304290217" x2="239.86414141414144" y2="397.8326711111837" stroke="#F8766D" stroke-width="2.0"/><line x1="239.86414141414144" y1="397.8326711111837" x2="239.86414141414144" y2="397.8326711111837" stroke="#F8766D" stroke-width="2.0"/><line x1="239.86414141414144" y1="397.8326711111837" x2="239.86414141414144" y2="397.8326711111837" stroke="#F8766D" stroke-width="2.0"/><line x1="239.86414141414144" y1="397.8326711111837" x2="262.62845117845114" y2="410.60978637283296" stroke="#F8766D" stroke-width="2.0"/><line x1="262.62845117845114" y1="410.60978637283296" x2="262.62845117845114" y2="410.60978637283296" stroke="#F8766D" stroke-width="2.0"/><line x1="262.62845117845114" y1="410.60978637283296" x2="274.01060606060605" y2="415.8786399611944" stroke="#F8766D" stroke-width="2.0"/><line x1="274.01060606060605" y1="415.8786399611944" x2="274.01060606060605" y2="415.8786399611944" stroke="#F8766D" stroke-width="2.0"/><line x1="274.01060606060605" y1="415.8786399611944" x2="274.01060606060605" y2="415.8786399611944" stroke="#F8766D" stroke-width="2.0"/><line x1="274.01060606060605" y1="415.8786399611944" x2="274.01060606060605" y2="415.8786399611944" stroke="#F8766D" stroke-width="2.0"/><line x1="274.01060606060605" y1="415.8786399611944" x2="308.1570707070707" y2="429.1521629263882" stroke="#F8766D" stroke-width="2.0"/><line x1="308.1570707070707" y1="429.1521629263882" x2="308.1570707070707" y2="429.1521629263882" stroke="#F8766D" stroke-width="2.0"/><line x1="308.1570707070707" y1="429.1521629263882" x2="308.1570707070707" y2="429.1521629263882" stroke="#F8766D" stroke-width="2.0"/><line x1="308.1570707070707" y1="429.1521629263882" x2="330.9213804713805" y2="437.51179537824396" stroke="#F8766D" stroke-width="2.0"/><line x1="330.9213804713805" y1="437.51179537824396" x2="330.9213804713805" y2="437.51179537824396" stroke="#F8766D" stroke-width="2.0"/><line x1="330.9213804713805" y1="437.51179537824396" x2="330.9213804713805" y2="437.51179537824396" stroke="#F8766D" stroke-width="2.0"/><line x1="330.9213804713805" y1="437.51179537824396" x2="342.3035353535353" y2="441.98109972197335" stroke="#F8766D" stroke-width="2.0"/><line x1="342.3035353535353" y1="441.98109972197335" x2="342.3035353535353" y2="441.98109972197335" stroke="#F8766D" stroke-width="2.0"/><line x1="342.3035353535353" y1="441.98109972197335" x2="342.3035353535353" y2="441.98109972197335" stroke="#F8766D" stroke-width="2.0"/><line x1="342.3035353535353" y1="441.98109972197335" x2="342.3035353535353" y2="441.98109972197335" stroke="#F8766D" stroke-width="2.0"/><line x1="342.3035353535353" y1="441.98109972197335" x2="342.3035353535353" y2="441.98109972197335" stroke="#F8766D" stroke-width="2.0"/><line x1="342.3035353535353" y1="441.98109972197335" x2="342.3035353535353" y2="441.98109972197335" stroke="#F8766D" stroke-width="2.0"/><line x1="342.3035353535353" y1="441.98109972197335" x2="342.3035353535353" y2="441.98109972197335" stroke="#F8766D" stroke-width="2.0"/><line x1="342.3035353535353" y1="441.98109972197335" x2="342.3035353535353" y2="441.98109972197335" stroke="#F8766D" stroke-width="2.0"/><line x1="342.3035353535353" y1="441.98109972197335" x2="342.3035353535353" y2="441.98109972197335" stroke="#F8766D" stroke-width="2.0"/><line x1="342.3035353535353" y1="441.98109972197335" x2="342.3035353535353" y2="441.98109972197335" stroke="#F8766D" stroke-width="2.0"/><line x1="342.3035353535353" y1="441.98109972197335" x2="342.3035353535353" y2="441.98109972197335" stroke="#F8766D" stroke-width="2.0"/><line x1="342.3035353535353" y1="441.98109972197335" x2="342.3035353535353" y2="441.98109972197335" stroke="#F8766D" stroke-width="2.0"/><line x1="342.3035353535353" y1="441.98109972197335" x2="365.06784511784514" y2="451.20631005396916" stroke="#F8766D" stroke-width="2.0"/><line x1="365.06784511784514" y1="451.20631005396916" x2="365.06784511784514" y2="451.20631005396916" stroke="#F8766D" stroke-width="2.0"/><line x1="365.06784511784514" y1="451.20631005396916" x2="365.06784511784514" y2="451.20631005396916" stroke="#F8766D" stroke-width="2.0"/><line x1="365.06784511784514" y1="451.20631005396916" x2="365.06784511784514" y2="451.20631005396916" stroke="#F8766D" stroke-width="2.0"/><line x1="365.06784511784514" y1="451.20631005396916" x2="387.83215488215495" y2="459.8889792070533" stroke="#F8766D" stroke-width="2.0"/><line x1="387.83215488215495" y1="459.8889792070533" x2="410.59646464646465" y2="466.9194951352723" stroke="#F8766D" stroke-width="2.0"/><line x1="410.59646464646465" y1="466.9194951352723" x2="410.59646464646465" y2="466.9194951352723" stroke="#F8766D" stroke-width="2.0"/><line x1="410.59646464646465" y1="466.9194951352723" x2="410.59646464646465" y2="466.9194951352723" stroke="#F8766D" stroke-width="2.0"/><line x1="410.59646464646465" y1="466.9194951352723" x2="410.59646464646465" y2="466.9194951352723" stroke="#F8766D" stroke-width="2.0"/><line x1="410.59646464646465" y1="466.9194951352723" x2="410.59646464646465" y2="466.9194951352723" stroke="#F8766D" stroke-width="2.0"/><line x1="410.59646464646465" y1="466.9194951352723" x2="410.59646464646465" y2="466.9194951352723" stroke="#F8766D" stroke-width="2.0"/><line x1="410.59646464646465" y1="466.9194951352723" x2="421.97861952861956" y2="469.49694841636347" stroke="#F8766D" stroke-width="2.0"/><line x1="421.97861952861956" y1="469.49694841636347" x2="421.97861952861956" y2="469.49694841636347" stroke="#F8766D" stroke-width="2.0"/><line x1="421.97861952861956" y1="469.49694841636347" x2="421.97861952861956" y2="469.49694841636347" stroke="#F8766D" stroke-width="2.0"/><line x1="421.97861952861956" y1="469.49694841636347" x2="421.97861952861956" y2="469.49694841636347" stroke="#F8766D" stroke-width="2.0"/><line x1="421.97861952861956" y1="469.49694841636347" x2="421.97861952861956" y2="469.49694841636347" stroke="#F8766D" stroke-width="2.0"/><line x1="421.97861952861956" y1="469.49694841636347" x2="421.97861952861956" y2="469.49694841636347" stroke="#F8766D" stroke-width="2.0"/><line x1="421.97861952861956" y1="469.49694841636347" x2="421.97861952861956" y2="469.49694841636347" stroke="#F8766D" stroke-width="2.0"/><line x1="421.97861952861956" y1="469.49694841636347" x2="421.97861952861956" y2="469.49694841636347" stroke="#F8766D" stroke-width="2.0"/><line x1="421.97861952861956" y1="469.49694841636347" x2="421.97861952861956" y2="469.49694841636347" stroke="#F8766D" stroke-width="2.0"/><line x1="421.97861952861956" y1="469.49694841636347" x2="421.97861952861956" y2="469.49694841636347" stroke="#F8766D" stroke-width="2.0"/><line x1="421.97861952861956" y1="469.49694841636347" x2="421.97861952861956" y2="469.49694841636347" stroke="#F8766D" stroke-width="2.0"/><line x1="421.97861952861956" y1="469.49694841636347" x2="421.97861952861956" y2="469.49694841636347" stroke="#F8766D" stroke-width="2.0"/><line x1="421.97861952861956" y1="469.49694841636347" x2="421.97861952861956" y2="469.49694841636347" stroke="#F8766D" stroke-width="2.0"/><line x1="421.97861952861956" y1="469.49694841636347" x2="421.97861952861956" y2="469.49694841636347" stroke="#F8766D" stroke-width="2.0"/><line x1="421.97861952861956" y1="469.49694841636347" x2="421.97861952861956" y2="469.49694841636347" stroke="#F8766D" stroke-width="2.0"/><line x1="421.97861952861956" y1="469.49694841636347" x2="421.97861952861956" y2="469.49694841636347" stroke="#F8766D" stroke-width="2.0"/><line x1="421.97861952861956" y1="469.49694841636347" x2="421.97861952861956" y2="469.49694841636347" stroke="#F8766D" stroke-width="2.0"/><line x1="421.97861952861956" y1="469.49694841636347" x2="456.12508417508417" y2="473.41003773595236" stroke="#F8766D" stroke-width="2.0"/><line x1="456.12508417508417" y1="473.41003773595236" x2="456.12508417508417" y2="473.41003773595236" stroke="#F8766D" stroke-width="2.0"/><line x1="456.12508417508417" y1="473.41003773595236" x2="478.889393939394" y2="473.2537911564117" stroke="#F8766D" stroke-width="2.0"/><line x1="478.889393939394" y1="473.2537911564117" x2="478.889393939394" y2="473.2537911564117" stroke="#F8766D" stroke-width="2.0"/><line x1="478.889393939394" y1="473.2537911564117" x2="478.889393939394" y2="473.2537911564117" stroke="#F8766D" stroke-width="2.0"/><line x1="478.889393939394" y1="473.2537911564117" x2="478.889393939394" y2="473.2537911564117" stroke="#F8766D" stroke-width="2.0"/><line x1="478.889393939394" y1="473.2537911564117" x2="478.889393939394" y2="473.2537911564117" stroke="#F8766D" stroke-width="2.0"/><line x1="478.889393939394" y1="473.2537911564117" x2="490.27154882154883" y2="472.59183028010983" stroke="#F8766D" stroke-width="2.0"/><line x1="490.27154882154883" y1="472.59183028010983" x2="490.27154882154883" y2="472.59183028010983" stroke="#F8766D" stroke-width="2.0"/><line x1="490.27154882154883" y1="472.59183028010983" x2="501.6537037037038" y2="471.67813659171986" stroke="#F8766D" stroke-width="2.0"/><line x1="501.6537037037038" y1="471.67813659171986" x2="501.6537037037038" y2="471.67813659171986" stroke="#F8766D" stroke-width="2.0"/><line x1="501.6537037037038" y1="471.67813659171986" x2="524.4180134680134" y2="469.5080275154752" stroke="#F8766D" stroke-width="2.0"/><line x1="524.4180134680134" y1="469.5080275154752" x2="535.8001683501684" y2="468.45785049601994" stroke="#F8766D" stroke-width="2.0"/><line x1="535.8001683501684" y1="468.45785049601994" x2="535.8001683501684" y2="468.45785049601994" stroke="#F8766D" stroke-width="2.0"/><line x1="535.8001683501684" y1="468.45785049601994" x2="535.8001683501684" y2="468.45785049601994" stroke="#F8766D" stroke-width="2.0"/><line x1="535.8001683501684" y1="468.45785049601994" x2="535.8001683501684" y2="468.45785049601994" stroke="#F8766D" stroke-width="2.0"/><line x1="535.8001683501684" y1="468.45785049601994" x2="535.8001683501684" y2="468.45785049601994" stroke="#F8766D" stroke-width="2.0"/><line x1="535.8001683501684" y1="468.45785049601994" x2="558.5644781144782" y2="466.94284741544254" stroke="#F8766D" stroke-width="2.0"/><line x1="558.5644781144782" y1="466.94284741544254" x2="558.5644781144782" y2="466.94284741544254" stroke="#F8766D" stroke-width="2.0"/><line x1="558.5644781144782" y1="466.94284741544254" x2="581.3287878787878" y2="466.8957735073077" stroke="#F8766D" stroke-width="2.0"/><line x1="581.3287878787878" y1="466.8957735073077" x2="626.8574074074074" y2="474.50522710275857" stroke="#F8766D" stroke-width="2.0"/><path d="M 69.13181818181819 275.90592009544446 L 69.13181818181819 275.90592009544446 L 69.13181818181819 275.90592009544446 L 69.13181818181819 275.90592009544446 L 69.13181818181819 275.90592009544446 L 91.89612794612795 214.18504129820292 L 91.89612794612795 214.18504129820292 L 91.89612794612795 214.18504129820292 L 91.89612794612795 214.18504129820292 L 91.89612794612795 214.18504129820292 L 91.89612794612795 214.18504129820292 L 91.89612794612795 214.18504129820292 L 91.89612794612795 214.18504129820292 L 91.89612794612795 214.18504129820292 L 91.89612794612795 214.18504129820292 L 91.89612794612795 214.18504129820292 L 91.89612794612795 214.18504129820292 L 103.27828282828281 246.4731926276586 L 103.27828282828281 246.4731926276586 L 103.27828282828281 246.4731926276586 L 114.66043771043772 284.4562798243416 L 114.66043771043772 284.4562798243416 L 114.66043771043772 284.4562798243416 L 114.66043771043772 284.4562798243416 L 114.66043771043772 284.4562798243416 L 114.66043771043772 284.4562798243416 L 114.66043771043772 284.4562798243416 L 114.66043771043772 284.4562798243416 L 114.66043771043772 284.4562798243416 L 114.66043771043772 284.4562798243416 L 114.66043771043772 284.4562798243416 L 114.66043771043772 284.4562798243416 L 114.66043771043772 284.4562798243416 L 114.66043771043772 284.4562798243416 L 114.66043771043772 284.4562798243416 L 114.66043771043772 284.4562798243416 L 114.66043771043772 284.4562798243416 L 114.66043771043772 284.4562798243416 L 114.66043771043772 284.4562798243416 L 137.4247474747475 292.59858758246395 L 137.4247474747475 292.59858758246395 L 137.4247474747475 292.59858758246395 L 137.4247474747475 292.59858758246395 L 160.18905723905723 298.38134042993744 L 160.18905723905723 298.38134042993744 L 160.18905723905723 298.38134042993744 L 160.18905723905723 298.38134042993744 L 160.18905723905723 298.38134042993744 L 160.18905723905723 298.38134042993744 L 160.18905723905723 298.38134042993744 L 160.18905723905723 298.38134042993744 L 160.18905723905723 298.38134042993744 L 160.18905723905723 298.38134042993744 L 160.18905723905723 298.38134042993744 L 160.18905723905723 298.38134042993744 L 160.18905723905723 298.38134042993744 L 171.5712121212121 310.16010221017666 L 171.5712121212121 310.16010221017666 L 171.5712121212121 310.16010221017666 L 171.5712121212121 310.16010221017666 L 171.5712121212121 310.16010221017666 L 171.5712121212121 310.16010221017666 L 171.5712121212121 310.16010221017666 L 171.5712121212121 310.16010221017666 L 194.33552188552193 336.1858946384298 L 194.33552188552193 336.1858946384298 L 194.33552188552193 336.1858946384298 L 205.71767676767678 342.12481270013825 L 205.71767676767678 342.12481270013825 L 205.71767676767678 342.12481270013825 L 205.71767676767678 342.12481270013825 L 205.71767676767678 342.12481270013825 L 205.71767676767678 342.12481270013825 L 205.71767676767678 342.12481270013825 L 228.48198653198654 346.74227339968394 L 228.48198653198654 346.74227339968394 L 228.48198653198654 346.74227339968394 L 228.48198653198654 346.74227339968394 L 228.48198653198654 346.74227339968394 L 228.48198653198654 346.74227339968394 L 228.48198653198654 346.74227339968394 L 239.86414141414144 349.48285611868323 L 239.86414141414144 349.48285611868323 L 239.86414141414144 349.48285611868323 L 262.62845117845114 355.3591937833953 L 262.62845117845114 355.3591937833953 L 262.62845117845114 355.3591937833953 L 262.62845117845114 355.3591937833953 L 262.62845117845114 355.3591937833953 L 262.62845117845114 355.3591937833953 L 262.62845117845114 355.3591937833953 L 285.39276094276096 355.472241766313 L 285.39276094276096 355.472241766313 L 285.39276094276096 355.472241766313 L 285.39276094276096 355.472241766313 L 285.39276094276096 355.472241766313 L 296.7749158249158 355.609743428057 L 296.7749158249158 355.609743428057 L 319.53922558922557 366.0765242766819 L 319.53922558922557 366.0765242766819 L 319.53922558922557 366.0765242766819 L 319.53922558922557 366.0765242766819 L 319.53922558922557 366.0765242766819 L 319.53922558922557 366.0765242766819 L 342.3035353535353 388.040432425184 L 490.27154882154883 430.2804294998713 L 490.27154882154883 235.47982880425587 L 342.3035353535353 282.55327608099884 L 319.53922558922557 302.44563220185336 L 319.53922558922557 302.44563220185336 L 319.53922558922557 302.44563220185336 L 319.53922558922557 302.44563220185336 L 319.53922558922557 302.44563220185336 L 319.53922558922557 302.44563220185336 L 296.7749158249158 310.4641203883947 L 296.7749158249158 310.4641203883947 L 285.39276094276096 309.2774445215334 L 285.39276094276096 309.2774445215334 L 285.39276094276096 309.2774445215334 L 285.39276094276096 309.2774445215334 L 285.39276094276096 309.2774445215334 L 262.62845117845114 306.62456813281443 L 262.62845117845114 306.62456813281443 L 262.62845117845114 306.62456813281443 L 262.62845117845114 306.62456813281443 L 262.62845117845114 306.62456813281443 L 262.62845117845114 306.62456813281443 L 262.62845117845114 306.62456813281443 L 239.86414141414144 308.6092569079849 L 239.86414141414144 308.6092569079849 L 239.86414141414144 308.6092569079849 L 228.48198653198654 307.40468071894475 L 228.48198653198654 307.40468071894475 L 228.48198653198654 307.40468071894475 L 228.48198653198654 307.40468071894475 L 228.48198653198654 307.40468071894475 L 228.48198653198654 307.40468071894475 L 228.48198653198654 307.40468071894475 L 205.71767676767678 296.1695619830619 L 205.71767676767678 296.1695619830619 L 205.71767676767678 296.1695619830619 L 205.71767676767678 296.1695619830619 L 205.71767676767678 296.1695619830619 L 205.71767676767678 296.1695619830619 L 205.71767676767678 296.1695619830619 L 194.33552188552193 288.6156224402571 L 194.33552188552193 288.6156224402571 L 194.33552188552193 288.6156224402571 L 171.5712121212121 272.55897119307343 L 171.5712121212121 272.55897119307343 L 171.5712121212121 272.55897119307343 L 171.5712121212121 272.55897119307343 L 171.5712121212121 272.55897119307343 L 171.5712121212121 272.55897119307343 L 171.5712121212121 272.55897119307343 L 171.5712121212121 272.55897119307343 L 160.18905723905723 256.2523840835301 L 160.18905723905723 256.2523840835301 L 160.18905723905723 256.2523840835301 L 160.18905723905723 256.2523840835301 L 160.18905723905723 256.2523840835301 L 160.18905723905723 256.2523840835301 L 160.18905723905723 256.2523840835301 L 160.18905723905723 256.2523840835301 L 160.18905723905723 256.2523840835301 L 160.18905723905723 256.2523840835301 L 160.18905723905723 256.2523840835301 L 160.18905723905723 256.2523840835301 L 160.18905723905723 256.2523840835301 L 137.4247474747475 233.78542603633764 L 137.4247474747475 233.78542603633764 L 137.4247474747475 233.78542603633764 L 137.4247474747475 233.78542603633764 L 114.66043771043772 241.43608546195105 L 114.66043771043772 241.43608546195105 L 114.66043771043772 241.43608546195105 L 114.66043771043772 241.43608546195105 L 114.66043771043772 241.43608546195105 L 114.66043771043772 241.43608546195105 L 114.66043771043772 241.43608546195105 L 114.66043771043772 241.43608546195105 L 114.66043771043772 241.43608546195105 L 114.66043771043772 241.43608546195105 L 114.66043771043772 241.43608546195105 L 114.66043771043772 241.43608546195105 L 114.66043771043772 241.43608546195105 L 114.66043771043772 241.43608546195105 L 114.66043771043772 241.43608546195105 L 114.66043771043772 241.43608546195105 L 114.66043771043772 241.43608546195105 L 114.66043771043772 241.43608546195105 L 114.66043771043772 241.43608546195105 L 103.27828282828281 207.97388762145113 L 103.27828282828281 207.97388762145113 L 103.27828282828281 207.97388762145113 L 91.89612794612795 159.56463960351232 L 91.89612794612795 159.56463960351232 L 91.89612794612795 159.56463960351232 L 91.89612794612795 159.56463960351232 L 91.89612794612795 159.56463960351232 L 91.89612794612795 159.56463960351232 L 91.89612794612795 159.56463960351232 L 91.89612794612795 159.56463960351232 L 91.89612794612795 159.56463960351232 L 91.89612794612795 159.56463960351232 L 91.89612794612795 159.56463960351232 L 91.89612794612795 159.56463960351232 L 69.13181818181819 188.82398341247966 L 69.13181818181819 188.82398341247966 L 69.13181818181819 188.82398341247966 L 69.13181818181819 188.82398341247966 L 69.13181818181819 188.82398341247966 Z" fill="#00BA38" fill-opacity="0.2" stroke="none"/><line x1="69.13181818181819" y1="232.36495175396203" x2="69.13181818181819" y2="232.36495175396203" stroke="#00BA38" stroke-width="2.0"/><line x1="69.13181818181819" y1="232.36495175396203" x2="69.13181818181819" y2="232.36495175396203" stroke="#00BA38" stroke-width="2.0"/><line x1="69.13181818181819" y1="232.36495175396203" x2="69.13181818181819" y2="232.36495175396203" stroke="#00BA38" stroke-width="2.0"/><line x1="69.13181818181819" y1="232.36495175396203" x2="69.13181818181819" y2="232.36495175396203" stroke="#00BA38" stroke-width="2.0"/><line x1="69.13181818181819" y1="232.36495175396203" x2="91.89612794612795" y2="186.87484045085762" stroke="#00BA38" stroke-width="2.0"/><line x1="91.89612794612795" y1="186.87484045085762" x2="91.89612794612795" y2="186.87484045085762" stroke="#00BA38" stroke-width="2.0"/><line x1="91.89612794612795" y1="186.87484045085762" x2="91.89612794612795" y2="186.87484045085762" stroke="#00BA38" stroke-width="2.0"/><line x1="91.89612794612795" y1="186.87484045085762" x2="91.89612794612795" y2="186.87484045085762" stroke="#00BA38" stroke-width="2.0"/><line x1="91.89612794612795" y1="186.87484045085762" x2="91.89612794612795" y2="186.87484045085762" stroke="#00BA38" stroke-width="2.0"/><line x1="91.89612794612795" y1="186.87484045085762" x2="91.89612794612795" y2="186.87484045085762" stroke="#00BA38" stroke-width="2.0"/><line x1="91.89612794612795" y1="186.87484045085762" x2="91.89612794612795" y2="186.87484045085762" stroke="#00BA38" stroke-width="2.0"/><line x1="91.89612794612795" y1="186.87484045085762" x2="91.89612794612795" y2="186.87484045085762" stroke="#00BA38" stroke-width="2.0"/><line x1="91.89612794612795" y1="186.87484045085762" x2="91.89612794612795" y2="186.87484045085762" stroke="#00BA38" stroke-width="2.0"/><line x1="91.89612794612795" y1="186.87484045085762" x2="91.89612794612795" y2="186.87484045085762" stroke="#00BA38" stroke-width="2.0"/><line x1="91.89612794612795" y1="186.87484045085762" x2="91.89612794612795" y2="186.87484045085762" stroke="#00BA38" stroke-width="2.0"/><line x1="91.89612794612795" y1="186.87484045085762" x2="91.89612794612795" y2="186.87484045085762" stroke="#00BA38" stroke-width="2.0"/><line x1="91.89612794612795" y1="186.87484045085762" x2="103.27828282828281" y2="227.2235401245548" stroke="#00BA38" stroke-width="2.0"/><line x1="103.27828282828281" y1="227.2235401245548" x2="103.27828282828281" y2="227.2235401245548" stroke="#00BA38" stroke-width="2.0"/><line x1="103.27828282828281" y1="227.2235401245548" x2="103.27828282828281" y2="227.2235401245548" stroke="#00BA38" stroke-width="2.0"/><line x1="103.27828282828281" y1="227.2235401245548" x2="114.66043771043772" y2="262.9461826431463" stroke="#00BA38" stroke-width="2.0"/><line x1="114.66043771043772" y1="262.9461826431463" x2="114.66043771043772" y2="262.9461826431463" stroke="#00BA38" stroke-width="2.0"/><line x1="114.66043771043772" y1="262.9461826431463" x2="114.66043771043772" y2="262.9461826431463" stroke="#00BA38" stroke-width="2.0"/><line x1="114.66043771043772" y1="262.9461826431463" x2="114.66043771043772" y2="262.9461826431463" stroke="#00BA38" stroke-width="2.0"/><line x1="114.66043771043772" y1="262.9461826431463" x2="114.66043771043772" y2="262.9461826431463" stroke="#00BA38" stroke-width="2.0"/><line x1="114.66043771043772" y1="262.9461826431463" x2="114.66043771043772" y2="262.9461826431463" stroke="#00BA38" stroke-width="2.0"/><line x1="114.66043771043772" y1="262.9461826431463" x2="114.66043771043772" y2="262.9461826431463" stroke="#00BA38" stroke-width="2.0"/><line x1="114.66043771043772" y1="262.9461826431463" x2="114.66043771043772" y2="262.9461826431463" stroke="#00BA38" stroke-width="2.0"/><line x1="114.66043771043772" y1="262.9461826431463" x2="114.66043771043772" y2="262.9461826431463" stroke="#00BA38" stroke-width="2.0"/><line x1="114.66043771043772" y1="262.9461826431463" x2="114.66043771043772" y2="262.9461826431463" stroke="#00BA38" stroke-width="2.0"/><line x1="114.66043771043772" y1="262.9461826431463" x2="114.66043771043772" y2="262.9461826431463" stroke="#00BA38" stroke-width="2.0"/><line x1="114.66043771043772" y1="262.9461826431463" x2="114.66043771043772" y2="262.9461826431463" stroke="#00BA38" stroke-width="2.0"/><line x1="114.66043771043772" y1="262.9461826431463" x2="114.66043771043772" y2="262.9461826431463" stroke="#00BA38" stroke-width="2.0"/><line x1="114.66043771043772" y1="262.9461826431463" x2="114.66043771043772" y2="262.9461826431463" stroke="#00BA38" stroke-width="2.0"/><line x1="114.66043771043772" y1="262.9461826431463" x2="114.66043771043772" y2="262.9461826431463" stroke="#00BA38" stroke-width="2.0"/><line x1="114.66043771043772" y1="262.9461826431463" x2="114.66043771043772" y2="262.9461826431463" stroke="#00BA38" stroke-width="2.0"/><line x1="114.66043771043772" y1="262.9461826431463" x2="114.66043771043772" y2="262.9461826431463" stroke="#00BA38" stroke-width="2.0"/><line x1="114.66043771043772" y1="262.9461826431463" x2="114.66043771043772" y2="262.9461826431463" stroke="#00BA38" stroke-width="2.0"/><line x1="114.66043771043772" y1="262.9461826431463" x2="114.66043771043772" y2="262.9461826431463" stroke="#00BA38" stroke-width="2.0"/><line x1="114.66043771043772" y1="262.9461826431463" x2="137.4247474747475" y2="263.1920068094009" stroke="#00BA38" stroke-width="2.0"/><line x1="137.4247474747475" y1="263.1920068094009" x2="137.4247474747475" y2="263.1920068094009" stroke="#00BA38" stroke-width="2.0"/><line x1="137.4247474747475" y1="263.1920068094009" x2="137.4247474747475" y2="263.1920068094009" stroke="#00BA38" stroke-width="2.0"/><line x1="137.4247474747475" y1="263.1920068094009" x2="137.4247474747475" y2="263.1920068094009" stroke="#00BA38" stroke-width="2.0"/><line x1="137.4247474747475" y1="263.1920068094009" x2="160.18905723905723" y2="277.31686225673377" stroke="#00BA38" stroke-width="2.0"/><line x1="160.18905723905723" y1="277.31686225673377" x2="160.18905723905723" y2="277.31686225673377" stroke="#00BA38" stroke-width="2.0"/><line x1="160.18905723905723" y1="277.31686225673377" x2="160.18905723905723" y2="277.31686225673377" stroke="#00BA38" stroke-width="2.0"/><line x1="160.18905723905723" y1="277.31686225673377" x2="160.18905723905723" y2="277.31686225673377" stroke="#00BA38" stroke-width="2.0"/><line x1="160.18905723905723" y1="277.31686225673377" x2="160.18905723905723" y2="277.31686225673377" stroke="#00BA38" stroke-width="2.0"/><line x1="160.18905723905723" y1="277.31686225673377" x2="160.18905723905723" y2="277.31686225673377" stroke="#00BA38" stroke-width="2.0"/><line x1="160.18905723905723" y1="277.31686225673377" x2="160.18905723905723" y2="277.31686225673377" stroke="#00BA38" stroke-width="2.0"/><line x1="160.18905723905723" y1="277.31686225673377" x2="160.18905723905723" y2="277.31686225673377" stroke="#00BA38" stroke-width="2.0"/><line x1="160.18905723905723" y1="277.31686225673377" x2="160.18905723905723" y2="277.31686225673377" stroke="#00BA38" stroke-width="2.0"/><line x1="160.18905723905723" y1="277.31686225673377" x2="160.18905723905723" y2="277.31686225673377" stroke="#00BA38" stroke-width="2.0"/><line x1="160.18905723905723" y1="277.31686225673377" x2="160.18905723905723" y2="277.31686225673377" stroke="#00BA38" stroke-width="2.0"/><line x1="160.18905723905723" y1="277.31686225673377" x2="160.18905723905723" y2="277.31686225673377" stroke="#00BA38" stroke-width="2.0"/><line x1="160.18905723905723" y1="277.31686225673377" x2="160.18905723905723" y2="277.31686225673377" stroke="#00BA38" stroke-width="2.0"/><line x1="160.18905723905723" y1="277.31686225673377" x2="171.5712121212121" y2="291.3595367016251" stroke="#00BA38" stroke-width="2.0"/><line x1="171.5712121212121" y1="291.3595367016251" x2="171.5712121212121" y2="291.3595367016251" stroke="#00BA38" stroke-width="2.0"/><line x1="171.5712121212121" y1="291.3595367016251" x2="171.5712121212121" y2="291.3595367016251" stroke="#00BA38" stroke-width="2.0"/><line x1="171.5712121212121" y1="291.3595367016251" x2="171.5712121212121" y2="291.3595367016251" stroke="#00BA38" stroke-width="2.0"/><line x1="171.5712121212121" y1="291.3595367016251" x2="171.5712121212121" y2="291.3595367016251" stroke="#00BA38" stroke-width="2.0"/><line x1="171.5712121212121" y1="291.3595367016251" x2="171.5712121212121" y2="291.3595367016251" stroke="#00BA38" stroke-width="2.0"/><line x1="171.5712121212121" y1="291.3595367016251" x2="171.5712121212121" y2="291.3595367016251" stroke="#00BA38" stroke-width="2.0"/><line x1="171.5712121212121" y1="291.3595367016251" x2="171.5712121212121" y2="291.3595367016251" stroke="#00BA38" stroke-width="2.0"/><line x1="171.5712121212121" y1="291.3595367016251" x2="194.33552188552193" y2="312.4007585393434" stroke="#00BA38" stroke-width="2.0"/><line x1="194.33552188552193" y1="312.4007585393434" x2="194.33552188552193" y2="312.4007585393434" stroke="#00BA38" stroke-width="2.0"/><line x1="194.33552188552193" y1="312.4007585393434" x2="194.33552188552193" y2="312.4007585393434" stroke="#00BA38" stroke-width="2.0"/><line x1="194.33552188552193" y1="312.4007585393434" x2="205.71767676767678" y2="319.14718734160004" stroke="#00BA38" stroke-width="2.0"/><line x1="205.71767676767678" y1="319.14718734160004" x2="205.71767676767678" y2="319.14718734160004" stroke="#00BA38" stroke-width="2.0"/><line x1="205.71767676767678" y1="319.14718734160004" x2="205.71767676767678" y2="319.14718734160004" stroke="#00BA38" stroke-width="2.0"/><line x1="205.71767676767678" y1="319.14718734160004" x2="205.71767676767678" y2="319.14718734160004" stroke="#00BA38" stroke-width="2.0"/><line x1="205.71767676767678" y1="319.14718734160004" x2="205.71767676767678" y2="319.14718734160004" stroke="#00BA38" stroke-width="2.0"/><line x1="205.71767676767678" y1="319.14718734160004" x2="205.71767676767678" y2="319.14718734160004" stroke="#00BA38" stroke-width="2.0"/><line x1="205.71767676767678" y1="319.14718734160004" x2="205.71767676767678" y2="319.14718734160004" stroke="#00BA38" stroke-width="2.0"/><line x1="205.71767676767678" y1="319.14718734160004" x2="228.48198653198654" y2="327.0734770593143" stroke="#00BA38" stroke-width="2.0"/><line x1="228.48198653198654" y1="327.0734770593143" x2="228.48198653198654" y2="327.0734770593143" stroke="#00BA38" stroke-width="2.0"/><line x1="228.48198653198654" y1="327.0734770593143" x2="228.48198653198654" y2="327.0734770593143" stroke="#00BA38" stroke-width="2.0"/><line x1="228.48198653198654" y1="327.0734770593143" x2="228.48198653198654" y2="327.0734770593143" stroke="#00BA38" stroke-width="2.0"/><line x1="228.48198653198654" y1="327.0734770593143" x2="228.48198653198654" y2="327.0734770593143" stroke="#00BA38" stroke-width="2.0"/><line x1="228.48198653198654" y1="327.0734770593143" x2="228.48198653198654" y2="327.0734770593143" stroke="#00BA38" stroke-width="2.0"/><line x1="228.48198653198654" y1="327.0734770593143" x2="228.48198653198654" y2="327.0734770593143" stroke="#00BA38" stroke-width="2.0"/><line x1="228.48198653198654" y1="327.0734770593143" x2="239.86414141414144" y2="329.04605651333407" stroke="#00BA38" stroke-width="2.0"/><line x1="239.86414141414144" y1="329.04605651333407" x2="239.86414141414144" y2="329.04605651333407" stroke="#00BA38" stroke-width="2.0"/><line x1="239.86414141414144" y1="329.04605651333407" x2="239.86414141414144" y2="329.04605651333407" stroke="#00BA38" stroke-width="2.0"/><line x1="239.86414141414144" y1="329.04605651333407" x2="262.62845117845114" y2="330.99188095810484" stroke="#00BA38" stroke-width="2.0"/><line x1="262.62845117845114" y1="330.99188095810484" x2="262.62845117845114" y2="330.99188095810484" stroke="#00BA38" stroke-width="2.0"/><line x1="262.62845117845114" y1="330.99188095810484" x2="262.62845117845114" y2="330.99188095810484" stroke="#00BA38" stroke-width="2.0"/><line x1="262.62845117845114" y1="330.99188095810484" x2="262.62845117845114" y2="330.99188095810484" stroke="#00BA38" stroke-width="2.0"/><line x1="262.62845117845114" y1="330.99188095810484" x2="262.62845117845114" y2="330.99188095810484" stroke="#00BA38" stroke-width="2.0"/><line x1="262.62845117845114" y1="330.99188095810484" x2="262.62845117845114" y2="330.99188095810484" stroke="#00BA38" stroke-width="2.0"/><line x1="262.62845117845114" y1="330.99188095810484" x2="262.62845117845114" y2="330.99188095810484" stroke="#00BA38" stroke-width="2.0"/><line x1="262.62845117845114" y1="330.99188095810484" x2="285.39276094276096" y2="332.3748431439232" stroke="#00BA38" stroke-width="2.0"/><line x1="285.39276094276096" y1="332.3748431439232" x2="285.39276094276096" y2="332.3748431439232" stroke="#00BA38" stroke-width="2.0"/><line x1="285.39276094276096" y1="332.3748431439232" x2="285.39276094276096" y2="332.3748431439232" stroke="#00BA38" stroke-width="2.0"/><line x1="285.39276094276096" y1="332.3748431439232" x2="285.39276094276096" y2="332.3748431439232" stroke="#00BA38" stroke-width="2.0"/><line x1="285.39276094276096" y1="332.3748431439232" x2="285.39276094276096" y2="332.3748431439232" stroke="#00BA38" stroke-width="2.0"/><line x1="285.39276094276096" y1="332.3748431439232" x2="296.7749158249158" y2="333.0369319082258" stroke="#00BA38" stroke-width="2.0"/><line x1="296.7749158249158" y1="333.0369319082258" x2="296.7749158249158" y2="333.0369319082258" stroke="#00BA38" stroke-width="2.0"/><line x1="296.7749158249158" y1="333.0369319082258" x2="319.53922558922557" y2="334.26107823926765" stroke="#00BA38" stroke-width="2.0"/><line x1="319.53922558922557" y1="334.26107823926765" x2="319.53922558922557" y2="334.26107823926765" stroke="#00BA38" stroke-width="2.0"/><line x1="319.53922558922557" y1="334.26107823926765" x2="319.53922558922557" y2="334.26107823926765" stroke="#00BA38" stroke-width="2.0"/><line x1="319.53922558922557" y1="334.26107823926765" x2="319.53922558922557" y2="334.26107823926765" stroke="#00BA38" stroke-width="2.0"/><line x1="319.53922558922557" y1="334.26107823926765" x2="319.53922558922557" y2="334.26107823926765" stroke="#00BA38" stroke-width="2.0"/><line x1="319.53922558922557" y1="334.26107823926765" x2="319.53922558922557" y2="334.26107823926765" stroke="#00BA38" stroke-width="2.0"/><line x1="319.53922558922557" y1="334.26107823926765" x2="342.3035353535353" y2="335.2968542530914" stroke="#00BA38" stroke-width="2.0"/><line x1="342.3035353535353" y1="335.2968542530914" x2="490.27154882154883" y2="332.88012915206355" stroke="#00BA38" stroke-width="2.0"/><path d="M 319.53922558922557 391.4169532112861 L 319.53922558922557 391.4169532112861 L 342.3035353535353 399.45105664296625 L 342.3035353535353 399.45105664296625 L 410.59646464646465 437.62339462446545 L 410.59646464646465 437.62339462446545 L 410.59646464646465 437.62339462446545 L 410.59646464646465 437.62339462446545 L 410.59646464646465 437.62339462446545 L 490.27154882154883 499.9287943493468 L 490.27154882154883 499.9287943493468 L 490.27154882154883 499.9287943493468 L 501.6537037037038 477.5730893045675 L 501.6537037037038 477.5730893045675 L 501.6537037037038 477.5730893045675 L 501.6537037037038 477.5730893045675 L 501.6537037037038 477.5730893045675 L 501.6537037037038 477.5730893045675 L 535.8001683501684 454.34150524621566 L 535.8001683501684 454.34150524621566 L 535.8001683501684 454.34150524621566 L 569.946632996633 418.4272709309421 L 592.7109427609428 411.88170195315485 L 592.7109427609428 411.88170195315485 L 683.7681818181818 441.7210768965939 L 683.7681818181818 249.7503377276945 L 592.7109427609428 282.68888379731 L 592.7109427609428 282.68888379731 L 569.946632996633 314.2904769805149 L 535.8001683501684 352.01599100382845 L 535.8001683501684 352.01599100382845 L 535.8001683501684 352.01599100382845 L 501.6537037037038 400.60535843046694 L 501.6537037037038 400.60535843046694 L 501.6537037037038 400.60535843046694 L 501.6537037037038 400.60535843046694 L 501.6537037037038 400.60535843046694 L 501.6537037037038 400.60535843046694 L 490.27154882154883 389.97784580872025 L 490.27154882154883 389.97784580872025 L 490.27154882154883 389.97784580872025 L 410.59646464646465 351.7626848110908 L 410.59646464646465 351.7626848110908 L 410.59646464646465 351.7626848110908 L 410.59646464646465 351.7626848110908 L 410.59646464646465 351.7626848110908 L 342.3035353535353 263.6932657648475 L 342.3035353535353 263.6932657648475 L 319.53922558922557 255.65909178163588 L 319.53922558922557 255.65909178163588 Z" fill="#619CFF" fill-opacity="0.2" stroke="none"/><line x1="319.53922558922557" y1="323.538022496461" x2="319.53922558922557" y2="323.538022496461" stroke="#619CFF" stroke-width="2.0"/><line x1="319.53922558922557" y1="323.538022496461" x2="342.3035353535353" y2="331.57216120390683" stroke="#619CFF" stroke-width="2.0"/><line x1="342.3035353535353" y1="331.57216120390683" x2="342.3035353535353" y2="331.57216120390683" stroke="#619CFF" stroke-width="2.0"/><line x1="342.3035353535353" y1="331.57216120390683" x2="410.59646464646465" y2="394.69303971777816" stroke="#619CFF" stroke-width="2.0"/><line x1="410.59646464646465" y1="394.69303971777816" x2="410.59646464646465" y2="394.69303971777816" stroke="#619CFF" stroke-width="2.0"/><line x1="410.59646464646465" y1="394.69303971777816" x2="410.59646464646465" y2="394.69303971777816" stroke="#619CFF" stroke-width="2.0"/><line x1="410.59646464646465" y1="394.69303971777816" x2="410.59646464646465" y2="394.69303971777816" stroke="#619CFF" stroke-width="2.0"/><line x1="410.59646464646465" y1="394.69303971777816" x2="410.59646464646465" y2="394.69303971777816" stroke="#619CFF" stroke-width="2.0"/><line x1="410.59646464646465" y1="394.69303971777816" x2="490.27154882154883" y2="444.9533200790335" stroke="#619CFF" stroke-width="2.0"/><line x1="490.27154882154883" y1="444.9533200790335" x2="490.27154882154883" y2="444.9533200790335" stroke="#619CFF" stroke-width="2.0"/><line x1="490.27154882154883" y1="444.9533200790335" x2="490.27154882154883" y2="444.9533200790335" stroke="#619CFF" stroke-width="2.0"/><line x1="490.27154882154883" y1="444.9533200790335" x2="501.6537037037038" y2="439.0892238675172" stroke="#619CFF" stroke-width="2.0"/><line x1="501.6537037037038" y1="439.0892238675172" x2="501.6537037037038" y2="439.0892238675172" stroke="#619CFF" stroke-width="2.0"/><line x1="501.6537037037038" y1="439.0892238675172" x2="501.6537037037038" y2="439.0892238675172" stroke="#619CFF" stroke-width="2.0"/><line x1="501.6537037037038" y1="439.0892238675172" x2="501.6537037037038" y2="439.0892238675172" stroke="#619CFF" stroke-width="2.0"/><line x1="501.6537037037038" y1="439.0892238675172" x2="501.6537037037038" y2="439.0892238675172" stroke="#619CFF" stroke-width="2.0"/><line x1="501.6537037037038" y1="439.0892238675172" x2="501.6537037037038" y2="439.0892238675172" stroke="#619CFF" stroke-width="2.0"/><line x1="501.6537037037038" y1="439.0892238675172" x2="535.8001683501684" y2="403.178748125022" stroke="#619CFF" stroke-width="2.0"/><line x1="535.8001683501684" y1="403.178748125022" x2="535.8001683501684" y2="403.178748125022" stroke="#619CFF" stroke-width="2.0"/><line x1="535.8001683501684" y1="403.178748125022" x2="535.8001683501684" y2="403.178748125022" stroke="#619CFF" stroke-width="2.0"/><line x1="535.8001683501684" y1="403.178748125022" x2="569.946632996633" y2="366.3588739557285" stroke="#619CFF" stroke-width="2.0"/><line x1="569.946632996633" y1="366.3588739557285" x2="592.7109427609428" y2="347.2852928752324" stroke="#619CFF" stroke-width="2.0"/><line x1="592.7109427609428" y1="347.2852928752324" x2="592.7109427609428" y2="347.2852928752324" stroke="#619CFF" stroke-width="2.0"/><line x1="592.7109427609428" y1="347.2852928752324" x2="683.7681818181818" y2="345.7357073121442" stroke="#619CFF" stroke-width="2.0"/><text x="724.5" y="7.5" fill="#333333" font-size="11.0" font-family="sans-serif" text-anchor="start">drv</text><circle cx="729.5" cy="23.5" r="5.0" fill="#F8766D" fill-opacity="1.0" stroke="#F8766D" stroke-width="1.0"/><text x="738.5" y="27.5" fill="#333333" font-size="10.0" font-family="sans-serif" text-anchor="start">4</text><circle cx="729.5" cy="39.5" r="5.0" fill="#00BA38" fill-opacity="1.0" stroke="#00BA38" stroke-width="1.0"/><text x="738.5" y="43.5" fill="#333333" font-size="10.0" font-family="sans-serif" text-anchor="start">f</text><circle cx="729.5" cy="55.5" r="5.0" fill="#619CFF" fill-opacity="1.0" stroke="#619CFF" stroke-width="1.0"/><text x="738.5" y="59.5" fill="#333333" font-size="10.0" font-family="sans-serif" text-anchor="start">r</text></svg>