<svg xmlns="http://www.w3.org/2000/svg" width="624" height="384" viewBox="0 0 624 384"><rect x="0.0" y="0.0" width="624.0" height="384.0" fill="#ffffff" fill-opacity="1.0" stroke="none"/><rect x="46.346666666666664" y="7.333333333333333" width="514.7339199999999" height="332.66666666666663" fill="#ebebeb" fill-opacity="1.0" stroke="none"/><line x1="61.07810882154881" y1="7.333333333333333" x2="61.07810882154881" y2="340.0" stroke="#ffffff" stroke-width="0.6666666666666666"/><line x1="147.7336509090909" y1="7.333333333333333" x2="147.7336509090909" y2="340.0" stroke="#ffffff" stroke-width="0.6666666666666666"/><line x1="234.38919299663297" y1="7.333333333333333" x2="234.38919299663297" y2="340.0" stroke="#ffffff" stroke-width="0.6666666666666666"/><line x1="321.04473508417504" y1="7.333333333333333" x2="321.04473508417504" y2="340.0" stroke="#ffffff" stroke-width="0.6666666666666666"/><line x1="407.7002771717172" y1="7.333333333333333" x2="407.7002771717172" y2="340.0" stroke="#ffffff" stroke-width="0.6666666666666666"/><line x1="494.3558192592593" y1="7.333333333333333" x2="494.3558192592593" y2="340.0" stroke="#ffffff" stroke-width="0.6666666666666666"/><line x1="104.40587986531985" y1="7.333333333333333" x2="104.40587986531985" y2="340.0" stroke="#ffffff" stroke-width="1.3333333333333333"/><line x1="191.06142195286193" y1="7.333333333333333" x2="191.06142195286193" y2="340.0" stroke="#ffffff" stroke-width="1.3333333333333333"/><line x1="277.71696404040404" y1="7.333333333333333" x2="277.71696404040404" y2="340.0" stroke="#ffffff" stroke-width="1.3333333333333333"/><line x1="364.3725061279461" y1="7.333333333333333" x2="364.3725061279461" y2="340.0" stroke="#ffffff" stroke-width="1.3333333333333333"/><line x1="451.0280482154882" y1="7.333333333333333" x2="451.0280482154882" y2="340.0" stroke="#ffffff" stroke-width="1.3333333333333333"/><line x1="537.6835903030303" y1="7.333333333333333" x2="537.6835903030303" y2="340.0" stroke="#ffffff" stroke-width="1.3333333333333333"/><line x1="46.346666666666664" y1="295.8471343331296" x2="561.0805866666666" y2="295.8471343331296" stroke="#ffffff" stroke-width="0.6666666666666666"/><line x1="46.346666666666664" y1="201.573827823273" x2="561.0805866666666" y2="201.573827823273" stroke="#ffffff" stroke-width="0.6666666666666666"/><line x1="46.346666666666664" y1="107.30052131341638" x2="561.0805866666666" y2="107.30052131341638" stroke="#ffffff" stroke-width="0.6666666666666666"/><line x1="46.346666666666664" y1="13.027214803559824" x2="561.0805866666666" y2="13.027214803559824" stroke="#ffffff" stroke-width="0.6666666666666666"/><line x1="46.346666666666664" y1="248.7104810782013" x2="561.0805866666666" y2="248.7104810782013" stroke="#ffffff" stroke-width="1.3333333333333333"/><line x1="46.346666666666664" y1="154.4371745683447" x2="561.0805866666666" y2="154.4371745683447" stroke="#ffffff" stroke-width="1.3333333333333333"/><line x1="46.346666666666664" y1="60.163868058488106" x2="561.0805866666666" y2="60.163868058488106" stroke="#ffffff" stroke-width="1.3333333333333333"/><line x1="104.40587986531985" y1="340.0" x2="104.40587986531985" y2="343.66666666666663" stroke="#333333" stroke-width="1.3333333333333333"/><text x="104.40587986531985" y="355.9866666666667" fill="#4d4d4d" font-size="11.733333333333334" font-family="sans-serif" text-anchor="middle">2</text><line x1="191.06142195286193" y1="340.0" x2="191.06142195286193" y2="343.66666666666663" stroke="#333333" stroke-width="1.3333333333333333"/><text x="191.06142195286193" y="355.9866666666667" fill="#4d4d4d" font-size="11.733333333333334" font-family="sans-serif" text-anchor="middle">3</text><line x1="277.71696404040404" y1="340.0" x2="277.71696404040404" y2="343.66666666666663" stroke="#333333" stroke-width="1.3333333333333333"/><text x="277.71696404040404" y="355.9866666666667" fill="#4d4d4d" font-size="11.733333333333334" font-family="sans-serif" text-anchor="middle">4</text><line x1="364.3725061279461" y1="340.0" x2="364.3725061279461" y2="343.66666666666663" stroke="#333333" stroke-width="1.3333333333333333"/><text x="364.3725061279461" y="355.9866666666667" fill="#4d4d4d" font-size="11.733333333333334" font-family="sans-serif" text-anchor="middle">5</text><line x1="451.0280482154882" y1="340.0" x2="451.0280482154882" y2="343.66666666666663" stroke="#333333" stroke-width="1.3333333333333333"/><text x="451.0280482154882" y="355.9866666666667" fill="#4d4d4d" font-size="11.733333333333334" font-family="sans-serif" text-anchor="middle">6</text><line x1="537.6835903030303" y1="340.0" x2="537.6835903030303" y2="343.66666666666663" stroke="#333333" stroke-width="1.3333333333333333"/><text x="537.6835903030303" y="355.9866666666667" fill="#4d4d4d" font-size="11.733333333333334" font-family="sans-serif" text-anchor="middle">7</text><line x1="46.346666666666664" y1="248.7104810782013" x2="42.67999999999999" y2="248.7104810782013" stroke="#333333" stroke-width="1.3333333333333333"/><text x="39.74666666666666" y="252.81714774486798" fill="#4d4d4d" font-size="11.733333333333334" font-family="sans-serif" text-anchor="end">20</text><line x1="46.346666666666664" y1="154.4371745683447" x2="42.67999999999999" y2="154.4371745683447" stroke="#333333" stroke-width="1.3333333333333333"/><text x="39.74666666666666" y="158.54384123501137" fill="#4d4d4d" font-size="11.733333333333334" font-family="sans-serif" text-anchor="end">30</text><line x1="46.346666666666664" y1="60.163868058488106" x2="42.67999999999999" y2="60.163868058488106" stroke="#333333" stroke-width="1.3333333333333333"/><text x="39.74666666666666" y="64.27053472515476" fill="#4d4d4d" font-size="11.733333333333334" font-family="sans-serif" text-anchor="end">40</text><text x="303.71362666666664" y="373.73333333333335" fill="#000000" font-size="14.666666666666666" font-family="sans-serif" text-anchor="middle">displ</text><text x="17.599999999999998" y="173.66666666666666" fill="#000000" font-size="14.666666666666666" font-family="sans-serif" text-anchor="middle" transform="rotate(-90.0 17.599999999999998 173.66666666666666)">hwy</text><circle cx="87.07477144781144" cy="163.86450521933037" r="3.1181102362204727" fill="#00BA38" fill-opacity="0.9" stroke="none"><title>(1.8, 29)</title></circle><circle cx="87.07477144781144" cy="163.86450521933037" r="3.1181102362204727" fill="#00BA38" fill-opacity="0.9" stroke="none"><title>(1.8, 29)</title></circle><circle cx="104.40587986531985" cy="145.00984391735906" r="3.1181102362204727" fill="#00BA38" fill-opacity="0.9" stroke="none"><title>(2, 31)</title></circle><circle cx="104.40587986531985" cy="154.4371745683447" r="3.1181102362204727" fill="#00BA38" fill-opacity="0.9" stroke="none"><title>(2, 30)</title></circle><circle cx="173.7303135353535" cy="192.14649717228735" r="3.1181102362204727" fill="#00BA38" fill-opacity="0.9" stroke="none"><title>(2.8, 26)</title></circle><circle cx="173.7303135353535" cy="192.14649717228735" r="3.1181102362204727" fill="#00BA38" fill-opacity="0.9" stroke="none"><title>(2.8, 26)</title></circle><circle cx="199.72697616161616" cy="182.71916652130167" r="3.1181102362204727" fill="#00BA38" fill-opacity="0.9" stroke="none"><title>(3.1, 27)</title></circle><circle cx="87.07477144781144" cy="192.14649717228735" r="3.1181102362204727" fill="#F8766D" fill-opacity="0.9" stroke="none"><title>(1.8, 26)</title></circle><circle cx="87.07477144781144" cy="201.573827823273" r="3.1181102362204727" fill="#F8766D" fill-opacity="0.9" stroke="none"><title>(1.8, 25)</title></circle><circle cx="104.40587986531985" cy="173.291835870316" r="3.1181102362204727" fill="#F8766D" fill-opacity="0.9" stroke="none"><title>(2, 28)</title></circle><circle cx="104.40587986531985" cy="182.71916652130167" r="3.1181102362204727" fill="#F8766D" fill-opacity="0.9" stroke="none"><title>(2, 27)</title></circle><circle cx="173.7303135353535" cy="201.573827823273" r="3.1181102362204727" fill="#F8766D" fill-opacity="0.9" stroke="none"><title>(2.8, 25)</title></circle><circle cx="173.7303135353535" cy="201.573827823273" r="3.1181102362204727" fill="#F8766D" fill-opacity="0.9" stroke="none"><title>(2.8, 25)</title></circle><circle cx="199.72697616161616" cy="201.573827823273" r="3.1181102362204727" fill="#F8766D" fill-opacity="0.9" stroke="none"><title>(3.1, 25)</title></circle><circle cx="199.72697616161616" cy="201.573827823273" r="3.1181102362204727" fill="#F8766D" fill-opacity="0.9" stroke="none"><title>(3.1, 25)</title></circle><circle cx="173.7303135353535" cy="211.00115847425866" r="3.1181102362204727" fill="#F8766D" fill-opacity="0.9" stroke="none"><title>(2.8, 24)</title></circle><circle cx="199.72697616161616" cy="201.573827823273" r="3.1181102362204727" fill="#F8766D" fill-opacity="0.9" stroke="none"><title>(3.1, 25)</title></circle><circle cx="295.04807245791244" cy="220.4284891252443" r="3.1181102362204727" fill="#F8766D" fill-opacity="0.9" stroke="none"><title>(4.2, 23)</title></circle><circle cx="390.3691687542087" cy="248.7104810782013" r="3.1181102362204727" fill="#619CFF" fill-opacity="0.9" stroke="none"><title>(5.3, 20)</title></circle><circle cx="390.3691687542087" cy="295.8471343331296" r="3.1181102362204727" fill="#619CFF" fill-opacity="0.9" stroke="none"><title>(5.3, 15)</title></circle><circle cx="390.3691687542087" cy="248.7104810782013" r="3.1181102362204727" fill="#619CFF" fill-opacity="0.9" stroke="none"><title>(5.3, 20)</title></circle><circle cx="425.0313855892255" cy="276.9924730311583" r="3.1181102362204727" fill="#619CFF" fill-opacity="0.9" stroke="none"><title>(5.7, 17)</title></circle><circle cx="451.0280482154882" cy="276.9924730311583" r="3.1181102362204727" fill="#619CFF" fill-opacity="0.9" stroke="none"><title>(6, 17)</title></circle><circle cx="425.0313855892255" cy="192.14649717228735" r="3.1181102362204727" fill="#619CFF" fill-opacity="0.9" stroke="none"><title>(5.7, 26)</title></circle><circle cx="425.0313855892255" cy="220.4284891252443" r="3.1181102362204727" fill="#619CFF" fill-opacity="0.9" stroke="none"><title>(5.7, 23)</title></circle><circle cx="468.3591566329966" cy="192.14649717228735" r="3.1181102362204727" fill="#619CFF" fill-opacity="0.9" stroke="none"><title>(6.2, 26)</title></circle><circle cx="468.3591566329966" cy="201.573827823273" r="3.1181102362204727" fill="#619CFF" fill-opacity="0.9" stroke="none"><title>(6.2, 25)</title></circle><circle cx="537.6835903030303" cy="211.00115847425866" r="3.1181102362204727" fill="#619CFF" fill-opacity="0.9" stroke="none"><title>(7, 24)</title></circle><circle cx="390.3691687542087" cy="258.137811729187" r="3.1181102362204727" fill="#F8766D" fill-opacity="0.9" stroke="none"><title>(5.3, 19)</title></circle><circle cx="390.3691687542087" cy="305.27446498411524" r="3.1181102362204727" fill="#F8766D" fill-opacity="0.9" stroke="none"><title>(5.3, 14)</title></circle><circle cx="425.0313855892255" cy="295.8471343331296" r="3.1181102362204727" fill="#F8766D" fill-opacity="0.9" stroke="none"><title>(5.7, 15)</title></circle><circle cx="494.3558192592593" cy="276.9924730311583" r="3.1181102362204727" fill="#F8766D" fill-opacity="0.9" stroke="none"><title>(6.5, 17)</title></circle><circle cx="139.0680967003367" cy="182.71916652130167" r="3.1181102362204727" fill="#00BA38" fill-opacity="0.9" stroke="none"><title>(2.4, 27)</title></circle><circle cx="139.0680967003367" cy="154.4371745683447" r="3.1181102362204727" fill="#00BA38" fill-opacity="0.9" stroke="none"><title>(2.4, 30)</title></circle><circle cx="199.72697616161616" cy="192.14649717228735" r="3.1181102362204727" fill="#00BA38" fill-opacity="0.9" stroke="none"><title>(3.1, 26)</title></circle><circle cx="234.38919299663297" cy="163.86450521933037" r="3.1181102362204727" fill="#00BA38" fill-opacity="0.9" stroke="none"><title>(3.5, 29)</title></circle><circle cx="243.05474720538717" cy="192.14649717228735" r="3.1181102362204727" fill="#00BA38" fill-opacity="0.9" stroke="none"><title>(3.6, 26)</title></circle><circle cx="139.0680967003367" cy="211.00115847425866" r="3.1181102362204727" fill="#00BA38" fill-opacity="0.9" stroke="none"><title>(2.4, 24)</title></circle><circle cx="191.06142195286193" cy="211.00115847425866" r="3.1181102362204727" fill="#00BA38" fill-opacity="0.9" stroke="none"><title>(3, 24)</title></circle><circle cx="217.05808457912454" cy="229.85581977622996" r="3.1181102362204727" fill="#00BA38" fill-opacity="0.9" stroke="none"><title>(3.3, 22)</title></circle><circle cx="217.05808457912454" cy="229.85581977622996" r="3.1181102362204727" fill="#00BA38" fill-opacity="0.9" stroke="none"><title>(3.3, 22)</title></circle><circle cx="217.05808457912454" cy="211.00115847425866" r="3.1181102362204727" fill="#00BA38" fill-opacity="0.9" stroke="none"><title>(3.3, 24)</title></circle><circle cx="217.05808457912454" cy="211.00115847425866" r="3.1181102362204727" fill="#00BA38" fill-opacity="0.9" stroke="none"><title>(3.3, 24)</title></circle><circle cx="217.05808457912454" cy="276.9924730311583" r="3.1181102362204727" fill="#00BA38" fill-opacity="0.9" stroke="none"><title>(3.3, 17)</title></circle><circle cx="260.3858556228956" cy="229.85581977622996" r="3.1181102362204727" fill="#00BA38" fill-opacity="0.9" stroke="none"><title>(3.8, 22)</title></circle><circle cx="260.3858556228956" cy="239.28315042721562" r="3.1181102362204727" fill="#00BA38" fill-opacity="0.9" stroke="none"><title>(3.8, 21)</title></circle><circle cx="260.3858556228956" cy="220.4284891252443" r="3.1181102362204727" fill="#00BA38" fill-opacity="0.9" stroke="none"><title>(3.8, 23)</title></circle><circle cx="277.71696404040404" cy="220.4284891252443" r="3.1181102362204727" fill="#00BA38" fill-opacity="0.9" stroke="none"><title>(4, 23)</title></circle><circle cx="251.72030141414143" cy="258.137811729187" r="3.1181102362204727" fill="#F8766D" fill-opacity="0.9" stroke="none"><title>(3.7, 19)</title></circle><circle cx="251.72030141414143" cy="267.5651423801726" r="3.1181102362204727" fill="#F8766D" fill-opacity="0.9" stroke="none"><title>(3.7, 18)</title></circle><circle cx="269.05140983164983" cy="276.9924730311583" r="3.1181102362204727" fill="#F8766D" fill-opacity="0.9" stroke="none"><title>(3.9, 17)</title></circle><circle cx="269.05140983164983" cy="276.9924730311583" r="3.1181102362204727" fill="#F8766D" fill-opacity="0.9" stroke="none"><title>(3.9, 17)</title></circle><circle cx="338.37584350168345" cy="258.137811729187" r="3.1181102362204727" fill="#F8766D" fill-opacity="0.9" stroke="none"><title>(4.7, 19)</title></circle><circle cx="338.37584350168345" cy="258.137811729187" r="3.1181102362204727" fill="#F8766D" fill-opacity="0.9" stroke="none"><title>(4.7, 19)</title></circle><circle cx="338.37584350168345" cy="324.1291262860866" r="3.1181102362204727" fill="#F8766D" fill-opacity="0.9" stroke="none"><title>(4.7, 12)</title></circle><circle cx="381.70361454545457" cy="276.9924730311583" r="3.1181102362204727" fill="#F8766D" fill-opacity="0.9" stroke="none"><title>(5.2, 17)</title></circle><circle cx="381.70361454545457" cy="295.8471343331296" r="3.1181102362204727" fill="#F8766D" fill-opacity="0.9" stroke="none"><title>(5.2, 15)</title></circle><circle cx="269.05140983164983" cy="276.9924730311583" r="3.1181102362204727" fill="#F8766D" fill-opacity="0.9" stroke="none"><title>(3.9, 17)</title></circle><circle cx="338.37584350168345" cy="276.9924730311583" r="3.1181102362204727" fill="#F8766D" fill-opacity="0.9" stroke="none"><title>(4.7, 17)</title></circle><circle cx="338.37584350168345" cy="324.1291262860866" r="3.1181102362204727" fill="#F8766D" fill-opacity="0.9" stroke="none"><title>(4.7, 12)</title></circle><circle cx="338.37584350168345" cy="276.9924730311583" r="3.1181102362204727" fill="#F8766D" fill-opacity="0.9" stroke="none"><title>(4.7, 17)</title></circle><circle cx="381.70361454545457" cy="286.41980368214394" r="3.1181102362204727" fill="#F8766D" fill-opacity="0.9" stroke="none"><title>(5.2, 16)</title></circle><circle cx="425.0313855892255" cy="267.5651423801726" r="3.1181102362204727" fill="#F8766D" fill-opacity="0.9" stroke="none"><title>(5.7, 18)</title></circle><circle cx="442.362494006734" cy="295.8471343331296" r="3.1181102362204727" fill="#F8766D" fill-opacity="0.9" stroke="none"><title>(5.9, 15)</title></circle><circle cx="338.37584350168345" cy="286.41980368214394" r="3.1181102362204727" fill="#F8766D" fill-opacity="0.9" stroke="none"><title>(4.7, 16)</title></circle><circle cx="338.37584350168345" cy="324.1291262860866" r="3.1181102362204727" fill="#F8766D" fill-opacity="0.9" stroke="none"><title>(4.7, 12)</title></circle><circle cx="338.37584350168345" cy="276.9924730311583" r="3.1181102362204727" fill="#F8766D" fill-opacity="0.9" stroke="none"><title>(4.7, 17)</title></circle><circle cx="338.37584350168345" cy="276.9924730311583" r="3.1181102362204727" fill="#F8766D" fill-opacity="0.9" stroke="none"><title>(4.7, 17)</title></circle><circle cx="338.37584350168345" cy="286.41980368214394" r="3.1181102362204727" fill="#F8766D" fill-opacity="0.9" stroke="none"><title>(4.7, 16)</title></circle><circle cx="338.37584350168345" cy="324.1291262860866" r="3.1181102362204727" fill="#F8766D" fill-opacity="0.9" stroke="none"><title>(4.7, 12)</title></circle><circle cx="381.70361454545457" cy="295.8471343331296" r="3.1181102362204727" fill="#F8766D" fill-opacity="0.9" stroke="none"><title>(5.2, 15)</title></circle><circle cx="381.70361454545457" cy="286.41980368214394" r="3.1181102362204727" fill="#F8766D" fill-opacity="0.9" stroke="none"><title>(5.2, 16)</title></circle><circle cx="425.0313855892255" cy="276.9924730311583" r="3.1181102362204727" fill="#F8766D" fill-opacity="0.9" stroke="none"><title>(5.7, 17)</title></circle><circle cx="442.362494006734" cy="295.8471343331296" r="3.1181102362204727" fill="#F8766D" fill-opacity="0.9" stroke="none"><title>(5.9, 15)</title></circle><circle cx="329.71028929292925" cy="276.9924730311583" r="3.1181102362204727" fill="#619CFF" fill-opacity="0.9" stroke="none"><title>(4.6, 17)</title></circle><circle cx="399.034722962963" cy="276.9924730311583" r="3.1181102362204727" fill="#619CFF" fill-opacity="0.9" stroke="none"><title>(5.4, 17)</title></circle><circle cx="399.034722962963" cy="267.5651423801726" r="3.1181102362204727" fill="#619CFF" fill-opacity="0.9" stroke="none"><title>(5.4, 18)</title></circle><circle cx="277.71696404040404" cy="276.9924730311583" r="3.1181102362204727" fill="#F8766D" fill-opacity="0.9" stroke="none"><title>(4, 17)</title></circle><circle cx="277.71696404040404" cy="258.137811729187" r="3.1181102362204727" fill="#F8766D" fill-opacity="0.9" stroke="none"><title>(4, 19)</title></circle><circle cx="277.71696404040404" cy="276.9924730311583" r="3.1181102362204727" fill="#F8766D" fill-opacity="0.9" stroke="none"><title>(4, 17)</title></circle><circle cx="277.71696404040404" cy="258.137811729187" r="3.1181102362204727" fill="#F8766D" fill-opacity="0.9" stroke="none"><title>(4, 19)</title></circle><circle cx="329.71028929292925" cy="258.137811729187" r="3.1181102362204727" fill="#F8766D" fill-opacity="0.9" stroke="none"><title>(4.6, 19)</title></circle><circle cx="364.3725061279461" cy="276.9924730311583" r="3.1181102362204727" fill="#F8766D" fill-opacity="0.9" stroke="none"><title>(5, 17)</title></circle><circle cx="295.04807245791244" cy="276.9924730311583" r="3.1181102362204727" fill="#F8766D" fill-opacity="0.9" stroke="none"><title>(4.2, 17)</title></circle><circle cx="295.04807245791244" cy="276.9924730311583" r="3.1181102362204727" fill="#F8766D" fill-opacity="0.9" stroke="none"><title>(4.2, 17)</title></circle><circle cx="329.71028929292925" cy="286.41980368214394" r="3.1181102362204727" fill="#F8766D" fill-opacity="0.9" stroke="none"><title>(4.6, 16)</title></circle><circle cx="329.71028929292925" cy="286.41980368214394" r="3.1181102362204727" fill="#F8766D" fill-opacity="0.9" stroke="none"><title>(4.6, 16)</title></circle><circle cx="329.71028929292925" cy="276.9924730311583" r="3.1181102362204727" fill="#F8766D" fill-opacity="0.9" stroke="none"><title>(4.6, 17)</title></circle><circle cx="399.034722962963" cy="295.8471343331296" r="3.1181102362204727" fill="#F8766D" fill-opacity="0.9" stroke="none"><title>(5.4, 15)</title></circle><circle cx="399.034722962963" cy="276.9924730311583" r="3.1181102362204727" fill="#F8766D" fill-opacity="0.9" stroke="none"><title>(5.4, 17)</title></circle><circle cx="260.3858556228956" cy="192.14649717228735" r="3.1181102362204727" fill="#619CFF" fill-opacity="0.9" stroke="none"><title>(3.8, 26)</title></circle><circle cx="260.3858556228956" cy="201.573827823273" r="3.1181102362204727" fill="#619CFF" fill-opacity="0.9" stroke="none"><title>(3.8, 25)</title></circle><circle cx="277.71696404040404" cy="192.14649717228735" r="3.1181102362204727" fill="#619CFF" fill-opacity="0.9" stroke="none"><title>(4, 26)</title></circle><circle cx="277.71696404040404" cy="211.00115847425866" r="3.1181102362204727" fill="#619CFF" fill-opacity="0.9" stroke="none"><title>(4, 24)</title></circle><circle cx="329.71028929292925" cy="239.28315042721562" r="3.1181102362204727" fill="#619CFF" fill-opacity="0.9" stroke="none"><title>(4.6, 21)</title></circle><circle cx="329.71028929292925" cy="229.85581977622996" r="3.1181102362204727" fill="#619CFF" fill-opacity="0.9" stroke="none"><title>(4.6, 22)</title></circle><circle cx="329.71028929292925" cy="220.4284891252443" r="3.1181102362204727" fill="#619CFF" fill-opacity="0.9" stroke="none"><title>(4.6, 23)</title></circle><circle cx="329.71028929292925" cy="229.85581977622996" r="3.1181102362204727" fill="#619CFF" fill-opacity="0.9" stroke="none"><title>(4.6, 22)</title></circle><circle cx="399.034722962963" cy="248.7104810782013" r="3.1181102362204727" fill="#619CFF" fill-opacity="0.9" stroke="none"><title>(5.4, 20)</title></circle><circle cx="69.74366303030303" cy="126.15518261538773" r="3.1181102362204727" fill="#00BA38" fill-opacity="0.9" stroke="none"><title>(1.6, 33)</title></circle><circle cx="69.74366303030303" cy="135.58251326637338" r="3.1181102362204727" fill="#00BA38" fill-opacity="0.9" stroke="none"><title>(1.6, 32)</title></circle><circle cx="69.74366303030303" cy="135.58251326637338" r="3.1181102362204727" fill="#00BA38" fill-opacity="0.9" stroke="none"><title>(1.6, 32)</title></circle><circle cx="69.74366303030303" cy="163.86450521933037" r="3.1181102362204727" fill="#00BA38" fill-opacity="0.9" stroke="none"><title>(1.6, 29)</title></circle><circle cx="69.74366303030303" cy="135.58251326637338" r="3.1181102362204727" fill="#00BA38" fill-opacity="0.9" stroke="none"><title>(1.6, 32)</title></circle><circle cx="87.07477144781144" cy="116.72785196440209" r="3.1181102362204727" fill="#00BA38" fill-opacity="0.9" stroke="none"><title>(1.8, 34)</title></circle><circle cx="87.07477144781144" cy="97.87319066243074" r="3.1181102362204727" fill="#00BA38" fill-opacity="0.9" stroke="none"><title>(1.8, 36)</title></circle><circle cx="87.07477144781144" cy="97.87319066243074" r="3.1181102362204727" fill="#00BA38" fill-opacity="0.9" stroke="none"><title>(1.8, 36)</title></circle><circle cx="104.40587986531985" cy="163.86450521933037" r="3.1181102362204727" fill="#00BA38" fill-opacity="0.9" stroke="none"><title>(2, 29)</title></circle><circle cx="139.0680967003367" cy="192.14649717228735" r="3.1181102362204727" fill="#00BA38" fill-opacity="0.9" stroke="none"><title>(2.4, 26)</title></circle><circle cx="139.0680967003367" cy="182.71916652130167" r="3.1181102362204727" fill="#00BA38" fill-opacity="0.9" stroke="none"><title>(2.4, 27)</title></circle><circle cx="139.0680967003367" cy="154.4371745683447" r="3.1181102362204727" fill="#00BA38" fill-opacity="0.9" stroke="none"><title>(2.4, 30)</title></circle><circle cx="139.0680967003367" cy="145.00984391735906" r="3.1181102362204727" fill="#00BA38" fill-opacity="0.9" stroke="none"><title>(2.4, 31)</title></circle><circle cx="147.7336509090909" cy="192.14649717228735" r="3.1181102362204727" fill="#00BA38" fill-opacity="0.9" stroke="none"><title>(2.5, 26)</title></circle><circle cx="147.7336509090909" cy="192.14649717228735" r="3.1181102362204727" fill="#00BA38" fill-opacity="0.9" stroke="none"><title>(2.5, 26)</title></circle><circle cx="217.05808457912454" cy="173.291835870316" r="3.1181102362204727" fill="#00BA38" fill-opacity="0.9" stroke="none"><title>(3.3, 28)</title></circle><circle cx="104.40587986531985" cy="192.14649717228735" r="3.1181102362204727" fill="#00BA38" fill-opacity="0.9" stroke="none"><title>(2, 26)</title></circle><circle cx="104.40587986531985" cy="163.86450521933037" r="3.1181102362204727" fill="#00BA38" fill-opacity="0.9" stroke="none"><title>(2, 29)</title></circle><circle cx="104.40587986531985" cy="173.291835870316" r="3.1181102362204727" fill="#00BA38" fill-opacity="0.9" stroke="none"><title>(2, 28)</title></circle><circle cx="104.40587986531985" cy="182.71916652130167" r="3.1181102362204727" fill="#00BA38" fill-opacity="0.9" stroke="none"><title>(2, 27)</title></circle><circle cx="165.06475932659933" cy="211.00115847425866" r="3.1181102362204727" fill="#00BA38" fill-opacity="0.9" stroke="none"><title>(2.7, 24)</title></circle><circle cx="165.06475932659933" cy="211.00115847425866" r="3.1181102362204727" fill="#00BA38" fill-opacity="0.9" stroke="none"><title>(2.7, 24)</title></circle><circle cx="165.06475932659933" cy="211.00115847425866" r="3.1181102362204727" fill="#00BA38" fill-opacity="0.9" stroke="none"><title>(2.7, 24)</title></circle><circle cx="191.06142195286193" cy="229.85581977622996" r="3.1181102362204727" fill="#F8766D" fill-opacity="0.9" stroke="none"><title>(3, 22)</title></circle><circle cx="251.72030141414143" cy="258.137811729187" r="3.1181102362204727" fill="#F8766D" fill-opacity="0.9" stroke="none"><title>(3.7, 19)</title></circle><circle cx="277.71696404040404" cy="248.7104810782013" r="3.1181102362204727" fill="#F8766D" fill-opacity="0.9" stroke="none"><title>(4, 20)</title></circle><circle cx="338.37584350168345" cy="276.9924730311583" r="3.1181102362204727" fill="#F8766D" fill-opacity="0.9" stroke="none"><title>(4.7, 17)</title></circle><circle cx="338.37584350168345" cy="324.1291262860866" r="3.1181102362204727" fill="#F8766D" fill-opacity="0.9" stroke="none"><title>(4.7, 12)</title></circle><circle cx="338.37584350168345" cy="258.137811729187" r="3.1181102362204727" fill="#F8766D" fill-opacity="0.9" stroke="none"><title>(4.7, 19)</title></circle><circle cx="425.0313855892255" cy="267.5651423801726" r="3.1181102362204727" fill="#F8766D" fill-opacity="0.9" stroke="none"><title>(5.7, 18)</title></circle><circle cx="459.69360242424233" cy="305.27446498411524" r="3.1181102362204727" fill="#F8766D" fill-opacity="0.9" stroke="none"><title>(6.1, 14)</title></circle><circle cx="277.71696404040404" cy="295.8471343331296" r="3.1181102362204727" fill="#F8766D" fill-opacity="0.9" stroke="none"><title>(4, 15)</title></circle><circle cx="295.04807245791244" cy="267.5651423801726" r="3.1181102362204727" fill="#F8766D" fill-opacity="0.9" stroke="none"><title>(4.2, 18)</title></circle><circle cx="312.3791808754209" cy="267.5651423801726" r="3.1181102362204727" fill="#F8766D" fill-opacity="0.9" stroke="none"><title>(4.4, 18)</title></circle><circle cx="329.71028929292925" cy="295.8471343331296" r="3.1181102362204727" fill="#F8766D" fill-opacity="0.9" stroke="none"><title>(4.6, 15)</title></circle><circle cx="399.034722962963" cy="276.9924730311583" r="3.1181102362204727" fill="#619CFF" fill-opacity="0.9" stroke="none"><title>(5.4, 17)</title></circle><circle cx="399.034722962963" cy="286.41980368214394" r="3.1181102362204727" fill="#619CFF" fill-opacity="0.9" stroke="none"><title>(5.4, 16)</title></circle><circle cx="399.034722962963" cy="267.5651423801726" r="3.1181102362204727" fill="#619CFF" fill-opacity="0.9" stroke="none"><title>(5.4, 18)</title></circle><circle cx="277.71696404040404" cy="276.9924730311583" r="3.1181102362204727" fill="#F8766D" fill-opacity="0.9" stroke="none"><title>(4, 17)</title></circle><circle cx="277.71696404040404" cy="258.137811729187" r="3.1181102362204727" fill="#F8766D" fill-opacity="0.9" stroke="none"><title>(4, 19)</title></circle><circle cx="329.71028929292925" cy="258.137811729187" r="3.1181102362204727" fill="#F8766D" fill-opacity="0.9" stroke="none"><title>(4.6, 19)</title></circle><circle cx="364.3725061279461" cy="276.9924730311583" r="3.1181102362204727" fill="#F8766D" fill-opacity="0.9" stroke="none"><title>(5, 17)</title></circle><circle cx="139.0680967003367" cy="163.86450521933037" r="3.1181102362204727" fill="#00BA38" fill-opacity="0.9" stroke="none"><title>(2.4, 29)</title></circle><circle cx="139.0680967003367" cy="182.71916652130167" r="3.1181102362204727" fill="#00BA38" fill-opacity="0.9" stroke="none"><title>(2.4, 27)</title></circle><circle cx="147.7336509090909" cy="145.00984391735906" r="3.1181102362204727" fill="#00BA38" fill-opacity="0.9" stroke="none"><title>(2.5, 31)</title></circle><circle cx="147.7336509090909" cy="135.58251326637338" r="3.1181102362204727" fill="#00BA38" fill-opacity="0.9" stroke="none"><title>(2.5, 32)</title></circle><circle cx="234.38919299663297" cy="182.71916652130167" r="3.1181102362204727" fill="#00BA38" fill-opacity="0.9" stroke="none"><title>(3.5, 27)</title></circle><circle cx="234.38919299663297" cy="192.14649717228735" r="3.1181102362204727" fill="#00BA38" fill-opacity="0.9" stroke="none"><title>(3.5, 26)</title></circle><circle cx="191.06142195286193" cy="192.14649717228735" r="3.1181102362204727" fill="#00BA38" fill-opacity="0.9" stroke="none"><title>(3, 26)</title></circle><circle cx="191.06142195286193" cy="201.573827823273" r="3.1181102362204727" fill="#00BA38" fill-opacity="0.9" stroke="none"><title>(3, 25)</title></circle><circle cx="234.38919299663297" cy="201.573827823273" r="3.1181102362204727" fill="#00BA38" fill-opacity="0.9" stroke="none"><title>(3.5, 25)</title></circle><circle cx="217.05808457912454" cy="276.9924730311583" r="3.1181102362204727" fill="#F8766D" fill-opacity="0.9" stroke="none"><title>(3.3, 17)</title></circle><circle cx="217.05808457912454" cy="276.9924730311583" r="3.1181102362204727" fill="#F8766D" fill-opacity="0.9" stroke="none"><title>(3.3, 17)</title></circle><circle cx="277.71696404040404" cy="248.7104810782013" r="3.1181102362204727" fill="#F8766D" fill-opacity="0.9" stroke="none"><title>(4, 20)</title></circle><circle cx="416.3658313804713" cy="267.5651423801726" r="3.1181102362204727" fill="#F8766D" fill-opacity="0.9" stroke="none"><title>(5.6, 18)</title></circle><circle cx="199.72697616161616" cy="192.14649717228735" r="3.1181102362204727" fill="#00BA38" fill-opacity="0.9" stroke="none"><title>(3.1, 26)</title></circle><circle cx="260.3858556228956" cy="192.14649717228735" r="3.1181102362204727" fill="#00BA38" fill-opacity="0.9" stroke="none"><title>(3.8, 26)</title></circle><circle cx="260.3858556228956" cy="182.71916652130167" r="3.1181102362204727" fill="#00BA38" fill-opacity="0.9" stroke="none"><title>(3.8, 27)</title></circle><circle cx="260.3858556228956" cy="173.291835870316" r="3.1181102362204727" fill="#00BA38" fill-opacity="0.9" stroke="none"><title>(3.8, 28)</title></circle><circle cx="390.3691687542087" cy="201.573827823273" r="3.1181102362204727" fill="#00BA38" fill-opacity="0.9" stroke="none"><title>(5.3, 25)</title></circle><circle cx="147.7336509090909" cy="201.573827823273" r="3.1181102362204727" fill="#F8766D" fill-opacity="0.9" stroke="none"><title>(2.5, 25)</title></circle><circle cx="147.7336509090909" cy="211.00115847425866" r="3.1181102362204727" fill="#F8766D" fill-opacity="0.9" stroke="none"><title>(2.5, 24)</title></circle><circle cx="147.7336509090909" cy="182.71916652130167" r="3.1181102362204727" fill="#F8766D" fill-opacity="0.9" stroke="none"><title>(2.5, 27)</title></circle><circle cx="147.7336509090909" cy="201.573827823273" r="3.1181102362204727" fill="#F8766D" fill-opacity="0.9" stroke="none"><title>(2.5, 25)</title></circle><circle cx="147.7336509090909" cy="192.14649717228735" r="3.1181102362204727" fill="#F8766D" fill-opacity="0.9" stroke="none"><title>(2.5, 26)</title></circle><circle cx="147.7336509090909" cy="220.4284891252443" r="3.1181102362204727" fill="#F8766D" fill-opacity="0.9" stroke="none"><title>(2.5, 23)</title></circle><circle cx="121.73698828282829" cy="192.14649717228735" r="3.1181102362204727" fill="#F8766D" fill-opacity="0.9" stroke="none"><title>(2.2, 26)</title></circle><circle cx="121.73698828282829" cy="192.14649717228735" r="3.1181102362204727" fill="#F8766D" fill-opacity="0.9" stroke="none"><title>(2.2, 26)</title></circle><circle cx="147.7336509090909" cy="192.14649717228735" r="3.1181102362204727" fill="#F8766D" fill-opacity="0.9" stroke="none"><title>(2.5, 26)</title></circle><circle cx="147.7336509090909" cy="192.14649717228735" r="3.1181102362204727" fill="#F8766D" fill-opacity="0.9" stroke="none"><title>(2.5, 26)</title></circle><circle cx="147.7336509090909" cy="201.573827823273" r="3.1181102362204727" fill="#F8766D" fill-opacity="0.9" stroke="none"><title>(2.5, 25)</title></circle><circle cx="147.7336509090909" cy="182.71916652130167" r="3.1181102362204727" fill="#F8766D" fill-opacity="0.9" stroke="none"><title>(2.5, 27)</title></circle><circle cx="147.7336509090909" cy="201.573827823273" r="3.1181102362204727" fill="#F8766D" fill-opacity="0.9" stroke="none"><title>(2.5, 25)</title></circle><circle cx="147.7336509090909" cy="182.71916652130167" r="3.1181102362204727" fill="#F8766D" fill-opacity="0.9" stroke="none"><title>(2.5, 27)</title></circle><circle cx="165.06475932659933" cy="248.7104810782013" r="3.1181102362204727" fill="#F8766D" fill-opacity="0.9" stroke="none"><title>(2.7, 20)</title></circle><circle cx="165.06475932659933" cy="248.7104810782013" r="3.1181102362204727" fill="#F8766D" fill-opacity="0.9" stroke="none"><title>(2.7, 20)</title></circle><circle cx="225.72363878787877" cy="258.137811729187" r="3.1181102362204727" fill="#F8766D" fill-opacity="0.9" stroke="none"><title>(3.4, 19)</title></circle><circle cx="225.72363878787877" cy="276.9924730311583" r="3.1181102362204727" fill="#F8766D" fill-opacity="0.9" stroke="none"><title>(3.4, 17)</title></circle><circle cx="277.71696404040404" cy="248.7104810782013" r="3.1181102362204727" fill="#F8766D" fill-opacity="0.9" stroke="none"><title>(4, 20)</title></circle><circle cx="338.37584350168345" cy="276.9924730311583" r="3.1181102362204727" fill="#F8766D" fill-opacity="0.9" stroke="none"><title>(4.7, 17)</title></circle><circle cx="121.73698828282829" cy="163.86450521933037" r="3.1181102362204727" fill="#00BA38" fill-opacity="0.9" stroke="none"><title>(2.2, 29)</title></circle><circle cx="121.73698828282829" cy="182.71916652130167" r="3.1181102362204727" fill="#00BA38" fill-opacity="0.9" stroke="none"><title>(2.2, 27)</title></circle><circle cx="139.0680967003367" cy="145.00984391735906" r="3.1181102362204727" fill="#00BA38" fill-opacity="0.9" stroke="none"><title>(2.4, 31)</title></circle><circle cx="139.0680967003367" cy="145.00984391735906" r="3.1181102362204727" fill="#00BA38" fill-opacity="0.9" stroke="none"><title>(2.4, 31)</title></circle><circle cx="191.06142195286193" cy="192.14649717228735" r="3.1181102362204727" fill="#00BA38" fill-opacity="0.9" stroke="none"><title>(3, 26)</title></circle><circle cx="191.06142195286193" cy="192.14649717228735" r="3.1181102362204727" fill="#00BA38" fill-opacity="0.9" stroke="none"><title>(3, 26)</title></circle><circle cx="234.38919299663297" cy="173.291835870316" r="3.1181102362204727" fill="#00BA38" fill-opacity="0.9" stroke="none"><title>(3.5, 28)</title></circle><circle cx="121.73698828282829" cy="182.71916652130167" r="3.1181102362204727" fill="#00BA38" fill-opacity="0.9" stroke="none"><title>(2.2, 27)</title></circle><circle cx="121.73698828282829" cy="163.86450521933037" r="3.1181102362204727" fill="#00BA38" fill-opacity="0.9" stroke="none"><title>(2.2, 29)</title></circle><circle cx="139.0680967003367" cy="145.00984391735906" r="3.1181102362204727" fill="#00BA38" fill-opacity="0.9" stroke="none"><title>(2.4, 31)</title></circle><circle cx="139.0680967003367" cy="145.00984391735906" r="3.1181102362204727" fill="#00BA38" fill-opacity="0.9" stroke="none"><title>(2.4, 31)</title></circle><circle cx="191.06142195286193" cy="192.14649717228735" r="3.1181102362204727" fill="#00BA38" fill-opacity="0.9" stroke="none"><title>(3, 26)</title></circle><circle cx="191.06142195286193" cy="192.14649717228735" r="3.1181102362204727" fill="#00BA38" fill-opacity="0.9" stroke="none"><title>(3, 26)</title></circle><circle cx="217.05808457912454" cy="182.71916652130167" r="3.1181102362204727" fill="#00BA38" fill-opacity="0.9" stroke="none"><title>(3.3, 27)</title></circle><circle cx="87.07477144781144" cy="154.4371745683447" r="3.1181102362204727" fill="#00BA38" fill-opacity="0.9" stroke="none"><title>(1.8, 30)</title></circle><circle cx="87.07477144781144" cy="126.15518261538773" r="3.1181102362204727" fill="#00BA38" fill-opacity="0.9" stroke="none"><title>(1.8, 33)</title></circle><circle cx="87.07477144781144" cy="107.30052131341638" r="3.1181102362204727" fill="#00BA38" fill-opacity="0.9" stroke="none"><title>(1.8, 35)</title></circle><circle cx="87.07477144781144" cy="88.44586001144508" r="3.1181102362204727" fill="#00BA38" fill-opacity="0.9" stroke="none"><title>(1.8, 37)</title></circle><circle cx="87.07477144781144" cy="107.30052131341638" r="3.1181102362204727" fill="#00BA38" fill-opacity="0.9" stroke="none"><title>(1.8, 35)</title></circle><circle cx="338.37584350168345" cy="295.8471343331296" r="3.1181102362204727" fill="#F8766D" fill-opacity="0.9" stroke="none"><title>(4.7, 15)</title></circle><circle cx="425.0313855892255" cy="267.5651423801726" r="3.1181102362204727" fill="#F8766D" fill-opacity="0.9" stroke="none"><title>(5.7, 18)</title></circle><circle cx="165.06475932659933" cy="248.7104810782013" r="3.1181102362204727" fill="#F8766D" fill-opacity="0.9" stroke="none"><title>(2.7, 20)</title></circle><circle cx="165.06475932659933" cy="248.7104810782013" r="3.1181102362204727" fill="#F8766D" fill-opacity="0.9" stroke="none"><title>(2.7, 20)</title></circle><circle cx="165.06475932659933" cy="229.85581977622996" r="3.1181102362204727" fill="#F8766D" fill-opacity="0.9" stroke="none"><title>(2.7, 22)</title></circle><circle cx="225.72363878787877" cy="276.9924730311583" r="3.1181102362204727" fill="#F8766D" fill-opacity="0.9" stroke="none"><title>(3.4, 17)</title></circle><circle cx="225.72363878787877" cy="258.137811729187" r="3.1181102362204727" fill="#F8766D" fill-opacity="0.9" stroke="none"><title>(3.4, 19)</title></circle><circle cx="277.71696404040404" cy="267.5651423801726" r="3.1181102362204727" fill="#F8766D" fill-opacity="0.9" stroke="none"><title>(4, 18)</title></circle><circle cx="277.71696404040404" cy="248.7104810782013" r="3.1181102362204727" fill="#F8766D" fill-opacity="0.9" stroke="none"><title>(4, 20)</title></circle><circle cx="104.40587986531985" cy="163.86450521933037" r="3.1181102362204727" fill="#00BA38" fill-opacity="0.9" stroke="none"><title>(2, 29)</title></circle><circle cx="104.40587986531985" cy="192.14649717228735" r="3.1181102362204727" fill="#00BA38" fill-opacity="0.9" stroke="none"><title>(2, 26)</title></circle><circle cx="104.40587986531985" cy="163.86450521933037" r="3.1181102362204727" fill="#00BA38" fill-opacity="0.9" stroke="none"><title>(2, 29)</title></circle><circle cx="104.40587986531985" cy="163.86450521933037" r="3.1181102362204727" fill="#00BA38" fill-opacity="0.9" stroke="none"><title>(2, 29)</title></circle><circle cx="173.7303135353535" cy="211.00115847425866" r="3.1181102362204727" fill="#00BA38" fill-opacity="0.9" stroke="none"><title>(2.8, 24)</title></circle><circle cx="95.74032565656564" cy="22.454545454545496" r="3.1181102362204727" fill="#00BA38" fill-opacity="0.9" stroke="none"><title>(1.9, 44)</title></circle><circle cx="104.40587986531985" cy="163.86450521933037" r="3.1181102362204727" fill="#00BA38" fill-opacity="0.9" stroke="none"><title>(2, 29)</title></circle><circle cx="104.40587986531985" cy="192.14649717228735" r="3.1181102362204727" fill="#00BA38" fill-opacity="0.9" stroke="none"><title>(2, 26)</title></circle><circle cx="104.40587986531985" cy="163.86450521933037" r="3.1181102362204727" fill="#00BA38" fill-opacity="0.9" stroke="none"><title>(2, 29)</title></circle><circle cx="104.40587986531985" cy="163.86450521933037" r="3.1181102362204727" fill="#00BA38" fill-opacity="0.9" stroke="none"><title>(2, 29)</title></circle><circle cx="147.7336509090909" cy="163.86450521933037" r="3.1181102362204727" fill="#00BA38" fill-opacity="0.9" stroke="none"><title>(2.5, 29)</title></circle><circle cx="147.7336509090909" cy="163.86450521933037" r="3.1181102362204727" fill="#00BA38" fill-opacity="0.9" stroke="none"><title>(2.5, 29)</title></circle><circle cx="173.7303135353535" cy="220.4284891252443" r="3.1181102362204727" fill="#00BA38" fill-opacity="0.9" stroke="none"><title>(2.8, 23)</title></circle><circle cx="173.7303135353535" cy="211.00115847425866" r="3.1181102362204727" fill="#00BA38" fill-opacity="0.9" stroke="none"><title>(2.8, 24)</title></circle><circle cx="95.74032565656564" cy="22.454545454545496" r="3.1181102362204727" fill="#00BA38" fill-opacity="0.9" stroke="none"><title>(1.9, 44)</title></circle><circle cx="95.74032565656564" cy="50.73653740750243" r="3.1181102362204727" fill="#00BA38" fill-opacity="0.9" stroke="none"><title>(1.9, 41)</title></circle><circle cx="104.40587986531985" cy="163.86450521933037" r="3.1181102362204727" fill="#00BA38" fill-opacity="0.9" stroke="none"><title>(2, 29)</title></circle><circle cx="104.40587986531985" cy="192.14649717228735" r="3.1181102362204727" fill="#00BA38" fill-opacity="0.9" stroke="none"><title>(2, 26)</title></circle><circle cx="147.7336509090909" cy="173.291835870316" r="3.1181102362204727" fill="#00BA38" fill-opacity="0.9" stroke="none"><title>(2.5, 28)</title></circle><circle cx="147.7336509090909" cy="163.86450521933037" r="3.1181102362204727" fill="#00BA38" fill-opacity="0.9" stroke="none"><title>(2.5, 29)</title></circle><circle cx="87.07477144781144" cy="163.86450521933037" r="3.1181102362204727" fill="#00BA38" fill-opacity="0.9" stroke="none"><title>(1.8, 29)</title></circle><circle cx="87.07477144781144" cy="163.86450521933037" r="3.1181102362204727" fill="#00BA38" fill-opacity="0.9" stroke="none"><title>(1.8, 29)</title></circle><circle cx="104.40587986531985" cy="173.291835870316" r="3.1181102362204727" fill="#00BA38" fill-opacity="0.9" stroke="none"><title>(2, 28)</title></circle><circle cx="104.40587986531985" cy="163.86450521933037" r="3.1181102362204727" fill="#00BA38" fill-opacity="0.9" stroke="none"><title>(2, 29)</title></circle><circle cx="173.7303135353535" cy="192.14649717228735" r="3.1181102362204727" fill="#00BA38" fill-opacity="0.9" stroke="none"><title>(2.8, 26)</title></circle><circle cx="173.7303135353535" cy="192.14649717228735" r="3.1181102362204727" fill="#00BA38" fill-opacity="0.9" stroke="none"><title>(2.8, 26)</title></circle><circle cx="243.05474720538717" cy="192.14649717228735" r="3.1181102362204727" fill="#00BA38" fill-opacity="0.9" stroke="none"><title>(3.6, 26)</title></circle><path d="M 87.07477144781144 222.4351128605987 L 87.07477144781144 222.4351128605987 L 104.40587986531985 196.93663474974363 L 104.40587986531985 196.93663474974363 L 121.73698828282829 197.41312557599235 L 121.73698828282829 197.41312557599235 L 147.7336509090909 210.6411535386773 L 147.7336509090909 210.6411535386773 L 147.7336509090909 210.6411535386773 L 147.7336509090909 210.6411535386773 L 147.7336509090909 210.6411535386773 L 147.7336509090909 210.6411535386773 L 147.7336509090909 210.6411535386773 L 147.7336509090909 210.6411535386773 L 147.7336509090909 210.6411535386773 L 147.7336509090909 210.6411535386773 L 147.7336509090909 210.6411535386773 L 147.7336509090909 210.6411535386773 L 165.06475932659933 226.66011370132452 L 165.06475932659933 226.66011370132452 L 165.06475932659933 226.66011370132452 L 165.06475932659933 226.66011370132452 L 165.06475932659933 226.66011370132452 L 173.7303135353535 234.74714626464302 L 173.7303135353535 234.74714626464302 L 173.7303135353535 234.74714626464302 L 191.06142195286193 247.09241036990935 L 199.72697616161616 251.51086143558717 L 199.72697616161616 251.51086143558717 L 199.72697616161616 251.51086143558717 L 217.05808457912454 258.1479059606661 L 217.05808457912454 258.1479059606661 L 225.72363878787877 260.943983679696 L 225.72363878787877 260.943983679696 L 225.72363878787877 260.943983679696 L 225.72363878787877 260.943983679696 L 251.72030141414143 268.96497248020125 L 251.72030141414143 268.96497248020125 L 251.72030141414143 268.96497248020125 L 269.05140983164983 273.5285463034123 L 269.05140983164983 273.5285463034123 L 269.05140983164983 273.5285463034123 L 277.71696404040404 275.5552621993199 L 277.71696404040404 275.5552621993199 L 277.71696404040404 275.5552621993199 L 277.71696404040404 275.5552621993199 L 277.71696404040404 275.5552621993199 L 277.71696404040404 275.5552621993199 L 277.71696404040404 275.5552621993199 L 277.71696404040404 275.5552621993199 L 277.71696404040404 275.5552621993199 L 277.71696404040404 275.5552621993199 L 277.71696404040404 275.5552621993199 L 277.71696404040404 275.5552621993199 L 295.04807245791244 280.599411527637 L 295.04807245791244 280.599411527637 L 295.04807245791244 280.599411527637 L 295.04807245791244 280.599411527637 L 312.3791808754209 286.86732706334743 L 329.71028929292925 290.6668669218649 L 329.71028929292925 290.6668669218649 L 329.71028929292925 290.6668669218649 L 329.71028929292925 290.6668669218649 L 329.71028929292925 290.6668669218649 L 329.71028929292925 290.6668669218649 L 338.37584350168345 291.31466533356473 L 338.37584350168345 291.31466533356473 L 338.37584350168345 291.31466533356473 L 338.37584350168345 291.31466533356473 L 338.37584350168345 291.31466533356473 L 338.37584350168345 291.31466533356473 L 338.37584350168345 291.31466533356473 L 338.37584350168345 291.31466533356473 L 338.37584350168345 291.31466533356473 L 338.37584350168345 291.31466533356473 L 338.37584350168345 291.31466533356473 L 338.37584350168345 291.31466533356473 L 338.37584350168345 291.31466533356473 L 338.37584350168345 291.31466533356473 L 338.37584350168345 291.31466533356473 L 338.37584350168345 291.31466533356473 L 338.37584350168345 291.31466533356473 L 364.3725061279461 297.17324250804506 L 364.3725061279461 297.17324250804506 L 381.70361454545457 297.8773690678288 L 381.70361454545457 297.8773690678288 L 381.70361454545457 297.8773690678288 L 381.70361454545457 297.8773690678288 L 381.70361454545457 297.8773690678288 L 390.3691687542087 296.77610672876773 L 390.3691687542087 296.77610672876773 L 399.034722962963 295.4433315252484 L 399.034722962963 295.4433315252484 L 416.3658313804713 294.49414021257337 L 425.0313855892255 295.24881474134895 L 425.0313855892255 295.24881474134895 L 425.0313855892255 295.24881474134895 L 425.0313855892255 295.24881474134895 L 425.0313855892255 295.24881474134895 L 442.362494006734 297.706595326425 L 442.362494006734 297.706595326425 L 459.69360242424233 300.32882919208475 L 494.3558192592593 324.8787878787879 L 494.3558192592593 248.7074759561313 L 459.69360242424233 264.18915034137166 L 442.362494006734 266.867482792402 L 442.362494006734 266.867482792402 L 425.0313855892255 271.13071214984205 L 425.0313855892255 271.13071214984205 L 425.0313855892255 271.13071214984205 L 425.0313855892255 271.13071214984205 L 425.0313855892255 271.13071214984205 L 416.3658313804713 273.136896219983 L 399.034722962963 274.7738519705261 L 399.034722962963 274.7738519705261 L 390.3691687542087 274.52993735690853 L 390.3691687542087 274.52993735690853 L 381.70361454545457 274.21754235864313 L 381.70361454545457 274.21754235864313 L 381.70361454545457 274.21754235864313 L 381.70361454545457 274.21754235864313 L 381.70361454545457 274.21754235864313 L 364.3725061279461 275.10786998879706 L 364.3725061279461 275.10786998879706 L 338.37584350168345 276.3031679932378 L 338.37584350168345 276.3031679932378 L 338.37584350168345 276.3031679932378 L 338.37584350168345 276.3031679932378 L 338.37584350168345 276.3031679932378 L 338.37584350168345 276.3031679932378 L 338.37584350168345 276.3031679932378 L 338.37584350168345 276.3031679932378 L 338.37584350168345 276.3031679932378 L 338.37584350168345 276.3031679932378 L 338.37584350168345 276.3031679932378 L 338.37584350168345 276.3031679932378 L 338.37584350168345 276.3031679932378 L 338.37584350168345 276.3031679932378 L 338.37584350168345 276.3031679932378 L 338.37584350168345 276.3031679932378 L 338.37584350168345 276.3031679932378 L 329.71028929292925 273.8793819825495 L 329.71028929292925 273.8793819825495 L 329.71028929292925 273.8793819825495 L 329.71028929292925 273.8793819825495 L 329.71028929292925 273.8793819825495 L 329.71028929292925 273.8793819825495 L 312.3791808754209 269.3005650479896 L 295.04807245791244 265.2212314168507 L 295.04807245791244 265.2212314168507 L 295.04807245791244 265.2212314168507 L 295.04807245791244 265.2212314168507 L 277.71696404040404 259.2715782359651 L 277.71696404040404 259.2715782359651 L 277.71696404040404 259.2715782359651 L 277.71696404040404 259.2715782359651 L 277.71696404040404 259.2715782359651 L 277.71696404040404 259.2715782359651 L 277.71696404040404 259.2715782359651 L 277.71696404040404 259.2715782359651 L 277.71696404040404 259.2715782359651 L 277.71696404040404 259.2715782359651 L 277.71696404040404 259.2715782359651 L 277.71696404040404 259.2715782359651 L 269.05140983164983 255.972166321207 L 269.05140983164983 255.972166321207 L 269.05140983164983 255.972166321207 L 251.72030141414143 250.5734579938993 L 251.72030141414143 250.5734579938993 L 251.72030141414143 250.5734579938993 L 225.72363878787877 242.77621774280328 L 225.72363878787877 242.77621774280328 L 225.72363878787877 242.77621774280328 L 225.72363878787877 242.77621774280328 L 217.05808457912454 239.2933344717028 L 217.05808457912454 239.2933344717028 L 199.72697616161616 230.70372542805995 L 199.72697616161616 230.70372542805995 L 199.72697616161616 230.70372542805995 L 191.06142195286193 225.78801570545806 L 173.7303135353535 215.05711970210535 L 173.7303135353535 215.05711970210535 L 173.7303135353535 215.05711970210535 L 165.06475932659933 209.01568473539604 L 165.06475932659933 209.01568473539604 L 165.06475932659933 209.01568473539604 L 165.06475932659933 209.01568473539604 L 165.06475932659933 209.01568473539604 L 147.7336509090909 192.7926956190248 L 147.7336509090909 192.7926956190248 L 147.7336509090909 192.7926956190248 L 147.7336509090909 192.7926956190248 L 147.7336509090909 192.7926956190248 L 147.7336509090909 192.7926956190248 L 147.7336509090909 192.7926956190248 L 147.7336509090909 192.7926956190248 L 147.7336509090909 192.7926956190248 L 147.7336509090909 192.7926956190248 L 147.7336509090909 192.7926956190248 L 147.7336509090909 192.7926956190248 L 121.73698828282829 167.7672721454983 L 121.73698828282829 167.7672721454983 L 104.40587986531985 166.1436109420506 L 104.40587986531985 166.1436109420506 L 87.07477144781144 170.59670042870795 L 87.07477144781144 170.59670042870795 Z" fill="#F8766D" fill-opacity="0.2" stroke="none"/><line x1="87.07477144781144" y1="196.51590664465334" x2="87.07477144781144" y2="196.51590664465334" stroke="#F8766D" stroke-width="2.8459842519685044"/><line x1="87.07477144781144" y1="196.51590664465334" x2="104.40587986531985" y2="181.5401228458971" stroke="#F8766D" stroke-width="2.8459842519685044"/><line x1="104.40587986531985" y1="181.5401228458971" x2="104.40587986531985" y2="181.5401228458971" stroke="#F8766D" stroke-width="2.8459842519685044"/><line x1="104.40587986531985" y1="181.5401228458971" x2="121.73698828282829" y2="182.59019886074535" stroke="#F8766D" stroke-width="2.8459842519685044"/><line x1="121.73698828282829" y1="182.59019886074535" x2="121.73698828282829" y2="182.59019886074535" stroke="#F8766D" stroke-width="2.8459842519685044"/><line x1="121.73698828282829" y1="182.59019886074535" x2="147.7336509090909" y2="201.71692457885106" stroke="#F8766D" stroke-width="2.8459842519685044"/><line x1="147.7336509090909" y1="201.71692457885106" x2="147.7336509090909" y2="201.71692457885106" stroke="#F8766D" stroke-width="2.8459842519685044"/><line x1="147.7336509090909" y1="201.71692457885106" x2="147.7336509090909" y2="201.71692457885106" stroke="#F8766D" stroke-width="2.8459842519685044"/><line x1="147.7336509090909" y1="201.71692457885106" x2="147.7336509090909" y2="201.71692457885106" stroke="#F8766D" stroke-width="2.8459842519685044"/><line x1="147.7336509090909" y1="201.71692457885106" x2="147.7336509090909" y2="201.71692457885106" stroke="#F8766D" stroke-width="2.8459842519685044"/><line x1="147.7336509090909" y1="201.71692457885106" x2="147.7336509090909" y2="201.71692457885106" stroke="#F8766D" stroke-width="2.8459842519685044"/><line x1="147.7336509090909" y1="201.71692457885106" x2="147.7336509090909" y2="201.71692457885106" stroke="#F8766D" stroke-width="2.8459842519685044"/><line x1="147.7336509090909" y1="201.71692457885106" x2="147.7336509090909" y2="201.71692457885106" stroke="#F8766D" stroke-width="2.8459842519685044"/><line x1="147.7336509090909" y1="201.71692457885106" x2="147.7336509090909" y2="201.71692457885106" stroke="#F8766D" stroke-width="2.8459842519685044"/><line x1="147.7336509090909" y1="201.71692457885106" x2="147.7336509090909" y2="201.71692457885106" stroke="#F8766D" stroke-width="2.8459842519685044"/><line x1="147.7336509090909" y1="201.71692457885106" x2="147.7336509090909" y2="201.71692457885106" stroke="#F8766D" stroke-width="2.8459842519685044"/><line x1="147.7336509090909" y1="201.71692457885106" x2="147.7336509090909" y2="201.71692457885106" stroke="#F8766D" stroke-width="2.8459842519685044"/><line x1="147.7336509090909" y1="201.71692457885106" x2="165.06475932659933" y2="217.83789921836026" stroke="#F8766D" stroke-width="2.8459842519685044"/><line x1="165.06475932659933" y1="217.83789921836026" x2="165.06475932659933" y2="217.83789921836026" stroke="#F8766D" stroke-width="2.8459842519685044"/><line x1="165.06475932659933" y1="217.83789921836026" x2="165.06475932659933" y2="217.83789921836026" stroke="#F8766D" stroke-width="2.8459842519685044"/><line x1="165.06475932659933" y1="217.83789921836026" x2="165.06475932659933" y2="217.83789921836026" stroke="#F8766D" stroke-width="2.8459842519685044"/><line x1="165.06475932659933" y1="217.83789921836026" x2="165.06475932659933" y2="217.83789921836026" stroke="#F8766D" stroke-width="2.8459842519685044"/><line x1="165.06475932659933" y1="217.83789921836026" x2="173.7303135353535" y2="224.90213298337417" stroke="#F8766D" stroke-width="2.8459842519685044"/><line x1="173.7303135353535" y1="224.90213298337417" x2="173.7303135353535" y2="224.90213298337417" stroke="#F8766D" stroke-width="2.8459842519685044"/><line x1="173.7303135353535" y1="224.90213298337417" x2="173.7303135353535" y2="224.90213298337417" stroke="#F8766D" stroke-width="2.8459842519685044"/><line x1="173.7303135353535" y1="224.90213298337417" x2="191.06142195286193" y2="236.4402130376837" stroke="#F8766D" stroke-width="2.8459842519685044"/><line x1="191.06142195286193" y1="236.4402130376837" x2="199.72697616161616" y2="241.10729343182356" stroke="#F8766D" stroke-width="2.8459842519685044"/><line x1="199.72697616161616" y1="241.10729343182356" x2="199.72697616161616" y2="241.10729343182356" stroke="#F8766D" stroke-width="2.8459842519685044"/><line x1="199.72697616161616" y1="241.10729343182356" x2="199.72697616161616" y2="241.10729343182356" stroke="#F8766D" stroke-width="2.8459842519685044"/><line x1="199.72697616161616" y1="241.10729343182356" x2="217.05808457912454" y2="248.72062021618444" stroke="#F8766D" stroke-width="2.8459842519685044"/><line x1="217.05808457912454" y1="248.72062021618444" x2="217.05808457912454" y2="248.72062021618444" stroke="#F8766D" stroke-width="2.8459842519685044"/><line x1="217.05808457912454" y1="248.72062021618444" x2="225.72363878787877" y2="251.86010071124966" stroke="#F8766D" stroke-width="2.8459842519685044"/><line x1="225.72363878787877" y1="251.86010071124966" x2="225.72363878787877" y2="251.86010071124966" stroke="#F8766D" stroke-width="2.8459842519685044"/><line x1="225.72363878787877" y1="251.86010071124966" x2="225.72363878787877" y2="251.86010071124966" stroke="#F8766D" stroke-width="2.8459842519685044"/><line x1="225.72363878787877" y1="251.86010071124966" x2="225.72363878787877" y2="251.86010071124966" stroke="#F8766D" stroke-width="2.8459842519685044"/><line x1="225.72363878787877" y1="251.86010071124966" x2="251.72030141414143" y2="259.7692152370503" stroke="#F8766D" stroke-width="2.8459842519685044"/><line x1="251.72030141414143" y1="259.7692152370503" x2="251.72030141414143" y2="259.7692152370503" stroke="#F8766D" stroke-width="2.8459842519685044"/><line x1="251.72030141414143" y1="259.7692152370503" x2="251.72030141414143" y2="259.7692152370503" stroke="#F8766D" stroke-width="2.8459842519685044"/><line x1="251.72030141414143" y1="259.7692152370503" x2="269.05140983164983" y2="264.7503563123097" stroke="#F8766D" stroke-width="2.8459842519685044"/><line x1="269.05140983164983" y1="264.7503563123097" x2="269.05140983164983" y2="264.7503563123097" stroke="#F8766D" stroke-width="2.8459842519685044"/><line x1="269.05140983164983" y1="264.7503563123097" x2="269.05140983164983" y2="264.7503563123097" stroke="#F8766D" stroke-width="2.8459842519685044"/><line x1="269.05140983164983" y1="264.7503563123097" x2="277.71696404040404" y2="267.4134202176425" stroke="#F8766D" stroke-width="2.8459842519685044"/><line x1="277.71696404040404" y1="267.4134202176425" x2="277.71696404040404" y2="267.4134202176425" stroke="#F8766D" stroke-width="2.8459842519685044"/><line x1="277.71696404040404" y1="267.4134202176425" x2="277.71696404040404" y2="267.4134202176425" stroke="#F8766D" stroke-width="2.8459842519685044"/><line x1="277.71696404040404" y1="267.4134202176425" x2="277.71696404040404" y2="267.4134202176425" stroke="#F8766D" stroke-width="2.8459842519685044"/><line x1="277.71696404040404" y1="267.4134202176425" x2="277.71696404040404" y2="267.4134202176425" stroke="#F8766D" stroke-width="2.8459842519685044"/><line x1="277.71696404040404" y1="267.4134202176425" x2="277.71696404040404" y2="267.4134202176425" stroke="#F8766D" stroke-width="2.8459842519685044"/><line x1="277.71696404040404" y1="267.4134202176425" x2="277.71696404040404" y2="267.4134202176425" stroke="#F8766D" stroke-width="2.8459842519685044"/><line x1="277.71696404040404" y1="267.4134202176425" x2="277.71696404040404" y2="267.4134202176425" stroke="#F8766D" stroke-width="2.8459842519685044"/><line x1="277.71696404040404" y1="267.4134202176425" x2="277.71696404040404" y2="267.4134202176425" stroke="#F8766D" stroke-width="2.8459842519685044"/><line x1="277.71696404040404" y1="267.4134202176425" x2="277.71696404040404" y2="267.4134202176425" stroke="#F8766D" stroke-width="2.8459842519685044"/><line x1="277.71696404040404" y1="267.4134202176425" x2="277.71696404040404" y2="267.4134202176425" stroke="#F8766D" stroke-width="2.8459842519685044"/><line x1="277.71696404040404" y1="267.4134202176425" x2="277.71696404040404" y2="267.4134202176425" stroke="#F8766D" stroke-width="2.8459842519685044"/><line x1="277.71696404040404" y1="267.4134202176425" x2="295.04807245791244" y2="272.9103214722438" stroke="#F8766D" stroke-width="2.8459842519685044"/><line x1="295.04807245791244" y1="272.9103214722438" x2="295.04807245791244" y2="272.9103214722438" stroke="#F8766D" stroke-width="2.8459842519685044"/><line x1="295.04807245791244" y1="272.9103214722438" x2="295.04807245791244" y2="272.9103214722438" stroke="#F8766D" stroke-width="2.8459842519685044"/><line x1="295.04807245791244" y1="272.9103214722438" x2="295.04807245791244" y2="272.9103214722438" stroke="#F8766D" stroke-width="2.8459842519685044"/><line x1="295.04807245791244" y1="272.9103214722438" x2="312.3791808754209" y2="278.08394605566855" stroke="#F8766D" stroke-width="2.8459842519685044"/><line x1="312.3791808754209" y1="278.08394605566855" x2="329.71028929292925" y2="282.2731244522072" stroke="#F8766D" stroke-width="2.8459842519685044"/><line x1="329.71028929292925" y1="282.2731244522072" x2="329.71028929292925" y2="282.2731244522072" stroke="#F8766D" stroke-width="2.8459842519685044"/><line x1="329.71028929292925" y1="282.2731244522072" x2="329.71028929292925" y2="282.2731244522072" stroke="#F8766D" stroke-width="2.8459842519685044"/><line x1="329.71028929292925" y1="282.2731244522072" x2="329.71028929292925" y2="282.2731244522072" stroke="#F8766D" stroke-width="2.8459842519685044"/><line x1="329.71028929292925" y1="282.2731244522072" x2="329.71028929292925" y2="282.2731244522072" stroke="#F8766D" stroke-width="2.8459842519685044"/><line x1="329.71028929292925" y1="282.2731244522072" x2="329.71028929292925" y2="282.2731244522072" stroke="#F8766D" stroke-width="2.8459842519685044"/><line x1="329.71028929292925" y1="282.2731244522072" x2="338.37584350168345" y2="283.80891666340125" stroke="#F8766D" stroke-width="2.8459842519685044"/><line x1="338.37584350168345" y1="283.80891666340125" x2="338.37584350168345" y2="283.80891666340125" stroke="#F8766D" stroke-width="2.8459842519685044"/><line x1="338.37584350168345" y1="283.80891666340125" x2="338.37584350168345" y2="283.80891666340125" stroke="#F8766D" stroke-width="2.8459842519685044"/><line x1="338.37584350168345" y1="283.80891666340125" x2="338.37584350168345" y2="283.80891666340125" stroke="#F8766D" stroke-width="2.8459842519685044"/><line x1="338.37584350168345" y1="283.80891666340125" x2="338.37584350168345" y2="283.80891666340125" stroke="#F8766D" stroke-width="2.8459842519685044"/><line x1="338.37584350168345" y1="283.80891666340125" x2="338.37584350168345" y2="283.80891666340125" stroke="#F8766D" stroke-width="2.8459842519685044"/><line x1="338.37584350168345" y1="283.80891666340125" x2="338.37584350168345" y2="283.80891666340125" stroke="#F8766D" stroke-width="2.8459842519685044"/><line x1="338.37584350168345" y1="283.80891666340125" x2="338.37584350168345" y2="283.80891666340125" stroke="#F8766D" stroke-width="2.8459842519685044"/><line x1="338.37584350168345" y1="283.80891666340125" x2="338.37584350168345" y2="283.80891666340125" stroke="#F8766D" stroke-width="2.8459842519685044"/><line x1="338.37584350168345" y1="283.80891666340125" x2="338.37584350168345" y2="283.80891666340125" stroke="#F8766D" stroke-width="2.8459842519685044"/><line x1="338.37584350168345" y1="283.80891666340125" x2="338.37584350168345" y2="283.80891666340125" stroke="#F8766D" stroke-width="2.8459842519685044"/><line x1="338.37584350168345" y1="283.80891666340125" x2="338.37584350168345" y2="283.80891666340125" stroke="#F8766D" stroke-width="2.8459842519685044"/><line x1="338.37584350168345" y1="283.80891666340125" x2="338.37584350168345" y2="283.80891666340125" stroke="#F8766D" stroke-width="2.8459842519685044"/><line x1="338.37584350168345" y1="283.80891666340125" x2="338.37584350168345" y2="283.80891666340125" stroke="#F8766D" stroke-width="2.8459842519685044"/><line x1="338.37584350168345" y1="283.80891666340125" x2="338.37584350168345" y2="283.80891666340125" stroke="#F8766D" stroke-width="2.8459842519685044"/><line x1="338.37584350168345" y1="283.80891666340125" x2="338.37584350168345" y2="283.80891666340125" stroke="#F8766D" stroke-width="2.8459842519685044"/><line x1="338.37584350168345" y1="283.80891666340125" x2="338.37584350168345" y2="283.80891666340125" stroke="#F8766D" stroke-width="2.8459842519685044"/><line x1="338.37584350168345" y1="283.80891666340125" x2="364.3725061279461" y2="286.1405562484211" stroke="#F8766D" stroke-width="2.8459842519685044"/><line x1="364.3725061279461" y1="286.1405562484211" x2="364.3725061279461" y2="286.1405562484211" stroke="#F8766D" stroke-width="2.8459842519685044"/><line x1="364.3725061279461" y1="286.1405562484211" x2="381.70361454545457" y2="286.04745571323593" stroke="#F8766D" stroke-width="2.8459842519685044"/><line x1="381.70361454545457" y1="286.04745571323593" x2="381.70361454545457" y2="286.04745571323593" stroke="#F8766D" stroke-width="2.8459842519685044"/><line x1="381.70361454545457" y1="286.04745571323593" x2="381.70361454545457" y2="286.04745571323593" stroke="#F8766D" stroke-width="2.8459842519685044"/><line x1="381.70361454545457" y1="286.04745571323593" x2="381.70361454545457" y2="286.04745571323593" stroke="#F8766D" stroke-width="2.8459842519685044"/><line x1="381.70361454545457" y1="286.04745571323593" x2="381.70361454545457" y2="286.04745571323593" stroke="#F8766D" stroke-width="2.8459842519685044"/><line x1="381.70361454545457" y1="286.04745571323593" x2="390.3691687542087" y2="285.65302204283813" stroke="#F8766D" stroke-width="2.8459842519685044"/><line x1="390.3691687542087" y1="285.65302204283813" x2="390.3691687542087" y2="285.65302204283813" stroke="#F8766D" stroke-width="2.8459842519685044"/><line x1="390.3691687542087" y1="285.65302204283813" x2="399.034722962963" y2="285.10859174788726" stroke="#F8766D" stroke-width="2.8459842519685044"/><line x1="399.034722962963" y1="285.10859174788726" x2="399.034722962963" y2="285.10859174788726" stroke="#F8766D" stroke-width="2.8459842519685044"/><line x1="399.034722962963" y1="285.10859174788726" x2="416.3658313804713" y2="283.8155182162782" stroke="#F8766D" stroke-width="2.8459842519685044"/><line x1="416.3658313804713" y1="283.8155182162782" x2="425.0313855892255" y2="283.18976344559553" stroke="#F8766D" stroke-width="2.8459842519685044"/><line x1="425.0313855892255" y1="283.18976344559553" x2="425.0313855892255" y2="283.18976344559553" stroke="#F8766D" stroke-width="2.8459842519685044"/><line x1="425.0313855892255" y1="283.18976344559553" x2="425.0313855892255" y2="283.18976344559553" stroke="#F8766D" stroke-width="2.8459842519685044"/><line x1="425.0313855892255" y1="283.18976344559553" x2="425.0313855892255" y2="283.18976344559553" stroke="#F8766D" stroke-width="2.8459842519685044"/><line x1="425.0313855892255" y1="283.18976344559553" x2="425.0313855892255" y2="283.18976344559553" stroke="#F8766D" stroke-width="2.8459842519685044"/><line x1="425.0313855892255" y1="283.18976344559553" x2="442.362494006734" y2="282.2870390594135" stroke="#F8766D" stroke-width="2.8459842519685044"/><line x1="442.362494006734" y1="282.2870390594135" x2="442.362494006734" y2="282.2870390594135" stroke="#F8766D" stroke-width="2.8459842519685044"/><line x1="442.362494006734" y1="282.2870390594135" x2="459.69360242424233" y2="282.2589897667282" stroke="#F8766D" stroke-width="2.8459842519685044"/><line x1="459.69360242424233" y1="282.2589897667282" x2="494.3558192592593" y2="286.79313191745956" stroke="#F8766D" stroke-width="2.8459842519685044"/><path d="M 69.74366303030303 168.45645008970897 L 69.74366303030303 168.45645008970897 L 69.74366303030303 168.45645008970897 L 69.74366303030303 168.45645008970897 L 69.74366303030303 168.45645008970897 L 87.07477144781144 131.67966518335814 L 87.07477144781144 131.67966518335814 L 87.07477144781144 131.67966518335814 L 87.07477144781144 131.67966518335814 L 87.07477144781144 131.67966518335814 L 87.07477144781144 131.67966518335814 L 87.07477144781144 131.67966518335814 L 87.07477144781144 131.67966518335814 L 87.07477144781144 131.67966518335814 L 87.07477144781144 131.67966518335814 L 87.07477144781144 131.67966518335814 L 87.07477144781144 131.67966518335814 L 95.74032565656564 150.9187690264513 L 95.74032565656564 150.9187690264513 L 95.74032565656564 150.9187690264513 L 104.40587986531985 173.55123724681647 L 104.40587986531985 173.55123724681647 L 104.40587986531985 173.55123724681647 L 104.40587986531985 173.55123724681647 L 104.40587986531985 173.55123724681647 L 104.40587986531985 173.55123724681647 L 104.40587986531985 173.55123724681647 L 104.40587986531985 173.55123724681647 L 104.40587986531985 173.55123724681647 L 104.40587986531985 173.55123724681647 L 104.40587986531985 173.55123724681647 L 104.40587986531985 173.55123724681647 L 104.40587986531985 173.55123724681647 L 104.40587986531985 173.55123724681647 L 104.40587986531985 173.55123724681647 L 104.40587986531985 173.55123724681647 L 104.40587986531985 173.55123724681647 L 104.40587986531985 173.55123724681647 L 104.40587986531985 173.55123724681647 L 121.73698828282829 178.40288399743213 L 121.73698828282829 178.40288399743213 L 121.73698828282829 178.40288399743213 L 121.73698828282829 178.40288399743213 L 139.0680967003367 181.84857469047557 L 139.0680967003367 181.84857469047557 L 139.0680967003367 181.84857469047557 L 139.0680967003367 181.84857469047557 L 139.0680967003367 181.84857469047557 L 139.0680967003367 181.84857469047557 L 139.0680967003367 181.84857469047557 L 139.0680967003367 181.84857469047557 L 139.0680967003367 181.84857469047557 L 139.0680967003367 181.84857469047557 L 139.0680967003367 181.84857469047557 L 139.0680967003367 181.84857469047557 L 139.0680967003367 181.84857469047557 L 147.7336509090909 188.8670260945467 L 147.7336509090909 188.8670260945467 L 147.7336509090909 188.8670260945467 L 147.7336509090909 188.8670260945467 L 147.7336509090909 188.8670260945467 L 147.7336509090909 188.8670260945467 L 147.7336509090909 188.8670260945467 L 147.7336509090909 188.8670260945467 L 165.06475932659933 204.3746628748898 L 165.06475932659933 204.3746628748898 L 165.06475932659933 204.3746628748898 L 173.7303135353535 207.91340562107467 L 173.7303135353535 207.91340562107467 L 173.7303135353535 207.91340562107467 L 173.7303135353535 207.91340562107467 L 173.7303135353535 207.91340562107467 L 173.7303135353535 207.91340562107467 L 173.7303135353535 207.91340562107467 L 191.06142195286193 210.66474944945048 L 191.06142195286193 210.66474944945048 L 191.06142195286193 210.66474944945048 L 191.06142195286193 210.66474944945048 L 191.06142195286193 210.66474944945048 L 191.06142195286193 210.66474944945048 L 191.06142195286193 210.66474944945048 L 199.72697616161616 212.29774339151345 L 199.72697616161616 212.29774339151345 L 199.72697616161616 212.29774339151345 L 217.05808457912454 215.79919720331273 L 217.05808457912454 215.79919720331273 L 217.05808457912454 215.79919720331273 L 217.05808457912454 215.79919720331273 L 217.05808457912454 215.79919720331273 L 217.05808457912454 215.79919720331273 L 217.05808457912454 215.79919720331273 L 234.38919299663297 215.8665575752465 L 234.38919299663297 215.8665575752465 L 234.38919299663297 215.8665575752465 L 234.38919299663297 215.8665575752465 L 234.38919299663297 215.8665575752465 L 243.05474720538717 215.94848882990087 L 243.05474720538717 215.94848882990087 L 260.3858556228956 222.1851879086086 L 260.3858556228956 222.1851879086086 L 260.3858556228956 222.1851879086086 L 260.3858556228956 222.1851879086086 L 260.3858556228956 222.1851879086086 L 260.3858556228956 222.1851879086086 L 277.71696404040404 235.27252466435826 L 390.3691687542087 260.441500173665 L 390.3691687542087 144.3683020757343 L 277.71696404040404 172.4173201557328 L 260.3858556228956 184.27030923484963 L 260.3858556228956 184.27030923484963 L 260.3858556228956 184.27030923484963 L 260.3858556228956 184.27030923484963 L 260.3858556228956 184.27030923484963 L 260.3858556228956 184.27030923484963 L 243.05474720538717 189.04817729274455 L 243.05474720538717 189.04817729274455 L 234.38919299663297 188.34108880081817 L 234.38919299663297 188.34108880081817 L 234.38919299663297 188.34108880081817 L 234.38919299663297 188.34108880081817 L 234.38919299663297 188.34108880081817 L 217.05808457912454 186.7603552430287 L 217.05808457912454 186.7603552430287 L 217.05808457912454 186.7603552430287 L 217.05808457912454 186.7603552430287 L 217.05808457912454 186.7603552430287 L 217.05808457912454 186.7603552430287 L 217.05808457912454 186.7603552430287 L 199.72697616161616 187.9429448887509 L 199.72697616161616 187.9429448887509 L 199.72697616161616 187.9429448887509 L 191.06142195286193 187.2251903740563 L 191.06142195286193 187.2251903740563 L 191.06142195286193 187.2251903740563 L 191.06142195286193 187.2251903740563 L 191.06142195286193 187.2251903740563 L 191.06142195286193 187.2251903740563 L 191.06142195286193 187.2251903740563 L 173.7303135353535 180.5306721948151 L 173.7303135353535 180.5306721948151 L 173.7303135353535 180.5306721948151 L 173.7303135353535 180.5306721948151 L 173.7303135353535 180.5306721948151 L 173.7303135353535 180.5306721948151 L 173.7303135353535 180.5306721948151 L 165.06475932659933 176.02960845147564 L 165.06475932659933 176.02960845147564 L 165.06475932659933 176.02960845147564 L 147.7336509090909 166.46214893467507 L 147.7336509090909 166.46214893467507 L 147.7336509090909 166.46214893467507 L 147.7336509090909 166.46214893467507 L 147.7336509090909 166.46214893467507 L 147.7336509090909 166.46214893467507 L 147.7336509090909 166.46214893467507 L 147.7336509090909 166.46214893467507 L 139.0680967003367 156.74576351744167 L 139.0680967003367 156.74576351744167 L 139.0680967003367 156.74576351744167 L 139.0680967003367 156.74576351744167 L 139.0680967003367 156.74576351744167 L 139.0680967003367 156.74576351744167 L 139.0680967003367 156.74576351744167 L 139.0680967003367 156.74576351744167 L 139.0680967003367 156.74576351744167 L 139.0680967003367 156.74576351744167 L 139.0680967003367 156.74576351744167 L 139.0680967003367 156.74576351744167 L 139.0680967003367 156.74576351744167 L 121.73698828282829 143.358681225306 L 121.73698828282829 143.358681225306 L 121.73698828282829 143.358681225306 L 121.73698828282829 143.358681225306 L 104.40587986531985 147.91737613650196 L 104.40587986531985 147.91737613650196 L 104.40587986531985 147.91737613650196 L 104.40587986531985 147.91737613650196 L 104.40587986531985 147.91737613650196 L 104.40587986531985 147.91737613650196 L 104.40587986531985 147.91737613650196 L 104.40587986531985 147.91737613650196 L 104.40587986531985 147.91737613650196 L 104.40587986531985 147.91737613650196 L 104.40587986531985 147.91737613650196 L 104.40587986531985 147.91737613650196 L 104.40587986531985 147.91737613650196 L 104.40587986531985 147.91737613650196 L 104.40587986531985 147.91737613650196 L 104.40587986531985 147.91737613650196 L 104.40587986531985 147.91737613650196 L 104.40587986531985 147.91737613650196 L 104.40587986531985 147.91737613650196 L 95.74032565656564 127.97870908484579 L 95.74032565656564 127.97870908484579 L 95.74032565656564 127.97870908484579 L 87.07477144781144 99.13374549185342 L 87.07477144781144 99.13374549185342 L 87.07477144781144 99.13374549185342 L 87.07477144781144 99.13374549185342 L 87.07477144781144 99.13374549185342 L 87.07477144781144 99.13374549185342 L 87.07477144781144 99.13374549185342 L 87.07477144781144 99.13374549185342 L 87.07477144781144 99.13374549185342 L 87.07477144781144 99.13374549185342 L 87.07477144781144 99.13374549185342 L 87.07477144781144 99.13374549185342 L 69.74366303030303 116.56811478037775 L 69.74366303030303 116.56811478037775 L 69.74366303030303 116.56811478037775 L 69.74366303030303 116.56811478037775 L 69.74366303030303 116.56811478037775 Z" fill="#00BA38" fill-opacity="0.2" stroke="none"/><line x1="69.74366303030303" y1="142.51228243504335" x2="69.74366303030303" y2="142.51228243504335" stroke="#00BA38" stroke-width="2.8459842519685044"/><line x1="69.74366303030303" y1="142.51228243504335" x2="69.74366303030303" y2="142.51228243504335" stroke="#00BA38" stroke-width="2.8459842519685044"/><line x1="69.74366303030303" y1="142.51228243504335" x2="69.74366303030303" y2="142.51228243504335" stroke="#00BA38" stroke-width="2.8459842519685044"/><line x1="69.74366303030303" y1="142.51228243504335" x2="69.74366303030303" y2="142.51228243504335" stroke="#00BA38" stroke-width="2.8459842519685044"/><line x1="69.74366303030303" y1="142.51228243504335" x2="87.07477144781144" y2="115.40670533760579" stroke="#00BA38" stroke-width="2.8459842519685044"/><line x1="87.07477144781144" y1="115.40670533760579" x2="87.07477144781144" y2="115.40670533760579" stroke="#00BA38" stroke-width="2.8459842519685044"/><line x1="87.07477144781144" y1="115.40670533760579" x2="87.07477144781144" y2="115.40670533760579" stroke="#00BA38" stroke-width="2.8459842519685044"/><line x1="87.07477144781144" y1="115.40670533760579" x2="87.07477144781144" y2="115.40670533760579" stroke="#00BA38" stroke-width="2.8459842519685044"/><line x1="87.07477144781144" y1="115.40670533760579" x2="87.07477144781144" y2="115.40670533760579" stroke="#00BA38" stroke-width="2.8459842519685044"/><line x1="87.07477144781144" y1="115.40670533760579" x2="87.07477144781144" y2="115.40670533760579" stroke="#00BA38" stroke-width="2.8459842519685044"/><line x1="87.07477144781144" y1="115.40670533760579" x2="87.07477144781144" y2="115.40670533760579" stroke="#00BA38" stroke-width="2.8459842519685044"/><line x1="87.07477144781144" y1="115.40670533760579" x2="87.07477144781144" y2="115.40670533760579" stroke="#00BA38" stroke-width="2.8459842519685044"/><line x1="87.07477144781144" y1="115.40670533760579" x2="87.07477144781144" y2="115.40670533760579" stroke="#00BA38" stroke-width="2.8459842519685044"/><line x1="87.07477144781144" y1="115.40670533760579" x2="87.07477144781144" y2="115.40670533760579" stroke="#00BA38" stroke-width="2.8459842519685044"/><line x1="87.07477144781144" y1="115.40670533760579" x2="87.07477144781144" y2="115.40670533760579" stroke="#00BA38" stroke-width="2.8459842519685044"/><line x1="87.07477144781144" y1="115.40670533760579" x2="87.07477144781144" y2="115.40670533760579" stroke="#00BA38" stroke-width="2.8459842519685044"/><line x1="87.07477144781144" y1="115.40670533760579" x2="95.74032565656564" y2="139.44873905564853" stroke="#00BA38" stroke-width="2.8459842519685044"/><line x1="95.74032565656564" y1="139.44873905564853" x2="95.74032565656564" y2="139.44873905564853" stroke="#00BA38" stroke-width="2.8459842519685044"/><line x1="95.74032565656564" y1="139.44873905564853" x2="95.74032565656564" y2="139.44873905564853" stroke="#00BA38" stroke-width="2.8459842519685044"/><line x1="95.74032565656564" y1="139.44873905564853" x2="104.40587986531985" y2="160.7343066916592" stroke="#00BA38" stroke-width="2.8459842519685044"/><line x1="104.40587986531985" y1="160.7343066916592" x2="104.40587986531985" y2="160.7343066916592" stroke="#00BA38" stroke-width="2.8459842519685044"/><line x1="104.40587986531985" y1="160.7343066916592" x2="104.40587986531985" y2="160.7343066916592" stroke="#00BA38" stroke-width="2.8459842519685044"/><line x1="104.40587986531985" y1="160.7343066916592" x2="104.40587986531985" y2="160.7343066916592" stroke="#00BA38" stroke-width="2.8459842519685044"/><line x1="104.40587986531985" y1="160.7343066916592" x2="104.40587986531985" y2="160.7343066916592" stroke="#00BA38" stroke-width="2.8459842519685044"/><line x1="104.40587986531985" y1="160.7343066916592" x2="104.40587986531985" y2="160.7343066916592" stroke="#00BA38" stroke-width="2.8459842519685044"/><line x1="104.40587986531985" y1="160.7343066916592" x2="104.40587986531985" y2="160.7343066916592" stroke="#00BA38" stroke-width="2.8459842519685044"/><line x1="104.40587986531985" y1="160.7343066916592" x2="104.40587986531985" y2="160.7343066916592" stroke="#00BA38" stroke-width="2.8459842519685044"/><line x1="104.40587986531985" y1="160.7343066916592" x2="104.40587986531985" y2="160.7343066916592" stroke="#00BA38" stroke-width="2.8459842519685044"/><line x1="104.40587986531985" y1="160.7343066916592" x2="104.40587986531985" y2="160.7343066916592" stroke="#00BA38" stroke-width="2.8459842519685044"/><line x1="104.40587986531985" y1="160.7343066916592" x2="104.40587986531985" y2="160.7343066916592" stroke="#00BA38" stroke-width="2.8459842519685044"/><line x1="104.40587986531985" y1="160.7343066916592" x2="104.40587986531985" y2="160.7343066916592" stroke="#00BA38" stroke-width="2.8459842519685044"/><line x1="104.40587986531985" y1="160.7343066916592" x2="104.40587986531985" y2="160.7343066916592" stroke="#00BA38" stroke-width="2.8459842519685044"/><line x1="104.40587986531985" y1="160.7343066916592" x2="104.40587986531985" y2="160.7343066916592" stroke="#00BA38" stroke-width="2.8459842519685044"/><line x1="104.40587986531985" y1="160.7343066916592" x2="104.40587986531985" y2="160.7343066916592" stroke="#00BA38" stroke-width="2.8459842519685044"/><line x1="104.40587986531985" y1="160.7343066916592" x2="104.40587986531985" y2="160.7343066916592" stroke="#00BA38" stroke-width="2.8459842519685044"/><line x1="104.40587986531985" y1="160.7343066916592" x2="104.40587986531985" y2="160.7343066916592" stroke="#00BA38" stroke-width="2.8459842519685044"/><line x1="104.40587986531985" y1="160.7343066916592" x2="104.40587986531985" y2="160.7343066916592" stroke="#00BA38" stroke-width="2.8459842519685044"/><line x1="104.40587986531985" y1="160.7343066916592" x2="104.40587986531985" y2="160.7343066916592" stroke="#00BA38" stroke-width="2.8459842519685044"/><line x1="104.40587986531985" y1="160.7343066916592" x2="121.73698828282829" y2="160.88078261136906" stroke="#00BA38" stroke-width="2.8459842519685044"/><line x1="121.73698828282829" y1="160.88078261136906" x2="121.73698828282829" y2="160.88078261136906" stroke="#00BA38" stroke-width="2.8459842519685044"/><line x1="121.73698828282829" y1="160.88078261136906" x2="121.73698828282829" y2="160.88078261136906" stroke="#00BA38" stroke-width="2.8459842519685044"/><line x1="121.73698828282829" y1="160.88078261136906" x2="121.73698828282829" y2="160.88078261136906" stroke="#00BA38" stroke-width="2.8459842519685044"/><line x1="121.73698828282829" y1="160.88078261136906" x2="139.0680967003367" y2="169.29716910395862" stroke="#00BA38" stroke-width="2.8459842519685044"/><line x1="139.0680967003367" y1="169.29716910395862" x2="139.0680967003367" y2="169.29716910395862" stroke="#00BA38" stroke-width="2.8459842519685044"/><line x1="139.0680967003367" y1="169.29716910395862" x2="139.0680967003367" y2="169.29716910395862" stroke="#00BA38" stroke-width="2.8459842519685044"/><line x1="139.0680967003367" y1="169.29716910395862" x2="139.0680967003367" y2="169.29716910395862" stroke="#00BA38" stroke-width="2.8459842519685044"/><line x1="139.0680967003367" y1="169.29716910395862" x2="139.0680967003367" y2="169.29716910395862" stroke="#00BA38" stroke-width="2.8459842519685044"/><line x1="139.0680967003367" y1="169.29716910395862" x2="139.0680967003367" y2="169.29716910395862" stroke="#00BA38" stroke-width="2.8459842519685044"/><line x1="139.0680967003367" y1="169.29716910395862" x2="139.0680967003367" y2="169.29716910395862" stroke="#00BA38" stroke-width="2.8459842519685044"/><line x1="139.0680967003367" y1="169.29716910395862" x2="139.0680967003367" y2="169.29716910395862" stroke="#00BA38" stroke-width="2.8459842519685044"/><line x1="139.0680967003367" y1="169.29716910395862" x2="139.0680967003367" y2="169.29716910395862" stroke="#00BA38" stroke-width="2.8459842519685044"/><line x1="139.0680967003367" y1="169.29716910395862" x2="139.0680967003367" y2="169.29716910395862" stroke="#00BA38" stroke-width="2.8459842519685044"/><line x1="139.0680967003367" y1="169.29716910395862" x2="139.0680967003367" y2="169.29716910395862" stroke="#00BA38" stroke-width="2.8459842519685044"/><line x1="139.0680967003367" y1="169.29716910395862" x2="139.0680967003367" y2="169.29716910395862" stroke="#00BA38" stroke-width="2.8459842519685044"/><line x1="139.0680967003367" y1="169.29716910395862" x2="139.0680967003367" y2="169.29716910395862" stroke="#00BA38" stroke-width="2.8459842519685044"/><line x1="139.0680967003367" y1="169.29716910395862" x2="147.7336509090909" y2="177.66458751461096" stroke="#00BA38" stroke-width="2.8459842519685044"/><line x1="147.7336509090909" y1="177.66458751461096" x2="147.7336509090909" y2="177.66458751461096" stroke="#00BA38" stroke-width="2.8459842519685044"/><line x1="147.7336509090909" y1="177.66458751461096" x2="147.7336509090909" y2="177.66458751461096" stroke="#00BA38" stroke-width="2.8459842519685044"/><line x1="147.7336509090909" y1="177.66458751461096" x2="147.7336509090909" y2="177.66458751461096" stroke="#00BA38" stroke-width="2.8459842519685044"/><line x1="147.7336509090909" y1="177.66458751461096" x2="147.7336509090909" y2="177.66458751461096" stroke="#00BA38" stroke-width="2.8459842519685044"/><line x1="147.7336509090909" y1="177.66458751461096" x2="147.7336509090909" y2="177.66458751461096" stroke="#00BA38" stroke-width="2.8459842519685044"/><line x1="147.7336509090909" y1="177.66458751461096" x2="147.7336509090909" y2="177.66458751461096" stroke="#00BA38" stroke-width="2.8459842519685044"/><line x1="147.7336509090909" y1="177.66458751461096" x2="147.7336509090909" y2="177.66458751461096" stroke="#00BA38" stroke-width="2.8459842519685044"/><line x1="147.7336509090909" y1="177.66458751461096" x2="165.06475932659933" y2="190.20213566318276" stroke="#00BA38" stroke-width="2.8459842519685044"/><line x1="165.06475932659933" y1="190.20213566318276" x2="165.06475932659933" y2="190.20213566318276" stroke="#00BA38" stroke-width="2.8459842519685044"/><line x1="165.06475932659933" y1="190.20213566318276" x2="165.06475932659933" y2="190.20213566318276" stroke="#00BA38" stroke-width="2.8459842519685044"/><line x1="165.06475932659933" y1="190.20213566318276" x2="173.7303135353535" y2="194.22203890794486" stroke="#00BA38" stroke-width="2.8459842519685044"/><line x1="173.7303135353535" y1="194.22203890794486" x2="173.7303135353535" y2="194.22203890794486" stroke="#00BA38" stroke-width="2.8459842519685044"/><line x1="173.7303135353535" y1="194.22203890794486" x2="173.7303135353535" y2="194.22203890794486" stroke="#00BA38" stroke-width="2.8459842519685044"/><line x1="173.7303135353535" y1="194.22203890794486" x2="173.7303135353535" y2="194.22203890794486" stroke="#00BA38" stroke-width="2.8459842519685044"/><line x1="173.7303135353535" y1="194.22203890794486" x2="173.7303135353535" y2="194.22203890794486" stroke="#00BA38" stroke-width="2.8459842519685044"/><line x1="173.7303135353535" y1="194.22203890794486" x2="173.7303135353535" y2="194.22203890794486" stroke="#00BA38" stroke-width="2.8459842519685044"/><line x1="173.7303135353535" y1="194.22203890794486" x2="173.7303135353535" y2="194.22203890794486" stroke="#00BA38" stroke-width="2.8459842519685044"/><line x1="173.7303135353535" y1="194.22203890794486" x2="191.06142195286193" y2="198.94496991175336" stroke="#00BA38" stroke-width="2.8459842519685044"/><line x1="191.06142195286193" y1="198.94496991175336" x2="191.06142195286193" y2="198.94496991175336" stroke="#00BA38" stroke-width="2.8459842519685044"/><line x1="191.06142195286193" y1="198.94496991175336" x2="191.06142195286193" y2="198.94496991175336" stroke="#00BA38" stroke-width="2.8459842519685044"/><line x1="191.06142195286193" y1="198.94496991175336" x2="191.06142195286193" y2="198.94496991175336" stroke="#00BA38" stroke-width="2.8459842519685044"/><line x1="191.06142195286193" y1="198.94496991175336" x2="191.06142195286193" y2="198.94496991175336" stroke="#00BA38" stroke-width="2.8459842519685044"/><line x1="191.06142195286193" y1="198.94496991175336" x2="191.06142195286193" y2="198.94496991175336" stroke="#00BA38" stroke-width="2.8459842519685044"/><line x1="191.06142195286193" y1="198.94496991175336" x2="191.06142195286193" y2="198.94496991175336" stroke="#00BA38" stroke-width="2.8459842519685044"/><line x1="191.06142195286193" y1="198.94496991175336" x2="199.72697616161616" y2="200.1203441401322" stroke="#00BA38" stroke-width="2.8459842519685044"/><line x1="199.72697616161616" y1="200.1203441401322" x2="199.72697616161616" y2="200.1203441401322" stroke="#00BA38" stroke-width="2.8459842519685044"/><line x1="199.72697616161616" y1="200.1203441401322" x2="199.72697616161616" y2="200.1203441401322" stroke="#00BA38" stroke-width="2.8459842519685044"/><line x1="199.72697616161616" y1="200.1203441401322" x2="217.05808457912454" y2="201.2797762231707" stroke="#00BA38" stroke-width="2.8459842519685044"/><line x1="217.05808457912454" y1="201.2797762231707" x2="217.05808457912454" y2="201.2797762231707" stroke="#00BA38" stroke-width="2.8459842519685044"/><line x1="217.05808457912454" y1="201.2797762231707" x2="217.05808457912454" y2="201.2797762231707" stroke="#00BA38" stroke-width="2.8459842519685044"/><line x1="217.05808457912454" y1="201.2797762231707" x2="217.05808457912454" y2="201.2797762231707" stroke="#00BA38" stroke-width="2.8459842519685044"/><line x1="217.05808457912454" y1="201.2797762231707" x2="217.05808457912454" y2="201.2797762231707" stroke="#00BA38" stroke-width="2.8459842519685044"/><line x1="217.05808457912454" y1="201.2797762231707" x2="217.05808457912454" y2="201.2797762231707" stroke="#00BA38" stroke-width="2.8459842519685044"/><line x1="217.05808457912454" y1="201.2797762231707" x2="217.05808457912454" y2="201.2797762231707" stroke="#00BA38" stroke-width="2.8459842519685044"/><line x1="217.05808457912454" y1="201.2797762231707" x2="234.38919299663297" y2="202.10382318803232" stroke="#00BA38" stroke-width="2.8459842519685044"/><line x1="234.38919299663297" y1="202.10382318803232" x2="234.38919299663297" y2="202.10382318803232" stroke="#00BA38" stroke-width="2.8459842519685044"/><line x1="234.38919299663297" y1="202.10382318803232" x2="234.38919299663297" y2="202.10382318803232" stroke="#00BA38" stroke-width="2.8459842519685044"/><line x1="234.38919299663297" y1="202.10382318803232" x2="234.38919299663297" y2="202.10382318803232" stroke="#00BA38" stroke-width="2.8459842519685044"/><line x1="234.38919299663297" y1="202.10382318803232" x2="234.38919299663297" y2="202.10382318803232" stroke="#00BA38" stroke-width="2.8459842519685044"/><line x1="234.38919299663297" y1="202.10382318803232" x2="243.05474720538717" y2="202.4983330613227" stroke="#00BA38" stroke-width="2.8459842519685044"/><line x1="243.05474720538717" y1="202.4983330613227" x2="243.05474720538717" y2="202.4983330613227" stroke="#00BA38" stroke-width="2.8459842519685044"/><line x1="243.05474720538717" y1="202.4983330613227" x2="260.3858556228956" y2="203.22774857172914" stroke="#00BA38" stroke-width="2.8459842519685044"/><line x1="260.3858556228956" y1="203.22774857172914" x2="260.3858556228956" y2="203.22774857172914" stroke="#00BA38" stroke-width="2.8459842519685044"/><line x1="260.3858556228956" y1="203.22774857172914" x2="260.3858556228956" y2="203.22774857172914" stroke="#00BA38" stroke-width="2.8459842519685044"/><line x1="260.3858556228956" y1="203.22774857172914" x2="260.3858556228956" y2="203.22774857172914" stroke="#00BA38" stroke-width="2.8459842519685044"/><line x1="260.3858556228956" y1="203.22774857172914" x2="260.3858556228956" y2="203.22774857172914" stroke="#00BA38" stroke-width="2.8459842519685044"/><line x1="260.3858556228956" y1="203.22774857172914" x2="260.3858556228956" y2="203.22774857172914" stroke="#00BA38" stroke-width="2.8459842519685044"/><line x1="260.3858556228956" y1="203.22774857172914" x2="277.71696404040404" y2="203.8449224100455" stroke="#00BA38" stroke-width="2.8459842519685044"/><line x1="277.71696404040404" y1="203.8449224100455" x2="390.3691687542087" y2="202.40490112469962" stroke="#00BA38" stroke-width="2.8459842519685044"/><path d="M 260.3858556228956 237.28444641761513 L 260.3858556228956 237.28444641761513 L 277.71696404040404 242.07161892034173 L 277.71696404040404 242.07161892034173 L 329.71028929292925 264.81685344511106 L 329.71028929292925 264.81685344511106 L 329.71028929292925 264.81685344511106 L 329.71028929292925 264.81685344511106 L 329.71028929292925 264.81685344511106 L 390.3691687542087 301.9419289274871 L 390.3691687542087 301.9419289274871 L 390.3691687542087 301.9419289274871 L 399.034722962963 288.6211374565397 L 399.034722962963 288.6211374565397 L 399.034722962963 288.6211374565397 L 399.034722962963 288.6211374565397 L 399.034722962963 288.6211374565397 L 399.034722962963 288.6211374565397 L 425.0313855892255 274.7784478092562 L 425.0313855892255 274.7784478092562 L 425.0313855892255 274.7784478092562 L 451.0280482154882 253.37871896177697 L 468.3591566329966 249.47849934279571 L 468.3591566329966 249.47849934279571 L 537.6835903030303 267.25848393504134 L 537.6835903030303 152.87147713430002 L 468.3591566329966 172.4981228907489 L 468.3591566329966 172.4981228907489 L 451.0280482154882 191.32813662102444 L 425.0313855892255 213.80712819978555 L 425.0313855892255 213.80712819978555 L 425.0313855892255 213.80712819978555 L 399.034722962963 242.75941710765179 L 399.034722962963 242.75941710765179 L 399.034722962963 242.75941710765179 L 399.034722962963 242.75941710765179 L 399.034722962963 242.75941710765179 L 399.034722962963 242.75941710765179 L 390.3691687542087 236.4269449621487 L 390.3691687542087 236.4269449621487 L 390.3691687542087 236.4269449621487 L 329.71028929292925 213.65619406619422 L 329.71028929292925 213.65619406619422 L 329.71028929292925 213.65619406619422 L 329.71028929292925 213.65619406619422 L 329.71028929292925 213.65619406619422 L 277.71696404040404 161.1794610026377 L 277.71696404040404 161.1794610026377 L 260.3858556228956 156.39224646132462 L 260.3858556228956 156.39224646132462 Z" fill="#619CFF" fill-opacity="0.2" stroke="none"/><line x1="260.3858556228956" y1="196.8383464394699" x2="260.3858556228956" y2="196.8383464394699" stroke="#619CFF" stroke-width="2.8459842519685044"/><line x1="260.3858556228956" y1="196.8383464394699" x2="277.71696404040404" y2="201.62553996148966" stroke="#619CFF" stroke-width="2.8459842519685044"/><line x1="277.71696404040404" y1="201.62553996148966" x2="277.71696404040404" y2="201.62553996148966" stroke="#619CFF" stroke-width="2.8459842519685044"/><line x1="277.71696404040404" y1="201.62553996148966" x2="329.71028929292925" y2="239.23652375565263" stroke="#619CFF" stroke-width="2.8459842519685044"/><line x1="329.71028929292925" y1="239.23652375565263" x2="329.71028929292925" y2="239.23652375565263" stroke="#619CFF" stroke-width="2.8459842519685044"/><line x1="329.71028929292925" y1="239.23652375565263" x2="329.71028929292925" y2="239.23652375565263" stroke="#619CFF" stroke-width="2.8459842519685044"/><line x1="329.71028929292925" y1="239.23652375565263" x2="329.71028929292925" y2="239.23652375565263" stroke="#619CFF" stroke-width="2.8459842519685044"/><line x1="329.71028929292925" y1="239.23652375565263" x2="329.71028929292925" y2="239.23652375565263" stroke="#619CFF" stroke-width="2.8459842519685044"/><line x1="329.71028929292925" y1="239.23652375565263" x2="390.3691687542087" y2="269.1844369448179" stroke="#619CFF" stroke-width="2.8459842519685044"/><line x1="390.3691687542087" y1="269.1844369448179" x2="390.3691687542087" y2="269.1844369448179" stroke="#619CFF" stroke-width="2.8459842519685044"/><line x1="390.3691687542087" y1="269.1844369448179" x2="390.3691687542087" y2="269.1844369448179" stroke="#619CFF" stroke-width="2.8459842519685044"/><line x1="390.3691687542087" y1="269.1844369448179" x2="399.034722962963" y2="265.69027728209574" stroke="#619CFF" stroke-width="2.8459842519685044"/><line x1="399.034722962963" y1="265.69027728209574" x2="399.034722962963" y2="265.69027728209574" stroke="#619CFF" stroke-width="2.8459842519685044"/><line x1="399.034722962963" y1="265.69027728209574" x2="399.034722962963" y2="265.69027728209574" stroke="#619CFF" stroke-width="2.8459842519685044"/><line x1="399.034722962963" y1="265.69027728209574" x2="399.034722962963" y2="265.69027728209574" stroke="#619CFF" stroke-width="2.8459842519685044"/><line x1="399.034722962963" y1="265.69027728209574" x2="399.034722962963" y2="265.69027728209574" stroke="#619CFF" stroke-width="2.8459842519685044"/><line x1="399.034722962963" y1="265.69027728209574" x2="399.034722962963" y2="265.69027728209574" stroke="#619CFF" stroke-width="2.8459842519685044"/><line x1="399.034722962963" y1="265.69027728209574" x2="425.0313855892255" y2="244.29278800452087" stroke="#619CFF" stroke-width="2.8459842519685044"/><line x1="425.0313855892255" y1="244.29278800452087" x2="425.0313855892255" y2="244.29278800452087" stroke="#619CFF" stroke-width="2.8459842519685044"/><line x1="425.0313855892255" y1="244.29278800452087" x2="425.0313855892255" y2="244.29278800452087" stroke="#619CFF" stroke-width="2.8459842519685044"/><line x1="425.0313855892255" y1="244.29278800452087" x2="451.0280482154882" y2="222.3534277914007" stroke="#619CFF" stroke-width="2.8459842519685044"/><line x1="451.0280482154882" y1="222.3534277914007" x2="468.3591566329966" y2="210.9883111167723" stroke="#619CFF" stroke-width="2.8459842519685044"/><line x1="468.3591566329966" y1="210.9883111167723" x2="468.3591566329966" y2="210.9883111167723" stroke="#619CFF" stroke-width="2.8459842519685044"/><line x1="468.3591566329966" y1="210.9883111167723" x2="537.6835903030303" y2="210.06498053467067" stroke="#619CFF" stroke-width="2.8459842519685044"/><text x="575.7472533333332" y="142.66221333333334" fill="#4d4d4d" font-size="14.666666666666666" font-family="sans-serif" text-anchor="start">drv</text><rect x="575.7472533333332" y="149.99554666666666" width="23.114079999999994" height="69.34223999999998" fill="#ebebeb" fill-opacity="1.0" stroke="none"/><rect x="575.7472533333332" y="149.99554666666666" width="23.114079999999994" height="23.114079999999994" fill="#f2f2f2" fill-opacity="1.0" stroke="none"/><circle cx="587.3042933333332" cy="161.55258666666666" r="3.1181102362204727" fill="#F8766D" fill-opacity="1.0" stroke="none"/><text x="602.5279999999999" y="165.30725333333334" fill="#4d4d4d" font-size="11.733333333333334" font-family="sans-serif" text-anchor="start">4</text><rect x="575.7472533333332" y="173.10962666666666" width="23.114079999999994" height="23.114079999999994" fill="#f2f2f2" fill-opacity="1.0" stroke="none"/><circle cx="587.3042933333332" cy="184.66666666666666" r="3.1181102362204727" fill="#00BA38" fill-opacity="1.0" stroke="none"/><text x="602.5279999999999" y="188.42133333333334" fill="#4d4d4d" font-size="11.733333333333334" font-family="sans-serif" text-anchor="start">f</text><rect x="575.7472533333332" y="196.22370666666666" width="23.114079999999994" height="23.114079999999994" fill="#f2f2f2" fill-opacity="1.0" stroke="none"/><circle cx="587.3042933333332" cy="207.78074666666663" r="3.1181102362204727" fill="#619CFF" fill-opacity="1.0" stroke="none"/><text x="602.5279999999999" y="211.5354133333333" fill="#4d4d4d" font-size="11.733333333333334" font-family="sans-serif" text-anchor="start">r</text></svg>