<svg xmlns="http://www.w3.org/2000/svg" width="800" height="600" viewBox="0 0 800 600"><rect x="0.0" y="0.0" width="800.0" height="600.0" fill="#ffffff" fill-opacity="1.0" stroke="none"/><line x1="57.7496632996633" y1="5.5" x2="57.7496632996633" y2="563.8" stroke="#dddddd" stroke-width="0.5"/><line x1="171.5712121212121" y1="5.5" x2="171.5712121212121" y2="563.8" stroke="#dddddd" stroke-width="0.5"/><line x1="285.39276094276096" y1="5.5" x2="285.39276094276096" y2="563.8" stroke="#dddddd" stroke-width="0.5"/><line x1="399.2143097643098" y1="5.5" x2="399.2143097643098" y2="563.8" stroke="#dddddd" stroke-width="0.5"/><line x1="513.0358585858587" y1="5.5" x2="513.0358585858587" y2="563.8" stroke="#dddddd" stroke-width="0.5"/><line x1="626.8574074074074" y1="5.5" x2="626.8574074074074" y2="563.8" stroke="#dddddd" stroke-width="0.5"/><line x1="114.66043771043772" y1="5.5" x2="114.66043771043772" y2="563.8" stroke="#dddddd" stroke-width="1.0"/><line x1="228.48198653198654" y1="5.5" x2="228.48198653198654" y2="563.8" stroke="#dddddd" stroke-width="1.0"/><line x1="342.3035353535353" y1="5.5" x2="342.3035353535353" y2="563.8" stroke="#dddddd" stroke-width="1.0"/><line x1="456.12508417508417" y1="5.5" x2="456.12508417508417" y2="563.8" stroke="#dddddd" stroke-width="1.0"/><line x1="569.946632996633" y1="5.5" x2="569.946632996633" y2="563.8" stroke="#dddddd" stroke-width="1.0"/><line x1="683.7681818181818" y1="5.5" x2="683.7681818181818" y2="563.8" stroke="#dddddd" stroke-width="1.0"/><line x1="38.4" y1="490.84034090909086" x2="714.5" y2="490.84034090909086" stroke="#dddddd" stroke-width="0.5"/><line x1="38.4" y1="332.23238636363635" x2="714.5" y2="332.23238636363635" stroke="#dddddd" stroke-width="0.5"/><line x1="38.4" y1="173.6244318181818" x2="714.5" y2="173.6244318181818" stroke="#dddddd" stroke-width="0.5"/><line x1="38.4" y1="15.016477272727343" x2="714.5" y2="15.016477272727343" stroke="#dddddd" stroke-width="0.5"/><line x1="38.4" y1="411.5363636363636" x2="714.5" y2="411.5363636363636" stroke="#dddddd" stroke-width="1.0"/><line x1="38.4" y1="252.9284090909091" x2="714.5" y2="252.9284090909091" stroke="#dddddd" stroke-width="1.0"/><line x1="38.4" y1="94.3204545454546" x2="714.5" y2="94.3204545454546" stroke="#dddddd" stroke-width="1.0"/><rect x="38.4" y="5.5" width="676.1" height="558.3" fill="#ffffff" fill-opacity="0.0" stroke="#444444" stroke-width="1.0"/><line x1="114.66043771043772" y1="563.8" x2="114.66043771043772" y2="566.55" stroke="#444444" stroke-width="1.0"/><text x="114.66043771043772" y="577.55" fill="#333333" font-size="11.0" font-family="sans-serif" text-anchor="middle">2</text><line x1="228.48198653198654" y1="563.8" x2="228.48198653198654" y2="566.55" stroke="#444444" stroke-width="1.0"/><text x="228.48198653198654" y="577.55" fill="#333333" font-size="11.0" font-family="sans-serif" text-anchor="middle">3</text><line x1="342.3035353535353" y1="563.8" x2="342.3035353535353" y2="566.55" stroke="#444444" stroke-width="1.0"/><text x="342.3035353535353" y="577.55" fill="#333333" font-size="11.0" font-family="sans-serif" text-anchor="middle">4</text><line x1="456.12508417508417" y1="563.8" x2="456.12508417508417" y2="566.55" stroke="#444444" stroke-width="1.0"/><text x="456.12508417508417" y="577.55" fill="#333333" font-size="11.0" font-family="sans-serif" text-anchor="middle">5</text><line x1="569.946632996633" y1="563.8" x2="569.946632996633" y2="566.55" stroke="#444444" stroke-width="1.0"/><text x="569.946632996633" y="577.55" fill="#333333" font-size="11.0" font-family="sans-serif" text-anchor="middle">6</text><line x1="683.7681818181818" y1="563.8" x2="683.7681818181818" y2="566.55" stroke="#444444" stroke-width="1.0"/><text x="683.7681818181818" y="577.55" fill="#333333" font-size="11.0" font-family="sans-serif" text-anchor="middle">7</text><line x1="38.4" y1="411.5363636363636" x2="35.65" y2="411.5363636363636" stroke="#444444" stroke-width="1.0"/><text x="33.449999999999996" y="415.3863636363636" fill="#333333" font-size="11.0" font-family="sans-serif" text-anchor="end">20</text><line x1="38.4" y1="252.9284090909091" x2="35.65" y2="252.9284090909091" stroke="#444444" stroke-width="1.0"/><text x="33.449999999999996" y="256.7784090909091" fill="#333333" font-size="11.0" font-family="sans-serif" text-anchor="end">30</text><line x1="38.4" y1="94.3204545454546" x2="35.65" y2="94.3204545454546" stroke="#444444" stroke-width="1.0"/><text x="33.449999999999996" y="98.17045454545459" fill="#333333" font-size="11.0" font-family="sans-serif" text-anchor="end">40</text><text x="376.45" y="592.1" fill="#333333" font-size="12.0" font-family="sans-serif" text-anchor="middle">displ</text><text x="13.899999999999999" y="284.65" fill="#333333" font-size="12.0" font-family="sans-serif" text-anchor="middle" transform="rotate(-90.0 13.899999999999999 284.65)">hwy</text><circle cx="91.89612794612795" cy="268.7892045454545" r="4.0" fill="#C49A00" fill-opacity="0.9" stroke="none"><title>(1.8, 29)</title></circle><circle cx="91.89612794612795" cy="268.7892045454545" r="4.0" fill="#C49A00" fill-opacity="0.9" stroke="none"><title>(1.8, 29)</title></circle><circle cx="114.66043771043772" cy="237.0676136363636" r="4.0" fill="#C49A00" fill-opacity="0.9" stroke="none"><title>(2, 31)</title></circle><circle cx="114.66043771043772" cy="252.9284090909091" r="4.0" fill="#C49A00" fill-opacity="0.9" stroke="none"><title>(2, 30)</title></circle><circle cx="205.71767676767678" cy="316.3715909090909" r="4.0" fill="#C49A00" fill-opacity="0.9" stroke="none"><title>(2.8, 26)</title></circle><circle cx="205.71767676767678" cy="316.3715909090909" r="4.0" fill="#C49A00" fill-opacity="0.9" stroke="none"><title>(2.8, 26)</title></circle><circle cx="239.86414141414144" cy="300.5107954545454" r="4.0" fill="#C49A00" fill-opacity="0.9" stroke="none"><title>(3.1, 27)</title></circle><circle cx="91.89612794612795" cy="316.3715909090909" r="4.0" fill="#C49A00" fill-opacity="0.9" stroke="none"><title>(1.8, 26)</title></circle><circle cx="91.89612794612795" cy="332.23238636363635" r="4.0" fill="#C49A00" fill-opacity="0.9" stroke="none"><title>(1.8, 25)</title></circle><circle cx="114.66043771043772" cy="284.65" r="4.0" fill="#C49A00" fill-opacity="0.9" stroke="none"><title>(2, 28)</title></circle><circle cx="114.66043771043772" cy="300.5107954545454" r="4.0" fill="#C49A00" fill-opacity="0.9" stroke="none"><title>(2, 27)</title></circle><circle cx="205.71767676767678" cy="332.23238636363635" r="4.0" fill="#C49A00" fill-opacity="0.9" stroke="none"><title>(2.8, 25)</title></circle><circle cx="205.71767676767678" cy="332.23238636363635" r="4.0" fill="#C49A00" fill-opacity="0.9" stroke="none"><title>(2.8, 25)</title></circle><circle cx="239.86414141414144" cy="332.23238636363635" r="4.0" fill="#C49A00" fill-opacity="0.9" stroke="none"><title>(3.1, 25)</title></circle><circle cx="239.86414141414144" cy="332.23238636363635" r="4.0" fill="#C49A00" fill-opacity="0.9" stroke="none"><title>(3.1, 25)</title></circle><circle cx="205.71767676767678" cy="348.09318181818185" r="4.0" fill="#53B400" fill-opacity="0.9" stroke="none"><title>(2.8, 24)</title></circle><circle cx="239.86414141414144" cy="332.23238636363635" r="4.0" fill="#53B400" fill-opacity="0.9" stroke="none"><title>(3.1, 25)</title></circle><circle cx="365.06784511784514" cy="363.95397727272723" r="4.0" fill="#53B400" fill-opacity="0.9" stroke="none"><title>(4.2, 23)</title></circle><circle cx="490.27154882154883" cy="411.5363636363636" r="4.0" fill="#FB61D7" fill-opacity="0.9" stroke="none"><title>(5.3, 20)</title></circle><circle cx="490.27154882154883" cy="490.84034090909086" r="4.0" fill="#FB61D7" fill-opacity="0.9" stroke="none"><title>(5.3, 15)</title></circle><circle cx="490.27154882154883" cy="411.5363636363636" r="4.0" fill="#FB61D7" fill-opacity="0.9" stroke="none"><title>(5.3, 20)</title></circle><circle cx="535.8001683501684" cy="459.11875" r="4.0" fill="#FB61D7" fill-opacity="0.9" stroke="none"><title>(5.7, 17)</title></circle><circle cx="569.946632996633" cy="459.11875" r="4.0" fill="#FB61D7" fill-opacity="0.9" stroke="none"><title>(6, 17)</title></circle><circle cx="535.8001683501684" cy="316.3715909090909" r="4.0" fill="#F8766D" fill-opacity="0.9" stroke="none"><title>(5.7, 26)</title></circle><circle cx="535.8001683501684" cy="363.95397727272723" r="4.0" fill="#F8766D" fill-opacity="0.9" stroke="none"><title>(5.7, 23)</title></circle><circle cx="592.7109427609428" cy="316.3715909090909" r="4.0" fill="#F8766D" fill-opacity="0.9" stroke="none"><title>(6.2, 26)</title></circle><circle cx="592.7109427609428" cy="332.23238636363635" r="4.0" fill="#F8766D" fill-opacity="0.9" stroke="none"><title>(6.2, 25)</title></circle><circle cx="683.7681818181818" cy="348.09318181818185" r="4.0" fill="#F8766D" fill-opacity="0.9" stroke="none"><title>(7, 24)</title></circle><circle cx="490.27154882154883" cy="427.3971590909091" r="4.0" fill="#FB61D7" fill-opacity="0.9" stroke="none"><title>(5.3, 19)</title></circle><circle cx="490.27154882154883" cy="506.70113636363635" r="4.0" fill="#FB61D7" fill-opacity="0.9" stroke="none"><title>(5.3, 14)</title></circle><circle cx="535.8001683501684" cy="490.84034090909086" r="4.0" fill="#FB61D7" fill-opacity="0.9" stroke="none"><title>(5.7, 15)</title></circle><circle cx="626.8574074074074" cy="459.11875" r="4.0" fill="#FB61D7" fill-opacity="0.9" stroke="none"><title>(6.5, 17)</title></circle><circle cx="160.18905723905723" cy="300.5107954545454" r="4.0" fill="#53B400" fill-opacity="0.9" stroke="none"><title>(2.4, 27)</title></circle><circle cx="160.18905723905723" cy="252.9284090909091" r="4.0" fill="#53B400" fill-opacity="0.9" stroke="none"><title>(2.4, 30)</title></circle><circle cx="239.86414141414144" cy="316.3715909090909" r="4.0" fill="#53B400" fill-opacity="0.9" stroke="none"><title>(3.1, 26)</title></circle><circle cx="285.39276094276096" cy="268.7892045454545" r="4.0" fill="#53B400" fill-opacity="0.9" stroke="none"><title>(3.5, 29)</title></circle><circle cx="296.7749158249158" cy="316.3715909090909" r="4.0" fill="#53B400" fill-opacity="0.9" stroke="none"><title>(3.6, 26)</title></circle><circle cx="160.18905723905723" cy="348.09318181818185" r="4.0" fill="#00C094" fill-opacity="0.9" stroke="none"><title>(2.4, 24)</title></circle><circle cx="228.48198653198654" cy="348.09318181818185" r="4.0" fill="#00C094" fill-opacity="0.9" stroke="none"><title>(3, 24)</title></circle><circle cx="262.62845117845114" cy="379.8147727272727" r="4.0" fill="#00C094" fill-opacity="0.9" stroke="none"><title>(3.3, 22)</title></circle><circle cx="262.62845117845114" cy="379.8147727272727" r="4.0" fill="#00C094" fill-opacity="0.9" stroke="none"><title>(3.3, 22)</title></circle><circle cx="262.62845117845114" cy="348.09318181818185" r="4.0" fill="#00C094" fill-opacity="0.9" stroke="none"><title>(3.3, 24)</title></circle><circle cx="262.62845117845114" cy="348.09318181818185" r="4.0" fill="#00C094" fill-opacity="0.9" stroke="none"><title>(3.3, 24)</title></circle><circle cx="262.62845117845114" cy="459.11875" r="4.0" fill="#00C094" fill-opacity="0.9" stroke="none"><title>(3.3, 17)</title></circle><circle cx="319.53922558922557" cy="379.8147727272727" r="4.0" fill="#00C094" fill-opacity="0.9" stroke="none"><title>(3.8, 22)</title></circle><circle cx="319.53922558922557" cy="395.67556818181816" r="4.0" fill="#00C094" fill-opacity="0.9" stroke="none"><title>(3.8, 21)</title></circle><circle cx="319.53922558922557" cy="363.95397727272723" r="4.0" fill="#00C094" fill-opacity="0.9" stroke="none"><title>(3.8, 23)</title></circle><circle cx="342.3035353535353" cy="363.95397727272723" r="4.0" fill="#00C094" fill-opacity="0.9" stroke="none"><title>(4, 23)</title></circle><circle cx="308.1570707070707" cy="427.3971590909091" r="4.0" fill="#00B6EB" fill-opacity="0.9" stroke="none"><title>(3.7, 19)</title></circle><circle cx="308.1570707070707" cy="443.25795454545454" r="4.0" fill="#00B6EB" fill-opacity="0.9" stroke="none"><title>(3.7, 18)</title></circle><circle cx="330.9213804713805" cy="459.11875" r="4.0" fill="#00B6EB" fill-opacity="0.9" stroke="none"><title>(3.9, 17)</title></circle><circle cx="330.9213804713805" cy="459.11875" r="4.0" fill="#00B6EB" fill-opacity="0.9" stroke="none"><title>(3.9, 17)</title></circle><circle cx="421.97861952861956" cy="427.3971590909091" r="4.0" fill="#00B6EB" fill-opacity="0.9" stroke="none"><title>(4.7, 19)</title></circle><circle cx="421.97861952861956" cy="427.3971590909091" r="4.0" fill="#00B6EB" fill-opacity="0.9" stroke="none"><title>(4.7, 19)</title></circle><circle cx="421.97861952861956" cy="538.4227272727272" r="4.0" fill="#00B6EB" fill-opacity="0.9" stroke="none"><title>(4.7, 12)</title></circle><circle cx="478.889393939394" cy="459.11875" r="4.0" fill="#00B6EB" fill-opacity="0.9" stroke="none"><title>(5.2, 17)</title></circle><circle cx="478.889393939394" cy="490.84034090909086" r="4.0" fill="#00B6EB" fill-opacity="0.9" stroke="none"><title>(5.2, 15)</title></circle><circle cx="330.9213804713805" cy="459.11875" r="4.0" fill="#FB61D7" fill-opacity="0.9" stroke="none"><title>(3.9, 17)</title></circle><circle cx="421.97861952861956" cy="459.11875" r="4.0" fill="#FB61D7" fill-opacity="0.9" stroke="none"><title>(4.7, 17)</title></circle><circle cx="421.97861952861956" cy="538.4227272727272" r="4.0" fill="#FB61D7" fill-opacity="0.9" stroke="none"><title>(4.7, 12)</title></circle><circle cx="421.97861952861956" cy="459.11875" r="4.0" fill="#FB61D7" fill-opacity="0.9" stroke="none"><title>(4.7, 17)</title></circle><circle cx="478.889393939394" cy="474.9795454545454" r="4.0" fill="#FB61D7" fill-opacity="0.9" stroke="none"><title>(5.2, 16)</title></circle><circle cx="535.8001683501684" cy="443.25795454545454" r="4.0" fill="#FB61D7" fill-opacity="0.9" stroke="none"><title>(5.7, 18)</title></circle><circle cx="558.5644781144782" cy="490.84034090909086" r="4.0" fill="#FB61D7" fill-opacity="0.9" stroke="none"><title>(5.9, 15)</title></circle><circle cx="421.97861952861956" cy="474.9795454545454" r="4.0" fill="#00B6EB" fill-opacity="0.9" stroke="none"><title>(4.7, 16)</title></circle><circle cx="421.97861952861956" cy="538.4227272727272" r="4.0" fill="#00B6EB" fill-opacity="0.9" stroke="none"><title>(4.7, 12)</title></circle><circle cx="421.97861952861956" cy="459.11875" r="4.0" fill="#00B6EB" fill-opacity="0.9" stroke="none"><title>(4.7, 17)</title></circle><circle cx="421.97861952861956" cy="459.11875" r="4.0" fill="#00B6EB" fill-opacity="0.9" stroke="none"><title>(4.7, 17)</title></circle><circle cx="421.97861952861956" cy="474.9795454545454" r="4.0" fill="#00B6EB" fill-opacity="0.9" stroke="none"><title>(4.7, 16)</title></circle><circle cx="421.97861952861956" cy="538.4227272727272" r="4.0" fill="#00B6EB" fill-opacity="0.9" stroke="none"><title>(4.7, 12)</title></circle><circle cx="478.889393939394" cy="490.84034090909086" r="4.0" fill="#00B6EB" fill-opacity="0.9" stroke="none"><title>(5.2, 15)</title></circle><circle cx="478.889393939394" cy="474.9795454545454" r="4.0" fill="#00B6EB" fill-opacity="0.9" stroke="none"><title>(5.2, 16)</title></circle><circle cx="535.8001683501684" cy="459.11875" r="4.0" fill="#00B6EB" fill-opacity="0.9" stroke="none"><title>(5.7, 17)</title></circle><circle cx="558.5644781144782" cy="490.84034090909086" r="4.0" fill="#00B6EB" fill-opacity="0.9" stroke="none"><title>(5.9, 15)</title></circle><circle cx="410.59646464646465" cy="459.11875" r="4.0" fill="#FB61D7" fill-opacity="0.9" stroke="none"><title>(4.6, 17)</title></circle><circle cx="501.6537037037038" cy="459.11875" r="4.0" fill="#FB61D7" fill-opacity="0.9" stroke="none"><title>(5.4, 17)</title></circle><circle cx="501.6537037037038" cy="443.25795454545454" r="4.0" fill="#FB61D7" fill-opacity="0.9" stroke="none"><title>(5.4, 18)</title></circle><circle cx="342.3035353535353" cy="459.11875" r="4.0" fill="#FB61D7" fill-opacity="0.9" stroke="none"><title>(4, 17)</title></circle><circle cx="342.3035353535353" cy="427.3971590909091" r="4.0" fill="#FB61D7" fill-opacity="0.9" stroke="none"><title>(4, 19)</title></circle><circle cx="342.3035353535353" cy="459.11875" r="4.0" fill="#FB61D7" fill-opacity="0.9" stroke="none"><title>(4, 17)</title></circle><circle cx="342.3035353535353" cy="427.3971590909091" r="4.0" fill="#FB61D7" fill-opacity="0.9" stroke="none"><title>(4, 19)</title></circle><circle cx="410.59646464646465" cy="427.3971590909091" r="4.0" fill="#FB61D7" fill-opacity="0.9" stroke="none"><title>(4.6, 19)</title></circle><circle cx="456.12508417508417" cy="459.11875" r="4.0" fill="#FB61D7" fill-opacity="0.9" stroke="none"><title>(5, 17)</title></circle><circle cx="365.06784511784514" cy="459.11875" r="4.0" fill="#00B6EB" fill-opacity="0.9" stroke="none"><title>(4.2, 17)</title></circle><circle cx="365.06784511784514" cy="459.11875" r="4.0" fill="#00B6EB" fill-opacity="0.9" stroke="none"><title>(4.2, 17)</title></circle><circle cx="410.59646464646465" cy="474.9795454545454" r="4.0" fill="#00B6EB" fill-opacity="0.9" stroke="none"><title>(4.6, 16)</title></circle><circle cx="410.59646464646465" cy="474.9795454545454" r="4.0" fill="#00B6EB" fill-opacity="0.9" stroke="none"><title>(4.6, 16)</title></circle><circle cx="410.59646464646465" cy="459.11875" r="4.0" fill="#00B6EB" fill-opacity="0.9" stroke="none"><title>(4.6, 17)</title></circle><circle cx="501.6537037037038" cy="490.84034090909086" r="4.0" fill="#00B6EB" fill-opacity="0.9" stroke="none"><title>(5.4, 15)</title></circle><circle cx="501.6537037037038" cy="459.11875" r="4.0" fill="#00B6EB" fill-opacity="0.9" stroke="none"><title>(5.4, 17)</title></circle><circle cx="319.53922558922557" cy="316.3715909090909" r="4.0" fill="#A58AFF" fill-opacity="0.9" stroke="none"><title>(3.8, 26)</title></circle><circle cx="319.53922558922557" cy="332.23238636363635" r="4.0" fill="#A58AFF" fill-opacity="0.9" stroke="none"><title>(3.8, 25)</title></circle><circle cx="342.3035353535353" cy="316.3715909090909" r="4.0" fill="#A58AFF" fill-opacity="0.9" stroke="none"><title>(4, 26)</title></circle><circle cx="342.3035353535353" cy="348.09318181818185" r="4.0" fill="#A58AFF" fill-opacity="0.9" stroke="none"><title>(4, 24)</title></circle><circle cx="410.59646464646465" cy="395.67556818181816" r="4.0" fill="#A58AFF" fill-opacity="0.9" stroke="none"><title>(4.6, 21)</title></circle><circle cx="410.59646464646465" cy="379.8147727272727" r="4.0" fill="#A58AFF" fill-opacity="0.9" stroke="none"><title>(4.6, 22)</title></circle><circle cx="410.59646464646465" cy="363.95397727272723" r="4.0" fill="#A58AFF" fill-opacity="0.9" stroke="none"><title>(4.6, 23)</title></circle><circle cx="410.59646464646465" cy="379.8147727272727" r="4.0" fill="#A58AFF" fill-opacity="0.9" stroke="none"><title>(4.6, 22)</title></circle><circle cx="501.6537037037038" cy="411.5363636363636" r="4.0" fill="#A58AFF" fill-opacity="0.9" stroke="none"><title>(5.4, 20)</title></circle><circle cx="69.13181818181819" cy="205.34602272727267" r="4.0" fill="#A58AFF" fill-opacity="0.9" stroke="none"><title>(1.6, 33)</title></circle><circle cx="69.13181818181819" cy="221.20681818181816" r="4.0" fill="#A58AFF" fill-opacity="0.9" stroke="none"><title>(1.6, 32)</title></circle><circle cx="69.13181818181819" cy="221.20681818181816" r="4.0" fill="#A58AFF" fill-opacity="0.9" stroke="none"><title>(1.6, 32)</title></circle><circle cx="69.13181818181819" cy="268.7892045454545" r="4.0" fill="#A58AFF" fill-opacity="0.9" stroke="none"><title>(1.6, 29)</title></circle><circle cx="69.13181818181819" cy="221.20681818181816" r="4.0" fill="#A58AFF" fill-opacity="0.9" stroke="none"><title>(1.6, 32)</title></circle><circle cx="91.89612794612795" cy="189.4852272727273" r="4.0" fill="#A58AFF" fill-opacity="0.9" stroke="none"><title>(1.8, 34)</title></circle><circle cx="91.89612794612795" cy="157.76363636363635" r="4.0" fill="#A58AFF" fill-opacity="0.9" stroke="none"><title>(1.8, 36)</title></circle><circle cx="91.89612794612795" cy="157.76363636363635" r="4.0" fill="#A58AFF" fill-opacity="0.9" stroke="none"><title>(1.8, 36)</title></circle><circle cx="114.66043771043772" cy="268.7892045454545" r="4.0" fill="#A58AFF" fill-opacity="0.9" stroke="none"><title>(2, 29)</title></circle><circle cx="160.18905723905723" cy="316.3715909090909" r="4.0" fill="#53B400" fill-opacity="0.9" stroke="none"><title>(2.4, 26)</title></circle><circle cx="160.18905723905723" cy="300.5107954545454" r="4.0" fill="#53B400" fill-opacity="0.9" stroke="none"><title>(2.4, 27)</title></circle><circle cx="160.18905723905723" cy="252.9284090909091" r="4.0" fill="#53B400" fill-opacity="0.9" stroke="none"><title>(2.4, 30)</title></circle><circle cx="160.18905723905723" cy="237.0676136363636" r="4.0" fill="#53B400" fill-opacity="0.9" stroke="none"><title>(2.4, 31)</title></circle><circle cx="171.5712121212121" cy="316.3715909090909" r="4.0" fill="#53B400" fill-opacity="0.9" stroke="none"><title>(2.5, 26)</title></circle><circle cx="171.5712121212121" cy="316.3715909090909" r="4.0" fill="#53B400" fill-opacity="0.9" stroke="none"><title>(2.5, 26)</title></circle><circle cx="262.62845117845114" cy="284.65" r="4.0" fill="#53B400" fill-opacity="0.9" stroke="none"><title>(3.3, 28)</title></circle><circle cx="114.66043771043772" cy="316.3715909090909" r="4.0" fill="#A58AFF" fill-opacity="0.9" stroke="none"><title>(2, 26)</title></circle><circle cx="114.66043771043772" cy="268.7892045454545" r="4.0" fill="#A58AFF" fill-opacity="0.9" stroke="none"><title>(2, 29)</title></circle><circle cx="114.66043771043772" cy="284.65" r="4.0" fill="#A58AFF" fill-opacity="0.9" stroke="none"><title>(2, 28)</title></circle><circle cx="114.66043771043772" cy="300.5107954545454" r="4.0" fill="#A58AFF" fill-opacity="0.9" stroke="none"><title>(2, 27)</title></circle><circle cx="194.33552188552193" cy="348.09318181818185" r="4.0" fill="#A58AFF" fill-opacity="0.9" stroke="none"><title>(2.7, 24)</title></circle><circle cx="194.33552188552193" cy="348.09318181818185" r="4.0" fill="#A58AFF" fill-opacity="0.9" stroke="none"><title>(2.7, 24)</title></circle><circle cx="194.33552188552193" cy="348.09318181818185" r="4.0" fill="#A58AFF" fill-opacity="0.9" stroke="none"><title>(2.7, 24)</title></circle><circle cx="228.48198653198654" cy="379.8147727272727" r="4.0" fill="#FB61D7" fill-opacity="0.9" stroke="none"><title>(3, 22)</title></circle><circle cx="308.1570707070707" cy="427.3971590909091" r="4.0" fill="#FB61D7" fill-opacity="0.9" stroke="none"><title>(3.7, 19)</title></circle><circle cx="342.3035353535353" cy="411.5363636363636" r="4.0" fill="#FB61D7" fill-opacity="0.9" stroke="none"><title>(4, 20)</title></circle><circle cx="421.97861952861956" cy="459.11875" r="4.0" fill="#FB61D7" fill-opacity="0.9" stroke="none"><title>(4.7, 17)</title></circle><circle cx="421.97861952861956" cy="538.4227272727272" r="4.0" fill="#FB61D7" fill-opacity="0.9" stroke="none"><title>(4.7, 12)</title></circle><circle cx="421.97861952861956" cy="427.3971590909091" r="4.0" fill="#FB61D7" fill-opacity="0.9" stroke="none"><title>(4.7, 19)</title></circle><circle cx="535.8001683501684" cy="443.25795454545454" r="4.0" fill="#FB61D7" fill-opacity="0.9" stroke="none"><title>(5.7, 18)</title></circle><circle cx="581.3287878787878" cy="506.70113636363635" r="4.0" fill="#FB61D7" fill-opacity="0.9" stroke="none"><title>(6.1, 14)</title></circle><circle cx="342.3035353535353" cy="490.84034090909086" r="4.0" fill="#FB61D7" fill-opacity="0.9" stroke="none"><title>(4, 15)</title></circle><circle cx="365.06784511784514" cy="443.25795454545454" r="4.0" fill="#FB61D7" fill-opacity="0.9" stroke="none"><title>(4.2, 18)</title></circle><circle cx="387.83215488215495" cy="443.25795454545454" r="4.0" fill="#FB61D7" fill-opacity="0.9" stroke="none"><title>(4.4, 18)</title></circle><circle cx="410.59646464646465" cy="490.84034090909086" r="4.0" fill="#FB61D7" fill-opacity="0.9" stroke="none"><title>(4.6, 15)</title></circle><circle cx="501.6537037037038" cy="459.11875" r="4.0" fill="#FB61D7" fill-opacity="0.9" stroke="none"><title>(5.4, 17)</title></circle><circle cx="501.6537037037038" cy="474.9795454545454" r="4.0" fill="#FB61D7" fill-opacity="0.9" stroke="none"><title>(5.4, 16)</title></circle><circle cx="501.6537037037038" cy="443.25795454545454" r="4.0" fill="#FB61D7" fill-opacity="0.9" stroke="none"><title>(5.4, 18)</title></circle><circle cx="342.3035353535353" cy="459.11875" r="4.0" fill="#FB61D7" fill-opacity="0.9" stroke="none"><title>(4, 17)</title></circle><circle cx="342.3035353535353" cy="427.3971590909091" r="4.0" fill="#FB61D7" fill-opacity="0.9" stroke="none"><title>(4, 19)</title></circle><circle cx="410.59646464646465" cy="427.3971590909091" r="4.0" fill="#FB61D7" fill-opacity="0.9" stroke="none"><title>(4.6, 19)</title></circle><circle cx="456.12508417508417" cy="459.11875" r="4.0" fill="#FB61D7" fill-opacity="0.9" stroke="none"><title>(5, 17)</title></circle><circle cx="160.18905723905723" cy="268.7892045454545" r="4.0" fill="#C49A00" fill-opacity="0.9" stroke="none"><title>(2.4, 29)</title></circle><circle cx="160.18905723905723" cy="300.5107954545454" r="4.0" fill="#C49A00" fill-opacity="0.9" stroke="none"><title>(2.4, 27)</title></circle><circle cx="171.5712121212121" cy="237.0676136363636" r="4.0" fill="#53B400" fill-opacity="0.9" stroke="none"><title>(2.5, 31)</title></circle><circle cx="171.5712121212121" cy="221.20681818181816" r="4.0" fill="#53B400" fill-opacity="0.9" stroke="none"><title>(2.5, 32)</title></circle><circle cx="285.39276094276096" cy="300.5107954545454" r="4.0" fill="#53B400" fill-opacity="0.9" stroke="none"><title>(3.5, 27)</title></circle><circle cx="285.39276094276096" cy="316.3715909090909" r="4.0" fill="#53B400" fill-opacity="0.9" stroke="none"><title>(3.5, 26)</title></circle><circle cx="228.48198653198654" cy="316.3715909090909" r="4.0" fill="#53B400" fill-opacity="0.9" stroke="none"><title>(3, 26)</title></circle><circle cx="228.48198653198654" cy="332.23238636363635" r="4.0" fill="#53B400" fill-opacity="0.9" stroke="none"><title>(3, 25)</title></circle><circle cx="285.39276094276096" cy="332.23238636363635" r="4.0" fill="#53B400" fill-opacity="0.9" stroke="none"><title>(3.5, 25)</title></circle><circle cx="262.62845117845114" cy="459.11875" r="4.0" fill="#FB61D7" fill-opacity="0.9" stroke="none"><title>(3.3, 17)</title></circle><circle cx="262.62845117845114" cy="459.11875" r="4.0" fill="#FB61D7" fill-opacity="0.9" stroke="none"><title>(3.3, 17)</title></circle><circle cx="342.3035353535353" cy="411.5363636363636" r="4.0" fill="#FB61D7" fill-opacity="0.9" stroke="none"><title>(4, 20)</title></circle><circle cx="524.4180134680134" cy="443.25795454545454" r="4.0" fill="#FB61D7" fill-opacity="0.9" stroke="none"><title>(5.6, 18)</title></circle><circle cx="239.86414141414144" cy="316.3715909090909" r="4.0" fill="#53B400" fill-opacity="0.9" stroke="none"><title>(3.1, 26)</title></circle><circle cx="319.53922558922557" cy="316.3715909090909" r="4.0" fill="#53B400" fill-opacity="0.9" stroke="none"><title>(3.8, 26)</title></circle><circle cx="319.53922558922557" cy="300.5107954545454" r="4.0" fill="#53B400" fill-opacity="0.9" stroke="none"><title>(3.8, 27)</title></circle><circle cx="319.53922558922557" cy="284.65" r="4.0" fill="#53B400" fill-opacity="0.9" stroke="none"><title>(3.8, 28)</title></circle><circle cx="490.27154882154883" cy="332.23238636363635" r="4.0" fill="#53B400" fill-opacity="0.9" stroke="none"><title>(5.3, 25)</title></circle><circle cx="171.5712121212121" cy="332.23238636363635" r="4.0" fill="#FB61D7" fill-opacity="0.9" stroke="none"><title>(2.5, 25)</title></circle><circle cx="171.5712121212121" cy="348.09318181818185" r="4.0" fill="#FB61D7" fill-opacity="0.9" stroke="none"><title>(2.5, 24)</title></circle><circle cx="171.5712121212121" cy="300.5107954545454" r="4.0" fill="#FB61D7" fill-opacity="0.9" stroke="none"><title>(2.5, 27)</title></circle><circle cx="171.5712121212121" cy="332.23238636363635" r="4.0" fill="#FB61D7" fill-opacity="0.9" stroke="none"><title>(2.5, 25)</title></circle><circle cx="171.5712121212121" cy="316.3715909090909" r="4.0" fill="#FB61D7" fill-opacity="0.9" stroke="none"><title>(2.5, 26)</title></circle><circle cx="171.5712121212121" cy="363.95397727272723" r="4.0" fill="#FB61D7" fill-opacity="0.9" stroke="none"><title>(2.5, 23)</title></circle><circle cx="137.4247474747475" cy="316.3715909090909" r="4.0" fill="#A58AFF" fill-opacity="0.9" stroke="none"><title>(2.2, 26)</title></circle><circle cx="137.4247474747475" cy="316.3715909090909" r="4.0" fill="#A58AFF" fill-opacity="0.9" stroke="none"><title>(2.2, 26)</title></circle><circle cx="171.5712121212121" cy="316.3715909090909" r="4.0" fill="#A58AFF" fill-opacity="0.9" stroke="none"><title>(2.5, 26)</title></circle><circle cx="171.5712121212121" cy="316.3715909090909" r="4.0" fill="#A58AFF" fill-opacity="0.9" stroke="none"><title>(2.5, 26)</title></circle><circle cx="171.5712121212121" cy="332.23238636363635" r="4.0" fill="#C49A00" fill-opacity="0.9" stroke="none"><title>(2.5, 25)</title></circle><circle cx="171.5712121212121" cy="300.5107954545454" r="4.0" fill="#C49A00" fill-opacity="0.9" stroke="none"><title>(2.5, 27)</title></circle><circle cx="171.5712121212121" cy="332.23238636363635" r="4.0" fill="#C49A00" fill-opacity="0.9" stroke="none"><title>(2.5, 25)</title></circle><circle cx="171.5712121212121" cy="300.5107954545454" r="4.0" fill="#C49A00" fill-opacity="0.9" stroke="none"><title>(2.5, 27)</title></circle><circle cx="194.33552188552193" cy="411.5363636363636" r="4.0" fill="#FB61D7" fill-opacity="0.9" stroke="none"><title>(2.7, 20)</title></circle><circle cx="194.33552188552193" cy="411.5363636363636" r="4.0" fill="#FB61D7" fill-opacity="0.9" stroke="none"><title>(2.7, 20)</title></circle><circle cx="274.01060606060605" cy="427.3971590909091" r="4.0" fill="#FB61D7" fill-opacity="0.9" stroke="none"><title>(3.4, 19)</title></circle><circle cx="274.01060606060605" cy="459.11875" r="4.0" fill="#FB61D7" fill-opacity="0.9" stroke="none"><title>(3.4, 17)</title></circle><circle cx="342.3035353535353" cy="411.5363636363636" r="4.0" fill="#FB61D7" fill-opacity="0.9" stroke="none"><title>(4, 20)</title></circle><circle cx="421.97861952861956" cy="459.11875" r="4.0" fill="#FB61D7" fill-opacity="0.9" stroke="none"><title>(4.7, 17)</title></circle><circle cx="137.4247474747475" cy="268.7892045454545" r="4.0" fill="#53B400" fill-opacity="0.9" stroke="none"><title>(2.2, 29)</title></circle><circle cx="137.4247474747475" cy="300.5107954545454" r="4.0" fill="#53B400" fill-opacity="0.9" stroke="none"><title>(2.2, 27)</title></circle><circle cx="160.18905723905723" cy="237.0676136363636" r="4.0" fill="#53B400" fill-opacity="0.9" stroke="none"><title>(2.4, 31)</title></circle><circle cx="160.18905723905723" cy="237.0676136363636" r="4.0" fill="#53B400" fill-opacity="0.9" stroke="none"><title>(2.4, 31)</title></circle><circle cx="228.48198653198654" cy="316.3715909090909" r="4.0" fill="#53B400" fill-opacity="0.9" stroke="none"><title>(3, 26)</title></circle><circle cx="228.48198653198654" cy="316.3715909090909" r="4.0" fill="#53B400" fill-opacity="0.9" stroke="none"><title>(3, 26)</title></circle><circle cx="285.39276094276096" cy="284.65" r="4.0" fill="#53B400" fill-opacity="0.9" stroke="none"><title>(3.5, 28)</title></circle><circle cx="137.4247474747475" cy="300.5107954545454" r="4.0" fill="#C49A00" fill-opacity="0.9" stroke="none"><title>(2.2, 27)</title></circle><circle cx="137.4247474747475" cy="268.7892045454545" r="4.0" fill="#C49A00" fill-opacity="0.9" stroke="none"><title>(2.2, 29)</title></circle><circle cx="160.18905723905723" cy="237.0676136363636" r="4.0" fill="#C49A00" fill-opacity="0.9" stroke="none"><title>(2.4, 31)</title></circle><circle cx="160.18905723905723" cy="237.0676136363636" r="4.0" fill="#C49A00" fill-opacity="0.9" stroke="none"><title>(2.4, 31)</title></circle><circle cx="228.48198653198654" cy="316.3715909090909" r="4.0" fill="#C49A00" fill-opacity="0.9" stroke="none"><title>(3, 26)</title></circle><circle cx="228.48198653198654" cy="316.3715909090909" r="4.0" fill="#C49A00" fill-opacity="0.9" stroke="none"><title>(3, 26)</title></circle><circle cx="262.62845117845114" cy="300.5107954545454" r="4.0" fill="#C49A00" fill-opacity="0.9" stroke="none"><title>(3.3, 27)</title></circle><circle cx="91.89612794612795" cy="252.9284090909091" r="4.0" fill="#C49A00" fill-opacity="0.9" stroke="none"><title>(1.8, 30)</title></circle><circle cx="91.89612794612795" cy="205.34602272727267" r="4.0" fill="#C49A00" fill-opacity="0.9" stroke="none"><title>(1.8, 33)</title></circle><circle cx="91.89612794612795" cy="173.6244318181818" r="4.0" fill="#C49A00" fill-opacity="0.9" stroke="none"><title>(1.8, 35)</title></circle><circle cx="91.89612794612795" cy="141.9028409090909" r="4.0" fill="#C49A00" fill-opacity="0.9" stroke="none"><title>(1.8, 37)</title></circle><circle cx="91.89612794612795" cy="173.6244318181818" r="4.0" fill="#C49A00" fill-opacity="0.9" stroke="none"><title>(1.8, 35)</title></circle><circle cx="421.97861952861956" cy="490.84034090909086" r="4.0" fill="#FB61D7" fill-opacity="0.9" stroke="none"><title>(4.7, 15)</title></circle><circle cx="535.8001683501684" cy="443.25795454545454" r="4.0" fill="#FB61D7" fill-opacity="0.9" stroke="none"><title>(5.7, 18)</title></circle><circle cx="194.33552188552193" cy="411.5363636363636" r="4.0" fill="#00B6EB" fill-opacity="0.9" stroke="none"><title>(2.7, 20)</title></circle><circle cx="194.33552188552193" cy="411.5363636363636" r="4.0" fill="#00B6EB" fill-opacity="0.9" stroke="none"><title>(2.7, 20)</title></circle><circle cx="194.33552188552193" cy="379.8147727272727" r="4.0" fill="#00B6EB" fill-opacity="0.9" stroke="none"><title>(2.7, 22)</title></circle><circle cx="274.01060606060605" cy="459.11875" r="4.0" fill="#00B6EB" fill-opacity="0.9" stroke="none"><title>(3.4, 17)</title></circle><circle cx="274.01060606060605" cy="427.3971590909091" r="4.0" fill="#00B6EB" fill-opacity="0.9" stroke="none"><title>(3.4, 19)</title></circle><circle cx="342.3035353535353" cy="443.25795454545454" r="4.0" fill="#00B6EB" fill-opacity="0.9" stroke="none"><title>(4, 18)</title></circle><circle cx="342.3035353535353" cy="411.5363636363636" r="4.0" fill="#00B6EB" fill-opacity="0.9" stroke="none"><title>(4, 20)</title></circle><circle cx="114.66043771043772" cy="268.7892045454545" r="4.0" fill="#C49A00" fill-opacity="0.9" stroke="none"><title>(2, 29)</title></circle><circle cx="114.66043771043772" cy="316.3715909090909" r="4.0" fill="#C49A00" fill-opacity="0.9" stroke="none"><title>(2, 26)</title></circle><circle cx="114.66043771043772" cy="268.7892045454545" r="4.0" fill="#C49A00" fill-opacity="0.9" stroke="none"><title>(2, 29)</title></circle><circle cx="114.66043771043772" cy="268.7892045454545" r="4.0" fill="#C49A00" fill-opacity="0.9" stroke="none"><title>(2, 29)</title></circle><circle cx="205.71767676767678" cy="348.09318181818185" r="4.0" fill="#C49A00" fill-opacity="0.9" stroke="none"><title>(2.8, 24)</title></circle><circle cx="103.27828282828281" cy="30.877272727272725" r="4.0" fill="#C49A00" fill-opacity="0.9" stroke="none"><title>(1.9, 44)</title></circle><circle cx="114.66043771043772" cy="268.7892045454545" r="4.0" fill="#C49A00" fill-opacity="0.9" stroke="none"><title>(2, 29)</title></circle><circle cx="114.66043771043772" cy="316.3715909090909" r="4.0" fill="#C49A00" fill-opacity="0.9" stroke="none"><title>(2, 26)</title></circle><circle cx="114.66043771043772" cy="268.7892045454545" r="4.0" fill="#C49A00" fill-opacity="0.9" stroke="none"><title>(2, 29)</title></circle><circle cx="114.66043771043772" cy="268.7892045454545" r="4.0" fill="#C49A00" fill-opacity="0.9" stroke="none"><title>(2, 29)</title></circle><circle cx="171.5712121212121" cy="268.7892045454545" r="4.0" fill="#C49A00" fill-opacity="0.9" stroke="none"><title>(2.5, 29)</title></circle><circle cx="171.5712121212121" cy="268.7892045454545" r="4.0" fill="#C49A00" fill-opacity="0.9" stroke="none"><title>(2.5, 29)</title></circle><circle cx="205.71767676767678" cy="363.95397727272723" r="4.0" fill="#C49A00" fill-opacity="0.9" stroke="none"><title>(2.8, 23)</title></circle><circle cx="205.71767676767678" cy="348.09318181818185" r="4.0" fill="#C49A00" fill-opacity="0.9" stroke="none"><title>(2.8, 24)</title></circle><circle cx="103.27828282828281" cy="30.877272727272725" r="4.0" fill="#A58AFF" fill-opacity="0.9" stroke="none"><title>(1.9, 44)</title></circle><circle cx="103.27828282828281" cy="78.4596590909091" r="4.0" fill="#A58AFF" fill-opacity="0.9" stroke="none"><title>(1.9, 41)</title></circle><circle cx="114.66043771043772" cy="268.7892045454545" r="4.0" fill="#A58AFF" fill-opacity="0.9" stroke="none"><title>(2, 29)</title></circle><circle cx="114.66043771043772" cy="316.3715909090909" r="4.0" fill="#A58AFF" fill-opacity="0.9" stroke="none"><title>(2, 26)</title></circle><circle cx="171.5712121212121" cy="284.65" r="4.0" fill="#A58AFF" fill-opacity="0.9" stroke="none"><title>(2.5, 28)</title></circle><circle cx="171.5712121212121" cy="268.7892045454545" r="4.0" fill="#A58AFF" fill-opacity="0.9" stroke="none"><title>(2.5, 29)</title></circle><circle cx="91.89612794612795" cy="268.7892045454545" r="4.0" fill="#53B400" fill-opacity="0.9" stroke="none"><title>(1.8, 29)</title></circle><circle cx="91.89612794612795" cy="268.7892045454545" r="4.0" fill="#53B400" fill-opacity="0.9" stroke="none"><title>(1.8, 29)</title></circle><circle cx="114.66043771043772" cy="284.65" r="4.0" fill="#53B400" fill-opacity="0.9" stroke="none"><title>(2, 28)</title></circle><circle cx="114.66043771043772" cy="268.7892045454545" r="4.0" fill="#53B400" fill-opacity="0.9" stroke="none"><title>(2, 29)</title></circle><circle cx="205.71767676767678" cy="316.3715909090909" r="4.0" fill="#53B400" fill-opacity="0.9" stroke="none"><title>(2.8, 26)</title></circle><circle cx="205.71767676767678" cy="316.3715909090909" r="4.0" fill="#53B400" fill-opacity="0.9" stroke="none"><title>(2.8, 26)</title></circle><circle cx="296.7749158249158" cy="316.3715909090909" r="4.0" fill="#53B400" fill-opacity="0.9" stroke="none"><title>(3.6, 26)</title></circle><path d="M 69.13181818181819 263.8265034543737 L 69.13181818181819 263.8265034543737 L 69.13181818181819 263.8265034543737 L 69.13181818181819 263.8265034543737 L 69.13181818181819 263.8265034543737 L 91.89612794612795 246.54840334634116 L 91.89612794612795 246.54840334634116 L 91.89612794612795 246.54840334634116 L 91.89612794612795 246.54840334634116 L 91.89612794612795 246.54840334634116 L 91.89612794612795 246.54840334634116 L 91.89612794612795 246.54840334634116 L 91.89612794612795 246.54840334634116 L 91.89612794612795 246.54840334634116 L 91.89612794612795 246.54840334634116 L 91.89612794612795 246.54840334634116 L 91.89612794612795 246.54840334634116 L 91.89612794612795 246.54840334634116 L 91.89612794612795 246.54840334634116 L 103.27828282828281 255.59379686780568 L 103.27828282828281 255.59379686780568 L 103.27828282828281 255.59379686780568 L 114.66043771043772 266.333796569454 L 114.66043771043772 266.333796569454 L 114.66043771043772 266.333796569454 L 114.66043771043772 266.333796569454 L 114.66043771043772 266.333796569454 L 114.66043771043772 266.333796569454 L 114.66043771043772 266.333796569454 L 114.66043771043772 266.333796569454 L 114.66043771043772 266.333796569454 L 114.66043771043772 266.333796569454 L 114.66043771043772 266.333796569454 L 114.66043771043772 266.333796569454 L 114.66043771043772 266.333796569454 L 114.66043771043772 266.333796569454 L 114.66043771043772 266.333796569454 L 114.66043771043772 266.333796569454 L 114.66043771043772 266.333796569454 L 114.66043771043772 266.333796569454 L 114.66043771043772 266.333796569454 L 114.66043771043772 266.333796569454 L 114.66043771043772 266.333796569454 L 137.4247474747475 295.16955940201325 L 137.4247474747475 295.16955940201325 L 137.4247474747475 295.16955940201325 L 137.4247474747475 295.16955940201325 L 137.4247474747475 295.16955940201325 L 137.4247474747475 295.16955940201325 L 160.18905723905723 318.4976282444462 L 160.18905723905723 318.4976282444462 L 160.18905723905723 318.4976282444462 L 160.18905723905723 318.4976282444462 L 160.18905723905723 318.4976282444462 L 160.18905723905723 318.4976282444462 L 160.18905723905723 318.4976282444462 L 160.18905723905723 318.4976282444462 L 160.18905723905723 318.4976282444462 L 160.18905723905723 318.4976282444462 L 160.18905723905723 318.4976282444462 L 160.18905723905723 318.4976282444462 L 160.18905723905723 318.4976282444462 L 171.5712121212121 326.2541864623739 L 171.5712121212121 326.2541864623739 L 171.5712121212121 326.2541864623739 L 171.5712121212121 326.2541864623739 L 171.5712121212121 326.2541864623739 L 171.5712121212121 326.2541864623739 L 171.5712121212121 326.2541864623739 L 171.5712121212121 326.2541864623739 L 171.5712121212121 326.2541864623739 L 171.5712121212121 326.2541864623739 L 171.5712121212121 326.2541864623739 L 171.5712121212121 326.2541864623739 L 171.5712121212121 326.2541864623739 L 171.5712121212121 326.2541864623739 L 171.5712121212121 326.2541864623739 L 171.5712121212121 326.2541864623739 L 171.5712121212121 326.2541864623739 L 171.5712121212121 326.2541864623739 L 171.5712121212121 326.2541864623739 L 171.5712121212121 326.2541864623739 L 194.33552188552193 341.79265609161394 L 194.33552188552193 341.79265609161394 L 194.33552188552193 341.79265609161394 L 194.33552188552193 341.79265609161394 L 194.33552188552193 341.79265609161394 L 194.33552188552193 341.79265609161394 L 194.33552188552193 341.79265609161394 L 194.33552188552193 341.79265609161394 L 205.71767676767678 350.2857274667565 L 205.71767676767678 350.2857274667565 L 205.71767676767678 350.2857274667565 L 205.71767676767678 350.2857274667565 L 205.71767676767678 350.2857274667565 L 205.71767676767678 350.2857274667565 L 205.71767676767678 350.2857274667565 L 205.71767676767678 350.2857274667565 L 205.71767676767678 350.2857274667565 L 205.71767676767678 350.2857274667565 L 228.48198653198654 363.26450443875837 L 228.48198653198654 363.26450443875837 L 228.48198653198654 363.26450443875837 L 228.48198653198654 363.26450443875837 L 228.48198653198654 363.26450443875837 L 228.48198653198654 363.26450443875837 L 228.48198653198654 363.26450443875837 L 228.48198653198654 363.26450443875837 L 239.86414141414144 367.6539527509949 L 239.86414141414144 367.6539527509949 L 239.86414141414144 367.6539527509949 L 239.86414141414144 367.6539527509949 L 239.86414141414144 367.6539527509949 L 239.86414141414144 367.6539527509949 L 262.62845117845114 374.8366552815656 L 262.62845117845114 374.8366552815656 L 262.62845117845114 374.8366552815656 L 262.62845117845114 374.8366552815656 L 262.62845117845114 374.8366552815656 L 262.62845117845114 374.8366552815656 L 262.62845117845114 374.8366552815656 L 262.62845117845114 374.8366552815656 L 262.62845117845114 374.8366552815656 L 274.01060606060605 378.95929893354526 L 274.01060606060605 378.95929893354526 L 274.01060606060605 378.95929893354526 L 274.01060606060605 378.95929893354526 L 285.39276094276096 384.1229308479741 L 285.39276094276096 384.1229308479741 L 285.39276094276096 384.1229308479741 L 285.39276094276096 384.1229308479741 L 285.39276094276096 384.1229308479741 L 296.7749158249158 390.40978351331404 L 296.7749158249158 390.40978351331404 L 308.1570707070707 397.5853391709808 L 308.1570707070707 397.5853391709808 L 308.1570707070707 397.5853391709808 L 319.53922558922557 405.3264047140466 L 319.53922558922557 405.3264047140466 L 319.53922558922557 405.3264047140466 L 319.53922558922557 405.3264047140466 L 319.53922558922557 405.3264047140466 L 319.53922558922557 405.3264047140466 L 319.53922558922557 405.3264047140466 L 319.53922558922557 405.3264047140466 L 330.9213804713805 413.37710587159614 L 330.9213804713805 413.37710587159614 L 330.9213804713805 413.37710587159614 L 342.3035353535353 421.58991088778345 L 342.3035353535353 421.58991088778345 L 342.3035353535353 421.58991088778345 L 342.3035353535353 421.58991088778345 L 342.3035353535353 421.58991088778345 L 342.3035353535353 421.58991088778345 L 342.3035353535353 421.58991088778345 L 342.3035353535353 421.58991088778345 L 342.3035353535353 421.58991088778345 L 342.3035353535353 421.58991088778345 L 342.3035353535353 421.58991088778345 L 342.3035353535353 421.58991088778345 L 342.3035353535353 421.58991088778345 L 342.3035353535353 421.58991088778345 L 342.3035353535353 421.58991088778345 L 365.06784511784514 438.48819879124403 L 365.06784511784514 438.48819879124403 L 365.06784511784514 438.48819879124403 L 365.06784511784514 438.48819879124403 L 387.83215488215495 456.08817669748527 L 410.59646464646465 472.1746541064545 L 410.59646464646465 472.1746541064545 L 410.59646464646465 472.1746541064545 L 410.59646464646465 472.1746541064545 L 410.59646464646465 472.1746541064545 L 410.59646464646465 472.1746541064545 L 410.59646464646465 472.1746541064545 L 410.59646464646465 472.1746541064545 L 410.59646464646465 472.1746541064545 L 410.59646464646465 472.1746541064545 L 410.59646464646465 472.1746541064545 L 421.97861952861956 478.1305398004106 L 421.97861952861956 478.1305398004106 L 421.97861952861956 478.1305398004106 L 421.97861952861956 478.1305398004106 L 421.97861952861956 478.1305398004106 L 421.97861952861956 478.1305398004106 L 421.97861952861956 478.1305398004106 L 421.97861952861956 478.1305398004106 L 421.97861952861956 478.1305398004106 L 421.97861952861956 478.1305398004106 L 421.97861952861956 478.1305398004106 L 421.97861952861956 478.1305398004106 L 421.97861952861956 478.1305398004106 L 421.97861952861956 478.1305398004106 L 421.97861952861956 478.1305398004106 L 421.97861952861956 478.1305398004106 L 421.97861952861956 478.1305398004106 L 456.12508417508417 483.70564285439366 L 456.12508417508417 483.70564285439366 L 478.889393939394 479.81399995391536 L 478.889393939394 479.81399995391536 L 478.889393939394 479.81399995391536 L 478.889393939394 479.81399995391536 L 478.889393939394 479.81399995391536 L 490.27154882154883 476.68900478530605 L 490.27154882154883 476.68900478530605 L 490.27154882154883 476.68900478530605 L 490.27154882154883 476.68900478530605 L 490.27154882154883 476.68900478530605 L 490.27154882154883 476.68900478530605 L 501.6537037037038 473.1734328318694 L 501.6537037037038 473.1734328318694 L 501.6537037037038 473.1734328318694 L 501.6537037037038 473.1734328318694 L 501.6537037037038 473.1734328318694 L 501.6537037037038 473.1734328318694 L 501.6537037037038 473.1734328318694 L 501.6537037037038 473.1734328318694 L 524.4180134680134 465.38474139886154 L 535.8001683501684 461.0944932299055 L 535.8001683501684 461.0944932299055 L 535.8001683501684 461.0944932299055 L 535.8001683501684 461.0944932299055 L 535.8001683501684 461.0944932299055 L 535.8001683501684 461.0944932299055 L 535.8001683501684 461.0944932299055 L 535.8001683501684 461.0944932299055 L 558.5644781144782 451.6551180326025 L 558.5644781144782 451.6551180326025 L 569.946632996633 446.62958443872026 L 581.3287878787878 441.6149931965694 L 592.7109427609428 436.8995965386872 L 592.7109427609428 436.8995965386872 L 626.8574074074074 429.13118915572113 L 683.7681818181818 468.87667253400286 L 683.7681818181818 276.1710529129754 L 626.8574074074074 345.8236084046225 L 592.7109427609428 374.6015017907042 L 592.7109427609428 374.6015017907042 L 581.3287878787878 383.53904868165284 L 569.946632996633 392.4601838500306 L 558.5644781144782 401.38157625764785 L 558.5644781144782 401.38157625764785 L 535.8001683501684 418.78331875335425 L 535.8001683501684 418.78331875335425 L 535.8001683501684 418.78331875335425 L 535.8001683501684 418.78331875335425 L 535.8001683501684 418.78331875335425 L 535.8001683501684 418.78331875335425 L 535.8001683501684 418.78331875335425 L 535.8001683501684 418.78331875335425 L 524.4180134680134 426.84409573445566 L 501.6537037037038 440.2604708550376 L 501.6537037037038 440.2604708550376 L 501.6537037037038 440.2604708550376 L 501.6537037037038 440.2604708550376 L 501.6537037037038 440.2604708550376 L 501.6537037037038 440.2604708550376 L 501.6537037037038 440.2604708550376 L 501.6537037037038 440.2604708550376 L 490.27154882154883 445.05577376368143 L 490.27154882154883 445.05577376368143 L 490.27154882154883 445.05577376368143 L 490.27154882154883 445.05577376368143 L 490.27154882154883 445.05577376368143 L 490.27154882154883 445.05577376368143 L 478.889393939394 448.3517701530412 L 478.889393939394 448.3517701530412 L 478.889393939394 448.3517701530412 L 478.889393939394 448.3517701530412 L 478.889393939394 448.3517701530412 L 456.12508417508417 450.5461273732637 L 456.12508417508417 450.5461273732637 L 421.97861952861956 444.28652405931257 L 421.97861952861956 444.28652405931257 L 421.97861952861956 444.28652405931257 L 421.97861952861956 444.28652405931257 L 421.97861952861956 444.28652405931257 L 421.97861952861956 444.28652405931257 L 421.97861952861956 444.28652405931257 L 421.97861952861956 444.28652405931257 L 421.97861952861956 444.28652405931257 L 421.97861952861956 444.28652405931257 L 421.97861952861956 444.28652405931257 L 421.97861952861956 444.28652405931257 L 421.97861952861956 444.28652405931257 L 421.97861952861956 444.28652405931257 L 421.97861952861956 444.28652405931257 L 421.97861952861956 444.28652405931257 L 421.97861952861956 444.28652405931257 L 410.59646464646465 439.77011727992596 L 410.59646464646465 439.77011727992596 L 410.59646464646465 439.77011727992596 L 410.59646464646465 439.77011727992596 L 410.59646464646465 439.77011727992596 L 410.59646464646465 439.77011727992596 L 410.59646464646465 439.77011727992596 L 410.59646464646465 439.77011727992596 L 410.59646464646465 439.77011727992596 L 410.59646464646465 439.77011727992596 L 410.59646464646465 439.77011727992596 L 387.83215488215495 426.84987536036067 L 365.06784511784514 408.8536454348564 L 365.06784511784514 408.8536454348564 L 365.06784511784514 408.8536454348564 L 365.06784511784514 408.8536454348564 L 342.3035353535353 388.5582658104672 L 342.3035353535353 388.5582658104672 L 342.3035353535353 388.5582658104672 L 342.3035353535353 388.5582658104672 L 342.3035353535353 388.5582658104672 L 342.3035353535353 388.5582658104672 L 342.3035353535353 388.5582658104672 L 342.3035353535353 388.5582658104672 L 342.3035353535353 388.5582658104672 L 342.3035353535353 388.5582658104672 L 342.3035353535353 388.5582658104672 L 342.3035353535353 388.5582658104672 L 342.3035353535353 388.5582658104672 L 342.3035353535353 388.5582658104672 L 342.3035353535353 388.5582658104672 L 330.9213804713805 379.13519867891137 L 330.9213804713805 379.13519867891137 L 330.9213804713805 379.13519867891137 L 319.53922558922557 371.02267356735643 L 319.53922558922557 371.02267356735643 L 319.53922558922557 371.02267356735643 L 319.53922558922557 371.02267356735643 L 319.53922558922557 371.02267356735643 L 319.53922558922557 371.02267356735643 L 319.53922558922557 371.02267356735643 L 319.53922558922557 371.02267356735643 L 308.1570707070707 364.5322749752977 L 308.1570707070707 364.5322749752977 L 308.1570707070707 364.5322749752977 L 296.7749158249158 359.20769550497215 L 296.7749158249158 359.20769550497215 L 285.39276094276096 354.36042157705685 L 285.39276094276096 354.36042157705685 L 285.39276094276096 354.36042157705685 L 285.39276094276096 354.36042157705685 L 285.39276094276096 354.36042157705685 L 274.01060606060605 349.3906149605731 L 274.01060606060605 349.3906149605731 L 274.01060606060605 349.3906149605731 L 274.01060606060605 349.3906149605731 L 262.62845117845114 344.0151876715877 L 262.62845117845114 344.0151876715877 L 262.62845117845114 344.0151876715877 L 262.62845117845114 344.0151876715877 L 262.62845117845114 344.0151876715877 L 262.62845117845114 344.0151876715877 L 262.62845117845114 344.0151876715877 L 262.62845117845114 344.0151876715877 L 262.62845117845114 344.0151876715877 L 239.86414141414144 332.6465692004916 L 239.86414141414144 332.6465692004916 L 239.86414141414144 332.6465692004916 L 239.86414141414144 332.6465692004916 L 239.86414141414144 332.6465692004916 L 239.86414141414144 332.6465692004916 L 228.48198653198654 327.2521265072364 L 228.48198653198654 327.2521265072364 L 228.48198653198654 327.2521265072364 L 228.48198653198654 327.2521265072364 L 228.48198653198654 327.2521265072364 L 228.48198653198654 327.2521265072364 L 228.48198653198654 327.2521265072364 L 228.48198653198654 327.2521265072364 L 205.71767676767678 317.8200580969643 L 205.71767676767678 317.8200580969643 L 205.71767676767678 317.8200580969643 L 205.71767676767678 317.8200580969643 L 205.71767676767678 317.8200580969643 L 205.71767676767678 317.8200580969643 L 205.71767676767678 317.8200580969643 L 205.71767676767678 317.8200580969643 L 205.71767676767678 317.8200580969643 L 205.71767676767678 317.8200580969643 L 194.33552188552193 312.97157894208374 L 194.33552188552193 312.97157894208374 L 194.33552188552193 312.97157894208374 L 194.33552188552193 312.97157894208374 L 194.33552188552193 312.97157894208374 L 194.33552188552193 312.97157894208374 L 194.33552188552193 312.97157894208374 L 194.33552188552193 312.97157894208374 L 171.5712121212121 296.0810748856047 L 171.5712121212121 296.0810748856047 L 171.5712121212121 296.0810748856047 L 171.5712121212121 296.0810748856047 L 171.5712121212121 296.0810748856047 L 171.5712121212121 296.0810748856047 L 171.5712121212121 296.0810748856047 L 171.5712121212121 296.0810748856047 L 171.5712121212121 296.0810748856047 L 171.5712121212121 296.0810748856047 L 171.5712121212121 296.0810748856047 L 171.5712121212121 296.0810748856047 L 171.5712121212121 296.0810748856047 L 171.5712121212121 296.0810748856047 L 171.5712121212121 296.0810748856047 L 171.5712121212121 296.0810748856047 L 171.5712121212121 296.0810748856047 L 171.5712121212121 296.0810748856047 L 171.5712121212121 296.0810748856047 L 171.5712121212121 296.0810748856047 L 160.18905723905723 284.21210650163255 L 160.18905723905723 284.21210650163255 L 160.18905723905723 284.21210650163255 L 160.18905723905723 284.21210650163255 L 160.18905723905723 284.21210650163255 L 160.18905723905723 284.21210650163255 L 160.18905723905723 284.21210650163255 L 160.18905723905723 284.21210650163255 L 160.18905723905723 284.21210650163255 L 160.18905723905723 284.21210650163255 L 160.18905723905723 284.21210650163255 L 160.18905723905723 284.21210650163255 L 160.18905723905723 284.21210650163255 L 137.4247474747475 260.1217840066769 L 137.4247474747475 260.1217840066769 L 137.4247474747475 260.1217840066769 L 137.4247474747475 260.1217840066769 L 137.4247474747475 260.1217840066769 L 137.4247474747475 260.1217840066769 L 114.66043771043772 232.8928407713501 L 114.66043771043772 232.8928407713501 L 114.66043771043772 232.8928407713501 L 114.66043771043772 232.8928407713501 L 114.66043771043772 232.8928407713501 L 114.66043771043772 232.8928407713501 L 114.66043771043772 232.8928407713501 L 114.66043771043772 232.8928407713501 L 114.66043771043772 232.8928407713501 L 114.66043771043772 232.8928407713501 L 114.66043771043772 232.8928407713501 L 114.66043771043772 232.8928407713501 L 114.66043771043772 232.8928407713501 L 114.66043771043772 232.8928407713501 L 114.66043771043772 232.8928407713501 L 114.66043771043772 232.8928407713501 L 114.66043771043772 232.8928407713501 L 114.66043771043772 232.8928407713501 L 114.66043771043772 232.8928407713501 L 114.66043771043772 232.8928407713501 L 114.66043771043772 232.8928407713501 L 103.27828282828281 217.74121150981586 L 103.27828282828281 217.74121150981586 L 103.27828282828281 217.74121150981586 L 91.89612794612795 206.0005374194368 L 91.89612794612795 206.0005374194368 L 91.89612794612795 206.0005374194368 L 91.89612794612795 206.0005374194368 L 91.89612794612795 206.0005374194368 L 91.89612794612795 206.0005374194368 L 91.89612794612795 206.0005374194368 L 91.89612794612795 206.0005374194368 L 91.89612794612795 206.0005374194368 L 91.89612794612795 206.0005374194368 L 91.89612794612795 206.0005374194368 L 91.89612794612795 206.0005374194368 L 91.89612794612795 206.0005374194368 L 91.89612794612795 206.0005374194368 L 69.13181818181819 173.5022220542303 L 69.13181818181819 173.5022220542303 L 69.13181818181819 173.5022220542303 L 69.13181818181819 173.5022220542303 L 69.13181818181819 173.5022220542303 Z" fill="#3366FF" fill-opacity="0.2" stroke="none"/><line x1="69.13181818181819" y1="218.66436275430198" x2="69.13181818181819" y2="218.66436275430198" stroke="#3366FF" stroke-width="2.0"/><line x1="69.13181818181819" y1="218.66436275430198" x2="69.13181818181819" y2="218.66436275430198" stroke="#3366FF" stroke-width="2.0"/><line x1="69.13181818181819" y1="218.66436275430198" x2="69.13181818181819" y2="218.66436275430198" stroke="#3366FF" stroke-width="2.0"/><line x1="69.13181818181819" y1="218.66436275430198" x2="69.13181818181819" y2="218.66436275430198" stroke="#3366FF" stroke-width="2.0"/><line x1="69.13181818181819" y1="218.66436275430198" x2="91.89612794612795" y2="226.27447038288898" stroke="#3366FF" stroke-width="2.0"/><line x1="91.89612794612795" y1="226.27447038288898" x2="91.89612794612795" y2="226.27447038288898" stroke="#3366FF" stroke-width="2.0"/><line x1="91.89612794612795" y1="226.27447038288898" x2="91.89612794612795" y2="226.27447038288898" stroke="#3366FF" stroke-width="2.0"/><line x1="91.89612794612795" y1="226.27447038288898" x2="91.89612794612795" y2="226.27447038288898" stroke="#3366FF" stroke-width="2.0"/><line x1="91.89612794612795" y1="226.27447038288898" x2="91.89612794612795" y2="226.27447038288898" stroke="#3366FF" stroke-width="2.0"/><line x1="91.89612794612795" y1="226.27447038288898" x2="91.89612794612795" y2="226.27447038288898" stroke="#3366FF" stroke-width="2.0"/><line x1="91.89612794612795" y1="226.27447038288898" x2="91.89612794612795" y2="226.27447038288898" stroke="#3366FF" stroke-width="2.0"/><line x1="91.89612794612795" y1="226.27447038288898" x2="91.89612794612795" y2="226.27447038288898" stroke="#3366FF" stroke-width="2.0"/><line x1="91.89612794612795" y1="226.27447038288898" x2="91.89612794612795" y2="226.27447038288898" stroke="#3366FF" stroke-width="2.0"/><line x1="91.89612794612795" y1="226.27447038288898" x2="91.89612794612795" y2="226.27447038288898" stroke="#3366FF" stroke-width="2.0"/><line x1="91.89612794612795" y1="226.27447038288898" x2="91.89612794612795" y2="226.27447038288898" stroke="#3366FF" stroke-width="2.0"/><line x1="91.89612794612795" y1="226.27447038288898" x2="91.89612794612795" y2="226.27447038288898" stroke="#3366FF" stroke-width="2.0"/><line x1="91.89612794612795" y1="226.27447038288898" x2="91.89612794612795" y2="226.27447038288898" stroke="#3366FF" stroke-width="2.0"/><line x1="91.89612794612795" y1="226.27447038288898" x2="91.89612794612795" y2="226.27447038288898" stroke="#3366FF" stroke-width="2.0"/><line x1="91.89612794612795" y1="226.27447038288898" x2="103.27828282828281" y2="236.66750418881065" stroke="#3366FF" stroke-width="2.0"/><line x1="103.27828282828281" y1="236.66750418881065" x2="103.27828282828281" y2="236.66750418881065" stroke="#3366FF" stroke-width="2.0"/><line x1="103.27828282828281" y1="236.66750418881065" x2="103.27828282828281" y2="236.66750418881065" stroke="#3366FF" stroke-width="2.0"/><line x1="103.27828282828281" y1="236.66750418881065" x2="114.66043771043772" y2="249.61331867040207" stroke="#3366FF" stroke-width="2.0"/><line x1="114.66043771043772" y1="249.61331867040207" x2="114.66043771043772" y2="249.61331867040207" stroke="#3366FF" stroke-width="2.0"/><line x1="114.66043771043772" y1="249.61331867040207" x2="114.66043771043772" y2="249.61331867040207" stroke="#3366FF" stroke-width="2.0"/><line x1="114.66043771043772" y1="249.61331867040207" x2="114.66043771043772" y2="249.61331867040207" stroke="#3366FF" stroke-width="2.0"/><line x1="114.66043771043772" y1="249.61331867040207" x2="114.66043771043772" y2="249.61331867040207" stroke="#3366FF" stroke-width="2.0"/><line x1="114.66043771043772" y1="249.61331867040207" x2="114.66043771043772" y2="249.61331867040207" stroke="#3366FF" stroke-width="2.0"/><line x1="114.66043771043772" y1="249.61331867040207" x2="114.66043771043772" y2="249.61331867040207" stroke="#3366FF" stroke-width="2.0"/><line x1="114.66043771043772" y1="249.61331867040207" x2="114.66043771043772" y2="249.61331867040207" stroke="#3366FF" stroke-width="2.0"/><line x1="114.66043771043772" y1="249.61331867040207" x2="114.66043771043772" y2="249.61331867040207" stroke="#3366FF" stroke-width="2.0"/><line x1="114.66043771043772" y1="249.61331867040207" x2="114.66043771043772" y2="249.61331867040207" stroke="#3366FF" stroke-width="2.0"/><line x1="114.66043771043772" y1="249.61331867040207" x2="114.66043771043772" y2="249.61331867040207" stroke="#3366FF" stroke-width="2.0"/><line x1="114.66043771043772" y1="249.61331867040207" x2="114.66043771043772" y2="249.61331867040207" stroke="#3366FF" stroke-width="2.0"/><line x1="114.66043771043772" y1="249.61331867040207" x2="114.66043771043772" y2="249.61331867040207" stroke="#3366FF" stroke-width="2.0"/><line x1="114.66043771043772" y1="249.61331867040207" x2="114.66043771043772" y2="249.61331867040207" stroke="#3366FF" stroke-width="2.0"/><line x1="114.66043771043772" y1="249.61331867040207" x2="114.66043771043772" y2="249.61331867040207" stroke="#3366FF" stroke-width="2.0"/><line x1="114.66043771043772" y1="249.61331867040207" x2="114.66043771043772" y2="249.61331867040207" stroke="#3366FF" stroke-width="2.0"/><line x1="114.66043771043772" y1="249.61331867040207" x2="114.66043771043772" y2="249.61331867040207" stroke="#3366FF" stroke-width="2.0"/><line x1="114.66043771043772" y1="249.61331867040207" x2="114.66043771043772" y2="249.61331867040207" stroke="#3366FF" stroke-width="2.0"/><line x1="114.66043771043772" y1="249.61331867040207" x2="114.66043771043772" y2="249.61331867040207" stroke="#3366FF" stroke-width="2.0"/><line x1="114.66043771043772" y1="249.61331867040207" x2="114.66043771043772" y2="249.61331867040207" stroke="#3366FF" stroke-width="2.0"/><line x1="114.66043771043772" y1="249.61331867040207" x2="114.66043771043772" y2="249.61331867040207" stroke="#3366FF" stroke-width="2.0"/><line x1="114.66043771043772" y1="249.61331867040207" x2="137.4247474747475" y2="277.645671704345" stroke="#3366FF" stroke-width="2.0"/><line x1="137.4247474747475" y1="277.645671704345" x2="137.4247474747475" y2="277.645671704345" stroke="#3366FF" stroke-width="2.0"/><line x1="137.4247474747475" y1="277.645671704345" x2="137.4247474747475" y2="277.645671704345" stroke="#3366FF" stroke-width="2.0"/><line x1="137.4247474747475" y1="277.645671704345" x2="137.4247474747475" y2="277.645671704345" stroke="#3366FF" stroke-width="2.0"/><line x1="137.4247474747475" y1="277.645671704345" x2="137.4247474747475" y2="277.645671704345" stroke="#3366FF" stroke-width="2.0"/><line x1="137.4247474747475" y1="277.645671704345" x2="137.4247474747475" y2="277.645671704345" stroke="#3366FF" stroke-width="2.0"/><line x1="137.4247474747475" y1="277.645671704345" x2="160.18905723905723" y2="301.35486737303944" stroke="#3366FF" stroke-width="2.0"/><line x1="160.18905723905723" y1="301.35486737303944" x2="160.18905723905723" y2="301.35486737303944" stroke="#3366FF" stroke-width="2.0"/><line x1="160.18905723905723" y1="301.35486737303944" x2="160.18905723905723" y2="301.35486737303944" stroke="#3366FF" stroke-width="2.0"/><line x1="160.18905723905723" y1="301.35486737303944" x2="160.18905723905723" y2="301.35486737303944" stroke="#3366FF" stroke-width="2.0"/><line x1="160.18905723905723" y1="301.35486737303944" x2="160.18905723905723" y2="301.35486737303944" stroke="#3366FF" stroke-width="2.0"/><line x1="160.18905723905723" y1="301.35486737303944" x2="160.18905723905723" y2="301.35486737303944" stroke="#3366FF" stroke-width="2.0"/><line x1="160.18905723905723" y1="301.35486737303944" x2="160.18905723905723" y2="301.35486737303944" stroke="#3366FF" stroke-width="2.0"/><line x1="160.18905723905723" y1="301.35486737303944" x2="160.18905723905723" y2="301.35486737303944" stroke="#3366FF" stroke-width="2.0"/><line x1="160.18905723905723" y1="301.35486737303944" x2="160.18905723905723" y2="301.35486737303944" stroke="#3366FF" stroke-width="2.0"/><line x1="160.18905723905723" y1="301.35486737303944" x2="160.18905723905723" y2="301.35486737303944" stroke="#3366FF" stroke-width="2.0"/><line x1="160.18905723905723" y1="301.35486737303944" x2="160.18905723905723" y2="301.35486737303944" stroke="#3366FF" stroke-width="2.0"/><line x1="160.18905723905723" y1="301.35486737303944" x2="160.18905723905723" y2="301.35486737303944" stroke="#3366FF" stroke-width="2.0"/><line x1="160.18905723905723" y1="301.35486737303944" x2="160.18905723905723" y2="301.35486737303944" stroke="#3366FF" stroke-width="2.0"/><line x1="160.18905723905723" y1="301.35486737303944" x2="171.5712121212121" y2="311.16763067398927" stroke="#3366FF" stroke-width="2.0"/><line x1="171.5712121212121" y1="311.16763067398927" x2="171.5712121212121" y2="311.16763067398927" stroke="#3366FF" stroke-width="2.0"/><line x1="171.5712121212121" y1="311.16763067398927" x2="171.5712121212121" y2="311.16763067398927" stroke="#3366FF" stroke-width="2.0"/><line x1="171.5712121212121" y1="311.16763067398927" x2="171.5712121212121" y2="311.16763067398927" stroke="#3366FF" stroke-width="2.0"/><line x1="171.5712121212121" y1="311.16763067398927" x2="171.5712121212121" y2="311.16763067398927" stroke="#3366FF" stroke-width="2.0"/><line x1="171.5712121212121" y1="311.16763067398927" x2="171.5712121212121" y2="311.16763067398927" stroke="#3366FF" stroke-width="2.0"/><line x1="171.5712121212121" y1="311.16763067398927" x2="171.5712121212121" y2="311.16763067398927" stroke="#3366FF" stroke-width="2.0"/><line x1="171.5712121212121" y1="311.16763067398927" x2="171.5712121212121" y2="311.16763067398927" stroke="#3366FF" stroke-width="2.0"/><line x1="171.5712121212121" y1="311.16763067398927" x2="171.5712121212121" y2="311.16763067398927" stroke="#3366FF" stroke-width="2.0"/><line x1="171.5712121212121" y1="311.16763067398927" x2="171.5712121212121" y2="311.16763067398927" stroke="#3366FF" stroke-width="2.0"/><line x1="171.5712121212121" y1="311.16763067398927" x2="171.5712121212121" y2="311.16763067398927" stroke="#3366FF" stroke-width="2.0"/><line x1="171.5712121212121" y1="311.16763067398927" x2="171.5712121212121" y2="311.16763067398927" stroke="#3366FF" stroke-width="2.0"/><line x1="171.5712121212121" y1="311.16763067398927" x2="171.5712121212121" y2="311.16763067398927" stroke="#3366FF" stroke-width="2.0"/><line x1="171.5712121212121" y1="311.16763067398927" x2="171.5712121212121" y2="311.16763067398927" stroke="#3366FF" stroke-width="2.0"/><line x1="171.5712121212121" y1="311.16763067398927" x2="171.5712121212121" y2="311.16763067398927" stroke="#3366FF" stroke-width="2.0"/><line x1="171.5712121212121" y1="311.16763067398927" x2="171.5712121212121" y2="311.16763067398927" stroke="#3366FF" stroke-width="2.0"/><line x1="171.5712121212121" y1="311.16763067398927" x2="171.5712121212121" y2="311.16763067398927" stroke="#3366FF" stroke-width="2.0"/><line x1="171.5712121212121" y1="311.16763067398927" x2="171.5712121212121" y2="311.16763067398927" stroke="#3366FF" stroke-width="2.0"/><line x1="171.5712121212121" y1="311.16763067398927" x2="171.5712121212121" y2="311.16763067398927" stroke="#3366FF" stroke-width="2.0"/><line x1="171.5712121212121" y1="311.16763067398927" x2="171.5712121212121" y2="311.16763067398927" stroke="#3366FF" stroke-width="2.0"/><line x1="171.5712121212121" y1="311.16763067398927" x2="194.33552188552193" y2="327.3821175168488" stroke="#3366FF" stroke-width="2.0"/><line x1="194.33552188552193" y1="327.3821175168488" x2="194.33552188552193" y2="327.3821175168488" stroke="#3366FF" stroke-width="2.0"/><line x1="194.33552188552193" y1="327.3821175168488" x2="194.33552188552193" y2="327.3821175168488" stroke="#3366FF" stroke-width="2.0"/><line x1="194.33552188552193" y1="327.3821175168488" x2="194.33552188552193" y2="327.3821175168488" stroke="#3366FF" stroke-width="2.0"/><line x1="194.33552188552193" y1="327.3821175168488" x2="194.33552188552193" y2="327.3821175168488" stroke="#3366FF" stroke-width="2.0"/><line x1="194.33552188552193" y1="327.3821175168488" x2="194.33552188552193" y2="327.3821175168488" stroke="#3366FF" stroke-width="2.0"/><line x1="194.33552188552193" y1="327.3821175168488" x2="194.33552188552193" y2="327.3821175168488" stroke="#3366FF" stroke-width="2.0"/><line x1="194.33552188552193" y1="327.3821175168488" x2="194.33552188552193" y2="327.3821175168488" stroke="#3366FF" stroke-width="2.0"/><line x1="194.33552188552193" y1="327.3821175168488" x2="205.71767676767678" y2="334.0528927818604" stroke="#3366FF" stroke-width="2.0"/><line x1="205.71767676767678" y1="334.0528927818604" x2="205.71767676767678" y2="334.0528927818604" stroke="#3366FF" stroke-width="2.0"/><line x1="205.71767676767678" y1="334.0528927818604" x2="205.71767676767678" y2="334.0528927818604" stroke="#3366FF" stroke-width="2.0"/><line x1="205.71767676767678" y1="334.0528927818604" x2="205.71767676767678" y2="334.0528927818604" stroke="#3366FF" stroke-width="2.0"/><line x1="205.71767676767678" y1="334.0528927818604" x2="205.71767676767678" y2="334.0528927818604" stroke="#3366FF" stroke-width="2.0"/><line x1="205.71767676767678" y1="334.0528927818604" x2="205.71767676767678" y2="334.0528927818604" stroke="#3366FF" stroke-width="2.0"/><line x1="205.71767676767678" y1="334.0528927818604" x2="205.71767676767678" y2="334.0528927818604" stroke="#3366FF" stroke-width="2.0"/><line x1="205.71767676767678" y1="334.0528927818604" x2="205.71767676767678" y2="334.0528927818604" stroke="#3366FF" stroke-width="2.0"/><line x1="205.71767676767678" y1="334.0528927818604" x2="205.71767676767678" y2="334.0528927818604" stroke="#3366FF" stroke-width="2.0"/><line x1="205.71767676767678" y1="334.0528927818604" x2="205.71767676767678" y2="334.0528927818604" stroke="#3366FF" stroke-width="2.0"/><line x1="205.71767676767678" y1="334.0528927818604" x2="228.48198653198654" y2="345.25831547299737" stroke="#3366FF" stroke-width="2.0"/><line x1="228.48198653198654" y1="345.25831547299737" x2="228.48198653198654" y2="345.25831547299737" stroke="#3366FF" stroke-width="2.0"/><line x1="228.48198653198654" y1="345.25831547299737" x2="228.48198653198654" y2="345.25831547299737" stroke="#3366FF" stroke-width="2.0"/><line x1="228.48198653198654" y1="345.25831547299737" x2="228.48198653198654" y2="345.25831547299737" stroke="#3366FF" stroke-width="2.0"/><line x1="228.48198653198654" y1="345.25831547299737" x2="228.48198653198654" y2="345.25831547299737" stroke="#3366FF" stroke-width="2.0"/><line x1="228.48198653198654" y1="345.25831547299737" x2="228.48198653198654" y2="345.25831547299737" stroke="#3366FF" stroke-width="2.0"/><line x1="228.48198653198654" y1="345.25831547299737" x2="228.48198653198654" y2="345.25831547299737" stroke="#3366FF" stroke-width="2.0"/><line x1="228.48198653198654" y1="345.25831547299737" x2="228.48198653198654" y2="345.25831547299737" stroke="#3366FF" stroke-width="2.0"/><line x1="228.48198653198654" y1="345.25831547299737" x2="239.86414141414144" y2="350.15026097574327" stroke="#3366FF" stroke-width="2.0"/><line x1="239.86414141414144" y1="350.15026097574327" x2="239.86414141414144" y2="350.15026097574327" stroke="#3366FF" stroke-width="2.0"/><line x1="239.86414141414144" y1="350.15026097574327" x2="239.86414141414144" y2="350.15026097574327" stroke="#3366FF" stroke-width="2.0"/><line x1="239.86414141414144" y1="350.15026097574327" x2="239.86414141414144" y2="350.15026097574327" stroke="#3366FF" stroke-width="2.0"/><line x1="239.86414141414144" y1="350.15026097574327" x2="239.86414141414144" y2="350.15026097574327" stroke="#3366FF" stroke-width="2.0"/><line x1="239.86414141414144" y1="350.15026097574327" x2="239.86414141414144" y2="350.15026097574327" stroke="#3366FF" stroke-width="2.0"/><line x1="239.86414141414144" y1="350.15026097574327" x2="262.62845117845114" y2="359.4259214765766" stroke="#3366FF" stroke-width="2.0"/><line x1="262.62845117845114" y1="359.4259214765766" x2="262.62845117845114" y2="359.4259214765766" stroke="#3366FF" stroke-width="2.0"/><line x1="262.62845117845114" y1="359.4259214765766" x2="262.62845117845114" y2="359.4259214765766" stroke="#3366FF" stroke-width="2.0"/><line x1="262.62845117845114" y1="359.4259214765766" x2="262.62845117845114" y2="359.4259214765766" stroke="#3366FF" stroke-width="2.0"/><line x1="262.62845117845114" y1="359.4259214765766" x2="262.62845117845114" y2="359.4259214765766" stroke="#3366FF" stroke-width="2.0"/><line x1="262.62845117845114" y1="359.4259214765766" x2="262.62845117845114" y2="359.4259214765766" stroke="#3366FF" stroke-width="2.0"/><line x1="262.62845117845114" y1="359.4259214765766" x2="262.62845117845114" y2="359.4259214765766" stroke="#3366FF" stroke-width="2.0"/><line x1="262.62845117845114" y1="359.4259214765766" x2="262.62845117845114" y2="359.4259214765766" stroke="#3366FF" stroke-width="2.0"/><line x1="262.62845117845114" y1="359.4259214765766" x2="262.62845117845114" y2="359.4259214765766" stroke="#3366FF" stroke-width="2.0"/><line x1="262.62845117845114" y1="359.4259214765766" x2="274.01060606060605" y2="364.1749569470592" stroke="#3366FF" stroke-width="2.0"/><line x1="274.01060606060605" y1="364.1749569470592" x2="274.01060606060605" y2="364.1749569470592" stroke="#3366FF" stroke-width="2.0"/><line x1="274.01060606060605" y1="364.1749569470592" x2="274.01060606060605" y2="364.1749569470592" stroke="#3366FF" stroke-width="2.0"/><line x1="274.01060606060605" y1="364.1749569470592" x2="274.01060606060605" y2="364.1749569470592" stroke="#3366FF" stroke-width="2.0"/><line x1="274.01060606060605" y1="364.1749569470592" x2="285.39276094276096" y2="369.2416762125155" stroke="#3366FF" stroke-width="2.0"/><line x1="285.39276094276096" y1="369.2416762125155" x2="285.39276094276096" y2="369.2416762125155" stroke="#3366FF" stroke-width="2.0"/><line x1="285.39276094276096" y1="369.2416762125155" x2="285.39276094276096" y2="369.2416762125155" stroke="#3366FF" stroke-width="2.0"/><line x1="285.39276094276096" y1="369.2416762125155" x2="285.39276094276096" y2="369.2416762125155" stroke="#3366FF" stroke-width="2.0"/><line x1="285.39276094276096" y1="369.2416762125155" x2="285.39276094276096" y2="369.2416762125155" stroke="#3366FF" stroke-width="2.0"/><line x1="285.39276094276096" y1="369.2416762125155" x2="296.7749158249158" y2="374.8087395091431" stroke="#3366FF" stroke-width="2.0"/><line x1="296.7749158249158" y1="374.8087395091431" x2="296.7749158249158" y2="374.8087395091431" stroke="#3366FF" stroke-width="2.0"/><line x1="296.7749158249158" y1="374.8087395091431" x2="308.1570707070707" y2="381.0588070731393" stroke="#3366FF" stroke-width="2.0"/><line x1="308.1570707070707" y1="381.0588070731393" x2="308.1570707070707" y2="381.0588070731393" stroke="#3366FF" stroke-width="2.0"/><line x1="308.1570707070707" y1="381.0588070731393" x2="308.1570707070707" y2="381.0588070731393" stroke="#3366FF" stroke-width="2.0"/><line x1="308.1570707070707" y1="381.0588070731393" x2="319.53922558922557" y2="388.17453914070154" stroke="#3366FF" stroke-width="2.0"/><line x1="319.53922558922557" y1="388.17453914070154" x2="319.53922558922557" y2="388.17453914070154" stroke="#3366FF" stroke-width="2.0"/><line x1="319.53922558922557" y1="388.17453914070154" x2="319.53922558922557" y2="388.17453914070154" stroke="#3366FF" stroke-width="2.0"/><line x1="319.53922558922557" y1="388.17453914070154" x2="319.53922558922557" y2="388.17453914070154" stroke="#3366FF" stroke-width="2.0"/><line x1="319.53922558922557" y1="388.17453914070154" x2="319.53922558922557" y2="388.17453914070154" stroke="#3366FF" stroke-width="2.0"/><line x1="319.53922558922557" y1="388.17453914070154" x2="319.53922558922557" y2="388.17453914070154" stroke="#3366FF" stroke-width="2.0"/><line x1="319.53922558922557" y1="388.17453914070154" x2="319.53922558922557" y2="388.17453914070154" stroke="#3366FF" stroke-width="2.0"/><line x1="319.53922558922557" y1="388.17453914070154" x2="319.53922558922557" y2="388.17453914070154" stroke="#3366FF" stroke-width="2.0"/><line x1="319.53922558922557" y1="388.17453914070154" x2="330.9213804713805" y2="396.2561522752538" stroke="#3366FF" stroke-width="2.0"/><line x1="330.9213804713805" y1="396.2561522752538" x2="330.9213804713805" y2="396.2561522752538" stroke="#3366FF" stroke-width="2.0"/><line x1="330.9213804713805" y1="396.2561522752538" x2="330.9213804713805" y2="396.2561522752538" stroke="#3366FF" stroke-width="2.0"/><line x1="330.9213804713805" y1="396.2561522752538" x2="342.3035353535353" y2="405.07408834912536" stroke="#3366FF" stroke-width="2.0"/><line x1="342.3035353535353" y1="405.07408834912536" x2="342.3035353535353" y2="405.07408834912536" stroke="#3366FF" stroke-width="2.0"/><line x1="342.3035353535353" y1="405.07408834912536" x2="342.3035353535353" y2="405.07408834912536" stroke="#3366FF" stroke-width="2.0"/><line x1="342.3035353535353" y1="405.07408834912536" x2="342.3035353535353" y2="405.07408834912536" stroke="#3366FF" stroke-width="2.0"/><line x1="342.3035353535353" y1="405.07408834912536" x2="342.3035353535353" y2="405.07408834912536" stroke="#3366FF" stroke-width="2.0"/><line x1="342.3035353535353" y1="405.07408834912536" x2="342.3035353535353" y2="405.07408834912536" stroke="#3366FF" stroke-width="2.0"/><line x1="342.3035353535353" y1="405.07408834912536" x2="342.3035353535353" y2="405.07408834912536" stroke="#3366FF" stroke-width="2.0"/><line x1="342.3035353535353" y1="405.07408834912536" x2="342.3035353535353" y2="405.07408834912536" stroke="#3366FF" stroke-width="2.0"/><line x1="342.3035353535353" y1="405.07408834912536" x2="342.3035353535353" y2="405.07408834912536" stroke="#3366FF" stroke-width="2.0"/><line x1="342.3035353535353" y1="405.07408834912536" x2="342.3035353535353" y2="405.07408834912536" stroke="#3366FF" stroke-width="2.0"/><line x1="342.3035353535353" y1="405.07408834912536" x2="342.3035353535353" y2="405.07408834912536" stroke="#3366FF" stroke-width="2.0"/><line x1="342.3035353535353" y1="405.07408834912536" x2="342.3035353535353" y2="405.07408834912536" stroke="#3366FF" stroke-width="2.0"/><line x1="342.3035353535353" y1="405.07408834912536" x2="342.3035353535353" y2="405.07408834912536" stroke="#3366FF" stroke-width="2.0"/><line x1="342.3035353535353" y1="405.07408834912536" x2="342.3035353535353" y2="405.07408834912536" stroke="#3366FF" stroke-width="2.0"/><line x1="342.3035353535353" y1="405.07408834912536" x2="342.3035353535353" y2="405.07408834912536" stroke="#3366FF" stroke-width="2.0"/><line x1="342.3035353535353" y1="405.07408834912536" x2="365.06784511784514" y2="423.6709221130502" stroke="#3366FF" stroke-width="2.0"/><line x1="365.06784511784514" y1="423.6709221130502" x2="365.06784511784514" y2="423.6709221130502" stroke="#3366FF" stroke-width="2.0"/><line x1="365.06784511784514" y1="423.6709221130502" x2="365.06784511784514" y2="423.6709221130502" stroke="#3366FF" stroke-width="2.0"/><line x1="365.06784511784514" y1="423.6709221130502" x2="365.06784511784514" y2="423.6709221130502" stroke="#3366FF" stroke-width="2.0"/><line x1="365.06784511784514" y1="423.6709221130502" x2="387.83215488215495" y2="441.469026028923" stroke="#3366FF" stroke-width="2.0"/><line x1="387.83215488215495" y1="441.469026028923" x2="410.59646464646465" y2="455.97238569319023" stroke="#3366FF" stroke-width="2.0"/><line x1="410.59646464646465" y1="455.97238569319023" x2="410.59646464646465" y2="455.97238569319023" stroke="#3366FF" stroke-width="2.0"/><line x1="410.59646464646465" y1="455.97238569319023" x2="410.59646464646465" y2="455.97238569319023" stroke="#3366FF" stroke-width="2.0"/><line x1="410.59646464646465" y1="455.97238569319023" x2="410.59646464646465" y2="455.97238569319023" stroke="#3366FF" stroke-width="2.0"/><line x1="410.59646464646465" y1="455.97238569319023" x2="410.59646464646465" y2="455.97238569319023" stroke="#3366FF" stroke-width="2.0"/><line x1="410.59646464646465" y1="455.97238569319023" x2="410.59646464646465" y2="455.97238569319023" stroke="#3366FF" stroke-width="2.0"/><line x1="410.59646464646465" y1="455.97238569319023" x2="410.59646464646465" y2="455.97238569319023" stroke="#3366FF" stroke-width="2.0"/><line x1="410.59646464646465" y1="455.97238569319023" x2="410.59646464646465" y2="455.97238569319023" stroke="#3366FF" stroke-width="2.0"/><line x1="410.59646464646465" y1="455.97238569319023" x2="410.59646464646465" y2="455.97238569319023" stroke="#3366FF" stroke-width="2.0"/><line x1="410.59646464646465" y1="455.97238569319023" x2="410.59646464646465" y2="455.97238569319023" stroke="#3366FF" stroke-width="2.0"/><line x1="410.59646464646465" y1="455.97238569319023" x2="410.59646464646465" y2="455.97238569319023" stroke="#3366FF" stroke-width="2.0"/><line x1="410.59646464646465" y1="455.97238569319023" x2="421.97861952861956" y2="461.2085319298616" stroke="#3366FF" stroke-width="2.0"/><line x1="421.97861952861956" y1="461.2085319298616" x2="421.97861952861956" y2="461.2085319298616" stroke="#3366FF" stroke-width="2.0"/><line x1="421.97861952861956" y1="461.2085319298616" x2="421.97861952861956" y2="461.2085319298616" stroke="#3366FF" stroke-width="2.0"/><line x1="421.97861952861956" y1="461.2085319298616" x2="421.97861952861956" y2="461.2085319298616" stroke="#3366FF" stroke-width="2.0"/><line x1="421.97861952861956" y1="461.2085319298616" x2="421.97861952861956" y2="461.2085319298616" stroke="#3366FF" stroke-width="2.0"/><line x1="421.97861952861956" y1="461.2085319298616" x2="421.97861952861956" y2="461.2085319298616" stroke="#3366FF" stroke-width="2.0"/><line x1="421.97861952861956" y1="461.2085319298616" x2="421.97861952861956" y2="461.2085319298616" stroke="#3366FF" stroke-width="2.0"/><line x1="421.97861952861956" y1="461.2085319298616" x2="421.97861952861956" y2="461.2085319298616" stroke="#3366FF" stroke-width="2.0"/><line x1="421.97861952861956" y1="461.2085319298616" x2="421.97861952861956" y2="461.2085319298616" stroke="#3366FF" stroke-width="2.0"/><line x1="421.97861952861956" y1="461.2085319298616" x2="421.97861952861956" y2="461.2085319298616" stroke="#3366FF" stroke-width="2.0"/><line x1="421.97861952861956" y1="461.2085319298616" x2="421.97861952861956" y2="461.2085319298616" stroke="#3366FF" stroke-width="2.0"/><line x1="421.97861952861956" y1="461.2085319298616" x2="421.97861952861956" y2="461.2085319298616" stroke="#3366FF" stroke-width="2.0"/><line x1="421.97861952861956" y1="461.2085319298616" x2="421.97861952861956" y2="461.2085319298616" stroke="#3366FF" stroke-width="2.0"/><line x1="421.97861952861956" y1="461.2085319298616" x2="421.97861952861956" y2="461.2085319298616" stroke="#3366FF" stroke-width="2.0"/><line x1="421.97861952861956" y1="461.2085319298616" x2="421.97861952861956" y2="461.2085319298616" stroke="#3366FF" stroke-width="2.0"/><line x1="421.97861952861956" y1="461.2085319298616" x2="421.97861952861956" y2="461.2085319298616" stroke="#3366FF" stroke-width="2.0"/><line x1="421.97861952861956" y1="461.2085319298616" x2="421.97861952861956" y2="461.2085319298616" stroke="#3366FF" stroke-width="2.0"/><line x1="421.97861952861956" y1="461.2085319298616" x2="456.12508417508417" y2="467.12588511382864" stroke="#3366FF" stroke-width="2.0"/><line x1="456.12508417508417" y1="467.12588511382864" x2="456.12508417508417" y2="467.12588511382864" stroke="#3366FF" stroke-width="2.0"/><line x1="456.12508417508417" y1="467.12588511382864" x2="478.889393939394" y2="464.08288505347826" stroke="#3366FF" stroke-width="2.0"/><line x1="478.889393939394" y1="464.08288505347826" x2="478.889393939394" y2="464.08288505347826" stroke="#3366FF" stroke-width="2.0"/><line x1="478.889393939394" y1="464.08288505347826" x2="478.889393939394" y2="464.08288505347826" stroke="#3366FF" stroke-width="2.0"/><line x1="478.889393939394" y1="464.08288505347826" x2="478.889393939394" y2="464.08288505347826" stroke="#3366FF" stroke-width="2.0"/><line x1="478.889393939394" y1="464.08288505347826" x2="478.889393939394" y2="464.08288505347826" stroke="#3366FF" stroke-width="2.0"/><line x1="478.889393939394" y1="464.08288505347826" x2="490.27154882154883" y2="460.8723892744937" stroke="#3366FF" stroke-width="2.0"/><line x1="490.27154882154883" y1="460.8723892744937" x2="490.27154882154883" y2="460.8723892744937" stroke="#3366FF" stroke-width="2.0"/><line x1="490.27154882154883" y1="460.8723892744937" x2="490.27154882154883" y2="460.8723892744937" stroke="#3366FF" stroke-width="2.0"/><line x1="490.27154882154883" y1="460.8723892744937" x2="490.27154882154883" y2="460.8723892744937" stroke="#3366FF" stroke-width="2.0"/><line x1="490.27154882154883" y1="460.8723892744937" x2="490.27154882154883" y2="460.8723892744937" stroke="#3366FF" stroke-width="2.0"/><line x1="490.27154882154883" y1="460.8723892744937" x2="490.27154882154883" y2="460.8723892744937" stroke="#3366FF" stroke-width="2.0"/><line x1="490.27154882154883" y1="460.8723892744937" x2="501.6537037037038" y2="456.7169518434535" stroke="#3366FF" stroke-width="2.0"/><line x1="501.6537037037038" y1="456.7169518434535" x2="501.6537037037038" y2="456.7169518434535" stroke="#3366FF" stroke-width="2.0"/><line x1="501.6537037037038" y1="456.7169518434535" x2="501.6537037037038" y2="456.7169518434535" stroke="#3366FF" stroke-width="2.0"/><line x1="501.6537037037038" y1="456.7169518434535" x2="501.6537037037038" y2="456.7169518434535" stroke="#3366FF" stroke-width="2.0"/><line x1="501.6537037037038" y1="456.7169518434535" x2="501.6537037037038" y2="456.7169518434535" stroke="#3366FF" stroke-width="2.0"/><line x1="501.6537037037038" y1="456.7169518434535" x2="501.6537037037038" y2="456.7169518434535" stroke="#3366FF" stroke-width="2.0"/><line x1="501.6537037037038" y1="456.7169518434535" x2="501.6537037037038" y2="456.7169518434535" stroke="#3366FF" stroke-width="2.0"/><line x1="501.6537037037038" y1="456.7169518434535" x2="501.6537037037038" y2="456.7169518434535" stroke="#3366FF" stroke-width="2.0"/><line x1="501.6537037037038" y1="456.7169518434535" x2="524.4180134680134" y2="446.11441856665857" stroke="#3366FF" stroke-width="2.0"/><line x1="524.4180134680134" y1="446.11441856665857" x2="535.8001683501684" y2="439.9389059916299" stroke="#3366FF" stroke-width="2.0"/><line x1="535.8001683501684" y1="439.9389059916299" x2="535.8001683501684" y2="439.9389059916299" stroke="#3366FF" stroke-width="2.0"/><line x1="535.8001683501684" y1="439.9389059916299" x2="535.8001683501684" y2="439.9389059916299" stroke="#3366FF" stroke-width="2.0"/><line x1="535.8001683501684" y1="439.9389059916299" x2="535.8001683501684" y2="439.9389059916299" stroke="#3366FF" stroke-width="2.0"/><line x1="535.8001683501684" y1="439.9389059916299" x2="535.8001683501684" y2="439.9389059916299" stroke="#3366FF" stroke-width="2.0"/><line x1="535.8001683501684" y1="439.9389059916299" x2="535.8001683501684" y2="439.9389059916299" stroke="#3366FF" stroke-width="2.0"/><line x1="535.8001683501684" y1="439.9389059916299" x2="535.8001683501684" y2="439.9389059916299" stroke="#3366FF" stroke-width="2.0"/><line x1="535.8001683501684" y1="439.9389059916299" x2="535.8001683501684" y2="439.9389059916299" stroke="#3366FF" stroke-width="2.0"/><line x1="535.8001683501684" y1="439.9389059916299" x2="558.5644781144782" y2="426.5183471451252" stroke="#3366FF" stroke-width="2.0"/><line x1="558.5644781144782" y1="426.5183471451252" x2="558.5644781144782" y2="426.5183471451252" stroke="#3366FF" stroke-width="2.0"/><line x1="558.5644781144782" y1="426.5183471451252" x2="569.946632996633" y2="419.54488414437543" stroke="#3366FF" stroke-width="2.0"/><line x1="569.946632996633" y1="419.54488414437543" x2="581.3287878787878" y2="412.5770209391111" stroke="#3366FF" stroke-width="2.0"/><line x1="581.3287878787878" y1="412.5770209391111" x2="592.7109427609428" y2="405.7505491646957" stroke="#3366FF" stroke-width="2.0"/><line x1="592.7109427609428" y1="405.7505491646957" x2="592.7109427609428" y2="405.7505491646957" stroke="#3366FF" stroke-width="2.0"/><line x1="592.7109427609428" y1="405.7505491646957" x2="626.8574074074074" y2="387.47739878017177" stroke="#3366FF" stroke-width="2.0"/><line x1="626.8574074074074" y1="387.47739878017177" x2="683.7681818181818" y2="372.5238627234892" stroke="#3366FF" stroke-width="2.0"/><text x="724.5" y="7.5" fill="#333333" font-size="11.0" font-family="sans-serif" text-anchor="start">class</text><circle cx="729.5" cy="23.5" r="5.0" fill="#F8766D" fill-opacity="1.0" stroke="#F8766D" stroke-width="1.0"/><text x="738.5" y="27.5" fill="#333333" font-size="10.0" font-family="sans-serif" text-anchor="start">2seater</text><circle cx="729.5" cy="39.5" r="5.0" fill="#C49A00" fill-opacity="1.0" stroke="#C49A00" stroke-width="1.0"/><text x="738.5" y="43.5" fill="#333333" font-size="10.0" font-family="sans-serif" text-anchor="start">compact</text><circle cx="729.5" cy="55.5" r="5.0" fill="#53B400" fill-opacity="1.0" stroke="#53B400" stroke-width="1.0"/><text x="738.5" y="59.5" fill="#333333" font-size="10.0" font-family="sans-serif" text-anchor="start">midsize</text><circle cx="729.5" cy="71.5" r="5.0" fill="#00C094" fill-opacity="1.0" stroke="#00C094" stroke-width="1.0"/><text x="738.5" y="75.5" fill="#333333" font-size="10.0" font-family="sans-serif" text-anchor="start">minivan</text><circle cx="729.5" cy="87.5" r="5.0" fill="#00B6EB" fill-opacity="1.0" stroke="#00B6EB" stroke-width="1.0"/><text x="738.5" y="91.5" fill="#333333" font-size="10.0" font-family="sans-serif" text-anchor="start">pickup</text><circle cx="729.5" cy="103.5" r="5.0" fill="#A58AFF" fill-opacity="1.0" stroke="#A58AFF" stroke-width="1.0"/><text x="738.5" y="107.5" fill="#333333" font-size="10.0" font-family="sans-serif" text-anchor="start">subcompact</text><circle cx="729.5" cy="119.5" r="5.0" fill="#FB61D7" fill-opacity="1.0" stroke="#FB61D7" stroke-width="1.0"/><text x="738.5" y="123.5" fill="#333333" font-size="10.0" font-family="sans-serif" text-anchor="start">suv</text></svg>