<svg xmlns="http://www.w3.org/2000/svg" width="624" height="384" viewBox="0 0 624 384"><rect x="0.0" y="0.0" width="624.0" height="384.0" fill="#ffffff" fill-opacity="1.0" stroke="none"/><rect x="46.346666666666664" y="7.333333333333333" width="570.3199999999999" height="332.66666666666663" fill="#ebebeb" fill-opacity="1.0" stroke="none"/><line x1="133.26709447415328" y1="7.333333333333333" x2="133.26709447415328" y2="340.0" stroke="#ffffff" stroke-width="0.6666666666666666"/><line x1="285.7590730837789" y1="7.333333333333333" x2="285.7590730837789" y2="340.0" stroke="#ffffff" stroke-width="0.6666666666666666"/><line x1="438.2510516934045" y1="7.333333333333333" x2="438.2510516934045" y2="340.0" stroke="#ffffff" stroke-width="0.6666666666666666"/><line x1="590.7430303030302" y1="7.333333333333333" x2="590.7430303030302" y2="340.0" stroke="#ffffff" stroke-width="0.6666666666666666"/><line x1="57.021105169340444" y1="7.333333333333333" x2="57.021105169340444" y2="340.0" stroke="#ffffff" stroke-width="1.3333333333333333"/><line x1="209.51308377896606" y1="7.333333333333333" x2="209.51308377896606" y2="340.0" stroke="#ffffff" stroke-width="1.3333333333333333"/><line x1="362.0050623885917" y1="7.333333333333333" x2="362.0050623885917" y2="340.0" stroke="#ffffff" stroke-width="1.3333333333333333"/><line x1="514.4970409982174" y1="7.333333333333333" x2="514.4970409982174" y2="340.0" stroke="#ffffff" stroke-width="1.3333333333333333"/><line x1="46.346666666666664" y1="306.2951705504897" x2="616.6666666666666" y2="306.2951705504897" stroke="#ffffff" stroke-width="0.6666666666666666"/><line x1="46.346666666666664" y1="238.8855116514691" x2="616.6666666666666" y2="238.8855116514691" stroke="#ffffff" stroke-width="0.6666666666666666"/><line x1="46.346666666666664" y1="171.47585275244847" x2="616.6666666666666" y2="171.47585275244847" stroke="#ffffff" stroke-width="0.6666666666666666"/><line x1="46.346666666666664" y1="104.06619385342788" x2="616.6666666666666" y2="104.06619385342788" stroke="#ffffff" stroke-width="0.6666666666666666"/><line x1="46.346666666666664" y1="36.65653495440729" x2="616.6666666666666" y2="36.65653495440729" stroke="#ffffff" stroke-width="0.6666666666666666"/><line x1="46.346666666666664" y1="340.0" x2="616.6666666666666" y2="340.0" stroke="#ffffff" stroke-width="1.3333333333333333"/><line x1="46.346666666666664" y1="272.59034110097934" x2="616.6666666666666" y2="272.59034110097934" stroke="#ffffff" stroke-width="1.3333333333333333"/><line x1="46.346666666666664" y1="205.1806822019588" x2="616.6666666666666" y2="205.1806822019588" stroke="#ffffff" stroke-width="1.3333333333333333"/><line x1="46.346666666666664" y1="137.7710233029382" x2="616.6666666666666" y2="137.7710233029382" stroke="#ffffff" stroke-width="1.3333333333333333"/><line x1="46.346666666666664" y1="70.3613644039176" x2="616.6666666666666" y2="70.3613644039176" stroke="#ffffff" stroke-width="1.3333333333333333"/><line x1="57.021105169340444" y1="340.0" x2="57.021105169340444" y2="343.66666666666663" stroke="#333333" stroke-width="1.3333333333333333"/><text x="57.021105169340444" y="355.9866666666667" fill="#4d4d4d" font-size="11.733333333333334" font-family="sans-serif" text-anchor="middle">10</text><line x1="209.51308377896606" y1="340.0" x2="209.51308377896606" y2="343.66666666666663" stroke="#333333" stroke-width="1.3333333333333333"/><text x="209.51308377896606" y="355.9866666666667" fill="#4d4d4d" font-size="11.733333333333334" font-family="sans-serif" text-anchor="middle">20</text><line x1="362.0050623885917" y1="340.0" x2="362.0050623885917" y2="343.66666666666663" stroke="#333333" stroke-width="1.3333333333333333"/><text x="362.0050623885917" y="355.9866666666667" fill="#4d4d4d" font-size="11.733333333333334" font-family="sans-serif" text-anchor="middle">30</text><line x1="514.4970409982174" y1="340.0" x2="514.4970409982174" y2="343.66666666666663" stroke="#333333" stroke-width="1.3333333333333333"/><text x="514.4970409982174" y="355.9866666666667" fill="#4d4d4d" font-size="11.733333333333334" font-family="sans-serif" text-anchor="middle">40</text><line x1="46.346666666666664" y1="340.0" x2="42.67999999999999" y2="340.0" stroke="#333333" stroke-width="1.3333333333333333"/><text x="39.74666666666666" y="344.1066666666666" fill="#4d4d4d" font-size="11.733333333333334" font-family="sans-serif" text-anchor="end">0</text><line x1="46.346666666666664" y1="272.59034110097934" x2="42.67999999999999" y2="272.59034110097934" stroke="#333333" stroke-width="1.3333333333333333"/><text x="39.74666666666666" y="276.697007767646" fill="#4d4d4d" font-size="11.733333333333334" font-family="sans-serif" text-anchor="end">10</text><line x1="46.346666666666664" y1="205.1806822019588" x2="42.67999999999999" y2="205.1806822019588" stroke="#333333" stroke-width="1.3333333333333333"/><text x="39.74666666666666" y="209.2873488686255" fill="#4d4d4d" font-size="11.733333333333334" font-family="sans-serif" text-anchor="end">20</text><line x1="46.346666666666664" y1="137.7710233029382" x2="42.67999999999999" y2="137.7710233029382" stroke="#333333" stroke-width="1.3333333333333333"/><text x="39.74666666666666" y="141.8776899696049" fill="#4d4d4d" font-size="11.733333333333334" font-family="sans-serif" text-anchor="end">30</text><line x1="46.346666666666664" y1="70.3613644039176" x2="42.67999999999999" y2="70.3613644039176" stroke="#333333" stroke-width="1.3333333333333333"/><text x="39.74666666666666" y="74.46803107058426" fill="#4d4d4d" font-size="11.733333333333334" font-family="sans-serif" text-anchor="end">40</text><text x="331.50666666666666" y="373.73333333333335" fill="#000000" font-size="14.666666666666666" font-family="sans-serif" text-anchor="middle">hwy</text><text x="17.599999999999998" y="173.66666666666666" fill="#000000" font-size="14.666666666666666" font-family="sans-serif" text-anchor="middle" transform="rotate(-90.0 17.599999999999998 173.66666666666666)">count</text><rect x="72.27030303030301" y="306.2951705504897" width="30.498395721925135" height="33.70482944951031" fill="#595959" fill-opacity="1.0" stroke="none"/><rect x="102.76869875222815" y="326.51806822019586" width="30.498395721925135" height="13.481931779804123" fill="#595959" fill-opacity="1.0" stroke="none"/><rect x="133.26709447415328" y="225.403579871665" width="30.498395721925135" height="114.59642012833501" fill="#595959" fill-opacity="1.0" stroke="none"/><rect x="163.76549019607842" y="63.62039851401554" width="30.498395721925096" height="276.37960148598444" fill="#595959" fill-opacity="1.0" stroke="none"/><rect x="194.2638859180035" y="178.21681864235055" width="30.498395721925135" height="161.78318135764943" fill="#595959" fill-opacity="1.0" stroke="none"/><rect x="224.76228163992863" y="279.33130699088144" width="30.498395721925135" height="60.66869300911851" fill="#595959" fill-opacity="1.0" stroke="none"/><rect x="255.26067736185377" y="205.1806822019588" width="30.498395721925135" height="134.8193177980412" fill="#595959" fill-opacity="1.0" stroke="none"/><rect x="285.7590730837789" y="23.17460317460321" width="30.498395721925096" height="316.82539682539675" fill="#595959" fill-opacity="1.0" stroke="none"/><rect x="316.257468805704" y="198.43971631205673" width="30.498395721925135" height="141.56028368794324" fill="#595959" fill-opacity="1.0" stroke="none"/><rect x="346.7558645276291" y="164.73488686254643" width="30.498395721925135" height="175.26511313745357" fill="#595959" fill-opacity="1.0" stroke="none"/><rect x="377.25426024955425" y="265.84937521107736" width="30.498395721925135" height="74.15062478892264" fill="#595959" fill-opacity="1.0" stroke="none"/><rect x="407.7526559714794" y="319.7771023302938" width="30.498395721925135" height="20.222897669706185" fill="#595959" fill-opacity="1.0" stroke="none"/><rect x="438.2510516934045" y="313.0361364403917" width="30.498395721925135" height="26.963863559608246" fill="#595959" fill-opacity="1.0" stroke="none"/><rect x="468.74944741532966" y="333.2590341100979" width="30.498395721925135" height="6.7409658899020615" fill="#595959" fill-opacity="1.0" stroke="none"/><rect x="529.7462388591799" y="333.2590341100979" width="30.498395721925135" height="6.7409658899020615" fill="#595959" fill-opacity="1.0" stroke="none"/><rect x="560.2446345811051" y="326.51806822019586" width="30.498395721925135" height="13.481931779804123" fill="#595959" fill-opacity="1.0" stroke="none"/></svg>