<svg xmlns="http://www.w3.org/2000/svg" width="800" height="600" viewBox="0 0 800 600"><rect x="0.0" y="0.0" width="800.0" height="600.0" fill="#ffffff" fill-opacity="1.0" stroke="none"/><line x1="148.6835227272727" y1="5.5" x2="148.6835227272727" y2="563.8" stroke="#dddddd" stroke-width="0.5"/><line x1="359.7346590909091" y1="5.5" x2="359.7346590909091" y2="563.8" stroke="#dddddd" stroke-width="0.5"/><line x1="570.7857954545455" y1="5.5" x2="570.7857954545455" y2="563.8" stroke="#dddddd" stroke-width="0.5"/><line x1="781.8369318181818" y1="5.5" x2="781.8369318181818" y2="563.8" stroke="#dddddd" stroke-width="0.5"/><line x1="254.2090909090909" y1="5.5" x2="254.2090909090909" y2="563.8" stroke="#dddddd" stroke-width="1.0"/><line x1="465.2602272727272" y1="5.5" x2="465.2602272727272" y2="563.8" stroke="#dddddd" stroke-width="1.0"/><line x1="676.3113636363636" y1="5.5" x2="676.3113636363636" y2="563.8" stroke="#dddddd" stroke-width="1.0"/><line x1="51.599999999999994" y1="485.27990563269555" x2="794.5" y2="485.27990563269555" stroke="#dddddd" stroke-width="0.5"/><line x1="51.599999999999994" y1="328.23971689808684" x2="794.5" y2="328.23971689808684" stroke="#dddddd" stroke-width="0.5"/><line x1="51.599999999999994" y1="171.19952816347813" x2="794.5" y2="171.19952816347813" stroke="#dddddd" stroke-width="0.5"/><line x1="51.599999999999994" y1="14.159339428869316" x2="794.5" y2="14.159339428869316" stroke="#dddddd" stroke-width="0.5"/><line x1="51.599999999999994" y1="563.8" x2="794.5" y2="563.8" stroke="#dddddd" stroke-width="1.0"/><line x1="51.599999999999994" y1="406.7598112653912" x2="794.5" y2="406.7598112653912" stroke="#dddddd" stroke-width="1.0"/><line x1="51.599999999999994" y1="249.71962253078243" x2="794.5" y2="249.71962253078243" stroke="#dddddd" stroke-width="1.0"/><line x1="51.599999999999994" y1="92.67943379617373" x2="794.5" y2="92.67943379617373" stroke="#dddddd" stroke-width="1.0"/><rect x="51.599999999999994" y="5.5" width="742.9" height="558.3" fill="#ffffff" fill-opacity="0.0" stroke="#444444" stroke-width="1.0"/><line x1="254.2090909090909" y1="563.8" x2="254.2090909090909" y2="566.55" stroke="#444444" stroke-width="1.0"/><text x="254.2090909090909" y="577.55" fill="#333333" font-size="11.0" font-family="sans-serif" text-anchor="middle">20</text><line x1="465.2602272727272" y1="563.8" x2="465.2602272727272" y2="566.55" stroke="#444444" stroke-width="1.0"/><text x="465.2602272727272" y="577.55" fill="#333333" font-size="11.0" font-family="sans-serif" text-anchor="middle">30</text><line x1="676.3113636363636" y1="563.8" x2="676.3113636363636" y2="566.55" stroke="#444444" stroke-width="1.0"/><text x="676.3113636363636" y="577.55" fill="#333333" font-size="11.0" font-family="sans-serif" text-anchor="middle">40</text><line x1="51.599999999999994" y1="563.8" x2="48.849999999999994" y2="563.8" stroke="#444444" stroke-width="1.0"/><text x="46.64999999999999" y="567.65" fill="#333333" font-size="11.0" font-family="sans-serif" text-anchor="end">0</text><line x1="51.599999999999994" y1="406.7598112653912" x2="48.849999999999994" y2="406.7598112653912" stroke="#444444" stroke-width="1.0"/><text x="46.64999999999999" y="410.6098112653912" fill="#333333" font-size="11.0" font-family="sans-serif" text-anchor="end">0.02</text><line x1="51.599999999999994" y1="249.71962253078243" x2="48.849999999999994" y2="249.71962253078243" stroke="#444444" stroke-width="1.0"/><text x="46.64999999999999" y="253.56962253078242" fill="#333333" font-size="11.0" font-family="sans-serif" text-anchor="end">0.04</text><line x1="51.599999999999994" y1="92.67943379617373" x2="48.849999999999994" y2="92.67943379617373" stroke="#444444" stroke-width="1.0"/><text x="46.64999999999999" y="96.52943379617372" fill="#333333" font-size="11.0" font-family="sans-serif" text-anchor="end">0.06</text><text x="423.04999999999995" y="592.1" fill="#333333" font-size="12.0" font-family="sans-serif" text-anchor="middle">hwy</text><text x="13.899999999999999" y="284.65" fill="#333333" font-size="12.0" font-family="sans-serif" text-anchor="middle" transform="rotate(-90.0 13.899999999999999 284.65)">density</text><path d="M 51.599999999999994 528.0542683008981 L 59.104040404040404 519.9387179570226 L 66.60808080808079 510.51588683505656 L 74.1121212121212 499.58112691625206 L 81.6161616161616 486.88616811149683 L 89.12020202020203 472.1529270815814 L 96.6242424242424 455.10188233056033 L 104.12828282828282 435.4944838805061 L 111.63232323232323 413.18598477858166 L 119.13636363636364 388.1821010120516 L 126.64040404040402 360.6906689850041 L 134.14444444444445 331.1585429613307 L 141.64848484848486 300.28473324611105 L 149.15252525252524 269.0033206344667 L 156.65656565656565 238.43374896243893 L 164.16060606060606 209.80111077356293 L 171.6646464646464 184.33413880210804 L 179.16868686868682 163.15279919885552 L 186.67272727272726 147.1597284963471 L 194.17676767676764 136.9496621535137 L 201.68080808080808 132.74838501717164 L 209.18484848484846 134.38810582063832 L 216.68888888888884 141.32052698592173 L 224.1929292929293 152.66348573989256 L 231.69696969696966 167.27300150547057 L 239.2010101010101 183.83056460719826 L 246.7050505050505 200.935635790755 L 254.2090909090909 217.19513484962357 L 261.71313131313127 231.30437864424363 L 269.2171717171717 242.1166296731501 L 276.72121212121215 248.70047797659515 L 284.22525252525253 250.38537073050946 L 291.7292929292929 246.79572029294667 L 299.23333333333323 237.8733934251166 L 306.7373737373737 223.88736948182884 L 314.2414141414141 205.42836009474973 L 321.74545454545455 183.3856225868933 L 329.249494949495 158.90346311132117 L 336.7535353535353 133.31630545684482 L 344.25757575757564 108.06377491021294 L 351.7616161616162 84.59074809559291 L 359.2656565656565 64.24107937092009 L 366.76969696969695 48.15673731148581 L 374.2737373737373 37.19529921349488 L 381.7777777777777 31.877371338088892 L 389.28181818181815 32.37137807693614 L 396.7858585858586 38.516965340306115 L 404.28989898989903 49.88139080414487 L 411.79393939393947 65.8374735646268 L 419.2979797979798 85.64849409801514 L 426.80202020202023 108.5456944327205 L 434.30606060606056 133.78753751273126 L 441.8101010101011 160.6955047567762 L 449.31414141414143 188.66725219790982 L 456.81818181818187 217.17274536462287 L 464.3222222222222 245.74144765985244 L 471.82626262626263 273.9484942906216 L 479.33030303030296 301.405606630676 L 486.8343434343435 327.7593527349305 L 494.33838383838383 352.6963610309764 L 501.8424242424243 375.95304790300645 L 509.3464646464646 397.32661841291133 L 516.8505050505049 416.68436251702553 L 524.3545454545455 433.9691438474757 L 531.8585858585859 449.1999864818073 L 539.3626262626262 462.4674899479795 L 546.8666666666667 473.92435212058024 L 554.370707070707 483.77163571378316 L 561.8747474747474 492.2417185476651 L 569.3787878787879 499.5792120934215 L 576.8828282828283 506.0215012848503 L 584.3868686868688 511.7808394162536 L 591.8909090909091 517.0299780988947 L 599.3949494949495 521.8930166429573 L 606.8989898989901 526.4425058039435 L 614.4030303030304 530.702935534566 L 621.9070707070707 534.6597571241284 L 629.4111111111112 538.2722495457132 L 636.9151515151515 541.4880215261516 L 644.4191919191919 544.2568514646949 L 651.9232323232324 546.5419124354992 L 659.4272727272728 548.327116149685 L 666.9313131313131 549.6201718962061 L 674.4353535353536 550.4517957290573 L 681.9393939393939 550.8721373295724 L 689.4434343434344 550.9457899982493 L 696.9474747474748 550.7466734897791 L 704.4515151515152 550.3536876884947 L 711.9555555555555 549.8474679695693 L 719.459595959596 549.3080155778738 L 726.9636363636364 548.8126046267365 L 734.4676767676767 548.4332946706581 L 741.9717171717173 548.2336177925533 L 749.4757575757576 548.264469702139 L 756.979797979798 548.5597473048027 L 764.4838383838384 549.1326528381966 L 771.9878787878787 549.9736840391911 L 779.4919191919191 551.0511017853025 L 786.9959595959597 552.3141717857235 L 794.5 553.6988625236598" fill="" fill-opacity="0.0" stroke="#1f77b4" stroke-width="1.5"/></svg>