<svg xmlns="http://www.w3.org/2000/svg" width="624" height="384" viewBox="0 0 624 384"><rect x="0.0" y="0.0" width="624.0" height="384.0" fill="#ffffff" fill-opacity="1.0" stroke="none"/><rect x="60.42666666666666" y="7.333333333333333" width="556.24" height="332.66666666666663" fill="#ebebeb" fill-opacity="1.0" stroke="none"/><line x1="133.11712121212116" y1="7.333333333333333" x2="133.11712121212116" y2="340.0" stroke="#ffffff" stroke-width="0.6666666666666666"/><line x1="291.13984848484847" y1="7.333333333333333" x2="291.13984848484847" y2="340.0" stroke="#ffffff" stroke-width="0.6666666666666666"/><line x1="449.1625757575757" y1="7.333333333333333" x2="449.1625757575757" y2="340.0" stroke="#ffffff" stroke-width="0.6666666666666666"/><line x1="607.185303030303" y1="7.333333333333333" x2="607.185303030303" y2="340.0" stroke="#ffffff" stroke-width="0.6666666666666666"/><line x1="212.12848484848485" y1="7.333333333333333" x2="212.12848484848485" y2="340.0" stroke="#ffffff" stroke-width="1.3333333333333333"/><line x1="370.1512121212121" y1="7.333333333333333" x2="370.1512121212121" y2="340.0" stroke="#ffffff" stroke-width="1.3333333333333333"/><line x1="528.1739393939392" y1="7.333333333333333" x2="528.1739393939392" y2="340.0" stroke="#ffffff" stroke-width="1.3333333333333333"/><line x1="60.42666666666666" y1="293.2132938213805" x2="616.6666666666666" y2="293.2132938213805" stroke="#ffffff" stroke-width="0.6666666666666666"/><line x1="60.42666666666666" y1="199.63988146414158" x2="616.6666666666666" y2="199.63988146414158" stroke="#ffffff" stroke-width="0.6666666666666666"/><line x1="60.42666666666666" y1="106.06646910690259" x2="616.6666666666666" y2="106.06646910690259" stroke="#ffffff" stroke-width="0.6666666666666666"/><line x1="60.42666666666666" y1="12.493056749663612" x2="616.6666666666666" y2="12.493056749663612" stroke="#ffffff" stroke-width="0.6666666666666666"/><line x1="60.42666666666666" y1="340.0" x2="616.6666666666666" y2="340.0" stroke="#ffffff" stroke-width="1.3333333333333333"/><line x1="60.42666666666666" y1="246.42658764276104" x2="616.6666666666666" y2="246.42658764276104" stroke="#ffffff" stroke-width="1.3333333333333333"/><line x1="60.42666666666666" y1="152.85317528552207" x2="616.6666666666666" y2="152.85317528552207" stroke="#ffffff" stroke-width="1.3333333333333333"/><line x1="60.42666666666666" y1="59.27976292828312" x2="616.6666666666666" y2="59.27976292828312" stroke="#ffffff" stroke-width="1.3333333333333333"/><line x1="212.12848484848485" y1="340.0" x2="212.12848484848485" y2="343.66666666666663" stroke="#333333" stroke-width="1.3333333333333333"/><text x="212.12848484848485" y="355.9866666666667" fill="#4d4d4d" font-size="11.733333333333334" font-family="sans-serif" text-anchor="middle">20</text><line x1="370.1512121212121" y1="340.0" x2="370.1512121212121" y2="343.66666666666663" stroke="#333333" stroke-width="1.3333333333333333"/><text x="370.1512121212121" y="355.9866666666667" fill="#4d4d4d" font-size="11.733333333333334" font-family="sans-serif" text-anchor="middle">30</text><line x1="528.1739393939392" y1="340.0" x2="528.1739393939392" y2="343.66666666666663" stroke="#333333" stroke-width="1.3333333333333333"/><text x="528.1739393939392" y="355.9866666666667" fill="#4d4d4d" font-size="11.733333333333334" font-family="sans-serif" text-anchor="middle">40</text><line x1="60.42666666666666" y1="340.0" x2="56.76" y2="340.0" stroke="#333333" stroke-width="1.3333333333333333"/><text x="53.82666666666666" y="344.1066666666666" fill="#4d4d4d" font-size="11.733333333333334" font-family="sans-serif" text-anchor="end">0.00</text><line x1="60.42666666666666" y1="246.42658764276104" x2="56.76" y2="246.42658764276104" stroke="#333333" stroke-width="1.3333333333333333"/><text x="53.82666666666666" y="250.53325430942772" fill="#4d4d4d" font-size="11.733333333333334" font-family="sans-serif" text-anchor="end">0.02</text><line x1="60.42666666666666" y1="152.85317528552207" x2="56.76" y2="152.85317528552207" stroke="#333333" stroke-width="1.3333333333333333"/><text x="53.82666666666666" y="156.95984195218873" fill="#4d4d4d" font-size="11.733333333333334" font-family="sans-serif" text-anchor="end">0.04</text><line x1="60.42666666666666" y1="59.27976292828312" x2="56.76" y2="59.27976292828312" stroke="#333333" stroke-width="1.3333333333333333"/><text x="53.82666666666666" y="63.38642959494979" fill="#4d4d4d" font-size="11.733333333333334" font-family="sans-serif" text-anchor="end">0.06</text><text x="338.5466666666666" y="373.73333333333335" fill="#000000" font-size="14.666666666666666" font-family="sans-serif" text-anchor="middle">hwy</text><text x="17.599999999999998" y="173.66666666666666" fill="#000000" font-size="14.666666666666666" font-family="sans-serif" text-anchor="middle" transform="rotate(-90.0 17.599999999999998 173.66666666666666)">density</text><path d="M 60.42666666666666 318.7006745264173 L 66.04525252525252 313.8649713541755 L 71.66383838383837 308.25031647345304 L 77.28242424242423 301.734769038402 L 82.9010101010101 294.17039571035514 L 88.51959595959597 285.3914987327114 L 94.1381818181818 275.231523413875 L 99.75676767676767 263.54832820630793 L 105.37535353535353 250.25566470178788 L 110.9939393939394 235.35693880830354 L 116.61252525252524 218.97599119173333 L 122.2311111111111 201.37908285593645 L 127.84969696969699 182.98272361312246 L 133.4682828282828 164.34349154767315 L 139.08686868686868 146.12841451102398 L 144.70545454545453 129.0674718204166 L 150.32404040404037 113.89281182429029 L 155.94262626262622 101.27177359869711 L 161.56121212121212 91.74219896074658 L 167.17979797979797 85.65846488101181 L 172.79838383838387 83.15510672108022 L 178.4169696969697 84.13214496925013 L 184.0355555555555 88.26287296671435 L 189.6541414141414 95.021648318355 L 195.27272727272725 103.72682279685928 L 200.89131313131315 113.59275388261024 L 206.509898989899 123.78492120077226 L 212.12848484848485 133.47324889839652 L 217.74707070707066 141.8803330867247 L 223.36565656565656 148.32288280721463 L 228.98424242424247 152.24591141001966 L 234.60282828282828 153.2498656570831 L 240.22141414141413 151.11094922225848 L 245.83999999999995 145.79452303914644 L 251.45858585858582 137.46086019634916 L 257.0771717171717 126.46194004093395 L 262.6957575757576 113.32763230146247 L 268.3143434343434 98.73977920180224 L 273.93292929292926 83.49350578896122 L 279.5515151515151 68.44662210304648 L 285.170101010101 54.460067227537024 L 290.7886868686868 42.33458547506014 L 296.4072727272727 32.750626208647 L 302.02585858585854 26.219182407945443 L 307.6444444444444 23.050460681481162 L 313.26303030303023 23.344817792574077 L 318.8816161616162 27.00670571952086 L 324.5002020202021 33.778272149105376 L 330.1187878787879 43.28580728252287 L 335.73737373737373 55.090332025684575 L 341.35595959595963 68.73377696809067 L 346.9745454545455 83.77429245788156 L 352.59313131313144 99.80757880904093 L 358.2117171717173 116.4747254722754 L 363.83030303030307 133.45990797892028 L 369.4488888888889 150.4827540536944 L 375.06747474747476 167.29010526123375 L 380.68606060606055 183.65060327029357 L 386.30464646464657 199.3536533700284 L 391.92323232323236 214.21253108180454 L 397.5418181818182 228.07017840300944 L 403.16040404040405 240.80575865788137 L 408.77898989898983 252.3401957083954 L 414.39757575757574 262.6394444801366 L 420.01616161616164 271.7148405927779 L 425.6347474747475 279.6203683611461 L 431.25333333333333 286.4470138016234 L 436.8719191919191 292.31458143313364 L 442.490505050505 297.36153508303164 L 448.1090909090909 301.7336280788314 L 453.72767676767677 305.5723077689895 L 459.34626262626267 309.0040466519918 L 464.9648484848485 312.131779892947 L 470.5834343434343 315.0294528686318 L 476.2020202020202 317.74029541604614 L 481.8206060606061 320.27890003194034 L 487.43919191919196 322.63659777292986 L 493.0577777777778 324.78912475169966 L 498.6763636363636 326.70526328921085 L 504.29494949494944 328.3550885197717 L 509.9135353535354 329.7166568813829 L 515.5321212121212 330.78038206304 L 521.1507070707071 331.5508576944377 L 526.7692929292929 332.04638613505233 L 532.3878787878787 332.29684939692714 L 538.0064646464647 332.3407358160206 L 543.6250505050505 332.2220909563554 L 549.2436363636364 331.987927824418 L 554.8622222222222 331.6862935301392 L 560.4808080808081 331.36485733280676 L 566.0993939393938 331.0696635127369 L 571.7179797979798 330.8436492216352 L 577.3365656565657 330.7246704620982 L 582.9551515151516 330.7430537720071 L 588.5737373737373 330.9189968417178 L 594.1923232323231 331.260366309941 L 599.810909090909 331.76150019172053 L 605.4294949494948 332.4034865256027 L 611.0480808080808 333.1560949562076 L 616.6666666666666 333.9811718900308" fill="" fill-opacity="0.0" stroke="#000000" stroke-width="1.8897637795275593"/></svg>