<svg xmlns="http://www.w3.org/2000/svg" width="800" height="600" viewBox="0 0 800 600"><rect x="0.0" y="0.0" width="800.0" height="600.0" fill="#ffffff" fill-opacity="1.0" stroke="none"/><line x1="38.4" y1="528.2718181818182" x2="794.5" y2="528.2718181818182" stroke="#dddddd" stroke-width="0.5"/><line x1="38.4" y1="426.76272727272726" x2="794.5" y2="426.76272727272726" stroke="#dddddd" stroke-width="0.5"/><line x1="38.4" y1="325.25363636363636" x2="794.5" y2="325.25363636363636" stroke="#dddddd" stroke-width="0.5"/><line x1="38.4" y1="223.7445454545454" x2="794.5" y2="223.7445454545454" stroke="#dddddd" stroke-width="0.5"/><line x1="38.4" y1="122.23545454545456" x2="794.5" y2="122.23545454545456" stroke="#dddddd" stroke-width="0.5"/><line x1="38.4" y1="20.726363636363658" x2="794.5" y2="20.726363636363658" stroke="#dddddd" stroke-width="0.5"/><line x1="38.4" y1="477.5172727272727" x2="794.5" y2="477.5172727272727" stroke="#dddddd" stroke-width="1.0"/><line x1="38.4" y1="376.0081818181818" x2="794.5" y2="376.0081818181818" stroke="#dddddd" stroke-width="1.0"/><line x1="38.4" y1="274.4990909090909" x2="794.5" y2="274.4990909090909" stroke="#dddddd" stroke-width="1.0"/><line x1="38.4" y1="172.99" x2="794.5" y2="172.99" stroke="#dddddd" stroke-width="1.0"/><line x1="38.4" y1="71.48090909090905" x2="794.5" y2="71.48090909090905" stroke="#dddddd" stroke-width="1.0"/><rect x="38.4" y="5.5" width="756.1" height="558.3" fill="#ffffff" fill-opacity="0.0" stroke="#444444" stroke-width="1.0"/><line x1="38.4" y1="477.5172727272727" x2="35.65" y2="477.5172727272727" stroke="#444444" stroke-width="1.0"/><text x="33.449999999999996" y="481.36727272727273" fill="#333333" font-size="11.0" font-family="sans-serif" text-anchor="end">15</text><line x1="38.4" y1="376.0081818181818" x2="35.65" y2="376.0081818181818" stroke="#444444" stroke-width="1.0"/><text x="33.449999999999996" y="379.85818181818183" fill="#333333" font-size="11.0" font-family="sans-serif" text-anchor="end">20</text><line x1="38.4" y1="274.4990909090909" x2="35.65" y2="274.4990909090909" stroke="#444444" stroke-width="1.0"/><text x="33.449999999999996" y="278.34909090909093" fill="#333333" font-size="11.0" font-family="sans-serif" text-anchor="end">25</text><line x1="38.4" y1="172.99" x2="35.65" y2="172.99" stroke="#444444" stroke-width="1.0"/><text x="33.449999999999996" y="176.84" fill="#333333" font-size="11.0" font-family="sans-serif" text-anchor="end">30</text><line x1="38.4" y1="71.48090909090905" x2="35.65" y2="71.48090909090905" stroke="#444444" stroke-width="1.0"/><text x="33.449999999999996" y="75.33090909090905" fill="#333333" font-size="11.0" font-family="sans-serif" text-anchor="end">35</text><text x="416.45" y="592.1" fill="#333333" font-size="12.0" font-family="sans-serif" text-anchor="middle"></text><text x="13.899999999999999" y="284.65" fill="#333333" font-size="12.0" font-family="sans-serif" text-anchor="middle" transform="rotate(-90.0 13.899999999999999 284.65)">hwy</text><rect x="227.42499999999998" y="233.89545454545453" width="378.05" height="182.71636363636367" fill="#1f77b4" fill-opacity="0.4" stroke="#1f77b4" stroke-width="1.0"/><line x1="227.42499999999998" y1="294.80090909090904" x2="605.475" y2="294.80090909090904" stroke="#1f77b4" stroke-width="2.0"/><line x1="416.45" y1="416.6118181818182" x2="416.45" y2="538.4227272727272" stroke="#1f77b4" stroke-width="1.0"/><line x1="416.45" y1="233.89545454545453" x2="416.45" y2="30.877272727272725" stroke="#1f77b4" stroke-width="1.0"/><line x1="321.9375" y1="538.4227272727272" x2="510.9625" y2="538.4227272727272" stroke="#1f77b4" stroke-width="1.0"/><line x1="321.9375" y1="30.877272727272725" x2="510.9625" y2="30.877272727272725" stroke="#1f77b4" stroke-width="1.0"/></svg>