<svg xmlns="http://www.w3.org/2000/svg" width="624" height="384" viewBox="0 0 624 384"><rect x="0.0" y="0.0" width="624.0" height="384.0" fill="#ffffff" fill-opacity="1.0" stroke="none"/><rect x="46.346666666666664" y="7.333333333333333" width="570.3199999999999" height="332.66666666666663" fill="#ebebeb" fill-opacity="1.0" stroke="none"/><line x1="46.346666666666664" y1="318.830303030303" x2="616.6666666666666" y2="318.830303030303" stroke="#ffffff" stroke-width="0.6666666666666666"/><line x1="46.346666666666664" y1="258.3454545454545" x2="616.6666666666666" y2="258.3454545454545" stroke="#ffffff" stroke-width="0.6666666666666666"/><line x1="46.346666666666664" y1="197.86060606060607" x2="616.6666666666666" y2="197.86060606060607" stroke="#ffffff" stroke-width="0.6666666666666666"/><line x1="46.346666666666664" y1="137.37575757575758" x2="616.6666666666666" y2="137.37575757575758" stroke="#ffffff" stroke-width="0.6666666666666666"/><line x1="46.346666666666664" y1="76.8909090909091" x2="616.6666666666666" y2="76.8909090909091" stroke="#ffffff" stroke-width="0.6666666666666666"/><line x1="46.346666666666664" y1="16.406060606060578" x2="616.6666666666666" y2="16.406060606060578" stroke="#ffffff" stroke-width="0.6666666666666666"/><line x1="46.346666666666664" y1="288.58787878787876" x2="616.6666666666666" y2="288.58787878787876" stroke="#ffffff" stroke-width="1.3333333333333333"/><line x1="46.346666666666664" y1="228.10303030303027" x2="616.6666666666666" y2="228.10303030303027" stroke="#ffffff" stroke-width="1.3333333333333333"/><line x1="46.346666666666664" y1="167.61818181818182" x2="616.6666666666666" y2="167.61818181818182" stroke="#ffffff" stroke-width="1.3333333333333333"/><line x1="46.346666666666664" y1="107.13333333333335" x2="616.6666666666666" y2="107.13333333333335" stroke="#ffffff" stroke-width="1.3333333333333333"/><line x1="46.346666666666664" y1="46.64848484848483" x2="616.6666666666666" y2="46.64848484848483" stroke="#ffffff" stroke-width="1.3333333333333333"/><line x1="46.346666666666664" y1="288.58787878787876" x2="42.67999999999999" y2="288.58787878787876" stroke="#333333" stroke-width="1.3333333333333333"/><text x="39.74666666666666" y="292.69454545454545" fill="#4d4d4d" font-size="11.733333333333334" font-family="sans-serif" text-anchor="end">15</text><line x1="46.346666666666664" y1="228.10303030303027" x2="42.67999999999999" y2="228.10303030303027" stroke="#333333" stroke-width="1.3333333333333333"/><text x="39.74666666666666" y="232.20969696969695" fill="#4d4d4d" font-size="11.733333333333334" font-family="sans-serif" text-anchor="end">20</text><line x1="46.346666666666664" y1="167.61818181818182" x2="42.67999999999999" y2="167.61818181818182" stroke="#333333" stroke-width="1.3333333333333333"/><text x="39.74666666666666" y="171.7248484848485" fill="#4d4d4d" font-size="11.733333333333334" font-family="sans-serif" text-anchor="end">25</text><line x1="46.346666666666664" y1="107.13333333333335" x2="42.67999999999999" y2="107.13333333333335" stroke="#333333" stroke-width="1.3333333333333333"/><text x="39.74666666666666" y="111.24000000000002" fill="#4d4d4d" font-size="11.733333333333334" font-family="sans-serif" text-anchor="end">30</text><line x1="46.346666666666664" y1="46.64848484848483" x2="42.67999999999999" y2="46.64848484848483" stroke="#333333" stroke-width="1.3333333333333333"/><text x="39.74666666666666" y="50.75515151515149" fill="#4d4d4d" font-size="11.733333333333334" font-family="sans-serif" text-anchor="end">35</text><text x="331.50666666666666" y="373.73333333333335" fill="#000000" font-size="14.666666666666666" font-family="sans-serif" text-anchor="middle"></text><text x="17.599999999999998" y="173.66666666666666" fill="#000000" font-size="14.666666666666666" font-family="sans-serif" text-anchor="middle" transform="rotate(-90.0 17.599999999999998 173.66666666666666)">hwy</text><rect x="188.92666666666665" y="143.4242424242424" width="285.15999999999997" height="108.8727272727273" fill="#ffffff" fill-opacity="1.0" stroke="#333333" stroke-width="1.3333333333333333"/><line x1="188.92666666666665" y1="179.7151515151515" x2="474.08666666666664" y2="179.7151515151515" stroke="#333333" stroke-width="2.6666666666666665"/><line x1="331.50666666666666" y1="252.2969696969697" x2="331.50666666666666" y2="324.8787878787879" stroke="#333333" stroke-width="1.3333333333333333"/><line x1="331.50666666666666" y1="143.4242424242424" x2="331.50666666666666" y2="22.454545454545457" stroke="#333333" stroke-width="1.3333333333333333"/><line x1="260.21666666666664" y1="324.8787878787879" x2="402.7966666666666" y2="324.8787878787879" stroke="#333333" stroke-width="1.3333333333333333"/><line x1="260.21666666666664" y1="22.454545454545457" x2="402.7966666666666" y2="22.454545454545457" stroke="#333333" stroke-width="1.3333333333333333"/><circle cx="331.50666666666666" cy="-25.933333333333394" r="3.1181102362204727" fill="#333333" fill-opacity="1.0" stroke="#333333" stroke-width="1.3333333333333333"/><circle cx="331.50666666666666" cy="-62.22424242424237" r="3.1181102362204727" fill="#333333" fill-opacity="1.0" stroke="#333333" stroke-width="1.3333333333333333"/><circle cx="331.50666666666666" cy="-62.22424242424237" r="3.1181102362204727" fill="#333333" fill-opacity="1.0" stroke="#333333" stroke-width="1.3333333333333333"/></svg>