<svg xmlns="http://www.w3.org/2000/svg" width="800" height="600" viewBox="0 0 800 600"><rect x="0.0" y="0.0" width="800.0" height="600.0" fill="#ffffff" fill-opacity="1.0" stroke="none"/><text x="413.15000000000003" y="592.1" fill="#333333" font-size="12.0" font-family="sans-serif" text-anchor="middle">hwy</text><text x="13.899999999999999" y="284.65" fill="#333333" font-size="12.0" font-family="sans-serif" text-anchor="middle" transform="rotate(-90.0 13.899999999999999 284.65)">drv</text><rect x="31.799999999999997" y="5.5" width="762.7" height="558.3" fill="#ffffff" fill-opacity="0.0" stroke="#444444" stroke-width="1.0"/><line x1="103.30312500000001" y1="563.8" x2="103.30312500000001" y2="568.8" stroke="#444444" stroke-width="1.0"/><text x="103.30312500000001" y="581.8" fill="#333333" font-size="11.0" font-family="sans-serif" text-anchor="middle">15</text><line x1="222.47500000000002" y1="563.8" x2="222.47500000000002" y2="568.8" stroke="#444444" stroke-width="1.0"/><text x="222.47500000000002" y="581.8" fill="#333333" font-size="11.0" font-family="sans-serif" text-anchor="middle">20</text><line x1="341.646875" y1="563.8" x2="341.646875" y2="568.8" stroke="#444444" stroke-width="1.0"/><text x="341.646875" y="581.8" fill="#333333" font-size="11.0" font-family="sans-serif" text-anchor="middle">25</text><line x1="460.81875" y1="563.8" x2="460.81875" y2="568.8" stroke="#444444" stroke-width="1.0"/><text x="460.81875" y="581.8" fill="#333333" font-size="11.0" font-family="sans-serif" text-anchor="middle">30</text><line x1="579.990625" y1="563.8" x2="579.990625" y2="568.8" stroke="#444444" stroke-width="1.0"/><text x="579.990625" y="581.8" fill="#333333" font-size="11.0" font-family="sans-serif" text-anchor="middle">35</text><line x1="699.1625" y1="563.8" x2="699.1625" y2="568.8" stroke="#444444" stroke-width="1.0"/><text x="699.1625" y="581.8" fill="#333333" font-size="11.0" font-family="sans-serif" text-anchor="middle">40</text><path d="M 31.799999999999997 145.03008477627628 L 44.51166666666666 144.9730173985248 L 57.22333333333333 144.86384575957965 L 69.93499999999999 144.67626682253407 L 82.64666666666665 144.38806322936605 L 95.35833333333332 143.99454315699387 L 108.06999999999998 143.52115816201578 L 120.7816666666667 143.02517088766888 L 133.4933333333333 142.57730609661314 L 146.20500000000004 142.22319147631993 L 158.91666666666663 141.93743086461575 L 171.62833333333333 141.59164267189578 L 184.33999999999997 140.9544798626044 L 197.05166666666668 139.72721264167362 L 209.76333333333338 137.60150254385076 L 222.47500000000002 134.31639600799875 L 235.1866666666666 129.6936473962947 L 247.8983333333333 123.64168394468166 L 260.61000000000007 116.13308665980475 L 273.32166666666666 107.17375498692095 L 286.0333333333333 96.79120819186849 L 298.745 85.0699126742673 L 311.4566666666667 72.24308813521121 L 324.16833333333335 58.806991513130214 L 336.88000000000005 45.57426643597488 L 349.59166666666675 33.577827025116804 L 362.3033333333334 23.81647780024356 L 375.015 16.964005964351998 L 387.7266666666667 13.230877047693127 L 400.4383333333334 12.47875000000002 L 413.15000000000003 14.49010233323608 L 425.8616666666667 19.16330571569121 L 438.5733333333334 26.472214608161664 L 451.2850000000001 36.24268159432627 L 463.99666666666667 47.956398543740335 L 476.70833333333337 60.75495801395364 L 489.42 73.63956296375005 L 502.1316666666667 85.72016699142628 L 514.8433333333334 96.37239457845365 L 527.555 105.26780197232509 L 540.2666666666665 112.33357650135412 L 552.9783333333334 117.70499948734742 L 565.6899999999999 121.68576012948101 L 578.4016666666668 124.69308812079467 L 591.1133333333333 127.16994427572797 L 603.825 129.4791878259078 L 616.5366666666666 131.8194686315635 L 629.2483333333332 134.19910672287727 L 641.96 136.47733583675156 L 654.6716666666666 138.4513794139005 L 667.3833333333334 139.95029554635994 L 680.095 140.89856480584777 L 692.8066666666667 141.32975055160685 L 705.5183333333333 141.35420130073953 L 718.2299999999999 141.1050752821332 L 730.9416666666666 140.69513040983333 L 743.6533333333333 140.20709906535828 L 756.365 139.7160693308438 L 769.0766666666667 139.31781953612096 L 781.7883333333334 139.1313947146746 L 794.5 139.2643927143031 L 794.5 145.075 L 31.799999999999997 145.075 Z" fill="#619CFF" fill-opacity="0.5" stroke="#619CFF" stroke-width="1.2"/><text x="23.799999999999997" y="149.075" fill="#333333" font-size="11.0" font-family="sans-serif" text-anchor="end">f</text><path d="M 31.799999999999997 261.9216258256996 L 44.51166666666666 255.9567721282615 L 57.22333333333333 248.32404930660448 L 69.93499999999999 238.38620531844737 L 82.64666666666665 225.81756224670926 L 95.35833333333332 210.89043232813344 L 108.06999999999998 194.6156249127638 L 120.7816666666667 178.6675103349056 L 133.4933333333333 165.07888627087885 L 146.20500000000004 155.76820304137985 L 158.91666666666663 152.05375 L 171.62833333333333 154.3477145652075 L 184.33999999999997 162.14113122474123 L 197.05166666666668 174.2274761843547 L 209.76333333333338 189.00238431363766 L 222.47500000000002 204.70907476834793 L 235.1866666666666 219.6169395805946 L 247.8983333333333 232.1921400218247 L 260.61000000000007 241.28809695947493 L 273.32166666666666 246.3157378453674 L 286.0333333333333 247.33443484170982 L 298.745 245.03981343398343 L 311.4566666666667 240.65574569538506 L 324.16833333333335 235.7346785271726 L 336.88000000000005 231.86731355158832 L 349.59166666666675 230.34044940749558 L 362.3033333333334 231.84177626279097 L 375.015 236.32822421965312 L 387.7266666666667 243.1147434994224 L 400.4383333333334 251.1390710007919 L 413.15000000000003 259.28625779954376 L 425.8616666666667 266.654568346704 L 438.5733333333334 272.69605083875274 L 451.2850000000001 277.2276824746422 L 463.99666666666667 280.3510439216683 L 476.70833333333337 282.33262895788954 L 489.42 283.4901291486277 L 502.1316666666667 284.1122427825838 L 514.8433333333334 284.41956447898644 L 527.555 284.55892777291865 L 540.2666666666665 284.6168674719134 L 552.9783333333334 284.6389238610314 L 565.6899999999999 284.64660301447685 L 578.4016666666668 284.6490455637811 L 591.1133333333333 284.64975464728565 L 603.825 284.64994235911377 L 616.5366666666666 284.64998763684594 L 629.2483333333332 284.6499975811817 L 641.96 284.6499995686618 L 654.6716666666666 284.6499999299379 L 667.3833333333334 284.64999998964026 L 680.095 284.6499999986062 L 692.8066666666667 284.64999999982945 L 705.5183333333333 284.649999999981 L 718.2299999999999 284.64999999999804 L 730.9416666666666 284.6499999999998 L 743.6533333333333 284.65 L 756.365 284.65 L 769.0766666666667 284.65 L 781.7883333333334 284.65 L 794.5 284.65 L 794.5 284.65 L 31.799999999999997 284.65 Z" fill="#00BA38" fill-opacity="0.5" stroke="#00BA38" stroke-width="1.2"/><text x="23.799999999999997" y="288.65" fill="#333333" font-size="11.0" font-family="sans-serif" text-anchor="end">4</text><path d="M 31.799999999999997 414.22601003052597 L 44.51166666666666 408.0495600930911 L 57.22333333333333 399.3884134405999 L 69.93499999999999 388.00736169429587 L 82.64666666666665 374.0422585069043 L 95.35833333333332 358.12162305728975 L 108.06999999999998 341.3814258318588 L 120.7816666666667 325.3223837024039 L 133.4933333333333 311.51123379993294 L 146.20500000000004 301.2001366653321 L 158.91666666666663 294.9949947451686 L 171.62833333333333 292.7048030153511 L 184.33999999999997 293.43706059376353 L 197.05166666666668 295.8982561918617 L 209.76333333333338 298.7717863403336 L 222.47500000000002 301.02726523561404 L 235.1866666666666 302.07070649797873 L 247.8983333333333 301.73485674335984 L 260.61000000000007 300.1784700611933 L 273.32166666666666 297.7797346597803 L 286.0333333333333 295.0764294418976 L 298.745 292.7524995520999 L 311.4566666666667 291.62874999999997 L 324.16833333333335 292.60337760509105 L 336.88000000000005 296.5103940956138 L 349.59166666666675 303.91139277459854 L 362.3033333333334 314.8868540076496 L 375.015 328.91869448213845 L 387.7266666666667 344.93516191317394 L 400.4383333333334 361.5258076414113 L 413.15000000000003 377.25917303171866 L 425.8616666666667 390.99058324833544 L 438.5733333333334 402.05692049356145 L 451.2850000000001 410.311276496664 L 463.99666666666667 416.0190240087237 L 476.70833333333337 419.68236713321267 L 489.42 421.8667434169602 L 502.1316666666667 423.0777136882436 L 514.8433333333334 423.70224185578826 L 527.555 424.00201488526324 L 540.2666666666665 424.1359914031329 L 552.9783333333334 424.1917621060425 L 565.6899999999999 424.2133917027377 L 578.4016666666668 424.2212090854455 L 591.1133333333333 424.223842603336 L 603.825 424.22466969283437 L 616.5366666666666 424.22491189586236 L 629.2483333333332 424.22497803806635 L 641.96 424.22499488434556 L 654.6716666666666 424.2249988865919 L 667.3833333333334 424.22499977358706 L 680.095 424.2249999569853 L 692.8066666666667 424.2249999923655 L 705.5183333333333 424.2249999987341 L 718.2299999999999 424.2249999998039 L 730.9416666666666 424.2249999999716 L 743.6533333333333 424.22499999999616 L 756.365 424.22499999999945 L 769.0766666666667 424.2249999999999 L 781.7883333333334 424.22499999999997 L 794.5 424.22499999999997 L 794.5 424.22499999999997 L 31.799999999999997 424.22499999999997 Z" fill="#F8766D" fill-opacity="0.5" stroke="#F8766D" stroke-width="1.2"/><text x="23.799999999999997" y="428.22499999999997" fill="#333333" font-size="11.0" font-family="sans-serif" text-anchor="end">r</text></svg>