<svg xmlns="http://www.w3.org/2000/svg" width="624" height="384" viewBox="0 0 624 384"><rect x="0.0" y="0.0" width="624.0" height="384.0" fill="#ffffff" fill-opacity="1.0" stroke="none"/><rect x="46.346666666666664" y="7.333333333333333" width="570.3199999999999" height="332.66666666666663" fill="#ebebeb" fill-opacity="1.0" stroke="none"/><line x1="46.346666666666664" y1="292.4761904761905" x2="616.6666666666666" y2="292.4761904761905" stroke="#ffffff" stroke-width="1.3333333333333333"/><line x1="46.346666666666664" y1="213.26984126984127" x2="616.6666666666666" y2="213.26984126984127" stroke="#ffffff" stroke-width="1.3333333333333333"/><line x1="46.346666666666664" y1="134.06349206349205" x2="616.6666666666666" y2="134.06349206349205" stroke="#ffffff" stroke-width="1.3333333333333333"/><line x1="120.87712121212118" y1="7.333333333333333" x2="120.87712121212118" y2="340.0" stroke="#ffffff" stroke-width="0.6666666666666666"/><line x1="282.89984848484846" y1="7.333333333333333" x2="282.89984848484846" y2="340.0" stroke="#ffffff" stroke-width="0.6666666666666666"/><line x1="444.9225757575757" y1="7.333333333333333" x2="444.9225757575757" y2="340.0" stroke="#ffffff" stroke-width="0.6666666666666666"/><line x1="606.945303030303" y1="7.333333333333333" x2="606.945303030303" y2="340.0" stroke="#ffffff" stroke-width="0.6666666666666666"/><line x1="201.88848484848484" y1="7.333333333333333" x2="201.88848484848484" y2="340.0" stroke="#ffffff" stroke-width="1.3333333333333333"/><line x1="363.9112121212121" y1="7.333333333333333" x2="363.9112121212121" y2="340.0" stroke="#ffffff" stroke-width="1.3333333333333333"/><line x1="525.9339393939393" y1="7.333333333333333" x2="525.9339393939393" y2="340.0" stroke="#ffffff" stroke-width="1.3333333333333333"/><line x1="46.346666666666664" y1="292.4761904761905" x2="42.67999999999999" y2="292.4761904761905" stroke="#333333" stroke-width="1.3333333333333333"/><text x="39.74666666666666" y="296.58285714285716" fill="#4d4d4d" font-size="11.733333333333334" font-family="sans-serif" text-anchor="end">4</text><line x1="46.346666666666664" y1="213.26984126984127" x2="42.67999999999999" y2="213.26984126984127" stroke="#333333" stroke-width="1.3333333333333333"/><text x="39.74666666666666" y="217.37650793650795" fill="#4d4d4d" font-size="11.733333333333334" font-family="sans-serif" text-anchor="end">f</text><line x1="46.346666666666664" y1="134.06349206349205" x2="42.67999999999999" y2="134.06349206349205" stroke="#333333" stroke-width="1.3333333333333333"/><text x="39.74666666666666" y="138.1701587301587" fill="#4d4d4d" font-size="11.733333333333334" font-family="sans-serif" text-anchor="end">r</text><line x1="201.88848484848484" y1="340.0" x2="201.88848484848484" y2="343.66666666666663" stroke="#333333" stroke-width="1.3333333333333333"/><text x="201.88848484848484" y="355.9866666666667" fill="#4d4d4d" font-size="11.733333333333334" font-family="sans-serif" text-anchor="middle">20</text><line x1="363.9112121212121" y1="340.0" x2="363.9112121212121" y2="343.66666666666663" stroke="#333333" stroke-width="1.3333333333333333"/><text x="363.9112121212121" y="355.9866666666667" fill="#4d4d4d" font-size="11.733333333333334" font-family="sans-serif" text-anchor="middle">30</text><line x1="525.9339393939393" y1="340.0" x2="525.9339393939393" y2="343.66666666666663" stroke="#333333" stroke-width="1.3333333333333333"/><text x="525.9339393939393" y="355.9866666666667" fill="#4d4d4d" font-size="11.733333333333334" font-family="sans-serif" text-anchor="middle">40</text><text x="331.50666666666666" y="373.73333333333335" fill="#000000" font-size="14.666666666666666" font-family="sans-serif" text-anchor="middle">hwy</text><text x="17.599999999999998" y="173.66666666666666" fill="#000000" font-size="14.666666666666666" font-family="sans-serif" text-anchor="middle" transform="rotate(-90.0 17.599999999999998 173.66666666666666)">drv</text><path d="M 72.27030303030301 128.3892417232954 L 80.91151515151513 124.88421538906654 L 89.55272727272725 119.96916752028903 L 98.19393939393936 113.51062151310089 L 106.8351515151515 105.58567191780631 L 115.47636363636362 96.55099227597111 L 124.11757575757572 87.05122579042109 L 132.75878787878787 77.93800280045097 L 141.39999999999998 70.10041897729961 L 150.0412121212121 64.24905332912635 L 158.6824242424242 60.72774480107027 L 167.32363636363633 59.42810141291757 L 175.96484848484843 59.84364466539637 L 184.60606060606057 61.24032973083141 L 193.24727272727276 62.87100737650462 L 201.88848484848484 64.15095184368806 L 210.5296969696969 64.74308634487505 L 219.17090909090905 64.55249753638347 L 227.81212121212118 63.669275562191885 L 236.4533333333333 62.30803555604497 L 245.0945454545454 60.77395755426125 L 253.73575757575753 59.455168355748704 L 262.3769696969697 58.8174603174603 L 271.01818181818174 59.37054428260441 L 279.6593939393939 61.58770718787619 L 288.300606060606 65.78764332144878 L 296.9418181818181 72.01602387044247 L 305.5830303030302 79.97884569834969 L 314.22424242424233 89.06790829834763 L 322.86545454545455 98.48280694860443 L 331.50666666666666 107.4112141368242 L 340.14787878787877 115.20354709554161 L 348.7890909090909 121.48349817761647 L 357.4303030303031 126.16769953212311 L 366.07151515151514 129.4067455118607 L 374.7127272727272 131.48562808238518 L 383.35393939393936 132.7252230723803 L 391.9951515151515 133.4124273294878 L 400.6363636363636 133.766836042565 L 409.2775757575756 133.93695194623857 L 417.9187878787878 134.0129812556409 L 426.55999999999995 134.04463014527119 L 435.20121212121205 134.05690455966507 L 443.8424242424242 134.06134078638644 L 452.4836363636364 134.0628352613116 L 461.1248484848485 134.063304620005 L 469.7660606060605 134.06344206594883 L 478.40727272727264 134.0634796004823 L 487.0484848484848 134.06348916044846 L 495.6896969696969 134.0634914316526 L 504.3309090909091 134.0634919350067 L 512.9721212121212 134.06349203908195 L 521.6133333333333 134.0634920591596 L 530.2545454545453 134.06349206277372 L 538.8957575757574 134.06349206338078 L 547.5369696969697 134.06349206347593 L 556.1781818181818 134.06349206348986 L 564.8193939393939 134.06349206349176 L 573.4606060606061 134.063492063492 L 582.1018181818182 134.06349206349205 L 590.7430303030302 134.06349206349205 L 590.7430303030302 134.06349206349205 L 72.27030303030301 134.06349206349205 Z" fill="#619CFF" fill-opacity="0.5" stroke="#619CFF" stroke-width="1.5999999999999999"/><path d="M 72.27030303030301 213.24435267306575 L 80.91151515151513 213.2119679433472 L 89.55272727272725 213.15001496496478 L 98.19393939393936 213.04356722868403 L 106.8351515151515 212.8800167759311 L 115.47636363636362 212.65670107991093 L 124.11757575757572 212.38806344981037 L 132.75878787878787 212.10659942506507 L 141.39999999999998 211.85244406029636 L 150.0412121212121 211.6514902628827 L 158.6824242424242 211.48932615899542 L 167.32363636363633 211.29309746228034 L 175.96484848484843 210.9315188129948 L 184.60606060606057 210.23506632457958 L 193.24727272727276 209.02876335972473 L 201.88848484848484 207.16452337793174 L 210.5296969696969 204.54119512550974 L 219.17090909090905 201.1068126749812 L 227.81212121212118 196.84581623152206 L 236.4533333333333 191.76155362619923 L 245.0945454545454 185.8696415567012 L 253.73575757575753 179.21801321410447 L 262.3769696969697 171.9390166627948 L 271.01818181818174 164.3142689571255 L 279.6593939393939 156.80493101399256 L 288.300606060606 149.99716336785798 L 296.9418181818181 144.45776995621236 L 305.5830303030302 140.5691131254024 L 314.22424242424233 138.4506283494382 L 322.86545454545455 138.02380952380955 L 331.50666666666666 139.16521647550792 L 340.14787878787877 141.81717691987856 L 348.7890909090909 145.9648537248537 L 357.4303030303031 151.5094213051171 L 366.07151515151514 158.1567489440182 L 374.7127272727272 165.4197055675965 L 383.35393939393936 172.73149148226196 L 391.9951515151515 179.587021063059 L 400.6363636363636 185.63197222253314 L 409.2775757575756 190.67995892768604 L 417.9187878787878 194.68966127237243 L 426.55999999999995 197.737849019201 L 435.20121212121205 199.99686042903605 L 443.8424242424242 201.7034659891866 L 452.4836363636364 203.10903814423978 L 461.1248484848485 204.41949310421148 L 469.7660606060605 205.7475611589038 L 478.40727272727264 207.09796377860883 L 487.0484848484848 208.3908185933364 L 495.6896969696969 209.51105348440004 L 504.3309090909091 210.36166193590364 L 512.9721212121212 210.89978800510397 L 521.6133333333333 211.14447830602745 L 530.2545454545453 211.15835367464047 L 538.8957575757574 211.01697905578953 L 547.5369696969697 210.78434257568395 L 556.1781818181818 210.50739340073042 L 564.8193939393939 210.22874269234674 L 573.4606060606061 210.00274296236523 L 582.1018181818182 209.89695016631856 L 590.7430303030302 209.97242418388845 L 590.7430303030302 213.26984126984127 L 72.27030303030301 213.26984126984127 Z" fill="#00BA38" fill-opacity="0.5" stroke="#00BA38" stroke-width="1.5999999999999999"/><path d="M 72.27030303030301 279.57823925468085 L 80.91151515151513 276.1932900522874 L 89.55272727272725 271.8618545573389 L 98.19393939393936 266.22230348240294 L 106.8351515151515 259.0898203572727 L 115.47636363636362 250.61893757038925 L 124.11757575757572 241.38327158860275 L 132.75878787878787 232.33299802645547 L 141.39999999999998 224.62169368936716 L 150.0412121212121 219.33804527650386 L 158.6824242424242 217.23015873015873 L 167.32363636363633 218.5319431358103 L 175.96484848484843 222.95456954774374 L 184.60606060606057 229.81335700609617 L 193.24727272727276 238.19785661404683 L 201.88848484848484 247.11112624708863 L 210.5296969696969 255.57107642613113 L 219.17090909090905 262.7072807427201 L 227.81212121212118 267.8690757745628 L 236.4533333333333 270.722173246833 L 245.0945454545454 271.3002658137523 L 253.73575757575753 269.99810866156355 L 262.3769696969697 267.51022759226237 L 271.01818181818174 264.71760882390606 L 279.6593939393939 262.52294745357085 L 288.300606060606 261.65647899870675 L 296.9418181818181 262.50845549287396 L 305.5830303030302 265.05443552917944 L 314.22424242424233 268.9056654483557 L 322.86545454545455 273.4593296877939 L 331.50666666666666 278.0827144102105 L 340.14787878787877 282.2641006058702 L 348.7890909090909 285.6925352968195 L 357.4303030303031 288.2641562735475 L 366.07151515151514 290.0366087719949 L 374.7127272727272 291.1611233079864 L 383.35393939393936 291.8179842380529 L 391.9951515151515 292.17102274593145 L 400.6363636363636 292.3454223848636 L 409.2775757575756 292.4245085946128 L 417.9187878787878 292.4573883512418 L 426.55999999999995 292.4699049628034 L 435.20121212121205 292.4742627468579 L 443.8424242424242 292.47564885048064 L 452.4836363636364 292.4760512428552 L 461.1248484848485 292.4761577660048 L 469.7660606060605 292.47618346031874 L 478.40727272727264 292.4761891035538 L 487.0484848484848 292.4761902314136 L 495.6896969696969 292.47619043643147 L 504.3309090909091 292.4761904703115 L 512.9721212121212 292.4761904753995 L 521.6133333333333 292.4761904760937 L 530.2545454545453 292.4761904761797 L 538.8957575757574 292.47619047618934 L 547.5369696969697 292.47619047619037 L 556.1781818181818 292.4761904761905 L 564.8193939393939 292.4761904761905 L 573.4606060606061 292.4761904761905 L 582.1018181818182 292.4761904761905 L 590.7430303030302 292.4761904761905 L 590.7430303030302 292.4761904761905 L 72.27030303030301 292.4761904761905 Z" fill="#F8766D" fill-opacity="0.5" stroke="#F8766D" stroke-width="1.5999999999999999"/></svg>