<svg xmlns="http://www.w3.org/2000/svg" width="800" height="600" viewBox="0 0 800 600"><rect x="0.0" y="0.0" width="800.0" height="600.0" fill="#ffffff" fill-opacity="1.0" stroke="none"/><line x1="143.15769230769232" y1="5.5" x2="143.15769230769232" y2="563.8" stroke="#dddddd" stroke-width="1.0"/><line x1="284.7538461538462" y1="5.5" x2="284.7538461538462" y2="563.8" stroke="#dddddd" stroke-width="1.0"/><line x1="426.35" y1="5.5" x2="426.35" y2="563.8" stroke="#dddddd" stroke-width="1.0"/><line x1="567.946153846154" y1="5.5" x2="567.946153846154" y2="563.8" stroke="#dddddd" stroke-width="1.0"/><line x1="709.5423076923078" y1="5.5" x2="709.5423076923078" y2="563.8" stroke="#dddddd" stroke-width="1.0"/><line x1="58.2" y1="502.1190703779075" x2="794.5" y2="502.1190703779075" stroke="#dddddd" stroke-width="0.5"/><line x1="58.2" y1="378.75721113372265" x2="794.5" y2="378.75721113372265" stroke="#dddddd" stroke-width="0.5"/><line x1="58.2" y1="255.39535188953778" x2="794.5" y2="255.39535188953778" stroke="#dddddd" stroke-width="0.5"/><line x1="58.2" y1="132.03349264535285" x2="794.5" y2="132.03349264535285" stroke="#dddddd" stroke-width="0.5"/><line x1="58.2" y1="8.671633401168037" x2="794.5" y2="8.671633401168037" stroke="#dddddd" stroke-width="0.5"/><line x1="58.2" y1="563.8" x2="794.5" y2="563.8" stroke="#dddddd" stroke-width="1.0"/><line x1="58.2" y1="440.4381407558151" x2="794.5" y2="440.4381407558151" stroke="#dddddd" stroke-width="1.0"/><line x1="58.2" y1="317.0762815116302" x2="794.5" y2="317.0762815116302" stroke="#dddddd" stroke-width="1.0"/><line x1="58.2" y1="193.7144222674453" x2="794.5" y2="193.7144222674453" stroke="#dddddd" stroke-width="1.0"/><line x1="58.2" y1="70.35256302326042" x2="794.5" y2="70.35256302326042" stroke="#dddddd" stroke-width="1.0"/><rect x="58.2" y="5.5" width="736.3" height="558.3" fill="#ffffff" fill-opacity="0.0" stroke="#444444" stroke-width="1.0"/><line x1="143.15769230769232" y1="563.8" x2="143.15769230769232" y2="566.55" stroke="#444444" stroke-width="1.0"/><text x="143.15769230769232" y="577.55" fill="#333333" font-size="11.0" font-family="sans-serif" text-anchor="middle">Fair</text><line x1="284.7538461538462" y1="563.8" x2="284.7538461538462" y2="566.55" stroke="#444444" stroke-width="1.0"/><text x="284.7538461538462" y="577.55" fill="#333333" font-size="11.0" font-family="sans-serif" text-anchor="middle">Good</text><line x1="426.35" y1="563.8" x2="426.35" y2="566.55" stroke="#444444" stroke-width="1.0"/><text x="426.35" y="577.55" fill="#333333" font-size="11.0" font-family="sans-serif" text-anchor="middle">Very Good</text><line x1="567.946153846154" y1="563.8" x2="567.946153846154" y2="566.55" stroke="#444444" stroke-width="1.0"/><text x="567.946153846154" y="577.55" fill="#333333" font-size="11.0" font-family="sans-serif" text-anchor="middle">Premium</text><line x1="709.5423076923078" y1="563.8" x2="709.5423076923078" y2="566.55" stroke="#444444" stroke-width="1.0"/><text x="709.5423076923078" y="577.55" fill="#333333" font-size="11.0" font-family="sans-serif" text-anchor="middle">Ideal</text><line x1="58.2" y1="563.8" x2="55.45" y2="563.8" stroke="#444444" stroke-width="1.0"/><text x="53.25" y="567.65" fill="#333333" font-size="11.0" font-family="sans-serif" text-anchor="end">0</text><line x1="58.2" y1="440.4381407558151" x2="55.45" y2="440.4381407558151" stroke="#444444" stroke-width="1.0"/><text x="53.25" y="444.2881407558151" fill="#333333" font-size="11.0" font-family="sans-serif" text-anchor="end">5000</text><line x1="58.2" y1="317.0762815116302" x2="55.45" y2="317.0762815116302" stroke="#444444" stroke-width="1.0"/><text x="53.25" y="320.92628151163024" fill="#333333" font-size="11.0" font-family="sans-serif" text-anchor="end">10000</text><line x1="58.2" y1="193.7144222674453" x2="55.45" y2="193.7144222674453" stroke="#444444" stroke-width="1.0"/><text x="53.25" y="197.56442226744528" fill="#333333" font-size="11.0" font-family="sans-serif" text-anchor="end">15000</text><line x1="58.2" y1="70.35256302326042" x2="55.45" y2="70.35256302326042" stroke="#444444" stroke-width="1.0"/><text x="53.25" y="74.20256302326041" fill="#333333" font-size="11.0" font-family="sans-serif" text-anchor="end">20000</text><text x="426.34999999999997" y="592.1" fill="#333333" font-size="12.0" font-family="sans-serif" text-anchor="middle">cut</text><text x="13.899999999999999" y="284.65" fill="#333333" font-size="12.0" font-family="sans-serif" text-anchor="middle" transform="rotate(-90.0 13.899999999999999 284.65)">count</text><rect x="79.43942307692306" y="524.0774813233725" width="127.4365384615385" height="39.72251867662749" fill="#1f77b4" fill-opacity="0.85" stroke="none"/><rect x="221.03557692307697" y="442.7573437096057" width="127.4365384615385" height="121.04265629039423" fill="#1f77b4" fill-opacity="0.85" stroke="none"/><rect x="362.6317307692308" y="265.7084033223516" width="127.4365384615385" height="298.09159667764834" fill="#1f77b4" fill-opacity="0.85" stroke="none"/><rect x="504.2278846153847" y="223.54331983268924" width="127.4365384615385" height="340.2566801673107" fill="#1f77b4" fill-opacity="0.85" stroke="none"/><rect x="645.8240384615385" y="32.08571428571429" width="127.4365384615385" height="531.7142857142857" fill="#1f77b4" fill-opacity="0.85" stroke="none"/></svg>