<svg xmlns="http://www.w3.org/2000/svg" width="800" height="600" viewBox="0 0 800 600"><rect x="0.0" y="0.0" width="800.0" height="600.0" fill="#ffffff" fill-opacity="1.0" stroke="none"/><line x1="131.48076923076923" y1="5.5" x2="131.48076923076923" y2="563.8" stroke="#dddddd" stroke-width="1.0"/><line x1="275.61538461538464" y1="5.5" x2="275.61538461538464" y2="563.8" stroke="#dddddd" stroke-width="1.0"/><line x1="419.75000000000006" y1="5.5" x2="419.75000000000006" y2="563.8" stroke="#dddddd" stroke-width="1.0"/><line x1="563.8846153846155" y1="5.5" x2="563.8846153846155" y2="563.8" stroke="#dddddd" stroke-width="1.0"/><line x1="708.0192307692308" y1="5.5" x2="708.0192307692308" y2="563.8" stroke="#dddddd" stroke-width="1.0"/><line x1="45.0" y1="497.25861312368664" x2="794.5" y2="497.25861312368664" stroke="#dddddd" stroke-width="0.5"/><line x1="45.0" y1="364.17583937105996" x2="794.5" y2="364.17583937105996" stroke="#dddddd" stroke-width="0.5"/><line x1="45.0" y1="231.0930656184333" x2="794.5" y2="231.0930656184333" stroke="#dddddd" stroke-width="0.5"/><line x1="45.0" y1="98.01029186580666" x2="794.5" y2="98.01029186580666" stroke="#dddddd" stroke-width="0.5"/><line x1="45.0" y1="563.8" x2="794.5" y2="563.8" stroke="#dddddd" stroke-width="1.0"/><line x1="45.0" y1="430.71722624737333" x2="794.5" y2="430.71722624737333" stroke="#dddddd" stroke-width="1.0"/><line x1="45.0" y1="297.63445249474665" x2="794.5" y2="297.63445249474665" stroke="#dddddd" stroke-width="1.0"/><line x1="45.0" y1="164.55167874211998" x2="794.5" y2="164.55167874211998" stroke="#dddddd" stroke-width="1.0"/><line x1="45.0" y1="31.468904989493353" x2="794.5" y2="31.468904989493353" stroke="#dddddd" stroke-width="1.0"/><rect x="45.0" y="5.5" width="749.5" height="558.3" fill="#ffffff" fill-opacity="0.0" stroke="#444444" stroke-width="1.0"/><line x1="131.48076923076923" y1="563.8" x2="131.48076923076923" y2="566.55" stroke="#444444" stroke-width="1.0"/><text x="131.48076923076923" y="577.55" fill="#333333" font-size="11.0" font-family="sans-serif" text-anchor="middle">Fair</text><line x1="275.61538461538464" y1="563.8" x2="275.61538461538464" y2="566.55" stroke="#444444" stroke-width="1.0"/><text x="275.61538461538464" y="577.55" fill="#333333" font-size="11.0" font-family="sans-serif" text-anchor="middle">Good</text><line x1="419.75000000000006" y1="563.8" x2="419.75000000000006" y2="566.55" stroke="#444444" stroke-width="1.0"/><text x="419.75000000000006" y="577.55" fill="#333333" font-size="11.0" font-family="sans-serif" text-anchor="middle">Very Good</text><line x1="563.8846153846155" y1="563.8" x2="563.8846153846155" y2="566.55" stroke="#444444" stroke-width="1.0"/><text x="563.8846153846155" y="577.55" fill="#333333" font-size="11.0" font-family="sans-serif" text-anchor="middle">Premium</text><line x1="708.0192307692308" y1="563.8" x2="708.0192307692308" y2="566.55" stroke="#444444" stroke-width="1.0"/><text x="708.0192307692308" y="577.55" fill="#333333" font-size="11.0" font-family="sans-serif" text-anchor="middle">Ideal</text><line x1="45.0" y1="563.8" x2="42.25" y2="563.8" stroke="#444444" stroke-width="1.0"/><text x="40.05" y="567.65" fill="#333333" font-size="11.0" font-family="sans-serif" text-anchor="end">0</text><line x1="45.0" y1="430.71722624737333" x2="42.25" y2="430.71722624737333" stroke="#444444" stroke-width="1.0"/><text x="40.05" y="434.56722624737336" fill="#333333" font-size="11.0" font-family="sans-serif" text-anchor="end">0.1</text><line x1="45.0" y1="297.63445249474665" x2="42.25" y2="297.63445249474665" stroke="#444444" stroke-width="1.0"/><text x="40.05" y="301.4844524947467" fill="#333333" font-size="11.0" font-family="sans-serif" text-anchor="end">0.2</text><line x1="45.0" y1="164.55167874211998" x2="42.25" y2="164.55167874211998" stroke="#444444" stroke-width="1.0"/><text x="40.05" y="168.40167874211997" fill="#333333" font-size="11.0" font-family="sans-serif" text-anchor="end">0.3</text><line x1="45.0" y1="31.468904989493353" x2="42.25" y2="31.468904989493353" stroke="#444444" stroke-width="1.0"/><text x="40.05" y="35.318904989493355" fill="#333333" font-size="11.0" font-family="sans-serif" text-anchor="end">0.4</text><text x="419.75" y="592.1" fill="#333333" font-size="12.0" font-family="sans-serif" text-anchor="middle">cut</text><text x="13.899999999999999" y="284.65" fill="#333333" font-size="12.0" font-family="sans-serif" text-anchor="middle" transform="rotate(-90.0 13.899999999999999 284.65)">prop</text><rect x="66.62019230769229" y="524.0774813233725" width="129.72115384615387" height="39.72251867662749" fill="#1f77b4" fill-opacity="0.85" stroke="none"/><rect x="210.7548076923077" y="442.7573437096057" width="129.72115384615387" height="121.04265629039423" fill="#1f77b4" fill-opacity="0.85" stroke="none"/><rect x="354.8894230769231" y="265.7084033223516" width="129.72115384615387" height="298.09159667764834" fill="#1f77b4" fill-opacity="0.85" stroke="none"/><rect x="499.02403846153857" y="223.54331983268924" width="129.72115384615387" height="340.2566801673107" fill="#1f77b4" fill-opacity="0.85" stroke="none"/><rect x="643.1586538461539" y="32.08571428571429" width="129.72115384615387" height="531.7142857142857" fill="#1f77b4" fill-opacity="0.85" stroke="none"/></svg>