<svg xmlns="http://www.w3.org/2000/svg" width="800" height="600" viewBox="0 0 800 600"><rect x="0.0" y="0.0" width="800.0" height="600.0" fill="#ffffff" fill-opacity="1.0" stroke="none"/><line x1="158.68863636363633" y1="5.5" x2="158.68863636363633" y2="563.8" stroke="#dddddd" stroke-width="0.5"/><line x1="330.52954545454537" y1="5.5" x2="330.52954545454537" y2="563.8" stroke="#dddddd" stroke-width="0.5"/><line x1="502.37045454545455" y1="5.5" x2="502.37045454545455" y2="563.8" stroke="#dddddd" stroke-width="0.5"/><line x1="674.2113636363636" y1="5.5" x2="674.2113636363636" y2="563.8" stroke="#dddddd" stroke-width="0.5"/><line x1="72.76818181818182" y1="5.5" x2="72.76818181818182" y2="563.8" stroke="#dddddd" stroke-width="1.0"/><line x1="244.6090909090909" y1="5.5" x2="244.6090909090909" y2="563.8" stroke="#dddddd" stroke-width="1.0"/><line x1="416.45" y1="5.5" x2="416.45" y2="563.8" stroke="#dddddd" stroke-width="1.0"/><line x1="588.290909090909" y1="5.5" x2="588.290909090909" y2="563.8" stroke="#dddddd" stroke-width="1.0"/><line x1="760.1318181818182" y1="5.5" x2="760.1318181818182" y2="563.8" stroke="#dddddd" stroke-width="1.0"/><line x1="38.4" y1="510.2257575757576" x2="794.5" y2="510.2257575757576" stroke="#dddddd" stroke-width="0.5"/><line x1="38.4" y1="369.2409090909091" x2="794.5" y2="369.2409090909091" stroke="#dddddd" stroke-width="0.5"/><line x1="38.4" y1="228.2560606060606" x2="794.5" y2="228.2560606060606" stroke="#dddddd" stroke-width="0.5"/><line x1="38.4" y1="87.2712121212121" x2="794.5" y2="87.2712121212121" stroke="#dddddd" stroke-width="0.5"/><line x1="38.4" y1="439.73333333333335" x2="794.5" y2="439.73333333333335" stroke="#dddddd" stroke-width="1.0"/><line x1="38.4" y1="298.74848484848485" x2="794.5" y2="298.74848484848485" stroke="#dddddd" stroke-width="1.0"/><line x1="38.4" y1="157.76363636363635" x2="794.5" y2="157.76363636363635" stroke="#dddddd" stroke-width="1.0"/><line x1="38.4" y1="16.778787878787853" x2="794.5" y2="16.778787878787853" stroke="#dddddd" stroke-width="1.0"/><rect x="38.4" y="5.5" width="756.1" height="558.3" fill="#ffffff" fill-opacity="0.0" stroke="#444444" stroke-width="1.0"/><line x1="72.76818181818182" y1="563.8" x2="72.76818181818182" y2="566.55" stroke="#444444" stroke-width="1.0"/><text x="72.76818181818182" y="577.55" fill="#333333" font-size="11.0" font-family="sans-serif" text-anchor="middle">Fair</text><line x1="244.6090909090909" y1="563.8" x2="244.6090909090909" y2="566.55" stroke="#444444" stroke-width="1.0"/><text x="244.6090909090909" y="577.55" fill="#333333" font-size="11.0" font-family="sans-serif" text-anchor="middle">Good</text><line x1="416.45" y1="563.8" x2="416.45" y2="566.55" stroke="#444444" stroke-width="1.0"/><text x="416.45" y="577.55" fill="#333333" font-size="11.0" font-family="sans-serif" text-anchor="middle">Very Good</text><line x1="588.290909090909" y1="563.8" x2="588.290909090909" y2="566.55" stroke="#444444" stroke-width="1.0"/><text x="588.290909090909" y="577.55" fill="#333333" font-size="11.0" font-family="sans-serif" text-anchor="middle">Premium</text><line x1="760.1318181818182" y1="563.8" x2="760.1318181818182" y2="566.55" stroke="#444444" stroke-width="1.0"/><text x="760.1318181818182" y="577.55" fill="#333333" font-size="11.0" font-family="sans-serif" text-anchor="middle">Ideal</text><line x1="38.4" y1="439.73333333333335" x2="35.65" y2="439.73333333333335" stroke="#444444" stroke-width="1.0"/><text x="33.449999999999996" y="443.58333333333337" fill="#333333" font-size="11.0" font-family="sans-serif" text-anchor="end">50</text><line x1="38.4" y1="298.74848484848485" x2="35.65" y2="298.74848484848485" stroke="#444444" stroke-width="1.0"/><text x="33.449999999999996" y="302.5984848484849" fill="#333333" font-size="11.0" font-family="sans-serif" text-anchor="end">60</text><line x1="38.4" y1="157.76363636363635" x2="35.65" y2="157.76363636363635" stroke="#444444" stroke-width="1.0"/><text x="33.449999999999996" y="161.61363636363635" fill="#333333" font-size="11.0" font-family="sans-serif" text-anchor="end">70</text><line x1="38.4" y1="16.778787878787853" x2="35.65" y2="16.778787878787853" stroke="#444444" stroke-width="1.0"/><text x="33.449999999999996" y="20.628787878787854" fill="#333333" font-size="11.0" font-family="sans-serif" text-anchor="end">80</text><text x="416.45" y="592.1" fill="#333333" font-size="12.0" font-family="sans-serif" text-anchor="middle">cut</text><text x="13.899999999999999" y="284.65" fill="#333333" font-size="12.0" font-family="sans-serif" text-anchor="middle" transform="rotate(-90.0 13.899999999999999 284.65)">depth</text><line x1="72.76818181818182" y1="538.4227272727272" x2="72.76818181818182" y2="30.877272727272725" stroke="#1f77b4" stroke-width="1.5"/><line x1="244.6090909090909" y1="379.1098484848485" x2="244.6090909090909" y2="200.0590909090909" stroke="#1f77b4" stroke-width="1.5"/><line x1="416.45" y1="343.8636363636364" x2="416.45" y2="229.665909090909" stroke="#1f77b4" stroke-width="1.5"/><line x1="588.290909090909" y1="326.9454545454545" x2="588.290909090909" y2="256.4530303030303" stroke="#1f77b4" stroke-width="1.5"/><line x1="760.1318181818182" y1="538.4227272727272" x2="760.1318181818182" y2="204.28863636363627" stroke="#1f77b4" stroke-width="1.5"/><circle cx="72.76818181818182" cy="228.2560606060606" r="7.0" fill="#1f77b4" fill-opacity="0.85" stroke="none"><title>(0, 65)</title></circle><circle cx="244.6090909090909" cy="250.81363636363636" r="7.0" fill="#1f77b4" fill-opacity="0.85" stroke="none"><title>(1, 63.4)</title></circle><circle cx="416.45" cy="269.14166666666665" r="7.0" fill="#1f77b4" fill-opacity="0.85" stroke="none"><title>(2, 62.1)</title></circle><circle cx="588.290909090909" cy="279.01060606060605" r="7.0" fill="#1f77b4" fill-opacity="0.85" stroke="none"><title>(3, 61.4)</title></circle><circle cx="760.1318181818182" cy="273.3712121212121" r="7.0" fill="#1f77b4" fill-opacity="0.85" stroke="none"><title>(4, 61.8)</title></circle></svg>