<svg xmlns="http://www.w3.org/2000/svg" width="800" height="600" viewBox="0 0 800 600"><rect x="0.0" y="0.0" width="800.0" height="600.0" fill="#ffffff" fill-opacity="1.0" stroke="none"/><line x1="185.53124999999997" y1="5.5" x2="185.53124999999997" y2="563.8" stroke="#dddddd" stroke-width="1.0"/><line x1="419.75" y1="5.5" x2="419.75" y2="563.8" stroke="#dddddd" stroke-width="1.0"/><line x1="653.96875" y1="5.5" x2="653.96875" y2="563.8" stroke="#dddddd" stroke-width="1.0"/><line x1="45.0" y1="501.09784366576815" x2="794.5" y2="501.09784366576815" stroke="#dddddd" stroke-width="0.5"/><line x1="45.0" y1="375.69353099730455" x2="794.5" y2="375.69353099730455" stroke="#dddddd" stroke-width="0.5"/><line x1="45.0" y1="250.28921832884095" x2="794.5" y2="250.28921832884095" stroke="#dddddd" stroke-width="0.5"/><line x1="45.0" y1="124.88490566037734" x2="794.5" y2="124.88490566037734" stroke="#dddddd" stroke-width="0.5"/><line x1="45.0" y1="563.8" x2="794.5" y2="563.8" stroke="#dddddd" stroke-width="1.0"/><line x1="45.0" y1="438.39568733153635" x2="794.5" y2="438.39568733153635" stroke="#dddddd" stroke-width="1.0"/><line x1="45.0" y1="312.99137466307275" x2="794.5" y2="312.99137466307275" stroke="#dddddd" stroke-width="1.0"/><line x1="45.0" y1="187.58706199460914" x2="794.5" y2="187.58706199460914" stroke="#dddddd" stroke-width="1.0"/><line x1="45.0" y1="62.18274932614554" x2="794.5" y2="62.18274932614554" stroke="#dddddd" stroke-width="1.0"/><rect x="45.0" y="5.5" width="749.5" height="558.3" fill="#ffffff" fill-opacity="0.0" stroke="#444444" stroke-width="1.0"/><line x1="185.53124999999997" y1="563.8" x2="185.53124999999997" y2="566.55" stroke="#444444" stroke-width="1.0"/><text x="185.53124999999997" y="577.55" fill="#333333" font-size="11.0" font-family="sans-serif" text-anchor="middle">4</text><line x1="419.75" y1="563.8" x2="419.75" y2="566.55" stroke="#444444" stroke-width="1.0"/><text x="419.75" y="577.55" fill="#333333" font-size="11.0" font-family="sans-serif" text-anchor="middle">f</text><line x1="653.96875" y1="563.8" x2="653.96875" y2="566.55" stroke="#444444" stroke-width="1.0"/><text x="653.96875" y="577.55" fill="#333333" font-size="11.0" font-family="sans-serif" text-anchor="middle">r</text><line x1="45.0" y1="563.8" x2="42.25" y2="563.8" stroke="#444444" stroke-width="1.0"/><text x="40.05" y="567.65" fill="#333333" font-size="11.0" font-family="sans-serif" text-anchor="end">0</text><line x1="45.0" y1="438.39568733153635" x2="42.25" y2="438.39568733153635" stroke="#444444" stroke-width="1.0"/><text x="40.05" y="442.2456873315364" fill="#333333" font-size="11.0" font-family="sans-serif" text-anchor="end">25</text><line x1="45.0" y1="312.99137466307275" x2="42.25" y2="312.99137466307275" stroke="#444444" stroke-width="1.0"/><text x="40.05" y="316.84137466307277" fill="#333333" font-size="11.0" font-family="sans-serif" text-anchor="end">50</text><line x1="45.0" y1="187.58706199460914" x2="42.25" y2="187.58706199460914" stroke="#444444" stroke-width="1.0"/><text x="40.05" y="191.43706199460914" fill="#333333" font-size="11.0" font-family="sans-serif" text-anchor="end">75</text><line x1="45.0" y1="62.18274932614554" x2="42.25" y2="62.18274932614554" stroke="#444444" stroke-width="1.0"/><text x="40.05" y="66.03274932614553" fill="#333333" font-size="11.0" font-family="sans-serif" text-anchor="end">100</text><text x="419.75" y="592.1" fill="#333333" font-size="12.0" font-family="sans-serif" text-anchor="middle">drv</text><text x="13.899999999999999" y="284.65" fill="#333333" font-size="12.0" font-family="sans-serif" text-anchor="middle" transform="rotate(-90.0 13.899999999999999 284.65)">count</text><rect x="314.3515625" y="32.08571428571429" width="210.79687500000003" height="531.7142857142857" fill="#00BA38" fill-opacity="0.85" stroke="none"/><rect x="80.13281249999996" y="47.13423180592986" width="210.79687500000003" height="516.6657681940701" fill="#F8766D" fill-opacity="0.85" stroke="none"/><rect x="548.5703125" y="438.39568733153635" width="210.79687500000003" height="125.4043126684636" fill="#619CFF" fill-opacity="0.85" stroke="none"/></svg>