<svg xmlns="http://www.w3.org/2000/svg" width="624" height="384" viewBox="0 0 624 384"><rect x="0.0" y="0.0" width="624.0" height="384.0" fill="#ffffff" fill-opacity="1.0" stroke="none"/><rect x="46.346666666666664" y="7.333333333333333" width="451.37392" height="332.66666666666663" fill="#ebebeb" fill-opacity="1.0" stroke="none"/><line x1="130.97927666666664" y1="7.333333333333333" x2="130.97927666666664" y2="340.0" stroke="#ffffff" stroke-width="1.3333333333333333"/><line x1="272.03362666666663" y1="7.333333333333333" x2="272.03362666666663" y2="340.0" stroke="#ffffff" stroke-width="1.3333333333333333"/><line x1="413.0879766666667" y1="7.333333333333333" x2="413.0879766666667" y2="340.0" stroke="#ffffff" stroke-width="1.3333333333333333"/><line x1="46.346666666666664" y1="308.93868658574536" x2="497.72058666666663" y2="308.93868658574536" stroke="#ffffff" stroke-width="0.6666666666666666"/><line x1="46.346666666666664" y1="246.81605975723622" x2="497.72058666666663" y2="246.81605975723622" stroke="#ffffff" stroke-width="0.6666666666666666"/><line x1="46.346666666666664" y1="184.69343292872705" x2="497.72058666666663" y2="184.69343292872705" stroke="#ffffff" stroke-width="0.6666666666666666"/><line x1="46.346666666666664" y1="122.57080610021785" x2="497.72058666666663" y2="122.57080610021785" stroke="#ffffff" stroke-width="0.6666666666666666"/><line x1="46.346666666666664" y1="60.44817927170868" x2="497.72058666666663" y2="60.44817927170868" stroke="#ffffff" stroke-width="0.6666666666666666"/><line x1="46.346666666666664" y1="340.0" x2="497.72058666666663" y2="340.0" stroke="#ffffff" stroke-width="1.3333333333333333"/><line x1="46.346666666666664" y1="277.87737317149083" x2="497.72058666666663" y2="277.87737317149083" stroke="#ffffff" stroke-width="1.3333333333333333"/><line x1="46.346666666666664" y1="215.75474634298166" x2="497.72058666666663" y2="215.75474634298166" stroke="#ffffff" stroke-width="1.3333333333333333"/><line x1="46.346666666666664" y1="153.63211951447244" x2="497.72058666666663" y2="153.63211951447244" stroke="#ffffff" stroke-width="1.3333333333333333"/><line x1="46.346666666666664" y1="91.50949268596328" x2="497.72058666666663" y2="91.50949268596328" stroke="#ffffff" stroke-width="1.3333333333333333"/><line x1="46.346666666666664" y1="29.386865857454076" x2="497.72058666666663" y2="29.386865857454076" stroke="#ffffff" stroke-width="1.3333333333333333"/><line x1="130.97927666666664" y1="340.0" x2="130.97927666666664" y2="343.66666666666663" stroke="#333333" stroke-width="1.3333333333333333"/><text x="130.97927666666664" y="355.9866666666667" fill="#4d4d4d" font-size="11.733333333333334" font-family="sans-serif" text-anchor="middle">4</text><line x1="272.03362666666663" y1="340.0" x2="272.03362666666663" y2="343.66666666666663" stroke="#333333" stroke-width="1.3333333333333333"/><text x="272.03362666666663" y="355.9866666666667" fill="#4d4d4d" font-size="11.733333333333334" font-family="sans-serif" text-anchor="middle">f</text><line x1="413.0879766666667" y1="340.0" x2="413.0879766666667" y2="343.66666666666663" stroke="#333333" stroke-width="1.3333333333333333"/><text x="413.0879766666667" y="355.9866666666667" fill="#4d4d4d" font-size="11.733333333333334" font-family="sans-serif" text-anchor="middle">r</text><line x1="46.346666666666664" y1="340.0" x2="42.67999999999999" y2="340.0" stroke="#333333" stroke-width="1.3333333333333333"/><text x="39.74666666666666" y="344.1066666666666" fill="#4d4d4d" font-size="11.733333333333334" font-family="sans-serif" text-anchor="end">0</text><line x1="46.346666666666664" y1="277.87737317149083" x2="42.67999999999999" y2="277.87737317149083" stroke="#333333" stroke-width="1.3333333333333333"/><text x="39.74666666666666" y="281.9840398381575" fill="#4d4d4d" font-size="11.733333333333334" font-family="sans-serif" text-anchor="end">10</text><line x1="46.346666666666664" y1="215.75474634298166" x2="42.67999999999999" y2="215.75474634298166" stroke="#333333" stroke-width="1.3333333333333333"/><text x="39.74666666666666" y="219.86141300964834" fill="#4d4d4d" font-size="11.733333333333334" font-family="sans-serif" text-anchor="end">20</text><line x1="46.346666666666664" y1="153.63211951447244" x2="42.67999999999999" y2="153.63211951447244" stroke="#333333" stroke-width="1.3333333333333333"/><text x="39.74666666666666" y="157.73878618113912" fill="#4d4d4d" font-size="11.733333333333334" font-family="sans-serif" text-anchor="end">30</text><line x1="46.346666666666664" y1="91.50949268596328" x2="42.67999999999999" y2="91.50949268596328" stroke="#333333" stroke-width="1.3333333333333333"/><text x="39.74666666666666" y="95.61615935262995" fill="#4d4d4d" font-size="11.733333333333334" font-family="sans-serif" text-anchor="end">40</text><line x1="46.346666666666664" y1="29.386865857454076" x2="42.67999999999999" y2="29.386865857454076" stroke="#333333" stroke-width="1.3333333333333333"/><text x="39.74666666666666" y="33.49353252412074" fill="#4d4d4d" font-size="11.733333333333334" font-family="sans-serif" text-anchor="end">50</text><text x="272.03362666666663" y="373.73333333333335" fill="#000000" font-size="14.666666666666666" font-family="sans-serif" text-anchor="middle">drv</text><text x="17.599999999999998" y="173.66666666666666" fill="#000000" font-size="14.666666666666666" font-family="sans-serif" text-anchor="middle" transform="rotate(-90.0 17.599999999999998 173.66666666666666)">count</text><rect x="67.50481916666665" y="265.45284780578896" width="126.948915" height="74.54715219421101" fill="#C49A00" fill-opacity="0.2" stroke="none"/><rect x="67.50481916666665" y="23.17460317460317" width="126.948915" height="316.8253968253968" fill="#FB61D7" fill-opacity="0.2" stroke="none"/><rect x="67.50481916666665" y="315.1509492685963" width="126.948915" height="24.849050731403658" fill="#A58AFF" fill-opacity="0.2" stroke="none"/><rect x="349.6135191666667" y="284.08963585434174" width="126.948915" height="55.910364145658264" fill="#A58AFF" fill-opacity="0.2" stroke="none"/><rect x="208.55916916666663" y="122.57080610021785" width="126.948915" height="217.42919389978215" fill="#C49A00" fill-opacity="0.2" stroke="none"/><rect x="67.50481916666665" y="321.3632119514472" width="126.948915" height="18.636788048552752" fill="#53B400" fill-opacity="0.2" stroke="none"/><rect x="67.50481916666665" y="134.9953314659197" width="126.948915" height="205.00466853408028" fill="#00B6EB" fill-opacity="0.2" stroke="none"/><rect x="208.55916916666663" y="271.66511048863987" width="126.948915" height="68.3348895113601" fill="#00C094" fill-opacity="0.2" stroke="none"/><rect x="349.6135191666667" y="308.93868658574536" width="126.948915" height="31.061313414254602" fill="#F8766D" fill-opacity="0.2" stroke="none"/><rect x="208.55916916666663" y="103.93401805166509" width="126.948915" height="236.0659819483349" fill="#53B400" fill-opacity="0.2" stroke="none"/><rect x="208.55916916666663" y="203.33022097727977" width="126.948915" height="136.6697790227202" fill="#A58AFF" fill-opacity="0.2" stroke="none"/><rect x="349.6135191666667" y="271.66511048863987" width="126.948915" height="68.3348895113601" fill="#FB61D7" fill-opacity="0.2" stroke="none"/><text x="512.3872533333333" y="96.43405333333335" fill="#4d4d4d" font-size="14.666666666666666" font-family="sans-serif" text-anchor="start">class</text><rect x="512.3872533333333" y="103.76738666666668" width="23.114079999999994" height="161.79855999999995" fill="#ebebeb" fill-opacity="1.0" stroke="none"/><rect x="512.3872533333333" y="103.76738666666668" width="23.114079999999994" height="23.114079999999994" fill="#f2f2f2" fill-opacity="1.0" stroke="none"/><rect x="513.3321352230971" y="104.71226855643046" width="21.224316220472435" height="21.224316220472435" fill="#F8766D" fill-opacity="1.0" stroke="none"/><text x="539.1679999999999" y="119.07909333333335" fill="#4d4d4d" font-size="11.733333333333334" font-family="sans-serif" text-anchor="start">2seater</text><rect x="512.3872533333333" y="126.88146666666668" width="23.114079999999994" height="23.114079999999994" fill="#f2f2f2" fill-opacity="1.0" stroke="none"/><rect x="513.3321352230971" y="127.82634855643046" width="21.224316220472435" height="21.224316220472435" fill="#C49A00" fill-opacity="1.0" stroke="none"/><text x="539.1679999999999" y="142.19317333333333" fill="#4d4d4d" font-size="11.733333333333334" font-family="sans-serif" text-anchor="start">compact</text><rect x="512.3872533333333" y="149.99554666666668" width="23.114079999999994" height="23.114079999999994" fill="#f2f2f2" fill-opacity="1.0" stroke="none"/><rect x="513.3321352230971" y="150.94042855643045" width="21.224316220472435" height="21.224316220472435" fill="#53B400" fill-opacity="1.0" stroke="none"/><text x="539.1679999999999" y="165.30725333333334" fill="#4d4d4d" font-size="11.733333333333334" font-family="sans-serif" text-anchor="start">midsize</text><rect x="512.3872533333333" y="173.10962666666666" width="23.114079999999994" height="23.114079999999994" fill="#f2f2f2" fill-opacity="1.0" stroke="none"/><rect x="513.3321352230971" y="174.05450855643045" width="21.224316220472435" height="21.224316220472435" fill="#00C094" fill-opacity="1.0" stroke="none"/><text x="539.1679999999999" y="188.42133333333334" fill="#4d4d4d" font-size="11.733333333333334" font-family="sans-serif" text-anchor="start">minivan</text><rect x="512.3872533333333" y="196.22370666666666" width="23.114079999999994" height="23.114079999999994" fill="#f2f2f2" fill-opacity="1.0" stroke="none"/><rect x="513.3321352230971" y="197.16858855643045" width="21.224316220472435" height="21.224316220472435" fill="#00B6EB" fill-opacity="1.0" stroke="none"/><text x="539.1679999999999" y="211.5354133333333" fill="#4d4d4d" font-size="11.733333333333334" font-family="sans-serif" text-anchor="start">pickup</text><rect x="512.3872533333333" y="219.33778666666666" width="23.114079999999994" height="23.114079999999994" fill="#f2f2f2" fill-opacity="1.0" stroke="none"/><rect x="513.3321352230971" y="220.28266855643042" width="21.224316220472435" height="21.224316220472435" fill="#A58AFF" fill-opacity="1.0" stroke="none"/><text x="539.1679999999999" y="234.64949333333334" fill="#4d4d4d" font-size="11.733333333333334" font-family="sans-serif" text-anchor="start">subcompact</text><rect x="512.3872533333333" y="242.45186666666666" width="23.114079999999994" height="23.114079999999994" fill="#f2f2f2" fill-opacity="1.0" stroke="none"/><rect x="513.3321352230971" y="243.3967485564304" width="21.224316220472435" height="21.224316220472435" fill="#FB61D7" fill-opacity="1.0" stroke="none"/><text x="539.1679999999999" y="257.7635733333333" fill="#4d4d4d" font-size="11.733333333333334" font-family="sans-serif" text-anchor="start">suv</text></svg>