<svg xmlns="http://www.w3.org/2000/svg" width="624" height="384" viewBox="0 0 624 384"><rect x="0.0" y="0.0" width="624.0" height="384.0" fill="#ffffff" fill-opacity="1.0" stroke="none"/><rect x="60.42666666666666" y="7.333333333333333" width="437.29391999999996" height="332.66666666666663" fill="#ebebeb" fill-opacity="1.0" stroke="none"/><line x1="142.41927666666663" y1="7.333333333333333" x2="142.41927666666663" y2="340.0" stroke="#ffffff" stroke-width="1.3333333333333333"/><line x1="279.07362666666666" y1="7.333333333333333" x2="279.07362666666666" y2="340.0" stroke="#ffffff" stroke-width="1.3333333333333333"/><line x1="415.7279766666666" y1="7.333333333333333" x2="415.7279766666666" y2="340.0" stroke="#ffffff" stroke-width="1.3333333333333333"/><line x1="60.42666666666666" y1="300.39682539682536" x2="497.72058666666663" y2="300.39682539682536" stroke="#ffffff" stroke-width="0.6666666666666666"/><line x1="60.42666666666666" y1="221.19047619047618" x2="497.72058666666663" y2="221.19047619047618" stroke="#ffffff" stroke-width="0.6666666666666666"/><line x1="60.42666666666666" y1="141.984126984127" x2="497.72058666666663" y2="141.984126984127" stroke="#ffffff" stroke-width="0.6666666666666666"/><line x1="60.42666666666666" y1="62.777777777777786" x2="497.72058666666663" y2="62.777777777777786" stroke="#ffffff" stroke-width="0.6666666666666666"/><line x1="60.42666666666666" y1="340.0" x2="497.72058666666663" y2="340.0" stroke="#ffffff" stroke-width="1.3333333333333333"/><line x1="60.42666666666666" y1="260.7936507936508" x2="497.72058666666663" y2="260.7936507936508" stroke="#ffffff" stroke-width="1.3333333333333333"/><line x1="60.42666666666666" y1="181.5873015873016" x2="497.72058666666663" y2="181.5873015873016" stroke="#ffffff" stroke-width="1.3333333333333333"/><line x1="60.42666666666666" y1="102.38095238095237" x2="497.72058666666663" y2="102.38095238095237" stroke="#ffffff" stroke-width="1.3333333333333333"/><line x1="60.42666666666666" y1="23.17460317460321" x2="497.72058666666663" y2="23.17460317460321" stroke="#ffffff" stroke-width="1.3333333333333333"/><line x1="142.41927666666663" y1="340.0" x2="142.41927666666663" y2="343.66666666666663" stroke="#333333" stroke-width="1.3333333333333333"/><text x="142.41927666666663" y="355.9866666666667" fill="#4d4d4d" font-size="11.733333333333334" font-family="sans-serif" text-anchor="middle">4</text><line x1="279.07362666666666" y1="340.0" x2="279.07362666666666" y2="343.66666666666663" stroke="#333333" stroke-width="1.3333333333333333"/><text x="279.07362666666666" y="355.9866666666667" fill="#4d4d4d" font-size="11.733333333333334" font-family="sans-serif" text-anchor="middle">f</text><line x1="415.7279766666666" y1="340.0" x2="415.7279766666666" y2="343.66666666666663" stroke="#333333" stroke-width="1.3333333333333333"/><text x="415.7279766666666" y="355.9866666666667" fill="#4d4d4d" font-size="11.733333333333334" font-family="sans-serif" text-anchor="middle">r</text><line x1="60.42666666666666" y1="340.0" x2="56.76" y2="340.0" stroke="#333333" stroke-width="1.3333333333333333"/><text x="53.82666666666666" y="344.1066666666666" fill="#4d4d4d" font-size="11.733333333333334" font-family="sans-serif" text-anchor="end">0.00</text><line x1="60.42666666666666" y1="260.7936507936508" x2="56.76" y2="260.7936507936508" stroke="#333333" stroke-width="1.3333333333333333"/><text x="53.82666666666666" y="264.90031746031747" fill="#4d4d4d" font-size="11.733333333333334" font-family="sans-serif" text-anchor="end">0.25</text><line x1="60.42666666666666" y1="181.5873015873016" x2="56.76" y2="181.5873015873016" stroke="#333333" stroke-width="1.3333333333333333"/><text x="53.82666666666666" y="185.69396825396828" fill="#4d4d4d" font-size="11.733333333333334" font-family="sans-serif" text-anchor="end">0.50</text><line x1="60.42666666666666" y1="102.38095238095237" x2="56.76" y2="102.38095238095237" stroke="#333333" stroke-width="1.3333333333333333"/><text x="53.82666666666666" y="106.48761904761903" fill="#4d4d4d" font-size="11.733333333333334" font-family="sans-serif" text-anchor="end">0.75</text><line x1="60.42666666666666" y1="23.17460317460321" x2="56.76" y2="23.17460317460321" stroke="#333333" stroke-width="1.3333333333333333"/><text x="53.82666666666666" y="27.281269841269875" fill="#4d4d4d" font-size="11.733333333333334" font-family="sans-serif" text-anchor="end">1.00</text><text x="279.07362666666666" y="373.73333333333335" fill="#000000" font-size="14.666666666666666" font-family="sans-serif" text-anchor="middle">drv</text><text x="17.599999999999998" y="173.66666666666666" fill="#000000" font-size="14.666666666666666" font-family="sans-serif" text-anchor="middle" transform="rotate(-90.0 17.599999999999998 173.66666666666666)">count</text><rect x="80.92481916666665" y="183.12528895053165" width="122.98891499999999" height="156.87471104946832" fill="#FB61D7" fill-opacity="1.0" stroke="none"/><rect x="80.92481916666665" y="170.82139004469104" width="122.98891499999999" height="12.30389890584062" fill="#A58AFF" fill-opacity="1.0" stroke="none"/><rect x="80.92481916666665" y="69.3142240715056" width="122.98891499999999" height="101.50716597318542" fill="#00B6EB" fill-opacity="1.0" stroke="none"/><rect x="80.92481916666665" y="60.08629989212515" width="122.98891499999999" height="9.227924179380466" fill="#53B400" fill-opacity="1.0" stroke="none"/><rect x="80.92481916666665" y="23.17460317460321" width="122.98891499999999" height="36.911696717521934" fill="#C49A00" fill-opacity="1.0" stroke="none"/><rect x="217.57916916666665" y="274.2437855645403" width="122.98891499999999" height="65.7562144354597" fill="#A58AFF" fill-opacity="1.0" stroke="none"/><rect x="217.57916916666665" y="241.3656783468104" width="122.98891499999999" height="32.878107217729884" fill="#00C094" fill-opacity="1.0" stroke="none"/><rect x="217.57916916666665" y="127.78676250374367" width="122.98891499999999" height="113.57891584306674" fill="#53B400" fill-opacity="1.0" stroke="none"/><rect x="217.57916916666665" y="23.17460317460321" width="122.98891499999999" height="104.61215932914047" fill="#C49A00" fill-opacity="1.0" stroke="none"/><rect x="354.2335191666666" y="200.59682539682538" width="122.98891499999999" height="139.4031746031746" fill="#FB61D7" fill-opacity="1.0" stroke="none"/><rect x="354.2335191666666" y="86.53968253968256" width="122.98891499999999" height="114.05714285714282" fill="#A58AFF" fill-opacity="1.0" stroke="none"/><rect x="354.2335191666666" y="23.17460317460321" width="122.98891499999999" height="63.36507936507935" fill="#F8766D" fill-opacity="1.0" stroke="none"/><text x="512.3872533333333" y="96.43405333333335" fill="#4d4d4d" font-size="14.666666666666666" font-family="sans-serif" text-anchor="start">class</text><rect x="512.3872533333333" y="103.76738666666668" width="23.114079999999994" height="161.79855999999995" fill="#ebebeb" fill-opacity="1.0" stroke="none"/><rect x="512.3872533333333" y="103.76738666666668" width="23.114079999999994" height="23.114079999999994" fill="#f2f2f2" fill-opacity="1.0" stroke="none"/><rect x="513.3321352230971" y="104.71226855643046" width="21.224316220472435" height="21.224316220472435" fill="#F8766D" fill-opacity="1.0" stroke="none"/><text x="539.1679999999999" y="119.07909333333335" fill="#4d4d4d" font-size="11.733333333333334" font-family="sans-serif" text-anchor="start">2seater</text><rect x="512.3872533333333" y="126.88146666666668" width="23.114079999999994" height="23.114079999999994" fill="#f2f2f2" fill-opacity="1.0" stroke="none"/><rect x="513.3321352230971" y="127.82634855643046" width="21.224316220472435" height="21.224316220472435" fill="#C49A00" fill-opacity="1.0" stroke="none"/><text x="539.1679999999999" y="142.19317333333333" fill="#4d4d4d" font-size="11.733333333333334" font-family="sans-serif" text-anchor="start">compact</text><rect x="512.3872533333333" y="149.99554666666668" width="23.114079999999994" height="23.114079999999994" fill="#f2f2f2" fill-opacity="1.0" stroke="none"/><rect x="513.3321352230971" y="150.94042855643045" width="21.224316220472435" height="21.224316220472435" fill="#53B400" fill-opacity="1.0" stroke="none"/><text x="539.1679999999999" y="165.30725333333334" fill="#4d4d4d" font-size="11.733333333333334" font-family="sans-serif" text-anchor="start">midsize</text><rect x="512.3872533333333" y="173.10962666666666" width="23.114079999999994" height="23.114079999999994" fill="#f2f2f2" fill-opacity="1.0" stroke="none"/><rect x="513.3321352230971" y="174.05450855643045" width="21.224316220472435" height="21.224316220472435" fill="#00C094" fill-opacity="1.0" stroke="none"/><text x="539.1679999999999" y="188.42133333333334" fill="#4d4d4d" font-size="11.733333333333334" font-family="sans-serif" text-anchor="start">minivan</text><rect x="512.3872533333333" y="196.22370666666666" width="23.114079999999994" height="23.114079999999994" fill="#f2f2f2" fill-opacity="1.0" stroke="none"/><rect x="513.3321352230971" y="197.16858855643045" width="21.224316220472435" height="21.224316220472435" fill="#00B6EB" fill-opacity="1.0" stroke="none"/><text x="539.1679999999999" y="211.5354133333333" fill="#4d4d4d" font-size="11.733333333333334" font-family="sans-serif" text-anchor="start">pickup</text><rect x="512.3872533333333" y="219.33778666666666" width="23.114079999999994" height="23.114079999999994" fill="#f2f2f2" fill-opacity="1.0" stroke="none"/><rect x="513.3321352230971" y="220.28266855643042" width="21.224316220472435" height="21.224316220472435" fill="#A58AFF" fill-opacity="1.0" stroke="none"/><text x="539.1679999999999" y="234.64949333333334" fill="#4d4d4d" font-size="11.733333333333334" font-family="sans-serif" text-anchor="start">subcompact</text><rect x="512.3872533333333" y="242.45186666666666" width="23.114079999999994" height="23.114079999999994" fill="#f2f2f2" fill-opacity="1.0" stroke="none"/><rect x="513.3321352230971" y="243.3967485564304" width="21.224316220472435" height="21.224316220472435" fill="#FB61D7" fill-opacity="1.0" stroke="none"/><text x="539.1679999999999" y="257.7635733333333" fill="#4d4d4d" font-size="11.733333333333334" font-family="sans-serif" text-anchor="start">suv</text></svg>