<svg xmlns="http://www.w3.org/2000/svg" width="800" height="600" viewBox="0 0 800 600"><rect x="0.0" y="0.0" width="800.0" height="600.0" fill="#ffffff" fill-opacity="1.0" stroke="none"/><line x1="58.2" y1="522.9487804878048" x2="794.5" y2="522.9487804878048" stroke="#dddddd" stroke-width="1.0"/><line x1="58.2" y1="454.8634146341463" x2="794.5" y2="454.8634146341463" stroke="#dddddd" stroke-width="1.0"/><line x1="58.2" y1="386.7780487804878" x2="794.5" y2="386.7780487804878" stroke="#dddddd" stroke-width="1.0"/><line x1="58.2" y1="318.6926829268292" x2="794.5" y2="318.6926829268292" stroke="#dddddd" stroke-width="1.0"/><line x1="58.2" y1="250.6073170731707" x2="794.5" y2="250.6073170731707" stroke="#dddddd" stroke-width="1.0"/><line x1="58.2" y1="182.52195121951218" x2="794.5" y2="182.52195121951218" stroke="#dddddd" stroke-width="1.0"/><line x1="58.2" y1="114.4365853658536" x2="794.5" y2="114.4365853658536" stroke="#dddddd" stroke-width="1.0"/><line x1="58.2" y1="46.351219512195144" x2="794.5" y2="46.351219512195144" stroke="#dddddd" stroke-width="1.0"/><line x1="125.29128350919396" y1="5.5" x2="125.29128350919396" y2="563.8" stroke="#dddddd" stroke-width="0.5"/><line x1="259.4738505275819" y1="5.5" x2="259.4738505275819" y2="563.8" stroke="#dddddd" stroke-width="0.5"/><line x1="393.65641754596976" y1="5.5" x2="393.65641754596976" y2="563.8" stroke="#dddddd" stroke-width="0.5"/><line x1="527.8389845643577" y1="5.5" x2="527.8389845643577" y2="563.8" stroke="#dddddd" stroke-width="0.5"/><line x1="662.0215515827456" y1="5.5" x2="662.0215515827456" y2="563.8" stroke="#dddddd" stroke-width="0.5"/><line x1="58.2" y1="5.5" x2="58.2" y2="563.8" stroke="#dddddd" stroke-width="1.0"/><line x1="192.38256701838793" y1="5.5" x2="192.38256701838793" y2="563.8" stroke="#dddddd" stroke-width="1.0"/><line x1="326.5651340367758" y1="5.5" x2="326.5651340367758" y2="563.8" stroke="#dddddd" stroke-width="1.0"/><line x1="460.7477010551637" y1="5.5" x2="460.7477010551637" y2="563.8" stroke="#dddddd" stroke-width="1.0"/><line x1="594.9302680735517" y1="5.5" x2="594.9302680735517" y2="563.8" stroke="#dddddd" stroke-width="1.0"/><line x1="729.1128350919396" y1="5.5" x2="729.1128350919396" y2="563.8" stroke="#dddddd" stroke-width="1.0"/><rect x="58.2" y="5.5" width="736.3" height="558.3" fill="#ffffff" fill-opacity="0.0" stroke="#444444" stroke-width="1.0"/><line x1="58.2" y1="522.9487804878048" x2="55.45" y2="522.9487804878048" stroke="#444444" stroke-width="1.0"/><text x="53.25" y="526.7987804878048" fill="#333333" font-size="11.0" font-family="sans-serif" text-anchor="end">I1</text><line x1="58.2" y1="454.8634146341463" x2="55.45" y2="454.8634146341463" stroke="#444444" stroke-width="1.0"/><text x="53.25" y="458.7134146341463" fill="#333333" font-size="11.0" font-family="sans-serif" text-anchor="end">SI2</text><line x1="58.2" y1="386.7780487804878" x2="55.45" y2="386.7780487804878" stroke="#444444" stroke-width="1.0"/><text x="53.25" y="390.6280487804878" fill="#333333" font-size="11.0" font-family="sans-serif" text-anchor="end">SI1</text><line x1="58.2" y1="318.6926829268292" x2="55.45" y2="318.6926829268292" stroke="#444444" stroke-width="1.0"/><text x="53.25" y="322.54268292682923" fill="#333333" font-size="11.0" font-family="sans-serif" text-anchor="end">VS2</text><line x1="58.2" y1="250.6073170731707" x2="55.45" y2="250.6073170731707" stroke="#444444" stroke-width="1.0"/><text x="53.25" y="254.45731707317069" fill="#333333" font-size="11.0" font-family="sans-serif" text-anchor="end">VS1</text><line x1="58.2" y1="182.52195121951218" x2="55.45" y2="182.52195121951218" stroke="#444444" stroke-width="1.0"/><text x="53.25" y="186.37195121951217" fill="#333333" font-size="11.0" font-family="sans-serif" text-anchor="end">VVS2</text><line x1="58.2" y1="114.4365853658536" x2="55.45" y2="114.4365853658536" stroke="#444444" stroke-width="1.0"/><text x="53.25" y="118.2865853658536" fill="#333333" font-size="11.0" font-family="sans-serif" text-anchor="end">VVS1</text><line x1="58.2" y1="46.351219512195144" x2="55.45" y2="46.351219512195144" stroke="#444444" stroke-width="1.0"/><text x="53.25" y="50.201219512195145" fill="#333333" font-size="11.0" font-family="sans-serif" text-anchor="end">IF</text><line x1="58.2" y1="563.8" x2="58.2" y2="566.55" stroke="#444444" stroke-width="1.0"/><text x="58.2" y="577.55" fill="#333333" font-size="11.0" font-family="sans-serif" text-anchor="middle">0</text><line x1="192.38256701838793" y1="563.8" x2="192.38256701838793" y2="566.55" stroke="#444444" stroke-width="1.0"/><text x="192.38256701838793" y="577.55" fill="#333333" font-size="11.0" font-family="sans-serif" text-anchor="middle">2500</text><line x1="326.5651340367758" y1="563.8" x2="326.5651340367758" y2="566.55" stroke="#444444" stroke-width="1.0"/><text x="326.5651340367758" y="577.55" fill="#333333" font-size="11.0" font-family="sans-serif" text-anchor="middle">5000</text><line x1="460.7477010551637" y1="563.8" x2="460.7477010551637" y2="566.55" stroke="#444444" stroke-width="1.0"/><text x="460.7477010551637" y="577.55" fill="#333333" font-size="11.0" font-family="sans-serif" text-anchor="middle">7500</text><line x1="594.9302680735517" y1="563.8" x2="594.9302680735517" y2="566.55" stroke="#444444" stroke-width="1.0"/><text x="594.9302680735517" y="577.55" fill="#333333" font-size="11.0" font-family="sans-serif" text-anchor="middle">10000</text><line x1="729.1128350919396" y1="563.8" x2="729.1128350919396" y2="566.55" stroke="#444444" stroke-width="1.0"/><text x="729.1128350919396" y="577.55" fill="#333333" font-size="11.0" font-family="sans-serif" text-anchor="middle">12500</text><text x="426.34999999999997" y="592.1" fill="#333333" font-size="12.0" font-family="sans-serif" text-anchor="middle">clarity</text><text x="13.899999999999999" y="284.65" fill="#333333" font-size="12.0" font-family="sans-serif" text-anchor="middle" transform="rotate(-90.0 13.899999999999999 284.65)">count</text><rect x="58.2" y="492.3103658536585" width="39.771712864250176" height="61.276829268292666" fill="#F8766D" fill-opacity="0.85" stroke="none"/><rect x="58.2" y="424.22499999999997" width="493.4698084668234" height="61.276829268292666" fill="#CD9600" fill-opacity="0.85" stroke="none"/><rect x="58.2" y="356.13963414634145" width="701.2380952380952" height="61.276829268292666" fill="#7CAE00" fill-opacity="0.85" stroke="none"/><rect x="58.2" y="288.0542682926829" width="657.9239626045596" height="61.276829268292666" fill="#00BE67" fill-opacity="0.85" stroke="none"/><rect x="58.2" y="219.96890243902436" width="438.5623020428991" height="61.276829268292666" fill="#00BFC4" fill-opacity="0.85" stroke="none"/><rect x="58.2" y="151.88353658536585" width="271.90755380606123" height="61.276829268292666" fill="#00A9FF" fill-opacity="0.85" stroke="none"/><rect x="58.2" y="83.79817073170727" width="196.17491298088316" height="61.276829268292666" fill="#C77CFF" fill-opacity="0.85" stroke="none"/><rect x="58.2" y="15.71280487804881" width="96.07471798516575" height="61.276829268292666" fill="#FF61CC" fill-opacity="0.85" stroke="none"/></svg>