<svg xmlns="http://www.w3.org/2000/svg" width="624" height="384" viewBox="0 0 624 384"><rect x="0.0" y="0.0" width="624.0" height="384.0" fill="#ffffff" fill-opacity="1.0" stroke="none"/><rect x="67.46666666666667" y="7.333333333333333" width="549.1999999999999" height="332.66666666666663" fill="#ebebeb" fill-opacity="1.0" stroke="none"/><circle cx="342.06666666666666" cy="173.66666666666666" r="0.0" fill="#ffffff" fill-opacity="0.0" stroke="#ffffff" stroke-width="0.6666666666666666"/><circle cx="342.06666666666666" cy="173.66666666666666" r="30.312418372119865" fill="#ffffff" fill-opacity="0.0" stroke="#ffffff" stroke-width="0.6666666666666666"/><circle cx="342.06666666666666" cy="173.66666666666666" r="60.62483674423973" fill="#ffffff" fill-opacity="0.0" stroke="#ffffff" stroke-width="0.6666666666666666"/><circle cx="342.06666666666666" cy="173.66666666666666" r="90.93725511635958" fill="#ffffff" fill-opacity="0.0" stroke="#ffffff" stroke-width="0.6666666666666666"/><circle cx="342.06666666666666" cy="173.66666666666666" r="121.24967348847946" fill="#ffffff" fill-opacity="0.0" stroke="#ffffff" stroke-width="0.6666666666666666"/><circle cx="342.06666666666666" cy="173.66666666666666" r="151.5620918605993" fill="#ffffff" fill-opacity="0.0" stroke="#ffffff" stroke-width="0.6666666666666666"/><line x1="342.06666666666666" y1="173.66666666666666" x2="415.8720663652043" y2="24.604462358811077" stroke="#ffffff" stroke-width="0.6666666666666666"/><line x1="342.06666666666666" y1="173.66666666666666" x2="498.6096279806004" y2="117.44319255805237" stroke="#ffffff" stroke-width="0.6666666666666666"/><line x1="342.06666666666666" y1="173.66666666666666" x2="493.8464348739328" y2="241.70841664949955" stroke="#ffffff" stroke-width="0.6666666666666666"/><line x1="342.06666666666666" y1="173.66666666666666" x2="404.2449062828478" y2="327.94124103331507" stroke="#ffffff" stroke-width="0.6666666666666666"/><line x1="342.06666666666666" y1="173.66666666666666" x2="279.8884270504854" y2="327.941241033315" stroke="#ffffff" stroke-width="0.6666666666666666"/><line x1="342.06666666666666" y1="173.66666666666666" x2="190.28689845940053" y2="241.70841664949958" stroke="#ffffff" stroke-width="0.6666666666666666"/><line x1="342.06666666666666" y1="173.66666666666666" x2="185.52370535273295" y2="117.4431925580524" stroke="#ffffff" stroke-width="0.6666666666666666"/><line x1="342.06666666666666" y1="173.66666666666666" x2="268.261266968129" y2="24.604462358811094" stroke="#ffffff" stroke-width="0.6666666666666666"/><circle cx="342.06666666666666" cy="173.66666666666666" r="166.33333333333331" fill="#ffffff" fill-opacity="0.0" stroke="#4d4d4d" stroke-width="1.3333333333333333"/><text x="336.73333333333335" y="148.68758162788012" fill="#4d4d4d" font-size="11.733333333333334" font-family="sans-serif" text-anchor="end">2500</text><text x="336.73333333333335" y="118.37516325576026" fill="#4d4d4d" font-size="11.733333333333334" font-family="sans-serif" text-anchor="end">5000</text><text x="336.73333333333335" y="88.0627448836404" fill="#4d4d4d" font-size="11.733333333333334" font-family="sans-serif" text-anchor="end">7500</text><text x="336.73333333333335" y="57.75032651152054" fill="#4d4d4d" font-size="11.733333333333334" font-family="sans-serif" text-anchor="end">10000</text><text x="336.73333333333335" y="27.43790813940067" fill="#4d4d4d" font-size="11.733333333333334" font-family="sans-serif" text-anchor="end">12500</text><text x="424.7287143290288" y="12.050331175201714" fill="#4d4d4d" font-size="11.733333333333334" font-family="sans-serif" text-anchor="middle">I1</text><text x="517.3947833382724" y="116.02970899835198" fill="#4d4d4d" font-size="11.733333333333334" font-family="sans-serif" text-anchor="middle">SI2</text><text x="512.0600070588048" y="255.20675998077286" fill="#4d4d4d" font-size="11.733333333333334" font-family="sans-serif" text-anchor="middle">SI1</text><text x="411.7062950367896" y="351.7875232906463" fill="#4d4d4d" font-size="11.733333333333334" font-family="sans-serif" text-anchor="middle">VS2</text><text x="272.4270382965436" y="351.7875232906463" fill="#4d4d4d" font-size="11.733333333333334" font-family="sans-serif" text-anchor="middle">VS1</text><text x="172.07332627452857" y="255.20675998077286" fill="#4d4d4d" font-size="11.733333333333334" font-family="sans-serif" text-anchor="middle">VVS2</text><text x="166.73854999506082" y="116.02970899835202" fill="#4d4d4d" font-size="11.733333333333334" font-family="sans-serif" text-anchor="middle">VVS1</text><text x="259.40461900430444" y="12.050331175201734" fill="#4d4d4d" font-size="11.733333333333334" font-family="sans-serif" text-anchor="middle">IF</text><text x="342.06666666666666" y="373.73333333333335" fill="#000000" font-size="14.666666666666666" font-family="sans-serif" text-anchor="middle">clarity</text><text x="17.599999999999998" y="173.66666666666666" fill="#000000" font-size="14.666666666666666" font-family="sans-serif" text-anchor="middle" transform="rotate(-90.0 17.599999999999998 173.66666666666666)">count</text><path d="M 343.0970514628782 164.74134545083015 L 343.9699280858379 164.8859692225897 L 344.82434741053487 165.11574574848342 L 345.65202351672804 165.42844671986728 L 346.4449298324483 165.8210396499595 L 347.19537697345436 166.2897172820514 L 347.89608731273586 166.82993451122078 L 348.54026555690984 167.43645246149134 L 342.06666666666666 173.66666666666666 L 342.06666666666666 173.66666666666666 L 342.06666666666666 173.66666666666666 L 342.06666666666666 173.66666666666666 L 342.06666666666666 173.66666666666666 L 342.06666666666666 173.66666666666666 L 342.06666666666666 173.66666666666666 L 342.06666666666666 173.66666666666666 Z" fill="#F8766D" fill-opacity="1.0" stroke="none"/><path d="M 428.06992724101565 102.74029985942218 L 434.62905379100516 111.54328276222 L 440.2905361341342 120.94872091066192 L 444.99947079410504 130.86540298955572 L 448.7101918363049 141.19715978270096 L 451.3867137233004 151.84379679511773 L 453.0030802925394 162.70206591130628 L 453.5436164719747 173.66666666666669 L 342.06666666666666 173.66666666666666 L 342.06666666666666 173.66666666666666 L 342.06666666666666 173.66666666666666 L 342.06666666666666 173.66666666666666 L 342.06666666666666 173.66666666666666 L 342.06666666666666 173.66666666666666 L 342.06666666666666 173.66666666666666 L 342.06666666666666 173.66666666666666 Z" fill="#CD9600" fill-opacity="1.0" stroke="none"/><path d="M 500.01455072720205 185.7930403699719 L 498.05596294337465 201.2696097251515 L 494.58463448285175 216.47849343934334 L 489.63422932059666 231.27220000132982 L 483.2527551047866 245.50726417208773 L 475.50209759203415 259.04563827065135 L 466.4574204965846 271.7560309220093 L 456.20643657358494 283.5151802842313 L 342.06666666666666 173.66666666666666 L 342.06666666666666 173.66666666666666 L 342.06666666666666 173.66666666666666 L 342.06666666666666 173.66666666666666 L 342.06666666666666 173.66666666666666 L 342.06666666666666 173.66666666666666 L 342.06666666666666 173.66666666666666 L 342.06666666666666 173.66666666666666 Z" fill="#7CAE00" fill-opacity="1.0" stroke="none"/><path d="M 440.9525948737902 284.62526672787953 L 429.5594936623197 293.8134225497837 L 417.3179114237879 301.83642865221617 L 404.34656360753263 308.6164801602899 L 390.7712427258708 314.0878260260089 L 376.72359845340867 318.1974066635881 L 362.3398609252256 320.9053685065135 L 347.7595196150299 322.1854504963119 L 342.06666666666666 173.66666666666666 L 342.06666666666666 173.66666666666666 L 342.06666666666666 173.66666666666666 L 342.06666666666666 173.66666666666666 L 342.06666666666666 173.66666666666666 L 342.06666666666666 173.66666666666666 L 342.06666666666666 173.66666666666666 L 342.06666666666666 173.66666666666666 Z" fill="#00BE67" fill-opacity="1.0" stroke="none"/><path d="M 338.2718957871532 272.66707314994545 L 328.5528577021794 271.8137895850374 L 318.9648727663999 270.0087026035931 L 309.6009225828228 267.26931743556736 L 300.55181612793143 263.6221998740737 L 291.9053091115648 259.10271864773415 L 283.7452529465262 253.75470242461648 L 276.15078158097504 247.63001477403898 L 342.06666666666666 173.66666666666666 L 342.06666666666666 173.66666666666666 L 342.06666666666666 173.66666666666666 L 342.06666666666666 173.66666666666666 L 342.06666666666666 173.66666666666666 L 342.06666666666666 173.66666666666666 L 342.06666666666666 173.66666666666666 L 342.06666666666666 173.66666666666666 Z" fill="#00BFC4" fill-opacity="1.0" stroke="none"/><path d="M 297.80856683134726 216.2608166847748 L 293.83371152679956 211.70116489227445 L 290.3266059649512 206.77266514701768 L 287.3212610771132 201.52311266455894 L 284.84682185956297 196.00341614032936 L 282.92728473350223 190.26710405131112 L 281.58126483445824 184.36980555180128 L 280.82181548789345 178.3687109973933 L 342.06666666666666 173.66666666666666 L 342.06666666666666 173.66666666666666 L 342.06666666666666 173.66666666666666 L 342.06666666666666 173.66666666666666 L 342.06666666666666 173.66666666666666 L 342.06666666666666 173.66666666666666 L 342.06666666666666 173.66666666666666 L 342.06666666666666 173.66666666666666 Z" fill="#00A9FF" fill-opacity="1.0" stroke="none"/><path d="M 297.7499110066274 173.66666666666666 L 297.96479677297896 169.30777872226358 L 298.6073701698213 164.9911620570831 L 299.6713996996199 160.758678015275 L 301.1465667008425 156.6513720462794 L 303.01856541546 152.7090756575088 L 305.2692417221967 148.9700201395019 L 307.8767691901336 145.4704658095339 L 342.06666666666666 173.66666666666666 L 342.06666666666666 173.66666666666666 L 342.06666666666666 173.66666666666666 L 342.06666666666666 173.66666666666666 L 342.06666666666666 173.66666666666666 L 342.06666666666666 173.66666666666666 L 342.06666666666666 173.66666666666666 L 342.06666666666666 173.66666666666666 Z" fill="#C77CFF" fill-opacity="1.0" stroke="none"/><path d="M 326.42868824084314 158.61662155564937 L 327.9848003286588 157.15148372706057 L 329.677474427598 155.84650553513995 L 331.490295456479 154.71434229432413 L 333.4056831827128 153.7659734078665 L 335.4050627104938 153.01059589264776 L 337.4690446149575 152.45553518907184 L 339.57761297541344 152.10617412098873 L 342.06666666666666 173.66666666666666 L 342.06666666666666 173.66666666666666 L 342.06666666666666 173.66666666666666 L 342.06666666666666 173.66666666666666 L 342.06666666666666 173.66666666666666 L 342.06666666666666 173.66666666666666 L 342.06666666666666 173.66666666666666 L 342.06666666666666 173.66666666666666 Z" fill="#FF61CC" fill-opacity="1.0" stroke="none"/></svg>