<svg xmlns="http://www.w3.org/2000/svg" width="624" height="384" viewBox="0 0 624 384"><rect x="0.0" y="0.0" width="624.0" height="384.0" fill="#ffffff" fill-opacity="1.0" stroke="none"/><text x="28.306666666666665" y="21.413333333333334" fill="#333333" font-size="17.599999999999998" font-family="sans-serif" text-anchor="start">Pattern 2: μ, σ の事後分布</text><rect x="0.0" y="0.0" width="0.0" height="0.0" fill="#ffffff" fill-opacity="1.0" stroke="none"/><line x1="57.785971691305384" y1="64.53333333333333" x2="57.785971691305384" y2="351.0" stroke="#dddddd" stroke-width="0.6666666666666666"/><line x1="125.82279584341651" y1="64.53333333333333" x2="125.82279584341651" y2="351.0" stroke="#dddddd" stroke-width="0.6666666666666666"/><line x1="193.85961999552765" y1="64.53333333333333" x2="193.85961999552765" y2="351.0" stroke="#dddddd" stroke-width="0.6666666666666666"/><line x1="261.8964441476387" y1="64.53333333333333" x2="261.8964441476387" y2="351.0" stroke="#dddddd" stroke-width="0.6666666666666666"/><line x1="91.80438376736096" y1="64.53333333333333" x2="91.80438376736096" y2="351.0" stroke="#dddddd" stroke-width="1.3333333333333333"/><line x1="159.84120791947208" y1="64.53333333333333" x2="159.84120791947208" y2="351.0" stroke="#dddddd" stroke-width="1.3333333333333333"/><line x1="227.87803207158316" y1="64.53333333333333" x2="227.87803207158316" y2="351.0" stroke="#dddddd" stroke-width="1.3333333333333333"/><line x1="295.9148562236943" y1="64.53333333333333" x2="295.9148562236943" y2="351.0" stroke="#dddddd" stroke-width="1.3333333333333333"/><line x1="28.306666666666665" y1="316.7435263480262" x2="301.0" y2="316.7435263480262" stroke="#dddddd" stroke-width="0.6666666666666666"/><line x1="28.306666666666665" y1="248.23057904407852" x2="301.0" y2="248.23057904407852" stroke="#dddddd" stroke-width="0.6666666666666666"/><line x1="28.306666666666665" y1="179.7176317401309" x2="301.0" y2="179.7176317401309" stroke="#dddddd" stroke-width="0.6666666666666666"/><line x1="28.306666666666665" y1="111.20468443618331" x2="301.0" y2="111.20468443618331" stroke="#dddddd" stroke-width="0.6666666666666666"/><line x1="28.306666666666665" y1="351.0" x2="301.0" y2="351.0" stroke="#dddddd" stroke-width="1.3333333333333333"/><line x1="28.306666666666665" y1="282.4870526960524" x2="301.0" y2="282.4870526960524" stroke="#dddddd" stroke-width="1.3333333333333333"/><line x1="28.306666666666665" y1="213.97410539210478" x2="301.0" y2="213.97410539210478" stroke="#dddddd" stroke-width="1.3333333333333333"/><line x1="28.306666666666665" y1="145.4611580881571" x2="301.0" y2="145.4611580881571" stroke="#dddddd" stroke-width="1.3333333333333333"/><line x1="28.306666666666665" y1="76.94821078420951" x2="301.0" y2="76.94821078420951" stroke="#dddddd" stroke-width="1.3333333333333333"/><rect x="28.306666666666665" y="64.53333333333333" width="272.6933333333333" height="286.46666666666664" fill="#ffffff" fill-opacity="0.0" stroke="#444444" stroke-width="1.3333333333333333"/><line x1="91.80438376736096" y1="351.0" x2="91.80438376736096" y2="354.66666666666663" stroke="#444444" stroke-width="1.3333333333333333"/><text x="91.80438376736096" y="366.9866666666667" fill="#333333" font-size="11.733333333333334" font-family="sans-serif" text-anchor="middle">4.75</text><line x1="159.84120791947208" y1="351.0" x2="159.84120791947208" y2="354.66666666666663" stroke="#444444" stroke-width="1.3333333333333333"/><text x="159.84120791947208" y="366.9866666666667" fill="#333333" font-size="11.733333333333334" font-family="sans-serif" text-anchor="middle">5.00</text><line x1="227.87803207158316" y1="351.0" x2="227.87803207158316" y2="354.66666666666663" stroke="#444444" stroke-width="1.3333333333333333"/><text x="227.87803207158316" y="366.9866666666667" fill="#333333" font-size="11.733333333333334" font-family="sans-serif" text-anchor="middle">5.25</text><line x1="295.9148562236943" y1="351.0" x2="295.9148562236943" y2="354.66666666666663" stroke="#444444" stroke-width="1.3333333333333333"/><text x="295.9148562236943" y="366.9866666666667" fill="#333333" font-size="11.733333333333334" font-family="sans-serif" text-anchor="middle">5.50</text><line x1="28.306666666666665" y1="351.0" x2="24.64" y2="351.0" stroke="#444444" stroke-width="1.3333333333333333"/><text x="21.706666666666667" y="355.1066666666666" fill="#333333" font-size="11.733333333333334" font-family="sans-serif" text-anchor="end">0</text><line x1="28.306666666666665" y1="282.4870526960524" x2="24.64" y2="282.4870526960524" stroke="#444444" stroke-width="1.3333333333333333"/><text x="21.706666666666667" y="286.59371936271907" fill="#333333" font-size="11.733333333333334" font-family="sans-serif" text-anchor="end">1</text><line x1="28.306666666666665" y1="213.97410539210478" x2="24.64" y2="213.97410539210478" stroke="#444444" stroke-width="1.3333333333333333"/><text x="21.706666666666667" y="218.08077205877146" fill="#333333" font-size="11.733333333333334" font-family="sans-serif" text-anchor="end">2</text><line x1="28.306666666666665" y1="145.4611580881571" x2="24.64" y2="145.4611580881571" stroke="#444444" stroke-width="1.3333333333333333"/><text x="21.706666666666667" y="149.5678247548238" fill="#333333" font-size="11.733333333333334" font-family="sans-serif" text-anchor="end">3</text><line x1="28.306666666666665" y1="76.94821078420951" x2="24.64" y2="76.94821078420951" stroke="#444444" stroke-width="1.3333333333333333"/><text x="21.706666666666667" y="81.05487745087618" fill="#333333" font-size="11.733333333333334" font-family="sans-serif" text-anchor="end">4</text><text x="28.306666666666665" y="53.68000000000001" fill="#333333" font-size="17.599999999999998" font-family="sans-serif" text-anchor="start">mu</text><path d="M 28.306666666666665 350.89837746943914 L 31.06114478114467 350.80161532858057 L 33.815622895622916 350.6721145448185 L 36.57010101010092 350.5404759248291 L 39.324579124579174 350.451113780666 L 42.07905723905717 350.4320246713402 L 44.83353535353542 350.4657392913093 L 47.58801346801343 350.489077469653 L 50.342491582491675 350.4283341047542 L 53.09696969696967 350.2471778286624 L 55.85144781144792 349.97212257827647 L 58.60592592592593 349.674137841708 L 61.360404040403935 349.41986119389605 L 64.11488215488217 349.236876064784 L 66.86936026936019 349.1247559417359 L 69.62383838383843 349.08808422478694 L 72.37831649831642 349.1365415992696 L 75.13279461279468 349.2376728639007 L 77.88727272727267 349.2705093475591 L 80.64175084175093 349.0343962280727 L 83.39622895622894 348.31718253312334 L 86.15070707070717 346.9837730993466 L 88.90518518518519 345.0463844505999 L 91.6596632996632 342.6980647408358 L 94.41414141414143 340.2910453970465 L 97.16861952861944 338.2270162051287 L 99.92309764309768 336.7580693185927 L 102.67757575757568 335.79752810779235 L 105.43205387205394 334.90311395579965 L 108.18653198653193 333.4930139910539 L 110.94101010101019 331.1530537818072 L 113.6954882154882 327.81080478742837 L 116.44996632996646 323.6760336446855 L 119.20444444444445 319.02611357700835 L 121.95892255892245 313.9853662212657 L 124.71340067340068 308.4046216509391 L 127.4678787878787 301.8742063247695 L 130.22235690235695 293.8521130177978 L 132.97683501683497 283.86403362665556 L 135.7313131313132 271.7125439367976 L 138.4857912457912 257.6061843569986 L 141.24026936026945 242.11921912962728 L 143.99474747474744 225.96848316386632 L 146.74922558922572 209.72048999759423 L 149.5037037037037 193.60773097592278 L 152.25818181818195 177.55555280874233 L 155.01265993265997 161.37185058428202 L 157.76713804713796 144.9835552033154 L 160.5216161616162 128.63726438437806 L 163.27609427609423 113.00387327240685 L 166.03057239057244 99.11526411829432 L 168.7850505050505 88.10647888499969 L 171.5395286195287 80.84407469245946 L 174.2940067340067 77.60216689432639 L 177.04848484848495 77.98402904756608 L 179.80296296296297 81.24532138081906 L 182.55744107744096 86.9041193825775 L 185.3119191919192 95.13636036986671 L 188.06639730639722 106.50170023025267 L 190.82087542087544 121.18848617341772 L 193.57535353535346 138.46328088093804 L 196.3298316498317 156.7474244377711 L 199.0843097643097 174.1818683965118 L 201.83878787878794 189.3555004358806 L 204.59326599326596 201.92429577885287 L 207.34774410774423 212.78573638155004 L 210.1022222222222 223.5338285692958 L 212.85670033670047 235.40531611740545 L 215.6111784511785 248.45470136437092 L 218.36565656565648 261.60687252989044 L 221.1201346801347 273.50280519643525 L 223.8746127946127 283.39391978502886 L 226.62909090909096 291.41839286545746 L 229.38356902356898 298.2540045578951 L 232.13804713804723 304.6244551588138 L 234.8925252525252 311.0182206157825 L 237.64700336700346 317.61053846217703 L 240.40148148148148 324.2612794880498 L 243.15595959595947 330.58313634220724 L 245.91043771043772 336.1168575443789 L 248.66491582491574 340.54132689066716 L 251.41939393939396 343.78582924552666 L 254.17387205387197 345.9973622883563 L 256.9283501683502 347.42770589251154 L 259.6828282828282 348.32684283567903 L 262.43730639730643 348.8846348974515 L 265.1917845117845 349.22042340512075 L 267.94626262626275 349.4007812174442 L 270.7007407407407 349.4636600207616 L 273.45521885521896 349.43900285138676 L 276.209696969697 349.3659985987242 L 278.964175084175 349.3015783586967 L 281.7186531986532 349.30898885469026 L 284.4731313131312 349.42989547581954 L 287.2276094276095 349.66292824716794 L 289.98208754208747 349.96656500867044 L 292.73656565656574 350.28130604702824 L 295.49104377104373 350.55448493472954 L 298.24552188552195 350.7563435025736 L 301.0 350.8836122511274" fill="" fill-opacity="0.0" stroke="#1f77b4" stroke-width="1.8897637795275593"/><rect x="0.0" y="0.0" width="0.0" height="0.0" fill="#ffffff" fill-opacity="1.0" stroke="none"/><line x1="351.9855943544352" y1="64.53333333333333" x2="351.9855943544352" y2="351.0" stroke="#dddddd" stroke-width="0.6666666666666666"/><line x1="424.036521749421" y1="64.53333333333333" x2="424.036521749421" y2="351.0" stroke="#dddddd" stroke-width="0.6666666666666666"/><line x1="496.0874491444068" y1="64.53333333333333" x2="496.0874491444068" y2="351.0" stroke="#dddddd" stroke-width="0.6666666666666666"/><line x1="568.1383765393925" y1="64.53333333333333" x2="568.1383765393925" y2="351.0" stroke="#dddddd" stroke-width="0.6666666666666666"/><line x1="388.01105805192816" y1="64.53333333333333" x2="388.01105805192816" y2="351.0" stroke="#dddddd" stroke-width="1.3333333333333333"/><line x1="460.0619854469139" y1="64.53333333333333" x2="460.0619854469139" y2="351.0" stroke="#dddddd" stroke-width="1.3333333333333333"/><line x1="532.1129128418997" y1="64.53333333333333" x2="532.1129128418997" y2="351.0" stroke="#dddddd" stroke-width="1.3333333333333333"/><line x1="604.1638402368854" y1="64.53333333333333" x2="604.1638402368854" y2="351.0" stroke="#dddddd" stroke-width="1.3333333333333333"/><line x1="336.64" y1="325.3715977009529" x2="609.3333333333333" y2="325.3715977009529" stroke="#dddddd" stroke-width="0.6666666666666666"/><line x1="336.64" y1="274.11479310285875" x2="609.3333333333333" y2="274.11479310285875" stroke="#dddddd" stroke-width="0.6666666666666666"/><line x1="336.64" y1="222.8579885047646" x2="609.3333333333333" y2="222.8579885047646" stroke="#dddddd" stroke-width="0.6666666666666666"/><line x1="336.64" y1="171.60118390667043" x2="609.3333333333333" y2="171.60118390667043" stroke="#dddddd" stroke-width="0.6666666666666666"/><line x1="336.64" y1="120.34437930857632" x2="609.3333333333333" y2="120.34437930857632" stroke="#dddddd" stroke-width="0.6666666666666666"/><line x1="336.64" y1="69.08757471048216" x2="609.3333333333333" y2="69.08757471048216" stroke="#dddddd" stroke-width="0.6666666666666666"/><line x1="336.64" y1="351.0" x2="609.3333333333333" y2="351.0" stroke="#dddddd" stroke-width="1.3333333333333333"/><line x1="336.64" y1="299.74319540190584" x2="609.3333333333333" y2="299.74319540190584" stroke="#dddddd" stroke-width="1.3333333333333333"/><line x1="336.64" y1="248.48639080381167" x2="609.3333333333333" y2="248.48639080381167" stroke="#dddddd" stroke-width="1.3333333333333333"/><line x1="336.64" y1="197.22958620571754" x2="609.3333333333333" y2="197.22958620571754" stroke="#dddddd" stroke-width="1.3333333333333333"/><line x1="336.64" y1="145.97278160762338" x2="609.3333333333333" y2="145.97278160762338" stroke="#dddddd" stroke-width="1.3333333333333333"/><line x1="336.64" y1="94.71597700952921" x2="609.3333333333333" y2="94.71597700952921" stroke="#dddddd" stroke-width="1.3333333333333333"/><rect x="336.64" y="64.53333333333333" width="272.6933333333333" height="286.46666666666664" fill="#ffffff" fill-opacity="0.0" stroke="#444444" stroke-width="1.3333333333333333"/><line x1="388.01105805192816" y1="351.0" x2="388.01105805192816" y2="354.66666666666663" stroke="#444444" stroke-width="1.3333333333333333"/><text x="388.01105805192816" y="366.9866666666667" fill="#333333" font-size="11.733333333333334" font-family="sans-serif" text-anchor="middle">0.25</text><line x1="460.0619854469139" y1="351.0" x2="460.0619854469139" y2="354.66666666666663" stroke="#444444" stroke-width="1.3333333333333333"/><text x="460.0619854469139" y="366.9866666666667" fill="#333333" font-size="11.733333333333334" font-family="sans-serif" text-anchor="middle">0.50</text><line x1="532.1129128418997" y1="351.0" x2="532.1129128418997" y2="354.66666666666663" stroke="#444444" stroke-width="1.3333333333333333"/><text x="532.1129128418997" y="366.9866666666667" fill="#333333" font-size="11.733333333333334" font-family="sans-serif" text-anchor="middle">0.75</text><line x1="604.1638402368854" y1="351.0" x2="604.1638402368854" y2="354.66666666666663" stroke="#444444" stroke-width="1.3333333333333333"/><text x="604.1638402368854" y="366.9866666666667" fill="#333333" font-size="11.733333333333334" font-family="sans-serif" text-anchor="middle">1.00</text><line x1="336.64" y1="351.0" x2="332.9733333333333" y2="351.0" stroke="#444444" stroke-width="1.3333333333333333"/><text x="330.03999999999996" y="355.1066666666666" fill="#333333" font-size="11.733333333333334" font-family="sans-serif" text-anchor="end">0</text><line x1="336.64" y1="299.74319540190584" x2="332.9733333333333" y2="299.74319540190584" stroke="#444444" stroke-width="1.3333333333333333"/><text x="330.03999999999996" y="303.8498620685725" fill="#333333" font-size="11.733333333333334" font-family="sans-serif" text-anchor="end">1</text><line x1="336.64" y1="248.48639080381167" x2="332.9733333333333" y2="248.48639080381167" stroke="#444444" stroke-width="1.3333333333333333"/><text x="330.03999999999996" y="252.59305747047836" fill="#333333" font-size="11.733333333333334" font-family="sans-serif" text-anchor="end">2</text><line x1="336.64" y1="197.22958620571754" x2="332.9733333333333" y2="197.22958620571754" stroke="#444444" stroke-width="1.3333333333333333"/><text x="330.03999999999996" y="201.33625287238422" fill="#333333" font-size="11.733333333333334" font-family="sans-serif" text-anchor="end">3</text><line x1="336.64" y1="145.97278160762338" x2="332.9733333333333" y2="145.97278160762338" stroke="#444444" stroke-width="1.3333333333333333"/><text x="330.03999999999996" y="150.07944827429003" fill="#333333" font-size="11.733333333333334" font-family="sans-serif" text-anchor="end">4</text><line x1="336.64" y1="94.71597700952921" x2="332.9733333333333" y2="94.71597700952921" stroke="#444444" stroke-width="1.3333333333333333"/><text x="330.03999999999996" y="98.82264367619588" fill="#333333" font-size="11.733333333333334" font-family="sans-serif" text-anchor="end">5</text><text x="336.64" y="53.68000000000001" fill="#333333" font-size="17.599999999999998" font-family="sans-serif" text-anchor="start">sigma</text><path d="M 336.64 350.9199254794747 L 339.3944781144781 350.8060447700483 L 342.1489562289562 350.58552396111446 L 344.90343434343436 350.18402869092967 L 347.6579124579124 349.4473460634622 L 350.4123905723905 348.0615719013347 L 353.16686868686867 345.49591170074723 L 355.9213468013468 341.012485449939 L 358.67582491582493 333.69817639302823 L 361.430303030303 322.4589235549152 L 364.1847811447811 306.10565518280714 L 366.93925925925925 283.785368193471 L 369.69373737373735 255.685773564253 L 372.4482154882154 223.45442587140343 L 375.20269360269356 189.87478815216446 L 377.95717171717166 158.00420156237692 L 380.7116498316498 130.33493453034626 L 383.4661279461279 108.30710563762757 L 386.220606060606 92.27187723787506 L 388.97508417508413 81.95495552894783 L 391.72956228956224 77.16173208302044 L 394.4840404040404 78.05570536583642 L 397.2385185185185 84.64101751042278 L 399.99299663299655 96.0347024442719 L 402.7474747474747 110.49594383119529 L 405.5019528619528 126.35377276597379 L 408.256430976431 142.92198661352876 L 411.0109090909091 160.44728127425142 L 413.7653872053871 179.11438642102203 L 416.5198653198653 198.12458579169993 L 419.2743434343434 215.8439205189764 L 422.02882154882155 230.88879440673668 L 424.78329966329966 242.98611151551478 L 427.5377777777777 252.77634628724854 L 430.2922558922558 260.98556231170505 L 433.04673400673397 267.9641429202248 L 435.80121212121213 273.92979428179956 L 438.55569023569024 279.3867785138485 L 441.3101683501683 285.1054490383446 L 444.0646464646464 291.63894006585537 L 446.81912457912455 298.8957383552107 L 449.57360269360265 306.22336764078636 L 452.3280808080808 312.8962653683983 L 455.08255892255886 318.49320121998664 L 457.83703703703696 322.86682288026776 L 460.5915151515151 325.9503567914386 L 463.34599326599323 327.7915904869368 L 466.1004713804714 328.7708273527072 L 468.85494949494944 329.59723915573034 L 471.60942760942754 330.9314343630966 L 474.3639057239057 332.98061750086407 L 477.1183838383838 335.4663038813012 L 479.87286195286197 337.9521450395282 L 482.62734006734 340.17734247647974 L 485.3818181818182 342.1067440408247 L 488.1362962962963 343.74440770150284 L 490.8907744107744 344.9923487792945 L 493.64525252525254 345.73169058813374 L 496.3997306397306 346.003193354671 L 499.1542087542087 346.0388039732061 L 501.90868686868686 346.0874408358862 L 504.663164983165 346.2318221601073 L 507.4176430976431 346.3926888222742 L 510.17212121212117 346.48344922499365 L 512.9265993265992 346.52472593912427 L 515.6810774410774 346.6250569680816 L 518.4355555555555 346.89904516035 L 521.1900336700337 347.4074071991456 L 523.9445117845117 348.12352545023606 L 526.6989898989898 348.922973802801 L 529.453468013468 349.62869437881375 L 532.2079461279461 350.10801635706275 L 534.9624242424243 350.347024370836 L 537.7169023569023 350.4381316873182 L 540.4713804713804 350.4987344144959 L 543.2258585858585 350.5942556159015 L 545.9803367003367 350.7205306126276 L 548.7348148148149 350.8398789183582 L 551.4892929292929 350.92424049062095 L 554.243771043771 350.9704665300641 L 556.9982491582491 350.99052076324426 L 559.7527272727273 350.9974955107376 L 562.5072053872054 350.9994552339857 L 565.2616835016835 350.999901300464 L 568.0161616161615 350.99997534114334 L 570.7706397306397 350.99992610614515 L 573.5251178451178 350.99958364598706 L 576.279595959596 350.9980241336667 L 579.034074074074 350.9922790919219 L 581.7885521885521 350.97516734788326 L 584.5430303030303 350.93426165743756 L 587.2975084175083 350.8567629831812 L 590.0519865319865 350.7431186024098 L 592.8064646464646 350.62081520511674 L 595.5609427609427 350.53930866550087 L 598.3154208754208 350.53930866550087 L 601.069898989899 350.62081520511674 L 603.8243771043772 350.7431186024098 L 606.5788552188552 350.8567629831813 L 609.3333333333333 350.93426165744" fill="" fill-opacity="0.0" stroke="#1f77b4" stroke-width="1.8897637795275593"/></svg>