<svg xmlns="http://www.w3.org/2000/svg" width="624" height="384" viewBox="0 0 624 384"><rect x="0.0" y="0.0" width="624.0" height="384.0" fill="#ffffff" fill-opacity="1.0" stroke="none"/><text x="42.093333333333334" y="21.413333333333334" fill="#333333" font-size="17.599999999999998" font-family="sans-serif" text-anchor="start">Pattern 7: 3 階層 nested の DAG</text><line x1="312.919871263327" y1="178.88778786312486" x2="325.74418511493263" y2="201.4085341391152" stroke="#444444" stroke-width="1.7785714285714287"/><path d="M 331.6115573081015 211.71221213687514 L 322.13789781571666 203.46211440672428 L 329.3504724141486 199.35495387150607 Z" fill="#444444" fill-opacity="1.0" stroke="none"/><line x1="264.3055855490413" y1="93.51635929169629" x2="277.1298994006469" y2="116.03710556768661" stroke="#444444" stroke-width="1.7785714285714287"/><path d="M 282.99727159381575 126.34078356544656 L 273.5236121014309 118.0906858352957 L 280.73618669986286 113.9835253000775 Z" fill="#444444" fill-opacity="1.0" stroke="none"/><line x1="331.6013945191138" y1="94.9408747019273" x2="319.17876413751117" y2="116.23681249896045" stroke="#444444" stroke-width="1.7785714285714287"/><path d="M 313.204293406297 126.478762323899 L 315.59408169878265 114.14574774303549 L 322.76344657623963 118.3278772548854 Z" fill="#444444" fill-opacity="1.0" stroke="none"/><line x1="380.21568023339955" y1="180.31230327335587" x2="367.7930498517968" y2="201.608241070389" stroke="#444444" stroke-width="1.7785714285714287"/><path d="M 361.8185791205827 211.85019089532756 L 364.20836741306834 199.51717631446402 L 371.37773229052533 203.69930582631395 Z" fill="#444444" fill-opacity="1.0" stroke="none"/><line x1="346.5728571428572" y1="267.6285714285714" x2="346.5728571428572" y2="281.85714285714283" stroke="#444444" stroke-width="1.7785714285714287"/><path d="M 346.5728571428572 293.71428571428567 L 342.42285714285714 281.85714285714283 L 350.7228571428571 281.85714285714283 Z" fill="#444444" fill-opacity="1.0" stroke="none"/><path d="M 217.0335714285714 67.24285714285713 C 217.0335714285714 50.87155920235714 231.4995709591407 37.599999999999994 249.3442857142857 37.599999999999994 C 267.18900046943065 37.599999999999994 281.655 50.87155920235714 281.655 67.24285714285713 C 281.655 83.61415508335713 267.18900046943065 96.88571428571427 249.3442857142857 96.88571428571427 C 231.4995709591407 96.88571428571427 217.0335714285714 83.61415508335713 217.0335714285714 67.24285714285713 Z" fill="#ffffff" fill-opacity="1.0" stroke="#444444" stroke-width="1.4228571428571428"/><text x="249.3442857142857" y="56.56194285714285" fill="#333333" font-size="10.434285714285714" font-family="sans-serif" text-anchor="middle">mu</text><text x="249.3442857142857" y="70.79051428571428" fill="#333333" font-size="10.671428571428573" font-family="sans-serif" text-anchor="middle">~</text><text x="249.3442857142857" y="85.01908571428571" fill="#333333" font-size="10.671428571428573" font-family="sans-serif" text-anchor="middle">Normal</text><path d="M 302.405 67.24285714285713 C 302.405 50.87155920235714 322.71048557960637 37.599999999999994 347.7585714285714 37.599999999999994 C 372.8066572775364 37.599999999999994 393.1121428571428 50.87155920235714 393.1121428571428 67.24285714285713 C 393.1121428571428 83.61415508335713 372.8066572775364 96.88571428571427 347.7585714285714 96.88571428571427 C 322.71048557960637 96.88571428571427 302.405 83.61415508335713 302.405 67.24285714285713 Z" fill="#ffffff" fill-opacity="1.0" stroke="#444444" stroke-width="1.4228571428571428"/><text x="347.7585714285714" y="56.56194285714285" fill="#333333" font-size="10.434285714285714" font-family="sans-serif" text-anchor="middle">tau_d</text><text x="347.7585714285714" y="70.79051428571428" fill="#333333" font-size="10.671428571428573" font-family="sans-serif" text-anchor="middle">~</text><text x="347.7585714285714" y="85.01908571428571" fill="#333333" font-size="10.671428571428573" font-family="sans-serif" text-anchor="middle">HalfNormal</text><path d="M 351.0192857142857 152.6142857142857 C 351.0192857142857 136.2429877737857 371.3247712938921 122.97142857142856 396.37285714285713 122.97142857142856 C 421.4209429918222 122.97142857142856 441.7264285714285 136.2429877737857 441.7264285714285 152.6142857142857 C 441.7264285714285 168.98558365478573 421.4209429918222 182.25714285714287 396.37285714285713 182.25714285714287 C 371.3247712938921 182.25714285714287 351.0192857142857 168.98558365478573 351.0192857142857 152.6142857142857 Z" fill="#ffffff" fill-opacity="1.0" stroke="#444444" stroke-width="1.4228571428571428"/><text x="396.37285714285713" y="141.93337142857143" fill="#333333" font-size="10.434285714285714" font-family="sans-serif" text-anchor="middle">tau_s</text><text x="396.37285714285713" y="156.16194285714283" fill="#333333" font-size="10.671428571428573" font-family="sans-serif" text-anchor="middle">~</text><text x="396.37285714285713" y="170.3905142857143" fill="#333333" font-size="10.671428571428573" font-family="sans-serif" text-anchor="middle">HalfNormal</text><path d="M 265.6478571428571 152.6142857142857 C 265.6478571428571 136.2429877737857 280.1138566734264 122.97142857142856 297.9585714285714 122.97142857142856 C 315.8032861837164 122.97142857142856 330.2692857142857 136.2429877737857 330.2692857142857 152.6142857142857 C 330.2692857142857 168.98558365478573 315.8032861837164 182.25714285714287 297.9585714285714 182.25714285714287 C 280.1138566734264 182.25714285714287 265.6478571428571 168.98558365478573 265.6478571428571 152.6142857142857 Z" fill="#ffffff" fill-opacity="1.0" stroke="#444444" stroke-width="1.4228571428571428"/><text x="297.9585714285714" y="141.93337142857143" fill="#333333" font-size="10.434285714285714" font-family="sans-serif" text-anchor="middle">delta</text><text x="297.9585714285714" y="156.16194285714283" fill="#333333" font-size="10.671428571428573" font-family="sans-serif" text-anchor="middle">~</text><text x="297.9585714285714" y="170.3905142857143" fill="#333333" font-size="10.671428571428573" font-family="sans-serif" text-anchor="middle">Normal</text><path d="M 314.26214285714286 237.9857142857143 C 314.26214285714286 221.6144163452143 328.7281423877121 208.34285714285716 346.5728571428572 208.34285714285716 C 364.4175718980021 208.34285714285716 378.8835714285714 221.6144163452143 378.8835714285714 237.9857142857143 C 378.8835714285714 254.35701222621427 364.4175718980021 267.6285714285714 346.5728571428572 267.6285714285714 C 328.7281423877121 267.6285714285714 314.26214285714286 254.35701222621427 314.26214285714286 237.9857142857143 Z" fill="#ffffff" fill-opacity="1.0" stroke="#444444" stroke-width="1.4228571428571428"/><text x="346.5728571428572" y="227.3048" fill="#333333" font-size="10.434285714285714" font-family="sans-serif" text-anchor="middle">theta</text><text x="346.5728571428572" y="241.53337142857143" fill="#333333" font-size="10.671428571428573" font-family="sans-serif" text-anchor="middle">~</text><text x="346.5728571428572" y="255.76194285714283" fill="#333333" font-size="10.671428571428573" font-family="sans-serif" text-anchor="middle">Normal</text><path d="M 314.26214285714286 323.35714285714283 C 314.26214285714286 306.98584491664286 328.7281423877121 293.71428571428567 346.5728571428572 293.71428571428567 C 364.4175718980021 293.71428571428567 378.8835714285714 306.98584491664286 378.8835714285714 323.35714285714283 C 378.8835714285714 339.72844079764286 364.4175718980021 353.0 346.5728571428572 353.0 C 328.7281423877121 353.0 314.26214285714286 339.72844079764286 314.26214285714286 323.35714285714283 Z" fill="#cfcfcf" fill-opacity="1.0" stroke="#444444" stroke-width="1.4228571428571428"/><text x="346.5728571428572" y="312.6762285714285" fill="#333333" font-size="10.434285714285714" font-family="sans-serif" text-anchor="middle">y</text><text x="346.5728571428572" y="326.90479999999997" fill="#333333" font-size="10.671428571428573" font-family="sans-serif" text-anchor="middle">~</text><text x="346.5728571428572" y="341.1333714285714" fill="#333333" font-size="10.671428571428573" font-family="sans-serif" text-anchor="middle">Normal</text></svg>