<svg xmlns="http://www.w3.org/2000/svg" width="624" height="384" viewBox="0 0 624 384"><rect x="0.0" y="0.0" width="624.0" height="384.0" fill="#ffffff" fill-opacity="1.0" stroke="none"/><text x="42.38666666666666" y="21.413333333333334" fill="#333333" font-size="17.599999999999998" font-family="sans-serif" text-anchor="start">Pattern 1: μ の事後分布</text><rect x="0.0" y="0.0" width="0.0" height="0.0" fill="#ffffff" fill-opacity="1.0" stroke="none"/><line x1="124.2721102232812" y1="64.53333333333333" x2="124.2721102232812" y2="351.0" stroke="#dddddd" stroke-width="0.6666666666666666"/><line x1="243.61147816734388" y1="64.53333333333333" x2="243.61147816734388" y2="351.0" stroke="#dddddd" stroke-width="0.6666666666666666"/><line x1="362.9508461114065" y1="64.53333333333333" x2="362.9508461114065" y2="351.0" stroke="#dddddd" stroke-width="0.6666666666666666"/><line x1="482.29021405546916" y1="64.53333333333333" x2="482.29021405546916" y2="351.0" stroke="#dddddd" stroke-width="0.6666666666666666"/><line x1="601.6295819995319" y1="64.53333333333333" x2="601.6295819995319" y2="351.0" stroke="#dddddd" stroke-width="0.6666666666666666"/><line x1="64.60242625124988" y1="64.53333333333333" x2="64.60242625124988" y2="351.0" stroke="#dddddd" stroke-width="1.3333333333333333"/><line x1="183.94179419531253" y1="64.53333333333333" x2="183.94179419531253" y2="351.0" stroke="#dddddd" stroke-width="1.3333333333333333"/><line x1="303.28116213937517" y1="64.53333333333333" x2="303.28116213937517" y2="351.0" stroke="#dddddd" stroke-width="1.3333333333333333"/><line x1="422.62053008343787" y1="64.53333333333333" x2="422.62053008343787" y2="351.0" stroke="#dddddd" stroke-width="1.3333333333333333"/><line x1="541.9598980275005" y1="64.53333333333333" x2="541.9598980275005" y2="351.0" stroke="#dddddd" stroke-width="1.3333333333333333"/><line x1="42.38666666666666" y1="319.513364278177" x2="609.3333333333333" y2="319.513364278177" stroke="#dddddd" stroke-width="0.6666666666666666"/><line x1="42.38666666666666" y1="256.540092834531" x2="609.3333333333333" y2="256.540092834531" stroke="#dddddd" stroke-width="0.6666666666666666"/><line x1="42.38666666666666" y1="193.56682139088502" x2="609.3333333333333" y2="193.56682139088502" stroke="#dddddd" stroke-width="0.6666666666666666"/><line x1="42.38666666666666" y1="130.59354994723904" x2="609.3333333333333" y2="130.59354994723904" stroke="#dddddd" stroke-width="0.6666666666666666"/><line x1="42.38666666666666" y1="67.62027850359311" x2="609.3333333333333" y2="67.62027850359311" stroke="#dddddd" stroke-width="0.6666666666666666"/><line x1="42.38666666666666" y1="351.0" x2="609.3333333333333" y2="351.0" stroke="#dddddd" stroke-width="1.3333333333333333"/><line x1="42.38666666666666" y1="288.026728556354" x2="609.3333333333333" y2="288.026728556354" stroke="#dddddd" stroke-width="1.3333333333333333"/><line x1="42.38666666666666" y1="225.05345711270803" x2="609.3333333333333" y2="225.05345711270803" stroke="#dddddd" stroke-width="1.3333333333333333"/><line x1="42.38666666666666" y1="162.08018566906202" x2="609.3333333333333" y2="162.08018566906202" stroke="#dddddd" stroke-width="1.3333333333333333"/><line x1="42.38666666666666" y1="99.10691422541609" x2="609.3333333333333" y2="99.10691422541609" stroke="#dddddd" stroke-width="1.3333333333333333"/><rect x="42.38666666666666" y="64.53333333333333" width="566.9466666666666" height="286.46666666666664" fill="#ffffff" fill-opacity="0.0" stroke="#444444" stroke-width="1.3333333333333333"/><line x1="64.60242625124988" y1="351.0" x2="64.60242625124988" y2="354.66666666666663" stroke="#444444" stroke-width="1.3333333333333333"/><text x="64.60242625124988" y="366.9866666666667" fill="#333333" font-size="11.733333333333334" font-family="sans-serif" text-anchor="middle">3</text><line x1="183.94179419531253" y1="351.0" x2="183.94179419531253" y2="354.66666666666663" stroke="#444444" stroke-width="1.3333333333333333"/><text x="183.94179419531253" y="366.9866666666667" fill="#333333" font-size="11.733333333333334" font-family="sans-serif" text-anchor="middle">4</text><line x1="303.28116213937517" y1="351.0" x2="303.28116213937517" y2="354.66666666666663" stroke="#444444" stroke-width="1.3333333333333333"/><text x="303.28116213937517" y="366.9866666666667" fill="#333333" font-size="11.733333333333334" font-family="sans-serif" text-anchor="middle">5</text><line x1="422.62053008343787" y1="351.0" x2="422.62053008343787" y2="354.66666666666663" stroke="#444444" stroke-width="1.3333333333333333"/><text x="422.62053008343787" y="366.9866666666667" fill="#333333" font-size="11.733333333333334" font-family="sans-serif" text-anchor="middle">6</text><line x1="541.9598980275005" y1="351.0" x2="541.9598980275005" y2="354.66666666666663" stroke="#444444" stroke-width="1.3333333333333333"/><text x="541.9598980275005" y="366.9866666666667" fill="#333333" font-size="11.733333333333334" font-family="sans-serif" text-anchor="middle">7</text><line x1="42.38666666666666" y1="351.0" x2="38.72" y2="351.0" stroke="#444444" stroke-width="1.3333333333333333"/><text x="35.78666666666666" y="355.1066666666666" fill="#333333" font-size="11.733333333333334" font-family="sans-serif" text-anchor="end">0.0</text><line x1="42.38666666666666" y1="288.026728556354" x2="38.72" y2="288.026728556354" stroke="#444444" stroke-width="1.3333333333333333"/><text x="35.78666666666666" y="292.13339522302067" fill="#333333" font-size="11.733333333333334" font-family="sans-serif" text-anchor="end">0.2</text><line x1="42.38666666666666" y1="225.05345711270803" x2="38.72" y2="225.05345711270803" stroke="#444444" stroke-width="1.3333333333333333"/><text x="35.78666666666666" y="229.16012377937471" fill="#333333" font-size="11.733333333333334" font-family="sans-serif" text-anchor="end">0.4</text><line x1="42.38666666666666" y1="162.08018566906202" x2="38.72" y2="162.08018566906202" stroke="#444444" stroke-width="1.3333333333333333"/><text x="35.78666666666666" y="166.1868523357287" fill="#333333" font-size="11.733333333333334" font-family="sans-serif" text-anchor="end">0.6</text><line x1="42.38666666666666" y1="99.10691422541609" x2="38.72" y2="99.10691422541609" stroke="#444444" stroke-width="1.3333333333333333"/><text x="35.78666666666666" y="103.21358089208276" fill="#333333" font-size="11.733333333333334" font-family="sans-serif" text-anchor="end">0.8</text><text x="42.38666666666666" y="53.68000000000001" fill="#333333" font-size="17.599999999999998" font-family="sans-serif" text-anchor="start">mu</text><path d="M 42.38666666666666 350.6734314006942 L 48.11340067340067 350.4062175300519 L 53.840134680134675 350.0239107318358 L 59.56686868686868 349.5389855224585 L 65.2936026936027 348.9924299873844 L 71.02033670033668 348.4443281584484 L 76.7470707070707 347.95478944020283 L 82.47380471380471 347.56216819718753 L 88.20053872053872 347.2655190324124 L 93.92727272727271 347.01663926665344 L 99.65400673400673 346.7259186584393 L 105.38074074074075 346.28407950857746 L 111.10747474747475 345.59571947370705 L 116.83420875420876 344.6104509649708 L 122.56094276094275 343.33100900633605 L 128.28767676767677 341.78693559285716 L 134.01441077441078 339.98821228914625 L 139.74114478114478 337.8949761008627 L 145.46787878787876 335.4323399345778 L 151.1946127946128 332.5437815254847 L 156.9213468013468 329.2418049939663 L 162.64808080808075 325.61152983477047 L 168.37481481481478 321.7578745703696 L 174.10154882154876 317.7349118697429 L 179.82828282828282 313.51409016725313 L 185.55501683501677 309.0137486925745 L 191.28175084175086 304.156496650318 L 197.00848484848478 298.9020833422877 L 202.73521885521885 293.2367698748743 L 208.46195286195282 287.1396651835371 L 214.18868686868683 280.5509582099487 L 219.9154208754208 273.35292040570005 L 225.64215488215487 265.3754570476534 L 231.36888888888882 256.44308209043606 L 237.0956228956229 246.45485443198328 L 242.82235690235683 235.44219370875288 L 248.5490909090909 223.53764759767515 L 254.27582491582487 210.8429200617545 L 260.00255892255893 197.27193951731311 L 265.72929292929285 182.4980005098245 L 271.4560269360269 166.11005644327292 L 277.18276094276086 147.97867173365697 L 282.90949494949484 128.68213508351954 L 288.6362289562289 109.73138500575745 L 294.3629629629629 93.36873464900334 L 300.0896969696969 81.93943369890333 L 305.81643097643087 77.12129512733618 L 311.5431649831649 79.4152472103229 L 317.269898989899 88.13170862871269 L 322.9966329966329 101.79275983971354 L 328.7233670033669 118.66735378126323 L 334.450101010101 137.18209834942758 L 340.176835016835 156.10651938789323 L 345.903569023569 174.55257371752978 L 351.6303030303029 191.892110648538 L 357.35703703703695 207.68654173137202 L 363.0837710437711 221.66506786837527 L 368.81050505050496 233.73299287942177 L 374.53723905723893 243.98526899347553 L 380.263973063973 252.71779337334692 L 385.99070707070706 260.4118667976296 L 391.71744107744104 267.6346580607234 L 397.444175084175 274.8367871014012 L 403.17090909090905 282.14183969824694 L 408.89764309764314 289.28501291407036 L 414.6243771043771 295.7711453144127 L 420.351111111111 301.1602693505072 L 426.0778451178451 305.30849545246036 L 431.80457912457916 308.44486885153844 L 437.5313131313131 311.07112677995497 L 443.25804713804706 313.7493648909495 L 448.9847811447811 316.87902042440766 L 454.7115151515152 320.5641727812093 L 460.43824915824916 324.6239221883813 L 466.16498316498314 328.7170597286509 L 471.8917171717172 332.4956390406337 L 477.6184511784512 335.71263088354107 L 483.3451851851852 338.2624154111171 L 489.0719191919191 340.1728088411486 L 494.79865319865326 341.5704697706768 L 500.52538720538723 342.6301887634016 L 506.2521212121212 343.51835397636614 L 511.9788552188552 344.34875441640753 L 517.7055892255892 345.1667172981375 L 523.4323232323231 345.9624095425077 L 529.1590572390571 346.70063619877857 L 534.8857912457911 347.35191023356333 L 540.6125252525252 347.9124055470539 L 546.3392592592592 348.4039184218153 L 552.0659932659933 348.85413754948786 L 557.7927272727271 349.27246290814855 L 563.5194612794612 349.6427508273641 L 569.2461952861952 349.94014793882207 L 574.9729292929292 350.1562566598342 L 580.6996632996631 350.3094124370981 L 586.4263973063972 350.43235451181755 L 592.1531313131312 350.5505328070261 L 597.8798653198653 350.6698179298543 L 603.6065993265993 350.7804604456094 L 609.3333333333333 350.86968269624253" fill="" fill-opacity="0.0" stroke="#1f77b4" stroke-width="1.8897637795275593"/></svg>