<svg xmlns="http://www.w3.org/2000/svg" width="624" height="384" viewBox="0 0 624 384"><rect x="0.0" y="0.0" width="624.0" height="384.0" fill="#ffffff" fill-opacity="1.0" stroke="none"/><text x="42.093333333333334" y="21.413333333333334" fill="#333333" font-size="17.599999999999998" font-family="sans-serif" text-anchor="start">Pattern 5: 階層モデルの DAG</text><line x1="273.4826069899226" y1="114.26882253397532" x2="291.0664600029489" y2="145.14778392270432" stroke="#444444" stroke-width="2.438659793814433"/><path d="M 299.111413628634 159.27550736293188 L 286.1217567988692 147.9635176916941 L 296.0111632070285 142.3320501537145 Z" fill="#444444" fill-opacity="1.0" stroke="none"/><line x1="365.75418011383647" y1="116.22202407583848" x2="348.72108897205135" y2="145.4216088903272" stroke="#444444" stroke-width="2.438659793814433"/><path d="M 340.5292888972938 159.46469473276875 L 343.8060089271968 142.55447886416204 L 353.63616901690585 148.28873891649232 Z" fill="#444444" fill-opacity="1.0" stroke="none"/><line x1="319.6253608247422" y1="235.94432989690722" x2="319.6253608247422" y2="255.45360824742266" stroke="#444444" stroke-width="2.438659793814433"/><path d="M 319.6253608247422 271.7113402061856 L 313.9351546391752 255.45360824742266 L 325.3155670103092 255.45360824742266 Z" fill="#444444" fill-opacity="1.0" stroke="none"/><path d="M 208.66634020618554 78.2443298969072 C 208.66634020618554 55.79708632900515 228.50116430480116 37.599999999999994 252.9686597938144 37.599999999999994 C 277.4361552828276 37.599999999999994 297.2709793814432 55.79708632900515 297.2709793814432 78.2443298969072 C 297.2709793814432 100.69157346480927 277.4361552828276 118.88865979381444 252.9686597938144 118.88865979381444 C 228.50116430480116 118.88865979381444 208.66634020618554 100.69157346480927 208.66634020618554 78.2443298969072 Z" fill="#ffffff" fill-opacity="1.0" stroke="#444444" stroke-width="1.9509278350515464"/><text x="252.9686597938144" y="63.599364948453605" fill="#333333" font-size="14.306804123711341" font-family="sans-serif" text-anchor="middle">mu</text><text x="252.9686597938144" y="83.10864329896907" fill="#333333" font-size="14.6319587628866" font-family="sans-serif" text-anchor="middle">~</text><text x="252.9686597938144" y="102.61792164948453" fill="#333333" font-size="14.6319587628866" font-family="sans-serif" text-anchor="middle">Normal</text><path d="M 325.7220103092783 78.2443298969072 C 325.7220103092783 55.79708632900515 353.5635523926562 37.599999999999994 387.90783505154633 37.599999999999994 C 422.25211771043655 37.599999999999994 450.09365979381437 55.79708632900515 450.09365979381437 78.2443298969072 C 450.09365979381437 100.69157346480927 422.25211771043655 118.88865979381444 387.90783505154633 118.88865979381444 C 353.5635523926562 118.88865979381444 325.7220103092783 100.69157346480927 325.7220103092783 78.2443298969072 Z" fill="#ffffff" fill-opacity="1.0" stroke="#444444" stroke-width="1.9509278350515464"/><text x="387.90783505154633" y="63.599364948453605" fill="#333333" font-size="14.306804123711341" font-family="sans-serif" text-anchor="middle">tau</text><text x="387.90783505154633" y="83.10864329896907" fill="#333333" font-size="14.6319587628866" font-family="sans-serif" text-anchor="middle">~</text><text x="387.90783505154633" y="102.61792164948453" fill="#333333" font-size="14.6319587628866" font-family="sans-serif" text-anchor="middle">HalfNormal</text><path d="M 275.32304123711333 195.3 C 275.32304123711333 172.85275643209798 295.15786533572896 154.65567010309277 319.6253608247422 154.65567010309277 C 344.0928563137555 154.65567010309277 363.9276804123711 172.85275643209798 363.9276804123711 195.3 C 363.9276804123711 217.74724356790207 344.0928563137555 235.94432989690722 319.6253608247422 235.94432989690722 C 295.15786533572896 235.94432989690722 275.32304123711333 217.74724356790207 275.32304123711333 195.3 Z" fill="#ffffff" fill-opacity="1.0" stroke="#444444" stroke-width="1.9509278350515464"/><text x="319.6253608247422" y="180.65503505154635" fill="#333333" font-size="14.306804123711341" font-family="sans-serif" text-anchor="middle">theta</text><text x="319.6253608247422" y="200.16431340206185" fill="#333333" font-size="14.6319587628866" font-family="sans-serif" text-anchor="middle">~</text><text x="319.6253608247422" y="219.67359175257732" fill="#333333" font-size="14.6319587628866" font-family="sans-serif" text-anchor="middle">Normal</text><path d="M 275.32304123711333 312.3556701030928 C 275.32304123711333 289.90842653519076 295.15786533572896 271.7113402061856 319.6253608247422 271.7113402061856 C 344.0928563137555 271.7113402061856 363.9276804123711 289.90842653519076 363.9276804123711 312.3556701030928 C 363.9276804123711 334.8029136709948 344.0928563137555 353.0 319.6253608247422 353.0 C 295.15786533572896 353.0 275.32304123711333 334.8029136709948 275.32304123711333 312.3556701030928 Z" fill="#cfcfcf" fill-opacity="1.0" stroke="#444444" stroke-width="1.9509278350515464"/><text x="319.6253608247422" y="297.7107051546392" fill="#333333" font-size="14.306804123711341" font-family="sans-serif" text-anchor="middle">y</text><text x="319.6253608247422" y="317.21998350515463" fill="#333333" font-size="14.6319587628866" font-family="sans-serif" text-anchor="middle">~</text><text x="319.6253608247422" y="336.7292618556701" fill="#333333" font-size="14.6319587628866" font-family="sans-serif" text-anchor="middle">Normal</text></svg>