<svg xmlns="http://www.w3.org/2000/svg" width="624" height="384" viewBox="0 0 624 384"><rect x="0.0" y="0.0" width="624.0" height="384.0" fill="#ffffff" fill-opacity="1.0" stroke="none"/><text x="42.093333333333334" y="21.413333333333334" fill="#333333" font-size="17.599999999999998" font-family="sans-serif" text-anchor="start">Pattern 8: 交差ランダム効果の DAG</text><line x1="292.52413653822816" y1="223.22448361482873" x2="350.8009562202834" y2="273.7778693631176" stroke="#444444" stroke-width="2.438659793814433"/><path d="M 363.0818634617718 284.4311864882641 L 347.0722952264822 278.0761868976385 L 354.52961721408474 269.47955182859664 Z" fill="#444444" fill-opacity="1.0" stroke="none"/><line x1="395.27258762886595" y1="235.94432989690722" x2="395.27258762886595" y2="255.45360824742266" stroke="#444444" stroke-width="2.438659793814433"/><path d="M 395.27258762886595 271.7113402061856 L 389.5823814432989 255.45360824742266 L 400.962793814433 255.45360824742266 Z" fill="#444444" fill-opacity="1.0" stroke="none"/><line x1="151.34370268889415" y1="108.1082322542081" x2="214.24776910526873" y2="158.43148538730776" stroke="#444444" stroke-width="2.438659793814433"/><path d="M 226.94292490415182 168.58761002641424 L 210.69312548158146 162.87478991691685 L 217.80241272895597 153.9881808576987 Z" fill="#444444" fill-opacity="1.0" stroke="none"/><line x1="496.2598866000136" y1="227.80816398771344" x2="440.46285606287057" y2="274.5219569955541" stroke="#444444" stroke-width="2.438659793814433"/><path d="M 427.99711533802395 284.9583910907745 L 436.8101041295434 270.1589477418578 L 444.11560799619775 278.8849662492504 Z" fill="#444444" fill-opacity="1.0" stroke="none"/><line x1="260.33341237113405" y1="118.88865979381444" x2="260.33341237113405" y2="138.39793814432988" stroke="#444444" stroke-width="2.438659793814433"/><path d="M 260.33341237113405 154.65567010309277 L 254.643206185567 138.39793814432988 L 266.023618556701 138.39793814432988 Z" fill="#444444" fill-opacity="1.0" stroke="none"/><line x1="406.9772704093024" y1="118.68753089168894" x2="403.879225878485" y2="138.96564054794783" stroke="#444444" stroke-width="2.438659793814433"/><path d="M 401.4238954267803 155.03689441365196 L 398.2542870254886 138.10627488985114 L 409.5041647314815 139.8250062060445 Z" fill="#444444" fill-opacity="1.0" stroke="none"/><path d="M 58.981402061855654 78.2443298969072 C 58.981402061855654 55.79708632900515 83.62025695132863 37.599999999999994 114.01382474226803 37.599999999999994 C 144.40739253320743 37.599999999999994 169.0462474226804 55.79708632900515 169.0462474226804 78.2443298969072 C 169.0462474226804 100.69157346480927 144.40739253320743 118.88865979381444 114.01382474226803 118.88865979381444 C 83.62025695132863 118.88865979381444 58.981402061855654 100.69157346480927 58.981402061855654 78.2443298969072 Z" fill="#ffffff" fill-opacity="1.0" stroke="#444444" stroke-width="1.9509278350515464"/><text x="114.01382474226803" y="63.599364948453605" fill="#333333" font-size="14.306804123711341" font-family="sans-serif" text-anchor="middle">mu_alpha</text><text x="114.01382474226803" y="83.10864329896907" fill="#333333" font-size="14.6319587628866" font-family="sans-serif" text-anchor="middle">~</text><text x="114.01382474226803" y="102.61792164948453" fill="#333333" font-size="14.6319587628866" font-family="sans-serif" text-anchor="middle">Normal</text><path d="M 198.14758762886598 78.2443298969072 C 198.14758762886598 55.79708632900515 225.98912971224388 37.599999999999994 260.33341237113405 37.599999999999994 C 294.67769503002415 37.599999999999994 322.519237113402 55.79708632900515 322.519237113402 78.2443298969072 C 322.519237113402 100.69157346480927 294.67769503002415 118.88865979381444 260.33341237113405 118.88865979381444 C 225.98912971224388 118.88865979381444 198.14758762886598 100.69157346480927 198.14758762886598 78.2443298969072 Z" fill="#ffffff" fill-opacity="1.0" stroke="#444444" stroke-width="1.9509278350515464"/><text x="260.33341237113405" y="63.599364948453605" fill="#333333" font-size="14.306804123711341" font-family="sans-serif" text-anchor="middle">tau_a</text><text x="260.33341237113405" y="83.10864329896907" fill="#333333" font-size="14.6319587628866" font-family="sans-serif" text-anchor="middle">~</text><text x="260.33341237113405" y="102.61792164948453" fill="#333333" font-size="14.6319587628866" font-family="sans-serif" text-anchor="middle">HalfNormal</text><path d="M 350.9702680412371 78.2443298969072 C 350.9702680412371 55.79708632900515 378.811810124615 37.599999999999994 413.15609278350513 37.599999999999994 C 447.50037544239535 37.599999999999994 475.34191752577317 55.79708632900515 475.34191752577317 78.2443298969072 C 475.34191752577317 100.69157346480927 447.50037544239535 118.88865979381444 413.15609278350513 118.88865979381444 C 378.811810124615 118.88865979381444 350.9702680412371 100.69157346480927 350.9702680412371 78.2443298969072 Z" fill="#ffffff" fill-opacity="1.0" stroke="#444444" stroke-width="1.9509278350515464"/><text x="413.15609278350513" y="63.599364948453605" fill="#333333" font-size="14.306804123711341" font-family="sans-serif" text-anchor="middle">tau_g</text><text x="413.15609278350513" y="83.10864329896907" fill="#333333" font-size="14.6319587628866" font-family="sans-serif" text-anchor="middle">~</text><text x="413.15609278350513" y="102.61792164948453" fill="#333333" font-size="14.6319587628866" font-family="sans-serif" text-anchor="middle">HalfNormal</text><path d="M 470.39956701030934 195.3 C 470.39956701030934 172.85275643209798 499.3620496115539 154.65567010309277 535.0890824742269 154.65567010309277 C 570.8161153368998 154.65567010309277 599.7785979381442 172.85275643209798 599.7785979381442 195.3 C 599.7785979381442 217.74724356790207 570.8161153368998 235.94432989690722 535.0890824742269 235.94432989690722 C 499.3620496115539 235.94432989690722 470.39956701030934 217.74724356790207 470.39956701030934 195.3 Z" fill="#ffffff" fill-opacity="1.0" stroke="#444444" stroke-width="1.9509278350515464"/><text x="535.0890824742269" y="180.65503505154635" fill="#333333" font-size="14.306804123711341" font-family="sans-serif" text-anchor="middle">sigma</text><text x="535.0890824742269" y="200.16431340206185" fill="#333333" font-size="14.6319587628866" font-family="sans-serif" text-anchor="middle">~</text><text x="535.0890824742269" y="219.67359175257732" fill="#333333" font-size="14.6319587628866" font-family="sans-serif" text-anchor="middle">Exponential</text><path d="M 216.03109278350513 195.3 C 216.03109278350513 172.85275643209798 235.86591688212076 154.65567010309277 260.33341237113405 154.65567010309277 C 284.8009078601473 154.65567010309277 304.6357319587629 172.85275643209798 304.6357319587629 195.3 C 304.6357319587629 217.74724356790207 284.8009078601473 235.94432989690722 260.33341237113405 235.94432989690722 C 235.86591688212076 235.94432989690722 216.03109278350513 217.74724356790207 216.03109278350513 195.3 Z" fill="#ffffff" fill-opacity="1.0" stroke="#444444" stroke-width="1.9509278350515464"/><text x="260.33341237113405" y="180.65503505154635" fill="#333333" font-size="14.306804123711341" font-family="sans-serif" text-anchor="middle">alpha</text><text x="260.33341237113405" y="200.16431340206185" fill="#333333" font-size="14.6319587628866" font-family="sans-serif" text-anchor="middle">~</text><text x="260.33341237113405" y="219.67359175257732" fill="#333333" font-size="14.6319587628866" font-family="sans-serif" text-anchor="middle">Normal</text><path d="M 350.2549278350516 195.3 C 350.2549278350516 172.85275643209798 370.4100206530577 154.65567010309277 395.27258762886595 154.65567010309277 C 420.13515460467426 154.65567010309277 440.2902474226804 172.85275643209798 440.2902474226804 195.3 C 440.2902474226804 217.74724356790207 420.13515460467426 235.94432989690722 395.27258762886595 235.94432989690722 C 370.4100206530577 235.94432989690722 350.2549278350516 217.74724356790207 350.2549278350516 195.3 Z" fill="#ffffff" fill-opacity="1.0" stroke="#444444" stroke-width="1.9509278350515464"/><text x="395.27258762886595" y="180.65503505154635" fill="#333333" font-size="14.306804123711341" font-family="sans-serif" text-anchor="middle">gamma</text><text x="395.27258762886595" y="200.16431340206185" fill="#333333" font-size="14.6319587628866" font-family="sans-serif" text-anchor="middle">~</text><text x="395.27258762886595" y="219.67359175257732" fill="#333333" font-size="14.6319587628866" font-family="sans-serif" text-anchor="middle">Normal</text><path d="M 350.9702680412371 312.3556701030928 C 350.9702680412371 289.90842653519076 370.8050921398527 271.7113402061856 395.27258762886595 271.7113402061856 C 419.7400831178793 271.7113402061856 439.5749072164949 289.90842653519076 439.5749072164949 312.3556701030928 C 439.5749072164949 334.8029136709948 419.7400831178793 353.0 395.27258762886595 353.0 C 370.8050921398527 353.0 350.9702680412371 334.8029136709948 350.9702680412371 312.3556701030928 Z" fill="#cfcfcf" fill-opacity="1.0" stroke="#444444" stroke-width="1.9509278350515464"/><text x="395.27258762886595" y="297.7107051546392" fill="#333333" font-size="14.306804123711341" font-family="sans-serif" text-anchor="middle">y</text><text x="395.27258762886595" y="317.21998350515463" fill="#333333" font-size="14.6319587628866" font-family="sans-serif" text-anchor="middle">~</text><text x="395.27258762886595" y="336.7292618556701" fill="#333333" font-size="14.6319587628866" font-family="sans-serif" text-anchor="middle">Normal</text></svg>