<svg xmlns="http://www.w3.org/2000/svg" width="600" height="400" viewBox="0 0 600 400"><rect x="0.0" y="0.0" width="600.0" height="400.0" fill="#ffffff" fill-opacity="1.0" stroke="none"/><line x1="125.23292848484847" y1="32.266666666666666" x2="125.23292848484847" y2="356.0" stroke="#dddddd" stroke-width="0.6666666666666666"/><line x1="211.64127757575756" y1="32.266666666666666" x2="211.64127757575756" y2="356.0" stroke="#dddddd" stroke-width="0.6666666666666666"/><line x1="298.04962666666665" y1="32.266666666666666" x2="298.04962666666665" y2="356.0" stroke="#dddddd" stroke-width="0.6666666666666666"/><line x1="384.45797575757575" y1="32.266666666666666" x2="384.45797575757575" y2="356.0" stroke="#dddddd" stroke-width="0.6666666666666666"/><line x1="470.8663248484848" y1="32.266666666666666" x2="470.8663248484848" y2="356.0" stroke="#dddddd" stroke-width="0.6666666666666666"/><line x1="82.02875393939394" y1="32.266666666666666" x2="82.02875393939394" y2="356.0" stroke="#dddddd" stroke-width="1.3333333333333333"/><line x1="168.437103030303" y1="32.266666666666666" x2="168.437103030303" y2="356.0" stroke="#dddddd" stroke-width="1.3333333333333333"/><line x1="254.84545212121213" y1="32.266666666666666" x2="254.84545212121213" y2="356.0" stroke="#dddddd" stroke-width="1.3333333333333333"/><line x1="341.2538012121212" y1="32.266666666666666" x2="341.2538012121212" y2="356.0" stroke="#dddddd" stroke-width="1.3333333333333333"/><line x1="427.6621503030302" y1="32.266666666666666" x2="427.6621503030302" y2="356.0" stroke="#dddddd" stroke-width="1.3333333333333333"/><line x1="514.0704993939394" y1="32.266666666666666" x2="514.0704993939394" y2="356.0" stroke="#dddddd" stroke-width="1.3333333333333333"/><line x1="60.42666666666666" y1="304.4969696969697" x2="535.6725866666666" y2="304.4969696969697" stroke="#dddddd" stroke-width="0.6666666666666666"/><line x1="60.42666666666666" y1="230.9212121212121" x2="535.6725866666666" y2="230.9212121212121" stroke="#dddddd" stroke-width="0.6666666666666666"/><line x1="60.42666666666666" y1="157.34545454545452" x2="535.6725866666666" y2="157.34545454545452" stroke="#dddddd" stroke-width="0.6666666666666666"/><line x1="60.42666666666666" y1="83.76969696969695" x2="535.6725866666666" y2="83.76969696969695" stroke="#dddddd" stroke-width="0.6666666666666666"/><line x1="60.42666666666666" y1="341.28484848484845" x2="535.6725866666666" y2="341.28484848484845" stroke="#dddddd" stroke-width="1.3333333333333333"/><line x1="60.42666666666666" y1="267.7090909090909" x2="535.6725866666666" y2="267.7090909090909" stroke="#dddddd" stroke-width="1.3333333333333333"/><line x1="60.42666666666666" y1="194.13333333333333" x2="535.6725866666666" y2="194.13333333333333" stroke="#dddddd" stroke-width="1.3333333333333333"/><line x1="60.42666666666666" y1="120.55757575757573" x2="535.6725866666666" y2="120.55757575757573" stroke="#dddddd" stroke-width="1.3333333333333333"/><line x1="60.42666666666666" y1="46.981818181818156" x2="535.6725866666666" y2="46.981818181818156" stroke="#dddddd" stroke-width="1.3333333333333333"/><rect x="60.42666666666666" y="32.266666666666666" width="475.24591999999996" height="323.73333333333335" fill="#ffffff" fill-opacity="0.0" stroke="#444444" stroke-width="1.3333333333333333"/><line x1="82.02875393939394" y1="356.0" x2="82.02875393939394" y2="359.66666666666663" stroke="#444444" stroke-width="1.3333333333333333"/><text x="82.02875393939394" y="371.9866666666667" fill="#333333" font-size="11.733333333333334" font-family="sans-serif" text-anchor="middle">0</text><line x1="168.437103030303" y1="356.0" x2="168.437103030303" y2="359.66666666666663" stroke="#444444" stroke-width="1.3333333333333333"/><text x="168.437103030303" y="371.9866666666667" fill="#333333" font-size="11.733333333333334" font-family="sans-serif" text-anchor="middle">1</text><line x1="254.84545212121213" y1="356.0" x2="254.84545212121213" y2="359.66666666666663" stroke="#444444" stroke-width="1.3333333333333333"/><text x="254.84545212121213" y="371.9866666666667" fill="#333333" font-size="11.733333333333334" font-family="sans-serif" text-anchor="middle">2</text><line x1="341.2538012121212" y1="356.0" x2="341.2538012121212" y2="359.66666666666663" stroke="#444444" stroke-width="1.3333333333333333"/><text x="341.2538012121212" y="371.9866666666667" fill="#333333" font-size="11.733333333333334" font-family="sans-serif" text-anchor="middle">3</text><line x1="427.6621503030302" y1="356.0" x2="427.6621503030302" y2="359.66666666666663" stroke="#444444" stroke-width="1.3333333333333333"/><text x="427.6621503030302" y="371.9866666666667" fill="#333333" font-size="11.733333333333334" font-family="sans-serif" text-anchor="middle">4</text><line x1="514.0704993939394" y1="356.0" x2="514.0704993939394" y2="359.66666666666663" stroke="#444444" stroke-width="1.3333333333333333"/><text x="514.0704993939394" y="371.9866666666667" fill="#333333" font-size="11.733333333333334" font-family="sans-serif" text-anchor="middle">5</text><line x1="60.42666666666666" y1="341.28484848484845" x2="56.76" y2="341.28484848484845" stroke="#444444" stroke-width="1.3333333333333333"/><text x="53.82666666666666" y="345.39151515151514" fill="#333333" font-size="11.733333333333334" font-family="sans-serif" text-anchor="end">-5.0</text><line x1="60.42666666666666" y1="267.7090909090909" x2="56.76" y2="267.7090909090909" stroke="#444444" stroke-width="1.3333333333333333"/><text x="53.82666666666666" y="271.8157575757576" fill="#333333" font-size="11.733333333333334" font-family="sans-serif" text-anchor="end">-2.5</text><line x1="60.42666666666666" y1="194.13333333333333" x2="56.76" y2="194.13333333333333" stroke="#444444" stroke-width="1.3333333333333333"/><text x="53.82666666666666" y="198.24" fill="#333333" font-size="11.733333333333334" font-family="sans-serif" text-anchor="end">0.0</text><line x1="60.42666666666666" y1="120.55757575757573" x2="56.76" y2="120.55757575757573" stroke="#444444" stroke-width="1.3333333333333333"/><text x="53.82666666666666" y="124.6642424242424" fill="#333333" font-size="11.733333333333334" font-family="sans-serif" text-anchor="end">2.5</text><line x1="60.42666666666666" y1="46.981818181818156" x2="56.76" y2="46.981818181818156" stroke="#444444" stroke-width="1.3333333333333333"/><text x="53.82666666666666" y="51.088484848484825" fill="#333333" font-size="11.733333333333334" font-family="sans-serif" text-anchor="end">5.0</text><text x="60.42666666666666" y="21.413333333333334" fill="#333333" font-size="17.599999999999998" font-family="sans-serif" text-anchor="start">Streamgraph (= 中心化積層 area、 ThemeRiver 風、 color で系列分割)</text><text x="298.04962666666665" y="389.73333333333335" fill="#333333" font-size="14.666666666666666" font-family="sans-serif" text-anchor="middle">time</text><text x="17.599999999999998" y="194.13333333333333" fill="#333333" font-size="14.666666666666666" font-family="sans-serif" text-anchor="middle" transform="rotate(-90.0 17.599999999999998 194.13333333333333)">value (centered)</text><path d="M 82.02875393939394 252.9939393939394 L 168.437103030303 282.4242424242424 L 254.84545212121213 326.56969696969696 L 341.2538012121212 326.56969696969696 L 427.6621503030302 341.28484848484845 L 514.0704993939394 341.28484848484845 L 514.0704993939394 311.8545454545454 L 427.6621503030302 282.4242424242424 L 341.2538012121212 238.27878787878785 L 254.84545212121213 208.84848484848482 L 168.437103030303 223.56363636363633 L 82.02875393939394 223.56363636363633 Z" fill="#F8766D" fill-opacity="0.85" stroke="none"/><path d="M 82.02875393939394 223.56363636363633 L 168.437103030303 223.56363636363633 L 254.84545212121213 208.84848484848482 L 341.2538012121212 238.27878787878785 L 427.6621503030302 282.4242424242424 L 514.0704993939394 311.8545454545454 L 514.0704993939394 194.13333333333333 L 427.6621503030302 135.27272727272728 L 341.2538012121212 120.55757575757573 L 254.84545212121213 120.55757575757573 L 168.437103030303 135.27272727272728 L 82.02875393939394 164.70303030303026 Z" fill="#00BA38" fill-opacity="0.85" stroke="none"/><path d="M 82.02875393939394 164.70303030303026 L 168.437103030303 135.27272727272728 L 254.84545212121213 120.55757575757573 L 341.2538012121212 120.55757575757573 L 427.6621503030302 135.27272727272728 L 514.0704993939394 194.13333333333333 L 514.0704993939394 46.981818181818156 L 427.6621503030302 46.981818181818156 L 341.2538012121212 61.6969696969697 L 254.84545212121213 61.6969696969697 L 168.437103030303 105.84242424242423 L 82.02875393939394 135.27272727272728 Z" fill="#619CFF" fill-opacity="0.85" stroke="none"/><rect x="550.3392533333333" y="159.46221333333335" width="23.114079999999994" height="69.34223999999998" fill="#ffffff" fill-opacity="1.0" stroke="none"/><rect x="551.2841352230971" y="160.40709522309712" width="21.224316220472435" height="21.224316220472435" fill="#F8766D" fill-opacity="1.0" stroke="none"/><text x="577.1199999999999" y="174.77392" fill="#333333" font-size="11.733333333333334" font-family="sans-serif" text-anchor="start">A</text><rect x="551.2841352230971" y="183.5211752230971" width="21.224316220472435" height="21.224316220472435" fill="#00BA38" fill-opacity="1.0" stroke="none"/><text x="577.1199999999999" y="197.88799999999998" fill="#333333" font-size="11.733333333333334" font-family="sans-serif" text-anchor="start">B</text><rect x="551.2841352230971" y="206.63525522309715" width="21.224316220472435" height="21.224316220472435" fill="#619CFF" fill-opacity="1.0" stroke="none"/><text x="577.1199999999999" y="221.00208" fill="#333333" font-size="11.733333333333334" font-family="sans-serif" text-anchor="start">C</text></svg>