<svg xmlns="http://www.w3.org/2000/svg" width="640" height="420" viewBox="0 0 640 420"><rect x="0.0" y="0.0" width="640.0" height="420.0" fill="#ffffff" fill-opacity="1.0" stroke="none"/><line x1="121.29394209210751" y1="54.266666666666666" x2="121.29394209210751" y2="356.66666666666663" stroke="#eeeeee" stroke-width="0.6666666666666666"/><line x1="236.379954761171" y1="54.266666666666666" x2="236.379954761171" y2="356.66666666666663" stroke="#eeeeee" stroke-width="0.6666666666666666"/><line x1="351.46596743023457" y1="54.266666666666666" x2="351.46596743023457" y2="356.66666666666663" stroke="#eeeeee" stroke-width="0.6666666666666666"/><line x1="466.55198009929813" y1="54.266666666666666" x2="466.55198009929813" y2="356.66666666666663" stroke="#eeeeee" stroke-width="0.6666666666666666"/><line x1="63.75093575757576" y1="54.266666666666666" x2="63.75093575757576" y2="356.66666666666663" stroke="#eeeeee" stroke-width="1.3333333333333333"/><line x1="178.83694842663925" y1="54.266666666666666" x2="178.83694842663925" y2="356.66666666666663" stroke="#eeeeee" stroke-width="1.3333333333333333"/><line x1="293.9229610957027" y1="54.266666666666666" x2="293.9229610957027" y2="356.66666666666663" stroke="#eeeeee" stroke-width="1.3333333333333333"/><line x1="409.0089737647663" y1="54.266666666666666" x2="409.0089737647663" y2="356.66666666666663" stroke="#eeeeee" stroke-width="1.3333333333333333"/><line x1="524.0949864338298" y1="54.266666666666666" x2="524.0949864338298" y2="356.66666666666663" stroke="#eeeeee" stroke-width="1.3333333333333333"/><line x1="39.306666666666665" y1="320.85354833512463" x2="577.0805866666667" y2="320.85354833512463" stroke="#eeeeee" stroke-width="0.6666666666666666"/><line x1="39.306666666666665" y1="243.16546120677583" x2="577.0805866666667" y2="243.16546120677583" stroke="#eeeeee" stroke-width="0.6666666666666666"/><line x1="39.306666666666665" y1="165.47737407842703" x2="577.0805866666667" y2="165.47737407842703" stroke="#eeeeee" stroke-width="0.6666666666666666"/><line x1="39.306666666666665" y1="87.78928695007824" x2="577.0805866666667" y2="87.78928695007824" stroke="#eeeeee" stroke-width="0.6666666666666666"/><line x1="39.306666666666665" y1="282.00950477095023" x2="577.0805866666667" y2="282.00950477095023" stroke="#eeeeee" stroke-width="1.3333333333333333"/><line x1="39.306666666666665" y1="204.32141764260138" x2="577.0805866666667" y2="204.32141764260138" stroke="#eeeeee" stroke-width="1.3333333333333333"/><line x1="39.306666666666665" y1="126.63333051425263" x2="577.0805866666667" y2="126.63333051425263" stroke="#eeeeee" stroke-width="1.3333333333333333"/><rect x="39.306666666666665" y="54.266666666666666" width="537.77392" height="302.4" fill="#ffffff" fill-opacity="0.0" stroke="#333333" stroke-width="1.3333333333333333"/><line x1="63.75093575757576" y1="356.66666666666663" x2="63.75093575757576" y2="360.3333333333333" stroke="#333333" stroke-width="1.3333333333333333"/><text x="63.75093575757576" y="372.6533333333333" fill="#333333" font-size="11.733333333333334" font-family="sans-serif" text-anchor="middle">0.0</text><line x1="178.83694842663925" y1="356.66666666666663" x2="178.83694842663925" y2="360.3333333333333" stroke="#333333" stroke-width="1.3333333333333333"/><text x="178.83694842663925" y="372.6533333333333" fill="#333333" font-size="11.733333333333334" font-family="sans-serif" text-anchor="middle">2.5</text><line x1="293.9229610957027" y1="356.66666666666663" x2="293.9229610957027" y2="360.3333333333333" stroke="#333333" stroke-width="1.3333333333333333"/><text x="293.9229610957027" y="372.6533333333333" fill="#333333" font-size="11.733333333333334" font-family="sans-serif" text-anchor="middle">5.0</text><line x1="409.0089737647663" y1="356.66666666666663" x2="409.0089737647663" y2="360.3333333333333" stroke="#333333" stroke-width="1.3333333333333333"/><text x="409.0089737647663" y="372.6533333333333" fill="#333333" font-size="11.733333333333334" font-family="sans-serif" text-anchor="middle">7.5</text><line x1="524.0949864338298" y1="356.66666666666663" x2="524.0949864338298" y2="360.3333333333333" stroke="#333333" stroke-width="1.3333333333333333"/><text x="524.0949864338298" y="372.6533333333333" fill="#333333" font-size="11.733333333333334" font-family="sans-serif" text-anchor="middle">10.0</text><line x1="39.306666666666665" y1="282.00950477095023" x2="35.64" y2="282.00950477095023" stroke="#333333" stroke-width="1.3333333333333333"/><text x="32.70666666666666" y="286.1161714376169" fill="#333333" font-size="11.733333333333334" font-family="sans-serif" text-anchor="end">2</text><line x1="39.306666666666665" y1="204.32141764260138" x2="35.64" y2="204.32141764260138" stroke="#333333" stroke-width="1.3333333333333333"/><text x="32.70666666666666" y="208.42808430926806" fill="#333333" font-size="11.733333333333334" font-family="sans-serif" text-anchor="end">4</text><line x1="39.306666666666665" y1="126.63333051425263" x2="35.64" y2="126.63333051425263" stroke="#333333" stroke-width="1.3333333333333333"/><text x="32.70666666666666" y="130.7399971809193" fill="#333333" font-size="11.733333333333334" font-family="sans-serif" text-anchor="end">6</text><text x="39.306666666666665" y="21.413333333333334" fill="#333333" font-size="17.599999999999998" font-family="sans-serif" text-anchor="start">高度な図: 連続色 + サイズ + 回帰 + 参照線</text><text x="39.306666666666665" y="40.480000000000004" fill="#333333" font-size="14.666666666666666" font-family="sans-serif" text-anchor="start">colorContinuousBy / sizeBy / line overlay / refHorizontal / theme</text><text x="308.19362666666666" y="409.73333333333335" fill="#333333" font-size="14.666666666666666" font-family="sans-serif" text-anchor="middle">x</text><text x="17.599999999999998" y="205.4666666666667" fill="#333333" font-size="14.666666666666666" font-family="sans-serif" text-anchor="middle" transform="rotate(-90.0 17.599999999999998 205.4666666666667)">y</text><text x="577.0805866666667" y="412.66666666666663" fill="#333333" font-size="12.0" font-family="sans-serif" text-anchor="end">hgg ─ &lt;&gt; で設定を積層</text><circle cx="63.75093575757576" cy="307.5945649760967" r="7.9290452590120255" fill="#3f2b70" fill-opacity="0.85" stroke="none"><title>(0, 1.341338906623)</title></circle><circle cx="72.03712866974833" cy="333.68795006423926" r="5.045904831120422" fill="#430c5b" fill-opacity="0.85" stroke="none"><title>(0.18, 0.669591511298)</title></circle><circle cx="80.32332158192091" cy="298.210835055606" r="8.092044664002923" fill="#3e3678" fill-opacity="0.85" stroke="none"><title>(0.36, 1.582913394228)</title></circle><circle cx="88.60951449409347" cy="342.9212121212121" r="3.4160754808882485" fill="#440154" fill-opacity="0.85" stroke="none"><title>(0.54, 0.431890664276)</title></circle><circle cx="96.89570740626604" cy="304.0549062891122" r="6.788596652528632" fill="#3f2f73" fill-opacity="0.85" stroke="none"><title>(0.72, 1.432463783495)</title></circle><circle cx="105.18190031843861" cy="302.5088292423569" r="6.56715487898083" fill="#3f3174" fill-opacity="0.85" stroke="none"><title>(0.9, 1.472265948895)</title></circle><circle cx="113.46809323061122" cy="289.02323056976115" r="7.495497008242168" fill="#3d417f" fill-opacity="0.85" stroke="none"><title>(1.08, 1.819438833982)</title></circle><circle cx="121.75428614278377" cy="305.04788885751634" r="5.581981692617437" fill="#3f2e72" fill-opacity="0.85" stroke="none"><title>(1.26, 1.406900467288)</title></circle><circle cx="130.04047905495634" cy="310.88354371292473" r="4.649674209208083" fill="#40276e" fill-opacity="0.85" stroke="none"><title>(1.44, 1.256667527564)</title></circle><circle cx="138.3266719671289" cy="296.9955037062113" r="5.616771707595103" fill="#3e3779" fill-opacity="0.85" stroke="none"><title>(1.62, 1.614200851399)</title></circle><circle cx="146.61286487930147" cy="254.57446350653396" r="9.3316161718" fill="#34648b" fill-opacity="0.85" stroke="none"><title>(1.8, 2.706286955401)</title></circle><circle cx="154.89905779147406" cy="306.52072487512936" r="3.9588264999849834" fill="#3f2c71" fill-opacity="0.85" stroke="none"><title>(1.98, 1.368983816948)</title></circle><circle cx="163.18525070364663" cy="291.98519609879486" r="4.988277599118353" fill="#3d3d7d" fill-opacity="0.85" stroke="none"><title>(2.16, 1.743186074041)</title></circle><circle cx="171.47144361581917" cy="258.5955795402044" r="7.833389937749864" fill="#35608b" fill-opacity="0.85" stroke="none"><title>(2.34, 2.602767453704)</title></circle><circle cx="179.75763652799176" cy="242.2626976167051" r="9.035927344780259" fill="#2f6f8b" fill-opacity="0.85" stroke="none"><title>(2.52, 3.023240721285)</title></circle><circle cx="188.0438294401643" cy="221.48330534447092" r="10.666666666666666" fill="#27828c" fill-opacity="0.85" stroke="none"><title>(2.7, 3.55818483023)</title></circle><circle cx="196.3300223523369" cy="233.6387300532772" r="9.125761127605823" fill="#2c778c" fill-opacity="0.85" stroke="none"><title>(2.88, 3.245255907454)</title></circle><circle cx="204.61621526450952" cy="258.53350044693093" r="6.358048094930035" fill="#35608b" fill-opacity="0.85" stroke="none"><title>(3.06, 2.604365616191)</title></circle><circle cx="212.90240817668206" cy="248.30075941805504" r="6.973137861652486" fill="#316a8b" fill-opacity="0.85" stroke="none"><title>(3.24, 2.867797022656)</title></circle><circle cx="221.18860108885465" cy="237.06366208867362" r="7.684947810572756" fill="#2d748c" fill-opacity="0.85" stroke="none"><title>(3.42, 3.157084550377)</title></circle><circle cx="229.47479400102716" cy="265.30725646370223" r="4.594740792979463" fill="#385a8b" fill-opacity="0.85" stroke="none"><title>(3.6, 2.429982225709)</title></circle><circle cx="237.76098691319976" cy="222.67314200850424" r="8.330104450228948" fill="#28818c" fill-opacity="0.85" stroke="none"><title>(3.78, 3.527553707544)</title></circle><circle cx="246.04717982537233" cy="217.7682969452669" r="8.432114278817629" fill="#26868c" fill-opacity="0.85" stroke="none"><title>(3.96, 3.653823905319)</title></circle><circle cx="254.3333727375449" cy="191.42757856376966" r="10.598413017495382" fill="#2d9c83" fill-opacity="0.85" stroke="none"><title>(4.14, 4.331938642215)</title></circle><circle cx="262.6195656497175" cy="243.17137602215408" r="5.245120755388692" fill="#2f6e8b" fill-opacity="0.85" stroke="none"><title>(4.32, 2.999847729154)</title></circle><circle cx="270.90575856189" cy="229.37556888300608" r="6.203336167059014" fill="#2a7b8c" fill-opacity="0.85" stroke="none"><title>(4.5, 3.355006612558)</title></circle><circle cx="279.1919514740626" cy="203.05963020546142" r="8.367248603704422" fill="#23938b" fill-opacity="0.85" stroke="none"><title>(4.68, 4.03248342143)</title></circle><circle cx="287.47814438623516" cy="196.52276845135975" r="8.626422729077852" fill="#299887" fill-opacity="0.85" stroke="none"><title>(4.86, 4.200768212464)</title></circle><circle cx="295.7643372984078" cy="241.141219062955" r="3.959306124850026" fill="#2e708b" fill-opacity="0.85" stroke="none"><title>(5.04, 3.052112034641)</title></circle><circle cx="304.0505302105803" cy="250.71861303541397" r="2.6666666666666665" fill="#32688b" fill-opacity="0.85" stroke="none"><title>(5.22, 2.805551864956)</title></circle><circle cx="312.3367231227529" cy="181.3385582674453" r="8.97768223031764" fill="#36a57d" fill-opacity="0.85" stroke="none"><title>(5.4, 4.591670106053)</title></circle><circle cx="320.6229160349255" cy="240.8482681468411" r="2.8765274179242306" fill="#2e718b" fill-opacity="0.85" stroke="none"><title>(5.58, 3.05965375505)</title></circle><circle cx="328.90910894709805" cy="189.4693309842811" r="7.454023339508629" fill="#2f9e82" fill-opacity="0.85" stroke="none"><title>(5.76, 4.382351714589)</title></circle><circle cx="337.1953018592706" cy="215.68198337017566" r="4.5593973912264945" fill="#25888c" fill-opacity="0.85" stroke="none"><title>(5.94, 3.707533905197)</title></circle><circle cx="345.4814947714432" cy="185.2794817687375" r="7.116848565432382" fill="#33a180" fill-opacity="0.85" stroke="none"><title>(6.12, 4.490215078726)</title></circle><circle cx="353.7676876836158" cy="184.9583525177633" r="6.7774435014356245" fill="#33a27f" fill-opacity="0.85" stroke="none"><title>(6.3, 4.498482221421)</title></circle><circle cx="362.05388059578837" cy="191.1769444101034" r="5.808258925739702" fill="#2e9d83" fill-opacity="0.85" stroke="none"><title>(6.48, 4.338390961044)</title></circle><circle cx="370.34007350796094" cy="205.69041911780425" r="4.040271597666463" fill="#21918c" fill-opacity="0.85" stroke="none"><title>(6.66, 3.964756463293)</title></circle><circle cx="378.62626642013356" cy="162.24920992727073" r="7.853359016705731" fill="#47b472" fill-opacity="0.85" stroke="none"><title>(6.84, 5.083105770022)</title></circle><circle cx="386.91245933230607" cy="152.37150192734845" r="8.434258865737256" fill="#50bc6c" fill-opacity="0.85" stroke="none"><title>(7.02, 5.337397215854)</title></circle><circle cx="395.19865224447864" cy="183.70016856899775" r="5.046957329425028" fill="#34a37f" fill-opacity="0.85" stroke="none"><title>(7.2, 4.530872874744)</title></circle><circle cx="403.4848451566512" cy="122.89447220135783" r="10.532256455302033" fill="#7ecf56" fill-opacity="0.85" stroke="none"><title>(7.38, 6.096253066618)</title></circle><circle cx="411.7710380688238" cy="130.75191500064824" r="9.405249443250081" fill="#6ccc5d" fill-opacity="0.85" stroke="none"><title>(7.56, 5.893971273109)</title></circle><circle cx="420.0572309809964" cy="164.88685466223262" r="5.747701941787492" fill="#45b273" fill-opacity="0.85" stroke="none"><title>(7.74, 5.015202315774)</title></circle><circle cx="428.34342389316896" cy="134.14105368128267" r="8.338213075410245" fill="#64ca60" fill-opacity="0.85" stroke="none"><title>(7.92, 5.806721379183)</title></circle><circle cx="436.6296168053416" cy="179.80555607648307" r="3.5703609861282333" fill="#38a67c" fill-opacity="0.85" stroke="none"><title>(8.1, 4.631135672722)</title></circle><circle cx="444.91580971751415" cy="134.7484991210387" r="7.53905562358936" fill="#63ca60" fill-opacity="0.85" stroke="none"><title>(8.28, 5.79108332032)</title></circle><circle cx="453.20200262968666" cy="135.91831869485412" r="7.0560711924808475" fill="#60c961" fill-opacity="0.85" stroke="none"><title>(8.46, 5.760967517059)</title></circle><circle cx="461.48819554185934" cy="119.18522756049727" r="8.297149013676915" fill="#87d152" fill-opacity="0.85" stroke="none"><title>(8.64, 6.191743759669)</title></circle><circle cx="469.7743884540319" cy="97.89761697076422" r="9.97683009880015" fill="#b8da40" fill-opacity="0.85" stroke="none"><title>(8.82, 6.739771427143)</title></circle><circle cx="478.0605813662044" cy="137.3883572426688" r="5.803515423293179" fill="#5dc862" fill-opacity="0.85" stroke="none"><title>(9, 5.723122884706)</title></circle><circle cx="486.346774278377" cy="96.33152701374941" r="9.386985556634226" fill="#bbdb3e" fill-opacity="0.85" stroke="none"><title>(9.18, 6.78008880436)</title></circle><circle cx="494.6329671905495" cy="110.7607287617413" r="7.627113770837463" fill="#9ad44b" fill-opacity="0.85" stroke="none"><title>(9.36, 6.40862382739)</title></circle><circle cx="502.9191601027222" cy="158.38687768091452" r="2.6703538117975887" fill="#4bb76f" fill-opacity="0.85" stroke="none"><title>(9.54, 5.182537546221)</title></circle><circle cx="511.2053530148947" cy="123.8768637006506" r="5.623361170058776" fill="#7ccf57" fill-opacity="0.85" stroke="none"><title>(9.72, 6.070962406605)</title></circle><circle cx="519.4915459270674" cy="142.71278946969247" r="3.439118919321462" fill="#59c466" fill-opacity="0.85" stroke="none"><title>(9.9, 5.586050846409)</title></circle><circle cx="527.7777388392399" cy="100.35317110064287" r="7.148048420234699" fill="#b2d942" fill-opacity="0.85" stroke="none"><title>(10.08, 6.676555708475)</title></circle><circle cx="536.0639317514124" cy="112.75030134750932" r="5.583866476507865" fill="#95d34d" fill-opacity="0.85" stroke="none"><title>(10.26, 6.357404324908)</title></circle><circle cx="544.350124663585" cy="127.73208691218511" r="3.7707805002865094" fill="#73cd5a" fill-opacity="0.85" stroke="none"><title>(10.44, 5.971713645205)</title></circle><circle cx="552.6363175757575" cy="68.0121212121212" r="9.151523038095249" fill="#fde725" fill-opacity="0.85" stroke="none"><title>(10.62, 7.509142816331)</title></circle><line x1="63.75093575757576" y1="318.97713729483644" x2="72.03712866974833" y2="315.16794116656126" stroke="#ef4444" stroke-width="2.6666666666666665"/><line x1="72.03712866974833" y1="315.16794116656126" x2="80.32332158192091" y2="311.35874503828614" stroke="#ef4444" stroke-width="2.6666666666666665"/><line x1="80.32332158192091" y1="311.35874503828614" x2="88.60951449409347" y2="307.549548910011" stroke="#ef4444" stroke-width="2.6666666666666665"/><line x1="88.60951449409347" y1="307.549548910011" x2="96.89570740626604" y2="303.7403527817359" stroke="#ef4444" stroke-width="2.6666666666666665"/><line x1="96.89570740626604" y1="303.7403527817359" x2="105.18190031843861" y2="299.9311566534608" stroke="#ef4444" stroke-width="2.6666666666666665"/><line x1="105.18190031843861" y1="299.9311566534608" x2="113.46809323061122" y2="296.12196052518567" stroke="#ef4444" stroke-width="2.6666666666666665"/><line x1="113.46809323061122" y1="296.12196052518567" x2="121.75428614278377" y2="292.31276439691055" stroke="#ef4444" stroke-width="2.6666666666666665"/><line x1="121.75428614278377" y1="292.31276439691055" x2="130.04047905495634" y2="288.5035682686354" stroke="#ef4444" stroke-width="2.6666666666666665"/><line x1="130.04047905495634" y1="288.5035682686354" x2="138.3266719671289" y2="284.69437214036026" stroke="#ef4444" stroke-width="2.6666666666666665"/><line x1="138.3266719671289" y1="284.69437214036026" x2="146.61286487930147" y2="280.88517601208514" stroke="#ef4444" stroke-width="2.6666666666666665"/><line x1="146.61286487930147" y1="280.88517601208514" x2="154.89905779147406" y2="277.07597988380996" stroke="#ef4444" stroke-width="2.6666666666666665"/><line x1="154.89905779147406" y1="277.07597988380996" x2="163.18525070364663" y2="273.26678375553485" stroke="#ef4444" stroke-width="2.6666666666666665"/><line x1="163.18525070364663" y1="273.26678375553485" x2="171.47144361581917" y2="269.4575876272597" stroke="#ef4444" stroke-width="2.6666666666666665"/><line x1="171.47144361581917" y1="269.4575876272597" x2="179.75763652799176" y2="265.6483914989846" stroke="#ef4444" stroke-width="2.6666666666666665"/><line x1="179.75763652799176" y1="265.6483914989846" x2="188.0438294401643" y2="261.8391953707095" stroke="#ef4444" stroke-width="2.6666666666666665"/><line x1="188.0438294401643" y1="261.8391953707095" x2="196.3300223523369" y2="258.02999924243437" stroke="#ef4444" stroke-width="2.6666666666666665"/><line x1="196.3300223523369" y1="258.02999924243437" x2="204.61621526450952" y2="254.22080311415925" stroke="#ef4444" stroke-width="2.6666666666666665"/><line x1="204.61621526450952" y1="254.22080311415925" x2="212.90240817668206" y2="250.4116069858841" stroke="#ef4444" stroke-width="2.6666666666666665"/><line x1="212.90240817668206" y1="250.4116069858841" x2="221.18860108885465" y2="246.60241085760896" stroke="#ef4444" stroke-width="2.6666666666666665"/><line x1="221.18860108885465" y1="246.60241085760896" x2="229.47479400102716" y2="242.79321472933387" stroke="#ef4444" stroke-width="2.6666666666666665"/><line x1="229.47479400102716" y1="242.79321472933387" x2="237.76098691319976" y2="238.9840186010587" stroke="#ef4444" stroke-width="2.6666666666666665"/><line x1="237.76098691319976" y1="238.9840186010587" x2="246.04717982537233" y2="235.1748224727836" stroke="#ef4444" stroke-width="2.6666666666666665"/><line x1="246.04717982537233" y1="235.1748224727836" x2="254.3333727375449" y2="231.36562634450846" stroke="#ef4444" stroke-width="2.6666666666666665"/><line x1="254.3333727375449" y1="231.36562634450846" x2="262.6195656497175" y2="227.5564302162333" stroke="#ef4444" stroke-width="2.6666666666666665"/><line x1="262.6195656497175" y1="227.5564302162333" x2="270.90575856189" y2="223.74723408795822" stroke="#ef4444" stroke-width="2.6666666666666665"/><line x1="270.90575856189" y1="223.74723408795822" x2="279.1919514740626" y2="219.93803795968307" stroke="#ef4444" stroke-width="2.6666666666666665"/><line x1="279.1919514740626" y1="219.93803795968307" x2="287.47814438623516" y2="216.12884183140798" stroke="#ef4444" stroke-width="2.6666666666666665"/><line x1="287.47814438623516" y1="216.12884183140798" x2="295.7643372984078" y2="212.3196457031328" stroke="#ef4444" stroke-width="2.6666666666666665"/><line x1="295.7643372984078" y1="212.3196457031328" x2="304.0505302105803" y2="208.51044957485766" stroke="#ef4444" stroke-width="2.6666666666666665"/><line x1="304.0505302105803" y1="208.51044957485766" x2="312.3367231227529" y2="204.7012534465826" stroke="#ef4444" stroke-width="2.6666666666666665"/><line x1="312.3367231227529" y1="204.7012534465826" x2="320.6229160349255" y2="200.8920573183074" stroke="#ef4444" stroke-width="2.6666666666666665"/><line x1="320.6229160349255" y1="200.8920573183074" x2="328.90910894709805" y2="197.08286119003225" stroke="#ef4444" stroke-width="2.6666666666666665"/><line x1="328.90910894709805" y1="197.08286119003225" x2="337.1953018592706" y2="193.27366506175719" stroke="#ef4444" stroke-width="2.6666666666666665"/><line x1="337.1953018592706" y1="193.27366506175719" x2="345.4814947714432" y2="189.46446893348207" stroke="#ef4444" stroke-width="2.6666666666666665"/><line x1="345.4814947714432" y1="189.46446893348207" x2="353.7676876836158" y2="185.6552728052069" stroke="#ef4444" stroke-width="2.6666666666666665"/><line x1="353.7676876836158" y1="185.6552728052069" x2="362.05388059578837" y2="181.84607667693177" stroke="#ef4444" stroke-width="2.6666666666666665"/><line x1="362.05388059578837" y1="181.84607667693177" x2="370.34007350796094" y2="178.03688054865665" stroke="#ef4444" stroke-width="2.6666666666666665"/><line x1="370.34007350796094" y1="178.03688054865665" x2="378.62626642013356" y2="174.2276844203815" stroke="#ef4444" stroke-width="2.6666666666666665"/><line x1="378.62626642013356" y1="174.2276844203815" x2="386.91245933230607" y2="170.41848829210642" stroke="#ef4444" stroke-width="2.6666666666666665"/><line x1="386.91245933230607" y1="170.41848829210642" x2="395.19865224447864" y2="166.60929216383127" stroke="#ef4444" stroke-width="2.6666666666666665"/><line x1="395.19865224447864" y1="166.60929216383127" x2="403.4848451566512" y2="162.8000960355561" stroke="#ef4444" stroke-width="2.6666666666666665"/><line x1="403.4848451566512" y1="162.8000960355561" x2="411.7710380688238" y2="158.99089990728095" stroke="#ef4444" stroke-width="2.6666666666666665"/><line x1="411.7710380688238" y1="158.99089990728095" x2="420.0572309809964" y2="155.18170377900586" stroke="#ef4444" stroke-width="2.6666666666666665"/><line x1="420.0572309809964" y1="155.18170377900586" x2="428.34342389316896" y2="151.3725076507307" stroke="#ef4444" stroke-width="2.6666666666666665"/><line x1="428.34342389316896" y1="151.3725076507307" x2="436.6296168053416" y2="147.5633115224556" stroke="#ef4444" stroke-width="2.6666666666666665"/><line x1="436.6296168053416" y1="147.5633115224556" x2="444.91580971751415" y2="143.75411539418047" stroke="#ef4444" stroke-width="2.6666666666666665"/><line x1="444.91580971751415" y1="143.75411539418047" x2="453.20200262968666" y2="139.94491926590538" stroke="#ef4444" stroke-width="2.6666666666666665"/><line x1="453.20200262968666" y1="139.94491926590538" x2="461.48819554185934" y2="136.1357231376302" stroke="#ef4444" stroke-width="2.6666666666666665"/><line x1="461.48819554185934" y1="136.1357231376302" x2="469.7743884540319" y2="132.32652700935506" stroke="#ef4444" stroke-width="2.6666666666666665"/><line x1="469.7743884540319" y1="132.32652700935506" x2="478.0605813662044" y2="128.51733088107994" stroke="#ef4444" stroke-width="2.6666666666666665"/><line x1="478.0605813662044" y1="128.51733088107994" x2="486.346774278377" y2="124.70813475280484" stroke="#ef4444" stroke-width="2.6666666666666665"/><line x1="486.346774278377" y1="124.70813475280484" x2="494.6329671905495" y2="120.8989386245297" stroke="#ef4444" stroke-width="2.6666666666666665"/><line x1="494.6329671905495" y1="120.8989386245297" x2="502.9191601027222" y2="117.0897424962546" stroke="#ef4444" stroke-width="2.6666666666666665"/><line x1="502.9191601027222" y1="117.0897424962546" x2="511.2053530148947" y2="113.28054636797947" stroke="#ef4444" stroke-width="2.6666666666666665"/><line x1="511.2053530148947" y1="113.28054636797947" x2="519.4915459270674" y2="109.4713502397043" stroke="#ef4444" stroke-width="2.6666666666666665"/><line x1="519.4915459270674" y1="109.4713502397043" x2="527.7777388392399" y2="105.66215411142919" stroke="#ef4444" stroke-width="2.6666666666666665"/><line x1="527.7777388392399" y1="105.66215411142919" x2="536.0639317514124" y2="101.85295798315406" stroke="#ef4444" stroke-width="2.6666666666666665"/><line x1="536.0639317514124" y1="101.85295798315406" x2="544.350124663585" y2="98.04376185487891" stroke="#ef4444" stroke-width="2.6666666666666665"/><line x1="544.350124663585" y1="98.04376185487891" x2="552.6363175757575" y2="94.23456572660382" stroke="#ef4444" stroke-width="2.6666666666666665"/><line x1="39.306666666666665" y1="320.85354833512463" x2="577.0805866666667" y2="320.85354833512463" stroke="#333333" stroke-width="2.0"/><rect x="591.7472533333333" y="282.1" width="23.114079999999994" height="4.699999999999999" fill="#440154" fill-opacity="1.0" stroke="none"/><rect x="591.7472533333333" y="278.06666666666666" width="23.114079999999994" height="4.699999999999999" fill="#43095a" fill-opacity="1.0" stroke="none"/><rect x="591.7472533333333" y="274.0333333333333" width="23.114079999999994" height="4.699999999999999" fill="#42125f" fill-opacity="1.0" stroke="none"/><rect x="591.7472533333333" y="270.0" width="23.114079999999994" height="4.699999999999999" fill="#411a65" fill-opacity="1.0" stroke="none"/><rect x="591.7472533333333" y="265.9666666666667" width="23.114079999999994" height="4.699999999999999" fill="#40226b" fill-opacity="1.0" stroke="none"/><rect x="591.7472533333333" y="261.93333333333334" width="23.114079999999994" height="4.699999999999999" fill="#3f2b70" fill-opacity="1.0" stroke="none"/><rect x="591.7472533333333" y="257.9" width="23.114079999999994" height="4.699999999999999" fill="#3e3376" fill-opacity="1.0" stroke="none"/><rect x="591.7472533333333" y="253.86666666666667" width="23.114079999999994" height="4.699999999999999" fill="#3e3b7b" fill-opacity="1.0" stroke="none"/><rect x="591.7472533333333" y="249.83333333333337" width="23.114079999999994" height="4.699999999999999" fill="#3d4381" fill-opacity="1.0" stroke="none"/><rect x="591.7472533333333" y="245.8" width="23.114079999999994" height="4.699999999999999" fill="#3c4c87" fill-opacity="1.0" stroke="none"/><rect x="591.7472533333333" y="241.76666666666668" width="23.114079999999994" height="4.699999999999999" fill="#3a548b" fill-opacity="1.0" stroke="none"/><rect x="591.7472533333333" y="237.73333333333335" width="23.114079999999994" height="4.699999999999999" fill="#385a8b" fill-opacity="1.0" stroke="none"/><rect x="591.7472533333333" y="233.7" width="23.114079999999994" height="4.699999999999999" fill="#35618b" fill-opacity="1.0" stroke="none"/><rect x="591.7472533333333" y="229.66666666666669" width="23.114079999999994" height="4.699999999999999" fill="#32678b" fill-opacity="1.0" stroke="none"/><rect x="591.7472533333333" y="225.63333333333335" width="23.114079999999994" height="4.699999999999999" fill="#306d8b" fill-opacity="1.0" stroke="none"/><rect x="591.7472533333333" y="221.60000000000002" width="23.114079999999994" height="4.699999999999999" fill="#2d748c" fill-opacity="1.0" stroke="none"/><rect x="591.7472533333333" y="217.56666666666666" width="23.114079999999994" height="4.699999999999999" fill="#2a7a8c" fill-opacity="1.0" stroke="none"/><rect x="591.7472533333333" y="213.53333333333333" width="23.114079999999994" height="4.699999999999999" fill="#28818c" fill-opacity="1.0" stroke="none"/><rect x="591.7472533333333" y="209.50000000000003" width="23.114079999999994" height="4.699999999999999" fill="#25878c" fill-opacity="1.0" stroke="none"/><rect x="591.7472533333333" y="205.4666666666667" width="23.114079999999994" height="4.699999999999999" fill="#228e8c" fill-opacity="1.0" stroke="none"/><rect x="591.7472533333333" y="201.43333333333334" width="23.114079999999994" height="4.699999999999999" fill="#24948a" fill-opacity="1.0" stroke="none"/><rect x="591.7472533333333" y="197.4" width="23.114079999999994" height="4.699999999999999" fill="#2a9a86" fill-opacity="1.0" stroke="none"/><rect x="591.7472533333333" y="193.36666666666667" width="23.114079999999994" height="4.699999999999999" fill="#319f81" fill-opacity="1.0" stroke="none"/><rect x="591.7472533333333" y="189.33333333333337" width="23.114079999999994" height="4.699999999999999" fill="#37a57d" fill-opacity="1.0" stroke="none"/><rect x="591.7472533333333" y="185.3" width="23.114079999999994" height="4.699999999999999" fill="#3dab79" fill-opacity="1.0" stroke="none"/><rect x="591.7472533333333" y="181.26666666666668" width="23.114079999999994" height="4.699999999999999" fill="#43b174" fill-opacity="1.0" stroke="none"/><rect x="591.7472533333333" y="177.23333333333338" width="23.114079999999994" height="4.699999999999999" fill="#4ab670" fill-opacity="1.0" stroke="none"/><rect x="591.7472533333333" y="173.2" width="23.114079999999994" height="4.699999999999999" fill="#50bc6c" fill-opacity="1.0" stroke="none"/><rect x="591.7472533333333" y="169.16666666666669" width="23.114079999999994" height="4.699999999999999" fill="#56c267" fill-opacity="1.0" stroke="none"/><rect x="591.7472533333333" y="165.13333333333335" width="23.114079999999994" height="4.699999999999999" fill="#5cc863" fill-opacity="1.0" stroke="none"/><rect x="591.7472533333333" y="161.10000000000002" width="23.114079999999994" height="4.699999999999999" fill="#6acb5d" fill-opacity="1.0" stroke="none"/><rect x="591.7472533333333" y="157.0666666666667" width="23.114079999999994" height="4.699999999999999" fill="#7bce57" fill-opacity="1.0" stroke="none"/><rect x="591.7472533333333" y="153.03333333333336" width="23.114079999999994" height="4.699999999999999" fill="#8bd151" fill-opacity="1.0" stroke="none"/><rect x="591.7472533333333" y="149.0" width="23.114079999999994" height="4.699999999999999" fill="#9bd54b" fill-opacity="1.0" stroke="none"/><rect x="591.7472533333333" y="144.9666666666667" width="23.114079999999994" height="4.699999999999999" fill="#abd844" fill-opacity="1.0" stroke="none"/><rect x="591.7472533333333" y="140.93333333333334" width="23.114079999999994" height="4.699999999999999" fill="#bcdb3e" fill-opacity="1.0" stroke="none"/><rect x="591.7472533333333" y="136.90000000000003" width="23.114079999999994" height="4.699999999999999" fill="#ccde38" fill-opacity="1.0" stroke="none"/><rect x="591.7472533333333" y="132.86666666666667" width="23.114079999999994" height="4.699999999999999" fill="#dce132" fill-opacity="1.0" stroke="none"/><rect x="591.7472533333333" y="128.83333333333334" width="23.114079999999994" height="4.699999999999999" fill="#ede42b" fill-opacity="1.0" stroke="none"/><rect x="591.7472533333333" y="124.80000000000003" width="23.114079999999994" height="4.699999999999999" fill="#fde725" fill-opacity="1.0" stroke="none"/><text x="618.528" y="254.1413146017643" fill="#333333" font-size="11.733333333333334" font-family="sans-serif" text-anchor="start">2</text><text x="618.528" y="208.54923172353142" fill="#333333" font-size="11.733333333333334" font-family="sans-serif" text-anchor="start">4</text><text x="618.528" y="162.9571488452985" fill="#333333" font-size="11.733333333333334" font-family="sans-serif" text-anchor="start">6</text></svg>