<svg xmlns="http://www.w3.org/2000/svg" width="640" height="420" viewBox="0 0 640 420"><rect x="0.0" y="0.0" width="640.0" height="420.0" fill="#ffffff" fill-opacity="1.0" stroke="none"/><line x1="145.54484848484844" y1="32.266666666666666" x2="145.54484848484844" y2="376.0" stroke="#dddddd" stroke-width="0.6666666666666666"/><line x1="277.1993939393939" y1="32.266666666666666" x2="277.1993939393939" y2="376.0" stroke="#dddddd" stroke-width="0.6666666666666666"/><line x1="408.85393939393936" y1="32.266666666666666" x2="408.85393939393936" y2="376.0" stroke="#dddddd" stroke-width="0.6666666666666666"/><line x1="540.5084848484848" y1="32.266666666666666" x2="540.5084848484848" y2="376.0" stroke="#dddddd" stroke-width="0.6666666666666666"/><line x1="79.71757575757574" y1="32.266666666666666" x2="79.71757575757574" y2="376.0" stroke="#dddddd" stroke-width="1.3333333333333333"/><line x1="211.37212121212116" y1="32.266666666666666" x2="211.37212121212116" y2="376.0" stroke="#dddddd" stroke-width="1.3333333333333333"/><line x1="343.02666666666664" y1="32.266666666666666" x2="343.02666666666664" y2="376.0" stroke="#dddddd" stroke-width="1.3333333333333333"/><line x1="474.68121212121207" y1="32.266666666666666" x2="474.68121212121207" y2="376.0" stroke="#dddddd" stroke-width="1.3333333333333333"/><line x1="606.3357575757575" y1="32.266666666666666" x2="606.3357575757575" y2="376.0" stroke="#dddddd" stroke-width="1.3333333333333333"/><line x1="53.38666666666666" y1="335.1753665689149" x2="632.6666666666666" y2="335.1753665689149" stroke="#dddddd" stroke-width="0.6666666666666666"/><line x1="53.38666666666666" y1="284.7745845552297" x2="632.6666666666666" y2="284.7745845552297" stroke="#dddddd" stroke-width="0.6666666666666666"/><line x1="53.38666666666666" y1="234.37380254154448" x2="632.6666666666666" y2="234.37380254154448" stroke="#dddddd" stroke-width="0.6666666666666666"/><line x1="53.38666666666666" y1="183.97302052785926" x2="632.6666666666666" y2="183.97302052785926" stroke="#dddddd" stroke-width="0.6666666666666666"/><line x1="53.38666666666666" y1="133.57223851417396" x2="632.6666666666666" y2="133.57223851417396" stroke="#dddddd" stroke-width="0.6666666666666666"/><line x1="53.38666666666666" y1="83.17145650048874" x2="632.6666666666666" y2="83.17145650048874" stroke="#dddddd" stroke-width="0.6666666666666666"/><line x1="53.38666666666666" y1="32.7706744868035" x2="632.6666666666666" y2="32.7706744868035" stroke="#dddddd" stroke-width="0.6666666666666666"/><line x1="53.38666666666666" y1="360.3757575757575" x2="632.6666666666666" y2="360.3757575757575" stroke="#dddddd" stroke-width="1.3333333333333333"/><line x1="53.38666666666666" y1="309.9749755620723" x2="632.6666666666666" y2="309.9749755620723" stroke="#dddddd" stroke-width="1.3333333333333333"/><line x1="53.38666666666666" y1="259.5741935483871" x2="632.6666666666666" y2="259.5741935483871" stroke="#dddddd" stroke-width="1.3333333333333333"/><line x1="53.38666666666666" y1="209.17341153470184" x2="632.6666666666666" y2="209.17341153470184" stroke="#dddddd" stroke-width="1.3333333333333333"/><line x1="53.38666666666666" y1="158.7726295210166" x2="632.6666666666666" y2="158.7726295210166" stroke="#dddddd" stroke-width="1.3333333333333333"/><line x1="53.38666666666666" y1="108.37184750733134" x2="632.6666666666666" y2="108.37184750733134" stroke="#dddddd" stroke-width="1.3333333333333333"/><line x1="53.38666666666666" y1="57.97106549364609" x2="632.6666666666666" y2="57.97106549364609" stroke="#dddddd" stroke-width="1.3333333333333333"/><rect x="53.38666666666666" y="32.266666666666666" width="579.28" height="343.73333333333335" fill="#ffffff" fill-opacity="0.0" stroke="#444444" stroke-width="1.3333333333333333"/><line x1="79.71757575757574" y1="376.0" x2="79.71757575757574" y2="379.66666666666663" stroke="#444444" stroke-width="1.3333333333333333"/><text x="79.71757575757574" y="391.9866666666667" fill="#333333" font-size="11.733333333333334" font-family="sans-serif" text-anchor="middle">1</text><line x1="211.37212121212116" y1="376.0" x2="211.37212121212116" y2="379.66666666666663" stroke="#444444" stroke-width="1.3333333333333333"/><text x="211.37212121212116" y="391.9866666666667" fill="#333333" font-size="11.733333333333334" font-family="sans-serif" text-anchor="middle">2</text><line x1="343.02666666666664" y1="376.0" x2="343.02666666666664" y2="379.66666666666663" stroke="#444444" stroke-width="1.3333333333333333"/><text x="343.02666666666664" y="391.9866666666667" fill="#333333" font-size="11.733333333333334" font-family="sans-serif" text-anchor="middle">3</text><line x1="474.68121212121207" y1="376.0" x2="474.68121212121207" y2="379.66666666666663" stroke="#444444" stroke-width="1.3333333333333333"/><text x="474.68121212121207" y="391.9866666666667" fill="#333333" font-size="11.733333333333334" font-family="sans-serif" text-anchor="middle">4</text><line x1="606.3357575757575" y1="376.0" x2="606.3357575757575" y2="379.66666666666663" stroke="#444444" stroke-width="1.3333333333333333"/><text x="606.3357575757575" y="391.9866666666667" fill="#333333" font-size="11.733333333333334" font-family="sans-serif" text-anchor="middle">5</text><line x1="53.38666666666666" y1="360.3757575757575" x2="49.72" y2="360.3757575757575" stroke="#444444" stroke-width="1.3333333333333333"/><text x="46.78666666666666" y="364.48242424242414" fill="#333333" font-size="11.733333333333334" font-family="sans-serif" text-anchor="end">1.5</text><line x1="53.38666666666666" y1="309.9749755620723" x2="49.72" y2="309.9749755620723" stroke="#444444" stroke-width="1.3333333333333333"/><text x="46.78666666666666" y="314.081642228739" fill="#333333" font-size="11.733333333333334" font-family="sans-serif" text-anchor="end">2.0</text><line x1="53.38666666666666" y1="259.5741935483871" x2="49.72" y2="259.5741935483871" stroke="#444444" stroke-width="1.3333333333333333"/><text x="46.78666666666666" y="263.68086021505377" fill="#333333" font-size="11.733333333333334" font-family="sans-serif" text-anchor="end">2.5</text><line x1="53.38666666666666" y1="209.17341153470184" x2="49.72" y2="209.17341153470184" stroke="#444444" stroke-width="1.3333333333333333"/><text x="46.78666666666666" y="213.28007820136853" fill="#333333" font-size="11.733333333333334" font-family="sans-serif" text-anchor="end">3.0</text><line x1="53.38666666666666" y1="158.7726295210166" x2="49.72" y2="158.7726295210166" stroke="#444444" stroke-width="1.3333333333333333"/><text x="46.78666666666666" y="162.87929618768325" fill="#333333" font-size="11.733333333333334" font-family="sans-serif" text-anchor="end">3.5</text><line x1="53.38666666666666" y1="108.37184750733134" x2="49.72" y2="108.37184750733134" stroke="#444444" stroke-width="1.3333333333333333"/><text x="46.78666666666666" y="112.47851417399801" fill="#333333" font-size="11.733333333333334" font-family="sans-serif" text-anchor="end">4.0</text><line x1="53.38666666666666" y1="57.97106549364609" x2="49.72" y2="57.97106549364609" stroke="#444444" stroke-width="1.3333333333333333"/><text x="46.78666666666666" y="62.07773216031275" fill="#333333" font-size="11.733333333333334" font-family="sans-serif" text-anchor="end">4.5</text><text x="53.38666666666666" y="21.413333333333334" fill="#333333" font-size="17.599999999999998" font-family="sans-serif" text-anchor="start">band (x, lo, hi) + line</text><text x="343.02666666666664" y="409.73333333333335" fill="#333333" font-size="14.666666666666666" font-family="sans-serif" text-anchor="middle">x</text><text x="17.599999999999998" y="204.13333333333333" fill="#333333" font-size="14.666666666666666" font-family="sans-serif" text-anchor="middle" transform="rotate(-90.0 17.599999999999998 204.13333333333333)">y</text><path d="M 79.71757575757574 360.3757575757575 L 211.37212121212116 269.6543499511241 L 343.02666666666664 309.9749755620723 L 474.68121212121207 168.8527859237537 L 606.3357575757575 209.17341153470184 L 606.3357575757575 108.37184750733134 L 474.68121212121207 47.89090909090911 L 343.02666666666664 209.17341153470184 L 211.37212121212116 148.69247311827957 L 79.71757575757574 259.5741935483871 Z" fill="#1f77b4" fill-opacity="0.3" stroke="none"/><line x1="79.71757575757574" y1="309.9749755620723" x2="211.37212121212116" y2="209.17341153470184" stroke="#1f77b4" stroke-width="1.4211023622047245"/><line x1="211.37212121212116" y1="209.17341153470184" x2="343.02666666666664" y2="259.5741935483871" stroke="#1f77b4" stroke-width="1.4211023622047245"/><line x1="343.02666666666664" y1="259.5741935483871" x2="474.68121212121207" y2="108.37184750733134" stroke="#1f77b4" stroke-width="1.4211023622047245"/><line x1="474.68121212121207" y1="108.37184750733134" x2="606.3357575757575" y2="158.7726295210166" stroke="#1f77b4" stroke-width="1.4211023622047245"/></svg>