<svg xmlns="http://www.w3.org/2000/svg" width="640" height="420" viewBox="0 0 640 420"><rect x="0.0" y="0.0" width="640.0" height="420.0" fill="#ffffff" fill-opacity="1.0" stroke="none"/><line x1="95.15757575757577" y1="27.0" x2="95.15757575757577" y2="383.8" stroke="#dddddd" stroke-width="0.5"/><line x1="174.35454545454547" y1="27.0" x2="174.35454545454547" y2="383.8" stroke="#dddddd" stroke-width="0.5"/><line x1="253.55151515151516" y1="27.0" x2="253.55151515151516" y2="383.8" stroke="#dddddd" stroke-width="0.5"/><line x1="332.7484848484849" y1="27.0" x2="332.7484848484849" y2="383.8" stroke="#dddddd" stroke-width="0.5"/><line x1="411.9454545454546" y1="27.0" x2="411.9454545454546" y2="383.8" stroke="#dddddd" stroke-width="0.5"/><line x1="491.1424242424243" y1="27.0" x2="491.1424242424243" y2="383.8" stroke="#dddddd" stroke-width="0.5"/><line x1="55.55909090909091" y1="27.0" x2="55.55909090909091" y2="383.8" stroke="#dddddd" stroke-width="1.0"/><line x1="134.75606060606063" y1="27.0" x2="134.75606060606063" y2="383.8" stroke="#dddddd" stroke-width="1.0"/><line x1="213.9530303030303" y1="27.0" x2="213.9530303030303" y2="383.8" stroke="#dddddd" stroke-width="1.0"/><line x1="293.15000000000003" y1="27.0" x2="293.15000000000003" y2="383.8" stroke="#dddddd" stroke-width="1.0"/><line x1="372.3469696969697" y1="27.0" x2="372.3469696969697" y2="383.8" stroke="#dddddd" stroke-width="1.0"/><line x1="451.54393939393947" y1="27.0" x2="451.54393939393947" y2="383.8" stroke="#dddddd" stroke-width="1.0"/><line x1="530.7409090909091" y1="27.0" x2="530.7409090909091" y2="383.8" stroke="#dddddd" stroke-width="1.0"/><line x1="31.799999999999997" y1="340.55151515151516" x2="554.5" y2="340.55151515151516" stroke="#dddddd" stroke-width="0.5"/><line x1="31.799999999999997" y1="286.4909090909091" x2="554.5" y2="286.4909090909091" stroke="#dddddd" stroke-width="0.5"/><line x1="31.799999999999997" y1="232.43030303030304" x2="554.5" y2="232.43030303030304" stroke="#dddddd" stroke-width="0.5"/><line x1="31.799999999999997" y1="178.36969696969695" x2="554.5" y2="178.36969696969695" stroke="#dddddd" stroke-width="0.5"/><line x1="31.799999999999997" y1="124.30909090909091" x2="554.5" y2="124.30909090909091" stroke="#dddddd" stroke-width="0.5"/><line x1="31.799999999999997" y1="70.24848484848485" x2="554.5" y2="70.24848484848485" stroke="#dddddd" stroke-width="0.5"/><line x1="31.799999999999997" y1="367.58181818181816" x2="554.5" y2="367.58181818181816" stroke="#dddddd" stroke-width="1.0"/><line x1="31.799999999999997" y1="313.5212121212121" x2="554.5" y2="313.5212121212121" stroke="#dddddd" stroke-width="1.0"/><line x1="31.799999999999997" y1="259.4606060606061" x2="554.5" y2="259.4606060606061" stroke="#dddddd" stroke-width="1.0"/><line x1="31.799999999999997" y1="205.4" x2="554.5" y2="205.4" stroke="#dddddd" stroke-width="1.0"/><line x1="31.799999999999997" y1="151.33939393939394" x2="554.5" y2="151.33939393939394" stroke="#dddddd" stroke-width="1.0"/><line x1="31.799999999999997" y1="97.27878787878785" x2="554.5" y2="97.27878787878785" stroke="#dddddd" stroke-width="1.0"/><line x1="31.799999999999997" y1="43.21818181818179" x2="554.5" y2="43.21818181818179" stroke="#dddddd" stroke-width="1.0"/><rect x="31.799999999999997" y="27.0" width="522.7" height="356.8" fill="#ffffff" fill-opacity="0.0" stroke="#444444" stroke-width="1.0"/><line x1="55.55909090909091" y1="383.8" x2="55.55909090909091" y2="386.55" stroke="#444444" stroke-width="1.0"/><text x="55.55909090909091" y="397.55" fill="#333333" font-size="11.0" font-family="sans-serif" text-anchor="middle">0</text><line x1="134.75606060606063" y1="383.8" x2="134.75606060606063" y2="386.55" stroke="#444444" stroke-width="1.0"/><text x="134.75606060606063" y="397.55" fill="#333333" font-size="11.0" font-family="sans-serif" text-anchor="middle">1</text><line x1="213.9530303030303" y1="383.8" x2="213.9530303030303" y2="386.55" stroke="#444444" stroke-width="1.0"/><text x="213.9530303030303" y="397.55" fill="#333333" font-size="11.0" font-family="sans-serif" text-anchor="middle">2</text><line x1="293.15000000000003" y1="383.8" x2="293.15000000000003" y2="386.55" stroke="#444444" stroke-width="1.0"/><text x="293.15000000000003" y="397.55" fill="#333333" font-size="11.0" font-family="sans-serif" text-anchor="middle">3</text><line x1="372.3469696969697" y1="383.8" x2="372.3469696969697" y2="386.55" stroke="#444444" stroke-width="1.0"/><text x="372.3469696969697" y="397.55" fill="#333333" font-size="11.0" font-family="sans-serif" text-anchor="middle">4</text><line x1="451.54393939393947" y1="383.8" x2="451.54393939393947" y2="386.55" stroke="#444444" stroke-width="1.0"/><text x="451.54393939393947" y="397.55" fill="#333333" font-size="11.0" font-family="sans-serif" text-anchor="middle">5</text><line x1="530.7409090909091" y1="383.8" x2="530.7409090909091" y2="386.55" stroke="#444444" stroke-width="1.0"/><text x="530.7409090909091" y="397.55" fill="#333333" font-size="11.0" font-family="sans-serif" text-anchor="middle">6</text><line x1="31.799999999999997" y1="367.58181818181816" x2="29.049999999999997" y2="367.58181818181816" stroke="#444444" stroke-width="1.0"/><text x="26.849999999999998" y="371.4318181818182" fill="#333333" font-size="11.0" font-family="sans-serif" text-anchor="end">0</text><line x1="31.799999999999997" y1="313.5212121212121" x2="29.049999999999997" y2="313.5212121212121" stroke="#444444" stroke-width="1.0"/><text x="26.849999999999998" y="317.3712121212121" fill="#333333" font-size="11.0" font-family="sans-serif" text-anchor="end">1</text><line x1="31.799999999999997" y1="259.4606060606061" x2="29.049999999999997" y2="259.4606060606061" stroke="#444444" stroke-width="1.0"/><text x="26.849999999999998" y="263.3106060606061" fill="#333333" font-size="11.0" font-family="sans-serif" text-anchor="end">2</text><line x1="31.799999999999997" y1="205.4" x2="29.049999999999997" y2="205.4" stroke="#444444" stroke-width="1.0"/><text x="26.849999999999998" y="209.25" fill="#333333" font-size="11.0" font-family="sans-serif" text-anchor="end">3</text><line x1="31.799999999999997" y1="151.33939393939394" x2="29.049999999999997" y2="151.33939393939394" stroke="#444444" stroke-width="1.0"/><text x="26.849999999999998" y="155.18939393939394" fill="#333333" font-size="11.0" font-family="sans-serif" text-anchor="end">4</text><line x1="31.799999999999997" y1="97.27878787878785" x2="29.049999999999997" y2="97.27878787878785" stroke="#444444" stroke-width="1.0"/><text x="26.849999999999998" y="101.12878787878785" fill="#333333" font-size="11.0" font-family="sans-serif" text-anchor="end">5</text><line x1="31.799999999999997" y1="43.21818181818179" x2="29.049999999999997" y2="43.21818181818179" stroke="#444444" stroke-width="1.0"/><text x="26.849999999999998" y="47.06818181818179" fill="#333333" font-size="11.0" font-family="sans-serif" text-anchor="end">6</text><text x="293.15000000000003" y="18.3" fill="#333333" font-size="16.0" font-family="sans-serif" text-anchor="middle">bin2d (binned heatmap、 contour の塗り版)</text><text x="293.15000000000003" y="412.1" fill="#333333" font-size="12.0" font-family="sans-serif" text-anchor="middle">x</text><text x="13.899999999999999" y="205.4" fill="#333333" font-size="12.0" font-family="sans-serif" text-anchor="middle" transform="rotate(-90.0 13.899999999999999 205.4)">y</text><rect x="55.55909090909091" y="340.55151515151516" width="39.59848484848486" height="27.030303030303003" fill="#440154" fill-opacity="1.0" stroke="#ffffff" stroke-width="0.3"/><rect x="55.55909090909091" y="313.5212121212121" width="39.59848484848486" height="27.03030303030306" fill="#430859" fill-opacity="1.0" stroke="#ffffff" stroke-width="0.3"/><rect x="55.55909090909091" y="286.4909090909091" width="39.59848484848486" height="27.030303030303003" fill="#420f5e" fill-opacity="1.0" stroke="#ffffff" stroke-width="0.3"/><rect x="55.55909090909091" y="259.4606060606061" width="39.59848484848486" height="27.030303030303003" fill="#411863" fill-opacity="1.0" stroke="#ffffff" stroke-width="0.3"/><rect x="55.55909090909091" y="232.43030303030304" width="39.59848484848486" height="27.03030303030306" fill="#40256c" fill-opacity="1.0" stroke="#ffffff" stroke-width="0.3"/><rect x="55.55909090909091" y="205.4" width="39.59848484848486" height="27.03030303030303" fill="#3e3376" fill-opacity="1.0" stroke="#ffffff" stroke-width="0.3"/><rect x="55.55909090909091" y="178.36969696969695" width="39.59848484848486" height="27.03030303030306" fill="#3d407e" fill-opacity="1.0" stroke="#ffffff" stroke-width="0.3"/><rect x="55.55909090909091" y="151.33939393939394" width="39.59848484848486" height="27.030303030303003" fill="#3b4e88" fill-opacity="1.0" stroke="#ffffff" stroke-width="0.3"/><rect x="55.55909090909091" y="124.30909090909091" width="39.59848484848486" height="27.03030303030303" fill="#38588b" fill-opacity="1.0" stroke="#ffffff" stroke-width="0.3"/><rect x="55.55909090909091" y="97.27878787878785" width="39.59848484848486" height="27.03030303030306" fill="#3b5089" fill-opacity="1.0" stroke="#ffffff" stroke-width="0.3"/><rect x="55.55909090909091" y="70.24848484848485" width="39.59848484848486" height="27.030303030303003" fill="#3e3a7a" fill-opacity="1.0" stroke="#ffffff" stroke-width="0.3"/><rect x="55.55909090909091" y="43.21818181818179" width="39.59848484848486" height="27.03030303030306" fill="#411864" fill-opacity="1.0" stroke="#ffffff" stroke-width="0.3"/><rect x="95.15757575757577" y="340.55151515151516" width="39.59848484848486" height="27.030303030303003" fill="#430859" fill-opacity="1.0" stroke="#ffffff" stroke-width="0.3"/><rect x="95.15757575757577" y="313.5212121212121" width="39.59848484848486" height="27.03030303030306" fill="#421763" fill-opacity="1.0" stroke="#ffffff" stroke-width="0.3"/><rect x="95.15757575757577" y="286.4909090909091" width="39.59848484848486" height="27.030303030303003" fill="#40266d" fill-opacity="1.0" stroke="#ffffff" stroke-width="0.3"/><rect x="95.15757575757577" y="259.4606060606061" width="39.59848484848486" height="27.030303030303003" fill="#3e3778" fill-opacity="1.0" stroke="#ffffff" stroke-width="0.3"/><rect x="95.15757575757577" y="232.43030303030304" width="39.59848484848486" height="27.03030303030306" fill="#3b518b" fill-opacity="1.0" stroke="#ffffff" stroke-width="0.3"/><rect x="95.15757575757577" y="205.4" width="39.59848484848486" height="27.03030303030303" fill="#32678b" fill-opacity="1.0" stroke="#ffffff" stroke-width="0.3"/><rect x="95.15757575757577" y="178.36969696969695" width="39.59848484848486" height="27.03030303030306" fill="#2c778c" fill-opacity="1.0" stroke="#ffffff" stroke-width="0.3"/><rect x="95.15757575757577" y="151.33939393939394" width="39.59848484848486" height="27.030303030303003" fill="#24898c" fill-opacity="1.0" stroke="#ffffff" stroke-width="0.3"/><rect x="95.15757575757577" y="124.30909090909091" width="39.59848484848486" height="27.03030303030303" fill="#279788" fill-opacity="1.0" stroke="#ffffff" stroke-width="0.3"/><rect x="95.15757575757577" y="97.27878787878785" width="39.59848484848486" height="27.03030303030306" fill="#25868c" fill-opacity="1.0" stroke="#ffffff" stroke-width="0.3"/><rect x="95.15757575757577" y="70.24848484848485" width="39.59848484848486" height="27.030303030303003" fill="#32678b" fill-opacity="1.0" stroke="#ffffff" stroke-width="0.3"/><rect x="95.15757575757577" y="43.21818181818179" width="39.59848484848486" height="27.03030303030306" fill="#3f3074" fill-opacity="1.0" stroke="#ffffff" stroke-width="0.3"/><rect x="134.75606060606063" y="340.55151515151516" width="39.598484848484844" height="27.030303030303003" fill="#420f5e" fill-opacity="1.0" stroke="#ffffff" stroke-width="0.3"/><rect x="134.75606060606063" y="313.5212121212121" width="39.598484848484844" height="27.03030303030306" fill="#40266d" fill-opacity="1.0" stroke="#ffffff" stroke-width="0.3"/><rect x="134.75606060606063" y="286.4909090909091" width="39.598484848484844" height="27.030303030303003" fill="#3e3b7c" fill-opacity="1.0" stroke="#ffffff" stroke-width="0.3"/><rect x="134.75606060606063" y="259.4606060606061" width="39.598484848484844" height="27.030303030303003" fill="#3a548b" fill-opacity="1.0" stroke="#ffffff" stroke-width="0.3"/><rect x="134.75606060606063" y="232.43030303030304" width="39.598484848484844" height="27.03030303030306" fill="#2e728c" fill-opacity="1.0" stroke="#ffffff" stroke-width="0.3"/><rect x="134.75606060606063" y="205.4" width="39.598484848484844" height="27.03030303030303" fill="#228d8c" fill-opacity="1.0" stroke="#ffffff" stroke-width="0.3"/><rect x="134.75606060606063" y="178.36969696969695" width="39.598484848484844" height="27.03030303030306" fill="#2f9e82" fill-opacity="1.0" stroke="#ffffff" stroke-width="0.3"/><rect x="134.75606060606063" y="151.33939393939394" width="39.598484848484844" height="27.030303030303003" fill="#41ae76" fill-opacity="1.0" stroke="#ffffff" stroke-width="0.3"/><rect x="134.75606060606063" y="124.30909090909091" width="39.598484848484844" height="27.03030303030303" fill="#4ab770" fill-opacity="1.0" stroke="#ffffff" stroke-width="0.3"/><rect x="134.75606060606063" y="97.27878787878785" width="39.598484848484844" height="27.03030303030306" fill="#309f81" fill-opacity="1.0" stroke="#ffffff" stroke-width="0.3"/><rect x="134.75606060606063" y="70.24848484848485" width="39.598484848484844" height="27.030303030303003" fill="#2b7a8c" fill-opacity="1.0" stroke="#ffffff" stroke-width="0.3"/><rect x="134.75606060606063" y="43.21818181818179" width="39.598484848484844" height="27.03030303030306" fill="#3e3b7c" fill-opacity="1.0" stroke="#ffffff" stroke-width="0.3"/><rect x="174.35454545454547" y="340.55151515151516" width="39.598484848484816" height="27.030303030303003" fill="#421763" fill-opacity="1.0" stroke="#ffffff" stroke-width="0.3"/><rect x="174.35454545454547" y="313.5212121212121" width="39.598484848484816" height="27.03030303030306" fill="#3e3678" fill-opacity="1.0" stroke="#ffffff" stroke-width="0.3"/><rect x="174.35454545454547" y="286.4909090909091" width="39.598484848484816" height="27.030303030303003" fill="#3a548b" fill-opacity="1.0" stroke="#ffffff" stroke-width="0.3"/><rect x="174.35454545454547" y="259.4606060606061" width="39.598484848484816" height="27.030303030303003" fill="#2f6e8b" fill-opacity="1.0" stroke="#ffffff" stroke-width="0.3"/><rect x="174.35454545454547" y="232.43030303030304" width="39.598484848484816" height="27.03030303030306" fill="#269589" fill-opacity="1.0" stroke="#ffffff" stroke-width="0.3"/><rect x="174.35454545454547" y="205.4" width="39.598484848484816" height="27.03030303030303" fill="#45b273" fill-opacity="1.0" stroke="#ffffff" stroke-width="0.3"/><rect x="174.35454545454547" y="178.36969696969695" width="39.598484848484816" height="27.03030303030306" fill="#55c168" fill-opacity="1.0" stroke="#ffffff" stroke-width="0.3"/><rect x="174.35454545454547" y="151.33939393939394" width="39.598484848484816" height="27.030303030303003" fill="#65ca5f" fill-opacity="1.0" stroke="#ffffff" stroke-width="0.3"/><rect x="174.35454545454547" y="124.30909090909091" width="39.598484848484816" height="27.03030303030303" fill="#5ec962" fill-opacity="1.0" stroke="#ffffff" stroke-width="0.3"/><rect x="174.35454545454547" y="97.27878787878785" width="39.598484848484816" height="27.03030303030306" fill="#3aa87b" fill-opacity="1.0" stroke="#ffffff" stroke-width="0.3"/><rect x="174.35454545454547" y="70.24848484848485" width="39.598484848484816" height="27.030303030303003" fill="#287f8c" fill-opacity="1.0" stroke="#ffffff" stroke-width="0.3"/><rect x="174.35454545454547" y="43.21818181818179" width="39.598484848484816" height="27.03030303030306" fill="#3d3f7e" fill-opacity="1.0" stroke="#ffffff" stroke-width="0.3"/><rect x="213.9530303030303" y="340.55151515151516" width="39.59848484848487" height="27.030303030303003" fill="#40236b" fill-opacity="1.0" stroke="#ffffff" stroke-width="0.3"/><rect x="213.9530303030303" y="313.5212121212121" width="39.59848484848487" height="27.03030303030306" fill="#3c4d88" fill-opacity="1.0" stroke="#ffffff" stroke-width="0.3"/><rect x="213.9530303030303" y="286.4909090909091" width="39.59848484848487" height="27.030303030303003" fill="#2f6e8b" fill-opacity="1.0" stroke="#ffffff" stroke-width="0.3"/><rect x="213.9530303030303" y="259.4606060606061" width="39.59848484848487" height="27.030303030303003" fill="#23938b" fill-opacity="1.0" stroke="#ffffff" stroke-width="0.3"/><rect x="213.9530303030303" y="232.43030303030304" width="39.59848484848487" height="27.03030303030306" fill="#55c168" fill-opacity="1.0" stroke="#ffffff" stroke-width="0.3"/><rect x="213.9530303030303" y="205.4" width="39.59848484848487" height="27.03030303030303" fill="#a5d647" fill-opacity="1.0" stroke="#ffffff" stroke-width="0.3"/><rect x="213.9530303030303" y="178.36969696969695" width="39.59848484848487" height="27.03030303030306" fill="#bddb3d" fill-opacity="1.0" stroke="#ffffff" stroke-width="0.3"/><rect x="213.9530303030303" y="151.33939393939394" width="39.59848484848487" height="27.030303030303003" fill="#b6da40" fill-opacity="1.0" stroke="#ffffff" stroke-width="0.3"/><rect x="213.9530303030303" y="124.30909090909091" width="39.59848484848487" height="27.03030303030303" fill="#6ccc5d" fill-opacity="1.0" stroke="#ffffff" stroke-width="0.3"/><rect x="213.9530303030303" y="97.27878787878785" width="39.59848484848487" height="27.03030303030306" fill="#309e82" fill-opacity="1.0" stroke="#ffffff" stroke-width="0.3"/><rect x="213.9530303030303" y="70.24848484848485" width="39.59848484848487" height="27.030303030303003" fill="#2d758c" fill-opacity="1.0" stroke="#ffffff" stroke-width="0.3"/><rect x="213.9530303030303" y="43.21818181818179" width="39.59848484848487" height="27.03030303030306" fill="#3e397a" fill-opacity="1.0" stroke="#ffffff" stroke-width="0.3"/><rect x="253.55151515151516" y="340.55151515151516" width="39.59848484848487" height="27.030303030303003" fill="#40296f" fill-opacity="1.0" stroke="#ffffff" stroke-width="0.3"/><rect x="253.55151515151516" y="313.5212121212121" width="39.59848484848487" height="27.03030303030306" fill="#38598b" fill-opacity="1.0" stroke="#ffffff" stroke-width="0.3"/><rect x="253.55151515151516" y="286.4909090909091" width="39.59848484848487" height="27.030303030303003" fill="#297f8c" fill-opacity="1.0" stroke="#ffffff" stroke-width="0.3"/><rect x="253.55151515151516" y="259.4606060606061" width="39.59848484848487" height="27.030303030303003" fill="#38a77c" fill-opacity="1.0" stroke="#ffffff" stroke-width="0.3"/><rect x="253.55151515151516" y="232.43030303030304" width="39.59848484848487" height="27.03030303030306" fill="#93d34e" fill-opacity="1.0" stroke="#ffffff" stroke-width="0.3"/><rect x="253.55151515151516" y="205.4" width="39.59848484848487" height="27.03030303030303" fill="#f5e528" fill-opacity="1.0" stroke="#ffffff" stroke-width="0.3"/><rect x="253.55151515151516" y="178.36969696969695" width="39.59848484848487" height="27.03030303030306" fill="#fde725" fill-opacity="1.0" stroke="#ffffff" stroke-width="0.3"/><rect x="253.55151515151516" y="151.33939393939394" width="39.59848484848487" height="27.030303030303003" fill="#d8e033" fill-opacity="1.0" stroke="#ffffff" stroke-width="0.3"/><rect x="253.55151515151516" y="124.30909090909091" width="39.59848484848487" height="27.03030303030303" fill="#5dc862" fill-opacity="1.0" stroke="#ffffff" stroke-width="0.3"/><rect x="253.55151515151516" y="97.27878787878785" width="39.59848484848487" height="27.03030303030306" fill="#21908c" fill-opacity="1.0" stroke="#ffffff" stroke-width="0.3"/><rect x="253.55151515151516" y="70.24848484848485" width="39.59848484848487" height="27.030303030303003" fill="#32678b" fill-opacity="1.0" stroke="#ffffff" stroke-width="0.3"/><rect x="253.55151515151516" y="43.21818181818179" width="39.59848484848487" height="27.03030303030306" fill="#3f3175" fill-opacity="1.0" stroke="#ffffff" stroke-width="0.3"/><rect x="293.15000000000003" y="340.55151515151516" width="39.59848484848487" height="27.030303030303003" fill="#40296f" fill-opacity="1.0" stroke="#ffffff" stroke-width="0.3"/><rect x="293.15000000000003" y="313.5212121212121" width="39.59848484848487" height="27.03030303030306" fill="#38598b" fill-opacity="1.0" stroke="#ffffff" stroke-width="0.3"/><rect x="293.15000000000003" y="286.4909090909091" width="39.59848484848487" height="27.030303030303003" fill="#297f8c" fill-opacity="1.0" stroke="#ffffff" stroke-width="0.3"/><rect x="293.15000000000003" y="259.4606060606061" width="39.59848484848487" height="27.030303030303003" fill="#38a67c" fill-opacity="1.0" stroke="#ffffff" stroke-width="0.3"/><rect x="293.15000000000003" y="232.43030303030304" width="39.59848484848487" height="27.03030303030306" fill="#92d34e" fill-opacity="1.0" stroke="#ffffff" stroke-width="0.3"/><rect x="293.15000000000003" y="205.4" width="39.59848484848487" height="27.03030303030303" fill="#f0e52a" fill-opacity="1.0" stroke="#ffffff" stroke-width="0.3"/><rect x="293.15000000000003" y="178.36969696969695" width="39.59848484848487" height="27.03030303030306" fill="#f4e529" fill-opacity="1.0" stroke="#ffffff" stroke-width="0.3"/><rect x="293.15000000000003" y="151.33939393939394" width="39.59848484848487" height="27.030303030303003" fill="#c7dd3a" fill-opacity="1.0" stroke="#ffffff" stroke-width="0.3"/><rect x="293.15000000000003" y="124.30909090909091" width="39.59848484848487" height="27.03030303030303" fill="#53bf69" fill-opacity="1.0" stroke="#ffffff" stroke-width="0.3"/><rect x="293.15000000000003" y="97.27878787878785" width="39.59848484848487" height="27.03030303030306" fill="#26858c" fill-opacity="1.0" stroke="#ffffff" stroke-width="0.3"/><rect x="293.15000000000003" y="70.24848484848485" width="39.59848484848487" height="27.030303030303003" fill="#365e8b" fill-opacity="1.0" stroke="#ffffff" stroke-width="0.3"/><rect x="293.15000000000003" y="43.21818181818179" width="39.59848484848487" height="27.03030303030306" fill="#3f2c72" fill-opacity="1.0" stroke="#ffffff" stroke-width="0.3"/><rect x="332.7484848484849" y="340.55151515151516" width="39.598484848484816" height="27.030303030303003" fill="#40266d" fill-opacity="1.0" stroke="#ffffff" stroke-width="0.3"/><rect x="332.7484848484849" y="313.5212121212121" width="39.598484848484816" height="27.03030303030306" fill="#3a538b" fill-opacity="1.0" stroke="#ffffff" stroke-width="0.3"/><rect x="332.7484848484849" y="286.4909090909091" width="39.598484848484816" height="27.030303030303003" fill="#2c768c" fill-opacity="1.0" stroke="#ffffff" stroke-width="0.3"/><rect x="332.7484848484849" y="259.4606060606061" width="39.598484848484816" height="27.030303030303003" fill="#2d9c84" fill-opacity="1.0" stroke="#ffffff" stroke-width="0.3"/><rect x="332.7484848484849" y="232.43030303030304" width="39.598484848484816" height="27.03030303030306" fill="#68cb5e" fill-opacity="1.0" stroke="#ffffff" stroke-width="0.3"/><rect x="332.7484848484849" y="205.4" width="39.598484848484816" height="27.03030303030303" fill="#bedb3d" fill-opacity="1.0" stroke="#ffffff" stroke-width="0.3"/><rect x="332.7484848484849" y="178.36969696969695" width="39.598484848484816" height="27.03030303030306" fill="#bfdb3d" fill-opacity="1.0" stroke="#ffffff" stroke-width="0.3"/><rect x="332.7484848484849" y="151.33939393939394" width="39.598484848484816" height="27.030303030303003" fill="#93d34e" fill-opacity="1.0" stroke="#ffffff" stroke-width="0.3"/><rect x="332.7484848484849" y="124.30909090909091" width="39.598484848484816" height="27.03030303030303" fill="#42af76" fill-opacity="1.0" stroke="#ffffff" stroke-width="0.3"/><rect x="332.7484848484849" y="97.27878787878785" width="39.598484848484816" height="27.03030303030306" fill="#2b788c" fill-opacity="1.0" stroke="#ffffff" stroke-width="0.3"/><rect x="332.7484848484849" y="70.24848484848485" width="39.598484848484816" height="27.030303030303003" fill="#3a558b" fill-opacity="1.0" stroke="#ffffff" stroke-width="0.3"/><rect x="332.7484848484849" y="43.21818181818179" width="39.598484848484816" height="27.03030303030306" fill="#40276e" fill-opacity="1.0" stroke="#ffffff" stroke-width="0.3"/><rect x="372.3469696969697" y="340.55151515151516" width="39.59848484848487" height="27.030303030303003" fill="#411b66" fill-opacity="1.0" stroke="#ffffff" stroke-width="0.3"/><rect x="372.3469696969697" y="313.5212121212121" width="39.59848484848487" height="27.03030303030306" fill="#3d3e7e" fill-opacity="1.0" stroke="#ffffff" stroke-width="0.3"/><rect x="372.3469696969697" y="286.4909090909091" width="39.59848484848487" height="27.030303030303003" fill="#365d8b" fill-opacity="1.0" stroke="#ffffff" stroke-width="0.3"/><rect x="372.3469696969697" y="259.4606060606061" width="39.59848484848487" height="27.030303030303003" fill="#2a7b8c" fill-opacity="1.0" stroke="#ffffff" stroke-width="0.3"/><rect x="372.3469696969697" y="232.43030303030304" width="39.59848484848487" height="27.03030303030306" fill="#34a27f" fill-opacity="1.0" stroke="#ffffff" stroke-width="0.3"/><rect x="372.3469696969697" y="205.4" width="39.59848484848487" height="27.03030303030303" fill="#4db96e" fill-opacity="1.0" stroke="#ffffff" stroke-width="0.3"/><rect x="372.3469696969697" y="178.36969696969695" width="39.59848484848487" height="27.03030303030306" fill="#4db96e" fill-opacity="1.0" stroke="#ffffff" stroke-width="0.3"/><rect x="372.3469696969697" y="151.33939393939394" width="39.59848484848487" height="27.030303030303003" fill="#40ad77" fill-opacity="1.0" stroke="#ffffff" stroke-width="0.3"/><rect x="372.3469696969697" y="124.30909090909091" width="39.59848484848487" height="27.03030303030303" fill="#248a8c" fill-opacity="1.0" stroke="#ffffff" stroke-width="0.3"/><rect x="372.3469696969697" y="97.27878787878785" width="39.59848484848487" height="27.03030303030306" fill="#365d8b" fill-opacity="1.0" stroke="#ffffff" stroke-width="0.3"/><rect x="372.3469696969697" y="70.24848484848485" width="39.59848484848487" height="27.030303030303003" fill="#3d3f7e" fill-opacity="1.0" stroke="#ffffff" stroke-width="0.3"/><rect x="372.3469696969697" y="43.21818181818179" width="39.59848484848487" height="27.03030303030306" fill="#411b66" fill-opacity="1.0" stroke="#ffffff" stroke-width="0.3"/><rect x="411.9454545454546" y="340.55151515151516" width="39.59848484848487" height="27.030303030303003" fill="#420f5e" fill-opacity="1.0" stroke="#ffffff" stroke-width="0.3"/><rect x="411.9454545454546" y="313.5212121212121" width="39.59848484848487" height="27.03030303030306" fill="#40266d" fill-opacity="1.0" stroke="#ffffff" stroke-width="0.3"/><rect x="411.9454545454546" y="286.4909090909091" width="39.59848484848487" height="27.030303030303003" fill="#3e3b7c" fill-opacity="1.0" stroke="#ffffff" stroke-width="0.3"/><rect x="411.9454545454546" y="259.4606060606061" width="39.59848484848487" height="27.030303030303003" fill="#3a538b" fill-opacity="1.0" stroke="#ffffff" stroke-width="0.3"/><rect x="411.9454545454546" y="232.43030303030304" width="39.59848484848487" height="27.03030303030306" fill="#2f6e8b" fill-opacity="1.0" stroke="#ffffff" stroke-width="0.3"/><rect x="411.9454545454546" y="205.4" width="39.59848484848487" height="27.03030303030303" fill="#297f8c" fill-opacity="1.0" stroke="#ffffff" stroke-width="0.3"/><rect x="411.9454545454546" y="178.36969696969695" width="39.59848484848487" height="27.03030303030306" fill="#297f8c" fill-opacity="1.0" stroke="#ffffff" stroke-width="0.3"/><rect x="411.9454545454546" y="151.33939393939394" width="39.59848484848487" height="27.030303030303003" fill="#2c768c" fill-opacity="1.0" stroke="#ffffff" stroke-width="0.3"/><rect x="411.9454545454546" y="124.30909090909091" width="39.59848484848487" height="27.03030303030303" fill="#365d8b" fill-opacity="1.0" stroke="#ffffff" stroke-width="0.3"/><rect x="411.9454545454546" y="97.27878787878785" width="39.59848484848487" height="27.03030303030306" fill="#3e3b7c" fill-opacity="1.0" stroke="#ffffff" stroke-width="0.3"/><rect x="411.9454545454546" y="70.24848484848485" width="39.59848484848487" height="27.030303030303003" fill="#40266d" fill-opacity="1.0" stroke="#ffffff" stroke-width="0.3"/><rect x="411.9454545454546" y="43.21818181818179" width="39.59848484848487" height="27.03030303030306" fill="#420f5e" fill-opacity="1.0" stroke="#ffffff" stroke-width="0.3"/><rect x="451.54393939393947" y="340.55151515151516" width="39.598484848484816" height="27.030303030303003" fill="#430859" fill-opacity="1.0" stroke="#ffffff" stroke-width="0.3"/><rect x="451.54393939393947" y="313.5212121212121" width="39.598484848484816" height="27.03030303030306" fill="#421763" fill-opacity="1.0" stroke="#ffffff" stroke-width="0.3"/><rect x="451.54393939393947" y="286.4909090909091" width="39.598484848484816" height="27.030303030303003" fill="#40266d" fill-opacity="1.0" stroke="#ffffff" stroke-width="0.3"/><rect x="451.54393939393947" y="259.4606060606061" width="39.598484848484816" height="27.030303030303003" fill="#3e3678" fill-opacity="1.0" stroke="#ffffff" stroke-width="0.3"/><rect x="451.54393939393947" y="232.43030303030304" width="39.598484848484816" height="27.03030303030306" fill="#3c4d88" fill-opacity="1.0" stroke="#ffffff" stroke-width="0.3"/><rect x="451.54393939393947" y="205.4" width="39.598484848484816" height="27.03030303030303" fill="#38598b" fill-opacity="1.0" stroke="#ffffff" stroke-width="0.3"/><rect x="451.54393939393947" y="178.36969696969695" width="39.598484848484816" height="27.03030303030306" fill="#38598b" fill-opacity="1.0" stroke="#ffffff" stroke-width="0.3"/><rect x="451.54393939393947" y="151.33939393939394" width="39.598484848484816" height="27.030303030303003" fill="#3a538b" fill-opacity="1.0" stroke="#ffffff" stroke-width="0.3"/><rect x="451.54393939393947" y="124.30909090909091" width="39.598484848484816" height="27.03030303030303" fill="#3d3e7e" fill-opacity="1.0" stroke="#ffffff" stroke-width="0.3"/><rect x="451.54393939393947" y="97.27878787878785" width="39.598484848484816" height="27.03030303030306" fill="#40266d" fill-opacity="1.0" stroke="#ffffff" stroke-width="0.3"/><rect x="451.54393939393947" y="70.24848484848485" width="39.598484848484816" height="27.030303030303003" fill="#421763" fill-opacity="1.0" stroke="#ffffff" stroke-width="0.3"/><rect x="451.54393939393947" y="43.21818181818179" width="39.598484848484816" height="27.03030303030306" fill="#430859" fill-opacity="1.0" stroke="#ffffff" stroke-width="0.3"/><rect x="491.1424242424243" y="340.55151515151516" width="39.598484848484816" height="27.030303030303003" fill="#440154" fill-opacity="1.0" stroke="#ffffff" stroke-width="0.3"/><rect x="491.1424242424243" y="313.5212121212121" width="39.598484848484816" height="27.03030303030306" fill="#430859" fill-opacity="1.0" stroke="#ffffff" stroke-width="0.3"/><rect x="491.1424242424243" y="286.4909090909091" width="39.598484848484816" height="27.030303030303003" fill="#420f5e" fill-opacity="1.0" stroke="#ffffff" stroke-width="0.3"/><rect x="491.1424242424243" y="259.4606060606061" width="39.598484848484816" height="27.030303030303003" fill="#421763" fill-opacity="1.0" stroke="#ffffff" stroke-width="0.3"/><rect x="491.1424242424243" y="232.43030303030304" width="39.598484848484816" height="27.03030303030306" fill="#40236b" fill-opacity="1.0" stroke="#ffffff" stroke-width="0.3"/><rect x="491.1424242424243" y="205.4" width="39.598484848484816" height="27.03030303030303" fill="#40296f" fill-opacity="1.0" stroke="#ffffff" stroke-width="0.3"/><rect x="491.1424242424243" y="178.36969696969695" width="39.598484848484816" height="27.03030303030306" fill="#40296f" fill-opacity="1.0" stroke="#ffffff" stroke-width="0.3"/><rect x="491.1424242424243" y="151.33939393939394" width="39.598484848484816" height="27.030303030303003" fill="#40266d" fill-opacity="1.0" stroke="#ffffff" stroke-width="0.3"/><rect x="491.1424242424243" y="124.30909090909091" width="39.598484848484816" height="27.03030303030303" fill="#411b66" fill-opacity="1.0" stroke="#ffffff" stroke-width="0.3"/><rect x="491.1424242424243" y="97.27878787878785" width="39.598484848484816" height="27.03030303030306" fill="#420f5e" fill-opacity="1.0" stroke="#ffffff" stroke-width="0.3"/><rect x="491.1424242424243" y="70.24848484848485" width="39.598484848484816" height="27.030303030303003" fill="#430859" fill-opacity="1.0" stroke="#ffffff" stroke-width="0.3"/><rect x="491.1424242424243" y="43.21818181818179" width="39.598484848484816" height="27.03030303030306" fill="#440154" fill-opacity="1.0" stroke="#ffffff" stroke-width="0.3"/><rect x="564.5" y="164.0" width="14.0" height="3.5" fill="#440154" fill-opacity="1.0" stroke="none"/><rect x="564.5" y="161.0" width="14.0" height="3.5" fill="#43095a" fill-opacity="1.0" stroke="none"/><rect x="564.5" y="158.0" width="14.0" height="3.5" fill="#42125f" fill-opacity="1.0" stroke="none"/><rect x="564.5" y="155.0" width="14.0" height="3.5" fill="#411a65" fill-opacity="1.0" stroke="none"/><rect x="564.5" y="152.0" width="14.0" height="3.5" fill="#40226b" fill-opacity="1.0" stroke="none"/><rect x="564.5" y="149.0" width="14.0" height="3.5" fill="#3f2b70" fill-opacity="1.0" stroke="none"/><rect x="564.5" y="146.0" width="14.0" height="3.5" fill="#3e3376" fill-opacity="1.0" stroke="none"/><rect x="564.5" y="143.0" width="14.0" height="3.5" fill="#3e3b7b" fill-opacity="1.0" stroke="none"/><rect x="564.5" y="140.0" width="14.0" height="3.5" fill="#3d4381" fill-opacity="1.0" stroke="none"/><rect x="564.5" y="137.0" width="14.0" height="3.5" fill="#3c4c87" fill-opacity="1.0" stroke="none"/><rect x="564.5" y="134.0" width="14.0" height="3.5" fill="#3a548b" fill-opacity="1.0" stroke="none"/><rect x="564.5" y="131.0" width="14.0" height="3.5" fill="#385a8b" fill-opacity="1.0" stroke="none"/><rect x="564.5" y="128.0" width="14.0" height="3.5" fill="#35618b" fill-opacity="1.0" stroke="none"/><rect x="564.5" y="125.0" width="14.0" height="3.5" fill="#32678b" fill-opacity="1.0" stroke="none"/><rect x="564.5" y="122.0" width="14.0" height="3.5" fill="#306d8b" fill-opacity="1.0" stroke="none"/><rect x="564.5" y="119.0" width="14.0" height="3.5" fill="#2d748c" fill-opacity="1.0" stroke="none"/><rect x="564.5" y="116.0" width="14.0" height="3.5" fill="#2a7a8c" fill-opacity="1.0" stroke="none"/><rect x="564.5" y="113.0" width="14.0" height="3.5" fill="#28818c" fill-opacity="1.0" stroke="none"/><rect x="564.5" y="110.0" width="14.0" height="3.5" fill="#25878c" fill-opacity="1.0" stroke="none"/><rect x="564.5" y="107.0" width="14.0" height="3.5" fill="#228e8c" fill-opacity="1.0" stroke="none"/><rect x="564.5" y="104.0" width="14.0" height="3.5" fill="#24948a" fill-opacity="1.0" stroke="none"/><rect x="564.5" y="101.0" width="14.0" height="3.5" fill="#2a9a86" fill-opacity="1.0" stroke="none"/><rect x="564.5" y="98.0" width="14.0" height="3.5" fill="#319f81" fill-opacity="1.0" stroke="none"/><rect x="564.5" y="95.0" width="14.0" height="3.5" fill="#37a57d" fill-opacity="1.0" stroke="none"/><rect x="564.5" y="92.0" width="14.0" height="3.5" fill="#3dab79" fill-opacity="1.0" stroke="none"/><rect x="564.5" y="89.0" width="14.0" height="3.5" fill="#43b174" fill-opacity="1.0" stroke="none"/><rect x="564.5" y="86.0" width="14.0" height="3.5" fill="#4ab670" fill-opacity="1.0" stroke="none"/><rect x="564.5" y="83.0" width="14.0" height="3.5" fill="#50bc6c" fill-opacity="1.0" stroke="none"/><rect x="564.5" y="80.0" width="14.0" height="3.5" fill="#56c267" fill-opacity="1.0" stroke="none"/><rect x="564.5" y="77.0" width="14.0" height="3.5" fill="#5cc863" fill-opacity="1.0" stroke="none"/><rect x="564.5" y="74.0" width="14.0" height="3.5" fill="#6acb5d" fill-opacity="1.0" stroke="none"/><rect x="564.5" y="71.0" width="14.0" height="3.5" fill="#7bce57" fill-opacity="1.0" stroke="none"/><rect x="564.5" y="68.0" width="14.0" height="3.5" fill="#8bd151" fill-opacity="1.0" stroke="none"/><rect x="564.5" y="65.0" width="14.0" height="3.5" fill="#9bd54b" fill-opacity="1.0" stroke="none"/><rect x="564.5" y="62.0" width="14.0" height="3.5" fill="#abd844" fill-opacity="1.0" stroke="none"/><rect x="564.5" y="59.0" width="14.0" height="3.5" fill="#bcdb3e" fill-opacity="1.0" stroke="none"/><rect x="564.5" y="56.0" width="14.0" height="3.5" fill="#ccde38" fill-opacity="1.0" stroke="none"/><rect x="564.5" y="53.0" width="14.0" height="3.5" fill="#dce132" fill-opacity="1.0" stroke="none"/><rect x="564.5" y="50.0" width="14.0" height="3.5" fill="#ede42b" fill-opacity="1.0" stroke="none"/><rect x="564.5" y="47.0" width="14.0" height="3.5" fill="#fde725" fill-opacity="1.0" stroke="none"/><text x="582.5" y="51.0" fill="#333333" font-size="10.0" font-family="sans-serif" text-anchor="start">1.003725261964</text><text x="582.5" y="111.0" fill="#333333" font-size="10.0" font-family="sans-serif" text-anchor="start">0.507417129251</text><text x="582.5" y="171.0" fill="#333333" font-size="10.0" font-family="sans-serif" text-anchor="start">0.011108996538</text></svg>