<svg xmlns="http://www.w3.org/2000/svg" width="640" height="420" viewBox="0 0 640 420"><rect x="0.0" y="0.0" width="640.0" height="420.0" fill="#ffffff" fill-opacity="1.0" stroke="none"/><line x1="102.4149397979798" y1="32.266666666666666" x2="102.4149397979798" y2="376.0" stroke="#dddddd" stroke-width="0.6666666666666666"/><line x1="181.3002812121212" y1="32.266666666666666" x2="181.3002812121212" y2="376.0" stroke="#dddddd" stroke-width="0.6666666666666666"/><line x1="260.1856226262626" y1="32.266666666666666" x2="260.1856226262626" y2="376.0" stroke="#dddddd" stroke-width="0.6666666666666666"/><line x1="339.070964040404" y1="32.266666666666666" x2="339.070964040404" y2="376.0" stroke="#dddddd" stroke-width="0.6666666666666666"/><line x1="417.9563054545455" y1="32.266666666666666" x2="417.9563054545455" y2="376.0" stroke="#dddddd" stroke-width="0.6666666666666666"/><line x1="496.8416468686869" y1="32.266666666666666" x2="496.8416468686869" y2="376.0" stroke="#dddddd" stroke-width="0.6666666666666666"/><line x1="62.972269090909094" y1="32.266666666666666" x2="62.972269090909094" y2="376.0" stroke="#dddddd" stroke-width="1.3333333333333333"/><line x1="141.8576105050505" y1="32.266666666666666" x2="141.8576105050505" y2="376.0" stroke="#dddddd" stroke-width="1.3333333333333333"/><line x1="220.74295191919185" y1="32.266666666666666" x2="220.74295191919185" y2="376.0" stroke="#dddddd" stroke-width="1.3333333333333333"/><line x1="299.6282933333333" y1="32.266666666666666" x2="299.6282933333333" y2="376.0" stroke="#dddddd" stroke-width="1.3333333333333333"/><line x1="378.5136347474747" y1="32.266666666666666" x2="378.5136347474747" y2="376.0" stroke="#dddddd" stroke-width="1.3333333333333333"/><line x1="457.39897616161625" y1="32.266666666666666" x2="457.39897616161625" y2="376.0" stroke="#dddddd" stroke-width="1.3333333333333333"/><line x1="536.2843175757575" y1="32.266666666666666" x2="536.2843175757575" y2="376.0" stroke="#dddddd" stroke-width="1.3333333333333333"/><line x1="39.306666666666665" y1="334.33535353535353" x2="559.94992" y2="334.33535353535353" stroke="#dddddd" stroke-width="0.6666666666666666"/><line x1="39.306666666666665" y1="282.25454545454545" x2="559.94992" y2="282.25454545454545" stroke="#dddddd" stroke-width="0.6666666666666666"/><line x1="39.306666666666665" y1="230.17373737373737" x2="559.94992" y2="230.17373737373737" stroke="#dddddd" stroke-width="0.6666666666666666"/><line x1="39.306666666666665" y1="178.09292929292928" x2="559.94992" y2="178.09292929292928" stroke="#dddddd" stroke-width="0.6666666666666666"/><line x1="39.306666666666665" y1="126.0121212121212" x2="559.94992" y2="126.0121212121212" stroke="#dddddd" stroke-width="0.6666666666666666"/><line x1="39.306666666666665" y1="73.93131313131312" x2="559.94992" y2="73.93131313131312" stroke="#dddddd" stroke-width="0.6666666666666666"/><line x1="39.306666666666665" y1="360.3757575757575" x2="559.94992" y2="360.3757575757575" stroke="#dddddd" stroke-width="1.3333333333333333"/><line x1="39.306666666666665" y1="308.2949494949495" x2="559.94992" y2="308.2949494949495" stroke="#dddddd" stroke-width="1.3333333333333333"/><line x1="39.306666666666665" y1="256.2141414141414" x2="559.94992" y2="256.2141414141414" stroke="#dddddd" stroke-width="1.3333333333333333"/><line x1="39.306666666666665" y1="204.13333333333333" x2="559.94992" y2="204.13333333333333" stroke="#dddddd" stroke-width="1.3333333333333333"/><line x1="39.306666666666665" y1="152.05252525252524" x2="559.94992" y2="152.05252525252524" stroke="#dddddd" stroke-width="1.3333333333333333"/><line x1="39.306666666666665" y1="99.97171717171712" x2="559.94992" y2="99.97171717171712" stroke="#dddddd" stroke-width="1.3333333333333333"/><line x1="39.306666666666665" y1="47.890909090909076" x2="559.94992" y2="47.890909090909076" stroke="#dddddd" stroke-width="1.3333333333333333"/><rect x="39.306666666666665" y="32.266666666666666" width="520.6432533333333" height="343.73333333333335" fill="#ffffff" fill-opacity="0.0" stroke="#444444" stroke-width="1.3333333333333333"/><line x1="62.972269090909094" y1="376.0" x2="62.972269090909094" y2="379.66666666666663" stroke="#444444" stroke-width="1.3333333333333333"/><text x="62.972269090909094" y="391.9866666666667" fill="#333333" font-size="11.733333333333334" font-family="sans-serif" text-anchor="middle">0</text><line x1="141.8576105050505" y1="376.0" x2="141.8576105050505" y2="379.66666666666663" stroke="#444444" stroke-width="1.3333333333333333"/><text x="141.8576105050505" y="391.9866666666667" fill="#333333" font-size="11.733333333333334" font-family="sans-serif" text-anchor="middle">1</text><line x1="220.74295191919185" y1="376.0" x2="220.74295191919185" y2="379.66666666666663" stroke="#444444" stroke-width="1.3333333333333333"/><text x="220.74295191919185" y="391.9866666666667" fill="#333333" font-size="11.733333333333334" font-family="sans-serif" text-anchor="middle">2</text><line x1="299.6282933333333" y1="376.0" x2="299.6282933333333" y2="379.66666666666663" stroke="#444444" stroke-width="1.3333333333333333"/><text x="299.6282933333333" y="391.9866666666667" fill="#333333" font-size="11.733333333333334" font-family="sans-serif" text-anchor="middle">3</text><line x1="378.5136347474747" y1="376.0" x2="378.5136347474747" y2="379.66666666666663" stroke="#444444" stroke-width="1.3333333333333333"/><text x="378.5136347474747" y="391.9866666666667" fill="#333333" font-size="11.733333333333334" font-family="sans-serif" text-anchor="middle">4</text><line x1="457.39897616161625" y1="376.0" x2="457.39897616161625" y2="379.66666666666663" stroke="#444444" stroke-width="1.3333333333333333"/><text x="457.39897616161625" y="391.9866666666667" fill="#333333" font-size="11.733333333333334" font-family="sans-serif" text-anchor="middle">5</text><line x1="536.2843175757575" y1="376.0" x2="536.2843175757575" y2="379.66666666666663" stroke="#444444" stroke-width="1.3333333333333333"/><text x="536.2843175757575" y="391.9866666666667" fill="#333333" font-size="11.733333333333334" font-family="sans-serif" text-anchor="middle">6</text><line x1="39.306666666666665" y1="360.3757575757575" x2="35.64" y2="360.3757575757575" stroke="#444444" stroke-width="1.3333333333333333"/><text x="32.70666666666666" y="364.48242424242414" fill="#333333" font-size="11.733333333333334" font-family="sans-serif" text-anchor="end">0</text><line x1="39.306666666666665" y1="308.2949494949495" x2="35.64" y2="308.2949494949495" stroke="#444444" stroke-width="1.3333333333333333"/><text x="32.70666666666666" y="312.4016161616162" fill="#333333" font-size="11.733333333333334" font-family="sans-serif" text-anchor="end">1</text><line x1="39.306666666666665" y1="256.2141414141414" x2="35.64" y2="256.2141414141414" stroke="#444444" stroke-width="1.3333333333333333"/><text x="32.70666666666666" y="260.3208080808081" fill="#333333" font-size="11.733333333333334" font-family="sans-serif" text-anchor="end">2</text><line x1="39.306666666666665" y1="204.13333333333333" x2="35.64" y2="204.13333333333333" stroke="#444444" stroke-width="1.3333333333333333"/><text x="32.70666666666666" y="208.24" fill="#333333" font-size="11.733333333333334" font-family="sans-serif" text-anchor="end">3</text><line x1="39.306666666666665" y1="152.05252525252524" x2="35.64" y2="152.05252525252524" stroke="#444444" stroke-width="1.3333333333333333"/><text x="32.70666666666666" y="156.1591919191919" fill="#333333" font-size="11.733333333333334" font-family="sans-serif" text-anchor="end">4</text><line x1="39.306666666666665" y1="99.97171717171712" x2="35.64" y2="99.97171717171712" stroke="#444444" stroke-width="1.3333333333333333"/><text x="32.70666666666666" y="104.07838383838379" fill="#333333" font-size="11.733333333333334" font-family="sans-serif" text-anchor="end">5</text><line x1="39.306666666666665" y1="47.890909090909076" x2="35.64" y2="47.890909090909076" stroke="#444444" stroke-width="1.3333333333333333"/><text x="32.70666666666666" y="51.99757575757574" fill="#333333" font-size="11.733333333333334" font-family="sans-serif" text-anchor="end">6</text><text x="39.306666666666665" y="21.413333333333334" fill="#333333" font-size="17.599999999999998" font-family="sans-serif" text-anchor="start">contour (等高線、 2 つの山)</text><text x="299.6282933333333" y="409.73333333333335" fill="#333333" font-size="14.666666666666666" font-family="sans-serif" text-anchor="middle">x</text><text x="17.599999999999998" y="204.13333333333333" fill="#333333" font-size="14.666666666666666" font-family="sans-serif" text-anchor="middle" transform="rotate(-90.0 17.599999999999998 204.13333333333333)">y</text><line x1="94.52640565656566" y1="272.47944179042145" x2="81.38872163245838" y2="256.2141414141414" stroke="#40256c" stroke-width="2.0"/><line x1="81.38872163245838" y1="256.2141414141414" x2="69.83808957465376" y2="235.38181818181818" stroke="#40256c" stroke-width="2.0"/><line x1="62.972269090909094" y1="219.47439023358655" x2="69.83808957465376" y2="235.38181818181818" stroke="#40256c" stroke-width="2.0"/><line x1="62.972269090909094" y1="81.65882284762051" x2="79.85911594611119" y2="68.72323232323227" stroke="#40256c" stroke-width="2.0"/><line x1="79.85911594611119" y1="68.72323232323227" x2="94.52640565656566" y2="60.38284383118927" stroke="#40256c" stroke-width="2.0"/><line x1="126.08054222222223" y1="303.3341565081116" x2="118.9094343144296" y2="297.8787878787878" stroke="#40256c" stroke-width="2.0"/><line x1="118.9094343144296" y1="297.8787878787878" x2="97.86157867066495" y2="277.04646464646464" stroke="#40256c" stroke-width="2.0"/><line x1="94.52640565656566" y1="272.47944179042145" x2="97.86157867066495" y2="277.04646464646464" stroke="#40256c" stroke-width="2.0"/><line x1="94.52640565656566" y1="60.38284383118927" x2="126.08054222222223" y2="49.846431637418505" stroke="#40256c" stroke-width="2.0"/><line x1="157.6346787878788" y1="323.3623020037994" x2="149.4830376826356" y2="318.7111111111111" stroke="#40256c" stroke-width="2.0"/><line x1="126.08054222222223" y1="303.3341565081116" x2="149.4830376826356" y2="318.7111111111111" stroke="#40256c" stroke-width="2.0"/><line x1="126.08054222222223" y1="49.846431637418505" x2="138.6412835933681" y2="47.890909090909076" stroke="#40256c" stroke-width="2.0"/><line x1="157.6346787878788" y1="323.3623020037994" x2="189.18881535353535" y2="337.0459072819474" stroke="#40256c" stroke-width="2.0"/><line x1="220.74295191919185" y1="347.08493441605833" x2="197.78539686710977" y2="339.54343434343434" stroke="#40256c" stroke-width="2.0"/><line x1="189.18881535353535" y1="337.0459072819474" x2="197.78539686710977" y2="339.54343434343434" stroke="#40256c" stroke-width="2.0"/><line x1="220.74295191919185" y1="347.08493441605833" x2="252.29708848484847" y2="353.1528619596298" stroke="#40256c" stroke-width="2.0"/><line x1="252.29708848484847" y1="353.1528619596298" x2="283.85122505050504" y2="355.8416743661061" stroke="#40256c" stroke-width="2.0"/><line x1="281.1484439709679" y1="47.890909090909076" x2="283.85122505050504" y2="48.078806244721136" stroke="#40256c" stroke-width="2.0"/><line x1="283.85122505050504" y1="355.8416743661061" x2="315.4053616161616" y2="355.8416263699562" stroke="#40256c" stroke-width="2.0"/><line x1="283.85122505050504" y1="48.078806244721136" x2="315.4053616161616" y2="50.56408639105389" stroke="#40256c" stroke-width="2.0"/><line x1="315.4053616161616" y1="355.8416263699562" x2="346.9594981818182" y2="353.1526285209632" stroke="#40256c" stroke-width="2.0"/><line x1="315.4053616161616" y1="50.56408639105389" x2="346.9594981818182" y2="54.38893246370666" stroke="#40256c" stroke-width="2.0"/><line x1="346.9594981818182" y1="353.1526285209632" x2="378.5136347474747" y2="347.08413236555066" stroke="#40256c" stroke-width="2.0"/><line x1="346.9594981818182" y1="54.38893246370666" x2="378.5136347474747" y2="60.9190615103865" stroke="#40256c" stroke-width="2.0"/><line x1="401.46655170572944" y1="339.54343434343434" x2="378.5136347474747" y2="347.08413236555066" stroke="#40256c" stroke-width="2.0"/><line x1="401.46655170572944" y1="339.54343434343434" x2="410.06777131313135" y2="337.04322291762423" stroke="#40256c" stroke-width="2.0"/><line x1="401.87040567506534" y1="68.72323232323227" x2="410.06777131313135" y2="71.16135318580507" stroke="#40256c" stroke-width="2.0"/><line x1="378.5136347474747" y1="60.9190615103865" x2="401.87040567506534" y2="68.72323232323227" stroke="#40256c" stroke-width="2.0"/><line x1="410.06777131313135" y1="337.04322291762423" x2="441.6219078787879" y2="323.34788893817654" stroke="#40256c" stroke-width="2.0"/><line x1="410.06777131313135" y1="71.16135318580507" x2="441.6219078787879" y2="84.89954704845456" stroke="#40256c" stroke-width="2.0"/><line x1="449.74299456020833" y1="318.7111111111111" x2="441.6219078787879" y2="323.34788893817654" stroke="#40256c" stroke-width="2.0"/><line x1="449.74299456020833" y1="318.7111111111111" x2="473.17604444444447" y2="303.2404015517391" stroke="#40256c" stroke-width="2.0"/><line x1="449.77155638465615" y1="89.55555555555554" x2="473.17604444444447" y2="105.02233710133069" stroke="#40256c" stroke-width="2.0"/><line x1="441.6219078787879" y1="84.89954704845456" x2="449.77155638465615" y2="89.55555555555554" stroke="#40256c" stroke-width="2.0"/><line x1="480.1992413722301" y1="297.8787878787878" x2="473.17604444444447" y2="303.2404015517391" stroke="#40256c" stroke-width="2.0"/><line x1="500.94317918691314" y1="277.04646464646464" x2="480.1992413722301" y2="297.8787878787878" stroke="#40256c" stroke-width="2.0"/><line x1="500.94317918691314" y1="277.04646464646464" x2="504.73018101010103" y2="271.36785885325946" stroke="#40256c" stroke-width="2.0"/><line x1="500.9440725228993" y1="131.220202020202" x2="504.73018101010103" y2="136.89816957362746" stroke="#40256c" stroke-width="2.0"/><line x1="480.2036266034181" y1="110.38787878787873" x2="500.9440725228993" y2="131.220202020202" stroke="#40256c" stroke-width="2.0"/><line x1="473.17604444444447" y1="105.02233710133069" x2="480.2036266034181" y2="110.38787878787873" stroke="#40256c" stroke-width="2.0"/><line x1="516.1518603097642" y1="256.2141414141414" x2="504.73018101010103" y2="271.36785885325946" stroke="#40256c" stroke-width="2.0"/><line x1="525.3436344854654" y1="235.38181818181818" x2="516.1518603097642" y2="256.2141414141414" stroke="#40256c" stroke-width="2.0"/><line x1="529.4165675063454" y1="214.54949494949489" x2="525.3436344854654" y2="235.38181818181818" stroke="#40256c" stroke-width="2.0"/><line x1="529.4165878398097" y1="193.7171717171717" x2="529.4165675063454" y2="214.54949494949489" stroke="#40256c" stroke-width="2.0"/><line x1="525.3437269570887" y1="172.88484848484848" x2="529.4165878398097" y2="193.7171717171717" stroke="#40256c" stroke-width="2.0"/><line x1="516.1521429425195" y1="152.05252525252524" x2="525.3437269570887" y2="172.88484848484848" stroke="#40256c" stroke-width="2.0"/><line x1="504.73018101010103" y1="136.89816957362746" x2="516.1521429425195" y2="152.05252525252524" stroke="#40256c" stroke-width="2.0"/><line x1="94.52640565656566" y1="209.63775929892654" x2="84.60989477033411" y2="193.7171717171717" stroke="#3c4985" stroke-width="2.0"/><line x1="84.60989477033411" y1="193.7171717171717" x2="73.73414030781004" y2="172.88484848484848" stroke="#3c4985" stroke-width="2.0"/><line x1="73.73414030781004" y1="172.88484848484848" x2="67.089760164386" y2="152.05252525252524" stroke="#3c4985" stroke-width="2.0"/><line x1="67.089760164386" y1="152.05252525252524" x2="66.00881918071877" y2="131.220202020202" stroke="#3c4985" stroke-width="2.0"/><line x1="66.00881918071877" y1="131.220202020202" x2="72.32696155432782" y2="110.38787878787873" stroke="#3c4985" stroke-width="2.0"/><line x1="72.32696155432782" y1="110.38787878787873" x2="90.90215532718241" y2="89.55555555555554" stroke="#3c4985" stroke-width="2.0"/><line x1="90.90215532718241" y1="89.55555555555554" x2="94.52640565656566" y2="86.93917018998032" stroke="#3c4985" stroke-width="2.0"/><line x1="126.08054222222223" y1="258.58363749844176" x2="123.93626609751658" y2="256.2141414141414" stroke="#3c4985" stroke-width="2.0"/><line x1="123.93626609751658" y1="256.2141414141414" x2="108.77090091002454" y2="235.38181818181818" stroke="#3c4985" stroke-width="2.0"/><line x1="108.77090091002454" y1="235.38181818181818" x2="97.25846646733278" y2="214.54949494949489" stroke="#3c4985" stroke-width="2.0"/><line x1="94.52640565656566" y1="209.63775929892654" x2="97.25846646733278" y2="214.54949494949489" stroke="#3c4985" stroke-width="2.0"/><line x1="94.52640565656566" y1="86.93917018998032" x2="126.08054222222223" y2="71.26419363425823" stroke="#3c4985" stroke-width="2.0"/><line x1="157.6346787878788" y1="288.6715905710191" x2="142.7999690779304" y2="277.04646464646464" stroke="#3c4985" stroke-width="2.0"/><line x1="126.08054222222223" y1="258.58363749844176" x2="142.7999690779304" y2="277.04646464646464" stroke="#3c4985" stroke-width="2.0"/><line x1="126.08054222222223" y1="71.26419363425823" x2="137.4038049704747" y2="68.72323232323227" stroke="#3c4985" stroke-width="2.0"/><line x1="137.4038049704747" y1="68.72323232323227" x2="157.6346787878788" y2="63.88142990950488" stroke="#3c4985" stroke-width="2.0"/><line x1="189.18881535353535" y1="307.38432652212146" x2="171.80796905387731" y2="297.8787878787878" stroke="#3c4985" stroke-width="2.0"/><line x1="157.6346787878788" y1="288.6715905710191" x2="171.80796905387731" y2="297.8787878787878" stroke="#3c4985" stroke-width="2.0"/><line x1="157.6346787878788" y1="63.88142990950488" x2="189.18881535353535" y2="61.95434060803639" stroke="#3c4985" stroke-width="2.0"/><line x1="220.74295191919185" y1="318.8462036440518" x2="220.3771889727235" y2="318.7111111111111" stroke="#3c4985" stroke-width="2.0"/><line x1="189.18881535353535" y1="307.38432652212146" x2="220.3771889727235" y2="318.7111111111111" stroke="#3c4985" stroke-width="2.0"/><line x1="189.18881535353535" y1="61.95434060803639" x2="220.74295191919185" y2="63.76395801035876" stroke="#3c4985" stroke-width="2.0"/><line x1="220.74295191919185" y1="318.8462036440518" x2="252.29708848484847" y2="326.90265032938106" stroke="#3c4985" stroke-width="2.0"/><line x1="220.74295191919185" y1="63.76395801035876" x2="252.29708848484847" y2="67.68482758336896" stroke="#3c4985" stroke-width="2.0"/><line x1="252.29708848484847" y1="326.90265032938106" x2="283.85122505050504" y2="330.47302905403785" stroke="#3c4985" stroke-width="2.0"/><line x1="259.93999325134325" y1="68.72323232323227" x2="283.85122505050504" y2="71.33425041546892" stroke="#3c4985" stroke-width="2.0"/><line x1="252.29708848484847" y1="67.68482758336896" x2="259.93999325134325" y2="68.72323232323227" stroke="#3c4985" stroke-width="2.0"/><line x1="283.85122505050504" y1="330.47302905403785" x2="315.4053616161616" y2="330.4725729601263" stroke="#3c4985" stroke-width="2.0"/><line x1="283.85122505050504" y1="71.33425041546892" x2="315.4053616161616" y2="75.06733944007051" stroke="#3c4985" stroke-width="2.0"/><line x1="315.4053616161616" y1="330.4725729601263" x2="346.9594981818182" y2="326.90058315709314" stroke="#3c4985" stroke-width="2.0"/><line x1="315.4053616161616" y1="75.06733944007051" x2="346.9594981818182" y2="80.33257082436705" stroke="#3c4985" stroke-width="2.0"/><line x1="346.9594981818182" y1="326.90058315709314" x2="378.5136347474747" y2="318.83961684401095" stroke="#3c4985" stroke-width="2.0"/><line x1="346.9594981818182" y1="80.33257082436705" x2="378.5136347474747" y2="89.06569199617282" stroke="#3c4985" stroke-width="2.0"/><line x1="378.86139069733827" y1="318.7111111111111" x2="378.5136347474747" y2="318.83961684401095" stroke="#3c4985" stroke-width="2.0"/><line x1="378.86139069733827" y1="318.7111111111111" x2="410.06777131313135" y2="307.34836648077294" stroke="#3c4985" stroke-width="2.0"/><line x1="379.81562852282343" y1="89.55555555555554" x2="410.06777131313135" y2="100.83379091550594" stroke="#3c4985" stroke-width="2.0"/><line x1="378.5136347474747" y1="89.06569199617282" x2="379.81562852282343" y2="89.55555555555554" stroke="#3c4985" stroke-width="2.0"/><line x1="427.33518437670324" y1="297.8787878787878" x2="410.06777131313135" y2="307.34836648077294" stroke="#3c4985" stroke-width="2.0"/><line x1="427.33518437670324" y1="297.8787878787878" x2="441.6219078787879" y2="288.4465595196769" stroke="#3c4985" stroke-width="2.0"/><line x1="427.428307035852" y1="110.38787878787873" x2="441.6219078787879" y2="119.80108756450545" stroke="#3c4985" stroke-width="2.0"/><line x1="410.06777131313135" y1="100.83379091550594" x2="427.428307035852" y2="110.38787878787873" stroke="#3c4985" stroke-width="2.0"/><line x1="455.9652026800257" y1="277.04646464646464" x2="441.6219078787879" y2="288.4465595196769" stroke="#3c4985" stroke-width="2.0"/><line x1="455.9652026800257" y1="277.04646464646464" x2="473.17604444444447" y2="256.4436959166451" stroke="#3c4985" stroke-width="2.0"/><line x1="455.9800791894359" y1="131.220202020202" x2="473.17604444444447" y2="151.81970660139012" stroke="#3c4985" stroke-width="2.0"/><line x1="441.6219078787879" y1="119.80108756450545" x2="455.9800791894359" y2="131.220202020202" stroke="#3c4985" stroke-width="2.0"/><line x1="473.3706569041907" y1="256.2141414141414" x2="473.17604444444447" y2="256.4436959166451" stroke="#3c4985" stroke-width="2.0"/><line x1="485.580319271674" y1="235.38181818181818" x2="473.3706569041907" y2="256.2141414141414" stroke="#3c4985" stroke-width="2.0"/><line x1="490.9905612932858" y1="214.54949494949489" x2="485.580319271674" y2="235.38181818181818" stroke="#3c4985" stroke-width="2.0"/><line x1="490.9907924778573" y1="193.7171717171717" x2="490.9905612932858" y2="214.54949494949489" stroke="#3c4985" stroke-width="2.0"/><line x1="485.5812926512083" y1="172.88484848484848" x2="490.9907924778573" y2="193.7171717171717" stroke="#3c4985" stroke-width="2.0"/><line x1="473.37340286798377" y1="152.05252525252524" x2="485.5812926512083" y2="172.88484848484848" stroke="#3c4985" stroke-width="2.0"/><line x1="473.17604444444447" y1="151.81970660139012" x2="473.37340286798377" y2="152.05252525252524" stroke="#3c4985" stroke-width="2.0"/><line x1="94.52640565656566" y1="162.82739311679717" x2="89.840561106596" y2="152.05252525252524" stroke="#32678b" stroke-width="2.0"/><line x1="89.840561106596" y1="152.05252525252524" x2="88.36470477546212" y2="131.220202020202" stroke="#32678b" stroke-width="2.0"/><line x1="88.36470477546212" y1="131.220202020202" x2="94.52640565656566" y2="116.96567312527714" stroke="#32678b" stroke-width="2.0"/><line x1="126.08054222222223" y1="216.63398125121094" x2="124.68581528614244" y2="214.54949494949489" stroke="#32678b" stroke-width="2.0"/><line x1="124.68581528614244" y1="214.54949494949489" x2="110.83905214316403" y2="193.7171717171717" stroke="#32678b" stroke-width="2.0"/><line x1="110.83905214316403" y1="193.7171717171717" x2="98.67508445722802" y2="172.88484848484848" stroke="#32678b" stroke-width="2.0"/><line x1="94.52640565656566" y1="162.82739311679717" x2="98.67508445722802" y2="172.88484848484848" stroke="#32678b" stroke-width="2.0"/><line x1="94.52640565656566" y1="116.96567312527714" x2="97.61529331709409" y2="110.38787878787873" stroke="#32678b" stroke-width="2.0"/><line x1="97.61529331709409" y1="110.38787878787873" x2="124.19235514178737" y2="89.55555555555554" stroke="#32678b" stroke-width="2.0"/><line x1="124.19235514178737" y1="89.55555555555554" x2="126.08054222222223" y2="88.57040408143996" stroke="#32678b" stroke-width="2.0"/><line x1="157.6346787878788" y1="259.0417802125172" x2="154.70138098979618" y2="256.2141414141414" stroke="#32678b" stroke-width="2.0"/><line x1="154.70138098979618" y1="256.2141414141414" x2="137.76874720295612" y2="235.38181818181818" stroke="#32678b" stroke-width="2.0"/><line x1="126.08054222222223" y1="216.63398125121094" x2="137.76874720295612" y2="235.38181818181818" stroke="#32678b" stroke-width="2.0"/><line x1="126.08054222222223" y1="88.57040408143996" x2="157.6346787878788" y2="79.2791746793398" stroke="#32678b" stroke-width="2.0"/><line x1="189.18881535353535" y1="283.997583097084" x2="178.53534975303472" y2="277.04646464646464" stroke="#32678b" stroke-width="2.0"/><line x1="157.6346787878788" y1="259.0417802125172" x2="178.53534975303472" y2="277.04646464646464" stroke="#32678b" stroke-width="2.0"/><line x1="157.6346787878788" y1="79.2791746793398" x2="189.18881535353535" y2="77.18762100216614" stroke="#32678b" stroke-width="2.0"/><line x1="220.74295191919185" y1="298.7272529631865" x2="218.75271897399256" y2="297.8787878787878" stroke="#32678b" stroke-width="2.0"/><line x1="189.18881535353535" y1="283.997583097084" x2="218.75271897399256" y2="297.8787878787878" stroke="#32678b" stroke-width="2.0"/><line x1="189.18881535353535" y1="77.18762100216614" x2="220.74295191919185" y2="79.345748392398" stroke="#32678b" stroke-width="2.0"/><line x1="220.74295191919185" y1="298.7272529631865" x2="252.29708848484847" y2="307.9271325113764" stroke="#32678b" stroke-width="2.0"/><line x1="220.74295191919185" y1="79.345748392398" x2="252.29708848484847" y2="83.7019357505937" stroke="#32678b" stroke-width="2.0"/><line x1="252.29708848484847" y1="307.9271325113764" x2="283.85122505050504" y2="312.0067957354544" stroke="#32678b" stroke-width="2.0"/><line x1="252.29708848484847" y1="83.7019357505937" x2="283.85122505050504" y2="88.67380972622902" stroke="#32678b" stroke-width="2.0"/><line x1="283.85122505050504" y1="312.0067957354544" x2="315.4053616161616" y2="312.0048678493647" stroke="#32678b" stroke-width="2.0"/><line x1="289.3282590840636" y1="89.55555555555554" x2="315.4053616161616" y2="93.23155778701762" stroke="#32678b" stroke-width="2.0"/><line x1="283.85122505050504" y1="88.67380972622902" x2="289.3282590840636" y2="89.55555555555554" stroke="#32678b" stroke-width="2.0"/><line x1="315.4053616161616" y1="312.0048678493647" x2="346.9594981818182" y2="307.9177770693568" stroke="#32678b" stroke-width="2.0"/><line x1="315.4053616161616" y1="93.23155778701762" x2="346.9594981818182" y2="99.24854189510896" stroke="#32678b" stroke-width="2.0"/><line x1="346.9594981818182" y1="307.9177770693568" x2="378.5136347474747" y2="298.6951924618003" stroke="#32678b" stroke-width="2.0"/><line x1="346.9594981818182" y1="99.24854189510896" x2="378.5136347474747" y2="109.20758324302065" stroke="#32678b" stroke-width="2.0"/><line x1="380.4242649214127" y1="297.8787878787878" x2="378.5136347474747" y2="298.6951924618003" stroke="#32678b" stroke-width="2.0"/><line x1="380.4242649214127" y1="297.8787878787878" x2="410.06777131313135" y2="283.8023588060697" stroke="#32678b" stroke-width="2.0"/><line x1="381.2280486578928" y1="110.38787878787873" x2="410.06777131313135" y2="124.37869585786032" stroke="#32678b" stroke-width="2.0"/><line x1="378.5136347474747" y1="109.20758324302065" x2="381.2280486578928" y2="110.38787878787873" stroke="#32678b" stroke-width="2.0"/><line x1="420.30073049990807" y1="277.04646464646464" x2="410.06777131313135" y2="283.8023588060697" stroke="#32678b" stroke-width="2.0"/><line x1="420.30073049990807" y1="277.04646464646464" x2="441.6219078787879" y2="257.47544625452576" stroke="#32678b" stroke-width="2.0"/><line x1="420.3964255251224" y1="131.220202020202" x2="441.6219078787879" y2="150.77445742578212" stroke="#32678b" stroke-width="2.0"/><line x1="410.06777131313135" y1="124.37869585786032" x2="420.3964255251224" y2="131.220202020202" stroke="#32678b" stroke-width="2.0"/><line x1="442.8583822641549" y1="256.2141414141414" x2="441.6219078787879" y2="257.47544625452576" stroke="#32678b" stroke-width="2.0"/><line x1="456.82735246465705" y1="235.38181818181818" x2="442.8583822641549" y2="256.2141414141414" stroke="#32678b" stroke-width="2.0"/><line x1="463.01739421154844" y1="214.54949494949489" x2="456.82735246465705" y2="235.38181818181818" stroke="#32678b" stroke-width="2.0"/><line x1="463.01852276102943" y1="193.7171717171717" x2="463.01739421154844" y2="214.54949494949489" stroke="#32678b" stroke-width="2.0"/><line x1="456.8324844339645" y1="172.88484848484848" x2="463.01852276102943" y2="193.7171717171717" stroke="#32678b" stroke-width="2.0"/><line x1="442.87406531449153" y1="152.05252525252524" x2="456.8324844339645" y2="172.88484848484848" stroke="#32678b" stroke-width="2.0"/><line x1="441.6219078787879" y1="150.77445742578212" x2="442.87406531449153" y2="152.05252525252524" stroke="#32678b" stroke-width="2.0"/><line x1="126.08054222222223" y1="181.70972845398154" x2="120.25463846375663" y2="172.88484848484848" stroke="#27838c" stroke-width="2.0"/><line x1="120.25463846375663" y1="172.88484848484848" x2="110.60406619914747" y2="152.05252525252524" stroke="#27838c" stroke-width="2.0"/><line x1="110.60406619914747" y1="152.05252525252524" x2="109.58169225284357" y2="131.220202020202" stroke="#27838c" stroke-width="2.0"/><line x1="109.58169225284357" y1="131.220202020202" x2="121.9018507327776" y2="110.38787878787873" stroke="#27838c" stroke-width="2.0"/><line x1="121.9018507327776" y1="110.38787878787873" x2="126.08054222222223" y2="107.17358650808023" stroke="#27838c" stroke-width="2.0"/><line x1="157.6346787878788" y1="228.1736545475378" x2="147.9419684311988" y2="214.54949494949489" stroke="#27838c" stroke-width="2.0"/><line x1="147.9419684311988" y1="214.54949494949489" x2="134.15524859987943" y2="193.7171717171717" stroke="#27838c" stroke-width="2.0"/><line x1="126.08054222222223" y1="181.70972845398154" x2="134.15524859987943" y2="193.7171717171717" stroke="#27838c" stroke-width="2.0"/><line x1="126.08054222222223" y1="107.17358650808023" x2="157.6346787878788" y2="93.77671245331013" stroke="#27838c" stroke-width="2.0"/><line x1="189.18881535353535" y1="262.18871444506146" x2="181.80780205106646" y2="256.2141414141414" stroke="#27838c" stroke-width="2.0"/><line x1="181.80780205106646" y1="256.2141414141414" x2="162.7596336684869" y2="235.38181818181818" stroke="#27838c" stroke-width="2.0"/><line x1="157.6346787878788" y1="228.1736545475378" x2="162.7596336684869" y2="235.38181818181818" stroke="#27838c" stroke-width="2.0"/><line x1="157.6346787878788" y1="93.77671245331013" x2="189.18881535353535" y2="90.81834734452434" stroke="#27838c" stroke-width="2.0"/><line x1="220.74295191919185" y1="281.1359648182415" x2="212.7172901865759" y2="277.04646464646464" stroke="#27838c" stroke-width="2.0"/><line x1="189.18881535353535" y1="262.18871444506146" x2="212.7172901865759" y2="277.04646464646464" stroke="#27838c" stroke-width="2.0"/><line x1="189.18881535353535" y1="90.81834734452434" x2="220.74295191919185" y2="93.40227392729096" stroke="#27838c" stroke-width="2.0"/><line x1="220.74295191919185" y1="281.1359648182415" x2="252.29708848484847" y2="291.7023299068219" stroke="#27838c" stroke-width="2.0"/><line x1="220.74295191919185" y1="93.40227392729096" x2="252.29708848484847" y2="98.15467183708373" stroke="#27838c" stroke-width="2.0"/><line x1="252.29708848484847" y1="291.7023299068219" x2="283.85122505050504" y2="296.4021038279634" stroke="#27838c" stroke-width="2.0"/><line x1="252.29708848484847" y1="98.15467183708373" x2="283.85122505050504" y2="103.08369647923521" stroke="#27838c" stroke-width="2.0"/><line x1="283.85122505050504" y1="296.4021038279634" x2="315.4053616161616" y2="296.39697334607655" stroke="#27838c" stroke-width="2.0"/><line x1="283.85122505050504" y1="103.08369647923521" x2="315.4053616161616" y2="108.41452005664999" stroke="#27838c" stroke-width="2.0"/><line x1="315.4053616161616" y1="296.39697334607655" x2="346.9594981818182" y2="291.67122936163594" stroke="#27838c" stroke-width="2.0"/><line x1="324.113841291512" y1="110.38787878787873" x2="346.9594981818182" y2="115.48247103601318" stroke="#27838c" stroke-width="2.0"/><line x1="315.4053616161616" y1="108.41452005664999" x2="324.113841291512" y2="110.38787878787873" stroke="#27838c" stroke-width="2.0"/><line x1="346.9594981818182" y1="291.67122936163594" x2="378.5136347474747" y2="281.00839646079675" stroke="#27838c" stroke-width="2.0"/><line x1="346.9594981818182" y1="115.48247103601318" x2="378.5136347474747" y2="126.92268751335503" stroke="#27838c" stroke-width="2.0"/><line x1="386.21551026376585" y1="277.04646464646464" x2="378.5136347474747" y2="281.00839646079675" stroke="#27838c" stroke-width="2.0"/><line x1="386.21551026376585" y1="277.04646464646464" x2="410.06777131313135" y2="261.2988080303219" stroke="#27838c" stroke-width="2.0"/><line x1="386.73746693800774" y1="131.220202020202" x2="410.06777131313135" y2="146.89060792881506" stroke="#27838c" stroke-width="2.0"/><line x1="378.5136347474747" y1="126.92268751335503" x2="386.73746693800774" y2="131.220202020202" stroke="#27838c" stroke-width="2.0"/><line x1="416.06855126532275" y1="256.2141414141414" x2="410.06777131313135" y2="261.2988080303219" stroke="#27838c" stroke-width="2.0"/><line x1="432.2186296848041" y1="235.38181818181818" x2="416.06855126532275" y2="256.2141414141414" stroke="#27838c" stroke-width="2.0"/><line x1="439.37528963243005" y1="214.54949494949489" x2="432.2186296848041" y2="235.38181818181818" stroke="#27838c" stroke-width="2.0"/><line x1="439.3785627075499" y1="193.7171717171717" x2="439.37528963243005" y2="214.54949494949489" stroke="#27838c" stroke-width="2.0"/><line x1="432.2381156087816" y1="172.88484848484848" x2="439.3785627075499" y2="193.7171717171717" stroke="#27838c" stroke-width="2.0"/><line x1="416.1415779345946" y1="152.05252525252524" x2="432.2381156087816" y2="172.88484848484848" stroke="#27838c" stroke-width="2.0"/><line x1="410.06777131313135" y1="146.89060792881506" x2="416.1415779345946" y2="152.05252525252524" stroke="#27838c" stroke-width="2.0"/><line x1="157.6346787878788" y1="195.90975728234872" x2="156.1370946278181" y2="193.7171717171717" stroke="#2f9d83" stroke-width="2.0"/><line x1="156.1370946278181" y1="193.7171717171717" x2="142.19879961189628" y2="172.88484848484848" stroke="#2f9d83" stroke-width="2.0"/><line x1="142.19879961189628" y1="172.88484848484848" x2="131.60403552054913" y2="152.05252525252524" stroke="#2f9d83" stroke-width="2.0"/><line x1="131.60403552054913" y1="152.05252525252524" x2="131.5974531473477" y2="131.220202020202" stroke="#2f9d83" stroke-width="2.0"/><line x1="131.5974531473477" y1="131.220202020202" x2="153.95831061776678" y2="110.38787878787873" stroke="#2f9d83" stroke-width="2.0"/><line x1="153.95831061776678" y1="110.38787878787873" x2="157.6346787878788" y2="108.75272973742145" stroke="#2f9d83" stroke-width="2.0"/><line x1="189.18881535353535" y1="238.92023664077396" x2="185.77798992187425" y2="235.38181818181818" stroke="#2f9d83" stroke-width="2.0"/><line x1="185.77798992187425" y1="235.38181818181818" x2="170.21607197541243" y2="214.54949494949489" stroke="#2f9d83" stroke-width="2.0"/><line x1="157.6346787878788" y1="195.90975728234872" x2="170.21607197541243" y2="214.54949494949489" stroke="#2f9d83" stroke-width="2.0"/><line x1="157.6346787878788" y1="108.75272973742145" x2="189.18881535353535" y2="104.40538251404976" stroke="#2f9d83" stroke-width="2.0"/><line x1="220.74295191919185" y1="263.763124842391" x2="208.89609719352984" y2="256.2141414141414" stroke="#2f9d83" stroke-width="2.0"/><line x1="189.18881535353535" y1="238.92023664077396" x2="208.89609719352984" y2="256.2141414141414" stroke="#2f9d83" stroke-width="2.0"/><line x1="189.18881535353535" y1="104.40538251404976" x2="220.74295191919185" y2="106.77833200196626" stroke="#2f9d83" stroke-width="2.0"/><line x1="220.74295191919185" y1="263.763124842391" x2="252.29708848484847" y2="276.7615972108629" stroke="#2f9d83" stroke-width="2.0"/><line x1="243.3630494787774" y1="110.38787878787873" x2="252.29708848484847" y2="111.90670471119941" stroke="#2f9d83" stroke-width="2.0"/><line x1="220.74295191919185" y1="106.77833200196626" x2="243.3630494787774" y2="110.38787878787873" stroke="#2f9d83" stroke-width="2.0"/><line x1="283.85122505050504" y1="282.58725313050775" x2="253.72818207365708" y2="277.04646464646464" stroke="#2f9d83" stroke-width="2.0"/><line x1="252.29708848484847" y1="276.7615972108629" x2="253.72818207365708" y2="277.04646464646464" stroke="#2f9d83" stroke-width="2.0"/><line x1="252.29708848484847" y1="111.90670471119941" x2="283.85122505050504" y2="116.98309352893" stroke="#2f9d83" stroke-width="2.0"/><line x1="283.85122505050504" y1="282.58725313050775" x2="315.4053616161616" y2="282.57106223067524" stroke="#2f9d83" stroke-width="2.0"/><line x1="283.85122505050504" y1="116.98309352893" x2="315.4053616161616" y2="122.31978322737098" stroke="#2f9d83" stroke-width="2.0"/><line x1="345.18086399930917" y1="277.04646464646464" x2="315.4053616161616" y2="282.57106223067524" stroke="#2f9d83" stroke-width="2.0"/><line x1="345.18086399930917" y1="277.04646464646464" x2="346.9594981818182" y2="276.6856013923888" stroke="#2f9d83" stroke-width="2.0"/><line x1="315.4053616161616" y1="122.31978322737098" x2="346.9594981818182" y2="130.42412224509997" stroke="#2f9d83" stroke-width="2.0"/><line x1="346.9594981818182" y1="276.6856013923888" x2="378.5136347474747" y2="263.295708283604" stroke="#2f9d83" stroke-width="2.0"/><line x1="349.0384032803423" y1="131.220202020202" x2="378.5136347474747" y2="144.66415354295683" stroke="#2f9d83" stroke-width="2.0"/><line x1="346.9594981818182" y1="130.42412224509997" x2="349.0384032803423" y2="131.220202020202" stroke="#2f9d83" stroke-width="2.0"/><line x1="389.23978906028174" y1="256.2141414141414" x2="378.5136347474747" y2="263.295708283604" stroke="#2f9d83" stroke-width="2.0"/><line x1="409.5193462652602" y1="235.38181818181818" x2="389.23978906028174" y2="256.2141414141414" stroke="#2f9d83" stroke-width="2.0"/><line x1="409.5193462652602" y1="235.38181818181818" x2="410.06777131313135" y2="234.20292611826477" stroke="#2f9d83" stroke-width="2.0"/><line x1="409.5700505288239" y1="172.88484848484848" x2="410.06777131313135" y2="173.96467085858856" stroke="#2f9d83" stroke-width="2.0"/><line x1="389.55348488097366" y1="152.05252525252524" x2="409.5700505288239" y2="172.88484848484848" stroke="#2f9d83" stroke-width="2.0"/><line x1="378.5136347474747" y1="144.66415354295683" x2="389.55348488097366" y2="152.05252525252524" stroke="#2f9d83" stroke-width="2.0"/><line x1="418.4298281557993" y1="214.54949494949489" x2="410.06777131313135" y2="234.20292611826477" stroke="#2f9d83" stroke-width="2.0"/><line x1="418.44126606621705" y1="193.7171717171717" x2="418.4298281557993" y2="214.54949494949489" stroke="#2f9d83" stroke-width="2.0"/><line x1="410.06777131313135" y1="173.96467085858856" x2="418.44126606621705" y2="193.7171717171717" stroke="#2f9d83" stroke-width="2.0"/><line x1="157.6346787878788" y1="157.65101726092053" x2="155.0429365324115" y2="152.05252525252524" stroke="#4ab670" stroke-width="2.0"/><line x1="155.0429365324115" y1="152.05252525252524" x2="157.6346787878788" y2="135.31016733347462" stroke="#4ab670" stroke-width="2.0"/><line x1="189.18881535353535" y1="210.01636619664237" x2="178.83343355227572" y2="193.7171717171717" stroke="#4ab670" stroke-width="2.0"/><line x1="178.83343355227572" y1="193.7171717171717" x2="165.70512215528865" y2="172.88484848484848" stroke="#4ab670" stroke-width="2.0"/><line x1="157.6346787878788" y1="157.65101726092053" x2="165.70512215528865" y2="172.88484848484848" stroke="#4ab670" stroke-width="2.0"/><line x1="157.6346787878788" y1="135.31016733347462" x2="159.1368830230374" y2="131.220202020202" stroke="#4ab670" stroke-width="2.0"/><line x1="159.1368830230374" y1="131.220202020202" x2="189.18881535353535" y2="120.9868667807308" stroke="#4ab670" stroke-width="2.0"/><line x1="220.74295191919185" y1="244.9323999252239" x2="209.40092313881934" y2="235.38181818181818" stroke="#4ab670" stroke-width="2.0"/><line x1="209.40092313881934" y1="235.38181818181818" x2="192.12254699562396" y2="214.54949494949489" stroke="#4ab670" stroke-width="2.0"/><line x1="189.18881535353535" y1="210.01636619664237" x2="192.12254699562396" y2="214.54949494949489" stroke="#4ab670" stroke-width="2.0"/><line x1="189.18881535353535" y1="120.9868667807308" x2="220.74295191919185" y2="122.02759223234666" stroke="#4ab670" stroke-width="2.0"/><line x1="252.29708848484847" y1="261.811354770368" x2="239.71654937428332" y2="256.2141414141414" stroke="#4ab670" stroke-width="2.0"/><line x1="220.74295191919185" y1="244.9323999252239" x2="239.71654937428332" y2="256.2141414141414" stroke="#4ab670" stroke-width="2.0"/><line x1="220.74295191919185" y1="122.02759223234666" x2="252.29708848484847" y2="126.15720465504887" stroke="#4ab670" stroke-width="2.0"/><line x1="252.29708848484847" y1="261.811354770368" x2="283.85122505050504" y2="268.72562755887486" stroke="#4ab670" stroke-width="2.0"/><line x1="252.29708848484847" y1="126.15720465504887" x2="283.85122505050504" y2="130.51087783764524" stroke="#4ab670" stroke-width="2.0"/><line x1="283.85122505050504" y1="268.72562755887486" x2="315.4053616161616" y2="268.6780848882521" stroke="#4ab670" stroke-width="2.0"/><line x1="287.9521700333597" y1="131.220202020202" x2="315.4053616161616" y2="136.24703149492169" stroke="#4ab670" stroke-width="2.0"/><line x1="283.85122505050504" y1="130.51087783764524" x2="287.9521700333597" y2="131.220202020202" stroke="#4ab670" stroke-width="2.0"/><line x1="315.4053616161616" y1="268.6780848882521" x2="346.9594981818182" y2="261.56711770374545" stroke="#4ab670" stroke-width="2.0"/><line x1="315.4053616161616" y1="136.24703149492169" x2="346.9594981818182" y2="145.66285355730156" stroke="#4ab670" stroke-width="2.0"/><line x1="358.6569269755224" y1="256.2141414141414" x2="346.9594981818182" y2="261.56711770374545" stroke="#4ab670" stroke-width="2.0"/><line x1="358.6569269755224" y1="256.2141414141414" x2="378.5136347474747" y2="243.10211214894872" stroke="#4ab670" stroke-width="2.0"/><line x1="360.12710553664147" y1="152.05252525252524" x2="378.5136347474747" y2="164.89025555840607" stroke="#4ab670" stroke-width="2.0"/><line x1="346.9594981818182" y1="145.66285355730156" x2="360.12710553664147" y2="152.05252525252524" stroke="#4ab670" stroke-width="2.0"/><line x1="386.61813581042134" y1="235.38181818181818" x2="378.5136347474747" y2="243.10211214894872" stroke="#4ab670" stroke-width="2.0"/><line x1="397.3788839064774" y1="214.54949494949489" x2="386.61813581042134" y2="235.38181818181818" stroke="#4ab670" stroke-width="2.0"/><line x1="397.41720806586534" y1="193.7171717171717" x2="397.3788839064774" y2="214.54949494949489" stroke="#4ab670" stroke-width="2.0"/><line x1="386.8049591391903" y1="172.88484848484848" x2="397.41720806586534" y2="193.7171717171717" stroke="#4ab670" stroke-width="2.0"/><line x1="378.5136347474747" y1="164.89025555840607" x2="386.8049591391903" y2="172.88484848484848" stroke="#4ab670" stroke-width="2.0"/><line x1="220.74295191919185" y1="221.01833619756212" x2="215.29524221854027" y2="214.54949494949489" stroke="#70cc5b" stroke-width="2.0"/><line x1="215.29524221854027" y1="214.54949494949489" x2="203.48595388645782" y2="193.7171717171717" stroke="#70cc5b" stroke-width="2.0"/><line x1="203.48595388645782" y1="193.7171717171717" x2="193.7735352091352" y2="172.88484848484848" stroke="#70cc5b" stroke-width="2.0"/><line x1="193.7735352091352" y1="172.88484848484848" x2="190.34916734484165" y2="152.05252525252524" stroke="#70cc5b" stroke-width="2.0"/><line x1="190.34916734484165" y1="152.05252525252524" x2="220.74295191919185" y2="141.90083764442772" stroke="#70cc5b" stroke-width="2.0"/><line x1="252.29708848484847" y1="245.09058281269532" x2="236.16490769336366" y2="235.38181818181818" stroke="#70cc5b" stroke-width="2.0"/><line x1="220.74295191919185" y1="221.01833619756212" x2="236.16490769336366" y2="235.38181818181818" stroke="#70cc5b" stroke-width="2.0"/><line x1="220.74295191919185" y1="141.90083764442772" x2="252.29708848484847" y2="142.66969503563078" stroke="#70cc5b" stroke-width="2.0"/><line x1="252.29708848484847" y1="245.09058281269532" x2="283.85122505050504" y2="254.54037264515455" stroke="#70cc5b" stroke-width="2.0"/><line x1="252.29708848484847" y1="142.66969503563078" x2="283.85122505050504" y2="145.3703496793957" stroke="#70cc5b" stroke-width="2.0"/><line x1="283.85122505050504" y1="254.54037264515455" x2="315.4053616161616" y2="254.41228727660632" stroke="#70cc5b" stroke-width="2.0"/><line x1="283.85122505050504" y1="145.3703496793957" x2="315.4053616161616" y2="150.56782751656124" stroke="#70cc5b" stroke-width="2.0"/><line x1="315.4053616161616" y1="254.41228727660632" x2="346.9594981818182" y2="244.2283011591997" stroke="#70cc5b" stroke-width="2.0"/><line x1="320.1822489464642" y1="152.05252525252524" x2="346.9594981818182" y2="163.0666383327257" stroke="#70cc5b" stroke-width="2.0"/><line x1="315.4053616161616" y1="150.56782751656124" x2="320.1822489464642" y2="152.05252525252524" stroke="#70cc5b" stroke-width="2.0"/><line x1="360.3568857657758" y1="235.38181818181818" x2="346.9594981818182" y2="244.2283011591997" stroke="#70cc5b" stroke-width="2.0"/><line x1="375.75476849600966" y1="214.54949494949489" x2="360.3568857657758" y2="235.38181818181818" stroke="#70cc5b" stroke-width="2.0"/><line x1="375.8671914574603" y1="193.7171717171717" x2="375.75476849600966" y2="214.54949494949489" stroke="#70cc5b" stroke-width="2.0"/><line x1="361.1267253024698" y1="172.88484848484848" x2="375.8671914574603" y2="193.7171717171717" stroke="#70cc5b" stroke-width="2.0"/><line x1="346.9594981818182" y1="163.0666383327257" x2="361.1267253024698" y2="172.88484848484848" stroke="#70cc5b" stroke-width="2.0"/><line x1="252.29708848484847" y1="222.93153686003726" x2="243.2887492845182" y2="214.54949494949489" stroke="#b6da40" stroke-width="2.0"/><line x1="243.2887492845182" y1="214.54949494949489" x2="232.80340112078443" y2="193.7171717171717" stroke="#b6da40" stroke-width="2.0"/><line x1="232.80340112078443" y1="193.7171717171717" x2="236.1131883930114" y2="172.88484848484848" stroke="#b6da40" stroke-width="2.0"/><line x1="236.1131883930114" y1="172.88484848484848" x2="252.29708848484847" y2="165.0921535474567" stroke="#b6da40" stroke-width="2.0"/><line x1="283.85122505050504" y1="237.70778949578954" x2="276.487740857898" y2="235.38181818181818" stroke="#b6da40" stroke-width="2.0"/><line x1="252.29708848484847" y1="222.93153686003726" x2="276.487740857898" y2="235.38181818181818" stroke="#b6da40" stroke-width="2.0"/><line x1="252.29708848484847" y1="165.0921535474567" x2="283.85122505050504" y2="163.12607873699793" stroke="#b6da40" stroke-width="2.0"/><line x1="283.85122505050504" y1="237.70778949578954" x2="315.4053616161616" y2="237.37075716352757" stroke="#b6da40" stroke-width="2.0"/><line x1="283.85122505050504" y1="163.12607873699793" x2="315.4053616161616" y2="168.33812466293358" stroke="#b6da40" stroke-width="2.0"/><line x1="321.1599465705778" y1="235.38181818181818" x2="315.4053616161616" y2="237.37075716352757" stroke="#b6da40" stroke-width="2.0"/><line x1="321.1599465705778" y1="235.38181818181818" x2="346.9594981818182" y2="218.29613458802183" stroke="#b6da40" stroke-width="2.0"/><line x1="326.1897110257214" y1="172.88484848484848" x2="346.9594981818182" y2="189.32777371835175" stroke="#b6da40" stroke-width="2.0"/><line x1="315.4053616161616" y1="168.33812466293358" x2="326.1897110257214" y2="172.88484848484848" stroke="#b6da40" stroke-width="2.0"/><line x1="349.92342566022836" y1="214.54949494949489" x2="346.9594981818182" y2="218.29613458802183" stroke="#b6da40" stroke-width="2.0"/><line x1="350.2546629239883" y1="193.7171717171717" x2="349.92342566022836" y2="214.54949494949489" stroke="#b6da40" stroke-width="2.0"/><line x1="346.9594981818182" y1="189.32777371835175" x2="350.2546629239883" y2="193.7171717171717" stroke="#b6da40" stroke-width="2.0"/><rect x="574.6165866666666" y="280.76666666666665" width="23.114079999999994" height="4.699999999999999" fill="#440154" fill-opacity="1.0" stroke="none"/><rect x="574.6165866666666" y="276.73333333333335" width="23.114079999999994" height="4.699999999999999" fill="#43095a" fill-opacity="1.0" stroke="none"/><rect x="574.6165866666666" y="272.7" width="23.114079999999994" height="4.699999999999999" fill="#42125f" fill-opacity="1.0" stroke="none"/><rect x="574.6165866666666" y="268.6666666666667" width="23.114079999999994" height="4.699999999999999" fill="#411a65" fill-opacity="1.0" stroke="none"/><rect x="574.6165866666666" y="264.6333333333333" width="23.114079999999994" height="4.699999999999999" fill="#40226b" fill-opacity="1.0" stroke="none"/><rect x="574.6165866666666" y="260.6" width="23.114079999999994" height="4.699999999999999" fill="#3f2b70" fill-opacity="1.0" stroke="none"/><rect x="574.6165866666666" y="256.56666666666666" width="23.114079999999994" height="4.699999999999999" fill="#3e3376" fill-opacity="1.0" stroke="none"/><rect x="574.6165866666666" y="252.53333333333333" width="23.114079999999994" height="4.699999999999999" fill="#3e3b7b" fill-opacity="1.0" stroke="none"/><rect x="574.6165866666666" y="248.50000000000003" width="23.114079999999994" height="4.699999999999999" fill="#3d4381" fill-opacity="1.0" stroke="none"/><rect x="574.6165866666666" y="244.4666666666667" width="23.114079999999994" height="4.699999999999999" fill="#3c4c87" fill-opacity="1.0" stroke="none"/><rect x="574.6165866666666" y="240.43333333333334" width="23.114079999999994" height="4.699999999999999" fill="#3a548b" fill-opacity="1.0" stroke="none"/><rect x="574.6165866666666" y="236.4" width="23.114079999999994" height="4.699999999999999" fill="#385a8b" fill-opacity="1.0" stroke="none"/><rect x="574.6165866666666" y="232.36666666666667" width="23.114079999999994" height="4.699999999999999" fill="#35618b" fill-opacity="1.0" stroke="none"/><rect x="574.6165866666666" y="228.33333333333337" width="23.114079999999994" height="4.699999999999999" fill="#32678b" fill-opacity="1.0" stroke="none"/><rect x="574.6165866666666" y="224.3" width="23.114079999999994" height="4.699999999999999" fill="#306d8b" fill-opacity="1.0" stroke="none"/><rect x="574.6165866666666" y="220.26666666666668" width="23.114079999999994" height="4.699999999999999" fill="#2d748c" fill-opacity="1.0" stroke="none"/><rect x="574.6165866666666" y="216.23333333333335" width="23.114079999999994" height="4.699999999999999" fill="#2a7a8c" fill-opacity="1.0" stroke="none"/><rect x="574.6165866666666" y="212.2" width="23.114079999999994" height="4.699999999999999" fill="#28818c" fill-opacity="1.0" stroke="none"/><rect x="574.6165866666666" y="208.16666666666669" width="23.114079999999994" height="4.699999999999999" fill="#25878c" fill-opacity="1.0" stroke="none"/><rect x="574.6165866666666" y="204.13333333333335" width="23.114079999999994" height="4.699999999999999" fill="#228e8c" fill-opacity="1.0" stroke="none"/><rect x="574.6165866666666" y="200.10000000000002" width="23.114079999999994" height="4.699999999999999" fill="#24948a" fill-opacity="1.0" stroke="none"/><rect x="574.6165866666666" y="196.06666666666666" width="23.114079999999994" height="4.699999999999999" fill="#2a9a86" fill-opacity="1.0" stroke="none"/><rect x="574.6165866666666" y="192.03333333333333" width="23.114079999999994" height="4.699999999999999" fill="#319f81" fill-opacity="1.0" stroke="none"/><rect x="574.6165866666666" y="188.00000000000003" width="23.114079999999994" height="4.699999999999999" fill="#37a57d" fill-opacity="1.0" stroke="none"/><rect x="574.6165866666666" y="183.9666666666667" width="23.114079999999994" height="4.699999999999999" fill="#3dab79" fill-opacity="1.0" stroke="none"/><rect x="574.6165866666666" y="179.93333333333334" width="23.114079999999994" height="4.699999999999999" fill="#43b174" fill-opacity="1.0" stroke="none"/><rect x="574.6165866666666" y="175.90000000000003" width="23.114079999999994" height="4.699999999999999" fill="#4ab670" fill-opacity="1.0" stroke="none"/><rect x="574.6165866666666" y="171.86666666666667" width="23.114079999999994" height="4.699999999999999" fill="#50bc6c" fill-opacity="1.0" stroke="none"/><rect x="574.6165866666666" y="167.83333333333337" width="23.114079999999994" height="4.699999999999999" fill="#56c267" fill-opacity="1.0" stroke="none"/><rect x="574.6165866666666" y="163.8" width="23.114079999999994" height="4.699999999999999" fill="#5cc863" fill-opacity="1.0" stroke="none"/><rect x="574.6165866666666" y="159.76666666666668" width="23.114079999999994" height="4.699999999999999" fill="#6acb5d" fill-opacity="1.0" stroke="none"/><rect x="574.6165866666666" y="155.73333333333335" width="23.114079999999994" height="4.699999999999999" fill="#7bce57" fill-opacity="1.0" stroke="none"/><rect x="574.6165866666666" y="151.70000000000002" width="23.114079999999994" height="4.699999999999999" fill="#8bd151" fill-opacity="1.0" stroke="none"/><rect x="574.6165866666666" y="147.66666666666669" width="23.114079999999994" height="4.699999999999999" fill="#9bd54b" fill-opacity="1.0" stroke="none"/><rect x="574.6165866666666" y="143.63333333333335" width="23.114079999999994" height="4.699999999999999" fill="#abd844" fill-opacity="1.0" stroke="none"/><rect x="574.6165866666666" y="139.60000000000002" width="23.114079999999994" height="4.699999999999999" fill="#bcdb3e" fill-opacity="1.0" stroke="none"/><rect x="574.6165866666666" y="135.5666666666667" width="23.114079999999994" height="4.699999999999999" fill="#ccde38" fill-opacity="1.0" stroke="none"/><rect x="574.6165866666666" y="131.53333333333336" width="23.114079999999994" height="4.699999999999999" fill="#dce132" fill-opacity="1.0" stroke="none"/><rect x="574.6165866666666" y="127.50000000000001" width="23.114079999999994" height="4.699999999999999" fill="#ede42b" fill-opacity="1.0" stroke="none"/><rect x="574.6165866666666" y="123.4666666666667" width="23.114079999999994" height="4.699999999999999" fill="#fde725" fill-opacity="1.0" stroke="none"/><text x="601.3973333333333" y="249.72689078361157" fill="#333333" font-size="11.733333333333334" font-family="sans-serif" text-anchor="start">0.25</text><text x="601.3973333333333" y="209.0935315105301" fill="#333333" font-size="11.733333333333334" font-family="sans-serif" text-anchor="start">0.5</text><text x="601.3973333333333" y="168.4601722374487" fill="#333333" font-size="11.733333333333334" font-family="sans-serif" text-anchor="start">0.75</text><text x="601.3973333333333" y="127.82681296436726" fill="#333333" font-size="11.733333333333334" font-family="sans-serif" text-anchor="start">1</text></svg>