<svg xmlns="http://www.w3.org/2000/svg" width="640" height="420" viewBox="0 0 640 420"><rect x="0.0" y="0.0" width="640.0" height="420.0" fill="#ffffff" fill-opacity="1.0" stroke="none"/><text x="42.093333333333334" y="21.413333333333334" fill="#333333" font-size="17.599999999999998" font-family="sans-serif" text-anchor="start">手書き DAG (a,b→mu→y, s→y)</text><line x1="146.51936016066531" y1="130.97670572465066" x2="185.967147657541" y2="181.76330741933194" stroke="#444444" stroke-width="2.5032422684368045"/><path d="M 196.20420540175564 194.94289003146343 L 181.354293743295 185.34627762980705 L 190.58000157178702 178.18033720885677 Z" fill="#444444" fill-opacity="1.0" stroke="none"/><line x1="274.40631105924615" y1="130.97670572465063" x2="234.9585235623705" y2="181.76330741933194" stroke="#444444" stroke-width="2.5032422684368045"/><path d="M 224.72146581815585 194.94289003146343 L 230.34566964812444 178.18033720885677 L 239.5713774766165 185.34627762980705 Z" fill="#444444" fill-opacity="1.0" stroke="none"/><line x1="224.72146581815585" y1="231.6571099685366" x2="263.94779266124294" y2="282.15859468382087" stroke="#444444" stroke-width="2.5032422684368045"/><path d="M 274.1848504054576 295.33817729595233 L 259.33493874699695 285.74156489429595 L 268.560646575489 278.5756244733457 Z" fill="#444444" fill-opacity="1.0" stroke="none"/><line x1="515.2726967408744" y1="129.25438003336552" x2="352.9573254489949" y2="285.9826777492617" stroke="#444444" stroke-width="2.5032422684368045"/><path d="M 340.95212104677745 297.5746498139867 L 348.9001352263411 281.78085620848566 L 357.01451567164855 290.1844992900378 Z" fill="#444444" fill-opacity="1.0" stroke="none"/><path d="M 47.42666666666666 93.14437111503335 C 47.42666666666666 70.10266228315994 78.63553258544277 51.42366664108661 117.13361970173688 51.42366664108661 C 155.63170681803098 51.42366664108661 186.8405727368071 70.10266228315994 186.8405727368071 93.14437111503335 C 186.8405727368071 116.18607994690677 155.63170681803098 134.8650755889801 117.13361970173688 134.8650755889801 C 78.63553258544277 134.8650755889801 47.42666666666666 116.18607994690677 47.42666666666666 93.14437111503335 Z" fill="#ffffff" fill-opacity="1.0" stroke="#444444" stroke-width="2.002593814749444"/><text x="117.13361970173688" y="78.11156687898087" fill="#333333" font-size="14.685687974829257" font-family="sans-serif" text-anchor="middle">a</text><text x="117.13361970173688" y="98.13750502647531" fill="#333333" font-size="15.019453610620829" font-family="sans-serif" text-anchor="middle">~</text><text x="117.13361970173688" y="118.16344317396974" fill="#333333" font-size="15.019453610620829" font-family="sans-serif" text-anchor="middle">Normal(0,10)</text><path d="M 234.08509848310442 93.14437111503335 C 234.08509848310442 70.10266228315994 265.29396440188054 51.42366664108661 303.7920515181746 51.42366664108661 C 342.2901386344687 51.42366664108661 373.4990045532448 70.10266228315994 373.4990045532448 93.14437111503335 C 373.4990045532448 116.18607994690677 342.2901386344687 134.8650755889801 303.7920515181746 134.8650755889801 C 265.29396440188054 134.8650755889801 234.08509848310442 116.18607994690677 234.08509848310442 93.14437111503335 Z" fill="#ffffff" fill-opacity="1.0" stroke="#444444" stroke-width="2.002593814749444"/><text x="303.7920515181746" y="78.11156687898087" fill="#333333" font-size="14.685687974829257" font-family="sans-serif" text-anchor="middle">b</text><text x="303.7920515181746" y="98.13750502647531" fill="#333333" font-size="15.019453610620829" font-family="sans-serif" text-anchor="middle">~</text><text x="303.7920515181746" y="118.16344317396974" fill="#333333" font-size="15.019453610620829" font-family="sans-serif" text-anchor="middle">Normal(0,10)</text><path d="M 478.006587880183 93.14437111503335 C 478.006587880183 70.10266228315994 511.43451848123743 51.42366664108661 552.6699606067582 51.42366664108661 C 593.9054027322788 51.42366664108661 627.3333333333333 70.10266228315994 627.3333333333333 93.14437111503335 C 627.3333333333333 116.18607994690677 593.9054027322788 134.8650755889801 552.6699606067582 134.8650755889801 C 511.43451848123743 134.8650755889801 478.006587880183 116.18607994690677 478.006587880183 93.14437111503335 Z" fill="#ffffff" fill-opacity="1.0" stroke="#444444" stroke-width="2.002593814749444"/><text x="552.6699606067582" y="78.11156687898087" fill="#333333" font-size="14.685687974829257" font-family="sans-serif" text-anchor="middle">s</text><text x="552.6699606067582" y="98.13750502647531" fill="#333333" font-size="15.019453610620829" font-family="sans-serif" text-anchor="middle">~</text><text x="552.6699606067582" y="118.16344317396974" fill="#333333" font-size="15.019453610620829" font-family="sans-serif" text-anchor="middle">HalfNormal(1)</text><rect x="183.34437770189038" y="194.94289003146343" width="54.23691581613077" height="36.71421993707314" fill="#ffffff" fill-opacity="1.0" stroke="#444444" stroke-width="2.002593814749444"/><text x="210.46283560995576" y="218.29313391144197" fill="#333333" font-size="14.685687974829257" font-family="sans-serif" text-anchor="middle">mu</text><path d="M 230.96438978845316 333.4556288849666 C 230.96438978845316 310.4139200530932 263.57044458125637 291.73492441101985 303.7920515181746 291.73492441101985 C 344.01365845509287 291.73492441101985 376.619713247896 310.4139200530932 376.619713247896 333.4556288849666 C 376.619713247896 356.49733771684 344.01365845509287 375.1763333589134 303.7920515181746 375.1763333589134 C 263.57044458125637 375.1763333589134 230.96438978845316 356.49733771684 230.96438978845316 333.4556288849666 Z" fill="#cfcfcf" fill-opacity="1.0" stroke="#444444" stroke-width="2.002593814749444"/><text x="303.7920515181746" y="318.4228246489141" fill="#333333" font-size="14.685687974829257" font-family="sans-serif" text-anchor="middle">y</text><text x="303.7920515181746" y="338.4487627964086" fill="#333333" font-size="15.019453610620829" font-family="sans-serif" text-anchor="middle">~</text><text x="303.7920515181746" y="358.474700943903" fill="#333333" font-size="15.019453610620829" font-family="sans-serif" text-anchor="middle">Normal(mu,s)</text></svg>