<svg xmlns="http://www.w3.org/2000/svg" width="640" height="420" viewBox="0 0 640 420"><rect x="0.0" y="0.0" width="640.0" height="420.0" fill="#ffffff" fill-opacity="1.0" stroke="none"/><line x1="185.9722812121212" y1="32.266666666666666" x2="185.9722812121212" y2="394.3333333333333" stroke="#dddddd" stroke-width="1.3333333333333333"/><line x1="430.41497212121214" y1="32.266666666666666" x2="430.41497212121214" y2="394.3333333333333" stroke="#dddddd" stroke-width="1.3333333333333333"/><line x1="39.306666666666665" y1="352.55641025641023" x2="577.0805866666667" y2="352.55641025641023" stroke="#dddddd" stroke-width="0.6666666666666666"/><line x1="39.306666666666665" y1="301.91771561771554" x2="577.0805866666667" y2="301.91771561771554" stroke="#dddddd" stroke-width="0.6666666666666666"/><line x1="39.306666666666665" y1="251.27902097902097" x2="577.0805866666667" y2="251.27902097902097" stroke="#dddddd" stroke-width="0.6666666666666666"/><line x1="39.306666666666665" y1="200.6403263403263" x2="577.0805866666667" y2="200.6403263403263" stroke="#dddddd" stroke-width="0.6666666666666666"/><line x1="39.306666666666665" y1="150.00163170163165" x2="577.0805866666667" y2="150.00163170163165" stroke="#dddddd" stroke-width="0.6666666666666666"/><line x1="39.306666666666665" y1="99.36293706293702" x2="577.0805866666667" y2="99.36293706293702" stroke="#dddddd" stroke-width="0.6666666666666666"/><line x1="39.306666666666665" y1="48.72424242424237" x2="577.0805866666667" y2="48.72424242424237" stroke="#dddddd" stroke-width="0.6666666666666666"/><line x1="39.306666666666665" y1="377.8757575757575" x2="577.0805866666667" y2="377.8757575757575" stroke="#dddddd" stroke-width="1.3333333333333333"/><line x1="39.306666666666665" y1="327.2370629370629" x2="577.0805866666667" y2="327.2370629370629" stroke="#dddddd" stroke-width="1.3333333333333333"/><line x1="39.306666666666665" y1="276.59836829836826" x2="577.0805866666667" y2="276.59836829836826" stroke="#dddddd" stroke-width="1.3333333333333333"/><line x1="39.306666666666665" y1="225.95967365967363" x2="577.0805866666667" y2="225.95967365967363" stroke="#dddddd" stroke-width="1.3333333333333333"/><line x1="39.306666666666665" y1="175.32097902097897" x2="577.0805866666667" y2="175.32097902097897" stroke="#dddddd" stroke-width="1.3333333333333333"/><line x1="39.306666666666665" y1="124.68228438228437" x2="577.0805866666667" y2="124.68228438228437" stroke="#dddddd" stroke-width="1.3333333333333333"/><line x1="39.306666666666665" y1="74.0435897435897" x2="577.0805866666667" y2="74.0435897435897" stroke="#dddddd" stroke-width="1.3333333333333333"/><rect x="39.306666666666665" y="32.266666666666666" width="537.77392" height="362.06666666666666" fill="#ffffff" fill-opacity="0.0" stroke="#444444" stroke-width="1.3333333333333333"/><line x1="185.9722812121212" y1="394.3333333333333" x2="185.9722812121212" y2="398.0" stroke="#444444" stroke-width="1.3333333333333333"/><text x="185.9722812121212" y="410.32" fill="#333333" font-size="11.733333333333334" font-family="sans-serif" text-anchor="middle">a</text><line x1="430.41497212121214" y1="394.3333333333333" x2="430.41497212121214" y2="398.0" stroke="#444444" stroke-width="1.3333333333333333"/><text x="430.41497212121214" y="410.32" fill="#333333" font-size="11.733333333333334" font-family="sans-serif" text-anchor="middle">c</text><line x1="39.306666666666665" y1="377.8757575757575" x2="35.64" y2="377.8757575757575" stroke="#444444" stroke-width="1.3333333333333333"/><text x="32.70666666666666" y="381.98242424242414" fill="#333333" font-size="11.733333333333334" font-family="sans-serif" text-anchor="end">3</text><line x1="39.306666666666665" y1="327.2370629370629" x2="35.64" y2="327.2370629370629" stroke="#444444" stroke-width="1.3333333333333333"/><text x="32.70666666666666" y="331.34372960372957" fill="#333333" font-size="11.733333333333334" font-family="sans-serif" text-anchor="end">4</text><line x1="39.306666666666665" y1="276.59836829836826" x2="35.64" y2="276.59836829836826" stroke="#444444" stroke-width="1.3333333333333333"/><text x="32.70666666666666" y="280.70503496503494" fill="#333333" font-size="11.733333333333334" font-family="sans-serif" text-anchor="end">5</text><line x1="39.306666666666665" y1="225.95967365967363" x2="35.64" y2="225.95967365967363" stroke="#444444" stroke-width="1.3333333333333333"/><text x="32.70666666666666" y="230.0663403263403" fill="#333333" font-size="11.733333333333334" font-family="sans-serif" text-anchor="end">6</text><line x1="39.306666666666665" y1="175.32097902097897" x2="35.64" y2="175.32097902097897" stroke="#444444" stroke-width="1.3333333333333333"/><text x="32.70666666666666" y="179.42764568764565" fill="#333333" font-size="11.733333333333334" font-family="sans-serif" text-anchor="end">7</text><line x1="39.306666666666665" y1="124.68228438228437" x2="35.64" y2="124.68228438228437" stroke="#444444" stroke-width="1.3333333333333333"/><text x="32.70666666666666" y="128.78895104895102" fill="#333333" font-size="11.733333333333334" font-family="sans-serif" text-anchor="end">8</text><line x1="39.306666666666665" y1="74.0435897435897" x2="35.64" y2="74.0435897435897" stroke="#444444" stroke-width="1.3333333333333333"/><text x="32.70666666666666" y="78.15025641025638" fill="#333333" font-size="11.733333333333334" font-family="sans-serif" text-anchor="end">9</text><text x="39.306666666666665" y="21.413333333333334" fill="#333333" font-size="17.599999999999998" font-family="sans-serif" text-anchor="start">distCols [box a &lt;&gt; colorBy g, box c]</text><text x="17.599999999999998" y="213.29999999999998" fill="#333333" font-size="14.666666666666666" font-family="sans-serif" text-anchor="middle" transform="rotate(-90.0 17.599999999999998 213.29999999999998)">value</text><rect x="84.2230111212121" y="276.59836829836826" width="93.4993292727273" height="44.30885780885781" fill="#F8766D" fill-opacity="1.0" stroke="#333333" stroke-width="1.3333333333333333"/><line x1="84.2230111212121" y1="289.2580419580419" x2="177.7223403939394" y2="289.2580419580419" stroke="#333333" stroke-width="2.6666666666666665"/><line x1="130.97267575757576" y1="320.90722610722605" x2="130.97267575757576" y2="377.8757575757575" stroke="#333333" stroke-width="1.3333333333333333"/><line x1="130.97267575757576" y1="276.59836829836826" x2="130.97267575757576" y2="266.4706293706293" stroke="#333333" stroke-width="1.3333333333333333"/><line x1="107.59784343939393" y1="377.8757575757575" x2="154.34750807575756" y2="377.8757575757575" stroke="#333333" stroke-width="1.3333333333333333"/><line x1="107.59784343939393" y1="266.4706293706293" x2="154.34750807575756" y2="266.4706293706293" stroke="#333333" stroke-width="1.3333333333333333"/><rect x="194.222222030303" y="181.6508158508158" width="93.4993292727273" height="63.29836829836828" fill="#00BFC4" fill-opacity="1.0" stroke="#333333" stroke-width="1.3333333333333333"/><line x1="194.222222030303" y1="213.29999999999995" x2="287.72155130303025" y2="213.29999999999995" stroke="#333333" stroke-width="2.6666666666666665"/><line x1="240.97188666666662" y1="244.94918414918408" x2="240.97188666666662" y2="286.72610722610716" stroke="#333333" stroke-width="1.3333333333333333"/><line x1="240.97188666666662" y1="181.6508158508158" x2="240.97188666666662" y2="124.68228438228437" stroke="#333333" stroke-width="1.3333333333333333"/><line x1="217.5970543484848" y1="286.72610722610716" x2="264.34671898484845" y2="286.72610722610716" stroke="#333333" stroke-width="1.3333333333333333"/><line x1="217.5970543484848" y1="124.68228438228437" x2="264.34671898484845" y2="124.68228438228437" stroke="#333333" stroke-width="1.3333333333333333"/><rect x="369.3042993939394" y="117.08648018648014" width="122.22134545454549" height="59.50046620046619" fill="#ffffff" fill-opacity="1.0" stroke="#333333" stroke-width="1.3333333333333333"/><line x1="369.3042993939394" y1="142.40582750582746" x2="491.52564484848494" y2="142.40582750582746" stroke="#333333" stroke-width="2.6666666666666665"/><line x1="430.41497212121214" y1="176.58694638694635" x2="430.41497212121214" y2="225.95967365967363" stroke="#333333" stroke-width="1.3333333333333333"/><line x1="430.41497212121214" y1="117.08648018648014" x2="430.41497212121214" y2="48.72424242424237" stroke="#333333" stroke-width="1.3333333333333333"/><line x1="399.8596357575758" y1="225.95967365967363" x2="460.9703084848485" y2="225.95967365967363" stroke="#333333" stroke-width="1.3333333333333333"/><line x1="399.8596357575758" y1="48.72424242424237" x2="460.9703084848485" y2="48.72424242424237" stroke="#333333" stroke-width="1.3333333333333333"/><rect x="591.7472533333333" y="190.18592" width="23.114079999999994" height="46.22815999999999" fill="#ffffff" fill-opacity="1.0" stroke="none"/><rect x="592.6921352230971" y="191.13080188976375" width="21.224316220472435" height="21.224316220472435" fill="#F8766D" fill-opacity="1.0" stroke="none"/><text x="618.528" y="205.49762666666666" fill="#333333" font-size="11.733333333333334" font-family="sans-serif" text-anchor="start">x</text><rect x="592.6921352230971" y="214.24488188976375" width="21.224316220472435" height="21.224316220472435" fill="#00BFC4" fill-opacity="1.0" stroke="none"/><text x="618.528" y="228.61170666666663" fill="#333333" font-size="11.733333333333334" font-family="sans-serif" text-anchor="start">y</text></svg>