<svg xmlns="http://www.w3.org/2000/svg" width="640" height="420" viewBox="0 0 640 420"><rect x="0.0" y="0.0" width="640.0" height="420.0" fill="#ffffff" fill-opacity="1.0" stroke="none"/><line x1="150.56166666666664" y1="32.266666666666666" x2="150.56166666666664" y2="394.3333333333333" stroke="#dddddd" stroke-width="1.3333333333333333"/><line x1="335.9866666666666" y1="32.266666666666666" x2="335.9866666666666" y2="394.3333333333333" stroke="#dddddd" stroke-width="1.3333333333333333"/><line x1="521.4116666666666" y1="32.266666666666666" x2="521.4116666666666" y2="394.3333333333333" stroke="#dddddd" stroke-width="1.3333333333333333"/><line x1="39.306666666666665" y1="333.9888888888889" x2="632.6666666666666" y2="333.9888888888889" stroke="#dddddd" stroke-width="0.6666666666666666"/><line x1="39.306666666666665" y1="246.2151515151515" x2="632.6666666666666" y2="246.2151515151515" stroke="#dddddd" stroke-width="0.6666666666666666"/><line x1="39.306666666666665" y1="158.44141414141416" x2="632.6666666666666" y2="158.44141414141416" stroke="#dddddd" stroke-width="0.6666666666666666"/><line x1="39.306666666666665" y1="70.66767676767677" x2="632.6666666666666" y2="70.66767676767677" stroke="#dddddd" stroke-width="0.6666666666666666"/><line x1="39.306666666666665" y1="377.8757575757575" x2="632.6666666666666" y2="377.8757575757575" stroke="#dddddd" stroke-width="1.3333333333333333"/><line x1="39.306666666666665" y1="290.1020202020202" x2="632.6666666666666" y2="290.1020202020202" stroke="#dddddd" stroke-width="1.3333333333333333"/><line x1="39.306666666666665" y1="202.32828282828282" x2="632.6666666666666" y2="202.32828282828282" stroke="#dddddd" stroke-width="1.3333333333333333"/><line x1="39.306666666666665" y1="114.55454545454543" x2="632.6666666666666" y2="114.55454545454543" stroke="#dddddd" stroke-width="1.3333333333333333"/><rect x="39.306666666666665" y="32.266666666666666" width="593.3599999999999" height="362.06666666666666" fill="#ffffff" fill-opacity="0.0" stroke="#444444" stroke-width="1.3333333333333333"/><line x1="150.56166666666664" y1="394.3333333333333" x2="150.56166666666664" y2="398.0" stroke="#444444" stroke-width="1.3333333333333333"/><text x="150.56166666666664" y="410.32" fill="#333333" font-size="11.733333333333334" font-family="sans-serif" text-anchor="middle">a</text><line x1="335.9866666666666" y1="394.3333333333333" x2="335.9866666666666" y2="398.0" stroke="#444444" stroke-width="1.3333333333333333"/><text x="335.9866666666666" y="410.32" fill="#333333" font-size="11.733333333333334" font-family="sans-serif" text-anchor="middle">c</text><line x1="521.4116666666666" y1="394.3333333333333" x2="521.4116666666666" y2="398.0" stroke="#444444" stroke-width="1.3333333333333333"/><text x="521.4116666666666" y="410.32" fill="#333333" font-size="11.733333333333334" font-family="sans-serif" text-anchor="middle">d</text><line x1="39.306666666666665" y1="377.8757575757575" x2="35.64" y2="377.8757575757575" stroke="#444444" stroke-width="1.3333333333333333"/><text x="32.70666666666666" y="381.98242424242414" fill="#333333" font-size="11.733333333333334" font-family="sans-serif" text-anchor="end">2</text><line x1="39.306666666666665" y1="290.1020202020202" x2="35.64" y2="290.1020202020202" stroke="#444444" stroke-width="1.3333333333333333"/><text x="32.70666666666666" y="294.20868686868687" fill="#333333" font-size="11.733333333333334" font-family="sans-serif" text-anchor="end">4</text><line x1="39.306666666666665" y1="202.32828282828282" x2="35.64" y2="202.32828282828282" stroke="#444444" stroke-width="1.3333333333333333"/><text x="32.70666666666666" y="206.4349494949495" fill="#333333" font-size="11.733333333333334" font-family="sans-serif" text-anchor="end">6</text><line x1="39.306666666666665" y1="114.55454545454543" x2="35.64" y2="114.55454545454543" stroke="#444444" stroke-width="1.3333333333333333"/><text x="32.70666666666666" y="118.6612121212121" fill="#333333" font-size="11.733333333333334" font-family="sans-serif" text-anchor="end">8</text><text x="39.306666666666665" y="21.413333333333334" fill="#333333" font-size="17.599999999999998" font-family="sans-serif" text-anchor="start">distCols [box a, violin c, box d]</text><text x="17.599999999999998" y="213.29999999999998" fill="#333333" font-size="14.666666666666666" font-family="sans-serif" text-anchor="middle" transform="rotate(-90.0 17.599999999999998 213.29999999999998)">value</text><rect x="104.20541666666664" y="196.84242424242422" width="92.71249999999999" height="61.441616161616174" fill="#ffffff" fill-opacity="1.0" stroke="#333333" stroke-width="1.3333333333333333"/><line x1="104.20541666666664" y1="241.82646464646464" x2="196.91791666666666" y2="241.82646464646464" stroke="#333333" stroke-width="2.6666666666666665"/><line x1="150.56166666666664" y1="258.2840404040404" x2="150.56166666666664" y2="333.9888888888889" stroke="#333333" stroke-width="1.3333333333333333"/><line x1="150.56166666666664" y1="196.84242424242422" x2="150.56166666666664" y2="114.55454545454543" stroke="#333333" stroke-width="1.3333333333333333"/><line x1="127.38354166666664" y1="333.9888888888889" x2="173.73979166666663" y2="333.9888888888889" stroke="#333333" stroke-width="1.3333333333333333"/><line x1="127.38354166666664" y1="114.55454545454543" x2="173.73979166666663" y2="114.55454545454543" stroke="#333333" stroke-width="1.3333333333333333"/><path d="M 363.1526207143766 202.32828282828282 L 367.1181197988233 197.20814814814815 L 371.17591581378895 192.08801346801343 L 375.2531699629312 186.96787878787882 L 379.2718013021554 181.84774410774406 L 383.1507712101753 176.72760942760942 L 386.80934483104977 171.60747474747473 L 390.1708794848137 166.48734006734006 L 393.1662692125334 161.36720538720536 L 395.73609094706154 156.2470707070707 L 397.8308699424256 151.126936026936 L 399.40962650126244 146.00680134680135 L 400.43770237346894 140.8866666666666 L 400.88541666666663 135.76653198653196 L 400.72905475380736 130.64639730639732 L 399.9549529480496 125.5262626262626 L 398.5661999919347 120.4061279461279 L 396.59016963847944 115.28599326599328 L 394.084247415053 110.16585858585859 L 391.1371165279628 105.04572390572389 L 387.86392596283565 99.92558922558919 L 384.39532695484036 94.80545454545457 L 380.8622061207474 89.68531986531987 L 377.37935273221007 84.56518518518513 L 374.03179842701513 79.44505050505047 L 370.8669891377839 74.32491582491585 L 367.89447585193017 69.20478114478112 L 365.0929051747183 64.08464646464645 L 362.4223231622207 58.9645117845118 L 359.8386646477573 53.8443771043771 L 357.3070470465467 48.72424242424237 L 314.66628628678654 48.72424242424237 L 312.134668685576 53.8443771043771 L 309.5510101711125 58.9645117845118 L 306.880428158615 64.08464646464645 L 304.07885748140313 69.20478114478112 L 301.10634419554935 74.32491582491585 L 297.9415349063181 79.44505050505047 L 294.59398060112323 84.56518518518513 L 291.11112721258587 89.68531986531987 L 287.57800637849294 94.80545454545457 L 284.1094073704976 99.92558922558919 L 280.83621680537044 105.04572390572389 L 277.8890859182802 110.16585858585859 L 275.38316369485386 115.28599326599328 L 273.40713334139855 120.4061279461279 L 272.01838038528365 125.5262626262626 L 271.2442785795259 130.64639730639732 L 271.0879166666666 135.76653198653196 L 271.5356309598643 140.8866666666666 L 272.5637068320708 146.00680134680135 L 274.14246339090766 151.126936026936 L 276.2372423862717 156.2470707070707 L 278.80706412079985 161.36720538720536 L 281.8024538485195 166.48734006734006 L 285.1639885022835 171.60747474747473 L 288.8225621231579 176.72760942760942 L 292.70153203117786 181.84774410774406 L 296.720163370402 186.96787878787882 L 300.7974175195443 192.08801346801343 L 304.85521353450997 197.20814814814815 L 308.8207126189567 202.32828282828282 Z" fill="#00BA38" fill-opacity="0.5" stroke="#00BA38" stroke-width="1.3333333333333333"/><rect x="475.0554166666667" y="293.39353535353536" width="92.71249999999999" height="52.664242424242424" fill="#ffffff" fill-opacity="1.0" stroke="#333333" stroke-width="1.3333333333333333"/><line x1="475.0554166666667" y1="327.40585858585854" x2="567.7679166666667" y2="327.40585858585854" stroke="#333333" stroke-width="2.6666666666666665"/><line x1="521.4116666666666" y1="346.0577777777778" x2="521.4116666666666" y2="377.8757575757575" stroke="#333333" stroke-width="1.3333333333333333"/><line x1="521.4116666666666" y1="293.39353535353536" x2="521.4116666666666" y2="246.2151515151515" stroke="#333333" stroke-width="1.3333333333333333"/><line x1="498.2335416666667" y1="377.8757575757575" x2="544.5897916666667" y2="377.8757575757575" stroke="#333333" stroke-width="1.3333333333333333"/><line x1="498.2335416666667" y1="246.2151515151515" x2="544.5897916666667" y2="246.2151515151515" stroke="#333333" stroke-width="1.3333333333333333"/></svg>