<svg xmlns="http://www.w3.org/2000/svg" width="640" height="420" viewBox="0 0 640 420"><rect x="0.0" y="0.0" width="640.0" height="420.0" fill="#ffffff" fill-opacity="1.0" stroke="none"/><line x1="102.69439393939393" y1="32.266666666666666" x2="102.69439393939393" y2="376.0" stroke="#dddddd" stroke-width="0.6666666666666666"/><line x1="265.26257575757575" y1="32.266666666666666" x2="265.26257575757575" y2="376.0" stroke="#dddddd" stroke-width="0.6666666666666666"/><line x1="427.8307575757576" y1="32.266666666666666" x2="427.8307575757576" y2="376.0" stroke="#dddddd" stroke-width="0.6666666666666666"/><line x1="590.3989393939394" y1="32.266666666666666" x2="590.3989393939394" y2="376.0" stroke="#dddddd" stroke-width="0.6666666666666666"/><line x1="183.9784848484848" y1="32.266666666666666" x2="183.9784848484848" y2="376.0" stroke="#dddddd" stroke-width="1.3333333333333333"/><line x1="346.5466666666667" y1="32.266666666666666" x2="346.5466666666667" y2="376.0" stroke="#dddddd" stroke-width="1.3333333333333333"/><line x1="509.11484848484844" y1="32.266666666666666" x2="509.11484848484844" y2="376.0" stroke="#dddddd" stroke-width="1.3333333333333333"/><line x1="60.42666666666666" y1="321.3151515151515" x2="632.6666666666666" y2="321.3151515151515" stroke="#dddddd" stroke-width="0.6666666666666666"/><line x1="60.42666666666666" y1="243.1939393939394" x2="632.6666666666666" y2="243.1939393939394" stroke="#dddddd" stroke-width="0.6666666666666666"/><line x1="60.42666666666666" y1="165.07272727272724" x2="632.6666666666666" y2="165.07272727272724" stroke="#dddddd" stroke-width="0.6666666666666666"/><line x1="60.42666666666666" y1="86.95151515151515" x2="632.6666666666666" y2="86.95151515151515" stroke="#dddddd" stroke-width="0.6666666666666666"/><line x1="60.42666666666666" y1="360.3757575757575" x2="632.6666666666666" y2="360.3757575757575" stroke="#dddddd" stroke-width="1.3333333333333333"/><line x1="60.42666666666666" y1="282.25454545454545" x2="632.6666666666666" y2="282.25454545454545" stroke="#dddddd" stroke-width="1.3333333333333333"/><line x1="60.42666666666666" y1="204.13333333333333" x2="632.6666666666666" y2="204.13333333333333" stroke="#dddddd" stroke-width="1.3333333333333333"/><line x1="60.42666666666666" y1="126.0121212121212" x2="632.6666666666666" y2="126.0121212121212" stroke="#dddddd" stroke-width="1.3333333333333333"/><line x1="60.42666666666666" y1="47.89090909090911" x2="632.6666666666666" y2="47.89090909090911" stroke="#dddddd" stroke-width="1.3333333333333333"/><rect x="60.42666666666666" y="32.266666666666666" width="572.24" height="343.73333333333335" fill="#ffffff" fill-opacity="0.0" stroke="#444444" stroke-width="1.3333333333333333"/><line x1="183.9784848484848" y1="376.0" x2="183.9784848484848" y2="379.66666666666663" stroke="#444444" stroke-width="1.3333333333333333"/><text x="183.9784848484848" y="391.9866666666667" fill="#333333" font-size="11.733333333333334" font-family="sans-serif" text-anchor="middle">2.5</text><line x1="346.5466666666667" y1="376.0" x2="346.5466666666667" y2="379.66666666666663" stroke="#444444" stroke-width="1.3333333333333333"/><text x="346.5466666666667" y="391.9866666666667" fill="#333333" font-size="11.733333333333334" font-family="sans-serif" text-anchor="middle">5.0</text><line x1="509.11484848484844" y1="376.0" x2="509.11484848484844" y2="379.66666666666663" stroke="#444444" stroke-width="1.3333333333333333"/><text x="509.11484848484844" y="391.9866666666667" fill="#333333" font-size="11.733333333333334" font-family="sans-serif" text-anchor="middle">7.5</text><line x1="60.42666666666666" y1="360.3757575757575" x2="56.76" y2="360.3757575757575" stroke="#444444" stroke-width="1.3333333333333333"/><text x="53.82666666666666" y="364.48242424242414" fill="#333333" font-size="11.733333333333334" font-family="sans-serif" text-anchor="end">0.00</text><line x1="60.42666666666666" y1="282.25454545454545" x2="56.76" y2="282.25454545454545" stroke="#444444" stroke-width="1.3333333333333333"/><text x="53.82666666666666" y="286.36121212121213" fill="#333333" font-size="11.733333333333334" font-family="sans-serif" text-anchor="end">0.25</text><line x1="60.42666666666666" y1="204.13333333333333" x2="56.76" y2="204.13333333333333" stroke="#444444" stroke-width="1.3333333333333333"/><text x="53.82666666666666" y="208.24" fill="#333333" font-size="11.733333333333334" font-family="sans-serif" text-anchor="end">0.50</text><line x1="60.42666666666666" y1="126.0121212121212" x2="56.76" y2="126.0121212121212" stroke="#444444" stroke-width="1.3333333333333333"/><text x="53.82666666666666" y="130.11878787878786" fill="#333333" font-size="11.733333333333334" font-family="sans-serif" text-anchor="end">0.75</text><line x1="60.42666666666666" y1="47.89090909090911" x2="56.76" y2="47.89090909090911" stroke="#444444" stroke-width="1.3333333333333333"/><text x="53.82666666666666" y="51.997575757575774" fill="#333333" font-size="11.733333333333334" font-family="sans-serif" text-anchor="end">1.00</text><text x="60.42666666666666" y="21.413333333333334" fill="#333333" font-size="17.599999999999998" font-family="sans-serif" text-anchor="start">ecdf (経験累積分布)</text><text x="346.5466666666667" y="409.73333333333335" fill="#333333" font-size="14.666666666666666" font-family="sans-serif" text-anchor="middle">x</text><text x="17.599999999999998" y="204.13333333333333" fill="#333333" font-size="14.666666666666666" font-family="sans-serif" text-anchor="middle" transform="rotate(-90.0 17.599999999999998 204.13333333333333)">F(x)</text><line x1="86.43757575757576" y1="360.3757575757575" x2="86.43757575757576" y2="339.54343434343434" stroke="#1f77b4" stroke-width="1.8897637795275593"/><line x1="86.43757575757576" y1="339.54343434343434" x2="86.43757575757576" y2="339.54343434343434" stroke="#1f77b4" stroke-width="1.8897637795275593"/><line x1="86.43757575757576" y1="339.54343434343434" x2="86.43757575757576" y2="318.7111111111111" stroke="#1f77b4" stroke-width="1.8897637795275593"/><line x1="86.43757575757576" y1="318.7111111111111" x2="151.46484848484846" y2="318.7111111111111" stroke="#1f77b4" stroke-width="1.8897637795275593"/><line x1="151.46484848484846" y1="318.7111111111111" x2="151.46484848484846" y2="297.8787878787879" stroke="#1f77b4" stroke-width="1.8897637795275593"/><line x1="151.46484848484846" y1="297.8787878787879" x2="216.49212121212122" y2="297.8787878787879" stroke="#1f77b4" stroke-width="1.8897637795275593"/><line x1="216.49212121212122" y1="297.8787878787879" x2="216.49212121212122" y2="277.04646464646464" stroke="#1f77b4" stroke-width="1.8897637795275593"/><line x1="216.49212121212122" y1="277.04646464646464" x2="216.49212121212122" y2="277.04646464646464" stroke="#1f77b4" stroke-width="1.8897637795275593"/><line x1="216.49212121212122" y1="277.04646464646464" x2="216.49212121212122" y2="256.2141414141414" stroke="#1f77b4" stroke-width="1.8897637795275593"/><line x1="216.49212121212122" y1="256.2141414141414" x2="281.51939393939386" y2="256.2141414141414" stroke="#1f77b4" stroke-width="1.8897637795275593"/><line x1="281.51939393939386" y1="256.2141414141414" x2="281.51939393939386" y2="235.3818181818182" stroke="#1f77b4" stroke-width="1.8897637795275593"/><line x1="281.51939393939386" y1="235.3818181818182" x2="346.5466666666667" y2="235.3818181818182" stroke="#1f77b4" stroke-width="1.8897637795275593"/><line x1="346.5466666666667" y1="235.3818181818182" x2="346.5466666666667" y2="214.54949494949494" stroke="#1f77b4" stroke-width="1.8897637795275593"/><line x1="346.5466666666667" y1="214.54949494949494" x2="346.5466666666667" y2="214.54949494949494" stroke="#1f77b4" stroke-width="1.8897637795275593"/><line x1="346.5466666666667" y1="214.54949494949494" x2="346.5466666666667" y2="193.7171717171717" stroke="#1f77b4" stroke-width="1.8897637795275593"/><line x1="346.5466666666667" y1="193.7171717171717" x2="346.5466666666667" y2="193.7171717171717" stroke="#1f77b4" stroke-width="1.8897637795275593"/><line x1="346.5466666666667" y1="193.7171717171717" x2="346.5466666666667" y2="172.8848484848485" stroke="#1f77b4" stroke-width="1.8897637795275593"/><line x1="346.5466666666667" y1="172.8848484848485" x2="411.5739393939394" y2="172.8848484848485" stroke="#1f77b4" stroke-width="1.8897637795275593"/><line x1="411.5739393939394" y1="172.8848484848485" x2="411.5739393939394" y2="152.05252525252524" stroke="#1f77b4" stroke-width="1.8897637795275593"/><line x1="411.5739393939394" y1="152.05252525252524" x2="476.6012121212121" y2="152.05252525252524" stroke="#1f77b4" stroke-width="1.8897637795275593"/><line x1="476.6012121212121" y1="152.05252525252524" x2="476.6012121212121" y2="131.22020202020204" stroke="#1f77b4" stroke-width="1.8897637795275593"/><line x1="476.6012121212121" y1="131.22020202020204" x2="541.6284848484847" y2="131.22020202020204" stroke="#1f77b4" stroke-width="1.8897637795275593"/><line x1="541.6284848484847" y1="131.22020202020204" x2="541.6284848484847" y2="110.38787878787878" stroke="#1f77b4" stroke-width="1.8897637795275593"/><line x1="541.6284848484847" y1="110.38787878787878" x2="606.6557575757574" y2="110.38787878787878" stroke="#1f77b4" stroke-width="1.8897637795275593"/><line x1="606.6557575757574" y1="110.38787878787878" x2="606.6557575757574" y2="89.55555555555554" stroke="#1f77b4" stroke-width="1.8897637795275593"/><line x1="606.6557575757574" y1="89.55555555555554" x2="606.6557575757574" y2="89.55555555555554" stroke="#1f77b4" stroke-width="1.8897637795275593"/><line x1="606.6557575757574" y1="89.55555555555554" x2="606.6557575757574" y2="68.72323232323231" stroke="#1f77b4" stroke-width="1.8897637795275593"/><line x1="606.6557575757574" y1="68.72323232323231" x2="606.6557575757574" y2="68.72323232323231" stroke="#1f77b4" stroke-width="1.8897637795275593"/><line x1="606.6557575757574" y1="68.72323232323231" x2="606.6557575757574" y2="47.89090909090911" stroke="#1f77b4" stroke-width="1.8897637795275593"/></svg>