<svg xmlns="http://www.w3.org/2000/svg" width="640" height="420" viewBox="0 0 640 420"><rect x="0.0" y="0.0" width="640.0" height="420.0" fill="#ffffff" fill-opacity="1.0" stroke="none"/><line x1="136.92727666666664" y1="32.266666666666666" x2="136.92727666666664" y2="376.0" stroke="#dddddd" stroke-width="1.3333333333333333"/><line x1="299.6282933333333" y1="32.266666666666666" x2="299.6282933333333" y2="376.0" stroke="#dddddd" stroke-width="1.3333333333333333"/><line x1="462.32930999999996" y1="32.266666666666666" x2="462.32930999999996" y2="376.0" stroke="#dddddd" stroke-width="1.3333333333333333"/><line x1="39.306666666666665" y1="311.55" x2="559.94992" y2="311.55" stroke="#dddddd" stroke-width="1.3333333333333333"/><line x1="39.306666666666665" y1="204.13333333333333" x2="559.94992" y2="204.13333333333333" stroke="#dddddd" stroke-width="1.3333333333333333"/><line x1="39.306666666666665" y1="96.71666666666665" x2="559.94992" y2="96.71666666666665" stroke="#dddddd" stroke-width="1.3333333333333333"/><rect x="39.306666666666665" y="32.266666666666666" width="520.6432533333333" height="343.73333333333335" fill="#ffffff" fill-opacity="0.0" stroke="#444444" stroke-width="1.3333333333333333"/><line x1="136.92727666666664" y1="376.0" x2="136.92727666666664" y2="379.66666666666663" stroke="#444444" stroke-width="1.3333333333333333"/><text x="136.92727666666664" y="391.9866666666667" fill="#333333" font-size="11.733333333333334" font-family="sans-serif" text-anchor="middle">A</text><line x1="299.6282933333333" y1="376.0" x2="299.6282933333333" y2="379.66666666666663" stroke="#444444" stroke-width="1.3333333333333333"/><text x="299.6282933333333" y="391.9866666666667" fill="#333333" font-size="11.733333333333334" font-family="sans-serif" text-anchor="middle">B</text><line x1="462.32930999999996" y1="376.0" x2="462.32930999999996" y2="379.66666666666663" stroke="#444444" stroke-width="1.3333333333333333"/><text x="462.32930999999996" y="391.9866666666667" fill="#333333" font-size="11.733333333333334" font-family="sans-serif" text-anchor="middle">C</text><line x1="39.306666666666665" y1="311.55" x2="35.64" y2="311.55" stroke="#444444" stroke-width="1.3333333333333333"/><text x="32.70666666666666" y="315.6566666666667" fill="#333333" font-size="11.733333333333334" font-family="sans-serif" text-anchor="end">A</text><line x1="39.306666666666665" y1="204.13333333333333" x2="35.64" y2="204.13333333333333" stroke="#444444" stroke-width="1.3333333333333333"/><text x="32.70666666666666" y="208.24" fill="#333333" font-size="11.733333333333334" font-family="sans-serif" text-anchor="end">B</text><line x1="39.306666666666665" y1="96.71666666666665" x2="35.64" y2="96.71666666666665" stroke="#444444" stroke-width="1.3333333333333333"/><text x="32.70666666666666" y="100.82333333333332" fill="#333333" font-size="11.733333333333334" font-family="sans-serif" text-anchor="end">C</text><text x="39.306666666666665" y="21.413333333333334" fill="#333333" font-size="17.599999999999998" font-family="sans-serif" text-anchor="start">heatmap (カテゴリ grid)</text><text x="299.6282933333333" y="409.73333333333335" fill="#333333" font-size="14.666666666666666" font-family="sans-serif" text-anchor="middle">x</text><text x="17.599999999999998" y="204.13333333333333" fill="#333333" font-size="14.666666666666666" font-family="sans-serif" text-anchor="middle" transform="rotate(-90.0 17.599999999999998 204.13333333333333)">y</text><rect x="55.57676833333333" y="257.84166666666664" width="162.70101666666665" height="107.4166666666667" fill="#fde725" fill-opacity="1.0" stroke="#ffffff" stroke-width="1.3333333333333333"/><rect x="55.57676833333333" y="150.42499999999998" width="162.70101666666665" height="107.41666666666666" fill="#3c4985" fill-opacity="1.0" stroke="#ffffff" stroke-width="1.3333333333333333"/><rect x="55.57676833333333" y="43.008333333333326" width="162.70101666666665" height="107.41666666666666" fill="#440154" fill-opacity="1.0" stroke="#ffffff" stroke-width="1.3333333333333333"/><rect x="218.277785" y="257.84166666666664" width="162.7010166666667" height="107.4166666666667" fill="#3c4985" fill-opacity="1.0" stroke="#ffffff" stroke-width="1.3333333333333333"/><rect x="218.277785" y="150.42499999999998" width="162.7010166666667" height="107.41666666666666" fill="#fde725" fill-opacity="1.0" stroke="#ffffff" stroke-width="1.3333333333333333"/><rect x="218.277785" y="43.008333333333326" width="162.7010166666667" height="107.41666666666666" fill="#27838c" fill-opacity="1.0" stroke="#ffffff" stroke-width="1.3333333333333333"/><rect x="380.9788016666667" y="257.84166666666664" width="162.70101666666665" height="107.4166666666667" fill="#440154" fill-opacity="1.0" stroke="#ffffff" stroke-width="1.3333333333333333"/><rect x="380.9788016666667" y="150.42499999999998" width="162.70101666666665" height="107.41666666666666" fill="#27838c" fill-opacity="1.0" stroke="#ffffff" stroke-width="1.3333333333333333"/><rect x="380.9788016666667" y="43.008333333333326" width="162.70101666666665" height="107.41666666666666" fill="#fde725" fill-opacity="1.0" stroke="#ffffff" stroke-width="1.3333333333333333"/><rect x="574.6165866666666" y="280.76666666666665" width="23.114079999999994" height="4.699999999999999" fill="#440154" fill-opacity="1.0" stroke="none"/><rect x="574.6165866666666" y="276.73333333333335" width="23.114079999999994" height="4.699999999999999" fill="#43095a" fill-opacity="1.0" stroke="none"/><rect x="574.6165866666666" y="272.7" width="23.114079999999994" height="4.699999999999999" fill="#42125f" fill-opacity="1.0" stroke="none"/><rect x="574.6165866666666" y="268.6666666666667" width="23.114079999999994" height="4.699999999999999" fill="#411a65" fill-opacity="1.0" stroke="none"/><rect x="574.6165866666666" y="264.6333333333333" width="23.114079999999994" height="4.699999999999999" fill="#40226b" fill-opacity="1.0" stroke="none"/><rect x="574.6165866666666" y="260.6" width="23.114079999999994" height="4.699999999999999" fill="#3f2b70" fill-opacity="1.0" stroke="none"/><rect x="574.6165866666666" y="256.56666666666666" width="23.114079999999994" height="4.699999999999999" fill="#3e3376" fill-opacity="1.0" stroke="none"/><rect x="574.6165866666666" y="252.53333333333333" width="23.114079999999994" height="4.699999999999999" fill="#3e3b7b" fill-opacity="1.0" stroke="none"/><rect x="574.6165866666666" y="248.50000000000003" width="23.114079999999994" height="4.699999999999999" fill="#3d4381" fill-opacity="1.0" stroke="none"/><rect x="574.6165866666666" y="244.4666666666667" width="23.114079999999994" height="4.699999999999999" fill="#3c4c87" fill-opacity="1.0" stroke="none"/><rect x="574.6165866666666" y="240.43333333333334" width="23.114079999999994" height="4.699999999999999" fill="#3a548b" fill-opacity="1.0" stroke="none"/><rect x="574.6165866666666" y="236.4" width="23.114079999999994" height="4.699999999999999" fill="#385a8b" fill-opacity="1.0" stroke="none"/><rect x="574.6165866666666" y="232.36666666666667" width="23.114079999999994" height="4.699999999999999" fill="#35618b" fill-opacity="1.0" stroke="none"/><rect x="574.6165866666666" y="228.33333333333337" width="23.114079999999994" height="4.699999999999999" fill="#32678b" fill-opacity="1.0" stroke="none"/><rect x="574.6165866666666" y="224.3" width="23.114079999999994" height="4.699999999999999" fill="#306d8b" fill-opacity="1.0" stroke="none"/><rect x="574.6165866666666" y="220.26666666666668" width="23.114079999999994" height="4.699999999999999" fill="#2d748c" fill-opacity="1.0" stroke="none"/><rect x="574.6165866666666" y="216.23333333333335" width="23.114079999999994" height="4.699999999999999" fill="#2a7a8c" fill-opacity="1.0" stroke="none"/><rect x="574.6165866666666" y="212.2" width="23.114079999999994" height="4.699999999999999" fill="#28818c" fill-opacity="1.0" stroke="none"/><rect x="574.6165866666666" y="208.16666666666669" width="23.114079999999994" height="4.699999999999999" fill="#25878c" fill-opacity="1.0" stroke="none"/><rect x="574.6165866666666" y="204.13333333333335" width="23.114079999999994" height="4.699999999999999" fill="#228e8c" fill-opacity="1.0" stroke="none"/><rect x="574.6165866666666" y="200.10000000000002" width="23.114079999999994" height="4.699999999999999" fill="#24948a" fill-opacity="1.0" stroke="none"/><rect x="574.6165866666666" y="196.06666666666666" width="23.114079999999994" height="4.699999999999999" fill="#2a9a86" fill-opacity="1.0" stroke="none"/><rect x="574.6165866666666" y="192.03333333333333" width="23.114079999999994" height="4.699999999999999" fill="#319f81" fill-opacity="1.0" stroke="none"/><rect x="574.6165866666666" y="188.00000000000003" width="23.114079999999994" height="4.699999999999999" fill="#37a57d" fill-opacity="1.0" stroke="none"/><rect x="574.6165866666666" y="183.9666666666667" width="23.114079999999994" height="4.699999999999999" fill="#3dab79" fill-opacity="1.0" stroke="none"/><rect x="574.6165866666666" y="179.93333333333334" width="23.114079999999994" height="4.699999999999999" fill="#43b174" fill-opacity="1.0" stroke="none"/><rect x="574.6165866666666" y="175.90000000000003" width="23.114079999999994" height="4.699999999999999" fill="#4ab670" fill-opacity="1.0" stroke="none"/><rect x="574.6165866666666" y="171.86666666666667" width="23.114079999999994" height="4.699999999999999" fill="#50bc6c" fill-opacity="1.0" stroke="none"/><rect x="574.6165866666666" y="167.83333333333337" width="23.114079999999994" height="4.699999999999999" fill="#56c267" fill-opacity="1.0" stroke="none"/><rect x="574.6165866666666" y="163.8" width="23.114079999999994" height="4.699999999999999" fill="#5cc863" fill-opacity="1.0" stroke="none"/><rect x="574.6165866666666" y="159.76666666666668" width="23.114079999999994" height="4.699999999999999" fill="#6acb5d" fill-opacity="1.0" stroke="none"/><rect x="574.6165866666666" y="155.73333333333335" width="23.114079999999994" height="4.699999999999999" fill="#7bce57" fill-opacity="1.0" stroke="none"/><rect x="574.6165866666666" y="151.70000000000002" width="23.114079999999994" height="4.699999999999999" fill="#8bd151" fill-opacity="1.0" stroke="none"/><rect x="574.6165866666666" y="147.66666666666669" width="23.114079999999994" height="4.699999999999999" fill="#9bd54b" fill-opacity="1.0" stroke="none"/><rect x="574.6165866666666" y="143.63333333333335" width="23.114079999999994" height="4.699999999999999" fill="#abd844" fill-opacity="1.0" stroke="none"/><rect x="574.6165866666666" y="139.60000000000002" width="23.114079999999994" height="4.699999999999999" fill="#bcdb3e" fill-opacity="1.0" stroke="none"/><rect x="574.6165866666666" y="135.5666666666667" width="23.114079999999994" height="4.699999999999999" fill="#ccde38" fill-opacity="1.0" stroke="none"/><rect x="574.6165866666666" y="131.53333333333336" width="23.114079999999994" height="4.699999999999999" fill="#dce132" fill-opacity="1.0" stroke="none"/><rect x="574.6165866666666" y="127.50000000000001" width="23.114079999999994" height="4.699999999999999" fill="#ede42b" fill-opacity="1.0" stroke="none"/><rect x="574.6165866666666" y="123.4666666666667" width="23.114079999999994" height="4.699999999999999" fill="#fde725" fill-opacity="1.0" stroke="none"/><text x="601.3973333333333" y="261.66577777777775" fill="#333333" font-size="11.733333333333334" font-family="sans-serif" text-anchor="start">0.25</text><text x="601.3973333333333" y="216.85096296296297" fill="#333333" font-size="11.733333333333334" font-family="sans-serif" text-anchor="start">0.5</text><text x="601.3973333333333" y="172.03614814814813" fill="#333333" font-size="11.733333333333334" font-family="sans-serif" text-anchor="start">0.75</text><text x="601.3973333333333" y="127.22133333333335" fill="#333333" font-size="11.733333333333334" font-family="sans-serif" text-anchor="start">1</text></svg>