<svg xmlns="http://www.w3.org/2000/svg" width="640" height="420" viewBox="0 0 640 420"><rect x="0.0" y="0.0" width="640.0" height="420.0" fill="#ffffff" fill-opacity="1.0" stroke="none"/><line x1="156.62473111059353" y1="32.266666666666666" x2="156.62473111059353" y2="376.0" stroke="#dddddd" stroke-width="0.6666666666666666"/><line x1="314.98104977221993" y1="32.266666666666666" x2="314.98104977221993" y2="376.0" stroke="#dddddd" stroke-width="0.6666666666666666"/><line x1="473.3373684338465" y1="32.266666666666666" x2="473.3373684338465" y2="376.0" stroke="#dddddd" stroke-width="0.6666666666666666"/><line x1="77.44657177978027" y1="32.266666666666666" x2="77.44657177978027" y2="376.0" stroke="#dddddd" stroke-width="1.3333333333333333"/><line x1="235.80289044140673" y1="32.266666666666666" x2="235.80289044140673" y2="376.0" stroke="#dddddd" stroke-width="1.3333333333333333"/><line x1="394.1592091030333" y1="32.266666666666666" x2="394.1592091030333" y2="376.0" stroke="#dddddd" stroke-width="1.3333333333333333"/><line x1="552.5155277646597" y1="32.266666666666666" x2="552.5155277646597" y2="376.0" stroke="#dddddd" stroke-width="1.3333333333333333"/><line x1="39.306666666666665" y1="291.54045964998454" x2="566.7552533333333" y2="291.54045964998454" stroke="#dddddd" stroke-width="0.6666666666666666"/><line x1="39.306666666666665" y1="190.91294546963925" x2="566.7552533333333" y2="190.91294546963925" stroke="#dddddd" stroke-width="0.6666666666666666"/><line x1="39.306666666666665" y1="90.28543128929394" x2="566.7552533333333" y2="90.28543128929394" stroke="#dddddd" stroke-width="0.6666666666666666"/><line x1="39.306666666666665" y1="341.8542167401572" x2="566.7552533333333" y2="341.8542167401572" stroke="#dddddd" stroke-width="1.3333333333333333"/><line x1="39.306666666666665" y1="241.22670255981188" x2="566.7552533333333" y2="241.22670255981188" stroke="#dddddd" stroke-width="1.3333333333333333"/><line x1="39.306666666666665" y1="140.5991883794666" x2="566.7552533333333" y2="140.5991883794666" stroke="#dddddd" stroke-width="1.3333333333333333"/><line x1="39.306666666666665" y1="39.97167419912129" x2="566.7552533333333" y2="39.97167419912129" stroke="#dddddd" stroke-width="1.3333333333333333"/><rect x="39.306666666666665" y="32.266666666666666" width="527.4485866666666" height="343.73333333333335" fill="#ffffff" fill-opacity="0.0" stroke="#444444" stroke-width="1.3333333333333333"/><line x1="77.44657177978027" y1="376.0" x2="77.44657177978027" y2="379.66666666666663" stroke="#444444" stroke-width="1.3333333333333333"/><text x="77.44657177978027" y="391.9866666666667" fill="#333333" font-size="11.733333333333334" font-family="sans-serif" text-anchor="middle">0</text><line x1="235.80289044140673" y1="376.0" x2="235.80289044140673" y2="379.66666666666663" stroke="#444444" stroke-width="1.3333333333333333"/><text x="235.80289044140673" y="391.9866666666667" fill="#333333" font-size="11.733333333333334" font-family="sans-serif" text-anchor="middle">2</text><line x1="394.1592091030333" y1="376.0" x2="394.1592091030333" y2="379.66666666666663" stroke="#444444" stroke-width="1.3333333333333333"/><text x="394.1592091030333" y="391.9866666666667" fill="#333333" font-size="11.733333333333334" font-family="sans-serif" text-anchor="middle">4</text><line x1="552.5155277646597" y1="376.0" x2="552.5155277646597" y2="379.66666666666663" stroke="#444444" stroke-width="1.3333333333333333"/><text x="552.5155277646597" y="391.9866666666667" fill="#333333" font-size="11.733333333333334" font-family="sans-serif" text-anchor="middle">6</text><line x1="39.306666666666665" y1="341.8542167401572" x2="35.64" y2="341.8542167401572" stroke="#444444" stroke-width="1.3333333333333333"/><text x="32.70666666666666" y="345.9608834068238" fill="#333333" font-size="11.733333333333334" font-family="sans-serif" text-anchor="end">0</text><line x1="39.306666666666665" y1="241.22670255981188" x2="35.64" y2="241.22670255981188" stroke="#444444" stroke-width="1.3333333333333333"/><text x="32.70666666666666" y="245.33336922647857" fill="#333333" font-size="11.733333333333334" font-family="sans-serif" text-anchor="end">2</text><line x1="39.306666666666665" y1="140.5991883794666" x2="35.64" y2="140.5991883794666" stroke="#444444" stroke-width="1.3333333333333333"/><text x="32.70666666666666" y="144.70585504613325" fill="#333333" font-size="11.733333333333334" font-family="sans-serif" text-anchor="end">4</text><line x1="39.306666666666665" y1="39.97167419912129" x2="35.64" y2="39.97167419912129" stroke="#444444" stroke-width="1.3333333333333333"/><text x="32.70666666666666" y="44.07834086578795" fill="#333333" font-size="11.733333333333334" font-family="sans-serif" text-anchor="end">6</text><text x="39.306666666666665" y="21.413333333333334" fill="#333333" font-size="17.599999999999998" font-family="sans-serif" text-anchor="start">hexbin (六角ビニング、 件数→連続色)</text><text x="303.03095999999994" y="409.73333333333335" fill="#333333" font-size="14.666666666666666" font-family="sans-serif" text-anchor="middle">x</text><text x="17.599999999999998" y="204.13333333333333" fill="#333333" font-size="14.666666666666666" font-family="sans-serif" text-anchor="middle" transform="rotate(-90.0 17.599999999999998 204.13333333333333)">y</text><path d="M 63.28160242424242 375.41019185829145 L 83.26071555555555 367.89297471702446 L 83.26071555555555 352.85854043449064 L 63.28160242424242 345.3413232932237 L 43.3024892929293 352.85854043449064 L 43.302489292929295 367.89297471702446 Z" fill="#40216a" fill-opacity="1.0" stroke="#40216a" stroke-width="0.6666666666666666"/><path d="M 83.26071555555555 352.85854043449064 L 103.23982868686869 345.3413232932237 L 103.23982868686869 330.30688901068976 L 83.26071555555555 322.7896718694228 L 63.28160242424242 330.30688901068976 L 63.28160242424242 345.3413232932237 Z" fill="#52be6a" fill-opacity="1.0" stroke="#52be6a" stroke-width="0.6666666666666666"/><path d="M 63.28160242424242 330.30688901068976 L 83.26071555555555 322.7896718694228 L 83.26071555555555 307.75523758688894 L 63.28160242424242 300.238020445622 L 43.3024892929293 307.75523758688894 L 43.302489292929295 322.7896718694228 Z" fill="#40216a" fill-opacity="1.0" stroke="#40216a" stroke-width="0.6666666666666666"/><path d="M 83.26071555555555 307.75523758688894 L 103.23982868686869 300.238020445622 L 103.23982868686869 285.2035861630881 L 83.26071555555555 277.6863690218212 L 63.28160242424242 285.20358616308806 L 63.28160242424242 300.238020445622 Z" fill="#3d4280" fill-opacity="1.0" stroke="#3d4280" stroke-width="0.6666666666666666"/><path d="M 63.28160242424242 285.2035861630881 L 83.26071555555555 277.6863690218212 L 83.26071555555555 262.6519347392873 L 63.28160242424242 255.13471759802033 L 43.3024892929293 262.6519347392873 L 43.302489292929295 277.6863690218212 Z" fill="#440154" fill-opacity="1.0" stroke="#440154" stroke-width="0.6666666666666666"/><path d="M 103.23982868686869 375.41019185829145 L 123.2189418181818 367.89297471702446 L 123.2189418181818 352.85854043449064 L 103.23982868686869 345.3413232932237 L 83.26071555555555 352.85854043449064 L 83.26071555555555 367.89297471702446 Z" fill="#440154" fill-opacity="1.0" stroke="#440154" stroke-width="0.6666666666666666"/><path d="M 123.2189418181818 352.85854043449064 L 143.19805494949492 345.3413232932237 L 143.19805494949492 330.30688901068976 L 123.2189418181818 322.7896718694228 L 103.23982868686869 330.30688901068976 L 103.23982868686869 345.3413232932237 Z" fill="#3d4280" fill-opacity="1.0" stroke="#3d4280" stroke-width="0.6666666666666666"/><path d="M 103.23982868686869 330.30688901068976 L 123.2189418181818 322.7896718694228 L 123.2189418181818 307.75523758688894 L 103.23982868686869 300.238020445622 L 83.26071555555555 307.75523758688894 L 83.26071555555555 322.7896718694228 Z" fill="#bddb3d" fill-opacity="1.0" stroke="#bddb3d" stroke-width="0.6666666666666666"/><path d="M 123.2189418181818 307.75523758688894 L 143.19805494949492 300.238020445622 L 143.19805494949492 285.2035861630881 L 123.2189418181818 277.6863690218212 L 103.23982868686869 285.20358616308806 L 103.23982868686869 300.238020445622 Z" fill="#7ecf56" fill-opacity="1.0" stroke="#7ecf56" stroke-width="0.6666666666666666"/><path d="M 103.23982868686869 285.2035861630881 L 123.2189418181818 277.6863690218212 L 123.2189418181818 262.6519347392873 L 103.23982868686869 255.13471759802033 L 83.26071555555555 262.6519347392873 L 83.26071555555555 277.6863690218212 Z" fill="#365f8b" fill-opacity="1.0" stroke="#365f8b" stroke-width="0.6666666666666666"/><path d="M 123.2189418181818 262.6519347392873 L 143.19805494949492 255.13471759802033 L 143.19805494949492 240.10028331548642 L 123.2189418181818 232.58306617421945 L 103.23982868686869 240.10028331548642 L 103.23982868686869 255.13471759802033 Z" fill="#440154" fill-opacity="1.0" stroke="#440154" stroke-width="0.6666666666666666"/><path d="M 143.19805494949492 330.30688901068976 L 163.17716808080806 322.7896718694228 L 163.17716808080806 307.75523758688894 L 143.19805494949492 300.238020445622 L 123.2189418181818 307.75523758688894 L 123.2189418181818 322.7896718694228 Z" fill="#3d4280" fill-opacity="1.0" stroke="#3d4280" stroke-width="0.6666666666666666"/><path d="M 163.17716808080806 307.75523758688894 L 183.15628121212117 300.238020445622 L 183.15628121212117 285.2035861630881 L 163.17716808080806 277.6863690218212 L 143.19805494949492 285.20358616308806 L 143.19805494949492 300.238020445622 Z" fill="#39a77b" fill-opacity="1.0" stroke="#39a77b" stroke-width="0.6666666666666666"/><path d="M 143.19805494949492 285.2035861630881 L 163.17716808080806 277.6863690218212 L 163.17716808080806 262.6519347392873 L 143.19805494949492 255.13471759802033 L 123.2189418181818 262.6519347392873 L 123.2189418181818 277.6863690218212 Z" fill="#52be6a" fill-opacity="1.0" stroke="#52be6a" stroke-width="0.6666666666666666"/><path d="M 163.17716808080806 262.6519347392873 L 183.15628121212117 255.13471759802033 L 183.15628121212117 240.10028331548642 L 163.17716808080806 232.58306617421945 L 143.19805494949492 240.10028331548642 L 143.19805494949492 255.13471759802033 Z" fill="#2b788c" fill-opacity="1.0" stroke="#2b788c" stroke-width="0.6666666666666666"/><path d="M 183.15628121212117 330.30688901068976 L 203.13539434343434 322.7896718694228 L 203.13539434343434 307.75523758688894 L 183.15628121212117 300.238020445622 L 163.17716808080806 307.75523758688894 L 163.17716808080806 322.7896718694228 Z" fill="#40216a" fill-opacity="1.0" stroke="#40216a" stroke-width="0.6666666666666666"/><path d="M 203.13539434343434 307.75523758688894 L 223.11450747474743 300.238020445622 L 223.11450747474743 285.2035861630881 L 203.13539434343434 277.6863690218212 L 183.15628121212117 285.20358616308806 L 183.15628121212117 300.238020445622 Z" fill="#3d4280" fill-opacity="1.0" stroke="#3d4280" stroke-width="0.6666666666666666"/><path d="M 183.15628121212117 285.2035861630881 L 203.13539434343434 277.6863690218212 L 203.13539434343434 262.6519347392873 L 183.15628121212117 255.13471759802033 L 163.17716808080806 262.6519347392873 L 163.17716808080806 277.6863690218212 Z" fill="#fde725" fill-opacity="1.0" stroke="#fde725" stroke-width="0.6666666666666666"/><path d="M 203.13539434343434 262.6519347392873 L 223.11450747474743 255.13471759802033 L 223.11450747474743 240.10028331548642 L 203.13539434343434 232.58306617421945 L 183.15628121212117 240.10028331548642 L 183.15628121212117 255.13471759802033 Z" fill="#2b788c" fill-opacity="1.0" stroke="#2b788c" stroke-width="0.6666666666666666"/><path d="M 183.15628121212117 240.10028331548642 L 203.13539434343434 232.58306617421945 L 203.13539434343434 217.54863189168557 L 183.15628121212117 210.0314147504186 L 163.17716808080806 217.54863189168557 L 163.17716808080806 232.58306617421945 Z" fill="#440154" fill-opacity="1.0" stroke="#440154" stroke-width="0.6666666666666666"/><path d="M 203.13539434343434 217.5486318916856 L 223.11450747474743 210.03141475041866 L 223.11450747474743 194.99698046788478 L 203.13539434343434 187.4797633266178 L 183.15628121212117 194.99698046788478 L 183.15628121212117 210.03141475041866 Z" fill="#440154" fill-opacity="1.0" stroke="#440154" stroke-width="0.6666666666666666"/><path d="M 243.09362060606057 307.75523758688894 L 263.07273373737365 300.238020445622 L 263.07273373737365 285.2035861630881 L 243.09362060606057 277.6863690218212 L 223.11450747474743 285.20358616308806 L 223.11450747474743 300.238020445622 Z" fill="#3d4280" fill-opacity="1.0" stroke="#3d4280" stroke-width="0.6666666666666666"/><path d="M 223.11450747474743 285.2035861630881 L 243.09362060606057 277.6863690218212 L 243.09362060606057 262.6519347392873 L 223.11450747474743 255.13471759802033 L 203.13539434343434 262.6519347392873 L 203.13539434343434 277.6863690218212 Z" fill="#21918c" fill-opacity="1.0" stroke="#21918c" stroke-width="0.6666666666666666"/><path d="M 243.09362060606057 262.6519347392873 L 263.07273373737365 255.13471759802033 L 263.07273373737365 240.10028331548642 L 243.09362060606057 232.58306617421945 L 223.11450747474743 240.10028331548642 L 223.11450747474743 255.13471759802033 Z" fill="#39a77b" fill-opacity="1.0" stroke="#39a77b" stroke-width="0.6666666666666666"/><path d="M 223.11450747474743 240.10028331548642 L 243.09362060606057 232.58306617421945 L 243.09362060606057 217.54863189168557 L 223.11450747474743 210.0314147504186 L 203.13539434343434 217.54863189168557 L 203.13539434343434 232.58306617421945 Z" fill="#39a77b" fill-opacity="1.0" stroke="#39a77b" stroke-width="0.6666666666666666"/><path d="M 243.09362060606057 217.5486318916856 L 263.07273373737365 210.03141475041866 L 263.07273373737365 194.99698046788478 L 243.09362060606057 187.4797633266178 L 223.11450747474743 194.99698046788478 L 223.11450747474743 210.03141475041866 Z" fill="#52be6a" fill-opacity="1.0" stroke="#52be6a" stroke-width="0.6666666666666666"/><path d="M 263.07273373737365 285.2035861630881 L 283.05184686868677 277.6863690218212 L 283.05184686868677 262.6519347392873 L 263.07273373737365 255.13471759802033 L 243.09362060606057 262.6519347392873 L 243.09362060606057 277.6863690218212 Z" fill="#40216a" fill-opacity="1.0" stroke="#40216a" stroke-width="0.6666666666666666"/><path d="M 283.05184686868677 262.6519347392873 L 303.03095999999994 255.13471759802033 L 303.03095999999994 240.10028331548642 L 283.05184686868677 232.58306617421945 L 263.07273373737365 240.10028331548642 L 263.07273373737365 255.13471759802033 Z" fill="#365f8b" fill-opacity="1.0" stroke="#365f8b" stroke-width="0.6666666666666666"/><path d="M 263.07273373737365 240.10028331548642 L 283.05184686868677 232.58306617421945 L 283.05184686868677 217.54863189168557 L 263.07273373737365 210.0314147504186 L 243.09362060606057 217.54863189168557 L 243.09362060606057 232.58306617421945 Z" fill="#52be6a" fill-opacity="1.0" stroke="#52be6a" stroke-width="0.6666666666666666"/><path d="M 283.05184686868677 217.5486318916856 L 303.03095999999994 210.03141475041866 L 303.03095999999994 194.99698046788478 L 283.05184686868677 187.4797633266178 L 263.07273373737365 194.99698046788478 L 263.07273373737365 210.03141475041866 Z" fill="#39a77b" fill-opacity="1.0" stroke="#39a77b" stroke-width="0.6666666666666666"/><path d="M 263.07273373737365 194.9969804678848 L 283.05184686868677 187.4797633266178 L 283.05184686868677 172.44532904408393 L 263.07273373737365 164.92811190281697 L 243.09362060606057 172.44532904408393 L 243.09362060606057 187.4797633266178 Z" fill="#40216a" fill-opacity="1.0" stroke="#40216a" stroke-width="0.6666666666666666"/><path d="M 323.01007313131305 262.6519347392873 L 342.9891862626262 255.13471759802033 L 342.9891862626262 240.10028331548642 L 323.01007313131305 232.58306617421945 L 303.03095999999994 240.10028331548642 L 303.03095999999994 255.13471759802033 Z" fill="#40216a" fill-opacity="1.0" stroke="#40216a" stroke-width="0.6666666666666666"/><path d="M 303.03095999999994 240.10028331548642 L 323.01007313131305 232.58306617421945 L 323.01007313131305 217.54863189168557 L 303.03095999999994 210.0314147504186 L 283.05184686868677 217.54863189168557 L 283.05184686868677 232.58306617421945 Z" fill="#21918c" fill-opacity="1.0" stroke="#21918c" stroke-width="0.6666666666666666"/><path d="M 323.01007313131305 217.5486318916856 L 342.9891862626262 210.03141475041866 L 342.9891862626262 194.99698046788478 L 323.01007313131305 187.4797633266178 L 303.03095999999994 194.99698046788478 L 303.03095999999994 210.03141475041866 Z" fill="#2b788c" fill-opacity="1.0" stroke="#2b788c" stroke-width="0.6666666666666666"/><path d="M 303.03095999999994 194.9969804678848 L 323.01007313131305 187.4797633266178 L 323.01007313131305 172.44532904408393 L 303.03095999999994 164.92811190281697 L 283.05184686868677 172.44532904408393 L 283.05184686868677 187.4797633266178 Z" fill="#39a77b" fill-opacity="1.0" stroke="#39a77b" stroke-width="0.6666666666666666"/><path d="M 323.01007313131305 172.44532904408393 L 342.9891862626262 164.92811190281697 L 342.9891862626262 149.89367762028309 L 323.01007313131305 142.37646047901617 L 303.03095999999994 149.89367762028306 L 303.03095999999994 164.92811190281697 Z" fill="#2b788c" fill-opacity="1.0" stroke="#2b788c" stroke-width="0.6666666666666666"/><path d="M 342.9891862626262 240.10028331548642 L 362.9682993939394 232.58306617421945 L 362.9682993939394 217.54863189168557 L 342.9891862626262 210.0314147504186 L 323.01007313131305 217.54863189168557 L 323.01007313131305 232.58306617421945 Z" fill="#365f8b" fill-opacity="1.0" stroke="#365f8b" stroke-width="0.6666666666666666"/><path d="M 362.9682993939394 217.5486318916856 L 382.9474125252525 210.03141475041866 L 382.9474125252525 194.99698046788478 L 362.9682993939394 187.4797633266178 L 342.9891862626262 194.99698046788478 L 342.9891862626262 210.03141475041866 Z" fill="#21918c" fill-opacity="1.0" stroke="#21918c" stroke-width="0.6666666666666666"/><path d="M 342.9891862626262 194.9969804678848 L 362.9682993939394 187.4797633266178 L 362.9682993939394 172.44532904408393 L 342.9891862626262 164.92811190281697 L 323.01007313131305 172.44532904408393 L 323.01007313131305 187.4797633266178 Z" fill="#3d4280" fill-opacity="1.0" stroke="#3d4280" stroke-width="0.6666666666666666"/><path d="M 362.9682993939394 172.44532904408393 L 382.9474125252525 164.92811190281697 L 382.9474125252525 149.89367762028309 L 362.9682993939394 142.37646047901617 L 342.9891862626262 149.89367762028306 L 342.9891862626262 164.92811190281697 Z" fill="#39a77b" fill-opacity="1.0" stroke="#39a77b" stroke-width="0.6666666666666666"/><path d="M 342.9891862626262 149.89367762028309 L 362.9682993939394 142.37646047901617 L 362.9682993939394 127.34202619648227 L 342.9891862626262 119.82480905521534 L 323.01007313131305 127.34202619648227 L 323.01007313131305 142.37646047901617 Z" fill="#365f8b" fill-opacity="1.0" stroke="#365f8b" stroke-width="0.6666666666666666"/><path d="M 402.9265256565657 217.5486318916856 L 422.90563878787884 210.03141475041866 L 422.90563878787884 194.99698046788478 L 402.9265256565657 187.4797633266178 L 382.9474125252525 194.99698046788478 L 382.9474125252525 210.03141475041866 Z" fill="#440154" fill-opacity="1.0" stroke="#440154" stroke-width="0.6666666666666666"/><path d="M 382.9474125252525 194.9969804678848 L 402.9265256565657 187.4797633266178 L 402.9265256565657 172.44532904408393 L 382.9474125252525 164.92811190281697 L 362.9682993939394 172.44532904408393 L 362.9682993939394 187.4797633266178 Z" fill="#39a77b" fill-opacity="1.0" stroke="#39a77b" stroke-width="0.6666666666666666"/><path d="M 402.9265256565657 172.44532904408393 L 422.90563878787884 164.92811190281697 L 422.90563878787884 149.89367762028309 L 402.9265256565657 142.37646047901617 L 382.9474125252525 149.89367762028306 L 382.9474125252525 164.92811190281697 Z" fill="#52be6a" fill-opacity="1.0" stroke="#52be6a" stroke-width="0.6666666666666666"/><path d="M 382.9474125252525 149.89367762028309 L 402.9265256565657 142.37646047901617 L 402.9265256565657 127.34202619648227 L 382.9474125252525 119.82480905521534 L 362.9682993939394 127.34202619648227 L 362.9682993939394 142.37646047901617 Z" fill="#21918c" fill-opacity="1.0" stroke="#21918c" stroke-width="0.6666666666666666"/><path d="M 402.9265256565657 127.34202619648227 L 422.90563878787884 119.82480905521534 L 422.90563878787884 104.79037477268142 L 402.9265256565657 97.27315763141446 L 382.9474125252525 104.79037477268142 L 382.9474125252525 119.82480905521534 Z" fill="#365f8b" fill-opacity="1.0" stroke="#365f8b" stroke-width="0.6666666666666666"/><path d="M 422.90563878787884 194.9969804678848 L 442.8847519191919 187.4797633266178 L 442.8847519191919 172.44532904408393 L 422.90563878787884 164.92811190281697 L 402.9265256565657 172.44532904408393 L 402.9265256565657 187.4797633266178 Z" fill="#365f8b" fill-opacity="1.0" stroke="#365f8b" stroke-width="0.6666666666666666"/><path d="M 442.8847519191919 172.44532904408393 L 462.863865050505 164.92811190281697 L 462.863865050505 149.89367762028309 L 442.8847519191919 142.37646047901617 L 422.90563878787884 149.89367762028306 L 422.90563878787884 164.92811190281697 Z" fill="#7ecf56" fill-opacity="1.0" stroke="#7ecf56" stroke-width="0.6666666666666666"/><path d="M 422.90563878787884 149.89367762028309 L 442.8847519191919 142.37646047901617 L 442.8847519191919 127.34202619648227 L 422.90563878787884 119.82480905521534 L 402.9265256565657 127.34202619648227 L 402.9265256565657 142.37646047901617 Z" fill="#2b788c" fill-opacity="1.0" stroke="#2b788c" stroke-width="0.6666666666666666"/><path d="M 442.8847519191919 127.34202619648227 L 462.863865050505 119.82480905521534 L 462.863865050505 104.79037477268142 L 442.8847519191919 97.27315763141446 L 422.90563878787884 104.79037477268142 L 422.90563878787884 119.82480905521534 Z" fill="#3d4280" fill-opacity="1.0" stroke="#3d4280" stroke-width="0.6666666666666666"/><path d="M 422.90563878787884 104.79037477268142 L 442.8847519191919 97.27315763141446 L 442.8847519191919 82.23872334888054 L 422.90563878787884 74.72150620761359 L 402.9265256565657 82.23872334888054 L 402.9265256565657 97.27315763141446 Z" fill="#40216a" fill-opacity="1.0" stroke="#40216a" stroke-width="0.6666666666666666"/><path d="M 442.8847519191919 82.23872334888058 L 462.863865050505 74.72150620761363 L 462.863865050505 59.68707192507975 L 442.8847519191919 52.16985478381275 L 422.90563878787884 59.68707192507975 L 422.90563878787884 74.72150620761363 Z" fill="#440154" fill-opacity="1.0" stroke="#440154" stroke-width="0.6666666666666666"/><path d="M 482.8429781818182 172.44532904408393 L 502.8220913131312 164.92811190281697 L 502.8220913131312 149.89367762028309 L 482.8429781818182 142.37646047901617 L 462.863865050505 149.89367762028306 L 462.863865050505 164.92811190281697 Z" fill="#440154" fill-opacity="1.0" stroke="#440154" stroke-width="0.6666666666666666"/><path d="M 462.863865050505 149.89367762028309 L 482.8429781818182 142.37646047901617 L 482.8429781818182 127.34202619648227 L 462.863865050505 119.82480905521534 L 442.8847519191919 127.34202619648227 L 442.8847519191919 142.37646047901617 Z" fill="#bddb3d" fill-opacity="1.0" stroke="#bddb3d" stroke-width="0.6666666666666666"/><path d="M 482.8429781818182 127.34202619648227 L 502.8220913131312 119.82480905521534 L 502.8220913131312 104.79037477268142 L 482.8429781818182 97.27315763141446 L 462.863865050505 104.79037477268142 L 462.863865050505 119.82480905521534 Z" fill="#7ecf56" fill-opacity="1.0" stroke="#7ecf56" stroke-width="0.6666666666666666"/><path d="M 462.863865050505 104.79037477268142 L 482.8429781818182 97.27315763141446 L 482.8429781818182 82.23872334888054 L 462.863865050505 74.72150620761359 L 442.8847519191919 82.23872334888054 L 442.8847519191919 97.27315763141446 Z" fill="#365f8b" fill-opacity="1.0" stroke="#365f8b" stroke-width="0.6666666666666666"/><path d="M 482.8429781818182 82.23872334888058 L 502.8220913131312 74.72150620761363 L 502.8220913131312 59.68707192507975 L 482.8429781818182 52.16985478381275 L 462.863865050505 59.68707192507975 L 462.863865050505 74.72150620761363 Z" fill="#3d4280" fill-opacity="1.0" stroke="#3d4280" stroke-width="0.6666666666666666"/><path d="M 502.8220913131312 149.89367762028309 L 522.8012044444444 142.37646047901617 L 522.8012044444444 127.34202619648227 L 502.8220913131312 119.82480905521534 L 482.8429781818182 127.34202619648227 L 482.8429781818182 142.37646047901617 Z" fill="#3d4280" fill-opacity="1.0" stroke="#3d4280" stroke-width="0.6666666666666666"/><path d="M 522.8012044444444 127.34202619648227 L 542.7803175757575 119.82480905521534 L 542.7803175757575 104.79037477268142 L 522.8012044444444 97.27315763141446 L 502.8220913131312 104.79037477268142 L 502.8220913131312 119.82480905521534 Z" fill="#39a77b" fill-opacity="1.0" stroke="#39a77b" stroke-width="0.6666666666666666"/><path d="M 502.8220913131312 104.79037477268142 L 522.8012044444444 97.27315763141446 L 522.8012044444444 82.23872334888054 L 502.8220913131312 74.72150620761359 L 482.8429781818182 82.23872334888054 L 482.8429781818182 97.27315763141446 Z" fill="#52be6a" fill-opacity="1.0" stroke="#52be6a" stroke-width="0.6666666666666666"/><path d="M 522.8012044444444 82.23872334888058 L 542.7803175757575 74.72150620761363 L 542.7803175757575 59.68707192507975 L 522.8012044444444 52.16985478381275 L 502.8220913131312 59.68707192507975 L 502.8220913131312 74.72150620761363 Z" fill="#39a77b" fill-opacity="1.0" stroke="#39a77b" stroke-width="0.6666666666666666"/><path d="M 502.8220913131312 59.68707192507975 L 522.8012044444444 52.16985478381275 L 522.8012044444444 37.13542050127891 L 502.8220913131312 29.61820336001195 L 482.8429781818182 37.13542050127891 L 482.8429781818182 52.16985478381275 Z" fill="#440154" fill-opacity="1.0" stroke="#440154" stroke-width="0.6666666666666666"/><path d="M 542.7803175757575 104.79037477268142 L 562.7594307070707 97.27315763141446 L 562.7594307070707 82.23872334888054 L 542.7803175757575 74.72150620761359 L 522.8012044444444 82.23872334888054 L 522.8012044444444 97.27315763141446 Z" fill="#3d4280" fill-opacity="1.0" stroke="#3d4280" stroke-width="0.6666666666666666"/><path d="M 542.7803175757575 59.68707192507975 L 562.7594307070707 52.16985478381275 L 562.7594307070707 37.13542050127891 L 542.7803175757575 29.61820336001195 L 522.8012044444444 37.13542050127891 L 522.8012044444444 52.16985478381275 Z" fill="#440154" fill-opacity="1.0" stroke="#440154" stroke-width="0.6666666666666666"/><text x="581.42192" y="127.13333333333334" fill="#333333" font-size="14.666666666666666" font-family="sans-serif" text-anchor="start">count</text><rect x="581.42192" y="291.76666666666665" width="23.114079999999994" height="4.699999999999999" fill="#440154" fill-opacity="1.0" stroke="none"/><rect x="581.42192" y="287.73333333333335" width="23.114079999999994" height="4.699999999999999" fill="#43095a" fill-opacity="1.0" stroke="none"/><rect x="581.42192" y="283.7" width="23.114079999999994" height="4.699999999999999" fill="#42125f" fill-opacity="1.0" stroke="none"/><rect x="581.42192" y="279.6666666666667" width="23.114079999999994" height="4.699999999999999" fill="#411a65" fill-opacity="1.0" stroke="none"/><rect x="581.42192" y="275.6333333333333" width="23.114079999999994" height="4.699999999999999" fill="#40226b" fill-opacity="1.0" stroke="none"/><rect x="581.42192" y="271.6" width="23.114079999999994" height="4.699999999999999" fill="#3f2b70" fill-opacity="1.0" stroke="none"/><rect x="581.42192" y="267.56666666666666" width="23.114079999999994" height="4.699999999999999" fill="#3e3376" fill-opacity="1.0" stroke="none"/><rect x="581.42192" y="263.5333333333333" width="23.114079999999994" height="4.699999999999999" fill="#3e3b7b" fill-opacity="1.0" stroke="none"/><rect x="581.42192" y="259.5" width="23.114079999999994" height="4.699999999999999" fill="#3d4381" fill-opacity="1.0" stroke="none"/><rect x="581.42192" y="255.4666666666667" width="23.114079999999994" height="4.699999999999999" fill="#3c4c87" fill-opacity="1.0" stroke="none"/><rect x="581.42192" y="251.43333333333334" width="23.114079999999994" height="4.699999999999999" fill="#3a548b" fill-opacity="1.0" stroke="none"/><rect x="581.42192" y="247.4" width="23.114079999999994" height="4.699999999999999" fill="#385a8b" fill-opacity="1.0" stroke="none"/><rect x="581.42192" y="243.36666666666667" width="23.114079999999994" height="4.699999999999999" fill="#35618b" fill-opacity="1.0" stroke="none"/><rect x="581.42192" y="239.33333333333337" width="23.114079999999994" height="4.699999999999999" fill="#32678b" fill-opacity="1.0" stroke="none"/><rect x="581.42192" y="235.3" width="23.114079999999994" height="4.699999999999999" fill="#306d8b" fill-opacity="1.0" stroke="none"/><rect x="581.42192" y="231.26666666666668" width="23.114079999999994" height="4.699999999999999" fill="#2d748c" fill-opacity="1.0" stroke="none"/><rect x="581.42192" y="227.23333333333335" width="23.114079999999994" height="4.699999999999999" fill="#2a7a8c" fill-opacity="1.0" stroke="none"/><rect x="581.42192" y="223.2" width="23.114079999999994" height="4.699999999999999" fill="#28818c" fill-opacity="1.0" stroke="none"/><rect x="581.42192" y="219.16666666666669" width="23.114079999999994" height="4.699999999999999" fill="#25878c" fill-opacity="1.0" stroke="none"/><rect x="581.42192" y="215.13333333333335" width="23.114079999999994" height="4.699999999999999" fill="#228e8c" fill-opacity="1.0" stroke="none"/><rect x="581.42192" y="211.10000000000002" width="23.114079999999994" height="4.699999999999999" fill="#24948a" fill-opacity="1.0" stroke="none"/><rect x="581.42192" y="207.06666666666666" width="23.114079999999994" height="4.699999999999999" fill="#2a9a86" fill-opacity="1.0" stroke="none"/><rect x="581.42192" y="203.03333333333333" width="23.114079999999994" height="4.699999999999999" fill="#319f81" fill-opacity="1.0" stroke="none"/><rect x="581.42192" y="199.00000000000003" width="23.114079999999994" height="4.699999999999999" fill="#37a57d" fill-opacity="1.0" stroke="none"/><rect x="581.42192" y="194.9666666666667" width="23.114079999999994" height="4.699999999999999" fill="#3dab79" fill-opacity="1.0" stroke="none"/><rect x="581.42192" y="190.93333333333334" width="23.114079999999994" height="4.699999999999999" fill="#43b174" fill-opacity="1.0" stroke="none"/><rect x="581.42192" y="186.90000000000003" width="23.114079999999994" height="4.699999999999999" fill="#4ab670" fill-opacity="1.0" stroke="none"/><rect x="581.42192" y="182.86666666666667" width="23.114079999999994" height="4.699999999999999" fill="#50bc6c" fill-opacity="1.0" stroke="none"/><rect x="581.42192" y="178.83333333333337" width="23.114079999999994" height="4.699999999999999" fill="#56c267" fill-opacity="1.0" stroke="none"/><rect x="581.42192" y="174.8" width="23.114079999999994" height="4.699999999999999" fill="#5cc863" fill-opacity="1.0" stroke="none"/><rect x="581.42192" y="170.76666666666668" width="23.114079999999994" height="4.699999999999999" fill="#6acb5d" fill-opacity="1.0" stroke="none"/><rect x="581.42192" y="166.73333333333338" width="23.114079999999994" height="4.699999999999999" fill="#7bce57" fill-opacity="1.0" stroke="none"/><rect x="581.42192" y="162.70000000000002" width="23.114079999999994" height="4.699999999999999" fill="#8bd151" fill-opacity="1.0" stroke="none"/><rect x="581.42192" y="158.66666666666669" width="23.114079999999994" height="4.699999999999999" fill="#9bd54b" fill-opacity="1.0" stroke="none"/><rect x="581.42192" y="154.63333333333335" width="23.114079999999994" height="4.699999999999999" fill="#abd844" fill-opacity="1.0" stroke="none"/><rect x="581.42192" y="150.60000000000002" width="23.114079999999994" height="4.699999999999999" fill="#bcdb3e" fill-opacity="1.0" stroke="none"/><rect x="581.42192" y="146.5666666666667" width="23.114079999999994" height="4.699999999999999" fill="#ccde38" fill-opacity="1.0" stroke="none"/><rect x="581.42192" y="142.53333333333336" width="23.114079999999994" height="4.699999999999999" fill="#dce132" fill-opacity="1.0" stroke="none"/><rect x="581.42192" y="138.5" width="23.114079999999994" height="4.699999999999999" fill="#ede42b" fill-opacity="1.0" stroke="none"/><rect x="581.42192" y="134.4666666666667" width="23.114079999999994" height="4.699999999999999" fill="#fde725" fill-opacity="1.0" stroke="none"/><text x="608.2026666666666" y="275.3546666666666" fill="#333333" font-size="11.733333333333334" font-family="sans-serif" text-anchor="start">2.5</text><text x="608.2026666666666" y="235.0213333333333" fill="#333333" font-size="11.733333333333334" font-family="sans-serif" text-anchor="start">5</text><text x="608.2026666666666" y="194.68800000000002" fill="#333333" font-size="11.733333333333334" font-family="sans-serif" text-anchor="start">7.5</text><text x="608.2026666666666" y="154.35466666666667" fill="#333333" font-size="11.733333333333334" font-family="sans-serif" text-anchor="start">10</text></svg>