<svg xmlns="http://www.w3.org/2000/svg" width="640" height="420" viewBox="0 0 640 420"><rect x="0.0" y="0.0" width="640.0" height="420.0" fill="#ffffff" fill-opacity="1.0" stroke="none"/><line x1="86.68181818181819" y1="27.0" x2="86.68181818181819" y2="383.8" stroke="#dddddd" stroke-width="0.5"/><line x1="235.5454545454546" y1="27.0" x2="235.5454545454546" y2="383.8" stroke="#dddddd" stroke-width="0.5"/><line x1="384.409090909091" y1="27.0" x2="384.409090909091" y2="383.8" stroke="#dddddd" stroke-width="0.5"/><line x1="533.2727272727273" y1="27.0" x2="533.2727272727273" y2="383.8" stroke="#dddddd" stroke-width="0.5"/><line x1="161.11363636363637" y1="27.0" x2="161.11363636363637" y2="383.8" stroke="#dddddd" stroke-width="1.0"/><line x1="309.97727272727275" y1="27.0" x2="309.97727272727275" y2="383.8" stroke="#dddddd" stroke-width="1.0"/><line x1="458.8409090909091" y1="27.0" x2="458.8409090909091" y2="383.8" stroke="#dddddd" stroke-width="1.0"/><line x1="607.7045454545455" y1="27.0" x2="607.7045454545455" y2="383.8" stroke="#dddddd" stroke-width="1.0"/><line x1="45.0" y1="362.27896742274623" x2="634.5" y2="362.27896742274623" stroke="#dddddd" stroke-width="0.5"/><line x1="45.0" y1="264.40756079557923" x2="634.5" y2="264.40756079557923" stroke="#dddddd" stroke-width="0.5"/><line x1="45.0" y1="166.53615416841225" x2="634.5" y2="166.53615416841225" stroke="#dddddd" stroke-width="0.5"/><line x1="45.0" y1="68.66474754124528" x2="634.5" y2="68.66474754124528" stroke="#dddddd" stroke-width="0.5"/><line x1="45.0" y1="313.3432641091627" x2="634.5" y2="313.3432641091627" stroke="#dddddd" stroke-width="1.0"/><line x1="45.0" y1="215.47185748199573" x2="634.5" y2="215.47185748199573" stroke="#dddddd" stroke-width="1.0"/><line x1="45.0" y1="117.60045085482875" x2="634.5" y2="117.60045085482875" stroke="#dddddd" stroke-width="1.0"/><rect x="45.0" y="27.0" width="589.5" height="356.8" fill="#ffffff" fill-opacity="0.0" stroke="#444444" stroke-width="1.0"/><line x1="161.11363636363637" y1="383.8" x2="161.11363636363637" y2="386.55" stroke="#444444" stroke-width="1.0"/><text x="161.11363636363637" y="397.55" fill="#333333" font-size="11.0" font-family="sans-serif" text-anchor="middle">2.5</text><line x1="309.97727272727275" y1="383.8" x2="309.97727272727275" y2="386.55" stroke="#444444" stroke-width="1.0"/><text x="309.97727272727275" y="397.55" fill="#333333" font-size="11.0" font-family="sans-serif" text-anchor="middle">5</text><line x1="458.8409090909091" y1="383.8" x2="458.8409090909091" y2="386.55" stroke="#444444" stroke-width="1.0"/><text x="458.8409090909091" y="397.55" fill="#333333" font-size="11.0" font-family="sans-serif" text-anchor="middle">7.5</text><line x1="607.7045454545455" y1="383.8" x2="607.7045454545455" y2="386.55" stroke="#444444" stroke-width="1.0"/><text x="607.7045454545455" y="397.55" fill="#333333" font-size="11.0" font-family="sans-serif" text-anchor="middle">10</text><line x1="45.0" y1="313.3432641091627" x2="42.25" y2="313.3432641091627" stroke="#444444" stroke-width="1.0"/><text x="40.05" y="317.1932641091627" fill="#333333" font-size="11.0" font-family="sans-serif" text-anchor="end">2.5</text><line x1="45.0" y1="215.47185748199573" x2="42.25" y2="215.47185748199573" stroke="#444444" stroke-width="1.0"/><text x="40.05" y="219.32185748199572" fill="#333333" font-size="11.0" font-family="sans-serif" text-anchor="end">5</text><line x1="45.0" y1="117.60045085482875" x2="42.25" y2="117.60045085482875" stroke="#444444" stroke-width="1.0"/><text x="40.05" y="121.45045085482874" fill="#333333" font-size="11.0" font-family="sans-serif" text-anchor="end">7.5</text><text x="339.75" y="18.3" fill="#333333" font-size="16.0" font-family="sans-serif" text-anchor="middle">Lesson 4: 重畳 (散布 + 回帰直線)</text><text x="339.75" y="412.1" fill="#333333" font-size="12.0" font-family="sans-serif" text-anchor="middle">x</text><text x="13.899999999999999" y="205.4" fill="#333333" font-size="12.0" font-family="sans-serif" text-anchor="middle" transform="rotate(-90.0 13.899999999999999 205.4)">y</text><circle cx="71.79545454545455" cy="364.23639555528956" r="6.0" fill="#1f77b4" fill-opacity="0.85" stroke="#1f77b4" stroke-width="1.0"><title>(1, 1.2)</title></circle><circle cx="131.34090909090912" cy="336.8324016996828" r="6.0" fill="#1f77b4" fill-opacity="0.85" stroke="#1f77b4" stroke-width="1.0"><title>(2, 1.9)</title></circle><circle cx="190.88636363636368" cy="278.10955772338264" r="6.0" fill="#1f77b4" fill-opacity="0.85" stroke="#1f77b4" stroke-width="1.0"><title>(3, 3.4)</title></circle><circle cx="250.43181818181822" cy="289.85412651864266" r="6.0" fill="#1f77b4" fill-opacity="0.85" stroke="#1f77b4" stroke-width="1.0"><title>(4, 3.1)</title></circle><circle cx="309.97727272727275" cy="207.64214495182236" r="6.0" fill="#1f77b4" fill-opacity="0.85" stroke="#1f77b4" stroke-width="1.0"><title>(5, 5.2)</title></circle><circle cx="369.5227272727273" cy="215.47185748199573" r="6.0" fill="#1f77b4" fill-opacity="0.85" stroke="#1f77b4" stroke-width="1.0"><title>(6, 5)</title></circle><circle cx="429.06818181818187" cy="145.00444471043548" r="6.0" fill="#1f77b4" fill-opacity="0.85" stroke="#1f77b4" stroke-width="1.0"><title>(7, 6.8)</title></circle><circle cx="488.61363636363643" cy="125.43016338500206" r="6.0" fill="#1f77b4" fill-opacity="0.85" stroke="#1f77b4" stroke-width="1.0"><title>(8, 7.3)</title></circle><circle cx="548.159090909091" cy="94.11131326430865" r="6.0" fill="#1f77b4" fill-opacity="0.85" stroke="#1f77b4" stroke-width="1.0"><title>(9, 8.1)</title></circle><circle cx="607.7045454545455" cy="43.21818181818185" r="6.0" fill="#1f77b4" fill-opacity="0.85" stroke="#1f77b4" stroke-width="1.0"><title>(10, 9.4)</title></circle><line x1="71.79545454545455" y1="367.5818181818182" x2="131.34090909090912" y2="332.56164941049735" stroke="#dc2626" stroke-width="2.0"/><line x1="131.34090909090912" y1="332.56164941049735" x2="190.88636363636368" y2="297.5414806391765" stroke="#dc2626" stroke-width="2.0"/><line x1="190.88636363636368" y1="297.5414806391765" x2="250.43181818181822" y2="262.5213118678556" stroke="#dc2626" stroke-width="2.0"/><line x1="250.43181818181822" y1="262.5213118678556" x2="309.97727272727275" y2="227.5011430965348" stroke="#dc2626" stroke-width="2.0"/><line x1="309.97727272727275" y1="227.5011430965348" x2="369.5227272727273" y2="192.48097432521396" stroke="#dc2626" stroke-width="2.0"/><line x1="369.5227272727273" y1="192.48097432521396" x2="429.06818181818187" y2="157.46080555389312" stroke="#dc2626" stroke-width="2.0"/><line x1="429.06818181818187" y1="157.46080555389312" x2="488.61363636363643" y2="122.44063678257231" stroke="#dc2626" stroke-width="2.0"/><line x1="488.61363636363643" y1="122.44063678257231" x2="548.159090909091" y2="87.4204680112515" stroke="#dc2626" stroke-width="2.0"/><line x1="548.159090909091" y1="87.4204680112515" x2="607.7045454545455" y2="52.40029923993069" stroke="#dc2626" stroke-width="2.0"/></svg>