<svg xmlns="http://www.w3.org/2000/svg" width="640" height="420" viewBox="0 0 640 420"><rect x="0.0" y="0.0" width="640.0" height="420.0" fill="#ffffff" fill-opacity="1.0" stroke="none"/><line x1="133.2340909090909" y1="27.0" x2="133.2340909090909" y2="383.8" stroke="#dddddd" stroke-width="0.5"/><line x1="268.7113636363636" y1="27.0" x2="268.7113636363636" y2="383.8" stroke="#dddddd" stroke-width="0.5"/><line x1="404.18863636363636" y1="27.0" x2="404.18863636363636" y2="383.8" stroke="#dddddd" stroke-width="0.5"/><line x1="539.665909090909" y1="27.0" x2="539.665909090909" y2="383.8" stroke="#dddddd" stroke-width="0.5"/><line x1="65.49545454545454" y1="27.0" x2="65.49545454545454" y2="383.8" stroke="#dddddd" stroke-width="1.0"/><line x1="200.97272727272727" y1="27.0" x2="200.97272727272727" y2="383.8" stroke="#dddddd" stroke-width="1.0"/><line x1="336.45" y1="27.0" x2="336.45" y2="383.8" stroke="#dddddd" stroke-width="1.0"/><line x1="471.92727272727274" y1="27.0" x2="471.92727272727274" y2="383.8" stroke="#dddddd" stroke-width="1.0"/><line x1="607.4045454545454" y1="27.0" x2="607.4045454545454" y2="383.8" stroke="#dddddd" stroke-width="1.0"/><line x1="38.4" y1="347.3090909090909" x2="634.5" y2="347.3090909090909" stroke="#dddddd" stroke-width="0.5"/><line x1="38.4" y1="279.73333333333335" x2="634.5" y2="279.73333333333335" stroke="#dddddd" stroke-width="0.5"/><line x1="38.4" y1="212.15757575757576" x2="634.5" y2="212.15757575757576" stroke="#dddddd" stroke-width="0.5"/><line x1="38.4" y1="144.5818181818182" x2="634.5" y2="144.5818181818182" stroke="#dddddd" stroke-width="0.5"/><line x1="38.4" y1="77.0060606060606" x2="634.5" y2="77.0060606060606" stroke="#dddddd" stroke-width="0.5"/><line x1="38.4" y1="381.0969696969697" x2="634.5" y2="381.0969696969697" stroke="#dddddd" stroke-width="1.0"/><line x1="38.4" y1="313.5212121212121" x2="634.5" y2="313.5212121212121" stroke="#dddddd" stroke-width="1.0"/><line x1="38.4" y1="245.94545454545457" x2="634.5" y2="245.94545454545457" stroke="#dddddd" stroke-width="1.0"/><line x1="38.4" y1="178.36969696969695" x2="634.5" y2="178.36969696969695" stroke="#dddddd" stroke-width="1.0"/><line x1="38.4" y1="110.79393939393941" x2="634.5" y2="110.79393939393941" stroke="#dddddd" stroke-width="1.0"/><line x1="38.4" y1="43.21818181818179" x2="634.5" y2="43.21818181818179" stroke="#dddddd" stroke-width="1.0"/><rect x="38.4" y="27.0" width="596.1" height="356.8" fill="#ffffff" fill-opacity="0.0" stroke="#444444" stroke-width="1.0"/><line x1="65.49545454545454" y1="383.8" x2="65.49545454545454" y2="386.55" stroke="#444444" stroke-width="1.0"/><text x="65.49545454545454" y="397.55" fill="#333333" font-size="11.0" font-family="sans-serif" text-anchor="middle">1</text><line x1="200.97272727272727" y1="383.8" x2="200.97272727272727" y2="386.55" stroke="#444444" stroke-width="1.0"/><text x="200.97272727272727" y="397.55" fill="#333333" font-size="11.0" font-family="sans-serif" text-anchor="middle">2</text><line x1="336.45" y1="383.8" x2="336.45" y2="386.55" stroke="#444444" stroke-width="1.0"/><text x="336.45" y="397.55" fill="#333333" font-size="11.0" font-family="sans-serif" text-anchor="middle">3</text><line x1="471.92727272727274" y1="383.8" x2="471.92727272727274" y2="386.55" stroke="#444444" stroke-width="1.0"/><text x="471.92727272727274" y="397.55" fill="#333333" font-size="11.0" font-family="sans-serif" text-anchor="middle">4</text><line x1="607.4045454545454" y1="383.8" x2="607.4045454545454" y2="386.55" stroke="#444444" stroke-width="1.0"/><text x="607.4045454545454" y="397.55" fill="#333333" font-size="11.0" font-family="sans-serif" text-anchor="middle">5</text><line x1="38.4" y1="381.0969696969697" x2="35.65" y2="381.0969696969697" stroke="#444444" stroke-width="1.0"/><text x="33.449999999999996" y="384.94696969696975" fill="#333333" font-size="11.0" font-family="sans-serif" text-anchor="end">0</text><line x1="38.4" y1="313.5212121212121" x2="35.65" y2="313.5212121212121" stroke="#444444" stroke-width="1.0"/><text x="33.449999999999996" y="317.3712121212121" fill="#333333" font-size="11.0" font-family="sans-serif" text-anchor="end">5</text><line x1="38.4" y1="245.94545454545457" x2="35.65" y2="245.94545454545457" stroke="#444444" stroke-width="1.0"/><text x="33.449999999999996" y="249.79545454545456" fill="#333333" font-size="11.0" font-family="sans-serif" text-anchor="end">10</text><line x1="38.4" y1="178.36969696969695" x2="35.65" y2="178.36969696969695" stroke="#444444" stroke-width="1.0"/><text x="33.449999999999996" y="182.21969696969694" fill="#333333" font-size="11.0" font-family="sans-serif" text-anchor="end">15</text><line x1="38.4" y1="110.79393939393941" x2="35.65" y2="110.79393939393941" stroke="#444444" stroke-width="1.0"/><text x="33.449999999999996" y="114.6439393939394" fill="#333333" font-size="11.0" font-family="sans-serif" text-anchor="end">20</text><line x1="38.4" y1="43.21818181818179" x2="35.65" y2="43.21818181818179" stroke="#444444" stroke-width="1.0"/><text x="33.449999999999996" y="47.06818181818179" fill="#333333" font-size="11.0" font-family="sans-serif" text-anchor="end">25</text><text x="336.45" y="18.3" fill="#333333" font-size="16.0" font-family="sans-serif" text-anchor="middle">Lesson 1: y = x²</text><text x="336.45" y="412.1" fill="#333333" font-size="12.0" font-family="sans-serif" text-anchor="middle">x</text><text x="13.899999999999999" y="205.4" fill="#333333" font-size="12.0" font-family="sans-serif" text-anchor="middle" transform="rotate(-90.0 13.899999999999999 205.4)">y</text><circle cx="65.49545454545454" cy="367.58181818181816" r="3.0" fill="#1f77b4" fill-opacity="0.85" stroke="#1f77b4" stroke-width="1.0"><title>(1, 1)</title></circle><circle cx="200.97272727272727" cy="327.03636363636366" r="3.0" fill="#1f77b4" fill-opacity="0.85" stroke="#1f77b4" stroke-width="1.0"><title>(2, 4)</title></circle><circle cx="336.45" cy="259.4606060606061" r="3.0" fill="#1f77b4" fill-opacity="0.85" stroke="#1f77b4" stroke-width="1.0"><title>(3, 9)</title></circle><circle cx="471.92727272727274" cy="164.85454545454544" r="3.0" fill="#1f77b4" fill-opacity="0.85" stroke="#1f77b4" stroke-width="1.0"><title>(4, 16)</title></circle><circle cx="607.4045454545454" cy="43.21818181818179" r="3.0" fill="#1f77b4" fill-opacity="0.85" stroke="#1f77b4" stroke-width="1.0"><title>(5, 25)</title></circle></svg>