<svg xmlns="http://www.w3.org/2000/svg" width="640" height="420" viewBox="0 0 640 420"><rect x="0.0" y="0.0" width="640.0" height="420.0" fill="#ffffff" fill-opacity="1.0" stroke="none"/><text x="28.01333333333333" y="21.413333333333334" fill="#333333" font-size="17.599999999999998" font-family="sans-serif" text-anchor="start">pie (円グラフ)</text><path d="M 330.34 213.29999999999998 L 330.34 68.47333333333331 L 334.88911553475504 68.54479655076562 L 339.4337416416987 68.75911567749485 L 343.96939332354265 69.11607920641792 L 348.4915944396729 69.61533485762853 L 352.99588212355985 70.25638992607483 L 357.47781118706854 71.03861176779976 L 361.9329585073233 71.96122842428434 L 366.35692739179535 73.02332938427743 L 370.7453519173081 74.22386648236058 L 375.0939012386757 75.56165493336056 L 379.39828386272467 77.03537450158935 L 383.65425188347956 78.64357080375748 L 387.8576051743331 80.38465674427461 L 392.0041955330642 82.25691408152126 L 396.08993077561274 84.25849512354597 L 400.11077877457103 86.38742455151402 L 404.0627714384071 88.64160136910886 L 407.9420086274914 91.01880097596148 L 411.7446620030646 93.51667736306277 L 415.4669788053445 96.13276542799093 L 419.1052855570484 98.86448340767 L 422.6559916886702 101.70913542625834 L 426.11559308194006 104.66391415565262 L 429.48067552796556 107.72590358598168 L 432.7479180966437 110.89208190335626 L 435.91409641401833 114.15932447203443 L 438.9760858443474 117.5244069180599 L 441.9308645737416 120.98400831132975 L 444.77551659232995 124.53471444295157 L 447.507234572009 128.17302119465538 L 450.12332263693725 131.8953379969354 L 452.62119902403845 135.69799137250848 L 454.9983986308912 139.57722856159288 L 457.2525754484859 143.5292212254289 L 459.38150487645396 147.5500692243872 L 461.3830859184787 151.63580446693572 L 463.2553432557254 155.7823948256668 L 464.99642919624245 159.98574811652034 L 466.6046254984106 164.2417161372752 L 468.0783450666394 168.54609876132423 L 469.41613351763937 172.8946480826919 L 470.61667061572257 177.28307260820458 L 471.6787715757156 181.70704149267672 L 472.60138823220024 186.1621888129314 L 473.38361007392507 190.64411787644013 L 474.0246651423714 195.148405560327 L 474.523920793582 199.67060667645728 L 474.88088432250515 204.20625835830123 L 475.09520344923436 208.7508844652449 L 475.16666666666663 213.29999999999995 L 475.09520344923436 217.84911553475501 L 474.88088432250515 222.39374164169865 L 474.523920793582 226.92939332354266 L 474.0246651423714 231.45159443967296 L 473.38361007392507 235.95588212355977 L 472.60138823220024 240.43781118706852 L 471.6787715757156 244.89295850732321 L 470.61667061572257 249.31692739179533 L 469.41613351763937 253.70535191730806 L 468.0783450666395 258.0539012386756 Z" fill="#F8766D" fill-opacity="0.9" stroke="#ffffff" stroke-width="1.3333333333333333"/><text x="412.3570642004063" y="153.7111148362588" fill="#333333" font-size="11.733333333333334" font-family="sans-serif" text-anchor="middle">A (30%)</text><path d="M 330.34 213.29999999999998 L 468.0783450666395 258.0539012386756 L 465.54734123483473 265.20123557281397 L 462.6457434788524 272.20631222785784 L 459.3815048764541 279.0499307756127 L 455.7635724787543 285.71333333333325 L 451.8018627869759 292.17825597777625 L 447.5072345720091 298.42697880534456 L 442.8914591112749 304.4423745011111 L 437.96718792447274 310.20795528359884 L 432.74791809664373 315.70791809664365 L 427.2479552835989 320.9271879244727 L 421.4823745011111 325.85145911127483 L 415.4669788053446 330.467234572009 L 409.21825597777627 334.7618627869759 L 402.7533333333334 338.72357247875425 L 396.08993077561286 342.34150487645394 L 389.24631222785786 345.60574347885233 L 382.24123557281405 348.5073412348347 L 375.09390123867576 351.0383450666394 L 367.8238995720477 353.19181766869144 L 360.4511571421667 354.9618565222746 L 352.99588212355985 356.3436100739251 L 345.47850890684344 357.33329103320244 L 337.9196420894781 357.928186753389 L 330.34000000000003 358.12666666666667 L 322.7603579105219 357.928186753389 L 315.2014910931566 357.33329103320244 L 307.68411787644015 356.3436100739251 L 300.22884285783334 354.9618565222746 L 292.85610042795224 353.19181766869144 L 285.58609876132437 351.0383450666394 L 278.438764427186 348.5073412348347 L 271.43368777214215 345.60574347885245 L 264.5900692243872 342.341504876454 L 257.9266666666667 338.7235724787543 L 251.4617440222237 334.76186278697594 L 245.21302119465543 330.46723457200903 L 239.1976254988889 325.8514591112749 L 233.43204471640115 320.9271879244728 L 227.93208190335628 315.7079180966437 L 222.7128120755273 310.20795528359895 L 217.7885408887251 304.44237450111115 L 213.17276542799095 298.42697880534456 L 208.8781372130241 292.1782559777764 L 204.91642752124568 285.71333333333337 L 201.298495123546 279.0499307756128 L 198.0342565211476 272.20631222785795 L 195.13265876516527 265.2012355728141 L 192.60165493336058 258.05390123867573 L 190.44818233130854 250.7838995720478 L 188.67814347772537 243.41115714216676 L 187.29638992607482 235.95588212355983 L 186.3067089667975 228.4385089068433 L 185.7118132466109 220.87964208947812 L 185.51333333333332 213.29999999999998 L 185.7118132466109 205.7203579105219 L 186.3067089667975 198.16149109315668 L 187.29638992607482 190.6441178764402 L 188.67814347772537 183.18884285783327 L 190.4481823313085 175.8161004279523 L 192.6016549333605 168.5460987613244 Z" fill="#00BA38" fill-opacity="0.9" stroke="#ffffff" stroke-width="1.3333333333333333"/><text x="299.012269132927" y="309.7168415466476" fill="#333333" font-size="11.733333333333334" font-family="sans-serif" text-anchor="middle">B (50%)</text><path d="M 330.34 213.29999999999998 L 192.60165493336052 168.5460987613243 L 193.56911821973972 165.6713397750068 L 194.59657373518763 162.81747229320592 L 195.68357080375748 159.98574811652037 L 196.82963263260945 157.17740933276343 L 198.03425652114757 154.39368777214207 L 199.29691408152127 151.63580446693572 L 200.61705147039328 148.90496911591086 L 201.9940896318739 146.20237955370752 L 203.42742455151398 143.52922122542896 L 204.91642752124565 140.88666666666668 L 206.4604454151543 138.27587498918746 L 208.05880097596145 135.6979913725085 L 209.71079311209192 133.15414656158396 L 211.41569720519607 130.6454563708227 L 213.1727654279909 128.1730211946554 L 214.98122707228237 125.73792552486512 L 216.840288887023 123.34123747489323 L 218.74913542625836 120.98400831132977 L 220.70692940680829 118.66727199279299 L 222.7128120755272 116.39204471640107 L 224.76590358598168 114.15932447203443 L 226.86530338437979 111.97009060458436 L 229.01009060458432 109.82530338437984 L 231.1993244720344 107.72590358598173 L 233.43204471640107 105.67281207552726 L 235.70727199279295 103.6669294068083 L 238.02400831132974 101.70913542625834 L 240.3812374748932 99.80028888702306 L 242.777925524865 97.94122707228243 L 245.21302119465537 96.13276542799095 L 247.68545637082275 94.37569720519605 L 250.19414656158392 92.67079311209199 L 252.73799137250845 91.01880097596151 L 255.31587498918742 89.42044541515435 L 257.92666666666656 87.87642752124572 L 260.5692212254289 86.38742455151403 L 263.2423795537074 84.95408963187396 L 265.9449691159109 83.57705147039327 L 268.6758044669357 82.25691408152127 L 271.4336877721421 80.99425652114755 L 274.2174093327634 79.78963263260943 L 277.0257481165204 78.64357080375748 L 279.85747229320583 77.55657373518764 L 282.71133977500665 76.52911821973976 L 285.58609876132425 75.56165493336056 L 288.48048828785534 74.65460823742245 L 291.3932387796931 73.80837599258447 L 294.32307260820454 73.02332938427745 L 297.2687046514407 72.29981275988975 L 300.22884285783323 71.63814347772536 L 303.2021888129314 71.03861176779976 L 306.18743830892925 70.50148060453566 L 309.1832819167345 70.02698559141359 L 312.18840556032694 69.61533485762854 L 315.2014910931565 69.26670896679752 L 318.2212168763251 68.98126083775844 L 321.2462583583013 68.75911567749485 L 324.2752886559124 68.60037092621599 L 327.3069791363596 68.50509621461636 L 330.3399999999999 68.47333333333331 Z" fill="#619CFF" fill-opacity="0.9" stroke="#ffffff" stroke-width="1.3333333333333333"/><text x="270.75111483625875" y="131.28293579959364" fill="#333333" font-size="11.733333333333334" font-family="sans-serif" text-anchor="middle">C (20%)</text></svg>