<svg xmlns="http://www.w3.org/2000/svg" width="640" height="420" viewBox="0 0 640 420"><rect x="0.0" y="0.0" width="640.0" height="420.0" fill="#ffffff" fill-opacity="1.0" stroke="none"/><line x1="117.41575757575755" y1="32.266666666666666" x2="117.41575757575755" y2="376.0" stroke="#dddddd" stroke-width="0.6666666666666666"/><line x1="206.2521212121212" y1="32.266666666666666" x2="206.2521212121212" y2="376.0" stroke="#dddddd" stroke-width="0.6666666666666666"/><line x1="295.0884848484848" y1="32.266666666666666" x2="295.0884848484848" y2="376.0" stroke="#dddddd" stroke-width="0.6666666666666666"/><line x1="383.92484848484855" y1="32.266666666666666" x2="383.92484848484855" y2="376.0" stroke="#dddddd" stroke-width="0.6666666666666666"/><line x1="472.7612121212121" y1="32.266666666666666" x2="472.7612121212121" y2="376.0" stroke="#dddddd" stroke-width="0.6666666666666666"/><line x1="561.5975757575757" y1="32.266666666666666" x2="561.5975757575757" y2="376.0" stroke="#dddddd" stroke-width="0.6666666666666666"/><line x1="72.99757575757573" y1="32.266666666666666" x2="72.99757575757573" y2="376.0" stroke="#dddddd" stroke-width="1.3333333333333333"/><line x1="161.83393939393937" y1="32.266666666666666" x2="161.83393939393937" y2="376.0" stroke="#dddddd" stroke-width="1.3333333333333333"/><line x1="250.670303030303" y1="32.266666666666666" x2="250.670303030303" y2="376.0" stroke="#dddddd" stroke-width="1.3333333333333333"/><line x1="339.50666666666666" y1="32.266666666666666" x2="339.50666666666666" y2="376.0" stroke="#dddddd" stroke-width="1.3333333333333333"/><line x1="428.3430303030303" y1="32.266666666666666" x2="428.3430303030303" y2="376.0" stroke="#dddddd" stroke-width="1.3333333333333333"/><line x1="517.179393939394" y1="32.266666666666666" x2="517.179393939394" y2="376.0" stroke="#dddddd" stroke-width="1.3333333333333333"/><line x1="606.0157575757576" y1="32.266666666666666" x2="606.0157575757576" y2="376.0" stroke="#dddddd" stroke-width="1.3333333333333333"/><line x1="46.346666666666664" y1="334.33535353535353" x2="632.6666666666666" y2="334.33535353535353" stroke="#dddddd" stroke-width="0.6666666666666666"/><line x1="46.346666666666664" y1="282.25454545454545" x2="632.6666666666666" y2="282.25454545454545" stroke="#dddddd" stroke-width="0.6666666666666666"/><line x1="46.346666666666664" y1="230.17373737373737" x2="632.6666666666666" y2="230.17373737373737" stroke="#dddddd" stroke-width="0.6666666666666666"/><line x1="46.346666666666664" y1="178.09292929292928" x2="632.6666666666666" y2="178.09292929292928" stroke="#dddddd" stroke-width="0.6666666666666666"/><line x1="46.346666666666664" y1="126.0121212121212" x2="632.6666666666666" y2="126.0121212121212" stroke="#dddddd" stroke-width="0.6666666666666666"/><line x1="46.346666666666664" y1="73.93131313131312" x2="632.6666666666666" y2="73.93131313131312" stroke="#dddddd" stroke-width="0.6666666666666666"/><line x1="46.346666666666664" y1="360.3757575757576" x2="632.6666666666666" y2="360.3757575757576" stroke="#dddddd" stroke-width="1.3333333333333333"/><line x1="46.346666666666664" y1="308.2949494949495" x2="632.6666666666666" y2="308.2949494949495" stroke="#dddddd" stroke-width="1.3333333333333333"/><line x1="46.346666666666664" y1="256.2141414141414" x2="632.6666666666666" y2="256.2141414141414" stroke="#dddddd" stroke-width="1.3333333333333333"/><line x1="46.346666666666664" y1="204.13333333333333" x2="632.6666666666666" y2="204.13333333333333" stroke="#dddddd" stroke-width="1.3333333333333333"/><line x1="46.346666666666664" y1="152.05252525252524" x2="632.6666666666666" y2="152.05252525252524" stroke="#dddddd" stroke-width="1.3333333333333333"/><line x1="46.346666666666664" y1="99.97171717171712" x2="632.6666666666666" y2="99.97171717171712" stroke="#dddddd" stroke-width="1.3333333333333333"/><line x1="46.346666666666664" y1="47.890909090909076" x2="632.6666666666666" y2="47.890909090909076" stroke="#dddddd" stroke-width="1.3333333333333333"/><rect x="46.346666666666664" y="32.266666666666666" width="586.3199999999999" height="343.73333333333335" fill="#ffffff" fill-opacity="0.0" stroke="#444444" stroke-width="1.3333333333333333"/><line x1="72.99757575757573" y1="376.0" x2="72.99757575757573" y2="379.66666666666663" stroke="#444444" stroke-width="1.3333333333333333"/><text x="72.99757575757573" y="391.9866666666667" fill="#333333" font-size="11.733333333333334" font-family="sans-serif" text-anchor="middle">-3</text><line x1="161.83393939393937" y1="376.0" x2="161.83393939393937" y2="379.66666666666663" stroke="#444444" stroke-width="1.3333333333333333"/><text x="161.83393939393937" y="391.9866666666667" fill="#333333" font-size="11.733333333333334" font-family="sans-serif" text-anchor="middle">-2</text><line x1="250.670303030303" y1="376.0" x2="250.670303030303" y2="379.66666666666663" stroke="#444444" stroke-width="1.3333333333333333"/><text x="250.670303030303" y="391.9866666666667" fill="#333333" font-size="11.733333333333334" font-family="sans-serif" text-anchor="middle">-1</text><line x1="339.50666666666666" y1="376.0" x2="339.50666666666666" y2="379.66666666666663" stroke="#444444" stroke-width="1.3333333333333333"/><text x="339.50666666666666" y="391.9866666666667" fill="#333333" font-size="11.733333333333334" font-family="sans-serif" text-anchor="middle">0</text><line x1="428.3430303030303" y1="376.0" x2="428.3430303030303" y2="379.66666666666663" stroke="#444444" stroke-width="1.3333333333333333"/><text x="428.3430303030303" y="391.9866666666667" fill="#333333" font-size="11.733333333333334" font-family="sans-serif" text-anchor="middle">1</text><line x1="517.179393939394" y1="376.0" x2="517.179393939394" y2="379.66666666666663" stroke="#444444" stroke-width="1.3333333333333333"/><text x="517.179393939394" y="391.9866666666667" fill="#333333" font-size="11.733333333333334" font-family="sans-serif" text-anchor="middle">2</text><line x1="606.0157575757576" y1="376.0" x2="606.0157575757576" y2="379.66666666666663" stroke="#444444" stroke-width="1.3333333333333333"/><text x="606.0157575757576" y="391.9866666666667" fill="#333333" font-size="11.733333333333334" font-family="sans-serif" text-anchor="middle">3</text><line x1="46.346666666666664" y1="360.3757575757576" x2="42.67999999999999" y2="360.3757575757576" stroke="#444444" stroke-width="1.3333333333333333"/><text x="39.74666666666666" y="364.48242424242426" fill="#333333" font-size="11.733333333333334" font-family="sans-serif" text-anchor="end">-3</text><line x1="46.346666666666664" y1="308.2949494949495" x2="42.67999999999999" y2="308.2949494949495" stroke="#444444" stroke-width="1.3333333333333333"/><text x="39.74666666666666" y="312.4016161616162" fill="#333333" font-size="11.733333333333334" font-family="sans-serif" text-anchor="end">-2</text><line x1="46.346666666666664" y1="256.2141414141414" x2="42.67999999999999" y2="256.2141414141414" stroke="#444444" stroke-width="1.3333333333333333"/><text x="39.74666666666666" y="260.3208080808081" fill="#333333" font-size="11.733333333333334" font-family="sans-serif" text-anchor="end">-1</text><line x1="46.346666666666664" y1="204.13333333333333" x2="42.67999999999999" y2="204.13333333333333" stroke="#444444" stroke-width="1.3333333333333333"/><text x="39.74666666666666" y="208.24" fill="#333333" font-size="11.733333333333334" font-family="sans-serif" text-anchor="end">0</text><line x1="46.346666666666664" y1="152.05252525252524" x2="42.67999999999999" y2="152.05252525252524" stroke="#444444" stroke-width="1.3333333333333333"/><text x="39.74666666666666" y="156.1591919191919" fill="#333333" font-size="11.733333333333334" font-family="sans-serif" text-anchor="end">1</text><line x1="46.346666666666664" y1="99.97171717171712" x2="42.67999999999999" y2="99.97171717171712" stroke="#444444" stroke-width="1.3333333333333333"/><text x="39.74666666666666" y="104.07838383838379" fill="#333333" font-size="11.733333333333334" font-family="sans-serif" text-anchor="end">2</text><line x1="46.346666666666664" y1="47.890909090909076" x2="42.67999999999999" y2="47.890909090909076" stroke="#444444" stroke-width="1.3333333333333333"/><text x="39.74666666666666" y="51.99757575757574" fill="#333333" font-size="11.733333333333334" font-family="sans-serif" text-anchor="end">3</text><text x="46.346666666666664" y="21.413333333333334" fill="#333333" font-size="17.599999999999998" font-family="sans-serif" text-anchor="start">quiver (vector field、 magnitude 連続色)</text><text x="339.50666666666666" y="409.73333333333335" fill="#333333" font-size="14.666666666666666" font-family="sans-serif" text-anchor="middle">x</text><text x="17.599999999999998" y="204.13333333333333" fill="#333333" font-size="14.666666666666666" font-family="sans-serif" text-anchor="middle" transform="rotate(-90.0 17.599999999999998 204.13333333333333)">y</text><clipPath id="clip0"><rect x="46.346666666666664" y="32.266666666666666" width="586.3199999999999" height="343.73333333333335"/></clipPath><g clip-path="url(#clip0)"><line x1="72.99757575757573" y1="360.3757575757576" x2="130.207090371438" y2="371.555555386171" stroke="#fde725" stroke-width="1.4211023622047245"/><line x1="130.207090371438" y1="371.555555386171" x2="120.02758289796128" y2="374.38006433426773" stroke="#fde725" stroke-width="1.4211023622047245"/><line x1="130.207090371438" y1="371.555555386171" x2="121.83977872887466" y2="365.10665477624764" stroke="#fde725" stroke-width="1.4211023622047245"/><line x1="72.99757575757573" y1="308.2949494949495" x2="117.49386490169083" y2="323.2013465755008" stroke="#9dd54a" stroke-width="1.4211023622047245"/><line x1="117.49386490169083" y1="323.2013465755008" x2="107.03370648474657" y2="324.67962567393806" stroke="#9dd54a" stroke-width="1.4211023622047245"/><line x1="117.49386490169083" y1="323.2013465755008" x2="110.03514657277448" y2="315.72018730100774" stroke="#9dd54a" stroke-width="1.4211023622047245"/><line x1="72.99757575757573" y1="256.2141414141414" x2="104.78063943194365" y2="274.84713776483056" stroke="#5dc863" stroke-width="1.4211023622047245"/><line x1="104.78063943194365" y1="274.84713776483056" x2="94.23996199950838" y2="274.14404284535203" stroke="#5dc863" stroke-width="1.4211023622047245"/><line x1="104.78063943194365" y1="274.84713776483056" x2="99.01870890806532" y2="265.9927388671952" stroke="#5dc863" stroke-width="1.4211023622047245"/><line x1="72.99757575757573" y1="204.13333333333333" x2="92.0674139621965" y2="226.49292895416028" stroke="#54bf69" stroke-width="1.4211023622047245"/><line x1="92.0674139621965" y1="226.49292895416028" x2="82.34131273295128" y2="222.36943794787436" stroke="#54bf69" stroke-width="1.4211023622047245"/><line x1="92.0674139621965" y1="226.49292895416028" x2="89.5305460296781" y2="216.23795336699254" stroke="#54bf69" stroke-width="1.4211023622047245"/><line x1="72.99757575757573" y1="152.05252525252524" x2="79.35418849244931" y2="178.13872014349005" stroke="#5dc863" stroke-width="1.4211023622047245"/><line x1="79.35418849244931" y1="178.13872014349005" x2="72.52708585235743" y2="170.07702722313536" stroke="#5dc863" stroke-width="1.4211023622047245"/><line x1="79.35418849244931" y1="178.13872014349005" x2="81.70728124467793" y2="167.84002227920377" stroke="#5dc863" stroke-width="1.4211023622047245"/><line x1="72.99757575757573" y1="99.97171717171712" x2="66.64096302270217" y2="129.78451133281976" stroke="#9dd54a" stroke-width="1.4211023622047245"/><line x1="66.64096302270217" y1="129.78451133281976" x2="63.990779618015075" y2="119.55823385164571" stroke="#9dd54a" stroke-width="1.4211023622047245"/><line x1="66.64096302270217" y1="129.78451133281976" x2="73.23187496482916" y2="121.52859812036564" stroke="#9dd54a" stroke-width="1.4211023622047245"/><line x1="72.99757575757573" y1="47.890909090909076" x2="53.927737552955" y2="81.43030252214956" stroke="#fde725" stroke-width="1.4211023622047245"/><line x1="53.927737552955" y1="81.43030252214956" x2="54.491051385320624" y2="70.8812314385559" stroke="#fde725" stroke-width="1.4211023622047245"/><line x1="53.927737552955" y1="81.43030252214956" x2="62.7049827192493" y2="75.55151093788587" stroke="#fde725" stroke-width="1.4211023622047245"/><line x1="161.83393939393937" y1="360.3757575757576" x2="212.68684127292806" y2="364.10235684589543" stroke="#9dd54a" stroke-width="1.4211023622047245"/><line x1="212.68684127292806" y1="364.10235684589543" x2="202.91800388040343" y2="368.12355557250163" stroke="#9dd54a" stroke-width="1.4211023622047245"/><line x1="212.68684127292806" y1="364.10235684589543" x2="203.6085798561283" y2="358.70000616783943" stroke="#9dd54a" stroke-width="1.4211023622047245"/><line x1="161.83393939393937" y1="308.2949494949495" x2="199.9736158031809" y2="315.74814803522514" stroke="#4ab670" stroke-width="1.4211023622047245"/><line x1="199.9736158031809" y1="315.74814803522514" x2="189.79410832970416" y2="318.57265698332174" stroke="#4ab670" stroke-width="1.4211023622047245"/><line x1="199.9736158031809" y1="315.74814803522514" x2="191.60630416061758" y2="309.29924742530176" stroke="#4ab670" stroke-width="1.4211023622047245"/><line x1="161.83393939393937" y1="256.2141414141414" x2="187.2603903334337" y2="267.39393922455486" stroke="#289787" stroke-width="1.4211023622047245"/><line x1="187.2603903334337" y1="267.39393922455486" x2="176.70917667213985" y2="267.9155841940235" stroke="#289787" stroke-width="1.4211023622047245"/><line x1="187.2603903334337" y1="267.39393922455486" x2="180.51234616108246" y2="259.265955277201" stroke="#289787" stroke-width="1.4211023622047245"/><line x1="161.83393939393937" y1="204.13333333333333" x2="174.54716486368653" y2="219.03973041388466" stroke="#248a8c" stroke-width="1.4211023622047245"/><line x1="174.54716486368653" y1="219.03973041388466" x2="164.82106363444132" y2="214.91623940759874" stroke="#248a8c" stroke-width="1.4211023622047245"/><line x1="174.54716486368653" y1="219.03973041388466" x2="172.01029693116817" y2="208.7847548267169" stroke="#248a8c" stroke-width="1.4211023622047245"/><line x1="161.83393939393937" y1="152.05252525252524" x2="161.83393939393937" y2="170.6855216032144" stroke="#289787" stroke-width="1.4211023622047245"/><line x1="161.83393939393937" y1="170.6855216032144" x2="157.10952994512047" y2="161.2367027055766" stroke="#289787" stroke-width="1.4211023622047245"/><line x1="161.83393939393937" y1="170.6855216032144" x2="166.55834884275828" y2="161.2367027055766" stroke="#289787" stroke-width="1.4211023622047245"/><line x1="161.83393939393937" y1="99.97171717171712" x2="149.1207139241922" y2="122.33131279254413" stroke="#4ab670" stroke-width="1.4211023622047245"/><line x1="149.1207139241922" y1="122.33131279254413" x2="149.68402775655784" y2="111.78224170895047" stroke="#4ab670" stroke-width="1.4211023622047245"/><line x1="149.1207139241922" y1="122.33131279254413" x2="157.8979590904865" y2="116.45252120828043" stroke="#4ab670" stroke-width="1.4211023622047245"/><line x1="161.83393939393937" y1="47.890909090909076" x2="136.40748845444503" y2="73.97710398187394" stroke="#9dd54a" stroke-width="1.4211023622047245"/><line x1="136.40748845444503" y1="73.97710398187394" x2="139.61953123272485" y2="63.91315821537923" stroke="#9dd54a" stroke-width="1.4211023622047245"/><line x1="136.40748845444503" y1="73.97710398187394" x2="146.3858707346087" y2="70.50837074460097" stroke="#9dd54a" stroke-width="1.4211023622047245"/><line x1="250.670303030303" y1="360.3757575757576" x2="295.1665921744181" y2="356.6491583056198" stroke="#5dc863" stroke-width="1.4211023622047245"/><line x1="295.1665921744181" y1="356.6491583056198" x2="286.1450304963236" y2="362.1456706624497" stroke="#5dc863" stroke-width="1.4211023622047245"/><line x1="295.1665921744181" y1="356.6491583056198" x2="285.3564452820975" y2="352.7298163772421" stroke="#5dc863" stroke-width="1.4211023622047245"/><line x1="250.670303030303" y1="308.2949494949495" x2="282.45336670467094" y2="308.2949494949495" stroke="#289787" stroke-width="1.4211023622047245"/><line x1="282.45336670467094" y1="308.2949494949495" x2="273.00454780703313" y2="313.01935894376834" stroke="#289787" stroke-width="1.4211023622047245"/><line x1="282.45336670467094" y1="308.2949494949495" x2="273.00454780703313" y2="303.5705400461306" stroke="#289787" stroke-width="1.4211023622047245"/><line x1="250.670303030303" y1="256.2141414141414" x2="269.7401412349237" y2="259.94074068427926" stroke="#32678b" stroke-width="1.4211023622047245"/><line x1="269.7401412349237" y1="259.94074068427926" x2="259.56063376144704" y2="262.76524963237586" stroke="#32678b" stroke-width="1.4211023622047245"/><line x1="269.7401412349237" y1="259.94074068427926" x2="261.3728295923604" y2="253.49184007435588" stroke="#32678b" stroke-width="1.4211023622047245"/><line x1="250.670303030303" y1="204.13333333333333" x2="257.02691576517657" y2="211.58653187360898" stroke="#3c4d88" stroke-width="1.4211023622047245"/><line x1="257.02691576517657" y1="211.58653187360898" x2="247.30081453593135" y2="207.46304086732306" stroke="#3c4d88" stroke-width="1.4211023622047245"/><line x1="257.02691576517657" y1="211.58653187360898" x2="254.49004783265815" y2="201.33155628644124" stroke="#3c4d88" stroke-width="1.4211023622047245"/><line x1="250.670303030303" y1="152.05252525252524" x2="244.31369029542944" y2="163.23232306293875" stroke="#32678b" stroke-width="1.4211023622047245"/><line x1="244.31369029542944" y1="163.23232306293875" x2="244.877004127795" y2="152.6832519793451" stroke="#32678b" stroke-width="1.4211023622047245"/><line x1="244.31369029542944" y1="163.23232306293875" x2="253.09093546172372" y2="157.35353147867502" stroke="#32678b" stroke-width="1.4211023622047245"/><line x1="250.670303030303" y1="99.97171717171712" x2="231.60046482568228" y2="114.87811425226849" stroke="#289787" stroke-width="1.4211023622047245"/><line x1="231.60046482568228" y1="114.87811425226849" x2="236.13529827040068" y2="105.33686125126754" stroke="#289787" stroke-width="1.4211023622047245"/><line x1="231.60046482568228" y1="114.87811425226849" x2="241.95436729331408" y2="112.78122920744264" stroke="#289787" stroke-width="1.4211023622047245"/><line x1="250.670303030303" y1="47.890909090909076" x2="218.8872393559351" y2="66.52390544159823" stroke="#5dc863" stroke-width="1.4211023622047245"/><line x1="218.8872393559351" y1="66.52390544159823" x2="224.64916987981343" y2="57.669506543962896" stroke="#5dc863" stroke-width="1.4211023622047245"/><line x1="218.8872393559351" y1="66.52390544159823" x2="229.42791678837034" y2="65.8208105221197" stroke="#5dc863" stroke-width="1.4211023622047245"/><line x1="339.50666666666666" y1="360.3757575757576" x2="377.6463430759082" y2="349.19595976534407" stroke="#54bf69" stroke-width="1.4211023622047245"/><line x1="377.6463430759082" y1="349.19595976534407" x2="369.9079844433943" y2="356.38748456020113" stroke="#54bf69" stroke-width="1.4211023622047245"/><line x1="377.6463430759082" y1="349.19595976534407" x2="367.2501080605142" y2="347.32018773624714" stroke="#54bf69" stroke-width="1.4211023622047245"/><line x1="339.50666666666666" y1="308.2949494949495" x2="364.93311760616103" y2="300.8417509546738" stroke="#248a8c" stroke-width="1.4211023622047245"/><line x1="364.93311760616103" y1="300.8417509546738" x2="357.19475897364714" y2="308.0332757495308" stroke="#248a8c" stroke-width="1.4211023622047245"/><line x1="364.93311760616103" y1="300.8417509546738" x2="354.53688259076705" y2="298.96597892557685" stroke="#248a8c" stroke-width="1.4211023622047245"/><line x1="339.50666666666666" y1="256.2141414141414" x2="352.2198921364139" y2="252.48754214400356" stroke="#3c4d88" stroke-width="1.4211023622047245"/><line x1="352.2198921364139" y1="252.48754214400356" x2="344.4815335039" y2="259.67906693886056" stroke="#3c4d88" stroke-width="1.4211023622047245"/><line x1="352.2198921364139" y1="252.48754214400356" x2="341.8236571210199" y2="250.61177011490662" stroke="#3c4d88" stroke-width="1.4211023622047245"/><line x1="339.50666666666666" y1="152.05252525252524" x2="326.79344119691945" y2="155.77912452266304" stroke="#3c4d88" stroke-width="1.4211023622047245"/><line x1="326.79344119691945" y1="155.77912452266304" x2="334.5317998294334" y2="148.58759972780604" stroke="#3c4d88" stroke-width="1.4211023622047245"/><line x1="326.79344119691945" y1="155.77912452266304" x2="337.18967621231343" y2="157.65489655176003" stroke="#3c4d88" stroke-width="1.4211023622047245"/><line x1="339.50666666666666" y1="99.97171717171712" x2="314.0802157271723" y2="107.42491571199287" stroke="#248a8c" stroke-width="1.4211023622047245"/><line x1="314.0802157271723" y1="107.42491571199287" x2="321.81857435968624" y2="100.23339091713584" stroke="#248a8c" stroke-width="1.4211023622047245"/><line x1="314.0802157271723" y1="107.42491571199287" x2="324.47645074256627" y2="109.30068774108977" stroke="#248a8c" stroke-width="1.4211023622047245"/><line x1="339.50666666666666" y1="47.890909090909076" x2="301.3669902574252" y2="59.070706901322524" stroke="#54bf69" stroke-width="1.4211023622047245"/><line x1="301.3669902574252" y1="59.070706901322524" x2="309.10534888993914" y2="51.87918210646551" stroke="#54bf69" stroke-width="1.4211023622047245"/><line x1="301.3669902574252" y1="59.070706901322524" x2="311.76322527281917" y2="60.94647893041949" stroke="#54bf69" stroke-width="1.4211023622047245"/><line x1="428.3430303030303" y1="360.3757575757576" x2="460.12609397739817" y2="341.7427612250684" stroke="#5dc863" stroke-width="1.4211023622047245"/><line x1="460.12609397739817" y1="341.7427612250684" x2="454.36416345351984" y2="350.5971601227037" stroke="#5dc863" stroke-width="1.4211023622047245"/><line x1="460.12609397739817" y1="341.7427612250684" x2="449.58541654496287" y2="342.44585614454695" stroke="#5dc863" stroke-width="1.4211023622047245"/><line x1="428.3430303030303" y1="308.2949494949495" x2="447.412868507651" y2="293.3885524143982" stroke="#289787" stroke-width="1.4211023622047245"/><line x1="447.412868507651" y1="293.3885524143982" x2="442.87803506293255" y2="302.9298054153991" stroke="#289787" stroke-width="1.4211023622047245"/><line x1="447.412868507651" y1="293.3885524143982" x2="437.05896604001924" y2="295.485437459224" stroke="#289787" stroke-width="1.4211023622047245"/><line x1="428.3430303030303" y1="256.2141414141414" x2="434.69964303790385" y2="245.0343436037279" stroke="#32678b" stroke-width="1.4211023622047245"/><line x1="434.69964303790385" y1="245.0343436037279" x2="434.13632920553823" y2="255.58341468732158" stroke="#32678b" stroke-width="1.4211023622047245"/><line x1="434.69964303790385" y1="245.0343436037279" x2="425.9223978716096" y2="250.9131351879916" stroke="#32678b" stroke-width="1.4211023622047245"/><line x1="428.3430303030303" y1="204.13333333333333" x2="421.98641756815675" y2="196.68013479305765" stroke="#3c4d88" stroke-width="1.4211023622047245"/><line x1="421.98641756815675" y1="196.68013479305765" x2="431.712518797402" y2="200.80362579934365" stroke="#3c4d88" stroke-width="1.4211023622047245"/><line x1="421.98641756815675" y1="196.68013479305765" x2="424.52328550067506" y2="206.9351103802254" stroke="#3c4d88" stroke-width="1.4211023622047245"/><line x1="428.3430303030303" y1="152.05252525252524" x2="409.2731920984095" y2="148.32592598238742" stroke="#32678b" stroke-width="1.4211023622047245"/><line x1="409.2731920984095" y1="148.32592598238742" x2="419.45269957188617" y2="145.5014170342908" stroke="#32678b" stroke-width="1.4211023622047245"/><line x1="409.2731920984095" y1="148.32592598238742" x2="417.64050374097275" y2="154.77482659231083" stroke="#32678b" stroke-width="1.4211023622047245"/><line x1="428.3430303030303" y1="99.97171717171712" x2="396.5599666286624" y2="99.97171717171712" stroke="#289787" stroke-width="1.4211023622047245"/><line x1="396.5599666286624" y1="99.97171717171712" x2="406.00878552630013" y2="95.24730772289821" stroke="#289787" stroke-width="1.4211023622047245"/><line x1="396.5599666286624" y1="99.97171717171712" x2="406.00878552630013" y2="104.69612662053602" stroke="#289787" stroke-width="1.4211023622047245"/><line x1="428.3430303030303" y1="47.890909090909076" x2="383.8467411589152" y2="51.61750836104689" stroke="#5dc863" stroke-width="1.4211023622047245"/><line x1="383.8467411589152" y1="51.61750836104689" x2="392.8683028370097" y2="46.12099600421702" stroke="#5dc863" stroke-width="1.4211023622047245"/><line x1="383.8467411589152" y1="51.61750836104689" x2="393.6568880512358" y2="55.536850289424564" stroke="#5dc863" stroke-width="1.4211023622047245"/><line x1="517.179393939394" y1="360.3757575757576" x2="542.6058448788883" y2="334.2895626847927" stroke="#9dd54a" stroke-width="1.4211023622047245"/><line x1="542.6058448788883" y1="334.2895626847927" x2="539.3938021006085" y2="344.35350845128744" stroke="#9dd54a" stroke-width="1.4211023622047245"/><line x1="542.6058448788883" y1="334.2895626847927" x2="532.6274625987246" y2="337.7582959220657" stroke="#9dd54a" stroke-width="1.4211023622047245"/><line x1="517.179393939394" y1="308.2949494949495" x2="529.8926194091412" y2="285.9353538741225" stroke="#4ab670" stroke-width="1.4211023622047245"/><line x1="529.8926194091412" y1="285.9353538741225" x2="529.3293055767755" y2="296.4844249577161" stroke="#4ab670" stroke-width="1.4211023622047245"/><line x1="529.8926194091412" y1="285.9353538741225" x2="521.1153742428469" y2="291.8141454583862" stroke="#4ab670" stroke-width="1.4211023622047245"/><line x1="517.179393939394" y1="256.2141414141414" x2="517.179393939394" y2="237.58114506345225" stroke="#289787" stroke-width="1.4211023622047245"/><line x1="517.179393939394" y1="237.58114506345225" x2="521.9038033882129" y2="247.02996396109006" stroke="#289787" stroke-width="1.4211023622047245"/><line x1="517.179393939394" y1="237.58114506345225" x2="512.454984490575" y2="247.02996396109006" stroke="#289787" stroke-width="1.4211023622047245"/><line x1="517.179393939394" y1="204.13333333333333" x2="504.4661684696467" y2="189.22693625278197" stroke="#248a8c" stroke-width="1.4211023622047245"/><line x1="504.4661684696467" y1="189.22693625278197" x2="514.1922696988919" y2="193.35042725906786" stroke="#248a8c" stroke-width="1.4211023622047245"/><line x1="504.4661684696467" y1="189.22693625278197" x2="507.0030364021651" y2="199.4819118399497" stroke="#248a8c" stroke-width="1.4211023622047245"/><line x1="517.179393939394" y1="152.05252525252524" x2="491.7529429998996" y2="140.87272744211174" stroke="#289787" stroke-width="1.4211023622047245"/><line x1="491.7529429998996" y1="140.87272744211174" x2="502.3041566611935" y2="140.3510824726431" stroke="#289787" stroke-width="1.4211023622047245"/><line x1="491.7529429998996" y1="140.87272744211174" x2="498.5009871722508" y2="149.00071138946566" stroke="#289787" stroke-width="1.4211023622047245"/><line x1="517.179393939394" y1="99.97171717171712" x2="479.0397175301524" y2="92.51851863144145" stroke="#4ab670" stroke-width="1.4211023622047245"/><line x1="479.0397175301524" y1="92.51851863144145" x2="489.21922500362916" y2="89.69400968334482" stroke="#4ab670" stroke-width="1.4211023622047245"/><line x1="479.0397175301524" y1="92.51851863144145" x2="487.40702917271574" y2="98.96741924136485" stroke="#4ab670" stroke-width="1.4211023622047245"/><line x1="517.179393939394" y1="47.890909090909076" x2="466.32649206040537" y2="44.16430982077126" stroke="#9dd54a" stroke-width="1.4211023622047245"/><line x1="466.32649206040537" y1="44.16430982077126" x2="476.09532945292995" y2="40.143111094165" stroke="#9dd54a" stroke-width="1.4211023622047245"/><line x1="466.32649206040537" y1="44.16430982077126" x2="475.40475347720513" y2="49.566660498827176" stroke="#9dd54a" stroke-width="1.4211023622047245"/><line x1="606.0157575757576" y1="360.3757575757576" x2="625.0855957803783" y2="326.83636414451706" stroke="#fde725" stroke-width="1.4211023622047245"/><line x1="625.0855957803783" y1="326.83636414451706" x2="624.5222819480126" y2="337.38543522811074" stroke="#fde725" stroke-width="1.4211023622047245"/><line x1="625.0855957803783" y1="326.83636414451706" x2="616.308350614084" y2="332.71515572878076" stroke="#fde725" stroke-width="1.4211023622047245"/><line x1="606.0157575757576" y1="308.2949494949495" x2="612.3723703106311" y2="278.48215533384683" stroke="#9dd54a" stroke-width="1.4211023622047245"/><line x1="612.3723703106311" y1="278.48215533384683" x2="615.0225537153183" y2="288.70843281502084" stroke="#9dd54a" stroke-width="1.4211023622047245"/><line x1="612.3723703106311" y1="278.48215533384683" x2="605.7814583685041" y2="286.73806854630095" stroke="#9dd54a" stroke-width="1.4211023622047245"/><line x1="606.0157575757576" y1="256.2141414141414" x2="599.659144840884" y2="230.12794652317658" stroke="#5dc863" stroke-width="1.4211023622047245"/><line x1="599.659144840884" y1="230.12794652317658" x2="606.4862474809759" y2="238.18963944353123" stroke="#5dc863" stroke-width="1.4211023622047245"/><line x1="599.659144840884" y1="230.12794652317658" x2="597.3060520886554" y2="240.4266443874629" stroke="#5dc863" stroke-width="1.4211023622047245"/><line x1="606.0157575757576" y1="204.13333333333333" x2="586.9459193711368" y2="181.77373771250635" stroke="#54bf69" stroke-width="1.4211023622047245"/><line x1="586.9459193711368" y1="181.77373771250635" x2="596.672020600382" y2="185.8972287187923" stroke="#54bf69" stroke-width="1.4211023622047245"/><line x1="586.9459193711368" y1="181.77373771250635" x2="589.4827873036552" y2="192.02871329967405" stroke="#54bf69" stroke-width="1.4211023622047245"/><line x1="606.0157575757576" y1="152.05252525252524" x2="574.2326939013897" y2="133.4195289018361" stroke="#5dc863" stroke-width="1.4211023622047245"/><line x1="574.2326939013897" y1="133.4195289018361" x2="584.7733713338249" y2="134.12262382131462" stroke="#5dc863" stroke-width="1.4211023622047245"/><line x1="574.2326939013897" y1="133.4195289018361" x2="579.994624425268" y2="142.2739277994714" stroke="#5dc863" stroke-width="1.4211023622047245"/><line x1="606.0157575757576" y1="99.97171717171712" x2="561.5194684316424" y2="85.06532009116582" stroke="#9dd54a" stroke-width="1.4211023622047245"/><line x1="561.5194684316424" y1="85.06532009116582" x2="571.9796268485866" y2="83.58704099272855" stroke="#9dd54a" stroke-width="1.4211023622047245"/><line x1="561.5194684316424" y1="85.06532009116582" x2="568.9781867605587" y2="92.54647936565887" stroke="#9dd54a" stroke-width="1.4211023622047245"/><line x1="606.0157575757576" y1="47.890909090909076" x2="548.8062429618952" y2="36.71111128049559" stroke="#fde725" stroke-width="1.4211023622047245"/><line x1="548.8062429618952" y1="36.71111128049559" x2="558.985750435372" y2="33.886602332398965" stroke="#fde725" stroke-width="1.4211023622047245"/><line x1="548.8062429618952" y1="36.71111128049559" x2="557.1735546044586" y2="43.16001189041899" stroke="#fde725" stroke-width="1.4211023622047245"/></g></svg>