<svg xmlns="http://www.w3.org/2000/svg" width="640" height="420" viewBox="0 0 640 420"><rect x="0.0" y="0.0" width="640.0" height="420.0" fill="#ffffff" fill-opacity="1.0" stroke="none"/><line x1="110.65454545454543" y1="27.0" x2="110.65454545454543" y2="383.8" stroke="#dddddd" stroke-width="0.5"/><line x1="200.97272727272727" y1="27.0" x2="200.97272727272727" y2="383.8" stroke="#dddddd" stroke-width="0.5"/><line x1="291.2909090909091" y1="27.0" x2="291.2909090909091" y2="383.8" stroke="#dddddd" stroke-width="0.5"/><line x1="381.6090909090909" y1="27.0" x2="381.6090909090909" y2="383.8" stroke="#dddddd" stroke-width="0.5"/><line x1="471.92727272727274" y1="27.0" x2="471.92727272727274" y2="383.8" stroke="#dddddd" stroke-width="0.5"/><line x1="562.2454545454545" y1="27.0" x2="562.2454545454545" y2="383.8" stroke="#dddddd" stroke-width="0.5"/><line x1="65.49545454545452" y1="27.0" x2="65.49545454545452" y2="383.8" stroke="#dddddd" stroke-width="1.0"/><line x1="155.81363636363636" y1="27.0" x2="155.81363636363636" y2="383.8" stroke="#dddddd" stroke-width="1.0"/><line x1="246.13181818181818" y1="27.0" x2="246.13181818181818" y2="383.8" stroke="#dddddd" stroke-width="1.0"/><line x1="336.45" y1="27.0" x2="336.45" y2="383.8" stroke="#dddddd" stroke-width="1.0"/><line x1="426.7681818181818" y1="27.0" x2="426.7681818181818" y2="383.8" stroke="#dddddd" stroke-width="1.0"/><line x1="517.0863636363637" y1="27.0" x2="517.0863636363637" y2="383.8" stroke="#dddddd" stroke-width="1.0"/><line x1="607.4045454545454" y1="27.0" x2="607.4045454545454" y2="383.8" stroke="#dddddd" stroke-width="1.0"/><line x1="38.4" y1="340.55151515151516" x2="634.5" y2="340.55151515151516" stroke="#dddddd" stroke-width="0.5"/><line x1="38.4" y1="286.4909090909091" x2="634.5" y2="286.4909090909091" stroke="#dddddd" stroke-width="0.5"/><line x1="38.4" y1="232.43030303030304" x2="634.5" y2="232.43030303030304" stroke="#dddddd" stroke-width="0.5"/><line x1="38.4" y1="178.36969696969695" x2="634.5" y2="178.36969696969695" stroke="#dddddd" stroke-width="0.5"/><line x1="38.4" y1="124.30909090909091" x2="634.5" y2="124.30909090909091" stroke="#dddddd" stroke-width="0.5"/><line x1="38.4" y1="70.24848484848485" x2="634.5" y2="70.24848484848485" stroke="#dddddd" stroke-width="0.5"/><line x1="38.4" y1="367.5818181818182" x2="634.5" y2="367.5818181818182" stroke="#dddddd" stroke-width="1.0"/><line x1="38.4" y1="313.5212121212121" x2="634.5" y2="313.5212121212121" stroke="#dddddd" stroke-width="1.0"/><line x1="38.4" y1="259.4606060606061" x2="634.5" y2="259.4606060606061" stroke="#dddddd" stroke-width="1.0"/><line x1="38.4" y1="205.4" x2="634.5" y2="205.4" stroke="#dddddd" stroke-width="1.0"/><line x1="38.4" y1="151.33939393939394" x2="634.5" y2="151.33939393939394" stroke="#dddddd" stroke-width="1.0"/><line x1="38.4" y1="97.27878787878785" x2="634.5" y2="97.27878787878785" stroke="#dddddd" stroke-width="1.0"/><line x1="38.4" y1="43.21818181818179" x2="634.5" y2="43.21818181818179" stroke="#dddddd" stroke-width="1.0"/><rect x="38.4" y="27.0" width="596.1" height="356.8" fill="#ffffff" fill-opacity="0.0" stroke="#444444" stroke-width="1.0"/><line x1="65.49545454545452" y1="383.8" x2="65.49545454545452" y2="386.55" stroke="#444444" stroke-width="1.0"/><text x="65.49545454545452" y="397.55" fill="#333333" font-size="11.0" font-family="sans-serif" text-anchor="middle">-3</text><line x1="155.81363636363636" y1="383.8" x2="155.81363636363636" y2="386.55" stroke="#444444" stroke-width="1.0"/><text x="155.81363636363636" y="397.55" fill="#333333" font-size="11.0" font-family="sans-serif" text-anchor="middle">-2</text><line x1="246.13181818181818" y1="383.8" x2="246.13181818181818" y2="386.55" stroke="#444444" stroke-width="1.0"/><text x="246.13181818181818" y="397.55" fill="#333333" font-size="11.0" font-family="sans-serif" text-anchor="middle">-1</text><line x1="336.45" y1="383.8" x2="336.45" y2="386.55" stroke="#444444" stroke-width="1.0"/><text x="336.45" y="397.55" fill="#333333" font-size="11.0" font-family="sans-serif" text-anchor="middle">0</text><line x1="426.7681818181818" y1="383.8" x2="426.7681818181818" y2="386.55" stroke="#444444" stroke-width="1.0"/><text x="426.7681818181818" y="397.55" fill="#333333" font-size="11.0" font-family="sans-serif" text-anchor="middle">1</text><line x1="517.0863636363637" y1="383.8" x2="517.0863636363637" y2="386.55" stroke="#444444" stroke-width="1.0"/><text x="517.0863636363637" y="397.55" fill="#333333" font-size="11.0" font-family="sans-serif" text-anchor="middle">2</text><line x1="607.4045454545454" y1="383.8" x2="607.4045454545454" y2="386.55" stroke="#444444" stroke-width="1.0"/><text x="607.4045454545454" y="397.55" fill="#333333" font-size="11.0" font-family="sans-serif" text-anchor="middle">3</text><line x1="38.4" y1="367.5818181818182" x2="35.65" y2="367.5818181818182" stroke="#444444" stroke-width="1.0"/><text x="33.449999999999996" y="371.43181818181824" fill="#333333" font-size="11.0" font-family="sans-serif" text-anchor="end">-3</text><line x1="38.4" y1="313.5212121212121" x2="35.65" y2="313.5212121212121" stroke="#444444" stroke-width="1.0"/><text x="33.449999999999996" y="317.3712121212121" fill="#333333" font-size="11.0" font-family="sans-serif" text-anchor="end">-2</text><line x1="38.4" y1="259.4606060606061" x2="35.65" y2="259.4606060606061" stroke="#444444" stroke-width="1.0"/><text x="33.449999999999996" y="263.3106060606061" fill="#333333" font-size="11.0" font-family="sans-serif" text-anchor="end">-1</text><line x1="38.4" y1="205.4" x2="35.65" y2="205.4" stroke="#444444" stroke-width="1.0"/><text x="33.449999999999996" y="209.25" fill="#333333" font-size="11.0" font-family="sans-serif" text-anchor="end">0</text><line x1="38.4" y1="151.33939393939394" x2="35.65" y2="151.33939393939394" stroke="#444444" stroke-width="1.0"/><text x="33.449999999999996" y="155.18939393939394" fill="#333333" font-size="11.0" font-family="sans-serif" text-anchor="end">1</text><line x1="38.4" y1="97.27878787878785" x2="35.65" y2="97.27878787878785" stroke="#444444" stroke-width="1.0"/><text x="33.449999999999996" y="101.12878787878785" fill="#333333" font-size="11.0" font-family="sans-serif" text-anchor="end">2</text><line x1="38.4" y1="43.21818181818179" x2="35.65" y2="43.21818181818179" stroke="#444444" stroke-width="1.0"/><text x="33.449999999999996" y="47.06818181818179" fill="#333333" font-size="11.0" font-family="sans-serif" text-anchor="end">3</text><text x="336.45" y="18.3" fill="#333333" font-size="16.0" font-family="sans-serif" text-anchor="middle">quiver (vector field、 magnitude 連続色)</text><text x="336.45" y="412.1" fill="#333333" font-size="12.0" font-family="sans-serif" text-anchor="middle">x</text><text x="13.899999999999999" y="205.4" fill="#333333" font-size="12.0" font-family="sans-serif" text-anchor="middle" transform="rotate(-90.0 13.899999999999999 205.4)">y</text><line x1="65.49545454545452" y1="367.5818181818182" x2="123.65924166055089" y2="379.186604427228" stroke="#fde725" stroke-width="1.5"/><line x1="123.65924166055089" y1="379.186604427228" x2="113.95271837720193" y2="381.8386613176066" stroke="#fde725" stroke-width="1.5"/><line x1="123.65924166055089" y1="379.186604427228" x2="115.71368217823866" y2="373.012619934776" stroke="#fde725" stroke-width="1.5"/><line x1="65.49545454545452" y1="313.5212121212121" x2="110.73395563497391" y2="328.9942604484252" stroke="#9dd54a" stroke-width="1.5"/><line x1="110.73395563497391" y1="328.9942604484252" x2="100.76197253600944" y2="330.3394567441259" stroke="#9dd54a" stroke-width="1.5"/><line x1="110.73395563497391" y1="328.9942604484252" x2="103.67460873903465" y2="321.8237917466741" stroke="#9dd54a" stroke-width="1.5"/><line x1="65.49545454545452" y1="259.4606060606061" x2="97.80866960939694" y2="278.8019164696224" stroke="#5dc863" stroke-width="1.5"/><line x1="97.80866960939694" y1="278.8019164696224" x2="87.77518883116826" y2="278.0408228663675" stroke="#5dc863" stroke-width="1.5"/><line x1="97.80866960939694" y1="278.8019164696224" x2="92.39745602506366" y2="270.3184756850865" stroke="#5dc863" stroke-width="1.5"/><line x1="65.49545454545452" y1="205.4" x2="84.88338358381998" y2="228.60957249081963" stroke="#54bf69" stroke-width="1.5"/><line x1="84.88338358381998" y1="228.60957249081963" x2="75.65995850317971" y2="224.5873306057739" stroke="#54bf69" stroke-width="1.5"/><line x1="84.88338358381998" y1="228.60957249081963" x2="82.5671220434724" y2="218.81748729528" stroke="#54bf69" stroke-width="1.5"/><line x1="65.49545454545452" y1="151.33939393939394" x2="71.958097558243" y2="178.41722851201686" stroke="#5dc863" stroke-width="1.5"/><line x1="71.958097558243" y1="178.41722851201686" x2="65.49169745803263" y2="170.70777524061043" stroke="#5dc863" stroke-width="1.5"/><line x1="71.958097558243" y1="178.41722851201686" x2="74.24582011524191" y2="168.61843646900473" stroke="#5dc863" stroke-width="1.5"/><line x1="65.49545454545452" y1="97.27878787878785" x2="59.03281153266606" y2="128.224884533214" stroke="#9dd54a" stroke-width="1.5"/><line x1="59.03281153266606" y1="128.224884533214" x2="56.46766975973891" y2="118.49503110755624" stroke="#9dd54a" stroke-width="1.5"/><line x1="59.03281153266606" y1="128.224884533214" x2="65.27760920943598" y2="120.33485905947764" stroke="#9dd54a" stroke-width="1.5"/><line x1="65.49545454545452" y1="43.21818181818179" x2="46.10752550708909" y2="78.0325405544113" stroke="#fde725" stroke-width="1.5"/><line x1="46.10752550708909" y1="78.0325405544113" x2="46.554884567934515" y2="67.98018412068495" stroke="#fde725" stroke-width="1.5"/><line x1="46.10752550708909" y1="78.0325405544113" x2="54.41782609057743" y2="72.35901394285182" stroke="#fde725" stroke-width="1.5"/><line x1="155.81363636363636" y1="367.5818181818182" x2="207.51478046594423" y2="371.4500802636215" stroke="#9dd54a" stroke-width="1.5"/><line x1="207.51478046594423" y1="371.4500802636215" x2="198.204116085453" y2="375.26603739045765" stroke="#9dd54a" stroke-width="1.5"/><line x1="207.51478046594423" y1="371.4500802636215" x2="198.87561613618055" y2="366.2911230353302" stroke="#9dd54a" stroke-width="1.5"/><line x1="155.81363636363636" y1="313.5212121212121" x2="194.58949444036728" y2="321.2577362848187" stroke="#4ab670" stroke-width="1.5"/><line x1="194.58949444036728" y1="321.2577362848187" x2="184.88297115701832" y2="323.90979317519725" stroke="#4ab670" stroke-width="1.5"/><line x1="194.58949444036728" y1="321.2577362848187" x2="186.64393495805504" y2="315.0837517923667" stroke="#4ab670" stroke-width="1.5"/><line x1="155.81363636363636" y1="259.4606060606061" x2="181.6642084147903" y2="271.0653923060159" stroke="#289787" stroke-width="1.5"/><line x1="181.6642084147903" y1="271.0653923060159" x2="171.61064729740175" y2="271.48480720672075" stroke="#289787" stroke-width="1.5"/><line x1="181.6642084147903" y1="271.0653923060159" x2="175.29653982379327" y2="263.274192352528" stroke="#289787" stroke-width="1.5"/><line x1="155.81363636363636" y1="205.4" x2="168.73892238921334" y2="220.8730483272131" stroke="#248a8c" stroke-width="1.5"/><line x1="168.73892238921334" y1="220.8730483272131" x2="159.51549730857306" y2="216.85080644216737" stroke="#248a8c" stroke-width="1.5"/><line x1="168.73892238921334" y1="220.8730483272131" x2="166.42266084886575" y2="211.08096313167346" stroke="#248a8c" stroke-width="1.5"/><line x1="155.81363636363636" y1="151.33939393939394" x2="155.81363636363636" y2="170.6807043484103" stroke="#289787" stroke-width="1.5"/><line x1="155.81363636363636" y1="170.6807043484103" x2="151.31363636363636" y2="161.6807043484103" stroke="#289787" stroke-width="1.5"/><line x1="155.81363636363636" y1="170.6807043484103" x2="160.31363636363636" y2="161.6807043484103" stroke="#289787" stroke-width="1.5"/><line x1="155.81363636363636" y1="97.27878787878785" x2="142.88835033805938" y2="120.4883603696075" stroke="#4ab670" stroke-width="1.5"/><line x1="142.88835033805938" y1="120.4883603696075" x2="143.3357093989048" y2="110.43600393588116" stroke="#4ab670" stroke-width="1.5"/><line x1="142.88835033805938" y1="120.4883603696075" x2="151.19865092154774" y2="114.81483375804805" stroke="#4ab670" stroke-width="1.5"/><line x1="155.81363636363636" y1="43.21818181818179" x2="129.96306431248243" y2="70.29601639080477" stroke="#9dd54a" stroke-width="1.5"/><line x1="129.96306431248243" y1="70.29601639080477" x2="132.9229054287386" y2="60.67887853349402" stroke="#9dd54a" stroke-width="1.5"/><line x1="129.96306431248243" y1="70.29601639080477" x2="139.4326792680847" y2="66.89360656942326" stroke="#9dd54a" stroke-width="1.5"/><line x1="246.13181818181818" y1="367.5818181818182" x2="291.37031927133756" y2="363.71355610001496" stroke="#5dc863" stroke-width="1.5"/><line x1="291.37031927133756" y1="363.71355610001496" x2="282.7864301412631" y2="368.9639701220317" stroke="#5dc863" stroke-width="1.5"/><line x1="291.37031927133756" y1="363.71355610001496" x2="282.01965457567957" y2="359.9966932091654" stroke="#5dc863" stroke-width="1.5"/><line x1="246.13181818181818" y1="313.5212121212121" x2="278.4450332457606" y2="313.5212121212121" stroke="#289787" stroke-width="1.5"/><line x1="278.4450332457606" y1="313.5212121212121" x2="269.4450332457606" y2="318.0212121212121" stroke="#289787" stroke-width="1.5"/><line x1="278.4450332457606" y1="313.5212121212121" x2="269.4450332457606" y2="309.0212121212121" stroke="#289787" stroke-width="1.5"/><line x1="246.13181818181818" y1="259.4606060606061" x2="265.5197472201836" y2="263.3288681424093" stroke="#32678b" stroke-width="1.5"/><line x1="265.5197472201836" y1="263.3288681424093" x2="255.81322393683465" y2="265.9809250327879" stroke="#32678b" stroke-width="1.5"/><line x1="265.5197472201836" y1="263.3288681424093" x2="257.57418773787134" y2="257.15488364995736" stroke="#32678b" stroke-width="1.5"/><line x1="246.13181818181818" y1="205.4" x2="252.59446119460668" y2="213.13652416360657" stroke="#3c4d88" stroke-width="1.5"/><line x1="252.59446119460668" y1="213.13652416360657" x2="243.3710361139664" y2="209.11428227856084" stroke="#3c4d88" stroke-width="1.5"/><line x1="252.59446119460668" y1="213.13652416360657" x2="250.27819965425908" y2="203.34443896806692" stroke="#3c4d88" stroke-width="1.5"/><line x1="246.13181818181818" y1="151.33939393939394" x2="239.66917516902973" y2="162.9441801848038" stroke="#32678b" stroke-width="1.5"/><line x1="239.66917516902973" y1="162.9441801848038" x2="240.11653422987513" y2="152.89182375107745" stroke="#32678b" stroke-width="1.5"/><line x1="239.66917516902973" y1="162.9441801848038" x2="247.97947575251806" y2="157.2706535732443" stroke="#32678b" stroke-width="1.5"/><line x1="246.13181818181818" y1="97.27878787878785" x2="226.74388914345275" y2="112.75183620600097" stroke="#289787" stroke-width="1.5"/><line x1="226.74388914345275" y1="112.75183620600097" x2="230.97130400039805" y2="103.62062798215248" stroke="#289787" stroke-width="1.5"/><line x1="226.74388914345275" y1="112.75183620600097" x2="236.5853046366987" y2="110.65504315724812" stroke="#289787" stroke-width="1.5"/><line x1="246.13181818181818" y1="43.21818181818179" x2="213.81860311787577" y2="62.55949222719818" stroke="#5dc863" stroke-width="1.5"/><line x1="213.81860311787577" y1="62.55949222719818" x2="219.22981670220904" y2="54.076051442662276" stroke="#5dc863" stroke-width="1.5"/><line x1="213.81860311787577" y1="62.55949222719818" x2="223.85208389610446" y2="61.79839862394326" stroke="#5dc863" stroke-width="1.5"/><line x1="336.45" y1="367.5818181818182" x2="375.2258580767309" y2="355.97703193640837" stroke="#54bf69" stroke-width="1.5"/><line x1="375.2258580767309" y1="355.97703193640837" x2="367.893923732047" y2="362.8685295069837" stroke="#54bf69" stroke-width="1.5"/><line x1="375.2258580767309" y1="355.97703193640837" x2="365.31349941346036" y2="354.2463830030065" stroke="#54bf69" stroke-width="1.5"/><line x1="336.45" y1="313.5212121212121" x2="362.30057205115395" y2="305.78468795760557" stroke="#248a8c" stroke-width="1.5"/><line x1="362.30057205115395" y1="305.78468795760557" x2="354.9686377064701" y2="312.6761855281809" stroke="#248a8c" stroke-width="1.5"/><line x1="362.30057205115395" y1="305.78468795760557" x2="352.3882133878834" y2="304.0540390242037" stroke="#248a8c" stroke-width="1.5"/><line x1="336.45" y1="259.4606060606061" x2="349.375286025577" y2="255.5923439788028" stroke="#3c4d88" stroke-width="1.5"/><line x1="349.375286025577" y1="255.5923439788028" x2="342.0433516808931" y2="262.4838415493781" stroke="#3c4d88" stroke-width="1.5"/><line x1="349.375286025577" y1="255.5923439788028" x2="339.46292736230646" y2="253.8616950454009" stroke="#3c4d88" stroke-width="1.5"/><line x1="336.45" y1="151.33939393939394" x2="323.524713974423" y2="155.20765602119718" stroke="#3c4d88" stroke-width="1.5"/><line x1="323.524713974423" y1="155.20765602119718" x2="330.85664831910685" y2="148.3161584506219" stroke="#3c4d88" stroke-width="1.5"/><line x1="323.524713974423" y1="155.20765602119718" x2="333.4370726376935" y2="156.93830495459912" stroke="#3c4d88" stroke-width="1.5"/><line x1="336.45" y1="97.27878787878785" x2="310.599427948846" y2="105.01531204239444" stroke="#248a8c" stroke-width="1.5"/><line x1="310.599427948846" y1="105.01531204239444" x2="317.9313622935299" y2="98.12381447181913" stroke="#248a8c" stroke-width="1.5"/><line x1="310.599427948846" y1="105.01531204239444" x2="320.51178661211657" y2="106.74596097579634" stroke="#248a8c" stroke-width="1.5"/><line x1="336.45" y1="43.21818181818179" x2="297.67414192326913" y2="54.82296806359159" stroke="#54bf69" stroke-width="1.5"/><line x1="297.67414192326913" y1="54.82296806359159" x2="305.006076267953" y2="47.931470493016285" stroke="#54bf69" stroke-width="1.5"/><line x1="297.67414192326913" y1="54.82296806359159" x2="307.58650058653967" y2="56.55361699699349" stroke="#54bf69" stroke-width="1.5"/><line x1="426.7681818181818" y1="367.5818181818182" x2="459.0813968821242" y2="348.24050777280183" stroke="#5dc863" stroke-width="1.5"/><line x1="459.0813968821242" y1="348.24050777280183" x2="453.6701832977909" y2="356.72394855733774" stroke="#5dc863" stroke-width="1.5"/><line x1="459.0813968821242" y1="348.24050777280183" x2="449.04791610389555" y2="349.0016013760568" stroke="#5dc863" stroke-width="1.5"/><line x1="426.7681818181818" y1="313.5212121212121" x2="446.15611085654723" y2="298.04816379399904" stroke="#289787" stroke-width="1.5"/><line x1="446.15611085654723" y1="298.04816379399904" x2="441.9286959996019" y2="307.1793720178475" stroke="#289787" stroke-width="1.5"/><line x1="446.15611085654723" y1="298.04816379399904" x2="436.3146953633012" y2="300.14495684275187" stroke="#289787" stroke-width="1.5"/><line x1="426.7681818181818" y1="259.4606060606061" x2="433.2308248309703" y2="247.85581981519627" stroke="#32678b" stroke-width="1.5"/><line x1="433.2308248309703" y1="247.85581981519627" x2="432.78346577012485" y2="257.9081762489226" stroke="#32678b" stroke-width="1.5"/><line x1="433.2308248309703" y1="247.85581981519627" x2="424.9205242474819" y2="253.52934642675572" stroke="#32678b" stroke-width="1.5"/><line x1="426.7681818181818" y1="205.4" x2="420.3055388053934" y2="197.66347583639345" stroke="#3c4d88" stroke-width="1.5"/><line x1="420.3055388053934" y1="197.66347583639345" x2="429.52896388603364" y2="201.6857177214392" stroke="#3c4d88" stroke-width="1.5"/><line x1="420.3055388053934" y1="197.66347583639345" x2="422.62180034574095" y2="207.45556103193312" stroke="#3c4d88" stroke-width="1.5"/><line x1="426.7681818181818" y1="151.33939393939394" x2="407.3802527798163" y2="147.47113185759068" stroke="#32678b" stroke-width="1.5"/><line x1="407.3802527798163" y1="147.47113185759068" x2="417.0867760631653" y2="144.8190749672121" stroke="#32678b" stroke-width="1.5"/><line x1="407.3802527798163" y1="147.47113185759068" x2="415.3258122621286" y2="153.6451163500427" stroke="#32678b" stroke-width="1.5"/><line x1="426.7681818181818" y1="97.27878787878785" x2="394.45496675423936" y2="97.27878787878785" stroke="#289787" stroke-width="1.5"/><line x1="394.45496675423936" y1="97.27878787878785" x2="403.45496675423936" y2="92.77878787878785" stroke="#289787" stroke-width="1.5"/><line x1="394.45496675423936" y1="97.27878787878785" x2="403.45496675423936" y2="101.77878787878785" stroke="#289787" stroke-width="1.5"/><line x1="426.7681818181818" y1="43.21818181818179" x2="381.5296807286624" y2="47.086443899985056" stroke="#5dc863" stroke-width="1.5"/><line x1="381.5296807286624" y1="47.086443899985056" x2="390.11356985873687" y2="41.83602987796834" stroke="#5dc863" stroke-width="1.5"/><line x1="381.5296807286624" y1="47.086443899985056" x2="390.8803454243204" y2="50.80330679083458" stroke="#5dc863" stroke-width="1.5"/><line x1="517.0863636363637" y1="367.5818181818182" x2="542.9369356875176" y2="340.5039836091953" stroke="#9dd54a" stroke-width="1.5"/><line x1="542.9369356875176" y1="340.5039836091953" x2="539.9770945712613" y2="350.12112146650605" stroke="#9dd54a" stroke-width="1.5"/><line x1="542.9369356875176" y1="340.5039836091953" x2="533.4673207319153" y2="343.90639343057677" stroke="#9dd54a" stroke-width="1.5"/><line x1="517.0863636363637" y1="313.5212121212121" x2="530.0116496619407" y2="290.3116396303925" stroke="#4ab670" stroke-width="1.5"/><line x1="530.0116496619407" y1="290.3116396303925" x2="529.5642906010952" y2="300.36399606411885" stroke="#4ab670" stroke-width="1.5"/><line x1="530.0116496619407" y1="290.3116396303925" x2="521.7013490784524" y2="295.9851662419519" stroke="#4ab670" stroke-width="1.5"/><line x1="517.0863636363637" y1="259.4606060606061" x2="517.0863636363637" y2="240.1192956515897" stroke="#289787" stroke-width="1.5"/><line x1="517.0863636363637" y1="240.1192956515897" x2="521.5863636363637" y2="249.1192956515897" stroke="#289787" stroke-width="1.5"/><line x1="517.0863636363637" y1="240.1192956515897" x2="512.5863636363637" y2="249.1192956515897" stroke="#289787" stroke-width="1.5"/><line x1="517.0863636363637" y1="205.4" x2="504.1610776107866" y2="189.92695167278688" stroke="#248a8c" stroke-width="1.5"/><line x1="504.1610776107866" y1="189.92695167278688" x2="513.3845026914269" y2="193.94919355783256" stroke="#248a8c" stroke-width="1.5"/><line x1="504.1610776107866" y1="189.92695167278688" x2="506.47733915113423" y2="199.71903686832653" stroke="#248a8c" stroke-width="1.5"/><line x1="517.0863636363637" y1="151.33939393939394" x2="491.2357915852097" y2="139.73460769398415" stroke="#289787" stroke-width="1.5"/><line x1="491.2357915852097" y1="139.73460769398415" x2="501.28935270259825" y2="139.31519279327927" stroke="#289787" stroke-width="1.5"/><line x1="491.2357915852097" y1="139.73460769398415" x2="497.60346017620674" y2="147.52580764747205" stroke="#289787" stroke-width="1.5"/><line x1="517.0863636363637" y1="97.27878787878785" x2="478.31050555963276" y2="89.54226371518132" stroke="#4ab670" stroke-width="1.5"/><line x1="478.31050555963276" y1="89.54226371518132" x2="488.01702884298174" y2="86.89020682480273" stroke="#4ab670" stroke-width="1.5"/><line x1="478.31050555963276" y1="89.54226371518132" x2="486.256065041945" y2="95.71624820763333" stroke="#4ab670" stroke-width="1.5"/><line x1="517.0863636363637" y1="43.21818181818179" x2="465.38521953405586" y2="39.34991973637858" stroke="#9dd54a" stroke-width="1.5"/><line x1="465.38521953405586" y1="39.34991973637858" x2="474.6958839145471" y2="35.53396260954237" stroke="#9dd54a" stroke-width="1.5"/><line x1="465.38521953405586" y1="39.34991973637858" x2="474.02438386381954" y2="44.50887696466984" stroke="#9dd54a" stroke-width="1.5"/><line x1="607.4045454545454" y1="367.5818181818182" x2="626.7924744929109" y2="332.76745944558877" stroke="#fde725" stroke-width="1.5"/><line x1="626.7924744929109" y1="332.76745944558877" x2="626.3451154320654" y2="342.8198158793151" stroke="#fde725" stroke-width="1.5"/><line x1="626.7924744929109" y1="332.76745944558877" x2="618.4821739094226" y2="338.4409860571483" stroke="#fde725" stroke-width="1.5"/><line x1="607.4045454545454" y1="313.5212121212121" x2="613.8671884673339" y2="282.575115466786" stroke="#9dd54a" stroke-width="1.5"/><line x1="613.8671884673339" y1="282.575115466786" x2="616.4323302402611" y2="292.30496889244375" stroke="#9dd54a" stroke-width="1.5"/><line x1="613.8671884673339" y1="282.575115466786" x2="607.6223907905639" y2="290.46514094052236" stroke="#9dd54a" stroke-width="1.5"/><line x1="607.4045454545454" y1="259.4606060606061" x2="600.941902441757" y2="232.38277148798318" stroke="#5dc863" stroke-width="1.5"/><line x1="600.941902441757" y1="232.38277148798318" x2="607.4083025419674" y2="240.0922247593896" stroke="#5dc863" stroke-width="1.5"/><line x1="600.941902441757" y1="232.38277148798318" x2="598.654179884758" y2="242.1815635309953" stroke="#5dc863" stroke-width="1.5"/><line x1="607.4045454545454" y1="205.4" x2="588.0166164161801" y2="182.19042750918038" stroke="#54bf69" stroke-width="1.5"/><line x1="588.0166164161801" y1="182.19042750918038" x2="597.2400414968204" y2="186.2126693942261" stroke="#54bf69" stroke-width="1.5"/><line x1="588.0166164161801" y1="182.19042750918038" x2="590.3328779565277" y2="191.98251270472002" stroke="#54bf69" stroke-width="1.5"/><line x1="607.4045454545454" y1="151.33939393939394" x2="575.091330390603" y2="131.99808353037758" stroke="#5dc863" stroke-width="1.5"/><line x1="575.091330390603" y1="131.99808353037758" x2="585.1248111688317" y2="132.75917713363253" stroke="#5dc863" stroke-width="1.5"/><line x1="575.091330390603" y1="131.99808353037758" x2="580.5025439749363" y2="140.4815243149135" stroke="#5dc863" stroke-width="1.5"/><line x1="607.4045454545454" y1="97.27878787878785" x2="562.166044365026" y2="81.80573955157479" stroke="#9dd54a" stroke-width="1.5"/><line x1="562.166044365026" y1="81.80573955157479" x2="572.1380274639904" y2="80.46054325587406" stroke="#9dd54a" stroke-width="1.5"/><line x1="562.166044365026" y1="81.80573955157479" x2="569.2253912609652" y2="88.97620825332592" stroke="#9dd54a" stroke-width="1.5"/><line x1="607.4045454545454" y1="43.21818181818179" x2="549.2407583394491" y2="31.613395572771992" stroke="#fde725" stroke-width="1.5"/><line x1="549.2407583394491" y1="31.613395572771992" x2="558.9472816227981" y2="28.961338682393407" stroke="#fde725" stroke-width="1.5"/><line x1="549.2407583394491" y1="31.613395572771992" x2="557.1863178217613" y2="37.787380065224006" stroke="#fde725" stroke-width="1.5"/></svg>