<svg xmlns="http://www.w3.org/2000/svg" width="640" height="420" viewBox="0 0 640 420"><rect x="0.0" y="0.0" width="640.0" height="420.0" fill="#ffffff" fill-opacity="1.0" stroke="none"/><line x1="145.85927666666663" y1="32.266666666666666" x2="145.85927666666663" y2="394.3333333333333" stroke="#dddddd" stroke-width="1.3333333333333333"/><line x1="311.71362666666664" y1="32.266666666666666" x2="311.71362666666664" y2="394.3333333333333" stroke="#dddddd" stroke-width="1.3333333333333333"/><line x1="477.5679766666666" y1="32.266666666666666" x2="477.5679766666666" y2="394.3333333333333" stroke="#dddddd" stroke-width="1.3333333333333333"/><line x1="46.346666666666664" y1="350.4464646464647" x2="577.0805866666666" y2="350.4464646464647" stroke="#dddddd" stroke-width="0.6666666666666666"/><line x1="46.346666666666664" y1="295.58787878787876" x2="577.0805866666666" y2="295.58787878787876" stroke="#dddddd" stroke-width="0.6666666666666666"/><line x1="46.346666666666664" y1="240.72929292929294" x2="577.0805866666666" y2="240.72929292929294" stroke="#dddddd" stroke-width="0.6666666666666666"/><line x1="46.346666666666664" y1="185.87070707070706" x2="577.0805866666666" y2="185.87070707070706" stroke="#dddddd" stroke-width="0.6666666666666666"/><line x1="46.346666666666664" y1="131.01212121212123" x2="577.0805866666666" y2="131.01212121212123" stroke="#dddddd" stroke-width="0.6666666666666666"/><line x1="46.346666666666664" y1="76.15353535353536" x2="577.0805866666666" y2="76.15353535353536" stroke="#dddddd" stroke-width="0.6666666666666666"/><line x1="46.346666666666664" y1="377.8757575757576" x2="577.0805866666666" y2="377.8757575757576" stroke="#dddddd" stroke-width="1.3333333333333333"/><line x1="46.346666666666664" y1="323.0171717171717" x2="577.0805866666666" y2="323.0171717171717" stroke="#dddddd" stroke-width="1.3333333333333333"/><line x1="46.346666666666664" y1="268.15858585858587" x2="577.0805866666666" y2="268.15858585858587" stroke="#dddddd" stroke-width="1.3333333333333333"/><line x1="46.346666666666664" y1="213.3" x2="577.0805866666666" y2="213.3" stroke="#dddddd" stroke-width="1.3333333333333333"/><line x1="46.346666666666664" y1="158.44141414141419" x2="577.0805866666666" y2="158.44141414141419" stroke="#dddddd" stroke-width="1.3333333333333333"/><line x1="46.346666666666664" y1="103.58282828282827" x2="577.0805866666666" y2="103.58282828282827" stroke="#dddddd" stroke-width="1.3333333333333333"/><line x1="46.346666666666664" y1="48.72424242424245" x2="577.0805866666666" y2="48.72424242424245" stroke="#dddddd" stroke-width="1.3333333333333333"/><rect x="46.346666666666664" y="32.266666666666666" width="530.7339199999999" height="362.06666666666666" fill="#ffffff" fill-opacity="0.0" stroke="#444444" stroke-width="1.3333333333333333"/><line x1="145.85927666666663" y1="394.3333333333333" x2="145.85927666666663" y2="398.0" stroke="#444444" stroke-width="1.3333333333333333"/><text x="145.85927666666663" y="410.32" fill="#333333" font-size="11.733333333333334" font-family="sans-serif" text-anchor="middle">a</text><line x1="311.71362666666664" y1="394.3333333333333" x2="311.71362666666664" y2="398.0" stroke="#444444" stroke-width="1.3333333333333333"/><text x="311.71362666666664" y="410.32" fill="#333333" font-size="11.733333333333334" font-family="sans-serif" text-anchor="middle">b</text><line x1="477.5679766666666" y1="394.3333333333333" x2="477.5679766666666" y2="398.0" stroke="#444444" stroke-width="1.3333333333333333"/><text x="477.5679766666666" y="410.32" fill="#333333" font-size="11.733333333333334" font-family="sans-serif" text-anchor="middle">c</text><line x1="46.346666666666664" y1="377.8757575757576" x2="42.67999999999999" y2="377.8757575757576" stroke="#444444" stroke-width="1.3333333333333333"/><text x="39.74666666666666" y="381.98242424242426" fill="#333333" font-size="11.733333333333334" font-family="sans-serif" text-anchor="end">4</text><line x1="46.346666666666664" y1="323.0171717171717" x2="42.67999999999999" y2="323.0171717171717" stroke="#444444" stroke-width="1.3333333333333333"/><text x="39.74666666666666" y="327.1238383838384" fill="#333333" font-size="11.733333333333334" font-family="sans-serif" text-anchor="end">5</text><line x1="46.346666666666664" y1="268.15858585858587" x2="42.67999999999999" y2="268.15858585858587" stroke="#444444" stroke-width="1.3333333333333333"/><text x="39.74666666666666" y="272.26525252525255" fill="#333333" font-size="11.733333333333334" font-family="sans-serif" text-anchor="end">6</text><line x1="46.346666666666664" y1="213.3" x2="42.67999999999999" y2="213.3" stroke="#444444" stroke-width="1.3333333333333333"/><text x="39.74666666666666" y="217.4066666666667" fill="#333333" font-size="11.733333333333334" font-family="sans-serif" text-anchor="end">7</text><line x1="46.346666666666664" y1="158.44141414141419" x2="42.67999999999999" y2="158.44141414141419" stroke="#444444" stroke-width="1.3333333333333333"/><text x="39.74666666666666" y="162.54808080808084" fill="#333333" font-size="11.733333333333334" font-family="sans-serif" text-anchor="end">8</text><line x1="46.346666666666664" y1="103.58282828282827" x2="42.67999999999999" y2="103.58282828282827" stroke="#444444" stroke-width="1.3333333333333333"/><text x="39.74666666666666" y="107.68949494949494" fill="#333333" font-size="11.733333333333334" font-family="sans-serif" text-anchor="end">9</text><line x1="46.346666666666664" y1="48.72424242424245" x2="42.67999999999999" y2="48.72424242424245" stroke="#444444" stroke-width="1.3333333333333333"/><text x="39.74666666666666" y="52.83090909090911" fill="#333333" font-size="11.733333333333334" font-family="sans-serif" text-anchor="end">10</text><text x="46.346666666666664" y="21.413333333333334" fill="#333333" font-size="17.599999999999998" font-family="sans-serif" text-anchor="start">raincloud (violin + box + strip)</text><text x="17.599999999999998" y="213.29999999999998" fill="#333333" font-size="14.666666666666666" font-family="sans-serif" text-anchor="middle" transform="rotate(-90.0 17.599999999999998 213.29999999999998)">value</text><path d="M 193.2187663978612 377.8757575757576 L 194.8480857421127 372.389898989899 L 196.40541443291102 366.9040404040404 L 197.86656900064622 361.4181818181818 L 199.20850641027883 355.9323232323232 L 200.4100831464578 350.4464646464647 L 201.4528257625465 344.9606060606061 L 202.321669750654 339.47474747474746 L 203.0056138043325 333.9888888888889 L 203.49823173759165 328.5030303030303 L 203.79798634175745 323.0171717171717 L 203.90829916666667 317.53131313131314 L 203.83734724114555 312.0454545454545 L 203.59758050170458 306.559595959596 L 203.2049795682132 301.07373737373734 L 202.6780992790679 295.58787878787876 L 202.03696577414848 290.1020202020202 L 201.30191101336754 284.6161616161616 L 200.4924364063657 279.130303030303 L 199.62619576863068 273.64444444444445 L 198.71817733881005 268.15858585858587 L 197.78014636890396 262.6727272727273 L 196.82038591321762 257.18686868686865 L 195.84374645693833 251.70101010101007 L 194.85198766116787 246.21515151515155 L 193.84437034732244 240.72929292929294 L 192.81843613524865 235.24343434343433 L 191.7708976136526 229.75757575757575 L 190.6985546825294 224.27171717171714 L 189.59915323341056 218.7858585858586 L 188.47211041710364 213.3 L 170.73742916666666 213.3 L 170.73742916666666 218.7858585858586 L 170.73742916666666 224.27171717171714 L 170.73742916666666 229.75757575757575 L 170.73742916666666 235.24343434343433 L 170.73742916666666 240.72929292929294 L 170.73742916666666 246.21515151515155 L 170.73742916666666 251.70101010101007 L 170.73742916666666 257.18686868686865 L 170.73742916666666 262.6727272727273 L 170.73742916666666 268.15858585858587 L 170.73742916666666 273.64444444444445 L 170.73742916666666 279.130303030303 L 170.73742916666666 284.6161616161616 L 170.73742916666666 290.1020202020202 L 170.73742916666666 295.58787878787876 L 170.73742916666666 301.07373737373734 L 170.73742916666666 306.559595959596 L 170.73742916666666 312.0454545454545 L 170.73742916666666 317.53131313131314 L 170.73742916666666 323.0171717171717 L 170.73742916666666 328.5030303030303 L 170.73742916666666 333.9888888888889 L 170.73742916666666 339.47474747474746 L 170.73742916666666 344.9606060606061 L 170.73742916666666 350.4464646464647 L 170.73742916666666 355.9323232323232 L 170.73742916666666 361.4181818181818 L 170.73742916666666 366.9040404040404 L 170.73742916666666 372.389898989899 L 170.73742916666666 377.8757575757576 Z" fill="#F8766D" fill-opacity="0.5" stroke="#F8766D" stroke-width="1.3333333333333333"/><path d="M 354.3264604171036 213.3 L 355.4535032334105 207.81414141414146 L 356.55290468252934 202.32828282828282 L 357.6252476136526 196.84242424242427 L 358.67278613524866 191.35656565656566 L 359.69872034732236 185.87070707070706 L 360.7063376611678 180.3848484848485 L 361.6980964569383 174.8989898989899 L 362.6747359132176 169.41313131313134 L 363.6344963689039 163.9272727272727 L 364.57252733881006 158.44141414141419 L 365.4805457686307 152.95555555555558 L 366.3467864063657 147.46969696969703 L 367.1562610133676 141.98383838383836 L 367.89131577414844 136.49797979797978 L 368.53244927906786 131.01212121212123 L 369.0593295682132 125.52626262626264 L 369.45193050170457 120.04040404040411 L 369.69169724114556 114.55454545454543 L 369.7626491666666 109.06868686868688 L 369.6523363417574 103.58282828282827 L 369.35258173759166 98.09696969696975 L 368.8599638043325 92.61111111111116 L 368.17601975065395 87.12525252525248 L 367.3071757625465 81.63939393939393 L 366.2644331464578 76.15353535353536 L 365.0628564102788 70.6676767676768 L 363.7209190006462 65.18181818181824 L 362.25976443291097 59.69595959595961 L 360.7024357421127 54.210101010101006 L 359.0731163978612 48.72424242424245 L 336.59177916666664 48.72424242424245 L 336.59177916666664 54.210101010101006 L 336.59177916666664 59.69595959595961 L 336.59177916666664 65.18181818181824 L 336.59177916666664 70.6676767676768 L 336.59177916666664 76.15353535353536 L 336.59177916666664 81.63939393939393 L 336.59177916666664 87.12525252525248 L 336.59177916666664 92.61111111111116 L 336.59177916666664 98.09696969696975 L 336.59177916666664 103.58282828282827 L 336.59177916666664 109.06868686868688 L 336.59177916666664 114.55454545454543 L 336.59177916666664 120.04040404040411 L 336.59177916666664 125.52626262626264 L 336.59177916666664 131.01212121212123 L 336.59177916666664 136.49797979797978 L 336.59177916666664 141.98383838383836 L 336.59177916666664 147.46969696969703 L 336.59177916666664 152.95555555555558 L 336.59177916666664 158.44141414141419 L 336.59177916666664 163.9272727272727 L 336.59177916666664 169.41313131313134 L 336.59177916666664 174.8989898989899 L 336.59177916666664 180.3848484848485 L 336.59177916666664 185.87070707070706 L 336.59177916666664 191.35656565656566 L 336.59177916666664 196.84242424242427 L 336.59177916666664 202.32828282828282 L 336.59177916666664 207.81414141414146 L 336.59177916666664 213.3 Z" fill="#00BA38" fill-opacity="0.5" stroke="#00BA38" stroke-width="1.3333333333333333"/><path d="M 524.9274663978612 323.0171717171717 L 526.5567857421127 317.53131313131314 L 528.1141144329109 312.0454545454545 L 529.5752690006461 306.559595959596 L 530.9172064102788 301.07373737373734 L 532.1187831464578 295.58787878787876 L 533.1615257625465 290.1020202020202 L 534.0303697506539 284.6161616161616 L 534.7143138043325 279.130303030303 L 535.2069317375916 273.64444444444445 L 535.5066863417574 268.15858585858587 L 535.6169991666666 262.6727272727273 L 535.5460472411455 257.18686868686865 L 535.3062805017046 251.70101010101013 L 534.9136795682132 246.21515151515155 L 534.3867992790679 240.72929292929294 L 533.7456657741484 235.24343434343433 L 533.0106110133675 229.75757575757575 L 532.2011364063657 224.27171717171717 L 531.3348957686306 218.7858585858586 L 530.4268773388101 213.3 L 529.4888463689039 207.81414141414146 L 528.5290859132176 202.32828282828282 L 527.5524464569382 196.8424242424242 L 526.5606876611678 191.35656565656566 L 525.5530703473223 185.87070707070706 L 524.5271361352486 180.3848484848485 L 523.4795976136526 174.8989898989899 L 522.4072546825294 169.41313131313132 L 521.3078532334105 163.9272727272727 L 520.1808104171035 158.44141414141419 L 502.44612916666665 158.44141414141419 L 502.44612916666665 163.9272727272727 L 502.44612916666665 169.41313131313132 L 502.44612916666665 174.8989898989899 L 502.44612916666665 180.3848484848485 L 502.44612916666665 185.87070707070706 L 502.44612916666665 191.35656565656566 L 502.44612916666665 196.8424242424242 L 502.44612916666665 202.32828282828282 L 502.44612916666665 207.81414141414146 L 502.44612916666665 213.3 L 502.44612916666665 218.7858585858586 L 502.44612916666665 224.27171717171717 L 502.44612916666665 229.75757575757575 L 502.44612916666665 235.24343434343433 L 502.44612916666665 240.72929292929294 L 502.44612916666665 246.21515151515155 L 502.44612916666665 251.70101010101013 L 502.44612916666665 257.18686868686865 L 502.44612916666665 262.6727272727273 L 502.44612916666665 268.15858585858587 L 502.44612916666665 273.64444444444445 L 502.44612916666665 279.130303030303 L 502.44612916666665 284.6161616161616 L 502.44612916666665 290.1020202020202 L 502.44612916666665 295.58787878787876 L 502.44612916666665 301.07373737373734 L 502.44612916666665 306.559595959596 L 502.44612916666665 312.0454545454545 L 502.44612916666665 317.53131313131314 L 502.44612916666665 323.0171717171717 Z" fill="#619CFF" fill-opacity="0.5" stroke="#619CFF" stroke-width="1.3333333333333333"/><rect x="137.56655916666665" y="268.15858585858587" width="16.585434999999997" height="54.85858585858587" fill="#F8766D" fill-opacity="1.0" stroke="#333333" stroke-width="1.3333333333333333"/><line x1="137.56655916666665" y1="323.0171717171717" x2="154.15199416666664" y2="323.0171717171717" stroke="#333333" stroke-width="2.6666666666666665"/><line x1="145.85927666666663" y1="323.0171717171717" x2="145.85927666666663" y2="377.8757575757576" stroke="#333333" stroke-width="1.3333333333333333"/><line x1="145.85927666666663" y1="268.15858585858587" x2="145.85927666666663" y2="213.3" stroke="#333333" stroke-width="1.3333333333333333"/><line x1="141.71291791666664" y1="377.8757575757576" x2="150.00563541666662" y2="377.8757575757576" stroke="#333333" stroke-width="1.3333333333333333"/><line x1="141.71291791666664" y1="213.3" x2="150.00563541666662" y2="213.3" stroke="#333333" stroke-width="1.3333333333333333"/><rect x="303.42090916666666" y="103.58282828282827" width="16.585434999999997" height="54.85858585858591" fill="#00BA38" fill-opacity="1.0" stroke="#333333" stroke-width="1.3333333333333333"/><line x1="303.42090916666666" y1="103.58282828282827" x2="320.0063441666666" y2="103.58282828282827" stroke="#333333" stroke-width="2.6666666666666665"/><line x1="311.71362666666664" y1="158.44141414141419" x2="311.71362666666664" y2="213.3" stroke="#333333" stroke-width="1.3333333333333333"/><line x1="311.71362666666664" y1="103.58282828282827" x2="311.71362666666664" y2="48.72424242424245" stroke="#333333" stroke-width="1.3333333333333333"/><line x1="307.56726791666665" y1="213.3" x2="315.85998541666663" y2="213.3" stroke="#333333" stroke-width="1.3333333333333333"/><line x1="307.56726791666665" y1="48.72424242424245" x2="315.85998541666663" y2="48.72424242424245" stroke="#333333" stroke-width="1.3333333333333333"/><rect x="469.2752591666666" y="213.3" width="16.585434999999997" height="54.85858585858583" fill="#619CFF" fill-opacity="1.0" stroke="#333333" stroke-width="1.3333333333333333"/><line x1="469.2752591666666" y1="268.15858585858587" x2="485.8606941666666" y2="268.15858585858587" stroke="#333333" stroke-width="2.6666666666666665"/><line x1="477.5679766666666" y1="268.15858585858587" x2="477.5679766666666" y2="323.0171717171717" stroke="#333333" stroke-width="1.3333333333333333"/><line x1="477.5679766666666" y1="213.3" x2="477.5679766666666" y2="158.44141414141419" stroke="#333333" stroke-width="1.3333333333333333"/><line x1="473.4216179166666" y1="323.0171717171717" x2="481.7143354166666" y2="323.0171717171717" stroke="#333333" stroke-width="1.3333333333333333"/><line x1="473.4216179166666" y1="158.44141414141419" x2="481.7143354166666" y2="158.44141414141419" stroke="#333333" stroke-width="1.3333333333333333"/><circle cx="89.46879766666666" cy="377.8757575757576" r="2.362204724409449" fill="#F8766D" fill-opacity="0.7" stroke="none"/><circle cx="104.61553993132709" cy="323.0171717171717" r="2.362204724409449" fill="#F8766D" fill-opacity="0.7" stroke="none"/><circle cx="112.44108402437288" cy="268.15858585858587" r="2.362204724409449" fill="#F8766D" fill-opacity="0.7" stroke="none"/><circle cx="113.27111752004785" cy="323.0171717171717" r="2.362204724409449" fill="#F8766D" fill-opacity="0.7" stroke="none"/><circle cx="100.19586338378409" cy="213.3" r="2.362204724409449" fill="#F8766D" fill-opacity="0.7" stroke="none"/><circle cx="279.63488962372526" cy="158.44141414141419" r="2.362204724409449" fill="#00BA38" fill-opacity="0.7" stroke="none"/><circle cx="270.91249362624916" cy="103.58282828282827" r="2.362204724409449" fill="#00BA38" fill-opacity="0.7" stroke="none"/><circle cx="263.7191772969377" cy="213.3" r="2.362204724409449" fill="#00BA38" fill-opacity="0.7" stroke="none"/><circle cx="268.8691173515965" cy="48.72424242424245" r="2.362204724409449" fill="#00BA38" fill-opacity="0.7" stroke="none"/><circle cx="274.2872166554752" cy="103.58282828282827" r="2.362204724409449" fill="#00BA38" fill-opacity="0.7" stroke="none"/><circle cx="439.1268538781193" cy="323.0171717171717" r="2.362204724409449" fill="#619CFF" fill-opacity="0.7" stroke="none"/><circle cx="447.217405157179" cy="268.15858585858587" r="2.362204724409449" fill="#619CFF" fill-opacity="0.7" stroke="none"/><circle cx="434.9991904098522" cy="213.3" r="2.362204724409449" fill="#619CFF" fill-opacity="0.7" stroke="none"/><circle cx="447.0693928180838" cy="268.15858585858587" r="2.362204724409449" fill="#619CFF" fill-opacity="0.7" stroke="none"/><circle cx="431.20783342916786" cy="158.44141414141419" r="2.362204724409449" fill="#619CFF" fill-opacity="0.7" stroke="none"/><rect x="591.7472533333332" y="178.62888" width="23.114079999999994" height="69.34223999999998" fill="#ffffff" fill-opacity="1.0" stroke="none"/><rect x="592.692135223097" y="179.57376188976377" width="21.224316220472435" height="21.224316220472435" fill="#F8766D" fill-opacity="1.0" stroke="none"/><text x="618.5279999999999" y="193.94058666666666" fill="#333333" font-size="11.733333333333334" font-family="sans-serif" text-anchor="start">a</text><rect x="592.692135223097" y="202.68784188976375" width="21.224316220472435" height="21.224316220472435" fill="#00BA38" fill-opacity="1.0" stroke="none"/><text x="618.5279999999999" y="217.05466666666666" fill="#333333" font-size="11.733333333333334" font-family="sans-serif" text-anchor="start">b</text><rect x="592.692135223097" y="225.8019218897638" width="21.224316220472435" height="21.224316220472435" fill="#619CFF" fill-opacity="1.0" stroke="none"/><text x="618.5279999999999" y="240.16874666666666" fill="#333333" font-size="11.733333333333334" font-family="sans-serif" text-anchor="start">c</text></svg>