<svg xmlns="http://www.w3.org/2000/svg" width="640" height="420" viewBox="0 0 640 420"><rect x="0.0" y="0.0" width="640.0" height="420.0" fill="#ffffff" fill-opacity="1.0" stroke="none"/><line x1="20.973333333333333" y1="326.8952380952381" x2="577.0805866666667" y2="326.8952380952381" stroke="#dddddd" stroke-width="1.3333333333333333"/><line x1="20.973333333333333" y1="245.05396825396826" x2="577.0805866666667" y2="245.05396825396826" stroke="#dddddd" stroke-width="1.3333333333333333"/><line x1="20.973333333333333" y1="163.2126984126984" x2="577.0805866666667" y2="163.2126984126984" stroke="#dddddd" stroke-width="1.3333333333333333"/><line x1="88.38027313131313" y1="32.266666666666666" x2="88.38027313131313" y2="376.0" stroke="#dddddd" stroke-width="0.6666666666666666"/><line x1="172.63894787878786" y1="32.266666666666666" x2="172.63894787878786" y2="376.0" stroke="#dddddd" stroke-width="0.6666666666666666"/><line x1="256.8976226262626" y1="32.266666666666666" x2="256.8976226262626" y2="376.0" stroke="#dddddd" stroke-width="0.6666666666666666"/><line x1="341.1562973737374" y1="32.266666666666666" x2="341.1562973737374" y2="376.0" stroke="#dddddd" stroke-width="0.6666666666666666"/><line x1="425.41497212121214" y1="32.266666666666666" x2="425.41497212121214" y2="376.0" stroke="#dddddd" stroke-width="0.6666666666666666"/><line x1="509.6736468686869" y1="32.266666666666666" x2="509.6736468686869" y2="376.0" stroke="#dddddd" stroke-width="0.6666666666666666"/><line x1="46.25093575757576" y1="32.266666666666666" x2="46.25093575757576" y2="376.0" stroke="#dddddd" stroke-width="1.3333333333333333"/><line x1="130.50961050505052" y1="32.266666666666666" x2="130.50961050505052" y2="376.0" stroke="#dddddd" stroke-width="1.3333333333333333"/><line x1="214.7682852525252" y1="32.266666666666666" x2="214.7682852525252" y2="376.0" stroke="#dddddd" stroke-width="1.3333333333333333"/><line x1="299.02696" y1="32.266666666666666" x2="299.02696" y2="376.0" stroke="#dddddd" stroke-width="1.3333333333333333"/><line x1="383.2856347474747" y1="32.266666666666666" x2="383.2856347474747" y2="376.0" stroke="#dddddd" stroke-width="1.3333333333333333"/><line x1="467.5443094949495" y1="32.266666666666666" x2="467.5443094949495" y2="376.0" stroke="#dddddd" stroke-width="1.3333333333333333"/><line x1="551.8029842424243" y1="32.266666666666666" x2="551.8029842424243" y2="376.0" stroke="#dddddd" stroke-width="1.3333333333333333"/><rect x="20.973333333333333" y="32.266666666666666" width="556.1072533333333" height="343.73333333333335" fill="#ffffff" fill-opacity="0.0" stroke="#444444" stroke-width="1.3333333333333333"/><line x1="20.973333333333333" y1="326.8952380952381" x2="17.306666666666665" y2="326.8952380952381" stroke="#444444" stroke-width="1.3333333333333333"/><text x="14.373333333333335" y="331.00190476190477" fill="#333333" font-size="11.733333333333334" font-family="sans-serif" text-anchor="end">a</text><line x1="20.973333333333333" y1="245.05396825396826" x2="17.306666666666665" y2="245.05396825396826" stroke="#444444" stroke-width="1.3333333333333333"/><text x="14.373333333333335" y="249.16063492063495" fill="#333333" font-size="11.733333333333334" font-family="sans-serif" text-anchor="end">b</text><line x1="20.973333333333333" y1="163.2126984126984" x2="17.306666666666665" y2="163.2126984126984" stroke="#444444" stroke-width="1.3333333333333333"/><text x="14.373333333333335" y="167.31936507936504" fill="#333333" font-size="11.733333333333334" font-family="sans-serif" text-anchor="end">c</text><line x1="46.25093575757576" y1="376.0" x2="46.25093575757576" y2="379.66666666666663" stroke="#444444" stroke-width="1.3333333333333333"/><text x="46.25093575757576" y="391.9866666666667" fill="#333333" font-size="11.733333333333334" font-family="sans-serif" text-anchor="middle">1</text><line x1="130.50961050505052" y1="376.0" x2="130.50961050505052" y2="379.66666666666663" stroke="#444444" stroke-width="1.3333333333333333"/><text x="130.50961050505052" y="391.9866666666667" fill="#333333" font-size="11.733333333333334" font-family="sans-serif" text-anchor="middle">2</text><line x1="214.7682852525252" y1="376.0" x2="214.7682852525252" y2="379.66666666666663" stroke="#444444" stroke-width="1.3333333333333333"/><text x="214.7682852525252" y="391.9866666666667" fill="#333333" font-size="11.733333333333334" font-family="sans-serif" text-anchor="middle">3</text><line x1="299.02696" y1="376.0" x2="299.02696" y2="379.66666666666663" stroke="#444444" stroke-width="1.3333333333333333"/><text x="299.02696" y="391.9866666666667" fill="#333333" font-size="11.733333333333334" font-family="sans-serif" text-anchor="middle">4</text><line x1="383.2856347474747" y1="376.0" x2="383.2856347474747" y2="379.66666666666663" stroke="#444444" stroke-width="1.3333333333333333"/><text x="383.2856347474747" y="391.9866666666667" fill="#333333" font-size="11.733333333333334" font-family="sans-serif" text-anchor="middle">5</text><line x1="467.5443094949495" y1="376.0" x2="467.5443094949495" y2="379.66666666666663" stroke="#444444" stroke-width="1.3333333333333333"/><text x="467.5443094949495" y="391.9866666666667" fill="#333333" font-size="11.733333333333334" font-family="sans-serif" text-anchor="middle">6</text><line x1="551.8029842424243" y1="376.0" x2="551.8029842424243" y2="379.66666666666663" stroke="#444444" stroke-width="1.3333333333333333"/><text x="551.8029842424243" y="391.9866666666667" fill="#333333" font-size="11.733333333333334" font-family="sans-serif" text-anchor="middle">7</text><text x="20.973333333333333" y="21.413333333333334" fill="#333333" font-size="17.599999999999998" font-family="sans-serif" text-anchor="start">ridge (joyplot)</text><text x="299.02696" y="409.73333333333335" fill="#333333" font-size="14.666666666666666" font-family="sans-serif" text-anchor="middle">value</text><path d="M 46.25093575757576 163.21269816390722 L 54.676803232323245 163.21269778957077 L 63.10267070707071 163.21269688785173 L 71.52853818181819 163.21269476698166 L 79.95440565656565 163.21268989645975 L 88.38027313131313 163.21267897604113 L 96.80614060606061 163.21265507108444 L 105.2320080808081 163.2126039849876 L 113.65787555555558 163.21249740802898 L 122.08374303030304 163.21228036394524 L 130.50961050505052 163.21184891132302 L 138.935477979798 163.21101178018898 L 147.36134545454547 163.20942651527685 L 155.78721292929293 163.2064967767383 L 164.21308040404043 163.20121301688968 L 172.63894787878786 163.19191456302616 L 181.06481535353535 163.17594857318818 L 189.49068282828284 163.1492024970965 L 197.91655030303025 163.10549429891523 L 206.3424177777778 163.0358217296898 L 214.7682852525252 162.92750071098246 L 223.19415272727275 162.76326388015718 L 231.62002020202016 162.52044066371116 L 240.04588767676773 162.17039230765016 L 248.47175515151514 161.67841630818015 L 256.8976226262626 161.0043476710041 L 265.3234901010101 160.10405137602058 L 273.7493575757576 158.93190764996973 L 282.1752250505051 157.44423651228507 L 290.6010925252525 155.6034052419962 L 299.02696 153.38214714098325 L 307.45282747474744 150.76744548157626 L 315.8786949494949 147.76326414442428 L 324.3045624242424 144.39148876395444 L 332.7304298989899 140.69070283919703 L 341.1562973737374 136.7128394619424 L 349.5821648484848 132.51824457296408 L 358.0080323232323 128.1701406813158 L 366.4338997979799 123.72975158812031 L 374.85976727272737 119.25332223435547 L 383.2856347474747 114.79189241550468 L 391.7115022222223 110.39400455734963 L 400.13736969696976 106.11069162587785 L 408.5632371717171 102.00132280308438 L 416.9891046464646 98.13841862998852 L 425.41497212121214 94.60956323151824 L 433.84083959595966 91.51509567319647 L 442.26670707070707 88.96125586691483 L 450.69257454545465 87.04965044754255 L 459.1184420202021 85.86496722639004 L 467.5443094949495 85.46349206349204 L 475.970176969697 85.86496722639005 L 484.3960444444445 87.04965044754256 L 492.821911919192 88.96125586691485 L 501.2477793939395 91.5150956731965 L 509.6736468686869 94.60956323151824 L 518.0995143434344 98.13841862998854 L 526.5253818181818 102.00132280308438 L 534.9512492929293 106.11069162587788 L 543.3771167676769 110.39400455734969 L 551.8029842424243 114.79189241550468 L 551.8029842424243 163.2126984126984 L 46.25093575757576 163.2126984126984 Z" fill="#619CFF" fill-opacity="0.8" stroke="#619CFF" stroke-width="1.5999999999999999"/><path d="M 46.25093575757576 244.7687705522523 L 54.676803232323245 244.6045337214271 L 63.10267070707071 244.36171050498106 L 71.52853818181819 244.01166214892 L 79.95440565656565 243.51968614945 L 88.38027313131313 242.84561751227398 L 96.80614060606061 241.94532121729048 L 105.2320080808081 240.7731774912396 L 113.65787555555558 239.28550635355498 L 122.08374303030304 237.44467508326608 L 130.50961050505052 235.22341698225313 L 138.935477979798 232.60871532284614 L 147.36134545454547 229.60453398569416 L 155.78721292929293 226.23275860522432 L 164.21308040404043 222.5319726804669 L 172.63894787878786 218.5541093032123 L 181.06481535353535 214.35951441423393 L 189.49068282828284 210.01141052258566 L 197.91655030303025 205.5710214293902 L 206.3424177777778 201.09459207562534 L 214.7682852525252 196.63316225677454 L 223.19415272727275 192.23527439861954 L 231.62002020202016 187.95196146714773 L 240.04588767676773 183.84259264435423 L 248.47175515151514 179.97968847125838 L 256.8976226262626 176.4508330727881 L 265.3234901010101 173.35636551446638 L 273.7493575757576 170.8025257081847 L 282.1752250505051 168.89092028881242 L 290.6010925252525 167.7062370676599 L 299.02696 167.3047619047619 L 307.45282747474744 167.7062370676599 L 315.8786949494949 168.89092028881242 L 324.3045624242424 170.80252570818473 L 332.7304298989899 173.35636551446638 L 341.1562973737374 176.4508330727881 L 349.5821648484848 179.97968847125838 L 358.0080323232323 183.84259264435426 L 366.4338997979799 187.95196146714775 L 374.85976727272737 192.2352743986196 L 383.2856347474747 196.63316225677454 L 391.7115022222223 201.09459207562537 L 400.13736969696976 205.5710214293902 L 408.5632371717171 210.01141052258566 L 416.9891046464646 214.35951441423396 L 425.41497212121214 218.5541093032123 L 433.84083959595966 222.53197268046694 L 442.26670707070707 226.23275860522432 L 450.69257454545465 229.6045339856942 L 459.1184420202021 232.60871532284614 L 467.5443094949495 235.22341698225313 L 475.970176969697 237.44467508326608 L 484.3960444444445 239.28550635355498 L 492.821911919192 240.77317749123964 L 501.2477793939395 241.94532121729048 L 509.6736468686869 242.84561751227398 L 518.0995143434344 243.51968614945002 L 526.5253818181818 244.01166214892 L 534.9512492929293 244.36171050498106 L 543.3771167676769 244.6045337214271 L 551.8029842424243 244.7687705522523 L 551.8029842424243 245.05396825396826 L 46.25093575757576 245.05396825396826 Z" fill="#00BA38" fill-opacity="0.8" stroke="#00BA38" stroke-width="1.5999999999999999"/><path d="M 46.25093575757576 278.4744320980444 L 54.676803232323245 274.07654423988936 L 63.10267070707071 269.79323130841755 L 71.52853818181819 265.6838624856241 L 79.95440565656565 261.8209583125282 L 88.38027313131313 258.292102914058 L 96.80614060606061 255.19763535573622 L 105.2320080808081 252.64379554945452 L 113.65787555555558 250.73219013008227 L 122.08374303030304 249.5475069089298 L 130.50961050505052 249.14603174603172 L 138.935477979798 249.54750690892973 L 147.36134545454547 250.73219013008227 L 155.78721292929293 252.64379554945452 L 164.21308040404043 255.19763535573622 L 172.63894787878786 258.292102914058 L 181.06481535353535 261.8209583125282 L 189.49068282828284 265.6838624856241 L 197.91655030303025 269.79323130841755 L 206.3424177777778 274.07654423988936 L 214.7682852525252 278.4744320980444 L 223.19415272727275 282.9358619168952 L 231.62002020202016 287.41229127066003 L 240.04588767676773 291.8526803638555 L 248.47175515151514 296.2007842555038 L 256.8976226262626 300.39537914448215 L 265.3234901010101 304.37324252173676 L 273.7493575757576 308.07402844649414 L 282.1752250505051 311.445803826964 L 290.6010925252525 314.44998516411596 L 299.02696 317.06468682352295 L 307.45282747474744 319.2859449245359 L 315.8786949494949 321.1267761948248 L 324.3045624242424 322.6144473325095 L 332.7304298989899 323.7865910585603 L 341.1562973737374 324.6868873535438 L 349.5821648484848 325.36095599071984 L 358.0080323232323 325.85293199018986 L 366.4338997979799 326.2029803462509 L 374.85976727272737 326.44580356269694 L 383.2856347474747 326.6100403935221 L 391.7115022222223 326.7183614122295 L 400.13736969696976 326.788033981455 L 408.5632371717171 326.8317421796362 L 416.9891046464646 326.85848825572793 L 425.41497212121214 326.87445424556586 L 433.84083959595966 326.88375269942935 L 442.26670707070707 326.88903645927803 L 450.69257454545465 326.8919661978166 L 459.1184420202021 326.89355146272874 L 467.5443094949495 326.8943885938627 L 475.970176969697 326.89482004648494 L 484.3960444444445 326.8950370905687 L 492.821911919192 326.89514366752735 L 501.2477793939395 326.89519475362414 L 509.6736468686869 326.89521865858086 L 518.0995143434344 326.8952295789995 L 526.5253818181818 326.89523444952135 L 534.9512492929293 326.8952365703915 L 543.3771167676769 326.89523747211047 L 551.8029842424243 326.8952378464469 L 551.8029842424243 326.8952380952381 L 46.25093575757576 326.8952380952381 Z" fill="#F8766D" fill-opacity="0.8" stroke="#F8766D" stroke-width="1.5999999999999999"/><rect x="591.7472533333333" y="169.46221333333335" width="23.114079999999994" height="69.34223999999998" fill="#ffffff" fill-opacity="1.0" stroke="none"/><rect x="592.6921352230971" y="170.40709522309712" width="21.224316220472435" height="21.224316220472435" fill="#F8766D" fill-opacity="1.0" stroke="none"/><text x="618.528" y="184.77392" fill="#333333" font-size="11.733333333333334" font-family="sans-serif" text-anchor="start">a</text><rect x="592.6921352230971" y="193.5211752230971" width="21.224316220472435" height="21.224316220472435" fill="#00BA38" fill-opacity="1.0" stroke="none"/><text x="618.528" y="207.88799999999998" fill="#333333" font-size="11.733333333333334" font-family="sans-serif" text-anchor="start">b</text><rect x="592.6921352230971" y="216.63525522309715" width="21.224316220472435" height="21.224316220472435" fill="#619CFF" fill-opacity="1.0" stroke="none"/><text x="618.528" y="231.00208" fill="#333333" font-size="11.733333333333334" font-family="sans-serif" text-anchor="start">c</text></svg>