<svg xmlns="http://www.w3.org/2000/svg" width="960" height="380" viewBox="0 0 960 380"><rect x="0.0" y="0.0" width="960.0" height="380.0" fill="#ffffff" fill-opacity="1.0" stroke="none"/><rect x="0.0" y="0.0" width="0.0" height="0.0" fill="#ffffff" fill-opacity="1.0" stroke="none"/><line x1="109.69696969696966" y1="39.599999999999994" x2="109.69696969696966" y2="347.0" stroke="#dddddd" stroke-width="0.6666666666666666"/><line x1="205.85454545454542" y1="39.599999999999994" x2="205.85454545454542" y2="347.0" stroke="#dddddd" stroke-width="0.6666666666666666"/><line x1="302.0121212121212" y1="39.599999999999994" x2="302.0121212121212" y2="347.0" stroke="#dddddd" stroke-width="0.6666666666666666"/><line x1="398.16969696969693" y1="39.599999999999994" x2="398.16969696969693" y2="347.0" stroke="#dddddd" stroke-width="0.6666666666666666"/><line x1="61.6181818181818" y1="39.599999999999994" x2="61.6181818181818" y2="347.0" stroke="#dddddd" stroke-width="1.3333333333333333"/><line x1="157.77575757575755" y1="39.599999999999994" x2="157.77575757575755" y2="347.0" stroke="#dddddd" stroke-width="1.3333333333333333"/><line x1="253.9333333333333" y1="39.599999999999994" x2="253.9333333333333" y2="347.0" stroke="#dddddd" stroke-width="1.3333333333333333"/><line x1="350.09090909090907" y1="39.599999999999994" x2="350.09090909090907" y2="347.0" stroke="#dddddd" stroke-width="1.3333333333333333"/><line x1="446.24848484848485" y1="39.599999999999994" x2="446.24848484848485" y2="347.0" stroke="#dddddd" stroke-width="1.3333333333333333"/><line x1="42.38666666666666" y1="341.76022727272726" x2="465.48" y2="341.76022727272726" stroke="#dddddd" stroke-width="0.6666666666666666"/><line x1="42.38666666666666" y1="254.43068181818177" x2="465.48" y2="254.43068181818177" stroke="#dddddd" stroke-width="0.6666666666666666"/><line x1="42.38666666666666" y1="167.10113636363636" x2="465.48" y2="167.10113636363636" stroke="#dddddd" stroke-width="0.6666666666666666"/><line x1="42.38666666666666" y1="79.77159090909086" x2="465.48" y2="79.77159090909086" stroke="#dddddd" stroke-width="0.6666666666666666"/><line x1="42.38666666666666" y1="298.0954545454545" x2="465.48" y2="298.0954545454545" stroke="#dddddd" stroke-width="1.3333333333333333"/><line x1="42.38666666666666" y1="210.76590909090908" x2="465.48" y2="210.76590909090908" stroke="#dddddd" stroke-width="1.3333333333333333"/><line x1="42.38666666666666" y1="123.43636363636361" x2="465.48" y2="123.43636363636361" stroke="#dddddd" stroke-width="1.3333333333333333"/><rect x="42.38666666666666" y="39.599999999999994" width="423.0933333333333" height="307.4" fill="#ffffff" fill-opacity="0.0" stroke="#444444" stroke-width="1.3333333333333333"/><line x1="61.6181818181818" y1="347.0" x2="61.6181818181818" y2="350.66666666666663" stroke="#444444" stroke-width="1.3333333333333333"/><text x="61.6181818181818" y="362.9866666666667" fill="#333333" font-size="11.733333333333334" font-family="sans-serif" text-anchor="middle">1.0</text><line x1="157.77575757575755" y1="347.0" x2="157.77575757575755" y2="350.66666666666663" stroke="#444444" stroke-width="1.3333333333333333"/><text x="157.77575757575755" y="362.9866666666667" fill="#333333" font-size="11.733333333333334" font-family="sans-serif" text-anchor="middle">1.5</text><line x1="253.9333333333333" y1="347.0" x2="253.9333333333333" y2="350.66666666666663" stroke="#444444" stroke-width="1.3333333333333333"/><text x="253.9333333333333" y="362.9866666666667" fill="#333333" font-size="11.733333333333334" font-family="sans-serif" text-anchor="middle">2.0</text><line x1="350.09090909090907" y1="347.0" x2="350.09090909090907" y2="350.66666666666663" stroke="#444444" stroke-width="1.3333333333333333"/><text x="350.09090909090907" y="362.9866666666667" fill="#333333" font-size="11.733333333333334" font-family="sans-serif" text-anchor="middle">2.5</text><line x1="446.24848484848485" y1="347.0" x2="446.24848484848485" y2="350.66666666666663" stroke="#444444" stroke-width="1.3333333333333333"/><text x="446.24848484848485" y="362.9866666666667" fill="#333333" font-size="11.733333333333334" font-family="sans-serif" text-anchor="middle">3.0</text><line x1="42.38666666666666" y1="298.0954545454545" x2="38.72" y2="298.0954545454545" stroke="#444444" stroke-width="1.3333333333333333"/><text x="35.78666666666666" y="302.2021212121212" fill="#333333" font-size="11.733333333333334" font-family="sans-serif" text-anchor="end">2.0</text><line x1="42.38666666666666" y1="210.76590909090908" x2="38.72" y2="210.76590909090908" stroke="#444444" stroke-width="1.3333333333333333"/><text x="35.78666666666666" y="214.87257575757576" fill="#333333" font-size="11.733333333333334" font-family="sans-serif" text-anchor="end">2.5</text><line x1="42.38666666666666" y1="123.43636363636361" x2="38.72" y2="123.43636363636361" stroke="#444444" stroke-width="1.3333333333333333"/><text x="35.78666666666666" y="127.54303030303028" fill="#333333" font-size="11.733333333333334" font-family="sans-serif" text-anchor="end">3.0</text><text x="42.38666666666666" y="28.74666666666667" fill="#333333" font-size="17.599999999999998" font-family="sans-serif" text-anchor="start">jitterX (重なり点を散らす)</text><circle cx="8.73151515151514" cy="298.0954545454545" r="3.333333333333333" fill="#1f77b4" fill-opacity="0.6" stroke="none"><title>(1, 2)</title></circle><circle cx="14.783671651628726" cy="228.2318181818182" r="3.333333333333333" fill="#1f77b4" fill-opacity="0.6" stroke="none"><title>(1, 2.4)</title></circle><circle cx="48.262575896233166" cy="280.62954545454545" r="3.333333333333333" fill="#1f77b4" fill-opacity="0.6" stroke="none"><title>(1, 2.1)</title></circle><circle cx="74.95480008626399" cy="333.0272727272727" r="3.333333333333333" fill="#1f77b4" fill-opacity="0.6" stroke="none"><title>(1, 1.8)</title></circle><circle cx="235.85783063556903" cy="193.29999999999995" r="3.333333333333333" fill="#1f77b4" fill-opacity="0.6" stroke="none"><title>(2, 2.6)</title></circle><circle cx="303.8067666253438" cy="263.16363636363633" r="3.333333333333333" fill="#1f77b4" fill-opacity="0.6" stroke="none"><title>(2, 2.2)</title></circle><circle cx="219.98472013882775" cy="210.76590909090908" r="3.333333333333333" fill="#1f77b4" fill-opacity="0.6" stroke="none"><title>(2, 2.5)</title></circle><circle cx="287.36037142833175" cy="298.0954545454545" r="3.333333333333333" fill="#1f77b4" fill-opacity="0.6" stroke="none"><title>(2, 2)</title></circle><circle cx="491.4008802620886" cy="105.97045454545449" r="3.333333333333333" fill="#1f77b4" fill-opacity="0.6" stroke="none"><title>(3, 3.1)</title></circle><circle cx="461.4995452456792" cy="53.57272727272728" r="3.333333333333333" fill="#1f77b4" fill-opacity="0.6" stroke="none"><title>(3, 3.4)</title></circle><circle cx="473.7894612715585" cy="140.90227272727273" r="3.333333333333333" fill="#1f77b4" fill-opacity="0.6" stroke="none"><title>(3, 2.9)</title></circle><circle cx="463.2649211199271" cy="71.0386363636364" r="3.333333333333333" fill="#1f77b4" fill-opacity="0.6" stroke="none"><title>(3, 3.3)</title></circle><circle cx="23.091718028057308" cy="263.16363636363633" r="3.333333333333333" fill="#1f77b4" fill-opacity="0.6" stroke="none"><title>(1, 2.2)</title></circle><circle cx="61.12358118274049" cy="175.83409090909086" r="3.333333333333333" fill="#1f77b4" fill-opacity="0.6" stroke="none"><title>(1, 2.7)</title></circle><circle cx="218.1719708536237" cy="228.2318181818182" r="3.333333333333333" fill="#1f77b4" fill-opacity="0.6" stroke="none"><title>(2, 2.4)</title></circle><circle cx="305.2420719904505" cy="280.62954545454545" r="3.333333333333333" fill="#1f77b4" fill-opacity="0.6" stroke="none"><title>(2, 2.1)</title></circle><circle cx="423.58142675207614" cy="123.43636363636361" r="3.333333333333333" fill="#1f77b4" fill-opacity="0.6" stroke="none"><title>(3, 3)</title></circle><circle cx="414.5797223141397" cy="88.50454545454541" r="3.333333333333333" fill="#1f77b4" fill-opacity="0.6" stroke="none"><title>(3, 3.2)</title></circle><circle cx="112.55022086605157" cy="315.56136363636364" r="3.333333333333333" fill="#1f77b4" fill-opacity="0.6" stroke="none"><title>(1, 1.9)</title></circle><circle cx="250.78939322637598" cy="210.76590909090908" r="3.333333333333333" fill="#1f77b4" fill-opacity="0.6" stroke="none"><title>(2, 2.5)</title></circle><circle cx="456.4719141866683" cy="105.97045454545449" r="3.333333333333333" fill="#1f77b4" fill-opacity="0.6" stroke="none"><title>(3, 3.1)</title></circle><circle cx="56.65551987107517" cy="245.69772727272726" r="3.333333333333333" fill="#1f77b4" fill-opacity="0.6" stroke="none"><title>(1, 2.3)</title></circle><circle cx="274.52897647680237" cy="193.29999999999995" r="3.333333333333333" fill="#1f77b4" fill-opacity="0.6" stroke="none"><title>(2, 2.6)</title></circle><circle cx="423.3158181515281" cy="53.57272727272728" r="3.333333333333333" fill="#1f77b4" fill-opacity="0.6" stroke="none"><title>(3, 3.4)</title></circle><rect x="0.0" y="0.0" width="0.0" height="0.0" fill="#ffffff" fill-opacity="1.0" stroke="none"/><line x1="567.1135353535356" y1="39.599999999999994" x2="567.1135353535356" y2="347.0" stroke="#dddddd" stroke-width="0.6666666666666666"/><line x1="669.6816161616164" y1="39.599999999999994" x2="669.6816161616164" y2="347.0" stroke="#dddddd" stroke-width="0.6666666666666666"/><line x1="772.2496969696973" y1="39.599999999999994" x2="772.2496969696973" y2="347.0" stroke="#dddddd" stroke-width="0.6666666666666666"/><line x1="874.8177777777782" y1="39.599999999999994" x2="874.8177777777782" y2="347.0" stroke="#dddddd" stroke-width="0.6666666666666666"/><line x1="618.397575757576" y1="39.599999999999994" x2="618.397575757576" y2="347.0" stroke="#dddddd" stroke-width="1.3333333333333333"/><line x1="720.9656565656566" y1="39.599999999999994" x2="720.9656565656566" y2="347.0" stroke="#dddddd" stroke-width="1.3333333333333333"/><line x1="823.5337373737375" y1="39.599999999999994" x2="823.5337373737375" y2="347.0" stroke="#dddddd" stroke-width="1.3333333333333333"/><line x1="926.1018181818183" y1="39.599999999999994" x2="926.1018181818183" y2="347.0" stroke="#dddddd" stroke-width="1.3333333333333333"/><line x1="522.24" y1="310.7902858974177" x2="945.3333333333333" y2="310.7902858974177" stroke="#dddddd" stroke-width="0.6666666666666666"/><line x1="522.24" y1="238.37085769225305" x2="945.3333333333333" y2="238.37085769225305" stroke="#dddddd" stroke-width="0.6666666666666666"/><line x1="522.24" y1="165.95142948708843" x2="945.3333333333333" y2="165.95142948708843" stroke="#dddddd" stroke-width="0.6666666666666666"/><line x1="522.24" y1="93.53200128192384" x2="945.3333333333333" y2="93.53200128192384" stroke="#dddddd" stroke-width="0.6666666666666666"/><line x1="522.24" y1="347.0" x2="945.3333333333333" y2="347.0" stroke="#dddddd" stroke-width="1.3333333333333333"/><line x1="522.24" y1="274.58057179483535" x2="945.3333333333333" y2="274.58057179483535" stroke="#dddddd" stroke-width="1.3333333333333333"/><line x1="522.24" y1="202.16114358967076" x2="945.3333333333333" y2="202.16114358967076" stroke="#dddddd" stroke-width="1.3333333333333333"/><line x1="522.24" y1="129.7417153845061" x2="945.3333333333333" y2="129.7417153845061" stroke="#dddddd" stroke-width="1.3333333333333333"/><line x1="522.24" y1="57.322287179341515" x2="945.3333333333333" y2="57.322287179341515" stroke="#dddddd" stroke-width="1.3333333333333333"/><rect x="522.24" y="39.599999999999994" width="423.0933333333333" height="307.4" fill="#ffffff" fill-opacity="0.0" stroke="#444444" stroke-width="1.3333333333333333"/><line x1="618.397575757576" y1="347.0" x2="618.397575757576" y2="350.66666666666663" stroke="#444444" stroke-width="1.3333333333333333"/><text x="618.397575757576" y="362.9866666666667" fill="#333333" font-size="11.733333333333334" font-family="sans-serif" text-anchor="middle">4.6</text><line x1="720.9656565656566" y1="347.0" x2="720.9656565656566" y2="350.66666666666663" stroke="#444444" stroke-width="1.3333333333333333"/><text x="720.9656565656566" y="362.9866666666667" fill="#333333" font-size="11.733333333333334" font-family="sans-serif" text-anchor="middle">5.0</text><line x1="823.5337373737375" y1="347.0" x2="823.5337373737375" y2="350.66666666666663" stroke="#444444" stroke-width="1.3333333333333333"/><text x="823.5337373737375" y="362.9866666666667" fill="#333333" font-size="11.733333333333334" font-family="sans-serif" text-anchor="middle">5.4</text><line x1="926.1018181818183" y1="347.0" x2="926.1018181818183" y2="350.66666666666663" stroke="#444444" stroke-width="1.3333333333333333"/><text x="926.1018181818183" y="362.9866666666667" fill="#333333" font-size="11.733333333333334" font-family="sans-serif" text-anchor="middle">5.8</text><line x1="522.24" y1="347.0" x2="518.5733333333333" y2="347.0" stroke="#444444" stroke-width="1.3333333333333333"/><text x="515.64" y="351.1066666666666" fill="#333333" font-size="11.733333333333334" font-family="sans-serif" text-anchor="end">0.00</text><line x1="522.24" y1="274.58057179483535" x2="518.5733333333333" y2="274.58057179483535" stroke="#444444" stroke-width="1.3333333333333333"/><text x="515.64" y="278.68723846150203" fill="#333333" font-size="11.733333333333334" font-family="sans-serif" text-anchor="end">0.25</text><line x1="522.24" y1="202.16114358967076" x2="518.5733333333333" y2="202.16114358967076" stroke="#444444" stroke-width="1.3333333333333333"/><text x="515.64" y="206.26781025633744" fill="#333333" font-size="11.733333333333334" font-family="sans-serif" text-anchor="end">0.50</text><line x1="522.24" y1="129.7417153845061" x2="518.5733333333333" y2="129.7417153845061" stroke="#444444" stroke-width="1.3333333333333333"/><text x="515.64" y="133.8483820511728" fill="#333333" font-size="11.733333333333334" font-family="sans-serif" text-anchor="end">0.75</text><line x1="522.24" y1="57.322287179341515" x2="518.5733333333333" y2="57.322287179341515" stroke="#444444" stroke-width="1.3333333333333333"/><text x="515.64" y="61.42895384600818" fill="#333333" font-size="11.733333333333334" font-family="sans-serif" text-anchor="end">1.00</text><text x="522.24" y="28.74666666666667" fill="#333333" font-size="17.599999999999998" font-family="sans-serif" text-anchor="start">densityFill</text><path d="M 522.24 306.94053954046456 L 526.51367003367 303.7502727801499 L 530.78734006734 300.46617747601823 L 535.06101010101 297.08998171339147 L 539.3346801346801 293.6210309935372 L 543.6083501683501 290.0560592678077 L 547.88202020202 286.3890792689533 L 552.1556902356904 282.61140474424064 L 556.4293602693604 278.71181070470965 L 560.7030303030303 274.6768307514523 L 564.9767003367003 270.49118336415006 L 569.2503703703703 266.1383121979449 L 573.5240404040404 261.60101937431637 L 577.7977104377104 256.86216586288253 L 582.0713804713805 251.90540964839911 L 586.3450505050505 246.71595067392118 L 590.6187205387205 241.28125164421022 L 594.8923905723905 235.59170563787353 L 599.1660606060605 229.64122496784685 L 603.4397306397306 223.42773059471725 L 607.7134006734005 216.95352729283127 L 611.9870707070705 210.22555628531836 L 616.2607407407409 203.2555237520017 L 620.5344107744108 196.05991001480498 L 624.8080808080808 188.65986987981802 L 629.0817508417508 181.08103917376562 L 633.3554208754209 173.35326564073256 L 637.6290909090909 165.51028384694058 L 641.9027609427609 157.5893534785729 L 646.176430976431 149.63087844158375 L 650.450101010101 141.67802065010068 L 654.723771043771 133.77631762118523 L 658.997441077441 125.97330739842023 L 663.2711111111109 118.31815842271585 L 667.544781144781 110.86129633805149 L 671.8184511784513 103.65401496667796 L 676.0921212121211 96.74805538856238 L 680.3657912457913 90.19513570714915 L 684.6394612794613 84.04641503518317 L 688.9131313131313 78.35187866288629 L 693.1868013468013 73.1596372270291 L 697.4604713804713 68.5151406915675 L 701.7341414141413 64.46031754515141 L 706.0078114478115 61.03266006724289 L 710.2814814814815 58.26428689404368 L 714.5551515151515 56.18102341249369 L 718.8288215488215 54.80154770216408 L 723.1024915824916 54.136653899367424 L 727.3761616161615 54.18868523511048 L 731.6498316498315 54.95118514032602 L 735.9235016835019 56.40880661200333 L 740.1971717171718 58.53750777953947 L 744.4708417508418 61.305045987477115 L 748.7445117845118 64.67176476842099 L 753.0181818181818 68.59164915876934 L 757.2918518518518 73.01360643363412 L 761.5655218855219 77.88291307998853 L 765.8391919191919 83.14275616692971 L 770.1128619528619 88.735789446121 L 774.386531986532 94.6056223908201 L 778.660202020202 100.69816435546147 L 782.9338720538719 106.9627559791858 L 787.2075420875419 113.35303519972331 L 791.4812121212123 119.82750463015289 L 795.7548821548819 126.34978902295836 L 800.0285521885522 132.888594282367 L 804.3022222222222 139.41740106661499 L 808.5758922558922 145.9139446044719 L 812.8495622895623 152.35954634461157 L 817.1232323232323 158.73837127552304 L 821.3969023569023 165.03668652827758 L 825.6705723905723 171.24219211788116 L 829.9442424242425 177.34348389538323 L 834.2179124579125 183.3296930190535 L 838.4915824915824 189.19032699684544 L 842.7652525252524 194.9153163904306 L 847.0389225589224 200.4952505175651 L 851.3125925925925 205.92176680593508 L 855.5862626262626 211.18804347406368 L 859.8599326599325 216.28933520656886 L 864.1336026936026 221.2234872338694 L 868.4072727272728 225.9913649610901 L 872.6809427609428 230.59714371090482 L 876.9546127946129 235.0484154421819 L 881.2282828282829 239.3560852627702 L 885.5019528619529 243.53404866953682 L 889.7756228956229 247.59865908582907 L 894.0492929292928 251.56801280851897 L 898.3229629629628 255.46109346968018 L 902.5966329966328 259.2968293928916 L 906.8703030303029 263.09312398636314 L 911.1439730639731 266.8659211931204 L 915.4176430976429 270.62836507203906 L 919.6913131313132 274.3901052715103 L 923.9649831649831 278.15678927245733 L 928.2386531986533 281.92976885481846 L 932.5123232323233 285.7060334543377 L 936.7859932659933 289.47836812581556 L 941.0596632996633 293.23571984152943 L 945.3333333333333 296.9637437943426 L 945.3333333333333 347.0 L 522.24 347.0" fill="#1f77b4" fill-opacity="0.4" stroke="none"/><path d="M 522.24 306.94053954046456 L 526.51367003367 303.7502727801499 L 530.78734006734 300.46617747601823 L 535.06101010101 297.08998171339147 L 539.3346801346801 293.6210309935372 L 543.6083501683501 290.0560592678077 L 547.88202020202 286.3890792689533 L 552.1556902356904 282.61140474424064 L 556.4293602693604 278.71181070470965 L 560.7030303030303 274.6768307514523 L 564.9767003367003 270.49118336415006 L 569.2503703703703 266.1383121979449 L 573.5240404040404 261.60101937431637 L 577.7977104377104 256.86216586288253 L 582.0713804713805 251.90540964839911 L 586.3450505050505 246.71595067392118 L 590.6187205387205 241.28125164421022 L 594.8923905723905 235.59170563787353 L 599.1660606060605 229.64122496784685 L 603.4397306397306 223.42773059471725 L 607.7134006734005 216.95352729283127 L 611.9870707070705 210.22555628531836 L 616.2607407407409 203.2555237520017 L 620.5344107744108 196.05991001480498 L 624.8080808080808 188.65986987981802 L 629.0817508417508 181.08103917376562 L 633.3554208754209 173.35326564073256 L 637.6290909090909 165.51028384694058 L 641.9027609427609 157.5893534785729 L 646.176430976431 149.63087844158375 L 650.450101010101 141.67802065010068 L 654.723771043771 133.77631762118523 L 658.997441077441 125.97330739842023 L 663.2711111111109 118.31815842271585 L 667.544781144781 110.86129633805149 L 671.8184511784513 103.65401496667796 L 676.0921212121211 96.74805538856238 L 680.3657912457913 90.19513570714915 L 684.6394612794613 84.04641503518317 L 688.9131313131313 78.35187866288629 L 693.1868013468013 73.1596372270291 L 697.4604713804713 68.5151406915675 L 701.7341414141413 64.46031754515141 L 706.0078114478115 61.03266006724289 L 710.2814814814815 58.26428689404368 L 714.5551515151515 56.18102341249369 L 718.8288215488215 54.80154770216408 L 723.1024915824916 54.136653899367424 L 727.3761616161615 54.18868523511048 L 731.6498316498315 54.95118514032602 L 735.9235016835019 56.40880661200333 L 740.1971717171718 58.53750777953947 L 744.4708417508418 61.305045987477115 L 748.7445117845118 64.67176476842099 L 753.0181818181818 68.59164915876934 L 757.2918518518518 73.01360643363412 L 761.5655218855219 77.88291307998853 L 765.8391919191919 83.14275616692971 L 770.1128619528619 88.735789446121 L 774.386531986532 94.6056223908201 L 778.660202020202 100.69816435546147 L 782.9338720538719 106.9627559791858 L 787.2075420875419 113.35303519972331 L 791.4812121212123 119.82750463015289 L 795.7548821548819 126.34978902295836 L 800.0285521885522 132.888594282367 L 804.3022222222222 139.41740106661499 L 808.5758922558922 145.9139446044719 L 812.8495622895623 152.35954634461157 L 817.1232323232323 158.73837127552304 L 821.3969023569023 165.03668652827758 L 825.6705723905723 171.24219211788116 L 829.9442424242425 177.34348389538323 L 834.2179124579125 183.3296930190535 L 838.4915824915824 189.19032699684544 L 842.7652525252524 194.9153163904306 L 847.0389225589224 200.4952505175651 L 851.3125925925925 205.92176680593508 L 855.5862626262626 211.18804347406368 L 859.8599326599325 216.28933520656886 L 864.1336026936026 221.2234872338694 L 868.4072727272728 225.9913649610901 L 872.6809427609428 230.59714371090482 L 876.9546127946129 235.0484154421819 L 881.2282828282829 239.3560852627702 L 885.5019528619529 243.53404866953682 L 889.7756228956229 247.59865908582907 L 894.0492929292928 251.56801280851897 L 898.3229629629628 255.46109346968018 L 902.5966329966328 259.2968293928916 L 906.8703030303029 263.09312398636314 L 911.1439730639731 266.8659211931204 L 915.4176430976429 270.62836507203906 L 919.6913131313132 274.3901052715103 L 923.9649831649831 278.15678927245733 L 928.2386531986533 281.92976885481846 L 932.5123232323233 285.7060334543377 L 936.7859932659933 289.47836812581556 L 941.0596632996633 293.23571984152943 L 945.3333333333333 296.9637437943426" fill="" fill-opacity="0.0" stroke="#1f77b4" stroke-width="1.8897637795275593"/></svg>