<svg xmlns="http://www.w3.org/2000/svg" width="640" height="420" viewBox="0 0 640 420"><rect x="0.0" y="0.0" width="640.0" height="420.0" fill="#ffffff" fill-opacity="1.0" stroke="none"/><line x1="144.80624999999998" y1="27.0" x2="144.80624999999998" y2="383.8" stroke="#dddddd" stroke-width="1.0"/><line x1="333.15000000000003" y1="27.0" x2="333.15000000000003" y2="383.8" stroke="#dddddd" stroke-width="1.0"/><line x1="521.49375" y1="27.0" x2="521.49375" y2="383.8" stroke="#dddddd" stroke-width="1.0"/><line x1="31.799999999999997" y1="335.2557823129252" x2="634.5" y2="335.2557823129252" stroke="#dddddd" stroke-width="0.5"/><line x1="31.799999999999997" y1="238.16734693877552" x2="634.5" y2="238.16734693877552" stroke="#dddddd" stroke-width="0.5"/><line x1="31.799999999999997" y1="141.07891156462586" x2="634.5" y2="141.07891156462586" stroke="#dddddd" stroke-width="0.5"/><line x1="31.799999999999997" y1="43.99047619047616" x2="634.5" y2="43.99047619047616" stroke="#dddddd" stroke-width="0.5"/><line x1="31.799999999999997" y1="383.8" x2="634.5" y2="383.8" stroke="#dddddd" stroke-width="1.0"/><line x1="31.799999999999997" y1="286.7115646258503" x2="634.5" y2="286.7115646258503" stroke="#dddddd" stroke-width="1.0"/><line x1="31.799999999999997" y1="189.62312925170068" x2="634.5" y2="189.62312925170068" stroke="#dddddd" stroke-width="1.0"/><line x1="31.799999999999997" y1="92.53469387755104" x2="634.5" y2="92.53469387755104" stroke="#dddddd" stroke-width="1.0"/><rect x="31.799999999999997" y="27.0" width="602.7" height="356.8" fill="#ffffff" fill-opacity="0.0" stroke="#444444" stroke-width="1.0"/><line x1="144.80624999999998" y1="383.8" x2="144.80624999999998" y2="386.55" stroke="#444444" stroke-width="1.0"/><text x="144.80624999999998" y="397.55" fill="#333333" font-size="11.0" font-family="sans-serif" text-anchor="middle">A</text><line x1="333.15000000000003" y1="383.8" x2="333.15000000000003" y2="386.55" stroke="#444444" stroke-width="1.0"/><text x="333.15000000000003" y="397.55" fill="#333333" font-size="11.0" font-family="sans-serif" text-anchor="middle">B</text><line x1="521.49375" y1="383.8" x2="521.49375" y2="386.55" stroke="#444444" stroke-width="1.0"/><text x="521.49375" y="397.55" fill="#333333" font-size="11.0" font-family="sans-serif" text-anchor="middle">C</text><line x1="31.799999999999997" y1="383.8" x2="29.049999999999997" y2="383.8" stroke="#444444" stroke-width="1.0"/><text x="26.849999999999998" y="387.65000000000003" fill="#333333" font-size="11.0" font-family="sans-serif" text-anchor="end">0</text><line x1="31.799999999999997" y1="286.7115646258503" x2="29.049999999999997" y2="286.7115646258503" stroke="#444444" stroke-width="1.0"/><text x="26.849999999999998" y="290.56156462585034" fill="#333333" font-size="11.0" font-family="sans-serif" text-anchor="end">2</text><line x1="31.799999999999997" y1="189.62312925170068" x2="29.049999999999997" y2="189.62312925170068" stroke="#444444" stroke-width="1.0"/><text x="26.849999999999998" y="193.47312925170067" fill="#333333" font-size="11.0" font-family="sans-serif" text-anchor="end">4</text><line x1="31.799999999999997" y1="92.53469387755104" x2="29.049999999999997" y2="92.53469387755104" stroke="#444444" stroke-width="1.0"/><text x="26.849999999999998" y="96.38469387755103" fill="#333333" font-size="11.0" font-family="sans-serif" text-anchor="end">6</text><text x="333.15000000000003" y="18.3" fill="#333333" font-size="16.0" font-family="sans-serif" text-anchor="middle">3a. geom: bar</text><text x="333.15000000000003" y="412.1" fill="#333333" font-size="12.0" font-family="sans-serif" text-anchor="middle">群</text><text x="13.899999999999999" y="205.4" fill="#333333" font-size="12.0" font-family="sans-serif" text-anchor="middle" transform="rotate(-90.0 13.899999999999999 205.4)">値</text><rect x="60.051562499999946" y="238.16734693877552" width="169.50937500000006" height="145.6326530612245" fill="#1f77b4" fill-opacity="0.85" stroke="none"/><rect x="248.3953125" y="43.99047619047616" width="169.50937500000006" height="339.80952380952385" fill="#1f77b4" fill-opacity="0.85" stroke="none"/><rect x="436.73906249999993" y="141.07891156462586" width="169.50937500000006" height="242.72108843537416" fill="#1f77b4" fill-opacity="0.85" stroke="none"/></svg>