<svg xmlns="http://www.w3.org/2000/svg" width="640" height="420" viewBox="0 0 640 420"><rect x="0.0" y="0.0" width="640.0" height="420.0" fill="#ffffff" fill-opacity="1.0" stroke="none"/><line x1="129.80624999999998" y1="27.0" x2="129.80624999999998" y2="383.8" stroke="#dddddd" stroke-width="1.0"/><line x1="293.15000000000003" y1="27.0" x2="293.15000000000003" y2="383.8" stroke="#dddddd" stroke-width="1.0"/><line x1="456.49375000000003" y1="27.0" x2="456.49375000000003" y2="383.8" stroke="#dddddd" stroke-width="1.0"/><line x1="31.799999999999997" y1="355.4825396825397" x2="554.5" y2="355.4825396825397" stroke="#dddddd" stroke-width="0.5"/><line x1="31.799999999999997" y1="298.84761904761905" x2="554.5" y2="298.84761904761905" stroke="#dddddd" stroke-width="0.5"/><line x1="31.799999999999997" y1="242.21269841269842" x2="554.5" y2="242.21269841269842" stroke="#dddddd" stroke-width="0.5"/><line x1="31.799999999999997" y1="185.57777777777778" x2="554.5" y2="185.57777777777778" stroke="#dddddd" stroke-width="0.5"/><line x1="31.799999999999997" y1="128.94285714285715" x2="554.5" y2="128.94285714285715" stroke="#dddddd" stroke-width="0.5"/><line x1="31.799999999999997" y1="72.30793650793652" x2="554.5" y2="72.30793650793652" stroke="#dddddd" stroke-width="0.5"/><line x1="31.799999999999997" y1="383.8" x2="554.5" y2="383.8" stroke="#dddddd" stroke-width="1.0"/><line x1="31.799999999999997" y1="327.16507936507935" x2="554.5" y2="327.16507936507935" stroke="#dddddd" stroke-width="1.0"/><line x1="31.799999999999997" y1="270.53015873015875" x2="554.5" y2="270.53015873015875" stroke="#dddddd" stroke-width="1.0"/><line x1="31.799999999999997" y1="213.89523809523808" x2="554.5" y2="213.89523809523808" stroke="#dddddd" stroke-width="1.0"/><line x1="31.799999999999997" y1="157.26031746031748" x2="554.5" y2="157.26031746031748" stroke="#dddddd" stroke-width="1.0"/><line x1="31.799999999999997" y1="100.62539682539682" x2="554.5" y2="100.62539682539682" stroke="#dddddd" stroke-width="1.0"/><line x1="31.799999999999997" y1="43.99047619047616" x2="554.5" y2="43.99047619047616" stroke="#dddddd" stroke-width="1.0"/><rect x="31.799999999999997" y="27.0" width="522.7" height="356.8" fill="#ffffff" fill-opacity="0.0" stroke="#444444" stroke-width="1.0"/><line x1="129.80624999999998" y1="383.8" x2="129.80624999999998" y2="386.55" stroke="#444444" stroke-width="1.0"/><text x="129.80624999999998" y="397.55" fill="#333333" font-size="11.0" font-family="sans-serif" text-anchor="middle">A</text><line x1="293.15000000000003" y1="383.8" x2="293.15000000000003" y2="386.55" stroke="#444444" stroke-width="1.0"/><text x="293.15000000000003" y="397.55" fill="#333333" font-size="11.0" font-family="sans-serif" text-anchor="middle">B</text><line x1="456.49375000000003" y1="383.8" x2="456.49375000000003" y2="386.55" stroke="#444444" stroke-width="1.0"/><text x="456.49375000000003" y="397.55" fill="#333333" font-size="11.0" font-family="sans-serif" text-anchor="middle">C</text><line x1="31.799999999999997" y1="383.8" x2="29.049999999999997" y2="383.8" stroke="#444444" stroke-width="1.0"/><text x="26.849999999999998" y="387.65000000000003" fill="#333333" font-size="11.0" font-family="sans-serif" text-anchor="end">0</text><line x1="31.799999999999997" y1="327.16507936507935" x2="29.049999999999997" y2="327.16507936507935" stroke="#444444" stroke-width="1.0"/><text x="26.849999999999998" y="331.0150793650794" fill="#333333" font-size="11.0" font-family="sans-serif" text-anchor="end">1</text><line x1="31.799999999999997" y1="270.53015873015875" x2="29.049999999999997" y2="270.53015873015875" stroke="#444444" stroke-width="1.0"/><text x="26.849999999999998" y="274.38015873015877" fill="#333333" font-size="11.0" font-family="sans-serif" text-anchor="end">2</text><line x1="31.799999999999997" y1="213.89523809523808" x2="29.049999999999997" y2="213.89523809523808" stroke="#444444" stroke-width="1.0"/><text x="26.849999999999998" y="217.74523809523808" fill="#333333" font-size="11.0" font-family="sans-serif" text-anchor="end">3</text><line x1="31.799999999999997" y1="157.26031746031748" x2="29.049999999999997" y2="157.26031746031748" stroke="#444444" stroke-width="1.0"/><text x="26.849999999999998" y="161.11031746031748" fill="#333333" font-size="11.0" font-family="sans-serif" text-anchor="end">4</text><line x1="31.799999999999997" y1="100.62539682539682" x2="29.049999999999997" y2="100.62539682539682" stroke="#444444" stroke-width="1.0"/><text x="26.849999999999998" y="104.47539682539681" fill="#333333" font-size="11.0" font-family="sans-serif" text-anchor="end">5</text><line x1="31.799999999999997" y1="43.99047619047616" x2="29.049999999999997" y2="43.99047619047616" stroke="#444444" stroke-width="1.0"/><text x="26.849999999999998" y="47.84047619047616" fill="#333333" font-size="11.0" font-family="sans-serif" text-anchor="end">6</text><text x="293.15000000000003" y="18.3" fill="#333333" font-size="16.0" font-family="sans-serif" text-anchor="middle">3b. position PosDodge + color</text><text x="293.15000000000003" y="412.1" fill="#333333" font-size="12.0" font-family="sans-serif" text-anchor="middle">群</text><text x="13.899999999999999" y="205.4" fill="#333333" font-size="12.0" font-family="sans-serif" text-anchor="middle" transform="rotate(-90.0 13.899999999999999 205.4)">値</text><rect x="56.301562499999996" y="213.89523809523808" width="73.50468750000003" height="169.90476190476193" fill="#F8766D" fill-opacity="0.85" stroke="none"/><rect x="129.80624999999998" y="270.53015873015875" width="73.50468750000003" height="113.26984126984127" fill="#C49A00" fill-opacity="0.85" stroke="none"/><rect x="219.6453125" y="100.62539682539682" width="73.50468750000003" height="283.1746031746032" fill="#F8766D" fill-opacity="0.85" stroke="none"/><rect x="293.15000000000003" y="157.26031746031748" width="73.50468750000003" height="226.53968253968253" fill="#C49A00" fill-opacity="0.85" stroke="none"/><rect x="382.98906250000005" y="157.26031746031748" width="73.50468750000003" height="226.53968253968253" fill="#F8766D" fill-opacity="0.85" stroke="none"/><rect x="456.49375000000003" y="43.99047619047616" width="73.50468750000003" height="339.80952380952385" fill="#C49A00" fill-opacity="0.85" stroke="none"/><rect x="564.5" y="40.0" width="10.0" height="10.0" fill="#F8766D" fill-opacity="1.0" stroke="#444444" stroke-width="0.5"/><text x="578.5" y="49.0" fill="#333333" font-size="10.0" font-family="sans-serif" text-anchor="start">g1</text><rect x="564.5" y="56.0" width="10.0" height="10.0" fill="#C49A00" fill-opacity="1.0" stroke="#444444" stroke-width="0.5"/><text x="578.5" y="65.0" fill="#333333" font-size="10.0" font-family="sans-serif" text-anchor="start">g2</text></svg>