<svg xmlns="http://www.w3.org/2000/svg" width="640" height="420" viewBox="0 0 640 420"><rect x="0.0" y="0.0" width="640.0" height="420.0" fill="#ffffff" fill-opacity="1.0" stroke="none"/><line x1="150.51363636363635" y1="43.5" x2="150.51363636363635" y2="369.3" stroke="#dddddd" stroke-width="0.5"/><line x1="333.15" y1="43.5" x2="333.15" y2="369.3" stroke="#dddddd" stroke-width="0.5"/><line x1="515.7863636363636" y1="43.5" x2="515.7863636363636" y2="369.3" stroke="#dddddd" stroke-width="0.5"/><line x1="59.195454545454545" y1="43.5" x2="59.195454545454545" y2="369.3" stroke="#dddddd" stroke-width="1.0"/><line x1="241.83181818181816" y1="43.5" x2="241.83181818181816" y2="369.3" stroke="#dddddd" stroke-width="1.0"/><line x1="424.4681818181818" y1="43.5" x2="424.4681818181818" y2="369.3" stroke="#dddddd" stroke-width="1.0"/><line x1="607.1045454545454" y1="43.5" x2="607.1045454545454" y2="369.3" stroke="#dddddd" stroke-width="1.0"/><line x1="31.799999999999997" y1="305.1272727272727" x2="634.5" y2="305.1272727272727" stroke="#dddddd" stroke-width="0.5"/><line x1="31.799999999999997" y1="206.40000000000003" x2="634.5" y2="206.40000000000003" stroke="#dddddd" stroke-width="0.5"/><line x1="31.799999999999997" y1="107.67272727272729" x2="634.5" y2="107.67272727272729" stroke="#dddddd" stroke-width="0.5"/><line x1="31.799999999999997" y1="354.4909090909091" x2="634.5" y2="354.4909090909091" stroke="#dddddd" stroke-width="1.0"/><line x1="31.799999999999997" y1="255.76363636363638" x2="634.5" y2="255.76363636363638" stroke="#dddddd" stroke-width="1.0"/><line x1="31.799999999999997" y1="157.0363636363637" x2="634.5" y2="157.0363636363637" stroke="#dddddd" stroke-width="1.0"/><line x1="31.799999999999997" y1="58.30909090909091" x2="634.5" y2="58.30909090909091" stroke="#dddddd" stroke-width="1.0"/><rect x="31.799999999999997" y="43.5" width="602.7" height="325.8" fill="#ffffff" fill-opacity="0.0" stroke="#444444" stroke-width="1.0"/><line x1="59.195454545454545" y1="369.3" x2="59.195454545454545" y2="372.05" stroke="#444444" stroke-width="1.0"/><text x="59.195454545454545" y="383.05" fill="#333333" font-size="11.0" font-family="sans-serif" text-anchor="middle">1</text><line x1="241.83181818181816" y1="369.3" x2="241.83181818181816" y2="372.05" stroke="#444444" stroke-width="1.0"/><text x="241.83181818181816" y="383.05" fill="#333333" font-size="11.0" font-family="sans-serif" text-anchor="middle">2</text><line x1="424.4681818181818" y1="369.3" x2="424.4681818181818" y2="372.05" stroke="#444444" stroke-width="1.0"/><text x="424.4681818181818" y="383.05" fill="#333333" font-size="11.0" font-family="sans-serif" text-anchor="middle">3</text><line x1="607.1045454545454" y1="369.3" x2="607.1045454545454" y2="372.05" stroke="#444444" stroke-width="1.0"/><text x="607.1045454545454" y="383.05" fill="#333333" font-size="11.0" font-family="sans-serif" text-anchor="middle">4</text><line x1="31.799999999999997" y1="354.4909090909091" x2="29.049999999999997" y2="354.4909090909091" stroke="#444444" stroke-width="1.0"/><text x="26.849999999999998" y="358.3409090909091" fill="#333333" font-size="11.0" font-family="sans-serif" text-anchor="end">1</text><line x1="31.799999999999997" y1="255.76363636363638" x2="29.049999999999997" y2="255.76363636363638" stroke="#444444" stroke-width="1.0"/><text x="26.849999999999998" y="259.6136363636364" fill="#333333" font-size="11.0" font-family="sans-serif" text-anchor="end">2</text><line x1="31.799999999999997" y1="157.0363636363637" x2="29.049999999999997" y2="157.0363636363637" stroke="#444444" stroke-width="1.0"/><text x="26.849999999999998" y="160.88636363636368" fill="#333333" font-size="11.0" font-family="sans-serif" text-anchor="end">3</text><line x1="31.799999999999997" y1="58.30909090909091" x2="29.049999999999997" y2="58.30909090909091" stroke="#444444" stroke-width="1.0"/><text x="26.849999999999998" y="62.159090909090914" fill="#333333" font-size="11.0" font-family="sans-serif" text-anchor="end">4</text><text x="333.15000000000003" y="18.3" fill="#333333" font-size="16.0" font-family="sans-serif" text-anchor="middle">3c. title</text><text x="333.15000000000003" y="32.6" fill="#333333" font-size="11.0" font-family="sans-serif" text-anchor="middle">subtitle (副題)</text><text x="333.15000000000003" y="412.1" fill="#333333" font-size="12.0" font-family="sans-serif" text-anchor="middle">x 軸</text><text x="13.899999999999999" y="206.4" fill="#333333" font-size="12.0" font-family="sans-serif" text-anchor="middle" transform="rotate(-90.0 13.899999999999999 206.4)">y 軸</text><text x="634.5" y="414.5" fill="#333333" font-size="9.0" font-family="sans-serif" text-anchor="end">caption (脚注)</text><circle cx="59.195454545454545" cy="255.76363636363638" r="6.0" fill="#1f77b4" fill-opacity="0.85" stroke="#1f77b4" stroke-width="1.0"><title>(1, 2)</title></circle><circle cx="241.83181818181816" cy="157.0363636363637" r="6.0" fill="#1f77b4" fill-opacity="0.85" stroke="#1f77b4" stroke-width="1.0"><title>(2, 3)</title></circle><circle cx="424.4681818181818" cy="354.4909090909091" r="6.0" fill="#1f77b4" fill-opacity="0.85" stroke="#1f77b4" stroke-width="1.0"><title>(3, 1)</title></circle><circle cx="607.1045454545454" cy="58.30909090909091" r="6.0" fill="#1f77b4" fill-opacity="0.85" stroke="#1f77b4" stroke-width="1.0"><title>(4, 4)</title></circle><circle cx="59.195454545454545" cy="157.0363636363637" r="6.0" fill="#1f77b4" fill-opacity="0.85" stroke="#1f77b4" stroke-width="1.0"><title>(1, 3)</title></circle><circle cx="241.83181818181816" cy="354.4909090909091" r="6.0" fill="#1f77b4" fill-opacity="0.85" stroke="#1f77b4" stroke-width="1.0"><title>(2, 1)</title></circle><circle cx="424.4681818181818" cy="58.30909090909091" r="6.0" fill="#1f77b4" fill-opacity="0.85" stroke="#1f77b4" stroke-width="1.0"><title>(3, 4)</title></circle><circle cx="607.1045454545454" cy="255.76363636363638" r="6.0" fill="#1f77b4" fill-opacity="0.85" stroke="#1f77b4" stroke-width="1.0"><title>(4, 2)</title></circle></svg>