<svg xmlns="http://www.w3.org/2000/svg" width="640" height="420" viewBox="0 0 640 420"><rect x="0.0" y="0.0" width="640.0" height="420.0" fill="#ffffff" fill-opacity="1.0" stroke="none"/><line x1="122.91136363636363" y1="27.0" x2="122.91136363636363" y2="398.55" stroke="#dddddd" stroke-width="0.5"/><line x1="285.775" y1="27.0" x2="285.775" y2="398.55" stroke="#dddddd" stroke-width="0.5"/><line x1="448.6386363636364" y1="27.0" x2="448.6386363636364" y2="398.55" stroke="#dddddd" stroke-width="0.5"/><line x1="41.47954545454546" y1="27.0" x2="41.47954545454546" y2="398.55" stroke="#dddddd" stroke-width="1.0"/><line x1="204.3431818181818" y1="27.0" x2="204.3431818181818" y2="398.55" stroke="#dddddd" stroke-width="1.0"/><line x1="367.20681818181816" y1="27.0" x2="367.20681818181816" y2="398.55" stroke="#dddddd" stroke-width="1.0"/><line x1="530.0704545454545" y1="27.0" x2="530.0704545454545" y2="398.55" stroke="#dddddd" stroke-width="1.0"/><line x1="17.049999999999997" y1="325.3659090909091" x2="554.5" y2="325.3659090909091" stroke="#dddddd" stroke-width="0.5"/><line x1="17.049999999999997" y1="212.77500000000003" x2="554.5" y2="212.77500000000003" stroke="#dddddd" stroke-width="0.5"/><line x1="17.049999999999997" y1="100.18409090909091" x2="554.5" y2="100.18409090909091" stroke="#dddddd" stroke-width="0.5"/><line x1="17.049999999999997" y1="381.66136363636366" x2="554.5" y2="381.66136363636366" stroke="#dddddd" stroke-width="1.0"/><line x1="17.049999999999997" y1="269.0704545454546" x2="554.5" y2="269.0704545454546" stroke="#dddddd" stroke-width="1.0"/><line x1="17.049999999999997" y1="156.4795454545455" x2="554.5" y2="156.4795454545455" stroke="#dddddd" stroke-width="1.0"/><line x1="17.049999999999997" y1="43.88863636363641" x2="554.5" y2="43.88863636363641" stroke="#dddddd" stroke-width="1.0"/><rect x="17.049999999999997" y="27.0" width="537.45" height="371.55" fill="#ffffff" fill-opacity="0.0" stroke="#444444" stroke-width="1.0"/><line x1="41.47954545454546" y1="398.55" x2="41.47954545454546" y2="401.3" stroke="#444444" stroke-width="1.0"/><text x="41.47954545454546" y="412.3" fill="#333333" font-size="11.0" font-family="sans-serif" text-anchor="middle">1</text><line x1="204.3431818181818" y1="398.55" x2="204.3431818181818" y2="401.3" stroke="#444444" stroke-width="1.0"/><text x="204.3431818181818" y="412.3" fill="#333333" font-size="11.0" font-family="sans-serif" text-anchor="middle">2</text><line x1="367.20681818181816" y1="398.55" x2="367.20681818181816" y2="401.3" stroke="#444444" stroke-width="1.0"/><text x="367.20681818181816" y="412.3" fill="#333333" font-size="11.0" font-family="sans-serif" text-anchor="middle">3</text><line x1="530.0704545454545" y1="398.55" x2="530.0704545454545" y2="401.3" stroke="#444444" stroke-width="1.0"/><text x="530.0704545454545" y="412.3" fill="#333333" font-size="11.0" font-family="sans-serif" text-anchor="middle">4</text><line x1="17.049999999999997" y1="381.66136363636366" x2="14.299999999999997" y2="381.66136363636366" stroke="#444444" stroke-width="1.0"/><text x="12.099999999999998" y="385.5113636363637" fill="#333333" font-size="11.0" font-family="sans-serif" text-anchor="end">1</text><line x1="17.049999999999997" y1="269.0704545454546" x2="14.299999999999997" y2="269.0704545454546" stroke="#444444" stroke-width="1.0"/><text x="12.099999999999998" y="272.9204545454546" fill="#333333" font-size="11.0" font-family="sans-serif" text-anchor="end">2</text><line x1="17.049999999999997" y1="156.4795454545455" x2="14.299999999999997" y2="156.4795454545455" stroke="#444444" stroke-width="1.0"/><text x="12.099999999999998" y="160.3295454545455" fill="#333333" font-size="11.0" font-family="sans-serif" text-anchor="end">3</text><line x1="17.049999999999997" y1="43.88863636363641" x2="14.299999999999997" y2="43.88863636363641" stroke="#444444" stroke-width="1.0"/><text x="12.099999999999998" y="47.73863636363641" fill="#333333" font-size="11.0" font-family="sans-serif" text-anchor="end">4</text><text x="285.77500000000003" y="18.3" fill="#333333" font-size="16.0" font-family="sans-serif" text-anchor="middle">3d. scaleColorGradient2 (連続色)</text><circle cx="41.47954545454546" cy="269.0704545454546" r="9.0" fill="#2166ac" fill-opacity="0.85" stroke="#2166ac" stroke-width="1.0"><title>(1, 2)</title></circle><circle cx="204.3431818181818" cy="156.4795454545455" r="9.0" fill="#c2d3e4" fill-opacity="0.85" stroke="#c2d3e4" stroke-width="1.0"><title>(2, 3)</title></circle><circle cx="367.20681818181816" cy="381.66136363636366" r="9.0" fill="#c9626f" fill-opacity="0.85" stroke="#c9626f" stroke-width="1.0"><title>(3, 1)</title></circle><circle cx="530.0704545454545" cy="43.88863636363641" r="9.0" fill="#568abf" fill-opacity="0.85" stroke="#568abf" stroke-width="1.0"><title>(4, 4)</title></circle><circle cx="41.47954545454546" cy="156.4795454545455" r="9.0" fill="#f7f7f7" fill-opacity="0.85" stroke="#f7f7f7" stroke-width="1.0"><title>(1, 3)</title></circle><circle cx="204.3431818181818" cy="381.66136363636366" r="9.0" fill="#b2182b" fill-opacity="0.85" stroke="#b2182b" stroke-width="1.0"><title>(2, 1)</title></circle><circle cx="367.20681818181816" cy="43.88863636363641" r="9.0" fill="#8caed2" fill-opacity="0.85" stroke="#8caed2" stroke-width="1.0"><title>(3, 4)</title></circle><circle cx="530.0704545454545" cy="269.0704545454546" r="9.0" fill="#e0adb3" fill-opacity="0.85" stroke="#e0adb3" stroke-width="1.0"><title>(4, 2)</title></circle><rect x="564.5" y="164.0" width="14.0" height="3.5" fill="#2166ac" fill-opacity="1.0" stroke="none"/><rect x="564.5" y="161.0" width="14.0" height="3.5" fill="#2c6db0" fill-opacity="1.0" stroke="none"/><rect x="564.5" y="158.0" width="14.0" height="3.5" fill="#3775b4" fill-opacity="1.0" stroke="none"/><rect x="564.5" y="155.0" width="14.0" height="3.5" fill="#427cb8" fill-opacity="1.0" stroke="none"/><rect x="564.5" y="152.0" width="14.0" height="3.5" fill="#4d84bb" fill-opacity="1.0" stroke="none"/><rect x="564.5" y="149.0" width="14.0" height="3.5" fill="#588bbf" fill-opacity="1.0" stroke="none"/><rect x="564.5" y="146.0" width="14.0" height="3.5" fill="#6393c3" fill-opacity="1.0" stroke="none"/><rect x="564.5" y="143.0" width="14.0" height="3.5" fill="#6e9ac7" fill-opacity="1.0" stroke="none"/><rect x="564.5" y="140.0" width="14.0" height="3.5" fill="#79a1cb" fill-opacity="1.0" stroke="none"/><rect x="564.5" y="137.0" width="14.0" height="3.5" fill="#84a9cf" fill-opacity="1.0" stroke="none"/><rect x="564.5" y="134.0" width="14.0" height="3.5" fill="#8fb0d2" fill-opacity="1.0" stroke="none"/><rect x="564.5" y="131.0" width="14.0" height="3.5" fill="#9ab8d6" fill-opacity="1.0" stroke="none"/><rect x="564.5" y="128.0" width="14.0" height="3.5" fill="#a5bfda" fill-opacity="1.0" stroke="none"/><rect x="564.5" y="125.0" width="14.0" height="3.5" fill="#b0c7de" fill-opacity="1.0" stroke="none"/><rect x="564.5" y="122.0" width="14.0" height="3.5" fill="#bbcee2" fill-opacity="1.0" stroke="none"/><rect x="564.5" y="119.0" width="14.0" height="3.5" fill="#c6d6e6" fill-opacity="1.0" stroke="none"/><rect x="564.5" y="116.0" width="14.0" height="3.5" fill="#d1ddea" fill-opacity="1.0" stroke="none"/><rect x="564.5" y="113.0" width="14.0" height="3.5" fill="#dce4ed" fill-opacity="1.0" stroke="none"/><rect x="564.5" y="110.0" width="14.0" height="3.5" fill="#e7ecf1" fill-opacity="1.0" stroke="none"/><rect x="564.5" y="107.0" width="14.0" height="3.5" fill="#f2f3f5" fill-opacity="1.0" stroke="none"/><rect x="564.5" y="104.0" width="14.0" height="3.5" fill="#f5f1f2" fill-opacity="1.0" stroke="none"/><rect x="564.5" y="101.0" width="14.0" height="3.5" fill="#f2e6e7" fill-opacity="1.0" stroke="none"/><rect x="564.5" y="98.0" width="14.0" height="3.5" fill="#eedadd" fill-opacity="1.0" stroke="none"/><rect x="564.5" y="95.0" width="14.0" height="3.5" fill="#ebcfd2" fill-opacity="1.0" stroke="none"/><rect x="564.5" y="92.0" width="14.0" height="3.5" fill="#e7c4c8" fill-opacity="1.0" stroke="none"/><rect x="564.5" y="89.0" width="14.0" height="3.5" fill="#e4b8bd" fill-opacity="1.0" stroke="none"/><rect x="564.5" y="86.0" width="14.0" height="3.5" fill="#e0adb3" fill-opacity="1.0" stroke="none"/><rect x="564.5" y="83.0" width="14.0" height="3.5" fill="#dca1a9" fill-opacity="1.0" stroke="none"/><rect x="564.5" y="80.0" width="14.0" height="3.5" fill="#d9969e" fill-opacity="1.0" stroke="none"/><rect x="564.5" y="77.0" width="14.0" height="3.5" fill="#d58a94" fill-opacity="1.0" stroke="none"/><rect x="564.5" y="74.0" width="14.0" height="3.5" fill="#d27f89" fill-opacity="1.0" stroke="none"/><rect x="564.5" y="71.0" width="14.0" height="3.5" fill="#ce737f" fill-opacity="1.0" stroke="none"/><rect x="564.5" y="68.0" width="14.0" height="3.5" fill="#cb6874" fill-opacity="1.0" stroke="none"/><rect x="564.5" y="65.0" width="14.0" height="3.5" fill="#c75d6a" fill-opacity="1.0" stroke="none"/><rect x="564.5" y="62.0" width="14.0" height="3.5" fill="#c4515f" fill-opacity="1.0" stroke="none"/><rect x="564.5" y="59.0" width="14.0" height="3.5" fill="#c04655" fill-opacity="1.0" stroke="none"/><rect x="564.5" y="56.0" width="14.0" height="3.5" fill="#bd3a4a" fill-opacity="1.0" stroke="none"/><rect x="564.5" y="53.0" width="14.0" height="3.5" fill="#b92f40" fill-opacity="1.0" stroke="none"/><rect x="564.5" y="50.0" width="14.0" height="3.5" fill="#b62335" fill-opacity="1.0" stroke="none"/><rect x="564.5" y="47.0" width="14.0" height="3.5" fill="#b2182b" fill-opacity="1.0" stroke="none"/><text x="582.5" y="51.0" fill="#333333" font-size="10.0" font-family="sans-serif" text-anchor="start">4.5</text><text x="582.5" y="111.0" fill="#333333" font-size="10.0" font-family="sans-serif" text-anchor="start">2.75</text><text x="582.5" y="171.0" fill="#333333" font-size="10.0" font-family="sans-serif" text-anchor="start">1</text></svg>