<svg xmlns="http://www.w3.org/2000/svg" width="640" height="420" viewBox="0 0 640 420"><rect x="0.0" y="0.0" width="640.0" height="420.0" fill="#ffffff" fill-opacity="1.0" stroke="none"/><line x1="126.28655303030303" y1="27.0" x2="126.28655303030303" y2="398.55" stroke="#dddddd" stroke-width="0.5"/><line x1="238.2278409090909" y1="27.0" x2="238.2278409090909" y2="398.55" stroke="#dddddd" stroke-width="0.5"/><line x1="350.1691287878787" y1="27.0" x2="350.1691287878787" y2="398.55" stroke="#dddddd" stroke-width="0.5"/><line x1="462.11041666666665" y1="27.0" x2="462.11041666666665" y2="398.55" stroke="#dddddd" stroke-width="0.5"/><line x1="574.0517045454545" y1="27.0" x2="574.0517045454545" y2="398.55" stroke="#dddddd" stroke-width="0.5"/><line x1="70.31590909090909" y1="27.0" x2="70.31590909090909" y2="398.55" stroke="#dddddd" stroke-width="1.0"/><line x1="182.25719696969696" y1="27.0" x2="182.25719696969696" y2="398.55" stroke="#dddddd" stroke-width="1.0"/><line x1="294.19848484848484" y1="27.0" x2="294.19848484848484" y2="398.55" stroke="#dddddd" stroke-width="1.0"/><line x1="406.1397727272727" y1="27.0" x2="406.1397727272727" y2="398.55" stroke="#dddddd" stroke-width="1.0"/><line x1="518.0810606060605" y1="27.0" x2="518.0810606060605" y2="398.55" stroke="#dddddd" stroke-width="1.0"/><line x1="630.0223484848485" y1="27.0" x2="630.0223484848485" y2="398.55" stroke="#dddddd" stroke-width="1.0"/><line x1="43.45" y1="328.88437500000003" x2="634.5" y2="328.88437500000003" stroke="#dddddd" stroke-width="1.0"/><line x1="43.45" y1="212.775" x2="634.5" y2="212.775" stroke="#dddddd" stroke-width="1.0"/><line x1="43.45" y1="96.66562499999998" x2="634.5" y2="96.66562499999998" stroke="#dddddd" stroke-width="1.0"/><rect x="43.45" y="27.0" width="591.05" height="371.55" fill="#ffffff" fill-opacity="0.0" stroke="#444444" stroke-width="1.0"/><line x1="70.31590909090909" y1="398.55" x2="70.31590909090909" y2="401.3" stroke="#444444" stroke-width="1.0"/><text x="70.31590909090909" y="412.3" fill="#333333" font-size="11.0" font-family="sans-serif" text-anchor="middle">0</text><line x1="182.25719696969696" y1="398.55" x2="182.25719696969696" y2="401.3" stroke="#444444" stroke-width="1.0"/><text x="182.25719696969696" y="412.3" fill="#333333" font-size="11.0" font-family="sans-serif" text-anchor="middle">0.5</text><line x1="294.19848484848484" y1="398.55" x2="294.19848484848484" y2="401.3" stroke="#444444" stroke-width="1.0"/><text x="294.19848484848484" y="412.3" fill="#333333" font-size="11.0" font-family="sans-serif" text-anchor="middle">1</text><line x1="406.1397727272727" y1="398.55" x2="406.1397727272727" y2="401.3" stroke="#444444" stroke-width="1.0"/><text x="406.1397727272727" y="412.3" fill="#333333" font-size="11.0" font-family="sans-serif" text-anchor="middle">1.5</text><line x1="518.0810606060605" y1="398.55" x2="518.0810606060605" y2="401.3" stroke="#444444" stroke-width="1.0"/><text x="518.0810606060605" y="412.3" fill="#333333" font-size="11.0" font-family="sans-serif" text-anchor="middle">2</text><line x1="630.0223484848485" y1="398.55" x2="630.0223484848485" y2="401.3" stroke="#444444" stroke-width="1.0"/><text x="630.0223484848485" y="412.3" fill="#333333" font-size="11.0" font-family="sans-serif" text-anchor="middle">2.5</text><line x1="43.45" y1="328.88437500000003" x2="40.7" y2="328.88437500000003" stroke="#444444" stroke-width="1.0"/><text x="38.5" y="332.73437500000006" fill="#333333" font-size="11.0" font-family="sans-serif" text-anchor="end">sigma</text><line x1="43.45" y1="212.775" x2="40.7" y2="212.775" stroke="#444444" stroke-width="1.0"/><text x="38.5" y="216.625" fill="#333333" font-size="11.0" font-family="sans-serif" text-anchor="end">b0</text><line x1="43.45" y1="96.66562499999998" x2="40.7" y2="96.66562499999998" stroke="#444444" stroke-width="1.0"/><text x="38.5" y="100.51562499999997" fill="#333333" font-size="11.0" font-family="sans-serif" text-anchor="end">b1</text><text x="338.97499999999997" y="18.3" fill="#333333" font-size="16.0" font-family="sans-serif" text-anchor="middle">3d. scaleYDiscreteLimits ─ forest の行選択 + 並べ替え</text><line x1="70.31590909090909" y1="27.0" x2="70.31590909090909" y2="398.55" stroke="#888" stroke-width="1.0"/><line x1="428.52803030303033" y1="96.66562499999998" x2="607.6340909090909" y2="96.66562499999998" stroke="#1f77b4" stroke-width="1.5"/><circle cx="518.0810606060605" cy="96.66562499999998" r="3.0" fill="#1f77b4" fill-opacity="0.9" stroke="#1f77b4" stroke-width="1.0"/><line x1="249.4219696969697" y1="212.775" x2="338.9749999999999" y2="212.775" stroke="#1f77b4" stroke-width="1.5"/><circle cx="294.19848484848484" cy="212.775" r="3.0" fill="#1f77b4" fill-opacity="0.9" stroke="#1f77b4" stroke-width="1.0"/><line x1="126.28655303030303" y1="328.88437500000003" x2="148.6748106060606" y2="328.88437500000003" stroke="#1f77b4" stroke-width="1.5"/><circle cx="137.4806818181818" cy="328.88437500000003" r="3.0" fill="#1f77b4" fill-opacity="0.9" stroke="#1f77b4" stroke-width="1.0"/></svg>