<svg xmlns="http://www.w3.org/2000/svg" width="640" height="420" viewBox="0 0 640 420"><rect x="0.0" y="0.0" width="640.0" height="420.0" fill="#ffffff" fill-opacity="1.0" stroke="none"/><line x1="130.5096105050505" y1="32.266666666666666" x2="130.5096105050505" y2="394.3333333333333" stroke="#dddddd" stroke-width="0.6666666666666666"/><line x1="299.0269599999999" y1="32.266666666666666" x2="299.0269599999999" y2="394.3333333333333" stroke="#dddddd" stroke-width="0.6666666666666666"/><line x1="467.54430949494946" y1="32.266666666666666" x2="467.54430949494946" y2="394.3333333333333" stroke="#dddddd" stroke-width="0.6666666666666666"/><line x1="46.25093575757576" y1="32.266666666666666" x2="46.25093575757576" y2="394.3333333333333" stroke="#dddddd" stroke-width="1.3333333333333333"/><line x1="214.7682852525252" y1="32.266666666666666" x2="214.7682852525252" y2="394.3333333333333" stroke="#dddddd" stroke-width="1.3333333333333333"/><line x1="383.2856347474747" y1="32.266666666666666" x2="383.2856347474747" y2="394.3333333333333" stroke="#dddddd" stroke-width="1.3333333333333333"/><line x1="551.8029842424241" y1="32.266666666666666" x2="551.8029842424241" y2="394.3333333333333" stroke="#dddddd" stroke-width="1.3333333333333333"/><line x1="20.973333333333333" y1="323.01717171717166" x2="577.0805866666667" y2="323.01717171717166" stroke="#dddddd" stroke-width="0.6666666666666666"/><line x1="20.973333333333333" y1="213.3" x2="577.0805866666667" y2="213.3" stroke="#dddddd" stroke-width="0.6666666666666666"/><line x1="20.973333333333333" y1="103.58282828282827" x2="577.0805866666667" y2="103.58282828282827" stroke="#dddddd" stroke-width="0.6666666666666666"/><line x1="20.973333333333333" y1="377.8757575757575" x2="577.0805866666667" y2="377.8757575757575" stroke="#dddddd" stroke-width="1.3333333333333333"/><line x1="20.973333333333333" y1="268.15858585858587" x2="577.0805866666667" y2="268.15858585858587" stroke="#dddddd" stroke-width="1.3333333333333333"/><line x1="20.973333333333333" y1="158.44141414141419" x2="577.0805866666667" y2="158.44141414141419" stroke="#dddddd" stroke-width="1.3333333333333333"/><line x1="20.973333333333333" y1="48.72424242424245" x2="577.0805866666667" y2="48.72424242424245" stroke="#dddddd" stroke-width="1.3333333333333333"/><rect x="20.973333333333333" y="32.266666666666666" width="556.1072533333333" height="362.06666666666666" fill="#ffffff" fill-opacity="0.0" stroke="#444444" stroke-width="1.3333333333333333"/><line x1="46.25093575757576" y1="394.3333333333333" x2="46.25093575757576" y2="398.0" stroke="#444444" stroke-width="1.3333333333333333"/><text x="46.25093575757576" y="410.32" fill="#333333" font-size="11.733333333333334" font-family="sans-serif" text-anchor="middle">1</text><line x1="214.7682852525252" y1="394.3333333333333" x2="214.7682852525252" y2="398.0" stroke="#444444" stroke-width="1.3333333333333333"/><text x="214.7682852525252" y="410.32" fill="#333333" font-size="11.733333333333334" font-family="sans-serif" text-anchor="middle">2</text><line x1="383.2856347474747" y1="394.3333333333333" x2="383.2856347474747" y2="398.0" stroke="#444444" stroke-width="1.3333333333333333"/><text x="383.2856347474747" y="410.32" fill="#333333" font-size="11.733333333333334" font-family="sans-serif" text-anchor="middle">3</text><line x1="551.8029842424241" y1="394.3333333333333" x2="551.8029842424241" y2="398.0" stroke="#444444" stroke-width="1.3333333333333333"/><text x="551.8029842424241" y="410.32" fill="#333333" font-size="11.733333333333334" font-family="sans-serif" text-anchor="middle">4</text><line x1="20.973333333333333" y1="377.8757575757575" x2="17.306666666666665" y2="377.8757575757575" stroke="#444444" stroke-width="1.3333333333333333"/><text x="14.373333333333335" y="381.98242424242414" fill="#333333" font-size="11.733333333333334" font-family="sans-serif" text-anchor="end">1</text><line x1="20.973333333333333" y1="268.15858585858587" x2="17.306666666666665" y2="268.15858585858587" stroke="#444444" stroke-width="1.3333333333333333"/><text x="14.373333333333335" y="272.26525252525255" fill="#333333" font-size="11.733333333333334" font-family="sans-serif" text-anchor="end">2</text><line x1="20.973333333333333" y1="158.44141414141419" x2="17.306666666666665" y2="158.44141414141419" stroke="#444444" stroke-width="1.3333333333333333"/><text x="14.373333333333335" y="162.54808080808084" fill="#333333" font-size="11.733333333333334" font-family="sans-serif" text-anchor="end">3</text><line x1="20.973333333333333" y1="48.72424242424245" x2="17.306666666666665" y2="48.72424242424245" stroke="#444444" stroke-width="1.3333333333333333"/><text x="14.373333333333335" y="52.83090909090911" fill="#333333" font-size="11.733333333333334" font-family="sans-serif" text-anchor="end">4</text><text x="20.973333333333333" y="21.413333333333334" fill="#333333" font-size="17.599999999999998" font-family="sans-serif" text-anchor="start">3d. scaleColorGradient2 (連続色)</text><circle cx="46.25093575757576" cy="268.15858585858587" r="6.0" fill="#2166ac" fill-opacity="0.85" stroke="none"><title>(1, 2)</title></circle><circle cx="214.7682852525252" cy="158.44141414141419" r="6.0" fill="#c2d3e4" fill-opacity="0.85" stroke="none"><title>(2, 3)</title></circle><circle cx="383.2856347474747" cy="377.8757575757575" r="6.0" fill="#c9626f" fill-opacity="0.85" stroke="none"><title>(3, 1)</title></circle><circle cx="551.8029842424241" cy="48.72424242424245" r="6.0" fill="#568abf" fill-opacity="0.85" stroke="none"><title>(4, 4)</title></circle><circle cx="46.25093575757576" cy="158.44141414141419" r="6.0" fill="#f7f7f7" fill-opacity="0.85" stroke="none"><title>(1, 3)</title></circle><circle cx="214.7682852525252" cy="377.8757575757575" r="6.0" fill="#b2182b" fill-opacity="0.85" stroke="none"><title>(2, 1)</title></circle><circle cx="383.2856347474747" cy="48.72424242424245" r="6.0" fill="#8caed2" fill-opacity="0.85" stroke="none"><title>(3, 4)</title></circle><circle cx="551.8029842424241" cy="268.15858585858587" r="6.0" fill="#e0adb3" fill-opacity="0.85" stroke="none"><title>(4, 2)</title></circle><rect x="591.7472533333333" y="289.93333333333334" width="23.114079999999994" height="4.699999999999999" fill="#2166ac" fill-opacity="1.0" stroke="none"/><rect x="591.7472533333333" y="285.9" width="23.114079999999994" height="4.699999999999999" fill="#2c6db0" fill-opacity="1.0" stroke="none"/><rect x="591.7472533333333" y="281.8666666666667" width="23.114079999999994" height="4.699999999999999" fill="#3775b4" fill-opacity="1.0" stroke="none"/><rect x="591.7472533333333" y="277.83333333333337" width="23.114079999999994" height="4.699999999999999" fill="#427cb8" fill-opacity="1.0" stroke="none"/><rect x="591.7472533333333" y="273.8" width="23.114079999999994" height="4.699999999999999" fill="#4d84bb" fill-opacity="1.0" stroke="none"/><rect x="591.7472533333333" y="269.76666666666665" width="23.114079999999994" height="4.699999999999999" fill="#588bbf" fill-opacity="1.0" stroke="none"/><rect x="591.7472533333333" y="265.73333333333335" width="23.114079999999994" height="4.699999999999999" fill="#6393c3" fill-opacity="1.0" stroke="none"/><rect x="591.7472533333333" y="261.7" width="23.114079999999994" height="4.699999999999999" fill="#6e9ac7" fill-opacity="1.0" stroke="none"/><rect x="591.7472533333333" y="257.6666666666667" width="23.114079999999994" height="4.699999999999999" fill="#79a1cb" fill-opacity="1.0" stroke="none"/><rect x="591.7472533333333" y="253.63333333333335" width="23.114079999999994" height="4.699999999999999" fill="#84a9cf" fill-opacity="1.0" stroke="none"/><rect x="591.7472533333333" y="249.60000000000002" width="23.114079999999994" height="4.699999999999999" fill="#8fb0d2" fill-opacity="1.0" stroke="none"/><rect x="591.7472533333333" y="245.56666666666666" width="23.114079999999994" height="4.699999999999999" fill="#9ab8d6" fill-opacity="1.0" stroke="none"/><rect x="591.7472533333333" y="241.53333333333333" width="23.114079999999994" height="4.699999999999999" fill="#a5bfda" fill-opacity="1.0" stroke="none"/><rect x="591.7472533333333" y="237.50000000000003" width="23.114079999999994" height="4.699999999999999" fill="#b0c7de" fill-opacity="1.0" stroke="none"/><rect x="591.7472533333333" y="233.4666666666667" width="23.114079999999994" height="4.699999999999999" fill="#bbcee2" fill-opacity="1.0" stroke="none"/><rect x="591.7472533333333" y="229.43333333333334" width="23.114079999999994" height="4.699999999999999" fill="#c6d6e6" fill-opacity="1.0" stroke="none"/><rect x="591.7472533333333" y="225.4" width="23.114079999999994" height="4.699999999999999" fill="#d1ddea" fill-opacity="1.0" stroke="none"/><rect x="591.7472533333333" y="221.36666666666667" width="23.114079999999994" height="4.699999999999999" fill="#dce4ed" fill-opacity="1.0" stroke="none"/><rect x="591.7472533333333" y="217.33333333333337" width="23.114079999999994" height="4.699999999999999" fill="#e7ecf1" fill-opacity="1.0" stroke="none"/><rect x="591.7472533333333" y="213.3" width="23.114079999999994" height="4.699999999999999" fill="#f2f3f5" fill-opacity="1.0" stroke="none"/><rect x="591.7472533333333" y="209.26666666666668" width="23.114079999999994" height="4.699999999999999" fill="#f5f1f2" fill-opacity="1.0" stroke="none"/><rect x="591.7472533333333" y="205.23333333333335" width="23.114079999999994" height="4.699999999999999" fill="#f2e6e7" fill-opacity="1.0" stroke="none"/><rect x="591.7472533333333" y="201.2" width="23.114079999999994" height="4.699999999999999" fill="#eedadd" fill-opacity="1.0" stroke="none"/><rect x="591.7472533333333" y="197.16666666666669" width="23.114079999999994" height="4.699999999999999" fill="#ebcfd2" fill-opacity="1.0" stroke="none"/><rect x="591.7472533333333" y="193.13333333333335" width="23.114079999999994" height="4.699999999999999" fill="#e7c4c8" fill-opacity="1.0" stroke="none"/><rect x="591.7472533333333" y="189.10000000000002" width="23.114079999999994" height="4.699999999999999" fill="#e4b8bd" fill-opacity="1.0" stroke="none"/><rect x="591.7472533333333" y="185.06666666666672" width="23.114079999999994" height="4.699999999999999" fill="#e0adb3" fill-opacity="1.0" stroke="none"/><rect x="591.7472533333333" y="181.03333333333333" width="23.114079999999994" height="4.699999999999999" fill="#dca1a9" fill-opacity="1.0" stroke="none"/><rect x="591.7472533333333" y="177.00000000000003" width="23.114079999999994" height="4.699999999999999" fill="#d9969e" fill-opacity="1.0" stroke="none"/><rect x="591.7472533333333" y="172.9666666666667" width="23.114079999999994" height="4.699999999999999" fill="#d58a94" fill-opacity="1.0" stroke="none"/><rect x="591.7472533333333" y="168.93333333333334" width="23.114079999999994" height="4.699999999999999" fill="#d27f89" fill-opacity="1.0" stroke="none"/><rect x="591.7472533333333" y="164.90000000000003" width="23.114079999999994" height="4.699999999999999" fill="#ce737f" fill-opacity="1.0" stroke="none"/><rect x="591.7472533333333" y="160.86666666666667" width="23.114079999999994" height="4.699999999999999" fill="#cb6874" fill-opacity="1.0" stroke="none"/><rect x="591.7472533333333" y="156.83333333333334" width="23.114079999999994" height="4.699999999999999" fill="#c75d6a" fill-opacity="1.0" stroke="none"/><rect x="591.7472533333333" y="152.8" width="23.114079999999994" height="4.699999999999999" fill="#c4515f" fill-opacity="1.0" stroke="none"/><rect x="591.7472533333333" y="148.76666666666668" width="23.114079999999994" height="4.699999999999999" fill="#c04655" fill-opacity="1.0" stroke="none"/><rect x="591.7472533333333" y="144.73333333333335" width="23.114079999999994" height="4.699999999999999" fill="#bd3a4a" fill-opacity="1.0" stroke="none"/><rect x="591.7472533333333" y="140.70000000000002" width="23.114079999999994" height="4.699999999999999" fill="#b92f40" fill-opacity="1.0" stroke="none"/><rect x="591.7472533333333" y="136.66666666666669" width="23.114079999999994" height="4.699999999999999" fill="#b62335" fill-opacity="1.0" stroke="none"/><rect x="591.7472533333333" y="132.63333333333335" width="23.114079999999994" height="4.699999999999999" fill="#b2182b" fill-opacity="1.0" stroke="none"/><text x="618.528" y="297.72133333333335" fill="#333333" font-size="11.733333333333334" font-family="sans-serif" text-anchor="start">1</text><text x="618.528" y="251.62609523809525" fill="#333333" font-size="11.733333333333334" font-family="sans-serif" text-anchor="start">2</text><text x="618.528" y="205.53085714285714" fill="#333333" font-size="11.733333333333334" font-family="sans-serif" text-anchor="start">3</text><text x="618.528" y="159.43561904761907" fill="#333333" font-size="11.733333333333334" font-family="sans-serif" text-anchor="start">4</text></svg>