<svg xmlns="http://www.w3.org/2000/svg" width="640" height="420" viewBox="0 0 640 420"><rect x="0.0" y="0.0" width="640.0" height="420.0" fill="#222222" fill-opacity="1.0" stroke="none"/><line x1="138.6689393939394" y1="27.0" x2="138.6689393939394" y2="398.55" stroke="#444444" stroke-width="0.5"/><line x1="325.775" y1="27.0" x2="325.775" y2="398.55" stroke="#444444" stroke-width="0.5"/><line x1="512.8810606060606" y1="27.0" x2="512.8810606060606" y2="398.55" stroke="#444444" stroke-width="0.5"/><line x1="45.11590909090909" y1="27.0" x2="45.11590909090909" y2="398.55" stroke="#444444" stroke-width="1.0"/><line x1="232.22196969696967" y1="27.0" x2="232.22196969696967" y2="398.55" stroke="#444444" stroke-width="1.0"/><line x1="419.3280303030303" y1="27.0" x2="419.3280303030303" y2="398.55" stroke="#444444" stroke-width="1.0"/><line x1="606.4340909090909" y1="27.0" x2="606.4340909090909" y2="398.55" stroke="#444444" stroke-width="1.0"/><line x1="17.049999999999997" y1="325.3659090909091" x2="634.5" y2="325.3659090909091" stroke="#444444" stroke-width="0.5"/><line x1="17.049999999999997" y1="212.77500000000003" x2="634.5" y2="212.77500000000003" stroke="#444444" stroke-width="0.5"/><line x1="17.049999999999997" y1="100.18409090909091" x2="634.5" y2="100.18409090909091" stroke="#444444" stroke-width="0.5"/><line x1="17.049999999999997" y1="381.66136363636366" x2="634.5" y2="381.66136363636366" stroke="#444444" stroke-width="1.0"/><line x1="17.049999999999997" y1="269.0704545454546" x2="634.5" y2="269.0704545454546" stroke="#444444" stroke-width="1.0"/><line x1="17.049999999999997" y1="156.4795454545455" x2="634.5" y2="156.4795454545455" stroke="#444444" stroke-width="1.0"/><line x1="17.049999999999997" y1="43.88863636363641" x2="634.5" y2="43.88863636363641" stroke="#444444" stroke-width="1.0"/><rect x="17.049999999999997" y="27.0" width="617.45" height="371.55" fill="#222222" fill-opacity="0.0" stroke="#cccccc" stroke-width="1.0"/><line x1="45.11590909090909" y1="398.55" x2="45.11590909090909" y2="401.3" stroke="#cccccc" stroke-width="1.0"/><text x="45.11590909090909" y="412.3" fill="#eeeeee" font-size="11.0" font-family="sans-serif" text-anchor="middle">1</text><line x1="232.22196969696967" y1="398.55" x2="232.22196969696967" y2="401.3" stroke="#cccccc" stroke-width="1.0"/><text x="232.22196969696967" y="412.3" fill="#eeeeee" font-size="11.0" font-family="sans-serif" text-anchor="middle">2</text><line x1="419.3280303030303" y1="398.55" x2="419.3280303030303" y2="401.3" stroke="#cccccc" stroke-width="1.0"/><text x="419.3280303030303" y="412.3" fill="#eeeeee" font-size="11.0" font-family="sans-serif" text-anchor="middle">3</text><line x1="606.4340909090909" y1="398.55" x2="606.4340909090909" y2="401.3" stroke="#cccccc" stroke-width="1.0"/><text x="606.4340909090909" y="412.3" fill="#eeeeee" font-size="11.0" font-family="sans-serif" text-anchor="middle">4</text><line x1="17.049999999999997" y1="381.66136363636366" x2="14.299999999999997" y2="381.66136363636366" stroke="#cccccc" stroke-width="1.0"/><text x="12.099999999999998" y="385.5113636363637" fill="#eeeeee" font-size="11.0" font-family="sans-serif" text-anchor="end">1</text><line x1="17.049999999999997" y1="269.0704545454546" x2="14.299999999999997" y2="269.0704545454546" stroke="#cccccc" stroke-width="1.0"/><text x="12.099999999999998" y="272.9204545454546" fill="#eeeeee" font-size="11.0" font-family="sans-serif" text-anchor="end">2</text><line x1="17.049999999999997" y1="156.4795454545455" x2="14.299999999999997" y2="156.4795454545455" stroke="#cccccc" stroke-width="1.0"/><text x="12.099999999999998" y="160.3295454545455" fill="#eeeeee" font-size="11.0" font-family="sans-serif" text-anchor="end">3</text><line x1="17.049999999999997" y1="43.88863636363641" x2="14.299999999999997" y2="43.88863636363641" stroke="#cccccc" stroke-width="1.0"/><text x="12.099999999999998" y="47.73863636363641" fill="#eeeeee" font-size="11.0" font-family="sans-serif" text-anchor="end">4</text><text x="325.77500000000003" y="18.3" fill="#eeeeee" font-size="16.0" font-family="sans-serif" text-anchor="middle">3e. theme ThemeDark</text><circle cx="45.11590909090909" cy="269.0704545454546" r="6.0" fill="#38bdf8" fill-opacity="0.85" stroke="#38bdf8" stroke-width="1.0"><title>(1, 2)</title></circle><circle cx="232.22196969696967" cy="156.4795454545455" r="6.0" fill="#38bdf8" fill-opacity="0.85" stroke="#38bdf8" stroke-width="1.0"><title>(2, 3)</title></circle><circle cx="419.3280303030303" cy="381.66136363636366" r="6.0" fill="#38bdf8" fill-opacity="0.85" stroke="#38bdf8" stroke-width="1.0"><title>(3, 1)</title></circle><circle cx="606.4340909090909" cy="43.88863636363641" r="6.0" fill="#38bdf8" fill-opacity="0.85" stroke="#38bdf8" stroke-width="1.0"><title>(4, 4)</title></circle><circle cx="45.11590909090909" cy="156.4795454545455" r="6.0" fill="#38bdf8" fill-opacity="0.85" stroke="#38bdf8" stroke-width="1.0"><title>(1, 3)</title></circle><circle cx="232.22196969696967" cy="381.66136363636366" r="6.0" fill="#38bdf8" fill-opacity="0.85" stroke="#38bdf8" stroke-width="1.0"><title>(2, 1)</title></circle><circle cx="419.3280303030303" cy="43.88863636363641" r="6.0" fill="#38bdf8" fill-opacity="0.85" stroke="#38bdf8" stroke-width="1.0"><title>(3, 4)</title></circle><circle cx="606.4340909090909" cy="269.0704545454546" r="6.0" fill="#38bdf8" fill-opacity="0.85" stroke="#38bdf8" stroke-width="1.0"><title>(4, 2)</title></circle></svg>