<svg xmlns="http://www.w3.org/2000/svg" width="640" height="420" viewBox="0 0 640 420"><rect x="0.0" y="0.0" width="640.0" height="420.0" fill="#ffffff" fill-opacity="1.0" stroke="none"/><text x="325.77500000000003" y="18.3" fill="#333333" font-size="16.0" font-family="sans-serif" text-anchor="middle">3f. facetWrap</text><rect x="17.049999999999997" y="27.0" width="305.975" height="18.0" fill="#d9d9d9" fill-opacity="1.0" stroke="none"/><text x="170.03750000000002" y="41.0" fill="#333333" font-size="11.0" font-family="sans-serif" text-anchor="middle">A</text><rect x="17.049999999999997" y="45.0" width="305.975" height="353.55" fill="#ffffff" fill-opacity="0.0" stroke="#444444" stroke-width="1.0"/><line x1="77.31780303030303" y1="45.0" x2="77.31780303030303" y2="398.55" stroke="#dddddd" stroke-width="0.5"/><line x1="170.03749999999997" y1="45.0" x2="170.03749999999997" y2="398.55" stroke="#dddddd" stroke-width="0.5"/><line x1="262.75719696969696" y1="45.0" x2="262.75719696969696" y2="398.55" stroke="#dddddd" stroke-width="0.5"/><line x1="30.957954545454545" y1="45.0" x2="30.957954545454545" y2="398.55" stroke="#dddddd" stroke-width="1.0"/><line x1="123.67765151515151" y1="45.0" x2="123.67765151515151" y2="398.55" stroke="#dddddd" stroke-width="1.0"/><line x1="216.39734848484846" y1="45.0" x2="216.39734848484846" y2="398.55" stroke="#dddddd" stroke-width="1.0"/><line x1="309.11704545454546" y1="45.0" x2="309.11704545454546" y2="398.55" stroke="#dddddd" stroke-width="1.0"/><line x1="17.049999999999997" y1="328.91136363636366" x2="323.02500000000003" y2="328.91136363636366" stroke="#dddddd" stroke-width="0.5"/><line x1="17.049999999999997" y1="221.77500000000003" x2="323.02500000000003" y2="221.77500000000003" stroke="#dddddd" stroke-width="0.5"/><line x1="17.049999999999997" y1="114.63863636363641" x2="323.02500000000003" y2="114.63863636363641" stroke="#dddddd" stroke-width="0.5"/><line x1="17.049999999999997" y1="382.4795454545455" x2="323.02500000000003" y2="382.4795454545455" stroke="#dddddd" stroke-width="1.0"/><line x1="17.049999999999997" y1="275.34318181818185" x2="323.02500000000003" y2="275.34318181818185" stroke="#dddddd" stroke-width="1.0"/><line x1="17.049999999999997" y1="168.20681818181822" x2="323.02500000000003" y2="168.20681818181822" stroke="#dddddd" stroke-width="1.0"/><line x1="17.049999999999997" y1="61.070454545454595" x2="323.02500000000003" y2="61.070454545454595" stroke="#dddddd" stroke-width="1.0"/><line x1="30.957954545454545" y1="398.55" x2="30.957954545454545" y2="401.3" stroke="#444444" stroke-width="1.0"/><text x="30.957954545454545" y="412.3" fill="#333333" font-size="11.0" font-family="sans-serif" text-anchor="middle">1</text><line x1="123.67765151515151" y1="398.55" x2="123.67765151515151" y2="401.3" stroke="#444444" stroke-width="1.0"/><text x="123.67765151515151" y="412.3" fill="#333333" font-size="11.0" font-family="sans-serif" text-anchor="middle">2</text><line x1="216.39734848484846" y1="398.55" x2="216.39734848484846" y2="401.3" stroke="#444444" stroke-width="1.0"/><text x="216.39734848484846" y="412.3" fill="#333333" font-size="11.0" font-family="sans-serif" text-anchor="middle">3</text><line x1="309.11704545454546" y1="398.55" x2="309.11704545454546" y2="401.3" stroke="#444444" stroke-width="1.0"/><text x="309.11704545454546" y="412.3" fill="#333333" font-size="11.0" font-family="sans-serif" text-anchor="middle">4</text><line x1="17.049999999999997" y1="382.4795454545455" x2="14.299999999999997" y2="382.4795454545455" stroke="#444444" stroke-width="1.0"/><text x="12.099999999999998" y="386.3295454545455" fill="#333333" font-size="11.0" font-family="sans-serif" text-anchor="end">1</text><line x1="17.049999999999997" y1="275.34318181818185" x2="14.299999999999997" y2="275.34318181818185" stroke="#444444" stroke-width="1.0"/><text x="12.099999999999998" y="279.19318181818187" fill="#333333" font-size="11.0" font-family="sans-serif" text-anchor="end">2</text><line x1="17.049999999999997" y1="168.20681818181822" x2="14.299999999999997" y2="168.20681818181822" stroke="#444444" stroke-width="1.0"/><text x="12.099999999999998" y="172.05681818181822" fill="#333333" font-size="11.0" font-family="sans-serif" text-anchor="end">3</text><line x1="17.049999999999997" y1="61.070454545454595" x2="14.299999999999997" y2="61.070454545454595" stroke="#444444" stroke-width="1.0"/><text x="12.099999999999998" y="64.92045454545459" fill="#333333" font-size="11.0" font-family="sans-serif" text-anchor="end">4</text><circle cx="30.957954545454545" cy="275.34318181818185" r="6.0" fill="#F8766D" fill-opacity="0.85" stroke="#F8766D" stroke-width="1.0"><title>(1, 2)</title></circle><circle cx="123.67765151515151" cy="168.20681818181822" r="6.0" fill="#F8766D" fill-opacity="0.85" stroke="#F8766D" stroke-width="1.0"><title>(2, 3)</title></circle><circle cx="216.39734848484846" cy="382.4795454545455" r="6.0" fill="#F8766D" fill-opacity="0.85" stroke="#F8766D" stroke-width="1.0"><title>(3, 1)</title></circle><circle cx="309.11704545454546" cy="61.070454545454595" r="6.0" fill="#F8766D" fill-opacity="0.85" stroke="#F8766D" stroke-width="1.0"><title>(4, 4)</title></circle><rect x="328.52500000000003" y="27.0" width="305.975" height="18.0" fill="#d9d9d9" fill-opacity="1.0" stroke="none"/><text x="481.51250000000005" y="41.0" fill="#333333" font-size="11.0" font-family="sans-serif" text-anchor="middle">B</text><rect x="328.52500000000003" y="45.0" width="305.975" height="353.55" fill="#ffffff" fill-opacity="0.0" stroke="#444444" stroke-width="1.0"/><line x1="388.79280303030305" y1="45.0" x2="388.79280303030305" y2="398.55" stroke="#dddddd" stroke-width="0.5"/><line x1="481.5125" y1="45.0" x2="481.5125" y2="398.55" stroke="#dddddd" stroke-width="0.5"/><line x1="574.2321969696969" y1="45.0" x2="574.2321969696969" y2="398.55" stroke="#dddddd" stroke-width="0.5"/><line x1="342.43295454545455" y1="45.0" x2="342.43295454545455" y2="398.55" stroke="#dddddd" stroke-width="1.0"/><line x1="435.15265151515155" y1="45.0" x2="435.15265151515155" y2="398.55" stroke="#dddddd" stroke-width="1.0"/><line x1="527.8723484848484" y1="45.0" x2="527.8723484848484" y2="398.55" stroke="#dddddd" stroke-width="1.0"/><line x1="620.5920454545454" y1="45.0" x2="620.5920454545454" y2="398.55" stroke="#dddddd" stroke-width="1.0"/><line x1="328.52500000000003" y1="328.91136363636366" x2="634.5" y2="328.91136363636366" stroke="#dddddd" stroke-width="0.5"/><line x1="328.52500000000003" y1="221.77500000000003" x2="634.5" y2="221.77500000000003" stroke="#dddddd" stroke-width="0.5"/><line x1="328.52500000000003" y1="114.63863636363641" x2="634.5" y2="114.63863636363641" stroke="#dddddd" stroke-width="0.5"/><line x1="328.52500000000003" y1="382.4795454545455" x2="634.5" y2="382.4795454545455" stroke="#dddddd" stroke-width="1.0"/><line x1="328.52500000000003" y1="275.34318181818185" x2="634.5" y2="275.34318181818185" stroke="#dddddd" stroke-width="1.0"/><line x1="328.52500000000003" y1="168.20681818181822" x2="634.5" y2="168.20681818181822" stroke="#dddddd" stroke-width="1.0"/><line x1="328.52500000000003" y1="61.070454545454595" x2="634.5" y2="61.070454545454595" stroke="#dddddd" stroke-width="1.0"/><line x1="342.43295454545455" y1="398.55" x2="342.43295454545455" y2="401.3" stroke="#444444" stroke-width="1.0"/><text x="342.43295454545455" y="412.3" fill="#333333" font-size="11.0" font-family="sans-serif" text-anchor="middle">1</text><line x1="435.15265151515155" y1="398.55" x2="435.15265151515155" y2="401.3" stroke="#444444" stroke-width="1.0"/><text x="435.15265151515155" y="412.3" fill="#333333" font-size="11.0" font-family="sans-serif" text-anchor="middle">2</text><line x1="527.8723484848484" y1="398.55" x2="527.8723484848484" y2="401.3" stroke="#444444" stroke-width="1.0"/><text x="527.8723484848484" y="412.3" fill="#333333" font-size="11.0" font-family="sans-serif" text-anchor="middle">3</text><line x1="620.5920454545454" y1="398.55" x2="620.5920454545454" y2="401.3" stroke="#444444" stroke-width="1.0"/><text x="620.5920454545454" y="412.3" fill="#333333" font-size="11.0" font-family="sans-serif" text-anchor="middle">4</text><circle cx="342.43295454545455" cy="168.20681818181822" r="6.0" fill="#F8766D" fill-opacity="0.85" stroke="#F8766D" stroke-width="1.0"><title>(1, 3)</title></circle><circle cx="435.15265151515155" cy="382.4795454545455" r="6.0" fill="#F8766D" fill-opacity="0.85" stroke="#F8766D" stroke-width="1.0"><title>(2, 1)</title></circle><circle cx="527.8723484848484" cy="61.070454545454595" r="6.0" fill="#F8766D" fill-opacity="0.85" stroke="#F8766D" stroke-width="1.0"><title>(3, 4)</title></circle><circle cx="620.5920454545454" cy="275.34318181818185" r="6.0" fill="#F8766D" fill-opacity="0.85" stroke="#F8766D" stroke-width="1.0"><title>(4, 2)</title></circle></svg>