<svg xmlns="http://www.w3.org/2000/svg" width="640" height="420" viewBox="0 0 640 420"><rect x="0.0" y="0.0" width="640.0" height="420.0" fill="#ffffff" fill-opacity="1.0" stroke="none"/><text x="335.67499999999995" y="18.3" fill="#333333" font-size="16.0" font-family="sans-serif" text-anchor="middle">3f-2. selectPanels ─ panel の名前選択 (c, a の順)</text><rect x="0.0" y="0.0" width="0.0" height="0.0" fill="#ffffff" fill-opacity="1.0" stroke="none"/><line x1="97.40340909090907" y1="54.0" x2="97.40340909090907" y2="377.55" stroke="#dddddd" stroke-width="0.5"/><line x1="159.55113636363632" y1="54.0" x2="159.55113636363632" y2="377.55" stroke="#dddddd" stroke-width="0.5"/><line x1="221.69886363636363" y1="54.0" x2="221.69886363636363" y2="377.55" stroke="#dddddd" stroke-width="0.5"/><line x1="283.8465909090909" y1="54.0" x2="283.8465909090909" y2="377.55" stroke="#dddddd" stroke-width="0.5"/><line x1="66.32954545454544" y1="54.0" x2="66.32954545454544" y2="377.55" stroke="#dddddd" stroke-width="1.0"/><line x1="128.4772727272727" y1="54.0" x2="128.4772727272727" y2="377.55" stroke="#dddddd" stroke-width="1.0"/><line x1="190.625" y1="54.0" x2="190.625" y2="377.55" stroke="#dddddd" stroke-width="1.0"/><line x1="252.77272727272725" y1="54.0" x2="252.77272727272725" y2="377.55" stroke="#dddddd" stroke-width="1.0"/><line x1="314.9204545454545" y1="54.0" x2="314.9204545454545" y2="377.55" stroke="#dddddd" stroke-width="1.0"/><line x1="53.89999999999999" y1="313.8204545454546" x2="327.34999999999997" y2="313.8204545454546" stroke="#dddddd" stroke-width="0.5"/><line x1="53.89999999999999" y1="215.77500000000003" x2="327.34999999999997" y2="215.77500000000003" stroke="#dddddd" stroke-width="0.5"/><line x1="53.89999999999999" y1="117.72954545454547" x2="327.34999999999997" y2="117.72954545454547" stroke="#dddddd" stroke-width="0.5"/><line x1="53.89999999999999" y1="362.84318181818185" x2="327.34999999999997" y2="362.84318181818185" stroke="#dddddd" stroke-width="1.0"/><line x1="53.89999999999999" y1="264.7977272727273" x2="327.34999999999997" y2="264.7977272727273" stroke="#dddddd" stroke-width="1.0"/><line x1="53.89999999999999" y1="166.75227272727278" x2="327.34999999999997" y2="166.75227272727278" stroke="#dddddd" stroke-width="1.0"/><line x1="53.89999999999999" y1="68.70681818181822" x2="327.34999999999997" y2="68.70681818181822" stroke="#dddddd" stroke-width="1.0"/><rect x="53.89999999999999" y="54.0" width="273.45" height="323.55" fill="#ffffff" fill-opacity="0.0" stroke="#444444" stroke-width="1.0"/><line x1="66.32954545454544" y1="377.55" x2="66.32954545454544" y2="380.3" stroke="#444444" stroke-width="1.0"/><text x="66.32954545454544" y="391.3" fill="#333333" font-size="11.0" font-family="sans-serif" text-anchor="middle">1</text><line x1="128.4772727272727" y1="377.55" x2="128.4772727272727" y2="380.3" stroke="#444444" stroke-width="1.0"/><text x="128.4772727272727" y="391.3" fill="#333333" font-size="11.0" font-family="sans-serif" text-anchor="middle">2</text><line x1="190.625" y1="377.55" x2="190.625" y2="380.3" stroke="#444444" stroke-width="1.0"/><text x="190.625" y="391.3" fill="#333333" font-size="11.0" font-family="sans-serif" text-anchor="middle">3</text><line x1="252.77272727272725" y1="377.55" x2="252.77272727272725" y2="380.3" stroke="#444444" stroke-width="1.0"/><text x="252.77272727272725" y="391.3" fill="#333333" font-size="11.0" font-family="sans-serif" text-anchor="middle">4</text><line x1="314.9204545454545" y1="377.55" x2="314.9204545454545" y2="380.3" stroke="#444444" stroke-width="1.0"/><text x="314.9204545454545" y="391.3" fill="#333333" font-size="11.0" font-family="sans-serif" text-anchor="middle">5</text><line x1="53.89999999999999" y1="362.84318181818185" x2="51.14999999999999" y2="362.84318181818185" stroke="#444444" stroke-width="1.0"/><text x="48.94999999999999" y="366.69318181818187" fill="#333333" font-size="11.0" font-family="sans-serif" text-anchor="end">2</text><line x1="53.89999999999999" y1="264.7977272727273" x2="51.14999999999999" y2="264.7977272727273" stroke="#444444" stroke-width="1.0"/><text x="48.94999999999999" y="268.6477272727273" fill="#333333" font-size="11.0" font-family="sans-serif" text-anchor="end">3</text><line x1="53.89999999999999" y1="166.75227272727278" x2="51.14999999999999" y2="166.75227272727278" stroke="#444444" stroke-width="1.0"/><text x="48.94999999999999" y="170.60227272727278" fill="#333333" font-size="11.0" font-family="sans-serif" text-anchor="end">4</text><line x1="53.89999999999999" y1="68.70681818181822" x2="51.14999999999999" y2="68.70681818181822" stroke="#444444" stroke-width="1.0"/><text x="48.94999999999999" y="72.55681818181822" fill="#333333" font-size="11.0" font-family="sans-serif" text-anchor="end">5</text><text x="190.625" y="45.3" fill="#333333" font-size="16.0" font-family="sans-serif" text-anchor="middle">c</text><circle cx="66.32954545454544" cy="362.84318181818185" r="3.0" fill="#1f77b4" fill-opacity="0.85" stroke="#1f77b4" stroke-width="1.0"><title>(1, 2)</title></circle><circle cx="128.4772727272727" cy="166.75227272727278" r="3.0" fill="#1f77b4" fill-opacity="0.85" stroke="#1f77b4" stroke-width="1.0"><title>(2, 4)</title></circle><circle cx="190.625" cy="264.7977272727273" r="3.0" fill="#1f77b4" fill-opacity="0.85" stroke="#1f77b4" stroke-width="1.0"><title>(3, 3)</title></circle><circle cx="252.77272727272725" cy="68.70681818181822" r="3.0" fill="#1f77b4" fill-opacity="0.85" stroke="#1f77b4" stroke-width="1.0"><title>(4, 5)</title></circle><circle cx="314.9204545454545" cy="166.75227272727278" r="3.0" fill="#1f77b4" fill-opacity="0.85" stroke="#1f77b4" stroke-width="1.0"><title>(5, 4)</title></circle><rect x="0.0" y="0.0" width="0.0" height="0.0" fill="#ffffff" fill-opacity="1.0" stroke="none"/><line x1="398.97840909090905" y1="54.0" x2="398.97840909090905" y2="377.55" stroke="#dddddd" stroke-width="0.5"/><line x1="461.1261363636363" y1="54.0" x2="461.1261363636363" y2="377.55" stroke="#dddddd" stroke-width="0.5"/><line x1="523.2738636363636" y1="54.0" x2="523.2738636363636" y2="377.55" stroke="#dddddd" stroke-width="0.5"/><line x1="585.4215909090908" y1="54.0" x2="585.4215909090908" y2="377.55" stroke="#dddddd" stroke-width="0.5"/><line x1="367.9045454545454" y1="54.0" x2="367.9045454545454" y2="377.55" stroke="#dddddd" stroke-width="1.0"/><line x1="430.0522727272727" y1="54.0" x2="430.0522727272727" y2="377.55" stroke="#dddddd" stroke-width="1.0"/><line x1="492.19999999999993" y1="54.0" x2="492.19999999999993" y2="377.55" stroke="#dddddd" stroke-width="1.0"/><line x1="554.3477272727273" y1="54.0" x2="554.3477272727273" y2="377.55" stroke="#dddddd" stroke-width="1.0"/><line x1="616.4954545454545" y1="54.0" x2="616.4954545454545" y2="377.55" stroke="#dddddd" stroke-width="1.0"/><line x1="355.47499999999997" y1="313.8204545454546" x2="628.925" y2="313.8204545454546" stroke="#dddddd" stroke-width="0.5"/><line x1="355.47499999999997" y1="215.77500000000003" x2="628.925" y2="215.77500000000003" stroke="#dddddd" stroke-width="0.5"/><line x1="355.47499999999997" y1="117.72954545454547" x2="628.925" y2="117.72954545454547" stroke="#dddddd" stroke-width="0.5"/><line x1="355.47499999999997" y1="362.84318181818185" x2="628.925" y2="362.84318181818185" stroke="#dddddd" stroke-width="1.0"/><line x1="355.47499999999997" y1="264.7977272727273" x2="628.925" y2="264.7977272727273" stroke="#dddddd" stroke-width="1.0"/><line x1="355.47499999999997" y1="166.75227272727278" x2="628.925" y2="166.75227272727278" stroke="#dddddd" stroke-width="1.0"/><line x1="355.47499999999997" y1="68.70681818181822" x2="628.925" y2="68.70681818181822" stroke="#dddddd" stroke-width="1.0"/><rect x="355.47499999999997" y="54.0" width="273.45" height="323.55" fill="#ffffff" fill-opacity="0.0" stroke="#444444" stroke-width="1.0"/><line x1="367.9045454545454" y1="377.55" x2="367.9045454545454" y2="380.3" stroke="#444444" stroke-width="1.0"/><text x="367.9045454545454" y="391.3" fill="#333333" font-size="11.0" font-family="sans-serif" text-anchor="middle">1</text><line x1="430.0522727272727" y1="377.55" x2="430.0522727272727" y2="380.3" stroke="#444444" stroke-width="1.0"/><text x="430.0522727272727" y="391.3" fill="#333333" font-size="11.0" font-family="sans-serif" text-anchor="middle">2</text><line x1="492.19999999999993" y1="377.55" x2="492.19999999999993" y2="380.3" stroke="#444444" stroke-width="1.0"/><text x="492.19999999999993" y="391.3" fill="#333333" font-size="11.0" font-family="sans-serif" text-anchor="middle">3</text><line x1="554.3477272727273" y1="377.55" x2="554.3477272727273" y2="380.3" stroke="#444444" stroke-width="1.0"/><text x="554.3477272727273" y="391.3" fill="#333333" font-size="11.0" font-family="sans-serif" text-anchor="middle">4</text><line x1="616.4954545454545" y1="377.55" x2="616.4954545454545" y2="380.3" stroke="#444444" stroke-width="1.0"/><text x="616.4954545454545" y="391.3" fill="#333333" font-size="11.0" font-family="sans-serif" text-anchor="middle">5</text><line x1="355.47499999999997" y1="362.84318181818185" x2="352.72499999999997" y2="362.84318181818185" stroke="#444444" stroke-width="1.0"/><text x="350.525" y="366.69318181818187" fill="#333333" font-size="11.0" font-family="sans-serif" text-anchor="end">2</text><line x1="355.47499999999997" y1="264.7977272727273" x2="352.72499999999997" y2="264.7977272727273" stroke="#444444" stroke-width="1.0"/><text x="350.525" y="268.6477272727273" fill="#333333" font-size="11.0" font-family="sans-serif" text-anchor="end">3</text><line x1="355.47499999999997" y1="166.75227272727278" x2="352.72499999999997" y2="166.75227272727278" stroke="#444444" stroke-width="1.0"/><text x="350.525" y="170.60227272727278" fill="#333333" font-size="11.0" font-family="sans-serif" text-anchor="end">4</text><line x1="355.47499999999997" y1="68.70681818181822" x2="352.72499999999997" y2="68.70681818181822" stroke="#444444" stroke-width="1.0"/><text x="350.525" y="72.55681818181822" fill="#333333" font-size="11.0" font-family="sans-serif" text-anchor="end">5</text><text x="492.19999999999993" y="45.3" fill="#333333" font-size="16.0" font-family="sans-serif" text-anchor="middle">a</text><circle cx="367.9045454545454" cy="362.84318181818185" r="3.0" fill="#1f77b4" fill-opacity="0.85" stroke="#1f77b4" stroke-width="1.0"><title>(1, 2)</title></circle><circle cx="430.0522727272727" cy="166.75227272727278" r="3.0" fill="#1f77b4" fill-opacity="0.85" stroke="#1f77b4" stroke-width="1.0"><title>(2, 4)</title></circle><circle cx="492.19999999999993" cy="264.7977272727273" r="3.0" fill="#1f77b4" fill-opacity="0.85" stroke="#1f77b4" stroke-width="1.0"><title>(3, 3)</title></circle><circle cx="554.3477272727273" cy="68.70681818181822" r="3.0" fill="#1f77b4" fill-opacity="0.85" stroke="#1f77b4" stroke-width="1.0"><title>(4, 5)</title></circle><circle cx="616.4954545454545" cy="166.75227272727278" r="3.0" fill="#1f77b4" fill-opacity="0.85" stroke="#1f77b4" stroke-width="1.0"><title>(5, 4)</title></circle></svg>