<svg xmlns="http://www.w3.org/2000/svg" width="640" height="420" viewBox="0 0 640 420"><rect x="0.0" y="0.0" width="640.0" height="420.0" fill="#ffffff" fill-opacity="1.0" stroke="none"/><text x="335.67499999999995" y="18.3" fill="#333333" font-size="16.0" font-family="sans-serif" text-anchor="middle">3f-2. subplots ─ 独立図の並置</text><rect x="0.0" y="0.0" width="0.0" height="0.0" fill="#ffffff" fill-opacity="1.0" stroke="none"/><line x1="81.49431818181816" y1="54.0" x2="81.49431818181816" y2="377.55" stroke="#dddddd" stroke-width="0.5"/><line x1="120.9147727272727" y1="54.0" x2="120.9147727272727" y2="377.55" stroke="#dddddd" stroke-width="0.5"/><line x1="160.33522727272725" y1="54.0" x2="160.33522727272725" y2="377.55" stroke="#dddddd" stroke-width="0.5"/><line x1="199.7556818181818" y1="54.0" x2="199.7556818181818" y2="377.55" stroke="#dddddd" stroke-width="0.5"/><line x1="61.7840909090909" y1="54.0" x2="61.7840909090909" y2="377.55" stroke="#dddddd" stroke-width="1.0"/><line x1="101.20454545454544" y1="54.0" x2="101.20454545454544" y2="377.55" stroke="#dddddd" stroke-width="1.0"/><line x1="140.625" y1="54.0" x2="140.625" y2="377.55" stroke="#dddddd" stroke-width="1.0"/><line x1="180.04545454545453" y1="54.0" x2="180.04545454545453" y2="377.55" stroke="#dddddd" stroke-width="1.0"/><line x1="219.46590909090907" y1="54.0" x2="219.46590909090907" y2="377.55" stroke="#dddddd" stroke-width="1.0"/><line x1="53.89999999999999" y1="313.8204545454546" x2="227.34999999999997" y2="313.8204545454546" stroke="#dddddd" stroke-width="0.5"/><line x1="53.89999999999999" y1="215.77500000000003" x2="227.34999999999997" y2="215.77500000000003" stroke="#dddddd" stroke-width="0.5"/><line x1="53.89999999999999" y1="117.72954545454547" x2="227.34999999999997" y2="117.72954545454547" stroke="#dddddd" stroke-width="0.5"/><line x1="53.89999999999999" y1="362.84318181818185" x2="227.34999999999997" y2="362.84318181818185" stroke="#dddddd" stroke-width="1.0"/><line x1="53.89999999999999" y1="264.7977272727273" x2="227.34999999999997" y2="264.7977272727273" stroke="#dddddd" stroke-width="1.0"/><line x1="53.89999999999999" y1="166.75227272727278" x2="227.34999999999997" y2="166.75227272727278" stroke="#dddddd" stroke-width="1.0"/><line x1="53.89999999999999" y1="68.70681818181822" x2="227.34999999999997" y2="68.70681818181822" stroke="#dddddd" stroke-width="1.0"/><rect x="53.89999999999999" y="54.0" width="173.45" height="323.55" fill="#ffffff" fill-opacity="0.0" stroke="#444444" stroke-width="1.0"/><line x1="61.7840909090909" y1="377.55" x2="61.7840909090909" y2="380.3" stroke="#444444" stroke-width="1.0"/><text x="61.7840909090909" y="391.3" fill="#333333" font-size="11.0" font-family="sans-serif" text-anchor="middle">1</text><line x1="101.20454545454544" y1="377.55" x2="101.20454545454544" y2="380.3" stroke="#444444" stroke-width="1.0"/><text x="101.20454545454544" y="391.3" fill="#333333" font-size="11.0" font-family="sans-serif" text-anchor="middle">2</text><line x1="140.625" y1="377.55" x2="140.625" y2="380.3" stroke="#444444" stroke-width="1.0"/><text x="140.625" y="391.3" fill="#333333" font-size="11.0" font-family="sans-serif" text-anchor="middle">3</text><line x1="180.04545454545453" y1="377.55" x2="180.04545454545453" y2="380.3" stroke="#444444" stroke-width="1.0"/><text x="180.04545454545453" y="391.3" fill="#333333" font-size="11.0" font-family="sans-serif" text-anchor="middle">4</text><line x1="219.46590909090907" y1="377.55" x2="219.46590909090907" y2="380.3" stroke="#444444" stroke-width="1.0"/><text x="219.46590909090907" y="391.3" fill="#333333" font-size="11.0" font-family="sans-serif" text-anchor="middle">5</text><line x1="53.89999999999999" y1="362.84318181818185" x2="51.14999999999999" y2="362.84318181818185" stroke="#444444" stroke-width="1.0"/><text x="48.94999999999999" y="366.69318181818187" fill="#333333" font-size="11.0" font-family="sans-serif" text-anchor="end">2</text><line x1="53.89999999999999" y1="264.7977272727273" x2="51.14999999999999" y2="264.7977272727273" stroke="#444444" stroke-width="1.0"/><text x="48.94999999999999" y="268.6477272727273" fill="#333333" font-size="11.0" font-family="sans-serif" text-anchor="end">3</text><line x1="53.89999999999999" y1="166.75227272727278" x2="51.14999999999999" y2="166.75227272727278" stroke="#444444" stroke-width="1.0"/><text x="48.94999999999999" y="170.60227272727278" fill="#333333" font-size="11.0" font-family="sans-serif" text-anchor="end">4</text><line x1="53.89999999999999" y1="68.70681818181822" x2="51.14999999999999" y2="68.70681818181822" stroke="#444444" stroke-width="1.0"/><text x="48.94999999999999" y="72.55681818181822" fill="#333333" font-size="11.0" font-family="sans-serif" text-anchor="end">5</text><text x="140.625" y="45.3" fill="#333333" font-size="16.0" font-family="sans-serif" text-anchor="middle">散布</text><circle cx="61.7840909090909" cy="362.84318181818185" r="3.0" fill="#1f77b4" fill-opacity="0.85" stroke="#1f77b4" stroke-width="1.0"><title>(1, 2)</title></circle><circle cx="101.20454545454544" cy="166.75227272727278" r="3.0" fill="#1f77b4" fill-opacity="0.85" stroke="#1f77b4" stroke-width="1.0"><title>(2, 4)</title></circle><circle cx="140.625" cy="264.7977272727273" r="3.0" fill="#1f77b4" fill-opacity="0.85" stroke="#1f77b4" stroke-width="1.0"><title>(3, 3)</title></circle><circle cx="180.04545454545453" cy="68.70681818181822" r="3.0" fill="#1f77b4" fill-opacity="0.85" stroke="#1f77b4" stroke-width="1.0"><title>(4, 5)</title></circle><circle cx="219.46590909090907" cy="166.75227272727278" r="3.0" fill="#1f77b4" fill-opacity="0.85" stroke="#1f77b4" stroke-width="1.0"><title>(5, 4)</title></circle><rect x="0.0" y="0.0" width="0.0" height="0.0" fill="#ffffff" fill-opacity="1.0" stroke="none"/><line x1="282.54431818181814" y1="54.0" x2="282.54431818181814" y2="377.55" stroke="#dddddd" stroke-width="0.5"/><line x1="321.9647727272727" y1="54.0" x2="321.9647727272727" y2="377.55" stroke="#dddddd" stroke-width="0.5"/><line x1="361.38522727272726" y1="54.0" x2="361.38522727272726" y2="377.55" stroke="#dddddd" stroke-width="0.5"/><line x1="400.8056818181818" y1="54.0" x2="400.8056818181818" y2="377.55" stroke="#dddddd" stroke-width="0.5"/><line x1="262.8340909090909" y1="54.0" x2="262.8340909090909" y2="377.55" stroke="#dddddd" stroke-width="1.0"/><line x1="302.25454545454545" y1="54.0" x2="302.25454545454545" y2="377.55" stroke="#dddddd" stroke-width="1.0"/><line x1="341.67499999999995" y1="54.0" x2="341.67499999999995" y2="377.55" stroke="#dddddd" stroke-width="1.0"/><line x1="381.0954545454545" y1="54.0" x2="381.0954545454545" y2="377.55" stroke="#dddddd" stroke-width="1.0"/><line x1="420.5159090909091" y1="54.0" x2="420.5159090909091" y2="377.55" stroke="#dddddd" stroke-width="1.0"/><line x1="254.95" y1="313.82045454545454" x2="428.4" y2="313.82045454545454" stroke="#dddddd" stroke-width="0.5"/><line x1="254.95" y1="215.77500000000003" x2="428.4" y2="215.77500000000003" stroke="#dddddd" stroke-width="0.5"/><line x1="254.95" y1="117.72954545454547" x2="428.4" y2="117.72954545454547" stroke="#dddddd" stroke-width="0.5"/><line x1="254.95" y1="362.84318181818185" x2="428.4" y2="362.84318181818185" stroke="#dddddd" stroke-width="1.0"/><line x1="254.95" y1="264.7977272727273" x2="428.4" y2="264.7977272727273" stroke="#dddddd" stroke-width="1.0"/><line x1="254.95" y1="166.75227272727278" x2="428.4" y2="166.75227272727278" stroke="#dddddd" stroke-width="1.0"/><line x1="254.95" y1="68.70681818181822" x2="428.4" y2="68.70681818181822" stroke="#dddddd" stroke-width="1.0"/><rect x="254.95" y="54.0" width="173.45" height="323.55" fill="#ffffff" fill-opacity="0.0" stroke="#444444" stroke-width="1.0"/><line x1="262.8340909090909" y1="377.55" x2="262.8340909090909" y2="380.3" stroke="#444444" stroke-width="1.0"/><text x="262.8340909090909" y="391.3" fill="#333333" font-size="11.0" font-family="sans-serif" text-anchor="middle">1</text><line x1="302.25454545454545" y1="377.55" x2="302.25454545454545" y2="380.3" stroke="#444444" stroke-width="1.0"/><text x="302.25454545454545" y="391.3" fill="#333333" font-size="11.0" font-family="sans-serif" text-anchor="middle">2</text><line x1="341.67499999999995" y1="377.55" x2="341.67499999999995" y2="380.3" stroke="#444444" stroke-width="1.0"/><text x="341.67499999999995" y="391.3" fill="#333333" font-size="11.0" font-family="sans-serif" text-anchor="middle">3</text><line x1="381.0954545454545" y1="377.55" x2="381.0954545454545" y2="380.3" stroke="#444444" stroke-width="1.0"/><text x="381.0954545454545" y="391.3" fill="#333333" font-size="11.0" font-family="sans-serif" text-anchor="middle">4</text><line x1="420.5159090909091" y1="377.55" x2="420.5159090909091" y2="380.3" stroke="#444444" stroke-width="1.0"/><text x="420.5159090909091" y="391.3" fill="#333333" font-size="11.0" font-family="sans-serif" text-anchor="middle">5</text><line x1="254.95" y1="362.84318181818185" x2="252.2" y2="362.84318181818185" stroke="#444444" stroke-width="1.0"/><text x="250.0" y="366.69318181818187" fill="#333333" font-size="11.0" font-family="sans-serif" text-anchor="end">1</text><line x1="254.95" y1="264.7977272727273" x2="252.2" y2="264.7977272727273" stroke="#444444" stroke-width="1.0"/><text x="250.0" y="268.6477272727273" fill="#333333" font-size="11.0" font-family="sans-serif" text-anchor="end">2</text><line x1="254.95" y1="166.75227272727278" x2="252.2" y2="166.75227272727278" stroke="#444444" stroke-width="1.0"/><text x="250.0" y="170.60227272727278" fill="#333333" font-size="11.0" font-family="sans-serif" text-anchor="end">3</text><line x1="254.95" y1="68.70681818181822" x2="252.2" y2="68.70681818181822" stroke="#444444" stroke-width="1.0"/><text x="250.0" y="72.55681818181822" fill="#333333" font-size="11.0" font-family="sans-serif" text-anchor="end">4</text><text x="341.67499999999995" y="45.3" fill="#333333" font-size="16.0" font-family="sans-serif" text-anchor="middle">折れ線</text><line x1="262.8340909090909" y1="362.84318181818185" x2="302.25454545454545" y2="166.75227272727278" stroke="#1f77b4" stroke-width="1.5"/><line x1="302.25454545454545" y1="166.75227272727278" x2="341.67499999999995" y2="264.7977272727273" stroke="#1f77b4" stroke-width="1.5"/><line x1="341.67499999999995" y1="264.7977272727273" x2="381.0954545454545" y2="68.70681818181822" stroke="#1f77b4" stroke-width="1.5"/><line x1="381.0954545454545" y1="68.70681818181822" x2="420.5159090909091" y2="166.75227272727278" stroke="#1f77b4" stroke-width="1.5"/><rect x="0.0" y="0.0" width="0.0" height="0.0" fill="#ffffff" fill-opacity="1.0" stroke="none"/><line x1="488.5218749999999" y1="54.0" x2="488.5218749999999" y2="377.55" stroke="#dddddd" stroke-width="1.0"/><line x1="542.7249999999999" y1="54.0" x2="542.7249999999999" y2="377.55" stroke="#dddddd" stroke-width="1.0"/><line x1="596.9281249999999" y1="54.0" x2="596.9281249999999" y2="377.55" stroke="#dddddd" stroke-width="1.0"/><line x1="455.99999999999994" y1="333.5295918367347" x2="629.4499999999999" y2="333.5295918367347" stroke="#dddddd" stroke-width="0.5"/><line x1="455.99999999999994" y1="245.48877551020408" x2="629.4499999999999" y2="245.48877551020408" stroke="#dddddd" stroke-width="0.5"/><line x1="455.99999999999994" y1="157.44795918367348" x2="629.4499999999999" y2="157.44795918367348" stroke="#dddddd" stroke-width="0.5"/><line x1="455.99999999999994" y1="69.40714285714284" x2="629.4499999999999" y2="69.40714285714284" stroke="#dddddd" stroke-width="0.5"/><line x1="455.99999999999994" y1="377.55" x2="629.4499999999999" y2="377.55" stroke="#dddddd" stroke-width="1.0"/><line x1="455.99999999999994" y1="289.5091836734694" x2="629.4499999999999" y2="289.5091836734694" stroke="#dddddd" stroke-width="1.0"/><line x1="455.99999999999994" y1="201.46836734693878" x2="629.4499999999999" y2="201.46836734693878" stroke="#dddddd" stroke-width="1.0"/><line x1="455.99999999999994" y1="113.42755102040815" x2="629.4499999999999" y2="113.42755102040815" stroke="#dddddd" stroke-width="1.0"/><rect x="455.99999999999994" y="54.0" width="173.45" height="323.55" fill="#ffffff" fill-opacity="0.0" stroke="#444444" stroke-width="1.0"/><line x1="488.5218749999999" y1="377.55" x2="488.5218749999999" y2="380.3" stroke="#444444" stroke-width="1.0"/><text x="488.5218749999999" y="391.3" fill="#333333" font-size="11.0" font-family="sans-serif" text-anchor="middle">A</text><line x1="542.7249999999999" y1="377.55" x2="542.7249999999999" y2="380.3" stroke="#444444" stroke-width="1.0"/><text x="542.7249999999999" y="391.3" fill="#333333" font-size="11.0" font-family="sans-serif" text-anchor="middle">B</text><line x1="596.9281249999999" y1="377.55" x2="596.9281249999999" y2="380.3" stroke="#444444" stroke-width="1.0"/><text x="596.9281249999999" y="391.3" fill="#333333" font-size="11.0" font-family="sans-serif" text-anchor="middle">C</text><line x1="455.99999999999994" y1="377.55" x2="453.24999999999994" y2="377.55" stroke="#444444" stroke-width="1.0"/><text x="451.04999999999995" y="381.40000000000003" fill="#333333" font-size="11.0" font-family="sans-serif" text-anchor="end">0</text><line x1="455.99999999999994" y1="289.5091836734694" x2="453.24999999999994" y2="289.5091836734694" stroke="#444444" stroke-width="1.0"/><text x="451.04999999999995" y="293.35918367346943" fill="#333333" font-size="11.0" font-family="sans-serif" text-anchor="end">2</text><line x1="455.99999999999994" y1="201.46836734693878" x2="453.24999999999994" y2="201.46836734693878" stroke="#444444" stroke-width="1.0"/><text x="451.04999999999995" y="205.31836734693877" fill="#333333" font-size="11.0" font-family="sans-serif" text-anchor="end">4</text><line x1="455.99999999999994" y1="113.42755102040815" x2="453.24999999999994" y2="113.42755102040815" stroke="#444444" stroke-width="1.0"/><text x="451.04999999999995" y="117.27755102040814" fill="#333333" font-size="11.0" font-family="sans-serif" text-anchor="end">6</text><text x="542.7249999999999" y="45.3" fill="#333333" font-size="16.0" font-family="sans-serif" text-anchor="middle">棒</text><rect x="464.1304687499999" y="245.48877551020408" width="48.7828125" height="132.06122448979593" fill="#1f77b4" fill-opacity="0.85" stroke="none"/><rect x="518.3335937499999" y="69.40714285714284" width="48.7828125" height="308.14285714285717" fill="#1f77b4" fill-opacity="0.85" stroke="none"/><rect x="572.5367187499999" y="157.44795918367348" width="48.7828125" height="220.10204081632654" fill="#1f77b4" fill-opacity="0.85" stroke="none"/></svg>