<svg xmlns="http://www.w3.org/2000/svg" width="640" height="420" viewBox="0 0 640 420"><rect x="0.0" y="0.0" width="640.0" height="420.0" fill="#ffffff" fill-opacity="1.0" stroke="none"/><line x1="31.799999999999997" y1="316.90000000000003" x2="634.5" y2="316.90000000000003" stroke="#dddddd" stroke-width="1.0"/><line x1="31.799999999999997" y1="205.4" x2="634.5" y2="205.4" stroke="#dddddd" stroke-width="1.0"/><line x1="31.799999999999997" y1="93.89999999999998" x2="634.5" y2="93.89999999999998" stroke="#dddddd" stroke-width="1.0"/><line x1="113.80000000000001" y1="27.0" x2="113.80000000000001" y2="383.8" stroke="#dddddd" stroke-width="0.5"/><line x1="277.8" y1="27.0" x2="277.8" y2="383.8" stroke="#dddddd" stroke-width="0.5"/><line x1="441.8" y1="27.0" x2="441.8" y2="383.8" stroke="#dddddd" stroke-width="0.5"/><line x1="605.8000000000001" y1="27.0" x2="605.8000000000001" y2="383.8" stroke="#dddddd" stroke-width="0.5"/><line x1="31.799999999999997" y1="27.0" x2="31.799999999999997" y2="383.8" stroke="#dddddd" stroke-width="1.0"/><line x1="195.8" y1="27.0" x2="195.8" y2="383.8" stroke="#dddddd" stroke-width="1.0"/><line x1="359.80000000000007" y1="27.0" x2="359.80000000000007" y2="383.8" stroke="#dddddd" stroke-width="1.0"/><line x1="523.8000000000001" y1="27.0" x2="523.8000000000001" y2="383.8" stroke="#dddddd" stroke-width="1.0"/><rect x="31.799999999999997" y="27.0" width="602.7" height="356.8" fill="#ffffff" fill-opacity="0.0" stroke="#444444" stroke-width="1.0"/><line x1="31.799999999999997" y1="316.90000000000003" x2="29.049999999999997" y2="316.90000000000003" stroke="#444444" stroke-width="1.0"/><text x="26.849999999999998" y="320.75000000000006" fill="#333333" font-size="11.0" font-family="sans-serif" text-anchor="end">A</text><line x1="31.799999999999997" y1="205.4" x2="29.049999999999997" y2="205.4" stroke="#444444" stroke-width="1.0"/><text x="26.849999999999998" y="209.25" fill="#333333" font-size="11.0" font-family="sans-serif" text-anchor="end">B</text><line x1="31.799999999999997" y1="93.89999999999998" x2="29.049999999999997" y2="93.89999999999998" stroke="#444444" stroke-width="1.0"/><text x="26.849999999999998" y="97.74999999999997" fill="#333333" font-size="11.0" font-family="sans-serif" text-anchor="end">C</text><line x1="31.799999999999997" y1="383.8" x2="31.799999999999997" y2="386.55" stroke="#444444" stroke-width="1.0"/><text x="31.799999999999997" y="397.55" fill="#333333" font-size="11.0" font-family="sans-serif" text-anchor="middle">0</text><line x1="195.8" y1="383.8" x2="195.8" y2="386.55" stroke="#444444" stroke-width="1.0"/><text x="195.8" y="397.55" fill="#333333" font-size="11.0" font-family="sans-serif" text-anchor="middle">2</text><line x1="359.80000000000007" y1="383.8" x2="359.80000000000007" y2="386.55" stroke="#444444" stroke-width="1.0"/><text x="359.80000000000007" y="397.55" fill="#333333" font-size="11.0" font-family="sans-serif" text-anchor="middle">4</text><line x1="523.8000000000001" y1="383.8" x2="523.8000000000001" y2="386.55" stroke="#444444" stroke-width="1.0"/><text x="523.8000000000001" y="397.55" fill="#333333" font-size="11.0" font-family="sans-serif" text-anchor="middle">6</text><text x="333.15000000000003" y="18.3" fill="#333333" font-size="16.0" font-family="sans-serif" text-anchor="middle">3g. coordFlip (横棒)</text><text x="333.15000000000003" y="412.1" fill="#333333" font-size="12.0" font-family="sans-serif" text-anchor="middle">群</text><text x="13.899999999999999" y="205.4" fill="#333333" font-size="12.0" font-family="sans-serif" text-anchor="middle" transform="rotate(-90.0 13.899999999999999 205.4)">値</text><rect x="31.799999999999997" y="266.725" width="246.0" height="100.35000000000002" fill="#1f77b4" fill-opacity="0.85" stroke="none"/><rect x="31.799999999999997" y="155.225" width="574.0000000000001" height="100.35000000000002" fill="#1f77b4" fill-opacity="0.85" stroke="none"/><rect x="31.799999999999997" y="43.724999999999966" width="410.0" height="100.35000000000002" fill="#1f77b4" fill-opacity="0.85" stroke="none"/></svg>