<svg xmlns="http://www.w3.org/2000/svg" width="640" height="420" viewBox="0 0 640 420"><rect x="0.0" y="0.0" width="640.0" height="420.0" fill="#ffffff" fill-opacity="1.0" stroke="none"/><line x1="28.01333333333333" y1="32.266666666666666" x2="28.01333333333333" y2="394.3333333333333" stroke="#dddddd" stroke-width="0.6666666666666666"/><line x1="96.38348706034839" y1="32.266666666666666" x2="96.38348706034839" y2="394.3333333333333" stroke="#dddddd" stroke-width="0.6666666666666666"/><line x1="131.10038697703453" y1="32.266666666666666" x2="131.10038697703453" y2="394.3333333333333" stroke="#dddddd" stroke-width="0.6666666666666666"/><line x1="155.7324194686417" y1="32.266666666666666" x2="155.7324194686417" y2="394.3333333333333" stroke="#dddddd" stroke-width="0.6666666666666666"/><line x1="174.83850821244238" y1="32.266666666666666" x2="174.83850821244238" y2="394.3333333333333" stroke="#dddddd" stroke-width="0.6666666666666666"/><line x1="190.44931938532778" y1="32.266666666666666" x2="190.44931938532778" y2="394.3333333333333" stroke="#dddddd" stroke-width="0.6666666666666666"/><line x1="203.6480721673413" y1="32.266666666666666" x2="203.6480721673413" y2="394.3333333333333" stroke="#dddddd" stroke-width="0.6666666666666666"/><line x1="215.08135187693495" y1="32.266666666666666" x2="215.08135187693495" y2="394.3333333333333" stroke="#dddddd" stroke-width="0.6666666666666666"/><line x1="225.16621930201396" y1="32.266666666666666" x2="225.16621930201396" y2="394.3333333333333" stroke="#dddddd" stroke-width="0.6666666666666666"/><line x1="293.53637302902894" y1="32.266666666666666" x2="293.53637302902894" y2="394.3333333333333" stroke="#dddddd" stroke-width="0.6666666666666666"/><line x1="328.2532729457151" y1="32.266666666666666" x2="328.2532729457151" y2="394.3333333333333" stroke="#dddddd" stroke-width="0.6666666666666666"/><line x1="352.88530543732224" y1="32.266666666666666" x2="352.88530543732224" y2="394.3333333333333" stroke="#dddddd" stroke-width="0.6666666666666666"/><line x1="371.9913941811229" y1="32.266666666666666" x2="371.9913941811229" y2="394.3333333333333" stroke="#dddddd" stroke-width="0.6666666666666666"/><line x1="387.60220535400833" y1="32.266666666666666" x2="387.60220535400833" y2="394.3333333333333" stroke="#dddddd" stroke-width="0.6666666666666666"/><line x1="400.8009581360219" y1="32.266666666666666" x2="400.8009581360219" y2="394.3333333333333" stroke="#dddddd" stroke-width="0.6666666666666666"/><line x1="412.23423784561555" y1="32.266666666666666" x2="412.23423784561555" y2="394.3333333333333" stroke="#dddddd" stroke-width="0.6666666666666666"/><line x1="422.3191052706944" y1="32.266666666666666" x2="422.3191052706944" y2="394.3333333333333" stroke="#dddddd" stroke-width="0.6666666666666666"/><line x1="490.6892589977095" y1="32.266666666666666" x2="490.6892589977095" y2="394.3333333333333" stroke="#dddddd" stroke-width="0.6666666666666666"/><line x1="525.4061589143955" y1="32.266666666666666" x2="525.4061589143955" y2="394.3333333333333" stroke="#dddddd" stroke-width="0.6666666666666666"/><line x1="550.0381914060027" y1="32.266666666666666" x2="550.0381914060027" y2="394.3333333333333" stroke="#dddddd" stroke-width="0.6666666666666666"/><line x1="569.1442801498035" y1="32.266666666666666" x2="569.1442801498035" y2="394.3333333333333" stroke="#dddddd" stroke-width="0.6666666666666666"/><line x1="584.7550913226889" y1="32.266666666666666" x2="584.7550913226889" y2="394.3333333333333" stroke="#dddddd" stroke-width="0.6666666666666666"/><line x1="597.9538441047024" y1="32.266666666666666" x2="597.9538441047024" y2="394.3333333333333" stroke="#dddddd" stroke-width="0.6666666666666666"/><line x1="609.387123814296" y1="32.266666666666666" x2="609.387123814296" y2="394.3333333333333" stroke="#dddddd" stroke-width="0.6666666666666666"/><line x1="619.471991239375" y1="32.266666666666666" x2="619.471991239375" y2="394.3333333333333" stroke="#dddddd" stroke-width="0.6666666666666666"/><line x1="37.03455465205509" y1="32.266666666666666" x2="37.03455465205509" y2="394.3333333333333" stroke="#dddddd" stroke-width="1.3333333333333333"/><line x1="234.18744062073569" y1="32.266666666666666" x2="234.18744062073569" y2="394.3333333333333" stroke="#dddddd" stroke-width="1.3333333333333333"/><line x1="431.34032658941624" y1="32.266666666666666" x2="431.34032658941624" y2="394.3333333333333" stroke="#dddddd" stroke-width="1.3333333333333333"/><line x1="628.4932125580967" y1="32.266666666666666" x2="628.4932125580967" y2="394.3333333333333" stroke="#dddddd" stroke-width="1.3333333333333333"/><line x1="28.01333333333333" y1="347.1549494949495" x2="632.6666666666666" y2="347.1549494949495" stroke="#dddddd" stroke-width="0.6666666666666666"/><line x1="28.01333333333333" y1="259.3812121212121" x2="632.6666666666666" y2="259.3812121212121" stroke="#dddddd" stroke-width="0.6666666666666666"/><line x1="28.01333333333333" y1="171.60747474747475" x2="632.6666666666666" y2="171.60747474747475" stroke="#dddddd" stroke-width="0.6666666666666666"/><line x1="28.01333333333333" y1="83.83373737373736" x2="632.6666666666666" y2="83.83373737373736" stroke="#dddddd" stroke-width="0.6666666666666666"/><line x1="28.01333333333333" y1="391.04181818181814" x2="632.6666666666666" y2="391.04181818181814" stroke="#dddddd" stroke-width="1.3333333333333333"/><line x1="28.01333333333333" y1="303.26808080808075" x2="632.6666666666666" y2="303.26808080808075" stroke="#dddddd" stroke-width="1.3333333333333333"/><line x1="28.01333333333333" y1="215.49434343434342" x2="632.6666666666666" y2="215.49434343434342" stroke="#dddddd" stroke-width="1.3333333333333333"/><line x1="28.01333333333333" y1="127.72060606060604" x2="632.6666666666666" y2="127.72060606060604" stroke="#dddddd" stroke-width="1.3333333333333333"/><line x1="28.01333333333333" y1="39.946868686868655" x2="632.6666666666666" y2="39.946868686868655" stroke="#dddddd" stroke-width="1.3333333333333333"/><rect x="28.01333333333333" y="32.266666666666666" width="604.6533333333333" height="362.06666666666666" fill="#ffffff" fill-opacity="0.0" stroke="#444444" stroke-width="1.3333333333333333"/><line x1="37.03455465205509" y1="394.3333333333333" x2="37.03455465205509" y2="398.0" stroke="#444444" stroke-width="1.3333333333333333"/><text x="37.03455465205509" y="405.6266666666666" fill="#333333" font-size="11.733333333333334" font-family="sans-serif" text-anchor="end" transform="rotate(45.0 37.03455465205509 405.6266666666666)">1</text><line x1="234.18744062073569" y1="394.3333333333333" x2="234.18744062073569" y2="398.0" stroke="#444444" stroke-width="1.3333333333333333"/><text x="234.18744062073569" y="405.6266666666666" fill="#333333" font-size="11.733333333333334" font-family="sans-serif" text-anchor="end" transform="rotate(45.0 234.18744062073569 405.6266666666666)">10</text><line x1="431.34032658941624" y1="394.3333333333333" x2="431.34032658941624" y2="398.0" stroke="#444444" stroke-width="1.3333333333333333"/><text x="431.34032658941624" y="405.6266666666666" fill="#333333" font-size="11.733333333333334" font-family="sans-serif" text-anchor="end" transform="rotate(45.0 431.34032658941624 405.6266666666666)">100</text><line x1="628.4932125580967" y1="394.3333333333333" x2="628.4932125580967" y2="398.0" stroke="#444444" stroke-width="1.3333333333333333"/><text x="628.4932125580967" y="405.6266666666666" fill="#333333" font-size="11.733333333333334" font-family="sans-serif" text-anchor="end" transform="rotate(45.0 628.4932125580967 405.6266666666666)">1000</text><line x1="28.01333333333333" y1="391.04181818181814" x2="24.346666666666664" y2="391.04181818181814" stroke="#444444" stroke-width="1.3333333333333333"/><text x="21.41333333333333" y="395.14848484848477" fill="#333333" font-size="11.733333333333334" font-family="sans-serif" text-anchor="end">0</text><line x1="28.01333333333333" y1="303.26808080808075" x2="24.346666666666664" y2="303.26808080808075" stroke="#444444" stroke-width="1.3333333333333333"/><text x="21.41333333333333" y="307.37474747474744" fill="#333333" font-size="11.733333333333334" font-family="sans-serif" text-anchor="end">20</text><line x1="28.01333333333333" y1="215.49434343434342" x2="24.346666666666664" y2="215.49434343434342" stroke="#444444" stroke-width="1.3333333333333333"/><text x="21.41333333333333" y="219.6010101010101" fill="#333333" font-size="11.733333333333334" font-family="sans-serif" text-anchor="end">40</text><line x1="28.01333333333333" y1="127.72060606060604" x2="24.346666666666664" y2="127.72060606060604" stroke="#444444" stroke-width="1.3333333333333333"/><text x="21.41333333333333" y="131.8272727272727" fill="#333333" font-size="11.733333333333334" font-family="sans-serif" text-anchor="end">60</text><line x1="28.01333333333333" y1="39.946868686868655" x2="24.346666666666664" y2="39.946868686868655" stroke="#444444" stroke-width="1.3333333333333333"/><text x="21.41333333333333" y="44.053535353535324" fill="#333333" font-size="11.733333333333334" font-family="sans-serif" text-anchor="end">80</text><text x="28.01333333333333" y="21.413333333333334" fill="#333333" font-size="17.599999999999998" font-family="sans-serif" text-anchor="start">xAxis (logAxis &lt;&gt; axisRange &lt;&gt; axisRotate)</text><circle cx="37.03455465205509" cy="377.8757575757575" r="4.0" fill="#1f77b4" fill-opacity="0.85" stroke="none"><title>(1, 3)</title></circle><circle cx="131.10038697703453" cy="360.3210101010101" r="4.0" fill="#1f77b4" fill-opacity="0.85" stroke="none"><title>(3, 7)</title></circle><circle cx="234.18744062073569" cy="338.37757575757576" r="4.0" fill="#1f77b4" fill-opacity="0.85" stroke="none"><title>(10, 12)</title></circle><circle cx="328.2532729457151" cy="303.26808080808075" r="4.0" fill="#1f77b4" fill-opacity="0.85" stroke="none"><title>(30, 20)</title></circle><circle cx="431.34032658941624" cy="246.2151515151515" r="4.0" fill="#1f77b4" fill-opacity="0.85" stroke="none"><title>(100, 33)</title></circle><circle cx="525.4061589143955" cy="162.830101010101" r="4.0" fill="#1f77b4" fill-opacity="0.85" stroke="none"><title>(300, 52)</title></circle><circle cx="628.4932125580967" cy="48.72424242424237" r="4.0" fill="#1f77b4" fill-opacity="0.85" stroke="none"><title>(1000, 78)</title></circle></svg>