<svg xmlns="http://www.w3.org/2000/svg" width="640" height="420" viewBox="0 0 640 420"><rect x="0.0" y="0.0" width="640.0" height="420.0" fill="#ffffff" fill-opacity="1.0" stroke="none"/><line x1="122.91136363636363" y1="27.0" x2="122.91136363636363" y2="398.55" stroke="#dddddd" stroke-width="0.5"/><line x1="285.775" y1="27.0" x2="285.775" y2="398.55" stroke="#dddddd" stroke-width="0.5"/><line x1="448.6386363636364" y1="27.0" x2="448.6386363636364" y2="398.55" stroke="#dddddd" stroke-width="0.5"/><line x1="41.47954545454546" y1="27.0" x2="41.47954545454546" y2="398.55" stroke="#dddddd" stroke-width="1.0"/><line x1="204.3431818181818" y1="27.0" x2="204.3431818181818" y2="398.55" stroke="#dddddd" stroke-width="1.0"/><line x1="367.20681818181816" y1="27.0" x2="367.20681818181816" y2="398.55" stroke="#dddddd" stroke-width="1.0"/><line x1="530.0704545454545" y1="27.0" x2="530.0704545454545" y2="398.55" stroke="#dddddd" stroke-width="1.0"/><line x1="17.049999999999997" y1="325.3659090909091" x2="554.5" y2="325.3659090909091" stroke="#dddddd" stroke-width="0.5"/><line x1="17.049999999999997" y1="212.77500000000003" x2="554.5" y2="212.77500000000003" stroke="#dddddd" stroke-width="0.5"/><line x1="17.049999999999997" y1="100.18409090909091" x2="554.5" y2="100.18409090909091" stroke="#dddddd" stroke-width="0.5"/><line x1="17.049999999999997" y1="381.66136363636366" x2="554.5" y2="381.66136363636366" stroke="#dddddd" stroke-width="1.0"/><line x1="17.049999999999997" y1="269.0704545454546" x2="554.5" y2="269.0704545454546" stroke="#dddddd" stroke-width="1.0"/><line x1="17.049999999999997" y1="156.4795454545455" x2="554.5" y2="156.4795454545455" stroke="#dddddd" stroke-width="1.0"/><line x1="17.049999999999997" y1="43.88863636363641" x2="554.5" y2="43.88863636363641" stroke="#dddddd" stroke-width="1.0"/><rect x="17.049999999999997" y="27.0" width="537.45" height="371.55" fill="#ffffff" fill-opacity="0.0" stroke="#444444" stroke-width="1.0"/><line x1="41.47954545454546" y1="398.55" x2="41.47954545454546" y2="401.3" stroke="#444444" stroke-width="1.0"/><text x="41.47954545454546" y="412.3" fill="#333333" font-size="11.0" font-family="sans-serif" text-anchor="middle">1</text><line x1="204.3431818181818" y1="398.55" x2="204.3431818181818" y2="401.3" stroke="#444444" stroke-width="1.0"/><text x="204.3431818181818" y="412.3" fill="#333333" font-size="11.0" font-family="sans-serif" text-anchor="middle">2</text><line x1="367.20681818181816" y1="398.55" x2="367.20681818181816" y2="401.3" stroke="#444444" stroke-width="1.0"/><text x="367.20681818181816" y="412.3" fill="#333333" font-size="11.0" font-family="sans-serif" text-anchor="middle">3</text><line x1="530.0704545454545" y1="398.55" x2="530.0704545454545" y2="401.3" stroke="#444444" stroke-width="1.0"/><text x="530.0704545454545" y="412.3" fill="#333333" font-size="11.0" font-family="sans-serif" text-anchor="middle">4</text><line x1="17.049999999999997" y1="381.66136363636366" x2="14.299999999999997" y2="381.66136363636366" stroke="#444444" stroke-width="1.0"/><text x="12.099999999999998" y="385.5113636363637" fill="#333333" font-size="11.0" font-family="sans-serif" text-anchor="end">1</text><line x1="17.049999999999997" y1="269.0704545454546" x2="14.299999999999997" y2="269.0704545454546" stroke="#444444" stroke-width="1.0"/><text x="12.099999999999998" y="272.9204545454546" fill="#333333" font-size="11.0" font-family="sans-serif" text-anchor="end">2</text><line x1="17.049999999999997" y1="156.4795454545455" x2="14.299999999999997" y2="156.4795454545455" stroke="#444444" stroke-width="1.0"/><text x="12.099999999999998" y="160.3295454545455" fill="#333333" font-size="11.0" font-family="sans-serif" text-anchor="end">3</text><line x1="17.049999999999997" y1="43.88863636363641" x2="14.299999999999997" y2="43.88863636363641" stroke="#444444" stroke-width="1.0"/><text x="12.099999999999998" y="47.73863636363641" fill="#333333" font-size="11.0" font-family="sans-serif" text-anchor="end">4</text><text x="285.77500000000003" y="18.3" fill="#333333" font-size="16.0" font-family="sans-serif" text-anchor="middle">3h. refHorizontal / refVertical + legend</text><circle cx="41.47954545454546" cy="269.0704545454546" r="6.0" fill="#F8766D" fill-opacity="0.85" stroke="#F8766D" stroke-width="1.0"><title>(1, 2)</title></circle><circle cx="204.3431818181818" cy="156.4795454545455" r="6.0" fill="#F8766D" fill-opacity="0.85" stroke="#F8766D" stroke-width="1.0"><title>(2, 3)</title></circle><circle cx="367.20681818181816" cy="381.66136363636366" r="6.0" fill="#F8766D" fill-opacity="0.85" stroke="#F8766D" stroke-width="1.0"><title>(3, 1)</title></circle><circle cx="530.0704545454545" cy="43.88863636363641" r="6.0" fill="#F8766D" fill-opacity="0.85" stroke="#F8766D" stroke-width="1.0"><title>(4, 4)</title></circle><circle cx="41.47954545454546" cy="156.4795454545455" r="6.0" fill="#C49A00" fill-opacity="0.85" stroke="#C49A00" stroke-width="1.0"><title>(1, 3)</title></circle><circle cx="204.3431818181818" cy="381.66136363636366" r="6.0" fill="#C49A00" fill-opacity="0.85" stroke="#C49A00" stroke-width="1.0"><title>(2, 1)</title></circle><circle cx="367.20681818181816" cy="43.88863636363641" r="6.0" fill="#C49A00" fill-opacity="0.85" stroke="#C49A00" stroke-width="1.0"><title>(3, 4)</title></circle><circle cx="530.0704545454545" cy="269.0704545454546" r="6.0" fill="#C49A00" fill-opacity="0.85" stroke="#C49A00" stroke-width="1.0"><title>(4, 2)</title></circle><line x1="17.049999999999997" y1="212.77500000000003" x2="554.5" y2="212.77500000000003" stroke="#444444" stroke-width="1.5"/><line x1="285.775" y1="27.0" x2="285.775" y2="398.55" stroke="#444444" stroke-width="1.5"/><circle cx="569.5" cy="45.0" r="5.0" fill="#F8766D" fill-opacity="1.0" stroke="#F8766D" stroke-width="1.0"/><text x="578.5" y="49.0" fill="#333333" font-size="10.0" font-family="sans-serif" text-anchor="start">alpha</text><circle cx="569.5" cy="61.0" r="5.0" fill="#C49A00" fill-opacity="1.0" stroke="#C49A00" stroke-width="1.0"/><text x="578.5" y="65.0" fill="#333333" font-size="10.0" font-family="sans-serif" text-anchor="start">beta</text></svg>