<svg xmlns="http://www.w3.org/2000/svg" width="640" height="420" viewBox="0 0 640 420"><rect x="0.0" y="0.0" width="640.0" height="420.0" fill="#ffffff" fill-opacity="1.0" stroke="none"/><line x1="80.08" y1="32.266666666666666" x2="80.08" y2="394.3333333333333" stroke="#dddddd" stroke-width="0.6666666666666666"/><line x1="215.7466666666667" y1="32.266666666666666" x2="215.7466666666667" y2="394.3333333333333" stroke="#dddddd" stroke-width="0.6666666666666666"/><line x1="351.4133333333334" y1="32.266666666666666" x2="351.4133333333334" y2="394.3333333333333" stroke="#dddddd" stroke-width="0.6666666666666666"/><line x1="487.08" y1="32.266666666666666" x2="487.08" y2="394.3333333333333" stroke="#dddddd" stroke-width="0.6666666666666666"/><line x1="147.91333333333333" y1="32.266666666666666" x2="147.91333333333333" y2="394.3333333333333" stroke="#dddddd" stroke-width="1.3333333333333333"/><line x1="283.58000000000004" y1="32.266666666666666" x2="283.58000000000004" y2="394.3333333333333" stroke="#dddddd" stroke-width="1.3333333333333333"/><line x1="419.24666666666667" y1="32.266666666666666" x2="419.24666666666667" y2="394.3333333333333" stroke="#dddddd" stroke-width="1.3333333333333333"/><line x1="554.9133333333333" y1="32.266666666666666" x2="554.9133333333333" y2="394.3333333333333" stroke="#dddddd" stroke-width="1.3333333333333333"/><line x1="42.093333333333334" y1="336.7318181818182" x2="579.3333333333333" y2="336.7318181818182" stroke="#dddddd" stroke-width="0.6666666666666666"/><line x1="42.093333333333334" y1="254.44393939393936" x2="579.3333333333333" y2="254.44393939393936" stroke="#dddddd" stroke-width="0.6666666666666666"/><line x1="42.093333333333334" y1="172.15606060606058" x2="579.3333333333333" y2="172.15606060606058" stroke="#dddddd" stroke-width="0.6666666666666666"/><line x1="42.093333333333334" y1="89.86818181818178" x2="579.3333333333333" y2="89.86818181818178" stroke="#dddddd" stroke-width="0.6666666666666666"/><line x1="42.093333333333334" y1="377.8757575757575" x2="579.3333333333333" y2="377.8757575757575" stroke="#dddddd" stroke-width="1.3333333333333333"/><line x1="42.093333333333334" y1="295.58787878787876" x2="579.3333333333333" y2="295.58787878787876" stroke="#dddddd" stroke-width="1.3333333333333333"/><line x1="42.093333333333334" y1="213.29999999999998" x2="579.3333333333333" y2="213.29999999999998" stroke="#dddddd" stroke-width="1.3333333333333333"/><line x1="42.093333333333334" y1="131.0121212121212" x2="579.3333333333333" y2="131.0121212121212" stroke="#dddddd" stroke-width="1.3333333333333333"/><line x1="42.093333333333334" y1="48.72424242424237" x2="579.3333333333333" y2="48.72424242424237" stroke="#dddddd" stroke-width="1.3333333333333333"/><rect x="42.093333333333334" y="32.266666666666666" width="537.24" height="362.06666666666666" fill="#ffffff" fill-opacity="0.0" stroke="#444444" stroke-width="1.3333333333333333"/><line x1="147.91333333333333" y1="394.3333333333333" x2="147.91333333333333" y2="398.0" stroke="#444444" stroke-width="1.3333333333333333"/><text x="147.91333333333333" y="410.32" fill="#333333" font-size="11.733333333333334" font-family="sans-serif" text-anchor="middle">2.5</text><line x1="283.58000000000004" y1="394.3333333333333" x2="283.58000000000004" y2="398.0" stroke="#444444" stroke-width="1.3333333333333333"/><text x="283.58000000000004" y="410.32" fill="#333333" font-size="11.733333333333334" font-family="sans-serif" text-anchor="middle">5.0</text><line x1="419.24666666666667" y1="394.3333333333333" x2="419.24666666666667" y2="398.0" stroke="#444444" stroke-width="1.3333333333333333"/><text x="419.24666666666667" y="410.32" fill="#333333" font-size="11.733333333333334" font-family="sans-serif" text-anchor="middle">7.5</text><line x1="554.9133333333333" y1="394.3333333333333" x2="554.9133333333333" y2="398.0" stroke="#444444" stroke-width="1.3333333333333333"/><text x="554.9133333333333" y="410.32" fill="#333333" font-size="11.733333333333334" font-family="sans-serif" text-anchor="middle">10.0</text><line x1="42.093333333333334" y1="377.8757575757575" x2="38.42666666666666" y2="377.8757575757575" stroke="#444444" stroke-width="1.3333333333333333"/><text x="35.49333333333333" y="381.98242424242414" fill="#333333" font-size="11.733333333333334" font-family="sans-serif" text-anchor="end">10.0</text><line x1="42.093333333333334" y1="295.58787878787876" x2="38.42666666666666" y2="295.58787878787876" stroke="#444444" stroke-width="1.3333333333333333"/><text x="35.49333333333333" y="299.69454545454545" fill="#333333" font-size="11.733333333333334" font-family="sans-serif" text-anchor="end">12.5</text><line x1="42.093333333333334" y1="213.29999999999998" x2="38.42666666666666" y2="213.29999999999998" stroke="#444444" stroke-width="1.3333333333333333"/><text x="35.49333333333333" y="217.40666666666667" fill="#333333" font-size="11.733333333333334" font-family="sans-serif" text-anchor="end">15.0</text><line x1="42.093333333333334" y1="131.0121212121212" x2="38.42666666666666" y2="131.0121212121212" stroke="#444444" stroke-width="1.3333333333333333"/><text x="35.49333333333333" y="135.11878787878786" fill="#333333" font-size="11.733333333333334" font-family="sans-serif" text-anchor="end">17.5</text><line x1="42.093333333333334" y1="48.72424242424237" x2="38.42666666666666" y2="48.72424242424237" stroke="#444444" stroke-width="1.3333333333333333"/><text x="35.49333333333333" y="52.83090909090903" fill="#333333" font-size="11.733333333333334" font-family="sans-serif" text-anchor="end">20.0</text><text x="42.093333333333334" y="21.413333333333334" fill="#333333" font-size="17.599999999999998" font-family="sans-serif" text-anchor="start">第 2 軸 (price=左 / volume=右)</text><line x1="66.51333333333334" y1="377.8757575757575" x2="120.78" y2="344.9606060606061" stroke="#1f77b4" stroke-width="2.6666666666666665"/><line x1="120.78" y1="344.9606060606061" x2="175.04666666666668" y2="279.130303030303" stroke="#1f77b4" stroke-width="2.6666666666666665"/><line x1="175.04666666666668" y1="279.130303030303" x2="229.31333333333333" y2="312.0454545454545" stroke="#1f77b4" stroke-width="2.6666666666666665"/><line x1="229.31333333333333" y1="312.0454545454545" x2="283.58000000000004" y2="213.29999999999998" stroke="#1f77b4" stroke-width="2.6666666666666665"/><line x1="283.58000000000004" y1="213.29999999999998" x2="337.8466666666667" y2="180.38484848484848" stroke="#1f77b4" stroke-width="2.6666666666666665"/><line x1="337.8466666666667" y1="180.38484848484848" x2="392.11333333333334" y2="213.29999999999998" stroke="#1f77b4" stroke-width="2.6666666666666665"/><line x1="392.11333333333334" y1="213.29999999999998" x2="446.38" y2="114.55454545454543" stroke="#1f77b4" stroke-width="2.6666666666666665"/><line x1="446.38" y1="114.55454545454543" x2="500.64666666666665" y2="147.46969696969694" stroke="#1f77b4" stroke-width="2.6666666666666665"/><line x1="500.64666666666665" y1="147.46969696969694" x2="554.9133333333333" y2="48.72424242424237" stroke="#1f77b4" stroke-width="2.6666666666666665"/><line x1="66.51333333333334" y1="394.3333333333333" x2="120.78" y2="290.88571428571424" stroke="#d62728" stroke-width="2.6666666666666665"/><line x1="120.78" y1="290.88571428571424" x2="175.04666666666668" y2="342.6095238095238" stroke="#d62728" stroke-width="2.6666666666666665"/><line x1="175.04666666666668" y1="342.6095238095238" x2="229.31333333333333" y2="187.43809523809523" stroke="#d62728" stroke-width="2.6666666666666665"/><line x1="229.31333333333333" y1="187.43809523809523" x2="283.58000000000004" y2="239.16190476190474" stroke="#d62728" stroke-width="2.6666666666666665"/><line x1="283.58000000000004" y1="239.16190476190474" x2="337.8466666666667" y2="83.99047619047617" stroke="#d62728" stroke-width="2.6666666666666665"/><line x1="337.8466666666667" y1="83.99047619047617" x2="392.11333333333334" y2="135.7142857142857" stroke="#d62728" stroke-width="2.6666666666666665"/><line x1="392.11333333333334" y1="135.7142857142857" x2="446.38" y2="187.43809523809523" stroke="#d62728" stroke-width="2.6666666666666665"/><line x1="446.38" y1="187.43809523809523" x2="500.64666666666665" y2="83.99047619047617" stroke="#d62728" stroke-width="2.6666666666666665"/><line x1="500.64666666666665" y1="83.99047619047617" x2="554.9133333333333" y2="32.26666666666665" stroke="#d62728" stroke-width="2.6666666666666665"/><line x1="579.3333333333333" y1="32.266666666666666" x2="579.3333333333333" y2="394.3333333333333" stroke="#444444" stroke-width="1.3333333333333333"/><line x1="579.3333333333333" y1="342.6095238095238" x2="586.0" y2="342.6095238095238" stroke="#444444" stroke-width="1.3333333333333333"/><text x="590.0" y="347.9428571428571" fill="#333333" font-size="11.733333333333334" font-family="sans-serif" text-anchor="start">400000</text><line x1="579.3333333333333" y1="239.16190476190474" x2="586.0" y2="239.16190476190474" stroke="#444444" stroke-width="1.3333333333333333"/><text x="590.0" y="244.49523809523808" fill="#333333" font-size="11.733333333333334" font-family="sans-serif" text-anchor="start">600000</text><line x1="579.3333333333333" y1="135.7142857142857" x2="586.0" y2="135.7142857142857" stroke="#444444" stroke-width="1.3333333333333333"/><text x="590.0" y="141.04761904761904" fill="#333333" font-size="11.733333333333334" font-family="sans-serif" text-anchor="start">800000</text><line x1="579.3333333333333" y1="32.26666666666665" x2="586.0" y2="32.26666666666665" stroke="#444444" stroke-width="1.3333333333333333"/><text x="590.0" y="37.59999999999998" fill="#333333" font-size="11.733333333333334" font-family="sans-serif" text-anchor="start">1000000</text></svg>