<svg xmlns="http://www.w3.org/2000/svg" width="640" height="420" viewBox="0 0 640 420"><rect x="0.0" y="0.0" width="640.0" height="420.0" fill="#ffffff" fill-opacity="1.0" stroke="none"/><line x1="139.62484848484848" y1="32.266666666666666" x2="139.62484848484848" y2="376.0" stroke="#dddddd" stroke-width="0.6666666666666666"/><line x1="272.87939393939394" y1="32.266666666666666" x2="272.87939393939394" y2="376.0" stroke="#dddddd" stroke-width="0.6666666666666666"/><line x1="406.1339393939394" y1="32.266666666666666" x2="406.1339393939394" y2="376.0" stroke="#dddddd" stroke-width="0.6666666666666666"/><line x1="539.3884848484848" y1="32.266666666666666" x2="539.3884848484848" y2="376.0" stroke="#dddddd" stroke-width="0.6666666666666666"/><line x1="72.99757575757576" y1="32.266666666666666" x2="72.99757575757576" y2="376.0" stroke="#dddddd" stroke-width="1.3333333333333333"/><line x1="206.2521212121212" y1="32.266666666666666" x2="206.2521212121212" y2="376.0" stroke="#dddddd" stroke-width="1.3333333333333333"/><line x1="339.50666666666666" y1="32.266666666666666" x2="339.50666666666666" y2="376.0" stroke="#dddddd" stroke-width="1.3333333333333333"/><line x1="472.7612121212121" y1="32.266666666666666" x2="472.7612121212121" y2="376.0" stroke="#dddddd" stroke-width="1.3333333333333333"/><line x1="606.0157575757576" y1="32.266666666666666" x2="606.0157575757576" y2="376.0" stroke="#dddddd" stroke-width="1.3333333333333333"/><line x1="46.346666666666664" y1="336.9393939393939" x2="632.6666666666666" y2="336.9393939393939" stroke="#dddddd" stroke-width="0.6666666666666666"/><line x1="46.346666666666664" y1="258.8181818181818" x2="632.6666666666666" y2="258.8181818181818" stroke="#dddddd" stroke-width="0.6666666666666666"/><line x1="46.346666666666664" y1="180.69696969696966" x2="632.6666666666666" y2="180.69696969696966" stroke="#dddddd" stroke-width="0.6666666666666666"/><line x1="46.346666666666664" y1="102.57575757575758" x2="632.6666666666666" y2="102.57575757575758" stroke="#dddddd" stroke-width="0.6666666666666666"/><line x1="46.346666666666664" y1="376.0" x2="632.6666666666666" y2="376.0" stroke="#dddddd" stroke-width="1.3333333333333333"/><line x1="46.346666666666664" y1="297.8787878787879" x2="632.6666666666666" y2="297.8787878787879" stroke="#dddddd" stroke-width="1.3333333333333333"/><line x1="46.346666666666664" y1="219.75757575757575" x2="632.6666666666666" y2="219.75757575757575" stroke="#dddddd" stroke-width="1.3333333333333333"/><line x1="46.346666666666664" y1="141.63636363636363" x2="632.6666666666666" y2="141.63636363636363" stroke="#dddddd" stroke-width="1.3333333333333333"/><line x1="46.346666666666664" y1="63.5151515151515" x2="632.6666666666666" y2="63.5151515151515" stroke="#dddddd" stroke-width="1.3333333333333333"/><rect x="46.346666666666664" y="32.266666666666666" width="586.3199999999999" height="343.73333333333335" fill="#ffffff" fill-opacity="0.0" stroke="#444444" stroke-width="1.3333333333333333"/><line x1="72.99757575757576" y1="376.0" x2="72.99757575757576" y2="379.66666666666663" stroke="#444444" stroke-width="1.3333333333333333"/><text x="72.99757575757576" y="391.9866666666667" fill="#333333" font-size="11.733333333333334" font-family="sans-serif" text-anchor="middle">0.0</text><line x1="206.2521212121212" y1="376.0" x2="206.2521212121212" y2="379.66666666666663" stroke="#444444" stroke-width="1.3333333333333333"/><text x="206.2521212121212" y="391.9866666666667" fill="#333333" font-size="11.733333333333334" font-family="sans-serif" text-anchor="middle">2.5</text><line x1="339.50666666666666" y1="376.0" x2="339.50666666666666" y2="379.66666666666663" stroke="#444444" stroke-width="1.3333333333333333"/><text x="339.50666666666666" y="391.9866666666667" fill="#333333" font-size="11.733333333333334" font-family="sans-serif" text-anchor="middle">5.0</text><line x1="472.7612121212121" y1="376.0" x2="472.7612121212121" y2="379.66666666666663" stroke="#444444" stroke-width="1.3333333333333333"/><text x="472.7612121212121" y="391.9866666666667" fill="#333333" font-size="11.733333333333334" font-family="sans-serif" text-anchor="middle">7.5</text><line x1="606.0157575757576" y1="376.0" x2="606.0157575757576" y2="379.66666666666663" stroke="#444444" stroke-width="1.3333333333333333"/><text x="606.0157575757576" y="391.9866666666667" fill="#333333" font-size="11.733333333333334" font-family="sans-serif" text-anchor="middle">10.0</text><line x1="46.346666666666664" y1="376.0" x2="42.67999999999999" y2="376.0" stroke="#444444" stroke-width="1.3333333333333333"/><text x="39.74666666666666" y="380.1066666666666" fill="#333333" font-size="11.733333333333334" font-family="sans-serif" text-anchor="end">0</text><line x1="46.346666666666664" y1="297.8787878787879" x2="42.67999999999999" y2="297.8787878787879" stroke="#444444" stroke-width="1.3333333333333333"/><text x="39.74666666666666" y="301.98545454545456" fill="#333333" font-size="11.733333333333334" font-family="sans-serif" text-anchor="end">5</text><line x1="46.346666666666664" y1="219.75757575757575" x2="42.67999999999999" y2="219.75757575757575" stroke="#444444" stroke-width="1.3333333333333333"/><text x="39.74666666666666" y="223.86424242424243" fill="#333333" font-size="11.733333333333334" font-family="sans-serif" text-anchor="end">10</text><line x1="46.346666666666664" y1="141.63636363636363" x2="42.67999999999999" y2="141.63636363636363" stroke="#444444" stroke-width="1.3333333333333333"/><text x="39.74666666666666" y="145.74303030303028" fill="#333333" font-size="11.733333333333334" font-family="sans-serif" text-anchor="end">15</text><line x1="46.346666666666664" y1="63.5151515151515" x2="42.67999999999999" y2="63.5151515151515" stroke="#444444" stroke-width="1.3333333333333333"/><text x="39.74666666666666" y="67.62181818181816" fill="#333333" font-size="11.733333333333334" font-family="sans-serif" text-anchor="end">20</text><text x="46.346666666666664" y="21.413333333333334" fill="#333333" font-size="17.599999999999998" font-family="sans-serif" text-anchor="start">statFunction (2x+1)</text><text x="339.50666666666666" y="409.73333333333335" fill="#333333" font-size="14.666666666666666" font-family="sans-serif" text-anchor="middle">x</text><text x="17.599999999999998" y="204.13333333333333" fill="#333333" font-size="14.666666666666666" font-family="sans-serif" text-anchor="middle" transform="rotate(-90.0 17.599999999999998 204.13333333333333)">y</text><circle cx="126.29939393939392" cy="329.1272727272727" r="3.1181102362204727" fill="#1f77b4" fill-opacity="0.85" stroke="none"><title>(1, 3)</title></circle><circle cx="232.90303030303028" cy="266.630303030303" r="3.1181102362204727" fill="#1f77b4" fill-opacity="0.85" stroke="none"><title>(3, 7)</title></circle><circle cx="339.50666666666666" cy="219.75757575757575" r="3.1181102362204727" fill="#1f77b4" fill-opacity="0.85" stroke="none"><title>(5, 10)</title></circle><circle cx="446.110303030303" cy="126.0121212121212" r="3.1181102362204727" fill="#1f77b4" fill-opacity="0.85" stroke="none"><title>(7, 16)</title></circle><circle cx="552.7139393939394" cy="94.76363636363635" r="3.1181102362204727" fill="#1f77b4" fill-opacity="0.85" stroke="none"><title>(9, 18)</title></circle><line x1="72.99757575757576" y1="360.3757575757575" x2="78.38159779614324" y2="357.21934496479946" stroke="#1f77b4" stroke-width="1.4211023622047245"/><line x1="78.38159779614324" y1="357.21934496479946" x2="83.76561983471073" y2="354.06293235384146" stroke="#1f77b4" stroke-width="1.4211023622047245"/><line x1="83.76561983471073" y1="354.06293235384146" x2="89.14964187327823" y2="350.90651974288335" stroke="#1f77b4" stroke-width="1.4211023622047245"/><line x1="89.14964187327823" y1="350.90651974288335" x2="94.53366391184571" y2="347.7501071319253" stroke="#1f77b4" stroke-width="1.4211023622047245"/><line x1="94.53366391184571" y1="347.7501071319253" x2="99.91768595041322" y2="344.59369452096723" stroke="#1f77b4" stroke-width="1.4211023622047245"/><line x1="99.91768595041322" y1="344.59369452096723" x2="105.30170798898071" y2="341.4372819100091" stroke="#1f77b4" stroke-width="1.4211023622047245"/><line x1="105.30170798898071" y1="341.4372819100091" x2="110.6857300275482" y2="338.2808692990511" stroke="#1f77b4" stroke-width="1.4211023622047245"/><line x1="110.6857300275482" y1="338.2808692990511" x2="116.06975206611568" y2="335.124456688093" stroke="#1f77b4" stroke-width="1.4211023622047245"/><line x1="116.06975206611568" y1="335.124456688093" x2="121.4537741046832" y2="331.96804407713495" stroke="#1f77b4" stroke-width="1.4211023622047245"/><line x1="121.4537741046832" y1="331.96804407713495" x2="126.83779614325069" y2="328.8116314661769" stroke="#1f77b4" stroke-width="1.4211023622047245"/><line x1="126.83779614325069" y1="328.8116314661769" x2="132.22181818181815" y2="325.65521885521883" stroke="#1f77b4" stroke-width="1.4211023622047245"/><line x1="132.22181818181815" y1="325.65521885521883" x2="137.60584022038566" y2="322.4988062442608" stroke="#1f77b4" stroke-width="1.4211023622047245"/><line x1="137.60584022038566" y1="322.4988062442608" x2="142.98986225895317" y2="319.3423936333027" stroke="#1f77b4" stroke-width="1.4211023622047245"/><line x1="142.98986225895317" y1="319.3423936333027" x2="148.37388429752065" y2="316.18598102234466" stroke="#1f77b4" stroke-width="1.4211023622047245"/><line x1="148.37388429752065" y1="316.18598102234466" x2="153.75790633608815" y2="313.02956841138655" stroke="#1f77b4" stroke-width="1.4211023622047245"/><line x1="153.75790633608815" y1="313.02956841138655" x2="159.1419283746556" y2="309.87315580042855" stroke="#1f77b4" stroke-width="1.4211023622047245"/><line x1="159.1419283746556" y1="309.87315580042855" x2="164.52595041322311" y2="306.71674318947044" stroke="#1f77b4" stroke-width="1.4211023622047245"/><line x1="164.52595041322311" y1="306.71674318947044" x2="169.90997245179065" y2="303.5603305785124" stroke="#1f77b4" stroke-width="1.4211023622047245"/><line x1="169.90997245179065" y1="303.5603305785124" x2="175.2939944903581" y2="300.4039179675543" stroke="#1f77b4" stroke-width="1.4211023622047245"/><line x1="175.2939944903581" y1="300.4039179675543" x2="180.6780165289256" y2="297.2475053565962" stroke="#1f77b4" stroke-width="1.4211023622047245"/><line x1="180.6780165289256" y1="297.2475053565962" x2="186.06203856749312" y2="294.0910927456382" stroke="#1f77b4" stroke-width="1.4211023622047245"/><line x1="186.06203856749312" y1="294.0910927456382" x2="191.4460606060606" y2="290.9346801346801" stroke="#1f77b4" stroke-width="1.4211023622047245"/><line x1="191.4460606060606" y1="290.9346801346801" x2="196.8300826446281" y2="287.77826752372204" stroke="#1f77b4" stroke-width="1.4211023622047245"/><line x1="196.8300826446281" y1="287.77826752372204" x2="202.21410468319561" y2="284.621854912764" stroke="#1f77b4" stroke-width="1.4211023622047245"/><line x1="202.21410468319561" y1="284.621854912764" x2="207.59812672176307" y2="281.4654423018059" stroke="#1f77b4" stroke-width="1.4211023622047245"/><line x1="207.59812672176307" y1="281.4654423018059" x2="212.98214876033057" y2="278.30902969084786" stroke="#1f77b4" stroke-width="1.4211023622047245"/><line x1="212.98214876033057" y1="278.30902969084786" x2="218.36617079889803" y2="275.1526170798898" stroke="#1f77b4" stroke-width="1.4211023622047245"/><line x1="218.36617079889803" y1="275.1526170798898" x2="223.75019283746553" y2="271.99620446893175" stroke="#1f77b4" stroke-width="1.4211023622047245"/><line x1="223.75019283746553" y1="271.99620446893175" x2="229.13421487603307" y2="268.83979185797364" stroke="#1f77b4" stroke-width="1.4211023622047245"/><line x1="229.13421487603307" y1="268.83979185797364" x2="234.51823691460055" y2="265.6833792470156" stroke="#1f77b4" stroke-width="1.4211023622047245"/><line x1="234.51823691460055" y1="265.6833792470156" x2="239.90225895316806" y2="262.5269666360575" stroke="#1f77b4" stroke-width="1.4211023622047245"/><line x1="239.90225895316806" y1="262.5269666360575" x2="245.2862809917355" y2="259.37055402509947" stroke="#1f77b4" stroke-width="1.4211023622047245"/><line x1="245.2862809917355" y1="259.37055402509947" x2="250.67030303030302" y2="256.2141414141414" stroke="#1f77b4" stroke-width="1.4211023622047245"/><line x1="250.67030303030302" y1="256.2141414141414" x2="256.0543250688705" y2="253.05772880318332" stroke="#1f77b4" stroke-width="1.4211023622047245"/><line x1="256.0543250688705" y1="253.05772880318332" x2="261.438347107438" y2="249.9013161922253" stroke="#1f77b4" stroke-width="1.4211023622047245"/><line x1="261.438347107438" y1="249.9013161922253" x2="266.8223691460055" y2="246.74490358126718" stroke="#1f77b4" stroke-width="1.4211023622047245"/><line x1="266.8223691460055" y1="246.74490358126718" x2="272.20639118457296" y2="243.58849097030912" stroke="#1f77b4" stroke-width="1.4211023622047245"/><line x1="272.20639118457296" y1="243.58849097030912" x2="277.59041322314044" y2="240.4320783593511" stroke="#1f77b4" stroke-width="1.4211023622047245"/><line x1="277.59041322314044" y1="240.4320783593511" x2="282.974435261708" y2="237.27566574839298" stroke="#1f77b4" stroke-width="1.4211023622047245"/><line x1="282.974435261708" y1="237.27566574839298" x2="288.3584573002755" y2="234.11925313743495" stroke="#1f77b4" stroke-width="1.4211023622047245"/><line x1="288.3584573002755" y1="234.11925313743495" x2="293.74247933884294" y2="230.9628405264769" stroke="#1f77b4" stroke-width="1.4211023622047245"/><line x1="293.74247933884294" y1="230.9628405264769" x2="299.1265013774104" y2="227.80642791551878" stroke="#1f77b4" stroke-width="1.4211023622047245"/><line x1="299.1265013774104" y1="227.80642791551878" x2="304.5105234159779" y2="224.65001530456075" stroke="#1f77b4" stroke-width="1.4211023622047245"/><line x1="304.5105234159779" y1="224.65001530456075" x2="309.89454545454544" y2="221.49360269360267" stroke="#1f77b4" stroke-width="1.4211023622047245"/><line x1="309.89454545454544" y1="221.49360269360267" x2="315.278567493113" y2="218.3371900826446" stroke="#1f77b4" stroke-width="1.4211023622047245"/><line x1="315.278567493113" y1="218.3371900826446" x2="320.6625895316804" y2="215.18077747168655" stroke="#1f77b4" stroke-width="1.4211023622047245"/><line x1="320.6625895316804" y1="215.18077747168655" x2="326.04661157024793" y2="212.02436486072844" stroke="#1f77b4" stroke-width="1.4211023622047245"/><line x1="326.04661157024793" y1="212.02436486072844" x2="331.4306336088154" y2="208.8679522497704" stroke="#1f77b4" stroke-width="1.4211023622047245"/><line x1="331.4306336088154" y1="208.8679522497704" x2="336.8146556473829" y2="205.71153963881233" stroke="#1f77b4" stroke-width="1.4211023622047245"/><line x1="336.8146556473829" y1="205.71153963881233" x2="342.19867768595043" y2="202.5551270278543" stroke="#1f77b4" stroke-width="1.4211023622047245"/><line x1="342.19867768595043" y1="202.5551270278543" x2="347.5826997245179" y2="199.3987144168962" stroke="#1f77b4" stroke-width="1.4211023622047245"/><line x1="347.5826997245179" y1="199.3987144168962" x2="352.96672176308545" y2="196.24230180593815" stroke="#1f77b4" stroke-width="1.4211023622047245"/><line x1="352.96672176308545" y1="196.24230180593815" x2="358.3507438016529" y2="193.08588919498007" stroke="#1f77b4" stroke-width="1.4211023622047245"/><line x1="358.3507438016529" y1="193.08588919498007" x2="363.73476584022035" y2="189.92947658402204" stroke="#1f77b4" stroke-width="1.4211023622047245"/><line x1="363.73476584022035" y1="189.92947658402204" x2="369.1187878787879" y2="186.77306397306396" stroke="#1f77b4" stroke-width="1.4211023622047245"/><line x1="369.1187878787879" y1="186.77306397306396" x2="374.50280991735536" y2="183.61665136210587" stroke="#1f77b4" stroke-width="1.4211023622047245"/><line x1="374.50280991735536" y1="183.61665136210587" x2="379.8868319559229" y2="180.4602387511478" stroke="#1f77b4" stroke-width="1.4211023622047245"/><line x1="379.8868319559229" y1="180.4602387511478" x2="385.2708539944904" y2="177.30382614018973" stroke="#1f77b4" stroke-width="1.4211023622047245"/><line x1="385.2708539944904" y1="177.30382614018973" x2="390.6548760330578" y2="174.1474135292317" stroke="#1f77b4" stroke-width="1.4211023622047245"/><line x1="390.6548760330578" y1="174.1474135292317" x2="396.0388980716253" y2="170.99100091827364" stroke="#1f77b4" stroke-width="1.4211023622047245"/><line x1="396.0388980716253" y1="170.99100091827364" x2="401.4229201101928" y2="167.83458830731558" stroke="#1f77b4" stroke-width="1.4211023622047245"/><line x1="401.4229201101928" y1="167.83458830731558" x2="406.8069421487603" y2="164.6781756963575" stroke="#1f77b4" stroke-width="1.4211023622047245"/><line x1="406.8069421487603" y1="164.6781756963575" x2="412.1909641873277" y2="161.52176308539947" stroke="#1f77b4" stroke-width="1.4211023622047245"/><line x1="412.1909641873277" y1="161.52176308539947" x2="417.57498622589526" y2="158.36535047444139" stroke="#1f77b4" stroke-width="1.4211023622047245"/><line x1="417.57498622589526" y1="158.36535047444139" x2="422.95900826446274" y2="155.2089378634833" stroke="#1f77b4" stroke-width="1.4211023622047245"/><line x1="422.95900826446274" y1="155.2089378634833" x2="428.3430303030303" y2="152.05252525252524" stroke="#1f77b4" stroke-width="1.4211023622047245"/><line x1="428.3430303030303" y1="152.05252525252524" x2="433.72705234159776" y2="148.89611264156716" stroke="#1f77b4" stroke-width="1.4211023622047245"/><line x1="433.72705234159776" y1="148.89611264156716" x2="439.1110743801653" y2="145.73970003060907" stroke="#1f77b4" stroke-width="1.4211023622047245"/><line x1="439.1110743801653" y1="145.73970003060907" x2="444.4950964187328" y2="142.58328741965104" stroke="#1f77b4" stroke-width="1.4211023622047245"/><line x1="444.4950964187328" y1="142.58328741965104" x2="449.87911845730025" y2="139.42687480869296" stroke="#1f77b4" stroke-width="1.4211023622047245"/><line x1="449.87911845730025" y1="139.42687480869296" x2="455.2631404958678" y2="136.2704621977349" stroke="#1f77b4" stroke-width="1.4211023622047245"/><line x1="455.2631404958678" y1="136.2704621977349" x2="460.6471625344352" y2="133.11404958677684" stroke="#1f77b4" stroke-width="1.4211023622047245"/><line x1="460.6471625344352" y1="133.11404958677684" x2="466.03118457300275" y2="129.9576369758188" stroke="#1f77b4" stroke-width="1.4211023622047245"/><line x1="466.03118457300275" y1="129.9576369758188" x2="471.4152066115703" y2="126.8012243648607" stroke="#1f77b4" stroke-width="1.4211023622047245"/><line x1="471.4152066115703" y1="126.8012243648607" x2="476.7992286501377" y2="123.64481175390263" stroke="#1f77b4" stroke-width="1.4211023622047245"/><line x1="476.7992286501377" y1="123.64481175390263" x2="482.1832506887052" y2="120.48839914294459" stroke="#1f77b4" stroke-width="1.4211023622047245"/><line x1="482.1832506887052" y1="120.48839914294459" x2="487.5672727272727" y2="117.33198653198647" stroke="#1f77b4" stroke-width="1.4211023622047245"/><line x1="487.5672727272727" y1="117.33198653198647" x2="492.9512947658402" y2="114.17557392102844" stroke="#1f77b4" stroke-width="1.4211023622047245"/><line x1="492.9512947658402" y1="114.17557392102844" x2="498.33531680440774" y2="111.0191613100704" stroke="#1f77b4" stroke-width="1.4211023622047245"/><line x1="498.33531680440774" y1="111.0191613100704" x2="503.71933884297516" y2="107.86274869911233" stroke="#1f77b4" stroke-width="1.4211023622047245"/><line x1="503.71933884297516" y1="107.86274869911233" x2="509.1033608815427" y2="104.70633608815425" stroke="#1f77b4" stroke-width="1.4211023622047245"/><line x1="509.1033608815427" y1="104.70633608815425" x2="514.4873829201101" y2="101.54992347719622" stroke="#1f77b4" stroke-width="1.4211023622047245"/><line x1="514.4873829201101" y1="101.54992347719622" x2="519.8714049586777" y2="98.3935108662381" stroke="#1f77b4" stroke-width="1.4211023622047245"/><line x1="519.8714049586777" y1="98.3935108662381" x2="525.2554269972452" y2="95.23709825528006" stroke="#1f77b4" stroke-width="1.4211023622047245"/><line x1="525.2554269972452" y1="95.23709825528006" x2="530.6394490358127" y2="92.08068564432195" stroke="#1f77b4" stroke-width="1.4211023622047245"/><line x1="530.6394490358127" y1="92.08068564432195" x2="536.0234710743802" y2="88.9242730333639" stroke="#1f77b4" stroke-width="1.4211023622047245"/><line x1="536.0234710743802" y1="88.9242730333639" x2="541.4074931129476" y2="85.76786042240587" stroke="#1f77b4" stroke-width="1.4211023622047245"/><line x1="541.4074931129476" y1="85.76786042240587" x2="546.7915151515151" y2="82.61144781144776" stroke="#1f77b4" stroke-width="1.4211023622047245"/><line x1="546.7915151515151" y1="82.61144781144776" x2="552.1755371900827" y2="79.45503520048976" stroke="#1f77b4" stroke-width="1.4211023622047245"/><line x1="552.1755371900827" y1="79.45503520048976" x2="557.5595592286502" y2="76.29862258953165" stroke="#1f77b4" stroke-width="1.4211023622047245"/><line x1="557.5595592286502" y1="76.29862258953165" x2="562.9435812672176" y2="73.1422099785736" stroke="#1f77b4" stroke-width="1.4211023622047245"/><line x1="562.9435812672176" y1="73.1422099785736" x2="568.327603305785" y2="69.98579736761556" stroke="#1f77b4" stroke-width="1.4211023622047245"/><line x1="568.327603305785" y1="69.98579736761556" x2="573.7116253443526" y2="66.82938475665745" stroke="#1f77b4" stroke-width="1.4211023622047245"/><line x1="573.7116253443526" y1="66.82938475665745" x2="579.0956473829201" y2="63.67297214569942" stroke="#1f77b4" stroke-width="1.4211023622047245"/><line x1="579.0956473829201" y1="63.67297214569942" x2="584.4796694214875" y2="60.51655953474134" stroke="#1f77b4" stroke-width="1.4211023622047245"/><line x1="584.4796694214875" y1="60.51655953474134" x2="589.8636914600551" y2="57.36014692378326" stroke="#1f77b4" stroke-width="1.4211023622047245"/><line x1="589.8636914600551" y1="57.36014692378326" x2="595.2477134986225" y2="54.20373431282519" stroke="#1f77b4" stroke-width="1.4211023622047245"/><line x1="595.2477134986225" y1="54.20373431282519" x2="600.63173553719" y2="51.04732170186715" stroke="#1f77b4" stroke-width="1.4211023622047245"/><line x1="600.63173553719" y1="51.04732170186715" x2="606.0157575757576" y2="47.890909090909076" stroke="#1f77b4" stroke-width="1.4211023622047245"/></svg>