<svg xmlns="http://www.w3.org/2000/svg" width="600" height="400" viewBox="0 0 600 400"><rect x="0.0" y="0.0" width="600.0" height="400.0" fill="#ffffff" fill-opacity="1.0" stroke="none"/><line x1="114.72272727272727" y1="27.0" x2="114.72272727272727" y2="363.8" stroke="#dddddd" stroke-width="0.5"/><line x1="198.88636363636363" y1="27.0" x2="198.88636363636363" y2="363.8" stroke="#dddddd" stroke-width="0.5"/><line x1="283.04999999999995" y1="27.0" x2="283.04999999999995" y2="363.8" stroke="#dddddd" stroke-width="0.5"/><line x1="367.2136363636363" y1="27.0" x2="367.2136363636363" y2="363.8" stroke="#dddddd" stroke-width="0.5"/><line x1="451.3772727272727" y1="27.0" x2="451.3772727272727" y2="363.8" stroke="#dddddd" stroke-width="0.5"/><line x1="72.64090909090908" y1="27.0" x2="72.64090909090908" y2="363.8" stroke="#dddddd" stroke-width="1.0"/><line x1="156.80454545454543" y1="27.0" x2="156.80454545454543" y2="363.8" stroke="#dddddd" stroke-width="1.0"/><line x1="240.96818181818182" y1="27.0" x2="240.96818181818182" y2="363.8" stroke="#dddddd" stroke-width="1.0"/><line x1="325.1318181818182" y1="27.0" x2="325.1318181818182" y2="363.8" stroke="#dddddd" stroke-width="1.0"/><line x1="409.2954545454545" y1="27.0" x2="409.2954545454545" y2="363.8" stroke="#dddddd" stroke-width="1.0"/><line x1="493.45909090909095" y1="27.0" x2="493.45909090909095" y2="363.8" stroke="#dddddd" stroke-width="1.0"/><line x1="51.599999999999994" y1="310.21818181818185" x2="514.5" y2="310.21818181818185" stroke="#dddddd" stroke-width="0.5"/><line x1="51.599999999999994" y1="233.6727272727273" x2="514.5" y2="233.6727272727273" stroke="#dddddd" stroke-width="0.5"/><line x1="51.599999999999994" y1="157.12727272727273" x2="514.5" y2="157.12727272727273" stroke="#dddddd" stroke-width="0.5"/><line x1="51.599999999999994" y1="80.58181818181816" x2="514.5" y2="80.58181818181816" stroke="#dddddd" stroke-width="0.5"/><line x1="51.599999999999994" y1="348.4909090909091" x2="514.5" y2="348.4909090909091" stroke="#dddddd" stroke-width="1.0"/><line x1="51.599999999999994" y1="271.9454545454546" x2="514.5" y2="271.9454545454546" stroke="#dddddd" stroke-width="1.0"/><line x1="51.599999999999994" y1="195.4" x2="514.5" y2="195.4" stroke="#dddddd" stroke-width="1.0"/><line x1="51.599999999999994" y1="118.85454545454544" x2="514.5" y2="118.85454545454544" stroke="#dddddd" stroke-width="1.0"/><line x1="51.599999999999994" y1="42.30909090909091" x2="514.5" y2="42.30909090909091" stroke="#dddddd" stroke-width="1.0"/><rect x="51.599999999999994" y="27.0" width="462.9" height="336.8" fill="#ffffff" fill-opacity="0.0" stroke="#444444" stroke-width="1.0"/><line x1="72.64090909090908" y1="363.8" x2="72.64090909090908" y2="366.55" stroke="#444444" stroke-width="1.0"/><text x="72.64090909090908" y="377.55" fill="#333333" font-size="11.0" font-family="sans-serif" text-anchor="middle">0</text><line x1="156.80454545454543" y1="363.8" x2="156.80454545454543" y2="366.55" stroke="#444444" stroke-width="1.0"/><text x="156.80454545454543" y="377.55" fill="#333333" font-size="11.0" font-family="sans-serif" text-anchor="middle">1</text><line x1="240.96818181818182" y1="363.8" x2="240.96818181818182" y2="366.55" stroke="#444444" stroke-width="1.0"/><text x="240.96818181818182" y="377.55" fill="#333333" font-size="11.0" font-family="sans-serif" text-anchor="middle">2</text><line x1="325.1318181818182" y1="363.8" x2="325.1318181818182" y2="366.55" stroke="#444444" stroke-width="1.0"/><text x="325.1318181818182" y="377.55" fill="#333333" font-size="11.0" font-family="sans-serif" text-anchor="middle">3</text><line x1="409.2954545454545" y1="363.8" x2="409.2954545454545" y2="366.55" stroke="#444444" stroke-width="1.0"/><text x="409.2954545454545" y="377.55" fill="#333333" font-size="11.0" font-family="sans-serif" text-anchor="middle">4</text><line x1="493.45909090909095" y1="363.8" x2="493.45909090909095" y2="366.55" stroke="#444444" stroke-width="1.0"/><text x="493.45909090909095" y="377.55" fill="#333333" font-size="11.0" font-family="sans-serif" text-anchor="middle">5</text><line x1="51.599999999999994" y1="348.4909090909091" x2="48.849999999999994" y2="348.4909090909091" stroke="#444444" stroke-width="1.0"/><text x="46.64999999999999" y="352.3409090909091" fill="#333333" font-size="11.0" font-family="sans-serif" text-anchor="end">-5</text><line x1="51.599999999999994" y1="271.9454545454546" x2="48.849999999999994" y2="271.9454545454546" stroke="#444444" stroke-width="1.0"/><text x="46.64999999999999" y="275.7954545454546" fill="#333333" font-size="11.0" font-family="sans-serif" text-anchor="end">-2.5</text><line x1="51.599999999999994" y1="195.4" x2="48.849999999999994" y2="195.4" stroke="#444444" stroke-width="1.0"/><text x="46.64999999999999" y="199.25" fill="#333333" font-size="11.0" font-family="sans-serif" text-anchor="end">0</text><line x1="51.599999999999994" y1="118.85454545454544" x2="48.849999999999994" y2="118.85454545454544" stroke="#444444" stroke-width="1.0"/><text x="46.64999999999999" y="122.70454545454544" fill="#333333" font-size="11.0" font-family="sans-serif" text-anchor="end">2.5</text><line x1="51.599999999999994" y1="42.30909090909091" x2="48.849999999999994" y2="42.30909090909091" stroke="#444444" stroke-width="1.0"/><text x="46.64999999999999" y="46.159090909090914" fill="#333333" font-size="11.0" font-family="sans-serif" text-anchor="end">5</text><text x="283.04999999999995" y="18.3" fill="#333333" font-size="16.0" font-family="sans-serif" text-anchor="middle">Streamgraph (= 中心化積層 area、 ThemeRiver 風、 color で系列分割)</text><text x="283.04999999999995" y="392.1" fill="#333333" font-size="12.0" font-family="sans-serif" text-anchor="middle">time</text><text x="13.899999999999999" y="195.4" fill="#333333" font-size="12.0" font-family="sans-serif" text-anchor="middle" transform="rotate(-90.0 13.899999999999999 195.4)">value (centered)</text><path d="M 72.64090909090908 256.6363636363636 L 156.80454545454543 287.25454545454545 L 240.96818181818182 333.1818181818182 L 325.1318181818182 333.1818181818182 L 409.2954545454545 348.4909090909091 L 493.45909090909095 348.4909090909091 L 493.45909090909095 317.8727272727273 L 409.2954545454545 287.25454545454545 L 325.1318181818182 241.3272727272727 L 240.96818181818182 210.70909090909092 L 156.80454545454543 226.01818181818183 L 72.64090909090908 226.01818181818183 Z" fill="#F8766D" fill-opacity="0.85" stroke="none"/><path d="M 72.64090909090908 226.01818181818183 L 156.80454545454543 226.01818181818183 L 240.96818181818182 210.70909090909092 L 325.1318181818182 241.3272727272727 L 409.2954545454545 287.25454545454545 L 493.45909090909095 317.8727272727273 L 493.45909090909095 195.4 L 409.2954545454545 134.16363636363639 L 325.1318181818182 118.85454545454544 L 240.96818181818182 118.85454545454544 L 156.80454545454543 134.16363636363639 L 72.64090909090908 164.78181818181818 Z" fill="#C49A00" fill-opacity="0.85" stroke="none"/><path d="M 72.64090909090908 164.78181818181818 L 156.80454545454543 134.16363636363639 L 240.96818181818182 118.85454545454544 L 325.1318181818182 118.85454545454544 L 409.2954545454545 134.16363636363639 L 493.45909090909095 195.4 L 493.45909090909095 42.30909090909091 L 409.2954545454545 42.30909090909091 L 325.1318181818182 57.618181818181824 L 240.96818181818182 57.618181818181824 L 156.80454545454543 103.54545454545456 L 72.64090909090908 134.16363636363639 Z" fill="#53B400" fill-opacity="0.85" stroke="none"/><rect x="524.5" y="40.0" width="10.0" height="10.0" fill="#F8766D" fill-opacity="1.0" stroke="#444444" stroke-width="0.5"/><text x="538.5" y="49.0" fill="#333333" font-size="10.0" font-family="sans-serif" text-anchor="start">A</text><rect x="524.5" y="56.0" width="10.0" height="10.0" fill="#C49A00" fill-opacity="1.0" stroke="#444444" stroke-width="0.5"/><text x="538.5" y="65.0" fill="#333333" font-size="10.0" font-family="sans-serif" text-anchor="start">B</text><rect x="524.5" y="72.0" width="10.0" height="10.0" fill="#53B400" fill-opacity="1.0" stroke="#444444" stroke-width="0.5"/><text x="538.5" y="81.0" fill="#333333" font-size="10.0" font-family="sans-serif" text-anchor="start">C</text></svg>