<svg xmlns="http://www.w3.org/2000/svg" width="1080" height="420" viewBox="0 0 1080 420"><rect x="0.0" y="0.0" width="1080.0" height="420.0" fill="#ffffff" fill-opacity="1.0" stroke="none"/><text x="42.38666666666666" y="21.413333333333334" fill="#333333" font-size="17.599999999999998" font-family="sans-serif" text-anchor="start">trace / traceLines</text><rect x="0.0" y="0.0" width="0.0" height="0.0" fill="#ffffff" fill-opacity="1.0" stroke="none"/><line x1="112.31382367201425" y1="64.53333333333333" x2="112.31382367201425" y2="387.0" stroke="#dddddd" stroke-width="0.6666666666666666"/><line x1="217.46744322892792" y1="64.53333333333333" x2="217.46744322892792" y2="387.0" stroke="#dddddd" stroke-width="0.6666666666666666"/><line x1="322.6210627858416" y1="64.53333333333333" x2="322.6210627858416" y2="387.0" stroke="#dddddd" stroke-width="0.6666666666666666"/><line x1="427.77468234275534" y1="64.53333333333333" x2="427.77468234275534" y2="387.0" stroke="#dddddd" stroke-width="0.6666666666666666"/><line x1="59.737013893557425" y1="64.53333333333333" x2="59.737013893557425" y2="387.0" stroke="#dddddd" stroke-width="1.3333333333333333"/><line x1="164.8906334504711" y1="64.53333333333333" x2="164.8906334504711" y2="387.0" stroke="#dddddd" stroke-width="1.3333333333333333"/><line x1="270.0442530073848" y1="64.53333333333333" x2="270.0442530073848" y2="387.0" stroke="#dddddd" stroke-width="1.3333333333333333"/><line x1="375.19787256429845" y1="64.53333333333333" x2="375.19787256429845" y2="387.0" stroke="#dddddd" stroke-width="1.3333333333333333"/><line x1="480.3514921212121" y1="64.53333333333333" x2="480.3514921212121" y2="387.0" stroke="#dddddd" stroke-width="1.3333333333333333"/><line x1="42.38666666666666" y1="336.2660986638592" x2="501.20696000000004" y2="336.2660986638592" stroke="#dddddd" stroke-width="0.6666666666666666"/><line x1="42.38666666666666" y1="262.71404331061024" x2="501.20696000000004" y2="262.71404331061024" stroke="#dddddd" stroke-width="0.6666666666666666"/><line x1="42.38666666666666" y1="189.16198795736116" x2="501.20696000000004" y2="189.16198795736116" stroke="#dddddd" stroke-width="0.6666666666666666"/><line x1="42.38666666666666" y1="115.60993260411203" x2="501.20696000000004" y2="115.60993260411203" stroke="#dddddd" stroke-width="0.6666666666666666"/><line x1="42.38666666666666" y1="373.0421263404838" x2="501.20696000000004" y2="373.0421263404838" stroke="#dddddd" stroke-width="1.3333333333333333"/><line x1="42.38666666666666" y1="299.49007098723473" x2="501.20696000000004" y2="299.49007098723473" stroke="#dddddd" stroke-width="1.3333333333333333"/><line x1="42.38666666666666" y1="225.93801563398574" x2="501.20696000000004" y2="225.93801563398574" stroke="#dddddd" stroke-width="1.3333333333333333"/><line x1="42.38666666666666" y1="152.38596028073658" x2="501.20696000000004" y2="152.38596028073658" stroke="#dddddd" stroke-width="1.3333333333333333"/><line x1="42.38666666666666" y1="78.83390492748754" x2="501.20696000000004" y2="78.83390492748754" stroke="#dddddd" stroke-width="1.3333333333333333"/><rect x="42.38666666666666" y="64.53333333333333" width="458.8202933333333" height="322.46666666666664" fill="#ffffff" fill-opacity="0.0" stroke="#444444" stroke-width="1.3333333333333333"/><line x1="59.737013893557425" y1="387.0" x2="59.737013893557425" y2="390.66666666666663" stroke="#444444" stroke-width="1.3333333333333333"/><text x="59.737013893557425" y="402.9866666666667" fill="#333333" font-size="11.733333333333334" font-family="sans-serif" text-anchor="middle">0</text><line x1="164.8906334504711" y1="387.0" x2="164.8906334504711" y2="390.66666666666663" stroke="#444444" stroke-width="1.3333333333333333"/><text x="164.8906334504711" y="402.9866666666667" fill="#333333" font-size="11.733333333333334" font-family="sans-serif" text-anchor="middle">30</text><line x1="270.0442530073848" y1="387.0" x2="270.0442530073848" y2="390.66666666666663" stroke="#444444" stroke-width="1.3333333333333333"/><text x="270.0442530073848" y="402.9866666666667" fill="#333333" font-size="11.733333333333334" font-family="sans-serif" text-anchor="middle">60</text><line x1="375.19787256429845" y1="387.0" x2="375.19787256429845" y2="390.66666666666663" stroke="#444444" stroke-width="1.3333333333333333"/><text x="375.19787256429845" y="402.9866666666667" fill="#333333" font-size="11.733333333333334" font-family="sans-serif" text-anchor="middle">90</text><line x1="480.3514921212121" y1="387.0" x2="480.3514921212121" y2="390.66666666666663" stroke="#444444" stroke-width="1.3333333333333333"/><text x="480.3514921212121" y="402.9866666666667" fill="#333333" font-size="11.733333333333334" font-family="sans-serif" text-anchor="middle">120</text><line x1="42.38666666666666" y1="373.0421263404838" x2="38.72" y2="373.0421263404838" stroke="#444444" stroke-width="1.3333333333333333"/><text x="35.78666666666666" y="377.1487930071504" fill="#333333" font-size="11.733333333333334" font-family="sans-serif" text-anchor="end">0.6</text><line x1="42.38666666666666" y1="299.49007098723473" x2="38.72" y2="299.49007098723473" stroke="#444444" stroke-width="1.3333333333333333"/><text x="35.78666666666666" y="303.5967376539014" fill="#333333" font-size="11.733333333333334" font-family="sans-serif" text-anchor="end">0.8</text><line x1="42.38666666666666" y1="225.93801563398574" x2="38.72" y2="225.93801563398574" stroke="#444444" stroke-width="1.3333333333333333"/><text x="35.78666666666666" y="230.04468230065243" fill="#333333" font-size="11.733333333333334" font-family="sans-serif" text-anchor="end">1.0</text><line x1="42.38666666666666" y1="152.38596028073658" x2="38.72" y2="152.38596028073658" stroke="#444444" stroke-width="1.3333333333333333"/><text x="35.78666666666666" y="156.49262694740327" fill="#333333" font-size="11.733333333333334" font-family="sans-serif" text-anchor="end">1.2</text><line x1="42.38666666666666" y1="78.83390492748754" x2="38.72" y2="78.83390492748754" stroke="#444444" stroke-width="1.3333333333333333"/><text x="35.78666666666666" y="82.94057159415419" fill="#333333" font-size="11.733333333333334" font-family="sans-serif" text-anchor="end">1.4</text><text x="42.38666666666666" y="53.68000000000001" fill="#333333" font-size="17.599999999999998" font-family="sans-serif" text-anchor="start">trace (1 chain)</text><line x1="63.24213454545455" y1="186.89596219409736" x2="66.74725519735166" y2="164.91849929205603" stroke="#1f77b4" stroke-width="1.4211023622047245"/><line x1="66.74725519735166" y1="164.91849929205603" x2="70.25237584924879" y2="166.39738092119836" stroke="#1f77b4" stroke-width="1.4211023622047245"/><line x1="70.25237584924879" y1="166.39738092119836" x2="73.75749650114591" y2="183.1111007135961" stroke="#1f77b4" stroke-width="1.4211023622047245"/><line x1="73.75749650114591" y1="183.1111007135961" x2="77.26261715304304" y2="197.5017836984322" stroke="#1f77b4" stroke-width="1.4211023622047245"/><line x1="77.26261715304304" y1="197.5017836984322" x2="80.76773780494014" y2="193.839058849222" stroke="#1f77b4" stroke-width="1.4211023622047245"/><line x1="80.76773780494014" y1="193.839058849222" x2="84.27285845683727" y2="168.2264840925931" stroke="#1f77b4" stroke-width="1.4211023622047245"/><line x1="84.27285845683727" y1="168.2264840925931" x2="87.7779791087344" y2="131.13639186370816" stroke="#1f77b4" stroke-width="1.4211023622047245"/><line x1="87.7779791087344" y1="131.13639186370816" x2="91.28309976063152" y2="100.87296010476294" stroke="#1f77b4" stroke-width="1.4211023622047245"/><line x1="91.28309976063152" y1="100.87296010476294" x2="94.78822041252863" y2="92.08683581796204" stroke="#1f77b4" stroke-width="1.4211023622047245"/><line x1="94.78822041252863" y1="92.08683581796204" x2="98.29334106442576" y2="106.58673660182406" stroke="#1f77b4" stroke-width="1.4211023622047245"/><line x1="98.29334106442576" y1="106.58673660182406" x2="101.79846171632289" y2="132.2443762678394" stroke="#1f77b4" stroke-width="1.4211023622047245"/><line x1="101.79846171632289" y1="132.2443762678394" x2="105.30358236821999" y2="150.6830362392185" stroke="#1f77b4" stroke-width="1.4211023622047245"/><line x1="105.30358236821999" y1="150.6830362392185" x2="108.80870302011712" y2="148.89855847957654" stroke="#1f77b4" stroke-width="1.4211023622047245"/><line x1="108.80870302011712" y1="148.89855847957654" x2="112.31382367201425" y2="127.48066506036646" stroke="#1f77b4" stroke-width="1.4211023622047245"/><line x1="112.31382367201425" y1="127.48066506036646" x2="115.81894432391137" y2="100.24751049414002" stroke="#1f77b4" stroke-width="1.4211023622047245"/><line x1="115.81894432391137" y1="100.24751049414002" x2="119.3240649758085" y2="85.52394865837371" stroke="#1f77b4" stroke-width="1.4211023622047245"/><line x1="119.3240649758085" y1="85.52394865837371" x2="122.82918562770563" y2="94.56616031805004" stroke="#1f77b4" stroke-width="1.4211023622047245"/><line x1="122.82918562770563" y1="94.56616031805004" x2="126.33430627960274" y2="124.43579481228971" stroke="#1f77b4" stroke-width="1.4211023622047245"/><line x1="126.33430627960274" y1="124.43579481228971" x2="129.83942693149987" y2="159.81967660749626" stroke="#1f77b4" stroke-width="1.4211023622047245"/><line x1="129.83942693149987" y1="159.81967660749626" x2="133.344547583397" y2="182.6474325029422" stroke="#1f77b4" stroke-width="1.4211023622047245"/><line x1="133.344547583397" y1="182.6474325029422" x2="136.8496682352941" y2="183.43975155481374" stroke="#1f77b4" stroke-width="1.4211023622047245"/><line x1="136.8496682352941" y1="183.43975155481374" x2="140.3547888871912" y2="167.22823184850918" stroke="#1f77b4" stroke-width="1.4211023622047245"/><line x1="140.3547888871912" y1="167.22823184850918" x2="143.85990953908836" y2="150.3126921033012" stroke="#1f77b4" stroke-width="1.4211023622047245"/><line x1="143.85990953908836" y1="150.3126921033012" x2="147.36503019098546" y2="149.90262318872612" stroke="#1f77b4" stroke-width="1.4211023622047245"/><line x1="147.36503019098546" y1="149.90262318872612" x2="150.8701508428826" y2="173.1789803979617" stroke="#1f77b4" stroke-width="1.4211023622047245"/><line x1="150.8701508428826" y1="173.1789803979617" x2="154.37527149477972" y2="212.6782990084072" stroke="#1f77b4" stroke-width="1.4211023622047245"/><line x1="154.37527149477972" y1="212.6782990084072" x2="157.88039214667685" y2="250.91237828672834" stroke="#1f77b4" stroke-width="1.4211023622047245"/><line x1="157.88039214667685" y1="250.91237828672834" x2="161.38551279857398" y2="271.31004294473655" stroke="#1f77b4" stroke-width="1.4211023622047245"/><line x1="161.38551279857398" y1="271.31004294473655" x2="164.8906334504711" y2="268.5788822469473" stroke="#1f77b4" stroke-width="1.4211023622047245"/><line x1="164.8906334504711" y1="268.5788822469473" x2="168.39575410236822" y2="251.95082500364998" stroke="#1f77b4" stroke-width="1.4211023622047245"/><line x1="168.39575410236822" y1="251.95082500364998" x2="171.90087475426532" y2="239.26504796909813" stroke="#1f77b4" stroke-width="1.4211023622047245"/><line x1="171.90087475426532" y1="239.26504796909813" x2="175.40599540616248" y2="245.62249229659164" stroke="#1f77b4" stroke-width="1.4211023622047245"/><line x1="175.40599540616248" y1="245.62249229659164" x2="178.91111605805958" y2="273.7710469740804" stroke="#1f77b4" stroke-width="1.4211023622047245"/><line x1="178.91111605805958" y1="273.7710469740804" x2="182.4162367099567" y2="312.28853064588566" stroke="#1f77b4" stroke-width="1.4211023622047245"/><line x1="182.4162367099567" y1="312.28853064588566" x2="185.92135736185384" y2="342.71086874017357" stroke="#1f77b4" stroke-width="1.4211023622047245"/><line x1="185.92135736185384" y1="342.71086874017357" x2="189.42647801375097" y2="351.1092152907116" stroke="#1f77b4" stroke-width="1.4211023622047245"/><line x1="189.42647801375097" y1="351.1092152907116" x2="192.93159866564807" y2="336.81282391076115" stroke="#1f77b4" stroke-width="1.4211023622047245"/><line x1="192.93159866564807" y1="336.81282391076115" x2="196.43671931754523" y2="312.77515125590907" stroke="#1f77b4" stroke-width="1.4211023622047245"/><line x1="196.43671931754523" y1="312.77515125590907" x2="199.94183996944233" y2="297.3529197640835" stroke="#1f77b4" stroke-width="1.4211023622047245"/><line x1="199.94183996944233" y1="297.3529197640835" x2="203.44696062133943" y2="302.68538213585924" stroke="#1f77b4" stroke-width="1.4211023622047245"/><line x1="203.44696062133943" y1="302.68538213585924" x2="206.95208127323656" y2="327.0058724597292" stroke="#1f77b4" stroke-width="1.4211023622047245"/><line x1="206.95208127323656" y1="327.0058724597292" x2="210.4572019251337" y2="355.7367040922002" stroke="#1f77b4" stroke-width="1.4211023622047245"/><line x1="210.4572019251337" y1="355.7367040922002" x2="213.96232257703082" y2="370.67687892231197" stroke="#1f77b4" stroke-width="1.4211023622047245"/><line x1="213.96232257703082" y1="370.67687892231197" x2="217.46744322892792" y2="361.4861375420831" stroke="#1f77b4" stroke-width="1.4211023622047245"/><line x1="217.46744322892792" y1="361.4861375420831" x2="220.97256388082508" y2="332.21997516944197" stroke="#1f77b4" stroke-width="1.4211023622047245"/><line x1="220.97256388082508" y1="332.21997516944197" x2="224.47768453272218" y2="298.79249912514797" stroke="#1f77b4" stroke-width="1.4211023622047245"/><line x1="224.47768453272218" y1="298.79249912514797" x2="227.98280518461928" y2="278.967562881611" stroke="#1f77b4" stroke-width="1.4211023622047245"/><line x1="227.98280518461928" y1="278.967562881611" x2="231.48792583651644" y2="281.1924490644657" stroke="#1f77b4" stroke-width="1.4211023622047245"/><line x1="231.48792583651644" y1="281.1924490644657" x2="234.99304648841354" y2="299.31849939143734" stroke="#1f77b4" stroke-width="1.4211023622047245"/><line x1="234.99304648841354" y1="299.31849939143734" x2="238.49816714031067" y2="316.53886372106626" stroke="#1f77b4" stroke-width="1.4211023622047245"/><line x1="238.49816714031067" y1="316.53886372106626" x2="242.00328779220777" y2="316.05829436251065" stroke="#1f77b4" stroke-width="1.4211023622047245"/><line x1="242.00328779220777" y1="316.05829436251065" x2="245.50840844410493" y2="291.7625243366179" stroke="#1f77b4" stroke-width="1.4211023622047245"/><line x1="245.50840844410493" y1="291.7625243366179" x2="249.01352909600203" y2="252.15494561933747" stroke="#1f77b4" stroke-width="1.4211023622047245"/><line x1="249.01352909600203" y1="252.15494561933747" x2="252.51864974789913" y2="215.0759347056956" stroke="#1f77b4" stroke-width="1.4211023622047245"/><line x1="252.51864974789913" y1="215.0759347056956" x2="256.02377039979626" y2="196.535400107896" stroke="#1f77b4" stroke-width="1.4211023622047245"/><line x1="256.02377039979626" y1="196.535400107896" x2="259.5288910516934" y2="200.70308475025007" stroke="#1f77b4" stroke-width="1.4211023622047245"/><line x1="259.5288910516934" y1="200.70308475025007" x2="263.0340117035905" y2="217.37068516922423" stroke="#1f77b4" stroke-width="1.4211023622047245"/><line x1="263.0340117035905" y1="217.37068516922423" x2="266.53913235548765" y2="228.48580846850487" stroke="#1f77b4" stroke-width="1.4211023622047245"/><line x1="266.53913235548765" y1="228.48580846850487" x2="270.0442530073848" y2="219.63429725659472" stroke="#1f77b4" stroke-width="1.4211023622047245"/><line x1="270.0442530073848" y1="219.63429725659472" x2="273.5493736592819" y2="189.22550086032234" stroke="#1f77b4" stroke-width="1.4211023622047245"/><line x1="273.5493736592819" y1="189.22550086032234" x2="277.05449431117904" y2="149.58431817204203" stroke="#1f77b4" stroke-width="1.4211023622047245"/><line x1="277.05449431117904" y1="149.58431817204203" x2="280.5596149630761" y2="119.25994366279727" stroke="#1f77b4" stroke-width="1.4211023622047245"/><line x1="280.5596149630761" y1="119.25994366279727" x2="284.06473561497324" y2="111.40273652477511" stroke="#1f77b4" stroke-width="1.4211023622047245"/><line x1="284.06473561497324" y1="111.40273652477511" x2="287.5698562668704" y2="125.54134100666249" stroke="#1f77b4" stroke-width="1.4211023622047245"/><line x1="287.5698562668704" y1="125.54134100666249" x2="291.07497691876745" y2="147.9470177456523" stroke="#1f77b4" stroke-width="1.4211023622047245"/><line x1="291.07497691876745" y1="147.9470177456523" x2="294.5800975706646" y2="160.35450133842454" stroke="#1f77b4" stroke-width="1.4211023622047245"/><line x1="294.5800975706646" y1="160.35450133842454" x2="298.08521822256176" y2="151.5366055667262" stroke="#1f77b4" stroke-width="1.4211023622047245"/><line x1="298.08521822256176" y1="151.5366055667262" x2="301.5903388744589" y2="124.42945258348325" stroke="#1f77b4" stroke-width="1.4211023622047245"/><line x1="301.5903388744589" y1="124.42945258348325" x2="305.09545952635597" y2="94.3124544311216" stroke="#1f77b4" stroke-width="1.4211023622047245"/><line x1="305.09545952635597" y1="94.3124544311216" x2="308.6005801782531" y2="79.1909090909091" stroke="#1f77b4" stroke-width="1.4211023622047245"/><line x1="308.6005801782531" y1="79.1909090909091" x2="312.1057008301502" y2="88.4486181032868" stroke="#1f77b4" stroke-width="1.4211023622047245"/><line x1="312.1057008301502" y1="88.4486181032868" x2="315.6108214820473" y2="116.9295135058212" stroke="#1f77b4" stroke-width="1.4211023622047245"/><line x1="315.6108214820473" y1="116.9295135058212" x2="319.1159421339445" y2="148.18221131075433" stroke="#1f77b4" stroke-width="1.4211023622047245"/><line x1="319.1159421339445" y1="148.18221131075433" x2="322.6210627858416" y2="164.82058524322616" stroke="#1f77b4" stroke-width="1.4211023622047245"/><line x1="322.6210627858416" y1="164.82058524322616" x2="326.12618343773875" y2="159.4640364943281" stroke="#1f77b4" stroke-width="1.4211023622047245"/><line x1="326.12618343773875" y1="159.4640364943281" x2="329.6313040896358" y2="139.3555249748246" stroke="#1f77b4" stroke-width="1.4211023622047245"/><line x1="329.6313040896358" y1="139.3555249748246" x2="333.13642474153295" y2="121.74428941462693" stroke="#1f77b4" stroke-width="1.4211023622047245"/><line x1="333.13642474153295" y1="121.74428941462693" x2="336.6415453934301" y2="122.9469166257268" stroke="#1f77b4" stroke-width="1.4211023622047245"/><line x1="336.6415453934301" y1="122.9469166257268" x2="340.14666604532715" y2="147.9888982511599" stroke="#1f77b4" stroke-width="1.4211023622047245"/><line x1="340.14666604532715" y1="147.9888982511599" x2="343.65178669722434" y2="187.36267768367287" stroke="#1f77b4" stroke-width="1.4211023622047245"/><line x1="343.65178669722434" y1="187.36267768367287" x2="347.15690734912147" y2="222.94843676430142" stroke="#1f77b4" stroke-width="1.4211023622047245"/><line x1="347.15690734912147" y1="222.94843676430142" x2="350.6620280010186" y2="239.36311542554682" stroke="#1f77b4" stroke-width="1.4211023622047245"/><line x1="350.6620280010186" y1="239.36311542554682" x2="354.16714865291567" y2="233.57851445673145" stroke="#1f77b4" stroke-width="1.4211023622047245"/><line x1="354.16714865291567" y1="233.57851445673145" x2="357.6722693048128" y2="216.74143132756015" stroke="#1f77b4" stroke-width="1.4211023622047245"/><line x1="357.6722693048128" y1="216.74143132756015" x2="361.17738995670993" y2="207.0486078400873" stroke="#1f77b4" stroke-width="1.4211023622047245"/><line x1="361.17738995670993" y1="207.0486078400873" x2="364.682510608607" y2="218.17287298987938" stroke="#1f77b4" stroke-width="1.4211023622047245"/><line x1="364.682510608607" y1="218.17287298987938" x2="368.1876312605042" y2="250.54365671089835" stroke="#1f77b4" stroke-width="1.4211023622047245"/><line x1="368.1876312605042" y1="250.54365671089835" x2="371.6927519124013" y2="290.98420604010124" stroke="#1f77b4" stroke-width="1.4211023622047245"/><line x1="371.6927519124013" y1="290.98420604010124" x2="375.19787256429845" y2="320.9355192714419" stroke="#1f77b4" stroke-width="1.4211023622047245"/><line x1="375.19787256429845" y1="320.9355192714419" x2="378.7029932161955" y2="328.07956537504185" stroke="#1f77b4" stroke-width="1.4211023622047245"/><line x1="378.7029932161955" y1="328.07956537504185" x2="382.20811386809265" y2="314.02967996131827" stroke="#1f77b4" stroke-width="1.4211023622047245"/><line x1="382.20811386809265" y1="314.02967996131827" x2="385.71323451998984" y2="293.2372163023406" stroke="#1f77b4" stroke-width="1.4211023622047245"/><line x1="385.71323451998984" y1="293.2372163023406" x2="389.21835517188697" y2="283.80518352314675" stroke="#1f77b4" stroke-width="1.4211023622047245"/><line x1="389.21835517188697" y1="283.80518352314675" x2="392.72347582378416" y2="296.0054586994995" stroke="#1f77b4" stroke-width="1.4211023622047245"/><line x1="392.72347582378416" y1="296.0054586994995" x2="396.22859647568123" y2="325.74489852308056" stroke="#1f77b4" stroke-width="1.4211023622047245"/><line x1="396.22859647568123" y1="325.74489852308056" x2="399.73371712757836" y2="357.1032815035195" stroke="#1f77b4" stroke-width="1.4211023622047245"/><line x1="399.73371712757836" y1="357.1032815035195" x2="403.2388377794755" y2="372.3424242424242" stroke="#1f77b4" stroke-width="1.4211023622047245"/><line x1="403.2388377794755" y1="372.3424242424242" x2="406.74395843137256" y2="363.0720859551302" stroke="#1f77b4" stroke-width="1.4211023622047245"/><line x1="406.74395843137256" y1="363.0720859551302" x2="410.2490790832697" y2="335.5283288391222" stroke="#1f77b4" stroke-width="1.4211023622047245"/><line x1="410.2490790832697" y1="335.5283288391222" x2="413.7541997351669" y2="306.6343677505905" stroke="#1f77b4" stroke-width="1.4211023622047245"/><line x1="413.7541997351669" y1="306.6343677505905" x2="417.259320387064" y2="293.329204306901" stroke="#1f77b4" stroke-width="1.4211023622047245"/><line x1="417.259320387064" y1="293.329204306901" x2="420.7644410389611" y2="301.89661220302094" stroke="#1f77b4" stroke-width="1.4211023622047245"/><line x1="420.7644410389611" y1="301.89661220302094" x2="424.2695616908582" y2="324.0266917789072" stroke="#1f77b4" stroke-width="1.4211023622047245"/><line x1="424.2695616908582" y1="324.0266917789072" x2="427.77468234275534" y2="342.09446430067084" stroke="#1f77b4" stroke-width="1.4211023622047245"/><line x1="427.77468234275534" y1="342.09446430067084" x2="431.2798029946524" y2="340.32476382381907" stroke="#1f77b4" stroke-width="1.4211023622047245"/><line x1="431.2798029946524" y1="340.32476382381907" x2="434.78492364654954" y2="314.7988647785832" stroke="#1f77b4" stroke-width="1.4211023622047245"/><line x1="434.78492364654954" y1="314.7988647785832" x2="438.29004429844673" y2="275.9889316046601" stroke="#1f77b4" stroke-width="1.4211023622047245"/><line x1="438.29004429844673" y1="275.9889316046601" x2="441.79516495034386" y2="242.22052339071865" stroke="#1f77b4" stroke-width="1.4211023622047245"/><line x1="441.79516495034386" y1="242.22052339071865" x2="445.30028560224093" y2="228.18684624177683" stroke="#1f77b4" stroke-width="1.4211023622047245"/><line x1="445.30028560224093" y1="228.18684624177683" x2="448.80540625413806" y2="235.76025119873435" stroke="#1f77b4" stroke-width="1.4211023622047245"/><line x1="448.80540625413806" y1="235.76025119873435" x2="452.3105269060352" y2="252.89705930679435" stroke="#1f77b4" stroke-width="1.4211023622047245"/><line x1="452.3105269060352" y1="252.89705930679435" x2="455.81564755793227" y2="261.325605081733" stroke="#1f77b4" stroke-width="1.4211023622047245"/><line x1="455.81564755793227" y1="261.325605081733" x2="459.32076820982945" y2="248.165955383425" stroke="#1f77b4" stroke-width="1.4211023622047245"/><line x1="459.32076820982945" y1="248.165955383425" x2="462.8258888617266" y2="214.14921091415698" stroke="#1f77b4" stroke-width="1.4211023622047245"/><line x1="462.8258888617266" y1="214.14921091415698" x2="466.3310095136237" y2="173.2496279818148" stroke="#1f77b4" stroke-width="1.4211023622047245"/><line x1="466.3310095136237" y1="173.2496279818148" x2="469.8361301655208" y2="143.96050573006153" stroke="#1f77b4" stroke-width="1.4211023622047245"/><line x1="469.8361301655208" y1="143.96050573006153" x2="473.3412508174179" y2="137.7168009350578" stroke="#1f77b4" stroke-width="1.4211023622047245"/><line x1="473.3412508174179" y1="137.7168009350578" x2="476.84637146931505" y2="151.76760793295375" stroke="#1f77b4" stroke-width="1.4211023622047245"/><line x1="476.84637146931505" y1="151.76760793295375" x2="480.3514921212121" y2="170.99423224083932" stroke="#1f77b4" stroke-width="1.4211023622047245"/><rect x="0.0" y="0.0" width="0.0" height="0.0" fill="#ffffff" fill-opacity="1.0" stroke="none"/><line x1="620.8541170053477" y1="64.53333333333333" x2="620.8541170053477" y2="387.0" stroke="#dddddd" stroke-width="0.6666666666666666"/><line x1="726.0077365622612" y1="64.53333333333333" x2="726.0077365622612" y2="387.0" stroke="#dddddd" stroke-width="0.6666666666666666"/><line x1="831.161356119175" y1="64.53333333333333" x2="831.161356119175" y2="387.0" stroke="#dddddd" stroke-width="0.6666666666666666"/><line x1="936.3149756760887" y1="64.53333333333333" x2="936.3149756760887" y2="387.0" stroke="#dddddd" stroke-width="0.6666666666666666"/><line x1="568.2773072268908" y1="64.53333333333333" x2="568.2773072268908" y2="387.0" stroke="#dddddd" stroke-width="1.3333333333333333"/><line x1="673.4309267838045" y1="64.53333333333333" x2="673.4309267838045" y2="387.0" stroke="#dddddd" stroke-width="1.3333333333333333"/><line x1="778.5845463407182" y1="64.53333333333333" x2="778.5845463407182" y2="387.0" stroke="#dddddd" stroke-width="1.3333333333333333"/><line x1="883.7381658976319" y1="64.53333333333333" x2="883.7381658976319" y2="387.0" stroke="#dddddd" stroke-width="1.3333333333333333"/><line x1="988.8917854545455" y1="64.53333333333333" x2="988.8917854545455" y2="387.0" stroke="#dddddd" stroke-width="1.3333333333333333"/><line x1="550.92696" y1="332.68580359405007" x2="1009.7472533333334" y2="332.68580359405007" stroke="#dddddd" stroke-width="0.6666666666666666"/><line x1="550.92696" y1="252.3536269364143" x2="1009.7472533333334" y2="252.3536269364143" stroke="#dddddd" stroke-width="0.6666666666666666"/><line x1="550.92696" y1="172.02145027877856" x2="1009.7472533333334" y2="172.02145027877856" stroke="#dddddd" stroke-width="0.6666666666666666"/><line x1="550.92696" y1="91.68927362114269" x2="1009.7472533333334" y2="91.68927362114269" stroke="#dddddd" stroke-width="0.6666666666666666"/><line x1="550.92696" y1="372.851891922868" x2="1009.7472533333334" y2="372.851891922868" stroke="#dddddd" stroke-width="1.3333333333333333"/><line x1="550.92696" y1="292.5197152652322" x2="1009.7472533333334" y2="292.5197152652322" stroke="#dddddd" stroke-width="1.3333333333333333"/><line x1="550.92696" y1="212.18753860759642" x2="1009.7472533333334" y2="212.18753860759642" stroke="#dddddd" stroke-width="1.3333333333333333"/><line x1="550.92696" y1="131.85536194996067" x2="1009.7472533333334" y2="131.85536194996067" stroke="#dddddd" stroke-width="1.3333333333333333"/><rect x="550.92696" y="64.53333333333333" width="458.8202933333333" height="322.46666666666664" fill="#ffffff" fill-opacity="0.0" stroke="#444444" stroke-width="1.3333333333333333"/><line x1="568.2773072268908" y1="387.0" x2="568.2773072268908" y2="390.66666666666663" stroke="#444444" stroke-width="1.3333333333333333"/><text x="568.2773072268908" y="402.9866666666667" fill="#333333" font-size="11.733333333333334" font-family="sans-serif" text-anchor="middle">0</text><line x1="673.4309267838045" y1="387.0" x2="673.4309267838045" y2="390.66666666666663" stroke="#444444" stroke-width="1.3333333333333333"/><text x="673.4309267838045" y="402.9866666666667" fill="#333333" font-size="11.733333333333334" font-family="sans-serif" text-anchor="middle">30</text><line x1="778.5845463407182" y1="387.0" x2="778.5845463407182" y2="390.66666666666663" stroke="#444444" stroke-width="1.3333333333333333"/><text x="778.5845463407182" y="402.9866666666667" fill="#333333" font-size="11.733333333333334" font-family="sans-serif" text-anchor="middle">60</text><line x1="883.7381658976319" y1="387.0" x2="883.7381658976319" y2="390.66666666666663" stroke="#444444" stroke-width="1.3333333333333333"/><text x="883.7381658976319" y="402.9866666666667" fill="#333333" font-size="11.733333333333334" font-family="sans-serif" text-anchor="middle">90</text><line x1="988.8917854545455" y1="387.0" x2="988.8917854545455" y2="390.66666666666663" stroke="#444444" stroke-width="1.3333333333333333"/><text x="988.8917854545455" y="402.9866666666667" fill="#333333" font-size="11.733333333333334" font-family="sans-serif" text-anchor="middle">120</text><line x1="550.92696" y1="372.851891922868" x2="547.2602933333334" y2="372.851891922868" stroke="#444444" stroke-width="1.3333333333333333"/><text x="544.3269600000001" y="376.9585585895346" fill="#333333" font-size="11.733333333333334" font-family="sans-serif" text-anchor="end">0.6</text><line x1="550.92696" y1="292.5197152652322" x2="547.2602933333334" y2="292.5197152652322" stroke="#444444" stroke-width="1.3333333333333333"/><text x="544.3269600000001" y="296.6263819318989" fill="#333333" font-size="11.733333333333334" font-family="sans-serif" text-anchor="end">0.9</text><line x1="550.92696" y1="212.18753860759642" x2="547.2602933333334" y2="212.18753860759642" stroke="#444444" stroke-width="1.3333333333333333"/><text x="544.3269600000001" y="216.2942052742631" fill="#333333" font-size="11.733333333333334" font-family="sans-serif" text-anchor="end">1.2</text><line x1="550.92696" y1="131.85536194996067" x2="547.2602933333334" y2="131.85536194996067" stroke="#444444" stroke-width="1.3333333333333333"/><text x="544.3269600000001" y="135.96202861662732" fill="#333333" font-size="11.733333333333334" font-family="sans-serif" text-anchor="end">1.5</text><text x="550.92696" y="53.68000000000001" fill="#333333" font-size="17.599999999999998" font-family="sans-serif" text-anchor="start">traceLines (chain 別)</text><line x1="571.782427878788" y1="237.31499024118276" x2="575.2875485306851" y2="221.3127414587456" stroke="#F8766D" stroke-width="1.3333333333333333"/><line x1="575.2875485306851" y1="221.3127414587456" x2="578.7926691825821" y2="222.38954599504692" stroke="#F8766D" stroke-width="1.3333333333333333"/><line x1="578.7926691825821" y1="222.38954599504692" x2="582.2977898344793" y2="234.55915371501038" stroke="#F8766D" stroke-width="1.3333333333333333"/><line x1="582.2977898344793" y1="234.55915371501038" x2="585.8029104863764" y2="245.03730991979887" stroke="#F8766D" stroke-width="1.3333333333333333"/><line x1="585.8029104863764" y1="245.03730991979887" x2="589.3080311382735" y2="242.370403620381" stroke="#F8766D" stroke-width="1.3333333333333333"/><line x1="589.3080311382735" y1="242.370403620381" x2="592.8131517901707" y2="223.72135413540713" stroke="#F8766D" stroke-width="1.3333333333333333"/><line x1="592.8131517901707" y1="223.72135413540713" x2="596.3182724420678" y2="196.71528497011565" stroke="#F8766D" stroke-width="1.3333333333333333"/><line x1="596.3182724420678" y1="196.71528497011565" x2="599.8233930939649" y2="174.6798495708836" stroke="#F8766D" stroke-width="1.3333333333333333"/><line x1="599.8233930939649" y1="174.6798495708836" x2="603.328513745862" y2="168.28248936158744" stroke="#F8766D" stroke-width="1.3333333333333333"/><line x1="603.328513745862" y1="168.28248936158744" x2="606.8336343977592" y2="178.84016932211028" stroke="#F8766D" stroke-width="1.3333333333333333"/><line x1="606.8336343977592" y1="178.84016932211028" x2="610.3387550496562" y2="197.52203150682902" stroke="#F8766D" stroke-width="1.3333333333333333"/><line x1="610.3387550496562" y1="197.52203150682902" x2="613.8438757015534" y2="210.9476041214627" stroke="#F8766D" stroke-width="1.3333333333333333"/><line x1="613.8438757015534" y1="210.9476041214627" x2="617.3489963534505" y2="209.64828867346057" stroke="#F8766D" stroke-width="1.3333333333333333"/><line x1="617.3489963534505" y1="209.64828867346057" x2="620.8541170053477" y2="194.05347409374446" stroke="#F8766D" stroke-width="1.3333333333333333"/><line x1="620.8541170053477" y1="194.05347409374446" x2="624.3592376572448" y2="174.22444667407618" stroke="#F8766D" stroke-width="1.3333333333333333"/><line x1="624.3592376572448" y1="174.22444667407618" x2="627.8643583091418" y2="163.50391444022833" stroke="#F8766D" stroke-width="1.3333333333333333"/><line x1="627.8643583091418" y1="163.50391444022833" x2="631.369478961039" y2="170.08773720296202" stroke="#F8766D" stroke-width="1.3333333333333333"/><line x1="631.369478961039" y1="170.08773720296202" x2="634.8745996129361" y2="191.83644060643326" stroke="#F8766D" stroke-width="1.3333333333333333"/><line x1="634.8745996129361" y1="191.83644060643326" x2="638.3797202648333" y2="217.6001823949657" stroke="#F8766D" stroke-width="1.3333333333333333"/><line x1="638.3797202648333" y1="217.6001823949657" x2="641.8848409167304" y2="234.22154722728874" stroke="#F8766D" stroke-width="1.3333333333333333"/><line x1="641.8848409167304" y1="234.22154722728874" x2="645.3899615686275" y2="234.79845124207998" stroke="#F8766D" stroke-width="1.3333333333333333"/><line x1="645.3899615686275" y1="234.79845124207998" x2="648.8950822205246" y2="222.9945058714079" stroke="#F8766D" stroke-width="1.3333333333333333"/><line x1="648.8950822205246" y1="222.9945058714079" x2="652.4002028724217" y2="210.6779488375712" stroke="#F8766D" stroke-width="1.3333333333333333"/><line x1="652.4002028724217" y1="210.6779488375712" x2="655.9053235243189" y2="210.37936911441466" stroke="#F8766D" stroke-width="1.3333333333333333"/><line x1="655.9053235243189" y1="210.37936911441466" x2="659.4104441762161" y2="227.3273699128356" stroke="#F8766D" stroke-width="1.3333333333333333"/><line x1="659.4104441762161" y1="227.3273699128356" x2="662.9155648281131" y2="256.0876470184513" stroke="#F8766D" stroke-width="1.3333333333333333"/><line x1="662.9155648281131" y1="256.0876470184513" x2="666.4206854800102" y2="283.92667699685217" stroke="#F8766D" stroke-width="1.3333333333333333"/><line x1="666.4206854800102" y1="283.92667699685217" x2="669.9258061319074" y2="298.77864175243167" stroke="#F8766D" stroke-width="1.3333333333333333"/><line x1="669.9258061319074" y1="298.77864175243167" x2="673.4309267838045" y2="296.79002672686477" stroke="#F8766D" stroke-width="1.3333333333333333"/><line x1="673.4309267838045" y1="296.79002672686477" x2="676.9360474357015" y2="284.68279169423795" stroke="#F8766D" stroke-width="1.3333333333333333"/><line x1="676.9360474357015" y1="284.68279169423795" x2="680.4411680875987" y2="275.44601304466187" stroke="#F8766D" stroke-width="1.3333333333333333"/><line x1="680.4411680875987" y1="275.44601304466187" x2="683.9462887394958" y2="280.07500075823435" stroke="#F8766D" stroke-width="1.3333333333333333"/><line x1="683.9462887394958" y1="280.07500075823435" x2="687.4514093913931" y2="300.57055007723113" stroke="#F8766D" stroke-width="1.3333333333333333"/><line x1="687.4514093913931" y1="300.57055007723113" x2="690.9565300432902" y2="328.61593270110257" stroke="#F8766D" stroke-width="1.3333333333333333"/><line x1="690.9565300432902" y1="328.61593270110257" x2="694.4616506951872" y2="350.76707111494534" stroke="#F8766D" stroke-width="1.3333333333333333"/><line x1="694.4616506951872" y1="350.76707111494534" x2="697.9667713470844" y2="356.88208227259577" stroke="#F8766D" stroke-width="1.3333333333333333"/><line x1="697.9667713470844" y1="356.88208227259577" x2="701.4718919989815" y2="346.4725817505037" stroke="#F8766D" stroke-width="1.3333333333333333"/><line x1="701.4718919989815" y1="346.4725817505037" x2="704.9770126508786" y2="328.9702513091678" stroke="#F8766D" stroke-width="1.3333333333333333"/><line x1="704.9770126508786" y1="328.9702513091678" x2="708.4821333027758" y2="317.74100313741417" stroke="#F8766D" stroke-width="1.3333333333333333"/><line x1="708.4821333027758" y1="317.74100313741417" x2="711.9872539546728" y2="321.62368012685937" stroke="#F8766D" stroke-width="1.3333333333333333"/><line x1="711.9872539546728" y1="321.62368012685937" x2="715.4923746065699" y2="339.3319360073538" stroke="#F8766D" stroke-width="1.3333333333333333"/><line x1="715.4923746065699" y1="339.3319360073538" x2="718.9974952584671" y2="360.2514533128028" stroke="#F8766D" stroke-width="1.3333333333333333"/><line x1="718.9974952584671" y1="360.2514533128028" x2="722.5026159103642" y2="371.12970598237496" stroke="#F8766D" stroke-width="1.3333333333333333"/><line x1="722.5026159103642" y1="371.12970598237496" x2="726.0077365622612" y2="364.43773563452373" stroke="#F8766D" stroke-width="1.3333333333333333"/><line x1="726.0077365622612" y1="364.43773563452373" x2="729.5128572141584" y2="343.1284328600571" stroke="#F8766D" stroke-width="1.3333333333333333"/><line x1="729.5128572141584" y1="343.1284328600571" x2="733.0179778660555" y2="318.7891908732095" stroke="#F8766D" stroke-width="1.3333333333333333"/><line x1="733.0179778660555" y1="318.7891908732095" x2="736.5230985179526" y2="304.35424161273016" stroke="#F8766D" stroke-width="1.3333333333333333"/><line x1="736.5230985179526" y1="304.35424161273016" x2="740.0282191698499" y2="305.974227612449" stroke="#F8766D" stroke-width="1.3333333333333333"/><line x1="740.0282191698499" y1="305.974227612449" x2="743.533339821747" y2="319.17218262973336" stroke="#F8766D" stroke-width="1.3333333333333333"/><line x1="743.533339821747" y1="319.17218262973336" x2="747.0384604736441" y2="331.7106887964908" stroke="#F8766D" stroke-width="1.3333333333333333"/><line x1="747.0384604736441" y1="331.7106887964908" x2="750.5435811255412" y2="331.3607762307365" stroke="#F8766D" stroke-width="1.3333333333333333"/><line x1="750.5435811255412" y1="331.3607762307365" x2="754.0487017774383" y2="313.67051971440753" stroke="#F8766D" stroke-width="1.3333333333333333"/><line x1="754.0487017774383" y1="313.67051971440753" x2="757.5538224293355" y2="284.83141616870137" stroke="#F8766D" stroke-width="1.3333333333333333"/><line x1="757.5538224293355" y1="284.83141616870137" x2="761.0589430812325" y2="257.8334155399897" stroke="#F8766D" stroke-width="1.3333333333333333"/><line x1="761.0589430812325" y1="257.8334155399897" x2="764.5640637331296" y2="244.33366588663844" stroke="#F8766D" stroke-width="1.3333333333333333"/><line x1="764.5640637331296" y1="244.33366588663844" x2="768.0691843850268" y2="247.36824393556776" stroke="#F8766D" stroke-width="1.3333333333333333"/><line x1="768.0691843850268" y1="247.36824393556776" x2="771.5743050369239" y2="259.5042711785442" stroke="#F8766D" stroke-width="1.3333333333333333"/><line x1="771.5743050369239" y1="259.5042711785442" x2="775.0794256888212" y2="267.59742410867756" stroke="#F8766D" stroke-width="1.3333333333333333"/><line x1="775.0794256888212" y1="267.59742410867756" x2="778.5845463407182" y2="261.15245431644723" stroke="#F8766D" stroke-width="1.3333333333333333"/><line x1="778.5845463407182" y1="261.15245431644723" x2="782.0896669926153" y2="239.0111758951591" stroke="#F8766D" stroke-width="1.3333333333333333"/><line x1="782.0896669926153" y1="239.0111758951591" x2="785.5947876445125" y2="210.14760459781056" stroke="#F8766D" stroke-width="1.3333333333333333"/><line x1="785.5947876445125" y1="210.14760459781056" x2="789.0999082964096" y2="188.0677955119466" stroke="#F8766D" stroke-width="1.3333333333333333"/><line x1="789.0999082964096" y1="188.0677955119466" x2="792.6050289483067" y2="182.3467992387101" stroke="#F8766D" stroke-width="1.3333333333333333"/><line x1="792.6050289483067" y1="182.3467992387101" x2="796.1101496002038" y2="192.64141183180553" stroke="#F8766D" stroke-width="1.3333333333333333"/><line x1="796.1101496002038" y1="192.64141183180553" x2="799.6152702521009" y2="208.95545203354686" stroke="#F8766D" stroke-width="1.3333333333333333"/><line x1="799.6152702521009" y1="208.95545203354686" x2="803.120390903998" y2="217.9895994281083" stroke="#F8766D" stroke-width="1.3333333333333333"/><line x1="803.120390903998" y1="217.9895994281083" x2="806.6255115558952" y2="211.5691057384927" stroke="#F8766D" stroke-width="1.3333333333333333"/><line x1="806.6255115558952" y1="211.5691057384927" x2="810.1306322077922" y2="191.8318226974577" stroke="#F8766D" stroke-width="1.3333333333333333"/><line x1="810.1306322077922" y1="191.8318226974577" x2="813.6357528596893" y2="169.9030086590762" stroke="#F8766D" stroke-width="1.3333333333333333"/><line x1="813.6357528596893" y1="169.9030086590762" x2="817.1408735115865" y2="158.89269634106486" stroke="#F8766D" stroke-width="1.3333333333333333"/><line x1="817.1408735115865" y1="158.89269634106486" x2="820.6459941634836" y2="165.6334272175901" stroke="#F8766D" stroke-width="1.3333333333333333"/><line x1="820.6459941634836" y1="165.6334272175901" x2="824.1511148153807" y2="186.37096074497438" stroke="#F8766D" stroke-width="1.3333333333333333"/><line x1="824.1511148153807" y1="186.37096074497438" x2="827.656235467278" y2="209.12670137008615" stroke="#F8766D" stroke-width="1.3333333333333333"/><line x1="827.656235467278" y1="209.12670137008615" x2="831.161356119175" y2="221.24144819911618" stroke="#F8766D" stroke-width="1.3333333333333333"/><line x1="831.161356119175" y1="221.24144819911618" x2="834.6664767710722" y2="217.3412334164919" stroke="#F8766D" stroke-width="1.3333333333333333"/><line x1="834.6664767710722" y1="217.3412334164919" x2="838.1715974229693" y2="202.69980708744498" stroke="#F8766D" stroke-width="1.3333333333333333"/><line x1="838.1715974229693" y1="202.69980708744498" x2="841.6767180748664" y2="189.87669943136473" stroke="#F8766D" stroke-width="1.3333333333333333"/><line x1="841.6767180748664" y1="189.87669943136473" x2="845.1818387267635" y2="190.75235736833068" stroke="#F8766D" stroke-width="1.3333333333333333"/><line x1="845.1818387267635" y1="190.75235736833068" x2="848.6869593786606" y2="208.98594610245976" stroke="#F8766D" stroke-width="1.3333333333333333"/><line x1="848.6869593786606" y1="208.98594610245976" x2="852.1920800305577" y2="237.65481551619717" stroke="#F8766D" stroke-width="1.3333333333333333"/><line x1="852.1920800305577" y1="237.65481551619717" x2="855.6972006824549" y2="263.56554836367235" stroke="#F8766D" stroke-width="1.3333333333333333"/><line x1="855.6972006824549" y1="263.56554836367235" x2="859.202321334352" y2="275.5174180035758" stroke="#F8766D" stroke-width="1.3333333333333333"/><line x1="859.202321334352" y1="275.5174180035758" x2="862.707441986249" y2="271.30552947837606" stroke="#F8766D" stroke-width="1.3333333333333333"/><line x1="862.707441986249" y1="271.30552947837606" x2="866.2125626381462" y2="259.04609834182986" stroke="#F8766D" stroke-width="1.3333333333333333"/><line x1="866.2125626381462" y1="259.04609834182986" x2="869.7176832900433" y2="251.9885515475462" stroke="#F8766D" stroke-width="1.3333333333333333"/><line x1="869.7176832900433" y1="251.9885515475462" x2="873.2228039419404" y2="260.0883608495668" stroke="#F8766D" stroke-width="1.3333333333333333"/><line x1="873.2228039419404" y1="260.0883608495668" x2="876.7279245938377" y2="283.65820313277675" stroke="#F8766D" stroke-width="1.3333333333333333"/><line x1="876.7279245938377" y1="283.65820313277675" x2="880.2330452457347" y2="313.103809941387" stroke="#F8766D" stroke-width="1.3333333333333333"/><line x1="880.2330452457347" y1="313.103809941387" x2="883.7381658976319" y2="334.91198533564955" stroke="#F8766D" stroke-width="1.3333333333333333"/><line x1="883.7381658976319" y1="334.91198533564955" x2="887.243286549529" y2="340.1137141963721" stroke="#F8766D" stroke-width="1.3333333333333333"/><line x1="887.243286549529" y1="340.1137141963721" x2="890.7484072014261" y2="329.8836998058458" stroke="#F8766D" stroke-width="1.3333333333333333"/><line x1="890.7484072014261" y1="329.8836998058458" x2="894.2535278533232" y2="314.74427366945406" stroke="#F8766D" stroke-width="1.3333333333333333"/><line x1="894.2535278533232" y1="314.74427366945406" x2="897.7586485052203" y2="307.8766140251399" stroke="#F8766D" stroke-width="1.3333333333333333"/><line x1="897.7586485052203" y1="307.8766140251399" x2="901.2637691571174" y2="316.75988865317055" stroke="#F8766D" stroke-width="1.3333333333333333"/><line x1="901.2637691571174" y1="316.75988865317055" x2="904.7688898090146" y2="338.4137946034821" stroke="#F8766D" stroke-width="1.3333333333333333"/><line x1="904.7688898090146" y1="338.4137946034821" x2="908.2740104609117" y2="361.24648680751795" stroke="#F8766D" stroke-width="1.3333333333333333"/><line x1="908.2740104609117" y1="361.24648680751795" x2="911.7791311128087" y2="372.3424242424242" stroke="#F8766D" stroke-width="1.3333333333333333"/><line x1="911.7791311128087" y1="372.3424242424242" x2="915.2842517647059" y2="365.5924977276193" stroke="#F8766D" stroke-width="1.3333333333333333"/><line x1="915.2842517647059" y1="365.5924977276193" x2="918.789372416603" y2="345.5373141180296" stroke="#F8766D" stroke-width="1.3333333333333333"/><line x1="918.789372416603" y1="345.5373141180296" x2="922.2944930685003" y2="324.499018855759" stroke="#F8766D" stroke-width="1.3333333333333333"/><line x1="922.2944930685003" y1="324.499018855759" x2="925.7996137203974" y2="314.8112520527432" stroke="#F8766D" stroke-width="1.3333333333333333"/><line x1="925.7996137203974" y1="314.8112520527432" x2="929.3047343722944" y2="321.04936029960527" stroke="#F8766D" stroke-width="1.3333333333333333"/><line x1="929.3047343722944" y1="321.04936029960527" x2="932.8098550241916" y2="337.16273246303047" stroke="#F8766D" stroke-width="1.3333333333333333"/><line x1="932.8098550241916" y1="337.16273246303047" x2="936.3149756760887" y2="350.31825419574557" stroke="#F8766D" stroke-width="1.3333333333333333"/><line x1="936.3149756760887" y1="350.31825419574557" x2="939.8200963279858" y2="349.02969839532375" stroke="#F8766D" stroke-width="1.3333333333333333"/><line x1="939.8200963279858" y1="349.02969839532375" x2="943.325216979883" y2="330.44375930226767" stroke="#F8766D" stroke-width="1.3333333333333333"/><line x1="943.325216979883" y1="330.44375930226767" x2="946.8303376317801" y2="302.1854381008157" stroke="#F8766D" stroke-width="1.3333333333333333"/><line x1="946.8303376317801" y1="302.1854381008157" x2="950.3354582836773" y2="277.5979562957073" stroke="#F8766D" stroke-width="1.3333333333333333"/><line x1="950.3354582836773" y1="277.5979562957073" x2="953.8405789355744" y2="267.3797434805733" stroke="#F8766D" stroke-width="1.3333333333333333"/><line x1="953.8405789355744" y1="267.3797434805733" x2="957.3456995874715" y2="272.89409747091133" stroke="#F8766D" stroke-width="1.3333333333333333"/><line x1="957.3456995874715" y1="272.89409747091133" x2="960.8508202393687" y2="285.37176461130684" stroke="#F8766D" stroke-width="1.3333333333333333"/><line x1="960.8508202393687" y1="285.37176461130684" x2="964.3559408912657" y2="291.50876445364077" stroke="#F8766D" stroke-width="1.3333333333333333"/><line x1="964.3559408912657" y1="291.50876445364077" x2="967.8610615431628" y2="281.9269492413631" stroke="#F8766D" stroke-width="1.3333333333333333"/><line x1="967.8610615431628" y1="281.9269492413631" x2="971.36618219506" y2="257.15864863304944" stroke="#F8766D" stroke-width="1.3333333333333333"/><line x1="971.36618219506" y1="257.15864863304944" x2="974.8713028469571" y2="227.37880989104116" stroke="#F8766D" stroke-width="1.3333333333333333"/><line x1="974.8713028469571" y1="227.37880989104116" x2="978.3764234988541" y2="206.05278955007458" stroke="#F8766D" stroke-width="1.3333333333333333"/><line x1="978.3764234988541" y1="206.05278955007458" x2="981.8815441507513" y2="201.50661796061127" stroke="#F8766D" stroke-width="1.3333333333333333"/><line x1="981.8815441507513" y1="201.50661796061127" x2="985.3866648026484" y2="211.7373033757806" stroke="#F8766D" stroke-width="1.3333333333333333"/><line x1="985.3866648026484" y1="211.7373033757806" x2="988.8917854545455" y2="225.73660924618935" stroke="#F8766D" stroke-width="1.3333333333333333"/><line x1="571.782427878788" y1="180.72672180962553" x2="575.2875485306851" y2="159.36285064281725" stroke="#00BFC4" stroke-width="1.3333333333333333"/><line x1="575.2875485306851" y1="159.36285064281725" x2="578.7926691825821" y2="171.37750228590392" stroke="#00BFC4" stroke-width="1.3333333333333333"/><line x1="578.7926691825821" y1="171.37750228590392" x2="582.2977898344793" y2="135.01663111242732" stroke="#00BFC4" stroke-width="1.3333333333333333"/><line x1="582.2977898344793" y1="135.01663111242732" x2="585.8029104863764" y2="162.10147573510795" stroke="#00BFC4" stroke-width="1.3333333333333333"/><line x1="585.8029104863764" y1="162.10147573510795" x2="589.3080311382735" y2="113.94709332073917" stroke="#00BFC4" stroke-width="1.3333333333333333"/><line x1="589.3080311382735" y1="113.94709332073917" x2="592.8131517901707" y2="153.0120118992687" stroke="#00BFC4" stroke-width="1.3333333333333333"/><line x1="592.8131517901707" y1="153.0120118992687" x2="596.3182724420678" y2="97.48923379025317" stroke="#00BFC4" stroke-width="1.3333333333333333"/><line x1="596.3182724420678" y1="97.48923379025317" x2="599.8233930939649" y2="144.30883430867254" stroke="#00BFC4" stroke-width="1.3333333333333333"/><line x1="599.8233930939649" y1="144.30883430867254" x2="603.328513745862" y2="86.64204411331662" stroke="#00BFC4" stroke-width="1.3333333333333333"/><line x1="603.328513745862" y1="86.64204411331662" x2="606.8336343977592" y2="136.29281235009762" stroke="#00BFC4" stroke-width="1.3333333333333333"/><line x1="606.8336343977592" y1="136.29281235009762" x2="610.3387550496562" y2="82.00050922650469" stroke="#00BFC4" stroke-width="1.3333333333333333"/><line x1="610.3387550496562" y1="82.00050922650469" x2="613.8438757015534" y2="129.36382055304836" stroke="#00BFC4" stroke-width="1.3333333333333333"/><line x1="613.8438757015534" y1="129.36382055304836" x2="617.3489963534505" y2="83.72022257202252" stroke="#00BFC4" stroke-width="1.3333333333333333"/><line x1="617.3489963534505" y1="83.72022257202252" x2="620.8541170053477" y2="124.00051066215974" stroke="#00BFC4" stroke-width="1.3333333333333333"/><line x1="620.8541170053477" y1="124.00051066215974" x2="624.3592376572448" y2="91.51696787595813" stroke="#00BFC4" stroke-width="1.3333333333333333"/><line x1="624.3592376572448" y1="91.51696787595813" x2="627.8643583091418" y2="120.72304725693814" stroke="#00BFC4" stroke-width="1.3333333333333333"/><line x1="627.8643583091418" y1="120.72304725693814" x2="631.369478961039" y2="104.70056809281046" stroke="#00BFC4" stroke-width="1.3333333333333333"/><line x1="631.369478961039" y1="104.70056809281046" x2="634.8745996129361" y2="120.04200562725885" stroke="#00BFC4" stroke-width="1.3333333333333333"/><line x1="634.8745996129361" y1="120.04200562725885" x2="638.3797202648333" y2="122.23935895108623" stroke="#00BFC4" stroke-width="1.3333333333333333"/><line x1="638.3797202648333" y1="122.23935895108623" x2="641.8848409167304" y2="122.39848527857498" stroke="#00BFC4" stroke-width="1.3333333333333333"/><line x1="641.8848409167304" y1="122.39848527857498" x2="645.3899615686275" y2="142.84907742878696" stroke="#00BFC4" stroke-width="1.3333333333333333"/><line x1="645.3899615686275" y1="142.84907742878696" x2="648.8950822205246" y2="128.1018457458812" stroke="#00BFC4" stroke-width="1.3333333333333333"/><line x1="648.8950822205246" y1="128.1018457458812" x2="652.4002028724217" y2="165.09799624587976" stroke="#00BFC4" stroke-width="1.3333333333333333"/><line x1="652.4002028724217" y1="165.09799624587976" x2="655.9053235243189" y2="137.27216508426716" stroke="#00BFC4" stroke-width="1.3333333333333333"/><line x1="655.9053235243189" y1="137.27216508426716" x2="659.4104441762161" y2="187.5189559376637" stroke="#00BFC4" stroke-width="1.3333333333333333"/><line x1="659.4104441762161" y1="187.5189559376637" x2="662.9155648281131" y2="149.79446395374364" stroke="#00BFC4" stroke-width="1.3333333333333333"/><line x1="662.9155648281131" y1="149.79446395374364" x2="666.4206854800102" y2="208.71864215471342" stroke="#00BFC4" stroke-width="1.3333333333333333"/><line x1="666.4206854800102" y1="208.71864215471342" x2="669.9258061319074" y2="165.29091505260828" stroke="#00BFC4" stroke-width="1.3333333333333333"/><line x1="669.9258061319074" y1="165.29091505260828" x2="673.4309267838045" y2="227.47503895450888" stroke="#00BFC4" stroke-width="1.3333333333333333"/><line x1="673.4309267838045" y1="227.47503895450888" x2="676.9360474357015" y2="183.1157335995851" stroke="#00BFC4" stroke-width="1.3333333333333333"/><line x1="676.9360474357015" y1="183.1157335995851" x2="680.4411680875987" y2="242.81538577344463" stroke="#00BFC4" stroke-width="1.3333333333333333"/><line x1="680.4411680875987" y1="242.81538577344463" x2="683.9462887394958" y2="202.37535822928353" stroke="#00BFC4" stroke-width="1.3333333333333333"/><line x1="683.9462887394958" y1="202.37535822928353" x2="687.4514093913931" y2="254.06902663244472" stroke="#00BFC4" stroke-width="1.3333333333333333"/><line x1="687.4514093913931" y1="254.06902663244472" x2="690.9565300432902" y2="221.97408229074418" stroke="#00BFC4" stroke-width="1.3333333333333333"/><line x1="690.9565300432902" y1="221.97408229074418" x2="694.4616506951872" y2="260.8920538906616" stroke="#00BFC4" stroke-width="1.3333333333333333"/><line x1="694.4616506951872" y1="260.8920538906616" x2="697.9667713470844" y2="240.68272358362952" stroke="#00BFC4" stroke-width="1.3333333333333333"/><line x1="697.9667713470844" y1="240.68272358362952" x2="701.4718919989815" y2="263.26336459177884" stroke="#00BFC4" stroke-width="1.3333333333333333"/><line x1="701.4718919989815" y1="263.26336459177884" x2="704.9770126508786" y2="257.22548393598805" stroke="#00BFC4" stroke-width="1.3333333333333333"/><line x1="704.9770126508786" y1="257.22548393598805" x2="708.4821333027758" y2="261.45439934607646" stroke="#00BFC4" stroke-width="1.3333333333333333"/><line x1="708.4821333027758" y1="261.45439934607646" x2="711.9872539546728" y2="270.37809830853985" stroke="#00BFC4" stroke-width="1.3333333333333333"/><line x1="711.9872539546728" y1="270.37809830853985" x2="715.4923746065699" y2="255.97716732087602" stroke="#00BFC4" stroke-width="1.3333333333333333"/><line x1="715.4923746065699" y1="255.97716732087602" x2="718.9974952584671" y2="279.0689223825941" stroke="#00BFC4" stroke-width="1.3333333333333333"/><line x1="718.9974952584671" y1="279.0689223825941" x2="722.5026159103642" y2="247.51695805411092" stroke="#00BFC4" stroke-width="1.3333333333333333"/><line x1="722.5026159103642" y1="247.51695805411092" x2="726.0077365622612" y2="282.4739183330404" stroke="#00BFC4" stroke-width="1.3333333333333333"/><line x1="726.0077365622612" y1="282.4739183330404" x2="729.5128572141584" y2="236.85724049104115" stroke="#00BFC4" stroke-width="1.3333333333333333"/><line x1="729.5128572141584" y1="236.85724049104115" x2="733.0179778660555" y2="280.09665882262334" stroke="#00BFC4" stroke-width="1.3333333333333333"/><line x1="733.0179778660555" y1="280.09665882262334" x2="736.5230985179526" y2="224.80456329280472" stroke="#00BFC4" stroke-width="1.3333333333333333"/><line x1="736.5230985179526" y1="224.80456329280472" x2="740.0282191698499" y2="271.8254852037429" stroke="#00BFC4" stroke-width="1.3333333333333333"/><line x1="740.0282191698499" y1="271.8254852037429" x2="743.533339821747" y2="212.1207896778322" stroke="#00BFC4" stroke-width="1.3333333333333333"/><line x1="743.533339821747" y1="212.1207896778322" x2="747.0384604736441" y2="257.9617497301542" stroke="#00BFC4" stroke-width="1.3333333333333333"/><line x1="747.0384604736441" y1="257.9617497301542" x2="750.5435811255412" y2="199.4687963270556" stroke="#00BFC4" stroke-width="1.3333333333333333"/><line x1="750.5435811255412" y1="199.4687963270556" x2="754.0487017774383" y2="239.2154883288977" stroke="#00BFC4" stroke-width="1.3333333333333333"/><line x1="754.0487017774383" y1="239.2154883288977" x2="757.5538224293355" y2="187.3759823203183" stroke="#00BFC4" stroke-width="1.3333333333333333"/><line x1="757.5538224293355" y1="187.3759823203183" x2="761.0589430812325" y2="216.66769230364744" stroke="#00BFC4" stroke-width="1.3333333333333333"/><line x1="761.0589430812325" y1="216.66769230364744" x2="764.5640637331296" y2="176.21777000843912" stroke="#00BFC4" stroke-width="1.3333333333333333"/><line x1="764.5640637331296" y1="176.21777000843912" x2="768.0691843850268" y2="191.70131401913568" stroke="#00BFC4" stroke-width="1.3333333333333333"/><line x1="768.0691843850268" y1="191.70131401913568" x2="771.5743050369239" y2="166.22096980888185" stroke="#00BFC4" stroke-width="1.3333333333333333"/><line x1="771.5743050369239" y1="166.22096980888185" x2="775.0794256888212" y2="165.90597546560278" stroke="#00BFC4" stroke-width="1.3333333333333333"/><line x1="775.0794256888212" y1="165.90597546560278" x2="778.5845463407182" y2="157.48467079871253" stroke="#00BFC4" stroke-width="1.3333333333333333"/><line x1="778.5845463407182" y1="157.48467079871253" x2="782.0896669926153" y2="140.963781237929" stroke="#00BFC4" stroke-width="1.3333333333333333"/><line x1="782.0896669926153" y1="140.963781237929" x2="785.5947876445125" y2="150.0144401068523" stroke="#00BFC4" stroke-width="1.3333333333333333"/><line x1="785.5947876445125" y1="150.0144401068523" x2="789.0999082964096" y2="118.52543584478963" stroke="#00BFC4" stroke-width="1.3333333333333333"/><line x1="789.0999082964096" y1="118.52543584478963" x2="792.6050289483067" y2="143.76426010368613" stroke="#00BFC4" stroke-width="1.3333333333333333"/><line x1="792.6050289483067" y1="143.76426010368613" x2="796.1101496002038" y2="100.08685443921713" stroke="#00BFC4" stroke-width="1.3333333333333333"/><line x1="796.1101496002038" y1="100.08685443921713" x2="799.6152702521009" y2="138.67993946205286" stroke="#00BFC4" stroke-width="1.3333333333333333"/><line x1="799.6152702521009" y1="138.67993946205286" x2="803.120390903998" y2="86.87653638969762" stroke="#00BFC4" stroke-width="1.3333333333333333"/><line x1="803.120390903998" y1="86.87653638969762" x2="806.6255115558952" y2="134.73776749023082" stroke="#00BFC4" stroke-width="1.3333333333333333"/><line x1="806.6255115558952" y1="134.73776749023082" x2="810.1306322077922" y2="79.76312822908676" stroke="#00BFC4" stroke-width="1.3333333333333333"/><line x1="810.1306322077922" y1="79.76312822908676" x2="813.6357528596893" y2="131.9729285437461" stroke="#00BFC4" stroke-width="1.3333333333333333"/><line x1="813.6357528596893" y1="131.9729285437461" x2="817.1408735115865" y2="79.19090909090906" stroke="#00BFC4" stroke-width="1.3333333333333333"/><line x1="817.1408735115865" y1="79.19090909090906" x2="820.6459941634836" y2="130.49356694316117" stroke="#00BFC4" stroke-width="1.3333333333333333"/><line x1="820.6459941634836" y1="130.49356694316117" x2="824.1511148153807" y2="85.14854077727784" stroke="#00BFC4" stroke-width="1.3333333333333333"/><line x1="824.1511148153807" y1="85.14854077727784" x2="827.656235467278" y2="130.47823850746164" stroke="#00BFC4" stroke-width="1.3333333333333333"/><line x1="827.656235467278" y1="130.47823850746164" x2="831.161356119175" y2="97.1735549878837" stroke="#00BFC4" stroke-width="1.3333333333333333"/><line x1="831.161356119175" y1="97.1735549878837" x2="834.6664767710722" y2="132.15659831951567" stroke="#00BFC4" stroke-width="1.3333333333333333"/><line x1="834.6664767710722" y1="132.15659831951567" x2="838.1715974229693" y2="114.39196589505312" stroke="#00BFC4" stroke-width="1.3333333333333333"/><line x1="838.1715974229693" y1="114.39196589505312" x2="841.6767180748664" y2="135.77532268618927" stroke="#00BFC4" stroke-width="1.3333333333333333"/><line x1="841.6767180748664" y1="135.77532268618927" x2="845.1818387267635" y2="135.5893809258431" stroke="#00BFC4" stroke-width="1.3333333333333333"/><line x1="845.1818387267635" y1="135.5893809258431" x2="848.6869593786606" y2="141.55320901092705" stroke="#00BFC4" stroke-width="1.3333333333333333"/><line x1="848.6869593786606" y1="141.55320901092705" x2="852.1920800305577" y2="159.30731278904386" stroke="#00BFC4" stroke-width="1.3333333333333333"/><line x1="852.1920800305577" y1="159.30731278904386" x2="855.6972006824549" y2="149.63092337883933" stroke="#00BFC4" stroke-width="1.3333333333333333"/><line x1="855.6972006824549" y1="149.63092337883933" x2="859.202321334352" y2="183.9563143176273" stroke="#00BFC4" stroke-width="1.3333333333333333"/><line x1="859.202321334352" y1="183.9563143176273" x2="862.707441986249" y2="160.0217980880219" stroke="#00BFC4" stroke-width="1.3333333333333333"/><line x1="862.707441986249" y1="160.0217980880219" x2="866.2125626381462" y2="207.93625076749154" stroke="#00BFC4" stroke-width="1.3333333333333333"/><line x1="866.2125626381462" y1="207.93625076749154" x2="869.7176832900433" y2="172.5703076795192" stroke="#00BFC4" stroke-width="1.3333333333333333"/><line x1="869.7176832900433" y1="172.5703076795192" x2="873.2228039419404" y2="229.75360383140833" stroke="#00BFC4" stroke-width="1.3333333333333333"/><line x1="873.2228039419404" y1="229.75360383140833" x2="876.7279245938377" y2="186.92433342537493" stroke="#00BFC4" stroke-width="1.3333333333333333"/><line x1="876.7279245938377" y1="186.92433342537493" x2="880.2330452457347" y2="248.12619537137974" stroke="#00BFC4" stroke-width="1.3333333333333333"/><line x1="880.2330452457347" y1="248.12619537137974" x2="883.7381658976319" y2="202.52610226510143" stroke="#00BFC4" stroke-width="1.3333333333333333"/><line x1="883.7381658976319" y1="202.52610226510143" x2="887.243286549529" y2="262.06706784597475" stroke="#00BFC4" stroke-width="1.3333333333333333"/><line x1="887.243286549529" y1="262.06706784597475" x2="890.7484072014261" y2="218.62487136165288" stroke="#00BFC4" stroke-width="1.3333333333333333"/><line x1="890.7484072014261" y1="218.62487136165288" x2="894.2535278533232" y2="270.9413235816143" stroke="#00BFC4" stroke-width="1.3333333333333333"/><line x1="894.2535278533232" y1="270.9413235816143" x2="897.7586485052203" y2="234.3122022554919" stroke="#00BFC4" stroke-width="1.3333333333333333"/><line x1="897.7586485052203" y1="234.3122022554919" x2="901.2637691571174" y2="274.4923013167675" stroke="#00BFC4" stroke-width="1.3333333333333333"/><line x1="901.2637691571174" y1="274.4923013167675" x2="904.7688898090146" y2="248.57825379864929" stroke="#00BFC4" stroke-width="1.3333333333333333"/><line x1="904.7688898090146" y1="248.57825379864929" x2="908.2740104609117" y2="272.8363050745294" stroke="#00BFC4" stroke-width="1.3333333333333333"/><line x1="908.2740104609117" y1="272.8363050745294" x2="911.7791311128087" y2="260.3851691869449" stroke="#00BFC4" stroke-width="1.3333333333333333"/><line x1="911.7791311128087" y1="260.3851691869449" x2="915.2842517647059" y2="266.4279256412943" stroke="#00BFC4" stroke-width="1.3333333333333333"/><line x1="915.2842517647059" y1="266.4279256412943" x2="918.789372416603" y2="268.75158664259186" stroke="#00BFC4" stroke-width="1.3333333333333333"/><line x1="918.789372416603" y1="268.75158664259186" x2="922.2944930685003" y2="256.00054253511837" stroke="#00BFC4" stroke-width="1.3333333333333333"/><line x1="922.2944930685003" y1="256.00054253511837" x2="925.7996137203974" y2="272.8407861893179" stroke="#00BFC4" stroke-width="1.3333333333333333"/><line x1="925.7996137203974" y1="272.8407861893179" x2="929.3047343722944" y2="242.48862942265754" stroke="#00BFC4" stroke-width="1.3333333333333333"/><line x1="929.3047343722944" y1="242.48862942265754" x2="932.8098550241916" y2="272.04416767279406" stroke="#00BFC4" stroke-width="1.3333333333333333"/><line x1="932.8098550241916" y1="272.04416767279406" x2="936.3149756760887" y2="226.9398273371493" stroke="#00BFC4" stroke-width="1.3333333333333333"/><line x1="936.3149756760887" y1="226.9398273371493" x2="939.8200963279858" y2="266.05174145451304" stroke="#00BFC4" stroke-width="1.3333333333333333"/><line x1="939.8200963279858" y1="266.05174145451304" x2="943.325216979883" y2="210.4252873506453" stroke="#00BFC4" stroke-width="1.3333333333333333"/><line x1="943.325216979883" y1="210.4252873506453" x2="946.8303376317801" y2="254.90212794242453" stroke="#00BFC4" stroke-width="1.3333333333333333"/><line x1="946.8303376317801" y1="254.90212794242453" x2="950.3354582836773" y2="193.95648774508555" stroke="#00BFC4" stroke-width="1.3333333333333333"/><line x1="950.3354582836773" y1="193.95648774508555" x2="953.8405789355744" y2="239.00614772773815" stroke="#00BFC4" stroke-width="1.3333333333333333"/><line x1="953.8405789355744" y1="239.00614772773815" x2="957.3456995874715" y2="178.4156527898663" stroke="#00BFC4" stroke-width="1.3333333333333333"/><line x1="957.3456995874715" y1="178.4156527898663" x2="960.8508202393687" y2="219.14030507813447" stroke="#00BFC4" stroke-width="1.3333333333333333"/><line x1="960.8508202393687" y1="219.14030507813447" x2="964.3559408912657" y2="164.50516958005508" stroke="#00BFC4" stroke-width="1.3333333333333333"/><line x1="964.3559408912657" y1="164.50516958005508" x2="967.8610615431628" y2="196.40912287732334" stroke="#00BFC4" stroke-width="1.3333333333333333"/><line x1="967.8610615431628" y1="196.40912287732334" x2="971.36618219506" y2="152.71920681155987" stroke="#00BFC4" stroke-width="1.3333333333333333"/><line x1="971.36618219506" y1="152.71920681155987" x2="974.8713028469571" y2="172.17812928694445" stroke="#00BFC4" stroke-width="1.3333333333333333"/><line x1="974.8713028469571" y1="172.17812928694445" x2="978.3764234988541" y2="143.33831793827812" stroke="#00BFC4" stroke-width="1.3333333333333333"/><line x1="978.3764234988541" y1="143.33831793827812" x2="981.8815441507513" y2="147.98205523982975" stroke="#00BFC4" stroke-width="1.3333333333333333"/><line x1="981.8815441507513" y1="147.98205523982975" x2="985.3866648026484" y2="136.44541229301717" stroke="#00BFC4" stroke-width="1.3333333333333333"/><line x1="985.3866648026484" y1="136.44541229301717" x2="988.8917854545455" y2="125.4152107377907" stroke="#00BFC4" stroke-width="1.3333333333333333"/><rect x="1024.41392" y="202.65258666666665" width="23.114079999999994" height="46.22815999999999" fill="#ffffff" fill-opacity="1.0" stroke="none"/><rect x="1025.3588018897638" y="203.59746855643044" width="21.224316220472435" height="21.224316220472435" fill="#F8766D" fill-opacity="1.0" stroke="none"/><text x="1051.1946666666668" y="217.96429333333333" fill="#333333" font-size="11.733333333333334" font-family="sans-serif" text-anchor="start">1</text><rect x="1025.3588018897638" y="226.71154855643044" width="21.224316220472435" height="21.224316220472435" fill="#00BFC4" fill-opacity="1.0" stroke="none"/><text x="1051.1946666666668" y="241.0783733333333" fill="#333333" font-size="11.733333333333334" font-family="sans-serif" text-anchor="start">2</text></svg>