<svg xmlns="http://www.w3.org/2000/svg" width="1280" height="420" viewBox="0 0 1280 420"><rect x="0.0" y="0.0" width="1280.0" height="420.0" fill="#ffffff" fill-opacity="1.0" stroke="none"/><text x="35.346666666666664" y="21.413333333333334" fill="#333333" font-size="17.599999999999998" font-family="sans-serif" text-anchor="start">violin / strip / swarm</text><rect x="0.0" y="0.0" width="0.0" height="0.0" fill="#ffffff" fill-opacity="1.0" stroke="none"/><line x1="96.46344333333333" y1="64.53333333333333" x2="96.46344333333333" y2="387.0" stroke="#dddddd" stroke-width="1.3333333333333333"/><line x1="198.32473777777778" y1="64.53333333333333" x2="198.32473777777778" y2="387.0" stroke="#dddddd" stroke-width="1.3333333333333333"/><line x1="300.18603222222225" y1="64.53333333333333" x2="300.18603222222225" y2="387.0" stroke="#dddddd" stroke-width="1.3333333333333333"/><line x1="35.346666666666664" y1="347.9131313131313" x2="361.30280888888893" y2="347.9131313131313" stroke="#dddddd" stroke-width="0.6666666666666666"/><line x1="35.346666666666664" y1="299.05454545454546" x2="361.30280888888893" y2="299.05454545454546" stroke="#dddddd" stroke-width="0.6666666666666666"/><line x1="35.346666666666664" y1="250.1959595959596" x2="361.30280888888893" y2="250.1959595959596" stroke="#dddddd" stroke-width="0.6666666666666666"/><line x1="35.346666666666664" y1="201.33737373737375" x2="361.30280888888893" y2="201.33737373737375" stroke="#dddddd" stroke-width="0.6666666666666666"/><line x1="35.346666666666664" y1="152.4787878787879" x2="361.30280888888893" y2="152.4787878787879" stroke="#dddddd" stroke-width="0.6666666666666666"/><line x1="35.346666666666664" y1="103.62020202020206" x2="361.30280888888893" y2="103.62020202020206" stroke="#dddddd" stroke-width="0.6666666666666666"/><line x1="35.346666666666664" y1="372.3424242424242" x2="361.30280888888893" y2="372.3424242424242" stroke="#dddddd" stroke-width="1.3333333333333333"/><line x1="35.346666666666664" y1="323.48383838383836" x2="361.30280888888893" y2="323.48383838383836" stroke="#dddddd" stroke-width="1.3333333333333333"/><line x1="35.346666666666664" y1="274.62525252525256" x2="361.30280888888893" y2="274.62525252525256" stroke="#dddddd" stroke-width="1.3333333333333333"/><line x1="35.346666666666664" y1="225.76666666666668" x2="361.30280888888893" y2="225.76666666666668" stroke="#dddddd" stroke-width="1.3333333333333333"/><line x1="35.346666666666664" y1="176.90808080808085" x2="361.30280888888893" y2="176.90808080808085" stroke="#dddddd" stroke-width="1.3333333333333333"/><line x1="35.346666666666664" y1="128.04949494949497" x2="361.30280888888893" y2="128.04949494949497" stroke="#dddddd" stroke-width="1.3333333333333333"/><line x1="35.346666666666664" y1="79.1909090909091" x2="361.30280888888893" y2="79.1909090909091" stroke="#dddddd" stroke-width="1.3333333333333333"/><rect x="35.346666666666664" y="64.53333333333333" width="325.9561422222223" height="322.46666666666664" fill="#ffffff" fill-opacity="0.0" stroke="#444444" stroke-width="1.3333333333333333"/><line x1="96.46344333333333" y1="387.0" x2="96.46344333333333" y2="390.66666666666663" stroke="#444444" stroke-width="1.3333333333333333"/><text x="96.46344333333333" y="402.9866666666667" fill="#333333" font-size="11.733333333333334" font-family="sans-serif" text-anchor="middle">a</text><line x1="198.32473777777778" y1="387.0" x2="198.32473777777778" y2="390.66666666666663" stroke="#444444" stroke-width="1.3333333333333333"/><text x="198.32473777777778" y="402.9866666666667" fill="#333333" font-size="11.733333333333334" font-family="sans-serif" text-anchor="middle">b</text><line x1="300.18603222222225" y1="387.0" x2="300.18603222222225" y2="390.66666666666663" stroke="#444444" stroke-width="1.3333333333333333"/><text x="300.18603222222225" y="402.9866666666667" fill="#333333" font-size="11.733333333333334" font-family="sans-serif" text-anchor="middle">c</text><line x1="35.346666666666664" y1="372.3424242424242" x2="31.679999999999996" y2="372.3424242424242" stroke="#444444" stroke-width="1.3333333333333333"/><text x="28.746666666666663" y="376.44909090909084" fill="#333333" font-size="11.733333333333334" font-family="sans-serif" text-anchor="end">4</text><line x1="35.346666666666664" y1="323.48383838383836" x2="31.679999999999996" y2="323.48383838383836" stroke="#444444" stroke-width="1.3333333333333333"/><text x="28.746666666666663" y="327.59050505050504" fill="#333333" font-size="11.733333333333334" font-family="sans-serif" text-anchor="end">5</text><line x1="35.346666666666664" y1="274.62525252525256" x2="31.679999999999996" y2="274.62525252525256" stroke="#444444" stroke-width="1.3333333333333333"/><text x="28.746666666666663" y="278.73191919191925" fill="#333333" font-size="11.733333333333334" font-family="sans-serif" text-anchor="end">6</text><line x1="35.346666666666664" y1="225.76666666666668" x2="31.679999999999996" y2="225.76666666666668" stroke="#444444" stroke-width="1.3333333333333333"/><text x="28.746666666666663" y="229.87333333333336" fill="#333333" font-size="11.733333333333334" font-family="sans-serif" text-anchor="end">7</text><line x1="35.346666666666664" y1="176.90808080808085" x2="31.679999999999996" y2="176.90808080808085" stroke="#444444" stroke-width="1.3333333333333333"/><text x="28.746666666666663" y="181.01474747474754" fill="#333333" font-size="11.733333333333334" font-family="sans-serif" text-anchor="end">8</text><line x1="35.346666666666664" y1="128.04949494949497" x2="31.679999999999996" y2="128.04949494949497" stroke="#444444" stroke-width="1.3333333333333333"/><text x="28.746666666666663" y="132.15616161616163" fill="#333333" font-size="11.733333333333334" font-family="sans-serif" text-anchor="end">9</text><line x1="35.346666666666664" y1="79.1909090909091" x2="31.679999999999996" y2="79.1909090909091" stroke="#444444" stroke-width="1.3333333333333333"/><text x="28.746666666666663" y="83.29757575757577" fill="#333333" font-size="11.733333333333334" font-family="sans-serif" text-anchor="end">10</text><text x="35.346666666666664" y="53.68000000000001" fill="#333333" font-size="17.599999999999998" font-family="sans-serif" text-anchor="start">violin</text><path d="M 120.62597928502967 372.3424242424242 L 122.37714234207614 367.45656565656566 L 124.05093114267333 362.57070707070704 L 125.6213537296758 357.68484848484843 L 127.06364386445401 352.79898989898993 L 128.3550768778942 347.9131313131313 L 129.47579784259946 343.02727272727276 L 130.4096156970789 338.14141414141415 L 131.1447064354993 333.2555555555556 L 131.6741633090125 328.369696969697 L 131.99633415344925 323.48383838383836 L 132.1148963888889 318.5979797979798 L 132.03863853849435 313.7121212121212 L 131.78094156957366 308.82626262626263 L 131.35898116425608 303.940404040404 L 130.79269972833472 299.05454545454546 L 130.1036209959114 294.1686868686869 L 129.31359739094583 289.2828282828283 L 128.4435886769389 284.3969696969697 L 127.51256885650537 279.51111111111106 L 126.5366470183284 274.62525252525256 L 125.5284682431481 269.73939393939395 L 124.49693500840087 264.85353535353534 L 123.44726052811907 259.9676767676767 L 122.38133605433097 255.08181818181816 L 121.29836713122083 250.1959595959596 L 120.19571153612078 245.31010101010102 L 119.0698360186391 240.4242424242424 L 117.91730116898347 235.53838383838382 L 116.73568431201018 230.65252525252527 L 115.52435901191501 225.76666666666668 L 77.40252765475165 225.76666666666668 L 76.19120235465648 230.65252525252527 L 75.00958549768319 235.53838383838382 L 73.85705064802757 240.4242424242424 L 72.73117513054586 245.31010101010102 L 71.62851953544583 250.1959595959596 L 70.54555061233569 255.08181818181816 L 69.47962613854759 259.9676767676767 L 68.4299516582658 264.85353535353534 L 67.39841842351856 269.73939393939395 L 66.39023964833827 274.62525252525256 L 65.4143178101613 279.51111111111106 L 64.48329798972776 284.3969696969697 L 63.61328927572082 289.2828282828283 L 62.82326567075525 294.1686868686869 L 62.13418693833194 299.05454545454546 L 61.56790550241059 303.940404040404 L 61.14594509709301 308.82626262626263 L 60.88824812817229 313.7121212121212 L 60.811990277777774 318.5979797979798 L 60.93055251321739 323.48383838383836 L 61.25272335765417 328.369696969697 L 61.78218023116737 333.2555555555556 L 62.51727096958778 338.14141414141415 L 63.4510888240672 343.02727272727276 L 64.57180978877246 347.9131313131313 L 65.86324280221265 352.79898989898993 L 67.30553293699086 357.68484848484843 L 68.87595552399333 362.57070707070704 L 70.54974432459052 367.45656565656566 L 72.30090738163699 372.3424242424242 Z" fill="#F8766D" fill-opacity="0.5" stroke="#F8766D" stroke-width="1.3333333333333333"/><path d="M 217.38565345635948 225.76666666666668 L 218.59697875645466 220.8808080808081 L 219.77859561342794 215.99494949494948 L 220.93113046308355 211.10909090909095 L 222.05700598056526 206.22323232323234 L 223.1596615756653 201.33737373737375 L 224.2426304987754 196.4515151515152 L 225.30855497256357 191.56565656565658 L 226.35822945284534 186.679797979798 L 227.38976268759257 181.79393939393938 L 228.39794146277285 176.90808080808085 L 229.37386330094984 172.02222222222227 L 230.30488312138337 167.13636363636368 L 231.17489183539033 162.25050505050504 L 231.9649154403559 157.3646464646465 L 232.65399417277916 152.4787878787879 L 233.22027560870055 147.5929292929293 L 233.64223601401812 142.70707070707078 L 233.89993298293885 137.8212121212121 L 233.97619083333336 132.93535353535356 L 233.85762859789375 128.04949494949497 L 233.53545775345697 123.16363636363644 L 233.00600087994377 118.27777777777783 L 232.27091014152336 113.39191919191917 L 231.33709228704393 108.5060606060606 L 230.2163713223387 103.62020202020206 L 228.9249383088985 98.73434343434349 L 227.4826481741203 93.84848484848494 L 225.91222558711777 88.96262626262629 L 224.2384367865206 84.07676767676772 L 222.4872737294741 79.1909090909091 L 174.16220182608146 79.1909090909091 L 172.41103876903497 84.07676767676772 L 170.73724996843782 88.96262626262629 L 169.1668273814353 93.84848484848494 L 167.7245372466571 98.73434343434349 L 166.4331042332169 103.62020202020206 L 165.31238326851167 108.5060606060606 L 164.37856541403224 113.39191919191917 L 163.64347467561183 118.27777777777783 L 163.11401780209863 123.16363636363644 L 162.79184695766185 128.04949494949497 L 162.67328472222223 132.93535353535356 L 162.74954257261675 137.8212121212121 L 163.00723954153747 142.70707070707078 L 163.42919994685502 147.5929292929293 L 163.9954813827764 152.4787878787879 L 164.6845601151997 157.3646464646465 L 165.47458372016524 162.25050505050504 L 166.34459243417223 167.13636363636368 L 167.27561225460573 172.02222222222227 L 168.25153409278272 176.90808080808085 L 169.25971286796303 181.79393939393938 L 170.29124610271026 186.679797979798 L 171.34092058299203 191.56565656565658 L 172.40684505678018 196.4515151515152 L 173.4898139798903 201.33737373737375 L 174.59246957499033 206.22323232323234 L 175.71834509247202 211.10909090909095 L 176.87087994212766 215.99494949494948 L 178.05249679910094 220.8808080808081 L 179.26382209919612 225.76666666666668 Z" fill="#00BA38" fill-opacity="0.5" stroke="#00BA38" stroke-width="1.3333333333333333"/><path d="M 324.3485681739186 323.48383838383836 L 326.09973123096506 318.5979797979798 L 327.77352003156227 313.7121212121212 L 329.3439426185647 308.82626262626263 L 330.7862327533429 303.940404040404 L 332.0776657667832 299.05454545454546 L 333.1983867314884 294.1686868686869 L 334.1322045859678 289.2828282828283 L 334.86729532438824 284.3969696969697 L 335.39675219790144 279.51111111111106 L 335.71892304233825 274.62525252525256 L 335.83748527777783 269.73939393939395 L 335.76122742738335 264.85353535353534 L 335.5035304584626 259.9676767676768 L 335.081570053145 255.08181818181816 L 334.51528861722363 250.1959595959596 L 333.8262098848004 245.31010101010102 L 333.0361862798348 240.4242424242424 L 332.16617756582787 235.53838383838388 L 331.2351577453943 230.65252525252527 L 330.2592359072173 225.76666666666668 L 329.25105713203703 220.8808080808081 L 328.21952389728983 215.99494949494948 L 327.169849417008 211.10909090909087 L 326.1039249432199 206.22323232323234 L 325.0209560201098 201.33737373737375 L 323.91830042500976 196.4515151515152 L 322.792424907528 191.56565656565658 L 321.63989005787244 186.67979797979797 L 320.45827320089916 181.79393939393938 L 319.24694790080395 176.90808080808085 L 281.1251165436406 176.90808080808085 L 279.9137912435454 181.79393939393938 L 278.7321743865721 186.67979797979797 L 277.5796395369165 191.56565656565658 L 276.4537640194348 196.4515151515152 L 275.35110842433477 201.33737373737375 L 274.26813950122465 206.22323232323234 L 273.2022150274365 211.10909090909087 L 272.15254054715473 215.99494949494948 L 271.1210073124075 220.8808080808081 L 270.1128285372272 225.76666666666668 L 269.1369066990502 230.65252525252527 L 268.2058868786167 235.53838383838388 L 267.33587816460977 240.4242424242424 L 266.54585455964417 245.31010101010102 L 265.8567758272209 250.1959595959596 L 265.2904943912995 255.08181818181816 L 264.86853398598197 259.9676767676768 L 264.6108370170612 264.85353535353534 L 264.53457916666673 269.73939393939395 L 264.6531414021063 274.62525252525256 L 264.9753122465431 279.51111111111106 L 265.5047691200563 284.3969696969697 L 266.23985985847673 289.2828282828283 L 267.17367771295613 294.1686868686869 L 268.2943986776614 299.05454545454546 L 269.5858316911016 303.940404040404 L 271.0281218258798 308.82626262626263 L 272.5985444128823 313.7121212121212 L 274.27233321347944 318.5979797979798 L 276.0234962705259 323.48383838383836 Z" fill="#619CFF" fill-opacity="0.5" stroke="#619CFF" stroke-width="1.3333333333333333"/><rect x="375.9694755555556" y="191.09554666666668" width="23.114079999999994" height="69.34223999999998" fill="#ffffff" fill-opacity="1.0" stroke="none"/><rect x="376.9143574453194" y="192.04042855643047" width="21.224316220472435" height="21.224316220472435" fill="#F8766D" fill-opacity="1.0" stroke="none"/><text x="402.75022222222225" y="206.40725333333333" fill="#333333" font-size="11.733333333333334" font-family="sans-serif" text-anchor="start">a</text><rect x="376.9143574453194" y="215.15450855643044" width="21.224316220472435" height="21.224316220472435" fill="#00BA38" fill-opacity="1.0" stroke="none"/><text x="402.75022222222225" y="229.5213333333333" fill="#333333" font-size="11.733333333333334" font-family="sans-serif" text-anchor="start">b</text><rect x="376.9143574453194" y="238.26858855643042" width="21.224316220472435" height="21.224316220472435" fill="#619CFF" fill-opacity="1.0" stroke="none"/><text x="402.75022222222225" y="252.63541333333333" fill="#333333" font-size="11.733333333333334" font-family="sans-serif" text-anchor="start">c</text><rect x="0.0" y="0.0" width="0.0" height="0.0" fill="#ffffff" fill-opacity="1.0" stroke="none"/><line x1="520.6856655555556" y1="64.53333333333333" x2="520.6856655555556" y2="387.0" stroke="#dddddd" stroke-width="1.3333333333333333"/><line x1="622.5469600000001" y1="64.53333333333333" x2="622.5469600000001" y2="387.0" stroke="#dddddd" stroke-width="1.3333333333333333"/><line x1="724.4082544444445" y1="64.53333333333333" x2="724.4082544444445" y2="387.0" stroke="#dddddd" stroke-width="1.3333333333333333"/><line x1="459.568888888889" y1="347.9131313131313" x2="785.5250311111113" y2="347.9131313131313" stroke="#dddddd" stroke-width="0.6666666666666666"/><line x1="459.568888888889" y1="299.05454545454546" x2="785.5250311111113" y2="299.05454545454546" stroke="#dddddd" stroke-width="0.6666666666666666"/><line x1="459.568888888889" y1="250.1959595959596" x2="785.5250311111113" y2="250.1959595959596" stroke="#dddddd" stroke-width="0.6666666666666666"/><line x1="459.568888888889" y1="201.33737373737375" x2="785.5250311111113" y2="201.33737373737375" stroke="#dddddd" stroke-width="0.6666666666666666"/><line x1="459.568888888889" y1="152.4787878787879" x2="785.5250311111113" y2="152.4787878787879" stroke="#dddddd" stroke-width="0.6666666666666666"/><line x1="459.568888888889" y1="103.62020202020206" x2="785.5250311111113" y2="103.62020202020206" stroke="#dddddd" stroke-width="0.6666666666666666"/><line x1="459.568888888889" y1="372.3424242424242" x2="785.5250311111113" y2="372.3424242424242" stroke="#dddddd" stroke-width="1.3333333333333333"/><line x1="459.568888888889" y1="323.48383838383836" x2="785.5250311111113" y2="323.48383838383836" stroke="#dddddd" stroke-width="1.3333333333333333"/><line x1="459.568888888889" y1="274.62525252525256" x2="785.5250311111113" y2="274.62525252525256" stroke="#dddddd" stroke-width="1.3333333333333333"/><line x1="459.568888888889" y1="225.76666666666668" x2="785.5250311111113" y2="225.76666666666668" stroke="#dddddd" stroke-width="1.3333333333333333"/><line x1="459.568888888889" y1="176.90808080808085" x2="785.5250311111113" y2="176.90808080808085" stroke="#dddddd" stroke-width="1.3333333333333333"/><line x1="459.568888888889" y1="128.04949494949497" x2="785.5250311111113" y2="128.04949494949497" stroke="#dddddd" stroke-width="1.3333333333333333"/><line x1="459.568888888889" y1="79.1909090909091" x2="785.5250311111113" y2="79.1909090909091" stroke="#dddddd" stroke-width="1.3333333333333333"/><rect x="459.568888888889" y="64.53333333333333" width="325.9561422222223" height="322.46666666666664" fill="#ffffff" fill-opacity="0.0" stroke="#444444" stroke-width="1.3333333333333333"/><line x1="520.6856655555556" y1="387.0" x2="520.6856655555556" y2="390.66666666666663" stroke="#444444" stroke-width="1.3333333333333333"/><text x="520.6856655555556" y="402.9866666666667" fill="#333333" font-size="11.733333333333334" font-family="sans-serif" text-anchor="middle">a</text><line x1="622.5469600000001" y1="387.0" x2="622.5469600000001" y2="390.66666666666663" stroke="#444444" stroke-width="1.3333333333333333"/><text x="622.5469600000001" y="402.9866666666667" fill="#333333" font-size="11.733333333333334" font-family="sans-serif" text-anchor="middle">b</text><line x1="724.4082544444445" y1="387.0" x2="724.4082544444445" y2="390.66666666666663" stroke="#444444" stroke-width="1.3333333333333333"/><text x="724.4082544444445" y="402.9866666666667" fill="#333333" font-size="11.733333333333334" font-family="sans-serif" text-anchor="middle">c</text><line x1="459.568888888889" y1="372.3424242424242" x2="455.9022222222223" y2="372.3424242424242" stroke="#444444" stroke-width="1.3333333333333333"/><text x="452.96888888888896" y="376.44909090909084" fill="#333333" font-size="11.733333333333334" font-family="sans-serif" text-anchor="end">4</text><line x1="459.568888888889" y1="323.48383838383836" x2="455.9022222222223" y2="323.48383838383836" stroke="#444444" stroke-width="1.3333333333333333"/><text x="452.96888888888896" y="327.59050505050504" fill="#333333" font-size="11.733333333333334" font-family="sans-serif" text-anchor="end">5</text><line x1="459.568888888889" y1="274.62525252525256" x2="455.9022222222223" y2="274.62525252525256" stroke="#444444" stroke-width="1.3333333333333333"/><text x="452.96888888888896" y="278.73191919191925" fill="#333333" font-size="11.733333333333334" font-family="sans-serif" text-anchor="end">6</text><line x1="459.568888888889" y1="225.76666666666668" x2="455.9022222222223" y2="225.76666666666668" stroke="#444444" stroke-width="1.3333333333333333"/><text x="452.96888888888896" y="229.87333333333336" fill="#333333" font-size="11.733333333333334" font-family="sans-serif" text-anchor="end">7</text><line x1="459.568888888889" y1="176.90808080808085" x2="455.9022222222223" y2="176.90808080808085" stroke="#444444" stroke-width="1.3333333333333333"/><text x="452.96888888888896" y="181.01474747474754" fill="#333333" font-size="11.733333333333334" font-family="sans-serif" text-anchor="end">8</text><line x1="459.568888888889" y1="128.04949494949497" x2="455.9022222222223" y2="128.04949494949497" stroke="#444444" stroke-width="1.3333333333333333"/><text x="452.96888888888896" y="132.15616161616163" fill="#333333" font-size="11.733333333333334" font-family="sans-serif" text-anchor="end">9</text><line x1="459.568888888889" y1="79.1909090909091" x2="455.9022222222223" y2="79.1909090909091" stroke="#444444" stroke-width="1.3333333333333333"/><text x="452.96888888888896" y="83.29757575757577" fill="#333333" font-size="11.733333333333334" font-family="sans-serif" text-anchor="end">10</text><text x="459.568888888889" y="53.68000000000001" fill="#333333" font-size="17.599999999999998" font-family="sans-serif" text-anchor="start">strip</text><circle cx="496.23895488888894" cy="372.3424242424242" r="2.362204724409449" fill="#F8766D" fill-opacity="0.7" stroke="none"/><circle cx="521.0457290043654" cy="323.48383838383836" r="2.362204724409449" fill="#F8766D" fill-opacity="0.7" stroke="none"/><circle cx="533.8621156078275" cy="274.62525252525256" r="2.362204724409449" fill="#F8766D" fill-opacity="0.7" stroke="none"/><circle cx="535.2215137593053" cy="323.48383838383836" r="2.362204724409449" fill="#F8766D" fill-opacity="0.7" stroke="none"/><circle cx="513.8073462641923" cy="225.76666666666668" r="2.362204724409449" fill="#F8766D" fill-opacity="0.7" stroke="none"/><circle cx="637.9171208786831" cy="176.90808080808085" r="2.362204724409449" fill="#00BA38" fill-opacity="0.7" stroke="none"/><circle cx="623.6319034058831" cy="128.04949494949497" r="2.362204724409449" fill="#00BA38" fill-opacity="0.7" stroke="none"/><circle cx="611.8509560441042" cy="225.76666666666668" r="2.362204724409449" fill="#00BA38" fill-opacity="0.7" stroke="none"/><circle cx="620.2853373395615" cy="79.1909090909091" r="2.362204724409449" fill="#00BA38" fill-opacity="0.7" stroke="none"/><circle cx="629.15889993263" cy="128.04949494949497" r="2.362204724409449" fill="#00BA38" fill-opacity="0.7" stroke="none"/><circle cx="729.3583353304141" cy="323.48383838383836" r="2.362204724409449" fill="#619CFF" fill-opacity="0.7" stroke="none"/><circle cx="742.6087408989816" cy="274.62525252525256" r="2.362204724409449" fill="#619CFF" fill-opacity="0.7" stroke="none"/><circle cx="722.5982008082267" cy="225.76666666666668" r="2.362204724409449" fill="#619CFF" fill-opacity="0.7" stroke="none"/><circle cx="742.3663317658439" cy="274.62525252525256" r="2.362204724409449" fill="#619CFF" fill-opacity="0.7" stroke="none"/><circle cx="716.3888566094807" cy="176.90808080808085" r="2.362204724409449" fill="#619CFF" fill-opacity="0.7" stroke="none"/><rect x="800.1916977777779" y="191.09554666666668" width="23.114079999999994" height="69.34223999999998" fill="#ffffff" fill-opacity="1.0" stroke="none"/><rect x="801.1365796675416" y="192.04042855643047" width="21.224316220472435" height="21.224316220472435" fill="#F8766D" fill-opacity="1.0" stroke="none"/><text x="826.9724444444446" y="206.40725333333333" fill="#333333" font-size="11.733333333333334" font-family="sans-serif" text-anchor="start">a</text><rect x="801.1365796675416" y="215.15450855643044" width="21.224316220472435" height="21.224316220472435" fill="#00BA38" fill-opacity="1.0" stroke="none"/><text x="826.9724444444446" y="229.5213333333333" fill="#333333" font-size="11.733333333333334" font-family="sans-serif" text-anchor="start">b</text><rect x="801.1365796675416" y="238.26858855643042" width="21.224316220472435" height="21.224316220472435" fill="#619CFF" fill-opacity="1.0" stroke="none"/><text x="826.9724444444446" y="252.63541333333333" fill="#333333" font-size="11.733333333333334" font-family="sans-serif" text-anchor="start">c</text><rect x="0.0" y="0.0" width="0.0" height="0.0" fill="#ffffff" fill-opacity="1.0" stroke="none"/><line x1="944.907887777778" y1="64.53333333333333" x2="944.907887777778" y2="387.0" stroke="#dddddd" stroke-width="1.3333333333333333"/><line x1="1046.7691822222223" y1="64.53333333333333" x2="1046.7691822222223" y2="387.0" stroke="#dddddd" stroke-width="1.3333333333333333"/><line x1="1148.6304766666667" y1="64.53333333333333" x2="1148.6304766666667" y2="387.0" stroke="#dddddd" stroke-width="1.3333333333333333"/><line x1="883.7911111111113" y1="347.9131313131313" x2="1209.7472533333334" y2="347.9131313131313" stroke="#dddddd" stroke-width="0.6666666666666666"/><line x1="883.7911111111113" y1="299.05454545454546" x2="1209.7472533333334" y2="299.05454545454546" stroke="#dddddd" stroke-width="0.6666666666666666"/><line x1="883.7911111111113" y1="250.1959595959596" x2="1209.7472533333334" y2="250.1959595959596" stroke="#dddddd" stroke-width="0.6666666666666666"/><line x1="883.7911111111113" y1="201.33737373737375" x2="1209.7472533333334" y2="201.33737373737375" stroke="#dddddd" stroke-width="0.6666666666666666"/><line x1="883.7911111111113" y1="152.4787878787879" x2="1209.7472533333334" y2="152.4787878787879" stroke="#dddddd" stroke-width="0.6666666666666666"/><line x1="883.7911111111113" y1="103.62020202020206" x2="1209.7472533333334" y2="103.62020202020206" stroke="#dddddd" stroke-width="0.6666666666666666"/><line x1="883.7911111111113" y1="372.3424242424242" x2="1209.7472533333334" y2="372.3424242424242" stroke="#dddddd" stroke-width="1.3333333333333333"/><line x1="883.7911111111113" y1="323.48383838383836" x2="1209.7472533333334" y2="323.48383838383836" stroke="#dddddd" stroke-width="1.3333333333333333"/><line x1="883.7911111111113" y1="274.62525252525256" x2="1209.7472533333334" y2="274.62525252525256" stroke="#dddddd" stroke-width="1.3333333333333333"/><line x1="883.7911111111113" y1="225.76666666666668" x2="1209.7472533333334" y2="225.76666666666668" stroke="#dddddd" stroke-width="1.3333333333333333"/><line x1="883.7911111111113" y1="176.90808080808085" x2="1209.7472533333334" y2="176.90808080808085" stroke="#dddddd" stroke-width="1.3333333333333333"/><line x1="883.7911111111113" y1="128.04949494949497" x2="1209.7472533333334" y2="128.04949494949497" stroke="#dddddd" stroke-width="1.3333333333333333"/><line x1="883.7911111111113" y1="79.1909090909091" x2="1209.7472533333334" y2="79.1909090909091" stroke="#dddddd" stroke-width="1.3333333333333333"/><rect x="883.7911111111113" y="64.53333333333333" width="325.9561422222223" height="322.46666666666664" fill="#ffffff" fill-opacity="0.0" stroke="#444444" stroke-width="1.3333333333333333"/><line x1="944.907887777778" y1="387.0" x2="944.907887777778" y2="390.66666666666663" stroke="#444444" stroke-width="1.3333333333333333"/><text x="944.907887777778" y="402.9866666666667" fill="#333333" font-size="11.733333333333334" font-family="sans-serif" text-anchor="middle">a</text><line x1="1046.7691822222223" y1="387.0" x2="1046.7691822222223" y2="390.66666666666663" stroke="#444444" stroke-width="1.3333333333333333"/><text x="1046.7691822222223" y="402.9866666666667" fill="#333333" font-size="11.733333333333334" font-family="sans-serif" text-anchor="middle">b</text><line x1="1148.6304766666667" y1="387.0" x2="1148.6304766666667" y2="390.66666666666663" stroke="#444444" stroke-width="1.3333333333333333"/><text x="1148.6304766666667" y="402.9866666666667" fill="#333333" font-size="11.733333333333334" font-family="sans-serif" text-anchor="middle">c</text><line x1="883.7911111111113" y1="372.3424242424242" x2="880.1244444444446" y2="372.3424242424242" stroke="#444444" stroke-width="1.3333333333333333"/><text x="877.1911111111112" y="376.44909090909084" fill="#333333" font-size="11.733333333333334" font-family="sans-serif" text-anchor="end">4</text><line x1="883.7911111111113" y1="323.48383838383836" x2="880.1244444444446" y2="323.48383838383836" stroke="#444444" stroke-width="1.3333333333333333"/><text x="877.1911111111112" y="327.59050505050504" fill="#333333" font-size="11.733333333333334" font-family="sans-serif" text-anchor="end">5</text><line x1="883.7911111111113" y1="274.62525252525256" x2="880.1244444444446" y2="274.62525252525256" stroke="#444444" stroke-width="1.3333333333333333"/><text x="877.1911111111112" y="278.73191919191925" fill="#333333" font-size="11.733333333333334" font-family="sans-serif" text-anchor="end">6</text><line x1="883.7911111111113" y1="225.76666666666668" x2="880.1244444444446" y2="225.76666666666668" stroke="#444444" stroke-width="1.3333333333333333"/><text x="877.1911111111112" y="229.87333333333336" fill="#333333" font-size="11.733333333333334" font-family="sans-serif" text-anchor="end">7</text><line x1="883.7911111111113" y1="176.90808080808085" x2="880.1244444444446" y2="176.90808080808085" stroke="#444444" stroke-width="1.3333333333333333"/><text x="877.1911111111112" y="181.01474747474754" fill="#333333" font-size="11.733333333333334" font-family="sans-serif" text-anchor="end">8</text><line x1="883.7911111111113" y1="128.04949494949497" x2="880.1244444444446" y2="128.04949494949497" stroke="#444444" stroke-width="1.3333333333333333"/><text x="877.1911111111112" y="132.15616161616163" fill="#333333" font-size="11.733333333333334" font-family="sans-serif" text-anchor="end">9</text><line x1="883.7911111111113" y1="79.1909090909091" x2="880.1244444444446" y2="79.1909090909091" stroke="#444444" stroke-width="1.3333333333333333"/><text x="877.1911111111112" y="83.29757575757577" fill="#333333" font-size="11.733333333333334" font-family="sans-serif" text-anchor="end">10</text><text x="883.7911111111113" y="53.68000000000001" fill="#333333" font-size="17.599999999999998" font-family="sans-serif" text-anchor="start">swarm</text><circle cx="944.907887777778" cy="372.3424242424242" r="2.362204724409449" fill="#F8766D" fill-opacity="0.85" stroke="none"/><circle cx="944.907887777778" cy="323.48383838383836" r="2.362204724409449" fill="#F8766D" fill-opacity="0.85" stroke="none"/><circle cx="940.1834783289592" cy="323.48383838383836" r="2.362204724409449" fill="#F8766D" fill-opacity="0.85" stroke="none"/><circle cx="944.907887777778" cy="274.62525252525256" r="2.362204724409449" fill="#F8766D" fill-opacity="0.85" stroke="none"/><circle cx="944.907887777778" cy="225.76666666666668" r="2.362204724409449" fill="#F8766D" fill-opacity="0.85" stroke="none"/><circle cx="1046.7691822222223" cy="225.76666666666668" r="2.362204724409449" fill="#00BA38" fill-opacity="0.85" stroke="none"/><circle cx="1046.7691822222223" cy="176.90808080808085" r="2.362204724409449" fill="#00BA38" fill-opacity="0.85" stroke="none"/><circle cx="1046.7691822222223" cy="128.04949494949497" r="2.362204724409449" fill="#00BA38" fill-opacity="0.85" stroke="none"/><circle cx="1042.0447727734036" cy="128.04949494949497" r="2.362204724409449" fill="#00BA38" fill-opacity="0.85" stroke="none"/><circle cx="1046.7691822222223" cy="79.1909090909091" r="2.362204724409449" fill="#00BA38" fill-opacity="0.85" stroke="none"/><circle cx="1148.6304766666667" cy="323.48383838383836" r="2.362204724409449" fill="#619CFF" fill-opacity="0.85" stroke="none"/><circle cx="1148.6304766666667" cy="274.62525252525256" r="2.362204724409449" fill="#619CFF" fill-opacity="0.85" stroke="none"/><circle cx="1143.906067217848" cy="274.62525252525256" r="2.362204724409449" fill="#619CFF" fill-opacity="0.85" stroke="none"/><circle cx="1148.6304766666667" cy="225.76666666666668" r="2.362204724409449" fill="#619CFF" fill-opacity="0.85" stroke="none"/><circle cx="1148.6304766666667" cy="176.90808080808085" r="2.362204724409449" fill="#619CFF" fill-opacity="0.85" stroke="none"/><rect x="1224.4139200000002" y="191.09554666666668" width="23.114079999999994" height="69.34223999999998" fill="#ffffff" fill-opacity="1.0" stroke="none"/><rect x="1225.358801889764" y="192.04042855643047" width="21.224316220472435" height="21.224316220472435" fill="#F8766D" fill-opacity="1.0" stroke="none"/><text x="1251.1946666666668" y="206.40725333333333" fill="#333333" font-size="11.733333333333334" font-family="sans-serif" text-anchor="start">a</text><rect x="1225.358801889764" y="215.15450855643044" width="21.224316220472435" height="21.224316220472435" fill="#00BA38" fill-opacity="1.0" stroke="none"/><text x="1251.1946666666668" y="229.5213333333333" fill="#333333" font-size="11.733333333333334" font-family="sans-serif" text-anchor="start">b</text><rect x="1225.358801889764" y="238.26858855643042" width="21.224316220472435" height="21.224316220472435" fill="#619CFF" fill-opacity="1.0" stroke="none"/><text x="1251.1946666666668" y="252.63541333333333" fill="#333333" font-size="11.733333333333334" font-family="sans-serif" text-anchor="start">c</text></svg>