<svg xmlns="http://www.w3.org/2000/svg" width="624" height="384" viewBox="0 0 624 384"><rect x="0.0" y="0.0" width="624.0" height="384.0" fill="#ffffff" fill-opacity="1.0" stroke="none"/><rect x="60.42666666666666" y="32.266666666666666" width="556.24" height="307.73333333333335" fill="#ebebeb" fill-opacity="1.0" stroke="none"/><line x1="140.67472990777338" y1="32.266666666666666" x2="140.67472990777338" y2="340.0" stroke="#ffffff" stroke-width="0.6666666666666666"/><line x1="250.60358366271413" y1="32.266666666666666" x2="250.60358366271413" y2="340.0" stroke="#ffffff" stroke-width="0.6666666666666666"/><line x1="360.5324374176549" y1="32.266666666666666" x2="360.5324374176549" y2="340.0" stroke="#ffffff" stroke-width="0.6666666666666666"/><line x1="470.46129117259557" y1="32.266666666666666" x2="470.46129117259557" y2="340.0" stroke="#ffffff" stroke-width="0.6666666666666666"/><line x1="580.3901449275362" y1="32.266666666666666" x2="580.3901449275362" y2="340.0" stroke="#ffffff" stroke-width="0.6666666666666666"/><line x1="85.71030303030302" y1="32.266666666666666" x2="85.71030303030302" y2="340.0" stroke="#ffffff" stroke-width="1.3333333333333333"/><line x1="195.63915678524376" y1="32.266666666666666" x2="195.63915678524376" y2="340.0" stroke="#ffffff" stroke-width="1.3333333333333333"/><line x1="305.56801054018445" y1="32.266666666666666" x2="305.56801054018445" y2="340.0" stroke="#ffffff" stroke-width="1.3333333333333333"/><line x1="415.49686429512514" y1="32.266666666666666" x2="415.49686429512514" y2="340.0" stroke="#ffffff" stroke-width="1.3333333333333333"/><line x1="525.4257180500658" y1="32.266666666666666" x2="525.4257180500658" y2="340.0" stroke="#ffffff" stroke-width="1.3333333333333333"/><line x1="60.42666666666666" y1="300.11650342575984" x2="616.6666666666666" y2="300.11650342575984" stroke="#ffffff" stroke-width="0.6666666666666666"/><line x1="60.42666666666666" y1="247.05171287993747" x2="616.6666666666666" y2="247.05171287993747" stroke="#ffffff" stroke-width="0.6666666666666666"/><line x1="60.42666666666666" y1="193.98692233411504" x2="616.6666666666666" y2="193.98692233411504" stroke="#ffffff" stroke-width="0.6666666666666666"/><line x1="60.42666666666666" y1="140.92213178829266" x2="616.6666666666666" y2="140.92213178829266" stroke="#ffffff" stroke-width="0.6666666666666666"/><line x1="60.42666666666666" y1="87.8573412424702" x2="616.6666666666666" y2="87.8573412424702" stroke="#ffffff" stroke-width="0.6666666666666666"/><line x1="60.42666666666666" y1="34.79255069664778" x2="616.6666666666666" y2="34.79255069664778" stroke="#ffffff" stroke-width="0.6666666666666666"/><line x1="60.42666666666666" y1="326.6488986986711" x2="616.6666666666666" y2="326.6488986986711" stroke="#ffffff" stroke-width="1.3333333333333333"/><line x1="60.42666666666666" y1="273.58410815284867" x2="616.6666666666666" y2="273.58410815284867" stroke="#ffffff" stroke-width="1.3333333333333333"/><line x1="60.42666666666666" y1="220.51931760702624" x2="616.6666666666666" y2="220.51931760702624" stroke="#ffffff" stroke-width="1.3333333333333333"/><line x1="60.42666666666666" y1="167.45452706120386" x2="616.6666666666666" y2="167.45452706120386" stroke="#ffffff" stroke-width="1.3333333333333333"/><line x1="60.42666666666666" y1="114.38973651538143" x2="616.6666666666666" y2="114.38973651538143" stroke="#ffffff" stroke-width="1.3333333333333333"/><line x1="60.42666666666666" y1="61.32494596955901" x2="616.6666666666666" y2="61.32494596955901" stroke="#ffffff" stroke-width="1.3333333333333333"/><line x1="85.71030303030302" y1="340.0" x2="85.71030303030302" y2="343.66666666666663" stroke="#333333" stroke-width="1.3333333333333333"/><text x="85.71030303030302" y="355.9866666666667" fill="#4d4d4d" font-size="11.733333333333334" font-family="sans-serif" text-anchor="middle">0</text><line x1="195.63915678524376" y1="340.0" x2="195.63915678524376" y2="343.66666666666663" stroke="#333333" stroke-width="1.3333333333333333"/><text x="195.63915678524376" y="355.9866666666667" fill="#4d4d4d" font-size="11.733333333333334" font-family="sans-serif" text-anchor="middle">5</text><line x1="305.56801054018445" y1="340.0" x2="305.56801054018445" y2="343.66666666666663" stroke="#333333" stroke-width="1.3333333333333333"/><text x="305.56801054018445" y="355.9866666666667" fill="#4d4d4d" font-size="11.733333333333334" font-family="sans-serif" text-anchor="middle">10</text><line x1="415.49686429512514" y1="340.0" x2="415.49686429512514" y2="343.66666666666663" stroke="#333333" stroke-width="1.3333333333333333"/><text x="415.49686429512514" y="355.9866666666667" fill="#4d4d4d" font-size="11.733333333333334" font-family="sans-serif" text-anchor="middle">15</text><line x1="525.4257180500658" y1="340.0" x2="525.4257180500658" y2="343.66666666666663" stroke="#333333" stroke-width="1.3333333333333333"/><text x="525.4257180500658" y="355.9866666666667" fill="#4d4d4d" font-size="11.733333333333334" font-family="sans-serif" text-anchor="middle">20</text><line x1="60.42666666666666" y1="326.6488986986711" x2="56.76" y2="326.6488986986711" stroke="#333333" stroke-width="1.3333333333333333"/><text x="53.82666666666666" y="330.75556536533776" fill="#4d4d4d" font-size="11.733333333333334" font-family="sans-serif" text-anchor="end">0</text><line x1="60.42666666666666" y1="273.58410815284867" x2="56.76" y2="273.58410815284867" stroke="#333333" stroke-width="1.3333333333333333"/><text x="53.82666666666666" y="277.69077481951535" fill="#4d4d4d" font-size="11.733333333333334" font-family="sans-serif" text-anchor="end">250</text><line x1="60.42666666666666" y1="220.51931760702624" x2="56.76" y2="220.51931760702624" stroke="#333333" stroke-width="1.3333333333333333"/><text x="53.82666666666666" y="224.62598427369292" fill="#4d4d4d" font-size="11.733333333333334" font-family="sans-serif" text-anchor="end">500</text><line x1="60.42666666666666" y1="167.45452706120386" x2="56.76" y2="167.45452706120386" stroke="#333333" stroke-width="1.3333333333333333"/><text x="53.82666666666666" y="171.56119372787055" fill="#4d4d4d" font-size="11.733333333333334" font-family="sans-serif" text-anchor="end">750</text><line x1="60.42666666666666" y1="114.38973651538143" x2="56.76" y2="114.38973651538143" stroke="#333333" stroke-width="1.3333333333333333"/><text x="53.82666666666666" y="118.4964031820481" fill="#4d4d4d" font-size="11.733333333333334" font-family="sans-serif" text-anchor="end">1000</text><line x1="60.42666666666666" y1="61.32494596955901" x2="56.76" y2="61.32494596955901" stroke="#333333" stroke-width="1.3333333333333333"/><text x="53.82666666666666" y="65.43161263622568" fill="#4d4d4d" font-size="11.733333333333334" font-family="sans-serif" text-anchor="end">1250</text><text x="60.42666666666666" y="21.413333333333334" fill="#000000" font-size="17.599999999999998" font-family="sans-serif" text-anchor="start">出発時刻の時間帯分布</text><text x="338.5466666666666" y="373.73333333333335" fill="#000000" font-size="14.666666666666666" font-family="sans-serif" text-anchor="middle">hour of day</text><text x="17.599999999999998" y="186.13333333333333" fill="#000000" font-size="14.666666666666666" font-family="sans-serif" text-anchor="middle" transform="rotate(-90.0 17.599999999999998 186.13333333333333)">便数</text><line x1="85.71030303030302" y1="315.1869039407734" x2="107.69607378129118" y2="323.8895295902883" stroke="#000000" stroke-width="1.4211023622047245"/><line x1="107.69607378129118" y1="323.8895295902883" x2="129.68184453227934" y2="326.0121212121212" stroke="#000000" stroke-width="1.4211023622047245"/><line x1="129.68184453227934" y1="326.0121212121212" x2="173.65338603425562" y2="323.8895295902883" stroke="#000000" stroke-width="1.4211023622047245"/><line x1="173.65338603425562" y1="323.8895295902883" x2="195.63915678524376" y2="249.59882282613694" stroke="#000000" stroke-width="1.4211023622047245"/><line x1="195.63915678524376" y1="249.59882282613694" x2="217.6249275362319" y2="86.79604543155381" stroke="#000000" stroke-width="1.4211023622047245"/><line x1="217.6249275362319" y1="86.79604543155381" x2="239.61069828722003" y2="98.68255851381798" stroke="#000000" stroke-width="1.4211023622047245"/><line x1="239.61069828722003" y1="98.68255851381798" x2="261.59646903820817" y2="46.25454545454545" stroke="#000000" stroke-width="1.4211023622047245"/><line x1="261.59646903820817" y1="46.25454545454545" x2="283.5822397891963" y2="125.21495378672921" stroke="#000000" stroke-width="1.4211023622047245"/><line x1="283.5822397891963" y1="125.21495378672921" x2="305.56801054018445" y2="156.84156895203935" stroke="#000000" stroke-width="1.4211023622047245"/><line x1="305.56801054018445" y1="156.84156895203935" x2="327.55378129117264" y2="148.1389433025245" stroke="#000000" stroke-width="1.4211023622047245"/><line x1="327.55378129117264" y1="148.1389433025245" x2="349.5395520421608" y2="155.99253230330623" stroke="#000000" stroke-width="1.4211023622047245"/><line x1="349.5395520421608" y1="155.99253230330623" x2="371.5253227931489" y2="146.4408700050582" stroke="#000000" stroke-width="1.4211023622047245"/><line x1="371.5253227931489" y1="146.4408700050582" x2="393.5110935441371" y2="110.35681243389891" stroke="#000000" stroke-width="1.4211023622047245"/><line x1="393.5110935441371" y1="110.35681243389891" x2="415.49686429512514" y2="84.03667632317104" stroke="#000000" stroke-width="1.4211023622047245"/><line x1="415.49686429512514" y1="84.03667632317104" x2="437.4826350461133" y2="91.25348783740287" stroke="#000000" stroke-width="1.4211023622047245"/><line x1="437.4826350461133" y1="91.25348783740287" x2="459.46840579710147" y2="92.10252448613603" stroke="#000000" stroke-width="1.4211023622047245"/><line x1="459.46840579710147" y1="92.10252448613603" x2="481.45417654808966" y2="93.58833862141906" stroke="#000000" stroke-width="1.4211023622047245"/><line x1="481.45417654808966" y1="93.58833862141906" x2="503.43994729907774" y2="118.21040143468065" stroke="#000000" stroke-width="1.4211023622047245"/><line x1="503.43994729907774" y1="118.21040143468065" x2="525.4257180500658" y2="154.50671816802316" stroke="#000000" stroke-width="1.4211023622047245"/><line x1="525.4257180500658" y1="154.50671816802316" x2="547.411488801054" y2="212.24121028187795" stroke="#000000" stroke-width="1.4211023622047245"/><line x1="547.411488801054" y1="212.24121028187795" x2="569.3972595520422" y2="267.6408516117166" stroke="#000000" stroke-width="1.4211023622047245"/><line x1="569.3972595520422" y1="267.6408516117166" x2="591.3830303030303" y2="299.0552076148434" stroke="#000000" stroke-width="1.4211023622047245"/></svg>