<svg xmlns="http://www.w3.org/2000/svg" width="624" height="384" viewBox="0 0 624 384"><rect x="0.0" y="0.0" width="624.0" height="384.0" fill="#ffffff" fill-opacity="1.0" stroke="none"/><rect x="46.346666666666664" y="32.266666666666666" width="570.3199999999999" height="307.73333333333335" fill="#ebebeb" fill-opacity="1.0" stroke="none"/><line x1="116.20866974833075" y1="32.266666666666666" x2="116.20866974833075" y2="340.0" stroke="#ffffff" stroke-width="0.6666666666666666"/><line x1="204.08540318438622" y1="32.266666666666666" x2="204.08540318438622" y2="340.0" stroke="#ffffff" stroke-width="0.6666666666666666"/><line x1="291.9621366204417" y1="32.266666666666666" x2="291.9621366204417" y2="340.0" stroke="#ffffff" stroke-width="0.6666666666666666"/><line x1="379.83887005649717" y1="32.266666666666666" x2="379.83887005649717" y2="340.0" stroke="#ffffff" stroke-width="0.6666666666666666"/><line x1="467.71560349255265" y1="32.266666666666666" x2="467.71560349255265" y2="340.0" stroke="#ffffff" stroke-width="0.6666666666666666"/><line x1="555.592336928608" y1="32.266666666666666" x2="555.592336928608" y2="340.0" stroke="#ffffff" stroke-width="0.6666666666666666"/><line x1="72.27030303030303" y1="32.266666666666666" x2="72.27030303030303" y2="340.0" stroke="#ffffff" stroke-width="1.3333333333333333"/><line x1="160.1470364663585" y1="32.266666666666666" x2="160.1470364663585" y2="340.0" stroke="#ffffff" stroke-width="1.3333333333333333"/><line x1="248.0237699024139" y1="32.266666666666666" x2="248.0237699024139" y2="340.0" stroke="#ffffff" stroke-width="1.3333333333333333"/><line x1="335.9005033384694" y1="32.266666666666666" x2="335.9005033384694" y2="340.0" stroke="#ffffff" stroke-width="1.3333333333333333"/><line x1="423.7772367745249" y1="32.266666666666666" x2="423.7772367745249" y2="340.0" stroke="#ffffff" stroke-width="1.3333333333333333"/><line x1="511.6539702105804" y1="32.266666666666666" x2="511.6539702105804" y2="340.0" stroke="#ffffff" stroke-width="1.3333333333333333"/><line x1="599.5307036466359" y1="32.266666666666666" x2="599.5307036466359" y2="340.0" stroke="#ffffff" stroke-width="1.3333333333333333"/><line x1="46.346666666666664" y1="320.59549313868126" x2="616.6666666666666" y2="320.59549313868126" stroke="#ffffff" stroke-width="0.6666666666666666"/><line x1="46.346666666666664" y1="251.72693620494525" x2="616.6666666666666" y2="251.72693620494525" stroke="#ffffff" stroke-width="0.6666666666666666"/><line x1="46.346666666666664" y1="182.8583792712092" x2="616.6666666666666" y2="182.8583792712092" stroke="#ffffff" stroke-width="0.6666666666666666"/><line x1="46.346666666666664" y1="113.98982233747316" x2="616.6666666666666" y2="113.98982233747316" stroke="#ffffff" stroke-width="0.6666666666666666"/><line x1="46.346666666666664" y1="45.12126540373712" x2="616.6666666666666" y2="45.12126540373712" stroke="#ffffff" stroke-width="0.6666666666666666"/><line x1="46.346666666666664" y1="286.16121467181324" x2="616.6666666666666" y2="286.16121467181324" stroke="#ffffff" stroke-width="1.3333333333333333"/><line x1="46.346666666666664" y1="217.29265773807722" x2="616.6666666666666" y2="217.29265773807722" stroke="#ffffff" stroke-width="1.3333333333333333"/><line x1="46.346666666666664" y1="148.42410080434118" x2="616.6666666666666" y2="148.42410080434118" stroke="#ffffff" stroke-width="1.3333333333333333"/><line x1="46.346666666666664" y1="79.55554387060518" x2="616.6666666666666" y2="79.55554387060518" stroke="#ffffff" stroke-width="1.3333333333333333"/><line x1="72.27030303030303" y1="340.0" x2="72.27030303030303" y2="343.66666666666663" stroke="#333333" stroke-width="1.3333333333333333"/><text x="72.27030303030303" y="355.9866666666667" fill="#4d4d4d" font-size="11.733333333333334" font-family="sans-serif" text-anchor="middle">0</text><line x1="160.1470364663585" y1="340.0" x2="160.1470364663585" y2="343.66666666666663" stroke="#333333" stroke-width="1.3333333333333333"/><text x="160.1470364663585" y="355.9866666666667" fill="#4d4d4d" font-size="11.733333333333334" font-family="sans-serif" text-anchor="middle">10</text><line x1="248.0237699024139" y1="340.0" x2="248.0237699024139" y2="343.66666666666663" stroke="#333333" stroke-width="1.3333333333333333"/><text x="248.0237699024139" y="355.9866666666667" fill="#4d4d4d" font-size="11.733333333333334" font-family="sans-serif" text-anchor="middle">20</text><line x1="335.9005033384694" y1="340.0" x2="335.9005033384694" y2="343.66666666666663" stroke="#333333" stroke-width="1.3333333333333333"/><text x="335.9005033384694" y="355.9866666666667" fill="#4d4d4d" font-size="11.733333333333334" font-family="sans-serif" text-anchor="middle">30</text><line x1="423.7772367745249" y1="340.0" x2="423.7772367745249" y2="343.66666666666663" stroke="#333333" stroke-width="1.3333333333333333"/><text x="423.7772367745249" y="355.9866666666667" fill="#4d4d4d" font-size="11.733333333333334" font-family="sans-serif" text-anchor="middle">40</text><line x1="511.6539702105804" y1="340.0" x2="511.6539702105804" y2="343.66666666666663" stroke="#333333" stroke-width="1.3333333333333333"/><text x="511.6539702105804" y="355.9866666666667" fill="#4d4d4d" font-size="11.733333333333334" font-family="sans-serif" text-anchor="middle">50</text><line x1="599.5307036466359" y1="340.0" x2="599.5307036466359" y2="343.66666666666663" stroke="#333333" stroke-width="1.3333333333333333"/><text x="599.5307036466359" y="355.9866666666667" fill="#4d4d4d" font-size="11.733333333333334" font-family="sans-serif" text-anchor="middle">60</text><line x1="46.346666666666664" y1="286.16121467181324" x2="42.67999999999999" y2="286.16121467181324" stroke="#333333" stroke-width="1.3333333333333333"/><text x="39.74666666666666" y="290.2678813384799" fill="#4d4d4d" font-size="11.733333333333334" font-family="sans-serif" text-anchor="end">5</text><line x1="46.346666666666664" y1="217.29265773807722" x2="42.67999999999999" y2="217.29265773807722" stroke="#333333" stroke-width="1.3333333333333333"/><text x="39.74666666666666" y="221.3993244047439" fill="#4d4d4d" font-size="11.733333333333334" font-family="sans-serif" text-anchor="end">10</text><line x1="46.346666666666664" y1="148.42410080434118" x2="42.67999999999999" y2="148.42410080434118" stroke="#333333" stroke-width="1.3333333333333333"/><text x="39.74666666666666" y="152.53076747100783" fill="#4d4d4d" font-size="11.733333333333334" font-family="sans-serif" text-anchor="end">15</text><line x1="46.346666666666664" y1="79.55554387060518" x2="42.67999999999999" y2="79.55554387060518" stroke="#333333" stroke-width="1.3333333333333333"/><text x="39.74666666666666" y="83.66221053727185" fill="#4d4d4d" font-size="11.733333333333334" font-family="sans-serif" text-anchor="end">20</text><text x="46.346666666666664" y="21.413333333333334" fill="#000000" font-size="17.599999999999998" font-family="sans-serif" text-anchor="start">出発「分」 ごとの平均遅延</text><text x="331.50666666666666" y="373.73333333333335" fill="#000000" font-size="14.666666666666666" font-family="sans-serif" text-anchor="middle">minute (0-59)</text><text x="17.599999999999998" y="186.13333333333333" fill="#000000" font-size="14.666666666666666" font-family="sans-serif" text-anchor="middle" transform="rotate(-90.0 17.599999999999998 186.13333333333333)">平均 dep_delay</text><line x1="72.27030303030303" y1="183.235987546825" x2="81.05797637390857" y2="190.00030369396703" stroke="#000000" stroke-width="1.4211023622047245"/><line x1="81.05797637390857" y1="190.00030369396703" x2="89.8456497175141" y2="158.28747887366436" stroke="#000000" stroke-width="1.4211023622047245"/><line x1="89.8456497175141" y1="158.28747887366436" x2="98.63332306111965" y2="174.67848128438587" stroke="#000000" stroke-width="1.4211023622047245"/><line x1="98.63332306111965" y1="174.67848128438587" x2="107.4209964047252" y2="123.76978635865669" stroke="#000000" stroke-width="1.4211023622047245"/><line x1="107.4209964047252" y1="123.76978635865669" x2="116.20866974833075" y2="160.47609826774502" stroke="#000000" stroke-width="1.4211023622047245"/><line x1="116.20866974833075" y1="160.47609826774502" x2="124.9963430919363" y2="101.83493360375007" stroke="#000000" stroke-width="1.4211023622047245"/><line x1="124.9963430919363" y1="101.83493360375007" x2="133.78401643554184" y2="79.09642015771354" stroke="#000000" stroke-width="1.4211023622047245"/><line x1="133.78401643554184" y1="79.09642015771354" x2="142.5716897791474" y2="171.18818447699869" stroke="#000000" stroke-width="1.4211023622047245"/><line x1="142.5716897791474" y1="171.18818447699869" x2="151.35936312275294" y2="121.07775410948541" stroke="#000000" stroke-width="1.4211023622047245"/><line x1="151.35936312275294" y1="121.07775410948541" x2="160.1470364663585" y2="128.1718453265943" stroke="#000000" stroke-width="1.4211023622047245"/><line x1="160.1470364663585" y1="128.1718453265943" x2="168.93470980996403" y2="141.53724511096758" stroke="#000000" stroke-width="1.4211023622047245"/><line x1="168.93470980996403" y1="141.53724511096758" x2="177.72238315356958" y2="69.43608244360719" stroke="#000000" stroke-width="1.4211023622047245"/><line x1="177.72238315356958" y1="69.43608244360719" x2="186.51005649717513" y2="158.68941400767164" stroke="#000000" stroke-width="1.4211023622047245"/><line x1="186.51005649717513" y1="158.68941400767164" x2="195.29772984078068" y2="110.35148348059654" stroke="#000000" stroke-width="1.4211023622047245"/><line x1="195.29772984078068" y1="110.35148348059654" x2="204.08540318438622" y2="166.18633865443218" stroke="#000000" stroke-width="1.4211023622047245"/><line x1="204.08540318438622" y1="166.18633865443218" x2="212.87307652799177" y2="134.27610378208456" stroke="#000000" stroke-width="1.4211023622047245"/><line x1="212.87307652799177" y1="134.27610378208456" x2="221.66074987159732" y2="150.5110267720302" stroke="#000000" stroke-width="1.4211023622047245"/><line x1="221.66074987159732" y1="150.5110267720302" x2="230.4484232152028" y2="98.85173387939724" stroke="#000000" stroke-width="1.4211023622047245"/><line x1="230.4484232152028" y1="98.85173387939724" x2="239.2360965588084" y2="124.08145246241664" stroke="#000000" stroke-width="1.4211023622047245"/><line x1="239.2360965588084" y1="124.08145246241664" x2="248.0237699024139" y2="198.78423306213568" stroke="#000000" stroke-width="1.4211023622047245"/><line x1="248.0237699024139" y1="198.78423306213568" x2="256.8114432460195" y2="201.37880792868805" stroke="#000000" stroke-width="1.4211023622047245"/><line x1="256.8114432460195" y1="201.37880792868805" x2="265.599116589625" y2="175.49982113308397" stroke="#000000" stroke-width="1.4211023622047245"/><line x1="265.599116589625" y1="175.49982113308397" x2="274.3867899332306" y2="255.23701104221306" stroke="#000000" stroke-width="1.4211023622047245"/><line x1="274.3867899332306" y1="255.23701104221306" x2="283.1744632768361" y2="254.0068850181099" stroke="#000000" stroke-width="1.4211023622047245"/><line x1="283.1744632768361" y1="254.0068850181099" x2="291.9621366204417" y2="251.0969083970341" stroke="#000000" stroke-width="1.4211023622047245"/><line x1="291.9621366204417" y1="251.0969083970341" x2="300.7498099640472" y2="211.03569738251215" stroke="#000000" stroke-width="1.4211023622047245"/><line x1="300.7498099640472" y1="211.03569738251215" x2="309.53748330765274" y2="210.4818998976691" stroke="#000000" stroke-width="1.4211023622047245"/><line x1="309.53748330765274" y1="210.4818998976691" x2="318.3251566512583" y2="254.09362655158446" stroke="#000000" stroke-width="1.4211023622047245"/><line x1="318.3251566512583" y1="254.09362655158446" x2="327.11282999486383" y2="123.47249286911835" stroke="#000000" stroke-width="1.4211023622047245"/><line x1="327.11282999486383" y1="123.47249286911835" x2="335.9005033384694" y2="189.52660462511065" stroke="#000000" stroke-width="1.4211023622047245"/><line x1="335.9005033384694" y1="189.52660462511065" x2="344.688176682075" y2="113.57062242570262" stroke="#000000" stroke-width="1.4211023622047245"/><line x1="344.688176682075" y1="113.57062242570262" x2="353.47585002568053" y2="103.8508403444509" stroke="#000000" stroke-width="1.4211023622047245"/><line x1="353.47585002568053" y1="103.8508403444509" x2="362.26352336928613" y2="128.71006839297792" stroke="#000000" stroke-width="1.4211023622047245"/><line x1="362.26352336928613" y1="128.71006839297792" x2="371.0511967128916" y2="66.62389344199967" stroke="#000000" stroke-width="1.4211023622047245"/><line x1="371.0511967128916" y1="66.62389344199967" x2="379.83887005649717" y2="149.4556122297804" stroke="#000000" stroke-width="1.4211023622047245"/><line x1="379.83887005649717" y1="149.4556122297804" x2="388.6265434001027" y2="117.0725101240309" stroke="#000000" stroke-width="1.4211023622047245"/><line x1="388.6265434001027" y1="117.0725101240309" x2="397.41421674370827" y2="99.6066546946752" stroke="#000000" stroke-width="1.4211023622047245"/><line x1="397.41421674370827" y1="99.6066546946752" x2="406.2018900873138" y2="174.52799050673542" stroke="#000000" stroke-width="1.4211023622047245"/><line x1="406.2018900873138" y1="174.52799050673542" x2="414.98956343091936" y2="153.54920271568898" stroke="#000000" stroke-width="1.4211023622047245"/><line x1="414.98956343091936" y1="153.54920271568898" x2="423.7772367745249" y2="194.7349568254422" stroke="#000000" stroke-width="1.4211023622047245"/><line x1="423.7772367745249" y1="194.7349568254422" x2="432.56491011813046" y2="166.9083022324435" stroke="#000000" stroke-width="1.4211023622047245"/><line x1="432.56491011813046" y1="166.9083022324435" x2="441.352583461736" y2="138.16241144449367" stroke="#000000" stroke-width="1.4211023622047245"/><line x1="441.352583461736" y1="138.16241144449367" x2="450.14025680534155" y2="46.25454545454541" stroke="#000000" stroke-width="1.4211023622047245"/><line x1="450.14025680534155" y1="46.25454545454541" x2="458.927930148947" y2="148.8157703224477" stroke="#000000" stroke-width="1.4211023622047245"/><line x1="458.927930148947" y1="148.8157703224477" x2="467.71560349255265" y2="144.08894861488687" stroke="#000000" stroke-width="1.4211023622047245"/><line x1="467.71560349255265" y1="144.08894861488687" x2="476.5032768361582" y2="70.44802858630695" stroke="#000000" stroke-width="1.4211023622047245"/><line x1="476.5032768361582" y1="70.44802858630695" x2="485.29095017976374" y2="160.8280508377102" stroke="#000000" stroke-width="1.4211023622047245"/><line x1="485.29095017976374" y1="160.8280508377102" x2="494.0786235233692" y2="219.46128463726723" stroke="#000000" stroke-width="1.4211023622047245"/><line x1="494.0786235233692" y1="219.46128463726723" x2="502.86629686697484" y2="119.99162027105577" stroke="#000000" stroke-width="1.4211023622047245"/><line x1="502.86629686697484" y1="119.99162027105577" x2="511.6539702105804" y2="237.24079147060766" stroke="#000000" stroke-width="1.4211023622047245"/><line x1="511.6539702105804" y1="237.24079147060766" x2="520.4416435541859" y2="231.39826578474606" stroke="#000000" stroke-width="1.4211023622047245"/><line x1="520.4416435541859" y1="231.39826578474606" x2="529.2293168977915" y2="326.0121212121212" stroke="#000000" stroke-width="1.4211023622047245"/><line x1="529.2293168977915" y1="326.0121212121212" x2="538.016990241397" y2="281.8783442157351" stroke="#000000" stroke-width="1.4211023622047245"/><line x1="538.016990241397" y1="281.8783442157351" x2="546.8046635850026" y2="312.7268634680553" stroke="#000000" stroke-width="1.4211023622047245"/><line x1="546.8046635850026" y1="312.7268634680553" x2="555.592336928608" y2="264.93615122338315" stroke="#000000" stroke-width="1.4211023622047245"/><line x1="555.592336928608" y1="264.93615122338315" x2="564.3800102722137" y2="292.11243963624304" stroke="#000000" stroke-width="1.4211023622047245"/><line x1="564.3800102722137" y1="292.11243963624304" x2="573.1676836158192" y2="247.4407113328456" stroke="#000000" stroke-width="1.4211023622047245"/><line x1="573.1676836158192" y1="247.4407113328456" x2="581.9553569594248" y2="258.5814592424814" stroke="#000000" stroke-width="1.4211023622047245"/><line x1="581.9553569594248" y1="258.5814592424814" x2="590.7430303030302" y2="164.4451019436629" stroke="#000000" stroke-width="1.4211023622047245"/></svg>