<svg xmlns="http://www.w3.org/2000/svg" width="624" height="384" viewBox="0 0 624 384"><rect x="0.0" y="0.0" width="624.0" height="384.0" fill="#ffffff" fill-opacity="1.0" stroke="none"/><rect x="60.42666666666666" y="32.266666666666666" width="556.24" height="307.73333333333335" fill="#ebebeb" fill-opacity="1.0" stroke="none"/><line x1="128.56392398561889" y1="32.266666666666666" x2="128.56392398561889" y2="340.0" stroke="#ffffff" stroke-width="0.6666666666666666"/><line x1="214.27116589625064" y1="32.266666666666666" x2="214.27116589625064" y2="340.0" stroke="#ffffff" stroke-width="0.6666666666666666"/><line x1="299.97840780688233" y1="32.266666666666666" x2="299.97840780688233" y2="340.0" stroke="#ffffff" stroke-width="0.6666666666666666"/><line x1="385.6856497175141" y1="32.266666666666666" x2="385.6856497175141" y2="340.0" stroke="#ffffff" stroke-width="0.6666666666666666"/><line x1="471.3928916281458" y1="32.266666666666666" x2="471.3928916281458" y2="340.0" stroke="#ffffff" stroke-width="0.6666666666666666"/><line x1="557.1001335387775" y1="32.266666666666666" x2="557.1001335387775" y2="340.0" stroke="#ffffff" stroke-width="0.6666666666666666"/><line x1="85.71030303030302" y1="32.266666666666666" x2="85.71030303030302" y2="340.0" stroke="#ffffff" stroke-width="1.3333333333333333"/><line x1="171.41754494093476" y1="32.266666666666666" x2="171.41754494093476" y2="340.0" stroke="#ffffff" stroke-width="1.3333333333333333"/><line x1="257.12478685156645" y1="32.266666666666666" x2="257.12478685156645" y2="340.0" stroke="#ffffff" stroke-width="1.3333333333333333"/><line x1="342.83202876219826" y1="32.266666666666666" x2="342.83202876219826" y2="340.0" stroke="#ffffff" stroke-width="1.3333333333333333"/><line x1="428.53927067282996" y1="32.266666666666666" x2="428.53927067282996" y2="340.0" stroke="#ffffff" stroke-width="1.3333333333333333"/><line x1="514.2465125834617" y1="32.266666666666666" x2="514.2465125834617" y2="340.0" stroke="#ffffff" stroke-width="1.3333333333333333"/><line x1="599.9537544940933" y1="32.266666666666666" x2="599.9537544940933" y2="340.0" stroke="#ffffff" stroke-width="1.3333333333333333"/><line x1="60.42666666666666" y1="283.04967641857104" x2="616.6666666666666" y2="283.04967641857104" stroke="#ffffff" stroke-width="0.6666666666666666"/><line x1="60.42666666666666" y1="191.8342946912885" x2="616.6666666666666" y2="191.8342946912885" stroke="#ffffff" stroke-width="0.6666666666666666"/><line x1="60.42666666666666" y1="100.61891296400589" x2="616.6666666666666" y2="100.61891296400589" stroke="#ffffff" stroke-width="0.6666666666666666"/><line x1="60.42666666666666" y1="328.65736728221236" x2="616.6666666666666" y2="328.65736728221236" stroke="#ffffff" stroke-width="1.3333333333333333"/><line x1="60.42666666666666" y1="237.44198555492977" x2="616.6666666666666" y2="237.44198555492977" stroke="#ffffff" stroke-width="1.3333333333333333"/><line x1="60.42666666666666" y1="146.22660382764718" x2="616.6666666666666" y2="146.22660382764718" stroke="#ffffff" stroke-width="1.3333333333333333"/><line x1="60.42666666666666" y1="55.01122210036457" x2="616.6666666666666" y2="55.01122210036457" stroke="#ffffff" stroke-width="1.3333333333333333"/><line x1="85.71030303030302" y1="340.0" x2="85.71030303030302" y2="343.66666666666663" stroke="#333333" stroke-width="1.3333333333333333"/><text x="85.71030303030302" y="355.9866666666667" fill="#4d4d4d" font-size="11.733333333333334" font-family="sans-serif" text-anchor="middle">0</text><line x1="171.41754494093476" y1="340.0" x2="171.41754494093476" y2="343.66666666666663" stroke="#333333" stroke-width="1.3333333333333333"/><text x="171.41754494093476" y="355.9866666666667" fill="#4d4d4d" font-size="11.733333333333334" font-family="sans-serif" text-anchor="middle">10</text><line x1="257.12478685156645" y1="340.0" x2="257.12478685156645" y2="343.66666666666663" stroke="#333333" stroke-width="1.3333333333333333"/><text x="257.12478685156645" y="355.9866666666667" fill="#4d4d4d" font-size="11.733333333333334" font-family="sans-serif" text-anchor="middle">20</text><line x1="342.83202876219826" y1="340.0" x2="342.83202876219826" y2="343.66666666666663" stroke="#333333" stroke-width="1.3333333333333333"/><text x="342.83202876219826" y="355.9866666666667" fill="#4d4d4d" font-size="11.733333333333334" font-family="sans-serif" text-anchor="middle">30</text><line x1="428.53927067282996" y1="340.0" x2="428.53927067282996" y2="343.66666666666663" stroke="#333333" stroke-width="1.3333333333333333"/><text x="428.53927067282996" y="355.9866666666667" fill="#4d4d4d" font-size="11.733333333333334" font-family="sans-serif" text-anchor="middle">40</text><line x1="514.2465125834617" y1="340.0" x2="514.2465125834617" y2="343.66666666666663" stroke="#333333" stroke-width="1.3333333333333333"/><text x="514.2465125834617" y="355.9866666666667" fill="#4d4d4d" font-size="11.733333333333334" font-family="sans-serif" text-anchor="middle">50</text><line x1="599.9537544940933" y1="340.0" x2="599.9537544940933" y2="343.66666666666663" stroke="#333333" stroke-width="1.3333333333333333"/><text x="599.9537544940933" y="355.9866666666667" fill="#4d4d4d" font-size="11.733333333333334" font-family="sans-serif" text-anchor="middle">60</text><line x1="60.42666666666666" y1="328.65736728221236" x2="56.76" y2="328.65736728221236" stroke="#333333" stroke-width="1.3333333333333333"/><text x="53.82666666666666" y="332.76403394887905" fill="#4d4d4d" font-size="11.733333333333334" font-family="sans-serif" text-anchor="end">0</text><line x1="60.42666666666666" y1="237.44198555492977" x2="56.76" y2="237.44198555492977" stroke="#333333" stroke-width="1.3333333333333333"/><text x="53.82666666666666" y="241.54865222159646" fill="#4d4d4d" font-size="11.733333333333334" font-family="sans-serif" text-anchor="end">1000</text><line x1="60.42666666666666" y1="146.22660382764718" x2="56.76" y2="146.22660382764718" stroke="#333333" stroke-width="1.3333333333333333"/><text x="53.82666666666666" y="150.33327049431384" fill="#4d4d4d" font-size="11.733333333333334" font-family="sans-serif" text-anchor="end">2000</text><line x1="60.42666666666666" y1="55.01122210036457" x2="56.76" y2="55.01122210036457" stroke="#333333" stroke-width="1.3333333333333333"/><text x="53.82666666666666" y="59.11788876703123" fill="#4d4d4d" font-size="11.733333333333334" font-family="sans-serif" text-anchor="end">3000</text><text x="60.42666666666666" y="21.413333333333334" fill="#000000" font-size="17.599999999999998" font-family="sans-serif" text-anchor="start">予定出発「分」 の頻度 (0/30/5 の倍数に集中)</text><text x="338.5466666666666" y="373.73333333333335" fill="#000000" font-size="14.666666666666666" font-family="sans-serif" text-anchor="middle">minute (0-59)</text><text x="17.599999999999998" y="186.13333333333333" fill="#000000" font-size="14.666666666666666" font-family="sans-serif" text-anchor="middle" transform="rotate(-90.0 17.599999999999998 186.13333333333333)">便数</text><line x1="85.71030303030302" y1="46.25454545454541" x2="94.28102722136619" y2="318.35002914702943" stroke="#000000" stroke-width="1.4211023622047245"/><line x1="94.28102722136619" y1="318.35002914702943" x2="102.85175141242937" y2="326.0121212121212" stroke="#000000" stroke-width="1.4211023622047245"/><line x1="102.85175141242937" y1="326.0121212121212" x2="111.42247560349256" y2="322.81958285166627" stroke="#000000" stroke-width="1.4211023622047245"/><line x1="111.42247560349256" y1="322.81958285166627" x2="119.99319979455572" y2="323.09322899684815" stroke="#000000" stroke-width="1.4211023622047245"/><line x1="119.99319979455572" y1="323.09322899684815" x2="128.56392398561889" y2="266.44847694420565" stroke="#000000" stroke-width="1.4211023622047245"/><line x1="128.56392398561889" y1="266.44847694420565" x2="137.13464817668205" y2="322.72836746993903" stroke="#000000" stroke-width="1.4211023622047245"/><line x1="137.13464817668205" y1="322.72836746993903" x2="145.7053723677452" y2="324.46145972275735" stroke="#000000" stroke-width="1.4211023622047245"/><line x1="145.7053723677452" y1="324.46145972275735" x2="154.2760965588084" y2="321.45135212575707" stroke="#000000" stroke-width="1.4211023622047245"/><line x1="154.2760965588084" y1="321.45135212575707" x2="162.84682074987157" y2="321.7249982709389" stroke="#000000" stroke-width="1.4211023622047245"/><line x1="162.84682074987157" y1="321.7249982709389" x2="171.41754494093476" y2="262.34378476647794" stroke="#000000" stroke-width="1.4211023622047245"/><line x1="171.41754494093476" y1="262.34378476647794" x2="179.98826913199792" y2="321.9074290343935" stroke="#000000" stroke-width="1.4211023622047245"/><line x1="179.98826913199792" y1="321.9074290343935" x2="188.5589933230611" y2="322.4547213247572" stroke="#000000" stroke-width="1.4211023622047245"/><line x1="188.5589933230611" y1="322.4547213247572" x2="197.12971751412425" y2="325.7384750669394" stroke="#000000" stroke-width="1.4211023622047245"/><line x1="197.12971751412425" y1="325.7384750669394" x2="205.70044170518747" y2="321.3601367440298" stroke="#000000" stroke-width="1.4211023622047245"/><line x1="205.70044170518747" y1="321.3601367440298" x2="214.27116589625064" y2="243.27976998547587" stroke="#000000" stroke-width="1.4211023622047245"/><line x1="214.27116589625064" y1="243.27976998547587" x2="222.8418900873138" y2="324.3702443410301" stroke="#000000" stroke-width="1.4211023622047245"/><line x1="222.8418900873138" y1="324.3702443410301" x2="231.41261427837696" y2="323.7317366689391" stroke="#000000" stroke-width="1.4211023622047245"/><line x1="231.41261427837696" y1="323.7317366689391" x2="239.98333846944013" y2="325.5560443034848" stroke="#000000" stroke-width="1.4211023622047245"/><line x1="239.98333846944013" y1="325.5560443034848" x2="248.55406266050332" y2="320.3567675450297" stroke="#000000" stroke-width="1.4211023622047245"/><line x1="248.55406266050332" y1="320.3567675450297" x2="257.12478685156645" y2="275.2051535900248" stroke="#000000" stroke-width="1.4211023622047245"/><line x1="257.12478685156645" y1="275.2051535900248" x2="265.6955110426296" y2="322.3635059430299" stroke="#000000" stroke-width="1.4211023622047245"/><line x1="265.6955110426296" y1="322.3635059430299" x2="274.2662352336928" y2="322.3635059430299" stroke="#000000" stroke-width="1.4211023622047245"/><line x1="274.2662352336928" y1="322.3635059430299" x2="282.836959424756" y2="324.46145972275735" stroke="#000000" stroke-width="1.4211023622047245"/><line x1="282.836959424756" y1="324.46145972275735" x2="291.40768361581917" y2="322.9107982333936" stroke="#000000" stroke-width="1.4211023622047245"/><line x1="291.40768361581917" y1="322.9107982333936" x2="299.97840780688233" y2="259.3336771694776" stroke="#000000" stroke-width="1.4211023622047245"/><line x1="299.97840780688233" y1="259.3336771694776" x2="308.5491319979455" y2="324.3702443410301" stroke="#000000" stroke-width="1.4211023622047245"/><line x1="308.5491319979455" y1="324.3702443410301" x2="317.11985618900866" y2="323.18444437857545" stroke="#000000" stroke-width="1.4211023622047245"/><line x1="317.11985618900866" y1="323.18444437857545" x2="325.6905803800719" y2="322.4547213247572" stroke="#000000" stroke-width="1.4211023622047245"/><line x1="325.6905803800719" y1="322.4547213247572" x2="334.26130457113504" y2="264.89781545484186" stroke="#000000" stroke-width="1.4211023622047245"/><line x1="334.26130457113504" y1="264.89781545484186" x2="342.83202876219826" y2="172.58784914683184" stroke="#000000" stroke-width="1.4211023622047245"/><line x1="342.83202876219826" y1="172.58784914683184" x2="351.4027529532614" y2="322.72836746993903" stroke="#000000" stroke-width="1.4211023622047245"/><line x1="351.4027529532614" y1="322.72836746993903" x2="359.9734771443246" y2="323.7317366689391" stroke="#000000" stroke-width="1.4211023622047245"/><line x1="359.9734771443246" y1="323.7317366689391" x2="368.5442013353878" y2="325.4648289217575" stroke="#000000" stroke-width="1.4211023622047245"/><line x1="368.5442013353878" y1="325.4648289217575" x2="377.1149255264509" y2="323.09322899684815" stroke="#000000" stroke-width="1.4211023622047245"/><line x1="377.1149255264509" y1="323.09322899684815" x2="385.6856497175141" y2="268.45521534220586" stroke="#000000" stroke-width="1.4211023622047245"/><line x1="385.6856497175141" y1="268.45521534220586" x2="394.2563739085773" y2="320.44798292675694" stroke="#000000" stroke-width="1.4211023622047245"/><line x1="394.2563739085773" y1="320.44798292675694" x2="402.8270980996404" y2="324.2790289593028" stroke="#000000" stroke-width="1.4211023622047245"/><line x1="402.8270980996404" y1="324.2790289593028" x2="411.3978222907036" y2="323.5493059054846" stroke="#000000" stroke-width="1.4211023622047245"/><line x1="411.3978222907036" y1="323.5493059054846" x2="419.9685464817668" y2="321.1777059805752" stroke="#000000" stroke-width="1.4211023622047245"/><line x1="419.9685464817668" y1="321.1777059805752" x2="428.53927067282996" y2="269.7322306863878" stroke="#000000" stroke-width="1.4211023622047245"/><line x1="428.53927067282996" y1="269.7322306863878" x2="437.1099948638931" y2="324.46145972275735" stroke="#000000" stroke-width="1.4211023622047245"/><line x1="437.1099948638931" y1="324.46145972275735" x2="445.6807190549563" y2="323.7317366689391" stroke="#000000" stroke-width="1.4211023622047245"/><line x1="445.6807190549563" y1="323.7317366689391" x2="454.25144324601945" y2="323.36687514203" stroke="#000000" stroke-width="1.4211023622047245"/><line x1="454.25144324601945" y1="323.36687514203" x2="462.8221674370826" y2="320.6304136902115" stroke="#000000" stroke-width="1.4211023622047245"/><line x1="462.8221674370826" y1="320.6304136902115" x2="471.3928916281458" y2="231.05690883402" stroke="#000000" stroke-width="1.4211023622047245"/><line x1="471.3928916281458" y1="231.05690883402" x2="479.96361581920905" y2="320.0831213998478" stroke="#000000" stroke-width="1.4211023622047245"/><line x1="479.96361581920905" y1="320.0831213998478" x2="488.5343400102722" y2="321.8162136526662" stroke="#000000" stroke-width="1.4211023622047245"/><line x1="488.5343400102722" y1="321.8162136526662" x2="497.1050642013354" y2="322.9107982333936" stroke="#000000" stroke-width="1.4211023622047245"/><line x1="497.1050642013354" y1="322.9107982333936" x2="505.67578839239854" y2="320.3567675450297" stroke="#000000" stroke-width="1.4211023622047245"/><line x1="505.67578839239854" y1="320.3567675450297" x2="514.2465125834617" y2="274.0193536275701" stroke="#000000" stroke-width="1.4211023622047245"/><line x1="514.2465125834617" y1="274.0193536275701" x2="522.8172367745249" y2="324.2790289593028" stroke="#000000" stroke-width="1.4211023622047245"/><line x1="522.8172367745249" y1="324.2790289593028" x2="531.387960965588" y2="324.005382814121" stroke="#000000" stroke-width="1.4211023622047245"/><line x1="531.387960965588" y1="324.005382814121" x2="539.9586851566512" y2="323.09322899684815" stroke="#000000" stroke-width="1.4211023622047245"/><line x1="539.9586851566512" y1="323.09322899684815" x2="548.5294093477144" y2="323.2756597603027" stroke="#000000" stroke-width="1.4211023622047245"/><line x1="548.5294093477144" y1="323.2756597603027" x2="557.1001335387775" y2="243.006123840294" stroke="#000000" stroke-width="1.4211023622047245"/><line x1="557.1001335387775" y1="243.006123840294" x2="565.6708577298407" y2="321.45135212575707" stroke="#000000" stroke-width="1.4211023622047245"/><line x1="565.6708577298407" y1="321.45135212575707" x2="574.2415819209039" y2="323.09322899684815" stroke="#000000" stroke-width="1.4211023622047245"/><line x1="574.2415819209039" y1="323.09322899684815" x2="582.8123061119671" y2="322.9107982333936" stroke="#000000" stroke-width="1.4211023622047245"/><line x1="582.8123061119671" y1="322.9107982333936" x2="591.3830303030302" y2="254.6816927013862" stroke="#000000" stroke-width="1.4211023622047245"/></svg>