<svg xmlns="http://www.w3.org/2000/svg" width="800" height="600" viewBox="0 0 800 600"><rect x="0.0" y="0.0" width="800.0" height="600.0" fill="#ffffff" fill-opacity="1.0" stroke="none"/><line x1="72.49797979797981" y1="27.0" x2="72.49797979797981" y2="578.55" stroke="#dddddd" stroke-width="0.5"/><line x1="246.95505050505056" y1="27.0" x2="246.95505050505056" y2="578.55" stroke="#dddddd" stroke-width="0.5"/><line x1="421.4121212121213" y1="27.0" x2="421.4121212121213" y2="578.55" stroke="#dddddd" stroke-width="0.5"/><line x1="595.869191919192" y1="27.0" x2="595.869191919192" y2="578.55" stroke="#dddddd" stroke-width="0.5"/><line x1="159.72651515151517" y1="27.0" x2="159.72651515151517" y2="578.55" stroke="#dddddd" stroke-width="1.0"/><line x1="334.1835858585859" y1="27.0" x2="334.1835858585859" y2="578.55" stroke="#dddddd" stroke-width="1.0"/><line x1="508.6406565656566" y1="27.0" x2="508.6406565656566" y2="578.55" stroke="#dddddd" stroke-width="1.0"/><line x1="683.0977272727273" y1="27.0" x2="683.0977272727273" y2="578.55" stroke="#dddddd" stroke-width="1.0"/><line x1="23.65" y1="542.2748730319959" x2="714.5" y2="542.2748730319959" stroke="#dddddd" stroke-width="0.5"/><line x1="23.65" y1="402.2164677501269" x2="714.5" y2="402.2164677501269" stroke="#dddddd" stroke-width="0.5"/><line x1="23.65" y1="262.1580624682579" x2="714.5" y2="262.1580624682579" stroke="#dddddd" stroke-width="0.5"/><line x1="23.65" y1="122.09965718638892" x2="714.5" y2="122.09965718638892" stroke="#dddddd" stroke-width="0.5"/><line x1="23.65" y1="472.2456703910614" x2="714.5" y2="472.2456703910614" stroke="#dddddd" stroke-width="1.0"/><line x1="23.65" y1="332.1872651091925" x2="714.5" y2="332.1872651091925" stroke="#dddddd" stroke-width="1.0"/><line x1="23.65" y1="192.12885982732342" x2="714.5" y2="192.12885982732342" stroke="#dddddd" stroke-width="1.0"/><line x1="23.65" y1="52.07045454545448" x2="714.5" y2="52.07045454545448" stroke="#dddddd" stroke-width="1.0"/><rect x="23.65" y="27.0" width="690.85" height="551.55" fill="#ffffff" fill-opacity="0.0" stroke="#444444" stroke-width="1.0"/><line x1="159.72651515151517" y1="578.55" x2="159.72651515151517" y2="581.3" stroke="#444444" stroke-width="1.0"/><text x="159.72651515151517" y="592.3" fill="#333333" font-size="11.0" font-family="sans-serif" text-anchor="middle">2.5</text><line x1="334.1835858585859" y1="578.55" x2="334.1835858585859" y2="581.3" stroke="#444444" stroke-width="1.0"/><text x="334.1835858585859" y="592.3" fill="#333333" font-size="11.0" font-family="sans-serif" text-anchor="middle">5</text><line x1="508.6406565656566" y1="578.55" x2="508.6406565656566" y2="581.3" stroke="#444444" stroke-width="1.0"/><text x="508.6406565656566" y="592.3" fill="#333333" font-size="11.0" font-family="sans-serif" text-anchor="middle">7.5</text><line x1="683.0977272727273" y1="578.55" x2="683.0977272727273" y2="581.3" stroke="#444444" stroke-width="1.0"/><text x="683.0977272727273" y="592.3" fill="#333333" font-size="11.0" font-family="sans-serif" text-anchor="middle">10</text><line x1="23.65" y1="472.2456703910614" x2="20.9" y2="472.2456703910614" stroke="#444444" stroke-width="1.0"/><text x="18.7" y="476.09567039106145" fill="#333333" font-size="11.0" font-family="sans-serif" text-anchor="end">5</text><line x1="23.65" y1="332.1872651091925" x2="20.9" y2="332.1872651091925" stroke="#444444" stroke-width="1.0"/><text x="18.7" y="336.0372651091925" fill="#333333" font-size="11.0" font-family="sans-serif" text-anchor="end">10</text><line x1="23.65" y1="192.12885982732342" x2="20.9" y2="192.12885982732342" stroke="#444444" stroke-width="1.0"/><text x="18.7" y="195.97885982732342" fill="#333333" font-size="11.0" font-family="sans-serif" text-anchor="end">15</text><line x1="23.65" y1="52.07045454545448" x2="20.9" y2="52.07045454545448" stroke="#444444" stroke-width="1.0"/><text x="18.7" y="55.92045454545448" fill="#333333" font-size="11.0" font-family="sans-serif" text-anchor="end">20</text><text x="369.075" y="18.3" fill="#333333" font-size="16.0" font-family="sans-serif" text-anchor="middle">df |&gt;&gt; scatter (color/size を列名で)</text><circle cx="55.05227272727273" cy="553.4795454545454" r="3.0" fill="#F8766D" fill-opacity="0.85" stroke="#F8766D" stroke-width="1.0"><title>(1, 2.1)</title></circle><circle cx="124.83510101010103" cy="503.0585195530726" r="9.0" fill="#C49A00" fill-opacity="0.85" stroke="#C49A00" stroke-width="1.0"><title>(2, 3.9)</title></circle><circle cx="194.61792929292935" cy="444.23398933468764" r="4.0" fill="#F8766D" fill-opacity="0.85" stroke="#F8766D" stroke-width="1.0"><title>(3, 6)</title></circle><circle cx="264.4007575757576" cy="396.6141315388521" r="10.0" fill="#C49A00" fill-opacity="0.85" stroke="#C49A00" stroke-width="1.0"><title>(4, 7.7)</title></circle><circle cx="334.1835858585859" cy="326.58492889791773" r="5.0" fill="#F8766D" fill-opacity="0.85" stroke="#F8766D" stroke-width="1.0"><title>(5, 10.2)</title></circle><circle cx="403.9664141414142" cy="281.7662392077196" r="8.0" fill="#C49A00" fill-opacity="0.85" stroke="#C49A00" stroke-width="1.0"><title>(6, 11.8)</title></circle><circle cx="473.7492424242425" cy="217.3393727780599" r="6.0" fill="#F8766D" fill-opacity="0.85" stroke="#F8766D" stroke-width="1.0"><title>(7, 14.1)</title></circle><circle cx="543.5320707070707" cy="166.91834687658707" r="7.0" fill="#C49A00" fill-opacity="0.85" stroke="#C49A00" stroke-width="1.0"><title>(8, 15.9)</title></circle><circle cx="613.314898989899" cy="102.49148044692737" r="4.0" fill="#F8766D" fill-opacity="0.85" stroke="#F8766D" stroke-width="1.0"><title>(9, 18.2)</title></circle><circle cx="683.0977272727273" cy="52.07045454545448" r="9.0" fill="#C49A00" fill-opacity="0.85" stroke="#C49A00" stroke-width="1.0"><title>(10, 20)</title></circle><circle cx="729.5" cy="45.0" r="5.0" fill="#F8766D" fill-opacity="1.0" stroke="#F8766D" stroke-width="1.0"/><text x="738.5" y="49.0" fill="#333333" font-size="10.0" font-family="sans-serif" text-anchor="start">A</text><circle cx="729.5" cy="61.0" r="5.0" fill="#C49A00" fill-opacity="1.0" stroke="#C49A00" stroke-width="1.0"/><text x="738.5" y="65.0" fill="#333333" font-size="10.0" font-family="sans-serif" text-anchor="start">B</text></svg>