<svg xmlns="http://www.w3.org/2000/svg" width="800" height="600" viewBox="0 0 800 600"><rect x="0.0" y="0.0" width="800.0" height="600.0" fill="#ffffff" fill-opacity="1.0" stroke="none"/><text x="409.075" y="18.3" fill="#333333" font-size="16.0" font-family="sans-serif" text-anchor="middle">df |&gt;&gt; scatter &lt;&gt; facet &quot;group&quot;</text><rect x="23.65" y="27.0" width="382.675" height="18.0" fill="#d9d9d9" fill-opacity="1.0" stroke="none"/><text x="214.9875" y="41.0" fill="#333333" font-size="11.0" font-family="sans-serif" text-anchor="middle">A</text><rect x="23.65" y="45.0" width="382.675" height="533.55" fill="#ffffff" fill-opacity="0.0" stroke="#444444" stroke-width="1.0"/><line x1="50.70782828282829" y1="45.0" x2="50.70782828282829" y2="578.55" stroke="#dddddd" stroke-width="0.5"/><line x1="147.34292929292934" y1="45.0" x2="147.34292929292934" y2="578.55" stroke="#dddddd" stroke-width="0.5"/><line x1="243.97803030303038" y1="45.0" x2="243.97803030303038" y2="578.55" stroke="#dddddd" stroke-width="0.5"/><line x1="340.6131313131313" y1="45.0" x2="340.6131313131313" y2="578.55" stroke="#dddddd" stroke-width="0.5"/><line x1="99.0253787878788" y1="45.0" x2="99.0253787878788" y2="578.55" stroke="#dddddd" stroke-width="1.0"/><line x1="195.66047979797983" y1="45.0" x2="195.66047979797983" y2="578.55" stroke="#dddddd" stroke-width="1.0"/><line x1="292.29558080808084" y1="45.0" x2="292.29558080808084" y2="578.55" stroke="#dddddd" stroke-width="1.0"/><line x1="388.9306818181818" y1="45.0" x2="388.9306818181818" y2="578.55" stroke="#dddddd" stroke-width="1.0"/><line x1="23.65" y1="543.4587227018791" x2="406.325" y2="543.4587227018791" stroke="#dddddd" stroke-width="0.5"/><line x1="23.65" y1="407.97116556627725" x2="406.325" y2="407.97116556627725" stroke="#dddddd" stroke-width="0.5"/><line x1="23.65" y1="272.4836084306754" x2="406.325" y2="272.4836084306754" stroke="#dddddd" stroke-width="0.5"/><line x1="23.65" y1="136.99605129507358" x2="406.325" y2="136.99605129507358" stroke="#dddddd" stroke-width="0.5"/><line x1="23.65" y1="475.71494413407817" x2="406.325" y2="475.71494413407817" stroke="#dddddd" stroke-width="1.0"/><line x1="23.65" y1="340.22738699847633" x2="406.325" y2="340.22738699847633" stroke="#dddddd" stroke-width="1.0"/><line x1="23.65" y1="204.7398298628745" x2="406.325" y2="204.7398298628745" stroke="#dddddd" stroke-width="1.0"/><line x1="23.65" y1="69.25227272727267" x2="406.325" y2="69.25227272727267" stroke="#dddddd" stroke-width="1.0"/><line x1="99.0253787878788" y1="578.55" x2="99.0253787878788" y2="581.3" stroke="#444444" stroke-width="1.0"/><text x="99.0253787878788" y="592.3" fill="#333333" font-size="11.0" font-family="sans-serif" text-anchor="middle">2.5</text><line x1="195.66047979797983" y1="578.55" x2="195.66047979797983" y2="581.3" stroke="#444444" stroke-width="1.0"/><text x="195.66047979797983" y="592.3" fill="#333333" font-size="11.0" font-family="sans-serif" text-anchor="middle">5</text><line x1="292.29558080808084" y1="578.55" x2="292.29558080808084" y2="581.3" stroke="#444444" stroke-width="1.0"/><text x="292.29558080808084" y="592.3" fill="#333333" font-size="11.0" font-family="sans-serif" text-anchor="middle">7.5</text><line x1="388.9306818181818" y1="578.55" x2="388.9306818181818" y2="581.3" stroke="#444444" stroke-width="1.0"/><text x="388.9306818181818" y="592.3" fill="#333333" font-size="11.0" font-family="sans-serif" text-anchor="middle">10</text><line x1="23.65" y1="475.71494413407817" x2="20.9" y2="475.71494413407817" stroke="#444444" stroke-width="1.0"/><text x="18.7" y="479.5649441340782" fill="#333333" font-size="11.0" font-family="sans-serif" text-anchor="end">5</text><line x1="23.65" y1="340.22738699847633" x2="20.9" y2="340.22738699847633" stroke="#444444" stroke-width="1.0"/><text x="18.7" y="344.07738699847636" fill="#333333" font-size="11.0" font-family="sans-serif" text-anchor="end">10</text><line x1="23.65" y1="204.7398298628745" x2="20.9" y2="204.7398298628745" stroke="#444444" stroke-width="1.0"/><text x="18.7" y="208.5898298628745" fill="#333333" font-size="11.0" font-family="sans-serif" text-anchor="end">15</text><line x1="23.65" y1="69.25227272727267" x2="20.9" y2="69.25227272727267" stroke="#444444" stroke-width="1.0"/><text x="18.7" y="73.10227272727266" fill="#333333" font-size="11.0" font-family="sans-serif" text-anchor="end">20</text><circle cx="41.044318181818184" cy="554.2977272727272" r="6.0" fill="#F8766D" fill-opacity="0.85" stroke="#F8766D" stroke-width="1.0"><title>(1, 2.1)</title></circle><circle cx="118.35239898989903" cy="448.6174327069578" r="6.0" fill="#F8766D" fill-opacity="0.85" stroke="#F8766D" stroke-width="1.0"><title>(3, 6)</title></circle><circle cx="195.66047979797983" cy="334.8078847130523" r="6.0" fill="#F8766D" fill-opacity="0.85" stroke="#F8766D" stroke-width="1.0"><title>(5, 10.2)</title></circle><circle cx="272.96856060606063" cy="229.12759014728283" r="6.0" fill="#F8766D" fill-opacity="0.85" stroke="#F8766D" stroke-width="1.0"><title>(7, 14.1)</title></circle><circle cx="350.2766414141414" cy="118.02779329608938" r="6.0" fill="#F8766D" fill-opacity="0.85" stroke="#F8766D" stroke-width="1.0"><title>(9, 18.2)</title></circle><rect x="411.825" y="27.0" width="382.675" height="18.0" fill="#d9d9d9" fill-opacity="1.0" stroke="none"/><text x="603.1625" y="41.0" fill="#333333" font-size="11.0" font-family="sans-serif" text-anchor="middle">B</text><rect x="411.825" y="45.0" width="382.675" height="533.55" fill="#ffffff" fill-opacity="0.0" stroke="#444444" stroke-width="1.0"/><line x1="438.88282828282826" y1="45.0" x2="438.88282828282826" y2="578.55" stroke="#dddddd" stroke-width="0.5"/><line x1="535.5179292929294" y1="45.0" x2="535.5179292929294" y2="578.55" stroke="#dddddd" stroke-width="0.5"/><line x1="632.1530303030304" y1="45.0" x2="632.1530303030304" y2="578.55" stroke="#dddddd" stroke-width="0.5"/><line x1="728.7881313131313" y1="45.0" x2="728.7881313131313" y2="578.55" stroke="#dddddd" stroke-width="0.5"/><line x1="487.2003787878788" y1="45.0" x2="487.2003787878788" y2="578.55" stroke="#dddddd" stroke-width="1.0"/><line x1="583.8354797979798" y1="45.0" x2="583.8354797979798" y2="578.55" stroke="#dddddd" stroke-width="1.0"/><line x1="680.4705808080809" y1="45.0" x2="680.4705808080809" y2="578.55" stroke="#dddddd" stroke-width="1.0"/><line x1="777.1056818181819" y1="45.0" x2="777.1056818181819" y2="578.55" stroke="#dddddd" stroke-width="1.0"/><line x1="411.825" y1="543.4587227018791" x2="794.5" y2="543.4587227018791" stroke="#dddddd" stroke-width="0.5"/><line x1="411.825" y1="407.97116556627725" x2="794.5" y2="407.97116556627725" stroke="#dddddd" stroke-width="0.5"/><line x1="411.825" y1="272.4836084306754" x2="794.5" y2="272.4836084306754" stroke="#dddddd" stroke-width="0.5"/><line x1="411.825" y1="136.99605129507358" x2="794.5" y2="136.99605129507358" stroke="#dddddd" stroke-width="0.5"/><line x1="411.825" y1="475.71494413407817" x2="794.5" y2="475.71494413407817" stroke="#dddddd" stroke-width="1.0"/><line x1="411.825" y1="340.22738699847633" x2="794.5" y2="340.22738699847633" stroke="#dddddd" stroke-width="1.0"/><line x1="411.825" y1="204.7398298628745" x2="794.5" y2="204.7398298628745" stroke="#dddddd" stroke-width="1.0"/><line x1="411.825" y1="69.25227272727267" x2="794.5" y2="69.25227272727267" stroke="#dddddd" stroke-width="1.0"/><line x1="487.2003787878788" y1="578.55" x2="487.2003787878788" y2="581.3" stroke="#444444" stroke-width="1.0"/><text x="487.2003787878788" y="592.3" fill="#333333" font-size="11.0" font-family="sans-serif" text-anchor="middle">2.5</text><line x1="583.8354797979798" y1="578.55" x2="583.8354797979798" y2="581.3" stroke="#444444" stroke-width="1.0"/><text x="583.8354797979798" y="592.3" fill="#333333" font-size="11.0" font-family="sans-serif" text-anchor="middle">5</text><line x1="680.4705808080809" y1="578.55" x2="680.4705808080809" y2="581.3" stroke="#444444" stroke-width="1.0"/><text x="680.4705808080809" y="592.3" fill="#333333" font-size="11.0" font-family="sans-serif" text-anchor="middle">7.5</text><line x1="777.1056818181819" y1="578.55" x2="777.1056818181819" y2="581.3" stroke="#444444" stroke-width="1.0"/><text x="777.1056818181819" y="592.3" fill="#333333" font-size="11.0" font-family="sans-serif" text-anchor="middle">10</text><circle cx="467.87335858585857" cy="505.52220670391057" r="6.0" fill="#F8766D" fill-opacity="0.85" stroke="#F8766D" stroke-width="1.0"><title>(2, 3.9)</title></circle><circle cx="545.1814393939394" cy="402.5516632808532" r="6.0" fill="#F8766D" fill-opacity="0.85" stroke="#F8766D" stroke-width="1.0"><title>(4, 7.7)</title></circle><circle cx="622.4895202020202" cy="291.4518664296596" r="6.0" fill="#F8766D" fill-opacity="0.85" stroke="#F8766D" stroke-width="1.0"><title>(6, 11.8)</title></circle><circle cx="699.7976010101011" cy="180.35206957846617" r="6.0" fill="#F8766D" fill-opacity="0.85" stroke="#F8766D" stroke-width="1.0"><title>(8, 15.9)</title></circle><circle cx="777.1056818181819" cy="69.25227272727267" r="6.0" fill="#F8766D" fill-opacity="0.85" stroke="#F8766D" stroke-width="1.0"><title>(10, 20)</title></circle></svg>