<svg xmlns="http://www.w3.org/2000/svg" width="800" height="600" viewBox="0 0 800 600"><rect x="0.0" y="0.0" width="800.0" height="600.0" fill="#ffffff" fill-opacity="1.0" stroke="none"/><line x1="147.82187499999998" y1="27.0" x2="147.82187499999998" y2="578.55" stroke="#dddddd" stroke-width="1.0"/><line x1="365.77500000000003" y1="27.0" x2="365.77500000000003" y2="578.55" stroke="#dddddd" stroke-width="1.0"/><line x1="583.728125" y1="27.0" x2="583.728125" y2="578.55" stroke="#dddddd" stroke-width="1.0"/><line x1="17.049999999999997" y1="534.7761904761904" x2="714.5" y2="534.7761904761904" stroke="#dddddd" stroke-width="0.5"/><line x1="17.049999999999997" y1="447.2285714285714" x2="714.5" y2="447.2285714285714" stroke="#dddddd" stroke-width="0.5"/><line x1="17.049999999999997" y1="359.68095238095236" x2="714.5" y2="359.68095238095236" stroke="#dddddd" stroke-width="0.5"/><line x1="17.049999999999997" y1="272.1333333333333" x2="714.5" y2="272.1333333333333" stroke="#dddddd" stroke-width="0.5"/><line x1="17.049999999999997" y1="184.5857142857143" x2="714.5" y2="184.5857142857143" stroke="#dddddd" stroke-width="0.5"/><line x1="17.049999999999997" y1="97.03809523809525" x2="714.5" y2="97.03809523809525" stroke="#dddddd" stroke-width="0.5"/><line x1="17.049999999999997" y1="578.55" x2="714.5" y2="578.55" stroke="#dddddd" stroke-width="1.0"/><line x1="17.049999999999997" y1="491.0023809523809" x2="714.5" y2="491.0023809523809" stroke="#dddddd" stroke-width="1.0"/><line x1="17.049999999999997" y1="403.4547619047619" x2="714.5" y2="403.4547619047619" stroke="#dddddd" stroke-width="1.0"/><line x1="17.049999999999997" y1="315.90714285714284" x2="714.5" y2="315.90714285714284" stroke="#dddddd" stroke-width="1.0"/><line x1="17.049999999999997" y1="228.3595238095238" x2="714.5" y2="228.3595238095238" stroke="#dddddd" stroke-width="1.0"/><line x1="17.049999999999997" y1="140.8119047619047" x2="714.5" y2="140.8119047619047" stroke="#dddddd" stroke-width="1.0"/><line x1="17.049999999999997" y1="53.264285714285734" x2="714.5" y2="53.264285714285734" stroke="#dddddd" stroke-width="1.0"/><rect x="17.049999999999997" y="27.0" width="697.45" height="551.55" fill="#ffffff" fill-opacity="0.0" stroke="#444444" stroke-width="1.0"/><line x1="147.82187499999998" y1="578.55" x2="147.82187499999998" y2="581.3" stroke="#444444" stroke-width="1.0"/><text x="147.82187499999998" y="592.3" fill="#333333" font-size="11.0" font-family="sans-serif" text-anchor="middle">A</text><line x1="365.77500000000003" y1="578.55" x2="365.77500000000003" y2="581.3" stroke="#444444" stroke-width="1.0"/><text x="365.77500000000003" y="592.3" fill="#333333" font-size="11.0" font-family="sans-serif" text-anchor="middle">B</text><line x1="583.728125" y1="578.55" x2="583.728125" y2="581.3" stroke="#444444" stroke-width="1.0"/><text x="583.728125" y="592.3" fill="#333333" font-size="11.0" font-family="sans-serif" text-anchor="middle">C</text><line x1="17.049999999999997" y1="578.55" x2="14.299999999999997" y2="578.55" stroke="#444444" stroke-width="1.0"/><text x="12.099999999999998" y="582.4" fill="#333333" font-size="11.0" font-family="sans-serif" text-anchor="end">0</text><line x1="17.049999999999997" y1="491.0023809523809" x2="14.299999999999997" y2="491.0023809523809" stroke="#444444" stroke-width="1.0"/><text x="12.099999999999998" y="494.85238095238094" fill="#333333" font-size="11.0" font-family="sans-serif" text-anchor="end">1</text><line x1="17.049999999999997" y1="403.4547619047619" x2="14.299999999999997" y2="403.4547619047619" stroke="#444444" stroke-width="1.0"/><text x="12.099999999999998" y="407.3047619047619" fill="#333333" font-size="11.0" font-family="sans-serif" text-anchor="end">2</text><line x1="17.049999999999997" y1="315.90714285714284" x2="14.299999999999997" y2="315.90714285714284" stroke="#444444" stroke-width="1.0"/><text x="12.099999999999998" y="319.75714285714287" fill="#333333" font-size="11.0" font-family="sans-serif" text-anchor="end">3</text><line x1="17.049999999999997" y1="228.3595238095238" x2="14.299999999999997" y2="228.3595238095238" stroke="#444444" stroke-width="1.0"/><text x="12.099999999999998" y="232.2095238095238" fill="#333333" font-size="11.0" font-family="sans-serif" text-anchor="end">4</text><line x1="17.049999999999997" y1="140.8119047619047" x2="14.299999999999997" y2="140.8119047619047" stroke="#444444" stroke-width="1.0"/><text x="12.099999999999998" y="144.6619047619047" fill="#333333" font-size="11.0" font-family="sans-serif" text-anchor="end">5</text><line x1="17.049999999999997" y1="53.264285714285734" x2="14.299999999999997" y2="53.264285714285734" stroke="#444444" stroke-width="1.0"/><text x="12.099999999999998" y="57.114285714285735" fill="#333333" font-size="11.0" font-family="sans-serif" text-anchor="end">6</text><text x="365.77500000000003" y="18.3" fill="#333333" font-size="16.0" font-family="sans-serif" text-anchor="middle">df |&gt;&gt; bar &lt;&gt; color &lt;&gt; position PosDodge</text><rect x="49.74296874999997" y="315.90714285714284" width="65.38593750000003" height="262.6428571428571" fill="#F8766D" fill-opacity="0.85" stroke="none"/><rect x="115.12890624999997" y="140.8119047619047" width="65.38593750000003" height="437.73809523809524" fill="#C49A00" fill-opacity="0.85" stroke="none"/><rect x="180.51484374999998" y="403.4547619047619" width="65.38593750000003" height="175.09523809523807" fill="#53B400" fill-opacity="0.85" stroke="none"/><rect x="267.69609375" y="228.3595238095238" width="65.38593750000003" height="350.19047619047615" fill="#F8766D" fill-opacity="0.85" stroke="none"/><rect x="333.08203125" y="491.0023809523809" width="65.38593750000003" height="87.54761904761904" fill="#C49A00" fill-opacity="0.85" stroke="none"/><rect x="398.46796874999995" y="53.264285714285734" width="65.38593750000003" height="525.2857142857142" fill="#53B400" fill-opacity="0.85" stroke="none"/><rect x="485.6492187499999" y="403.4547619047619" width="65.38593750000003" height="175.09523809523807" fill="#F8766D" fill-opacity="0.85" stroke="none"/><rect x="551.03515625" y="315.90714285714284" width="65.38593750000003" height="262.6428571428571" fill="#C49A00" fill-opacity="0.85" stroke="none"/><rect x="616.42109375" y="228.3595238095238" width="65.38593750000003" height="350.19047619047615" fill="#53B400" fill-opacity="0.85" stroke="none"/><rect x="724.5" y="40.0" width="10.0" height="10.0" fill="#F8766D" fill-opacity="1.0" stroke="#444444" stroke-width="0.5"/><text x="738.5" y="49.0" fill="#333333" font-size="10.0" font-family="sans-serif" text-anchor="start">x</text><rect x="724.5" y="56.0" width="10.0" height="10.0" fill="#C49A00" fill-opacity="1.0" stroke="#444444" stroke-width="0.5"/><text x="738.5" y="65.0" fill="#333333" font-size="10.0" font-family="sans-serif" text-anchor="start">y</text><rect x="724.5" y="72.0" width="10.0" height="10.0" fill="#53B400" fill-opacity="1.0" stroke="#444444" stroke-width="0.5"/><text x="738.5" y="81.0" fill="#333333" font-size="10.0" font-family="sans-serif" text-anchor="start">z</text></svg>