<svg xmlns="http://www.w3.org/2000/svg" width="624" height="384" viewBox="0 0 624 384"><rect x="0.0" y="0.0" width="624.0" height="384.0" fill="#ffffff" fill-opacity="1.0" stroke="none"/><rect x="60.42666666666666" y="32.266666666666666" width="425.79525333333333" height="307.73333333333335" fill="#ebebeb" fill-opacity="1.0" stroke="none"/><line x1="145.20408266325225" y1="32.266666666666666" x2="145.20408266325225" y2="340.0" stroke="#ffffff" stroke-width="0.6666666666666666"/><line x1="254.2425598292787" y1="32.266666666666666" x2="254.2425598292787" y2="340.0" stroke="#ffffff" stroke-width="0.6666666666666666"/><line x1="363.2810369953052" y1="32.266666666666666" x2="363.2810369953052" y2="340.0" stroke="#ffffff" stroke-width="0.6666666666666666"/><line x1="472.31951416133165" y1="32.266666666666666" x2="472.31951416133165" y2="340.0" stroke="#ffffff" stroke-width="0.6666666666666666"/><line x1="90.68484408023903" y1="32.266666666666666" x2="90.68484408023903" y2="340.0" stroke="#ffffff" stroke-width="1.3333333333333333"/><line x1="199.72332124626547" y1="32.266666666666666" x2="199.72332124626547" y2="340.0" stroke="#ffffff" stroke-width="1.3333333333333333"/><line x1="308.7617984122919" y1="32.266666666666666" x2="308.7617984122919" y2="340.0" stroke="#ffffff" stroke-width="1.3333333333333333"/><line x1="417.8002755783184" y1="32.266666666666666" x2="417.8002755783184" y2="340.0" stroke="#ffffff" stroke-width="1.3333333333333333"/><line x1="60.42666666666666" y1="290.2565883554647" x2="486.22192" y2="290.2565883554647" stroke="#ffffff" stroke-width="0.6666666666666666"/><line x1="60.42666666666666" y1="218.74552264215185" x2="486.22192" y2="218.74552264215185" stroke="#ffffff" stroke-width="0.6666666666666666"/><line x1="60.42666666666666" y1="147.2344569288389" x2="486.22192" y2="147.2344569288389" stroke="#ffffff" stroke-width="0.6666666666666666"/><line x1="60.42666666666666" y1="75.72339121552598" x2="486.22192" y2="75.72339121552598" stroke="#ffffff" stroke-width="0.6666666666666666"/><line x1="60.42666666666666" y1="326.0121212121212" x2="486.22192" y2="326.0121212121212" stroke="#ffffff" stroke-width="1.3333333333333333"/><line x1="60.42666666666666" y1="254.50105549880828" x2="486.22192" y2="254.50105549880828" stroke="#ffffff" stroke-width="1.3333333333333333"/><line x1="60.42666666666666" y1="182.98998978549537" x2="486.22192" y2="182.98998978549537" stroke="#ffffff" stroke-width="1.3333333333333333"/><line x1="60.42666666666666" y1="111.47892407218247" x2="486.22192" y2="111.47892407218247" stroke="#ffffff" stroke-width="1.3333333333333333"/><line x1="60.42666666666666" y1="39.967858358869535" x2="486.22192" y2="39.967858358869535" stroke="#ffffff" stroke-width="1.3333333333333333"/><line x1="90.68484408023903" y1="340.0" x2="90.68484408023903" y2="343.66666666666663" stroke="#333333" stroke-width="1.3333333333333333"/><text x="90.68484408023903" y="355.9866666666667" fill="#4d4d4d" font-size="11.733333333333334" font-family="sans-serif" text-anchor="middle">20</text><line x1="199.72332124626547" y1="340.0" x2="199.72332124626547" y2="343.66666666666663" stroke="#333333" stroke-width="1.3333333333333333"/><text x="199.72332124626547" y="355.9866666666667" fill="#4d4d4d" font-size="11.733333333333334" font-family="sans-serif" text-anchor="middle">40</text><line x1="308.7617984122919" y1="340.0" x2="308.7617984122919" y2="343.66666666666663" stroke="#333333" stroke-width="1.3333333333333333"/><text x="308.7617984122919" y="355.9866666666667" fill="#4d4d4d" font-size="11.733333333333334" font-family="sans-serif" text-anchor="middle">60</text><line x1="417.8002755783184" y1="340.0" x2="417.8002755783184" y2="343.66666666666663" stroke="#333333" stroke-width="1.3333333333333333"/><text x="417.8002755783184" y="355.9866666666667" fill="#4d4d4d" font-size="11.733333333333334" font-family="sans-serif" text-anchor="middle">80</text><line x1="60.42666666666666" y1="326.0121212121212" x2="56.76" y2="326.0121212121212" stroke="#333333" stroke-width="1.3333333333333333"/><text x="53.82666666666666" y="330.1187878787879" fill="#4d4d4d" font-size="11.733333333333334" font-family="sans-serif" text-anchor="end">0.00</text><line x1="60.42666666666666" y1="254.50105549880828" x2="56.76" y2="254.50105549880828" stroke="#333333" stroke-width="1.3333333333333333"/><text x="53.82666666666666" y="258.60772216547497" fill="#4d4d4d" font-size="11.733333333333334" font-family="sans-serif" text-anchor="end">0.25</text><line x1="60.42666666666666" y1="182.98998978549537" x2="56.76" y2="182.98998978549537" stroke="#333333" stroke-width="1.3333333333333333"/><text x="53.82666666666666" y="187.09665645216205" fill="#4d4d4d" font-size="11.733333333333334" font-family="sans-serif" text-anchor="end">0.50</text><line x1="60.42666666666666" y1="111.47892407218247" x2="56.76" y2="111.47892407218247" stroke="#333333" stroke-width="1.3333333333333333"/><text x="53.82666666666666" y="115.58559073884913" fill="#4d4d4d" font-size="11.733333333333334" font-family="sans-serif" text-anchor="end">0.75</text><line x1="60.42666666666666" y1="39.967858358869535" x2="56.76" y2="39.967858358869535" stroke="#333333" stroke-width="1.3333333333333333"/><text x="53.82666666666666" y="44.0745250255362" fill="#4d4d4d" font-size="11.733333333333334" font-family="sans-serif" text-anchor="end">1.00</text><text x="60.42666666666666" y="21.413333333333334" fill="#000000" font-size="17.599999999999998" font-family="sans-serif" text-anchor="start">16.4 marital prop by age (fct_reorder2)</text><text x="273.32429333333334" y="373.73333333333335" fill="#000000" font-size="14.666666666666666" font-family="sans-serif" text-anchor="middle">age</text><text x="17.599999999999998" y="186.13333333333333" fill="#000000" font-size="14.666666666666666" font-family="sans-serif" text-anchor="middle" transform="rotate(-90.0 17.599999999999998 186.13333333333333)">prop</text><line x1="79.78099636363636" y1="326.0121212121212" x2="85.23292022193769" y2="326.0121212121212" stroke="#619CFF" stroke-width="1.4211023622047245"/><line x1="85.23292022193769" y1="326.0121212121212" x2="90.68484408023903" y2="326.0121212121212" stroke="#619CFF" stroke-width="1.4211023622047245"/><line x1="90.68484408023903" y1="326.0121212121212" x2="96.13676793854034" y2="326.0121212121212" stroke="#619CFF" stroke-width="1.4211023622047245"/><line x1="96.13676793854034" y1="326.0121212121212" x2="101.58869179684166" y2="326.0121212121212" stroke="#619CFF" stroke-width="1.4211023622047245"/><line x1="101.58869179684166" y1="326.0121212121212" x2="107.04061565514299" y2="326.0121212121212" stroke="#619CFF" stroke-width="1.4211023622047245"/><line x1="107.04061565514299" y1="326.0121212121212" x2="112.49253951344431" y2="326.0121212121212" stroke="#619CFF" stroke-width="1.4211023622047245"/><line x1="112.49253951344431" y1="326.0121212121212" x2="117.94446337174563" y2="326.0121212121212" stroke="#619CFF" stroke-width="1.4211023622047245"/><line x1="117.94446337174563" y1="326.0121212121212" x2="123.39638723004697" y2="326.0121212121212" stroke="#619CFF" stroke-width="1.4211023622047245"/><line x1="123.39638723004697" y1="326.0121212121212" x2="128.84831108834828" y2="326.0121212121212" stroke="#619CFF" stroke-width="1.4211023622047245"/><line x1="128.84831108834828" y1="326.0121212121212" x2="134.3002349466496" y2="325.2729887499681" stroke="#619CFF" stroke-width="1.4211023622047245"/><line x1="134.3002349466496" y1="325.2729887499681" x2="139.75215880495094" y2="326.0121212121212" stroke="#619CFF" stroke-width="1.4211023622047245"/><line x1="139.75215880495094" y1="326.0121212121212" x2="145.20408266325225" y2="326.0121212121212" stroke="#619CFF" stroke-width="1.4211023622047245"/><line x1="145.20408266325225" y1="326.0121212121212" x2="150.65600652155356" y2="326.0121212121212" stroke="#619CFF" stroke-width="1.4211023622047245"/><line x1="150.65600652155356" y1="326.0121212121212" x2="156.1079303798549" y2="326.0121212121212" stroke="#619CFF" stroke-width="1.4211023622047245"/><line x1="156.1079303798549" y1="326.0121212121212" x2="161.55985423815622" y2="326.0121212121212" stroke="#619CFF" stroke-width="1.4211023622047245"/><line x1="161.55985423815622" y1="326.0121212121212" x2="167.01177809645756" y2="326.0121212121212" stroke="#619CFF" stroke-width="1.4211023622047245"/><line x1="167.01177809645756" y1="326.0121212121212" x2="172.4637019547589" y2="326.0121212121212" stroke="#619CFF" stroke-width="1.4211023622047245"/><line x1="172.4637019547589" y1="326.0121212121212" x2="177.9156258130602" y2="326.0121212121212" stroke="#619CFF" stroke-width="1.4211023622047245"/><line x1="177.9156258130602" y1="326.0121212121212" x2="183.36754967136153" y2="326.0121212121212" stroke="#619CFF" stroke-width="1.4211023622047245"/><line x1="183.36754967136153" y1="326.0121212121212" x2="188.81947352966282" y2="326.0121212121212" stroke="#619CFF" stroke-width="1.4211023622047245"/><line x1="188.81947352966282" y1="326.0121212121212" x2="194.27139738796416" y2="326.0121212121212" stroke="#619CFF" stroke-width="1.4211023622047245"/><line x1="194.27139738796416" y1="326.0121212121212" x2="199.72332124626547" y2="325.37927992262286" stroke="#619CFF" stroke-width="1.4211023622047245"/><line x1="199.72332124626547" y1="325.37927992262286" x2="205.1752451045668" y2="326.0121212121212" stroke="#619CFF" stroke-width="1.4211023622047245"/><line x1="205.1752451045668" y1="326.0121212121212" x2="210.62716896286815" y2="326.0121212121212" stroke="#619CFF" stroke-width="1.4211023622047245"/><line x1="210.62716896286815" y1="326.0121212121212" x2="216.07909282116947" y2="324.73513789581204" stroke="#619CFF" stroke-width="1.4211023622047245"/><line x1="216.07909282116947" y1="324.73513789581204" x2="221.5310166794708" y2="326.0121212121212" stroke="#619CFF" stroke-width="1.4211023622047245"/><line x1="221.5310166794708" y1="326.0121212121212" x2="226.9829405377721" y2="325.30409085852403" stroke="#619CFF" stroke-width="1.4211023622047245"/><line x1="226.9829405377721" y1="325.30409085852403" x2="232.4348643960734" y2="326.0121212121212" stroke="#619CFF" stroke-width="1.4211023622047245"/><line x1="232.4348643960734" y1="326.0121212121212" x2="237.88678825437472" y2="326.0121212121212" stroke="#619CFF" stroke-width="1.4211023622047245"/><line x1="237.88678825437472" y1="326.0121212121212" x2="243.33871211267606" y2="326.0121212121212" stroke="#619CFF" stroke-width="1.4211023622047245"/><line x1="243.33871211267606" y1="326.0121212121212" x2="248.79063597097735" y2="326.0121212121212" stroke="#619CFF" stroke-width="1.4211023622047245"/><line x1="248.79063597097735" y1="326.0121212121212" x2="254.2425598292787" y2="325.3469019961834" stroke="#619CFF" stroke-width="1.4211023622047245"/><line x1="254.2425598292787" y1="325.3469019961834" x2="259.69448368758003" y2="326.0121212121212" stroke="#619CFF" stroke-width="1.4211023622047245"/><line x1="259.69448368758003" y1="326.0121212121212" x2="265.14640754588135" y2="326.0121212121212" stroke="#619CFF" stroke-width="1.4211023622047245"/><line x1="265.14640754588135" y1="326.0121212121212" x2="270.59833140418266" y2="326.0121212121212" stroke="#619CFF" stroke-width="1.4211023622047245"/><line x1="270.59833140418266" y1="326.0121212121212" x2="276.05025526248403" y2="326.0121212121212" stroke="#619CFF" stroke-width="1.4211023622047245"/><line x1="276.05025526248403" y1="326.0121212121212" x2="281.5021791207853" y2="326.0121212121212" stroke="#619CFF" stroke-width="1.4211023622047245"/><line x1="281.5021791207853" y1="326.0121212121212" x2="286.95410297908666" y2="326.0121212121212" stroke="#619CFF" stroke-width="1.4211023622047245"/><line x1="286.95410297908666" y1="326.0121212121212" x2="292.40602683738797" y2="326.0121212121212" stroke="#619CFF" stroke-width="1.4211023622047245"/><line x1="292.40602683738797" y1="326.0121212121212" x2="297.8579506956893" y2="326.0121212121212" stroke="#619CFF" stroke-width="1.4211023622047245"/><line x1="297.8579506956893" y1="326.0121212121212" x2="303.3098745539906" y2="326.0121212121212" stroke="#619CFF" stroke-width="1.4211023622047245"/><line x1="303.3098745539906" y1="326.0121212121212" x2="308.7617984122919" y2="326.0121212121212" stroke="#619CFF" stroke-width="1.4211023622047245"/><line x1="308.7617984122919" y1="326.0121212121212" x2="314.2137222705933" y2="326.0121212121212" stroke="#619CFF" stroke-width="1.4211023622047245"/><line x1="314.2137222705933" y1="326.0121212121212" x2="319.66564612889454" y2="325.08939778356233" stroke="#619CFF" stroke-width="1.4211023622047245"/><line x1="319.66564612889454" y1="325.08939778356233" x2="325.1175699871959" y2="325.0325175722128" stroke="#619CFF" stroke-width="1.4211023622047245"/><line x1="325.1175699871959" y1="325.0325175722128" x2="330.5694938454972" y2="324.88151147752336" stroke="#619CFF" stroke-width="1.4211023622047245"/><line x1="330.5694938454972" y1="324.88151147752336" x2="336.02141770379853" y2="326.0121212121212" stroke="#619CFF" stroke-width="1.4211023622047245"/><line x1="336.02141770379853" y1="326.0121212121212" x2="341.4733415620999" y2="326.0121212121212" stroke="#619CFF" stroke-width="1.4211023622047245"/><line x1="341.4733415620999" y1="326.0121212121212" x2="346.92526542040116" y2="326.0121212121212" stroke="#619CFF" stroke-width="1.4211023622047245"/><line x1="346.92526542040116" y1="326.0121212121212" x2="352.37718927870253" y2="326.0121212121212" stroke="#619CFF" stroke-width="1.4211023622047245"/><line x1="352.37718927870253" y1="326.0121212121212" x2="357.82911313700384" y2="326.0121212121212" stroke="#619CFF" stroke-width="1.4211023622047245"/><line x1="357.82911313700384" y1="326.0121212121212" x2="363.2810369953052" y2="326.0121212121212" stroke="#619CFF" stroke-width="1.4211023622047245"/><line x1="363.2810369953052" y1="326.0121212121212" x2="368.7329608536065" y2="326.0121212121212" stroke="#619CFF" stroke-width="1.4211023622047245"/><line x1="368.7329608536065" y1="326.0121212121212" x2="374.1848847119079" y2="326.0121212121212" stroke="#619CFF" stroke-width="1.4211023622047245"/><line x1="374.1848847119079" y1="326.0121212121212" x2="379.63680857020915" y2="326.0121212121212" stroke="#619CFF" stroke-width="1.4211023622047245"/><line x1="379.63680857020915" y1="326.0121212121212" x2="385.08873242851047" y2="326.0121212121212" stroke="#619CFF" stroke-width="1.4211023622047245"/><line x1="385.08873242851047" y1="326.0121212121212" x2="390.54065628681184" y2="326.0121212121212" stroke="#619CFF" stroke-width="1.4211023622047245"/><line x1="390.54065628681184" y1="326.0121212121212" x2="395.99258014511315" y2="326.0121212121212" stroke="#619CFF" stroke-width="1.4211023622047245"/><line x1="395.99258014511315" y1="326.0121212121212" x2="401.4445040034145" y2="326.0121212121212" stroke="#619CFF" stroke-width="1.4211023622047245"/><line x1="401.4445040034145" y1="326.0121212121212" x2="406.8964278617157" y2="326.0121212121212" stroke="#619CFF" stroke-width="1.4211023622047245"/><line x1="406.8964278617157" y1="326.0121212121212" x2="412.3483517200171" y2="326.0121212121212" stroke="#619CFF" stroke-width="1.4211023622047245"/><line x1="412.3483517200171" y1="326.0121212121212" x2="417.8002755783184" y2="326.0121212121212" stroke="#619CFF" stroke-width="1.4211023622047245"/><line x1="417.8002755783184" y1="326.0121212121212" x2="423.25219943661966" y2="326.0121212121212" stroke="#619CFF" stroke-width="1.4211023622047245"/><line x1="423.25219943661966" y1="326.0121212121212" x2="428.70412329492103" y2="326.0121212121212" stroke="#619CFF" stroke-width="1.4211023622047245"/><line x1="428.70412329492103" y1="326.0121212121212" x2="434.15604715322235" y2="326.0121212121212" stroke="#619CFF" stroke-width="1.4211023622047245"/><line x1="434.15604715322235" y1="326.0121212121212" x2="439.6079710115237" y2="326.0121212121212" stroke="#619CFF" stroke-width="1.4211023622047245"/><line x1="439.6079710115237" y1="326.0121212121212" x2="445.05989486982503" y2="326.0121212121212" stroke="#619CFF" stroke-width="1.4211023622047245"/><line x1="445.05989486982503" y1="326.0121212121212" x2="450.5118187281264" y2="322.14665820059076" stroke="#619CFF" stroke-width="1.4211023622047245"/><line x1="450.5118187281264" y1="322.14665820059076" x2="455.96374258642766" y2="326.0121212121212" stroke="#619CFF" stroke-width="1.4211023622047245"/><line x1="455.96374258642766" y1="326.0121212121212" x2="461.41566644472897" y2="326.0121212121212" stroke="#619CFF" stroke-width="1.4211023622047245"/><line x1="461.41566644472897" y1="326.0121212121212" x2="466.86759030303034" y2="326.0121212121212" stroke="#619CFF" stroke-width="1.4211023622047245"/><line x1="79.78099636363636" y1="46.25454545454545" x2="85.23292022193769" y2="57.19944045846303" stroke="#00BFC4" stroke-width="1.4211023622047245"/><line x1="85.23292022193769" y1="57.19944045846303" x2="90.68484408023903" y2="67.31870420937969" stroke="#00BFC4" stroke-width="1.4211023622047245"/><line x1="90.68484408023903" y1="67.31870420937969" x2="96.13676793854034" y2="78.03849765948215" stroke="#00BFC4" stroke-width="1.4211023622047245"/><line x1="96.13676793854034" y1="78.03849765948215" x2="101.58869179684166" y2="83.16246180986391" stroke="#00BFC4" stroke-width="1.4211023622047245"/><line x1="101.58869179684166" y1="83.16246180986391" x2="107.04061565514299" y2="103.35716868645996" stroke="#00BFC4" stroke-width="1.4211023622047245"/><line x1="107.04061565514299" y1="103.35716868645996" x2="112.49253951344431" y2="119.79416427140491" stroke="#00BFC4" stroke-width="1.4211023622047245"/><line x1="112.49253951344431" y1="119.79416427140491" x2="117.94446337174563" y2="131.70427599109928" stroke="#00BFC4" stroke-width="1.4211023622047245"/><line x1="117.94446337174563" y1="131.70427599109928" x2="123.39638723004697" y2="153.67045284303703" stroke="#00BFC4" stroke-width="1.4211023622047245"/><line x1="123.39638723004697" y1="153.67045284303703" x2="128.84831108834828" y2="165.5301451697774" stroke="#00BFC4" stroke-width="1.4211023622047245"/><line x1="128.84831108834828" y1="165.5301451697774" x2="134.3002349466496" y2="198.88133772178713" stroke="#00BFC4" stroke-width="1.4211023622047245"/><line x1="134.3002349466496" y1="198.88133772178713" x2="139.75215880495094" y2="198.96586616825675" stroke="#00BFC4" stroke-width="1.4211023622047245"/><line x1="139.75215880495094" y1="198.96586616825675" x2="145.20408266325225" y2="205.12043506398018" stroke="#00BFC4" stroke-width="1.4211023622047245"/><line x1="145.20408266325225" y1="205.12043506398018" x2="150.65600652155356" y2="210.75104232285025" stroke="#00BFC4" stroke-width="1.4211023622047245"/><line x1="150.65600652155356" y1="210.75104232285025" x2="156.1079303798549" y2="233.4494833450016" stroke="#00BFC4" stroke-width="1.4211023622047245"/><line x1="156.1079303798549" y1="233.4494833450016" x2="161.55985423815622" y2="242.5545009914078" stroke="#00BFC4" stroke-width="1.4211023622047245"/><line x1="161.55985423815622" y1="242.5545009914078" x2="167.01177809645756" y2="239.86231969396545" stroke="#00BFC4" stroke-width="1.4211023622047245"/><line x1="167.01177809645756" y1="239.86231969396545" x2="172.4637019547589" y2="251.24275754064774" stroke="#00BFC4" stroke-width="1.4211023622047245"/><line x1="172.4637019547589" y1="251.24275754064774" x2="177.9156258130602" y2="260.51600495132993" stroke="#00BFC4" stroke-width="1.4211023622047245"/><line x1="177.9156258130602" y1="260.51600495132993" x2="183.36754967136153" y2="243.72541545981596" stroke="#00BFC4" stroke-width="1.4211023622047245"/><line x1="183.36754967136153" y1="243.72541545981596" x2="188.81947352966282" y2="260.87997685351695" stroke="#00BFC4" stroke-width="1.4211023622047245"/><line x1="188.81947352966282" y1="260.87997685351695" x2="194.27139738796416" y2="263.9784256535847" stroke="#00BFC4" stroke-width="1.4211023622047245"/><line x1="194.27139738796416" y1="263.9784256535847" x2="199.72332124626547" y2="269.0564051572702" stroke="#00BFC4" stroke-width="1.4211023622047245"/><line x1="199.72332124626547" y1="269.0564051572702" x2="205.1752451045668" y2="269.9896273353323" stroke="#00BFC4" stroke-width="1.4211023622047245"/><line x1="205.1752451045668" y1="269.9896273353323" x2="210.62716896286815" y2="280.8100648600024" stroke="#00BFC4" stroke-width="1.4211023622047245"/><line x1="210.62716896286815" y1="280.8100648600024" x2="216.07909282116947" y2="280.04072182499146" stroke="#00BFC4" stroke-width="1.4211023622047245"/><line x1="216.07909282116947" y1="280.04072182499146" x2="221.5310166794708" y2="274.365240419173" stroke="#00BFC4" stroke-width="1.4211023622047245"/><line x1="221.5310166794708" y1="274.365240419173" x2="226.9829405377721" y2="282.11423928909744" stroke="#00BFC4" stroke-width="1.4211023622047245"/><line x1="226.9829405377721" y1="282.11423928909744" x2="232.4348643960734" y2="280.59751075911674" stroke="#00BFC4" stroke-width="1.4211023622047245"/><line x1="232.4348643960734" y1="280.59751075911674" x2="237.88678825437472" y2="283.2698750386468" stroke="#00BFC4" stroke-width="1.4211023622047245"/><line x1="237.88678825437472" y1="283.2698750386468" x2="243.33871211267606" y2="277.4385671427011" stroke="#00BFC4" stroke-width="1.4211023622047245"/><line x1="243.33871211267606" y1="277.4385671427011" x2="248.79063597097735" y2="288.28446064394655" stroke="#00BFC4" stroke-width="1.4211023622047245"/><line x1="248.79063597097735" y1="288.28446064394655" x2="254.2425598292787" y2="277.4511184486622" stroke="#00BFC4" stroke-width="1.4211023622047245"/><line x1="254.2425598292787" y1="277.4511184486622" x2="259.69448368758003" y2="279.8049710589036" stroke="#00BFC4" stroke-width="1.4211023622047245"/><line x1="259.69448368758003" y1="279.8049710589036" x2="265.14640754588135" y2="286.68103506979907" stroke="#00BFC4" stroke-width="1.4211023622047245"/><line x1="265.14640754588135" y1="286.68103506979907" x2="270.59833140418266" y2="288.4507533627043" stroke="#00BFC4" stroke-width="1.4211023622047245"/><line x1="270.59833140418266" y1="288.4507533627043" x2="276.05025526248403" y2="289.0554981044659" stroke="#00BFC4" stroke-width="1.4211023622047245"/><line x1="276.05025526248403" y1="289.0554981044659" x2="281.5021791207853" y2="291.5300730873456" stroke="#00BFC4" stroke-width="1.4211023622047245"/><line x1="281.5021791207853" y1="291.5300730873456" x2="286.95410297908666" y2="291.0014952899784" stroke="#00BFC4" stroke-width="1.4211023622047245"/><line x1="286.95410297908666" y1="291.0014952899784" x2="292.40602683738797" y2="294.8234944212682" stroke="#00BFC4" stroke-width="1.4211023622047245"/><line x1="292.40602683738797" y1="294.8234944212682" x2="297.8579506956893" y2="302.3213387058703" stroke="#00BFC4" stroke-width="1.4211023622047245"/><line x1="297.8579506956893" y1="302.3213387058703" x2="303.3098745539906" y2="293.2454409471976" stroke="#00BFC4" stroke-width="1.4211023622047245"/><line x1="303.3098745539906" y1="293.2454409471976" x2="308.7617984122919" y2="299.77729237055075" stroke="#00BFC4" stroke-width="1.4211023622047245"/><line x1="308.7617984122919" y1="299.77729237055075" x2="314.2137222705933" y2="301.7868741952334" stroke="#00BFC4" stroke-width="1.4211023622047245"/><line x1="314.2137222705933" y1="301.7868741952334" x2="319.66564612889454" y2="306.6349292123848" stroke="#00BFC4" stroke-width="1.4211023622047245"/><line x1="319.66564612889454" y1="306.6349292123848" x2="325.1175699871959" y2="308.37925569377006" stroke="#00BFC4" stroke-width="1.4211023622047245"/><line x1="325.1175699871959" y1="308.37925569377006" x2="330.5694938454972" y2="304.5305362547624" stroke="#00BFC4" stroke-width="1.4211023622047245"/><line x1="330.5694938454972" y1="304.5305362547624" x2="336.02141770379853" y2="298.401671129761" stroke="#00BFC4" stroke-width="1.4211023622047245"/><line x1="336.02141770379853" y1="298.401671129761" x2="341.4733415620999" y2="302.48467102072823" stroke="#00BFC4" stroke-width="1.4211023622047245"/><line x1="341.4733415620999" y1="302.48467102072823" x2="346.92526542040116" y2="313.345954591313" stroke="#00BFC4" stroke-width="1.4211023622047245"/><line x1="346.92526542040116" y1="313.345954591313" x2="352.37718927870253" y2="307.8727289336223" stroke="#00BFC4" stroke-width="1.4211023622047245"/><line x1="352.37718927870253" y1="307.8727289336223" x2="357.82911313700384" y2="308.93485178804644" stroke="#00BFC4" stroke-width="1.4211023622047245"/><line x1="357.82911313700384" y1="308.93485178804644" x2="363.2810369953052" y2="307.2110898508746" stroke="#00BFC4" stroke-width="1.4211023622047245"/><line x1="363.2810369953052" y1="307.2110898508746" x2="368.7329608536065" y2="309.3493486187279" stroke="#00BFC4" stroke-width="1.4211023622047245"/><line x1="368.7329608536065" y1="309.3493486187279" x2="374.1848847119079" y2="313.9044275463751" stroke="#00BFC4" stroke-width="1.4211023622047245"/><line x1="374.1848847119079" y1="313.9044275463751" x2="379.63680857020915" y2="312.8390301596688" stroke="#00BFC4" stroke-width="1.4211023622047245"/><line x1="379.63680857020915" y1="312.8390301596688" x2="385.08873242851047" y2="314.88817765671695" stroke="#00BFC4" stroke-width="1.4211023622047245"/><line x1="385.08873242851047" y1="314.88817765671695" x2="390.54065628681184" y2="306.8359695124619" stroke="#00BFC4" stroke-width="1.4211023622047245"/><line x1="390.54065628681184" y1="306.8359695124619" x2="395.99258014511315" y2="315.9754804102527" stroke="#00BFC4" stroke-width="1.4211023622047245"/><line x1="395.99258014511315" y1="315.9754804102527" x2="401.4445040034145" y2="321.8362925573292" stroke="#00BFC4" stroke-width="1.4211023622047245"/><line x1="401.4445040034145" y1="321.8362925573292" x2="406.8964278617157" y2="312.66338894563614" stroke="#00BFC4" stroke-width="1.4211023622047245"/><line x1="406.8964278617157" y1="312.66338894563614" x2="412.3483517200171" y2="321.77442842911006" stroke="#00BFC4" stroke-width="1.4211023622047245"/><line x1="412.3483517200171" y1="321.77442842911006" x2="417.8002755783184" y2="314.75053606041837" stroke="#00BFC4" stroke-width="1.4211023622047245"/><line x1="417.8002755783184" y1="314.75053606041837" x2="423.25219943661966" y2="313.99345470568204" stroke="#00BFC4" stroke-width="1.4211023622047245"/><line x1="423.25219943661966" y1="313.99345470568204" x2="428.70412329492103" y2="323.2878901373283" stroke="#00BFC4" stroke-width="1.4211023622047245"/><line x1="428.70412329492103" y1="323.2878901373283" x2="434.15604715322235" y2="300.00809731637105" stroke="#00BFC4" stroke-width="1.4211023622047245"/><line x1="434.15604715322235" y1="300.00809731637105" x2="439.6079710115237" y2="317.43079332652366" stroke="#00BFC4" stroke-width="1.4211023622047245"/><line x1="439.6079710115237" y1="317.43079332652366" x2="445.05989486982503" y2="322.19819770741117" stroke="#00BFC4" stroke-width="1.4211023622047245"/><line x1="445.05989486982503" y1="322.19819770741117" x2="450.5118187281264" y2="318.2811951890603" stroke="#00BFC4" stroke-width="1.4211023622047245"/><line x1="450.5118187281264" y1="318.2811951890603" x2="455.96374258642766" y2="320.71500523335726" stroke="#00BFC4" stroke-width="1.4211023622047245"/><line x1="455.96374258642766" y1="320.71500523335726" x2="461.41566644472897" y2="315.9754804102527" stroke="#00BFC4" stroke-width="1.4211023622047245"/><line x1="461.41566644472897" y1="315.9754804102527" x2="466.86759030303034" y2="314.4157321775299" stroke="#00BFC4" stroke-width="1.4211023622047245"/><line x1="79.78099636363636" y1="326.0121212121212" x2="85.23292022193769" y2="326.0121212121212" stroke="#F564E3" stroke-width="1.4211023622047245"/><line x1="85.23292022193769" y1="326.0121212121212" x2="90.68484408023903" y2="324.8725026350166" stroke="#F564E3" stroke-width="1.4211023622047245"/><line x1="90.68484408023903" y1="324.8725026350166" x2="96.13676793854034" y2="324.9831850148073" stroke="#F564E3" stroke-width="1.4211023622047245"/><line x1="96.13676793854034" y1="324.9831850148073" x2="101.58869179684166" y2="324.0923610587437" stroke="#F564E3" stroke-width="1.4211023622047245"/><line x1="101.58869179684166" y1="324.0923610587437" x2="107.04061565514299" y2="316.5037246629826" stroke="#F564E3" stroke-width="1.4211023622047245"/><line x1="107.04061565514299" y1="316.5037246629826" x2="112.49253951344431" y2="319.35992905274327" stroke="#F564E3" stroke-width="1.4211023622047245"/><line x1="112.49253951344431" y1="319.35992905274327" x2="117.94446337174563" y2="316.621779249767" stroke="#F564E3" stroke-width="1.4211023622047245"/><line x1="117.94446337174563" y1="316.621779249767" x2="123.39638723004697" y2="318.1459039836568" stroke="#F564E3" stroke-width="1.4211023622047245"/><line x1="123.39638723004697" y1="318.1459039836568" x2="128.84831108834828" y2="316.35348376512826" stroke="#F564E3" stroke-width="1.4211023622047245"/><line x1="128.84831108834828" y1="316.35348376512826" x2="134.3002349466496" y2="311.9686044312122" stroke="#F564E3" stroke-width="1.4211023622047245"/><line x1="134.3002349466496" y1="311.9686044312122" x2="139.75215880495094" y2="319.1653170480806" stroke="#F564E3" stroke-width="1.4211023622047245"/><line x1="139.75215880495094" y1="319.1653170480806" x2="145.20408266325225" y2="312.7999150757123" stroke="#F564E3" stroke-width="1.4211023622047245"/><line x1="145.20408266325225" y1="312.7999150757123" x2="150.65600652155356" y2="317.57838373241844" stroke="#F564E3" stroke-width="1.4211023622047245"/><line x1="150.65600652155356" y1="317.57838373241844" x2="156.1079303798549" y2="312.5134031898329" stroke="#F564E3" stroke-width="1.4211023622047245"/><line x1="156.1079303798549" y1="312.5134031898329" x2="161.55985423815622" y2="313.22426004926996" stroke="#F564E3" stroke-width="1.4211023622047245"/><line x1="161.55985423815622" y1="313.22426004926996" x2="167.01177809645756" y2="313.8973053736305" stroke="#F564E3" stroke-width="1.4211023622047245"/><line x1="167.01177809645756" y1="313.8973053736305" x2="172.4637019547589" y2="313.6648868443549" stroke="#F564E3" stroke-width="1.4211023622047245"/><line x1="172.4637019547589" y1="313.6648868443549" x2="177.9156258130602" y2="312.6455668731842" stroke="#F564E3" stroke-width="1.4211023622047245"/><line x1="177.9156258130602" y1="312.6455668731842" x2="183.36754967136153" y2="310.33846297358684" stroke="#F564E3" stroke-width="1.4211023622047245"/><line x1="183.36754967136153" y1="310.33846297358684" x2="188.81947352966282" y2="313.92574390846266" stroke="#F564E3" stroke-width="1.4211023622047245"/><line x1="188.81947352966282" y1="313.92574390846266" x2="194.27139738796416" y2="312.2268555324464" stroke="#F564E3" stroke-width="1.4211023622047245"/><line x1="194.27139738796416" y1="312.2268555324464" x2="199.72332124626547" y2="313.98813671165266" stroke="#F564E3" stroke-width="1.4211023622047245"/><line x1="199.72332124626547" y1="313.98813671165266" x2="205.1752451045668" y2="312.171269783738" stroke="#F564E3" stroke-width="1.4211023622047245"/><line x1="205.1752451045668" y1="312.171269783738" x2="210.62716896286815" y2="313.2990428630878" stroke="#F564E3" stroke-width="1.4211023622047245"/><line x1="210.62716896286815" y1="313.2990428630878" x2="216.07909282116947" y2="310.68832141641127" stroke="#F564E3" stroke-width="1.4211023622047245"/><line x1="216.07909282116947" y1="310.68832141641127" x2="221.5310166794708" y2="309.45863377848394" stroke="#F564E3" stroke-width="1.4211023622047245"/><line x1="221.5310166794708" y1="309.45863377848394" x2="226.9829405377721" y2="314.68363555456665" stroke="#F564E3" stroke-width="1.4211023622047245"/><line x1="226.9829405377721" y1="314.68363555456665" x2="232.4348643960734" y2="312.455521076896" stroke="#F564E3" stroke-width="1.4211023622047245"/><line x1="232.4348643960734" y1="312.455521076896" x2="237.88678825437472" y2="314.8333799052125" stroke="#F564E3" stroke-width="1.4211023622047245"/><line x1="237.88678825437472" y1="314.8333799052125" x2="243.33871211267606" y2="315.2179980855834" stroke="#F564E3" stroke-width="1.4211023622047245"/><line x1="243.33871211267606" y1="315.2179980855834" x2="248.79063597097735" y2="310.2350995199754" stroke="#F564E3" stroke-width="1.4211023622047245"/><line x1="248.79063597097735" y1="310.2350995199754" x2="254.2425598292787" y2="314.7033945411787" stroke="#F564E3" stroke-width="1.4211023622047245"/><line x1="254.2425598292787" y1="314.7033945411787" x2="259.69448368758003" y2="315.01041879468846" stroke="#F564E3" stroke-width="1.4211023622047245"/><line x1="259.69448368758003" y1="315.01041879468846" x2="265.14640754588135" y2="313.855240040858" stroke="#F564E3" stroke-width="1.4211023622047245"/><line x1="265.14640754588135" y1="313.855240040858" x2="270.59833140418266" y2="311.5654412700378" stroke="#F564E3" stroke-width="1.4211023622047245"/><line x1="270.59833140418266" y1="311.5654412700378" x2="276.05025526248403" y2="320.09906151489633" stroke="#F564E3" stroke-width="1.4211023622047245"/><line x1="276.05025526248403" y1="320.09906151489633" x2="281.5021791207853" y2="316.6079262690006" stroke="#F564E3" stroke-width="1.4211023622047245"/><line x1="281.5021791207853" y1="316.6079262690006" x2="286.95410297908666" y2="311.85888945636134" stroke="#F564E3" stroke-width="1.4211023622047245"/><line x1="286.95410297908666" y1="311.85888945636134" x2="292.40602683738797" y2="312.6455668731842" stroke="#F564E3" stroke-width="1.4211023622047245"/><line x1="292.40602683738797" y1="312.6455668731842" x2="297.8579506956893" y2="315.48288454267635" stroke="#F564E3" stroke-width="1.4211023622047245"/><line x1="297.8579506956893" y1="315.48288454267635" x2="303.3098745539906" y2="318.92743358727284" stroke="#F564E3" stroke-width="1.4211023622047245"/><line x1="303.3098745539906" y1="318.92743358727284" x2="308.7617984122919" y2="319.2418428013933" stroke="#F564E3" stroke-width="1.4211023622047245"/><line x1="308.7617984122919" y1="319.2418428013933" x2="314.2137222705933" y2="313.8994977036773" stroke="#F564E3" stroke-width="1.4211023622047245"/><line x1="314.2137222705933" y1="313.8994977036773" x2="319.66564612889454" y2="314.0167166408558" stroke="#F564E3" stroke-width="1.4211023622047245"/><line x1="319.66564612889454" y1="314.0167166408558" x2="325.1175699871959" y2="317.19568845294566" stroke="#F564E3" stroke-width="1.4211023622047245"/><line x1="325.1175699871959" y1="317.19568845294566" x2="330.5694938454972" y2="315.8366336007407" stroke="#F564E3" stroke-width="1.4211023622047245"/><line x1="330.5694938454972" y1="315.8366336007407" x2="336.02141770379853" y2="320.4900311956492" stroke="#F564E3" stroke-width="1.4211023622047245"/><line x1="336.02141770379853" y1="320.4900311956492" x2="341.4733415620999" y2="319.8206869512283" stroke="#F564E3" stroke-width="1.4211023622047245"/><line x1="341.4733415620999" y1="319.8206869512283" x2="346.92526542040116" y2="319.6790379017171" stroke="#F564E3" stroke-width="1.4211023622047245"/><line x1="346.92526542040116" y1="319.6790379017171" x2="352.37718927870253" y2="317.64009400666015" stroke="#F564E3" stroke-width="1.4211023622047245"/><line x1="352.37718927870253" y1="317.64009400666015" x2="357.82911313700384" y2="321.7428038561025" stroke="#F564E3" stroke-width="1.4211023622047245"/><line x1="357.82911313700384" y1="321.7428038561025" x2="363.2810369953052" y2="315.26867471998025" stroke="#F564E3" stroke-width="1.4211023622047245"/><line x1="363.2810369953052" y1="315.26867471998025" x2="368.7329608536065" y2="320.4578636809901" stroke="#F564E3" stroke-width="1.4211023622047245"/><line x1="368.7329608536065" y1="320.4578636809901" x2="374.1848847119079" y2="315.4178892545934" stroke="#F564E3" stroke-width="1.4211023622047245"/><line x1="374.1848847119079" y1="315.4178892545934" x2="379.63680857020915" y2="322.2483809114205" stroke="#F564E3" stroke-width="1.4211023622047245"/><line x1="379.63680857020915" y1="322.2483809114205" x2="385.08873242851047" y2="316.4773124503461" stroke="#F564E3" stroke-width="1.4211023622047245"/><line x1="385.08873242851047" y1="316.4773124503461" x2="390.54065628681184" y2="319.6200706455681" stroke="#F564E3" stroke-width="1.4211023622047245"/><line x1="390.54065628681184" y1="319.6200706455681" x2="395.99258014511315" y2="324.33934774514313" stroke="#F564E3" stroke-width="1.4211023622047245"/><line x1="395.99258014511315" y1="324.33934774514313" x2="401.4445040034145" y2="319.7483782299332" stroke="#F564E3" stroke-width="1.4211023622047245"/><line x1="401.4445040034145" y1="319.7483782299332" x2="406.8964278617157" y2="318.38427420270114" stroke="#F564E3" stroke-width="1.4211023622047245"/><line x1="406.8964278617157" y1="318.38427420270114" x2="412.3483517200171" y2="326.0121212121212" stroke="#F564E3" stroke-width="1.4211023622047245"/><line x1="412.3483517200171" y1="326.0121212121212" x2="417.8002755783184" y2="326.0121212121212" stroke="#F564E3" stroke-width="1.4211023622047245"/><line x1="417.8002755783184" y1="326.0121212121212" x2="423.25219943661966" y2="323.60838791083336" stroke="#F564E3" stroke-width="1.4211023622047245"/><line x1="423.25219943661966" y1="323.60838791083336" x2="428.70412329492103" y2="323.2878901373283" stroke="#F564E3" stroke-width="1.4211023622047245"/><line x1="428.70412329492103" y1="323.2878901373283" x2="434.15604715322235" y2="323.1227852237045" stroke="#F564E3" stroke-width="1.4211023622047245"/><line x1="434.15604715322235" y1="323.1227852237045" x2="439.6079710115237" y2="326.0121212121212" stroke="#F564E3" stroke-width="1.4211023622047245"/><line x1="439.6079710115237" y1="326.0121212121212" x2="445.05989486982503" y2="326.0121212121212" stroke="#F564E3" stroke-width="1.4211023622047245"/><line x1="445.05989486982503" y1="326.0121212121212" x2="450.5118187281264" y2="322.14665820059076" stroke="#F564E3" stroke-width="1.4211023622047245"/><line x1="450.5118187281264" y1="322.14665820059076" x2="455.96374258642766" y2="326.0121212121212" stroke="#F564E3" stroke-width="1.4211023622047245"/><line x1="455.96374258642766" y1="326.0121212121212" x2="461.41566644472897" y2="326.0121212121212" stroke="#F564E3" stroke-width="1.4211023622047245"/><line x1="461.41566644472897" y1="326.0121212121212" x2="466.86759030303034" y2="326.0121212121212" stroke="#F564E3" stroke-width="1.4211023622047245"/><line x1="79.78099636363636" y1="326.0121212121212" x2="85.23292022193769" y2="322.56580479220247" stroke="#00BA38" stroke-width="1.4211023622047245"/><line x1="85.23292022193769" y1="322.56580479220247" x2="90.68484408023903" y2="323.73288405791203" stroke="#00BA38" stroke-width="1.4211023622047245"/><line x1="90.68484408023903" y1="323.73288405791203" x2="96.13676793854034" y2="324.9831850148073" stroke="#00BA38" stroke-width="1.4211023622047245"/><line x1="96.13676793854034" y1="324.9831850148073" x2="101.58869179684166" y2="319.29296067529987" stroke="#00BA38" stroke-width="1.4211023622047245"/><line x1="101.58869179684166" y1="319.29296067529987" x2="107.04061565514299" y2="318.8808238002673" stroke="#00BA38" stroke-width="1.4211023622047245"/><line x1="107.04061565514299" y1="318.8808238002673" x2="112.49253951344431" y2="320.19145307266547" stroke="#00BA38" stroke-width="1.4211023622047245"/><line x1="112.49253951344431" y1="320.19145307266547" x2="117.94446337174563" y2="313.7324432613503" stroke="#00BA38" stroke-width="1.4211023622047245"/><line x1="117.94446337174563" y1="313.7324432613503" x2="123.39638723004697" y2="311.7099080694586" stroke="#00BA38" stroke-width="1.4211023622047245"/><line x1="123.39638723004697" y1="311.7099080694586" x2="128.84831108834828" y2="308.9237626520568" stroke="#00BA38" stroke-width="1.4211023622047245"/><line x1="128.84831108834828" y1="308.9237626520568" x2="134.3002349466496" y2="303.0990148853749" stroke="#00BA38" stroke-width="1.4211023622047245"/><line x1="134.3002349466496" y1="303.0990148853749" x2="139.75215880495094" y2="307.7539767746796" stroke="#00BA38" stroke-width="1.4211023622047245"/><line x1="139.75215880495094" y1="307.7539767746796" x2="145.20408266325225" y2="303.55137078022614" stroke="#00BA38" stroke-width="1.4211023622047245"/><line x1="145.20408266325225" y1="303.55137078022614" x2="150.65600652155356" y2="304.2249660562224" stroke="#00BA38" stroke-width="1.4211023622047245"/><line x1="150.65600652155356" y1="304.2249660562224" x2="156.1079303798549" y2="304.1570539379402" stroke="#00BA38" stroke-width="1.4211023622047245"/><line x1="156.1079303798549" y1="304.1570539379402" x2="161.55985423815622" y2="284.95635642612507" stroke="#00BA38" stroke-width="1.4211023622047245"/><line x1="161.55985423815622" y1="284.95635642612507" x2="167.01177809645756" y2="293.70594564281276" stroke="#00BA38" stroke-width="1.4211023622047245"/><line x1="167.01177809645756" y1="293.70594564281276" x2="172.4637019547589" y2="284.1687158546911" stroke="#00BA38" stroke-width="1.4211023622047245"/><line x1="172.4637019547589" y1="284.1687158546911" x2="177.9156258130602" y2="287.2491136292039" stroke="#00BA38" stroke-width="1.4211023622047245"/><line x1="177.9156258130602" y1="287.2491136292039" x2="183.36754967136153" y2="282.2564919628795" stroke="#00BA38" stroke-width="1.4211023622047245"/><line x1="183.36754967136153" y1="282.2564919628795" x2="188.81947352966282" y2="274.3092849686931" stroke="#00BA38" stroke-width="1.4211023622047245"/><line x1="188.81947352966282" y1="274.3092849686931" x2="194.27139738796416" y2="275.6959014813083" stroke="#00BA38" stroke-width="1.4211023622047245"/><line x1="194.27139738796416" y1="275.6959014813083" x2="199.72332124626547" y2="279.1818657892437" stroke="#00BA38" stroke-width="1.4211023622047245"/><line x1="199.72332124626547" y1="279.1818657892437" x2="205.1752451045668" y2="271.9668918251013" stroke="#00BA38" stroke-width="1.4211023622047245"/><line x1="205.1752451045668" y1="271.9668918251013" x2="210.62716896286815" y2="270.9221150329764" stroke="#00BA38" stroke-width="1.4211023622047245"/><line x1="210.62716896286815" y1="270.9221150329764" x2="216.07909282116947" y2="269.1863636363636" stroke="#00BA38" stroke-width="1.4211023622047245"/><line x1="216.07909282116947" y1="269.1863636363636" x2="221.5310166794708" y2="266.4195664510271" stroke="#00BA38" stroke-width="1.4211023622047245"/><line x1="221.5310166794708" y1="266.4195664510271" x2="226.9829405377721" y2="266.53757150995995" stroke="#00BA38" stroke-width="1.4211023622047245"/><line x1="226.9829405377721" y1="266.53757150995995" x2="232.4348643960734" y2="250.77299046162136" stroke="#00BA38" stroke-width="1.4211023622047245"/><line x1="232.4348643960734" y1="250.77299046162136" x2="237.88678825437472" y2="261.5699654428829" stroke="#00BA38" stroke-width="1.4211023622047245"/><line x1="237.88678825437472" y1="261.5699654428829" x2="243.33871211267606" y2="263.94591323452886" stroke="#00BA38" stroke-width="1.4211023622047245"/><line x1="243.33871211267606" y1="263.94591323452886" x2="248.79063597097735" y2="258.78828965428266" stroke="#00BA38" stroke-width="1.4211023622047245"/><line x1="248.79063597097735" y1="258.78828965428266" x2="254.2425598292787" y2="256.16410353865274" stroke="#00BA38" stroke-width="1.4211023622047245"/><line x1="254.2425598292787" y1="256.16410353865274" x2="259.69448368758003" y2="258.53501305186694" stroke="#00BA38" stroke-width="1.4211023622047245"/><line x1="259.69448368758003" y1="258.53501305186694" x2="265.14640754588135" y2="258.07660878447393" stroke="#00BA38" stroke-width="1.4211023622047245"/><line x1="265.14640754588135" y1="258.07660878447393" x2="270.59833140418266" y2="266.058399452475" stroke="#00BA38" stroke-width="1.4211023622047245"/><line x1="270.59833140418266" y1="266.058399452475" x2="276.05025526248403" y2="259.49019961834176" stroke="#00BA38" stroke-width="1.4211023622047245"/><line x1="276.05025526248403" y1="259.49019961834176" x2="281.5021791207853" y2="254.69697622678996" stroke="#00BA38" stroke-width="1.4211023622047245"/><line x1="281.5021791207853" y1="254.69697622678996" x2="286.95410297908666" y2="258.22559017137667" stroke="#00BA38" stroke-width="1.4211023622047245"/><line x1="286.95410297908666" y1="258.22559017137667" x2="292.40602683738797" y2="255.61493502705304" stroke="#00BA38" stroke-width="1.4211023622047245"/><line x1="292.40602683738797" y1="255.61493502705304" x2="297.8579506956893" y2="263.71413758457254" stroke="#00BA38" stroke-width="1.4211023622047245"/><line x1="297.8579506956893" y1="263.71413758457254" x2="303.3098745539906" y2="255.1652449636378" stroke="#00BA38" stroke-width="1.4211023622047245"/><line x1="303.3098745539906" y1="255.1652449636378" x2="308.7617984122919" y2="252.38534349545586" stroke="#00BA38" stroke-width="1.4211023622047245"/><line x1="308.7617984122919" y1="252.38534349545586" x2="314.2137222705933" y2="264.5172634000215" stroke="#00BA38" stroke-width="1.4211023622047245"/><line x1="314.2137222705933" y1="264.5172634000215" x2="319.66564612889454" y2="274.33960921282414" stroke="#00BA38" stroke-width="1.4211023622047245"/><line x1="319.66564612889454" y1="274.33960921282414" x2="325.1175699871959" y2="248.62343365935794" stroke="#00BA38" stroke-width="1.4211023622047245"/><line x1="325.1175699871959" y1="248.62343365935794" x2="330.5694938454972" y2="262.6979760746426" stroke="#00BA38" stroke-width="1.4211023622047245"/><line x1="330.5694938454972" y1="262.6979760746426" x2="336.02141770379853" y2="257.5382050078679" stroke="#00BA38" stroke-width="1.4211023622047245"/><line x1="336.02141770379853" y1="257.5382050078679" x2="341.4733415620999" y2="251.71491008140652" stroke="#00BA38" stroke-width="1.4211023622047245"/><line x1="341.4733415620999" y1="251.71491008140652" x2="346.92526542040116" y2="265.8478297632823" stroke="#00BA38" stroke-width="1.4211023622047245"/><line x1="346.92526542040116" y1="265.8478297632823" x2="352.37718927870253" y2="259.035903568433" stroke="#00BA38" stroke-width="1.4211023622047245"/><line x1="352.37718927870253" y1="259.035903568433" x2="357.82911313700384" y2="277.62652451057613" stroke="#00BA38" stroke-width="1.4211023622047245"/><line x1="357.82911313700384" y1="277.62652451057613" x2="363.2810369953052" y2="276.3236811859695" stroke="#00BA38" stroke-width="1.4211023622047245"/><line x1="363.2810369953052" y1="276.3236811859695" x2="368.7329608536065" y2="291.29801164255184" stroke="#00BA38" stroke-width="1.4211023622047245"/><line x1="368.7329608536065" y1="291.29801164255184" x2="374.1848847119079" y2="285.1486550902281" stroke="#00BA38" stroke-width="1.4211023622047245"/><line x1="374.1848847119079" y1="285.1486550902281" x2="379.63680857020915" y2="269.55601670161104" stroke="#00BA38" stroke-width="1.4211023622047245"/><line x1="379.63680857020915" y1="269.55601670161104" x2="385.08873242851047" y2="273.5706730223584" stroke="#00BA38" stroke-width="1.4211023622047245"/><line x1="385.08873242851047" y1="273.5706730223584" x2="390.54065628681184" y2="290.85584309607907" stroke="#00BA38" stroke-width="1.4211023622047245"/><line x1="390.54065628681184" y1="290.85584309607907" x2="395.99258014511315" y2="294.22942533953767" stroke="#00BA38" stroke-width="1.4211023622047245"/><line x1="395.99258014511315" y1="294.22942533953767" x2="401.4445040034145" y2="282.16592033680524" stroke="#00BA38" stroke-width="1.4211023622047245"/><line x1="401.4445040034145" y1="282.16592033680524" x2="406.8964278617157" y2="293.593771422086" stroke="#00BA38" stroke-width="1.4211023622047245"/><line x1="406.8964278617157" y1="293.593771422086" x2="412.3483517200171" y2="304.8236572970655" stroke="#00BA38" stroke-width="1.4211023622047245"/><line x1="412.3483517200171" y1="304.8236572970655" x2="417.8002755783184" y2="312.4982190300778" stroke="#00BA38" stroke-width="1.4211023622047245"/><line x1="417.8002755783184" y1="312.4982190300778" x2="423.25219943661966" y2="301.9747881992429" stroke="#00BA38" stroke-width="1.4211023622047245"/><line x1="423.25219943661966" y1="301.9747881992429" x2="428.70412329492103" y2="301.49404153898536" stroke="#00BA38" stroke-width="1.4211023622047245"/><line x1="428.70412329492103" y1="301.49404153898536" x2="434.15604715322235" y2="305.78676929320443" stroke="#00BA38" stroke-width="1.4211023622047245"/><line x1="434.15604715322235" y1="305.78676929320443" x2="439.6079710115237" y2="305.9890228123936" stroke="#00BA38" stroke-width="1.4211023622047245"/><line x1="439.6079710115237" y1="305.9890228123936" x2="445.05989486982503" y2="310.75642719328107" stroke="#00BA38" stroke-width="1.4211023622047245"/><line x1="445.05989486982503" y1="310.75642719328107" x2="450.5118187281264" y2="310.55026916599945" stroke="#00BA38" stroke-width="1.4211023622047245"/><line x1="450.5118187281264" y1="310.55026916599945" x2="455.96374258642766" y2="326.0121212121212" stroke="#00BA38" stroke-width="1.4211023622047245"/><line x1="455.96374258642766" y1="326.0121212121212" x2="461.41566644472897" y2="320.99380081118693" stroke="#00BA38" stroke-width="1.4211023622047245"/><line x1="461.41566644472897" y1="320.99380081118693" x2="466.86759030303034" y2="308.61753766023423" stroke="#00BA38" stroke-width="1.4211023622047245"/><line x1="79.78099636363636" y1="326.0121212121212" x2="85.23292022193769" y2="324.8633490721483" stroke="#F8766D" stroke-width="1.4211023622047245"/><line x1="85.23292022193769" y1="324.8633490721483" x2="90.68484408023903" y2="326.0121212121212" stroke="#F8766D" stroke-width="1.4211023622047245"/><line x1="90.68484408023903" y1="326.0121212121212" x2="96.13676793854034" y2="326.0121212121212" stroke="#F8766D" stroke-width="1.4211023622047245"/><line x1="96.13676793854034" y1="326.0121212121212" x2="101.58869179684166" y2="326.0121212121212" stroke="#F8766D" stroke-width="1.4211023622047245"/><line x1="101.58869179684166" y1="326.0121212121212" x2="107.04061565514299" y2="326.0121212121212" stroke="#F8766D" stroke-width="1.4211023622047245"/><line x1="107.04061565514299" y1="326.0121212121212" x2="112.49253951344431" y2="324.3490731722767" stroke="#F8766D" stroke-width="1.4211023622047245"/><line x1="112.49253951344431" y1="324.3490731722767" x2="117.94446337174563" y2="325.289787215017" stroke="#F8766D" stroke-width="1.4211023622047245"/><line x1="117.94446337174563" y1="325.289787215017" x2="123.39638723004697" y2="326.0121212121212" stroke="#F8766D" stroke-width="1.4211023622047245"/><line x1="123.39638723004697" y1="326.0121212121212" x2="128.84831108834828" y2="326.0121212121212" stroke="#F8766D" stroke-width="1.4211023622047245"/><line x1="128.84831108834828" y1="326.0121212121212" x2="134.3002349466496" y2="325.2729887499681" stroke="#F8766D" stroke-width="1.4211023622047245"/><line x1="134.3002349466496" y1="325.2729887499681" x2="139.75215880495094" y2="325.25136519389446" stroke="#F8766D" stroke-width="1.4211023622047245"/><line x1="139.75215880495094" y1="325.25136519389446" x2="145.20408266325225" y2="325.35151090530076" stroke="#F8766D" stroke-width="1.4211023622047245"/><line x1="145.20408266325225" y1="325.35151090530076" x2="150.65600652155356" y2="323.2008753855536" stroke="#F8766D" stroke-width="1.4211023622047245"/><line x1="150.65600652155356" y1="323.2008753855536" x2="156.1079303798549" y2="323.44093682692346" stroke="#F8766D" stroke-width="1.4211023622047245"/><line x1="156.1079303798549" y1="323.44093682692346" x2="161.55985423815622" y2="324.6660305634" stroke="#F8766D" stroke-width="1.4211023622047245"/><line x1="161.55985423815622" y1="324.6660305634" x2="167.01177809645756" y2="323.3199399146788" stroke="#F8766D" stroke-width="1.4211023622047245"/><line x1="167.01177809645756" y1="323.3199399146788" x2="172.4637019547589" y2="322.5823338877417" stroke="#F8766D" stroke-width="1.4211023622047245"/><line x1="172.4637019547589" y1="322.5823338877417" x2="177.9156258130602" y2="321.3338271934932" stroke="#F8766D" stroke-width="1.4211023622047245"/><line x1="177.9156258130602" y1="321.3338271934932" x2="183.36754967136153" y2="324.05291393230436" stroke="#F8766D" stroke-width="1.4211023622047245"/><line x1="183.36754967136153" y1="324.05291393230436" x2="188.81947352966282" y2="322.65479418332717" stroke="#F8766D" stroke-width="1.4211023622047245"/><line x1="188.81947352966282" y1="322.65479418332717" x2="194.27139738796416" y2="323.25506807618626" stroke="#F8766D" stroke-width="1.4211023622047245"/><line x1="194.27139738796416" y1="323.25506807618626" x2="199.72332124626547" y2="322.8479147646295" stroke="#F8766D" stroke-width="1.4211023622047245"/><line x1="199.72332124626547" y1="322.8479147646295" x2="205.1752451045668" y2="321.3985040693268" stroke="#F8766D" stroke-width="1.4211023622047245"/><line x1="205.1752451045668" y1="321.3985040693268" x2="210.62716896286815" y2="321.0681462986082" stroke="#F8766D" stroke-width="1.4211023622047245"/><line x1="210.62716896286815" y1="321.0681462986082" x2="216.07909282116947" y2="319.6272046305754" stroke="#F8766D" stroke-width="1.4211023622047245"/><line x1="216.07909282116947" y1="319.6272046305754" x2="221.5310166794708" y2="322.70142372539374" stroke="#F8766D" stroke-width="1.4211023622047245"/><line x1="221.5310166794708" y1="322.70142372539374" x2="226.9829405377721" y2="323.88803015132976" stroke="#F8766D" stroke-width="1.4211023622047245"/><line x1="226.9829405377721" y1="323.88803015132976" x2="232.4348643960734" y2="317.8781611309861" stroke="#F8766D" stroke-width="1.4211023622047245"/><line x1="232.4348643960734" y1="317.8781611309861" x2="237.88678825437472" y2="318.7788180135332" stroke="#F8766D" stroke-width="1.4211023622047245"/><line x1="237.88678825437472" y1="318.7788180135332" x2="243.33871211267606" y2="315.892630780992" stroke="#F8766D" stroke-width="1.4211023622047245"/><line x1="243.33871211267606" y1="315.892630780992" x2="248.79063597097735" y2="317.09467416873446" stroke="#F8766D" stroke-width="1.4211023622047245"/><line x1="248.79063597097735" y1="317.09467416873446" x2="254.2425598292787" y2="318.02949062086765" stroke="#F8766D" stroke-width="1.4211023622047245"/><line x1="254.2425598292787" y1="318.02949062086765" x2="259.69448368758003" y2="316.4773124503461" stroke="#F8766D" stroke-width="1.4211023622047245"/><line x1="259.69448368758003" y1="316.4773124503461" x2="265.14640754588135" y2="321.7214572693224" stroke="#F8766D" stroke-width="1.4211023622047245"/><line x1="265.14640754588135" y1="321.7214572693224" x2="270.59833140418266" y2="313.0101092642461" stroke="#F8766D" stroke-width="1.4211023622047245"/><line x1="270.59833140418266" y1="313.0101092642461" x2="276.05025526248403" y2="312.70773689336534" stroke="#F8766D" stroke-width="1.4211023622047245"/><line x1="276.05025526248403" y1="312.70773689336534" x2="281.5021791207853" y2="313.4731946212937" stroke="#F8766D" stroke-width="1.4211023622047245"/><line x1="281.5021791207853" y1="313.4731946212937" x2="286.95410297908666" y2="312.603796390875" stroke="#F8766D" stroke-width="1.4211023622047245"/><line x1="286.95410297908666" y1="312.603796390875" x2="292.40602683738797" y2="305.51673789241784" stroke="#F8766D" stroke-width="1.4211023622047245"/><line x1="292.40602683738797" y1="305.51673789241784" x2="297.8579506956893" y2="309.3408298188335" stroke="#F8766D" stroke-width="1.4211023622047245"/><line x1="297.8579506956893" y1="309.3408298188335" x2="303.3098745539906" y2="304.7580583375762" stroke="#F8766D" stroke-width="1.4211023622047245"/><line x1="303.3098745539906" y1="304.7580583375762" x2="308.7617984122919" y2="305.70128597993767" stroke="#F8766D" stroke-width="1.4211023622047245"/><line x1="308.7617984122919" y1="305.70128597993767" x2="314.2137222705933" y2="297.12817284583195" stroke="#F8766D" stroke-width="1.4211023622047245"/><line x1="314.2137222705933" y1="297.12817284583195" x2="319.66564612889454" y2="294.6395246411194" stroke="#F8766D" stroke-width="1.4211023622047245"/><line x1="319.66564612889454" y1="294.6395246411194" x2="325.1175699871959" y2="295.6444083749609" stroke="#F8766D" stroke-width="1.4211023622047245"/><line x1="325.1175699871959" y1="295.6444083749609" x2="330.5694938454972" y2="285.31017076659924" stroke="#F8766D" stroke-width="1.4211023622047245"/><line x1="330.5694938454972" y1="285.31017076659924" x2="336.02141770379853" y2="299.5060891330554" stroke="#F8766D" stroke-width="1.4211023622047245"/><line x1="336.02141770379853" y1="299.5060891330554" x2="341.4733415620999" y2="286.3869419424067" stroke="#F8766D" stroke-width="1.4211023622047245"/><line x1="341.4733415620999" y1="286.3869419424067" x2="346.92526542040116" y2="272.1809130736864" stroke="#F8766D" stroke-width="1.4211023622047245"/><line x1="346.92526542040116" y1="272.1809130736864" x2="352.37718927870253" y2="275.77995797935506" stroke="#F8766D" stroke-width="1.4211023622047245"/><line x1="352.37718927870253" y1="275.77995797935506" x2="357.82911313700384" y2="261.972360871841" stroke="#F8766D" stroke-width="1.4211023622047245"/><line x1="357.82911313700384" y1="261.972360871841" x2="363.2810369953052" y2="249.46506495561727" stroke="#F8766D" stroke-width="1.4211023622047245"/><line x1="363.2810369953052" y1="249.46506495561727" x2="368.7329608536065" y2="244.08682262793747" stroke="#F8766D" stroke-width="1.4211023622047245"/><line x1="368.7329608536065" y1="244.08682262793747" x2="374.1848847119079" y2="236.71788042724373" stroke="#F8766D" stroke-width="1.4211023622047245"/><line x1="374.1848847119079" y1="236.71788042724373" x2="379.63680857020915" y2="262.02853610020964" stroke="#F8766D" stroke-width="1.4211023622047245"/><line x1="379.63680857020915" y1="262.02853610020964" x2="385.08873242851047" y2="232.25316838799984" stroke="#F8766D" stroke-width="1.4211023622047245"/><line x1="385.08873242851047" y1="232.25316838799984" x2="390.54065628681184" y2="222.14129950563316" stroke="#F8766D" stroke-width="1.4211023622047245"/><line x1="390.54065628681184" y1="222.14129950563316" x2="395.99258014511315" y2="235.6823539953049" stroke="#F8766D" stroke-width="1.4211023622047245"/><line x1="395.99258014511315" y1="235.6823539953049" x2="401.4445040034145" y2="204.91309022315335" stroke="#F8766D" stroke-width="1.4211023622047245"/><line x1="401.4445040034145" y1="204.91309022315335" x2="406.8964278617157" y2="200.15264555669046" stroke="#F8766D" stroke-width="1.4211023622047245"/><line x1="406.8964278617157" y1="200.15264555669046" x2="412.3483517200171" y2="173.4551810237203" stroke="#F8766D" stroke-width="1.4211023622047245"/><line x1="412.3483517200171" y1="173.4551810237203" x2="417.8002755783184" y2="181.86383127032505" stroke="#F8766D" stroke-width="1.4211023622047245"/><line x1="417.8002755783184" y1="181.86383127032505" x2="423.25219943661966" y2="174.576923230988" stroke="#F8766D" stroke-width="1.4211023622047245"/><line x1="423.25219943661966" y1="174.576923230988" x2="428.70412329492103" y2="173.4551810237203" stroke="#F8766D" stroke-width="1.4211023622047245"/><line x1="428.70412329492103" y1="173.4551810237203" x2="434.15604715322235" y2="172.87731382603698" stroke="#F8766D" stroke-width="1.4211023622047245"/><line x1="434.15604715322235" y1="172.87731382603698" x2="439.6079710115237" y2="142.9437929860401" stroke="#F8766D" stroke-width="1.4211023622047245"/><line x1="439.6079710115237" y1="142.9437929860401" x2="445.05989486982503" y2="158.19948700488024" stroke="#F8766D" stroke-width="1.4211023622047245"/><line x1="445.05989486982503" y1="158.19948700488024" x2="450.5118187281264" y2="163.6626747278432" stroke="#F8766D" stroke-width="1.4211023622047245"/><line x1="450.5118187281264" y1="163.6626747278432" x2="455.96374258642766" y2="98.23613412527268" stroke="#F8766D" stroke-width="1.4211023622047245"/><line x1="455.96374258642766" y1="98.23613412527268" x2="461.41566644472897" y2="145.3525867784886" stroke="#F8766D" stroke-width="1.4211023622047245"/><line x1="461.41566644472897" y1="145.3525867784886" x2="466.86759030303034" y2="117.27711858947812" stroke="#F8766D" stroke-width="1.4211023622047245"/><line x1="79.78099636363636" y1="319.72543411644534" x2="85.23292022193769" y2="313.37562767241934" stroke="#B79F00" stroke-width="1.4211023622047245"/><line x1="85.23292022193769" y1="313.37562767241934" x2="90.68484408023903" y2="302.08013109292483" stroke="#B79F00" stroke-width="1.4211023622047245"/><line x1="90.68484408023903" y1="302.08013109292483" x2="96.13676793854034" y2="289.9993543061363" stroke="#B79F00" stroke-width="1.4211023622047245"/><line x1="96.13676793854034" y1="289.9993543061363" x2="101.58869179684166" y2="291.45643845132565" stroke="#B79F00" stroke-width="1.4211023622047245"/><line x1="101.58869179684166" y1="291.45643845132565" x2="107.04061565514299" y2="279.26250484552327" stroke="#B79F00" stroke-width="1.4211023622047245"/><line x1="107.04061565514299" y1="279.26250484552327" x2="112.49253951344431" y2="260.32172363826396" stroke="#B79F00" stroke-width="1.4211023622047245"/><line x1="112.49253951344431" y1="260.32172363826396" x2="117.94446337174563" y2="256.66805749012076" stroke="#B79F00" stroke-width="1.4211023622047245"/><line x1="117.94446337174563" y1="256.66805749012076" x2="123.39638723004697" y2="234.47795709908067" stroke="#B79F00" stroke-width="1.4211023622047245"/><line x1="123.39638723004697" y1="234.47795709908067" x2="128.84831108834828" y2="227.19683040827067" stroke="#B79F00" stroke-width="1.4211023622047245"/><line x1="128.84831108834828" y1="227.19683040827067" x2="134.3002349466496" y2="205.53352988116512" stroke="#B79F00" stroke-width="1.4211023622047245"/><line x1="134.3002349466496" y1="205.53352988116512" x2="139.75215880495094" y2="192.87981802244292" stroke="#B79F00" stroke-width="1.4211023622047245"/><line x1="139.75215880495094" y1="192.87981802244292" x2="145.20408266325225" y2="197.19311138213493" stroke="#B79F00" stroke-width="1.4211023622047245"/><line x1="145.20408266325225" y1="197.19311138213493" x2="150.65600652155356" y2="188.26107571030957" stroke="#B79F00" stroke-width="1.4211023622047245"/><line x1="150.65600652155356" y1="188.26107571030957" x2="156.1079303798549" y2="170.45546590765628" stroke="#B79F00" stroke-width="1.4211023622047245"/><line x1="156.1079303798549" y1="170.45546590765628" x2="161.55985423815622" y2="178.61519517715152" stroke="#B79F00" stroke-width="1.4211023622047245"/><line x1="161.55985423815622" y1="178.61519517715152" x2="167.01177809645756" y2="173.2308325822668" stroke="#B79F00" stroke-width="1.4211023622047245"/><line x1="167.01177809645756" y1="173.2308325822668" x2="172.4637019547589" y2="172.35764907991884" stroke="#B79F00" stroke-width="1.4211023622047245"/><line x1="172.4637019547589" y1="172.35764907991884" x2="177.9156258130602" y2="162.27183056014303" stroke="#B79F00" stroke-width="1.4211023622047245"/><line x1="177.9156258130602" y1="162.27183056014303" x2="183.36754967136153" y2="183.64305887876768" stroke="#B79F00" stroke-width="1.4211023622047245"/><line x1="183.36754967136153" y1="183.64305887876768" x2="188.81947352966282" y2="172.24654329335445" stroke="#B79F00" stroke-width="1.4211023622047245"/><line x1="188.81947352966282" y1="172.24654329335445" x2="194.27139738796416" y2="168.86009246382872" stroke="#B79F00" stroke-width="1.4211023622047245"/><line x1="194.27139738796416" y1="168.86009246382872" x2="199.72332124626547" y2="159.57486207405663" stroke="#B79F00" stroke-width="1.4211023622047245"/><line x1="199.72332124626547" y1="159.57486207405663" x2="205.1752451045668" y2="168.4900501938559" stroke="#B79F00" stroke-width="1.4211023622047245"/><line x1="205.1752451045668" y1="168.4900501938559" x2="210.62716896286815" y2="157.91697415267947" stroke="#B79F00" stroke-width="1.4211023622047245"/><line x1="210.62716896286815" y1="157.91697415267947" x2="216.07909282116947" y2="165.75071501532173" stroke="#B79F00" stroke-width="1.4211023622047245"/><line x1="216.07909282116947" y1="165.75071501532173" x2="221.5310166794708" y2="171.07147883327653" stroke="#B79F00" stroke-width="1.4211023622047245"/><line x1="221.5310166794708" y1="171.07147883327653" x2="226.9829405377721" y2="157.5008970559977" stroke="#B79F00" stroke-width="1.4211023622047245"/><line x1="226.9829405377721" y1="157.5008970559977" x2="232.4348643960734" y2="182.31215977873413" stroke="#B79F00" stroke-width="1.4211023622047245"/><line x1="232.4348643960734" y1="182.31215977873413" x2="237.88678825437472" y2="165.56430480707888" stroke="#B79F00" stroke-width="1.4211023622047245"/><line x1="237.88678825437472" y1="165.56430480707888" x2="243.33871211267606" y2="171.52123396354892" stroke="#B79F00" stroke-width="1.4211023622047245"/><line x1="243.33871211267606" y1="171.52123396354892" x2="248.79063597097735" y2="169.61381922041522" stroke="#B79F00" stroke-width="1.4211023622047245"/><line x1="248.79063597097735" y1="169.61381922041522" x2="254.2425598292787" y2="178.3334552739308" stroke="#B79F00" stroke-width="1.4211023622047245"/><line x1="254.2425598292787" y1="178.3334552739308" x2="259.69448368758003" y2="174.1886278515492" stroke="#B79F00" stroke-width="1.4211023622047245"/><line x1="259.69448368758003" y1="174.1886278515492" x2="265.14640754588135" y2="163.68200204290088" stroke="#B79F00" stroke-width="1.4211023622047245"/><line x1="265.14640754588135" y1="163.68200204290088" x2="270.59833140418266" y2="164.93163985789107" stroke="#B79F00" stroke-width="1.4211023622047245"/><line x1="270.59833140418266" y1="164.93163985789107" x2="276.05025526248403" y2="162.66384707628495" stroke="#B79F00" stroke-width="1.4211023622047245"/><line x1="276.05025526248403" y1="162.66384707628495" x2="281.5021791207853" y2="167.70817300292438" stroke="#B79F00" stroke-width="1.4211023622047245"/><line x1="281.5021791207853" y1="167.70817300292438" x2="286.95410297908666" y2="170.32657189876286" stroke="#B79F00" stroke-width="1.4211023622047245"/><line x1="286.95410297908666" y1="170.32657189876286" x2="292.40602683738797" y2="175.41560899343108" stroke="#B79F00" stroke-width="1.4211023622047245"/><line x1="292.40602683738797" y1="175.41560899343108" x2="297.8579506956893" y2="153.15715255540164" stroke="#B79F00" stroke-width="1.4211023622047245"/><line x1="297.8579506956893" y1="153.15715255540164" x2="303.3098745539906" y2="171.92016537166984" stroke="#B79F00" stroke-width="1.4211023622047245"/><line x1="303.3098745539906" y1="171.92016537166984" x2="308.7617984122919" y2="166.91057856001675" stroke="#B79F00" stroke-width="1.4211023622047245"/><line x1="308.7617984122919" y1="166.91057856001675" x2="314.2137222705933" y2="166.68453506259016" stroke="#B79F00" stroke-width="1.4211023622047245"/><line x1="314.2137222705933" y1="166.68453506259016" x2="319.66564612889454" y2="155.30828692872905" stroke="#B79F00" stroke-width="1.4211023622047245"/><line x1="319.66564612889454" y1="155.30828692872905" x2="325.1175699871959" y2="175.1531606662282" stroke="#B79F00" stroke-width="1.4211023622047245"/><line x1="325.1175699871959" y1="175.1531606662282" x2="330.5694938454972" y2="176.77163624520728" stroke="#B79F00" stroke-width="1.4211023622047245"/><line x1="330.5694938454972" y1="176.77163624520728" x2="336.02141770379853" y2="168.08034674102083" stroke="#B79F00" stroke-width="1.4211023622047245"/><line x1="336.02141770379853" y1="168.08034674102083" x2="341.4733415620999" y2="183.60913321158466" stroke="#B79F00" stroke-width="1.4211023622047245"/><line x1="341.4733415620999" y1="183.60913321158466" x2="346.92526542040116" y2="172.9626078773556" stroke="#B79F00" stroke-width="1.4211023622047245"/><line x1="346.92526542040116" y1="172.9626078773556" x2="352.37718927870253" y2="183.68765871928377" stroke="#B79F00" stroke-width="1.4211023622047245"/><line x1="352.37718927870253" y1="183.68765871928377" x2="357.82911313700384" y2="173.7398021807882" stroke="#B79F00" stroke-width="1.4211023622047245"/><line x1="357.82911313700384" y1="173.7398021807882" x2="363.2810369953052" y2="195.7478324949127" stroke="#B79F00" stroke-width="1.4211023622047245"/><line x1="363.2810369953052" y1="195.7478324949127" x2="368.7329608536065" y2="178.82429663714703" stroke="#B79F00" stroke-width="1.4211023622047245"/><line x1="368.7329608536065" y1="178.82429663714703" x2="374.1848847119079" y2="192.8274908889141" stroke="#B79F00" stroke-width="1.4211023622047245"/><line x1="374.1848847119079" y1="192.8274908889141" x2="379.63680857020915" y2="177.34437933444434" stroke="#B79F00" stroke-width="1.4211023622047245"/><line x1="379.63680857020915" y1="177.34437933444434" x2="385.08873242851047" y2="206.82701168993302" stroke="#B79F00" stroke-width="1.4211023622047245"/><line x1="385.08873242851047" y1="206.82701168993302" x2="390.54065628681184" y2="204.56316044761212" stroke="#B79F00" stroke-width="1.4211023622047245"/><line x1="390.54065628681184" y1="204.56316044761212" x2="395.99258014511315" y2="173.78973571711595" stroke="#B79F00" stroke-width="1.4211023622047245"/><line x1="395.99258014511315" y1="173.78973571711595" x2="401.4445040034145" y2="215.35266186013337" stroke="#B79F00" stroke-width="1.4211023622047245"/><line x1="401.4445040034145" y1="215.35266186013337" x2="406.8964278617157" y2="219.22226308024057" stroke="#B79F00" stroke-width="1.4211023622047245"/><line x1="406.8964278617157" y1="219.22226308024057" x2="412.3483517200171" y2="217.95095524533727" stroke="#B79F00" stroke-width="1.4211023622047245"/><line x1="412.3483517200171" y1="217.95095524533727" x2="417.8002755783184" y2="208.89163563441187" stroke="#B79F00" stroke-width="1.4211023622047245"/><line x1="417.8002755783184" y1="208.89163563441187" x2="423.25219943661966" y2="229.86278916060806" stroke="#B79F00" stroke-width="1.4211023622047245"/><line x1="423.25219943661966" y1="229.86278916060806" x2="428.70412329492103" y2="222.49134036999203" stroke="#B79F00" stroke-width="1.4211023622047245"/><line x1="428.70412329492103" y1="222.49134036999203" x2="434.15604715322235" y2="242.2213775480374" stroke="#B79F00" stroke-width="1.4211023622047245"/><line x1="434.15604715322235" y1="242.2213775480374" x2="439.6079710115237" y2="251.64061287027576" stroke="#B79F00" stroke-width="1.4211023622047245"/><line x1="439.6079710115237" y1="251.64061287027576" x2="445.05989486982503" y2="226.85011008966063" stroke="#B79F00" stroke-width="1.4211023622047245"/><line x1="445.05989486982503" y1="226.85011008966063" x2="450.5118187281264" y2="233.24100893539094" stroke="#B79F00" stroke-width="1.4211023622047245"/><line x1="450.5118187281264" y1="233.24100893539094" x2="455.96374258642766" y2="273.040961424482" stroke="#B79F00" stroke-width="1.4211023622047245"/><line x1="455.96374258642766" y1="273.040961424482" x2="461.41566644472897" y2="235.6823539953049" stroke="#B79F00" stroke-width="1.4211023622047245"/><line x1="461.41566644472897" y1="235.6823539953049" x2="466.86759030303034" y2="277.69383356799085" stroke="#B79F00" stroke-width="1.4211023622047245"/><text x="500.8885866666667" y="120.45776000000002" fill="#4d4d4d" font-size="14.666666666666666" font-family="sans-serif" text-anchor="start">marital</text><rect x="500.8885866666667" y="127.79109333333335" width="23.114079999999994" height="138.68447999999995" fill="#ebebeb" fill-opacity="1.0" stroke="none"/><rect x="500.8885866666667" y="127.79109333333335" width="23.114079999999994" height="23.114079999999994" fill="#f2f2f2" fill-opacity="1.0" stroke="none"/><rect x="501.8334685564305" y="128.7359752230971" width="21.224316220472435" height="21.224316220472435" fill="#F8766D" fill-opacity="0.0" stroke="#F8766D" stroke-width="1.3333333333333333"/><text x="527.6693333333333" y="143.1028" fill="#4d4d4d" font-size="11.733333333333334" font-family="sans-serif" text-anchor="start">Widowed</text><rect x="500.8885866666667" y="150.90517333333335" width="23.114079999999994" height="23.114079999999994" fill="#f2f2f2" fill-opacity="1.0" stroke="none"/><rect x="501.8334685564305" y="151.85005522309712" width="21.224316220472435" height="21.224316220472435" fill="#B79F00" fill-opacity="0.0" stroke="#B79F00" stroke-width="1.3333333333333333"/><text x="527.6693333333333" y="166.21688" fill="#4d4d4d" font-size="11.733333333333334" font-family="sans-serif" text-anchor="start">Married</text><rect x="500.8885866666667" y="174.01925333333332" width="23.114079999999994" height="23.114079999999994" fill="#f2f2f2" fill-opacity="1.0" stroke="none"/><rect x="501.8334685564305" y="174.9641352230971" width="21.224316220472435" height="21.224316220472435" fill="#00BA38" fill-opacity="0.0" stroke="#00BA38" stroke-width="1.3333333333333333"/><text x="527.6693333333333" y="189.33096" fill="#4d4d4d" font-size="11.733333333333334" font-family="sans-serif" text-anchor="start">Divorced</text><rect x="500.8885866666667" y="197.13333333333335" width="23.114079999999994" height="23.114079999999994" fill="#f2f2f2" fill-opacity="1.0" stroke="none"/><rect x="501.8334685564305" y="198.07821522309715" width="21.224316220472435" height="21.224316220472435" fill="#00BFC4" fill-opacity="0.0" stroke="#00BFC4" stroke-width="1.3333333333333333"/><text x="527.6693333333333" y="212.44504" fill="#4d4d4d" font-size="11.733333333333334" font-family="sans-serif" text-anchor="start">Never married</text><rect x="500.8885866666667" y="220.24741333333333" width="23.114079999999994" height="23.114079999999994" fill="#f2f2f2" fill-opacity="1.0" stroke="none"/><rect x="501.8334685564305" y="221.19229522309712" width="21.224316220472435" height="21.224316220472435" fill="#619CFF" fill-opacity="0.0" stroke="#619CFF" stroke-width="1.3333333333333333"/><text x="527.6693333333333" y="235.55912" fill="#4d4d4d" font-size="11.733333333333334" font-family="sans-serif" text-anchor="start">No answer</text><rect x="500.8885866666667" y="243.36149333333333" width="23.114079999999994" height="23.114079999999994" fill="#f2f2f2" fill-opacity="1.0" stroke="none"/><rect x="501.8334685564305" y="244.30637522309712" width="21.224316220472435" height="21.224316220472435" fill="#F564E3" fill-opacity="0.0" stroke="#F564E3" stroke-width="1.3333333333333333"/><text x="527.6693333333333" y="258.67319999999995" fill="#4d4d4d" font-size="11.733333333333334" font-family="sans-serif" text-anchor="start">Separated</text></svg>